<svg width="131" height="29" viewBox="0 0 131 29" fill="none" xmlns="http://www.w3.org/2000/svg">
<path d="M67.2215 9.99371H70.2066V22.453H67.2215V9.99371ZM60.3213 17.6077H60.278L58.2664 9.99371H55.887L53.8537 17.6077H53.8104L51.5392 9.99371H48.3595L52.8371 22.453H54.6757L57.0334 14.3631H57.0767L59.4128 22.453H61.2514L65.8155 9.99371H62.6358L60.3213 17.6077ZM78.794 9.5611C77.3663 9.5611 76.3713 10.1019 75.3763 11.0752V9.99371H72.6076V22.453H75.5926V16.5262C75.5926 15.5961 75.5926 14.1901 76.1334 13.4114C76.5876 12.7625 77.388 12.3082 78.1667 12.3082C80.3947 12.3082 80.6759 14.5794 80.6759 16.3099V22.453H83.7042V15.5312C83.7042 14.0819 83.5311 12.4596 82.5577 11.2916C81.6709 10.2316 80.1783 9.5611 78.794 9.5611ZM127.225 9.99371L124.932 17.6077H124.889L122.877 9.99371H120.498L118.465 17.6077H118.422L116.15 9.99371H112.971L117.47 22.453H119.308L121.666 14.3631H121.709L124.046 22.453H125.884L130.448 9.99371H127.225ZM92.2699 9.5611C90.8423 9.5611 89.8473 10.1019 88.8523 11.0752V9.99371H86.0835V22.453H89.0686V16.5262C89.0686 15.5961 89.0686 14.1901 89.6094 13.4114C90.0636 12.7625 90.8639 12.3082 91.6427 12.3082C93.8706 12.3082 94.1518 14.5794 94.1518 16.3099V22.453H97.1369V15.5312C97.1369 14.0819 96.9638 12.4596 95.9904 11.2916C95.1468 10.2316 93.6327 9.5611 92.2699 9.5611ZM105.551 20.1169C107.671 20.1169 109.164 18.2999 109.164 16.2666C109.164 14.2766 107.649 12.3082 105.551 12.3082C103.453 12.3082 101.896 14.2117 101.896 16.245C101.896 18.3216 103.41 20.1169 105.551 20.1169ZM105.551 9.5611C109.185 9.5611 112.149 12.5029 112.149 16.1369C112.149 16.1585 112.149 16.1801 112.149 16.1801C112.149 19.9439 109.315 22.8424 105.551 22.8424C101.917 22.8424 98.9106 19.8573 98.9106 16.2234C98.9106 12.5678 101.874 9.5611 105.551 9.5611Z" fill="#121619"/>
<path d="M41.6757 9.58265C41.6757 7.57099 40.5293 5.73238 38.734 4.84551C38.907 4.73736 39.08 4.60758 39.2315 4.45616C39.9669 3.72072 40.2481 2.63918 39.9885 1.62253C39.2315 1.42785 38.4311 1.536 37.7606 1.90373C37.5443 1.14665 37.0684 0.519359 36.3978 0.130005C35.7273 0.519359 35.2298 1.16828 35.0351 1.92536C34.3645 1.53601 33.5642 1.42785 32.8071 1.62253C32.5476 2.63918 32.8288 3.72072 33.5642 4.45616C33.7156 4.60758 33.867 4.73736 34.0617 4.84551C31.4444 6.14336 30.3628 9.32308 31.6607 11.9404C31.704 12.0486 31.7689 12.1351 31.8121 12.2432L36.3978 20.1817L40.9836 12.2432C41.4378 11.4213 41.6757 10.5128 41.6757 9.58265ZM31.5093 27.4064C28.9785 28.8773 25.7339 28.0121 24.2846 25.4813L21.2347 20.1817L18.1631 25.4813C16.6922 28.0121 13.4692 28.8773 10.9384 27.428C10.1381 26.9738 9.46753 26.3032 8.99165 25.4813L1.35599 12.2432C-0.114905 9.71244 0.750326 6.46782 3.28113 4.99693C5.81193 3.52604 9.05654 4.39127 10.5274 6.92207L13.5774 12.2216L16.6273 6.92207C18.0982 4.39127 21.3212 3.52604 23.852 4.9753C24.6523 5.42955 25.3229 6.1001 25.7988 6.92207L33.4344 20.1601C34.9053 22.7125 34.0401 25.9571 31.5093 27.4064Z" fill="#121619"/>
</svg>
