<svg width="152" height="49" viewBox="0 0 152 49" fill="none" xmlns="http://www.w3.org/2000/svg">
<g clip-path="url(#clip0)">
<path fill-rule="evenodd" clip-rule="evenodd" d="M15.1486 24.9499C15.1486 23.1515 14.6362 21.7534 13.6327 20.7954C12.7732 19.9856 11.6349 19.5195 9.94476 19.2842L7.73318 18.9649C7.06773 18.8732 6.47505 18.6211 6.10519 18.2743C5.78219 17.9595 5.60464 17.5229 5.61558 17.0702C5.61558 16.0129 6.32347 14.8837 8.3107 14.8837C9.5082 14.8837 10.8724 15.032 12.0199 16.1244L12.1609 16.2604L14.762 13.663L14.6104 13.5193C13.0067 11.9562 11.0968 11.2594 8.4153 11.2594C4.32866 11.2594 1.6881 13.5881 1.6881 17.194C1.6881 18.8381 2.14588 20.1001 3.09174 21.0536C3.95576 21.897 5.18055 22.4272 6.83582 22.6732L9.09741 22.9926C9.99478 23.13 10.3449 23.321 10.6481 23.6038C10.9846 23.9216 11.1635 24.4211 11.1635 25.0476C11.1635 26.817 9.46879 27.1868 8.04695 27.1868C6.12035 27.1868 4.68639 26.6902 3.66321 25.6588L3.52073 25.5152L0.868042 28.186L1.01204 28.3282C2.76281 30.1188 4.85161 30.8829 7.99844 30.8829C12.2685 30.8829 15.1486 28.4992 15.1486 24.9499ZM22.7276 16.3368C21.5914 16.333 20.4928 16.7476 19.6384 17.5027V11.4275H15.8216V30.7239H19.6444V22.0849C19.6444 20.007 21.183 19.8465 21.6544 19.8465C22.1259 19.8465 23.6917 19.9993 23.6917 22.0849V30.7239H27.5146V21.5807C27.5146 18.3461 25.6835 16.3368 22.7337 16.3368H22.7276ZM39.4637 21.4203V30.7239H35.7197V29.7934C34.8345 30.5574 33.9311 30.8629 32.5516 30.8629C30.954 30.8629 29.7626 30.4443 28.9137 29.5825C28.1437 28.7804 27.7223 27.6283 27.7223 26.3357C27.7223 24.3005 29.0062 22.1262 32.6078 22.1262H35.6393V21.6388C35.6393 20.2193 34.98 19.6662 33.2868 19.6662C31.965 19.6662 31.433 20.0115 30.8055 20.7358L30.6675 20.8978L28.1907 18.4622L28.321 18.3094C29.6398 16.8503 30.9736 16.3338 33.4187 16.3338C37.372 16.3338 39.4623 18.0924 39.4623 21.4173L39.4637 21.4203ZM35.2013 27.0294C35.5045 26.7406 35.6393 26.2654 35.6393 25.4235V24.8842H33.1307C32.0212 24.8842 31.4103 25.3685 31.4103 26.2471C31.4103 27.3946 32.3743 27.6359 33.1838 27.6359C34.1448 27.6359 34.6632 27.5489 35.2028 27.0248L35.2013 27.0294ZM61.4613 17.6356C62.915 19.1009 62.915 21.5899 62.915 23.5945C62.915 25.5992 62.915 28.1097 61.4613 29.575C60.6504 30.3939 59.3467 30.8813 57.9749 30.8813C56.641 30.8813 55.6816 30.5513 54.8599 29.7934V35.7906H51.0416V17.9565L48.2965 20.7526L48.1539 20.6089C47.6523 20.1032 47.2551 19.845 46.479 19.845C45.5119 19.845 44.469 20.5784 44.469 22.1889V30.7224H40.6416V16.5003H44.3857V17.5302C45.2935 16.7579 46.4445 16.3365 47.6325 16.3415C49.0756 16.3415 50.0578 16.7341 51.0128 17.7013L51.0371 17.7257V16.5034H54.7553V17.5103C55.624 16.6974 56.6152 16.3445 57.9765 16.3445C59.3377 16.3445 60.6504 16.8319 61.4629 17.6508L61.4613 17.6356ZM56.976 19.8466C55.198 19.8466 54.8615 21.1636 54.8615 23.5961C54.8615 26.0286 55.198 27.3747 56.976 27.3747C58.7541 27.3747 59.0981 26.0469 59.0981 23.5961C59.0981 21.1452 58.7601 19.8466 56.976 19.8466ZM75.8646 23.1454V24.8872H67.2896C67.3684 26.5419 68.4235 27.5596 70.0833 27.5596C71.5491 27.5596 72.2312 27.1425 73.0482 26.3189L73.1877 26.1767L75.5554 28.5038L75.4038 28.649C74.0396 30.0241 72.6617 30.8829 70.05 30.8829C67.0638 30.8829 63.5062 29.6193 63.5062 23.5961C63.5062 19.1177 65.8723 16.3368 69.6816 16.3368C73.4332 16.3368 75.8571 19.0092 75.8571 23.1454H75.8646ZM67.2881 22.1201H72.075C72.0528 21.7054 71.9551 21.2983 71.787 20.9191C71.4081 20.0726 70.6593 19.6067 69.6816 19.6067C68.7039 19.6067 67.9551 20.0742 67.5746 20.9206C67.4086 21.2999 67.3116 21.7062 67.2881 22.1201ZM108.056 16.3368C106.919 16.333 105.821 16.7476 104.967 17.5027V11.4275H101.151V30.7239H104.975V22.0849C104.975 20.007 106.513 19.8465 106.984 19.8465C107.456 19.8465 109.021 19.9993 109.021 22.0849V30.7239H112.845V21.5807C112.845 18.3461 111.013 16.3368 108.064 16.3368H108.056ZM125.316 21.4203V30.7239H121.572V29.7934C120.687 30.5574 119.784 30.8629 118.404 30.8629C116.808 30.8629 115.617 30.4443 114.767 29.5825C113.998 28.7804 113.575 27.6283 113.575 26.3357C113.575 24.3005 114.859 22.1262 118.463 22.1262H121.494V21.6388C121.494 20.2193 120.835 19.6662 119.141 19.6662C117.819 19.6662 117.287 20.0115 116.662 20.7358L116.52 20.8978L114.045 18.4622L114.176 18.3094C115.494 16.8503 116.828 16.3338 119.273 16.3338C123.227 16.3338 125.316 18.0924 125.316 21.4173V21.4203ZM121.055 27.0294C121.359 26.7406 121.494 26.2654 121.494 25.4235V24.8842H118.987C117.877 24.8842 117.266 25.3685 117.266 26.2471C117.266 27.3946 118.23 27.6359 119.039 27.6359C120 27.6359 120.521 27.5489 121.059 27.0248L121.055 27.0294ZM136.921 17.6356C138.375 19.1009 138.375 21.5899 138.375 23.5945C138.375 25.5992 138.375 28.1096 136.921 29.575C136.111 30.3939 134.807 30.8813 133.436 30.8813C132.1 30.8813 131.14 30.5513 130.319 29.7934V35.7906H126.498V16.5003H130.216V17.5072C131.085 16.6943 132.074 16.3415 133.437 16.3415C134.8 16.3415 136.111 16.8288 136.923 17.6478L136.921 17.6356ZM132.441 19.8466C130.663 19.8466 130.319 21.1636 130.319 23.5961C130.319 26.0286 130.657 27.3747 132.441 27.3747C134.225 27.3747 134.563 26.0469 134.563 23.5961C134.563 21.1452 134.225 19.8466 132.441 19.8466ZM151.33 24.8887H142.749C142.827 26.5435 143.884 27.5611 145.544 27.5611C147.008 27.5611 147.692 27.1439 148.507 26.3204L148.648 26.1783L151.014 28.5054L150.87 28.6505C149.507 30.0257 148.129 30.8843 145.518 30.8843C142.532 30.8843 138.972 29.6207 138.972 23.5976C138.972 19.1192 141.339 16.3383 145.148 16.3383C148.901 16.3383 151.325 19.0107 151.325 23.1468L151.33 24.8887ZM142.761 22.1216H147.548C147.524 21.7066 147.427 21.2993 147.26 20.9191C146.879 20.0742 146.132 19.6081 145.152 19.6081C144.173 19.6081 143.426 20.0757 143.047 20.9222C142.88 21.301 142.783 21.7075 142.761 22.1216ZM86.4814 28.1876C86.5329 28.2395 86.5845 28.2869 86.633 28.3403C86.6603 28.212 86.6845 28.0836 86.7103 27.9553L86.4814 28.1876ZM98.9644 20.7969C98.105 19.987 96.9659 19.5211 95.2757 19.2858L93.0646 18.9664C92.3992 18.8747 91.8064 18.6227 91.4366 18.2758C91.1136 17.9611 90.9361 17.5245 90.947 17.0718C90.947 16.0144 91.6549 14.8853 93.6419 14.8853C94.8354 14.8853 96.208 15.0381 97.3471 16.1291L97.4874 16.265L100.089 13.6675L99.9373 13.5239C98.3348 11.9654 96.4268 11.2687 93.7453 11.2687C91.9096 11.2687 90.3149 11.7561 89.1326 12.6759L89.0341 12.7523L89.0583 12.876C89.6071 15.8062 89.7905 18.7942 89.604 21.7702V21.9031L89.7237 21.9627C90.4978 22.3306 91.3244 22.5734 92.1733 22.6823L94.433 23.0017C95.332 23.1377 95.6828 23.3287 95.9856 23.6129C96.3225 23.9307 96.5007 24.4304 96.5007 25.0568C96.5007 26.82 94.8059 27.1959 93.3844 27.1959C91.717 27.1959 90.4361 26.8261 89.4524 26.0637L89.1856 25.8559L89.1174 26.2791C89.0764 26.5374 89.0356 26.7971 88.9871 27.0569C88.8354 27.9186 88.6414 28.8125 88.4216 29.7124L88.3838 29.8653L88.5353 29.9371C89.836 30.5833 91.3624 30.8843 93.34 30.8843C97.6167 30.8843 100.489 28.5008 100.489 24.9514C100.489 23.153 99.9816 21.7549 98.9736 20.7984L98.9644 20.7969ZM87.4728 11.6308L85.7963 11.1862L84.7504 12.2221C85.4203 14.1214 85.3794 14.731 85.5916 16.9816C84.9418 16.6691 84.227 16.5188 83.5073 16.5431C82.0324 16.5431 80.7168 17.2337 80.0589 18.0298V16.699H76.7241V30.5222H80.1453V22.1903C80.1453 20.4394 81.3049 19.6433 82.3569 19.6433C83.1997 19.6433 83.6468 19.9352 84.1758 20.4653L85.7205 18.8931C85.7879 21.4749 85.5846 24.0566 85.1141 26.5954C82.9389 38.6524 75.7161 47.4243 68.9707 46.1882C66.2831 45.6947 64.0806 43.6855 62.5406 40.6876C64.1837 44.6954 66.7697 47.4106 70.0257 48.008C77.2546 49.3328 85.4491 39.7174 87.829 26.5313C89.0295 19.8771 88.6142 16.5584 87.4743 11.6323L87.4728 11.6308ZM65.4282 9.57871C68.6251 4.61752 72.8936 1.09714 76.9166 1.83208C79.1069 2.2324 80.7577 3.2607 81.8855 5.29744L83.186 4.24469L84.9626 4.85587C83.3498 2.02918 81.27 0.735015 78.6294 0.252185C73.9138 -0.61263 68.9601 3.1782 65.4252 9.57262L65.4282 9.57871ZM84.4138 10.3015C85.6185 10.3015 86.5951 9.31707 86.5951 8.10275C86.5951 6.88844 85.6185 5.90404 84.4138 5.90404C83.2092 5.90404 82.2326 6.88844 82.2326 8.10275C82.2322 8.686 82.4619 9.24549 82.871 9.65791C83.2802 10.0703 83.8352 10.3019 84.4138 10.3015Z" fill="#121619"/>
</g>
<defs>
<clipPath id="clip0">
<rect width="150.462" height="48" fill="white" transform="translate(0.868042 0.130005)"/>
</clipPath>
</defs>
</svg>
