<svg width="567" height="398" viewBox="0 0 567 398" fill="none" xmlns="http://www.w3.org/2000/svg">
<path d="M354 70L346 62" stroke="#171717" stroke-width="1.5"/>
<path d="M399 70L407 62" stroke="#171717" stroke-width="1.5"/>
<rect x="217" y="273" width="16" height="32" fill="#E5E5E5"/>
<path d="M265.002 313L294 339" stroke="#FBBF24" stroke-width="8" stroke-linejoin="bevel"/>
<circle cx="3.2" cy="3.2" r="4" transform="matrix(-1 0 0 1 268.2 309.801)" fill="#171717" stroke="#171717" stroke-width="1.6"/>
<rect x="287.941" y="271" width="32" height="32" transform="rotate(36.294 287.941 271)" fill="#FB923C"/>
<path d="M317.366 337L339.994 359.627L317.366 359.627L294.739 359.627L317.366 337Z" fill="#FB923C"/>
<rect x="419" y="273" width="32" height="32" fill="#4ADE80"/>
<rect x="467" y="273" width="32" height="32" fill="#4ADE80"/>
<rect x="515" y="273" width="32" height="32" fill="#4ADE80"/>
<rect x="349" y="273" width="16" height="32" fill="#4ADE80"/>
<path d="M222.664 158.584V160.024H220.846C219.676 160.024 219.082 159.34 219.082 158.314V157.18C216.22 156.874 214.42 154.642 214.42 150.718C214.42 146.488 216.526 144.22 219.784 144.22C223.042 144.22 225.148 146.488 225.148 150.718C225.148 154.534 223.438 156.748 220.702 157.144V158.584H222.664ZM219.784 155.65C221.872 155.65 223.276 154.138 223.276 151.744V149.692C223.276 147.298 221.872 145.786 219.784 145.786C217.696 145.786 216.292 147.298 216.292 149.692V151.744C216.292 154.138 217.696 155.65 219.784 155.65ZM229.126 144.436H230.872V152.194C230.872 154.48 231.61 155.65 233.734 155.65C235.858 155.65 236.596 154.48 236.596 152.194V144.436H238.342V151.852C238.342 155.524 237.082 157.216 233.68 157.216C230.278 157.216 229.126 155.524 229.126 151.852V144.436ZM252.328 157H250.492L249.304 153.454H244.408L243.202 157H241.438L245.794 144.436H247.99L252.328 157ZM248.872 151.906L246.892 146.038H246.802L244.822 151.906H248.872ZM262.775 157H255.791V144.436H257.537V155.452H262.775V157ZM271.016 157H265.778V155.524H267.524V145.912H265.778V144.436H271.016V145.912H269.27V155.524H271.016V157ZM277.701 157V145.984H273.813V144.436H283.335V145.984H279.447V157H277.701ZM291.562 157H289.816V152.05L285.496 144.436H287.494L290.716 150.286H290.77L293.974 144.436H295.918L291.562 151.996V157ZM309.434 157.216C306.23 157.216 304.268 154.912 304.268 150.718C304.268 146.524 306.23 144.22 309.434 144.22C311.558 144.22 313.016 145.21 313.826 147.01L312.386 147.838C311.918 146.596 310.946 145.786 309.434 145.786C307.382 145.786 306.14 147.316 306.14 149.764V151.672C306.14 154.12 307.382 155.65 309.434 155.65C310.982 155.65 312.026 154.768 312.494 153.472L313.898 154.318C313.088 156.118 311.558 157.216 309.434 157.216ZM325.399 157V151.42H319.351V157H317.605V144.436H319.351V149.872H325.399V144.436H327.145V157H325.399ZM339.654 157H331.824V144.436H339.654V145.984H333.57V149.872H339.204V151.42H333.57V155.452H339.654V157ZM348.4 157.216C345.196 157.216 343.234 154.912 343.234 150.718C343.234 146.524 345.196 144.22 348.4 144.22C350.524 144.22 351.982 145.21 352.792 147.01L351.352 147.838C350.884 146.596 349.912 145.786 348.4 145.786C346.348 145.786 345.106 147.316 345.106 149.764V151.672C345.106 154.12 346.348 155.65 348.4 155.65C349.948 155.65 350.992 154.768 351.46 153.472L352.864 154.318C352.054 156.118 350.524 157.216 348.4 157.216ZM364.078 157L360.064 150.952L358.318 152.932V157H356.572V144.436H358.318V150.988H358.39L360.172 148.756L363.79 144.436H365.878L361.288 149.782L366.22 157H364.078Z" fill="#171717"/>
<rect x="407" y="111" width="286" height="232" transform="rotate(90 407 111)" stroke="#171717" stroke-width="1.5"/>
<rect x="365" y="245" width="114" height="148" transform="rotate(90 365 245)" stroke="#171717" stroke-width="1.5"/>
<path d="M218 313L265 313L294 339" stroke="#171717" stroke-width="1.5"/>
<path d="M407 313H567" stroke="#171717" stroke-width="1.5"/>
<path d="M365 313L313 313" stroke="#171717" stroke-width="1.5"/>
<path d="M220 220L236 204" stroke="#171717" stroke-width="1.5"/>
<path d="M236 220L220 204" stroke="#171717" stroke-width="1.5"/>
<path d="M345 213.3L349.8 218.1L361 206.9" stroke="#171717" stroke-width="1.5"/>
<rect x="359" y="103" width="36" height="8" stroke="#171717" stroke-width="1.5"/>
<rect width="36" height="28" transform="matrix(1 0 0 -1 359 103)" fill="#FB923C" stroke="#171717" stroke-width="1.5"/>
<path d="M15 313L175 313" stroke="#171717" stroke-width="1.5"/>
<rect x="83" y="273" width="32" height="32" fill="#E5E5E5"/>
<rect x="35" y="273" width="32" height="32" fill="#E5E5E5"/>
<rect x="131" y="273" width="32" height="32" fill="#E5E5E5"/>
<path d="M352 88H340" stroke="#171717" stroke-width="1.5"/>
<path d="M413 88H401" stroke="#171717" stroke-width="1.5"/>
<path d="M337.536 225.718H316.481C316.481 212.726 305.761 202.192 292.536 202.192V181.508C317.389 181.508 337.536 201.301 337.536 225.718Z" fill="#4ADE80"/>
<path d="M292.537 181.508V202.192C279.313 202.192 268.591 212.726 268.591 225.718H247.537C247.537 201.301 267.684 181.508 292.537 181.508Z" fill="#FB923C"/>
<circle cx="292.871" cy="224.319" r="5.25218" stroke="#171717" stroke-width="1.5"/>
<path d="M287.8 222.561L247 211" stroke="#171717" stroke-width="1.5" stroke-miterlimit="10"/>
<path d="M378 61V49" stroke="#171717" stroke-width="1.5"/>
<path d="M19.3522 121.638C20.6192 122.905 22.3102 123.744 24.1943 123.923C24.5616 123.956 24.9432 123.965 25.3247 123.951C28.5559 123.8 31.7871 123.65 35.0183 123.499C38.1129 123.353 41.005 125.025 42.4275 127.776C43.9112 130.649 45.3996 133.522 46.8833 136.395C49.0265 140.54 54.2689 141.949 58.2019 139.429C59.3465 138.694 60.4958 137.959 61.6451 137.224L66.3742 134.191C68.9789 132.519 72.3232 132.519 74.9279 134.191C77.6504 135.939 80.3729 137.681 83.1001 139.429C87.0284 141.949 92.2756 140.54 94.4187 136.395C95.9024 133.522 97.3909 130.649 98.8746 127.776C100.297 125.025 103.189 123.353 106.284 123.499C109.515 123.65 112.746 123.8 115.977 123.951C116.218 123.96 116.458 123.96 116.693 123.951C118.742 123.866 120.593 122.995 121.95 121.638C123.448 120.141 124.352 118.04 124.267 115.741C124.145 112.486 123.966 109.227 123.815 105.972C123.669 102.878 125.341 99.9855 128.092 98.5631C130.965 97.0793 133.838 95.5909 136.712 94.1072C140.857 91.9641 142.265 86.7216 139.745 82.7886C137.998 80.0661 136.255 77.3436 134.507 74.6164C132.835 72.0116 132.835 68.6674 134.507 66.0626C136.255 63.3401 137.998 60.6176 139.745 57.8904C140.329 56.9814 140.701 56.0063 140.875 55.0125C141.469 51.7059 139.9 48.2251 136.712 46.5765C133.838 45.0928 130.965 43.6044 128.092 42.1207C125.341 40.6982 123.669 37.8061 123.815 34.7115C123.966 31.4803 124.117 28.2491 124.267 25.0179C124.277 24.7777 124.277 24.5422 124.267 24.3067C124.183 22.2577 123.311 20.4066 121.955 19.0453C120.598 17.6841 118.747 16.8174 116.698 16.7326C116.462 16.7232 116.222 16.7232 115.982 16.7326C112.751 16.8834 109.52 17.0341 106.288 17.1848C103.194 17.3308 100.302 15.6587 98.8793 12.9079C97.3956 10.0347 95.9072 7.1615 94.4234 4.28827C92.2803 0.143289 87.0378 -1.26506 83.1048 1.2549C80.3823 3.00238 77.6598 4.74516 74.9326 6.49265C72.3279 8.16477 68.9836 8.16477 66.3789 6.49265L61.6498 3.45927C60.5052 2.72448 59.3559 1.98969 58.2067 1.2549C54.2783 -1.26506 49.0312 0.143289 46.888 4.28827C45.4043 7.1615 43.9159 10.0347 42.4322 12.9079C41.0097 15.6587 38.1176 17.3308 35.023 17.1848C31.7918 17.0341 24.5664 16.7232 24.199 16.7609C22.3149 16.9399 20.6239 17.7783 19.3569 19.0453C17.9956 20.4066 17.1289 22.2577 17.0442 24.3067C17.0347 24.5422 17.0347 24.7777 17.0442 25.0179C17.1949 28.2491 17.3456 31.4803 17.4963 34.7115C17.6424 37.8061 15.9702 40.6982 13.2195 42.1207C10.3462 43.6044 7.47302 45.0928 4.59979 46.5765C1.41098 48.2251 -0.157514 51.7059 0.435972 55.0125C0.61496 56.0063 0.987066 56.9861 1.56642 57.8904L6.80417 66.0626C8.47629 68.6674 8.47629 72.0116 6.80417 74.6164L1.56642 82.7886C-0.953539 86.7169 0.454812 91.9641 4.59979 94.1072C7.47302 95.5909 10.3462 97.0793 13.2195 98.5631C15.9702 99.9855 17.6424 102.878 17.4963 105.972C17.3456 109.227 17.1666 112.482 17.0442 115.741C16.9594 118.044 17.859 120.141 19.3616 121.638H19.3522Z" fill="#FBBF24"/>
<circle cx="70.3944" cy="69.3257" r="56.1899" stroke="#171717" stroke-width="1.5"/>
<path d="M45.6812 67.106V68.422H44.2952C43.2032 68.422 42.6992 67.82 42.6992 66.868V66.126C40.5152 65.846 39.1292 64.11 39.1292 61.114C39.1292 57.824 40.7952 56.06 43.3432 56.06C45.8912 56.06 47.5572 57.824 47.5572 61.114C47.5572 64.026 46.2552 65.748 44.1832 66.098V67.106H45.6812ZM43.3432 64.754C44.8552 64.754 45.8632 63.662 45.8632 61.884V60.344C45.8632 58.566 44.8552 57.474 43.3432 57.474C41.8312 57.474 40.8232 58.566 40.8232 60.344V61.884C40.8232 63.662 41.8312 64.754 43.3432 64.754ZM50.594 56.228H52.148V62.248C52.148 63.9 52.722 64.754 54.248 64.754C55.774 64.754 56.348 63.9 56.348 62.248V56.228H57.902V61.996C57.902 64.852 56.922 66.168 54.248 66.168C51.574 66.168 50.594 64.852 50.594 61.996V56.228ZM68.8776 66H67.2256L66.3436 63.354H62.6896L61.8356 66H60.2256L63.5576 56.228H65.5456L68.8776 66ZM65.9516 61.996L64.5516 57.684H64.4816L63.0676 61.996H65.9516ZM77.0691 66H71.5111V56.228H73.0931V64.6H77.0691V66ZM83.6449 66H79.3889V64.712H80.7189V57.516H79.3889V56.228H83.6449V57.516H82.3009V64.712H83.6449V66ZM88.715 66V57.628H85.803V56.228H93.209V57.628H90.297V66H88.715ZM99.8178 66H98.2358V62.15L94.8758 56.228H96.6818L99.0618 60.582H99.1038L101.47 56.228H103.206L99.8178 62.122V66ZM33.0671 84V82.516H33.0111C32.8151 83.454 31.8631 84.168 30.3791 84.168C28.0551 84.168 26.3471 82.39 26.3471 79.114C26.3471 75.852 28.0551 74.06 30.6171 74.06C32.3671 74.06 33.5851 74.886 34.2571 76.258L32.9691 77.014C32.5911 76.104 31.8071 75.474 30.6171 75.474C29.0771 75.474 28.0411 76.524 28.0411 78.316V79.912C28.0411 81.704 29.0771 82.754 30.6171 82.754C31.8491 82.754 32.9271 82.124 32.9271 80.906V80.15H30.9111V78.792H34.4531V84H33.0671ZM37.7162 74.228H39.2702V80.248C39.2702 81.9 39.8442 82.754 41.3702 82.754C42.8962 82.754 43.4702 81.9 43.4702 80.248V74.228H45.0242V79.996C45.0242 82.852 44.0442 84.168 41.3702 84.168C38.6962 84.168 37.7162 82.852 37.7162 79.996V74.228ZM55.9998 84H54.3478L53.4658 81.354H49.8118L48.9578 84H47.3478L50.6798 74.228H52.6678L55.9998 84ZM53.0738 79.996L51.6738 75.684H51.6038L50.1898 79.996H53.0738ZM60.2153 80.052V84H58.6333V74.228H62.8473C64.5973 74.228 65.6753 75.362 65.6753 77.168C65.6753 78.554 65.0173 79.52 63.7713 79.884L65.8853 84H64.1213L62.1613 80.052H60.2153ZM60.2153 78.722H62.7353C63.5333 78.722 64.0093 78.288 64.0093 77.504V76.832C64.0093 76.048 63.5333 75.614 62.7353 75.614H60.2153V78.722ZM76.6831 84H75.0311L74.1491 81.354H70.4951L69.6411 84H68.0311L71.3631 74.228H73.3511L76.6831 84ZM73.7571 79.996L72.3571 75.684H72.2871L70.8731 79.996H73.7571ZM85.1407 84L81.9487 78.596L80.8707 76.524H80.8287V84H79.3167V74.228H81.0807L84.2727 79.632L85.3507 81.704H85.3927V74.228H86.9047V84H85.1407ZM92.4748 84V75.628H89.5628V74.228H96.9688V75.628H94.0568V84H92.4748ZM105.889 84H99.6309V74.228H105.889V75.628H101.213V78.344H105.455V79.744H101.213V82.6H105.889V84ZM115.308 84H109.05V74.228H115.308V75.628H110.632V78.344H114.874V79.744H110.632V82.6H115.308V84Z" fill="#171717"/>
</svg>
