<svg width="137" height="35" viewBox="0 0 137 35" fill="none" xmlns="http://www.w3.org/2000/svg">
<path d="M9.09107 4.64016L8.18986 3.40619C10.9736 1.50333 14.2252 0.5 17.627 0.5C21.0289 0.5 24.2804 1.50332 27.0642 3.40619L26.1629 4.64021C23.6421 2.92642 20.6998 2.023 17.6269 2.023C14.554 2.023 11.6118 2.92654 9.09107 4.64016Z" fill="black" stroke="black"/>
<path d="M27.8079 3.94438C31.8948 7.07964 34.3208 11.9667 34.3208 17.1067C34.3208 18.7072 34.0932 20.2844 33.6442 21.8026L32.183 21.3301C32.5829 19.9628 32.7852 18.5443 32.7852 17.1067C32.7852 12.4499 30.5959 8.02641 26.9066 5.17851L27.8079 3.94438Z" fill="black" stroke="black"/>
<path d="M33.3067 22.702C31.0537 28.9498 25.1339 33.461 18.127 33.6666V32.2242C24.4871 32.0196 29.8603 27.9266 31.923 22.2545L33.3067 22.702Z" fill="black" stroke="black"/>
<path d="M7.4373 4.0029L8.29069 5.17162C4.72385 7.93822 2.4275 12.2558 2.4275 17.1078C2.4275 18.5634 2.63434 19.9716 3.02045 21.3044L1.63676 21.7519C1.20514 20.2787 0.973633 18.7205 0.973633 17.1076C0.973633 11.7774 3.5038 7.03445 7.4373 4.0029Z" fill="black" stroke="black"/>
<path d="M17.1267 33.6667C10.1199 33.4612 4.20003 28.9496 1.94711 22.702L3.33066 22.2545C5.39349 27.9266 10.7665 32.0196 17.1267 32.2243V33.6667Z" fill="black" stroke="black"/>
<path d="M24.3438 29.6012C22.288 30.6961 19.9756 31.2734 17.6266 31.2734C9.92745 31.2734 3.63868 25.1637 3.3941 17.5669H4.92224C5.166 24.3334 10.7732 29.7587 17.6265 29.7587C19.7066 29.7587 21.7555 29.2514 23.5815 28.2874L24.3438 29.6012Z" fill="black" stroke="black"/>
<path d="M3.39508 16.6477C3.63966 9.05113 9.92843 2.94141 17.6276 2.94141C19.9769 2.94141 22.2893 3.51866 24.3448 4.61365L23.5825 5.92741C21.7565 4.96318 19.7076 4.45596 17.6275 4.45596C10.774 4.45596 5.16697 9.88124 4.92321 16.6477H3.39508Z" fill="black" stroke="black"/>
<path d="M25.1398 29.1433L24.3774 27.8293C26.9074 26.2499 28.7965 23.8475 29.7196 21.0188C30.1307 19.7592 30.3389 18.4431 30.3389 17.1074C30.3389 12.7563 28.0657 8.69151 24.3773 6.38599L25.1398 5.07202C29.3008 7.64908 31.8664 12.2201 31.8664 17.1074C31.8664 18.604 31.633 20.0767 31.1732 21.4859C30.1339 24.6703 28.0008 27.3736 25.1398 29.1433Z" fill="black" stroke="black"/>
<path d="M17.1681 28.831C10.875 28.5902 5.83301 23.421 5.83301 17.1074C5.83301 10.7939 10.875 5.62458 17.1681 5.38377V6.90809C11.7255 7.14784 7.36875 11.6284 7.36875 17.1074C7.36875 22.5865 11.7255 27.0672 17.1681 27.3069V28.831Z" fill="black" stroke="black"/>
<path d="M18.1279 6.86922V5.42591C24.3894 5.68653 29.3813 10.819 29.3813 17.1075C29.3813 23.3958 24.3894 28.5282 18.1279 28.7889V27.3457C23.5818 27.0862 27.9272 22.6037 27.9272 17.1075C27.9272 11.6111 23.5818 7.12874 18.1279 6.86922Z" fill="black" stroke="black"/>
<path d="M47.7183 22.6379C44.6178 22.6379 42.1729 20.2527 42.1729 17.1998C42.1729 14.0672 44.602 11.6504 47.7183 11.6504C50.8345 11.6504 53.1838 14.0037 53.1838 17.1044C53.1839 20.237 50.8027 22.6379 47.7183 22.6379ZM47.6704 13.6699C45.8165 13.6699 44.3941 15.1804 44.3941 17.168C44.3941 19.1399 45.8165 20.6505 47.6704 20.6505C49.5559 20.6505 50.9624 19.156 50.9624 17.1521C50.9624 15.1644 49.5561 13.6699 47.6704 13.6699Z" fill="black"/>
<path d="M56.2409 15.1007V16.166C56.5924 15.2436 57.1359 14.8462 58.0787 14.8462C58.1266 14.8462 58.2225 14.8462 58.3184 14.8462V16.8972C58.1425 16.8972 57.9987 16.8972 57.9028 16.8972C56.8002 16.8972 56.2408 17.5652 56.2408 18.9011V22.447H54.2109V15.1007H56.2409Z" fill="black"/>
<path d="M61.3794 22.4476H59.3496V11.8574H61.3794V15.992C62.0826 15.1809 62.7698 14.847 63.7766 14.847C65.9499 14.847 67.5003 16.4847 67.5003 18.8221C67.5003 21.1278 66.0139 22.6861 63.8725 22.6861C62.7539 22.6861 62.0346 22.3679 61.3794 21.5095V22.4476ZM63.3451 21.0802C64.5116 21.0802 65.3267 20.1578 65.3267 18.838C65.3267 17.5342 64.4958 16.5484 63.3769 16.5484C62.2422 16.5484 61.3472 17.566 61.3472 18.8698C61.3474 20.1578 62.1785 21.0802 63.3451 21.0802Z" fill="black"/>
<path d="M69.5348 14.115C68.8955 14.115 68.416 13.638 68.416 12.9862C68.416 12.334 68.8955 11.873 69.5348 11.873C70.1899 11.873 70.6696 12.3501 70.6696 12.9862C70.6696 13.638 70.1899 14.115 69.5348 14.115ZM70.5575 22.4472H68.528V15.101H70.5575V22.4472Z" fill="black"/>
<path d="M74.5719 20.2851C74.5719 20.6349 74.7315 20.7621 75.1472 20.7621H75.4987V22.4476H73.8687C72.9258 22.4476 72.5263 22.05 72.5263 21.0485V16.7708H71.6953V15.0696H72.5263V13.0977H74.5719V15.0695H75.4987V16.7707H74.5719V20.2851Z" fill="black"/>
<path d="M82.3741 15.1007H84.4198V22.447H82.3903V21.4454C81.6871 22.3197 80.8879 22.6855 79.8011 22.6855C77.7237 22.6855 76.2373 21.0953 76.2373 18.8532C76.2373 16.5477 77.8035 14.8462 79.961 14.8462C80.9679 14.8462 81.6711 15.1959 82.3741 16.0388V15.1007ZM82.4061 18.7261C82.4061 17.4538 81.559 16.5478 80.3604 16.5478C79.2256 16.5478 78.3946 17.502 78.3946 18.8215C78.3946 20.1097 79.2417 21.0796 80.3604 21.0796C81.4789 21.0796 82.358 20.1097 82.4061 18.8373C82.4061 18.7579 82.4061 18.7739 82.4061 18.7261Z" fill="black"/>
<path d="M85.8203 22.4476V11.8574H87.8499V22.4476H85.8203Z" fill="black"/>
<path d="M96.5416 22.4476H94.3682V11.8574H96.5416V22.4476Z" fill="black"/>
<path d="M100.023 15.1006V15.9912C100.55 15.1642 101.109 14.8462 102.02 14.8462C102.723 14.8462 103.411 15.1006 103.842 15.5298C104.353 16.0388 104.497 16.5792 104.497 17.8037V22.4468H102.468V17.899C102.468 17.0087 102.084 16.5476 101.317 16.5476C100.55 16.5476 100.023 17.1358 100.023 17.9785V22.4468H97.9932V15.1006H100.023Z" fill="black"/>
<path d="M109.463 17.2316C109.463 17.1363 109.463 17.1519 109.463 17.1043C109.463 16.6592 109.063 16.341 108.52 16.341C108.04 16.341 107.705 16.6114 107.705 16.9931C107.705 17.3749 107.944 17.5971 108.568 17.7878C109.926 18.1857 110.485 18.4402 110.869 18.8056C111.269 19.1872 111.492 19.7437 111.492 20.332C111.492 21.7475 110.342 22.6855 108.632 22.6855C106.858 22.6855 105.787 21.8268 105.707 20.3003H107.657C107.737 20.9364 108.04 21.2225 108.616 21.2225C109.095 21.2225 109.447 20.9205 109.447 20.5228C109.447 20.0617 109.159 19.8707 108.056 19.5371C106.458 19.0598 105.755 18.3287 105.755 17.1835C105.755 15.7842 106.89 14.8462 108.616 14.8462C110.294 14.8462 111.332 15.7368 111.381 17.2313H109.463V17.2316Z" fill="black"/>
<path d="M113.755 14.115C113.116 14.115 112.637 13.638 112.637 12.9862C112.637 12.334 113.116 11.873 113.755 11.873C114.411 11.873 114.89 12.3501 114.89 12.9862C114.89 13.638 114.411 14.115 113.755 14.115ZM114.778 22.4472H112.749V15.101H114.778V22.4472Z" fill="black"/>
<path d="M121.942 15.1007H123.924V21.9221C123.924 23.4169 123.652 24.2914 122.949 24.975C122.198 25.6908 121.127 26.0884 119.881 26.0884C118.426 26.0884 117.26 25.6111 116.237 24.6254L117.499 23.3531C118.155 24.053 118.858 24.3708 119.801 24.3708C121.143 24.3708 121.942 23.5596 121.942 22.2083V21.4452C121.271 22.2878 120.408 22.6853 119.337 22.6853C117.308 22.6853 115.821 21.0795 115.821 18.8372C115.821 16.4519 117.308 14.8462 119.545 14.8462C120.568 14.8462 121.287 15.1959 121.942 16.0068V15.1007H121.942ZM119.96 16.6428C118.81 16.6428 117.995 17.5178 117.995 18.742C117.995 19.998 118.826 20.9045 119.976 20.9045C121.175 20.9045 121.894 20.1411 121.894 18.8852C121.894 17.486 121.159 16.6428 119.96 16.6428Z" fill="black"/>
<path d="M127.354 15.8804C127.961 15.1648 128.584 14.8468 129.368 14.8468C130.007 14.8468 130.726 15.1329 131.141 15.5305C131.637 16.0075 131.813 16.5323 131.813 17.5975V22.4475H129.783V17.8838C129.767 17.0728 129.336 16.5482 128.664 16.5482C127.865 16.5482 127.354 17.1365 127.354 18.0745V22.4475H125.324V11.8574H127.354V15.8804H127.354Z" fill="black"/>
<path d="M135.57 20.2851C135.57 20.6349 135.73 20.7621 136.145 20.7621H136.497V22.4476H134.867C133.924 22.4476 133.524 22.05 133.524 21.0485V16.7708H132.693V15.0696H133.524V13.0977H135.57V15.0695H136.497V16.7707H135.57V20.2851Z" fill="black"/>
</svg>
