<svg width="118" height="24" viewBox="0 0 118 24" fill="none" xmlns="http://www.w3.org/2000/svg">
<path d="M43.1962 21.4461L39.1827 15.4935C39.034 15.2734 38.9794 15.003 39.0311 14.7425C39.0829 14.482 39.2366 14.253 39.4581 14.1064C41.2964 12.8749 42.4495 10.6716 42.4495 8.13021C42.4495 3.77854 38.8087 0.335938 34.3227 0.335938H24.679C24.5039 0.335938 24.336 0.405565 24.2123 0.529471C24.0886 0.653377 24.0192 0.821388 24.0195 0.996469V5.21491C24.0187 5.38871 24.1539 5.53282 24.3274 5.54294C27.5909 5.71871 30.2117 8.53212 30.2117 11.7419C30.2117 14.9819 27.5629 17.7348 24.3274 17.9095C24.1539 17.9196 24.0187 18.0637 24.0195 18.2375V22.3294C24.0195 22.6936 24.3148 22.9888 24.679 22.9888H30.2823C30.6465 22.9888 30.9417 22.6936 30.9417 22.3294V20.3579C30.9417 18.9529 32.1553 18.6125 33.0834 19.7142L35.4344 22.6575C35.6457 22.8712 35.9333 22.992 36.2338 22.9933H42.3734C42.7411 22.9952 43.0796 22.7931 43.2523 22.4684C43.425 22.1437 43.4034 21.75 43.1962 21.4461Z" fill="black"/>
<path d="M46.2738 0.324219H51.1304C51.4948 0.324837 51.7898 0.620386 51.7898 0.98475V22.3211C51.7898 22.6852 51.4946 22.9805 51.1304 22.9805H46.2738C45.9094 22.9805 45.6139 22.6854 45.6133 22.3211V0.98475C45.6133 0.619949 45.909 0.324219 46.2738 0.324219Z" fill="black"/>
<path d="M59.6714 5.91522H54.5539C54.1919 5.91523 53.8976 5.6234 53.8945 5.26141V0.98475C53.8945 0.620386 54.1896 0.324837 54.5539 0.324219H71.5027C71.8671 0.324837 72.1621 0.620386 72.1621 0.98475V5.26141C72.1621 5.62559 71.8669 5.92082 71.5027 5.92082H66.5107C66.33 5.92441 66.1845 6.07037 66.1815 6.25108V22.3211C66.1815 22.6852 65.8863 22.9805 65.5221 22.9805H60.6655C60.3012 22.9805 60.0056 22.6854 60.005 22.3211V6.24549C60.002 6.06305 59.8538 5.91641 59.6714 5.91522Z" fill="black"/>
<path d="M75.0227 0.324219H90.4108C90.7752 0.324837 91.0702 0.620386 91.0702 0.98475V5.22334C91.0702 5.39823 91.0008 5.56595 90.8771 5.68962C90.7534 5.81328 90.5857 5.88275 90.4108 5.88275H80.869C80.6835 5.88275 80.5331 6.03313 80.5331 6.21862V8.68162C80.5331 8.77009 80.5687 8.85484 80.6319 8.91677C80.695 8.97869 80.7805 9.01257 80.869 9.01076H89.7279C90.0923 9.01138 90.3873 9.30693 90.3873 9.67129V13.4229C90.3873 13.7871 90.0921 14.0823 89.7279 14.0823H80.869C80.6861 14.0823 80.5367 14.2286 80.5331 14.4115V17.198C80.5367 17.3809 80.6861 17.5272 80.869 17.5272H90.6706C91.0349 17.5278 91.33 17.8233 91.33 18.1877V22.33C91.33 22.6942 91.0348 22.9894 90.6706 22.9894H75.0227C74.6585 22.9894 74.3633 22.6942 74.3633 22.33V0.98475C74.363 0.80967 74.4323 0.641658 74.556 0.517752C74.6797 0.393846 74.8476 0.324219 75.0227 0.324219Z" fill="black"/>
<path d="M105.427 0C98.5039 0 92.9453 5.26186 92.9453 11.7339C92.9453 18.206 98.5039 23.4365 105.427 23.4365C112.383 23.4365 117.941 18.2027 117.941 11.7339C117.941 5.26522 112.383 0 105.427 0ZM105.427 17.9127C103.788 17.9175 102.214 17.2682 101.055 16.1089C99.8956 14.9495 99.2466 13.3757 99.2517 11.7362C99.2517 8.38875 102.015 5.52831 105.427 5.52831C108.839 5.52831 111.636 8.42121 111.636 11.7362C111.642 15.0825 108.819 17.9127 105.433 17.9127H105.427Z" fill="black"/>
<path d="M12.3519 0C15.8763 0 19.0311 1.50467 21.2859 3.90385C21.4083 4.03666 21.4709 4.21376 21.4593 4.39396C21.4476 4.57415 21.3627 4.74173 21.2243 4.8577L18.0247 7.53901C17.7639 7.75431 17.3826 7.73788 17.1413 7.50095C15.8629 6.24625 14.1465 5.53803 12.3553 5.52607C8.9418 5.52607 6.17877 8.12677 6.17877 11.669C6.17877 15.2113 8.9418 17.7806 12.3553 17.7806C14.1464 17.7682 15.8626 17.06 17.1413 15.8057C17.3823 15.5685 17.7636 15.5516 18.0247 15.7665L21.2266 18.4479C21.3654 18.5635 21.4507 18.731 21.4626 18.9113C21.4744 19.0916 21.4118 19.2689 21.2893 19.4017C19.0345 21.8009 15.8796 23.3056 12.3553 23.3056C5.52607 23.3056 0 18.3975 0 11.669C0 4.94055 5.52607 0 12.3519 0Z" fill="black"/>
</svg>
