<svg width="284" height="152" viewBox="0 0 284 152" fill="none" xmlns="http://www.w3.org/2000/svg">
<rect width="283" height="152" transform="translate(0.888916)" fill="#93C5FD"/>
<path fill-rule="evenodd" clip-rule="evenodd" d="M143.881 56.75C135.006 56.75 127.299 61.815 121.161 72.6456C120.685 73.4864 119.617 73.7818 118.776 73.3053C117.935 72.8288 117.64 71.7609 118.116 70.92C124.659 59.3735 133.362 53.25 143.881 53.25C146.46 53.25 148.628 54.0092 150.153 55.5341C151.674 57.0554 152.344 59.1281 152.344 61.3402C152.344 63.8824 151.201 65.8535 149.707 67.4279C148.281 68.9311 146.423 70.1865 144.759 71.3109L144.674 71.3681C142.91 72.56 141.357 73.6185 140.22 74.817C139.127 75.9698 138.545 77.1221 138.545 78.4959C138.545 79.4059 138.874 80.3715 139.532 81.0921C140.159 81.7781 141.17 82.3402 142.762 82.3402C144.728 82.3402 146.083 81.6835 147.565 80.8756C147.676 80.815 147.789 80.7524 147.905 80.6884C149.282 79.9287 150.994 78.9836 153.204 78.9836C154.839 78.9836 156.3 79.4535 157.381 80.3901C158.475 81.3388 159.057 82.666 159.057 84.0902C159.057 86.1355 158.244 87.3639 157.517 88.2127C157.336 88.4238 157.213 88.558 157.119 88.6611C157.019 88.7704 156.952 88.8446 156.88 88.9383C156.895 88.9622 156.913 88.9894 156.935 89.0198C157.107 89.2648 157.396 89.5845 157.819 89.9677C158.659 90.7304 159.826 91.568 161.056 92.365C162.273 93.1541 163.498 93.8687 164.423 94.3881C164.884 94.6471 165.267 94.8559 165.534 94.9993C165.668 95.071 165.772 95.1262 165.842 95.1631L165.921 95.2045L165.94 95.2144L165.944 95.2166C165.944 95.2166 165.944 95.2167 165.944 95.2166C166.802 95.6616 167.137 96.7181 166.692 97.576C166.248 98.4341 165.191 98.769 164.333 98.3241L165.139 96.7705C164.333 98.3241 164.334 98.3242 164.333 98.3241L164.324 98.319L164.299 98.3063L164.21 98.2593C164.132 98.2184 164.02 98.159 163.878 98.0828C163.595 97.9305 163.191 97.7109 162.708 97.4396C161.745 96.8984 160.452 96.1446 159.152 95.302C157.864 94.4673 156.514 93.5101 155.467 92.5596C154.945 92.0862 154.448 91.5696 154.069 91.0294C153.714 90.5225 153.319 89.795 153.319 88.9385C153.319 88.0737 153.661 87.4173 153.999 86.9487C154.195 86.6767 154.495 86.342 154.697 86.1173C154.765 86.0419 154.822 85.979 154.859 85.9349C155.251 85.4783 155.557 85.0284 155.557 84.0902C155.557 83.6496 155.393 83.2985 155.089 83.0351C154.771 82.7596 154.181 82.4836 153.204 82.4836C151.923 82.4836 150.961 83.0088 149.426 83.8473C149.365 83.8805 149.303 83.9141 149.241 83.9482C147.645 84.8185 145.644 85.8402 142.762 85.8402C140.251 85.8402 138.279 84.9104 136.947 83.452C135.647 82.0281 135.045 80.1966 135.045 78.4959C135.045 75.9537 136.188 73.9826 137.681 72.4081C139.107 70.905 140.966 69.6496 142.63 68.5252L142.714 68.468C144.479 67.276 146.031 66.2176 147.168 65.019C148.262 63.8663 148.844 62.7139 148.844 61.3402C148.844 59.8227 148.395 58.7254 147.678 58.009C146.965 57.2961 145.777 56.75 143.881 56.75Z" fill="black" fill-opacity="0.3"/>
</svg>
