<svg width="88" height="42" viewBox="0 0 88 42" fill="none" xmlns="http://www.w3.org/2000/svg">
<path d="M10.0713 3.21726V14.9443C10.0713 14.9443 14.2035 14.9443 16.415 14.7765C18.1542 14.472 18.4743 14.3041 18.7944 12.5649L19.4346 10.0177H21.326L21.0059 15.5845L21.1738 21.288H19.2668L18.7944 19.0609C18.322 17.4759 17.6818 17.1539 16.415 17.0016C14.8301 16.8338 10.0713 16.8338 10.0713 16.8338V26.6694C10.0713 28.5608 11.0317 29.3689 13.2432 29.3689H19.907C21.9663 29.3689 24.0236 29.201 25.306 26.1971L27.0295 22.385H28.6301C28.4622 23.1775 27.6697 30.1614 27.5175 31.7327C27.5175 31.7327 21.4939 31.5804 18.9623 31.5804H7.5397L0.723633 31.7327V30.0091L2.93515 29.5212C4.53571 29.201 5.00807 28.7287 5.00807 27.4619C5.00807 27.4619 5.17594 23.1775 5.17594 16.0393C5.17594 8.91878 5.00807 4.63239 5.00807 4.63239C5.00807 3.21336 4.53571 2.89324 2.93515 2.57313L0.723633 2.10467V0.365523L7.38745 0.502156H20.0749C22.6065 0.502156 26.8753 0.0454102 26.8753 0.0454102C26.8753 0.0454102 26.7231 2.72928 26.5552 9.07298H24.816L24.1758 6.84585C23.5512 3.99412 22.6045 2.57508 20.8517 2.57508H10.8794C10.0713 2.57703 10.0713 2.72928 10.0713 3.21726ZM35.7506 4.46843H37.6577V11.1322L44.1692 10.8121L43.8491 13.8317L37.5054 13.3438V25.0864C37.5054 28.4105 38.618 29.691 40.525 29.691C42.2486 29.691 43.529 28.7306 44.0014 27.9382L44.9461 29.0508C44.0014 31.2623 41.3175 32.3748 38.7703 32.3748C35.614 32.3748 33.0512 30.4834 33.0512 26.8392V13.5097H29.2684V11.9247C32.4422 11.6046 34.8059 9.69759 35.7506 4.46843ZM49.3984 24.9166L50.6632 27.9362C51.1356 29.201 52.2482 30.4834 54.7798 30.4834C57.4793 30.4834 58.5919 29.0507 58.5919 27.3116C58.5919 21.9126 47.9637 23.4995 47.9637 16.2092C47.9637 12.0926 51.2878 10.17 55.5723 10.17C57.4793 10.17 60.331 10.4901 61.7637 11.1303C61.4436 12.7152 61.2758 14.7745 61.2758 16.3614L59.7045 16.5137L58.5919 13.3418C58.2718 12.5649 56.9913 11.9228 55.42 11.9228C53.513 11.9228 51.608 12.7152 51.608 14.7745C51.608 19.6855 62.5562 18.5866 62.5562 25.8769C62.5562 30.0091 58.912 32.2206 54.4597 32.2206C51.1356 32.2206 47.7959 30.9402 47.7959 30.9402C48.116 29.0488 47.9637 26.9915 47.7959 24.9166H49.3984ZM61.7657 40.1356C62.2381 38.3965 62.5582 36.1869 62.8783 34.112L64.6174 33.9598L65.2577 37.2839C65.4099 38.0764 65.8823 38.7166 67.1491 38.7166C69.2083 38.7166 71.9078 37.4518 74.4531 33.0131C73.3249 30.3136 70.0008 21.6062 66.9812 14.9424C66.1887 13.1896 66.0365 13.0354 64.9375 12.7152L64.1295 12.4107V10.8102L68.9019 10.978L74.7576 10.6579V12.2448L73.3249 12.5649C72.2123 12.7172 71.7536 13.3418 71.7536 13.984C71.7536 14.1518 71.7536 14.3041 71.9059 14.6242C72.2104 15.5845 74.7576 22.7071 76.6646 27.4638C78.2359 24.1398 81.2555 16.6835 81.7279 15.4167C81.8957 14.7765 82.048 14.6242 82.048 14.1518C82.048 13.3438 81.5756 12.8714 80.4767 12.5669L79.3485 12.2448V10.6599L83.8008 10.8121L87.9174 10.6599V12.2448L87.1249 12.8694C85.54 13.5097 85.3721 13.6619 84.7455 14.9424L77.7772 31.2584C73.645 40.6217 69.3606 41.4141 66.3546 41.4141C64.4496 41.4161 63.0169 40.9281 61.7657 40.1356Z" fill="#262626"/>
</svg>
