<svg width="130" height="25" viewBox="0 0 130 25" fill="none" xmlns="http://www.w3.org/2000/svg">
<g clip-path="url(#clip0_1032:5470)">
<path d="M17.5381 20.8494C18.617 22.0642 19.6777 23.2609 20.8018 24.5301C20.548 24.5573 20.3757 24.5845 20.2125 24.5845C18.3812 24.5845 16.559 24.5845 14.7277 24.5845C12.8058 24.5845 10.8929 24.5845 8.97093 24.5845C8.78055 24.5845 8.5811 24.5845 8.36352 24.5845C8.08248 24.0405 7.81051 23.5238 7.5204 22.9526C6.27839 22.9526 5.04544 22.9526 3.81249 22.9526C2.57954 22.9526 1.34659 22.9526 0.131782 22.9526C-0.0223368 22.5537 -0.0404684 0.551067 0.0955185 0.0433786C0.240572 0.0343126 0.39469 0.00711557 0.557875 0.00711557C4.021 0.00711557 7.47508 -0.0200824 10.9382 0.0252466C12.1077 0.0433786 13.2953 0.0977737 14.4104 0.532927C16.2689 1.2582 17.5291 2.56367 17.9824 4.50375C18.5172 6.7974 17.7557 8.69215 15.9697 10.188C15.734 10.3874 15.4349 10.5234 15.1085 10.7319C15.3533 10.8407 15.5708 10.9314 15.7794 11.013C17.8917 11.838 19.2516 13.905 19.2425 16.1261C19.2425 17.7398 18.7892 19.1813 17.801 20.4595C17.7285 20.5683 17.656 20.6862 17.5381 20.8494ZM2.97843 3.99607C2.9875 4.00514 2.99657 4.0142 3.00563 4.02327C4.41083 4.16832 5.8251 4.27711 7.23029 4.46749C7.8649 4.55815 8.49045 4.76666 9.08879 5.00237C9.93189 5.33781 10.077 6.04494 9.31543 6.78834C9.2701 6.83367 9.2157 6.86086 9.17038 6.89713C8.16407 7.70398 7.02179 8.2298 5.84324 8.71935C4.85506 9.12731 3.83969 9.48993 2.9875 10.1789C2.48888 10.5869 2.25317 11.0946 2.42542 11.7382C2.51608 12.0737 2.62487 12.4 2.77899 12.7083C4.30204 15.7634 5.82511 18.8186 7.34816 21.8647C7.45695 22.0823 7.53854 22.309 7.64733 22.5265C7.92837 23.1067 8.21847 23.687 8.50857 24.2581C12.3797 24.2581 16.1964 24.2581 20.0675 24.2581C19.9859 24.1493 19.9496 24.0859 19.9043 24.0315C19.2878 23.3334 18.6714 22.6263 18.0549 21.9282C17.4747 21.2755 16.8854 20.6318 16.3052 19.979C15.2263 18.7642 14.1566 17.5313 13.0778 16.3165C12.2346 15.3736 11.3825 14.4398 10.5393 13.4879C10.2492 13.1616 9.95009 12.8352 9.70527 12.4726C9.13412 11.6113 9.4061 10.7501 10.3308 10.2968C10.9836 9.97953 11.6363 9.66223 12.2437 9.28143C12.9508 8.84627 13.6126 8.34765 14.0297 7.58613C14.5011 6.72488 14.2472 6.07214 13.5764 5.51006C13.0052 5.02957 12.3434 4.69414 11.6363 4.45843C10.6572 4.13206 9.669 3.86915 8.6355 3.82382C7.41162 3.77849 6.19679 3.73316 4.97291 3.76036C4.32017 3.76943 3.6493 3.91448 2.97843 3.99607Z" fill="black"/>
<path d="M33.0317 6.98716C34.0017 7.77589 34.3462 8.80939 34.2737 9.96073C34.1649 11.8192 33.2039 13.1156 31.4452 13.4782C31.0191 13.5689 30.5749 13.6052 30.1397 13.6142C27.982 13.6233 25.8244 13.6233 23.6577 13.6233C23.5126 13.6233 23.3585 13.6052 23.2316 13.6052L23.1953 0.777086C23.3404 0.758956 23.4945 0.731756 23.6577 0.731756C25.8516 0.731756 28.0364 0.722696 30.2304 0.740826C31.3001 0.749886 32.2974 0.994666 33.0589 1.82872C33.6754 2.49959 34.038 3.27019 34.0199 4.1949C34.0108 4.55753 34.0289 4.92016 33.9745 5.28279C33.8748 5.93553 33.6028 6.52481 33.0317 6.98716ZM25.6159 11.0667C25.6159 11.0667 26.0057 11.0667 26.1689 11.0667C27.4653 11.0667 28.7708 11.0667 30.0672 11.0667C30.2213 11.0667 30.3664 11.0667 30.5205 11.0577C31.2548 10.9852 31.6628 10.6135 31.7534 9.95173C31.8441 9.24455 31.5268 8.7006 30.8559 8.47395C30.6474 8.40143 30.4117 8.36517 30.1941 8.36517C28.8342 8.3561 27.4744 8.3561 26.1145 8.36517C25.9604 8.36517 25.6249 8.36517 25.6249 8.36517C25.6159 9.25361 25.6159 10.1692 25.6159 11.0667ZM25.6703 3.22486C25.6703 3.22486 25.7156 5.863 25.6793 5.84487C25.7065 5.85394 25.7337 5.88114 25.7609 5.88114C27.3202 5.88114 28.8705 5.90833 30.4298 5.88114C31.01 5.87207 31.418 5.46411 31.5268 4.91109C31.6537 4.28555 31.4089 3.60562 30.9103 3.37897C30.6474 3.26112 30.3301 3.20672 30.0309 3.19766C28.7164 3.17953 27.4018 3.18859 26.0873 3.18859C25.9513 3.19766 25.8063 3.21579 25.6703 3.22486Z" fill="black"/>
<path d="M81.7419 8.7726C83.0564 10.3591 84.3256 12.0362 85.6039 13.5774H82.4762C81.2251 12 79.9468 10.3772 78.6595 8.75446C78.0611 8.75446 77.4809 8.75446 76.8282 8.75446C76.8282 10.3591 76.8282 11.9365 76.8282 13.5774L74.462 13.6046L74.4258 0.7403C74.4258 0.7403 74.6705 0.7403 74.8065 0.7403C76.9642 0.7403 79.1309 0.72216 81.2886 0.74936C82.168 0.75843 83.0111 0.95788 83.7454 1.52902C84.5613 2.16363 85.0056 2.98862 85.1234 3.98585C85.2231 4.81084 85.1778 5.6449 84.8424 6.43362C84.2984 7.73909 83.3556 8.52782 81.9413 8.72727C81.896 8.72727 81.8507 8.7454 81.7419 8.7726ZM76.8373 6.26137C76.8373 6.26137 77.1999 6.26137 77.3631 6.26137C78.6414 6.26137 79.9287 6.23417 81.207 6.27043C81.9957 6.29763 82.6122 5.84434 82.7482 4.89243C82.8479 4.20343 82.3855 3.44191 81.76 3.29685C81.488 3.23339 81.1979 3.19713 80.9078 3.19713C79.7202 3.18806 78.5235 3.18806 77.3359 3.19713C77.1727 3.19713 76.8282 3.19713 76.8282 3.19713C76.8373 4.19437 76.8373 5.22787 76.8373 6.26137Z" fill="black"/>
<path d="M125.359 8.7726C126.674 10.3591 127.943 12.0362 129.221 13.5774H126.094C124.843 12 123.564 10.3772 122.277 8.75446C121.679 8.75446 121.098 8.75446 120.446 8.75446C120.446 10.3591 120.446 11.9365 120.446 13.5774L118.08 13.6046L118.043 0.7403C118.043 0.7403 118.288 0.7403 118.424 0.7403C120.582 0.7403 122.748 0.72216 124.906 0.74936C125.786 0.75843 126.629 0.95788 127.363 1.52902C128.179 2.16363 128.623 2.98862 128.741 3.98585C128.841 4.81084 128.795 5.6449 128.46 6.43362C127.916 7.73909 126.973 8.52782 125.559 8.72727C125.514 8.72727 125.477 8.7454 125.359 8.7726ZM120.464 6.26137C120.464 6.26137 120.827 6.26137 120.99 6.26137C122.268 6.26137 123.555 6.23417 124.834 6.27043C125.622 6.29763 126.239 5.84434 126.375 4.89243C126.475 4.20343 126.012 3.44191 125.387 3.29685C125.115 3.23339 124.825 3.19713 124.534 3.19713C123.347 3.18806 122.15 3.18806 120.962 3.19713C120.799 3.19713 120.455 3.19713 120.455 3.19713C120.464 4.19437 120.464 5.22787 120.464 6.26137Z" fill="black"/>
<path d="M62.243 8.34688C62.243 9.28066 62.243 10.1691 62.243 11.0575L62.8141 11.0666C64.9627 11.0666 67.1022 11.0575 69.2508 11.0666C69.4684 11.0666 69.9036 11.0757 69.9036 11.0757L69.9126 13.5688C66.4857 13.5688 63.1314 13.5688 59.7771 13.5688L59.7227 0.831326L69.8945 0.822266C69.8945 0.867596 69.8945 3.18844 69.8945 3.18844C67.3289 3.18844 64.8176 3.18844 62.2248 3.18844L62.2158 5.92631L62.8141 5.90818C64.9264 5.90818 67.0388 5.90818 69.1602 5.90818C69.3505 5.90818 69.8038 5.90818 69.8038 5.90818L69.8129 8.34688C67.2745 8.34688 64.7904 8.34688 62.243 8.34688Z" fill="black"/>
<path d="M108.034 8.34618C108.034 9.27996 108.034 10.1684 108.034 11.0568L108.605 11.0659C110.754 11.0659 112.893 11.0568 115.042 11.0659C115.259 11.0659 115.695 11.0749 115.695 11.0749L115.704 13.568C112.277 13.568 108.922 13.568 105.568 13.568L105.523 0.82157L115.695 0.8125C115.695 0.85783 115.695 3.17867 115.695 3.17867C113.129 3.17867 110.618 3.17867 108.025 3.17867L108.016 5.91655L108.614 5.89841C110.727 5.89841 112.839 5.89841 114.96 5.89841C115.151 5.89841 115.604 5.89841 115.604 5.89841L115.613 8.33711C113.066 8.34618 110.581 8.34618 108.034 8.34618Z" fill="black"/>
<path d="M46.0599 0.767424H48.5983C48.6164 0.994074 48.6073 1.18445 48.6073 1.37483C48.6073 3.32398 48.5983 5.27313 48.6164 7.22227C48.6164 7.74809 48.6255 8.28297 48.7161 8.79972C48.9609 10.1233 50.0307 11.3109 51.5175 11.4197C52.134 11.465 52.7504 11.4741 53.3397 11.2021C54.4911 10.6763 55.1891 9.82413 55.2979 8.54588C55.3523 7.9294 55.3795 7.31293 55.3795 6.69646C55.3886 4.91049 55.3795 3.1336 55.3886 1.34763C55.3886 1.16632 55.3795 0.749294 55.3795 0.749294L57.9451 0.740234C57.9451 0.740234 57.9361 1.13005 57.9361 1.28417C57.9361 3.52343 57.9542 5.75361 57.927 7.99287C57.9179 8.88131 57.8091 9.76973 57.4556 10.6038C56.7575 12.2447 55.5518 13.2963 53.8293 13.7406C52.1521 14.1757 50.493 14.0579 48.9428 13.2329C47.184 12.29 46.214 10.7579 46.1505 8.77252C46.0599 6.2885 46.078 3.7954 46.0508 1.3023C46.0599 1.14819 46.0599 0.767424 46.0599 0.767424Z" fill="black"/>
<path d="M90.9883 0.749294L93.7987 0.740234C95.0589 3.25145 96.319 5.77174 97.6154 8.37363C98.939 5.78081 100.208 3.28771 101.487 0.776494C102.402 0.776494 103.291 0.776494 104.288 0.776494C102.067 5.26406 99.8819 9.68813 97.697 14.1032C97.697 14.0941 93.2276 5.26406 90.9883 0.749294Z" fill="black"/>
<path d="M45.399 11.0749C45.399 11.9452 45.399 12.734 45.399 13.5136L35.8346 13.559L35.8164 0.749023H38.2733C38.2733 4.20309 38.2733 7.5937 38.2733 11.0568C40.6667 11.0931 43.0056 11.0477 45.399 11.0749Z" fill="black"/>
<path d="M89.5869 13.5772C88.7438 13.5772 87.9188 13.5772 87.1392 13.5772L87.1211 0.776367C87.9007 0.776367 88.7438 0.776367 89.5869 0.776367C89.5869 0.776367 89.5869 1.09367 89.5869 1.24779C89.5869 5.20048 89.5869 9.15317 89.5869 13.1058C89.5869 13.2418 89.5869 13.5772 89.5869 13.5772Z" fill="black"/>
<path d="M103.284 19.1438C103.03 19.18 102.776 19.2072 102.486 19.2435L102.477 18.7267C101.353 18.7267 100.038 18.7267 98.8319 18.7267C98.8319 19.7602 98.8138 20.7575 98.841 21.7457L102.304 21.791C102.304 21.4555 102.304 21.111 102.304 20.694C101.697 20.694 101.117 20.694 100.5 20.694C100.5 20.422 100.5 20.2317 100.5 19.9869C101.443 19.9869 102.431 19.9869 103.365 19.9869L103.356 20.2951C103.365 20.7484 103.374 21.2017 103.347 21.655C103.311 22.3621 103.075 22.5888 102.359 22.5888C101.18 22.5888 100.002 22.5888 98.8228 22.5888C98.0704 22.5888 97.8347 22.3531 97.8165 21.5825C97.8075 20.9207 97.8165 20.2498 97.8165 19.588C97.8165 19.3432 97.8075 19.1075 97.8256 18.8627C97.8709 18.1737 98.1066 17.9561 98.7956 17.9561C100.02 17.9561 101.244 17.9471 102.468 17.9561C103.157 17.9652 103.447 18.3641 103.284 19.1438Z" fill="black"/>
<path d="M79.7476 22.5899C79.0948 22.5899 78.4512 22.5989 77.7984 22.5899C77.2001 22.5808 76.9916 22.3995 76.9009 21.8012C76.8828 21.6833 76.8828 21.5564 76.8828 21.4385V19.0814C76.8828 18.9001 76.9009 18.7188 76.9463 18.5465C77.0641 18.0842 77.2273 17.9482 77.7169 17.9482C79.0586 17.9391 80.4003 17.9391 81.742 17.9482C82.3132 17.9482 82.5761 18.193 82.5852 18.7822C82.6033 19.7795 82.6033 20.7767 82.5852 21.7649C82.5761 22.3451 82.3041 22.5717 81.7239 22.5808C81.0712 22.5989 80.4094 22.5899 79.7476 22.5899ZM81.7239 21.8193L81.6877 18.7369C80.5091 18.7369 79.0314 18.7369 77.8166 18.7369C77.8166 19.7795 77.8166 20.7767 77.8166 21.8193C79.0405 21.8193 80.5182 21.8193 81.7239 21.8193Z" fill="black"/>
<path d="M93.1656 22.5899C92.5128 22.5899 91.8692 22.5989 91.2164 22.5899C90.6181 22.5808 90.4096 22.3995 90.3189 21.8012C90.3008 21.6833 90.3008 21.5564 90.3008 21.4385V19.0814C90.3008 18.9001 90.3189 18.7188 90.3643 18.5465C90.4821 18.0842 90.6453 17.9482 91.1348 17.9482C92.4766 17.9391 93.8183 17.9391 95.16 17.9482C95.7312 17.9482 95.9941 18.193 96.0032 18.7822C96.0213 19.7795 96.0213 20.7767 96.0032 21.7649C95.9941 22.3451 95.7221 22.5717 95.1419 22.5808C94.4892 22.5989 93.8274 22.5899 93.1656 22.5899ZM95.1419 21.8193L95.1056 18.7369C93.9271 18.7369 92.4494 18.7369 91.2346 18.7369C91.2346 19.7795 91.2346 20.7767 91.2346 21.8193C92.4584 21.8193 93.9362 21.8193 95.1419 21.8193Z" fill="black"/>
<path d="M74.0653 21.2385C74.0653 20.1597 74.0653 19.099 74.0653 18.002C74.3644 18.002 74.5911 18.002 74.8631 18.002C74.8631 19.516 74.8631 21.1207 74.8631 22.6346H74.2647C73.3763 21.8459 72.0617 20.7036 71.1733 19.9149C70.9285 19.6973 70.6747 19.4888 70.3664 19.2259C70.3664 20.3501 70.3664 21.4289 70.3664 22.5531C70.0491 22.5531 69.7953 22.5531 69.4961 22.5531C69.4961 21.03 69.4961 19.5341 69.4961 18.0292L70.2395 18.0383" fill="black"/>
<path d="M60.1198 19.5982C59.7753 19.6344 59.4036 19.6616 59.0863 19.6979V18.7097C58.0981 18.6825 57.119 18.6916 56.1581 18.7097C56.013 19.0814 55.9949 21.3388 56.1309 21.8193C57.0918 21.8193 58.0709 21.8193 59.0863 21.8193V20.7586C59.4217 20.8039 59.7844 20.8492 60.0836 20.8855C60.0836 20.8855 60.1198 21.6652 60.0745 22.0187C60.0201 22.3995 59.8025 22.5808 59.4217 22.5899C58.1979 22.608 56.974 22.5989 55.7501 22.5899C55.4237 22.5899 55.1971 22.4176 55.1155 22.1003C55.0792 21.9371 55.043 21.7649 55.043 21.6017V18.9273C55.043 18.8548 55.052 18.7732 55.0611 18.7007C55.1699 18.1295 55.3603 17.9573 55.9495 17.9482C57.0374 17.9391 58.1253 17.9391 59.2132 17.9482C59.8478 17.9482 60.0926 18.1839 60.1198 18.8094C60.1289 19.0452 60.1198 19.2718 60.1198 19.5982Z" fill="black"/>
<path d="M53.555 21.8369C53.555 22.1179 53.555 22.3083 53.555 22.4896L48.8045 22.5168C48.8136 22.544 48.7773 18.002 48.7773 18.002C50.391 18.002 51.9322 18.002 53.5369 18.002C53.555 18.2015 53.5641 18.4009 53.5822 18.6729L49.8199 18.682C49.8199 19.0355 49.8199 19.38 49.8199 19.7608C50.5451 19.7608 51.2432 19.7608 51.9957 19.7608L52.0047 20.5042C51.2432 20.5042 50.5633 20.5042 49.8108 20.5042C49.8108 20.9847 49.8108 21.3836 49.8108 21.8459C51.0619 21.8369 52.2767 21.8369 53.555 21.8369Z" fill="black"/>
<path d="M61.8438 17.9844C62.2154 17.9844 62.5418 17.9844 62.8773 17.9844L62.8681 19.725C64.0648 19.725 65.2162 19.725 66.44 19.725C66.44 19.1629 66.44 18.6099 66.44 18.0025C66.7664 18.0025 67.0204 18.0025 67.3558 18.0025L67.392 22.5354C67.0747 22.5354 66.8118 22.5354 66.4855 22.5354C66.4855 21.8826 66.4855 21.239 66.4855 20.6316L62.85 20.5953C62.85 20.8945 62.85 21.2208 62.85 21.5472C62.85 21.8645 62.85 22.1728 62.85 22.5354C62.5055 22.5354 62.2154 22.5354 61.8527 22.5354L61.8438 17.9844Z" fill="black"/>
<path d="M42.2148 17.9844C44.0099 17.9844 45.7142 17.9844 47.473 17.9844L47.4911 18.6734H45.3607C45.3607 19.9607 45.3607 21.248 45.3607 22.5445C45.0071 22.5445 44.717 22.5445 44.3634 22.5445C44.3634 21.2843 44.3634 19.997 44.3634 18.6824H42.2239C42.2148 18.4195 42.2148 18.211 42.2148 17.9844Z" fill="black"/>
<path d="M105.405 17.9746L105.777 18.3463L107.318 19.8603C107.318 19.8603 108.116 19.0353 108.469 18.6364C108.506 18.591 108.995 18.0652 109.022 18.0108L110.11 18.0018C109.838 18.3191 109.612 18.6092 109.358 18.8902C108.914 19.3798 108.46 19.8693 107.998 20.3407C107.907 20.4314 107.735 20.6308 107.735 20.6308V21.066V22.5528C107.418 22.5528 107.137 22.5528 106.829 22.5528V21.9182C106.829 21.3017 106.829 20.6399 106.829 20.6399C106.829 20.6399 106.357 20.1141 105.84 19.5883C105.36 19.0897 104.898 18.5185 104.426 18.0108" fill="black"/>
<path d="M84.543 22.6621C84.543 21.1572 84.543 19.5163 84.543 17.9932C84.8603 17.9932 85.1866 17.9932 85.5311 17.9932V19.888V21.9097C86.755 21.9097 87.8882 21.9097 89.094 21.9097L89.0849 22.6349L84.543 22.6621Z" fill="black"/>
</g>
<defs>
<clipPath id="clip0_1032:5470">
<rect width="130" height="25" fill="white"/>
</clipPath>
</defs>
</svg>
