<svg width="534" height="465" viewBox="0 0 534 465" fill="none" xmlns="http://www.w3.org/2000/svg">
<rect x="3" y="81" width="259" height="23" stroke="#FAFAFA"/>
<rect x="3" y="81" width="259" height="246" stroke="#FAFAFA"/>
<rect width="120.726" height="20.4119" transform="translate(141 19)" fill="#93C5FD"/>
<path d="M158.773 31.7061H157.775L157.243 30.1084H155.037L154.521 31.7061H153.549L155.561 25.8057H156.761L158.773 31.7061ZM157.006 29.2884L156.161 26.6848H156.119L155.265 29.2884H157.006ZM160.012 25.8057H160.95V29.4406C160.95 30.4381 161.296 30.9537 162.218 30.9537C163.139 30.9537 163.486 30.4381 163.486 29.4406V25.8057H164.424V29.2884C164.424 31.0129 163.832 31.8075 162.218 31.8075C160.603 31.8075 160.012 31.0129 160.012 29.2884V25.8057ZM167.582 31.7061V26.651H165.824V25.8057H170.295V26.651H168.537V31.7061H167.582ZM173.826 31.8075C172.288 31.8075 171.282 30.7424 171.282 28.7559C171.282 26.7693 172.288 25.7042 173.826 25.7042C175.365 25.7042 176.371 26.7693 176.371 28.7559C176.371 30.7424 175.365 31.8075 173.826 31.8075ZM173.826 30.9537C174.739 30.9537 175.348 30.2944 175.348 29.2208V28.2909C175.348 27.2174 174.739 26.558 173.826 26.558C172.913 26.558 172.305 27.2174 172.305 28.2909V29.2208C172.305 30.2944 172.913 30.9537 173.826 30.9537ZM182.341 31.8075C181.352 31.8075 180.675 31.4186 180.185 30.81L180.845 30.1929C181.259 30.7001 181.749 30.9622 182.391 30.9622C183.144 30.9622 183.533 30.5902 183.533 30.0238C183.533 29.5674 183.296 29.3053 182.611 29.1701L182.087 29.0771C180.946 28.8657 180.363 28.3332 180.363 27.3949C180.363 26.3467 181.174 25.7042 182.425 25.7042C183.313 25.7042 183.964 26.0254 184.42 26.6087L183.752 27.2004C183.448 26.8031 183.025 26.5495 182.375 26.5495C181.698 26.5495 181.309 26.8285 181.309 27.3442C181.309 27.8344 181.614 28.0458 182.248 28.1726L182.772 28.2825C183.947 28.5107 184.479 29.0348 184.479 29.9731C184.479 31.0721 183.693 31.8075 182.341 31.8075ZM189.912 31.7061H186.133V25.8057H189.912V26.651H187.089V28.2909H189.65V29.1363H187.089V30.8607H189.912V31.7061ZM195.447 31.7061V30.81H195.413C195.295 31.3764 194.72 31.8075 193.824 31.8075C192.421 31.8075 191.389 30.7339 191.389 28.7559C191.389 26.7862 192.421 25.7042 193.968 25.7042C195.024 25.7042 195.76 26.203 196.166 27.0314L195.388 27.4879C195.16 26.9384 194.686 26.558 193.968 26.558C193.038 26.558 192.412 27.192 192.412 28.274V29.2377C192.412 30.3197 193.038 30.9537 193.968 30.9537C194.712 30.9537 195.362 30.5733 195.362 29.8379V29.3814H194.145V28.5614H196.284V31.7061H195.447ZM198.119 31.7061V25.8057H199.252L200.832 28.8066H200.883L202.464 25.8057H203.546V31.7061H202.633V27.192H202.591L202.126 28.1472L200.832 30.5057L199.539 28.1472L199.074 27.192H199.032V31.7061H198.119ZM209.29 31.7061H205.511V25.8057H209.29V26.651H206.466V28.2909H209.027V29.1363H206.466V30.8607H209.29V31.7061ZM214.546 31.7061L212.618 28.4431L211.967 27.192H211.942V31.7061H211.029V25.8057H212.094L214.021 29.0686L214.672 30.3197H214.698V25.8057H215.611V31.7061H214.546ZM218.805 31.7061V26.651H217.047V25.8057H221.518V26.651H219.76V31.7061H218.805ZM227.087 31.7061H226.089L225.557 30.1084H223.35L222.835 31.7061H221.863L223.874 25.8057H225.075L227.087 31.7061ZM225.32 29.2884L224.475 26.6848H224.432L223.579 29.2884H225.32ZM229.189 31.7061V26.651H227.431V25.8057H231.902V26.651H230.144V31.7061H229.189ZM235.607 31.7061H233.038V30.9284H233.841V26.5834H233.038V25.8057H235.607V26.5834H234.796V30.9284H235.607V31.7061ZM239.597 31.8075C238.059 31.8075 237.053 30.7424 237.053 28.7559C237.053 26.7693 238.059 25.7042 239.597 25.7042C241.136 25.7042 242.142 26.7693 242.142 28.7559C242.142 30.7424 241.136 31.8075 239.597 31.8075ZM239.597 30.9537C240.51 30.9537 241.119 30.2944 241.119 29.2208V28.2909C241.119 27.2174 240.51 26.558 239.597 26.558C238.685 26.558 238.076 27.2174 238.076 28.2909V29.2208C238.076 30.2944 238.685 30.9537 239.597 30.9537ZM247.357 31.7061L245.43 28.4431L244.779 27.192H244.753V31.7061H243.84V25.8057H244.905L246.833 29.0686L247.484 30.3197H247.509V25.8057H248.422V31.7061H247.357Z" fill="#171717"/>
<rect x="141.5" y="47.9121" width="157.029" height="222.269" fill="#171717"/>
<rect x="141.5" y="47.9121" width="157.029" height="222.269" stroke="#FAFAFA"/>
<path d="M159.62 71.1123H158.676L158.172 69.6003H156.084L155.596 71.1123H154.676L156.58 65.5283H157.716L159.62 71.1123ZM157.948 68.8243L157.148 66.3603H157.108L156.3 68.8243H157.948ZM164.293 71.1123L162.469 68.0243L161.853 66.8403H161.829V71.1123H160.965V65.5283H161.973L163.797 68.6163L164.413 69.8003H164.437V65.5283H165.301V71.1123H164.293ZM170.484 71.1123L168.66 68.0243L168.044 66.8403H168.02V71.1123H167.156V65.5283H168.164L169.988 68.6163L170.604 69.8003H170.628V65.5283H171.492V71.1123H170.484ZM175.507 71.2083C174.051 71.2083 173.099 70.2003 173.099 68.3203C173.099 66.4403 174.051 65.4323 175.507 65.4323C176.963 65.4323 177.915 66.4403 177.915 68.3203C177.915 70.2003 176.963 71.2083 175.507 71.2083ZM175.507 70.4003C176.371 70.4003 176.947 69.7763 176.947 68.7603V67.8803C176.947 66.8643 176.371 66.2403 175.507 66.2403C174.643 66.2403 174.067 66.8643 174.067 67.8803V68.7603C174.067 69.7763 174.643 70.4003 175.507 70.4003ZM180.51 71.1123V66.3283H178.846V65.5283H183.078V66.3283H181.414V71.1123H180.51ZM188.348 71.1123H187.404L186.9 69.6003H184.812L184.324 71.1123H183.404L185.308 65.5283H186.444L188.348 71.1123ZM186.676 68.8243L185.876 66.3603H185.836L185.028 68.8243H186.676ZM190.338 71.1123V66.3283H188.674V65.5283H192.906V66.3283H191.242V71.1123H190.338ZM196.412 71.1123H193.98V70.3763H194.74V66.2643H193.98V65.5283H196.412V66.2643H195.644V70.3763H196.412V71.1123ZM200.188 71.2083C198.732 71.2083 197.78 70.2003 197.78 68.3203C197.78 66.4403 198.732 65.4323 200.188 65.4323C201.644 65.4323 202.596 66.4403 202.596 68.3203C202.596 70.2003 201.644 71.2083 200.188 71.2083ZM200.188 70.4003C201.052 70.4003 201.628 69.7763 201.628 68.7603V67.8803C201.628 66.8643 201.052 66.2403 200.188 66.2403C199.324 66.2403 198.748 66.8643 198.748 67.8803V68.7603C198.748 69.7763 199.324 70.4003 200.188 70.4003ZM207.531 71.1123L205.707 68.0243L205.091 66.8403H205.067V71.1123H204.203V65.5283H205.211L207.035 68.6163L207.651 69.8003H207.675V65.5283H208.539V71.1123H207.531ZM212.066 71.2083C211.13 71.2083 210.49 70.8403 210.026 70.2643L210.65 69.6803C211.042 70.1603 211.506 70.4083 212.114 70.4083C212.826 70.4083 213.194 70.0563 213.194 69.5203C213.194 69.0883 212.97 68.8403 212.322 68.7123L211.826 68.6243C210.746 68.4243 210.194 67.9203 210.194 67.0323C210.194 66.0403 210.962 65.4323 212.146 65.4323C212.986 65.4323 213.602 65.7363 214.034 66.2883L213.402 66.8483C213.114 66.4723 212.714 66.2323 212.098 66.2323C211.458 66.2323 211.09 66.4963 211.09 66.9843C211.09 67.4483 211.378 67.6483 211.978 67.7683L212.474 67.8723C213.586 68.0883 214.09 68.5843 214.09 69.4723C214.09 70.5123 213.346 71.2083 212.066 71.2083Z" fill="#FAFAFA"/>
<rect x="241.029" y="60.8735" width="44.5004" height="14.477" rx="1.73852" fill="#FB923C"/>
<path fill-rule="evenodd" clip-rule="evenodd" d="M249.165 65.6392C248.025 65.6402 247.035 66.2917 246.248 67.6837C246.187 67.7917 246.049 67.8298 245.941 67.7687C245.833 67.7075 245.795 67.5704 245.856 67.4623C246.696 65.9783 247.813 65.1907 249.164 65.1896C249.496 65.1893 249.774 65.2866 249.97 65.4823C250.166 65.6776 250.252 65.9438 250.252 66.228C250.253 66.5545 250.106 66.8079 249.914 67.0103C249.731 67.2036 249.493 67.365 249.279 67.5097L249.268 67.517C249.042 67.6703 248.842 67.8065 248.696 67.9606C248.556 68.1088 248.481 68.2569 248.481 68.4333C248.482 68.5502 248.524 68.6743 248.609 68.7667C248.689 68.8548 248.819 68.9269 249.024 68.9267C249.276 68.9265 249.45 68.842 249.64 68.7381C249.655 68.7303 249.669 68.7222 249.684 68.714C249.861 68.6162 250.081 68.4947 250.365 68.4944C250.575 68.4942 250.763 68.5545 250.901 68.6747C251.042 68.7964 251.117 68.9668 251.117 69.1498C251.117 69.4125 251.013 69.5704 250.92 69.6796C250.897 69.7067 250.881 69.724 250.869 69.7372C250.856 69.7512 250.847 69.7608 250.838 69.7728C250.84 69.7759 250.842 69.7794 250.845 69.7833C250.867 69.8148 250.904 69.8558 250.959 69.905C251.067 70.0029 251.217 70.1103 251.375 70.2126C251.531 70.3138 251.689 70.4055 251.808 70.4721C251.867 70.5054 251.916 70.5321 251.95 70.5505C251.968 70.5597 251.981 70.5668 251.99 70.5715L252 70.5768L252.003 70.5781L252.003 70.5784C252.003 70.5784 252.003 70.5784 252.003 70.5784C252.113 70.6355 252.157 70.7712 252.099 70.8814C252.042 70.9917 251.907 71.0348 251.797 70.9778L251.9 70.7781C251.797 70.9778 251.797 70.9778 251.797 70.9778L251.795 70.9771L251.792 70.9755L251.781 70.9695C251.771 70.9642 251.756 70.9566 251.738 70.9468C251.702 70.9273 251.65 70.8991 251.588 70.8643C251.464 70.7949 251.298 70.6982 251.131 70.5901C250.965 70.483 250.792 70.3602 250.657 70.2382C250.59 70.1774 250.526 70.1111 250.477 70.0418C250.431 69.9767 250.381 69.8833 250.381 69.7733C250.38 69.6622 250.424 69.5778 250.468 69.5176C250.493 69.4826 250.531 69.4396 250.557 69.4107C250.566 69.401 250.573 69.3929 250.578 69.3872C250.628 69.3285 250.668 69.2707 250.668 69.1502C250.667 69.0936 250.646 69.0485 250.607 69.0147C250.566 68.9793 250.491 68.9439 250.365 68.944C250.2 68.9442 250.077 69.0118 249.88 69.1196C249.872 69.1239 249.864 69.1282 249.856 69.1326C249.651 69.2446 249.394 69.3761 249.024 69.3764C248.701 69.3766 248.448 69.2574 248.277 69.0702C248.11 68.8874 248.032 68.6522 248.032 68.4337C248.032 68.1071 248.178 67.8538 248.37 67.6514C248.553 67.4581 248.792 67.2966 249.005 67.152L249.016 67.1447C249.243 66.9914 249.442 66.8552 249.588 66.7011C249.728 66.5529 249.803 66.4048 249.803 66.2283C249.803 66.0334 249.745 65.8925 249.653 65.8005C249.561 65.709 249.408 65.639 249.165 65.6392Z" fill="#171717"/>
<path d="M255.802 70.6118V65.5862H258.027C258.855 65.5862 259.366 66.0974 259.366 66.8822C259.366 67.6382 258.905 67.9118 258.495 67.9478V67.991C258.905 68.0054 259.546 68.3222 259.546 69.1646C259.546 69.9782 258.992 70.6118 258.25 70.6118H255.802ZM256.616 68.387V69.9134H258.012C258.43 69.9134 258.689 69.683 258.689 69.2726V69.0278C258.689 68.6174 258.43 68.387 258.012 68.387H256.616ZM256.616 66.2846V67.7102H257.876C258.272 67.7102 258.509 67.4942 258.509 67.1126V66.8822C258.509 66.5006 258.272 66.2846 257.876 66.2846H256.616ZM263.817 70.6118H263.378C262.967 70.6118 262.751 70.3526 262.701 69.9854H262.665C262.521 70.4534 262.118 70.6982 261.571 70.6982C260.8 70.6982 260.361 70.259 260.361 69.5822C260.361 68.8406 260.915 68.459 261.959 68.459H262.636V68.1422C262.636 67.6886 262.391 67.4222 261.866 67.4222C261.427 67.4222 261.16 67.6382 260.973 67.9334L260.505 67.5086C260.75 67.091 261.189 66.7814 261.916 66.7814C262.881 66.7814 263.421 67.2566 263.421 68.0918V69.971H263.817V70.6118ZM261.794 70.1006C262.276 70.1006 262.636 69.8702 262.636 69.503V68.963H261.974C261.427 68.963 261.16 69.143 261.16 69.467V69.5966C261.16 69.9278 261.405 70.1006 261.794 70.1006ZM266.033 70.6118H265.529C264.997 70.6118 264.73 70.3166 264.73 69.8342V65.2838H265.515V69.971H266.033V70.6118ZM268.188 70.6118H267.684C267.151 70.6118 266.885 70.3166 266.885 69.8342V65.2838H267.67V69.971H268.188V70.6118ZM270.551 70.6982C269.507 70.6982 268.83 69.935 268.83 68.7398C268.83 67.5446 269.507 66.7814 270.551 66.7814C271.595 66.7814 272.272 67.5446 272.272 68.7398C272.272 69.935 271.595 70.6982 270.551 70.6982ZM270.551 70.0502C271.084 70.0502 271.444 69.719 271.444 69.0566V68.423C271.444 67.7606 271.084 67.4294 270.551 67.4294C270.018 67.4294 269.658 67.7606 269.658 68.423V69.0566C269.658 69.719 270.018 70.0502 270.551 70.0502ZM274.759 70.6982C273.715 70.6982 273.038 69.935 273.038 68.7398C273.038 67.5446 273.715 66.7814 274.759 66.7814C275.803 66.7814 276.48 67.5446 276.48 68.7398C276.48 69.935 275.803 70.6982 274.759 70.6982ZM274.759 70.0502C275.292 70.0502 275.652 69.719 275.652 69.0566V68.423C275.652 67.7606 275.292 67.4294 274.759 67.4294C274.226 67.4294 273.866 67.7606 273.866 68.423V69.0566C273.866 69.719 274.226 70.0502 274.759 70.0502ZM278.283 70.6118H277.498V66.8678H278.283V67.487H278.319C278.478 67.0838 278.794 66.7814 279.37 66.7814C280.134 66.7814 280.587 67.3142 280.587 68.2358V70.6118H279.802V68.3366C279.802 67.7534 279.579 67.4582 279.097 67.4582C278.686 67.4582 278.283 67.667 278.283 68.1062V70.6118Z" fill="#171717"/>
<g clip-path="url(#clip0_37_89396)">
<g clip-path="url(#clip1_37_89396)">
<rect x="155" y="80.5679" width="127.983" height="171.613" rx="8.91527" stroke="#FAFAFA"/>
<path d="M217.479 119.325C215.756 120.36 214.228 122.154 213.084 124.351C211.173 128.02 210.308 132.188 210.436 137.098C210.556 141.68 210.857 146.443 211.361 151.657C211.986 158.124 212.799 164.678 213.581 171.014L213.596 171.145C213.89 173.508 214.232 175.901 214.563 178.214C214.841 180.159 215.127 182.172 215.383 184.151C215.413 184.388 215.47 184.685 215.613 184.96H222.377C222.377 184.96 223.491 177.627 223.769 175.573C224.424 170.679 225.101 165.615 225.639 160.619C226.331 154.136 226.941 147.097 227.494 139.099C227.832 134.238 227.245 129.995 225.707 126.123C224.454 122.974 222.783 120.687 220.519 119.333" stroke="#FAFAFA" stroke-miterlimit="10"/>
<path d="M213.874 119.634C208.329 121.497 204.514 125.21 202.535 130.499C200.944 134.754 200.729 139.246 200.654 143.125C200.537 149.273 201.271 155.687 202.904 162.73C204.653 170.273 207.23 177.628 210.571 184.584C210.639 184.723 210.706 184.844 210.782 184.957" stroke="#FAFAFA" stroke-miterlimit="10"/>
<path d="M227.189 184.964C227.339 184.768 227.456 184.558 227.546 184.366C232.444 173.847 235.45 163.67 236.733 153.26C237.636 145.935 237.55 139.859 236.459 134.141C235.146 127.252 230.951 122.204 224.694 119.754" stroke="#FAFAFA" stroke-miterlimit="10"/>
<path d="M206.372 184.9C206.388 184.923 206.403 184.942 206.418 184.965" stroke="#FAFAFA" stroke-width="0.784605" stroke-miterlimit="10"/>
<path d="M208.178 120.89L205.673 122.565L205.443 122.715C205.281 122.82 205.12 122.93 204.962 123.039C201.711 125.281 198.867 128.46 196.869 132.026C193.645 138.012 192.069 143.584 192.046 149.062C192.031 153.64 193.348 158.098 194.774 162.233C197.403 169.863 201.278 176.744 205.074 183.045C205.406 183.598 205.737 184.155 206.06 184.712L206.207 184.968H202.716C201.982 183.801 201.173 182.654 200.379 181.54C199.781 180.701 199.164 179.829 198.581 178.952C195.349 174.087 191.249 167.564 188.19 160.246C184.051 150.341 185.474 140.898 192.546 131.372C194.571 128.644 197.196 126.263 200.571 124.088C200.71 123.998 200.857 123.919 201 123.844C220.413 113.517 237.29 124.017 237.29 124.017C245.051 129.073 249.878 136.127 251.635 144.983C252.564 149.656 252.102 154.283 250.22 159.129C247.433 166.307 243.426 172.801 240.247 177.65C239.551 178.715 238.806 179.765 238.091 180.784C237.143 182.127 236.165 183.512 235.296 184.922C235.288 184.938 235.281 184.953 235.27 184.964H231.684L231.823 184.716C232.61 183.324 233.452 181.939 234.265 180.6C235.202 179.061 236.169 177.466 237.049 175.871C240.86 168.971 243.512 162.274 245.149 155.405C246.424 150.066 246.014 144.483 243.9 138.347C242.038 132.944 239.457 128.72 236.011 125.435C236.011 125.435 232.693 122.245 231.011 121.274" stroke="#FAFAFA" stroke-miterlimit="10"/>
<path d="M205.293 184.964H233.37" stroke="#FAFAFA" stroke-width="0.784605" stroke-miterlimit="10"/>
<path d="M202.716 184.964L213.449 204.606" stroke="#FAFAFA" stroke-miterlimit="10"/>
<path d="M235.3 184.964L224.567 204.606" stroke="#FAFAFA" stroke-miterlimit="10"/>
<path d="M219.036 184.9V204.607" stroke="#FAFAFA" stroke-miterlimit="10"/>
<path d="M213.449 204.606H224.691V211.472C224.691 212.563 223.803 213.451 222.712 213.451H215.428C214.337 213.451 213.449 212.563 213.449 211.472V204.606Z" stroke="#FAFAFA" stroke-miterlimit="10"/>
</g>
<path d="M271.406 217.962L282.783 217.962" stroke="#FAFAFA" stroke-dasharray="3.14 2.35"/>
<path d="M113.701 217.962L172.547 217.962" stroke="#FAFAFA" stroke-dasharray="3.14 3.92"/>
<path d="M261.206 269.942L261.206 229.312" stroke="#FAFAFA" stroke-dasharray="3.14 3.92"/>
<path d="M261.206 112.236V-430.71" stroke="#FAFAFA" stroke-dasharray="3.14 3.92"/>
<path d="M249.83 217.936H176.834C176.633 217.936 176.469 217.772 176.469 217.571V116.302C176.469 116.1 176.633 115.937 176.834 115.937H260.842C261.044 115.937 261.207 116.1 261.207 116.302V207.344" stroke="#FB923C" stroke-linejoin="round" stroke-dasharray="3.14 3.92"/>
<rect x="199.723" y="147.821" width="41.8853" height="11.4465" rx="1.01561" fill="#171717"/>
<rect x="199.723" y="147.821" width="41.8853" height="11.4465" rx="1.01561" stroke="#FAFAFA"/>
<path d="M203.552 155.544V151.163H205.102C206.219 151.163 206.954 151.891 206.954 153.354C206.954 154.816 206.219 155.544 205.102 155.544H203.552ZM204.261 154.917H205.102C205.755 154.917 206.194 154.496 206.194 153.705V153.002C206.194 152.211 205.755 151.791 205.102 151.791H204.261V154.917ZM209.192 155.62C208.263 155.62 207.692 154.954 207.692 153.912C207.692 152.87 208.263 152.205 209.192 152.205C210.152 152.205 210.642 152.927 210.642 153.831V154.088H208.401V154.195C208.401 154.697 208.709 155.055 209.261 155.055C209.663 155.055 209.933 154.867 210.121 154.565L210.523 154.961C210.278 155.356 209.801 155.62 209.192 155.62ZM209.192 152.739C208.721 152.739 208.401 153.09 208.401 153.592V153.636H209.92V153.574C209.92 153.071 209.644 152.739 209.192 152.739ZM213.025 155.544H212.429C211.958 155.544 211.707 155.281 211.707 154.835V152.839H211.198V152.28H211.475C211.701 152.28 211.776 152.186 211.776 151.96V151.389H212.391V152.28H213.075V152.839H212.391V154.986H213.025V155.544ZM215.199 155.62C214.27 155.62 213.699 154.954 213.699 153.912C213.699 152.87 214.27 152.205 215.199 152.205C216.159 152.205 216.649 152.927 216.649 153.831V154.088H214.408V154.195C214.408 154.697 214.716 155.055 215.268 155.055C215.67 155.055 215.94 154.867 216.128 154.565L216.53 154.961C216.285 155.356 215.808 155.62 215.199 155.62ZM215.199 152.739C214.728 152.739 214.408 153.09 214.408 153.592V153.636H215.927V153.574C215.927 153.071 215.651 152.739 215.199 152.739ZM218.793 155.62C217.852 155.62 217.312 154.954 217.312 153.912C217.312 152.87 217.852 152.205 218.793 152.205C219.446 152.205 219.86 152.525 220.055 153.009L219.49 153.272C219.396 152.971 219.164 152.776 218.793 152.776C218.291 152.776 218.034 153.122 218.034 153.624V154.207C218.034 154.71 218.291 155.055 218.793 155.055C219.189 155.055 219.421 154.841 219.559 154.515L220.08 154.791C219.867 155.325 219.421 155.62 218.793 155.62ZM222.357 155.544H221.761C221.29 155.544 221.039 155.281 221.039 154.835V152.839H220.531V152.28H220.807C221.033 152.28 221.108 152.186 221.108 151.96V151.389H221.723V152.28H222.407V152.839H221.723V154.986H222.357V155.544ZM223.62 151.697C223.338 151.697 223.212 151.546 223.212 151.339V151.232C223.212 151.025 223.338 150.874 223.62 150.874C223.903 150.874 224.022 151.025 224.022 151.232V151.339C224.022 151.546 223.903 151.697 223.62 151.697ZM223.275 155.544V152.28H223.959V155.544H223.275ZM225.746 155.544H225.062V152.28H225.746V152.82H225.777C225.915 152.469 226.192 152.205 226.694 152.205C227.359 152.205 227.755 152.67 227.755 153.473V155.544H227.07V153.561C227.07 153.053 226.876 152.795 226.455 152.795C226.097 152.795 225.746 152.977 225.746 153.36V155.544ZM231.691 155.852C231.691 156.53 231.207 156.875 230.034 156.875C228.966 156.875 228.552 156.586 228.552 156.091C228.552 155.733 228.766 155.538 229.111 155.463V155.394C228.872 155.318 228.74 155.136 228.74 154.892C228.74 154.553 229.004 154.389 229.318 154.314V154.289C228.935 154.107 228.722 153.762 228.722 153.322C228.722 152.657 229.192 152.205 230.021 152.205C230.241 152.205 230.442 152.237 230.611 152.306V152.218C230.611 151.929 230.749 151.753 231.038 151.753H231.54V152.306H230.875V152.437C231.17 152.632 231.333 152.946 231.333 153.322C231.333 153.981 230.856 154.427 230.027 154.427C229.87 154.427 229.72 154.408 229.6 154.377C229.437 154.433 229.287 154.54 229.287 154.703C229.287 154.879 229.456 154.948 229.745 154.948H230.548C231.352 154.948 231.691 155.287 231.691 155.852ZM231.05 155.927C231.05 155.701 230.9 155.557 230.454 155.557H229.349C229.199 155.645 229.123 155.777 229.123 155.934C229.123 156.197 229.318 156.379 229.826 156.379H230.253C230.787 156.379 231.05 156.229 231.05 155.927ZM230.027 153.931C230.429 153.931 230.661 153.749 230.661 153.379V153.253C230.661 152.883 230.429 152.701 230.027 152.701C229.626 152.701 229.393 152.883 229.393 153.253V153.379C229.393 153.749 229.626 153.931 230.027 153.931ZM232.807 155.62C232.5 155.62 232.349 155.438 232.349 155.193V155.099C232.349 154.854 232.5 154.672 232.807 154.672C233.115 154.672 233.265 154.854 233.265 155.099V155.193C233.265 155.438 233.115 155.62 232.807 155.62ZM234.753 155.62C234.446 155.62 234.295 155.438 234.295 155.193V155.099C234.295 154.854 234.446 154.672 234.753 154.672C235.061 154.672 235.211 154.854 235.211 155.099V155.193C235.211 155.438 235.061 155.62 234.753 155.62ZM236.699 155.62C236.392 155.62 236.241 155.438 236.241 155.193V155.099C236.241 154.854 236.392 154.672 236.699 154.672C237.007 154.672 237.157 154.854 237.157 155.099V155.193C237.157 155.438 237.007 155.62 236.699 155.62Z" fill="#FAFAFA"/>
<path d="M260.734 211.698V224.566" stroke="#FAFAFA" stroke-width="1.96151"/>
<path d="M254.3 218.132L267.168 218.132" stroke="#FAFAFA" stroke-width="1.96151"/>
</g>
<rect x="311.729" y="0.5" width="155.012" height="222.2" fill="#171717"/>
<rect x="311.729" y="0.5" width="155.012" height="222.2" stroke="#FAFAFA"/>
<path d="M329.849 23.7002H328.905L328.401 22.1882H326.313L325.825 23.7002H324.905L326.809 18.1162H327.945L329.849 23.7002ZM328.177 21.4122L327.377 18.9482H327.337L326.529 21.4122H328.177ZM334.522 23.7002L332.698 20.6122L332.082 19.4282H332.058V23.7002H331.194V18.1162H332.202L334.026 21.2042L334.642 22.3882H334.666V18.1162H335.53V23.7002H334.522ZM340.713 23.7002L338.889 20.6122L338.273 19.4282H338.249V23.7002H337.385V18.1162H338.393L340.217 21.2042L340.833 22.3882H340.857V18.1162H341.721V23.7002H340.713ZM345.736 23.7962C344.28 23.7962 343.328 22.7882 343.328 20.9082C343.328 19.0282 344.28 18.0202 345.736 18.0202C347.192 18.0202 348.144 19.0282 348.144 20.9082C348.144 22.7882 347.192 23.7962 345.736 23.7962ZM345.736 22.9882C346.6 22.9882 347.176 22.3642 347.176 21.3482V20.4682C347.176 19.4522 346.6 18.8282 345.736 18.8282C344.872 18.8282 344.296 19.4522 344.296 20.4682V21.3482C344.296 22.3642 344.872 22.9882 345.736 22.9882ZM350.739 23.7002V18.9162H349.075V18.1162H353.307V18.9162H351.643V23.7002H350.739ZM358.577 23.7002H357.633L357.129 22.1882H355.041L354.553 23.7002H353.633L355.537 18.1162H356.673L358.577 23.7002ZM356.905 21.4122L356.105 18.9482H356.065L355.257 21.4122H356.905ZM360.567 23.7002V18.9162H358.903V18.1162H363.135V18.9162H361.471V23.7002H360.567ZM366.641 23.7002H364.209V22.9642H364.969V18.8522H364.209V18.1162H366.641V18.8522H365.873V22.9642H366.641V23.7002ZM370.417 23.7962C368.961 23.7962 368.009 22.7882 368.009 20.9082C368.009 19.0282 368.961 18.0202 370.417 18.0202C371.873 18.0202 372.825 19.0282 372.825 20.9082C372.825 22.7882 371.873 23.7962 370.417 23.7962ZM370.417 22.9882C371.281 22.9882 371.857 22.3642 371.857 21.3482V20.4682C371.857 19.4522 371.281 18.8282 370.417 18.8282C369.553 18.8282 368.977 19.4522 368.977 20.4682V21.3482C368.977 22.3642 369.553 22.9882 370.417 22.9882ZM377.76 23.7002L375.936 20.6122L375.32 19.4282H375.296V23.7002H374.432V18.1162H375.44L377.264 21.2042L377.88 22.3882H377.904V18.1162H378.768V23.7002H377.76ZM382.295 23.7962C381.359 23.7962 380.719 23.4282 380.255 22.8522L380.879 22.2682C381.271 22.7482 381.735 22.9962 382.343 22.9962C383.055 22.9962 383.423 22.6442 383.423 22.1082C383.423 21.6762 383.199 21.4282 382.551 21.3002L382.055 21.2122C380.975 21.0122 380.423 20.5082 380.423 19.6202C380.423 18.6282 381.191 18.0202 382.375 18.0202C383.215 18.0202 383.831 18.3242 384.263 18.8762L383.631 19.4362C383.343 19.0602 382.943 18.8202 382.327 18.8202C381.687 18.8202 381.319 19.0842 381.319 19.5722C381.319 20.0362 381.607 20.2362 382.207 20.3562L382.703 20.4602C383.815 20.6762 384.319 21.1722 384.319 22.0602C384.319 23.1002 383.575 23.7962 382.295 23.7962Z" fill="#FAFAFA"/>
<rect x="409.24" y="13.4614" width="44.5004" height="14.477" rx="1.73852" fill="#93C5FD"/>
<path fill-rule="evenodd" clip-rule="evenodd" d="M417.376 18.2271C416.236 18.2281 415.246 18.8796 414.459 20.2715C414.398 20.3796 414.261 20.4177 414.153 20.3566C414.045 20.2954 414.007 20.1583 414.068 20.0502C414.907 18.5662 416.024 17.7786 417.376 17.7775C417.707 17.7772 417.986 17.8745 418.182 18.0702C418.377 18.2655 418.464 18.5317 418.464 18.8159C418.464 19.1424 418.317 19.3958 418.126 19.5982C417.943 19.7915 417.704 19.9529 417.49 20.0975L417.48 20.1049C417.253 20.2582 417.054 20.3944 416.908 20.5485C416.767 20.6967 416.693 20.8448 416.693 21.0212C416.693 21.1381 416.735 21.2621 416.82 21.3546C416.901 21.4427 417.031 21.5148 417.235 21.5146C417.488 21.5144 417.662 21.4299 417.852 21.326C417.866 21.3182 417.881 21.3101 417.896 21.3019C418.072 21.2041 418.292 21.0825 418.576 21.0823C418.786 21.0821 418.974 21.1423 419.113 21.2625C419.254 21.3843 419.328 21.5547 419.329 21.7377C419.329 22.0004 419.225 22.1583 419.131 22.2674C419.108 22.2946 419.092 22.3118 419.08 22.3251C419.067 22.3391 419.059 22.3487 419.049 22.3607C419.051 22.3638 419.054 22.3673 419.056 22.3712C419.079 22.4027 419.116 22.4437 419.17 22.4929C419.278 22.5908 419.428 22.6982 419.586 22.8005C419.743 22.9017 419.9 22.9934 420.019 23.06C420.078 23.0932 420.128 23.12 420.162 23.1384C420.179 23.1476 420.192 23.1547 420.201 23.1594L420.212 23.1647L420.214 23.166L420.215 23.1663C420.215 23.1663 420.214 23.1663 420.215 23.1663C420.325 23.2234 420.368 23.359 420.311 23.4693C420.254 23.5796 420.118 23.6227 420.008 23.5657L420.111 23.366C420.008 23.5657 420.008 23.5657 420.008 23.5657L420.007 23.565L420.004 23.5634L419.992 23.5573C419.982 23.5521 419.968 23.5445 419.949 23.5347C419.913 23.5152 419.861 23.487 419.799 23.4522C419.675 23.3828 419.509 23.2861 419.342 23.178C419.177 23.0709 419.003 22.9481 418.868 22.8261C418.801 22.7653 418.737 22.699 418.689 22.6297C418.643 22.5646 418.592 22.4712 418.592 22.3611C418.592 22.25 418.636 22.1657 418.679 22.1054C418.704 22.0705 418.743 22.0275 418.769 21.9986C418.777 21.9889 418.785 21.9808 418.79 21.9751C418.84 21.9164 418.879 21.8586 418.879 21.7381C418.879 21.6815 418.858 21.6364 418.819 21.6026C418.778 21.5672 418.702 21.5318 418.577 21.5319C418.412 21.5321 418.288 21.5996 418.091 21.7075C418.083 21.7118 418.076 21.7161 418.068 21.7205C417.863 21.8325 417.606 21.9639 417.235 21.9643C416.913 21.9645 416.659 21.8453 416.488 21.6581C416.321 21.4753 416.243 21.2401 416.243 21.0216C416.243 20.695 416.39 20.4417 416.581 20.2393C416.764 20.046 417.003 19.8845 417.217 19.7399L417.227 19.7326C417.454 19.5792 417.653 19.4431 417.799 19.289C417.94 19.1408 418.014 18.9927 418.014 18.8162C418.014 18.6213 417.956 18.4804 417.864 18.3884C417.772 18.2969 417.62 18.2269 417.376 18.2271Z" fill="#171717"/>
<path d="M424.013 23.1997V18.1741H426.238C427.066 18.1741 427.577 18.6853 427.577 19.4701C427.577 20.2261 427.117 20.4997 426.706 20.5357V20.5789C427.117 20.5933 427.757 20.9101 427.757 21.7525C427.757 22.5661 427.203 23.1997 426.461 23.1997H424.013ZM424.827 20.9749V22.5013H426.224C426.641 22.5013 426.901 22.2709 426.901 21.8605V21.6157C426.901 21.2053 426.641 20.9749 426.224 20.9749H424.827ZM424.827 18.8725V20.2981H426.087C426.483 20.2981 426.721 20.0821 426.721 19.7005V19.4701C426.721 19.0885 426.483 18.8725 426.087 18.8725H424.827ZM432.028 23.1997H431.589C431.179 23.1997 430.963 22.9405 430.912 22.5733H430.876C430.732 23.0413 430.329 23.2861 429.782 23.2861C429.012 23.2861 428.572 22.8469 428.572 22.1701C428.572 21.4285 429.127 21.0469 430.171 21.0469H430.848V20.7301C430.848 20.2765 430.603 20.0101 430.077 20.0101C429.638 20.0101 429.372 20.2261 429.184 20.5213L428.716 20.0965C428.961 19.6789 429.4 19.3693 430.128 19.3693C431.092 19.3693 431.632 19.8445 431.632 20.6797V22.5589H432.028V23.1997ZM430.005 22.6885C430.488 22.6885 430.848 22.4581 430.848 22.0909V21.5509H430.185C429.638 21.5509 429.372 21.7309 429.372 22.0549V22.1845C429.372 22.5157 429.616 22.6885 430.005 22.6885ZM434.245 23.1997H433.741C433.208 23.1997 432.942 22.9045 432.942 22.4221V17.8717H433.726V22.5589H434.245V23.1997ZM436.4 23.1997H435.896C435.363 23.1997 435.096 22.9045 435.096 22.4221V17.8717H435.881V22.5589H436.4V23.1997ZM438.762 23.2861C437.718 23.2861 437.042 22.5229 437.042 21.3277C437.042 20.1325 437.718 19.3693 438.762 19.3693C439.806 19.3693 440.483 20.1325 440.483 21.3277C440.483 22.5229 439.806 23.2861 438.762 23.2861ZM438.762 22.6381C439.295 22.6381 439.655 22.3069 439.655 21.6445V21.0109C439.655 20.3485 439.295 20.0173 438.762 20.0173C438.23 20.0173 437.87 20.3485 437.87 21.0109V21.6445C437.87 22.3069 438.23 22.6381 438.762 22.6381ZM442.97 23.2861C441.926 23.2861 441.25 22.5229 441.25 21.3277C441.25 20.1325 441.926 19.3693 442.97 19.3693C444.014 19.3693 444.691 20.1325 444.691 21.3277C444.691 22.5229 444.014 23.2861 442.97 23.2861ZM442.97 22.6381C443.503 22.6381 443.863 22.3069 443.863 21.6445V21.0109C443.863 20.3485 443.503 20.0173 442.97 20.0173C442.438 20.0173 442.078 20.3485 442.078 21.0109V21.6445C442.078 22.3069 442.438 22.6381 442.97 22.6381ZM446.495 23.1997H445.71V19.4557H446.495V20.0749H446.531C446.689 19.6717 447.006 19.3693 447.582 19.3693C448.345 19.3693 448.799 19.9021 448.799 20.8237V23.1997H448.014V20.9245C448.014 20.3413 447.791 20.0461 447.308 20.0461C446.898 20.0461 446.495 20.2549 446.495 20.6941V23.1997Z" fill="#171717"/>
<g clip-path="url(#clip2_37_89396)">
<g clip-path="url(#clip3_37_89396)">
<rect x="325.229" y="33.1553" width="128.012" height="171.544" rx="8.90617" stroke="#FAFAFA"/>
<g clip-path="url(#clip4_37_89396)">
<path d="M401.178 73.9116H401.173L401.178 73.9164V73.9116Z" fill="#93C5FD"/>
<path d="M401.173 73.9116C399.376 73.3215 397.249 72.7652 394.858 72.3969C394.858 72.3969 394.858 72.3969 394.854 72.3969C393.543 72.1939 392.148 72.0473 390.69 71.9834H390.656C389.697 71.9421 388.709 71.9345 387.698 71.9721H387.653C386.484 72.0172 385.285 72.115 384.056 72.2841C384.056 72.2841 384.052 72.2841 384.048 72.2841C380.015 72.8329 375.674 74.1033 371.193 76.4863C371.047 76.5653 370.904 76.6442 370.765 76.7307C367.393 78.9032 364.77 81.2825 362.747 84.0075C355.674 93.5246 354.253 102.959 358.384 112.848C361.439 120.159 365.536 126.676 368.765 131.536C369.348 132.412 369.964 133.28 370.562 134.122C371.355 135.235 372.163 136.381 372.896 137.547L383.62 157.171V164.03C383.62 165.12 384.503 166.008 385.597 166.008H392.873C393.963 166.008 394.851 165.124 394.851 164.03V157.171L405.45 137.547L405.431 137.532C405.431 137.532 405.443 137.513 405.45 137.501C406.318 136.096 407.296 134.709 408.243 133.367C408.961 132.352 409.701 131.3 410.397 130.236C413.573 125.387 417.576 118.903 420.361 111.732C422.24 106.891 422.703 102.271 421.774 97.599C420.019 88.7548 415.196 81.7072 407.442 76.6517C407.442 76.6517 405.108 75.2009 401.176 73.9079" fill="#93C5FD"/>
</g>
<path d="M387.8 71.8745C386.078 72.9081 384.552 74.7009 383.41 76.8959C381.5 80.5605 380.636 84.7249 380.764 89.6298C380.884 94.2077 381.185 98.966 381.688 104.175C382.312 110.636 383.124 117.184 383.906 123.513L383.921 123.645C384.214 126.005 384.556 128.395 384.887 130.707C385.165 132.65 385.45 134.661 385.706 136.638C385.736 136.875 385.792 137.171 385.935 137.446H392.693C392.693 137.446 393.806 130.12 394.084 128.068C394.738 123.178 395.414 118.119 395.952 113.128C396.643 106.652 397.252 99.62 397.805 91.6293C398.143 86.7733 397.557 82.5337 396.019 78.6662C394.768 75.5203 393.099 73.2351 390.836 71.882" stroke="#FAFAFA" stroke-miterlimit="10"/>
<path d="M384.199 72.1831C378.659 74.0436 374.847 77.7532 372.87 83.0377C371.281 87.2886 371.066 91.7763 370.991 95.6514C370.875 101.793 371.608 108.201 373.239 115.237C374.987 122.773 377.561 130.121 380.899 137.07C380.966 137.209 381.034 137.33 381.109 137.442" stroke="#FAFAFA" stroke-miterlimit="10"/>
<path d="M397.5 137.45C397.65 137.254 397.767 137.044 397.857 136.852C402.751 126.343 405.754 116.177 407.035 105.777C407.937 98.4588 407.851 92.3888 406.761 86.6758C405.449 79.794 401.258 74.75 395.008 72.3032" stroke="#FAFAFA" stroke-miterlimit="10"/>
<path d="M376.704 137.386C376.719 137.409 376.734 137.428 376.749 137.45" stroke="#FAFAFA" stroke-width="0.783848" stroke-miterlimit="10"/>
<path d="M378.508 73.4382L376.005 75.1108L375.776 75.2611C375.614 75.3663 375.452 75.4753 375.294 75.5843C372.047 77.8244 369.206 81.0004 367.21 84.5635C363.989 90.5433 362.414 96.1097 362.391 101.582C362.376 106.156 363.692 110.61 365.116 114.741C367.744 122.363 371.615 129.237 375.407 135.533C375.738 136.085 376.069 136.642 376.392 137.198L376.539 137.454H373.051C372.318 136.288 371.51 135.142 370.717 134.029C370.119 133.191 369.503 132.319 368.92 131.444C365.691 126.584 361.595 120.067 358.539 112.756C354.405 102.86 355.825 93.4261 362.891 83.9095C364.913 81.1845 367.537 78.8054 370.908 76.633C371.047 76.5428 371.194 76.4638 371.337 76.3887C390.731 66.0715 407.592 76.5616 407.592 76.5616C415.345 81.613 420.168 88.6603 421.923 97.5078C422.851 102.176 422.389 106.799 420.51 111.64C417.725 118.811 413.722 125.298 410.546 130.143C409.85 131.207 409.106 132.255 408.392 133.274C407.445 134.616 406.468 135.999 405.6 137.408C405.592 137.423 405.584 137.438 405.573 137.45H401.991L402.13 137.202C402.916 135.811 403.758 134.428 404.57 133.09C405.506 131.553 406.472 129.959 407.351 128.365C411.158 121.472 413.808 114.782 415.443 107.919C416.717 102.586 416.308 97.008 414.195 90.8778C412.335 85.4805 409.756 81.2597 406.314 77.9785C406.314 77.9785 402.999 74.7913 401.319 73.8216" stroke="#FAFAFA" stroke-miterlimit="10"/>
<path d="M375.625 137.45H403.675" stroke="#FAFAFA" stroke-miterlimit="10"/>
<path d="M373.051 137.45L383.774 157.073" stroke="#FAFAFA" stroke-width="0.783848" stroke-miterlimit="10"/>
<path d="M405.604 137.45L394.881 157.073" stroke="#FAFAFA" stroke-miterlimit="10"/>
<path d="M389.356 137.386V157.073" stroke="#FAFAFA" stroke-miterlimit="10"/>
<path d="M383.774 157.073H395.004V163.932C395.004 165.022 394.117 165.909 393.027 165.909H385.751C384.661 165.909 383.774 165.022 383.774 163.932V157.073Z" stroke="#FAFAFA" stroke-miterlimit="10"/>
<rect x="371.76" y="102.418" width="35.0054" height="12.4345" rx="1.51415" fill="#171717"/>
<path d="M376.085 110.635V106.258H377.634C378.75 106.258 379.483 106.986 379.483 108.447C379.483 109.908 378.75 110.635 377.634 110.635H376.085ZM376.793 110.008H377.634C378.286 110.008 378.725 109.588 378.725 108.798V108.096C378.725 107.305 378.286 106.885 377.634 106.885H376.793V110.008ZM381.72 110.711C380.792 110.711 380.221 110.046 380.221 109.005C380.221 107.964 380.792 107.299 381.72 107.299C382.679 107.299 383.168 108.02 383.168 108.923V109.18H380.93V109.287C380.93 109.789 381.237 110.146 381.789 110.146C382.19 110.146 382.46 109.958 382.648 109.657L383.049 110.052C382.805 110.447 382.328 110.711 381.72 110.711ZM381.72 107.832C381.249 107.832 380.93 108.183 380.93 108.685V108.729H382.447V108.666C382.447 108.165 382.171 107.832 381.72 107.832ZM385.549 110.635H384.953C384.483 110.635 384.232 110.372 384.232 109.927V107.933H383.724V107.374H384C384.226 107.374 384.301 107.28 384.301 107.055V106.484H384.916V107.374H385.599V107.933H384.916V110.077H385.549V110.635ZM387.721 110.711C386.793 110.711 386.222 110.046 386.222 109.005C386.222 107.964 386.793 107.299 387.721 107.299C388.68 107.299 389.169 108.02 389.169 108.923V109.18H386.931V109.287C386.931 109.789 387.238 110.146 387.79 110.146C388.191 110.146 388.461 109.958 388.649 109.657L389.05 110.052C388.806 110.447 388.329 110.711 387.721 110.711ZM387.721 107.832C387.251 107.832 386.931 108.183 386.931 108.685V108.729H388.448V108.666C388.448 108.165 388.172 107.832 387.721 107.832ZM391.312 110.711C390.371 110.711 389.832 110.046 389.832 109.005C389.832 107.964 390.371 107.299 391.312 107.299C391.964 107.299 392.378 107.619 392.572 108.102L392.008 108.365C391.914 108.064 391.682 107.87 391.312 107.87C390.81 107.87 390.553 108.215 390.553 108.716V109.3C390.553 109.801 390.81 110.146 391.312 110.146C391.707 110.146 391.939 109.933 392.077 109.607L392.597 109.883C392.384 110.416 391.939 110.711 391.312 110.711ZM394.872 110.635H394.276C393.806 110.635 393.555 110.372 393.555 109.927V107.933H393.047V107.374H393.323C393.549 107.374 393.624 107.28 393.624 107.055V106.484H394.239V107.374H394.922V107.933H394.239V110.077H394.872V110.635ZM397.044 110.711C396.116 110.711 395.545 110.046 395.545 109.005C395.545 107.964 396.116 107.299 397.044 107.299C398.003 107.299 398.492 108.02 398.492 108.923V109.18H396.254V109.287C396.254 109.789 396.561 110.146 397.113 110.146C397.514 110.146 397.784 109.958 397.972 109.657L398.373 110.052C398.129 110.447 397.652 110.711 397.044 110.711ZM397.044 107.832C396.574 107.832 396.254 108.183 396.254 108.685V108.729H397.771V108.666C397.771 108.165 397.495 107.832 397.044 107.832ZM401.425 110.635V110.096H401.394C401.256 110.478 400.911 110.711 400.478 110.711C399.657 110.711 399.18 110.077 399.18 109.005C399.18 107.933 399.657 107.299 400.478 107.299C400.911 107.299 401.256 107.525 401.394 107.914H401.425V105.995H402.109V110.635H401.425ZM400.685 110.121C401.099 110.121 401.425 109.895 401.425 109.563V108.447C401.425 108.114 401.099 107.889 400.685 107.889C400.215 107.889 399.901 108.221 399.901 108.723V109.287C399.901 109.789 400.215 110.121 400.685 110.121Z" fill="#FAFAFA"/>
</g>
</g>
<rect x="315.274" y="264" width="153.726" height="20.4119" fill="#FBBF24"/>
<rect x="315.274" y="264" width="153.726" height="20.4119" stroke="#171717" stroke-width="1.05666"/>
<path d="M331.881 276.706L329.953 273.443L329.303 272.192H329.277V276.706H328.364V270.806H329.429L331.357 274.069L332.008 275.32H332.033V270.806H332.946V276.706H331.881ZM339.589 276.706H338.592L338.059 275.108H335.853L335.337 276.706H334.365L336.377 270.806H337.577L339.589 276.706ZM337.822 274.288L336.977 271.685H336.935L336.081 274.288H337.822ZM341.691 276.706V271.651H339.933V270.806H344.405V271.651H342.646V276.706H341.691ZM345.809 270.806H346.748V274.441C346.748 275.438 347.094 275.954 348.016 275.954C348.937 275.954 349.284 275.438 349.284 274.441V270.806H350.222V274.288C350.222 276.013 349.63 276.807 348.016 276.807C346.401 276.807 345.809 276.013 345.809 274.288V270.806ZM353.101 274.322V276.706H352.145V270.806H354.69C355.746 270.806 356.397 271.49 356.397 272.581C356.397 273.418 356 274.001 355.248 274.221L356.524 276.706H355.459L354.276 274.322H353.101ZM353.101 273.519H354.622C355.104 273.519 355.391 273.257 355.391 272.784V272.378C355.391 271.905 355.104 271.643 354.622 271.643H353.101V273.519ZM362.875 276.706H361.877L361.345 275.108H359.139L358.623 276.706H357.651L359.663 270.806H360.863L362.875 276.706ZM361.108 274.288L360.263 271.685H360.221L359.367 274.288H361.108ZM367.652 276.706H364.296V270.806H365.251V275.861H367.652V276.706ZM374.998 276.706H371.642V270.806H372.597V275.861H374.998V276.706ZM381.315 276.706H380.317L379.785 275.108H377.579L377.063 276.706H376.091L378.103 270.806H379.303L381.315 276.706ZM379.548 274.288L378.703 271.685H378.661L377.807 274.288H379.548ZM386.253 276.706L384.325 273.443L383.674 272.192H383.649V276.706H382.736V270.806H383.801L385.728 274.069L386.379 275.32H386.405V270.806H387.318V276.706H386.253ZM393.073 276.706V275.81H393.039C392.921 276.376 392.346 276.807 391.45 276.807C390.047 276.807 389.016 275.734 389.016 273.756C389.016 271.786 390.047 270.704 391.594 270.704C392.651 270.704 393.386 271.203 393.792 272.031L393.014 272.488C392.786 271.938 392.312 271.558 391.594 271.558C390.664 271.558 390.039 272.192 390.039 273.274V274.238C390.039 275.32 390.664 275.954 391.594 275.954C392.338 275.954 392.989 275.573 392.989 274.838V274.381H391.771V273.561H393.91V276.706H393.073ZM395.711 270.806H396.65V274.441C396.65 275.438 396.996 275.954 397.918 275.954C398.839 275.954 399.186 275.438 399.186 274.441V270.806H400.124V274.288C400.124 276.013 399.532 276.807 397.918 276.807C396.303 276.807 395.711 276.013 395.711 274.288V270.806ZM406.582 276.706H405.585L405.052 275.108H402.846L402.33 276.706H401.358L403.37 270.806H404.57L406.582 276.706ZM404.815 274.288L403.97 271.685H403.928L403.074 274.288H404.815ZM411.617 276.706V275.81H411.583C411.465 276.376 410.89 276.807 409.994 276.807C408.591 276.807 407.559 275.734 407.559 273.756C407.559 271.786 408.591 270.704 410.138 270.704C411.194 270.704 411.93 271.203 412.336 272.031L411.558 272.488C411.33 271.938 410.856 271.558 410.138 271.558C409.208 271.558 408.582 272.192 408.582 273.274V274.238C408.582 275.32 409.208 275.954 410.138 275.954C410.882 275.954 411.533 275.573 411.533 274.838V274.381H410.315V273.561H412.454V276.706H411.617ZM418.068 276.706H414.289V270.806H418.068V271.651H415.244V273.291H417.806V274.136H415.244V275.861H418.068V276.706ZM424.079 276.807C423.09 276.807 422.413 276.419 421.923 275.81L422.582 275.193C422.997 275.7 423.487 275.962 424.129 275.962C424.882 275.962 425.271 275.59 425.271 275.024C425.271 274.567 425.034 274.305 424.349 274.17L423.825 274.077C422.684 273.866 422.101 273.333 422.101 272.395C422.101 271.347 422.912 270.704 424.163 270.704C425.051 270.704 425.702 271.025 426.158 271.609L425.49 272.2C425.186 271.803 424.763 271.55 424.113 271.55C423.436 271.55 423.047 271.829 423.047 272.344C423.047 272.834 423.352 273.046 423.986 273.173L424.51 273.282C425.685 273.511 426.217 274.035 426.217 274.973C426.217 276.072 425.431 276.807 424.079 276.807ZM431.65 276.706H427.871V270.806H431.65V271.651H428.827V273.291H431.388V274.136H428.827V275.861H431.65V276.706ZM438.073 276.706H437.075L436.542 275.108H434.336L433.821 276.706H432.848L434.86 270.806H436.061L438.073 276.706ZM436.306 274.288L435.46 271.685H435.418L434.564 274.288H436.306ZM440.449 274.322V276.706H439.494V270.806H442.038C443.095 270.806 443.746 271.49 443.746 272.581C443.746 273.418 443.348 274.001 442.596 274.221L443.872 276.706H442.807L441.624 274.322H440.449ZM440.449 273.519H441.97C442.452 273.519 442.74 273.257 442.74 272.784V272.378C442.74 271.905 442.452 271.643 441.97 271.643H440.449V273.519ZM447.672 276.807C446.134 276.807 445.195 275.734 445.195 273.756C445.195 271.778 446.134 270.704 447.672 270.704C448.695 270.704 449.38 271.161 449.777 272.04L448.974 272.479C448.771 271.921 448.357 271.558 447.672 271.558C446.768 271.558 446.21 272.217 446.21 273.308V274.204C446.21 275.294 446.768 275.954 447.672 275.954C448.374 275.954 448.822 275.548 449.033 274.973L449.802 275.438C449.405 276.292 448.695 276.807 447.672 276.807ZM454.949 276.706V274.136H452.278V276.706H451.322V270.806H452.278V273.291H454.949V270.806H455.904V276.706H454.949Z" fill="#171717"/>
<path d="M94 292.412H469V334.412H94V292.412Z" fill="#171717"/>
<path d="M94 292.412V291.912H93.5V292.412H94ZM469 292.412H469.5V291.912H469V292.412ZM469 334.412V334.912H469.5V334.412H469ZM94 334.412H93.5V334.912H94V334.412ZM94 292.912H469V291.912H94V292.912ZM468.5 292.412V334.412H469.5V292.412H468.5ZM469 333.912H94V334.912H469V333.912ZM94.5 334.412V292.412H93.5V334.412H94.5Z" fill="#F5F5F5"/>
<rect x="184.008" y="305.365" width="87.6427" height="16.0951" rx="2.34919" stroke="#FAFAFA"/>
<path d="M193.223 315.912L191.399 312.824L190.783 311.64H190.759V315.912H189.895V310.328H190.903L192.727 313.416L193.343 314.6H193.367V310.328H194.231V315.912H193.223ZM199.077 315.912H198.589C198.133 315.912 197.893 315.624 197.837 315.216H197.797C197.637 315.736 197.189 316.008 196.581 316.008C195.725 316.008 195.237 315.52 195.237 314.768C195.237 313.944 195.853 313.52 197.013 313.52H197.765V313.168C197.765 312.664 197.493 312.368 196.909 312.368C196.421 312.368 196.125 312.608 195.917 312.936L195.397 312.464C195.669 312 196.157 311.656 196.965 311.656C198.037 311.656 198.637 312.184 198.637 313.112V315.2H199.077V315.912ZM196.829 315.344C197.365 315.344 197.765 315.088 197.765 314.68V314.08H197.029C196.421 314.08 196.125 314.28 196.125 314.64V314.784C196.125 315.152 196.397 315.344 196.829 315.344ZM201.821 315.912H201.061C200.461 315.912 200.141 315.576 200.141 315.008V312.464H199.493V311.752H199.845C200.133 311.752 200.229 311.632 200.229 311.344V310.616H201.013V311.752H201.885V312.464H201.013V315.2H201.821V315.912ZM205.351 315.912V315.224H205.319C205.167 315.632 204.839 316.008 204.151 316.008C203.295 316.008 202.791 315.424 202.791 314.4V311.752H203.663V314.288C203.663 314.92 203.927 315.256 204.463 315.256C204.911 315.256 205.351 315.024 205.351 314.536V311.752H206.223V315.912H205.351ZM208.343 315.912H207.471V311.752H208.343V312.552H208.383C208.503 312.128 208.863 311.752 209.527 311.752H209.759V312.592H209.415C208.727 312.592 208.343 312.824 208.343 313.256V315.912ZM214.007 315.912H213.519C213.063 315.912 212.823 315.624 212.767 315.216H212.727C212.567 315.736 212.119 316.008 211.511 316.008C210.655 316.008 210.167 315.52 210.167 314.768C210.167 313.944 210.783 313.52 211.943 313.52H212.695V313.168C212.695 312.664 212.423 312.368 211.839 312.368C211.351 312.368 211.055 312.608 210.847 312.936L210.327 312.464C210.599 312 211.087 311.656 211.895 311.656C212.967 311.656 213.567 312.184 213.567 313.112V315.2H214.007V315.912ZM211.759 315.344C212.295 315.344 212.695 315.088 212.695 314.68V314.08H211.959C211.351 314.08 211.055 314.28 211.055 314.64V314.784C211.055 315.152 211.327 315.344 211.759 315.344ZM216.31 315.912H215.75C215.158 315.912 214.862 315.584 214.862 315.048V309.992H215.734V315.2H216.31V315.912ZM220.482 315.912H219.922C219.33 315.912 219.034 315.584 219.034 315.048V309.992H219.906V315.2H220.482V315.912ZM224.851 315.912H224.363C223.907 315.912 223.667 315.624 223.611 315.216H223.571C223.411 315.736 222.963 316.008 222.355 316.008C221.499 316.008 221.011 315.52 221.011 314.768C221.011 313.944 221.627 313.52 222.787 313.52H223.539V313.168C223.539 312.664 223.267 312.368 222.683 312.368C222.195 312.368 221.899 312.608 221.691 312.936L221.171 312.464C221.443 312 221.931 311.656 222.739 311.656C223.811 311.656 224.411 312.184 224.411 313.112V315.2H224.851V315.912ZM222.603 315.344C223.139 315.344 223.539 315.088 223.539 314.68V314.08H222.803C222.195 314.08 221.899 314.28 221.899 314.64V314.784C221.899 315.152 222.171 315.344 222.603 315.344ZM226.578 315.912H225.706V311.752H226.578V312.44H226.618C226.794 311.992 227.146 311.656 227.786 311.656C228.634 311.656 229.138 312.248 229.138 313.272V315.912H228.266V313.384C228.266 312.736 228.018 312.408 227.482 312.408C227.026 312.408 226.578 312.64 226.578 313.128V315.912ZM233.994 316.304C233.994 317.168 233.378 317.608 231.882 317.608C230.522 317.608 229.994 317.24 229.994 316.608C229.994 316.152 230.266 315.904 230.706 315.808V315.72C230.402 315.624 230.234 315.392 230.234 315.08C230.234 314.648 230.57 314.44 230.97 314.344V314.312C230.482 314.08 230.21 313.64 230.21 313.08C230.21 312.232 230.81 311.656 231.866 311.656C232.146 311.656 232.402 311.696 232.618 311.784V311.672C232.618 311.304 232.794 311.08 233.162 311.08H233.802V311.784H232.954V311.952C233.33 312.2 233.538 312.6 233.538 313.08C233.538 313.92 232.93 314.488 231.874 314.488C231.674 314.488 231.482 314.464 231.33 314.424C231.122 314.496 230.93 314.632 230.93 314.84C230.93 315.064 231.146 315.152 231.514 315.152H232.538C233.562 315.152 233.994 315.584 233.994 316.304ZM233.178 316.4C233.178 316.112 232.986 315.928 232.418 315.928H231.01C230.818 316.04 230.722 316.208 230.722 316.408C230.722 316.744 230.97 316.976 231.618 316.976H232.162C232.842 316.976 233.178 316.784 233.178 316.4ZM231.874 313.856C232.386 313.856 232.682 313.624 232.682 313.152V312.992C232.682 312.52 232.386 312.288 231.874 312.288C231.362 312.288 231.066 312.52 231.066 312.992V313.152C231.066 313.624 231.362 313.856 231.874 313.856ZM237.132 315.912V315.224H237.1C236.948 315.632 236.62 316.008 235.932 316.008C235.076 316.008 234.572 315.424 234.572 314.4V311.752H235.444V314.288C235.444 314.92 235.708 315.256 236.244 315.256C236.692 315.256 237.132 315.024 237.132 314.536V311.752H238.004V315.912H237.132ZM242.788 315.912H242.3C241.844 315.912 241.604 315.624 241.548 315.216H241.508C241.348 315.736 240.9 316.008 240.292 316.008C239.436 316.008 238.948 315.52 238.948 314.768C238.948 313.944 239.564 313.52 240.724 313.52H241.476V313.168C241.476 312.664 241.204 312.368 240.62 312.368C240.132 312.368 239.836 312.608 239.628 312.936L239.108 312.464C239.38 312 239.868 311.656 240.676 311.656C241.748 311.656 242.348 312.184 242.348 313.112V315.2H242.788V315.912ZM240.54 315.344C241.076 315.344 241.476 315.088 241.476 314.68V314.08H240.74C240.132 314.08 239.836 314.28 239.836 314.64V314.784C239.836 315.152 240.108 315.344 240.54 315.344ZM247.291 316.304C247.291 317.168 246.675 317.608 245.179 317.608C243.819 317.608 243.291 317.24 243.291 316.608C243.291 316.152 243.563 315.904 244.003 315.808V315.72C243.699 315.624 243.531 315.392 243.531 315.08C243.531 314.648 243.867 314.44 244.267 314.344V314.312C243.779 314.08 243.507 313.64 243.507 313.08C243.507 312.232 244.107 311.656 245.163 311.656C245.443 311.656 245.699 311.696 245.915 311.784V311.672C245.915 311.304 246.091 311.08 246.459 311.08H247.099V311.784H246.251V311.952C246.627 312.2 246.835 312.6 246.835 313.08C246.835 313.92 246.227 314.488 245.171 314.488C244.971 314.488 244.779 314.464 244.627 314.424C244.419 314.496 244.227 314.632 244.227 314.84C244.227 315.064 244.443 315.152 244.811 315.152H245.835C246.859 315.152 247.291 315.584 247.291 316.304ZM246.475 316.4C246.475 316.112 246.283 315.928 245.715 315.928H244.307C244.115 316.04 244.019 316.208 244.019 316.408C244.019 316.744 244.267 316.976 244.915 316.976H245.459C246.139 316.976 246.475 316.784 246.475 316.4ZM245.171 313.856C245.683 313.856 245.979 313.624 245.979 313.152V312.992C245.979 312.52 245.683 312.288 245.171 312.288C244.659 312.288 244.363 312.52 244.363 312.992V313.152C244.363 313.624 244.659 313.856 245.171 313.856ZM249.525 316.008C248.341 316.008 247.613 315.16 247.613 313.832C247.613 312.504 248.341 311.656 249.525 311.656C250.749 311.656 251.373 312.576 251.373 313.728V314.056H248.517V314.192C248.517 314.832 248.909 315.288 249.613 315.288C250.125 315.288 250.469 315.048 250.709 314.664L251.221 315.168C250.909 315.672 250.301 316.008 249.525 316.008ZM249.525 312.336C248.925 312.336 248.517 312.784 248.517 313.424V313.48H250.453V313.4C250.453 312.76 250.101 312.336 249.525 312.336Z" fill="#FAFAFA"/>
<path d="M260.754 315.549L257.193 311.987L257.691 311.489L260.754 314.552L263.817 311.489L264.316 311.987L260.754 315.549Z" fill="#FAFAFA"/>
<rect x="275.5" y="305.412" width="172" height="16" rx="2.34919" stroke="#FAFAFA"/>
<path d="M282.29 315.912H281.386V310.328H283.786C284.81 310.328 285.41 310.992 285.41 312.008C285.41 313.024 284.81 313.688 283.786 313.688H282.29V315.912ZM282.29 311.12V312.896H283.73C284.186 312.896 284.458 312.648 284.458 312.2V311.816C284.458 311.368 284.186 311.12 283.73 311.12H282.29ZM287.814 316.008C286.654 316.008 285.902 315.16 285.902 313.832C285.902 312.504 286.654 311.656 287.814 311.656C288.974 311.656 289.726 312.504 289.726 313.832C289.726 315.16 288.974 316.008 287.814 316.008ZM287.814 315.288C288.406 315.288 288.806 314.92 288.806 314.184V313.48C288.806 312.744 288.406 312.376 287.814 312.376C287.222 312.376 286.822 312.744 286.822 313.48V314.184C286.822 314.92 287.222 315.288 287.814 315.288ZM292.017 316.008C291.233 316.008 290.721 315.712 290.329 315.224L290.889 314.712C291.193 315.08 291.569 315.304 292.065 315.304C292.569 315.304 292.825 315.096 292.825 314.744C292.825 314.48 292.665 314.28 292.233 314.224L291.849 314.176C291.001 314.072 290.481 313.704 290.481 312.936C290.481 312.128 291.113 311.656 292.025 311.656C292.777 311.656 293.201 311.904 293.577 312.32L293.041 312.832C292.825 312.576 292.473 312.36 292.025 312.36C291.545 312.36 291.321 312.568 291.321 312.88C291.321 313.2 291.521 313.344 291.961 313.416L292.345 313.464C293.257 313.6 293.665 314 293.665 314.672C293.665 315.472 293.017 316.008 292.017 316.008ZM295.091 311.008C294.731 311.008 294.571 310.816 294.571 310.552V310.416C294.571 310.152 294.731 309.96 295.091 309.96C295.451 309.96 295.603 310.152 295.603 310.416V310.552C295.603 310.816 295.451 311.008 295.091 311.008ZM294.651 315.912V311.752H295.523V315.912H294.651ZM298.68 315.912H297.92C297.32 315.912 297 315.576 297 315.008V312.464H296.352V311.752H296.704C296.992 311.752 297.088 311.632 297.088 311.344V310.616H297.872V311.752H298.744V312.464H297.872V315.2H298.68V315.912ZM300.13 311.008C299.77 311.008 299.61 310.816 299.61 310.552V310.416C299.61 310.152 299.77 309.96 300.13 309.96C300.49 309.96 300.642 310.152 300.642 310.416V310.552C300.642 310.816 300.49 311.008 300.13 311.008ZM299.69 315.912V311.752H300.562V315.912H299.69ZM303.735 315.912H302.711L301.295 311.752H302.159L302.791 313.648L303.215 315.104H303.263L303.687 313.648L304.335 311.752H305.167L303.735 315.912ZM307.47 316.008C306.286 316.008 305.558 315.16 305.558 313.832C305.558 312.504 306.286 311.656 307.47 311.656C308.694 311.656 309.318 312.576 309.318 313.728V314.056H306.462V314.192C306.462 314.832 306.854 315.288 307.558 315.288C308.07 315.288 308.414 315.048 308.654 314.664L309.166 315.168C308.854 315.672 308.246 316.008 307.47 316.008ZM307.47 312.336C306.87 312.336 306.462 312.784 306.462 313.424V313.48H308.398V313.4C308.398 312.76 308.046 312.336 307.47 312.336ZM312.238 315.912V310.328H313.31L314.806 313.168H314.854L316.35 310.328H317.374V315.912H316.51V311.64H316.47L316.03 312.544L314.806 314.776L313.582 312.544L313.142 311.64H313.102V315.912H312.238ZM320.322 316.008C319.162 316.008 318.41 315.16 318.41 313.832C318.41 312.504 319.162 311.656 320.322 311.656C321.482 311.656 322.234 312.504 322.234 313.832C322.234 315.16 321.482 316.008 320.322 316.008ZM320.322 315.288C320.914 315.288 321.314 314.92 321.314 314.184V313.48C321.314 312.744 320.914 312.376 320.322 312.376C319.73 312.376 319.33 312.744 319.33 313.48V314.184C319.33 314.92 319.73 315.288 320.322 315.288ZM325.071 315.912H324.047L322.631 311.752H323.495L324.127 313.648L324.551 315.104H324.599L325.023 313.648L325.671 311.752H326.503L325.071 315.912ZM327.677 311.008C327.317 311.008 327.157 310.816 327.157 310.552V310.416C327.157 310.152 327.317 309.96 327.677 309.96C328.037 309.96 328.189 310.152 328.189 310.416V310.552C328.189 310.816 328.037 311.008 327.677 311.008ZM327.237 315.912V311.752H328.109V315.912H327.237ZM330.986 316.008C329.802 316.008 329.074 315.16 329.074 313.832C329.074 312.504 329.802 311.656 330.986 311.656C332.21 311.656 332.834 312.576 332.834 313.728V314.056H329.978V314.192C329.978 314.832 330.37 315.288 331.074 315.288C331.586 315.288 331.93 315.048 332.17 314.664L332.682 315.168C332.37 315.672 331.762 316.008 330.986 316.008ZM330.986 312.336C330.386 312.336 329.978 312.784 329.978 313.424V313.48H331.914V313.4C331.914 312.76 331.562 312.336 330.986 312.336ZM336.658 313.656V315.912H335.754V310.328H338.162C339.162 310.328 339.778 310.976 339.778 312.008C339.778 312.8 339.402 313.352 338.69 313.56L339.898 315.912H338.89L337.77 313.656H336.658ZM336.658 312.896H338.098C338.554 312.896 338.826 312.648 338.826 312.2V311.816C338.826 311.368 338.554 311.12 338.098 311.12H336.658V312.896ZM342.447 316.008C341.263 316.008 340.535 315.16 340.535 313.832C340.535 312.504 341.263 311.656 342.447 311.656C343.671 311.656 344.295 312.576 344.295 313.728V314.056H341.439V314.192C341.439 314.832 341.831 315.288 342.535 315.288C343.047 315.288 343.391 315.048 343.631 314.664L344.143 315.168C343.831 315.672 343.223 316.008 342.447 316.008ZM342.447 312.336C341.847 312.336 341.439 312.784 341.439 313.424V313.48H343.375V313.4C343.375 312.76 343.023 312.336 342.447 312.336ZM347.118 315.912H346.094L344.678 311.752H345.542L346.174 313.648L346.598 315.104H346.646L347.07 313.648L347.718 311.752H348.55L347.118 315.912ZM349.723 311.008C349.363 311.008 349.203 310.816 349.203 310.552V310.416C349.203 310.152 349.363 309.96 349.723 309.96C350.083 309.96 350.235 310.152 350.235 310.416V310.552C350.235 310.816 350.083 311.008 349.723 311.008ZM349.283 315.912V311.752H350.155V315.912H349.283ZM353.033 316.008C351.849 316.008 351.121 315.16 351.121 313.832C351.121 312.504 351.849 311.656 353.033 311.656C354.257 311.656 354.881 312.576 354.881 313.728V314.056H352.025V314.192C352.025 314.832 352.417 315.288 353.121 315.288C353.633 315.288 353.977 315.048 354.217 314.664L354.729 315.168C354.417 315.672 353.809 316.008 353.033 316.008ZM353.033 312.336C352.433 312.336 352.025 312.784 352.025 313.424V313.48H353.961V313.4C353.961 312.76 353.609 312.336 353.033 312.336ZM356.527 315.912L355.391 311.752H356.239L356.663 313.496L357.039 315.072H357.063L357.495 313.496L357.999 311.752H358.783L359.295 313.496L359.735 315.072H359.759L360.127 313.496L360.559 311.752H361.367L360.247 315.912H359.263L358.719 314.016L358.383 312.848H358.367L358.039 314.016L357.487 315.912H356.527ZM363.494 316.008C362.71 316.008 362.198 315.712 361.806 315.224L362.366 314.712C362.67 315.08 363.046 315.304 363.542 315.304C364.046 315.304 364.302 315.096 364.302 314.744C364.302 314.48 364.142 314.28 363.71 314.224L363.326 314.176C362.478 314.072 361.958 313.704 361.958 312.936C361.958 312.128 362.59 311.656 363.502 311.656C364.254 311.656 364.678 311.904 365.054 312.32L364.518 312.832C364.302 312.576 363.95 312.36 363.502 312.36C363.022 312.36 362.798 312.568 362.798 312.88C362.798 313.2 362.998 313.344 363.438 313.416L363.822 313.464C364.734 313.6 365.142 314 365.142 314.672C365.142 315.472 364.494 316.008 363.494 316.008Z" fill="#FAFAFA"/>
<path d="M441.233 317.539L438.543 314.849C439.19 314.073 439.512 313.078 439.443 312.07C439.374 311.063 438.92 310.121 438.174 309.44C437.428 308.759 436.449 308.392 435.439 308.415C434.43 308.438 433.468 308.849 432.754 309.563C432.04 310.277 431.628 311.239 431.606 312.248C431.583 313.258 431.95 314.237 432.631 314.983C433.312 315.729 434.254 316.184 435.261 316.252C436.269 316.321 437.264 315.999 438.04 315.353L440.729 318.042L441.233 317.539ZM432.329 312.344C432.329 311.71 432.517 311.09 432.87 310.563C433.222 310.036 433.722 309.625 434.308 309.382C434.894 309.14 435.538 309.076 436.16 309.2C436.782 309.324 437.353 309.629 437.801 310.077C438.25 310.526 438.555 311.097 438.678 311.718C438.802 312.34 438.739 312.985 438.496 313.57C438.253 314.156 437.843 314.657 437.316 315.009C436.788 315.361 436.169 315.549 435.535 315.549C434.685 315.548 433.87 315.21 433.269 314.609C432.668 314.008 432.33 313.194 432.329 312.344V312.344Z" fill="#FAFAFA"/>
<rect x="94" y="334.412" width="375" height="103.6" fill="#171717"/>
<rect x="94" y="334.412" width="375" height="103.6" stroke="#FAFAFA"/>
<rect x="88.5" y="348.912" width="115" height="74.6" rx="7.27273" fill="#171717"/>
<rect x="88.5" y="348.912" width="115" height="74.6" rx="7.27273" stroke="#FAFAFA"/>
<rect x="100" y="360.412" width="22.4" height="22" rx="4" fill="#FBBF24"/>
<path fill-rule="evenodd" clip-rule="evenodd" d="M112.229 367.279C111.924 367.076 111.566 366.967 111.2 366.967C110.709 366.967 110.238 367.162 109.89 367.51C109.543 367.857 109.348 368.328 109.348 368.819C109.348 369.186 109.457 369.544 109.66 369.848C109.864 370.153 110.153 370.39 110.491 370.53C110.83 370.67 111.202 370.707 111.561 370.636C111.921 370.564 112.251 370.388 112.51 370.129C112.769 369.87 112.945 369.54 113.016 369.181C113.088 368.821 113.051 368.449 112.911 368.111C112.771 367.772 112.533 367.483 112.229 367.279ZM109.76 366.664C110.186 366.379 110.687 366.227 111.2 366.227C111.888 366.227 112.547 366.5 113.033 366.986C113.52 367.472 113.793 368.132 113.793 368.819C113.793 369.332 113.641 369.833 113.356 370.26C113.071 370.686 112.666 371.018 112.192 371.215C111.718 371.411 111.197 371.462 110.694 371.362C110.191 371.262 109.729 371.015 109.367 370.653C109.004 370.29 108.757 369.828 108.657 369.325C108.557 368.822 108.608 368.301 108.805 367.827C109.001 367.353 109.333 366.948 109.76 366.664ZM114.163 376.598H114.904V374.746C114.904 374.058 114.631 373.398 114.145 372.912C113.658 372.426 112.999 372.153 112.311 372.153H110.089C109.401 372.153 108.742 372.426 108.255 372.912C107.769 373.398 107.496 374.058 107.496 374.746V376.598H108.237V374.746C108.237 374.254 108.432 373.783 108.779 373.436C109.127 373.089 109.598 372.894 110.089 372.894H112.311C112.554 372.894 112.795 372.941 113.02 373.035C113.245 373.128 113.449 373.264 113.621 373.436C113.793 373.608 113.929 373.812 114.022 374.037C114.115 374.262 114.163 374.502 114.163 374.746V376.598Z" fill="#171717"/>
<path d="M133.359 362.442H130.848V361.225H133.359V362.442ZM135.838 362.442H133.327V361.225H135.838V362.442ZM138.318 362.442H135.807V361.225H138.318V362.442ZM140.797 362.442H138.286V361.225H140.797V362.442ZM143.277 362.442H140.766V361.225H143.277V362.442ZM145.756 362.442H143.246V361.225H145.756V362.442ZM148.236 362.442H145.725V361.225H148.236V362.442ZM150.715 362.442H148.205V361.225H150.715V362.442ZM153.195 362.442H150.684V361.225H153.195V362.442ZM155.674 362.442H153.164V361.225H155.674V362.442ZM158.154 362.442H155.643V361.225H158.154V362.442ZM160.633 362.442H158.123V361.225H160.633V362.442ZM163.113 362.442H160.602V361.225H163.113V362.442ZM165.592 362.442H163.082V361.225H165.592V362.442ZM168.072 362.442H165.561V361.225H168.072V362.442ZM170.551 362.442H168.041V361.225H170.551V362.442ZM173.031 362.442H170.52V361.225H173.031V362.442ZM175.51 362.442H173V361.225H175.51V362.442ZM177.99 362.442H175.479V361.225H177.99V362.442ZM180.469 362.442H177.959V361.225H180.469V362.442ZM182.949 362.442H180.438V361.225H182.949V362.442ZM185.429 362.442H182.918V361.225H185.429V362.442ZM187.908 362.442H185.397V361.225H187.908V362.442ZM133.359 370.442H130.848V369.225H133.359V370.442ZM135.838 370.442H133.327V369.225H135.838V370.442ZM138.318 370.442H135.807V369.225H138.318V370.442ZM140.797 370.442H138.286V369.225H140.797V370.442ZM143.277 370.442H140.766V369.225H143.277V370.442ZM145.756 370.442H143.246V369.225H145.756V370.442ZM148.236 370.442H145.725V369.225H148.236V370.442ZM150.715 370.442H148.205V369.225H150.715V370.442ZM153.195 370.442H150.684V369.225H153.195V370.442ZM155.674 370.442H153.164V369.225H155.674V370.442ZM158.154 370.442H155.643V369.225H158.154V370.442ZM160.633 370.442H158.123V369.225H160.633V370.442ZM163.113 370.442H160.602V369.225H163.113V370.442ZM165.592 370.442H163.082V369.225H165.592V370.442ZM168.072 370.442H165.561V369.225H168.072V370.442ZM170.551 370.442H168.041V369.225H170.551V370.442ZM173.031 370.442H170.52V369.225H173.031V370.442ZM175.51 370.442H173V369.225H175.51V370.442ZM177.99 370.442H175.479V369.225H177.99V370.442ZM180.469 370.442H177.959V369.225H180.469V370.442ZM182.949 370.442H180.438V369.225H182.949V370.442ZM185.429 370.442H182.918V369.225H185.429V370.442ZM187.908 370.442H185.397V369.225H187.908V370.442ZM133.359 378.442H130.848V377.225H133.359V378.442ZM135.838 378.442H133.327V377.225H135.838V378.442ZM138.318 378.442H135.807V377.225H138.318V378.442ZM140.797 378.442H138.286V377.225H140.797V378.442ZM143.277 378.442H140.766V377.225H143.277V378.442ZM145.756 378.442H143.246V377.225H145.756V378.442ZM148.236 378.442H145.725V377.225H148.236V378.442ZM150.715 378.442H148.205V377.225H150.715V378.442ZM153.195 378.442H150.684V377.225H153.195V378.442ZM155.674 378.442H153.164V377.225H155.674V378.442ZM158.154 378.442H155.643V377.225H158.154V378.442ZM160.633 378.442H158.123V377.225H160.633V378.442ZM163.113 378.442H160.602V377.225H163.113V378.442ZM165.592 378.442H163.082V377.225H165.592V378.442ZM168.072 378.442H165.561V377.225H168.072V378.442ZM170.551 378.442H168.041V377.225H170.551V378.442ZM173.031 378.442H170.52V377.225H173.031V378.442ZM175.51 378.442H173V377.225H175.51V378.442ZM177.99 378.442H175.479V377.225H177.99V378.442ZM180.469 378.442H177.959V377.225H180.469V378.442ZM182.949 378.442H180.438V377.225H182.949V378.442ZM185.429 378.442H182.918V377.225H185.429V378.442ZM187.908 378.442H185.397V377.225H187.908V378.442ZM133.359 386.442H130.848V385.225H133.359V386.442ZM135.838 386.442H133.327V385.225H135.838V386.442ZM138.318 386.442H135.807V385.225H138.318V386.442ZM140.797 386.442H138.286V385.225H140.797V386.442ZM143.277 386.442H140.766V385.225H143.277V386.442ZM145.756 386.442H143.246V385.225H145.756V386.442ZM148.236 386.442H145.725V385.225H148.236V386.442ZM150.715 386.442H148.205V385.225H150.715V386.442ZM153.195 386.442H150.684V385.225H153.195V386.442ZM155.674 386.442H153.164V385.225H155.674V386.442ZM158.154 386.442H155.643V385.225H158.154V386.442ZM160.633 386.442H158.123V385.225H160.633V386.442ZM163.113 386.442H160.602V385.225H163.113V386.442Z" fill="#F5F5F5"/>
<g clip-path="url(#clip5_37_89396)">
<path d="M135.4 403.012L134.035 405.778L130.984 406.219L133.192 408.373L132.67 411.412L135.4 409.978L138.13 411.412L137.608 408.373L139.816 406.222L136.765 405.778L135.4 403.012Z" fill="#FBBF24"/>
</g>
<g clip-path="url(#clip6_37_89396)">
<path d="M147.4 403.012L146.035 405.778L142.984 406.219L145.192 408.373L144.67 411.412L147.4 409.978L150.13 411.412L149.608 408.373L151.816 406.222L148.765 405.778L147.4 403.012Z" fill="#FBBF24"/>
</g>
<g clip-path="url(#clip7_37_89396)">
<path d="M159.4 403.012L158.035 405.778L154.984 406.219L157.192 408.373L156.67 411.412L159.4 409.978L162.13 411.412L161.608 408.373L163.816 406.222L160.765 405.778L159.4 403.012Z" fill="#FBBF24"/>
</g>
<g clip-path="url(#clip8_37_89396)">
<path d="M171.4 403.012L170.035 405.778L166.984 406.219L169.192 408.373L168.67 411.412L171.4 409.978L174.13 411.412L173.608 408.373L175.816 406.222L172.765 405.778L171.4 403.012Z" fill="#FBBF24"/>
</g>
<g clip-path="url(#clip9_37_89396)">
<path d="M183.4 403.012L182.035 405.778L178.984 406.219L181.192 408.373L180.67 411.412L183.4 409.978L186.13 411.412L185.608 408.373L187.816 406.222L184.765 405.778L183.4 403.012Z" fill="#FBBF24"/>
</g>
<rect x="210.5" y="348.912" width="115" height="74.6" rx="7.27273" fill="#171717"/>
<rect x="210.5" y="348.912" width="115" height="74.6" rx="7.27273" stroke="#FAFAFA"/>
<rect x="222" y="360.412" width="22.4" height="22" rx="4" fill="#FBBF24"/>
<path fill-rule="evenodd" clip-rule="evenodd" d="M234.229 367.279C233.924 367.076 233.566 366.967 233.2 366.967C232.709 366.967 232.238 367.162 231.89 367.51C231.543 367.857 231.348 368.328 231.348 368.819C231.348 369.186 231.457 369.544 231.66 369.848C231.864 370.153 232.153 370.39 232.491 370.53C232.83 370.67 233.202 370.707 233.561 370.636C233.921 370.564 234.251 370.388 234.51 370.129C234.769 369.87 234.945 369.54 235.016 369.181C235.088 368.821 235.051 368.449 234.911 368.111C234.771 367.772 234.533 367.483 234.229 367.279ZM231.76 366.664C232.186 366.379 232.687 366.227 233.2 366.227C233.888 366.227 234.547 366.5 235.033 366.986C235.52 367.472 235.793 368.132 235.793 368.819C235.793 369.332 235.641 369.833 235.356 370.26C235.071 370.686 234.666 371.018 234.192 371.215C233.718 371.411 233.197 371.462 232.694 371.362C232.191 371.262 231.729 371.015 231.367 370.653C231.004 370.29 230.757 369.828 230.657 369.325C230.557 368.822 230.608 368.301 230.805 367.827C231.001 367.353 231.333 366.948 231.76 366.664ZM236.163 376.598H236.904V374.746C236.904 374.058 236.631 373.398 236.145 372.912C235.658 372.426 234.999 372.153 234.311 372.153H232.089C231.401 372.153 230.742 372.426 230.255 372.912C229.769 373.398 229.496 374.058 229.496 374.746V376.598H230.237V374.746C230.237 374.254 230.432 373.783 230.779 373.436C231.127 373.089 231.598 372.894 232.089 372.894H234.311C234.554 372.894 234.795 372.941 235.02 373.035C235.245 373.128 235.449 373.264 235.621 373.436C235.793 373.608 235.929 373.812 236.022 374.037C236.115 374.262 236.163 374.502 236.163 374.746V376.598Z" fill="#171717"/>
<path d="M255.359 362.442H252.848V361.225H255.359V362.442ZM257.838 362.442H255.327V361.225H257.838V362.442ZM260.318 362.442H257.807V361.225H260.318V362.442ZM262.797 362.442H260.286V361.225H262.797V362.442ZM265.277 362.442H262.766V361.225H265.277V362.442ZM267.756 362.442H265.246V361.225H267.756V362.442ZM270.236 362.442H267.725V361.225H270.236V362.442ZM272.715 362.442H270.205V361.225H272.715V362.442ZM275.195 362.442H272.684V361.225H275.195V362.442ZM277.674 362.442H275.164V361.225H277.674V362.442ZM280.154 362.442H277.643V361.225H280.154V362.442ZM282.633 362.442H280.123V361.225H282.633V362.442ZM285.113 362.442H282.602V361.225H285.113V362.442ZM287.592 362.442H285.082V361.225H287.592V362.442ZM290.072 362.442H287.561V361.225H290.072V362.442ZM292.551 362.442H290.041V361.225H292.551V362.442ZM295.031 362.442H292.52V361.225H295.031V362.442ZM297.51 362.442H295V361.225H297.51V362.442ZM299.99 362.442H297.479V361.225H299.99V362.442ZM302.469 362.442H299.959V361.225H302.469V362.442ZM304.949 362.442H302.438V361.225H304.949V362.442ZM307.429 362.442H304.918V361.225H307.429V362.442ZM309.908 362.442H307.397V361.225H309.908V362.442ZM255.359 370.442H252.848V369.225H255.359V370.442ZM257.838 370.442H255.327V369.225H257.838V370.442ZM260.318 370.442H257.807V369.225H260.318V370.442ZM262.797 370.442H260.286V369.225H262.797V370.442ZM265.277 370.442H262.766V369.225H265.277V370.442ZM267.756 370.442H265.246V369.225H267.756V370.442ZM270.236 370.442H267.725V369.225H270.236V370.442ZM272.715 370.442H270.205V369.225H272.715V370.442ZM275.195 370.442H272.684V369.225H275.195V370.442ZM277.674 370.442H275.164V369.225H277.674V370.442ZM280.154 370.442H277.643V369.225H280.154V370.442ZM282.633 370.442H280.123V369.225H282.633V370.442ZM285.113 370.442H282.602V369.225H285.113V370.442ZM287.592 370.442H285.082V369.225H287.592V370.442ZM290.072 370.442H287.561V369.225H290.072V370.442ZM292.551 370.442H290.041V369.225H292.551V370.442ZM295.031 370.442H292.52V369.225H295.031V370.442ZM297.51 370.442H295V369.225H297.51V370.442ZM299.99 370.442H297.479V369.225H299.99V370.442ZM302.469 370.442H299.959V369.225H302.469V370.442ZM304.949 370.442H302.438V369.225H304.949V370.442ZM307.429 370.442H304.918V369.225H307.429V370.442ZM309.908 370.442H307.397V369.225H309.908V370.442ZM255.359 378.442H252.848V377.225H255.359V378.442ZM257.838 378.442H255.327V377.225H257.838V378.442ZM260.318 378.442H257.807V377.225H260.318V378.442ZM262.797 378.442H260.286V377.225H262.797V378.442ZM265.277 378.442H262.766V377.225H265.277V378.442ZM267.756 378.442H265.246V377.225H267.756V378.442ZM270.236 378.442H267.725V377.225H270.236V378.442ZM272.715 378.442H270.205V377.225H272.715V378.442ZM275.195 378.442H272.684V377.225H275.195V378.442ZM277.674 378.442H275.164V377.225H277.674V378.442ZM280.154 378.442H277.643V377.225H280.154V378.442ZM282.633 378.442H280.123V377.225H282.633V378.442ZM285.113 378.442H282.602V377.225H285.113V378.442ZM287.592 378.442H285.082V377.225H287.592V378.442ZM290.072 378.442H287.561V377.225H290.072V378.442ZM292.551 378.442H290.041V377.225H292.551V378.442ZM295.031 378.442H292.52V377.225H295.031V378.442ZM297.51 378.442H295V377.225H297.51V378.442ZM299.99 378.442H297.479V377.225H299.99V378.442ZM302.469 378.442H299.959V377.225H302.469V378.442ZM304.949 378.442H302.438V377.225H304.949V378.442ZM307.429 378.442H304.918V377.225H307.429V378.442ZM309.908 378.442H307.397V377.225H309.908V378.442ZM255.359 386.442H252.848V385.225H255.359V386.442ZM257.838 386.442H255.327V385.225H257.838V386.442ZM260.318 386.442H257.807V385.225H260.318V386.442ZM262.797 386.442H260.286V385.225H262.797V386.442ZM265.277 386.442H262.766V385.225H265.277V386.442ZM267.756 386.442H265.246V385.225H267.756V386.442ZM270.236 386.442H267.725V385.225H270.236V386.442ZM272.715 386.442H270.205V385.225H272.715V386.442ZM275.195 386.442H272.684V385.225H275.195V386.442ZM277.674 386.442H275.164V385.225H277.674V386.442ZM280.154 386.442H277.643V385.225H280.154V386.442ZM282.633 386.442H280.123V385.225H282.633V386.442ZM285.113 386.442H282.602V385.225H285.113V386.442ZM287.592 386.442H285.082V385.225H287.592V386.442ZM290.072 386.442H287.561V385.225H290.072V386.442ZM292.551 386.442H290.041V385.225H292.551V386.442ZM295.031 386.442H292.52V385.225H295.031V386.442ZM297.51 386.442H295V385.225H297.51V386.442ZM299.99 386.442H297.479V385.225H299.99V386.442ZM302.469 386.442H299.959V385.225H302.469V386.442ZM304.949 386.442H302.438V385.225H304.949V386.442ZM307.429 386.442H304.918V385.225H307.429V386.442ZM309.908 386.442H307.397V385.225H309.908V386.442ZM255.359 394.442H252.848V393.225H255.359V394.442ZM257.838 394.442H255.327V393.225H257.838V394.442ZM260.318 394.442H257.807V393.225H260.318V394.442ZM262.797 394.442H260.286V393.225H262.797V394.442ZM265.277 394.442H262.766V393.225H265.277V394.442ZM267.756 394.442H265.246V393.225H267.756V394.442ZM270.236 394.442H267.725V393.225H270.236V394.442ZM272.715 394.442H270.205V393.225H272.715V394.442ZM275.195 394.442H272.684V393.225H275.195V394.442ZM277.674 394.442H275.164V393.225H277.674V394.442Z" fill="#F5F5F5"/>
<g clip-path="url(#clip10_37_89396)">
<path d="M257.2 403.012L255.835 405.778L252.784 406.219L254.992 408.373L254.47 411.412L257.2 409.978L259.93 411.412L259.408 408.373L261.616 406.222L258.565 405.778L257.2 403.012Z" fill="#FBBF24"/>
</g>
<g clip-path="url(#clip11_37_89396)">
<path d="M269.2 403.012L267.835 405.778L264.784 406.219L266.992 408.373L266.47 411.412L269.2 409.978L271.93 411.412L271.408 408.373L273.616 406.222L270.565 405.778L269.2 403.012Z" fill="#FBBF24"/>
</g>
<g clip-path="url(#clip12_37_89396)">
<path d="M281.2 403.012L279.835 405.778L276.784 406.219L278.992 408.373L278.47 411.412L281.2 409.978L283.93 411.412L283.408 408.373L285.616 406.222L282.565 405.778L281.2 403.012Z" fill="#FBBF24"/>
</g>
<g clip-path="url(#clip13_37_89396)">
<path d="M293.2 403.012L291.835 405.778L288.784 406.219L290.992 408.373L290.47 411.412L293.2 409.978L295.93 411.412L295.408 408.373L297.616 406.222L294.565 405.778L293.2 403.012Z" fill="#FBBF24"/>
</g>
<g clip-path="url(#clip14_37_89396)">
<path d="M305.2 404.368L306.028 406.042L306.166 406.342L306.466 406.387L308.314 406.654L307 407.944L306.775 408.163L306.829 408.463L307.144 410.302L305.491 409.435L305.2 409.312L304.921 409.459L303.268 410.314L303.568 408.475L303.622 408.175L303.4 407.944L302.074 406.639L303.922 406.372L304.222 406.327L304.36 406.027L305.2 404.368ZM305.2 403.012L303.835 405.778L300.784 406.219L302.992 408.373L302.47 411.412L305.2 409.978L307.93 411.412L307.408 408.373L309.616 406.222L306.565 405.778L305.2 403.012Z" fill="#FBBF24"/>
</g>
<rect x="332.5" y="348.912" width="115" height="74.6" rx="7.27273" fill="#171717"/>
<rect x="332.5" y="348.912" width="115" height="74.6" rx="7.27273" stroke="#FAFAFA"/>
<rect x="344" y="360.412" width="22.4" height="22" rx="4" fill="#FBBF24"/>
<path fill-rule="evenodd" clip-rule="evenodd" d="M356.229 367.279C355.924 367.076 355.566 366.967 355.2 366.967C354.709 366.967 354.238 367.162 353.89 367.51C353.543 367.857 353.348 368.328 353.348 368.819C353.348 369.186 353.457 369.544 353.66 369.848C353.864 370.153 354.153 370.39 354.491 370.53C354.83 370.67 355.202 370.707 355.561 370.636C355.921 370.564 356.251 370.388 356.51 370.129C356.769 369.87 356.945 369.54 357.016 369.181C357.088 368.821 357.051 368.449 356.911 368.111C356.771 367.772 356.533 367.483 356.229 367.279ZM353.76 366.664C354.186 366.379 354.687 366.227 355.2 366.227C355.888 366.227 356.547 366.5 357.033 366.986C357.52 367.472 357.793 368.132 357.793 368.819C357.793 369.332 357.641 369.833 357.356 370.26C357.071 370.686 356.666 371.018 356.192 371.215C355.718 371.411 355.197 371.462 354.694 371.362C354.191 371.262 353.729 371.015 353.367 370.653C353.004 370.29 352.757 369.828 352.657 369.325C352.557 368.822 352.608 368.301 352.805 367.827C353.001 367.353 353.333 366.948 353.76 366.664ZM358.163 376.598H358.904V374.746C358.904 374.058 358.631 373.398 358.145 372.912C357.658 372.426 356.999 372.153 356.311 372.153H354.089C353.401 372.153 352.742 372.426 352.255 372.912C351.769 373.398 351.496 374.058 351.496 374.746V376.598H352.237V374.746C352.237 374.254 352.432 373.783 352.779 373.436C353.127 373.089 353.598 372.894 354.089 372.894H356.311C356.554 372.894 356.795 372.941 357.02 373.035C357.245 373.128 357.449 373.264 357.621 373.436C357.793 373.608 357.929 373.812 358.022 374.037C358.115 374.262 358.163 374.502 358.163 374.746V376.598Z" fill="#171717"/>
<path d="M377.359 362.442H374.848V361.225H377.359V362.442ZM379.838 362.442H377.327V361.225H379.838V362.442ZM382.318 362.442H379.807V361.225H382.318V362.442ZM384.797 362.442H382.286V361.225H384.797V362.442ZM387.277 362.442H384.766V361.225H387.277V362.442ZM389.756 362.442H387.246V361.225H389.756V362.442ZM392.236 362.442H389.725V361.225H392.236V362.442ZM394.715 362.442H392.205V361.225H394.715V362.442ZM397.195 362.442H394.684V361.225H397.195V362.442ZM399.674 362.442H397.164V361.225H399.674V362.442ZM402.154 362.442H399.643V361.225H402.154V362.442ZM404.633 362.442H402.123V361.225H404.633V362.442ZM407.113 362.442H404.602V361.225H407.113V362.442ZM409.592 362.442H407.082V361.225H409.592V362.442ZM412.072 362.442H409.561V361.225H412.072V362.442ZM414.551 362.442H412.041V361.225H414.551V362.442ZM417.031 362.442H414.52V361.225H417.031V362.442ZM419.51 362.442H417V361.225H419.51V362.442ZM421.99 362.442H419.479V361.225H421.99V362.442ZM424.469 362.442H421.959V361.225H424.469V362.442ZM426.949 362.442H424.438V361.225H426.949V362.442ZM429.429 362.442H426.918V361.225H429.429V362.442ZM431.908 362.442H429.397V361.225H431.908V362.442ZM377.359 370.442H374.848V369.225H377.359V370.442ZM379.838 370.442H377.327V369.225H379.838V370.442ZM382.318 370.442H379.807V369.225H382.318V370.442ZM384.797 370.442H382.286V369.225H384.797V370.442ZM387.277 370.442H384.766V369.225H387.277V370.442ZM389.756 370.442H387.246V369.225H389.756V370.442ZM392.236 370.442H389.725V369.225H392.236V370.442ZM394.715 370.442H392.205V369.225H394.715V370.442ZM397.195 370.442H394.684V369.225H397.195V370.442ZM399.674 370.442H397.164V369.225H399.674V370.442ZM402.154 370.442H399.643V369.225H402.154V370.442ZM404.633 370.442H402.123V369.225H404.633V370.442ZM407.113 370.442H404.602V369.225H407.113V370.442ZM409.592 370.442H407.082V369.225H409.592V370.442ZM412.072 370.442H409.561V369.225H412.072V370.442ZM414.551 370.442H412.041V369.225H414.551V370.442ZM417.031 370.442H414.52V369.225H417.031V370.442ZM419.51 370.442H417V369.225H419.51V370.442ZM421.99 370.442H419.479V369.225H421.99V370.442ZM424.469 370.442H421.959V369.225H424.469V370.442ZM426.949 370.442H424.438V369.225H426.949V370.442ZM429.429 370.442H426.918V369.225H429.429V370.442ZM431.908 370.442H429.397V369.225H431.908V370.442ZM377.359 378.442H374.848V377.225H377.359V378.442ZM379.838 378.442H377.327V377.225H379.838V378.442ZM382.318 378.442H379.807V377.225H382.318V378.442ZM384.797 378.442H382.286V377.225H384.797V378.442ZM387.277 378.442H384.766V377.225H387.277V378.442ZM389.756 378.442H387.246V377.225H389.756V378.442ZM392.236 378.442H389.725V377.225H392.236V378.442ZM394.715 378.442H392.205V377.225H394.715V378.442ZM397.195 378.442H394.684V377.225H397.195V378.442ZM399.674 378.442H397.164V377.225H399.674V378.442ZM402.154 378.442H399.643V377.225H402.154V378.442ZM404.633 378.442H402.123V377.225H404.633V378.442ZM407.113 378.442H404.602V377.225H407.113V378.442ZM409.592 378.442H407.082V377.225H409.592V378.442ZM412.072 378.442H409.561V377.225H412.072V378.442ZM414.551 378.442H412.041V377.225H414.551V378.442ZM417.031 378.442H414.52V377.225H417.031V378.442ZM419.51 378.442H417V377.225H419.51V378.442ZM421.99 378.442H419.479V377.225H421.99V378.442ZM424.469 378.442H421.959V377.225H424.469V378.442ZM426.949 378.442H424.438V377.225H426.949V378.442ZM429.429 378.442H426.918V377.225H429.429V378.442ZM431.908 378.442H429.397V377.225H431.908V378.442ZM377.359 386.442H374.848V385.225H377.359V386.442ZM379.838 386.442H377.327V385.225H379.838V386.442ZM382.318 386.442H379.807V385.225H382.318V386.442ZM384.797 386.442H382.286V385.225H384.797V386.442ZM387.277 386.442H384.766V385.225H387.277V386.442ZM389.756 386.442H387.246V385.225H389.756V386.442ZM392.236 386.442H389.725V385.225H392.236V386.442ZM394.715 386.442H392.205V385.225H394.715V386.442ZM397.195 386.442H394.684V385.225H397.195V386.442ZM399.674 386.442H397.164V385.225H399.674V386.442ZM402.154 386.442H399.643V385.225H402.154V386.442ZM404.633 386.442H402.123V385.225H404.633V386.442ZM407.113 386.442H404.602V385.225H407.113V386.442ZM409.592 386.442H407.082V385.225H409.592V386.442ZM412.072 386.442H409.561V385.225H412.072V386.442ZM414.551 386.442H412.041V385.225H414.551V386.442ZM417.031 386.442H414.52V385.225H417.031V386.442ZM419.51 386.442H417V385.225H419.51V386.442ZM421.99 386.442H419.479V385.225H421.99V386.442ZM424.469 386.442H421.959V385.225H424.469V386.442ZM426.949 386.442H424.438V385.225H426.949V386.442ZM429.429 386.442H426.918V385.225H429.429V386.442ZM431.908 386.442H429.397V385.225H431.908V386.442ZM377.359 394.442H374.848V393.225H377.359V394.442ZM379.838 394.442H377.327V393.225H379.838V394.442ZM382.318 394.442H379.807V393.225H382.318V394.442ZM384.797 394.442H382.286V393.225H384.797V394.442ZM387.277 394.442H384.766V393.225H387.277V394.442ZM389.756 394.442H387.246V393.225H389.756V394.442ZM392.236 394.442H389.725V393.225H392.236V394.442ZM394.715 394.442H392.205V393.225H394.715V394.442ZM397.195 394.442H394.684V393.225H397.195V394.442ZM399.674 394.442H397.164V393.225H399.674V394.442ZM402.154 394.442H399.643V393.225H402.154V394.442ZM404.633 394.442H402.123V393.225H404.633V394.442ZM407.113 394.442H404.602V393.225H407.113V394.442ZM409.592 394.442H407.082V393.225H409.592V394.442ZM412.072 394.442H409.561V393.225H412.072V394.442ZM414.551 394.442H412.041V393.225H414.551V394.442ZM417.031 394.442H414.52V393.225H417.031V394.442ZM419.51 394.442H417V393.225H419.51V394.442ZM421.99 394.442H419.479V393.225H421.99V394.442Z" fill="#F5F5F5"/>
<g clip-path="url(#clip15_37_89396)">
<path d="M379.2 403.012L377.835 405.778L374.784 406.219L376.992 408.373L376.47 411.412L379.2 409.978L381.93 411.412L381.408 408.373L383.616 406.222L380.565 405.778L379.2 403.012Z" fill="#FBBF24"/>
</g>
<g clip-path="url(#clip16_37_89396)">
<path d="M391.2 403.012L389.835 405.778L386.784 406.219L388.992 408.373L388.47 411.412L391.2 409.978L393.93 411.412L393.408 408.373L395.616 406.222L392.565 405.778L391.2 403.012Z" fill="#FBBF24"/>
</g>
<g clip-path="url(#clip17_37_89396)">
<path d="M403.2 403.012L401.835 405.778L398.784 406.219L400.992 408.373L400.47 411.412L403.2 409.978L405.93 411.412L405.408 408.373L407.616 406.222L404.565 405.778L403.2 403.012Z" fill="#FBBF24"/>
</g>
<g clip-path="url(#clip18_37_89396)">
<path d="M415.2 403.012L413.835 405.778L410.784 406.219L412.992 408.373L412.47 411.412L415.2 409.978L417.93 411.412L417.408 408.373L419.616 406.222L416.565 405.778L415.2 403.012Z" fill="#FBBF24"/>
</g>
<g clip-path="url(#clip19_37_89396)">
<path d="M427.2 403.012L425.835 405.778L422.784 406.219L424.992 408.373L424.47 411.412L427.2 409.978L429.93 411.412L429.408 408.373L431.616 406.222L428.565 405.778L427.2 403.012Z" fill="#FBBF24"/>
</g>
<path d="M299 245H389V223" stroke="#FAFAFA"/>
<rect x="461.528" y="307.528" width="71.3728" height="30.6913" rx="4.75498" fill="#171717"/>
<rect x="461.528" y="307.528" width="71.3728" height="30.6913" rx="4.75498" stroke="#F5F5F5" stroke-width="1.05666"/>
<rect x="468.925" y="312.332" width="21.1332" height="21.1332" rx="4.16199" transform="rotate(-0.130627 468.925 312.332)" fill="#FBBF24"/>
<g style="mix-blend-mode:multiply">
<path fill-rule="evenodd" clip-rule="evenodd" d="M483.834 319.876L480.706 316.762C480.616 316.673 480.527 316.629 480.393 316.629L475.934 316.639C475.443 316.64 475.043 317.042 475.044 317.533L475.068 328.235C475.07 328.726 475.472 329.126 475.962 329.125L483.097 329.109C483.588 329.108 483.988 328.705 483.987 328.215L483.969 320.188C483.968 320.054 483.924 319.965 483.834 319.876ZM480.396 317.699L482.898 320.191L480.401 320.196L480.396 317.699ZM475.96 328.233L475.936 317.531L479.503 317.523L479.509 320.198C479.511 320.689 479.913 321.089 480.403 321.088L483.079 321.082L483.095 328.217L475.96 328.233ZM482.197 325.544L476.846 325.556L476.848 326.448L482.199 326.435L482.197 325.544ZM476.84 322.88L482.191 322.868L482.193 323.76L476.842 323.772L476.84 322.88Z" fill="#171717"/>
</g>
<path d="M497.351 326.374V321.319H495.593V320.474H500.064V321.319H498.306V326.374H497.351ZM502.099 326.475C500.848 326.475 500.079 325.579 500.079 324.176C500.079 322.773 500.848 321.877 502.099 321.877C503.393 321.877 504.052 322.849 504.052 324.066V324.413H501.034V324.557C501.034 325.233 501.448 325.715 502.192 325.715C502.733 325.715 503.097 325.461 503.35 325.055L503.891 325.588C503.562 326.12 502.919 326.475 502.099 326.475ZM502.099 322.595C501.465 322.595 501.034 323.069 501.034 323.745V323.804H503.08V323.72C503.08 323.043 502.708 322.595 502.099 322.595ZM504.466 326.374L506.013 324.151L504.508 321.978H505.573L506.562 323.508H506.588L507.602 321.978H508.583L507.078 324.142L508.608 326.374H507.543L506.529 324.776H506.503L505.447 326.374H504.466ZM511.459 326.374H510.656C510.022 326.374 509.684 326.019 509.684 325.419V322.731H508.999V321.978H509.371C509.676 321.978 509.777 321.852 509.777 321.547V320.778H510.605V321.978H511.527V322.731H510.605V325.622H511.459V326.374Z" fill="#A3A3A3"/>
<rect x="461.528" y="346.673" width="71.3728" height="30.6913" rx="4.75498" fill="#171717"/>
<rect x="461.528" y="346.673" width="71.3728" height="30.6913" rx="4.75498" stroke="#F5F5F5" stroke-width="1.05666"/>
<rect x="468.925" y="351.476" width="21.1332" height="21.1332" rx="4.16199" transform="rotate(-0.130627 468.925 351.476)" fill="#FB923C"/>
<g style="mix-blend-mode:multiply">
<path fill-rule="evenodd" clip-rule="evenodd" d="M477.284 361.131C478.023 361.13 478.621 360.529 478.619 359.791C478.617 359.052 478.017 358.454 477.278 358.456C476.539 358.457 475.942 359.058 475.943 359.797C475.945 360.535 476.545 361.133 477.284 361.131ZM480.939 361.798C481.105 361.497 481.534 361.489 481.711 361.783L483.599 364.914C483.727 365.125 484.001 365.193 484.212 365.065C484.422 364.938 484.49 364.664 484.363 364.453L482.475 361.322C481.943 360.441 480.656 360.465 480.158 361.366L479.328 362.87C479.174 363.147 478.788 363.18 478.59 362.933L478.318 362.595C477.788 361.936 476.786 361.928 476.246 362.579L474.719 364.419C474.562 364.609 474.588 364.89 474.778 365.047C474.968 365.204 475.249 365.178 475.406 364.989L476.932 363.149C477.112 362.931 477.446 362.934 477.623 363.154L477.895 363.492C478.491 364.233 479.648 364.134 480.108 363.301L480.939 361.798Z" fill="#171717"/>
</g>
<path d="M498.433 365.519H495.863V364.741H496.666V360.396H495.863V359.618H498.433V360.396H497.621V364.741H498.433V365.519ZM500.487 365.519H499.566V361.123H500.487V361.85H500.529C500.707 361.393 501.037 361.021 501.704 361.021C502.296 361.021 502.795 361.309 503.006 361.917H503.032C503.192 361.427 503.649 361.021 504.359 361.021C505.229 361.021 505.745 361.647 505.745 362.729V365.519H504.824V362.839C504.824 362.163 504.57 361.816 504.012 361.816C503.547 361.816 503.116 362.061 503.116 362.568V365.519H502.195V362.839C502.195 362.154 501.933 361.816 501.392 361.816C500.935 361.816 500.487 362.061 500.487 362.568V365.519ZM510.756 365.519H510.241C509.759 365.519 509.505 365.214 509.446 364.783H509.404C509.235 365.333 508.762 365.62 508.119 365.62C507.215 365.62 506.699 365.104 506.699 364.31C506.699 363.439 507.35 362.991 508.576 362.991H509.37V362.619C509.37 362.087 509.083 361.774 508.466 361.774C507.95 361.774 507.637 362.027 507.417 362.374L506.868 361.875C507.155 361.385 507.671 361.021 508.525 361.021C509.658 361.021 510.292 361.579 510.292 362.56V364.766H510.756V365.519ZM508.381 364.918C508.947 364.918 509.37 364.648 509.37 364.217V363.583H508.592C507.95 363.583 507.637 363.794 507.637 364.174V364.327C507.637 364.715 507.925 364.918 508.381 364.918ZM515.514 365.933C515.514 366.846 514.863 367.311 513.283 367.311C511.846 367.311 511.288 366.922 511.288 366.254C511.288 365.772 511.575 365.51 512.04 365.409V365.316C511.719 365.214 511.541 364.969 511.541 364.639C511.541 364.183 511.896 363.963 512.319 363.862V363.828C511.803 363.583 511.516 363.118 511.516 362.526C511.516 361.63 512.15 361.021 513.266 361.021C513.562 361.021 513.832 361.064 514.06 361.157V361.038C514.06 360.649 514.246 360.413 514.635 360.413H515.311V361.157H514.415V361.334C514.813 361.596 515.032 362.019 515.032 362.526C515.032 363.414 514.39 364.014 513.274 364.014C513.063 364.014 512.86 363.989 512.699 363.946C512.479 364.022 512.277 364.166 512.277 364.386C512.277 364.623 512.505 364.715 512.894 364.715H513.976C515.058 364.715 515.514 365.172 515.514 365.933ZM514.652 366.034C514.652 365.73 514.449 365.535 513.849 365.535H512.361C512.158 365.654 512.057 365.831 512.057 366.043C512.057 366.398 512.319 366.643 513.004 366.643H513.578C514.297 366.643 514.652 366.44 514.652 366.034ZM513.274 363.346C513.815 363.346 514.128 363.101 514.128 362.602V362.433C514.128 361.934 513.815 361.689 513.274 361.689C512.733 361.689 512.42 361.934 512.42 362.433V362.602C512.42 363.101 512.733 363.346 513.274 363.346ZM517.875 365.62C516.624 365.62 515.854 364.724 515.854 363.321C515.854 361.917 516.624 361.021 517.875 361.021C519.168 361.021 519.828 361.994 519.828 363.211V363.557H516.81V363.701C516.81 364.377 517.224 364.859 517.968 364.859C518.509 364.859 518.872 364.606 519.126 364.2L519.667 364.732C519.337 365.265 518.695 365.62 517.875 365.62ZM517.875 361.74C517.241 361.74 516.81 362.213 516.81 362.89V362.949H518.855V362.864C518.855 362.188 518.483 361.74 517.875 361.74Z" fill="#A3A3A3"/>
<rect x="461.528" y="385.817" width="71.3728" height="30.6913" rx="4.75498" fill="#171717"/>
<rect x="461.528" y="385.817" width="71.3728" height="30.6913" rx="4.75498" stroke="#F5F5F5" stroke-width="1.05666"/>
<rect x="468.925" y="390.621" width="21.1332" height="21.1332" rx="4.16199" transform="rotate(-0.130627 468.925 390.621)" fill="#93C5FD"/>
<g style="mix-blend-mode:multiply">
<path fill-rule="evenodd" clip-rule="evenodd" d="M476.831 397.271L483.522 401.154L476.849 405.067L476.831 397.271ZM477.727 398.822L477.737 403.512L481.752 401.158L477.727 398.822Z" fill="#171717"/>
</g>
<path d="M498.585 404.663H497.478L495.542 398.763H496.531L497.469 401.679L498.036 403.733H498.069L498.644 401.679L499.582 398.763H500.546L498.585 404.663ZM501.822 399.481C501.442 399.481 501.273 399.278 501.273 398.999V398.856C501.273 398.577 501.442 398.374 501.822 398.374C502.202 398.374 502.363 398.577 502.363 398.856V398.999C502.363 399.278 502.202 399.481 501.822 399.481ZM501.357 404.663V400.267H502.278V404.663H501.357ZM506.358 404.663V403.936H506.316C506.13 404.452 505.665 404.765 505.082 404.765C503.975 404.765 503.332 403.911 503.332 402.465C503.332 401.02 503.975 400.166 505.082 400.166C505.665 400.166 506.13 400.47 506.316 400.994H506.358V398.408H507.28V404.663H506.358ZM505.361 403.97C505.919 403.97 506.358 403.666 506.358 403.218V401.713C506.358 401.265 505.919 400.961 505.361 400.961C504.727 400.961 504.304 401.409 504.304 402.085V402.846C504.304 403.522 504.727 403.97 505.361 403.97ZM510.321 404.765C509.07 404.765 508.301 403.868 508.301 402.465C508.301 401.062 509.07 400.166 510.321 400.166C511.615 400.166 512.274 401.138 512.274 402.355V402.702H509.256V402.846C509.256 403.522 509.67 404.004 510.414 404.004C510.955 404.004 511.319 403.75 511.572 403.344L512.113 403.877C511.784 404.409 511.141 404.765 510.321 404.765ZM510.321 400.884C509.687 400.884 509.256 401.358 509.256 402.034V402.093H511.302V402.009C511.302 401.332 510.93 400.884 510.321 400.884ZM515.019 404.765C513.793 404.765 512.998 403.868 512.998 402.465C512.998 401.062 513.793 400.166 515.019 400.166C516.244 400.166 517.039 401.062 517.039 402.465C517.039 403.868 516.244 404.765 515.019 404.765ZM515.019 404.004C515.644 404.004 516.067 403.615 516.067 402.837V402.093C516.067 401.316 515.644 400.927 515.019 400.927C514.393 400.927 513.97 401.316 513.97 402.093V402.837C513.97 403.615 514.393 404.004 515.019 404.004Z" fill="#A3A3A3"/>
<rect x="461.528" y="424.962" width="71.3728" height="30.6913" rx="4.75498" fill="#171717"/>
<rect x="461.528" y="424.962" width="71.3728" height="30.6913" rx="4.75498" stroke="#F5F5F5" stroke-width="1.05666"/>
<rect x="468.925" y="429.765" width="21.1332" height="21.1332" rx="4.16199" transform="rotate(-0.130627 468.925 429.765)" fill="#4ADE80"/>
<g style="mix-blend-mode:multiply">
<path fill-rule="evenodd" clip-rule="evenodd" d="M475.054 439.426C475.301 439.425 475.501 439.624 475.501 439.87L475.503 440.762C475.504 441.009 475.305 441.209 475.058 441.209C474.812 441.21 474.612 441.011 474.611 440.764L474.609 439.872C474.609 439.626 474.808 439.426 475.054 439.426Z" fill="#171717"/>
<path fill-rule="evenodd" clip-rule="evenodd" d="M477.281 438.083C477.527 438.082 477.727 438.281 477.728 438.528L477.736 442.095C477.737 442.341 477.537 442.541 477.291 442.542C477.045 442.542 476.845 442.343 476.844 442.097L476.836 438.53C476.835 438.283 477.035 438.083 477.281 438.083Z" fill="#171717"/>
<path fill-rule="evenodd" clip-rule="evenodd" d="M479.507 436.74C479.754 436.739 479.954 436.938 479.954 437.185L479.969 443.428C479.969 443.674 479.77 443.874 479.524 443.875C479.277 443.875 479.077 443.676 479.077 443.43L479.063 437.187C479.062 436.94 479.261 436.74 479.507 436.74Z" fill="#171717"/>
<path fill-rule="evenodd" clip-rule="evenodd" d="M481.74 438.072C481.986 438.072 482.187 438.271 482.187 438.517L482.195 442.085C482.196 442.331 481.997 442.531 481.75 442.532C481.504 442.532 481.304 442.333 481.303 442.087L481.295 438.519C481.295 438.273 481.494 438.073 481.74 438.072Z" fill="#171717"/>
<path fill-rule="evenodd" clip-rule="evenodd" d="M483.973 439.405C484.219 439.405 484.419 439.604 484.42 439.85L484.422 440.742C484.422 440.988 484.223 441.188 483.977 441.189C483.731 441.189 483.531 440.99 483.53 440.744L483.528 439.852C483.527 439.606 483.727 439.406 483.973 439.405Z" fill="#171717"/>
</g>
<path d="M500.8 443.808H499.802L499.27 442.21H497.063L496.548 443.808H495.576L497.588 437.907H498.788L500.8 443.808ZM499.033 441.39L498.188 438.786H498.145L497.292 441.39H499.033ZM504.309 443.808V443.081H504.275C504.114 443.512 503.768 443.909 503.041 443.909C502.136 443.909 501.604 443.292 501.604 442.21V439.412H502.525V442.092C502.525 442.759 502.804 443.114 503.37 443.114C503.844 443.114 504.309 442.869 504.309 442.354V439.412H505.23V443.808H504.309ZM509.314 443.808V443.081H509.272C509.086 443.596 508.621 443.909 508.037 443.909C506.93 443.909 506.288 443.055 506.288 441.61C506.288 440.164 506.93 439.31 508.037 439.31C508.621 439.31 509.086 439.615 509.272 440.139H509.314V437.552H510.235V443.808H509.314ZM508.316 443.114C508.874 443.114 509.314 442.81 509.314 442.362V440.857C509.314 440.409 508.874 440.105 508.316 440.105C507.682 440.105 507.26 440.553 507.26 441.229V441.99C507.26 442.666 507.682 443.114 508.316 443.114ZM512.017 438.626C511.637 438.626 511.468 438.423 511.468 438.144V438C511.468 437.721 511.637 437.518 512.017 437.518C512.398 437.518 512.558 437.721 512.558 438V438.144C512.558 438.423 512.398 438.626 512.017 438.626ZM511.552 443.808V439.412H512.474V443.808H511.552ZM515.514 443.909C514.288 443.909 513.493 443.013 513.493 441.61C513.493 440.207 514.288 439.31 515.514 439.31C516.74 439.31 517.534 440.207 517.534 441.61C517.534 443.013 516.74 443.909 515.514 443.909ZM515.514 443.148C516.139 443.148 516.562 442.759 516.562 441.982V441.238C516.562 440.46 516.139 440.071 515.514 440.071C514.888 440.071 514.466 440.46 514.466 441.238V441.982C514.466 442.759 514.888 443.148 515.514 443.148Z" fill="#A3A3A3"/>
<defs>
<clipPath id="clip0_37_89396">
<rect width="131.029" height="172.613" fill="white" transform="translate(154.5 80.0679)"/>
</clipPath>
<clipPath id="clip1_37_89396">
<rect width="128.983" height="172.613" fill="white" transform="translate(154.5 80.0679)"/>
</clipPath>
<clipPath id="clip2_37_89396">
<rect width="129.012" height="172.544" fill="white" transform="translate(324.729 32.6553)"/>
</clipPath>
<clipPath id="clip3_37_89396">
<rect width="129.012" height="172.544" fill="white" transform="translate(324.729 32.6553)"/>
</clipPath>
<clipPath id="clip4_37_89396">
<rect width="66.1571" height="94.0617" fill="white" transform="translate(356.083 71.9458)"/>
</clipPath>
<clipPath id="clip5_37_89396">
<rect width="9.6" height="9.6" fill="white" transform="translate(130.6 402.412)"/>
</clipPath>
<clipPath id="clip6_37_89396">
<rect width="9.6" height="9.6" fill="white" transform="translate(142.6 402.412)"/>
</clipPath>
<clipPath id="clip7_37_89396">
<rect width="9.6" height="9.6" fill="white" transform="translate(154.6 402.412)"/>
</clipPath>
<clipPath id="clip8_37_89396">
<rect width="9.6" height="9.6" fill="white" transform="translate(166.6 402.412)"/>
</clipPath>
<clipPath id="clip9_37_89396">
<rect width="9.6" height="9.6" fill="white" transform="translate(178.6 402.412)"/>
</clipPath>
<clipPath id="clip10_37_89396">
<rect width="9.6" height="9.6" fill="white" transform="translate(252.4 402.412)"/>
</clipPath>
<clipPath id="clip11_37_89396">
<rect width="9.6" height="9.6" fill="white" transform="translate(264.4 402.412)"/>
</clipPath>
<clipPath id="clip12_37_89396">
<rect width="9.6" height="9.6" fill="white" transform="translate(276.4 402.412)"/>
</clipPath>
<clipPath id="clip13_37_89396">
<rect width="9.6" height="9.6" fill="white" transform="translate(288.4 402.412)"/>
</clipPath>
<clipPath id="clip14_37_89396">
<rect width="9.6" height="9.6" fill="white" transform="translate(300.4 402.412)"/>
</clipPath>
<clipPath id="clip15_37_89396">
<rect width="9.6" height="9.6" fill="white" transform="translate(374.4 402.412)"/>
</clipPath>
<clipPath id="clip16_37_89396">
<rect width="9.6" height="9.6" fill="white" transform="translate(386.4 402.412)"/>
</clipPath>
<clipPath id="clip17_37_89396">
<rect width="9.6" height="9.6" fill="white" transform="translate(398.4 402.412)"/>
</clipPath>
<clipPath id="clip18_37_89396">
<rect width="9.6" height="9.6" fill="white" transform="translate(410.4 402.412)"/>
</clipPath>
<clipPath id="clip19_37_89396">
<rect width="9.6" height="9.6" fill="white" transform="translate(422.4 402.412)"/>
</clipPath>
</defs>
</svg>
