<svg width="550" height="320" viewBox="0 0 550 320" fill="none" xmlns="http://www.w3.org/2000/svg">
<rect y="0.800293" width="102" height="155" rx="9.09589" fill="#F5F5F5"/>
<rect x="16.3726" y="17.1729" width="36.468" height="36.468" rx="10.9404" fill="#4ADE80"/>
<path fill-rule="evenodd" clip-rule="evenodd" d="M32.4076 41.2296L35.6128 29.2677L36.7989 29.5855L33.5937 41.5474L32.4076 41.2296ZM25.397 35.4067L29.6948 31.1089L30.5605 31.9746L27.1345 35.4067L30.5605 38.8388L29.6948 39.7045L25.397 35.4067ZM43.8162 35.4067L39.5184 39.7045L38.6527 38.8388L42.0787 35.4067L38.6527 31.9746L39.5184 31.1089L43.8162 35.4067Z" fill="#171717"/>
<path d="M21.9406 122.332C19.0286 122.332 17.2526 120.3 17.2526 116.556C17.2526 112.812 19.0286 110.78 21.9406 110.78C23.8766 110.78 25.1726 111.644 25.9246 113.308L24.4046 114.14C24.0206 113.084 23.2366 112.396 21.9406 112.396C20.2286 112.396 19.1726 113.644 19.1726 115.708V117.404C19.1726 119.468 20.2286 120.716 21.9406 120.716C23.2686 120.716 24.1166 119.948 24.5166 118.86L25.9726 119.74C25.2206 121.356 23.8766 122.332 21.9406 122.332ZM31.0252 122.332C28.7052 122.332 27.2012 120.636 27.2012 117.98C27.2012 115.324 28.7052 113.628 31.0252 113.628C33.3452 113.628 34.8492 115.324 34.8492 117.98C34.8492 120.636 33.3452 122.332 31.0252 122.332ZM31.0252 120.892C32.2092 120.892 33.0092 120.156 33.0092 118.684V117.276C33.0092 115.804 32.2092 115.068 31.0252 115.068C29.8412 115.068 29.0412 115.804 29.0412 117.276V118.684C29.0412 120.156 29.8412 120.892 31.0252 120.892ZM42.0244 122.14V120.764H41.9444C41.5924 121.74 40.7124 122.332 39.6084 122.332C37.5124 122.332 36.2964 120.716 36.2964 117.98C36.2964 115.244 37.5124 113.628 39.6084 113.628C40.7124 113.628 41.5924 114.204 41.9444 115.196H42.0244V110.3H43.7684V122.14H42.0244ZM40.1364 120.828C41.1924 120.828 42.0244 120.252 42.0244 119.404V116.556C42.0244 115.708 41.1924 115.132 40.1364 115.132C38.9364 115.132 38.1364 115.98 38.1364 117.26V118.7C38.1364 119.98 38.9364 120.828 40.1364 120.828ZM47.1412 112.332C46.4212 112.332 46.1012 111.948 46.1012 111.42V111.148C46.1012 110.62 46.4212 110.236 47.1412 110.236C47.8612 110.236 48.1652 110.62 48.1652 111.148V111.42C48.1652 111.948 47.8612 112.332 47.1412 112.332ZM46.2612 122.14V113.82H48.0052V122.14H46.2612ZM52.2396 122.14H50.4956V113.82H52.2396V115.196H52.3196C52.6716 114.3 53.3756 113.628 54.6556 113.628C56.3516 113.628 57.3596 114.812 57.3596 116.86V122.14H55.6156V117.084C55.6156 115.788 55.1196 115.132 54.0476 115.132C53.1356 115.132 52.2396 115.596 52.2396 116.572V122.14ZM67.0728 122.924C67.0728 124.652 65.8408 125.532 62.8488 125.532C60.1288 125.532 59.0728 124.796 59.0728 123.532C59.0728 122.62 59.6168 122.124 60.4968 121.932V121.756C59.8888 121.564 59.5528 121.1 59.5528 120.476C59.5528 119.612 60.2248 119.196 61.0248 119.004V118.94C60.0488 118.476 59.5048 117.596 59.5048 116.476C59.5048 114.78 60.7048 113.628 62.8168 113.628C63.3768 113.628 63.8888 113.708 64.3208 113.884V113.66C64.3208 112.924 64.6728 112.476 65.4088 112.476H66.6888V113.884H64.9928V114.22C65.7448 114.716 66.1608 115.516 66.1608 116.476C66.1608 118.156 64.9448 119.292 62.8328 119.292C62.4328 119.292 62.0488 119.244 61.7448 119.164C61.3288 119.308 60.9448 119.58 60.9448 119.996C60.9448 120.444 61.3768 120.62 62.1128 120.62H64.1608C66.2088 120.62 67.0728 121.484 67.0728 122.924ZM65.4408 123.116C65.4408 122.54 65.0568 122.172 63.9208 122.172H61.1048C60.7208 122.396 60.5288 122.732 60.5288 123.132C60.5288 123.804 61.0248 124.268 62.3208 124.268H63.4088C64.7688 124.268 65.4408 123.884 65.4408 123.116ZM62.8328 118.028C63.8568 118.028 64.4488 117.564 64.4488 116.62V116.3C64.4488 115.356 63.8568 114.892 62.8328 114.892C61.8088 114.892 61.2168 115.356 61.2168 116.3V116.62C61.2168 117.564 61.8088 118.028 62.8328 118.028Z" fill="#171717"/>
<rect x="113" y="0.800293" width="102" height="154" rx="9.09589" fill="#F5F5F5"/>
<rect x="129.373" y="17.1729" width="36.468" height="36.468" rx="10.9404" fill="#93C5FD"/>
<path fill-rule="evenodd" clip-rule="evenodd" d="M146.379 30.4951H143.923V28.0392H142.695V30.4951H140.239V31.723H142.695V34.1789H143.923V31.723H146.379V30.4951ZM146.378 37.2489H140.239V38.4768H146.378V37.2489ZM140.239 40.3187H146.378V41.5467H140.239V40.3187ZM154.974 30.4952H148.834V31.7231H154.974V30.4952ZM154.974 36.8866L152.77 39.0908L154.974 41.2949L154.108 42.1606L151.904 39.9565L149.7 42.1606L148.834 41.2949L151.039 39.0908L148.834 36.8866L149.7 36.0209L151.904 38.2251L154.108 36.0209L154.974 36.8866Z" fill="#171717"/>
<path d="M130.749 121.14V109.972H132.893L135.885 115.652H135.981L138.973 109.972H141.021V121.14H139.293V112.596H139.213L138.333 114.404L135.885 118.868L133.437 114.404L132.557 112.596H132.477V121.14H130.749ZM150.724 121.14H149.748C148.836 121.14 148.356 120.564 148.244 119.748H148.164C147.844 120.788 146.948 121.332 145.732 121.332C144.02 121.332 143.044 120.356 143.044 118.852C143.044 117.204 144.276 116.356 146.596 116.356H148.1V115.652C148.1 114.644 147.556 114.052 146.388 114.052C145.412 114.052 144.82 114.532 144.404 115.188L143.364 114.244C143.908 113.316 144.884 112.628 146.5 112.628C148.644 112.628 149.844 113.684 149.844 115.54V119.716H150.724V121.14ZM146.228 120.004C147.3 120.004 148.1 119.492 148.1 118.676V117.476H146.628C145.412 117.476 144.82 117.876 144.82 118.596V118.884C144.82 119.62 145.364 120.004 146.228 120.004ZM156.21 121.14H154.69C153.49 121.14 152.85 120.468 152.85 119.332V114.244H151.554V112.82H152.258C152.834 112.82 153.026 112.58 153.026 112.004V110.548H154.594V112.82H156.338V114.244H154.594V119.716H156.21V121.14ZM158.23 121.14V109.3H159.974V114.196H160.054C160.406 113.3 161.11 112.628 162.39 112.628C164.086 112.628 165.094 113.812 165.094 115.86V121.14H163.35V116.068C163.35 114.788 162.854 114.132 161.782 114.132C160.87 114.132 159.974 114.596 159.974 115.556V121.14H158.23Z" fill="#171717"/>
<rect x="224" y="0.800293" width="102" height="155" rx="9.09589" fill="#F5F5F5"/>
<rect x="240.373" y="17.1729" width="36.468" height="36.468" rx="10.9404" fill="#FBBF24"/>
<path d="M263.518 26.8112H253.695C253.369 26.8112 253.057 26.9405 252.826 27.1708C252.596 27.4011 252.467 27.7134 252.467 28.0391V30.495C252.467 30.8207 252.596 31.133 252.826 31.3633C253.057 31.5936 253.369 31.7229 253.695 31.7229V42.7744C253.695 43.1001 253.824 43.4124 254.054 43.6427C254.285 43.873 254.597 44.0024 254.923 44.0024H262.29C262.616 44.0024 262.928 43.873 263.159 43.6427C263.389 43.4124 263.518 43.1001 263.518 42.7744V31.7229C263.844 31.7229 264.156 31.5936 264.387 31.3633C264.617 31.133 264.746 30.8207 264.746 30.495V28.0391C264.746 27.7134 264.617 27.4011 264.387 27.1708C264.156 26.9405 263.844 26.8112 263.518 26.8112ZM254.923 34.1788H256.765V40.3186H254.923V34.1788ZM262.29 42.7744H254.923V41.5465H257.993V32.9509H254.923V31.7229H262.29V42.7744ZM253.695 30.495V28.0391H263.518V30.495H253.695Z" fill="#171717"/>
<path d="M241.749 122.14V110.972H243.893L246.885 116.652H246.981L249.973 110.972H252.021V122.14H250.293V113.596H250.213L249.333 115.404L246.885 119.868L244.437 115.404L243.557 113.596H243.477V122.14H241.749ZM257.916 122.332C255.548 122.332 254.092 120.636 254.092 117.98C254.092 115.324 255.548 113.628 257.916 113.628C260.364 113.628 261.612 115.468 261.612 117.772V118.428H255.9V118.7C255.9 119.98 256.684 120.892 258.092 120.892C259.116 120.892 259.804 120.412 260.284 119.644L261.308 120.652C260.684 121.66 259.468 122.332 257.916 122.332ZM257.916 114.988C256.716 114.988 255.9 115.884 255.9 117.164V117.276H259.772V117.116C259.772 115.836 259.068 114.988 257.916 114.988ZM268.774 122.14V120.764H268.694C268.342 121.74 267.462 122.332 266.358 122.332C264.262 122.332 263.046 120.716 263.046 117.98C263.046 115.244 264.262 113.628 266.358 113.628C267.462 113.628 268.342 114.204 268.694 115.196H268.774V110.3H270.518V122.14H268.774ZM266.886 120.828C267.942 120.828 268.774 120.252 268.774 119.404V116.556C268.774 115.708 267.942 115.132 266.886 115.132C265.686 115.132 264.886 115.98 264.886 117.26V118.7C264.886 119.98 265.686 120.828 266.886 120.828ZM273.891 112.332C273.171 112.332 272.851 111.948 272.851 111.42V111.148C272.851 110.62 273.171 110.236 273.891 110.236C274.611 110.236 274.915 110.62 274.915 111.148V111.42C274.915 111.948 274.611 112.332 273.891 112.332ZM273.011 122.14V113.82H274.755V122.14H273.011ZM280.462 122.332C278.062 122.332 276.686 120.636 276.686 117.98C276.686 115.324 278.062 113.628 280.462 113.628C282.126 113.628 283.182 114.444 283.678 115.676L282.238 116.348C281.998 115.58 281.406 115.084 280.462 115.084C279.182 115.084 278.526 115.964 278.526 117.244V118.732C278.526 120.012 279.182 120.892 280.462 120.892C281.47 120.892 282.062 120.348 282.414 119.516L283.742 120.22C283.198 121.58 282.062 122.332 280.462 122.332ZM286.282 112.332C285.562 112.332 285.242 111.948 285.242 111.42V111.148C285.242 110.62 285.562 110.236 286.282 110.236C287.002 110.236 287.306 110.62 287.306 111.148V111.42C287.306 111.948 287.002 112.332 286.282 112.332ZM285.402 122.14V113.82H287.146V122.14H285.402ZM291.38 122.14H289.636V113.82H291.38V115.196H291.46C291.812 114.3 292.516 113.628 293.796 113.628C295.492 113.628 296.5 114.812 296.5 116.86V122.14H294.756V117.084C294.756 115.788 294.26 115.132 293.188 115.132C292.276 115.132 291.38 115.596 291.38 116.572V122.14ZM302.181 122.332C299.813 122.332 298.357 120.636 298.357 117.98C298.357 115.324 299.813 113.628 302.181 113.628C304.629 113.628 305.877 115.468 305.877 117.772V118.428H300.165V118.7C300.165 119.98 300.949 120.892 302.357 120.892C303.381 120.892 304.069 120.412 304.549 119.644L305.573 120.652C304.949 121.66 303.733 122.332 302.181 122.332ZM302.181 114.988C300.981 114.988 300.165 115.884 300.165 117.164V117.276H304.037V117.116C304.037 115.836 303.333 114.988 302.181 114.988Z" fill="#171717"/>
<rect x="336" y="0.800293" width="102" height="155" rx="9.09589" fill="#F5F5F5"/>
<rect x="352.373" y="17.1729" width="36.468" height="36.468" rx="10.9404" fill="#FB923C"/>
<path fill-rule="evenodd" clip-rule="evenodd" d="M362.993 39.3976C362.379 38.1696 362.011 36.8189 362.011 35.4068C362.011 30.6792 365.879 26.8112 370.607 26.8112V28.0391C366.554 28.0391 363.239 31.3546 363.239 35.4068C363.239 36.6347 363.546 37.7399 364.098 38.7836L362.993 39.3976ZM377.974 35.4067C377.974 39.4589 374.659 42.7744 370.607 42.7744C368.826 42.7744 367.168 42.1604 365.879 41.0552L369.379 37.5556L368.519 36.6346L364.528 40.6255C364.283 40.871 364.283 41.2394 364.528 41.485C366.125 43.0813 368.335 44.0023 370.607 44.0023C375.334 44.0023 379.202 40.1343 379.202 35.4067H377.974ZM371.589 40.871C371.651 40.9324 371.773 40.9324 371.835 40.9324C371.958 40.9324 372.08 40.871 372.203 40.8096L374.659 38.9677C374.843 38.8449 374.905 38.6607 374.905 38.4766V35.0383L376.747 33.1964C377.545 32.3982 377.974 31.3545 377.974 30.1879V29.267C377.974 28.5916 377.422 28.039 376.747 28.039H375.826C374.72 28.039 373.615 28.4688 372.817 29.267L370.975 31.1089H367.537C367.353 31.1089 367.169 31.1703 366.984 31.2931L365.142 33.749C365.02 33.9332 365.02 34.1787 365.081 34.3629C365.142 34.5471 365.327 34.7313 365.572 34.7313L368.642 35.1611L368.826 33.9332L366.8 33.6876L367.844 32.3368H371.221C371.405 32.3368 371.528 32.2754 371.651 32.1526L373.615 30.1879C374.168 29.574 374.966 29.267 375.764 29.267H376.685V30.2493C376.685 31.0475 376.317 31.8457 375.764 32.3982L373.799 34.3629C373.677 34.4857 373.615 34.6085 373.615 34.7927V38.1082L372.265 39.1519L372.019 37.1258L370.791 37.31L371.221 40.3799C371.221 40.6255 371.405 40.8096 371.589 40.871Z" fill="#171717"/>
<path d="M355.557 122.14H353.749V110.972H358.549C360.597 110.972 361.797 112.3 361.797 114.332C361.797 116.364 360.597 117.692 358.549 117.692H355.557V122.14ZM355.557 112.556V116.108H358.437C359.349 116.108 359.893 115.612 359.893 114.716V113.948C359.893 113.052 359.349 112.556 358.437 112.556H355.557ZM363.652 122.14V110.3H365.396V115.196H365.476C365.828 114.3 366.532 113.628 367.812 113.628C369.508 113.628 370.516 114.812 370.516 116.86V122.14H368.772V117.068C368.772 115.788 368.276 115.132 367.204 115.132C366.292 115.132 365.396 115.596 365.396 116.556V122.14H363.652ZM376.248 118.716L377.912 113.82H379.592L376.088 123.788C375.688 124.908 375.192 125.34 373.896 125.34H372.888V123.916H374.296L374.776 122.508L371.752 113.82H373.496L375.16 118.716L375.64 120.524H375.72L376.248 118.716ZM383.573 122.332C382.005 122.332 380.981 121.74 380.197 120.764L381.317 119.74C381.925 120.476 382.677 120.924 383.669 120.924C384.677 120.924 385.189 120.508 385.189 119.804C385.189 119.276 384.869 118.876 384.005 118.764L383.237 118.668C381.541 118.46 380.501 117.724 380.501 116.188C380.501 114.572 381.765 113.628 383.589 113.628C385.093 113.628 385.941 114.124 386.693 114.956L385.621 115.98C385.189 115.468 384.485 115.036 383.589 115.036C382.629 115.036 382.181 115.452 382.181 116.076C382.181 116.716 382.581 117.004 383.461 117.148L384.229 117.244C386.053 117.516 386.869 118.316 386.869 119.66C386.869 121.26 385.573 122.332 383.573 122.332ZM389.719 112.332C388.999 112.332 388.679 111.948 388.679 111.42V111.148C388.679 110.62 388.999 110.236 389.719 110.236C390.439 110.236 390.743 110.62 390.743 111.148V111.42C390.743 111.948 390.439 112.332 389.719 112.332ZM388.839 122.14V113.82H390.583V122.14H388.839ZM396.29 122.332C393.89 122.332 392.514 120.636 392.514 117.98C392.514 115.324 393.89 113.628 396.29 113.628C397.954 113.628 399.01 114.444 399.506 115.676L398.066 116.348C397.826 115.58 397.234 115.084 396.29 115.084C395.01 115.084 394.354 115.964 394.354 117.244V118.732C394.354 120.012 395.01 120.892 396.29 120.892C397.298 120.892 397.89 120.348 398.242 119.516L399.57 120.22C399.026 121.58 397.89 122.332 396.29 122.332ZM403.87 122.332C402.302 122.332 401.278 121.74 400.494 120.764L401.614 119.74C402.222 120.476 402.974 120.924 403.966 120.924C404.974 120.924 405.486 120.508 405.486 119.804C405.486 119.276 405.166 118.876 404.302 118.764L403.534 118.668C401.838 118.46 400.798 117.724 400.798 116.188C400.798 114.572 402.062 113.628 403.886 113.628C405.39 113.628 406.238 114.124 406.99 114.956L405.918 115.98C405.486 115.468 404.782 115.036 403.886 115.036C402.926 115.036 402.478 115.452 402.478 116.076C402.478 116.716 402.878 117.004 403.758 117.148L404.526 117.244C406.35 117.516 407.166 118.316 407.166 119.66C407.166 121.26 405.87 122.332 403.87 122.332Z" fill="#171717"/>
<rect x="447" y="1" width="102" height="154" rx="9.09589" fill="#F5F5F5"/>
<rect x="463.373" y="17" width="36.468" height="36.468" rx="10.9404" fill="#F87171"/>
<path fill-rule="evenodd" clip-rule="evenodd" d="M483.279 30.6502C483.886 30.4566 484.517 30.3463 485.154 30.3222C487.974 30.3222 488.974 32.9681 488.974 35.234C488.974 39.8449 486.476 42.6011 484.062 42.6017C483.535 42.5738 483.018 42.451 482.534 42.2394C482.24 42.1076 481.927 42.0226 481.606 41.9877C481.287 42.0227 480.974 42.1076 480.681 42.2394C480.197 42.451 479.679 42.5737 479.152 42.6017H479.151C476.736 42.6011 474.239 39.8449 474.239 35.234C474.239 32.2042 475.658 30.3222 477.942 30.3222C478.604 30.3497 479.259 30.4601 479.893 30.6508C480.237 30.7393 480.568 30.8208 480.886 30.8748C480.74 30.3634 480.433 29.9132 480.009 29.592C479.585 29.2708 479.068 29.0961 478.537 29.0943V27.8663C479.401 27.8677 480.237 28.1726 480.899 28.7277C481.561 29.2828 482.008 30.0529 482.16 30.9035C482.538 30.8431 482.912 30.7585 483.279 30.6502ZM482.963 41.0889C483.311 41.2452 483.682 41.3415 484.062 41.3737C485.872 41.373 487.746 39.0766 487.746 35.234C487.746 34.6187 487.621 31.5502 485.154 31.5502C484.626 31.5768 484.104 31.6726 483.601 31.835C483.005 32.0237 482.387 32.1343 481.762 32.1641H481.46C480.825 32.1312 480.197 32.0225 479.588 31.8403C479.053 31.6773 478.5 31.5798 477.942 31.5502C475.708 31.5502 475.467 34.1266 475.467 35.234C475.467 39.076 477.339 41.3722 479.151 41.3737C479.531 41.3414 479.903 41.2451 480.252 41.0889C480.68 40.8994 481.139 40.7879 481.606 40.7598C482.075 40.7878 482.534 40.8993 482.963 41.0889ZM482.22 29.7083H482.834C483.16 29.708 483.472 29.5785 483.702 29.3483C483.932 29.1181 484.062 28.806 484.062 28.4804V27.8664H483.448C483.123 27.8668 482.811 27.9962 482.58 28.2264C482.35 28.4567 482.221 28.7688 482.22 29.0944V29.7083Z" fill="#171717"/>
<path d="M464.749 121.649V110.481H469.693C471.533 110.481 472.669 111.617 472.669 113.361C472.669 115.041 471.645 115.649 470.733 115.729V115.825C471.645 115.857 473.069 116.561 473.069 118.433C473.069 120.241 471.837 121.649 470.189 121.649H464.749ZM466.557 116.705V120.097H469.661C470.589 120.097 471.165 119.585 471.165 118.673V118.129C471.165 117.217 470.589 116.705 469.661 116.705H466.557ZM466.557 112.033V115.201H469.357C470.237 115.201 470.765 114.721 470.765 113.873V113.361C470.765 112.513 470.237 112.033 469.357 112.033H466.557ZM476.047 111.841C475.327 111.841 475.007 111.457 475.007 110.929V110.657C475.007 110.129 475.327 109.745 476.047 109.745C476.767 109.745 477.071 110.129 477.071 110.657V110.929C477.071 111.457 476.767 111.841 476.047 111.841ZM475.167 121.649V113.329H476.911V121.649H475.167ZM482.666 121.841C480.346 121.841 478.842 120.145 478.842 117.489C478.842 114.833 480.346 113.137 482.666 113.137C484.986 113.137 486.49 114.833 486.49 117.489C486.49 120.145 484.986 121.841 482.666 121.841ZM482.666 120.401C483.85 120.401 484.65 119.665 484.65 118.193V116.785C484.65 115.313 483.85 114.577 482.666 114.577C481.482 114.577 480.682 115.313 480.682 116.785V118.193C480.682 119.665 481.482 120.401 482.666 120.401ZM491.329 121.649H490.209C489.025 121.649 488.433 120.993 488.433 119.921V109.809H490.177V120.225H491.329V121.649ZM496.26 121.841C493.94 121.841 492.436 120.145 492.436 117.489C492.436 114.833 493.94 113.137 496.26 113.137C498.58 113.137 500.084 114.833 500.084 117.489C500.084 120.145 498.58 121.841 496.26 121.841ZM496.26 120.401C497.444 120.401 498.244 119.665 498.244 118.193V116.785C498.244 115.313 497.444 114.577 496.26 114.577C495.076 114.577 494.276 115.313 494.276 116.785V118.193C494.276 119.665 495.076 120.401 496.26 120.401ZM509.323 122.433C509.323 124.161 508.091 125.041 505.099 125.041C502.379 125.041 501.323 124.305 501.323 123.041C501.323 122.129 501.867 121.633 502.747 121.441V121.265C502.139 121.073 501.803 120.609 501.803 119.985C501.803 119.121 502.475 118.705 503.275 118.513V118.449C502.299 117.985 501.755 117.105 501.755 115.985C501.755 114.289 502.955 113.137 505.067 113.137C505.627 113.137 506.139 113.217 506.571 113.393V113.169C506.571 112.433 506.923 111.985 507.659 111.985H508.939V113.393H507.243V113.729C507.995 114.225 508.411 115.025 508.411 115.985C508.411 117.665 507.195 118.801 505.083 118.801C504.683 118.801 504.299 118.753 503.995 118.673C503.579 118.817 503.195 119.089 503.195 119.505C503.195 119.953 503.627 120.129 504.363 120.129H506.411C508.459 120.129 509.323 120.993 509.323 122.433ZM507.691 122.625C507.691 122.049 507.307 121.681 506.171 121.681H503.355C502.971 121.905 502.779 122.241 502.779 122.641C502.779 123.313 503.275 123.777 504.571 123.777H505.659C507.019 123.777 507.691 123.393 507.691 122.625ZM505.083 117.537C506.107 117.537 506.699 117.073 506.699 116.129V115.809C506.699 114.865 506.107 114.401 505.083 114.401C504.059 114.401 503.467 114.865 503.467 115.809V116.129C503.467 117.073 504.059 117.537 505.083 117.537ZM514.139 118.225L515.803 113.329H517.483L513.979 123.297C513.579 124.417 513.083 124.849 511.787 124.849H510.779V123.425H512.187L512.667 122.017L509.643 113.329H511.387L513.051 118.225L513.531 120.033H513.611L514.139 118.225Z" fill="#171717"/>
<rect x="0.5" y="164.8" width="103" height="155" rx="9.09589" fill="#F5F5F5"/>
<rect x="16.8726" y="181.173" width="36.468" height="36.468" rx="10.9404" fill="#FB923C"/>
<path d="M37.5625 199.407C37.5625 200.221 37.8859 201.002 38.4616 201.577C39.0373 202.153 39.8182 202.477 40.6324 202.477C41.4465 202.477 42.2274 202.153 42.8031 201.577C43.3788 201.002 43.7022 200.221 43.7022 199.407C43.7022 199.311 43.6801 199.217 43.6374 199.132L41.1825 194.223C41.1741 194.205 41.1648 194.189 41.1546 194.172C41.0996 194.083 41.0228 194.01 40.9314 193.959C40.8399 193.908 40.737 193.881 40.6324 193.881H36.8391C36.7464 193.624 36.5981 193.391 36.4047 193.198C36.2113 193.006 35.9777 192.858 35.7206 192.766V190.811H34.4926V192.766C34.2355 192.858 34.0019 193.006 33.8085 193.198C33.6151 193.391 33.4668 193.624 33.3741 193.881H29.5808C29.4668 193.881 29.355 193.913 29.258 193.973C29.161 194.033 29.0827 194.118 29.0317 194.22L26.5758 199.132C26.5331 199.217 26.511 199.311 26.511 199.407C26.511 200.221 26.8344 201.002 27.4101 201.577C27.9858 202.153 28.7667 202.477 29.5808 202.477C30.395 202.477 31.1759 202.153 31.7516 201.577C32.3273 201.002 32.6507 200.221 32.6507 199.407C32.6507 199.311 32.6286 199.217 32.5859 199.132L30.5744 195.109H33.3741C33.4668 195.366 33.6152 195.599 33.8085 195.792C34.0019 195.984 34.2355 196.132 34.4926 196.224V206.774H28.9669V208.002H41.2463V206.774H35.7206V196.224C35.9777 196.132 36.2113 195.984 36.4047 195.792C36.5981 195.599 36.7464 195.366 36.8391 195.109H39.6388L37.6273 199.132C37.5846 199.217 37.5625 199.311 37.5625 199.407ZM29.5808 201.249C29.2012 201.247 28.8313 201.129 28.5219 200.909C28.2124 200.689 27.9786 200.379 27.8524 200.021H31.3091C31.1829 200.379 30.9491 200.689 30.6397 200.909C30.3303 201.129 29.9604 201.247 29.5808 201.249ZM31.0434 198.793H28.1183L29.5808 195.868L31.0434 198.793ZM35.1066 195.109C34.9852 195.109 34.8665 195.073 34.7655 195.005C34.6645 194.938 34.5858 194.842 34.5394 194.73C34.4929 194.618 34.4807 194.494 34.5044 194.375C34.5281 194.256 34.5866 194.147 34.6725 194.061C34.7583 193.975 34.8677 193.917 34.9868 193.893C35.1059 193.869 35.2294 193.881 35.3416 193.928C35.4537 193.974 35.5496 194.053 35.6171 194.154C35.6846 194.255 35.7206 194.374 35.7206 194.495C35.7204 194.658 35.6557 194.814 35.5406 194.929C35.4255 195.044 35.2694 195.109 35.1066 195.109ZM40.6324 201.249C40.2528 201.247 39.8829 201.129 39.5734 200.909C39.2639 200.689 39.0301 200.379 38.9039 200.021H42.3606C42.2344 200.379 42.0006 200.689 41.6912 200.909C41.3818 201.129 41.0119 201.247 40.6324 201.249ZM40.6324 195.868L42.0949 198.793H39.1698L40.6324 195.868Z" fill="#171717"/>
<path d="M24.6006 286.077H18.2486V274.909H20.0566V284.477H24.6006V286.077ZM33.4113 286.077H32.4353C31.5233 286.077 31.0433 285.501 30.9313 284.685H30.8513C30.5313 285.725 29.6353 286.269 28.4193 286.269C26.7073 286.269 25.7313 285.293 25.7313 283.789C25.7313 282.141 26.9633 281.293 29.2833 281.293H30.7873V280.589C30.7873 279.581 30.2433 278.989 29.0753 278.989C28.0993 278.989 27.5073 279.469 27.0913 280.125L26.0513 279.181C26.5953 278.253 27.5713 277.565 29.1873 277.565C31.3313 277.565 32.5313 278.621 32.5313 280.477V284.653H33.4113V286.077ZM28.9153 284.941C29.9873 284.941 30.7873 284.429 30.7873 283.613V282.413H29.3153C28.0993 282.413 27.5073 282.813 27.5073 283.533V283.821C27.5073 284.557 28.0513 284.941 28.9153 284.941ZM36.4981 286.077L34.2261 277.757H35.9221L36.7701 281.245L37.5221 284.397H37.5701L38.4341 281.245L39.4421 277.757H41.0101L42.0341 281.245L42.9141 284.397H42.9621L43.6981 281.245L44.5621 277.757H46.1781L43.9381 286.077H41.9701L40.8821 282.285L40.2101 279.949H40.1781L39.5221 282.285L38.4181 286.077H36.4981Z" fill="#171717"/>
<rect x="112.5" y="164.8" width="102" height="155" rx="9.09589" fill="#F5F5F5"/>
<rect x="128.873" y="181.173" width="36.468" height="36.468" rx="10.9404" fill="#F87171"/>
<path fill-rule="evenodd" clip-rule="evenodd" d="M155.702 191.679L154.049 193.333L154.72 194.004C154.836 194.115 154.929 194.248 154.992 194.396C155.056 194.544 155.088 194.703 155.088 194.863C155.088 195.024 155.056 195.183 154.992 195.331C154.929 195.479 154.836 195.612 154.72 195.723L143.668 206.774H139.739V202.845L150.79 191.794C150.901 191.677 151.034 191.584 151.182 191.521C151.33 191.458 151.489 191.425 151.65 191.425C151.811 191.425 151.97 191.458 152.117 191.521C152.265 191.584 152.399 191.677 152.509 191.794L153.181 192.465L154.834 190.811L155.702 191.679ZM140.967 205.546H143.177L153.86 194.863L151.65 192.653L140.967 203.336V205.546ZM142.809 196.697L147.466 192.039L148.334 192.907L143.677 197.565L142.809 196.697Z" fill="#171717"/>
<path d="M133.929 286.14H131.897L129.257 274.972H131.097L132.233 280.348L133.017 284.06H133.065L133.961 280.348L135.289 274.972H137.305L138.617 280.348L139.497 284.044H139.545L140.361 280.348L141.529 274.972H143.305L140.553 286.14H138.521L137.097 280.364L136.265 276.972H136.233L135.385 280.364L133.929 286.14ZM146.521 286.14H144.777V277.82H146.521V279.42H146.601C146.841 278.572 147.561 277.82 148.889 277.82H149.353V279.5H148.665C147.289 279.5 146.521 279.964 146.521 280.828V286.14ZM151.782 276.332C151.062 276.332 150.742 275.948 150.742 275.42V275.148C150.742 274.62 151.062 274.236 151.782 274.236C152.502 274.236 152.806 274.62 152.806 275.148V275.42C152.806 275.948 152.502 276.332 151.782 276.332ZM150.902 286.14V277.82H152.646V286.14H150.902ZM158.96 286.14H157.44C156.24 286.14 155.6 285.468 155.6 284.332V279.244H154.304V277.82H155.008C155.584 277.82 155.776 277.58 155.776 277.004V275.548H157.344V277.82H159.088V279.244H157.344V284.716H158.96V286.14ZM161.86 276.332C161.14 276.332 160.82 275.948 160.82 275.42V275.148C160.82 274.62 161.14 274.236 161.86 274.236C162.58 274.236 162.884 274.62 162.884 275.148V275.42C162.884 275.948 162.58 276.332 161.86 276.332ZM160.98 286.14V277.82H162.724V286.14H160.98ZM166.958 286.14H165.214V277.82H166.958V279.196H167.038C167.39 278.3 168.094 277.628 169.374 277.628C171.07 277.628 172.078 278.812 172.078 280.86V286.14H170.334V281.084C170.334 279.788 169.838 279.132 168.766 279.132C167.854 279.132 166.958 279.596 166.958 280.572V286.14ZM181.792 286.924C181.792 288.652 180.56 289.532 177.568 289.532C174.848 289.532 173.792 288.796 173.792 287.532C173.792 286.62 174.336 286.124 175.216 285.932V285.756C174.608 285.564 174.272 285.1 174.272 284.476C174.272 283.612 174.944 283.196 175.744 283.004V282.94C174.768 282.476 174.224 281.596 174.224 280.476C174.224 278.78 175.424 277.628 177.536 277.628C178.096 277.628 178.608 277.708 179.04 277.884V277.66C179.04 276.924 179.392 276.476 180.128 276.476H181.408V277.884H179.712V278.22C180.464 278.716 180.88 279.516 180.88 280.476C180.88 282.156 179.664 283.292 177.552 283.292C177.152 283.292 176.768 283.244 176.464 283.164C176.048 283.308 175.664 283.58 175.664 283.996C175.664 284.444 176.096 284.62 176.832 284.62H178.88C180.928 284.62 181.792 285.484 181.792 286.924ZM180.16 287.116C180.16 286.54 179.776 286.172 178.64 286.172H175.824C175.44 286.396 175.248 286.732 175.248 287.132C175.248 287.804 175.744 288.268 177.04 288.268H178.128C179.488 288.268 180.16 287.884 180.16 287.116ZM177.552 282.028C178.576 282.028 179.168 281.564 179.168 280.62V280.3C179.168 279.356 178.576 278.892 177.552 278.892C176.528 278.892 175.936 279.356 175.936 280.3V280.62C175.936 281.564 176.528 282.028 177.552 282.028Z" fill="#171717"/>
<rect x="223.5" y="164.8" width="103" height="154" rx="9.09589" fill="#F5F5F5"/>
<rect x="239.873" y="181.173" width="36.468" height="36.468" rx="10.9404" fill="#4ADE80"/>
<path fill-rule="evenodd" clip-rule="evenodd" d="M259.335 192.653V193.881H257.37C256.965 195.617 256.139 197.226 254.963 198.566C255.851 199.472 256.923 200.177 258.107 200.635L257.671 201.764C256.342 201.231 255.138 200.428 254.134 199.407C253.112 200.414 251.908 201.218 250.585 201.777L250.125 200.635C251.302 200.137 252.376 199.425 253.293 198.535C252.463 197.523 251.838 196.359 251.451 195.109H252.74C253.053 196.041 253.529 196.91 254.146 197.675C255.093 196.585 255.765 195.284 256.105 193.881H249.511V192.653H253.809V190.811H255.037V192.653H259.335ZM266.702 207.388H265.382L264.4 204.932H260.194L259.212 207.388H257.892L261.576 198.179H263.018L266.702 207.388ZM262.294 199.677L260.685 203.704H263.909L262.294 199.677Z" fill="#171717"/>
<path d="M247.601 285.428H241.249V274.26H243.057V283.828H247.601V285.428ZM256.411 285.428H255.435C254.523 285.428 254.043 284.852 253.931 284.036H253.851C253.531 285.076 252.635 285.62 251.419 285.62C249.707 285.62 248.731 284.644 248.731 283.14C248.731 281.492 249.963 280.644 252.283 280.644H253.787V279.94C253.787 278.932 253.243 278.34 252.075 278.34C251.099 278.34 250.507 278.82 250.091 279.476L249.051 278.532C249.595 277.604 250.571 276.916 252.187 276.916C254.331 276.916 255.531 277.972 255.531 279.828V284.004H256.411V285.428ZM251.915 284.292C252.987 284.292 253.787 283.78 253.787 282.964V281.764H252.315C251.099 281.764 250.507 282.164 250.507 282.884V283.172C250.507 283.908 251.051 284.292 251.915 284.292ZM259.865 285.428H258.121V277.108H259.865V278.484H259.945C260.297 277.588 261.001 276.916 262.281 276.916C263.977 276.916 264.985 278.1 264.985 280.148V285.428H263.241V280.372C263.241 279.076 262.745 278.42 261.673 278.42C260.761 278.42 259.865 278.884 259.865 279.86V285.428ZM274.698 286.212C274.698 287.94 273.466 288.82 270.474 288.82C267.754 288.82 266.698 288.084 266.698 286.82C266.698 285.908 267.242 285.412 268.122 285.22V285.044C267.514 284.852 267.178 284.388 267.178 283.764C267.178 282.9 267.85 282.484 268.65 282.292V282.228C267.674 281.764 267.13 280.884 267.13 279.764C267.13 278.068 268.33 276.916 270.442 276.916C271.002 276.916 271.514 276.996 271.946 277.172V276.948C271.946 276.212 272.298 275.764 273.034 275.764H274.314V277.172H272.618V277.508C273.37 278.004 273.786 278.804 273.786 279.764C273.786 281.444 272.57 282.58 270.458 282.58C270.058 282.58 269.674 282.532 269.37 282.452C268.954 282.596 268.57 282.868 268.57 283.284C268.57 283.732 269.002 283.908 269.738 283.908H271.786C273.834 283.908 274.698 284.772 274.698 286.212ZM273.066 286.404C273.066 285.828 272.682 285.46 271.546 285.46H268.73C268.346 285.684 268.154 286.02 268.154 286.42C268.154 287.092 268.65 287.556 269.946 287.556H271.034C272.394 287.556 273.066 287.172 273.066 286.404ZM270.458 281.316C271.482 281.316 272.074 280.852 272.074 279.908V279.588C272.074 278.644 271.482 278.18 270.458 278.18C269.434 278.18 268.842 278.644 268.842 279.588V279.908C268.842 280.852 269.434 281.316 270.458 281.316ZM280.973 285.428V284.052H280.909C280.605 284.868 279.949 285.62 278.573 285.62C276.861 285.62 275.853 284.452 275.853 282.404V277.108H277.597V282.18C277.597 283.444 278.125 284.116 279.197 284.116C280.093 284.116 280.973 283.652 280.973 282.676V277.108H282.717V285.428H280.973ZM292.286 285.428H291.31C290.398 285.428 289.918 284.852 289.806 284.036H289.726C289.406 285.076 288.51 285.62 287.294 285.62C285.582 285.62 284.606 284.644 284.606 283.14C284.606 281.492 285.838 280.644 288.158 280.644H289.662V279.94C289.662 278.932 289.118 278.34 287.95 278.34C286.974 278.34 286.382 278.82 285.966 279.476L284.926 278.532C285.47 277.604 286.446 276.916 288.062 276.916C290.206 276.916 291.406 277.972 291.406 279.828V284.004H292.286V285.428ZM287.79 284.292C288.862 284.292 289.662 283.78 289.662 282.964V281.764H288.19C286.974 281.764 286.382 282.164 286.382 282.884V283.172C286.382 283.908 286.926 284.292 287.79 284.292ZM301.292 286.212C301.292 287.94 300.06 288.82 297.068 288.82C294.348 288.82 293.292 288.084 293.292 286.82C293.292 285.908 293.836 285.412 294.716 285.22V285.044C294.108 284.852 293.772 284.388 293.772 283.764C293.772 282.9 294.444 282.484 295.244 282.292V282.228C294.268 281.764 293.724 280.884 293.724 279.764C293.724 278.068 294.924 276.916 297.036 276.916C297.596 276.916 298.108 276.996 298.54 277.172V276.948C298.54 276.212 298.892 275.764 299.628 275.764H300.908V277.172H299.212V277.508C299.964 278.004 300.38 278.804 300.38 279.764C300.38 281.444 299.164 282.58 297.052 282.58C296.652 282.58 296.268 282.532 295.964 282.452C295.548 282.596 295.164 282.868 295.164 283.284C295.164 283.732 295.596 283.908 296.332 283.908H298.38C300.428 283.908 301.292 284.772 301.292 286.212ZM299.66 286.404C299.66 285.828 299.276 285.46 298.14 285.46H295.324C294.94 285.684 294.748 286.02 294.748 286.42C294.748 287.092 295.244 287.556 296.54 287.556H297.628C298.988 287.556 299.66 287.172 299.66 286.404ZM297.052 281.316C298.076 281.316 298.668 280.852 298.668 279.908V279.588C298.668 278.644 298.076 278.18 297.052 278.18C296.028 278.18 295.436 278.644 295.436 279.588V279.908C295.436 280.852 296.028 281.316 297.052 281.316ZM305.76 285.62C303.392 285.62 301.936 283.924 301.936 281.268C301.936 278.612 303.392 276.916 305.76 276.916C308.208 276.916 309.456 278.756 309.456 281.06V281.716H303.744V281.988C303.744 283.268 304.528 284.18 305.936 284.18C306.96 284.18 307.648 283.7 308.128 282.932L309.152 283.94C308.528 284.948 307.312 285.62 305.76 285.62ZM305.76 278.276C304.56 278.276 303.744 279.172 303.744 280.452V280.564H307.616V280.404C307.616 279.124 306.912 278.276 305.76 278.276Z" fill="#171717"/>
<rect x="335" y="165" width="102" height="155" rx="9.09589" fill="#F5F5F5"/>
<rect x="351.373" y="181.373" width="36.468" height="36.468" rx="10.9404" fill="#93C5FD"/>
<path d="M378.202 197.765C378.202 196.878 378.028 195.999 377.688 195.18C377.349 194.361 376.851 193.616 376.224 192.989C375.597 192.362 374.852 191.864 374.033 191.525C373.214 191.186 372.335 191.011 371.449 191.011H366.537C365.071 191.011 363.666 191.593 362.629 192.629C361.593 193.666 361.011 195.071 361.011 196.537V198.379C361.011 199.193 361.334 199.974 361.91 200.549C362.486 201.125 363.267 201.448 364.081 201.448H364.756C364.898 202.142 365.275 202.765 365.823 203.213C366.371 203.66 367.057 203.904 367.765 203.904H368.612L371.068 208.202L372.13 207.588L369.674 203.358C369.575 203.159 369.424 202.99 369.237 202.87C369.05 202.75 368.834 202.683 368.612 202.676H367.765C367.276 202.676 366.808 202.482 366.462 202.137C366.117 201.791 365.923 201.323 365.923 200.834C365.923 200.346 366.117 199.877 366.462 199.532C366.808 199.187 367.276 198.993 367.765 198.993H368.379V197.765H367.765C367.057 197.764 366.371 198.009 365.823 198.456C365.275 198.904 364.898 199.527 364.756 200.22H364.081C363.592 200.22 363.124 200.026 362.778 199.681C362.433 199.336 362.239 198.867 362.239 198.379V197.151H363.467C363.955 197.151 364.424 196.957 364.769 196.611C365.115 196.266 365.309 195.797 365.309 195.309V194.695H364.081V195.309C364.081 195.472 364.016 195.628 363.901 195.743C363.786 195.858 363.63 195.923 363.467 195.923H362.288C362.436 194.901 362.946 193.966 363.726 193.289C364.506 192.613 365.504 192.24 366.537 192.239H370.221V193.467C370.221 193.63 370.156 193.786 370.041 193.901C369.926 194.016 369.769 194.081 369.607 194.081H368.379V195.309H369.607C370.095 195.309 370.564 195.115 370.909 194.769C371.254 194.424 371.449 193.955 371.449 193.467V192.239C372.476 192.24 373.483 192.528 374.357 193.071C375.23 193.613 375.934 194.388 376.391 195.309H375.746C375.258 195.309 374.789 195.503 374.444 195.848C374.098 196.194 373.904 196.662 373.904 197.151V197.765H375.132V197.151C375.132 196.988 375.197 196.832 375.312 196.716C375.427 196.601 375.583 196.537 375.746 196.537H376.833C376.927 196.939 376.975 197.351 376.974 197.765V198.379C376.974 199.193 376.651 199.974 376.075 200.549C375.499 201.125 374.719 201.448 373.904 201.448H372.062V202.676H373.904C374.542 202.675 375.171 202.533 375.746 202.259V202.676C375.746 203.165 375.552 203.633 375.207 203.979C374.861 204.324 374.393 204.518 373.904 204.518H373.29V205.746H373.904C374.719 205.746 375.499 205.423 376.075 204.847C376.651 204.271 376.974 203.491 376.974 202.676V201.381C377.76 200.579 378.201 199.501 378.202 198.379V197.765Z" fill="#171717"/>
<path d="M359.613 286.34V281.476H354.557V286.34H352.749V275.172H354.557V279.876H359.613V275.172H361.421V286.34H359.613ZM367.306 286.532C364.938 286.532 363.482 284.836 363.482 282.18C363.482 279.524 364.938 277.828 367.306 277.828C369.754 277.828 371.002 279.668 371.002 281.972V282.628H365.29V282.9C365.29 284.18 366.074 285.092 367.482 285.092C368.506 285.092 369.194 284.612 369.674 283.844L370.698 284.852C370.074 285.86 368.858 286.532 367.306 286.532ZM367.306 279.188C366.106 279.188 365.29 280.084 365.29 281.364V281.476H369.162V281.316C369.162 280.036 368.458 279.188 367.306 279.188ZM380.005 286.34H379.029C378.117 286.34 377.637 285.764 377.525 284.948H377.445C377.125 285.988 376.229 286.532 375.013 286.532C373.301 286.532 372.325 285.556 372.325 284.052C372.325 282.404 373.557 281.556 375.877 281.556H377.381V280.852C377.381 279.844 376.837 279.252 375.669 279.252C374.693 279.252 374.101 279.732 373.685 280.388L372.645 279.444C373.189 278.516 374.165 277.828 375.781 277.828C377.925 277.828 379.125 278.884 379.125 280.74V284.916H380.005V286.34ZM375.509 285.204C376.581 285.204 377.381 284.692 377.381 283.876V282.676H375.909C374.693 282.676 374.101 283.076 374.101 283.796V284.084C374.101 284.82 374.645 285.204 375.509 285.204ZM384.61 286.34H383.49C382.306 286.34 381.714 285.684 381.714 284.612V274.5H383.458V284.916H384.61V286.34ZM390.023 286.34H388.503C387.303 286.34 386.663 285.668 386.663 284.532V279.444H385.367V278.02H386.071C386.647 278.02 386.839 277.78 386.839 277.204V275.748H388.407V278.02H390.151V279.444H388.407V284.916H390.023V286.34ZM392.042 286.34V274.5H393.786V279.396H393.866C394.218 278.5 394.922 277.828 396.202 277.828C397.898 277.828 398.906 279.012 398.906 281.06V286.34H397.162V281.268C397.162 279.988 396.666 279.332 395.594 279.332C394.682 279.332 393.786 279.796 393.786 280.756V286.34H392.042Z" fill="#171717"/>
<rect x="446.5" y="164.8" width="103" height="155" rx="9.09589" fill="#F5F5F5"/>
<rect x="462.873" y="181.173" width="36.468" height="36.468" rx="10.9404" fill="#FBBF24"/>
<path fill-rule="evenodd" clip-rule="evenodd" d="M484.176 190.811H484.79C485.279 190.792 485.767 190.874 486.222 191.053C486.678 191.231 487.091 191.502 487.437 191.848C487.783 192.194 488.054 192.608 488.232 193.063C488.411 193.519 488.493 194.006 488.474 194.495V200.635C488.474 200.96 488.345 201.273 488.114 201.503C487.884 201.733 487.572 201.863 487.246 201.863H485.404V208.002H484.176V190.811ZM485.404 200.635H487.246V194.495C487.246 194.268 487.172 192.438 485.404 192.094V200.635ZM479.878 196.337C479.878 196.988 479.62 197.613 479.159 198.073C478.699 198.534 478.074 198.793 477.423 198.793C476.771 198.793 476.147 198.534 475.686 198.073C475.225 197.613 474.967 196.988 474.967 196.337V190.811H473.739V196.337C473.74 197.207 474.048 198.048 474.61 198.713C475.172 199.377 475.951 199.821 476.809 199.965V208.002H478.037V199.965C478.894 199.821 479.673 199.377 480.235 198.713C480.797 198.048 481.106 197.207 481.106 196.337V190.811H479.878V196.337ZM478.037 190.811H476.809V196.951H478.037V190.811Z" fill="#171717"/>
<path d="M470.905 286.14L467.257 279.964L466.025 277.596H465.977V286.14H464.249V274.972H466.265L469.913 281.148L471.145 283.516H471.193V274.972H472.921V286.14H470.905ZM480.582 286.14V284.764H480.518C480.214 285.58 479.558 286.332 478.182 286.332C476.47 286.332 475.462 285.164 475.462 283.116V277.82H477.206V282.892C477.206 284.156 477.734 284.828 478.806 284.828C479.702 284.828 480.582 284.364 480.582 283.388V277.82H482.326V286.14H480.582ZM488.648 286.14H487.128C485.928 286.14 485.288 285.468 485.288 284.332V279.244H483.992V277.82H484.696C485.272 277.82 485.464 277.58 485.464 277.004V275.548H487.032V277.82H488.776V279.244H487.032V284.716H488.648V286.14ZM492.411 286.14H490.667V277.82H492.411V279.42H492.491C492.731 278.572 493.451 277.82 494.779 277.82H495.243V279.5H494.555C493.179 279.5 492.411 279.964 492.411 280.828V286.14ZM497.672 276.332C496.952 276.332 496.632 275.948 496.632 275.42V275.148C496.632 274.62 496.952 274.236 497.672 274.236C498.392 274.236 498.696 274.62 498.696 275.148V275.42C498.696 275.948 498.392 276.332 497.672 276.332ZM496.792 286.14V277.82H498.536V286.14H496.792ZM504.851 286.14H503.331C502.131 286.14 501.491 285.468 501.491 284.332V279.244H500.195V277.82H500.899C501.475 277.82 501.667 277.58 501.667 277.004V275.548H503.235V277.82H504.979V279.244H503.235V284.716H504.851V286.14ZM507.751 276.332C507.031 276.332 506.711 275.948 506.711 275.42V275.148C506.711 274.62 507.031 274.236 507.751 274.236C508.471 274.236 508.775 274.62 508.775 275.148V275.42C508.775 275.948 508.471 276.332 507.751 276.332ZM506.871 286.14V277.82H508.615V286.14H506.871ZM514.369 286.332C512.049 286.332 510.545 284.636 510.545 281.98C510.545 279.324 512.049 277.628 514.369 277.628C516.689 277.628 518.193 279.324 518.193 281.98C518.193 284.636 516.689 286.332 514.369 286.332ZM514.369 284.892C515.553 284.892 516.353 284.156 516.353 282.684V281.276C516.353 279.804 515.553 279.068 514.369 279.068C513.185 279.068 512.385 279.804 512.385 281.276V282.684C512.385 284.156 513.185 284.892 514.369 284.892ZM521.88 286.14H520.136V277.82H521.88V279.196H521.96C522.312 278.3 523.016 277.628 524.296 277.628C525.992 277.628 527 278.812 527 280.86V286.14H525.256V281.084C525.256 279.788 524.76 279.132 523.688 279.132C522.776 279.132 521.88 279.596 521.88 280.572V286.14Z" fill="#171717"/>
</svg>
