<svg viewBox="1 1.39 59 69.22" fill="none" xmlns="http://www.w3.org/2000/svg">
<path d="M18 24.9746L43.5 9.49991" stroke="#2876D4" stroke-linecap="round" stroke-dasharray="1 2"></path>
<path d="M8 18.4746L33 3.49991" stroke="#2876D4" stroke-linecap="round" stroke-dasharray="1 2"></path>
<path d="M33.8015 35.0415L10.7979 48.6733" stroke="#2876D4" stroke-linejoin="round"></path>
<path d="M35.0007 66L60 50.8033" stroke="#2876D4" stroke-linecap="round" stroke-dasharray="1 2"></path>
<path d="M1 22.6877V54.6372L27.1986 70.3989M1 22.6877L10.7978 28.8646M1 22.6877L6.7509 19.2798M27.1986 70.3989V58.2581M27.1986 70.3989L33.8014 66.565M27.1986 58.2581L10.7978 48.6733V28.8646M27.1986 58.2581L33.8014 54.6372M10.7978 28.8646L17 25.5" stroke="#2876D4" stroke-linejoin="round"></path>
<path d="M35.0007 54L60 39.0885L43.5993 29.0776" stroke="#2876D4" stroke-linecap="round" stroke-dasharray="1 2"></path>
<path d="M60 18.8538V54.8502L33.8015 70.6119M60 18.8538L30.3935 1.38809L3.55597 17.3628M60 18.8538L33.8015 35.0415M33.8015 70.6119V35.0415M33.8015 70.6119L30.3935 68.4819M33.8015 35.0415L3.55597 17.3628M3.55597 17.3628V20.7708" stroke="#2876D4" stroke-linejoin="round"></path>
<path d="M44 28.8881V9.38809" stroke="#2876D4" stroke-linecap="round" stroke-dasharray="1 2"></path>
</svg>