<svg width="135" height="24" viewBox="0 0 135 24" fill="none" xmlns="http://www.w3.org/2000/svg">
<g clip-path="url(#clip0)">
<path d="M108.445 1.79597V9.83253H119.483C119.483 9.86169 119.469 1.79254 119.483 1.79597C119.469 1.79254 124.881 1.79597 124.942 1.79597C124.942 1.79597 124.963 21.8702 124.942 21.8925H119.483V13.043C119.483 13.0756 108.445 13.043 108.445 13.043C108.456 13.0842 108.445 21.8977 108.445 21.8925H102.988C102.988 21.8925 103.018 1.79597 102.988 1.79597H108.445Z" fill="#121619"/>
<path d="M56.6034 1.7964V5.20928H48.2486V21.8929H42.7895V5.20928H34.4399C34.4399 5.20928 34.4452 1.80326 34.4399 1.7964C34.4452 1.80326 56.6034 1.7964 56.6034 1.7964Z" fill="#121619"/>
<path d="M77.8435 21.8923H71.7582C71.7634 21.8923 69.969 17.5722 69.969 17.5722H59.7299C59.7299 17.5722 57.9671 21.8975 57.9443 21.8923C57.9443 21.8975 51.8589 21.8923 51.8589 21.8923L61.4998 1.79576C61.4998 1.80434 68.1974 1.79576 68.1974 1.79576L77.8435 21.8923ZM64.8389 5.21036L61.0441 14.3548H68.6565L64.8389 5.21036Z" fill="#121619"/>
<path d="M129.273 1.79602H134.737V21.8926H129.273V1.79602Z" fill="#121619"/>
<path d="M6.19776 1.79597C6.19776 1.79597 6.196 9.89256 6.19776 9.83253H17.2285C17.2285 9.86168 17.2144 1.79254 17.2285 1.79597C17.2144 1.79254 22.6418 1.79597 22.6911 1.79597C22.6911 1.79597 22.7175 21.8702 22.6911 21.8925H17.2285V13.043C17.2285 13.0756 6.19776 13.043 6.19776 13.043C6.19776 13.0842 6.196 21.8977 6.19776 21.8925H0.736938C0.736938 21.8925 0.75805 1.79597 0.736938 1.79597H6.19776Z" fill="#121619"/>
<path d="M27.0227 1.79602H32.4853V21.8926H27.0227V1.79602Z" fill="#121619"/>
<path d="M77.6481 16.33C77.1625 14.9717 76.9144 13.5482 76.9144 12.0407C76.9144 9.93125 77.2927 7.88695 78.3342 6.18222C79.4003 4.43634 81.0417 3.08319 83.0209 2.36803C84.9086 1.67517 86.9459 1.29615 89.0729 1.29615C91.5288 1.29615 93.8423 1.81923 95.9693 2.71103C97.9379 3.53424 99.421 5.26469 99.8678 7.35529C99.9576 7.76518 100.016 8.2008 100.054 8.63127H94.319C94.3067 8.08418 94.217 7.56281 94.0288 7.08261C93.5907 5.97299 92.6424 5.10348 91.469 4.76219C90.7107 4.52724 89.9015 4.41233 89.0729 4.41233C88.1281 4.41233 87.215 4.56668 86.3706 4.86338C84.9702 5.34015 83.8812 6.44462 83.3904 7.8132C82.9066 9.13033 82.6303 10.5572 82.6303 12.0407C82.6303 13.2721 82.8432 14.4589 83.1599 15.5736C83.5786 17.0366 84.7081 18.2113 86.1419 18.7481C87.055 19.0808 88.0437 19.2764 89.0729 19.2764C89.9525 19.2764 90.8005 19.1477 91.6009 18.8956C92.6688 18.5629 93.5309 17.798 93.9865 16.805C94.2821 16.1516 94.4404 15.4244 94.4404 14.6493H100.197C100.155 15.3078 100.068 15.9527 99.9153 16.5546C99.421 18.5492 97.9942 20.223 96.0977 20.9931C93.939 21.8729 91.5658 22.3857 89.0729 22.3857C87.1447 22.3857 85.2763 22.0941 83.5364 21.5556C80.8728 20.741 78.5717 18.8733 77.6481 16.33Z" fill="#121619"/>
</g>
<defs>
<clipPath id="clip0">
<rect width="134" height="23" fill="white" transform="translate(0.736938 0.641602)"/>
</clipPath>
</defs>
</svg>
