<svg width="550" height="320" viewBox="0 0 550 320" fill="none" xmlns="http://www.w3.org/2000/svg">
<rect width="550" height="320" rx="16" fill="#F5F5F5"/>
<path d="M225.858 24L204 45.8579" stroke="#FBBF24" stroke-width="6" stroke-linejoin="bevel"/>
<path d="M189 104L222.858 137.858" stroke="#FBBF24" stroke-width="6" stroke-linejoin="bevel"/>
<path d="M323 200L356.858 233.858" stroke="#FB923C" stroke-width="6" stroke-linejoin="bevel"/>
<path d="M338.999 104L305.142 137.858" stroke="#FBBF24" stroke-width="6" stroke-linejoin="bevel"/>
<path d="M172.998 104L139.141 137.858" stroke="#93C5FD" stroke-width="6" stroke-linejoin="bevel"/>
<path d="M348.999 30L323.142 55.8579" stroke="#FB923C" stroke-width="6" stroke-linejoin="bevel"/>
<path d="M188 24H26.0013L26.0013 247.882M524 24H399.501H337.251H225.5L204.029 45.8579M524 296V56M26 248L26.0013 296H476.5" stroke="#171717" stroke-linejoin="bevel"/>
<path d="M499 296H487H481M499 296H511H517M499 296V313" stroke="#FB923C" stroke-width="3" stroke-linejoin="bevel"/>
<path d="M524 40V33.3333V30V40ZM524 40V46.6667V50V40ZM524 40H544.5" stroke="#FB923C" stroke-width="3" stroke-linejoin="bevel"/>
<rect x="413" y="35" width="8" height="8" fill="#FB923C" stroke="#FB923C" stroke-linejoin="bevel"/>
<rect x="184" y="44.6569" width="8" height="8" transform="rotate(-45 184 44.6569)" fill="#FBBF24" stroke="#FBBF24" stroke-linejoin="bevel"/>
<rect x="217.071" y="99" width="8" height="8" transform="rotate(15 217.071 99)" fill="#FBBF24" stroke="#FBBF24" stroke-linejoin="bevel"/>
<rect x="270.101" y="149.172" width="8" height="8" transform="rotate(-15 270.101 149.172)" fill="#FBBF24" stroke="#FBBF24" stroke-linejoin="bevel"/>
<rect x="310.102" y="101.172" width="8" height="8" transform="rotate(-15 310.102 101.172)" fill="#FBBF24" stroke="#FBBF24" stroke-linejoin="bevel"/>
<path d="M130.516 123.657L136.173 118L141.83 123.657L136.173 129.314L130.516 123.657Z" fill="#93C5FD" stroke="#93C5FD" stroke-linejoin="bevel"/>
<rect x="200.172" y="195.101" width="8" height="8" transform="rotate(-45 200.172 195.101)" fill="#93C5FD" stroke="#93C5FD" stroke-linejoin="bevel"/>
<rect x="360.172" y="219.101" width="8" height="8" transform="rotate(-45 360.172 219.101)" fill="#FB923C" stroke="#FB923C" stroke-linejoin="bevel"/>
<rect x="91" y="279.101" width="8" height="8" fill="#93C5FD" stroke="#93C5FD" stroke-linejoin="bevel"/>
<rect x="107" y="279.101" width="8" height="8" fill="#93C5FD" stroke="#93C5FD" stroke-linejoin="bevel"/>
<rect x="55" y="279.101" width="8" height="8" fill="#93C5FD" stroke="#93C5FD" stroke-linejoin="bevel"/>
<rect x="123" y="279.101" width="8" height="8" fill="#93C5FD" stroke="#93C5FD" stroke-linejoin="bevel"/>
<rect x="71" y="279.101" width="8" height="8" fill="#93C5FD" stroke="#93C5FD" stroke-linejoin="bevel"/>
<rect x="139" y="279.101" width="8" height="8" fill="#93C5FD" stroke="#93C5FD" stroke-linejoin="bevel"/>
<rect x="155" y="279.101" width="8" height="8" fill="#93C5FD" stroke="#93C5FD" stroke-linejoin="bevel"/>
<rect x="171" y="279.101" width="8" height="8" fill="#93C5FD" stroke="#93C5FD" stroke-linejoin="bevel"/>
<rect x="187" y="279.101" width="8" height="8" fill="#93C5FD" stroke="#93C5FD" stroke-linejoin="bevel"/>
<rect x="203" y="279.101" width="8" height="8" fill="#93C5FD" stroke="#93C5FD" stroke-linejoin="bevel"/>
<rect x="219" y="279.101" width="8" height="8" fill="#93C5FD" stroke="#93C5FD" stroke-linejoin="bevel"/>
<rect x="315" y="279.101" width="8" height="8" fill="#93C5FD" stroke="#93C5FD" stroke-linejoin="bevel"/>
<rect x="331" y="279.101" width="8" height="8" fill="#93C5FD" stroke="#93C5FD" stroke-linejoin="bevel"/>
<rect x="347" y="279.101" width="8" height="8" fill="#93C5FD" stroke="#93C5FD" stroke-linejoin="bevel"/>
<rect x="363" y="279.101" width="8" height="8" fill="#93C5FD" stroke="#93C5FD" stroke-linejoin="bevel"/>
<rect x="379" y="279.101" width="8" height="8" fill="#93C5FD" stroke="#93C5FD" stroke-linejoin="bevel"/>
<rect x="99" y="263.101" width="8" height="8" fill="#93C5FD" stroke="#93C5FD" stroke-linejoin="bevel"/>
<rect x="89.3438" y="253.101" width="8" height="8" transform="rotate(-45 89.3438 253.101)" fill="#93C5FD" stroke="#93C5FD" stroke-linejoin="bevel"/>
<rect x="40" y="267.657" width="8" height="8" transform="rotate(-45 40 267.657)" fill="#93C5FD" stroke="#93C5FD" stroke-linejoin="bevel"/>
<rect x="115" y="263.101" width="8" height="8" fill="#93C5FD" stroke="#93C5FD" stroke-linejoin="bevel"/>
<rect x="63" y="263.101" width="8" height="8" fill="#93C5FD" stroke="#93C5FD" stroke-linejoin="bevel"/>
<rect x="131" y="263.101" width="8" height="8" fill="#93C5FD" stroke="#93C5FD" stroke-linejoin="bevel"/>
<rect x="79" y="263.101" width="8" height="8" fill="#93C5FD" stroke="#93C5FD" stroke-linejoin="bevel"/>
<rect x="147" y="263.101" width="8" height="8" fill="#93C5FD" stroke="#93C5FD" stroke-linejoin="bevel"/>
<rect x="162.101" y="265.273" width="8" height="8" transform="rotate(-15 162.101 265.273)" fill="#93C5FD" stroke="#93C5FD" stroke-linejoin="bevel"/>
<rect x="179" y="263.101" width="8" height="8" fill="#93C5FD" stroke="#93C5FD" stroke-linejoin="bevel"/>
<rect x="195" y="263.101" width="8" height="8" fill="#93C5FD" stroke="#93C5FD" stroke-linejoin="bevel"/>
<rect x="209.343" y="269.101" width="8" height="8" transform="rotate(-45 209.343 269.101)" fill="#93C5FD" stroke="#93C5FD" stroke-linejoin="bevel"/>
<rect x="233.344" y="281.101" width="8" height="8" transform="rotate(-45 233.344 281.101)" fill="#93C5FD" stroke="#93C5FD" stroke-linejoin="bevel"/>
<rect x="321.536" y="267.637" width="8" height="8" transform="rotate(-30 321.536 267.637)" fill="#93C5FD" stroke="#93C5FD" stroke-linejoin="bevel"/>
<rect x="339" y="263.101" width="8" height="8" fill="#93C5FD" stroke="#93C5FD" stroke-linejoin="bevel"/>
<rect x="355" y="263.101" width="8" height="8" fill="#93C5FD" stroke="#93C5FD" stroke-linejoin="bevel"/>
<rect x="495" y="184" width="8" height="8" fill="#FB923C" stroke="#FB923C" stroke-linejoin="bevel"/>
<path d="M153.815 85H148.655V76.624H149.999V83.872H153.815V85ZM162.486 85H161.058L160.422 82.768H157.758L157.122 85H155.754L158.202 76.624H160.038L162.486 85ZM160.17 81.652L159.138 77.98H159.042L158.01 81.652H160.17ZM164.665 85V76.624H167.557C169.069 76.624 169.957 77.476 169.957 78.82C169.957 79.792 169.441 80.356 168.625 80.596V80.656C169.597 80.884 170.245 81.484 170.245 82.636C170.245 84.004 169.297 85 167.881 85H164.665ZM165.985 83.968H167.473C168.361 83.968 168.865 83.608 168.865 82.804V82.372C168.865 81.556 168.361 81.208 167.473 81.208H165.985V83.968ZM165.985 80.224H167.281C168.121 80.224 168.577 79.912 168.577 79.156V78.724C168.577 77.968 168.121 77.656 167.281 77.656H165.985V80.224ZM178.101 85H172.857V76.624H178.101V77.752H174.201V80.188H177.957V81.316H174.201V83.872H178.101V85ZM186.436 85H181.276V76.624H182.62V83.872H186.436V85ZM194.375 85H189.095V83.98H191.063V77.644H189.095V76.624H194.375V77.644H192.407V83.98H194.375V85ZM200.899 85L198.439 78.556H198.331V85H197.155V76.624H198.883L201.343 83.068H201.451V76.624H202.627V85H200.899ZM209.606 85V83.848H209.522C209.246 84.52 208.742 85.144 207.638 85.144C205.898 85.144 205.01 83.584 205.01 80.872C205.01 78.028 206.006 76.48 208.082 76.48C209.726 76.48 210.482 77.428 210.83 78.556L209.618 78.964C209.366 78.232 209.03 77.596 208.094 77.596C206.93 77.596 206.438 78.568 206.438 80.104V81.436C206.438 82.972 206.87 84.04 208.094 84.04C209.066 84.04 209.606 83.392 209.606 82.48V81.724H207.986V80.716H210.83V85H209.606Z" fill="#171717"/>
<path d="M337.354 81.616V85H336.022V76.624H339.154C340.738 76.624 341.614 77.584 341.614 79.144C341.614 80.416 340.966 81.304 339.802 81.496L341.734 85H340.246L338.47 81.616H337.354ZM337.354 80.536H338.962C339.802 80.536 340.21 80.164 340.21 79.396V78.88C340.21 78.112 339.802 77.74 338.962 77.74H337.354V80.536ZM349.445 85H344.201V76.624H349.445V77.752H345.545V80.188H349.301V81.316H345.545V83.872H349.445V85ZM354.025 85H352.225L351.625 76.624H352.801L353.101 81.496L353.233 83.644H353.329L354.277 78.652H355.609L356.557 83.644H356.653L356.785 81.496L357.097 76.624H358.225L357.625 85H355.825L354.973 80.152H354.877L354.025 85ZM363.08 85.144C360.956 85.144 360.008 83.548 360.008 80.812C360.008 78.076 360.956 76.48 363.08 76.48C365.204 76.48 366.152 78.076 366.152 80.812C366.152 83.548 365.204 85.144 363.08 85.144ZM363.08 84.028C364.28 84.028 364.724 83.056 364.724 81.508V80.104C364.724 78.568 364.28 77.596 363.08 77.596C361.88 77.596 361.436 78.568 361.436 80.104V81.52C361.436 83.056 361.88 84.028 363.08 84.028ZM369.975 81.616V85H368.643V76.624H371.775C373.359 76.624 374.235 77.584 374.235 79.144C374.235 80.416 373.587 81.304 372.423 81.496L374.355 85H372.867L371.091 81.616H369.975ZM369.975 80.536H371.583C372.423 80.536 372.831 80.164 372.831 79.396V78.88C372.831 78.112 372.423 77.74 371.583 77.74H369.975V80.536ZM381.323 85L379.079 81.148L378.071 82.408V85H376.727V76.624H378.071V80.632H378.131L379.151 79.24L381.203 76.624H382.751L379.991 80.152L382.859 85H381.323Z" fill="#171717"/>
<path d="M253.354 177.616V181H252.022V172.624H255.154C256.738 172.624 257.614 173.584 257.614 175.144C257.614 176.416 256.966 177.304 255.802 177.496L257.734 181H256.246L254.47 177.616H253.354ZM253.354 176.536H254.962C255.802 176.536 256.21 176.164 256.21 175.396V174.88C256.21 174.112 255.802 173.74 254.962 173.74H253.354V176.536ZM265.445 181H260.201V172.624H265.445V173.752H261.545V176.188H265.301V177.316H261.545V179.872H265.445V181ZM271.861 181H269.989L267.625 172.624H269.077L270.181 176.848L270.913 179.692H270.985L271.717 176.848L272.833 172.624H274.225L271.861 181ZM281.72 181H276.44V179.98H278.408V173.644H276.44V172.624H281.72V173.644H279.752V179.98H281.72V181ZM289.911 181H284.667V172.624H289.911V173.752H286.011V176.188H289.767V177.316H286.011V179.872H289.911V181ZM294.491 181H292.691L292.091 172.624H293.267L293.567 177.496L293.699 179.644H293.795L294.743 174.652H296.075L297.023 179.644H297.119L297.251 177.496L297.563 172.624H298.691L298.091 181H296.291L295.439 176.152H295.343L294.491 181Z" fill="#171717"/>
<path d="M499 287.5V200.5" stroke="#171717" stroke-linejoin="bevel" stroke-dasharray="4 12"/>
<path d="M516.5 39H429.5" stroke="#171717" stroke-linejoin="bevel" stroke-dasharray="4 12"/>
<path d="M157 50L163 56H99V104H134M201 50L195 56H323L349 30M371 56H443V104H339L305.142 137.858M232 104H275H299M222.857 137.858L189 104H173L139.142 137.858" stroke="#171717" stroke-linejoin="bevel"/>
<path d="M119.286 52H109.571V56H129V52H119.286ZM119.286 52V48H73M61 60V68M61 92V100" stroke="#171717" stroke-linejoin="bevel"/>
<path d="M275 204H283V200H275H267V204H275ZM275 204L265.5 213.5M271 224H279" stroke="#171717" stroke-linejoin="bevel"/>
<path d="M401 108H409V104H401H393V108H401ZM401 108V116M381 128H389M413 128H421" stroke="#171717" stroke-linejoin="bevel"/>
<path d="M371 248L419 296M371 248H179L185 242M371 248L365 242M87 204L131 248" stroke="#171717" stroke-linejoin="bevel"/>
<path d="M226.999 200L193.142 233.858" stroke="#93C5FD" stroke-width="6" stroke-linejoin="bevel"/>
<circle cx="339" cy="104" r="2.5" fill="#171717" stroke="#171717"/>
<circle cx="323" cy="56" r="2.5" fill="#171717" stroke="#171717"/>
<circle cx="173" cy="104" r="2.5" fill="#171717" stroke="#171717"/>
<circle cx="227" cy="200" r="2.5" fill="#171717" stroke="#171717"/>
<circle cx="323" cy="200" r="2.5" fill="#171717" stroke="#171717"/>
<path d="M253 146L259 152H131V200H179M297 146L291 152H419V200H371M193.142 233.858L227 200H323L356.857 233.858" stroke="#171717" stroke-linejoin="bevel"/>
<path d="M275 56V104" stroke="#171717"/>
<circle cx="225.857" cy="24" r="2.5" fill="#171717" stroke="#171717"/>
<circle cx="189" cy="104" r="2.5" fill="#171717" stroke="#171717"/>
<path d="M260.153 277V268.624H262.649C264.773 268.624 265.805 270.088 265.805 272.812C265.805 275.536 264.773 277 262.649 277H260.153ZM261.485 275.896H262.565C263.789 275.896 264.389 275.032 264.389 273.508V272.116C264.389 270.592 263.789 269.728 262.565 269.728H261.485V275.896ZM270.925 277.144C268.801 277.144 267.853 275.548 267.853 272.812C267.853 270.076 268.801 268.48 270.925 268.48C273.049 268.48 273.997 270.076 273.997 272.812C273.997 275.548 273.049 277.144 270.925 277.144ZM270.925 276.028C272.125 276.028 272.569 275.056 272.569 273.508V272.104C272.569 270.568 272.125 269.596 270.925 269.596C269.725 269.596 269.281 270.568 269.281 272.104V273.52C269.281 275.056 269.725 276.028 270.925 276.028ZM280.088 277L277.628 270.556H277.52V277H276.344V268.624H278.072L280.532 275.068H280.64V268.624H281.816V277H280.088ZM289.911 277H284.667V268.624H289.911V269.752H286.011V272.188H289.767V273.316H286.011V275.872H289.911V277Z" fill="#171717"/>
<circle cx="61" cy="48" r="12" stroke="#171717" stroke-linejoin="bevel"/>
<path d="M66 56L65.5333 55.0666C65.2065 54.4129 64.5383 54 63.8075 54V54C62.6622 54 61.5761 53.4913 60.8429 52.6115L58.472 49.7664C57.5778 48.6933 57.4036 47.1927 58.0283 45.9434L58.1056 45.7889C58.6537 44.6925 59.7743 44 61 44V44C62.2257 44 63.3463 44.6925 63.8944 45.7889L64 46C64.6129 47.2257 64.4806 48.6925 63.6584 49.7889L63.5 50L62.75 51M56 56L56.4472 55.1056C56.786 54.428 57.4785 54 58.2361 54H59.5" stroke="#171717" stroke-linejoin="bevel"/>
<circle cx="61" cy="112" r="12" stroke="#171717" stroke-linejoin="bevel"/>
<path d="M66 120L65.5333 119.067C65.2065 118.413 64.5383 118 63.8075 118V118C62.6622 118 61.5761 117.491 60.8429 116.611L58.472 113.766C57.5778 112.693 57.4036 111.193 58.0283 109.943L58.1056 109.789C58.6537 108.693 59.7743 108 61 108V108C62.2257 108 63.3463 108.693 63.8944 109.789L64 110C64.6129 111.226 64.4806 112.693 63.6584 113.789L63.5 114L62.75 115M56 120L56.4472 119.106C56.786 118.428 57.4785 118 58.2361 118H59.5" stroke="#171717" stroke-linejoin="bevel"/>
<circle cx="61" cy="80" r="12" stroke="#171717" stroke-linejoin="bevel"/>
<path d="M66 88L65.5333 87.0666C65.2065 86.4129 64.5383 86 63.8075 86V86C62.6622 86 61.5761 85.4913 60.8429 84.6115L58.472 81.7664C57.5778 80.6933 57.4036 79.1927 58.0283 77.9434L58.1056 77.7889C58.6537 76.6925 59.7743 76 61 76V76C62.2257 76 63.3463 76.6925 63.8944 77.7889L64 78C64.6129 79.2257 64.4806 80.6925 63.6584 81.7889L63.5 82L62.75 83M56 88L56.4472 87.1056C56.786 86.428 57.4785 86 58.2361 86H59.5" stroke="#171717" stroke-linejoin="bevel"/>
<circle cx="259" cy="224" r="12" stroke="#171717" stroke-linejoin="bevel"/>
<path d="M264 232L263.533 231.067C263.206 230.413 262.538 230 261.807 230V230C260.662 230 259.576 229.491 258.843 228.611L256.472 225.766C255.578 224.693 255.404 223.193 256.028 221.943L256.106 221.789C256.654 220.693 257.774 220 259 220V220C260.226 220 261.346 220.693 261.894 221.789L262 222C262.613 223.226 262.481 224.693 261.658 225.789L261.5 226L260.75 227M254 232L254.447 231.106C254.786 230.428 255.479 230 256.236 230H257.5" stroke="#171717" stroke-linejoin="bevel"/>
<circle cx="291" cy="224" r="12" stroke="#171717" stroke-linejoin="bevel"/>
<path d="M296 232L295.533 231.067C295.206 230.413 294.538 230 293.807 230V230C292.662 230 291.576 229.491 290.843 228.611L288.472 225.766C287.578 224.693 287.404 223.193 288.028 221.943L288.106 221.789C288.654 220.693 289.774 220 291 220V220C292.226 220 293.346 220.693 293.894 221.789L294 222C294.613 223.226 294.481 224.693 293.658 225.789L293.5 226L292.75 227M286 232L286.447 231.106C286.786 230.428 287.479 230 288.236 230H289.5" stroke="#171717" stroke-linejoin="bevel"/>
<circle cx="369" cy="128" r="12" stroke="#171717" stroke-linejoin="bevel"/>
<path d="M374 136L373.533 135.067C373.206 134.413 372.538 134 371.807 134V134C370.662 134 369.576 133.491 368.843 132.611L366.472 129.766C365.578 128.693 365.404 127.193 366.028 125.943L366.106 125.789C366.654 124.693 367.774 124 369 124V124C370.226 124 371.346 124.693 371.894 125.789L372 126C372.613 127.226 372.481 128.693 371.658 129.789L371.5 130L370.75 131M364 136L364.447 135.106C364.786 134.428 365.479 134 366.236 134H367.5" stroke="#171717" stroke-linejoin="bevel"/>
<circle cx="401" cy="128" r="12" stroke="#171717" stroke-linejoin="bevel"/>
<path d="M406 136L405.533 135.067C405.206 134.413 404.538 134 403.807 134V134C402.662 134 401.576 133.491 400.843 132.611L398.472 129.766C397.578 128.693 397.404 127.193 398.028 125.943L398.106 125.789C398.654 124.693 399.774 124 401 124V124C402.226 124 403.346 124.693 403.894 125.789L404 126C404.613 127.226 404.481 128.693 403.658 129.789L403.5 130L402.75 131M396 136L396.447 135.106C396.786 134.428 397.479 134 398.236 134H399.5" stroke="#171717" stroke-linejoin="bevel"/>
<circle cx="433" cy="128" r="12" stroke="#171717" stroke-linejoin="bevel"/>
<path d="M438 136L437.533 135.067C437.206 134.413 436.538 134 435.807 134V134C434.662 134 433.576 133.491 432.843 132.611L430.472 129.766C429.578 128.693 429.404 127.193 430.028 125.943L430.106 125.789C430.654 124.693 431.774 124 433 124V124C434.226 124 435.346 124.693 435.894 125.789L436 126C436.613 127.226 436.481 128.693 435.658 129.789L435.5 130L434.75 131M428 136L428.447 135.106C428.786 134.428 429.479 134 430.236 134H431.5" stroke="#171717" stroke-linejoin="bevel"/>
</svg>
