<svg width="850" height="479" viewBox="0 0 850 479" fill="none" xmlns="http://www.w3.org/2000/svg">
<g clip-path="url(#clip0_3372_94205)">
<rect width="850" height="479" rx="14.2857" fill="#F5F5F5"/>
<path d="M277.039 120.848V97.8605H224.496V45.3174H329.582V97.8605H303.31V71.5889H250.767" stroke="#171717" stroke-width="0.892857" stroke-linejoin="bevel"/>
<rect x="270.471" y="120.849" width="13.1358" height="3.28395" fill="#F5F5F5" stroke="#171717" stroke-width="0.820986" stroke-linejoin="bevel"/>
<circle cx="277.039" cy="71.5891" r="9.85184" fill="#F5F5F5" stroke="#171717" stroke-width="0.892857" stroke-linejoin="bevel"/>
<circle cx="277.039" cy="45.3177" r="9.85184" fill="#F5F5F5" stroke="#171717" stroke-width="0.892857" stroke-linejoin="bevel"/>
<circle cx="303.31" cy="71.5891" r="9.85184" fill="#F5F5F5" stroke="#171717" stroke-width="0.892857" stroke-linejoin="bevel"/>
<circle cx="303.31" cy="45.3177" r="9.85184" fill="#F5F5F5" stroke="#171717" stroke-width="0.892857" stroke-linejoin="bevel"/>
<circle cx="329.582" cy="71.5891" r="9.85184" fill="#F5F5F5" stroke="#171717" stroke-width="0.892857" stroke-linejoin="bevel"/>
<circle cx="329.582" cy="45.3177" r="9.85184" fill="#F5F5F5" stroke="#171717" stroke-width="0.892857" stroke-linejoin="bevel"/>
<circle cx="329.582" cy="97.8606" r="9.85184" fill="#F5F5F5" stroke="#171717" stroke-width="0.892857" stroke-linejoin="bevel"/>
<circle cx="303.31" cy="97.8606" r="9.85184" fill="#F5F5F5" stroke="#171717" stroke-width="0.892857" stroke-linejoin="bevel"/>
<circle cx="277.039" cy="97.8606" r="9.85184" fill="#F5F5F5" stroke="#171717" stroke-width="0.892857" stroke-linejoin="bevel"/>
<circle cx="250.767" cy="71.5891" r="9.85184" fill="#F5F5F5" stroke="#171717" stroke-width="0.892857" stroke-linejoin="bevel"/>
<circle cx="250.767" cy="45.3177" r="9.85184" fill="#F5F5F5" stroke="#171717" stroke-width="0.892857" stroke-linejoin="bevel"/>
<circle cx="250.767" cy="97.8606" r="9.85184" fill="#F5F5F5" stroke="#171717" stroke-width="0.892857" stroke-linejoin="bevel"/>
<circle cx="224.496" cy="71.5891" r="9.85184" fill="#F5F5F5" stroke="#171717" stroke-width="0.892857" stroke-linejoin="bevel"/>
<circle cx="224.496" cy="45.3177" r="9.85184" fill="#F5F5F5" stroke="#171717" stroke-width="0.892857" stroke-linejoin="bevel"/>
<circle cx="224.496" cy="97.8606" r="9.85184" fill="#F5F5F5" stroke="#171717" stroke-width="0.892857" stroke-linejoin="bevel"/>
<path d="M228.601 78.1575L228.217 77.3912C227.949 76.8545 227.401 76.5155 226.801 76.5155V76.5155C225.86 76.5155 224.969 76.0979 224.367 75.3755L222.42 73.0398C221.686 72.1588 221.543 70.9269 222.056 69.9012L222.119 69.7743C222.569 68.8742 223.489 68.3057 224.496 68.3057V68.3057C225.502 68.3057 226.422 68.8742 226.872 69.7743L226.959 69.9476C227.462 70.9539 227.353 72.1582 226.678 73.0582L226.548 73.2316L225.932 74.0526M220.391 78.1575L220.758 77.4232C221.036 76.8669 221.605 76.5155 222.227 76.5155H223.264" stroke="#171717" stroke-width="0.892857" stroke-linejoin="bevel"/>
<path d="M228.601 51.885L228.217 51.1187C227.949 50.5821 227.401 50.2431 226.801 50.2431V50.2431C225.86 50.2431 224.969 49.8254 224.367 49.1031L222.42 46.7673C221.686 45.8864 221.543 44.6544 222.056 43.6287L222.119 43.5018C222.569 42.6018 223.489 42.0332 224.496 42.0332V42.0332C225.502 42.0332 226.422 42.6018 226.872 43.5018L226.959 43.6752C227.462 44.6815 227.353 45.8857 226.678 46.7858L226.548 46.9591L225.932 47.7801M220.391 51.885L220.758 51.1507C221.036 50.5945 221.605 50.2431 222.227 50.2431H223.264" stroke="#171717" stroke-width="0.892857" stroke-linejoin="bevel"/>
<path d="M228.6 104.428L228.217 103.662C227.949 103.125 227.4 102.786 226.8 102.786V102.786C225.86 102.786 224.969 102.368 224.367 101.646L222.42 99.3103C221.686 98.4293 221.543 97.1974 222.056 96.1717L222.119 96.0448C222.569 95.1447 223.489 94.5762 224.496 94.5762V94.5762C225.502 94.5762 226.422 95.1447 226.872 96.0448L226.959 96.2181C227.462 97.2245 227.353 98.4287 226.678 99.3287L226.548 99.5021L225.932 100.323M220.391 104.428L220.758 103.694C221.036 103.137 221.604 102.786 222.226 102.786H223.264" stroke="#171717" stroke-width="0.892857" stroke-linejoin="bevel"/>
<path d="M254.872 78.1575L254.489 77.3912C254.221 76.8545 253.672 76.5155 253.072 76.5155V76.5155C252.132 76.5155 251.24 76.0979 250.638 75.3755L248.692 73.0398C247.958 72.1588 247.815 70.9269 248.327 69.9012L248.391 69.7743C248.841 68.8742 249.761 68.3057 250.767 68.3057V68.3057C251.773 68.3057 252.693 68.8742 253.143 69.7743L253.23 69.9476C253.733 70.9539 253.625 72.1582 252.95 73.0582L252.82 73.2316L252.204 74.0526M246.662 78.1575L247.029 77.4232C247.308 76.8669 247.876 76.5155 248.498 76.5155H249.536" stroke="#171717" stroke-width="0.892857" stroke-linejoin="bevel"/>
<path d="M254.872 51.885L254.489 51.1187C254.221 50.5821 253.672 50.2431 253.072 50.2431V50.2431C252.132 50.2431 251.24 49.8254 250.638 49.1031L248.692 46.7673C247.958 45.8864 247.815 44.6544 248.327 43.6287L248.391 43.5018C248.841 42.6018 249.761 42.0332 250.767 42.0332V42.0332C251.773 42.0332 252.693 42.6018 253.143 43.5018L253.23 43.6752C253.733 44.6815 253.625 45.8857 252.95 46.7858L252.82 46.9591L252.204 47.7801M246.662 51.885L247.029 51.1507C247.308 50.5945 247.876 50.2431 248.498 50.2431H249.536" stroke="#171717" stroke-width="0.892857" stroke-linejoin="bevel"/>
<path d="M254.872 104.428L254.489 103.662C254.22 103.125 253.672 102.786 253.072 102.786V102.786C252.132 102.786 251.24 102.368 250.638 101.646L248.692 99.3103C247.957 98.4293 247.814 97.1974 248.327 96.1717L248.391 96.0448C248.841 95.1447 249.761 94.5762 250.767 94.5762V94.5762C251.773 94.5762 252.693 95.1447 253.143 96.0448L253.23 96.2181C253.733 97.2245 253.625 98.4287 252.95 99.3287L252.82 99.5021L252.204 100.323M246.662 104.428L247.029 103.694C247.307 103.137 247.876 102.786 248.498 102.786H249.536" stroke="#171717" stroke-width="0.892857" stroke-linejoin="bevel"/>
<path d="M281.144 78.1575L280.761 77.3912C280.492 76.8545 279.944 76.5155 279.344 76.5155V76.5155C278.403 76.5155 277.512 76.0979 276.91 75.3755L274.963 73.0398C274.229 72.1588 274.086 70.9269 274.599 69.9012L274.662 69.7743C275.113 68.8742 276.032 68.3057 277.039 68.3057V68.3057C278.045 68.3057 278.965 68.8742 279.415 69.7743L279.502 69.9476C280.005 70.9539 279.896 72.1582 279.221 73.0582L279.091 73.2316L278.475 74.0526M272.934 78.1575L273.301 77.4232C273.579 76.8669 274.148 76.5155 274.77 76.5155H275.807" stroke="#171717" stroke-width="0.892857" stroke-linejoin="bevel"/>
<path d="M281.144 51.885L280.761 51.1187C280.492 50.5821 279.944 50.2431 279.344 50.2431V50.2431C278.403 50.2431 277.512 49.8254 276.91 49.1031L274.963 46.7673C274.229 45.8864 274.086 44.6544 274.599 43.6287L274.662 43.5018C275.113 42.6018 276.032 42.0332 277.039 42.0332V42.0332C278.045 42.0332 278.965 42.6018 279.415 43.5018L279.502 43.6752C280.005 44.6815 279.896 45.8857 279.221 46.7858L279.091 46.9591L278.475 47.7801M272.934 51.885L273.301 51.1507C273.579 50.5945 274.148 50.2431 274.77 50.2431H275.807" stroke="#171717" stroke-width="0.892857" stroke-linejoin="bevel"/>
<path d="M307.415 78.1575L307.032 77.3912C306.764 76.8545 306.215 76.5155 305.615 76.5155V76.5155C304.675 76.5155 303.783 76.0979 303.181 75.3755L301.235 73.0398C300.501 72.1588 300.358 70.9269 300.871 69.9012L300.934 69.7743C301.384 68.8742 302.304 68.3057 303.31 68.3057V68.3057C304.317 68.3057 305.237 68.8742 305.687 69.7743L305.773 69.9476C306.276 70.9539 306.168 72.1582 305.493 73.0582L305.363 73.2316L304.747 74.0526M299.205 78.1575L299.573 77.4232C299.851 76.8669 300.419 76.5155 301.041 76.5155H302.079" stroke="#171717" stroke-width="0.892857" stroke-linejoin="bevel"/>
<path d="M307.415 51.885L307.032 51.1187C306.764 50.5821 306.215 50.2431 305.615 50.2431V50.2431C304.675 50.2431 303.783 49.8254 303.181 49.1031L301.235 46.7673C300.501 45.8864 300.358 44.6544 300.871 43.6287L300.934 43.5018C301.384 42.6018 302.304 42.0332 303.31 42.0332V42.0332C304.317 42.0332 305.237 42.6018 305.687 43.5018L305.773 43.6752C306.276 44.6815 306.168 45.8857 305.493 46.7858L305.363 46.9591L304.747 47.7801M299.205 51.885L299.573 51.1507C299.851 50.5945 300.419 50.2431 301.041 50.2431H302.079" stroke="#171717" stroke-width="0.892857" stroke-linejoin="bevel"/>
<path d="M333.687 78.1575L333.304 77.3912C333.035 76.8545 332.487 76.5155 331.887 76.5155V76.5155C330.946 76.5155 330.055 76.0979 329.453 75.3755L327.506 73.0398C326.772 72.1588 326.629 70.9269 327.142 69.9012L327.206 69.7743C327.656 68.8742 328.576 68.3057 329.582 68.3057V68.3057C330.588 68.3057 331.508 68.8742 331.958 69.7743L332.045 69.9476C332.548 70.9539 332.439 72.1582 331.764 73.0582L331.634 73.2316L331.019 74.0526M325.477 78.1575L325.844 77.4232C326.122 76.8669 326.691 76.5155 327.313 76.5155H328.35" stroke="#171717" stroke-width="0.892857" stroke-linejoin="bevel"/>
<path d="M333.687 51.885L333.304 51.1187C333.035 50.5821 332.487 50.2431 331.887 50.2431V50.2431C330.946 50.2431 330.055 49.8254 329.453 49.1031L327.506 46.7673C326.772 45.8864 326.629 44.6544 327.142 43.6287L327.206 43.5018C327.656 42.6018 328.576 42.0332 329.582 42.0332V42.0332C330.588 42.0332 331.508 42.6018 331.958 43.5018L332.045 43.6752C332.548 44.6815 332.439 45.8857 331.764 46.7858L331.634 46.9591L331.019 47.7801M325.477 51.885L325.844 51.1507C326.122 50.5945 326.691 50.2431 327.313 50.2431H328.35" stroke="#171717" stroke-width="0.892857" stroke-linejoin="bevel"/>
<path d="M333.687 104.428L333.304 103.662C333.035 103.125 332.487 102.786 331.887 102.786V102.786C330.946 102.786 330.055 102.368 329.453 101.646L327.506 99.3103C326.772 98.4293 326.629 97.1974 327.142 96.1717L327.205 96.0448C327.655 95.1447 328.575 94.5762 329.582 94.5762V94.5762C330.588 94.5762 331.508 95.1447 331.958 96.0448L332.045 96.2181C332.548 97.2245 332.439 98.4287 331.764 99.3287L331.634 99.5021L331.018 100.323M325.477 104.428L325.844 103.694C326.122 103.137 326.691 102.786 327.313 102.786H328.35" stroke="#171717" stroke-width="0.892857" stroke-linejoin="bevel"/>
<path d="M307.415 104.428L307.032 103.662C306.764 103.125 306.215 102.786 305.615 102.786V102.786C304.675 102.786 303.783 102.368 303.181 101.646L301.235 99.3103C300.501 98.4293 300.358 97.1974 300.871 96.1717L300.934 96.0448C301.384 95.1447 302.304 94.5762 303.31 94.5762V94.5762C304.317 94.5762 305.237 95.1447 305.687 96.0448L305.773 96.2181C306.276 97.2245 306.168 98.4287 305.493 99.3287L305.363 99.5021L304.747 100.323M299.205 104.428L299.572 103.694C299.851 103.137 300.419 102.786 301.041 102.786H302.079" stroke="#171717" stroke-width="0.892857" stroke-linejoin="bevel"/>
<path d="M281.144 104.428L280.761 103.662C280.492 103.125 279.944 102.786 279.344 102.786V102.786C278.403 102.786 277.512 102.368 276.91 101.646L274.963 99.3103C274.229 98.4293 274.086 97.1974 274.599 96.1717L274.662 96.0448C275.113 95.1447 276.032 94.5762 277.039 94.5762V94.5762C278.045 94.5762 278.965 95.1447 279.415 96.0448L279.502 96.2181C280.005 97.2245 279.896 98.4287 279.221 99.3287L279.091 99.5021L278.475 100.323M272.934 104.428L273.301 103.694C273.579 103.137 274.148 102.786 274.77 102.786H275.807" stroke="#171717" stroke-width="0.892857" stroke-linejoin="bevel"/>
<rect x="407.062" y="35.4658" width="39.4073" height="13.1358" fill="#93C5FD" stroke="#93C5FD" stroke-width="0.820986" stroke-linejoin="bevel"/>
<rect x="433.333" y="35.4658" width="13.1358" height="13.1358" fill="#93C5FD" stroke="#93C5FD" stroke-width="0.892857" stroke-linejoin="bevel"/>
<rect x="407.062" y="88.0088" width="144.494" height="13.1358" fill="#93C5FD" stroke="#93C5FD" stroke-width="0.820986" stroke-linejoin="bevel"/>
<rect x="459.605" y="88.0088" width="13.1358" height="13.1358" fill="#93C5FD" stroke="#93C5FD" stroke-width="0.892857" stroke-linejoin="bevel"/>
<rect x="512.147" y="88.0088" width="13.1358" height="13.1358" fill="#93C5FD" stroke="#93C5FD" stroke-width="0.892857" stroke-linejoin="bevel"/>
<rect x="433.333" y="88.0088" width="13.1358" height="13.1358" fill="#93C5FD" stroke="#93C5FD" stroke-width="0.892857" stroke-linejoin="bevel"/>
<rect x="485.876" y="88.0088" width="13.1358" height="13.1358" fill="#93C5FD" stroke="#93C5FD" stroke-width="0.892857" stroke-linejoin="bevel"/>
<rect x="538.42" y="88.0088" width="13.1358" height="13.1358" fill="#93C5FD" stroke="#93C5FD" stroke-width="0.892857" stroke-linejoin="bevel"/>
<rect x="407.062" y="61.7373" width="91.9505" height="13.1358" fill="#93C5FD" stroke="#93C5FD" stroke-width="0.820986" stroke-linejoin="bevel"/>
<rect x="459.605" y="61.7373" width="13.1358" height="13.1358" fill="#93C5FD" stroke="#93C5FD" stroke-width="0.892857" stroke-linejoin="bevel"/>
<rect x="433.333" y="61.7373" width="13.1358" height="13.1358" fill="#93C5FD" stroke="#93C5FD" stroke-width="0.892857" stroke-linejoin="bevel"/>
<rect x="485.876" y="61.7373" width="13.1358" height="13.1358" fill="#93C5FD" stroke="#93C5FD" stroke-width="0.892857" stroke-linejoin="bevel"/>
<rect x="408.703" y="37.1074" width="9.85184" height="9.85184" stroke="#171717" stroke-width="0.892857" stroke-linejoin="bevel"/>
<rect x="408.703" y="63.3789" width="9.85184" height="9.85184" stroke="#171717" stroke-width="0.892857" stroke-linejoin="bevel"/>
<rect x="408.703" y="89.6504" width="9.85184" height="9.85184" stroke="#171717" stroke-width="0.892857" stroke-linejoin="bevel"/>
<rect x="434.975" y="89.6504" width="9.85184" height="9.85184" stroke="#171717" stroke-width="0.892857" stroke-linejoin="bevel"/>
<rect x="461.247" y="89.6504" width="9.85184" height="9.85184" stroke="#171717" stroke-width="0.892857" stroke-linejoin="bevel"/>
<rect x="487.518" y="89.6504" width="9.85184" height="9.85184" stroke="#171717" stroke-width="0.892857" stroke-linejoin="bevel"/>
<rect x="513.789" y="89.6504" width="9.85184" height="9.85184" stroke="#171717" stroke-width="0.892857" stroke-linejoin="bevel"/>
<rect x="540.061" y="89.6504" width="9.85184" height="9.85184" stroke="#171717" stroke-width="0.892857" stroke-linejoin="bevel"/>
<rect x="487.518" y="63.3789" width="9.85184" height="9.85184" stroke="#171717" stroke-width="0.892857" stroke-linejoin="bevel"/>
<rect x="461.247" y="63.3789" width="9.85184" height="9.85184" stroke="#171717" stroke-width="0.892857" stroke-linejoin="bevel"/>
<rect x="434.975" y="63.3789" width="9.85184" height="9.85184" stroke="#171717" stroke-width="0.892857" stroke-linejoin="bevel"/>
<rect x="461.247" y="37.1074" width="9.85184" height="9.85184" stroke="#171717" stroke-width="0.892857" stroke-linejoin="bevel"/>
<rect x="434.975" y="37.1074" width="9.85184" height="9.85184" stroke="#171717" stroke-width="0.892857" stroke-linejoin="bevel"/>
<rect x="513.789" y="37.1074" width="9.85184" height="9.85184" stroke="#171717" stroke-width="0.892857" stroke-linejoin="bevel"/>
<rect x="566.333" y="37.1074" width="9.85184" height="9.85184" stroke="#171717" stroke-width="0.892857" stroke-linejoin="bevel"/>
<rect x="618.876" y="37.1074" width="9.85184" height="9.85184" stroke="#171717" stroke-width="0.892857" stroke-linejoin="bevel"/>
<rect x="487.518" y="37.1074" width="9.85184" height="9.85184" stroke="#171717" stroke-width="0.892857" stroke-linejoin="bevel"/>
<rect x="540.061" y="37.1074" width="9.85184" height="9.85184" stroke="#171717" stroke-width="0.892857" stroke-linejoin="bevel"/>
<rect x="592.604" y="37.1074" width="9.85184" height="9.85184" stroke="#171717" stroke-width="0.892857" stroke-linejoin="bevel"/>
<rect x="645.147" y="37.1074" width="9.85184" height="9.85184" stroke="#171717" stroke-width="0.892857" stroke-linejoin="bevel"/>
<rect x="618.876" y="89.6504" width="9.85184" height="9.85184" stroke="#171717" stroke-width="0.892857" stroke-linejoin="bevel"/>
<rect x="592.604" y="89.6504" width="9.85184" height="9.85184" stroke="#171717" stroke-width="0.892857" stroke-linejoin="bevel"/>
<rect x="566.333" y="89.6504" width="9.85184" height="9.85184" stroke="#171717" stroke-width="0.892857" stroke-linejoin="bevel"/>
<rect x="645.147" y="89.6504" width="9.85184" height="9.85184" stroke="#171717" stroke-width="0.892857" stroke-linejoin="bevel"/>
<rect x="513.789" y="63.3789" width="9.85184" height="9.85184" stroke="#171717" stroke-width="0.892857" stroke-linejoin="bevel"/>
<rect x="566.333" y="63.3789" width="9.85184" height="9.85184" stroke="#171717" stroke-width="0.892857" stroke-linejoin="bevel"/>
<rect x="540.061" y="63.3789" width="9.85184" height="9.85184" stroke="#171717" stroke-width="0.892857" stroke-linejoin="bevel"/>
<rect x="618.876" y="63.3789" width="9.85184" height="9.85184" stroke="#171717" stroke-width="0.892857" stroke-linejoin="bevel"/>
<rect x="592.604" y="63.3789" width="9.85184" height="9.85184" stroke="#171717" stroke-width="0.892857" stroke-linejoin="bevel"/>
<rect x="645.147" y="63.3789" width="9.85184" height="9.85184" stroke="#171717" stroke-width="0.892857" stroke-linejoin="bevel"/>
<g clip-path="url(#clip1_3372_94205)">
<rect x="190.322" y="124.132" width="512.295" height="183.901" stroke="#171717" stroke-linejoin="bevel"/>
<path d="M387.358 224.292L405.42 242.354L387.358 260.415L369.297 242.354L387.358 224.292Z" fill="#FBBF24" stroke="#FBBF24" stroke-width="0.820986" stroke-linejoin="bevel"/>
<circle cx="663.21" cy="216.082" r="18.0617" fill="#93C5FD" stroke="#93C5FD" stroke-width="0.820986" stroke-linejoin="bevel"/>
<rect x="283.914" y="230.859" width="62.395" height="22.9876" rx="11.4938" fill="#FB923C" stroke="#FB923C" stroke-width="0.820986" stroke-linejoin="round"/>
<path d="M211.667 201.304H233.834L248.612 216.081L233.834 230.859H211.667V201.304Z" fill="#FBBF24" stroke="#FBBF24" stroke-width="0.820986" stroke-linejoin="bevel"/>
<path d="M454.679 216.082C454.679 197.038 470.117 181.601 489.161 181.601C508.204 181.601 523.642 197.038 523.642 216.082H454.679Z" fill="#4ADE80" stroke="#4ADE80" stroke-width="0.820986" stroke-linejoin="bevel"/>
<rect x="559.765" y="178.316" width="62.395" height="22.9876" rx="11.4938" fill="#FB923C" stroke="#FB923C" stroke-width="0.820986" stroke-linejoin="round"/>
<path d="M213.309 202.946H233.013L246.149 216.082L233.013 229.218H213.309V202.946Z" stroke="#171717" stroke-linejoin="bevel"/>
<path d="M387.358 225.934L403.778 242.353L387.358 258.773L370.939 242.353L387.358 225.934Z" stroke="#171717" stroke-linejoin="bevel"/>
<path d="M387.358 173.391L403.778 189.81L387.358 206.23L370.939 189.81L387.358 173.391Z" stroke="#171717" stroke-linejoin="bevel"/>
<rect x="285.556" y="179.959" width="59.111" height="19.7037" rx="9.85184" stroke="#171717" stroke-linejoin="bevel"/>
<rect x="561.407" y="232.502" width="59.111" height="19.7037" rx="9.85184" stroke="#171717" stroke-linejoin="bevel"/>
<rect x="285.556" y="232.502" width="59.111" height="19.7037" rx="9.85184" stroke="#171717" stroke-linejoin="round"/>
<rect x="561.407" y="179.959" width="59.111" height="19.7037" rx="9.85184" stroke="#171717" stroke-linejoin="bevel"/>
<path d="M246.149 216.082H259.284M259.284 216.082V242.354H285.556M259.284 216.082V189.811H285.556" stroke="#171717" stroke-linejoin="bevel"/>
<path d="M522 216.082H548.272M548.272 216.082V242.354H561.407M548.272 216.082V189.811H561.407" stroke="#171717" stroke-linejoin="bevel"/>
<path d="M456.321 216.082H430.05M430.05 216.082V242.354H403.778M430.05 216.082V189.811H403.778" stroke="#171717" stroke-linejoin="bevel"/>
<path d="M646.79 216.082H633.654M633.654 216.082V242.354H620.518M633.654 216.082V189.811H620.518" stroke="#171717" stroke-linejoin="bevel"/>
<path d="M370.939 242.354H344.667M344.667 189.811H370.939" stroke="#171717" stroke-linejoin="bevel"/>
<circle cx="489.161" cy="216.082" r="32.8395" stroke="#171717" stroke-linejoin="bevel"/>
<circle cx="663.21" cy="216.082" r="16.4197" stroke="#171717" stroke-linejoin="bevel"/>
<rect x="190.322" y="328.798" width="105.086" height="90.8888" stroke="#171717" stroke-linejoin="bevel"/>
<path d="M229.788 353.749L241.282 353.755L242.924 357.033H256.06V376.737H229.788V353.749Z" stroke="#171717" stroke-width="0.892857" stroke-linejoin="bevel"/>
<path d="M215.78 394.983H214.569V387.505H217.784C219.155 387.505 219.959 388.394 219.959 389.755C219.959 391.116 219.155 392.005 217.784 392.005H215.78V394.983ZM215.78 388.566V390.944H217.709C218.319 390.944 218.684 390.612 218.684 390.012V389.498C218.684 388.898 218.319 388.566 217.709 388.566H215.78ZM222.926 391.962V394.983H221.715V387.505H224.94C226.28 387.505 227.105 388.373 227.105 389.755C227.105 390.816 226.601 391.555 225.647 391.833L227.265 394.983H225.915L224.415 391.962H222.926ZM222.926 390.944H224.855C225.465 390.944 225.83 390.612 225.83 390.012V389.498C225.83 388.898 225.465 388.566 224.855 388.566H222.926V390.944ZM231.953 395.112C230.003 395.112 228.728 393.762 228.728 391.244C228.728 388.726 230.003 387.376 231.953 387.376C233.903 387.376 235.178 388.726 235.178 391.244C235.178 393.762 233.903 395.112 231.953 395.112ZM231.953 394.03C233.11 394.03 233.881 393.194 233.881 391.833V390.655C233.881 389.294 233.11 388.458 231.953 388.458C230.796 388.458 230.024 389.294 230.024 390.655V391.833C230.024 393.194 230.796 394.03 231.953 394.03ZM237.122 387.505H240.775V392.948C240.775 394.255 239.886 395.112 238.504 395.112C237.207 395.112 236.457 394.351 236.254 393.237L237.368 392.991C237.497 393.623 237.85 394.03 238.504 394.03C239.147 394.03 239.565 393.633 239.565 392.819V388.512H237.122V387.505ZM247.796 394.983H243.007V387.505H247.796V388.576H244.217V390.655H247.464V391.726H244.217V393.912H247.796V394.983ZM252.593 395.112C250.643 395.112 249.454 393.751 249.454 391.244C249.454 388.737 250.643 387.376 252.593 387.376C253.89 387.376 254.758 387.955 255.261 389.069L254.243 389.626C253.986 388.919 253.461 388.458 252.593 388.458C251.447 388.458 250.74 389.294 250.74 390.676V391.812C250.74 393.194 251.447 394.03 252.593 394.03C253.483 394.03 254.051 393.516 254.318 392.787L255.293 393.376C254.79 394.458 253.89 395.112 252.593 395.112ZM258.57 394.983V388.576H256.341V387.505H262.009V388.576H259.78V394.983H258.57ZM271.711 394.983H266.6V393.976H268.7V388.383H268.614L266.878 390.237L266.139 389.573L268.046 387.505H269.889V393.976H271.711V394.983Z" fill="#171717"/>
<rect x="295.408" y="328.798" width="105.086" height="90.8888" stroke="#171717" stroke-linejoin="bevel"/>
<path d="M334.875 353.749L346.368 353.755L348.01 357.033H361.146V376.737H334.875V353.749Z" stroke="#171717" stroke-width="0.892857" stroke-linejoin="bevel"/>
<path d="M320.866 394.983H319.656V387.505H322.87C324.241 387.505 325.045 388.394 325.045 389.755C325.045 391.116 324.241 392.005 322.87 392.005H320.866V394.983ZM320.866 388.566V390.944H322.795C323.406 390.944 323.77 390.612 323.77 390.012V389.498C323.77 388.898 323.406 388.566 322.795 388.566H320.866ZM328.012 391.962V394.983H326.802V387.505H330.027C331.366 387.505 332.191 388.373 332.191 389.755C332.191 390.816 331.687 391.555 330.734 391.833L332.352 394.983H331.002L329.502 391.962H328.012ZM328.012 390.944H329.941C330.552 390.944 330.916 390.612 330.916 390.012V389.498C330.916 388.898 330.552 388.566 329.941 388.566H328.012V390.944ZM337.039 395.112C335.089 395.112 333.814 393.762 333.814 391.244C333.814 388.726 335.089 387.376 337.039 387.376C338.989 387.376 340.264 388.726 340.264 391.244C340.264 393.762 338.989 395.112 337.039 395.112ZM337.039 394.03C338.196 394.03 338.968 393.194 338.968 391.833V390.655C338.968 389.294 338.196 388.458 337.039 388.458C335.882 388.458 335.111 389.294 335.111 390.655V391.833C335.111 393.194 335.882 394.03 337.039 394.03ZM342.208 387.505H345.862V392.948C345.862 394.255 344.972 395.112 343.59 395.112C342.294 395.112 341.544 394.351 341.34 393.237L342.455 392.991C342.583 393.623 342.937 394.03 343.59 394.03C344.233 394.03 344.651 393.633 344.651 392.819V388.512H342.208V387.505ZM352.882 394.983H348.093V387.505H352.882V388.576H349.304V390.655H352.55V391.726H349.304V393.912H352.882V394.983ZM357.68 395.112C355.73 395.112 354.541 393.751 354.541 391.244C354.541 388.737 355.73 387.376 357.68 387.376C358.976 387.376 359.844 387.955 360.348 389.069L359.33 389.626C359.073 388.919 358.548 388.458 357.68 388.458C356.533 388.458 355.826 389.294 355.826 390.676V391.812C355.826 393.194 356.533 394.03 357.68 394.03C358.569 394.03 359.137 393.516 359.405 392.787L360.38 393.376C359.876 394.458 358.976 395.112 357.68 395.112ZM363.656 394.983V388.576H361.428V387.505H367.095V388.576H364.867V394.983H363.656ZM376.54 393.955V394.983H371.461V393.826L373.851 391.694C374.601 391.019 375.029 390.419 375.029 389.733V389.594C375.029 388.876 374.558 388.426 373.818 388.426C372.993 388.426 372.597 388.951 372.415 389.605L371.354 389.198C371.665 388.255 372.415 387.376 373.915 387.376C375.436 387.376 376.315 388.298 376.315 389.594C376.315 390.805 375.511 391.598 374.526 392.444L372.768 393.955H376.54Z" fill="#171717"/>
<rect x="400.494" y="328.798" width="105.086" height="90.8888" stroke="#171717" stroke-linejoin="bevel"/>
<path d="M439.961 353.749L451.454 353.755L453.096 357.033H466.232V376.737H439.961V353.749Z" stroke="#171717" stroke-width="0.892857" stroke-linejoin="bevel"/>
<path d="M425.952 394.983H424.742V387.505H427.956C429.327 387.505 430.131 388.394 430.131 389.755C430.131 391.116 429.327 392.005 427.956 392.005H425.952V394.983ZM425.952 388.566V390.944H427.881C428.492 390.944 428.856 390.612 428.856 390.012V389.498C428.856 388.898 428.492 388.566 427.881 388.566H425.952ZM433.098 391.962V394.983H431.888V387.505H435.113C436.452 387.505 437.277 388.373 437.277 389.755C437.277 390.816 436.773 391.555 435.82 391.833L437.438 394.983H436.088L434.588 391.962H433.098ZM433.098 390.944H435.027C435.638 390.944 436.002 390.612 436.002 390.012V389.498C436.002 388.898 435.638 388.566 435.027 388.566H433.098V390.944ZM442.125 395.112C440.175 395.112 438.9 393.762 438.9 391.244C438.9 388.726 440.175 387.376 442.125 387.376C444.075 387.376 445.35 388.726 445.35 391.244C445.35 393.762 444.075 395.112 442.125 395.112ZM442.125 394.03C443.282 394.03 444.054 393.194 444.054 391.833V390.655C444.054 389.294 443.282 388.458 442.125 388.458C440.968 388.458 440.197 389.294 440.197 390.655V391.833C440.197 393.194 440.968 394.03 442.125 394.03ZM447.294 387.505H450.948V392.948C450.948 394.255 450.058 395.112 448.676 395.112C447.38 395.112 446.63 394.351 446.426 393.237L447.541 392.991C447.669 393.623 448.023 394.03 448.676 394.03C449.319 394.03 449.737 393.633 449.737 392.819V388.512H447.294V387.505ZM457.968 394.983H453.179V387.505H457.968V388.576H454.39V390.655H457.636V391.726H454.39V393.912H457.968V394.983ZM462.766 395.112C460.816 395.112 459.627 393.751 459.627 391.244C459.627 388.737 460.816 387.376 462.766 387.376C464.062 387.376 464.93 387.955 465.434 389.069L464.416 389.626C464.159 388.919 463.634 388.458 462.766 388.458C461.619 388.458 460.912 389.294 460.912 390.676V391.812C460.912 393.194 461.619 394.03 462.766 394.03C463.655 394.03 464.223 393.516 464.491 392.787L465.466 393.376C464.962 394.458 464.062 395.112 462.766 395.112ZM468.742 394.983V388.576H466.514V387.505H472.181V388.576H469.953V394.983H468.742ZM477.876 390.58H478.637C479.558 390.58 479.997 390.141 479.997 389.53V389.455C479.997 388.78 479.526 388.394 478.808 388.394C478.101 388.394 477.608 388.737 477.265 389.305L476.462 388.608C476.912 387.955 477.597 387.376 478.84 387.376C480.254 387.376 481.272 388.094 481.272 389.305C481.272 390.258 480.619 390.848 479.837 391.019V391.073C480.683 391.233 481.401 391.844 481.401 392.926C481.401 394.233 480.329 395.112 478.733 395.112C477.34 395.112 476.644 394.458 476.172 393.773L477.062 393.076C477.426 393.676 477.865 394.094 478.733 394.094C479.644 394.094 480.147 393.633 480.147 392.862V392.787C480.147 392.026 479.612 391.608 478.669 391.608H477.876V390.58Z" fill="#171717"/>
<rect x="236.297" y="308.033" width="13.1358" height="3.28395" fill="#F5F5F5" stroke="#171717" stroke-linejoin="bevel"/>
<rect x="341.383" y="308.033" width="13.1358" height="3.28395" fill="#F5F5F5" stroke="#171717" stroke-linejoin="bevel"/>
<rect x="505.58" y="367.144" width="3.28395" height="13.1358" fill="#F5F5F5" stroke="#171717" stroke-linejoin="bevel"/>
<path d="M242.865 311.316V329.378" stroke="#171717" stroke-width="0.892857" stroke-linejoin="bevel"/>
<path d="M347.951 311.316V329.378" stroke="#171717" stroke-linejoin="bevel"/>
<path d="M525.178 373.712H508.864" stroke="#171717" stroke-width="0.892857" stroke-linejoin="bevel"/>
</g>
<g filter="url(#filter0_dd_3372_94205)">
<rect x="523" y="291" width="195.395" height="151.061" rx="13.1358" fill="white"/>
</g>
<rect x="538.93" y="305.841" width="36.0701" height="36.0701" rx="10.821" fill="#FBBF24"/>
<path fill-rule="evenodd" clip-rule="evenodd" d="M550.893 328.737H563.038C563.36 328.736 563.669 328.608 563.896 328.38C564.124 328.153 564.252 327.844 564.253 327.522V319.02C564.252 318.698 564.124 318.389 563.897 318.162C563.669 317.934 563.36 317.806 563.038 317.806H550.893C550.571 317.806 550.262 317.934 550.034 318.162C549.806 318.389 549.678 318.698 549.678 319.02V327.522C549.678 327.844 549.807 328.153 550.034 328.38C550.262 328.608 550.571 328.736 550.893 328.737ZM550.893 327.522V319.02H563.038V327.522H550.893ZM548.464 329.951H565.467V331.166H548.464V329.951Z" fill="#171717"/>
<rect x="581.652" y="305.841" width="36.0701" height="36.0701" rx="10.821" fill="#4ADE80"/>
<path fill-rule="evenodd" clip-rule="evenodd" d="M597.512 329.634L600.682 317.803L601.855 318.117L598.685 329.948L597.512 329.634ZM590.578 323.876L594.829 319.625L595.685 320.481L592.296 323.876L595.685 327.27L594.829 328.127L590.578 323.876ZM608.796 323.876L604.545 328.127L603.689 327.27L607.077 323.876L603.689 320.481L604.545 319.625L608.796 323.876Z" fill="#171717"/>
<rect x="624.373" y="305.841" width="36.0701" height="36.0701" rx="10.821" fill="#93C5FD"/>
<path fill-rule="evenodd" clip-rule="evenodd" d="M641.194 319.018H638.764V316.589H637.55V319.018H635.121V320.233H637.55V322.662H638.764V320.233H641.194V319.018ZM641.194 325.698H635.121V326.913H641.194V325.698ZM635.121 328.734H641.194V329.949H635.121V328.734ZM649.695 319.018H643.623V320.233H649.695V319.018ZM649.695 325.34L647.515 327.52L649.695 329.7L648.839 330.556L646.659 328.376L644.479 330.556L643.623 329.7L645.803 327.52L643.623 325.34L644.479 324.483L646.659 326.664L648.839 324.483L649.695 325.34Z" fill="#171717"/>
<rect x="667.095" y="305.841" width="36.0701" height="36.0701" rx="10.821" fill="#FB923C"/>
<path d="M691.951 328.502L687.559 322.464V316.589H688.774V315.374H681.486V316.589H682.701V322.464L678.309 328.502C678.045 328.866 677.886 329.296 677.85 329.745C677.815 330.194 677.904 330.644 678.108 331.045C678.313 331.446 678.624 331.783 679.008 332.018C679.392 332.253 679.833 332.378 680.283 332.378H689.977C690.427 332.378 690.868 332.253 691.252 332.018C691.636 331.783 691.947 331.446 692.152 331.045C692.356 330.644 692.445 330.194 692.41 329.745C692.374 329.296 692.215 328.866 691.951 328.502ZM683.915 322.859V316.589H686.345V322.859L687.968 325.09H682.292L683.915 322.859ZM689.977 331.163H680.283C680.057 331.163 679.835 331.1 679.643 330.982C679.45 330.864 679.293 330.695 679.191 330.493C679.088 330.292 679.043 330.066 679.061 329.841C679.079 329.615 679.159 329.399 679.291 329.216L681.409 326.305H688.851L690.969 329.216C691.101 329.399 691.181 329.615 691.199 329.841C691.217 330.066 691.172 330.292 691.069 330.493C690.967 330.695 690.81 330.864 690.617 330.982C690.425 331.1 690.203 331.163 689.977 331.163Z" fill="#171717"/>
<rect x="538.93" y="347.911" width="36.0701" height="36.0701" rx="10.821" fill="#4ADE80"/>
<path fill-rule="evenodd" clip-rule="evenodd" d="M560.002 357.445H560.609C561.092 357.426 561.575 357.508 562.025 357.684C562.476 357.861 562.885 358.128 563.227 358.47C563.569 358.813 563.837 359.222 564.013 359.672C564.19 360.123 564.271 360.605 564.252 361.089V367.161C564.252 367.484 564.124 367.792 563.897 368.02C563.669 368.248 563.36 368.376 563.038 368.376H561.216V374.449H560.002V357.445ZM561.216 367.161H563.038V361.089C563.038 360.864 562.965 359.054 561.216 358.714V367.161ZM555.751 362.91C555.751 363.554 555.495 364.172 555.039 364.628C554.584 365.083 553.966 365.339 553.322 365.339C552.677 365.339 552.059 365.083 551.604 364.628C551.148 364.172 550.892 363.554 550.892 362.91V357.445H549.678V362.91C549.679 363.771 549.984 364.603 550.54 365.26C551.096 365.917 551.866 366.356 552.714 366.499V374.448H553.929V366.499C554.777 366.356 555.547 365.917 556.103 365.26C556.659 364.603 556.964 363.771 556.965 362.91V357.445H555.751V362.91ZM553.929 357.445H552.714V363.517H553.929V357.445Z" fill="#171717"/>
<rect x="581.652" y="347.911" width="36.0701" height="36.0701" rx="10.821" fill="#93C5FD"/>
<path d="M602.116 365.946C602.116 366.751 602.436 367.524 603.005 368.093C603.575 368.663 604.347 368.983 605.152 368.983C605.958 368.983 606.73 368.663 607.299 368.093C607.869 367.524 608.189 366.751 608.189 365.946C608.189 365.852 608.167 365.759 608.125 365.675L605.696 360.818C605.688 360.801 605.679 360.785 605.669 360.769C605.614 360.681 605.538 360.608 605.448 360.558C605.358 360.507 605.256 360.481 605.152 360.481H601.4C601.309 360.227 601.162 359.996 600.971 359.805C600.779 359.615 600.548 359.469 600.294 359.378V357.444H599.08V359.378C598.825 359.469 598.594 359.615 598.403 359.805C598.212 359.996 598.065 360.227 597.973 360.481H594.221C594.109 360.481 593.998 360.512 593.902 360.571C593.806 360.631 593.729 360.715 593.678 360.816L591.249 365.675C591.207 365.759 591.185 365.852 591.185 365.946C591.185 366.751 591.505 367.524 592.074 368.093C592.644 368.663 593.416 368.983 594.221 368.983C595.027 368.983 595.799 368.663 596.368 368.093C596.938 367.524 597.258 366.751 597.258 365.946C597.258 365.852 597.236 365.759 597.194 365.675L595.204 361.695H597.973C598.065 361.949 598.212 362.18 598.403 362.37C598.594 362.561 598.825 362.707 599.08 362.798V373.233H593.614V374.448H605.76V373.233H600.294V362.798C600.548 362.707 600.779 362.561 600.971 362.371C601.162 362.18 601.309 361.949 601.4 361.695H604.17L602.18 365.675C602.138 365.759 602.116 365.852 602.116 365.946ZM594.221 367.768C593.846 367.767 593.48 367.649 593.174 367.432C592.868 367.214 592.637 366.908 592.512 366.553H595.931C595.806 366.908 595.575 367.214 595.269 367.432C594.963 367.649 594.597 367.767 594.221 367.768ZM595.668 365.339H592.775L594.221 362.446L595.668 365.339ZM599.687 361.695C599.567 361.695 599.449 361.66 599.349 361.593C599.25 361.526 599.172 361.431 599.126 361.32C599.08 361.209 599.068 361.087 599.091 360.97C599.115 360.852 599.173 360.744 599.257 360.659C599.342 360.574 599.451 360.516 599.568 360.492C599.686 360.469 599.808 360.481 599.919 360.527C600.03 360.573 600.125 360.651 600.192 360.751C600.258 360.85 600.294 360.968 600.294 361.088C600.294 361.249 600.23 361.403 600.116 361.517C600.002 361.631 599.848 361.695 599.687 361.695ZM605.152 367.768C604.777 367.767 604.411 367.649 604.105 367.432C603.799 367.214 603.568 366.908 603.443 366.553H606.862C606.737 366.908 606.506 367.214 606.2 367.432C605.894 367.649 605.528 367.767 605.152 367.768ZM605.152 362.446L606.599 365.339H603.706L605.152 362.446Z" fill="#171717"/>
<rect x="624.373" y="347.911" width="36.0701" height="36.0701" rx="10.821" fill="#FB923C"/>
<path fill-rule="evenodd" clip-rule="evenodd" d="M644.063 361.413C644.663 361.221 645.288 361.112 645.918 361.088C648.706 361.088 649.696 363.705 649.696 365.946C649.696 370.507 647.224 373.233 644.837 373.234C644.316 373.206 643.804 373.085 643.326 372.875C643.035 372.745 642.725 372.661 642.408 372.626C642.092 372.661 641.783 372.745 641.493 372.875C641.014 373.085 640.502 373.206 639.981 373.234H639.98C637.591 373.233 635.121 370.507 635.121 365.946C635.121 362.95 636.525 361.088 638.784 361.088C639.438 361.115 640.087 361.225 640.714 361.413C641.054 361.501 641.381 361.581 641.696 361.635C641.552 361.129 641.247 360.684 640.828 360.366C640.409 360.048 639.898 359.876 639.372 359.874V358.659C640.227 358.661 641.054 358.962 641.709 359.511C642.364 360.06 642.805 360.822 642.956 361.663C643.33 361.603 643.699 361.52 644.063 361.413ZM643.75 371.738C644.094 371.892 644.462 371.987 644.837 372.019C646.628 372.018 648.481 369.747 648.481 365.946C648.481 365.338 648.357 362.303 645.918 362.303C645.395 362.329 644.879 362.424 644.381 362.585C643.792 362.771 643.18 362.881 642.562 362.91H642.263C641.636 362.878 641.014 362.77 640.412 362.59C639.883 362.429 639.336 362.332 638.784 362.303C636.574 362.303 636.336 364.851 636.336 365.946C636.336 369.747 638.188 372.018 639.979 372.019C640.356 371.987 640.724 371.892 641.069 371.738C641.492 371.55 641.946 371.44 642.408 371.412C642.871 371.44 643.326 371.55 643.75 371.738ZM643.016 360.481H643.623C643.945 360.481 644.254 360.353 644.481 360.125C644.709 359.897 644.837 359.588 644.837 359.266V358.659H644.23C643.908 358.66 643.599 358.788 643.372 359.015C643.144 359.243 643.016 359.552 643.016 359.874V360.481Z" fill="#171717"/>
<rect x="667.095" y="347.911" width="36.0701" height="36.0701" rx="10.821" fill="#FBBF24"/>
<path d="M689.988 357.444H680.272C679.95 357.444 679.641 357.572 679.413 357.8C679.185 358.028 679.057 358.337 679.057 358.659V361.088C679.057 361.41 679.185 361.719 679.413 361.947C679.641 362.175 679.95 362.303 680.272 362.303V373.233C680.272 373.556 680.4 373.865 680.628 374.092C680.855 374.32 681.164 374.448 681.486 374.448H688.774C689.096 374.448 689.405 374.32 689.633 374.092C689.86 373.865 689.988 373.556 689.988 373.233V362.303C690.31 362.303 690.619 362.175 690.847 361.947C691.075 361.719 691.203 361.41 691.203 361.088V358.659C691.203 358.337 691.075 358.028 690.847 357.8C690.619 357.572 690.31 357.444 689.988 357.444ZM681.486 364.732H683.308V370.804H681.486V364.732ZM688.774 373.233H681.486V372.019H684.523V363.517H681.486V362.303H688.774V373.233ZM680.272 361.088V358.659H689.988V361.088H680.272Z" fill="#171717"/>
<rect x="538.93" y="389.981" width="36.0701" height="36.0701" rx="10.821" fill="#FB923C"/>
<path fill-rule="evenodd" clip-rule="evenodd" d="M549.435 411.963C548.828 410.748 548.464 409.412 548.464 408.016C548.464 403.34 552.289 399.514 556.965 399.514V400.728C552.957 400.728 549.678 404.008 549.678 408.016C549.678 409.23 549.982 410.323 550.528 411.356L549.435 411.963ZM564.253 408.016C564.253 412.024 560.973 415.303 556.965 415.303C555.204 415.303 553.565 414.696 552.289 413.602L555.751 410.141L554.901 409.23L550.953 413.177C550.71 413.42 550.71 413.785 550.953 414.028C552.532 415.606 554.718 416.517 556.965 416.517C561.641 416.517 565.467 412.692 565.467 408.016H564.253ZM557.937 413.42C557.998 413.481 558.119 413.481 558.18 413.481C558.302 413.481 558.423 413.42 558.544 413.36L560.974 411.538C561.156 411.416 561.216 411.234 561.216 411.052V407.651L563.038 405.829C563.828 405.04 564.253 404.008 564.253 402.854V401.943C564.253 401.275 563.706 400.728 563.038 400.728H562.127C561.034 400.728 559.941 401.153 559.152 401.943L557.33 403.765H553.929C553.747 403.765 553.565 403.825 553.383 403.947L551.561 406.376C551.439 406.558 551.439 406.801 551.5 406.983C551.561 407.165 551.743 407.348 551.986 407.348L555.022 407.773L555.204 406.558L553.2 406.315L554.233 404.979H557.573C557.755 404.979 557.876 404.918 557.998 404.797L559.941 402.854C560.488 402.246 561.277 401.943 562.067 401.943H562.978V402.914C562.978 403.704 562.613 404.493 562.067 405.04L560.123 406.983C560.002 407.105 559.941 407.226 559.941 407.408V410.688L558.605 411.72L558.362 409.716L557.148 409.898L557.573 412.934C557.573 413.177 557.755 413.36 557.937 413.42Z" fill="#171717"/>
<rect x="581.652" y="389.981" width="36.0701" height="36.0701" rx="10.821" fill="#FBBF24"/>
<path fill-rule="evenodd" clip-rule="evenodd" d="M608.189 400.372L606.553 402.008L607.217 402.671C607.332 402.781 607.424 402.913 607.486 403.059C607.549 403.205 607.581 403.363 607.581 403.522C607.581 403.681 607.549 403.838 607.486 403.984C607.424 404.13 607.332 404.262 607.217 404.372L596.286 415.303H592.399V411.416L603.33 400.485C603.44 400.37 603.572 400.278 603.718 400.216C603.864 400.153 604.022 400.121 604.181 400.121C604.34 400.121 604.497 400.153 604.643 400.216C604.789 400.278 604.921 400.37 605.031 400.485L605.695 401.149L607.33 399.514L608.189 400.372ZM593.614 414.088H595.8L606.367 403.522L604.181 401.335L593.614 411.902V414.088ZM595.436 405.335L600.043 400.728L600.901 401.587L596.295 406.194L595.436 405.335Z" fill="#171717"/>
<rect x="624.373" y="389.981" width="36.0701" height="36.0701" rx="10.821" fill="#4ADE80"/>
<path d="M650.91 406.195C650.91 405.317 650.738 404.449 650.402 403.638C650.066 402.828 649.574 402.091 648.954 401.471C648.333 400.851 647.597 400.359 646.787 400.023C645.976 399.687 645.108 399.515 644.23 399.515H639.372C637.923 399.515 636.532 400.09 635.507 401.115C634.482 402.14 633.907 403.531 633.907 404.98V406.802C633.907 407.607 634.227 408.38 634.796 408.949C635.365 409.518 636.138 409.838 636.943 409.838H637.611C637.751 410.524 638.124 411.141 638.666 411.583C639.208 412.026 639.887 412.268 640.587 412.267H641.425L643.854 416.518L644.904 415.911L642.475 411.727C642.378 411.53 642.228 411.363 642.043 411.245C641.858 411.126 641.644 411.06 641.425 411.053H640.587C640.103 411.053 639.64 410.861 639.298 410.519C638.957 410.178 638.765 409.714 638.765 409.231C638.765 408.748 638.957 408.284 639.298 407.943C639.64 407.601 640.103 407.409 640.587 407.409H641.194V406.195H640.587C639.887 406.195 639.208 406.436 638.666 406.879C638.124 407.322 637.751 407.938 637.611 408.624H636.943C636.46 408.624 635.996 408.432 635.655 408.09C635.313 407.749 635.121 407.285 635.121 406.802V405.587H636.336C636.819 405.587 637.282 405.395 637.624 405.054C637.966 404.712 638.158 404.249 638.158 403.766V403.158H636.943V403.766C636.943 403.927 636.879 404.081 636.765 404.195C636.651 404.309 636.497 404.373 636.336 404.373H635.17C635.316 403.362 635.821 402.437 636.592 401.768C637.364 401.099 638.351 400.73 639.372 400.729H643.016V401.944C643.016 402.105 642.952 402.259 642.838 402.373C642.724 402.487 642.57 402.551 642.408 402.551H641.194V403.766H642.408C642.892 403.766 643.355 403.574 643.697 403.232C644.038 402.89 644.23 402.427 644.23 401.944V400.729C645.247 400.731 646.243 401.015 647.107 401.552C647.97 402.088 648.667 402.855 649.119 403.766H648.481C647.998 403.766 647.535 403.958 647.193 404.299C646.851 404.641 646.659 405.104 646.659 405.587V406.195H647.874V405.587C647.874 405.426 647.938 405.272 648.052 405.158C648.166 405.044 648.32 404.98 648.481 404.98H649.556C649.649 405.378 649.696 405.786 649.696 406.195V406.802C649.696 407.607 649.376 408.38 648.806 408.949C648.237 409.518 647.465 409.838 646.659 409.838H644.838V411.053H646.659C647.29 411.052 647.912 410.911 648.481 410.64V411.053C648.481 411.536 648.289 411.999 647.948 412.341C647.606 412.683 647.143 412.875 646.659 412.875H646.052V414.089H646.659C647.465 414.089 648.237 413.769 648.806 413.2C649.376 412.63 649.696 411.858 649.696 411.053V409.772C650.473 408.978 650.909 407.912 650.91 406.802V406.195Z" fill="#171717"/>
<rect x="667.095" y="389.981" width="36.0701" height="36.0701" rx="10.821" fill="#93C5FD"/>
<path fill-rule="evenodd" clip-rule="evenodd" d="M686.345 401.335V402.55H684.401C684.001 404.267 683.184 405.858 682.021 407.184C682.899 408.08 683.96 408.778 685.13 409.23L684.699 410.347C683.385 409.82 682.194 409.026 681.201 408.016C680.19 409.012 678.999 409.807 677.691 410.36L677.236 409.23C678.4 408.737 679.462 408.033 680.369 407.153C679.548 406.152 678.93 405.001 678.547 403.765H679.823C680.132 404.687 680.603 405.546 681.213 406.303C682.15 405.225 682.814 403.938 683.15 402.55H676.628V401.335H680.879V399.514H682.094V401.335H686.345ZM693.632 415.91H692.327L691.355 413.481H687.195L686.224 415.91H684.918L688.562 406.801H689.989L693.632 415.91ZM689.272 408.283L687.681 412.266H690.869L689.272 408.283Z" fill="#171717"/>
</g>
<rect x="0.5" y="0.5" width="849" height="478" rx="13.7857" stroke="#171717"/>
<defs>
<filter id="filter0_dd_3372_94205" x="501.654" y="286.074" width="238.086" height="193.753" filterUnits="userSpaceOnUse" color-interpolation-filters="sRGB">
<feFlood flood-opacity="0" result="BackgroundImageFix"/>
<feColorMatrix in="SourceAlpha" type="matrix" values="0 0 0 0 0 0 0 0 0 0 0 0 0 0 0 0 0 0 127 0" result="hardAlpha"/>
<feOffset dy="6.56789"/>
<feGaussianBlur stdDeviation="4.10493"/>
<feComposite in2="hardAlpha" operator="out"/>
<feColorMatrix type="matrix" values="0 0 0 0 0 0 0 0 0 0 0 0 0 0 0 0 0 0 0.08 0"/>
<feBlend mode="normal" in2="BackgroundImageFix" result="effect1_dropShadow_3372_94205"/>
<feColorMatrix in="SourceAlpha" type="matrix" values="0 0 0 0 0 0 0 0 0 0 0 0 0 0 0 0 0 0 127 0" result="hardAlpha"/>
<feOffset dy="16.4197"/>
<feGaussianBlur stdDeviation="10.6728"/>
<feComposite in2="hardAlpha" operator="out"/>
<feColorMatrix type="matrix" values="0 0 0 0 0 0 0 0 0 0 0 0 0 0 0 0 0 0 0.03 0"/>
<feBlend mode="normal" in2="effect1_dropShadow_3372_94205" result="effect2_dropShadow_3372_94205"/>
<feBlend mode="normal" in="SourceGraphic" in2="effect2_dropShadow_3372_94205" result="shape"/>
</filter>
<clipPath id="clip0_3372_94205">
<rect width="850" height="479" rx="14.2857" fill="white"/>
</clipPath>
<clipPath id="clip1_3372_94205">
<rect width="571" height="307" fill="white" transform="translate(149.322 124.132)"/>
</clipPath>
</defs>
</svg>
