<svg width="48" height="48" viewBox="0 0 48 48" fill="none" xmlns="http://www.w3.org/2000/svg">
<path d="M34.28 0H13.72C6.14265 0 0 6.14265 0 13.72V34.28C0 41.8573 6.14265 48 13.72 48H34.28C41.8573 48 48 41.8573 48 34.28V13.72C48 6.14265 41.8573 0 34.28 0Z" fill="#F87171"/>
<path d="M13.5 11.75H11.75V34.5C11.75 34.9641 11.9344 35.4092 12.2626 35.7374C12.5908 36.0656 13.0359 36.25 13.5 36.25H36.25V34.5H13.5V31.875H32.75V24.875H13.5V21.375H25.75V14.375H13.5V11.75ZM31 26.625V30.125H13.5V26.625H31ZM24 16.125V19.625H13.5V16.125H24Z" fill="black"/>
</svg>
