<svg width="36" height="37" viewBox="0 0 36 37" fill="none" xmlns="http://www.w3.org/2000/svg">
<path d="M27 16.0027H24.75V9.25269C24.75 7.46247 24.0388 5.74559 22.773 4.47971C21.5071 3.21384 19.7902 2.50269 18 2.50269C16.2098 2.50269 14.4929 3.21384 13.227 4.47971C11.9612 5.74559 11.25 7.46247 11.25 9.25269V16.0027H9C8.40326 16.0027 7.83097 16.2397 7.40901 16.6617C6.98705 17.0837 6.75 17.6559 6.75 18.2527V31.7527C6.75 32.3494 6.98705 32.9217 7.40901 33.3437C7.83097 33.7656 8.40326 34.0027 9 34.0027H27C27.5967 34.0027 28.169 33.7656 28.591 33.3437C29.0129 32.9217 29.25 32.3494 29.25 31.7527V18.2527C29.25 17.6559 29.0129 17.0837 28.591 16.6617C28.169 16.2397 27.5967 16.0027 27 16.0027ZM13.5 9.25269C13.5 8.05921 13.9741 6.91462 14.818 6.0707C15.6619 5.22679 16.8065 4.75269 18 4.75269C19.1935 4.75269 20.3381 5.22679 21.182 6.0707C22.0259 6.91462 22.5 8.05921 22.5 9.25269V16.0027H13.5V9.25269ZM27 31.7527H9V18.2527H27V31.7527Z" fill="#F59E0B"/>
</svg>
