<svg width="49" height="48" viewBox="0 0 49 48" fill="none" xmlns="http://www.w3.org/2000/svg">
<g clip-path="url(#clip0_1024_24002)">
<path d="M23.3014 7.13667H26.0803C26.3961 7.13667 26.6488 6.88404 26.6488 6.56825C26.6488 6.25246 26.3961 5.99983 26.0803 5.99983H23.3014V7.13667ZM23.3014 9.7893H26.1435C26.5225 9.7893 26.7751 9.53667 26.7751 9.15772C26.7751 8.77877 26.5225 8.52614 26.1435 8.52614H23.3014V9.7893ZM27.7856 7.76825C28.1646 8.14719 28.4172 8.65246 28.4172 9.22088C28.4172 10.3577 27.533 11.2419 26.3961 11.2419H21.7856V4.61035H26.333C27.4067 4.61035 28.2909 5.49456 28.2909 6.56825C28.2277 7.01035 28.0382 7.45246 27.7856 7.76825ZM28.8593 19.1367H27.154L26.6488 17.9998H22.9225L22.4172 19.1367H20.7119L23.9961 12.5051H25.5119L28.8593 19.1367ZM24.754 14.2104L23.6172 16.6104H25.8909L24.754 14.2104ZM27.0277 20.5893H28.9225L25.5751 24.884V27.2209H23.9961V24.884L20.6488 20.5893H22.5435L24.8172 23.6209L27.0277 20.5893ZM35.8067 20.5893V22.0419H31.3856V23.1788H35.6803V24.6314H31.3856V25.8946H35.8067V27.3472H29.8067V20.5893H35.8067ZM40.6698 24.6946H39.4698V27.2209H37.8909V20.5893H41.933C43.0698 20.5893 43.954 21.5367 43.954 22.6735C43.954 23.6209 43.3225 24.3788 42.5014 24.6314L44.4593 27.2209H42.5646L40.6698 24.6946ZM41.8067 21.9788H39.533V23.2419H41.8067C42.1856 23.2419 42.4382 22.9261 42.4382 22.6104C42.4382 22.2946 42.1224 21.9788 41.8067 21.9788ZM21.3435 27.2209H19.6382L19.133 26.084H15.4067L14.9014 27.2209H13.1961L16.5435 20.5893H18.0593L21.3435 27.2209ZM17.2382 22.2946L16.1014 24.6946H18.4382L17.2382 22.2946ZM7.19613 23.1156H9.97508C10.2909 23.1156 10.5435 22.863 10.5435 22.5472C10.5435 22.2314 10.2909 21.9788 9.97508 21.9788H7.19613V23.1156ZM7.19613 25.7682H10.0382C10.4172 25.7682 10.6698 25.5156 10.6698 25.1367C10.6698 24.7577 10.4172 24.5051 10.0382 24.5051H7.19613V25.7682ZM11.6803 23.7472C12.0593 24.1261 12.3119 24.6314 12.3119 25.1998C12.3119 26.3367 11.4277 27.2209 10.2909 27.2209H5.61719V20.5893H10.1646C11.2382 20.5893 12.1225 21.4735 12.1225 22.5472C12.1225 22.9893 11.933 23.4314 11.6803 23.7472ZM27.7856 28.6104V30.063H23.3646V31.1998H27.6593V32.6525H23.3646V33.9156H27.7856V35.3683H21.7856V28.6104H27.7856ZM26.6488 38.9051C26.6488 38.5261 26.3961 38.2735 26.0172 38.2735H23.3014V39.5367H26.0172C26.3961 39.5367 26.6488 39.284 26.6488 38.9051ZM21.7225 43.5156V36.884H26.1435C27.2803 36.884 28.1646 37.8314 28.1646 38.9683C28.1646 39.8525 27.6593 40.5472 26.9014 40.863L28.9225 43.5156H27.0277L25.133 40.9893H23.3014V43.5156H21.7225Z" fill="#11171C"/>
<path d="M48.6901 22.4842C47.9322 9.97895 37.5112 0 24.7533 0C11.9954 0 1.5743 9.97895 0.816406 22.4842C0.816406 22.9895 0.879564 23.4947 0.942722 24C1.44799 28.1684 3.02693 32.021 5.42693 35.2421C9.78483 41.1789 16.7954 45.0316 24.7533 45.0316C13.6375 45.0316 4.54272 36.3789 3.78483 25.5158C3.72167 25.0105 3.72167 24.5053 3.72167 24C3.72167 23.4947 3.72167 22.9895 3.78483 22.4842C4.54272 11.6211 13.6375 2.96842 24.7533 2.96842C32.7112 2.96842 39.7217 6.82105 44.0796 12.7579C46.4796 15.9789 48.0585 19.8316 48.5638 24C48.6269 24.5053 48.6901 25.0105 48.6901 25.4526C48.6901 24.9474 48.7533 24.4421 48.7533 23.9368C48.7533 23.4947 48.7533 22.9895 48.6901 22.4842Z" fill="#6A7888"/>
<path d="M0.817064 25.5161C1.57496 38.0214 11.996 48.0003 24.7539 48.0003C37.5118 48.0003 47.9329 38.0214 48.6908 25.5161C48.6908 25.0109 48.6276 24.5056 48.5645 24.0003C48.0592 19.8319 46.4802 15.9793 44.0802 12.7582C39.7223 6.82138 32.7118 2.96875 24.7539 2.96875C35.8697 2.96875 44.9645 11.6214 45.7223 22.4845C45.7855 22.9898 45.7855 23.4951 45.7855 24.0003C45.7855 24.5056 45.7855 25.0109 45.7223 25.5161C44.9645 36.4424 35.8697 45.0319 24.7539 45.0319C16.796 45.0319 9.78549 41.1793 5.42759 35.2424C3.02759 32.0214 1.44864 28.1687 0.94338 24.0003C0.880222 23.4951 0.817064 22.9898 0.817064 22.5477C0.817064 23.053 0.753906 23.5582 0.753906 24.0635C0.753906 24.5056 0.753906 25.0109 0.817064 25.5161Z" fill="#11171C"/>
</g>
<defs>
<clipPath id="clip0_1024_24002">
<rect width="48" height="48" fill="white" transform="translate(0.626953)"/>
</clipPath>
</defs>
</svg>
