<svg width="113" height="31" viewBox="0 0 113 31" fill="none" xmlns="http://www.w3.org/2000/svg">
<g clip-path="url(#clip0_777_241516)">
<path d="M56.6922 0.5C57.7369 0.5 58.7388 0.915001 59.4775 1.65371C60.2162 2.39241 60.6312 3.39431 60.6312 4.439C60.6312 5.48369 60.2162 6.48559 59.4775 7.22429C58.7388 7.963 57.7369 8.378 56.6922 8.378C55.6475 8.378 54.6456 7.963 53.9069 7.22429C53.1682 6.48559 52.7532 5.48369 52.7532 4.439C52.7532 3.39431 53.1682 2.39241 53.9069 1.65371C54.6456 0.915001 55.6475 0.5 56.6922 0.5V0.5ZM56.6922 6.46C57.2282 6.46 57.7422 6.24707 58.1213 5.86806C58.5003 5.48905 58.7132 4.975 58.7132 4.439C58.7132 3.903 58.5003 3.38895 58.1213 3.00994C57.7422 2.63093 57.2282 2.418 56.6922 2.418C56.1562 2.418 55.6421 2.63093 55.2631 3.00994C54.8841 3.38895 54.6712 3.903 54.6712 4.439C54.6712 4.975 54.8841 5.48905 55.2631 5.86806C55.6421 6.24707 56.1562 6.46 56.6922 6.46ZM55.6812 30.23V12.318H57.7022V30.23H55.6812ZM0.867188 30.23V12.318H2.88719V30.23H0.867188ZM18.0392 12.318H19.8572V30.23H17.5672L11.3722 15.25V30.23H9.55419V12.318H11.9782L18.0382 26.841V12.318H18.0392ZM79.2502 30.23V12.318H81.2712V30.23H79.2502ZM112.517 14.137H106.12V19.861H112.045V21.679H106.12V28.412H112.517V30.231H104.167V12.319H112.517V14.137ZM96.4222 12.318H98.5102L93.8632 30.23H91.5072L87.1302 12.318H89.2182L92.7022 28.028L96.4232 12.318H96.4222ZM63.3592 12.318H73.3252V14.136H69.3522V30.23H67.3322V14.136H63.3592V12.318ZM24.5032 12.318H34.4692V14.136H30.4972V30.23H28.4772V14.136H24.5042V12.318H24.5032ZM47.3992 12.318H49.3522V25.584C49.2852 28.277 47.1512 30.5 44.4362 30.5C41.7212 30.5 39.5872 28.277 39.5202 25.584V12.318H41.5412V25.61C41.5812 27.215 42.8522 28.54 44.4702 28.54C46.0872 28.54 47.3592 27.215 47.3992 25.61V12.318Z" fill="#171717"/>
</g>
<defs>
<clipPath id="clip0_777_241516">
<rect width="112" height="30" fill="white" transform="translate(0.867188 0.5)"/>
</clipPath>
</defs>
</svg>
