<svg width="48" height="48" viewBox="0 0 48 48" fill="none" xmlns="http://www.w3.org/2000/svg">
<path d="M34.28 0H13.72C6.14265 0 0 6.14265 0 13.72V34.28C0 41.8573 6.14265 48 13.72 48H34.28C41.8573 48 48 41.8573 48 34.28V13.72C48 6.14265 41.8573 0 34.28 0Z" fill="#4ADE80"/>
<path fill-rule="evenodd" clip-rule="evenodd" d="M18.9445 18.1601C18.3689 18.5447 17.6922 18.75 17 18.75C16.0717 18.75 15.1815 18.3813 14.5251 17.7249C13.8687 17.0685 13.5 16.1783 13.5 15.25C13.5 14.5578 13.7053 13.8811 14.0899 13.3055C14.4744 12.7299 15.0211 12.2813 15.6606 12.0164C16.3001 11.7515 17.0039 11.6822 17.6828 11.8173C18.3617 11.9523 18.9854 12.2856 19.4749 12.7751C19.9644 13.2646 20.2977 13.8883 20.4327 14.5672C20.5678 15.2461 20.4985 15.9499 20.2336 16.5894C19.9687 17.2289 19.5201 17.7756 18.9445 18.1601ZM17.9722 13.7949C17.6845 13.6026 17.3461 13.5 17 13.5C16.5359 13.5 16.0908 13.6844 15.7626 14.0126C15.4344 14.3408 15.25 14.7859 15.25 15.25C15.25 15.5961 15.3526 15.9345 15.5449 16.2222C15.7372 16.51 16.0105 16.7343 16.3303 16.8668C16.6501 16.9992 17.0019 17.0339 17.3414 16.9664C17.6809 16.8989 17.9927 16.7322 18.2374 16.4874C18.4822 16.2427 18.6489 15.9309 18.7164 15.5914C18.7839 15.2519 18.7492 14.9001 18.6168 14.5803C18.4843 14.2605 18.26 13.9872 17.9722 13.7949ZM31 20.5V19.625C31 19.0505 30.8868 18.4816 30.667 17.9508C30.4471 17.42 30.1248 16.9377 29.7186 16.5314C29.3123 16.1252 28.83 15.8029 28.2992 15.583C27.7684 15.3632 27.1995 15.25 26.625 15.25H24V13.5H26.625C28.2495 13.5 29.8074 14.1453 30.956 15.294C32.1047 16.4426 32.75 18.0005 32.75 19.625V20.5H31ZM15.25 27.5V28.375C15.25 29.5353 15.7109 30.6481 16.5314 31.4686C17.3519 32.2891 18.4647 32.75 19.625 32.75H22.25V34.5H19.625C18.0005 34.5 16.4426 33.8547 15.294 32.706C14.1453 31.5574 13.5 29.9995 13.5 28.375V27.5H15.25ZM19.625 19.625H14.375C13.6788 19.625 13.0111 19.9016 12.5188 20.3938C12.0266 20.8861 11.75 21.5538 11.75 22.25V24H13.5V22.25C13.5 22.0179 13.5922 21.7954 13.7563 21.6313C13.9204 21.4672 14.1429 21.375 14.375 21.375H19.625C19.8571 21.375 20.0796 21.4672 20.2437 21.6313C20.4078 21.7954 20.5 22.0179 20.5 22.25V24H22.25V22.25C22.25 21.5538 21.9734 20.8861 21.4812 20.3938C20.9889 19.9016 20.3212 19.625 19.625 19.625ZM28.375 31.875C27.6788 31.875 27.0111 32.1516 26.5188 32.6438C26.0266 33.1361 25.75 33.8038 25.75 34.5V36.25H27.5V34.5C27.5 34.2679 27.5922 34.0454 27.7563 33.8813C27.9204 33.7172 28.1429 33.625 28.375 33.625H33.625C33.8571 33.625 34.0796 33.7172 34.2437 33.8813C34.4078 34.0454 34.5 34.2679 34.5 34.5V36.25H36.25V34.5C36.25 33.8038 35.9734 33.1361 35.4812 32.6438C34.9889 32.1516 34.3212 31.875 33.625 31.875H28.375ZM28.0899 29.4445C27.7053 28.8689 27.5 28.1922 27.5 27.5C27.5 26.5717 27.8687 25.6815 28.5251 25.0251C29.1815 24.3687 30.0717 24 31 24C31.6922 24 32.3689 24.2053 32.9445 24.5899C33.5201 24.9744 33.9687 25.5211 34.2336 26.1606C34.4985 26.8001 34.5678 27.5039 34.4327 28.1828C34.2977 28.8617 33.9644 29.4854 33.4749 29.9749C32.9854 30.4644 32.3617 30.7977 31.6828 30.9327C31.0039 31.0678 30.3001 30.9985 29.6606 30.7336C29.0211 30.4687 28.4744 30.0201 28.0899 29.4445ZM32.4551 28.4722C32.6474 28.1845 32.75 27.8461 32.75 27.5C32.75 27.0359 32.5656 26.5908 32.2374 26.2626C31.9092 25.9344 31.4641 25.75 31 25.75C30.6539 25.75 30.3155 25.8526 30.0278 26.0449C29.74 26.2372 29.5157 26.5105 29.3832 26.8303C29.2508 27.1501 29.2161 27.5019 29.2836 27.8414C29.3512 28.1809 29.5178 28.4927 29.7626 28.7374C30.0073 28.9822 30.3191 29.1488 30.6586 29.2164C30.9981 29.2839 31.3499 29.2492 31.6697 29.1168C31.9895 28.9843 32.2628 28.76 32.4551 28.4722Z" fill="black"/>
</svg>
