<svg width="204" height="64" viewBox="0 0 204 64" fill="none" xmlns="http://www.w3.org/2000/svg">
<g clip-path="url(#clip0_1_83)">
<path d="M58.7728 45.4202C58.4858 44.6146 58.1504 43.8352 57.8314 43.113C57.3402 42.0022 56.8258 40.8892 56.3282 39.8134L56.2888 39.728C51.851 30.1178 47.0878 20.3762 42.1318 10.774L41.9214 10.3663C41.4158 9.38578 40.8932 8.37192 40.3568 7.37572C39.7208 6.115 38.949 4.9272 38.0552 3.83336C37.049 2.63302 35.7912 1.66764 34.3706 1.00531C32.95 0.342972 31.401 -0.000196792 29.833 8.46632e-08C28.265 0.000196961 26.7162 0.343754 25.2956 1.00645C23.8752 1.66914 22.6176 2.63484 21.6118 3.83542C20.719 4.92952 19.9477 6.11706 19.3114 7.37716C18.7704 8.3823 18.2429 9.40556 17.7328 10.3951L17.5374 10.7739C12.5812 20.3768 7.81806 30.1184 3.3803 39.7278L3.31564 39.8676C2.82668 40.926 2.32114 42.0204 1.83815 43.1126C1.51898 43.8342 1.18402 44.613 0.89671 45.4206C0.0738126 47.6208 -0.188408 49.9906 0.13362 52.317C0.475124 54.668 1.42602 56.8894 2.89212 58.7608C4.35822 60.6322 6.28868 62.0888 8.49228 62.9864C10.1567 63.6598 11.9364 64.004 13.7323 64C14.2965 63.9998 14.8602 63.967 15.4205 63.9018C17.692 63.6124 19.8827 62.8732 21.8642 61.7278C24.4634 60.2676 27.0304 58.1276 29.8346 55.0696C32.6388 58.1276 35.2058 60.2676 37.805 61.7278C39.7864 62.8734 41.9772 63.6124 44.2486 63.9018C44.809 63.967 45.3728 63.9998 45.937 64C47.7328 64.004 49.5122 63.6598 51.1766 62.9864C53.3802 62.0888 55.3108 60.6322 56.777 58.7608C58.2432 56.8894 59.1942 54.6682 59.5358 52.317C59.8574 49.9904 59.5952 47.6206 58.7728 45.4202ZM29.8346 48.754C26.3632 44.3538 24.1356 40.2676 23.354 36.842C23.0338 35.5584 22.9582 34.2262 23.1312 32.9146C23.2678 31.9532 23.621 31.0352 24.1642 30.2296C24.8326 29.3628 25.6916 28.6608 26.6748 28.1778C27.658 27.695 28.7392 27.4438 29.835 27.4438C30.931 27.444 32.012 27.6952 32.9952 28.1784C33.9784 28.6614 34.8372 29.3634 35.5056 30.2302C36.0488 31.0362 36.402 31.9542 36.5386 32.9158C36.7112 34.228 36.6354 35.5606 36.3146 36.8446C35.5322 40.2698 33.3052 44.3548 29.8346 48.754ZM55.4812 51.7378C55.2424 53.3816 54.5774 54.9348 53.5524 56.2432C52.5272 57.5518 51.1774 58.5704 49.6366 59.198C48.0786 59.8222 46.3878 60.0434 44.7214 59.841C42.9892 59.6178 41.3198 59.0478 39.8138 58.1648C37.5002 56.865 35.1582 54.8696 32.5228 51.9424C36.7182 46.7692 39.338 42.001 40.308 37.754C40.7446 35.968 40.8392 34.1158 40.587 32.295C40.3582 30.7264 39.7758 29.23 38.8838 27.9186C37.8388 26.5038 36.4756 25.3536 34.904 24.561C33.3322 23.7684 31.596 23.3554 29.835 23.3554C28.0742 23.3554 26.3378 23.7682 24.766 24.5606C23.1942 25.353 21.831 26.503 20.786 27.9178C19.8941 29.2288 19.3118 30.7248 19.0828 32.293C18.8305 34.1132 18.9246 35.9644 19.3602 37.7498C20.3296 41.9986 22.9496 46.768 27.1464 51.9428C24.511 54.8696 22.169 56.865 19.8554 58.165C18.3494 59.0478 16.6801 59.618 14.9479 59.841C13.2813 60.0434 11.5905 59.8222 10.0324 59.198C8.49162 58.5704 7.14184 57.5518 6.11676 56.2434C5.0917 54.9348 4.4269 53.3816 4.18822 51.7378C3.95864 50.0668 4.15402 48.365 4.75636 46.7892C4.98532 46.1456 5.25326 45.514 5.5852 44.7636C6.0548 43.702 6.55314 42.623 7.03518 41.5796L7.09992 41.4394C11.5129 31.8838 16.2496 22.1964 21.1788 12.6459L21.375 12.2657C21.8768 11.292 22.3958 10.2853 22.9194 9.3126C23.4202 8.31002 24.0264 7.36342 24.7278 6.4888C25.3492 5.73806 26.1292 5.13362 27.0118 4.71868C27.8946 4.30372 28.8582 4.08852 29.8338 4.08844C30.8094 4.08836 31.7732 4.30342 32.6558 4.71822C33.5386 5.13302 34.3186 5.73734 34.9402 6.48798C35.642 7.36194 36.2484 8.30822 36.7488 9.31076C37.2676 10.2748 37.782 11.2725 38.2796 12.2372L38.4904 12.6463C43.4194 22.1958 48.156 31.883 52.5694 41.4402L52.6092 41.5262C53.0996 42.5872 53.6066 43.6838 54.084 44.764C54.4164 45.5154 54.6848 46.1476 54.9132 46.7888C55.5152 48.3648 55.7106 50.0666 55.4812 51.7378Z" fill="black"/>
<path d="M83.3694 48.2392C81.7712 48.2392 80.301 47.9188 78.9584 47.2782C77.616 46.6376 76.4654 45.7406 75.4424 44.5874C74.4196 43.4344 73.6526 42.089 73.0772 40.6156C72.5018 39.078 72.246 37.4124 72.246 35.6186C72.246 33.8248 72.5658 32.095 73.141 30.5574C73.7164 29.02 74.5474 27.6746 75.5704 26.4574C76.5932 25.3042 77.8078 24.3432 79.2142 23.7026C80.6206 23.062 82.091 22.7416 83.753 22.7416C85.3512 22.7416 86.7576 23.062 88.0362 23.7666C89.3148 24.4074 90.3376 25.3682 91.1686 26.5854L91.3604 23.4464H97.2418V47.5984H91.3604L91.1686 44.075C90.3376 45.3562 89.2508 46.3812 87.8444 47.15C86.5658 47.8548 85.0316 48.2392 83.3694 48.2392ZM84.9038 42.4734C86.0544 42.4734 87.0772 42.153 88.0362 41.5764C88.9312 40.9358 89.6344 40.103 90.2098 39.078C90.7212 38.053 90.9768 36.8358 90.9768 35.4904C90.9768 34.145 90.7212 32.9278 90.2098 31.9028C89.6984 30.8778 88.9312 30.045 88.0362 29.4044C87.1412 28.7636 86.0544 28.5074 84.9038 28.5074C83.753 28.5074 82.7302 28.8278 81.7712 29.4044C80.8764 30.045 80.1732 30.8778 79.5978 31.9028C79.0864 32.9278 78.8306 34.145 78.8306 35.4904C78.8306 36.8358 79.0864 38.053 79.5978 39.078C80.1092 40.103 80.8764 40.9358 81.7712 41.5764C82.7302 42.153 83.753 42.4734 84.9038 42.4734ZM107.278 16.9118C107.278 17.6165 107.151 18.2572 106.831 18.7697C106.511 19.2822 106.064 19.7306 105.488 20.051C104.913 20.3712 104.274 20.4994 103.635 20.4994C102.995 20.4994 102.356 20.3712 101.781 20.051C101.205 19.7306 100.758 19.2822 100.438 18.7697C100.118 18.1931 99.9906 17.6165 99.9906 16.9118C99.9906 16.2071 100.118 15.5665 100.438 15.0539C100.758 14.4774 101.205 14.093 101.781 13.7727C102.356 13.4523 102.995 13.3242 103.635 13.3242C104.274 13.3242 104.913 13.4523 105.488 13.7727C106.064 14.093 106.511 14.5414 106.831 15.0539C107.087 15.5665 107.278 16.143 107.278 16.9118ZM100.438 47.5344V23.3822H106.831V47.5344H100.438ZM123.9 29.7246V29.7886C123.58 29.6606 123.196 29.5964 122.877 29.5324C122.493 29.4684 122.173 29.4684 121.79 29.4684C120 29.4684 118.657 29.9808 117.762 31.07C116.804 32.159 116.356 33.6966 116.356 35.6826V47.5344H109.963V23.3822H115.845L116.036 27.034C116.676 25.7526 117.443 24.7916 118.53 24.087C119.552 23.3822 120.767 23.062 122.173 23.062C122.621 23.062 123.068 23.126 123.452 23.19C123.644 23.2542 123.772 23.2542 123.9 23.3182V29.7246ZM126.457 47.5344V13.4523H132.849V26.4574C133.744 25.3042 134.767 24.4072 136.046 23.7026C137.324 23.062 138.731 22.6776 140.329 22.6776C141.927 22.6776 143.397 22.9978 144.74 23.6386C146.082 24.2792 147.233 25.176 148.256 26.3292C149.279 27.4824 150.046 28.8278 150.621 30.3012C151.197 31.8388 151.452 33.5044 151.452 35.2982C151.452 37.092 151.133 38.8218 150.557 40.3592C149.982 41.8968 149.151 43.2422 148.128 44.4594C147.105 45.6126 145.891 46.5734 144.484 47.2142C143.078 47.8548 141.607 48.175 139.945 48.175C138.347 48.175 136.941 47.8548 135.662 47.15C134.384 46.5094 133.361 45.5484 132.53 44.3312L132.338 47.4704L126.457 47.5344ZM138.795 42.4734C139.945 42.4734 140.968 42.153 141.927 41.5764C142.822 40.9358 143.525 40.103 144.101 39.078C144.612 38.053 144.868 36.8358 144.868 35.4904C144.868 34.145 144.612 32.9278 144.101 31.9028C143.525 30.8778 142.822 30.045 141.927 29.4044C141.032 28.7636 139.945 28.5074 138.795 28.5074C137.644 28.5074 136.621 28.8278 135.662 29.4044C134.767 30.045 134.064 30.8778 133.489 31.9028C132.977 32.9278 132.722 34.145 132.722 35.4904C132.722 36.8358 132.977 38.053 133.489 39.078C134 40.103 134.767 40.9358 135.662 41.5764C136.621 42.153 137.644 42.4734 138.795 42.4734ZM153.882 47.5344V23.3822H159.763L159.955 26.5214C160.658 25.3682 161.617 24.4714 162.831 23.7666C164.046 23.062 165.452 22.7416 167.051 22.7416C168.841 22.7416 170.375 23.19 171.653 24.023C172.996 24.8558 174.019 26.073 174.722 27.6106C175.425 29.148 175.809 31.0058 175.809 33.12V47.5984H169.416V33.9528C169.416 32.2872 169.032 30.9418 168.265 29.9808C167.498 29.02 166.475 28.5074 165.133 28.5074C164.174 28.5074 163.343 28.6996 162.576 29.148C161.872 29.5964 161.297 30.173 160.85 31.006C160.402 31.7746 160.21 32.7356 160.21 33.6966V47.5344H153.882ZM179.005 47.5344V13.4523H185.398V26.4574C186.293 25.3042 187.316 24.4072 188.594 23.7026C189.873 23.062 191.279 22.6776 192.877 22.6776C194.476 22.6776 195.946 22.9978 197.288 23.6386C198.631 24.2792 199.781 25.176 200.804 26.3292C201.828 27.4824 202.594 28.8278 203.17 30.3012C203.746 31.8388 204 33.5044 204 35.2982C204 37.092 203.682 38.8218 203.106 40.3592C202.53 41.8968 201.7 43.2422 200.676 44.4594C199.654 45.6126 198.439 46.5734 197.033 47.2142C195.626 47.8548 194.156 48.175 192.494 48.175C190.896 48.175 189.489 47.8548 188.211 47.15C186.932 46.5094 185.909 45.5484 185.078 44.3312L184.886 47.4704L179.005 47.5344ZM191.407 42.4734C192.558 42.4734 193.581 42.153 194.539 41.5764C195.434 40.9358 196.138 40.103 196.713 39.078C197.224 38.053 197.48 36.8358 197.48 35.4904C197.48 34.145 197.224 32.9278 196.713 31.9028C196.202 30.8778 195.434 30.045 194.539 29.4044C193.644 28.7636 192.558 28.5074 191.407 28.5074C190.256 28.5074 189.233 28.8278 188.275 29.4044C187.38 30.045 186.676 30.8778 186.101 31.9028C185.526 32.9278 185.334 34.145 185.334 35.4904C185.334 36.8358 185.59 38.053 186.101 39.078C186.612 40.103 187.38 40.9358 188.275 41.5764C189.233 42.153 190.192 42.4734 191.407 42.4734Z" fill="black"/>
</g>
<defs>
<clipPath id="clip0_1_83">
<rect width="204" height="64" fill="white"/>
</clipPath>
</defs>
</svg>
