<svg width="140" height="20" viewBox="0 0 140 20" fill="none" xmlns="http://www.w3.org/2000/svg">
<path d="M19.2293 7.068V5.21867C19.2293 5.21867 19.72 0 9.99066 0C0.965325 0 0.533325 5.21867 0.533325 5.21867V14.5133C0.533325 14.5133 1.29199 19.6773 9.99199 19.6773C17.3827 19.6773 19.2307 15.9827 19.2307 15.9827V9.34933H9.99199V11.8493H14.3387V15.9827C14.3387 15.9827 14.1213 17.1773 9.99199 17.1773C5.15333 17.1773 5.42399 14.5133 5.42399 14.5133V5.21867C5.42399 5.21867 5.15333 2.39333 9.99199 2.39333C14.72 2.39333 14.3387 5.21867 14.3387 5.21867V7.068H19.2293Z" fill="white"/>
<path d="M36.2973 6.53604V19.096H40.2373V9.37738C40.2373 9.37738 40.2373 7.77204 43.4453 7.77204C46.68 7.77204 46.68 9.34938 46.68 9.34938V19.1067H50.62V8.94138C50.62 8.94138 50.4573 5.62671 43.4453 5.62671C41.0453 5.62671 39.4507 6.01604 38.3907 6.52671L38.4187 6.52404L36.2973 6.53604Z" fill="white"/>
<path d="M67.6093 6.53604V19.096H71.5507V9.37738C71.5507 9.37738 71.5507 7.77204 74.7573 7.77204C77.9907 7.77204 77.9907 9.34938 77.9907 9.34938V19.1067H81.932V8.94138C81.932 8.94138 81.7693 5.62671 74.7573 5.62671C72.3547 5.62671 70.7627 6.01604 69.7027 6.52671L69.728 6.52404L67.6093 6.53604Z" fill="white"/>
<path d="M107.447 13.672H97.064C97.064 13.672 97.0387 15.9973 97.056 15.9973C97.072 15.9987 97.064 17.5853 100.273 17.5853C103.507 17.5853 103.512 15.9893 103.512 15.9893L103.507 14.948H107.447V15.9813C107.447 15.9813 107.747 19.676 100.273 19.676C92.7974 19.676 93.124 15.9813 93.124 15.9813V9.53866C93.124 9.53866 92.8254 5.84399 100.273 5.84399C107.773 5.84399 107.447 9.56666 107.447 9.56666V13.672V13.672ZM97.0587 9.61999L97.064 11.0613H103.507C103.507 11.0613 103.517 9.61466 103.519 9.61999C103.519 9.61999 103.525 7.99066 100.273 7.99066C97.0627 7.99066 97.0587 9.61999 97.0587 9.61999Z" fill="white"/>
<path d="M123.156 11.2973V9.56666C123.156 9.56666 123.483 5.84399 115.981 5.84399C108.533 5.84399 108.833 9.53866 108.833 9.53866V15.9813C108.833 15.9813 108.507 19.676 115.981 19.676C123.453 19.676 123.156 15.9813 123.156 15.9813V14.3773H119.216L119.221 15.9893C119.221 15.9893 119.216 17.5853 115.981 17.5853C112.773 17.5853 112.783 15.9813 112.765 15.9787C112.745 15.9787 112.773 9.61866 112.773 9.61866C112.785 9.61866 112.829 7.98933 116.144 7.98933C119.271 7.98933 119.216 9.59199 119.216 9.59199V11.2867L123.156 11.2973Z" fill="white"/>
<path d="M82.8293 6.31472H84.0773V3.30005H88.02V6.31605H92.34V8.43738H88.02V16.1574C88.02 16.1574 88.236 18.1134 92.152 17.5747C92.152 17.5747 92.1747 19.4907 92.1467 19.4934C88.7507 19.9334 84.0773 19.5801 84.0773 16.1574V8.43738H82.8293V6.31472" fill="white"/>
<path d="M124.705 0.168032C124.705 0.168032 128.647 0.202699 128.647 0.162699C128.647 0.134699 128.624 5.92403 128.648 5.92403C129.515 5.7387 130.557 5.62537 131.852 5.62537C138.864 5.62537 139.028 8.94003 139.028 8.94003V19.1054H135.088V9.34937C135.088 9.34937 135.088 7.77203 131.852 7.77203C128.647 7.77203 128.647 9.37737 128.647 9.37737V19.096H124.705V0.168032" fill="white"/>
<path d="M66.28 13.672H55.8973C55.8973 13.672 55.872 15.9973 55.8893 15.9973C55.908 15.9987 55.8973 17.5853 59.1067 17.5853C62.34 17.5853 62.3453 15.9893 62.3453 15.9893L62.34 14.948H66.28V15.9813C66.28 15.9813 66.58 19.676 59.1067 19.676C51.632 19.676 51.9573 15.9813 51.9573 15.9813V9.53866C51.9573 9.53866 51.6587 5.84399 59.1067 5.84399C66.608 5.84399 66.28 9.56666 66.28 9.56666V13.672ZM55.892 9.61999L55.8973 11.0613H62.34C62.34 11.0613 62.3507 9.61466 62.352 9.61999C62.352 9.61999 62.3587 7.99066 59.1067 7.99066C55.896 7.99066 55.892 9.61999 55.892 9.61999Z" fill="white"/>
<path d="M34.9667 13.672H24.5853C24.5853 13.672 24.5573 15.9973 24.5747 15.9973C24.5947 15.9987 24.5853 17.5853 27.7893 17.5853C31.0253 17.5853 31.0333 15.9893 31.0333 15.9893L31.0253 14.948H34.9667V15.9813C34.9667 15.9813 35.2667 19.676 27.7893 19.676C20.3173 19.676 20.6453 15.9813 20.6453 15.9813V9.53866C20.6453 9.53866 20.344 5.84399 27.7893 5.84399C35.292 5.84399 34.9667 9.56666 34.9667 9.56666V13.672V13.672ZM24.5787 9.61999L24.5853 11.0613H31.0253C31.0253 11.0613 31.0387 9.61466 31.0387 9.61999C31.0387 9.61999 31.044 7.99066 27.7893 7.99066C24.5853 7.99066 24.5787 9.61999 24.5787 9.61999Z" fill="white"/>
</svg>
