<svg viewBox="0.61 4 130.04 16.76" fill="none" xmlns="http://www.w3.org/2000/svg">
<path d="M17.5576 16.3574C19.1118 16.3574 20.0568 15.0905 20.0568 13.3251V12.8059C19.8048 13.0136 19.4058 13.1174 18.8177 13.2213L17.6417 13.4289C16.4656 13.6366 15.9615 14.0728 15.9615 14.9451C15.9615 15.8797 16.5916 16.3574 17.5576 16.3574ZM20.0148 15.8382H19.9728C19.4058 17.0013 18.3557 17.8736 16.6756 17.8736C14.8904 17.8736 13.7354 16.8766 13.7354 15.2359C13.7354 14.322 14.0504 13.6159 14.7644 13.0966C15.3105 12.702 16.0665 12.432 17.1796 12.2659L18.5447 12.0789C19.6998 11.9128 20.0568 11.5597 20.0568 10.9159C20.0568 10.1059 19.4688 9.58664 18.3977 9.58664C17.2636 9.58664 16.4866 10.1059 16.1505 11.4559L14.1554 11.1028C14.7224 9.0051 16.2765 7.86279 18.4187 7.86279C20.7079 7.86279 22.136 9.02587 22.136 11.4559V15.0905C22.136 15.9213 22.409 16.212 23.1861 16.212C23.3961 16.212 23.5011 16.1913 23.6061 16.1705V17.6243C23.3961 17.7074 22.8501 17.7905 22.346 17.7905C20.8969 17.8113 20.0988 17.1466 20.0148 15.8382Z" fill="#49535F"></path>
<path d="M27.0294 12.8892C27.0294 14.883 28.0164 16.1084 29.5286 16.1084C31.0197 16.1084 31.9437 14.9246 31.9437 12.8684C31.9437 10.8538 30.9987 9.6284 29.5286 9.6284C27.9954 9.6284 27.0294 10.833 27.0294 12.8892ZM24.9082 8.09148H27.0294V10.1061H27.0714C27.6594 8.73533 28.7515 7.88379 30.2846 7.88379C32.6158 7.88379 34.1489 9.77379 34.1489 12.8684C34.1489 15.9838 32.5318 17.8738 30.2426 17.8738C28.7515 17.8738 27.6804 17.1884 27.1134 15.9215H27.0504V20.7607H24.9082V8.09148Z" fill="#49535F"></path>
<path d="M41.5628 17.583C41.0378 17.7491 40.4707 17.853 39.6937 17.853C37.6355 17.853 36.6905 16.9184 36.6905 14.8622V9.69067H34.7373V8.09144H36.7115V6.18067L38.8326 5.2876V8.09144H41.5418V9.69067H38.8326V14.5299C38.8326 15.7138 39.2317 16.1291 40.4077 16.1291C40.8698 16.1291 41.2268 16.0876 41.5418 16.0045V17.583H41.5628Z" fill="#49535F"></path>
<path d="M45.4479 17.6662H43.2847V8.09154H45.4479V17.6662ZM43.2217 4H45.5109V6.16H43.2217V4Z" fill="#49535F"></path>
<path d="M52.0003 9.64895C50.4041 9.64895 49.4801 10.7497 49.4801 12.8682C49.4801 14.9243 50.4041 16.1082 52.0003 16.1082C53.5754 16.1082 54.4994 15.0282 54.4994 12.8889C54.4994 10.7913 53.5334 9.64895 52.0003 9.64895ZM52.0213 7.86279C54.7725 7.86279 56.7046 9.64895 56.7046 12.8266C56.7046 16.1497 54.7305 17.8736 51.9793 17.8736C49.228 17.8736 47.2959 16.1705 47.2959 12.8889C47.2959 9.77356 49.249 7.86279 52.0213 7.86279Z" fill="#49535F"></path>
<path d="M60.6534 8.09148V10.0646H60.6954C61.3884 8.63148 62.6275 7.88379 64.0346 7.88379C66.0928 7.88379 67.3319 9.17148 67.3319 11.7884V17.6453H65.1897V12.3699C65.1897 10.4592 64.6017 9.6284 63.1736 9.6284C61.6615 9.6284 60.7164 10.7915 60.7164 12.8269V17.6661H58.5742V8.09148H60.6534Z" fill="#49535F"></path>
<path d="M77.7691 4.68555V10.0025H84.1536V4.68555H86.3588V17.6663H84.1536V11.934H77.7691V17.6663H75.543V4.68555H77.7691Z" fill="#49535F"></path>
<path d="M90.4962 11.9543H95.2215C95.1795 11.4559 95.0955 11.082 94.9275 10.7497C94.5915 10.002 93.8774 9.58664 92.9744 9.58664C91.6303 9.58664 90.7062 10.4589 90.4962 11.9543ZM93.0164 7.86279C94.7385 7.86279 96.0406 8.61049 96.7547 10.002C97.2167 10.9159 97.4267 11.9959 97.4057 13.3043H90.4752C90.5802 15.0697 91.5883 16.1289 93.1634 16.1289C94.4235 16.1289 95.2215 15.5682 95.6836 14.3428L97.5107 14.9036C96.7967 16.7936 95.2215 17.832 93.1004 17.832C90.1392 17.832 88.291 15.9005 88.291 12.8682C88.291 9.93972 90.2652 7.86279 93.0164 7.86279Z" fill="#49535F"></path>
<path d="M102.51 16.3574C104.064 16.3574 105.009 15.0905 105.009 13.3251V12.8059C104.757 13.0136 104.358 13.1174 103.77 13.2213L102.594 13.4289C101.418 13.6366 100.914 14.0728 100.914 14.9451C100.914 15.8797 101.544 16.3574 102.51 16.3574ZM104.967 15.8382H104.925C104.358 17.0013 103.308 17.8736 101.628 17.8736C99.8426 17.8736 98.6875 16.8766 98.6875 15.2359C98.6875 14.322 99.0025 13.6159 99.7166 13.0966C100.263 12.702 101.019 12.432 102.132 12.2659L103.497 12.0789C104.652 11.9128 105.009 11.5597 105.009 10.9159C105.009 10.1059 104.421 9.58664 103.35 9.58664C102.216 9.58664 101.439 10.1059 101.103 11.4559L99.1075 11.1028C99.6746 9.0051 101.229 7.86279 103.371 7.86279C105.66 7.86279 107.088 9.02587 107.088 11.4559V15.0905C107.088 15.9213 107.361 16.212 108.138 16.212C108.348 16.212 108.453 16.1913 108.558 16.1705V17.6243C108.348 17.7074 107.823 17.7905 107.298 17.7905C105.849 17.8113 105.03 17.1466 104.967 15.8382Z" fill="#49535F"></path>
<path d="M111.981 4H109.839V17.6662H111.981V4Z" fill="#49535F"></path>
<path d="M120.172 17.583C119.647 17.7491 119.08 17.853 118.303 17.853C116.245 17.853 115.3 16.9184 115.3 14.8622V9.69067H113.347V8.09144H115.321V6.18067L117.442 5.2876V8.09144H120.151V9.69067H117.442V14.5299C117.442 15.7138 117.841 16.1291 119.017 16.1291C119.479 16.1291 119.836 16.0876 120.151 16.0045V17.583H120.172Z" fill="#49535F"></path>
<path d="M124.015 4V9.98154H124.057C124.75 8.61077 125.968 7.88385 127.354 7.88385C129.412 7.88385 130.651 9.17154 130.651 11.7885V17.6454H128.509V12.37C128.509 10.4592 127.921 9.62846 126.493 9.62846C124.981 9.62846 124.036 10.7915 124.036 12.8269V17.6662H121.894V4H124.015Z" fill="#49535F"></path>
<path d="M6.84685 4.45703C9.87109 4.45703 11.8872 6.18088 12.4963 9.23395L10.2701 9.67011C9.85009 7.51011 8.65299 6.40934 6.80485 6.40934C4.43167 6.43011 2.89855 8.11242 2.89855 11.2693C2.89855 14.177 4.38967 15.9216 6.80485 15.9216C8.63199 15.9216 9.78708 15.0286 10.3961 12.8478L12.5593 13.367C11.8452 16.2124 9.80808 17.874 6.74185 17.874C3.00356 17.874 0.609375 15.444 0.609375 11.3109C0.609375 7.05318 3.27658 4.45703 6.84685 4.45703Z" fill="#49535F"></path>
<path d="M10.8797 19.3486H2.41602V20.7402H10.8797V19.3486Z" fill="#333C42"></path>
</svg>