<svg width="283" height="152" viewBox="0 0 283 152" fill="none" xmlns="http://www.w3.org/2000/svg">
<rect width="283" height="152" fill="#FB923C"/>
<path d="M160.75 86.7484V65.2514C161.944 64.9453 163.036 64.3286 163.914 63.4642C164.793 62.5997 165.427 61.5181 165.752 60.3293C166.078 59.1405 166.083 57.8867 165.767 56.6953C165.451 55.5039 164.826 54.4173 163.954 53.5457C163.083 52.6742 161.996 52.0487 160.805 51.7329C159.613 51.4171 158.359 51.4222 157.171 51.7476C155.982 52.073 154.9 52.7072 154.036 53.5858C153.171 54.4643 152.555 55.556 152.249 56.7499H130.752C130.445 55.556 129.829 54.4643 128.964 53.5858C128.1 52.7072 127.018 52.073 125.829 51.7476C124.641 51.4222 123.387 51.4171 122.195 51.7329C121.004 52.0487 119.917 52.6742 119.046 53.5457C118.174 54.4173 117.549 55.5039 117.233 56.6953C116.917 57.8867 116.922 59.1405 117.248 60.3293C117.573 61.5181 118.207 62.5997 119.086 63.4642C119.964 64.3286 121.056 64.9453 122.25 65.2514V86.7484C121.056 87.0546 119.964 87.6712 119.086 88.5357C118.207 89.4002 117.573 90.4817 117.248 91.6705C116.922 92.8594 116.917 94.1131 117.233 95.3045C117.549 96.496 118.174 97.5826 119.046 98.4541C119.917 99.3257 121.004 99.9511 122.195 100.267C123.387 100.583 124.641 100.578 125.829 100.252C127.018 99.9268 128.1 99.2926 128.964 98.4141C129.829 97.5355 130.445 96.4439 130.752 95.2499H152.249C152.555 96.4439 153.171 97.5355 154.036 98.4141C154.9 99.2926 155.982 99.9268 157.171 100.252C158.359 100.578 159.613 100.583 160.805 100.267C161.996 99.9511 163.083 99.3257 163.954 98.4541C164.826 97.5826 165.451 96.496 165.767 95.3045C166.083 94.1131 166.078 92.8594 165.752 91.6705C165.427 90.4817 164.793 89.4002 163.914 88.5357C163.036 87.6712 161.944 87.0546 160.75 86.7484ZM159 54.9999C159.692 54.9999 160.369 55.2052 160.945 55.5898C161.52 55.9744 161.969 56.521 162.234 57.1605C162.499 57.8001 162.568 58.5038 162.433 59.1827C162.298 59.8617 161.964 60.4853 161.475 60.9748C160.985 61.4643 160.362 61.7976 159.683 61.9327C159.004 62.0677 158.3 61.9984 157.661 61.7335C157.021 61.4686 156.474 61.02 156.09 60.4444C155.705 59.8688 155.5 59.1922 155.5 58.4999C155.501 57.572 155.87 56.6824 156.526 56.0262C157.182 55.3701 158.072 55.001 159 54.9999ZM120.5 58.4999C120.5 57.8077 120.705 57.131 121.09 56.5554C121.474 55.9799 122.021 55.5313 122.661 55.2663C123.3 55.0014 124.004 54.9321 124.683 55.0672C125.362 55.2022 125.985 55.5356 126.475 56.0251C126.964 56.5145 127.298 57.1382 127.433 57.8171C127.568 58.496 127.499 59.1998 127.234 59.8393C126.969 60.4789 126.52 61.0255 125.945 61.4101C125.369 61.7947 124.692 61.9999 124 61.9999C123.072 61.999 122.182 61.63 121.526 60.9738C120.87 60.3176 120.501 59.4279 120.5 58.4999ZM124 96.9999C123.308 96.9999 122.631 96.7947 122.056 96.4101C121.48 96.0255 121.031 95.4789 120.766 94.8393C120.502 94.1998 120.432 93.496 120.567 92.8171C120.702 92.1382 121.036 91.5145 121.525 91.0251C122.015 90.5356 122.638 90.2022 123.317 90.0672C123.996 89.9321 124.7 90.0014 125.339 90.2663C125.979 90.5313 126.526 90.9799 126.91 91.5554C127.295 92.131 127.5 92.8077 127.5 93.4999C127.499 94.4279 127.13 95.3175 126.474 95.9736C125.818 96.6298 124.928 96.9989 124 96.9999ZM152.249 91.7499H130.752C130.438 90.5467 129.809 89.4489 128.93 88.5697C128.051 87.6906 126.953 87.0618 125.75 86.7484V65.2514C126.953 64.9378 128.051 64.3091 128.93 63.4299C129.809 62.5507 130.438 61.453 130.752 60.2499H152.249C152.562 61.4531 153.191 62.5509 154.07 63.4301C154.949 64.3093 156.047 64.938 157.25 65.2514V86.7484C156.047 87.0617 154.949 87.6904 154.07 88.5696C153.191 89.4488 152.562 90.5467 152.249 91.7499ZM159 96.9999C158.308 96.9999 157.631 96.7947 157.056 96.4101C156.48 96.0255 156.031 95.4789 155.766 94.8393C155.502 94.1998 155.432 93.496 155.567 92.8171C155.702 92.1382 156.036 91.5145 156.525 91.0251C157.015 90.5356 157.638 90.2022 158.317 90.0672C158.996 89.9321 159.7 90.0014 160.339 90.2663C160.979 90.5313 161.526 90.9799 161.91 91.5554C162.295 92.131 162.5 92.8077 162.5 93.4999C162.499 94.4278 162.13 95.3173 161.474 95.9734C160.817 96.6295 159.928 96.9987 159 96.9999Z" fill="black" fill-opacity="0.3"/>
</svg>
