<svg width="16" height="16" viewBox="0 0 16 16" fill="none" xmlns="http://www.w3.org/2000/svg">
<path fill-rule="evenodd" clip-rule="evenodd" d="M7.74819 1.44305C7.90382 1.35232 8.09623 1.35232 8.25186 1.44305L11.2518 3.19209C11.4055 3.28168 11.5 3.44617 11.5 3.62404L11.5 6.8378L14.2519 8.44307C14.4055 8.53268 14.5 8.69713 14.5 8.87496L14.5 12.3749C14.5 12.5524 14.406 12.7165 14.2529 12.8063L11.2685 14.5563C11.1013 14.6543 10.8926 14.6469 10.7328 14.5374L8.04615 12.6955L5.28563 14.5406C5.12683 14.6468 4.92143 14.6532 4.75633 14.5571L1.74856 12.8072C1.59468 12.7176 1.50001 12.553 1.50001 12.375L1.50002 8.87497C1.50002 8.69694 1.59468 8.53234 1.74857 8.4428L4.50003 6.84194L4.50003 3.62404C4.50003 3.44617 4.59453 3.28168 4.74819 3.19209L7.74819 1.44305ZM5.50778 7.40766L5.50778 10.0511L7.94828 11.5113L10.5141 10.0452L10.5014 7.41298L8.00002 5.95385L5.50778 7.40766ZM10.5 3.91131L8.00002 2.45377L5.50003 3.91131V6.25448L7.74809 4.94311C7.90377 4.85229 8.09628 4.85229 8.25196 4.94311L10.5 6.25448L10.5 3.91131ZM13.5 12.0885L13.5 9.16215L11.5042 7.99796L11.5155 10.3322C11.5164 10.5125 11.4201 10.6793 11.2636 10.7687L8.94042 12.0962L11.0364 13.5331L13.5 12.0885ZM2.50001 12.0874L2.50001 9.16254L4.50778 7.99437L4.50778 10.3346C4.50778 10.5104 4.60015 10.6733 4.75105 10.7636L7.06527 12.1483L4.98943 13.5358L2.50001 12.0874Z" fill="black"/>
</svg>
