<svg width="16" height="16" viewBox="0 0 16 16" fill="none" xmlns="http://www.w3.org/2000/svg">
<path fill-rule="evenodd" clip-rule="evenodd" d="M8.24903 0.566429C8.40428 0.655598 8.5 0.820967 8.5 1V3.62948L10.7481 2.31811C10.9027 2.2279 11.0938 2.22726 11.249 2.31643C11.4043 2.4056 11.5 2.57097 11.5 2.75V9.46281L14.2519 11.0681C14.4055 11.1577 14.5 11.3222 14.5 11.5C14.5 11.6778 14.4055 11.8423 14.2519 11.9319L8.25194 15.4319C8.09729 15.5221 7.90622 15.5227 7.75097 15.4336C7.59572 15.3444 7.5 15.179 7.5 15V12.3705L5.25194 13.6819C5.09729 13.7721 4.90622 13.7727 4.75097 13.6836C4.59572 13.5944 4.5 13.429 4.5 13.25V10.6205L2.25194 11.9319C2.09729 12.0221 1.90622 12.0227 1.75097 11.9336C1.59572 11.8444 1.5 11.679 1.5 11.5V4.5C1.5 4.32217 1.59446 4.15772 1.74806 4.06811L7.74806 0.568111C7.90271 0.477901 8.09378 0.47726 8.24903 0.566429ZM8.5 11.5086C8.50011 11.5025 8.50011 11.4965 8.5 11.4905V8.87052L10.7407 10.1776C10.7458 10.1807 10.751 10.1837 10.7563 10.1867L13.0077 11.5L8.5 14.1295V11.5086ZM10.5 8.87948L8.25194 7.56811C8.09729 7.4779 7.90622 7.47726 7.75097 7.56643C7.59572 7.6556 7.5 7.82097 7.5 8V11.2128L5.5 12.3795V9.75855C5.50011 9.75255 5.50011 9.74653 5.5 9.74051V6.53719L8.24374 4.93667C8.24899 4.93373 8.25419 4.9307 8.25932 4.92758L10.5 3.62052V8.87948ZM7.5 1.87052V4.21281L4.74806 5.81811C4.59446 5.90772 4.5 6.07217 4.5 6.25V9.46281L2.5 10.6295V4.78719L7.5 1.87052Z" fill="black"/>
</svg>
