<svg width="36" height="37" viewBox="0 0 36 37" fill="none" xmlns="http://www.w3.org/2000/svg">
<g clip-path="url(#clip0_67_134238)">
<path d="M29.25 21.6277C26.7687 21.6277 24.75 23.6464 24.75 26.1277C24.75 26.8967 24.9617 27.6098 25.3032 28.2437C23.1924 29.7879 20.6389 30.6277 18 30.6277C11.1764 30.6277 5.625 25.0763 5.625 18.2527H3.375C3.375 26.3167 9.93577 32.8777 18 32.8777C21.2012 32.8777 24.2913 31.8247 26.8237 29.9059C27.5252 30.358 28.3552 30.6277 29.25 30.6277C31.7313 30.6277 33.75 28.609 33.75 26.1277C33.75 23.6464 31.7313 21.6277 29.25 21.6277ZM29.25 28.3777C28.0093 28.3777 27 27.368 27 26.1277C27 24.8874 28.0093 23.8777 29.25 23.8777C30.4907 23.8777 31.5 24.8874 31.5 26.1277C31.5 27.368 30.4907 28.3777 29.25 28.3777Z" fill="#3B82F6"/>
<path d="M18 3.62769C14.7988 3.62769 11.7087 4.68069 9.17629 6.59949C8.47485 6.14735 7.64482 5.87769 6.75 5.87769C4.2687 5.87769 2.25 7.89639 2.25 10.3777C2.25 12.859 4.2687 14.8777 6.75 14.8777C9.2313 14.8777 11.25 12.859 11.25 10.3777C11.25 9.60864 11.0383 8.89561 10.6968 8.26167C12.8076 6.7175 15.3611 5.87769 18 5.87769C24.8236 5.87769 30.375 11.4291 30.375 18.2527H32.625C32.625 10.1887 26.0642 3.62769 18 3.62769ZM6.75 12.6277C5.50935 12.6277 4.5 11.618 4.5 10.3777C4.5 9.13737 5.50935 8.12769 6.75 8.12769C7.99065 8.12769 9 9.13737 9 10.3777C9 11.618 7.99065 12.6277 6.75 12.6277Z" fill="#3B82F6"/>
</g>
<defs>
<clipPath id="clip0_67_134238">
<rect width="36" height="36" fill="white" transform="translate(0 0.252686)"/>
</clipPath>
</defs>
</svg>
