<svg width="32" height="32" viewBox="0 0 32 32" fill="none" xmlns="http://www.w3.org/2000/svg">
<g clip-path="url(#clip0_112_4939)">
<path fill-rule="evenodd" clip-rule="evenodd" d="M22 5H25C25.53 5.00153 26.0378 5.21274 26.4125 5.58748C26.7873 5.96222 26.9985 6.47004 27 7V12H25V7H22V10H10V7H7V28H14V30H7C6.47004 29.9985 5.96222 29.7873 5.58748 29.4125C5.21274 29.0378 5.00153 28.53 5 28V7C5.00153 6.47004 5.21274 5.96222 5.58748 5.58748C5.96222 5.21274 6.47004 5.00153 7 5H10V4C10.0015 3.47004 10.2127 2.96222 10.5875 2.58748C10.9622 2.21274 11.47 2.00153 12 2H20C20.53 2.00153 21.0378 2.21274 21.4125 2.58748C21.7873 2.96222 21.9985 3.47004 22 4V5ZM12 8H20V4H12V8ZM27.1597 31.7356C27.5846 31.9117 28.0401 32.0016 28.5 32.0003C29.1922 32.0003 29.8689 31.795 30.4445 31.4104C31.0201 31.0258 31.4687 30.4792 31.7336 29.8397C31.9985 29.2001 32.0678 28.4964 31.9327 27.8175C31.7976 27.1385 31.4643 26.5149 30.9748 26.0254L26.8474 21.8972C27.1061 20.7257 27.0353 19.5055 26.6429 18.3718C26.2505 17.238 25.5519 16.2351 24.6244 15.4741C23.6969 14.7131 22.5768 14.2239 21.3883 14.0605C20.1998 13.8972 18.9892 14.0661 17.8908 14.5486L16.5508 15.1367L20.707 19.2932C20.7999 19.386 20.8736 19.4963 20.9239 19.6176C20.9742 19.739 21.0001 19.869 21 20.0004C21 20.1317 20.974 20.2618 20.9237 20.3831C20.8733 20.5044 20.7995 20.6146 20.7065 20.7073C20.5161 20.8891 20.263 20.9906 19.9998 20.9906C19.7365 20.9906 19.4834 20.8891 19.293 20.7073L15.1367 16.5509L14.5488 17.8909C14.0662 18.9893 13.8972 20.1998 14.0605 21.3883C14.2238 22.5769 14.713 23.6969 15.474 24.6244C16.2349 25.5519 17.2379 26.2505 18.3716 26.6429C19.5053 27.0352 20.7255 27.106 21.897 26.8472L26.0249 30.9749C26.3491 31.3011 26.7348 31.5596 27.1597 31.7356ZM27.4393 29.5608L22.47 24.5916L21.8877 24.7803C21.2125 25 20.4948 25.0566 19.7935 24.9455C19.0921 24.8344 18.4271 24.5589 17.8527 24.1413C17.2784 23.7238 16.811 23.1762 16.489 22.5434C16.167 21.9105 15.9994 21.2104 16 20.5003C16 20.4164 16.0024 20.3328 16.0073 20.2496L17.8789 22.1211C18.4504 22.6668 19.21 22.9713 20.0002 22.9713C20.7903 22.9714 21.55 22.6671 22.1216 22.1216C22.4002 21.8431 22.6213 21.5124 22.7721 21.1485C22.9229 20.7845 23.0005 20.3944 23.0005 20.0004C23.0005 19.6065 22.9229 19.2164 22.7721 18.8524C22.6213 18.4884 22.4002 18.1577 22.1216 17.8792L20.25 16.0071C20.3327 16.0026 20.416 16.0003 20.5 16.0003C21.21 15.9997 21.9101 16.1673 22.5429 16.4893C23.1757 16.8113 23.7233 17.2786 24.1408 17.8529C24.5582 18.4273 24.8337 19.0923 24.9447 19.7936C25.0556 20.4949 24.9989 21.2126 24.7792 21.8877L24.5912 22.47L29.5604 27.44C29.6998 27.5792 29.8104 27.7445 29.8858 27.9264C29.9613 28.1084 30.0001 28.3034 30.0001 28.5004C30.0001 28.6974 29.9613 28.8924 29.8858 29.0744C29.8104 29.2563 29.6998 29.4216 29.5604 29.5608C29.2748 29.8337 28.8949 29.986 28.4999 29.986C28.1048 29.986 27.7249 29.8337 27.4393 29.5608Z" fill="black"/>
</g>
<defs>
<clipPath id="clip0_112_4939">
<rect width="32" height="32" fill="white"/>
</clipPath>
</defs>
</svg>
