<svg width="48" height="48" viewBox="0 0 48 48" fill="none" xmlns="http://www.w3.org/2000/svg">
<path fill-rule="evenodd" clip-rule="evenodd" d="M40.4999 23.9999V25.1399L43.3349 27.7349C43.8582 28.1937 44.2057 28.8202 44.3179 29.507C44.4301 30.1939 44.3 30.8984 43.9499 31.4999L40.5299 37.4999C40.2668 37.9555 39.8886 38.3339 39.4331 38.5972C38.9777 38.8605 38.461 38.9993 37.9349 38.9999C37.6089 39.0024 37.2846 38.9517 36.9749 38.8499L33.3449 37.6199C32.7104 38.0382 32.049 38.414 31.3649 38.7449L30.5999 42.5249C30.4627 43.2155 30.087 43.8358 29.5386 44.2773C28.9901 44.7188 28.3038 44.9534 27.5999 44.9399H20.5199C19.8159 44.9534 19.1297 44.7188 18.5812 44.2773C18.0328 43.8358 17.6571 43.2155 17.5199 42.5249L16.7549 38.7449C16.0757 38.4139 15.4192 38.0381 14.7899 37.6199L11.1449 38.8499C10.8352 38.9517 10.5109 39.0024 10.1849 38.9999C9.6588 38.9993 9.14211 38.8605 8.68663 38.5972C8.23116 38.3339 7.85293 37.9555 7.58989 37.4999L4.04989 31.4999C3.68373 30.8925 3.5446 30.175 3.65719 29.4748C3.76977 28.7746 4.12679 28.1369 4.66489 27.6749L7.49989 25.1549V23.9999V22.8599L4.66489 20.2649C4.14158 19.8061 3.79406 19.1796 3.68186 18.4927C3.56967 17.8059 3.69977 17.1014 4.04989 16.4999L7.58989 10.4999C7.85293 10.0443 8.23116 9.66585 8.68663 9.40257C9.14211 9.13929 9.6588 9.00042 10.1849 8.99988C10.5077 8.97792 10.8318 9.00831 11.1449 9.08988L14.7149 10.3799C15.3493 9.9616 16.0108 9.58578 16.6949 9.25488L17.4599 5.47488C17.5971 4.78428 17.9728 4.16394 18.5212 3.72243C19.0697 3.28092 19.7559 3.04639 20.4599 3.05988H27.4799C28.1838 3.04639 28.8701 3.28092 29.4186 3.72243C29.967 4.16394 30.3427 4.78428 30.4799 5.47488L31.2449 9.25488C31.9241 9.58586 32.5806 9.96169 33.2099 10.3799L36.8549 9.14988C37.1646 9.04805 37.4889 8.99738 37.8149 8.99988C38.341 9.00042 38.8577 9.13929 39.3131 9.40257C39.7686 9.66585 40.1468 10.0443 40.4099 10.4999L43.9499 16.4999C44.3213 17.1023 44.4678 17.8165 44.3635 18.5165C44.2592 19.2164 43.9108 19.857 43.3799 20.3249L40.4999 22.8449V23.9999ZM32.6699 34.2599L37.8149 35.9999L41.3549 29.9999L37.2749 26.2949C37.5522 24.7422 37.5522 23.1526 37.2749 21.5999L41.3549 17.9999L37.8149 11.9999L32.6549 13.6799C31.4463 12.6736 30.0773 11.8775 28.6049 11.3249L27.5399 5.99988H20.4599L19.3949 11.3849C17.9108 11.9223 16.5343 12.7197 15.3299 13.7399L10.1849 11.9999L6.64489 17.9999L10.7249 21.7049C10.4475 23.2576 10.4475 24.8472 10.7249 26.3999L6.64489 29.9999L10.1849 35.9999L15.3449 34.3199C16.5535 35.3262 17.9225 36.1222 19.3949 36.6749L20.4599 41.9999H27.5399L28.6049 36.6149C30.089 36.0775 31.4655 35.28 32.6699 34.2599ZM18.9997 31.4832C20.4798 32.4722 22.2198 33 23.9999 33C25.1851 33.012 26.3609 32.7875 27.4582 32.3394C28.5556 31.8914 29.5525 31.2289 30.3907 30.3908C31.2288 29.5526 31.8913 28.5557 32.3393 27.4583C32.7873 26.361 33.0119 25.1852 32.9999 24C32.9999 22.22 32.472 20.4799 31.4831 18.9999C30.4942 17.5198 29.0886 16.3663 27.444 15.6851C25.7995 15.0039 23.9899 14.8257 22.2441 15.1729C20.4982 15.5202 18.8946 16.3774 17.6359 17.636C16.3772 18.8947 15.5201 20.4984 15.1728 22.2442C14.8255 23.99 15.0038 25.7996 15.685 27.4442C16.3662 29.0887 17.5197 30.4943 18.9997 31.4832ZM21.6821 18.4191C22.4184 18.1241 23.2069 17.9815 23.9999 18C24.7929 17.9815 25.5814 18.1241 26.3177 18.4191C27.054 18.7141 27.7228 19.1554 28.2837 19.7162C28.8445 20.2771 29.2858 20.9459 29.5808 21.6822C29.8758 22.4185 30.0184 23.207 29.9999 24C30.0184 24.793 29.8758 25.5815 29.5808 26.3178C29.2858 27.0541 28.8445 27.7229 28.2837 28.2838C27.7228 28.8447 27.054 29.2859 26.3177 29.5809C25.5814 29.8759 24.7929 30.0185 23.9999 30C23.2069 30.0185 22.4184 29.8759 21.6821 29.5809C20.9458 29.2859 20.277 28.8447 19.7161 28.2838C19.1552 27.7229 18.714 27.0541 18.419 26.3178C18.124 25.5815 17.9814 24.793 17.9999 24C17.9814 23.207 18.124 22.4185 18.419 21.6822C18.714 20.9459 19.1552 20.2771 19.7161 19.7162C20.277 19.1554 20.9458 18.7141 21.6821 18.4191Z" fill="#F97316"/>
</svg>
