<svg width="596" height="362" viewBox="0 0 596 362" fill="none" xmlns="http://www.w3.org/2000/svg">
<rect x="1" y="361" width="360" height="56.5337" rx="11.3104" transform="rotate(-90 1 361)" fill="#E5E5E5"/>
<rect x="1" y="361" width="360" height="56.5337" rx="11.3104" transform="rotate(-90 1 361)" stroke="#171717"/>
<path d="M33.7668 227.953L33.7668 229.397L24.8488 229.397L24.8488 225.564C24.8488 223.929 25.9092 222.97 27.5319 222.97C29.1545 222.97 30.215 223.929 30.215 225.564L30.215 227.953L33.7668 227.953ZM26.1137 227.953L28.9501 227.953L28.9501 225.653C28.9501 224.925 28.554 224.491 27.8385 224.491L27.2252 224.491C26.5097 224.491 26.1137 224.925 26.1137 225.653L26.1137 227.953ZM30.1639 219.176L33.7668 219.176L33.7668 220.62L24.8488 220.62L24.8488 216.774C24.8488 215.177 25.8837 214.193 27.5319 214.193C28.7968 214.193 29.6783 214.794 30.0105 215.931L33.7668 214.002L33.7668 215.612L30.1639 217.4L30.1639 219.176ZM28.9501 219.176L28.9501 216.877C28.9501 216.148 28.554 215.714 27.8385 215.714L27.2252 215.714C26.5097 215.714 26.1137 216.148 26.1137 216.877L26.1137 219.176L28.9501 219.176ZM33.7668 205.77L33.7668 211.481L24.8488 211.481L24.8488 205.77L26.1265 205.77L26.1265 210.038L28.6051 210.038L28.6051 206.166L29.8828 206.166L29.8828 210.038L32.4892 210.038L32.4892 205.77L33.7668 205.77ZM30.5855 199.909L30.5855 203.448L29.1673 203.448L29.1673 199.909L30.5855 199.909ZM33.7668 195.992L26.1265 195.992L26.1265 198.65L24.8488 198.65L24.8488 191.891L26.1265 191.891L26.1265 194.549L33.7668 194.549L33.7668 195.992ZM30.1639 188.273L33.7668 188.273L33.7668 189.717L24.8488 189.717L24.8488 185.871C24.8488 184.274 25.8837 183.291 27.5319 183.291C28.7968 183.291 29.6783 183.891 30.0105 185.028L33.7668 183.099L33.7668 184.709L30.1639 186.498L30.1639 188.273ZM28.9501 188.273L28.9501 185.974C28.9501 185.245 28.554 184.811 27.8385 184.811L27.2252 184.811C26.5097 184.811 26.1137 185.245 26.1137 185.974L26.1137 188.273L28.9501 188.273ZM33.7668 173.5L33.7668 175.008L31.3521 175.813L31.3521 179.148L33.7668 179.927L33.7668 181.396L24.8488 178.355L24.8488 176.541L33.7668 173.5ZM30.1127 176.171L26.1776 177.448L26.1776 177.512L30.1127 178.803L30.1127 176.171ZM33.7668 167.852L33.7668 171.736L32.5914 171.736L32.5914 170.522L26.0242 170.522L26.0242 171.736L24.8488 171.736L24.8488 167.852L26.0242 167.852L26.0242 169.078L32.5914 169.078L32.5914 167.852L33.7668 167.852ZM33.7668 159.956L28.8351 162.869L26.9442 163.852L26.9442 163.891L33.7668 163.891L33.7668 165.271L24.8488 165.271L24.8488 163.661L29.7806 160.748L31.6715 159.764L31.6715 159.726L24.8488 159.726L24.8488 158.346L33.7668 158.346L33.7668 159.956ZM33.7668 151.882L33.7668 155.766L32.5914 155.766L32.5914 154.553L26.0242 154.553L26.0242 155.766L24.8488 155.766L24.8488 151.882L26.0242 151.882L26.0242 153.109L32.5914 153.109L32.5914 151.882L33.7668 151.882ZM33.7668 143.986L28.8351 146.899L26.9442 147.883L26.9442 147.921L33.7668 147.921L33.7668 149.301L24.8488 149.301L24.8488 147.691L29.7806 144.778L31.6715 143.795L31.6715 143.756L24.8488 143.756L24.8488 142.376L33.7668 142.376L33.7668 143.986ZM33.7668 133.677L32.4125 133.677L32.4125 133.728C33.2686 133.907 33.9202 134.776 33.9202 136.13C33.9202 138.251 32.2975 139.81 29.3078 139.81C26.3309 139.81 24.6955 138.251 24.6955 135.913C24.6955 134.316 25.4493 133.205 26.7014 132.591L27.3913 133.767C26.5609 134.112 25.9859 134.827 25.9859 135.913C25.9859 137.319 26.9442 138.264 28.5796 138.264L30.0361 138.264C31.6715 138.264 32.6297 137.319 32.6297 135.913C32.6297 134.789 32.0548 133.805 30.9432 133.805L30.2533 133.805L30.2533 135.645L29.014 135.645L29.014 132.412L33.7668 132.412L33.7668 133.677Z" fill="#171717"/>
<path d="M84.1676 180.718C84.3235 180.874 84.3235 181.126 84.1676 181.282L81.6267 183.823C81.4707 183.979 81.2179 183.979 81.062 183.823C80.9061 183.667 80.9061 183.415 81.062 183.259L83.3206 181L81.062 178.741C80.9061 178.585 80.9061 178.333 81.062 178.177C81.2179 178.021 81.4707 178.021 81.6267 178.177L84.1676 180.718ZM67.116 180.601L83.8853 180.601L83.8853 181.399L67.116 181.399L67.116 180.601Z" fill="black"/>
<rect x="91.3853" y="1.5" width="413" height="359" rx="19.5" fill="#F5F5F5"/>
<rect x="91.3853" y="1.5" width="413" height="359" rx="19.5" stroke="#171717"/>
<rect x="114.885" y="29" width="111" height="304" rx="11.3104" fill="#FB923C"/>
<rect x="144.832" y="129.364" width="51.1063" height="51.1063" rx="15.3319" fill="#FB923C"/>
<path d="M182.68 159.872L179.009 156.23L179.652 155.588C179.83 155.409 179.93 155.166 179.93 154.913C179.93 154.66 179.83 154.417 179.652 154.237L173.902 148.488C173.723 148.309 173.48 148.209 173.226 148.209C172.973 148.209 172.73 148.309 172.551 148.488L171.794 149.245L165.316 142.738C165.137 142.56 164.894 142.46 164.641 142.46C164.387 142.46 164.145 142.56 163.965 142.738L160.132 146.571L160.017 146.715L156.184 152.464C156.061 152.648 156.005 152.869 156.026 153.089C156.047 153.309 156.144 153.515 156.299 153.672L159.174 156.547C159.263 156.636 159.369 156.708 159.486 156.756C159.602 156.805 159.728 156.83 159.854 156.83C159.981 156.83 160.106 156.805 160.223 156.756C160.339 156.708 160.445 156.636 160.535 156.547L164.636 152.436L166.639 154.438L162.039 159.028C161.861 159.208 161.76 159.451 161.76 159.704C161.76 159.957 161.861 160.2 162.039 160.38L163.955 162.296C164.044 162.387 164.15 162.459 164.267 162.508C164.384 162.557 164.509 162.583 164.636 162.583C164.812 162.582 164.984 162.533 165.134 162.44L169.283 159.948L171.621 162.296C171.801 162.474 172.044 162.575 172.297 162.575C172.55 162.575 172.793 162.474 172.973 162.296L173.615 161.625L177.246 165.295C177.966 166.015 178.941 166.419 179.958 166.419C180.975 166.419 181.951 166.015 182.67 165.295C183.389 164.576 183.793 163.601 183.793 162.583C183.793 161.566 183.389 160.591 182.67 159.872H182.68ZM164.636 149.724L159.845 154.515L158.206 152.876L161.55 147.855L164.636 144.77L170.472 150.605L167.99 153.078L164.636 149.724ZM172.302 160.265L169.58 157.543L164.789 160.418L164.08 159.709L173.26 150.519L177.658 154.918L172.302 160.265ZM181.328 163.935C181.15 164.113 180.939 164.254 180.706 164.351C180.474 164.447 180.224 164.497 179.973 164.497C179.721 164.497 179.471 164.447 179.239 164.351C179.006 164.254 178.795 164.113 178.617 163.935L174.975 160.303L177.687 157.591L181.328 161.223C181.507 161.401 181.648 161.612 181.744 161.845C181.841 162.077 181.891 162.327 181.891 162.579C181.891 162.831 181.841 163.08 181.744 163.313C181.648 163.545 181.507 163.757 181.328 163.935Z" fill="black"/>
<path d="M151.716 212.636V202.864H153.802L156.308 207.638H156.364L158.842 202.864H160.844V212.636H159.094V205.622H159.038L158.282 207.176L156.28 210.872L154.278 207.176L153.522 205.622H153.466V212.636H151.716ZM165.932 212.804C163.846 212.804 162.544 211.32 162.544 208.968C162.544 206.63 163.846 205.16 165.932 205.16C168.032 205.16 169.334 206.63 169.334 208.968C169.334 211.32 168.032 212.804 165.932 212.804ZM165.932 211.362C166.87 211.362 167.458 210.76 167.458 209.654V208.296C167.458 207.204 166.87 206.602 165.932 206.602C165.008 206.602 164.42 207.204 164.42 208.296V209.654C164.42 210.76 165.008 211.362 165.932 211.362ZM175.458 212.636V211.418H175.388C175.122 212.244 174.338 212.804 173.372 212.804C171.538 212.804 170.516 211.418 170.516 208.968C170.516 206.532 171.538 205.16 173.372 205.16C174.338 205.16 175.136 205.692 175.388 206.532H175.458V202.276H177.25V212.636H175.458ZM173.946 211.32C174.8 211.32 175.458 210.886 175.458 210.13V207.806C175.458 207.092 174.8 206.63 173.946 206.63C173.022 206.63 172.392 207.316 172.392 208.352V209.612C172.392 210.648 173.022 211.32 173.946 211.32ZM182.271 212.804C180.115 212.804 178.827 211.306 178.827 208.968C178.827 206.658 180.073 205.16 182.215 205.16C184.497 205.16 185.547 206.84 185.547 208.842V209.43H180.689V209.612C180.689 210.662 181.291 211.376 182.467 211.376C183.349 211.376 183.881 210.956 184.329 210.382L185.295 211.46C184.693 212.286 183.629 212.804 182.271 212.804ZM182.243 206.504C181.305 206.504 180.689 207.204 180.689 208.212V208.324H183.685V208.198C183.685 207.19 183.167 206.504 182.243 206.504ZM189.881 212.636H188.915C187.697 212.636 187.123 211.992 187.123 210.872V202.276H188.915V211.208H189.881V212.636ZM140.346 229.804C138.19 229.804 136.902 228.306 136.902 225.968C136.902 223.658 138.148 222.16 140.29 222.16C142.572 222.16 143.622 223.84 143.622 225.842V226.43H138.764V226.612C138.764 227.662 139.366 228.376 140.542 228.376C141.424 228.376 141.956 227.956 142.404 227.382L143.37 228.46C142.768 229.286 141.704 229.804 140.346 229.804ZM140.318 223.504C139.38 223.504 138.764 224.204 138.764 225.212V225.324H141.76V225.198C141.76 224.19 141.242 223.504 140.318 223.504ZM148.772 229.636H146.644L144.208 222.328H145.972L146.994 225.478L147.708 228.082H147.806L148.52 225.478L149.514 222.328H151.222L148.772 229.636ZM154.1 229.804C152.616 229.804 151.776 228.95 151.776 227.648C151.776 226.15 152.91 225.408 154.898 225.408H156.144V224.876C156.144 224.064 155.738 223.588 154.786 223.588C153.946 223.588 153.47 224.008 153.12 224.512L152.056 223.56C152.588 222.72 153.442 222.16 154.912 222.16C156.886 222.16 157.936 223.098 157.936 224.764V228.208H158.664V229.636H157.67C156.9 229.636 156.424 229.132 156.312 228.376H156.228C155.99 229.314 155.192 229.804 154.1 229.804ZM154.702 228.502C155.5 228.502 156.144 228.138 156.144 227.452V226.486H154.996C154.058 226.486 153.596 226.808 153.596 227.382V227.62C153.596 228.208 154.002 228.502 154.702 228.502ZM162.873 229.636H161.907C160.689 229.636 160.115 228.992 160.115 227.872V219.276H161.907V228.208H162.873V229.636ZM168.598 229.636V228.418H168.528C168.276 229.146 167.688 229.804 166.484 229.804C164.986 229.804 164.146 228.768 164.146 226.948V222.328H165.938V226.766C165.938 227.774 166.316 228.32 167.17 228.32C167.884 228.32 168.598 227.942 168.598 227.158V222.328H170.39V229.636H168.598ZM174.266 229.804C172.782 229.804 171.942 228.95 171.942 227.648C171.942 226.15 173.076 225.408 175.064 225.408H176.31V224.876C176.31 224.064 175.904 223.588 174.952 223.588C174.112 223.588 173.636 224.008 173.286 224.512L172.222 223.56C172.754 222.72 173.608 222.16 175.078 222.16C177.052 222.16 178.102 223.098 178.102 224.764V228.208H178.83V229.636H177.836C177.066 229.636 176.59 229.132 176.478 228.376H176.394C176.156 229.314 175.358 229.804 174.266 229.804ZM174.868 228.502C175.666 228.502 176.31 228.138 176.31 227.452V226.486H175.162C174.224 226.486 173.762 226.808 173.762 227.382V227.62C173.762 228.208 174.168 228.502 174.868 228.502ZM182.508 229.636C181.276 229.636 180.618 228.964 180.618 227.774V223.756H179.54V222.328H180.1C180.632 222.328 180.8 222.076 180.8 221.572V220.326H182.41V222.328H183.908V223.756H182.41V228.208H183.796V229.636H182.508ZM186.358 221.264C185.616 221.264 185.308 220.886 185.308 220.368V220.088C185.308 219.57 185.616 219.192 186.358 219.192C187.086 219.192 187.408 219.57 187.408 220.088V220.368C187.408 220.886 187.086 221.264 186.358 221.264ZM185.462 229.636V222.328H187.254V229.636H185.462ZM192.229 229.804C190.143 229.804 188.841 228.32 188.841 225.968C188.841 223.63 190.143 222.16 192.229 222.16C194.329 222.16 195.631 223.63 195.631 225.968C195.631 228.32 194.329 229.804 192.229 229.804ZM192.229 228.362C193.167 228.362 193.755 227.76 193.755 226.654V225.296C193.755 224.204 193.167 223.602 192.229 223.602C191.305 223.602 190.717 224.204 190.717 225.296V226.654C190.717 227.76 191.305 228.362 192.229 228.362ZM199.012 229.636H197.22V222.328H199.012V223.546H199.082C199.376 222.762 199.992 222.16 201.126 222.16C202.624 222.16 203.464 223.196 203.464 225.016V229.636H201.672V225.198C201.672 224.162 201.322 223.63 200.468 223.63C199.726 223.63 199.012 224.022 199.012 224.806V229.636Z" fill="#171717"/>
<rect x="241.385" y="29.5" width="240" height="91" rx="11.3104" fill="#F5F5F5"/>
<rect x="241.385" y="29.5" width="240" height="91" rx="11.3104" stroke="#171717" stroke-dasharray="6 3"/>
<path d="M302.638 49.4468H280.748C272.68 49.4468 266.14 55.987 266.14 64.0547V85.9453C266.14 94.013 272.68 100.553 280.748 100.553H302.638C310.706 100.553 317.246 94.013 317.246 85.9453V64.0547C317.246 55.987 310.706 49.4468 302.638 49.4468Z" fill="#FBBF24"/>
<rect x="277.373" y="61.2779" width="11.2408" height="11.2408" stroke="#171717" stroke-width="2.04555"/>
<rect x="294.751" y="61.278" width="11.2408" height="11.2408" stroke="#171717" stroke-width="2.04555"/>
<rect x="277.373" y="78.6552" width="11.2408" height="11.2408" stroke="#171717" stroke-width="2.04555"/>
<rect x="294.751" y="78.6554" width="11.2408" height="11.2408" stroke="#171717" stroke-width="2.04555"/>
<path d="M339.891 63.12C338.071 63.12 336.961 61.85 336.961 59.51C336.961 57.17 338.071 55.9 339.891 55.9C341.101 55.9 341.911 56.44 342.381 57.48L341.431 58C341.191 57.34 340.701 56.91 339.891 56.91C338.821 56.91 338.161 57.69 338.161 58.98V60.04C338.161 61.33 338.821 62.11 339.891 62.11C340.721 62.11 341.251 61.63 341.501 60.95L342.411 61.5C341.941 62.51 341.101 63.12 339.891 63.12ZM349.719 63H348.539L347.909 61.11H345.299L344.689 63H343.539L345.919 56.02H347.339L349.719 63ZM347.629 60.14L346.629 57.06H346.579L345.569 60.14H347.629ZM352.53 63H351.4V56.02H354.4C355.68 56.02 356.43 56.85 356.43 58.12C356.43 59.39 355.68 60.22 354.4 60.22H352.53V63ZM352.53 57.01V59.23H354.33C354.9 59.23 355.24 58.92 355.24 58.36V57.88C355.24 57.32 354.9 57.01 354.33 57.01H352.53ZM363.243 63H362.063L361.433 61.11H358.823L358.213 63H357.063L359.443 56.02H360.863L363.243 63ZM361.153 60.14L360.153 57.06H360.103L359.093 60.14H361.153ZM364.925 63V56.02H368.015C369.165 56.02 369.875 56.73 369.875 57.82C369.875 58.87 369.235 59.25 368.665 59.3V59.36C369.235 59.38 370.125 59.82 370.125 60.99C370.125 62.12 369.355 63 368.325 63H364.925ZM366.055 59.91V62.03H367.995C368.575 62.03 368.935 61.71 368.935 61.14V60.8C368.935 60.23 368.575 59.91 367.995 59.91H366.055ZM366.055 56.99V58.97H367.805C368.355 58.97 368.685 58.67 368.685 58.14V57.82C368.685 57.29 368.355 56.99 367.805 56.99H366.055ZM374.856 63H371.816V62.08H372.766V56.94H371.816V56.02H374.856V56.94H373.896V62.08H374.856V63ZM380.847 63H376.877V56.02H378.007V62H380.847V63ZM385.343 63H382.303V62.08H383.253V56.94H382.303V56.02H385.343V56.94H384.383V62.08H385.343V63ZM388.765 63V57.02H386.685V56.02H391.975V57.02H389.895V63H388.765ZM396.496 63H395.366V60.25L392.966 56.02H394.256L395.956 59.13H395.986L397.676 56.02H398.916L396.496 60.23V63ZM407.921 63H403.451V56.02H407.921V57.02H404.581V58.96H407.611V59.96H404.581V62H407.921V63ZM409.328 63L411.588 59.43L409.408 56.02H410.738L412.328 58.62H412.348L413.958 56.02H415.208L413.008 59.42L415.298 63H413.968L412.278 60.22H412.248L410.578 63H409.328ZM418.095 63H416.965V56.02H419.965C421.245 56.02 421.995 56.85 421.995 58.12C421.995 59.39 421.245 60.22 419.965 60.22H418.095V63ZM418.095 57.01V59.23H419.895C420.465 59.23 420.805 58.92 420.805 58.36V57.88C420.805 57.32 420.465 57.01 419.895 57.01H418.095ZM428.808 63H427.628L426.998 61.11H424.388L423.778 63H422.628L425.008 56.02H426.428L428.808 63ZM426.718 60.14L425.718 57.06H425.668L424.658 60.14H426.718ZM434.649 63L432.369 59.14L431.599 57.66H431.569V63H430.489V56.02H431.749L434.029 59.88L434.799 61.36H434.829V56.02H435.909V63H434.649ZM440.318 63.12C439.148 63.12 438.348 62.66 437.768 61.94L438.548 61.21C439.038 61.81 439.618 62.12 440.378 62.12C441.268 62.12 441.728 61.68 441.728 61.01C441.728 60.47 441.448 60.16 440.638 60L440.018 59.89C438.668 59.64 437.978 59.01 437.978 57.9C437.978 56.66 438.938 55.9 440.418 55.9C441.468 55.9 442.238 56.28 442.778 56.97L441.988 57.67C441.628 57.2 441.128 56.9 440.358 56.9C439.558 56.9 439.098 57.23 439.098 57.84C439.098 58.42 439.458 58.67 440.208 58.82L440.828 58.95C442.218 59.22 442.848 59.84 442.848 60.95C442.848 62.25 441.918 63.12 440.318 63.12ZM447.545 63H444.505V62.08H445.455V56.94H444.505V56.02H447.545V56.94H446.585V62.08H447.545V63ZM452.265 63.12C450.445 63.12 449.255 61.86 449.255 59.51C449.255 57.16 450.445 55.9 452.265 55.9C454.085 55.9 455.275 57.16 455.275 59.51C455.275 61.86 454.085 63.12 452.265 63.12ZM452.265 62.11C453.345 62.11 454.065 61.33 454.065 60.06V58.96C454.065 57.69 453.345 56.91 452.265 56.91C451.185 56.91 450.465 57.69 450.465 58.96V60.06C450.465 61.33 451.185 62.11 452.265 62.11ZM461.444 63L459.164 59.14L458.394 57.66H458.364V63H457.284V56.02H458.544L460.824 59.88L461.594 61.36H461.624V56.02H462.704V63H461.444ZM340.597 79.168C338.931 79.168 337.783 78.51 336.957 77.544L338.203 76.34C338.875 77.124 339.701 77.544 340.709 77.544C341.843 77.544 342.431 76.998 342.431 76.172C342.431 75.514 342.123 75.108 341.101 74.926L340.177 74.786C338.203 74.478 337.251 73.54 337.251 71.944C337.251 70.194 338.609 69.06 340.793 69.06C342.263 69.06 343.355 69.564 344.139 70.502L342.879 71.692C342.403 71.09 341.731 70.684 340.695 70.684C339.645 70.684 339.099 71.104 339.099 71.832C339.099 72.574 339.519 72.882 340.457 73.05L341.367 73.218C343.341 73.568 344.265 74.45 344.265 76.06C344.265 77.908 342.935 79.168 340.597 79.168ZM350.373 79V77.782H350.303C350.051 78.51 349.463 79.168 348.259 79.168C346.761 79.168 345.921 78.132 345.921 76.312V71.692H347.713V76.13C347.713 77.138 348.091 77.684 348.945 77.684C349.659 77.684 350.373 77.306 350.373 76.522V71.692H352.165V79H350.373ZM354.236 81.8V71.692H356.028V72.896H356.084C356.35 72.056 357.134 71.524 358.1 71.524C359.948 71.524 360.97 72.896 360.97 75.332C360.97 77.782 359.948 79.168 358.1 79.168C357.134 79.168 356.364 78.608 356.084 77.782H356.028V81.8H354.236ZM357.526 77.684C358.45 77.684 359.094 77.012 359.094 75.976V74.716C359.094 73.68 358.45 72.994 357.526 72.994C356.672 72.994 356.028 73.456 356.028 74.17V76.494C356.028 77.25 356.672 77.684 357.526 77.684ZM365.584 79.168C363.428 79.168 362.14 77.67 362.14 75.332C362.14 73.022 363.386 71.524 365.528 71.524C367.81 71.524 368.86 73.204 368.86 75.206V75.794H364.002V75.976C364.002 77.026 364.604 77.74 365.78 77.74C366.662 77.74 367.194 77.32 367.642 76.746L368.608 77.824C368.006 78.65 366.942 79.168 365.584 79.168ZM365.556 72.868C364.618 72.868 364.002 73.568 364.002 74.576V74.688H366.998V74.562C366.998 73.554 366.48 72.868 365.556 72.868ZM372.229 79H370.437V71.692H372.229V73.204H372.299C372.481 72.434 373.069 71.692 374.231 71.692H374.623V73.386H374.063C372.859 73.386 372.229 73.722 372.229 74.52V79ZM379.738 79H377.61L375.174 71.692H376.938L377.96 74.842L378.674 77.446H378.772L379.486 74.842L380.48 71.692H382.188L379.738 79ZM384.28 70.628C383.538 70.628 383.23 70.25 383.23 69.732V69.452C383.23 68.934 383.538 68.556 384.28 68.556C385.008 68.556 385.33 68.934 385.33 69.452V69.732C385.33 70.25 385.008 70.628 384.28 70.628ZM383.384 79V71.692H385.176V79H383.384ZM389.647 79.168C388.261 79.168 387.351 78.664 386.623 77.824L387.715 76.76C388.247 77.376 388.891 77.754 389.717 77.754C390.571 77.754 390.935 77.432 390.935 76.914C390.935 76.494 390.683 76.228 390.039 76.144L389.311 76.046C387.743 75.85 386.875 75.164 386.875 73.834C386.875 72.42 387.981 71.524 389.647 71.524C391.075 71.524 391.803 71.944 392.503 72.672L391.453 73.722C391.033 73.274 390.417 72.938 389.703 72.938C388.933 72.938 388.597 73.246 388.597 73.694C388.597 74.184 388.863 74.408 389.549 74.52L390.291 74.618C391.887 74.842 392.657 75.556 392.657 76.774C392.657 78.188 391.467 79.168 389.647 79.168ZM397.194 79.168C395.038 79.168 393.75 77.67 393.75 75.332C393.75 73.022 394.996 71.524 397.138 71.524C399.42 71.524 400.47 73.204 400.47 75.206V75.794H395.612V75.976C395.612 77.026 396.214 77.74 397.39 77.74C398.272 77.74 398.804 77.32 399.252 76.746L400.218 77.824C399.616 78.65 398.552 79.168 397.194 79.168ZM397.166 72.868C396.228 72.868 395.612 73.568 395.612 74.576V74.688H398.608V74.562C398.608 73.554 398.09 72.868 397.166 72.868ZM406.582 79V77.782H406.512C406.246 78.608 405.462 79.168 404.496 79.168C402.662 79.168 401.64 77.782 401.64 75.332C401.64 72.896 402.662 71.524 404.496 71.524C405.462 71.524 406.26 72.056 406.512 72.896H406.582V68.64H408.374V79H406.582ZM405.07 77.684C405.924 77.684 406.582 77.25 406.582 76.494V74.17C406.582 73.456 405.924 72.994 405.07 72.994C404.146 72.994 403.516 73.68 403.516 74.716V75.976C403.516 77.012 404.146 77.684 405.07 77.684ZM339.407 96H337.559V86.228H343.845V87.866H339.407V90.232H343.271V91.87H339.407V96ZM346.423 87.628C345.681 87.628 345.373 87.25 345.373 86.732V86.452C345.373 85.934 345.681 85.556 346.423 85.556C347.151 85.556 347.473 85.934 347.473 86.452V86.732C347.473 87.25 347.151 87.628 346.423 87.628ZM345.527 96V88.692H347.319V96H345.527ZM351.188 96H349.396V88.692H351.188V89.91H351.258C351.552 89.126 352.168 88.524 353.302 88.524C354.8 88.524 355.64 89.56 355.64 91.38V96H353.848V91.562C353.848 90.526 353.498 89.994 352.644 89.994C351.902 89.994 351.188 90.386 351.188 91.17V96ZM360.58 96.168C358.424 96.168 357.136 94.67 357.136 92.332C357.136 90.022 358.382 88.524 360.524 88.524C362.806 88.524 363.856 90.204 363.856 92.206V92.794H358.998V92.976C358.998 94.026 359.6 94.74 360.776 94.74C361.658 94.74 362.19 94.32 362.638 93.746L363.604 94.824C363.002 95.65 361.938 96.168 360.58 96.168ZM360.552 89.868C359.614 89.868 358.998 90.568 358.998 91.576V91.688H361.994V91.562C361.994 90.554 361.476 89.868 360.552 89.868ZM369.35 92.626H365.346V90.848H369.35V92.626ZM377.28 87.866H374.508V96H372.66V87.866H369.888V86.228H377.28V87.866ZM382.406 96V94.782H382.336C382.084 95.51 381.496 96.168 380.292 96.168C378.794 96.168 377.954 95.132 377.954 93.312V88.692H379.746V93.13C379.746 94.138 380.124 94.684 380.978 94.684C381.692 94.684 382.406 94.306 382.406 93.522V88.692H384.198V96H382.406ZM388.061 96H386.269V88.692H388.061V89.91H388.131C388.425 89.126 389.041 88.524 390.175 88.524C391.673 88.524 392.513 89.56 392.513 91.38V96H390.721V91.562C390.721 90.526 390.371 89.994 389.517 89.994C388.775 89.994 388.061 90.386 388.061 91.17V96ZM395.395 87.628C394.653 87.628 394.345 87.25 394.345 86.732V86.452C394.345 85.934 394.653 85.556 395.395 85.556C396.123 85.556 396.445 85.934 396.445 86.452V86.732C396.445 87.25 396.123 87.628 395.395 87.628ZM394.499 96V88.692H396.291V96H394.499ZM400.161 96H398.369V88.692H400.161V89.91H400.231C400.525 89.126 401.141 88.524 402.275 88.524C403.773 88.524 404.613 89.56 404.613 91.38V96H402.821V91.562C402.821 90.526 402.471 89.994 401.617 89.994C400.875 89.994 400.161 90.386 400.161 91.17V96ZM413.193 96.616C413.193 98.142 412.157 98.968 409.357 98.968C406.893 98.968 405.955 98.324 405.955 97.246C405.955 96.434 406.445 95.972 407.257 95.846V95.692C406.655 95.538 406.319 95.062 406.319 94.474C406.319 93.718 406.963 93.34 407.663 93.186V93.13C406.781 92.724 406.333 91.968 406.333 91.002C406.333 89.518 407.383 88.524 409.357 88.524C409.805 88.524 410.267 88.58 410.631 88.706V88.468C410.631 87.754 410.995 87.404 411.667 87.404H412.801V88.776H411.247V88.972C412.003 89.392 412.381 90.106 412.381 91.002C412.381 92.472 411.345 93.452 409.357 93.452C408.937 93.452 408.559 93.41 408.237 93.326C407.957 93.452 407.719 93.662 407.719 93.984C407.719 94.348 408.027 94.53 408.671 94.53H410.631C412.423 94.53 413.193 95.3 413.193 96.616ZM411.513 96.826C411.513 96.364 411.177 96.084 410.267 96.084H407.775C407.509 96.28 407.397 96.546 407.397 96.84C407.397 97.4 407.817 97.736 408.937 97.736H409.833C410.995 97.736 411.513 97.442 411.513 96.826ZM409.357 92.234C410.211 92.234 410.673 91.842 410.673 91.114V90.876C410.673 90.134 410.211 89.756 409.357 89.756C408.503 89.756 408.041 90.134 408.041 90.876V91.114C408.041 91.842 408.503 92.234 409.357 92.234ZM417.2 91.632C417.2 88.93 418.264 86.578 419.664 85.36H421.358C419.846 86.76 418.88 88.86 418.88 91.128V92.164C418.88 94.488 419.86 96.574 421.358 97.932H419.664C418.292 96.756 417.2 94.362 417.2 91.632ZM425.403 96.168C423.737 96.168 422.589 95.51 421.763 94.544L423.009 93.34C423.681 94.124 424.507 94.544 425.515 94.544C426.649 94.544 427.237 93.998 427.237 93.172C427.237 92.514 426.929 92.108 425.907 91.926L424.983 91.786C423.009 91.478 422.057 90.54 422.057 88.944C422.057 87.194 423.415 86.06 425.599 86.06C427.069 86.06 428.161 86.564 428.945 87.502L427.685 88.692C427.209 88.09 426.537 87.684 425.501 87.684C424.451 87.684 423.905 88.104 423.905 88.832C423.905 89.574 424.325 89.882 425.263 90.05L426.173 90.218C428.147 90.568 429.071 91.45 429.071 93.06C429.071 94.908 427.741 96.168 425.403 96.168ZM432.772 96H430.924V86.228H437.21V87.866H432.772V90.232H436.636V91.87H432.772V96ZM445.612 87.866H442.84V96H440.992V87.866H438.22V86.228H445.612V87.866ZM450.268 91.632C450.268 94.362 449.176 96.756 447.804 97.932H446.11C447.608 96.574 448.588 94.488 448.588 92.164V91.128C448.588 88.86 447.622 86.76 446.11 85.36H447.804C449.204 86.578 450.268 88.93 450.268 91.632Z" fill="#171717"/>
<rect x="241.385" y="136.5" width="240" height="90" rx="11.3104" fill="#F5F5F5"/>
<rect x="241.385" y="136.5" width="240" height="90" rx="11.3104" stroke="#171717" stroke-dasharray="6 3"/>
<rect x="266.14" y="155.947" width="51.1063" height="51.1063" rx="15.3319" fill="#4ADE80"/>
<path fill-rule="evenodd" clip-rule="evenodd" d="M297.229 175.105C297.86 175.526 298.601 175.751 299.359 175.751C300.375 175.749 301.349 175.345 302.068 174.627C302.786 173.908 303.191 172.934 303.192 171.918C303.192 171.159 302.967 170.418 302.546 169.788C302.125 169.158 301.526 168.666 300.826 168.376C300.125 168.086 299.354 168.01 298.611 168.158C297.867 168.306 297.184 168.671 296.648 169.207C296.112 169.743 295.747 170.426 295.599 171.17C295.451 171.913 295.527 172.684 295.817 173.384C296.108 174.085 296.599 174.683 297.229 175.105ZM298.294 170.324C298.609 170.113 298.98 170.001 299.359 170.001C299.867 170.002 300.354 170.204 300.713 170.563C301.073 170.922 301.275 171.409 301.275 171.918C301.275 172.297 301.163 172.667 300.952 172.982C300.742 173.297 300.442 173.543 300.092 173.688C299.742 173.833 299.357 173.871 298.985 173.797C298.613 173.723 298.272 173.541 298.004 173.273C297.736 173.005 297.553 172.663 297.479 172.291C297.405 171.92 297.443 171.534 297.588 171.184C297.733 170.834 297.979 170.535 298.294 170.324ZM293.609 181.5H295.526V179.583C295.526 179.329 295.627 179.086 295.807 178.906C295.986 178.727 296.23 178.625 296.484 178.625H302.233C302.488 178.625 302.731 178.727 302.911 178.906C303.09 179.086 303.191 179.329 303.192 179.583V181.5H305.108V179.583C305.107 178.821 304.804 178.091 304.265 177.552C303.726 177.013 302.996 176.71 302.233 176.709H296.484C295.722 176.71 294.991 177.013 294.452 177.552C293.913 178.091 293.61 178.821 293.609 179.583V181.5ZM297.229 189.478C297.86 189.899 298.601 190.124 299.359 190.124C300.375 190.123 301.349 189.719 302.068 189C302.787 188.282 303.191 187.307 303.192 186.291C303.192 185.533 302.967 184.792 302.546 184.162C302.125 183.531 301.526 183.04 300.826 182.75C300.125 182.46 299.354 182.384 298.611 182.532C297.867 182.68 297.184 183.045 296.648 183.581C296.112 184.117 295.747 184.8 295.599 185.543C295.451 186.287 295.527 187.058 295.817 187.758C296.108 188.458 296.599 189.057 297.229 189.478ZM298.294 184.698C298.609 184.487 298.98 184.375 299.359 184.375C299.867 184.375 300.354 184.578 300.713 184.937C301.072 185.296 301.275 185.783 301.275 186.291C301.275 186.67 301.163 187.041 300.952 187.356C300.742 187.671 300.442 187.917 300.092 188.062C299.742 188.207 299.357 188.245 298.985 188.171C298.613 188.097 298.272 187.914 298.004 187.646C297.736 187.378 297.553 187.037 297.479 186.665C297.405 186.293 297.443 185.908 297.588 185.558C297.733 185.208 297.979 184.908 298.294 184.698ZM295.526 195.874H293.609V193.957C293.61 193.195 293.913 192.464 294.452 191.925C294.991 191.386 295.722 191.083 296.484 191.082H302.233C302.996 191.083 303.726 191.386 304.265 191.925C304.804 192.464 305.107 193.195 305.108 193.957V195.874H303.192V193.957C303.192 193.703 303.091 193.459 302.911 193.28C302.731 193.1 302.488 192.999 302.233 192.999H296.484C296.23 192.999 295.986 193.1 295.807 193.28C295.627 193.459 295.526 193.703 295.526 193.957V195.874ZM278.277 195.874H280.194V193.957C280.194 193.703 280.295 193.459 280.475 193.28C280.654 193.1 280.898 192.999 281.152 192.999H286.902C287.156 192.999 287.399 193.1 287.579 193.28C287.759 193.459 287.86 193.703 287.86 193.957V195.874H289.776V193.957C289.775 193.195 289.472 192.464 288.933 191.925C288.394 191.386 287.664 191.083 286.902 191.082H281.152C280.39 191.083 279.659 191.386 279.12 191.925C278.581 192.464 278.278 193.195 278.277 193.957V195.874ZM281.897 189.478C282.528 189.899 283.269 190.124 284.027 190.124C285.043 190.123 286.017 189.719 286.736 189C287.455 188.282 287.859 187.307 287.86 186.291C287.86 185.533 287.635 184.792 287.214 184.162C286.793 183.531 286.194 183.04 285.494 182.75C284.793 182.46 284.023 182.384 283.279 182.532C282.536 182.68 281.853 183.045 281.316 183.581C280.78 184.117 280.415 184.8 280.267 185.543C280.12 186.287 280.195 187.058 280.486 187.758C280.776 188.458 281.267 189.057 281.897 189.478ZM282.962 184.698C283.277 184.487 283.648 184.375 284.027 184.375C284.535 184.375 285.022 184.577 285.381 184.937C285.741 185.296 285.943 185.783 285.943 186.291C285.943 186.67 285.831 187.041 285.62 187.356C285.41 187.671 285.11 187.917 284.76 188.062C284.41 188.207 284.025 188.245 283.653 188.171C283.281 188.097 282.94 187.914 282.672 187.646C282.404 187.378 282.221 187.037 282.147 186.665C282.073 186.293 282.111 185.908 282.256 185.558C282.401 185.208 282.647 184.908 282.962 184.698ZM278.277 181.5H280.194V179.583C280.194 179.329 280.295 179.086 280.475 178.906C280.654 178.727 280.898 178.626 281.152 178.625H286.902C287.156 178.626 287.399 178.727 287.579 178.906C287.758 179.086 287.859 179.329 287.86 179.583V181.5H289.776V179.583C289.775 178.821 289.472 178.091 288.933 177.552C288.394 177.013 287.664 176.71 286.902 176.709H281.152C280.39 176.71 279.659 177.013 279.12 177.552C278.581 178.091 278.278 178.821 278.277 179.583V181.5ZM281.897 175.105C282.528 175.526 283.269 175.751 284.027 175.751C285.043 175.749 286.017 175.345 286.736 174.627C287.454 173.908 287.859 172.934 287.86 171.918C287.86 171.159 287.635 170.418 287.214 169.788C286.793 169.158 286.194 168.666 285.494 168.376C284.793 168.086 284.023 168.01 283.279 168.158C282.536 168.306 281.853 168.671 281.316 169.207C280.78 169.743 280.415 170.426 280.267 171.17C280.12 171.913 280.195 172.684 280.486 173.384C280.776 174.085 281.267 174.683 281.897 175.105ZM282.962 170.324C283.277 170.113 283.648 170.001 284.027 170.001C284.535 170.002 285.022 170.204 285.381 170.563C285.741 170.922 285.943 171.409 285.943 171.918C285.943 172.297 285.831 172.667 285.62 172.982C285.41 173.297 285.11 173.543 284.76 173.688C284.41 173.833 284.025 173.871 283.653 173.797C283.281 173.723 282.94 173.541 282.672 173.273C282.404 173.005 282.221 172.663 282.147 172.291C282.073 171.92 282.111 171.534 282.256 171.184C282.401 170.834 282.647 170.535 282.962 170.324Z" fill="black"/>
<path d="M341.561 177.5V174.46H338.401V177.5H337.271V170.52H338.401V173.46H341.561V170.52H342.691V177.5H341.561ZM344.969 170.52H346.079V174.82C346.079 176 346.489 176.61 347.579 176.61C348.669 176.61 349.079 176 349.079 174.82V170.52H350.189V174.64C350.189 176.68 349.489 177.62 347.579 177.62C345.669 177.62 344.969 176.68 344.969 174.64V170.52ZM352.465 177.5V170.52H353.805L355.675 174.07H355.735L357.605 170.52H358.885V177.5H357.805V172.16H357.755L357.205 173.29L355.675 176.08L354.145 173.29L353.595 172.16H353.545V177.5H352.465ZM366.749 177.5H365.569L364.939 175.61H362.329L361.719 177.5H360.569L362.949 170.52H364.369L366.749 177.5ZM364.659 174.64L363.659 171.56H363.609L362.599 174.64H364.659ZM372.59 177.5L370.31 173.64L369.54 172.16H369.51V177.5H368.43V170.52H369.69L371.97 174.38L372.74 175.86H372.77V170.52H373.85V177.5H372.59ZM384.672 177.5H383.492L382.862 175.61H380.252L379.642 177.5H378.492L380.872 170.52H382.292L384.672 177.5ZM382.582 174.64L381.582 171.56H381.532L380.522 174.64H382.582ZM390.323 177.5H386.353V170.52H387.483V176.5H390.323V177.5ZM394.82 177.5H391.78V176.58H392.73V171.44H391.78V170.52H394.82V171.44H393.86V176.58H394.82V177.5ZM401.331 177.5V176.44H401.291C401.151 177.11 400.471 177.62 399.411 177.62C397.751 177.62 396.531 176.35 396.531 174.01C396.531 171.68 397.751 170.4 399.581 170.4C400.831 170.4 401.701 170.99 402.181 171.97L401.261 172.51C400.991 171.86 400.431 171.41 399.581 171.41C398.481 171.41 397.741 172.16 397.741 173.44V174.58C397.741 175.86 398.481 176.61 399.581 176.61C400.461 176.61 401.231 176.16 401.231 175.29V174.75H399.791V173.78H402.321V177.5H401.331ZM408.651 177.5L406.371 173.64L405.601 172.16H405.571V177.5H404.491V170.52H405.751L408.031 174.38L408.801 175.86H408.831V170.52H409.911V177.5H408.651ZM412.23 177.5V170.52H413.57L415.44 174.07H415.5L417.37 170.52H418.65V177.5H417.57V172.16H417.52L416.97 173.29L415.44 176.08L413.91 173.29L413.36 172.16H413.31V177.5H412.23ZM425.445 177.5H420.975V170.52H425.445V171.52H422.105V173.46H425.135V174.46H422.105V176.5H425.445V177.5ZM431.662 177.5L429.382 173.64L428.612 172.16H428.582V177.5H427.502V170.52H428.762L431.042 174.38L431.812 175.86H431.842V170.52H432.922V177.5H431.662ZM436.701 177.5V171.52H434.621V170.52H439.911V171.52H437.831V177.5H436.701ZM339.407 189.734V193.5H337.559V183.728H341.969C343.747 183.728 344.853 184.904 344.853 186.752C344.853 188.096 344.237 189.118 343.033 189.524L345.035 193.5H342.977L341.157 189.734H339.407ZM339.407 188.18H341.787C342.501 188.18 342.935 187.788 342.935 187.074V186.43C342.935 185.716 342.501 185.338 341.787 185.338H339.407V188.18ZM352.554 193.5H346.856V183.728H348.704V191.862H352.554V193.5ZM360.078 193.5V189.37H356.004V193.5H354.156V183.728H356.004V187.732H360.078V183.728H361.926V193.5H360.078ZM366.067 193.5H364.219V183.728H370.505V185.366H366.067V187.732H369.931V189.37H366.067V193.5ZM377.301 193.668C375.817 193.668 374.977 192.814 374.977 191.512C374.977 190.014 376.111 189.272 378.099 189.272H379.345V188.74C379.345 187.928 378.939 187.452 377.987 187.452C377.147 187.452 376.671 187.872 376.321 188.376L375.257 187.424C375.789 186.584 376.643 186.024 378.113 186.024C380.087 186.024 381.137 186.962 381.137 188.628V192.072H381.865V193.5H380.871C380.101 193.5 379.625 192.996 379.513 192.24H379.429C379.191 193.178 378.393 193.668 377.301 193.668ZM377.903 192.366C378.701 192.366 379.345 192.002 379.345 191.316V190.35H378.197C377.259 190.35 376.797 190.672 376.797 191.246V191.484C376.797 192.072 377.203 192.366 377.903 192.366ZM385.108 193.5H383.316V186.192H385.108V187.41H385.178C385.472 186.626 386.088 186.024 387.222 186.024C388.72 186.024 389.56 187.06 389.56 188.88V193.5H387.768V189.062C387.768 188.026 387.418 187.494 386.564 187.494C385.822 187.494 385.108 187.886 385.108 188.67V193.5ZM396.082 193.5V192.282H396.012C395.746 193.108 394.962 193.668 393.996 193.668C392.162 193.668 391.14 192.282 391.14 189.832C391.14 187.396 392.162 186.024 393.996 186.024C394.962 186.024 395.76 186.556 396.012 187.396H396.082V183.14H397.874V193.5H396.082ZM394.57 192.184C395.424 192.184 396.082 191.75 396.082 190.994V188.67C396.082 187.956 395.424 187.494 394.57 187.494C393.646 187.494 393.016 188.18 393.016 189.216V190.476C393.016 191.512 393.646 192.184 394.57 192.184ZM403.361 193.5V183.728H406.917C409.465 183.728 411.131 185.366 411.131 188.614C411.131 191.862 409.465 193.5 406.917 193.5H403.361ZM405.209 191.862H406.917C408.289 191.862 409.171 191.05 409.171 189.384V187.844C409.171 186.178 408.289 185.366 406.917 185.366H405.209V191.862ZM414.862 193.5H413.014V183.728H417.41C419.216 183.728 420.308 184.946 420.308 186.752C420.308 188.572 419.216 189.776 417.41 189.776H414.862V193.5ZM414.862 185.338V188.18H417.242C417.956 188.18 418.39 187.788 418.39 187.074V186.43C418.39 185.716 417.956 185.338 417.242 185.338H414.862ZM425.818 193.668C423.256 193.668 421.562 191.918 421.562 188.614C421.562 185.31 423.256 183.56 425.818 183.56C428.394 183.56 430.074 185.31 430.074 188.614C430.074 191.918 428.394 193.668 425.818 193.668ZM425.818 192.03C427.218 192.03 428.114 191.036 428.114 189.37V187.858C428.114 186.192 427.218 185.198 425.818 185.198C424.418 185.198 423.522 186.192 423.522 187.858V189.37C423.522 191.036 424.418 192.03 425.818 192.03Z" fill="#171717"/>
<rect x="241.385" y="242.5" width="240" height="91" rx="11.3104" fill="#F5F5F5"/>
<rect x="241.385" y="242.5" width="240" height="91" rx="11.3104" stroke="#171717" stroke-dasharray="6 3"/>
<rect x="266.14" y="262.447" width="51.1063" height="51.1063" rx="15.3319" fill="#93C5FD"/>
<path fill-rule="evenodd" clip-rule="evenodd" d="M302.316 280.902C303.72 283.003 304.469 285.473 304.469 288H302.34C302.34 285.894 301.715 283.836 300.545 282.085C299.375 280.334 297.713 278.969 295.767 278.163C293.822 277.357 291.681 277.147 289.615 277.557C287.55 277.968 285.653 278.982 284.164 280.471C282.675 281.96 281.661 283.858 281.25 285.923C280.839 287.988 281.05 290.129 281.856 292.074C282.662 294.02 284.026 295.683 285.777 296.853C287.528 298.023 289.587 298.647 291.693 298.647V300.777C289.166 300.777 286.695 300.027 284.594 298.623C282.493 297.219 280.856 295.224 279.889 292.889C278.922 290.555 278.669 287.986 279.162 285.507C279.655 283.029 280.871 280.752 282.658 278.966C284.445 277.179 286.722 275.962 289.2 275.469C291.678 274.976 294.247 275.229 296.582 276.196C298.917 277.163 300.912 278.801 302.316 280.902ZM291.693 294.388C290.429 294.388 289.194 294.014 288.144 293.312C287.093 292.61 286.274 291.612 285.791 290.445C285.307 289.277 285.181 287.993 285.427 286.754C285.674 285.515 286.282 284.376 287.175 283.483C288.069 282.589 289.207 281.981 290.446 281.734C291.686 281.488 292.97 281.614 294.137 282.098C295.305 282.582 296.302 283.4 297.004 284.451C297.706 285.501 298.081 286.737 298.081 288C298.079 289.694 297.405 291.318 296.208 292.515C295.01 293.713 293.386 294.386 291.693 294.388ZM291.693 283.741C290.85 283.741 290.027 283.991 289.327 284.459C288.626 284.927 288.08 285.592 287.758 286.37C287.436 287.148 287.351 288.005 287.516 288.831C287.68 289.657 288.086 290.416 288.681 291.011C289.277 291.607 290.036 292.013 290.862 292.177C291.688 292.341 292.544 292.257 293.322 291.935C294.101 291.612 294.766 291.066 295.234 290.366C295.702 289.666 295.952 288.842 295.952 288C295.95 286.871 295.501 285.788 294.703 284.99C293.904 284.192 292.822 283.742 291.693 283.741ZM293.822 288C293.822 289.176 292.869 290.129 291.693 290.129C290.517 290.129 289.563 289.176 289.563 288C289.563 286.824 290.517 285.871 291.693 285.871C292.869 285.871 293.822 286.824 293.822 288ZM295.323 296.518L298.081 299.275L305.097 292.259L306.599 293.76L298.081 302.278L293.822 298.019L295.323 296.518Z" fill="black"/>
<path d="M339.361 284.12C338.191 284.12 337.391 283.66 336.811 282.94L337.591 282.21C338.081 282.81 338.661 283.12 339.421 283.12C340.311 283.12 340.771 282.68 340.771 282.01C340.771 281.47 340.491 281.16 339.681 281L339.061 280.89C337.711 280.64 337.021 280.01 337.021 278.9C337.021 277.66 337.981 276.9 339.461 276.9C340.511 276.9 341.281 277.28 341.821 277.97L341.031 278.67C340.671 278.2 340.171 277.9 339.401 277.9C338.601 277.9 338.141 278.23 338.141 278.84C338.141 279.42 338.501 279.67 339.251 279.82L339.871 279.95C341.261 280.22 341.891 280.84 341.891 281.95C341.891 283.25 340.961 284.12 339.361 284.12ZM349.387 284H348.207L347.577 282.11H344.967L344.357 284H343.207L345.587 277.02H347.007L349.387 284ZM347.297 281.14L346.297 278.06H346.247L345.237 281.14H347.297ZM352.198 284H351.068V277.02H355.428V278.02H352.198V279.96H355.068V280.96H352.198V284ZM361.841 284H357.371V277.02H361.841V278.02H358.501V279.96H361.531V280.96H358.501V283H361.841V284ZM365.359 284V278.02H363.279V277.02H368.569V278.02H366.489V284H365.359ZM373.09 284H371.96V281.25L369.56 277.02H370.85L372.55 280.13H372.58L374.27 277.02H375.51L373.09 281.23V284ZM384.725 284L384.075 283.29C383.725 283.64 383.115 284.12 382.055 284.12C380.605 284.12 379.815 283.27 379.815 282.18C379.815 281.18 380.475 280.65 381.235 280.22C380.795 279.75 380.445 279.2 380.445 278.58C380.445 277.64 381.205 276.9 382.355 276.9C383.435 276.9 384.205 277.51 384.205 278.44C384.205 279.35 383.515 279.87 382.685 280.35L384.045 281.82C384.235 281.34 384.335 280.79 384.365 280.25H385.855V281.17H385.175C385.075 281.68 384.915 282.14 384.715 282.52L386.085 284H384.725ZM382.355 277.77C381.875 277.77 381.495 278.08 381.495 278.55V278.63C381.495 278.97 381.725 279.3 382.135 279.75C382.695 279.44 383.155 279.07 383.155 278.58V278.5C383.155 278.03 382.835 277.77 382.355 277.77ZM382.185 283.19C382.745 283.19 383.165 282.99 383.485 282.66L381.785 280.83C381.285 281.11 380.935 281.41 380.935 282.01V282.14C380.935 282.77 381.405 283.19 382.185 283.19ZM392.768 284.12C391.598 284.12 390.798 283.66 390.218 282.94L390.998 282.21C391.488 282.81 392.068 283.12 392.828 283.12C393.718 283.12 394.178 282.68 394.178 282.01C394.178 281.47 393.898 281.16 393.088 281L392.468 280.89C391.118 280.64 390.428 280.01 390.428 278.9C390.428 277.66 391.388 276.9 392.868 276.9C393.918 276.9 394.688 277.28 395.228 277.97L394.438 278.67C394.078 278.2 393.578 277.9 392.808 277.9C392.008 277.9 391.548 278.23 391.548 278.84C391.548 279.42 391.908 279.67 392.658 279.82L393.278 279.95C394.668 280.22 395.298 280.84 395.298 281.95C395.298 283.25 394.368 284.12 392.768 284.12ZM401.725 284H397.255V277.02H401.725V278.02H398.385V279.96H401.415V280.96H398.385V283H401.725V284ZM406.403 284.12C404.583 284.12 403.473 282.85 403.473 280.51C403.473 278.17 404.583 276.9 406.403 276.9C407.613 276.9 408.423 277.44 408.893 278.48L407.943 279C407.703 278.34 407.213 277.91 406.403 277.91C405.333 277.91 404.673 278.69 404.673 279.98V281.04C404.673 282.33 405.333 283.11 406.403 283.11C407.233 283.11 407.763 282.63 408.013 281.95L408.923 282.5C408.453 283.51 407.613 284.12 406.403 284.12ZM410.681 277.02H411.791V281.32C411.791 282.5 412.201 283.11 413.291 283.11C414.381 283.11 414.791 282.5 414.791 281.32V277.02H415.901V281.14C415.901 283.18 415.201 284.12 413.291 284.12C411.381 284.12 410.681 283.18 410.681 281.14V277.02ZM419.306 281.18V284H418.176V277.02H421.186C422.436 277.02 423.206 277.83 423.206 279.12C423.206 280.11 422.736 280.8 421.846 281.06L423.356 284H422.096L420.696 281.18H419.306ZM419.306 280.23H421.106C421.676 280.23 422.016 279.92 422.016 279.36V278.88C422.016 278.32 421.676 278.01 421.106 278.01H419.306V280.23ZM428.069 284H425.029V283.08H425.979V277.94H425.029V277.02H428.069V277.94H427.109V283.08H428.069V284ZM431.49 284V278.02H429.41V277.02H434.7V278.02H432.62V284H431.49ZM439.221 284H438.091V281.25L435.691 277.02H436.981L438.681 280.13H438.711L440.401 277.02H441.641L439.221 281.23V284ZM339.407 296.234V300H337.559V290.228H341.969C343.747 290.228 344.853 291.404 344.853 293.252C344.853 294.596 344.237 295.618 343.033 296.024L345.035 300H342.977L341.157 296.234H339.407ZM339.407 294.68H341.787C342.501 294.68 342.935 294.288 342.935 293.574V292.93C342.935 292.216 342.501 291.838 341.787 291.838H339.407V294.68ZM349.492 300.168C347.336 300.168 346.048 298.67 346.048 296.332C346.048 294.022 347.294 292.524 349.436 292.524C351.718 292.524 352.768 294.204 352.768 296.206V296.794H347.91V296.976C347.91 298.026 348.512 298.74 349.688 298.74C350.57 298.74 351.102 298.32 351.55 297.746L352.516 298.824C351.914 299.65 350.85 300.168 349.492 300.168ZM349.464 293.868C348.526 293.868 347.91 294.568 347.91 295.576V295.688H350.906V295.562C350.906 294.554 350.388 293.868 349.464 293.868ZM358.881 300V298.782H358.811C358.545 299.608 357.761 300.168 356.795 300.168C354.961 300.168 353.939 298.782 353.939 296.332C353.939 293.896 354.961 292.524 356.795 292.524C357.761 292.524 358.559 293.056 358.811 293.896H358.881V289.64H360.673V300H358.881ZM357.369 298.684C358.223 298.684 358.881 298.25 358.881 297.494V295.17C358.881 294.456 358.223 293.994 357.369 293.994C356.445 293.994 355.815 294.68 355.815 295.716V296.976C355.815 298.012 356.445 298.684 357.369 298.684ZM372.768 291.866H369.996V300H368.148V291.866H365.376V290.228H372.768V291.866ZM376.207 300.168C374.051 300.168 372.763 298.67 372.763 296.332C372.763 294.022 374.009 292.524 376.151 292.524C378.433 292.524 379.483 294.204 379.483 296.206V296.794H374.625V296.976C374.625 298.026 375.227 298.74 376.403 298.74C377.285 298.74 377.817 298.32 378.265 297.746L379.231 298.824C378.629 299.65 377.565 300.168 376.207 300.168ZM376.179 293.868C375.241 293.868 374.625 294.568 374.625 295.576V295.688H377.621V295.562C377.621 294.554 377.103 293.868 376.179 293.868ZM382.866 300.168C381.382 300.168 380.542 299.314 380.542 298.012C380.542 296.514 381.676 295.772 383.664 295.772H384.91V295.24C384.91 294.428 384.504 293.952 383.552 293.952C382.712 293.952 382.236 294.372 381.886 294.876L380.822 293.924C381.354 293.084 382.208 292.524 383.678 292.524C385.652 292.524 386.702 293.462 386.702 295.128V298.572H387.43V300H386.436C385.666 300 385.19 299.496 385.078 298.74H384.994C384.756 299.678 383.958 300.168 382.866 300.168ZM383.468 298.866C384.266 298.866 384.91 298.502 384.91 297.816V296.85H383.762C382.824 296.85 382.362 297.172 382.362 297.746V297.984C382.362 298.572 382.768 298.866 383.468 298.866ZM390.672 300H388.88V292.692H390.672V293.91H390.742C391.022 293.14 391.61 292.524 392.702 292.524C393.696 292.524 394.466 293.014 394.816 293.994H394.844C395.11 293.182 395.922 292.524 397.084 292.524C398.512 292.524 399.324 293.56 399.324 295.38V300H397.532V295.562C397.532 294.512 397.154 293.994 396.356 293.994C395.656 293.994 394.998 294.386 394.998 295.17V300H393.206V295.562C393.206 294.512 392.828 293.994 392.03 293.994C391.344 293.994 390.672 294.386 390.672 295.17V300ZM402.204 291.628C401.462 291.628 401.154 291.25 401.154 290.732V290.452C401.154 289.934 401.462 289.556 402.204 289.556C402.932 289.556 403.254 289.934 403.254 290.452V290.732C403.254 291.25 402.932 291.628 402.204 291.628ZM401.308 300V292.692H403.1V300H401.308ZM406.969 300H405.177V292.692H406.969V293.91H407.039C407.333 293.126 407.949 292.524 409.083 292.524C410.581 292.524 411.421 293.56 411.421 295.38V300H409.629V295.562C409.629 294.526 409.279 293.994 408.425 293.994C407.683 293.994 406.969 294.386 406.969 295.17V300ZM420.002 300.616C420.002 302.142 418.966 302.968 416.166 302.968C413.702 302.968 412.764 302.324 412.764 301.246C412.764 300.434 413.254 299.972 414.066 299.846V299.692C413.464 299.538 413.128 299.062 413.128 298.474C413.128 297.718 413.772 297.34 414.472 297.186V297.13C413.59 296.724 413.142 295.968 413.142 295.002C413.142 293.518 414.192 292.524 416.166 292.524C416.614 292.524 417.076 292.58 417.44 292.706V292.468C417.44 291.754 417.804 291.404 418.476 291.404H419.61V292.776H418.056V292.972C418.812 293.392 419.19 294.106 419.19 295.002C419.19 296.472 418.154 297.452 416.166 297.452C415.746 297.452 415.368 297.41 415.046 297.326C414.766 297.452 414.528 297.662 414.528 297.984C414.528 298.348 414.836 298.53 415.48 298.53H417.44C419.232 298.53 420.002 299.3 420.002 300.616ZM418.322 300.826C418.322 300.364 417.986 300.084 417.076 300.084H414.584C414.318 300.28 414.206 300.546 414.206 300.84C414.206 301.4 414.626 301.736 415.746 301.736H416.642C417.804 301.736 418.322 301.442 418.322 300.826ZM416.166 296.234C417.02 296.234 417.482 295.842 417.482 295.114V294.876C417.482 294.134 417.02 293.756 416.166 293.756C415.312 293.756 414.85 294.134 414.85 294.876V295.114C414.85 295.842 415.312 296.234 416.166 296.234Z" fill="#171717"/>
<path d="M528.937 181.282C529.093 181.126 529.093 180.874 528.937 180.718L526.396 178.177C526.24 178.021 525.987 178.021 525.831 178.177C525.675 178.333 525.675 178.585 525.831 178.741L528.09 181L525.831 183.259C525.675 183.415 525.675 183.667 525.831 183.823C525.987 183.979 526.24 183.979 526.396 183.823L528.937 181.282ZM511.885 181.399L528.654 181.399L528.654 180.601L511.885 180.601L511.885 181.399Z" fill="black"/>
<rect x="538.237" y="361" width="360" height="56.5337" rx="11.3104" transform="rotate(-90 538.237 361)" fill="#E5E5E5"/>
<rect x="538.237" y="361" width="360" height="56.5337" rx="11.3104" transform="rotate(-90 538.237 361)" stroke="#171717"/>
<path d="M571.003 224.039L562.085 224.039L562.085 220.883C562.085 218.609 563.567 217.114 566.544 217.114C569.521 217.114 571.003 218.609 571.003 220.883L571.003 224.039ZM569.726 222.595L569.726 220.883C569.726 219.554 568.87 218.66 567.26 218.66L565.829 218.66C564.219 218.66 563.363 219.554 563.363 220.883L563.363 222.595L569.726 222.595ZM571.003 208.84L571.003 214.551L562.085 214.551L562.085 208.84L563.363 208.84L563.363 213.107L565.842 213.107L565.842 209.236L567.119 209.236L567.119 213.107L569.726 213.107L569.726 208.84L571.003 208.84ZM571.003 204.767L571.003 206.211L562.085 206.211L562.085 202.378C562.085 200.742 563.146 199.784 564.768 199.784C566.391 199.784 567.452 200.742 567.452 202.378L567.452 204.767L571.003 204.767ZM563.35 204.767L566.187 204.767L566.187 202.467C566.187 201.739 565.791 201.304 565.075 201.304L564.462 201.304C563.746 201.304 563.35 201.739 563.35 202.467L563.35 204.767ZM571.003 192.361L571.003 197.434L562.085 197.434L562.085 195.99L569.726 195.99L569.726 192.361L571.003 192.361ZM571.157 187.104C571.157 189.429 569.547 190.949 566.544 190.949C563.542 190.949 561.932 189.429 561.932 187.104C561.932 184.778 563.542 183.258 566.544 183.258C569.547 183.258 571.157 184.778 571.157 187.104ZM569.866 187.104C569.866 185.724 568.87 184.804 567.247 184.804L565.842 184.804C564.219 184.804 563.222 185.724 563.222 187.104C563.222 188.483 564.219 189.403 565.842 189.403L567.247 189.403C568.87 189.403 569.866 188.483 569.866 187.104ZM571.003 177.638L571.003 179.082L567.49 179.082L562.085 182.148L562.085 180.5L566.059 178.328L566.059 178.29L562.085 176.13L562.085 174.546L567.464 177.638L571.003 177.638ZM571.003 172.538L562.085 172.538L562.085 170.826L566.621 168.436L566.621 168.36L562.085 165.971L562.085 164.335L571.003 164.335L571.003 165.715L564.181 165.715L564.181 165.779L565.624 166.482L569.189 168.436L565.624 170.391L564.181 171.094L564.181 171.158L571.003 171.158L571.003 172.538ZM571.003 155.654L571.003 161.365L562.085 161.365L562.085 155.654L563.363 155.654L563.363 159.921L565.842 159.921L565.842 156.05L567.119 156.05L567.119 159.921L569.726 159.921L569.726 155.654L571.003 155.654ZM571.003 147.71L566.072 150.623L564.181 151.607L564.181 151.645L571.003 151.645L571.003 153.025L562.085 153.025L562.085 151.415L567.017 148.502L568.908 147.518L568.908 147.48L562.085 147.48L562.085 146.1L571.003 146.1L571.003 147.71ZM571.003 141.272L563.363 141.272L563.363 143.93L562.085 143.93L562.085 137.171L563.363 137.171L563.363 139.828L571.003 139.828L571.003 141.272Z" fill="#171717"/>
</svg>
