<svg xmlns="http://www.w3.org/2000/svg" viewBox="0 0 32 32">
  <defs>
    <linearGradient id="lionGradient" x1="0%" y1="0%" x2="100%" y2="100%">
      <stop offset="0%" style="stop-color:#ff6600;stop-opacity:1" />
      <stop offset="100%" style="stop-color:#ff3333;stop-opacity:1" />
    </linearGradient>
  </defs>
  <rect width="32" height="32" fill="white" rx="4"/>
  <path d="M16 4 C23 4 28 9 28 16 C28 23 23 28 16 28 C9 28 4 23 4 16 C4 9 9 4 16 4 Z M11 11 C10 10 8.5 10 7.5 11 C6.5 12 6.5 13.5 7.5 14.5 C8.5 15.5 10 15.5 11 14.5 L13 12.5 Z M21 11 L19 12.5 C20 13.5 21.5 13.5 22.5 12.5 C23.5 11.5 23.5 10 22.5 9 C21.5 8 20 8 19 9 Z M16 16 L14 18 L16 20 L18 18 Z M13 22 C13 23.5 14.5 24.5 16 24.5 C17.5 24.5 19 23.5 19 22 Z" fill="url(#lionGradient)" transform="scale(0.8) translate(3.2, 3.2)" />
</svg>