<svg width="40" height="41" viewBox="0 0 40 41" fill="none" xmlns="http://www.w3.org/2000/svg">
<path fill-rule="evenodd" clip-rule="evenodd" d="M10.8801 0.396334C11.5375 0.221762 12.2301 0.51134 12.5675 1.10188L20.8166 15.5378L37.5093 5.80042C37.9733 5.52979 38.5465 5.52786 39.0122 5.79537C39.478 6.06288 39.7651 6.55899 39.7651 7.09608V28.0961C39.7651 28.6296 39.4818 29.1229 39.0209 29.3918L21.0209 39.8918C20.5539 40.1642 19.9764 40.1642 19.5093 39.8918L1.50933 29.3918C1.0485 29.1229 0.765137 28.6296 0.765137 28.0961V7.09608C0.765137 6.55899 1.05231 6.06288 1.51805 5.79537C1.98379 5.52786 2.55701 5.52979 3.02094 5.80042L9.76514 9.73453V1.84608C9.76514 1.16593 10.2228 0.570907 10.8801 0.396334ZM9.76514 13.2076L3.76514 9.70764V27.2345L15.971 34.3546L9.9789 24.3678C9.83902 24.1347 9.76514 23.868 9.76514 23.5961V13.2076ZM21.7651 35.9845V18.4576L36.7651 9.70764V27.2345L21.7651 35.9845ZM16.1852 13.4796L12.7651 11.4845V7.49443L16.1852 13.4796ZM18.7651 18.4576L12.7651 14.9576V23.1806L18.7651 33.1806V18.4576Z" fill="#171717"/>
</svg>
