<svg width="1894" height="1125" viewBox="0 0 1894 1125" fill="none" xmlns="http://www.w3.org/2000/svg">
<rect width="1894" height="1125" fill="#DFDFDF"/>
<g id="Frame 3793">
<g clip-path="url(#clip0_68_103224)">
<rect width="1894" height="1125" rx="31" fill="#171717"/>
<g id="Frame 3347">
<g id="_Item card skeleton" opacity="0.8">
<rect x="-17.416" y="404.832" width="444.417" height="533.655" rx="14.9274" transform="rotate(-7.19347 -17.416 404.832)" fill="white"/>
<g id="Frame 2127">
<g clip-path="url(#clip1_68_103224)">
<g id="Frame 2126">
<rect width="444.402" height="283.621" transform="translate(-17.416 404.832) rotate(-7.19347)" fill="#D4D4D4"/>
<g id="text-annotation-toggle" clip-path="url(#clip2_68_103224)">
<path id="Vector" fill-rule="evenodd" clip-rule="evenodd" d="M183.552 535.568L196.511 533.932L197.329 540.411L184.37 542.047C182.652 542.264 180.917 541.789 179.549 540.727C178.18 539.666 177.29 538.104 177.073 536.385L170.531 484.551C170.314 482.832 170.788 481.098 171.85 479.73C172.912 478.361 174.474 477.47 176.192 477.254L228.027 470.711C229.745 470.494 231.48 470.969 232.848 472.031C234.216 473.093 235.107 474.654 235.324 476.373L236.96 489.331L230.48 490.149L228.845 477.191L177.01 483.733L183.552 535.568ZM205.004 522.986L211.483 522.169L208.621 499.491L218.34 498.264L217.522 491.785L191.605 495.056L192.422 501.535L202.142 500.309L205.004 522.986ZM263.732 504.91L251.702 495.577C250.618 494.738 249.245 494.363 247.885 494.535C246.524 494.707 245.287 495.411 244.445 496.493L204.816 547.587L207.079 565.511L225.002 563.249L264.648 512.167C265.486 511.082 265.861 509.71 265.689 508.349C265.518 506.989 264.814 505.752 263.732 504.91ZM221.501 557.108L212.74 558.214L211.634 549.453L238.359 515.007L248.226 522.662L221.501 557.108ZM252.229 517.503L242.363 509.848L248.78 501.576L258.647 509.231L252.229 517.503Z" fill="black" fill-opacity="0.3"/>
</g>
</g>
</g>
</g>
<g id="Frame 29">
<g id="Frame 2133">
<g id="Frame 2128">
<g id="Document classifier">
<path d="M63.6368 780.895L60.1406 753.195L70.2207 751.922C77.4434 751.011 82.7519 755.058 83.914 764.265C85.076 773.472 80.9395 778.711 73.7168 779.623L63.6368 780.895ZM68.2892 775.591L73.1308 774.979C77.0199 774.489 79.2296 771.871 78.6335 767.149L78.0826 762.783C77.4865 758.061 74.6958 756.075 70.8067 756.566L65.9651 757.177L68.2892 775.591Z" fill="#171717"/>
<path d="M98.9553 776.921C93.0422 777.667 88.8205 773.927 87.9791 767.259C87.1426 760.632 90.3074 755.999 96.2205 755.253C102.173 754.502 106.39 758.203 107.226 764.83C108.068 771.497 104.908 776.17 98.9553 776.921ZM98.4394 772.833C101.098 772.498 102.55 770.581 102.154 767.446L101.668 763.596C101.277 760.501 99.3953 759.005 96.7364 759.34C94.1172 759.671 92.6658 761.588 93.0564 764.683L93.5423 768.533C93.938 771.668 95.8202 773.164 98.4394 772.833Z" fill="#171717"/>
<path d="M121.277 774.104C115.166 774.875 111.182 771.104 110.341 764.437C109.504 757.81 112.431 753.207 118.542 752.436C122.709 751.91 125.698 753.548 127.339 756.647L123.408 759.038C122.711 757.352 121.241 756.248 119.058 756.523C116.241 756.879 115.062 759.043 115.428 761.94L115.904 765.71C116.27 768.607 117.944 770.372 120.761 770.016C123.182 769.711 124.197 768.171 124.716 766.211L128.841 767.585C127.952 771.407 125.285 773.598 121.277 774.104Z" fill="#171717"/>
<path d="M145.77 770.529L145.334 767.076L145.136 767.101C144.682 769.255 143.251 771.33 139.838 771.761C135.592 772.297 132.84 769.661 132.189 764.502L130.536 751.406L135.615 750.765L137.203 763.345C137.564 766.202 138.831 767.615 141.251 767.309C143.275 767.054 145.164 765.727 144.884 763.504L143.156 749.813L148.235 749.172L150.85 769.887L145.77 770.529Z" fill="#171717"/>
<path d="M161.799 768.506L156.719 769.147L154.104 748.431L159.184 747.79L159.62 751.242L159.818 751.217C160.336 748.935 161.783 746.978 164.878 746.587C167.696 746.232 170.054 747.345 171.397 749.998L171.476 749.988C171.94 747.591 174.006 745.435 177.3 745.02C181.348 744.509 184.02 747.155 184.671 752.314L186.324 765.41L181.244 766.051L179.657 753.471C179.281 750.495 178.024 749.161 175.762 749.447C173.778 749.697 172.053 751.044 172.333 753.266L174.061 766.958L168.982 767.599L167.394 755.019C167.018 752.042 165.761 750.709 163.499 750.995C161.555 751.24 159.79 752.592 160.071 754.814L161.799 768.506Z" fill="#171717"/>
<path d="M200.381 764.12C194.269 764.891 190.082 761.106 189.246 754.478C188.42 747.93 191.416 743.238 197.487 742.472C203.956 741.655 207.534 746.042 208.25 751.717L208.46 753.384L194.689 755.122L194.755 755.637C195.13 758.614 197.092 760.422 200.426 760.002C202.926 759.686 204.284 758.305 205.348 756.518L208.472 759.228C207.061 761.785 204.23 763.634 200.381 764.12ZM198.048 746.271C195.389 746.607 193.893 748.812 194.254 751.669L194.294 751.986L202.786 750.915L202.741 750.557C202.381 747.7 200.667 745.941 198.048 746.271Z" fill="#171717"/>
<path d="M219.156 761.266L214.076 761.907L211.462 741.192L216.541 740.551L216.977 744.003L217.176 743.978C217.729 741.651 219.259 739.724 222.474 739.318C226.72 738.782 229.472 741.418 230.123 746.577L231.776 759.673L226.696 760.315L225.108 747.734C224.738 744.798 223.555 743.415 221.135 743.72C219.031 743.986 217.148 745.352 217.428 747.575L219.156 761.266Z" fill="#171717"/>
<path d="M243.876 758.146C240.383 758.587 238.278 756.918 237.852 753.544L236.414 742.155L233.359 742.54L232.848 738.492L234.435 738.292C235.943 738.102 236.329 737.327 236.149 735.899L235.703 732.367L240.267 731.791L240.983 737.466L245.23 736.93L245.74 740.978L241.494 741.514L243.087 754.133L247.016 753.638L247.527 757.685L243.876 758.146Z" fill="#171717"/>
<path d="M269.864 755.35C263.753 756.121 259.769 752.35 258.928 745.683C258.091 739.056 261.018 734.453 267.129 733.682C271.296 733.156 274.285 734.795 275.926 737.894L271.994 740.285C271.298 738.599 269.828 737.494 267.645 737.769C264.828 738.125 263.649 740.29 264.015 743.187L264.491 746.957C264.856 749.854 266.531 751.618 269.348 751.262C271.769 750.957 272.784 749.418 273.303 747.457L277.427 748.832C276.539 752.653 273.872 754.844 269.864 755.35Z" fill="#171717"/>
<path d="M289.793 752.351L287.055 752.696C283.602 753.132 281.745 751.512 281.344 748.337L278.269 723.971L283.348 723.329L286.544 748.649L289.282 748.303L289.793 752.351Z" fill="#171717"/>
<path d="M298.82 751.695C294.613 752.226 291.927 750.106 291.461 746.415C290.925 742.169 293.874 739.66 299.509 738.949L303.041 738.503L302.851 736.995C302.56 734.693 301.239 733.489 298.541 733.83C296.16 734.13 294.96 735.491 294.149 737.045L290.792 734.727C292 732.156 294.22 730.263 298.387 729.737C303.983 729.03 307.294 731.314 307.891 736.036L309.123 745.799L311.186 745.538L311.697 749.586L308.88 749.942C306.697 750.217 305.167 748.959 304.579 746.856L304.341 746.886C304.002 749.63 301.915 751.305 298.82 751.695ZM300.061 747.789C302.323 747.504 304.018 746.242 303.773 744.297L303.427 741.559L300.173 741.969C297.514 742.305 296.319 743.383 296.525 745.01L296.61 745.685C296.82 747.352 298.076 748.04 300.061 747.789Z" fill="#171717"/>
<path d="M322.655 748.687C318.726 749.183 315.966 748.08 313.602 745.959L316.317 742.552C318.045 744.108 320.006 744.949 322.347 744.654C324.768 744.348 325.685 743.305 325.499 741.837C325.349 740.646 324.539 739.983 322.684 739.975L320.585 739.958C316.07 739.963 313.364 738.329 312.889 734.559C312.383 730.551 315.197 727.615 319.92 727.019C323.968 726.508 326.182 727.438 328.426 729.251L325.826 732.603C324.475 731.484 322.608 730.752 320.584 731.007C318.402 731.283 317.56 732.276 317.72 733.546C317.895 734.935 318.729 735.475 320.714 735.547L322.852 735.559C327.457 735.623 329.895 737.371 330.33 740.824C330.836 744.832 327.814 748.036 322.655 748.687Z" fill="#171717"/>
<path d="M342.187 746.222C338.258 746.718 335.498 745.615 333.134 743.494L335.849 740.087C337.578 741.643 339.538 742.484 341.88 742.189C344.3 741.883 345.217 740.84 345.032 739.372C344.882 738.181 344.072 737.517 342.216 737.51L340.118 737.492C335.603 737.498 332.897 735.864 332.421 732.094C331.915 728.085 334.73 725.15 339.452 724.554C343.5 724.043 345.714 724.973 347.959 726.786L345.358 730.138C344.007 729.018 342.141 728.286 340.117 728.542C337.934 728.817 337.092 729.811 337.252 731.081C337.428 732.47 338.262 733.009 340.246 733.081L342.385 733.094C346.989 733.158 349.427 734.906 349.863 738.359C350.369 742.367 347.346 745.571 342.187 746.222Z" fill="#171717"/>
<path d="M354.689 720.05C352.586 720.316 351.578 719.354 351.392 717.886L351.292 717.092C351.107 715.624 351.845 714.442 353.948 714.177C356.012 713.916 357.06 714.873 357.245 716.341L357.345 717.135C357.53 718.603 356.753 719.79 354.689 720.05ZM355.145 744.103L352.53 723.387L357.61 722.746L360.224 743.461L355.145 744.103Z" fill="#171717"/>
<path d="M367.144 742.588L365.036 725.881L361.98 726.266L361.474 722.258L364.53 721.872L364.154 718.896C363.693 715.245 365.422 712.971 369.152 712.5L372.764 712.044L373.275 716.092L369.028 716.628L369.609 721.231L382.388 719.618L385.003 740.334L379.923 740.975L377.814 724.268L370.115 725.24L372.224 741.947L367.144 742.588ZM379.467 716.923C377.364 717.188 376.356 716.227 376.17 714.759L376.07 713.965C375.885 712.497 376.623 711.315 378.726 711.05C380.79 710.789 381.838 711.745 382.023 713.214L382.123 714.007C382.309 715.476 381.531 716.663 379.467 716.923Z" fill="#171717"/>
<path d="M399.311 739.012C393.199 739.783 389.012 735.998 388.176 729.37C387.349 722.822 390.345 718.13 396.417 717.364C402.886 716.548 406.463 720.934 407.179 726.609L407.39 728.276L393.619 730.014L393.684 730.53C394.06 733.506 396.022 735.315 399.355 734.894C401.855 734.579 403.213 733.198 404.278 731.41L407.402 734.12C405.991 736.677 403.16 738.526 399.311 739.012ZM396.977 721.164C394.318 721.499 392.823 723.704 393.183 726.561L393.223 726.879L401.716 725.807L401.671 725.45C401.31 722.592 399.596 720.833 396.977 721.164Z" fill="#171717"/>
<path d="M418.086 736.159L413.006 736.8L410.391 716.084L415.471 715.443L416.012 719.729L416.21 719.704C416.451 717.456 417.852 715.142 421.146 714.727L422.257 714.586L422.863 719.388L421.276 719.589C417.863 720.019 416.197 721.197 416.483 723.459L418.086 736.159Z" fill="#171717"/>
</g>
</g>
<g id="Frame 3341">
<g id="Frame 3342">
<rect id="Rectangle 3261" width="91.3074" height="19.2226" transform="matrix(0.992129 -0.12522 -0.12522 -0.992129 78.0195 924.439)" fill="#F5F5F5"/>
<rect id="Rectangle 3262" width="297.95" height="19.2226" transform="matrix(0.992129 -0.12522 -0.12522 -0.992129 72.6035 881.529)" fill="#F5F5F5"/>
<rect id="Rectangle 3263" width="297.95" height="19.2226" transform="matrix(0.992129 -0.12522 -0.12522 -0.992129 67.1875 838.619)" fill="#F5F5F5"/>
</g>
</g>
</g>
</g>
</g>
<g id="_Item card skeleton_2">
<rect x="475.375" y="342.636" width="444.417" height="533.655" rx="14.9274" transform="rotate(-7.19347 475.375 342.636)" fill="white"/>
<rect x="475.375" y="342.636" width="444.417" height="533.655" rx="14.9274" transform="rotate(-7.19347 475.375 342.636)" stroke="#D4D4D4"/>
<g id="Frame 2127_2">
<g clip-path="url(#clip3_68_103224)">
<g id="Frame 2126_2">
<rect width="444.402" height="283.621" transform="translate(475.375 342.636) rotate(-7.19347)" fill="#CEB8FF"/>
<g id="icon">
<path id=" &#240;&#159;&#142;&#168; Color" d="M716.414 451.857L713.552 429.179L707.072 429.997L709.934 452.675L687.257 455.537L688.075 462.016L710.752 459.154L713.614 481.832L720.094 481.014L717.232 458.336L739.909 455.474L739.091 448.995L716.414 451.857Z" fill="#6C7D90"/>
</g>
</g>
</g>
</g>
<g id="Frame 29_2">
<g id="Frame 2133_2">
<g id="Frame 2128_2">
<g id="My custom model">
<path d="M556.824 717.972L553.328 690.271L559.241 689.525L568.053 702.161L568.212 702.141L573.528 687.722L579.203 687.006L582.699 714.706L577.738 715.332L575.229 695.45L575.07 695.47L573.483 700.145L569.131 711.338L562.133 701.578L559.434 697.443L559.276 697.463L561.785 717.346L556.824 717.972Z" fill="#171717"/>
<path d="M596.762 703.013L598.991 691.604L603.753 691.003L598.499 716.461C597.843 719.568 596.535 721.023 593.122 721.454L590.067 721.84L589.556 717.792L593.286 717.321L593.873 714.304L583.712 693.532L588.752 692.896L593.746 703.394L595.756 708.462L595.994 708.432L596.762 703.013Z" fill="#171717"/>
<path d="M627.331 709.557C621.22 710.328 617.236 706.557 616.395 699.89C615.558 693.262 618.485 688.66 624.597 687.888C628.764 687.362 631.752 689.001 633.393 692.1L629.462 694.491C628.765 692.805 627.295 691.7 625.113 691.976C622.295 692.332 621.117 694.496 621.482 697.393L621.958 701.163C622.324 704.06 623.998 705.825 626.816 705.469C629.236 705.163 630.252 703.624 630.77 701.664L634.895 703.038C634.006 706.859 631.34 709.051 627.331 709.557Z" fill="#171717"/>
<path d="M651.824 705.981L651.389 702.529L651.19 702.554C650.736 704.708 649.305 706.783 645.892 707.214C641.646 707.75 638.894 705.114 638.243 699.955L636.59 686.859L641.67 686.217L643.257 698.798C643.618 701.655 644.885 703.067 647.306 702.762C649.33 702.506 651.218 701.179 650.938 698.957L649.21 685.266L654.289 684.625L656.904 705.34L651.824 705.981Z" fill="#171717"/>
<path d="M669.619 704.219C665.691 704.715 662.931 703.612 660.567 701.491L663.281 698.085C665.01 699.64 666.97 700.481 669.312 700.186C671.733 699.88 672.649 698.837 672.464 697.369C672.314 696.179 671.504 695.515 669.649 695.507L667.55 695.49C663.035 695.495 660.329 693.861 659.853 690.091C659.347 686.083 662.162 683.147 666.885 682.551C670.932 682.04 673.146 682.97 675.391 684.783L672.79 688.136C671.439 687.016 669.573 686.284 667.549 686.539C665.367 686.815 664.524 687.808 664.685 689.078C664.86 690.467 665.694 691.007 667.679 691.079L669.817 691.091C674.421 691.155 676.859 692.904 677.295 696.356C677.801 700.364 674.778 703.568 669.619 704.219Z" fill="#171717"/>
<path d="M688.736 701.323C685.243 701.763 683.138 700.094 682.712 696.721L681.274 685.331L678.219 685.717L677.708 681.669L679.295 681.469C680.803 681.278 681.189 680.504 681.009 679.075L680.563 675.543L685.127 674.967L685.843 680.642L690.089 680.106L690.6 684.154L686.354 684.69L687.947 697.31L691.876 696.814L692.387 700.862L688.736 701.323Z" fill="#171717"/>
<path d="M705.23 699.725C699.317 700.471 695.095 696.73 694.254 690.063C693.417 683.436 696.582 678.803 702.495 678.057C708.448 677.305 712.665 681.006 713.501 687.634C714.343 694.301 711.183 698.973 705.23 699.725ZM704.714 695.637C707.373 695.301 708.824 693.385 708.429 690.25L707.943 686.4C707.552 683.305 705.67 681.809 703.011 682.144C700.392 682.475 698.94 684.392 699.331 687.487L699.817 691.336C700.213 694.472 702.095 695.968 704.714 695.637Z" fill="#171717"/>
<path d="M724.396 696.822L719.317 697.463L716.702 676.747L721.782 676.106L722.218 679.559L722.416 679.534C722.934 677.251 724.381 675.294 727.476 674.904C730.294 674.548 732.652 675.661 733.994 678.314L734.074 678.304C734.537 675.907 736.604 673.752 739.898 673.336C743.945 672.825 746.618 675.471 747.269 680.63L748.922 693.726L743.842 694.367L742.254 681.787C741.879 678.811 740.622 677.478 738.36 677.763C736.376 678.014 734.651 679.36 734.931 681.583L736.659 695.274L731.579 695.915L729.992 683.335C729.616 680.359 728.359 679.025 726.097 679.311C724.153 679.556 722.388 680.908 722.668 683.13L724.396 696.822Z" fill="#171717"/>
<path d="M769.003 691.192L763.924 691.833L761.309 671.117L766.389 670.476L766.825 673.929L767.023 673.904C767.541 671.621 768.988 669.664 772.083 669.274C774.901 668.918 777.259 670.031 778.601 672.684L778.681 672.674C779.144 670.277 781.211 668.122 784.505 667.706C788.552 667.195 791.225 669.841 791.876 675L793.529 688.096L788.449 688.737L786.861 676.157C786.486 673.181 785.229 671.848 782.967 672.133C780.983 672.384 779.258 673.73 779.538 675.953L781.266 689.644L776.186 690.285L774.599 677.705C774.223 674.729 772.966 673.395 770.704 673.681C768.76 673.926 766.995 675.278 767.275 677.5L769.003 691.192Z" fill="#171717"/>
<path d="M807.427 686.826C801.514 687.572 797.292 683.831 796.451 677.164C795.614 670.537 798.779 665.904 804.692 665.158C810.645 664.407 814.862 668.108 815.698 674.735C816.54 681.402 813.38 686.075 807.427 686.826ZM806.911 682.738C809.57 682.403 811.021 680.486 810.626 677.351L810.14 673.501C809.749 670.406 807.867 668.91 805.208 669.245C802.589 669.576 801.137 671.493 801.528 674.588L802.014 678.438C802.41 681.573 804.292 683.069 806.911 682.738Z" fill="#171717"/>
<path d="M834.372 682.941L833.936 679.489L833.738 679.514C833.279 681.95 831.257 683.818 828.519 684.164C823.32 684.82 819.927 681.257 819.051 674.312C818.179 667.407 820.585 663.152 825.784 662.496C828.522 662.15 830.975 663.373 831.989 665.664L832.188 665.639L830.665 653.574L835.745 652.933L839.451 682.3L834.372 682.941ZM829.615 679.752C832.036 679.446 833.746 677.981 833.475 675.838L832.644 669.25C832.388 667.226 830.358 666.152 827.937 666.457C825.318 666.788 823.777 668.958 824.148 671.895L824.599 675.466C824.969 678.403 826.996 680.083 829.615 679.752Z" fill="#171717"/>
<path d="M853.743 680.98C847.631 681.752 843.445 677.966 842.608 671.339C841.782 664.791 844.778 660.099 850.849 659.332C857.318 658.516 860.896 662.902 861.612 668.577L861.822 670.244L848.051 671.982L848.117 672.498C848.492 675.474 850.454 677.283 853.788 676.862C856.288 676.547 857.646 675.166 858.71 673.378L861.834 676.089C860.423 678.645 857.592 680.494 853.743 680.98ZM851.41 663.132C848.751 663.468 847.255 665.672 847.616 668.53L847.656 668.847L856.148 667.775L856.103 667.418C855.743 664.561 854.029 662.801 851.41 663.132Z" fill="#171717"/>
<path d="M875.256 677.781L872.518 678.127C869.066 678.563 867.208 676.942 866.807 673.768L863.732 649.401L868.812 648.76L872.007 674.079L874.746 673.733L875.256 677.781Z" fill="#171717"/>
</g>
</g>
<g id="Frame 3341_2">
<g id="Frame 3342_2">
<rect id="Rectangle 3261_2" width="91.3074" height="19.2226" transform="matrix(0.992129 -0.12522 -0.12522 -0.992129 570 855.814)" fill="#F5F5F5"/>
<rect id="Rectangle 3262_2" width="297.95" height="19.2226" transform="matrix(0.992129 -0.12522 -0.12522 -0.992129 564.584 812.904)" fill="#F5F5F5"/>
<rect id="Rectangle 3263_2" width="297.95" height="19.2226" transform="matrix(0.992129 -0.12522 -0.12522 -0.992129 559.168 769.994)" fill="#F5F5F5"/>
</g>
</g>
</g>
</g>
</g>
<g id="_Item card skeleton_3" opacity="0.8">
<rect x="968.166" y="280.438" width="444.417" height="533.655" rx="14.9274" transform="rotate(-7.19347 968.166 280.438)" fill="white"/>
<rect x="968.166" y="280.438" width="444.417" height="533.655" rx="14.9274" transform="rotate(-7.19347 968.166 280.438)" stroke="#D4D4D4"/>
<g id="Frame 2127_3">
<g clip-path="url(#clip4_68_103224)">
<g id="Frame 2126_3">
<rect width="444.402" height="283.621" transform="translate(968.166 280.438) rotate(-7.19347)" fill="#93C5FD"/>
<g id="Icon">
<path id=" &#240;&#159;&#142;&#168; Color_2" d="M1244.52 408.709L1239.5 368.913C1241.64 368.067 1243.52 366.671 1244.94 364.865C1246.36 363.059 1247.29 360.909 1247.61 358.632C1247.94 356.355 1247.65 354.033 1246.79 351.901C1245.93 349.77 1244.51 347.904 1242.7 346.494C1240.88 345.084 1238.72 344.181 1236.44 343.874C1234.16 343.568 1231.84 343.87 1229.72 344.751C1227.59 345.631 1225.74 347.058 1224.34 348.886C1222.95 350.714 1222.06 352.879 1221.78 355.161L1181.98 360.184C1181.13 358.045 1179.74 356.168 1177.93 354.744C1176.13 353.32 1173.98 352.398 1171.7 352.074C1169.42 351.749 1167.1 352.032 1164.97 352.895C1162.84 353.758 1160.97 355.17 1159.56 356.987C1158.15 358.804 1157.25 360.962 1156.94 363.241C1156.63 365.521 1156.94 367.841 1157.82 369.965C1158.7 372.09 1160.12 373.944 1161.95 375.339C1163.78 376.734 1165.95 377.621 1168.23 377.909L1173.25 417.705C1171.11 418.55 1169.23 419.947 1167.81 421.753C1166.39 423.558 1165.46 425.709 1165.14 427.986C1164.82 430.262 1165.1 432.585 1165.96 434.716C1166.82 436.848 1168.24 438.714 1170.05 440.123C1171.87 441.533 1174.03 442.437 1176.31 442.743C1178.59 443.05 1180.91 442.747 1183.03 441.867C1185.16 440.987 1187.01 439.56 1188.41 437.732C1189.8 435.903 1190.69 433.738 1190.97 431.457L1230.77 426.434C1231.62 428.573 1233.01 430.449 1234.82 431.874C1236.62 433.298 1238.77 434.22 1241.05 434.544C1243.33 434.869 1245.65 434.585 1247.78 433.722C1249.91 432.859 1251.78 431.448 1253.19 429.631C1254.6 427.813 1255.5 425.656 1255.81 423.376C1256.12 421.097 1255.81 418.777 1254.93 416.652C1254.05 414.528 1252.63 412.674 1250.8 411.278C1248.97 409.883 1246.8 408.997 1244.52 408.709V408.709ZM1233.87 350.344C1235.15 350.182 1236.45 350.404 1237.6 350.982C1238.76 351.559 1239.72 352.466 1240.36 353.588C1241 354.71 1241.29 355.997 1241.2 357.285C1241.11 358.574 1240.63 359.806 1239.84 360.827C1239.05 361.847 1237.97 362.61 1236.75 363.019C1235.52 363.427 1234.2 363.463 1232.96 363.122C1231.71 362.781 1230.6 362.079 1229.75 361.103C1228.9 360.127 1228.37 358.923 1228.2 357.641C1227.99 355.923 1228.46 354.19 1229.53 352.822C1230.59 351.454 1232.15 350.563 1233.87 350.344V350.344ZM1163.41 365.819C1163.25 364.537 1163.47 363.237 1164.05 362.081C1164.63 360.926 1165.53 359.968 1166.65 359.328C1167.78 358.688 1169.06 358.395 1170.35 358.487C1171.64 358.578 1172.87 359.049 1173.89 359.841C1174.91 360.633 1175.68 361.71 1176.08 362.935C1176.49 364.16 1176.53 365.479 1176.19 366.725C1175.85 367.971 1175.14 369.088 1174.17 369.934C1173.19 370.781 1171.99 371.319 1170.71 371.48C1168.99 371.696 1167.26 371.22 1165.89 370.159C1164.52 369.097 1163.63 367.537 1163.41 365.819V365.819ZM1178.89 436.274C1177.6 436.436 1176.3 436.214 1175.15 435.636C1173.99 435.059 1173.03 434.152 1172.39 433.03C1171.75 431.907 1171.46 430.621 1171.55 429.332C1171.64 428.044 1172.12 426.812 1172.91 425.791C1173.7 424.771 1174.78 424.008 1176 423.599C1177.23 423.191 1178.55 423.154 1179.79 423.495C1181.04 423.836 1182.15 424.539 1183 425.515C1183.85 426.49 1184.38 427.695 1184.55 428.977C1184.76 430.695 1184.29 432.428 1183.22 433.796C1182.16 435.164 1180.6 436.055 1178.89 436.274ZM1229.95 419.955L1190.16 424.977C1189.3 422.823 1187.88 420.938 1186.04 419.516C1184.21 418.093 1182.03 417.186 1179.73 416.887L1174.71 377.091C1176.86 376.229 1178.75 374.809 1180.17 372.976C1181.59 371.143 1182.5 368.964 1182.8 366.663L1222.59 361.64C1223.45 363.795 1224.87 365.68 1226.71 367.102C1228.54 368.524 1230.72 369.432 1233.02 369.731L1238.04 409.527C1235.89 410.388 1234 411.808 1232.58 413.641C1231.16 415.475 1230.25 417.654 1229.95 419.955V419.955ZM1243.68 428.096C1242.4 428.258 1241.1 428.036 1239.94 427.458C1238.79 426.881 1237.83 425.974 1237.19 424.852C1236.55 423.73 1236.25 422.443 1236.35 421.155C1236.44 419.866 1236.91 418.634 1237.7 417.613C1238.49 416.593 1239.57 415.83 1240.79 415.421C1242.02 415.013 1243.34 414.977 1244.58 415.318C1245.83 415.659 1246.95 416.361 1247.79 417.337C1248.64 418.313 1249.18 419.517 1249.34 420.799C1249.55 422.517 1249.08 424.25 1248.02 425.618C1246.96 426.986 1245.4 427.877 1243.68 428.096V428.096Z" fill="black" fill-opacity="0.3"/>
</g>
</g>
</g>
</g>
<g id="Frame 29_3">
<g id="Frame 2133_3">
<g id="Frame 2128_3">
<g id="Object detection">
<path d="M1058.94 647.009C1051.67 647.926 1046.25 643.571 1045.06 634.205C1043.88 624.84 1048.06 619.273 1055.32 618.356C1062.62 617.435 1068.01 621.794 1069.19 631.16C1070.37 640.526 1066.24 646.087 1058.94 647.009ZM1058.35 642.366C1062.32 641.865 1064.5 638.727 1063.91 634.004L1063.37 629.718C1062.77 624.996 1059.87 622.499 1055.91 622.999C1051.94 623.5 1049.75 626.639 1050.35 631.361L1050.89 635.647C1051.49 640.37 1054.38 642.867 1058.35 642.366Z" fill="#171717"/>
<path d="M1075.94 644.379L1072.23 615.012L1077.31 614.371L1078.83 626.436L1078.99 626.416C1079.45 623.939 1081.48 622.151 1084.22 621.805C1089.45 621.144 1092.84 624.667 1093.71 631.573C1094.59 638.518 1092.19 642.812 1086.95 643.473C1084.21 643.819 1081.83 642.507 1080.74 640.266L1080.58 640.286L1081.02 643.738L1075.94 644.379ZM1084.79 639.472C1087.41 639.141 1089 637.006 1088.63 634.069L1088.18 630.498C1087.8 627.561 1085.73 625.847 1083.11 626.177C1080.69 626.483 1079.03 628.023 1079.29 630.047L1080.12 636.635C1080.39 638.778 1082.37 639.777 1084.79 639.472Z" fill="#171717"/>
<path d="M1100.22 645.265L1097.12 620.66L1102.2 620.019L1105.13 643.235C1105.56 646.688 1104.15 648.882 1100.34 649.363L1097.56 649.714L1097.05 645.666L1100.22 645.265ZM1099.28 617.324C1097.17 617.589 1096.17 616.628 1095.98 615.16L1095.88 614.366C1095.7 612.898 1096.43 611.716 1098.54 611.45C1100.6 611.19 1101.65 612.146 1101.83 613.615L1101.93 614.408C1102.12 615.877 1101.34 617.063 1099.28 617.324Z" fill="#171717"/>
<path d="M1119.13 639.411C1113.02 640.183 1108.84 636.397 1108 629.77C1107.17 623.222 1110.17 618.529 1116.24 617.763C1122.71 616.947 1126.29 621.333 1127 627.008L1127.21 628.675L1113.44 630.413L1113.51 630.929C1113.88 633.905 1115.85 635.714 1119.18 635.293C1121.68 634.978 1123.04 633.597 1124.1 631.809L1127.23 634.52C1125.81 637.076 1122.98 638.925 1119.13 639.411ZM1116.8 621.563C1114.14 621.898 1112.65 624.103 1113.01 626.96L1113.05 627.278L1121.54 626.206L1121.49 625.849C1121.13 622.992 1119.42 621.232 1116.8 621.563Z" fill="#171717"/>
<path d="M1141.07 636.643C1134.95 637.415 1130.97 633.644 1130.13 626.977C1129.29 620.349 1132.22 615.746 1138.33 614.975C1142.5 614.449 1145.49 616.088 1147.13 619.187L1143.2 621.578C1142.5 619.892 1141.03 618.787 1138.85 619.063C1136.03 619.418 1134.85 621.583 1135.22 624.48L1135.69 628.25C1136.06 631.147 1137.73 632.911 1140.55 632.556C1142.97 632.25 1143.99 630.711 1144.5 628.751L1148.63 630.125C1147.74 633.946 1145.07 636.137 1141.07 636.643Z" fill="#171717"/>
<path d="M1159.65 633.814C1156.15 634.255 1154.05 632.586 1153.62 629.212L1152.18 617.823L1149.13 618.208L1148.62 614.161L1150.2 613.96C1151.71 613.77 1152.1 612.995 1151.92 611.567L1151.47 608.035L1156.04 607.459L1156.75 613.134L1161 612.598L1161.51 616.646L1157.26 617.182L1158.86 629.802L1162.79 629.306L1163.3 633.354L1159.65 633.814Z" fill="#171717"/>
<path d="M1190.26 629.951L1189.82 626.498L1189.62 626.523C1189.16 628.96 1187.14 630.828 1184.4 631.173C1179.2 631.83 1175.81 628.266 1174.94 621.321C1174.06 614.416 1176.47 610.161 1181.67 609.505C1184.41 609.16 1186.86 610.382 1187.87 612.673L1188.07 612.648L1186.55 600.584L1191.63 599.943L1195.34 629.31L1190.26 629.951ZM1185.5 626.761C1187.92 626.456 1189.63 624.99 1189.36 622.847L1188.53 616.259C1188.27 614.236 1186.24 613.161 1183.82 613.467C1181.2 613.797 1179.66 615.967 1180.03 618.904L1180.48 622.476C1180.85 625.412 1182.88 627.092 1185.5 626.761Z" fill="#171717"/>
<path d="M1209.63 627.99C1203.52 628.761 1199.33 624.976 1198.49 618.348C1197.67 611.8 1200.66 607.108 1206.73 606.342C1213.2 605.525 1216.78 609.912 1217.5 615.587L1217.71 617.254L1203.94 618.992L1204 619.508C1204.38 622.484 1206.34 624.292 1209.67 623.872C1212.17 623.556 1213.53 622.175 1214.59 620.388L1217.72 623.098C1216.31 625.655 1213.48 627.504 1209.63 627.99ZM1207.29 610.141C1204.64 610.477 1203.14 612.682 1203.5 615.539L1203.54 615.856L1212.03 614.785L1211.99 614.427C1211.63 611.57 1209.91 609.811 1207.29 610.141Z" fill="#171717"/>
<path d="M1229.79 624.961C1226.3 625.402 1224.19 623.732 1223.77 620.359L1222.33 608.969L1219.27 609.355L1218.76 605.307L1220.35 605.107C1221.86 604.916 1222.25 604.142 1222.06 602.713L1221.62 599.181L1226.18 598.605L1226.9 604.28L1231.15 603.744L1231.66 607.792L1227.41 608.328L1229 620.948L1232.93 620.452L1233.44 624.5L1229.79 624.961Z" fill="#171717"/>
<path d="M1246.44 623.343C1240.33 624.114 1236.15 620.329 1235.31 613.701C1234.48 607.153 1237.48 602.461 1243.55 601.695C1250.02 600.878 1253.6 605.265 1254.31 610.94L1254.52 612.607L1240.75 614.345L1240.82 614.861C1241.19 617.837 1243.16 619.646 1246.49 619.225C1248.99 618.909 1250.35 617.528 1251.41 615.741L1254.54 618.451C1253.13 621.008 1250.29 622.857 1246.44 623.343ZM1244.11 605.495C1241.45 605.83 1239.96 608.035 1240.32 610.892L1240.36 611.21L1248.85 610.138L1248.81 609.781C1248.44 606.923 1246.73 605.164 1244.11 605.495Z" fill="#171717"/>
<path d="M1268.38 620.575C1262.26 621.346 1258.28 617.575 1257.44 610.908C1256.6 604.281 1259.53 599.678 1265.64 598.907C1269.81 598.381 1272.8 600.02 1274.44 603.118L1270.51 605.51C1269.81 603.824 1268.34 602.719 1266.16 602.994C1263.34 603.35 1262.16 605.515 1262.53 608.412L1263 612.182C1263.37 615.079 1265.04 616.843 1267.86 616.487C1270.28 616.182 1271.3 614.643 1271.81 612.682L1275.94 614.057C1275.05 617.878 1272.38 620.069 1268.38 620.575Z" fill="#171717"/>
<path d="M1286.96 617.746C1283.46 618.187 1281.36 616.517 1280.93 613.144L1279.49 601.755L1276.44 602.14L1275.93 598.092L1277.51 597.892C1279.02 597.702 1279.41 596.927 1279.23 595.499L1278.78 591.967L1283.35 591.391L1284.06 597.066L1288.31 596.53L1288.82 600.577L1284.57 601.113L1286.17 613.733L1290.1 613.237L1290.61 617.285L1286.96 617.746Z" fill="#171717"/>
<path d="M1294.87 592.637C1292.77 592.902 1291.76 591.941 1291.58 590.473L1291.48 589.679C1291.29 588.211 1292.03 587.029 1294.13 586.763C1296.2 586.503 1297.24 587.459 1297.43 588.928L1297.53 589.721C1297.72 591.19 1296.94 592.376 1294.87 592.637ZM1295.33 616.689L1292.72 595.973L1297.79 595.332L1300.41 616.048L1295.33 616.689Z" fill="#171717"/>
<path d="M1314.57 614.744C1308.66 615.491 1304.44 611.75 1303.6 605.083C1302.76 598.455 1305.92 593.822 1311.84 593.076C1317.79 592.325 1322.01 596.026 1322.84 602.653C1323.69 609.32 1320.53 613.993 1314.57 614.744ZM1314.06 610.657C1316.72 610.321 1318.17 608.404 1317.77 605.269L1317.29 601.42C1316.89 598.324 1315.01 596.828 1312.35 597.164C1309.73 597.494 1308.28 599.411 1308.67 602.507L1309.16 606.356C1309.56 609.491 1311.44 610.987 1314.06 610.657Z" fill="#171717"/>
<path d="M1333.74 611.841L1328.66 612.483L1326.04 591.767L1331.12 591.126L1331.56 594.578L1331.76 594.553C1332.31 592.226 1333.84 590.299 1337.06 589.893C1341.3 589.357 1344.05 591.993 1344.71 597.152L1346.36 610.249L1341.28 610.89L1339.69 598.31C1339.32 595.373 1338.14 593.99 1335.72 594.296C1333.61 594.561 1331.73 595.928 1332.01 598.15L1333.74 611.841Z" fill="#171717"/>
</g>
</g>
<g id="Frame 3341_3">
<g id="Frame 3342_3">
<rect id="Rectangle 3261_3" width="91.3074" height="19.2226" transform="matrix(0.992129 -0.12522 -0.12522 -0.992129 1063.06 795.734)" fill="#F5F5F5"/>
<rect id="Rectangle 3262_3" width="297.95" height="19.2226" transform="matrix(0.992129 -0.12522 -0.12522 -0.992129 1057.64 752.824)" fill="#F5F5F5"/>
<rect id="Rectangle 3263_3" width="297.95" height="19.2226" transform="matrix(0.992129 -0.12522 -0.12522 -0.992129 1052.22 709.914)" fill="#F5F5F5"/>
</g>
</g>
</g>
</g>
</g>
</g>
<g id="Frame 3346">
<g id="_Item card skeleton_4" opacity="0.6">
<rect x="1460.96" y="218.241" width="444.417" height="533.655" rx="14.9274" transform="rotate(-7.19347 1460.96 218.241)" fill="white"/>
<rect x="1460.96" y="218.241" width="444.417" height="533.655" rx="14.9274" transform="rotate(-7.19347 1460.96 218.241)" stroke="#D4D4D4"/>
<g id="Frame 2127_4">
<g clip-path="url(#clip5_68_103224)">
<g id="Frame 2126_4">
<rect width="444.402" height="283.621" transform="translate(1460.96 218.241) rotate(-7.19347)" fill="#FDE047"/>
<g id="Icon_2">
<path id=" &#240;&#159;&#142;&#168; Color_3" fill-rule="evenodd" clip-rule="evenodd" d="M1657.84 316.58L1670.8 314.944C1672.51 314.725 1674.07 313.834 1675.14 312.466C1676.2 311.098 1676.67 309.365 1676.46 307.647L1674.82 294.688C1674.6 292.971 1673.71 291.41 1672.34 290.348C1670.98 289.287 1669.24 288.812 1667.52 289.027L1654.57 290.662C1652.85 290.881 1651.29 291.772 1650.23 293.14C1649.16 294.508 1648.69 296.241 1648.9 297.959L1650.54 310.918C1650.76 312.636 1651.65 314.197 1653.02 315.258C1654.39 316.319 1656.12 316.795 1657.84 316.58ZM1657.02 310.1L1655.38 297.142L1668.34 295.506L1669.98 308.465L1657.02 310.1ZM1732.32 280.85L1712.88 283.303C1711.16 283.522 1709.6 284.413 1708.54 285.781C1707.48 287.149 1707 288.882 1707.22 290.6L1709.67 310.038L1703.19 310.856C1701.47 311.075 1699.91 311.966 1698.85 313.334C1697.79 314.702 1697.31 316.435 1697.53 318.153L1698.35 324.633C1698.57 326.35 1699.46 327.911 1700.83 328.972C1702.19 330.034 1703.93 330.509 1705.64 330.294L1712.12 329.476C1713.84 329.258 1715.4 328.366 1716.46 326.998C1717.52 325.63 1718 323.897 1717.79 322.179L1716.97 315.7L1736.41 313.247C1738.12 313.028 1739.68 312.137 1740.75 310.769C1741.81 309.401 1742.28 307.668 1742.07 305.949L1739.61 286.511C1739.4 284.794 1738.5 283.233 1737.14 282.172C1735.77 281.11 1734.03 280.635 1732.32 280.85ZM1704.83 323.815L1704.01 317.335L1710.49 316.518L1711.31 322.997L1704.83 323.815ZM1716.15 309.221L1713.7 289.783L1733.13 287.329L1735.59 306.767L1716.15 309.221ZM1688.6 299.532L1695.08 298.715L1695.89 305.194L1689.42 306.012L1688.6 299.532ZM1744.52 325.388L1738.04 326.206L1738.86 332.685L1745.34 331.867L1744.52 325.388ZM1719.42 335.138L1712.94 335.956L1713.76 342.436L1720.24 341.618L1719.42 335.138ZM1701.62 350.549L1688.66 352.185L1686.21 332.747C1685.99 331.029 1685.1 329.469 1683.73 328.407C1682.36 327.346 1680.63 326.871 1678.91 327.085L1659.47 329.539C1657.76 329.758 1656.2 330.649 1655.14 332.017C1654.07 333.385 1653.6 335.118 1653.81 336.836L1656.27 356.274C1656.49 357.992 1657.38 359.552 1658.74 360.614C1660.11 361.675 1661.85 362.15 1663.56 361.935L1683 359.482L1684.64 372.441C1684.86 374.158 1685.75 375.719 1687.12 376.78C1688.48 377.842 1690.22 378.317 1691.93 378.102L1704.89 376.467C1706.61 376.248 1708.17 375.357 1709.23 373.989C1710.29 372.621 1710.77 370.888 1710.55 369.17L1708.92 356.211C1708.7 354.493 1707.81 352.933 1706.44 351.871C1705.07 350.81 1703.34 350.335 1701.62 350.549ZM1662.75 355.456L1660.29 336.018L1679.73 333.565L1682.18 353.003L1662.75 355.456ZM1691.12 371.623L1689.48 358.664L1702.44 357.029L1704.08 369.987L1691.12 371.623ZM1730.81 373.195L1743.77 371.56C1745.48 371.341 1747.05 370.45 1748.11 369.082C1749.17 367.714 1749.64 365.981 1749.43 364.263L1747.79 351.304C1747.57 349.586 1746.68 348.025 1745.32 346.964C1743.95 345.903 1742.21 345.427 1740.5 345.642L1727.54 347.278C1725.82 347.496 1724.26 348.388 1723.2 349.756C1722.14 351.124 1721.66 352.857 1721.88 354.575L1723.51 367.534C1723.73 369.251 1724.62 370.812 1725.99 371.873C1727.36 372.935 1729.09 373.41 1730.81 373.195ZM1729.99 366.716L1728.36 353.757L1741.31 352.122L1742.95 365.08L1729.99 366.716Z" fill="black" fill-opacity="0.3"/>
</g>
</g>
</g>
</g>
<g id="Frame 29_4">
<g id="Frame 2133_4">
<g id="Frame 2128_4">
<g id="Action detection">
<path d="M1562.44 582.655L1557.01 583.342L1553.89 576.558L1544.05 577.8L1542.76 585.14L1537.44 585.811L1543.23 556.939L1549.74 556.117L1562.44 582.655ZM1552.06 572.234L1547.05 561.295L1546.85 561.32L1544.75 573.156L1552.06 572.234Z" fill="#171717"/>
<path d="M1574.44 581.625C1568.33 582.396 1564.35 578.625 1563.51 571.958C1562.67 565.331 1565.6 560.728 1571.71 559.956C1575.88 559.431 1578.86 561.069 1580.51 564.168L1576.57 566.559C1575.88 564.873 1574.41 563.769 1572.22 564.044C1569.41 564.4 1568.23 566.564 1568.59 569.461L1569.07 573.231C1569.44 576.128 1571.11 577.893 1573.93 577.537C1576.35 577.231 1577.36 575.692 1577.88 573.732L1582.01 575.106C1581.12 578.928 1578.45 581.119 1574.44 581.625Z" fill="#171717"/>
<path d="M1593.02 578.796C1589.53 579.236 1587.43 577.567 1587 574.194L1585.56 562.804L1582.51 563.19L1582 559.142L1583.58 558.942C1585.09 558.751 1585.48 557.977 1585.3 556.548L1584.85 553.016L1589.41 552.44L1590.13 558.115L1594.38 557.579L1594.89 561.627L1590.64 562.163L1592.23 574.783L1596.16 574.287L1596.67 578.335L1593.02 578.796Z" fill="#171717"/>
<path d="M1600.94 553.686C1598.84 553.952 1597.83 552.991 1597.65 551.522L1597.55 550.729C1597.36 549.26 1598.1 548.079 1600.2 547.813C1602.26 547.553 1603.31 548.509 1603.5 549.977L1603.6 550.771C1603.78 552.239 1603.01 553.426 1600.94 553.686ZM1601.4 577.739L1598.78 557.023L1603.86 556.382L1606.48 577.098L1601.4 577.739Z" fill="#171717"/>
<path d="M1620.64 575.794C1614.73 576.54 1610.51 572.799 1609.66 566.132C1608.83 559.505 1611.99 554.872 1617.91 554.126C1623.86 553.374 1628.07 557.076 1628.91 563.703C1629.75 570.37 1626.59 575.043 1620.64 575.794ZM1620.12 571.706C1622.78 571.371 1624.23 569.454 1623.84 566.319L1623.35 562.469C1622.96 559.374 1621.08 557.878 1618.42 558.213C1615.8 558.544 1614.35 560.461 1614.74 563.556L1615.23 567.406C1615.62 570.541 1617.51 572.037 1620.12 571.706Z" fill="#171717"/>
<path d="M1639.81 572.891L1634.73 573.532L1632.11 552.816L1637.19 552.175L1637.63 555.628L1637.83 555.603C1638.38 553.275 1639.91 551.349 1643.12 550.943C1647.37 550.407 1650.12 553.043 1650.77 558.202L1652.43 571.298L1647.35 571.939L1645.76 559.359C1645.39 556.422 1644.21 555.04 1641.79 555.345C1639.68 555.611 1637.8 556.977 1638.08 559.2L1639.81 572.891Z" fill="#171717"/>
<path d="M1680.29 567.781L1679.86 564.328L1679.66 564.353C1679.2 566.79 1677.18 568.658 1674.44 569.003C1669.24 569.66 1665.85 566.096 1664.97 559.152C1664.1 552.246 1666.51 547.992 1671.71 547.335C1674.44 546.99 1676.9 548.212 1677.91 550.503L1678.11 550.478L1676.59 538.414L1681.67 537.773L1685.37 567.14L1680.29 567.781ZM1675.54 564.591C1677.96 564.286 1679.67 562.82 1679.4 560.677L1678.57 554.09C1678.31 552.066 1676.28 550.991 1673.86 551.297C1671.24 551.628 1669.7 553.797 1670.07 556.734L1670.52 560.306C1670.89 563.243 1672.92 564.922 1675.54 564.591Z" fill="#171717"/>
<path d="M1699.67 565.82C1693.55 566.591 1689.37 562.806 1688.53 556.178C1687.7 549.63 1690.7 544.938 1696.77 544.172C1703.24 543.355 1706.82 547.742 1707.53 553.417L1707.74 555.084L1693.97 556.822L1694.04 557.338C1694.41 560.314 1696.38 562.123 1699.71 561.702C1702.21 561.386 1703.57 560.005 1704.63 558.218L1707.76 560.928C1706.35 563.485 1703.52 565.334 1699.67 565.82ZM1697.33 547.972C1694.67 548.307 1693.18 550.512 1693.54 553.369L1693.58 553.687L1702.07 552.615L1702.03 552.258C1701.67 549.4 1699.95 547.641 1697.33 547.972Z" fill="#171717"/>
<path d="M1719.83 562.791C1716.34 563.232 1714.23 561.562 1713.81 558.189L1712.37 546.799L1709.31 547.185L1708.8 543.137L1710.39 542.937C1711.9 542.747 1712.28 541.972 1712.1 540.543L1711.66 537.011L1716.22 536.435L1716.94 542.11L1721.18 541.574L1721.69 545.622L1717.45 546.158L1719.04 558.778L1722.97 558.282L1723.48 562.33L1719.83 562.791Z" fill="#171717"/>
<path d="M1736.48 561.173C1730.37 561.944 1726.18 558.159 1725.35 551.531C1724.52 544.983 1727.52 540.291 1733.59 539.525C1740.06 538.708 1743.64 543.095 1744.35 548.77L1744.56 550.437L1730.79 552.175L1730.86 552.691C1731.23 555.667 1733.19 557.476 1736.53 557.055C1739.03 556.739 1740.39 555.359 1741.45 553.571L1744.57 556.281C1743.16 558.838 1740.33 560.687 1736.48 561.173ZM1734.15 543.325C1731.49 543.66 1729.99 545.865 1730.36 548.722L1730.4 549.04L1738.89 547.968L1738.84 547.611C1738.48 544.753 1736.77 542.994 1734.15 543.325Z" fill="#171717"/>
<path d="M1758.41 558.405C1752.3 559.176 1748.32 555.406 1747.48 548.738C1746.64 542.111 1749.57 537.508 1755.68 536.737C1759.85 536.211 1762.83 537.85 1764.48 540.949L1760.54 543.34C1759.85 541.654 1758.38 540.549 1756.19 540.824C1753.38 541.18 1752.2 543.345 1752.56 546.242L1753.04 550.012C1753.41 552.909 1755.08 554.673 1757.9 554.317C1760.32 554.012 1761.33 552.473 1761.85 550.512L1765.98 551.887C1765.09 555.708 1762.42 557.899 1758.41 558.405Z" fill="#171717"/>
<path d="M1776.99 555.576C1773.5 556.017 1771.4 554.347 1770.97 550.974L1769.53 539.585L1766.48 539.97L1765.97 535.922L1767.55 535.722C1769.06 535.532 1769.45 534.757 1769.27 533.329L1768.82 529.797L1773.38 529.221L1774.1 534.896L1778.35 534.36L1778.86 538.408L1774.61 538.943L1776.2 551.563L1780.13 551.067L1780.64 555.115L1776.99 555.576Z" fill="#171717"/>
<path d="M1784.91 530.467C1782.81 530.732 1781.8 529.771 1781.62 528.303L1781.52 527.509C1781.33 526.041 1782.07 524.859 1784.17 524.594C1786.23 524.333 1787.28 525.289 1787.47 526.758L1787.57 527.551C1787.75 529.02 1786.98 530.206 1784.91 530.467ZM1785.37 554.519L1782.75 533.804L1787.83 533.162L1790.45 553.878L1785.37 554.519Z" fill="#171717"/>
<path d="M1804.61 552.574C1798.7 553.321 1794.48 549.58 1793.63 542.913C1792.8 536.285 1795.96 531.653 1801.88 530.906C1807.83 530.155 1812.05 533.856 1812.88 540.483C1813.72 547.151 1810.56 551.823 1804.61 552.574ZM1804.09 548.487C1806.75 548.151 1808.2 546.234 1807.81 543.099L1807.32 539.25C1806.93 536.154 1805.05 534.658 1802.39 534.994C1799.77 535.324 1798.32 537.241 1798.71 540.337L1799.2 544.186C1799.59 547.321 1801.48 548.817 1804.09 548.487Z" fill="#171717"/>
<path d="M1823.78 549.671L1818.7 550.313L1816.08 529.597L1821.16 528.956L1821.6 532.408L1821.8 532.383C1822.35 530.056 1823.88 528.129 1827.09 527.723C1831.34 527.187 1834.09 529.823 1834.74 534.983L1836.4 548.079L1831.32 548.72L1829.73 536.14C1829.36 533.203 1828.18 531.82 1825.76 532.126C1823.65 532.391 1821.77 533.758 1822.05 535.98L1823.78 549.671Z" fill="#171717"/>
</g>
</g>
<g id="Frame 3341_4">
<g id="Frame 3342_4">
<rect id="Rectangle 3261_4" width="91.3074" height="19.2226" transform="matrix(0.992129 -0.12522 -0.12522 -0.992129 1554.36 721.719)" fill="#F5F5F5"/>
<rect id="Rectangle 3262_4" width="297.95" height="19.2226" transform="matrix(0.992129 -0.12522 -0.12522 -0.992129 1548.94 678.809)" fill="#F5F5F5"/>
<rect id="Rectangle 3263_4" width="297.95" height="19.2226" transform="matrix(0.992129 -0.12522 -0.12522 -0.992129 1543.53 635.898)" fill="#F5F5F5"/>
</g>
</g>
</g>
</g>
</g>
</g>
<g id="Frame 22" opacity="0.3">
<g id="Frame 3347_2">
<g id="_Item card skeleton_5">
<rect x="-403.209" y="-133.562" width="444.417" height="533.655" rx="14.9274" transform="rotate(-7.19347 -403.209 -133.562)" fill="white"/>
<g id="Frame 2127_5">
<g clip-path="url(#clip6_68_103224)">
<g id="Frame 2126_5">
<rect width="444.402" height="283.621" transform="translate(-403.209 -133.562) rotate(-7.19347)" fill="#D4D4D4"/>
</g>
</g>
</g>
</g>
<g id="_Item card skeleton_6">
<rect x="89.584" y="-195.76" width="444.417" height="533.655" rx="14.9274" transform="rotate(-7.19347 89.584 -195.76)" fill="white"/>
<rect x="89.584" y="-195.76" width="444.417" height="533.655" rx="14.9274" transform="rotate(-7.19347 89.584 -195.76)" stroke="#D4D4D4"/>
<g id="Frame 2127_6">
<g clip-path="url(#clip7_68_103224)">
<g id="Frame 2126_6">
<rect width="444.402" height="283.621" transform="translate(89.584 -195.76) rotate(-7.19347)" fill="#93C5FD"/>
</g>
</g>
</g>
<g id="Frame 29_5">
<g id="Frame 2133_5">
<g id="Frame 3341_5">
<g id="Frame 3342_5">
<rect id="Rectangle 3261_5" width="91.3074" height="19.2226" transform="matrix(0.992129 -0.12522 -0.12522 -0.992129 179.039 276.466)" fill="#F5F5F5"/>
<rect id="Rectangle 3262_5" width="297.95" height="19.2226" transform="matrix(0.992129 -0.12522 -0.12522 -0.992129 173.623 233.556)" fill="#F5F5F5"/>
<rect id="Rectangle 3263_5" width="297.95" height="19.2226" transform="matrix(0.992129 -0.12522 -0.12522 -0.992129 168.207 190.646)" fill="#F5F5F5"/>
</g>
</g>
</g>
</g>
</g>
</g>
<g id="Frame 3346_2">
<g id="_Item card skeleton_7">
<rect x="582.375" y="-257.956" width="444.417" height="533.655" rx="14.9274" transform="rotate(-7.19347 582.375 -257.956)" fill="white"/>
<rect x="582.375" y="-257.956" width="444.417" height="533.655" rx="14.9274" transform="rotate(-7.19347 582.375 -257.956)" stroke="#D4D4D4"/>
<g id="Frame 2127_7">
<g clip-path="url(#clip8_68_103224)">
<g id="Frame 2126_7">
<rect width="444.402" height="283.621" transform="translate(582.375 -257.956) rotate(-7.19347)" fill="#FDE047"/>
</g>
</g>
</g>
<g id="Frame 29_6">
<g id="Frame 2133_6">
<g id="Frame 3341_6">
<g id="Frame 3342_6">
<rect id="Rectangle 3261_6" width="91.3074" height="19.2226" transform="matrix(0.992129 -0.12522 -0.12522 -0.992129 671.83 214.27)" fill="#F5F5F5"/>
<rect id="Rectangle 3262_6" width="297.95" height="19.2226" transform="matrix(0.992129 -0.12522 -0.12522 -0.992129 666.414 171.359)" fill="#F5F5F5"/>
<rect id="Rectangle 3263_6" width="297.95" height="19.2226" transform="matrix(0.992129 -0.12522 -0.12522 -0.992129 660.998 128.449)" fill="#F5F5F5"/>
</g>
</g>
</g>
</g>
</g>
<g id="_Item card skeleton_8">
<rect x="1075.17" y="-320.153" width="444.417" height="533.655" rx="14.9274" transform="rotate(-7.19347 1075.17 -320.153)" fill="white"/>
<rect x="1075.17" y="-320.153" width="444.417" height="533.655" rx="14.9274" transform="rotate(-7.19347 1075.17 -320.153)" stroke="#D4D4D4"/>
<g id="Frame 29_7">
<g id="Frame 2133_7">
<g id="Frame 3341_7">
<g id="Frame 3342_7">
<rect id="Rectangle 3261_7" width="91.3074" height="19.2226" transform="matrix(0.992129 -0.12522 -0.12522 -0.992129 1164.62 152.072)" fill="#F5F5F5"/>
<rect id="Rectangle 3262_7" width="297.95" height="19.2226" transform="matrix(0.992129 -0.12522 -0.12522 -0.992129 1159.21 109.162)" fill="#F5F5F5"/>
<rect id="Rectangle 3263_7" width="297.95" height="19.2226" transform="matrix(0.992129 -0.12522 -0.12522 -0.992129 1153.79 66.252)" fill="#F5F5F5"/>
</g>
</g>
</g>
</g>
</g>
<g id="_Item card skeleton_9">
<rect x="1567.96" y="-382.351" width="444.417" height="533.655" rx="14.9274" transform="rotate(-7.19347 1567.96 -382.351)" fill="white"/>
<rect x="1567.96" y="-382.351" width="444.417" height="533.655" rx="14.9274" transform="rotate(-7.19347 1567.96 -382.351)" stroke="#D4D4D4"/>
<g id="Frame 29_8">
<g id="Frame 2133_8">
<g id="Frame 3341_8">
<g id="Frame 3342_8">
<rect id="Rectangle 3261_8" width="91.3074" height="19.2226" transform="matrix(0.992129 -0.12522 -0.12522 -0.992129 1657.41 89.875)" fill="#F5F5F5"/>
<rect id="Rectangle 3262_8" width="297.95" height="19.2226" transform="matrix(0.992129 -0.12522 -0.12522 -0.992129 1652 46.9648)" fill="#F5F5F5"/>
<rect id="Rectangle 3263_8" width="297.95" height="19.2226" transform="matrix(0.992129 -0.12522 -0.12522 -0.992129 1646.58 4.05469)" fill="#F5F5F5"/>
</g>
</g>
</g>
</g>
</g>
</g>
</g>
<g id="Frame 23" opacity="0.3">
<g id="Frame 3347_3">
<g id="_Item card skeleton_10">
<rect x="-256.545" y="1028.47" width="444.417" height="533.3" rx="14.9274" transform="rotate(-7.19347 -256.545 1028.47)" fill="white"/>
<rect x="-256.545" y="1028.47" width="444.417" height="533.3" rx="14.9274" transform="rotate(-7.19347 -256.545 1028.47)" stroke="#D4D4D4"/>
<g id="Frame 2127_8">
<g clip-path="url(#clip9_68_103224)">
<g id="Frame 2126_8">
<rect width="444.402" height="283.621" transform="translate(-256.545 1028.47) rotate(-7.19347)" fill="#CEB8FF"/>
<g id="Icon_3">
<path id=" &#240;&#159;&#142;&#168; Color_4" fill-rule="evenodd" clip-rule="evenodd" d="M-55.5763 1159.2L-42.6177 1157.57L-41.7999 1164.05L-54.7585 1165.68C-56.477 1165.9 -58.2112 1165.42 -59.5796 1164.36C-60.9481 1163.3 -61.8388 1161.74 -62.0557 1160.02L-68.5979 1108.19C-68.8148 1106.47 -68.3402 1104.73 -67.2784 1103.36C-66.2167 1102 -64.6548 1101.11 -62.9364 1100.89L-11.1017 1094.35C-9.38324 1094.13 -7.64903 1094.6 -6.28056 1095.67C-4.91209 1096.73 -4.02143 1098.29 -3.80454 1100.01L-2.16898 1112.97L-8.64832 1113.78L-10.2839 1100.83L-62.1186 1107.37L-55.5763 1159.2ZM-34.1248 1146.62L-27.6455 1145.8L-30.5077 1123.13L-20.7887 1121.9L-21.6065 1115.42L-47.5239 1118.69L-46.7061 1125.17L-36.9871 1123.94L-34.1248 1146.62ZM24.603 1128.55L12.5737 1119.21C11.4892 1118.37 10.1163 1118 8.75598 1118.17C7.39565 1118.34 6.1589 1119.05 5.31686 1120.13L-34.3122 1171.22L-32.05 1189.15L-14.1262 1186.88L25.5189 1135.8C26.3579 1134.72 26.7325 1133.34 26.5609 1131.98C26.3892 1130.62 25.6851 1129.39 24.603 1128.55ZM-17.6277 1180.74L-26.3884 1181.85L-27.4942 1173.09L-0.769082 1138.64L9.09734 1146.3L-17.6277 1180.74ZM13.1 1141.14L3.23396 1133.48L9.6519 1125.21L19.5183 1132.87L13.1 1141.14Z" fill="black" fill-opacity="0.3"/>
</g>
</g>
</g>
</g>
</g>
<g id="_Item card skeleton_11">
<rect x="236.248" y="966.27" width="444.417" height="533.655" rx="14.9274" transform="rotate(-7.19347 236.248 966.27)" fill="white"/>
<rect x="236.248" y="966.27" width="444.417" height="533.655" rx="14.9274" transform="rotate(-7.19347 236.248 966.27)" stroke="#D4D4D4"/>
<g id="Frame 2127_9">
<g clip-path="url(#clip10_68_103224)">
<g id="Frame 2126_9">
<rect width="444.402" height="283.621" transform="translate(236.248 966.27) rotate(-7.19347)" fill="#FDE047"/>
<g id="Icon_4">
<path id=" &#240;&#159;&#142;&#168; Color_5" fill-rule="evenodd" clip-rule="evenodd" d="M433.128 1064.61L446.087 1062.97C447.804 1062.75 449.365 1061.86 450.426 1060.49C451.488 1059.13 451.963 1057.39 451.748 1055.68L450.113 1042.72C449.894 1041 449.003 1039.44 447.635 1038.38C446.267 1037.32 444.534 1036.84 442.815 1037.06L429.857 1038.69C428.139 1038.91 426.578 1039.8 425.517 1041.17C424.456 1042.54 423.98 1044.27 424.195 1045.99L425.831 1058.95C426.049 1060.66 426.94 1062.22 428.309 1063.29C429.677 1064.35 431.41 1064.82 433.128 1064.61ZM432.31 1058.13L430.675 1045.17L443.633 1043.53L445.269 1056.49L432.31 1058.13ZM507.608 1028.88L488.17 1031.33C486.452 1031.55 484.892 1032.44 483.83 1033.81C482.769 1035.18 482.293 1036.91 482.508 1038.63L484.962 1058.07L478.482 1058.88C476.765 1059.1 475.204 1059.99 474.143 1061.36C473.081 1062.73 472.606 1064.46 472.821 1066.18L473.639 1072.66C473.857 1074.38 474.748 1075.94 476.116 1077C477.484 1078.06 479.218 1078.54 480.936 1078.32L487.415 1077.5C489.133 1077.29 490.693 1076.39 491.755 1075.03C492.816 1073.66 493.291 1071.93 493.077 1070.21L492.259 1063.73L511.697 1061.27C513.414 1061.06 514.975 1060.16 516.036 1058.8C517.098 1057.43 517.573 1055.7 517.358 1053.98L514.905 1034.54C514.686 1032.82 513.795 1031.26 512.427 1030.2C511.059 1029.14 509.326 1028.66 507.608 1028.88ZM480.118 1071.84L479.3 1065.36L485.779 1064.55L486.597 1071.03L480.118 1071.84ZM491.441 1057.25L488.988 1037.81L508.426 1035.36L510.879 1054.8L491.441 1057.25ZM463.888 1047.56L470.368 1046.74L471.186 1053.22L464.706 1054.04L463.888 1047.56ZM519.815 1073.42L513.335 1074.23L514.153 1080.71L520.633 1079.9L519.815 1073.42ZM494.712 1083.17L488.233 1083.98L489.051 1090.46L495.53 1089.65L494.712 1083.17ZM476.913 1098.58L463.954 1100.21L461.501 1080.78C461.282 1079.06 460.391 1077.5 459.023 1076.44C457.655 1075.37 455.922 1074.9 454.204 1075.11L434.766 1077.57C433.048 1077.79 431.488 1078.68 430.426 1080.05C429.365 1081.41 428.889 1083.15 429.104 1084.86L431.558 1104.3C431.776 1106.02 432.667 1107.58 434.035 1108.64C435.403 1109.7 437.137 1110.18 438.855 1109.96L458.293 1107.51L459.928 1120.47C460.147 1122.19 461.038 1123.75 462.406 1124.81C463.774 1125.87 465.507 1126.35 467.225 1126.13L480.184 1124.5C481.902 1124.28 483.462 1123.39 484.524 1122.02C485.585 1120.65 486.06 1118.92 485.846 1117.2L484.21 1104.24C483.991 1102.52 483.1 1100.96 481.732 1099.9C480.364 1098.84 478.631 1098.36 476.913 1098.58ZM438.037 1103.48L435.584 1084.05L455.022 1081.59L457.475 1101.03L438.037 1103.48ZM466.408 1119.65L464.772 1106.69L477.731 1105.06L479.366 1118.02L466.408 1119.65ZM506.099 1121.22L519.058 1119.59C520.776 1119.37 522.337 1118.48 523.398 1117.11C524.459 1115.74 524.935 1114.01 524.72 1112.29L523.084 1099.33C522.865 1097.61 521.974 1096.05 520.606 1094.99C519.238 1093.93 517.505 1093.46 515.787 1093.67L502.828 1095.31C501.111 1095.52 499.55 1096.42 498.488 1097.78C497.427 1099.15 496.952 1100.89 497.167 1102.6L498.802 1115.56C499.021 1117.28 499.912 1118.84 501.28 1119.9C502.648 1120.96 504.381 1121.44 506.099 1121.22ZM505.282 1114.74L503.646 1101.79L516.605 1100.15L518.24 1113.11L505.282 1114.74Z" fill="black" fill-opacity="0.3"/>
</g>
</g>
</g>
</g>
</g>
<g id="_Item card skeleton_12">
<rect x="729.039" y="904.073" width="444.417" height="533.655" rx="14.9274" transform="rotate(-7.19347 729.039 904.073)" fill="white"/>
<rect x="729.039" y="904.073" width="444.417" height="533.655" rx="14.9274" transform="rotate(-7.19347 729.039 904.073)" stroke="#D4D4D4"/>
<g id="Frame 2127_10">
<g clip-path="url(#clip11_68_103224)">
<g id="Frame 2126_10">
<rect width="444.402" height="283.621" transform="translate(729.039 904.072) rotate(-7.19347)" fill="#FB923C"/>
<g id="Icon_5">
<path id=" &#240;&#159;&#142;&#168; Color_6" d="M1005.4 1032.34L1000.37 992.547C1002.51 991.701 1004.39 990.305 1005.81 988.499C1007.24 986.693 1008.16 984.543 1008.48 982.266C1008.81 979.989 1008.52 977.667 1007.66 975.535C1006.8 973.403 1005.39 971.538 1003.57 970.128C1001.75 968.718 999.595 967.814 997.316 967.508C995.036 967.202 992.716 967.504 990.592 968.384C988.467 969.265 986.613 970.691 985.218 972.52C983.823 974.348 982.936 976.513 982.648 978.795L942.852 983.818C942.007 981.679 940.61 979.802 938.804 978.378C936.999 976.953 934.848 976.032 932.571 975.707C930.295 975.383 927.972 975.666 925.841 976.529C923.709 977.392 921.843 978.804 920.434 980.621C919.024 982.438 918.12 984.596 917.814 986.875C917.507 989.155 917.81 991.474 918.69 993.599C919.57 995.724 920.997 997.578 922.825 998.973C924.654 1000.37 926.819 1001.25 929.1 1001.54L934.123 1041.34C931.984 1042.18 930.108 1043.58 928.683 1045.39C927.259 1047.19 926.337 1049.34 926.013 1051.62C925.688 1053.9 925.972 1056.22 926.835 1058.35C927.698 1060.48 929.109 1062.35 930.926 1063.76C932.744 1065.17 934.901 1066.07 937.181 1066.38C939.46 1066.68 941.78 1066.38 943.905 1065.5C946.029 1064.62 947.883 1063.19 949.279 1061.37C950.674 1059.54 951.56 1057.37 951.848 1055.09L991.644 1050.07C992.49 1052.21 993.886 1054.08 995.692 1055.51C997.498 1056.93 999.648 1057.85 1001.92 1058.18C1004.2 1058.5 1006.52 1058.22 1008.66 1057.36C1010.79 1056.49 1012.65 1055.08 1014.06 1053.26C1015.47 1051.45 1016.38 1049.29 1016.68 1047.01C1016.99 1044.73 1016.69 1042.41 1015.81 1040.29C1014.93 1038.16 1013.5 1036.31 1011.67 1034.91C1009.84 1033.52 1007.68 1032.63 1005.4 1032.34V1032.34ZM994.738 973.978C996.02 973.816 997.32 974.038 998.476 974.615C999.631 975.193 1000.59 976.1 1001.23 977.222C1001.87 978.344 1002.16 979.631 1002.07 980.919C1001.98 982.208 1001.51 983.44 1000.72 984.46C999.924 985.481 998.847 986.244 997.622 986.652C996.397 987.061 995.078 987.097 993.832 986.756C992.586 986.415 991.469 985.712 990.623 984.737C989.776 983.761 989.238 982.556 989.077 981.275C988.862 979.557 989.337 977.824 990.399 976.456C991.46 975.088 993.021 974.197 994.738 973.978V973.978ZM924.283 989.453C924.121 988.171 924.343 986.871 924.921 985.715C925.498 984.56 926.405 983.602 927.527 982.962C928.65 982.322 929.936 982.029 931.225 982.121C932.513 982.212 933.745 982.683 934.766 983.475C935.786 984.267 936.549 985.343 936.958 986.569C937.366 987.794 937.403 989.113 937.062 990.359C936.721 991.605 936.018 992.721 935.042 993.568C934.067 994.414 932.862 994.953 931.58 995.114C929.862 995.329 928.129 994.854 926.761 993.793C925.393 992.731 924.502 991.17 924.283 989.453V989.453ZM939.758 1059.91C938.477 1060.07 937.176 1059.85 936.021 1059.27C934.865 1058.69 933.907 1057.79 933.267 1056.66C932.627 1055.54 932.335 1054.25 932.426 1052.97C932.517 1051.68 932.989 1050.45 933.781 1049.42C934.572 1048.4 935.649 1047.64 936.874 1047.23C938.1 1046.82 939.419 1046.79 940.664 1047.13C941.91 1047.47 943.027 1048.17 943.873 1049.15C944.72 1050.12 945.258 1051.33 945.42 1052.61C945.635 1054.33 945.159 1056.06 944.098 1057.43C943.036 1058.8 941.476 1059.69 939.758 1059.91ZM990.826 1043.59L951.03 1048.61C950.169 1046.46 948.748 1044.57 946.915 1043.15C945.082 1041.73 942.903 1040.82 940.603 1040.52L935.58 1000.72C937.734 999.863 939.619 998.443 941.041 996.61C942.463 994.777 943.371 992.598 943.67 990.297L983.466 985.274C984.327 987.428 985.748 989.314 987.581 990.736C989.414 992.158 991.593 993.066 993.894 993.365L998.917 1033.16C996.762 1034.02 994.877 1035.44 993.455 1037.28C992.032 1039.11 991.125 1041.29 990.826 1043.59V1043.59ZM1004.55 1051.73C1003.27 1051.89 1001.97 1051.67 1000.81 1051.09C999.659 1050.51 998.7 1049.61 998.061 1048.49C997.421 1047.36 997.128 1046.08 997.219 1044.79C997.311 1043.5 997.782 1042.27 998.574 1041.25C999.366 1040.23 1000.44 1039.46 1001.67 1039.06C1002.89 1038.65 1004.21 1038.61 1005.46 1038.95C1006.7 1039.29 1007.82 1040 1008.67 1040.97C1009.51 1041.95 1010.05 1043.15 1010.21 1044.43C1010.43 1046.15 1009.95 1047.88 1008.89 1049.25C1007.83 1050.62 1006.27 1051.51 1004.55 1051.73V1051.73Z" fill="black" fill-opacity="0.3"/>
</g>
</g>
</g>
</g>
</g>
</g>
<g id="Frame 3346_3">
<g id="_Item card skeleton_13">
<rect x="1221.83" y="841.876" width="444.417" height="533.655" rx="14.9274" transform="rotate(-7.19347 1221.83 841.876)" fill="white"/>
<rect x="1221.83" y="841.876" width="444.417" height="533.655" rx="14.9274" transform="rotate(-7.19347 1221.83 841.876)" stroke="#D4D4D4"/>
<g id="Frame 2127_11">
<g clip-path="url(#clip12_68_103224)">
<g id="Frame 2126_11">
<rect width="444.402" height="283.621" transform="translate(1221.83 841.876) rotate(-7.19347)" fill="#4ADE80"/>
<g id="Icon_6">
<path id=" &#240;&#159;&#142;&#168; Color_7" d="M1498.19 970.147L1493.16 930.351C1495.3 929.505 1497.18 928.108 1498.6 926.303C1500.03 924.497 1500.95 922.347 1501.27 920.07C1501.6 917.793 1501.32 915.471 1500.45 913.339C1499.59 911.207 1498.18 909.342 1496.36 907.932C1494.54 906.522 1492.39 905.618 1490.11 905.312C1487.83 905.006 1485.51 905.308 1483.38 906.188C1481.26 907.068 1479.4 908.495 1478.01 910.323C1476.61 912.152 1475.73 914.317 1475.44 916.599L1435.64 921.621C1434.8 919.483 1433.4 917.606 1431.6 916.181C1429.79 914.757 1427.64 913.836 1425.36 913.511C1423.09 913.186 1420.76 913.47 1418.63 914.333C1416.5 915.196 1414.63 916.608 1413.22 918.425C1411.81 920.242 1410.91 922.4 1410.6 924.679C1410.3 926.958 1410.6 929.278 1411.48 931.403C1412.36 933.528 1413.79 935.382 1415.62 936.777C1417.44 938.172 1419.61 939.058 1421.89 939.346L1426.91 979.142C1424.78 979.988 1422.9 981.385 1421.47 983.19C1420.05 984.996 1419.13 987.146 1418.8 989.423C1418.48 991.7 1418.76 994.022 1419.63 996.154C1420.49 998.286 1421.9 1000.15 1423.72 1001.56C1425.53 1002.97 1427.69 1003.87 1429.97 1004.18C1432.25 1004.49 1434.57 1004.18 1436.7 1003.3C1438.82 1002.42 1440.67 1001 1442.07 999.169C1443.46 997.341 1444.35 995.176 1444.64 992.894L1484.43 987.871C1485.28 990.01 1486.68 991.887 1488.48 993.311C1490.29 994.736 1492.44 995.657 1494.72 995.982C1496.99 996.306 1499.31 996.023 1501.45 995.16C1503.58 994.297 1505.44 992.885 1506.85 991.068C1508.26 989.251 1509.17 987.093 1509.47 984.814C1509.78 982.534 1509.48 980.215 1508.6 978.09C1507.72 975.965 1506.29 974.111 1504.46 972.716C1502.63 971.321 1500.47 970.434 1498.19 970.147V970.147ZM1487.53 911.781C1488.81 911.62 1490.11 911.842 1491.27 912.419C1492.42 912.997 1493.38 913.904 1494.02 915.026C1494.66 916.148 1494.95 917.434 1494.86 918.723C1494.77 920.011 1494.3 921.244 1493.51 922.264C1492.71 923.285 1491.64 924.047 1490.41 924.456C1489.19 924.865 1487.87 924.901 1486.62 924.56C1485.38 924.219 1484.26 923.516 1483.41 922.54C1482.57 921.565 1482.03 920.36 1481.87 919.079C1481.65 917.361 1482.13 915.627 1483.19 914.259C1484.25 912.891 1485.81 912 1487.53 911.781V911.781ZM1417.07 927.256C1416.91 925.975 1417.13 924.674 1417.71 923.519C1418.29 922.363 1419.2 921.405 1420.32 920.765C1421.44 920.126 1422.73 919.833 1424.02 919.924C1425.3 920.016 1426.54 920.487 1427.56 921.279C1428.58 922.071 1429.34 923.147 1429.75 924.372C1430.16 925.598 1430.19 926.917 1429.85 928.163C1429.51 929.408 1428.81 930.525 1427.83 931.372C1426.86 932.218 1425.65 932.756 1424.37 932.918C1422.65 933.133 1420.92 932.658 1419.55 931.596C1418.18 930.535 1417.29 928.974 1417.07 927.256V927.256ZM1432.55 997.711C1431.27 997.873 1429.97 997.651 1428.81 997.074C1427.66 996.496 1426.7 995.589 1426.06 994.467C1425.42 993.345 1425.13 992.058 1425.22 990.77C1425.31 989.482 1425.78 988.249 1426.57 987.229C1427.36 986.208 1428.44 985.445 1429.67 985.037C1430.89 984.628 1432.21 984.592 1433.46 984.933C1434.7 985.274 1435.82 985.977 1436.66 986.952C1437.51 987.928 1438.05 989.133 1438.21 990.414C1438.43 992.132 1437.95 993.865 1436.89 995.233C1435.83 996.601 1434.27 997.493 1432.55 997.711ZM1483.62 981.392L1443.82 986.415C1442.96 984.261 1441.54 982.375 1439.71 980.953C1437.87 979.531 1435.69 978.624 1433.39 978.324L1428.37 938.528C1430.52 937.667 1432.41 936.246 1433.83 934.413C1435.25 932.58 1436.16 930.401 1436.46 928.101L1476.26 923.078C1477.12 925.232 1478.54 927.118 1480.37 928.54C1482.2 929.962 1484.38 930.869 1486.68 931.168L1491.71 970.964C1489.55 971.826 1487.67 973.246 1486.25 975.079C1484.82 976.912 1483.92 979.091 1483.62 981.392V981.392ZM1497.34 989.534C1496.06 989.695 1494.76 989.473 1493.6 988.896C1492.45 988.318 1491.49 987.411 1490.85 986.289C1490.21 985.167 1489.92 983.881 1490.01 982.592C1490.1 981.304 1490.57 980.071 1491.36 979.051C1492.16 978.03 1493.23 977.268 1494.46 976.859C1495.68 976.45 1497 976.414 1498.25 976.755C1499.49 977.096 1500.61 977.799 1501.46 978.774C1502.3 979.75 1502.84 980.955 1503 982.236C1503.22 983.954 1502.74 985.687 1501.68 987.055C1500.62 988.423 1499.06 989.314 1497.34 989.534V989.534Z" fill="black" fill-opacity="0.3"/>
</g>
</g>
</g>
</g>
</g>
<g id="_Item card skeleton_14">
<rect x="1714.62" y="779.679" width="444.417" height="533.655" rx="14.9274" transform="rotate(-7.19347 1714.62 779.679)" fill="white"/>
<rect x="1714.62" y="779.679" width="444.417" height="533.655" rx="14.9274" transform="rotate(-7.19347 1714.62 779.679)" stroke="#D4D4D4"/>
<g id="Frame 2127_12">
<g clip-path="url(#clip13_68_103224)">
<g id="Frame 2126_12">
<rect width="444.402" height="283.621" transform="translate(1714.62 779.679) rotate(-7.19347)" fill="#CEB8FF"/>
</g>
</g>
</g>
<g id="Frame 29_9">
<g id="Frame 2133_9">
<g id="Frame 3341_9">
<g id="Frame 3342_9">
<rect id="Rectangle 3263_9" width="297.95" height="19.2226" transform="matrix(0.992129 -0.12522 -0.12522 -0.992129 1793.25 1166.1)" fill="#F5F5F5"/>
</g>
</g>
</g>
</g>
</g>
</g>
</g>
</g>
</g>
<defs>
<clipPath id="clip0_68_103224">
<rect width="1894" height="1125" rx="31" fill="white"/>
</clipPath>
<clipPath id="clip1_68_103224">
<path d="M-15.5468 419.642C-16.5791 411.463 -10.7854 403.995 -2.60611 402.963L408.693 351.051C416.872 350.019 424.34 355.813 425.372 363.992L459.018 630.57L18.099 686.22L-15.5468 419.642Z" fill="white"/>
</clipPath>
<clipPath id="clip2_68_103224">
<rect width="104.492" height="104.492" fill="white" transform="translate(162.416 472.41) rotate(-7.19347)"/>
</clipPath>
<clipPath id="clip3_68_103224">
<path d="M477.244 357.446C476.212 349.266 482.006 341.799 490.185 340.767L901.484 288.855C909.663 287.823 917.131 293.616 918.163 301.796L951.809 568.374L510.89 624.024L477.244 357.446Z" fill="white"/>
</clipPath>
<clipPath id="clip4_68_103224">
<path d="M970.035 295.248C969.003 287.069 974.797 279.602 982.976 278.569L1394.27 226.658C1402.45 225.625 1409.92 231.419 1410.95 239.598L1444.6 506.177L1003.68 561.827L970.035 295.248Z" fill="white"/>
</clipPath>
<clipPath id="clip5_68_103224">
<path d="M1462.83 233.051C1461.79 224.872 1467.59 217.404 1475.77 216.372L1887.07 164.46C1895.25 163.428 1902.71 169.222 1903.74 177.401L1937.39 443.98L1496.47 499.629L1462.83 233.051Z" fill="white"/>
</clipPath>
<clipPath id="clip6_68_103224">
<path d="M-401.34 -118.753C-402.372 -126.932 -396.578 -134.399 -388.399 -135.432L22.8999 -187.343C31.0791 -188.376 38.5466 -182.582 39.579 -174.403L73.2248 92.1758L-367.694 147.826L-401.34 -118.753Z" fill="white"/>
</clipPath>
<clipPath id="clip7_68_103224">
<path d="M91.4532 -180.95C90.4209 -189.129 96.2146 -196.597 104.394 -197.629L515.693 -249.541C523.872 -250.573 531.34 -244.779 532.372 -236.6L566.018 29.9785L125.099 85.6285L91.4532 -180.95Z" fill="white"/>
</clipPath>
<clipPath id="clip8_68_103224">
<path d="M584.244 -243.146C583.212 -251.325 589.006 -258.793 597.185 -259.825L1008.48 -311.737C1016.66 -312.769 1024.13 -306.975 1025.16 -298.796L1058.81 -32.2177L617.89 23.4322L584.244 -243.146Z" fill="white"/>
</clipPath>
<clipPath id="clip9_68_103224">
<path d="M-254.676 1043.28C-255.708 1035.1 -249.914 1027.63 -241.735 1026.6L169.564 974.686C177.743 973.654 185.211 979.447 186.243 987.627L219.889 1254.21L-221.03 1309.86L-254.676 1043.28Z" fill="white"/>
</clipPath>
<clipPath id="clip10_68_103224">
<path d="M238.117 981.079C237.085 972.9 242.879 965.433 251.058 964.4L662.357 912.489C670.536 911.456 678.004 917.25 679.036 925.429L712.682 1192.01L271.763 1247.66L238.117 981.079Z" fill="white"/>
</clipPath>
<clipPath id="clip11_68_103224">
<path d="M730.908 918.883C729.876 910.704 735.67 903.236 743.849 902.204L1155.15 850.292C1163.33 849.26 1170.79 855.054 1171.83 863.233L1205.47 1129.81L764.554 1185.46L730.908 918.883Z" fill="white"/>
</clipPath>
<clipPath id="clip12_68_103224">
<path d="M1223.7 856.686C1222.67 848.507 1228.46 841.039 1236.64 840.007L1647.94 788.095C1656.12 787.063 1663.59 792.857 1664.62 801.036L1698.26 1067.61L1257.35 1123.26L1223.7 856.686Z" fill="white"/>
</clipPath>
<clipPath id="clip13_68_103224">
<path d="M1716.49 794.489C1715.46 786.309 1721.25 778.842 1729.43 777.809L2140.73 725.898C2148.91 724.866 2156.38 730.659 2157.41 738.839L2191.05 1005.42L1750.14 1061.07L1716.49 794.489Z" fill="white"/>
</clipPath>
</defs>
</svg>
