<svg width="56" height="56" viewBox="0 0 56 56" fill="none" xmlns="http://www.w3.org/2000/svg">
<path d="M23.1126 14.1813H31.792L22.782 40.877C22.6894 41.1513 22.5131 41.3897 22.2779 41.5585C22.0427 41.7274 21.7605 41.8183 21.471 41.8183H14.7163C14.4969 41.8184 14.2807 41.7661 14.0855 41.666C13.8904 41.5659 13.7218 41.4208 13.5939 41.2426C13.4659 41.0644 13.3822 40.8583 13.3497 40.6414C13.3172 40.4244 13.3368 40.2029 13.407 39.995L21.8013 15.1227C21.8939 14.8482 22.0702 14.6098 22.3054 14.4408C22.5407 14.2719 22.823 14.181 23.1126 14.181V14.1813Z" fill="url(#paint0_linear_2_16197)"/>
<path d="M35.725 32.087H21.9617C21.8337 32.0869 21.7087 32.1253 21.6029 32.1972C21.497 32.2691 21.4153 32.3713 21.3684 32.4903C21.3214 32.6093 21.3114 32.7398 21.3397 32.8646C21.3679 32.9894 21.4331 33.1028 21.5267 33.19L30.3707 41.4447C30.6282 41.6849 30.9672 41.8184 31.3193 41.8183H39.1127L35.725 32.087Z" fill="#0078D4"/>
<path d="M23.1126 14.1813C22.8198 14.1802 22.5343 14.2727 22.2979 14.4454C22.0614 14.6181 21.8863 14.8618 21.7982 15.141L13.4172 39.9723C13.3424 40.181 13.3189 40.4045 13.3487 40.6241C13.3786 40.8437 13.4609 41.0529 13.5887 41.234C13.7164 41.4151 13.886 41.5627 14.0829 41.6644C14.2798 41.7662 14.4983 41.8189 14.7199 41.8183H21.6489C21.907 41.7722 22.1482 41.6585 22.3479 41.4886C22.5476 41.3188 22.6986 41.099 22.7856 40.8517L24.4569 35.926L30.4269 41.4943C30.6771 41.7013 30.9909 41.8157 31.3156 41.8183H39.0799L35.6746 32.087L25.7476 32.0893L31.8232 14.1813H23.1126Z" fill="url(#paint1_linear_2_16197)"/>
<path d="M34.1984 15.1213C34.106 14.8473 33.9299 14.6093 33.695 14.4406C33.4601 14.272 33.1782 14.1813 32.8891 14.1813H23.2161C23.5052 14.1814 23.7871 14.2721 24.022 14.4407C24.2568 14.6093 24.4329 14.8474 24.5254 15.1213L32.9201 39.9947C32.9902 40.2026 33.0099 40.4242 32.9774 40.6412C32.945 40.8582 32.8613 41.0643 32.7333 41.2426C32.6054 41.4208 32.4368 41.566 32.2416 41.6662C32.0464 41.7664 31.8301 41.8187 31.6107 41.8187H41.2841C41.5034 41.8186 41.7197 41.7663 41.9148 41.6661C42.11 41.5659 42.2785 41.4207 42.4064 41.2424C42.5343 41.0642 42.618 40.8581 42.6504 40.6411C42.6829 40.4241 42.6632 40.2025 42.5931 39.9947L34.1984 15.1213Z" fill="url(#paint2_linear_2_16197)"/>
<defs>
<linearGradient id="paint0_linear_2_16197" x1="26.276" y1="16.2293" x2="17.2623" y2="42.858" gradientUnits="userSpaceOnUse">
<stop stop-color="#114A8B"/>
<stop offset="1" stop-color="#0669BC"/>
</linearGradient>
<linearGradient id="paint1_linear_2_16197" x1="29.0916" y1="28.639" x2="27.0066" y2="29.344" gradientUnits="userSpaceOnUse">
<stop stop-opacity="0.3"/>
<stop offset="0.071" stop-opacity="0.2"/>
<stop offset="0.321" stop-opacity="0.1"/>
<stop offset="0.623" stop-opacity="0.05"/>
<stop offset="1" stop-opacity="0"/>
</linearGradient>
<linearGradient id="paint2_linear_2_16197" x1="27.9451" y1="15.4527" x2="37.8394" y2="41.813" gradientUnits="userSpaceOnUse">
<stop stop-color="#3CCBF4"/>
<stop offset="1" stop-color="#2892DF"/>
</linearGradient>
</defs>
</svg>
