<svg width="56" height="56" viewBox="0 0 56 56" fill="none" xmlns="http://www.w3.org/2000/svg">
<g clip-path="url(#clip0_2_16203)">
<path d="M20.6963 27.2967C20.6963 27.7033 20.7409 28.033 20.8188 28.2747C20.9079 28.5165 21.0192 28.7802 21.1751 29.0659C21.2307 29.1538 21.253 29.2418 21.253 29.3187C21.253 29.4286 21.1862 29.5385 21.0415 29.6484L20.34 30.1099C20.2398 30.1758 20.1396 30.2088 20.0506 30.2088C19.9392 30.2088 19.8279 30.1538 19.7166 30.0549C19.5607 29.8901 19.4271 29.7143 19.3158 29.5385C19.2044 29.3517 19.0931 29.1429 18.9706 28.8901C18.1022 29.9011 17.0111 30.4066 15.6973 30.4066C14.7621 30.4066 14.0162 30.1429 13.4706 29.6154C12.9251 29.0879 12.6467 28.3846 12.6467 27.5055C12.6467 26.5714 12.9807 25.8132 13.6599 25.2418C14.339 24.6703 15.2409 24.3846 16.3876 24.3846C16.7662 24.3846 17.1558 24.4176 17.5678 24.4725C17.9797 24.5275 18.4028 24.6154 18.8481 24.7143V23.9121C18.8481 23.0769 18.67 22.4945 18.3249 22.1538C17.9686 21.8132 17.3674 21.6484 16.5101 21.6484C16.1204 21.6484 15.7196 21.6923 15.3077 21.7912C14.8957 21.8901 14.4949 22.011 14.1052 22.1648C13.9271 22.2418 13.7935 22.2857 13.7156 22.3077C13.6376 22.3297 13.582 22.3407 13.5374 22.3407C13.3815 22.3407 13.3036 22.2308 13.3036 22V21.4615C13.3036 21.2857 13.3259 21.1538 13.3815 21.0769C13.4372 21 13.5374 20.9231 13.6933 20.8462C14.083 20.6484 14.5506 20.4835 15.0961 20.3516C15.6417 20.2088 16.2206 20.1429 16.833 20.1429C18.1579 20.1429 19.1265 20.4396 19.75 21.033C20.3623 21.6264 20.6741 22.5275 20.6741 23.7363V27.2967H20.6963ZM16.1761 28.967C16.5435 28.967 16.922 28.9011 17.3228 28.7692C17.7237 28.6374 18.0799 28.3956 18.3805 28.0659C18.5587 27.8571 18.6923 27.6264 18.7591 27.3626C18.8259 27.0989 18.8704 26.7802 18.8704 26.4066V25.9451C18.5475 25.8681 18.2024 25.8022 17.8461 25.7582C17.4898 25.7143 17.1447 25.6923 16.7996 25.6923C16.0536 25.6923 15.5081 25.8352 15.1407 26.1319C14.7732 26.4286 14.5951 26.8462 14.5951 27.3956C14.5951 27.9121 14.7287 28.2967 15.0071 28.5604C15.2743 28.8352 15.6639 28.967 16.1761 28.967ZM25.1164 30.1538C24.916 30.1538 24.7824 30.1209 24.6933 30.044C24.6042 29.978 24.5263 29.8242 24.4595 29.6154L21.8431 21.1209C21.7763 20.9011 21.7429 20.7582 21.7429 20.6813C21.7429 20.5055 21.832 20.4066 22.0101 20.4066H23.1012C23.3127 20.4066 23.4575 20.4396 23.5354 20.5165C23.6245 20.5824 23.6913 20.7363 23.7581 20.9451L25.6285 28.2198L27.3654 20.9451C27.421 20.7253 27.4878 20.5824 27.5769 20.5165C27.666 20.4506 27.8218 20.4066 28.0222 20.4066H28.9129C29.1245 20.4066 29.2692 20.4396 29.3583 20.5165C29.4473 20.5824 29.5253 20.7363 29.5698 20.9451L31.3289 28.3077L33.255 20.9451C33.3218 20.7253 33.3998 20.5824 33.4777 20.5165C33.5668 20.4506 33.7115 20.4066 33.9119 20.4066H34.9473C35.1255 20.4066 35.2257 20.4945 35.2257 20.6813C35.2257 20.7363 35.2145 20.7912 35.2034 20.8571C35.1923 20.9231 35.17 21.011 35.1255 21.1319L32.4423 29.6264C32.3755 29.8462 32.2975 29.989 32.2085 30.0549C32.1194 30.1209 31.9747 30.1648 31.7854 30.1648H30.8279C30.6164 30.1648 30.4716 30.1319 30.3826 30.0549C30.2935 29.978 30.2156 29.8352 30.171 29.6154L28.4453 22.5275L26.7307 29.6044C26.6751 29.8242 26.6083 29.967 26.5192 30.044C26.4301 30.1209 26.2743 30.1538 26.0739 30.1538H25.1164ZM39.423 30.4506C38.8441 30.4506 38.2651 30.3846 37.7085 30.2527C37.1518 30.1209 36.7176 29.978 36.4281 29.8132C36.25 29.7143 36.1275 29.6044 36.083 29.5055C36.0384 29.4066 36.0162 29.2967 36.0162 29.1978V28.6374C36.0162 28.4066 36.1052 28.2967 36.2722 28.2967C36.339 28.2967 36.4058 28.3077 36.4726 28.3297C36.5394 28.3517 36.6396 28.3956 36.751 28.4396C37.1295 28.6044 37.5415 28.7363 37.9757 28.8242C38.421 28.9121 38.8552 28.956 39.3006 28.956C40.002 28.956 40.5475 28.8352 40.9261 28.5934C41.3046 28.3517 41.505 28 41.505 27.5495C41.505 27.2418 41.4048 26.989 41.2044 26.7802C41.004 26.5714 40.6255 26.3846 40.0799 26.2088L38.4656 25.7143C37.6528 25.4615 37.0516 25.0879 36.6842 24.5934C36.3168 24.1099 36.1275 23.5714 36.1275 23C36.1275 22.5385 36.2277 22.1319 36.4281 21.7802C36.6285 21.4286 36.8957 21.1209 37.2297 20.8791C37.5637 20.6264 37.9423 20.4396 38.3876 20.3077C38.833 20.1758 39.3006 20.1209 39.7905 20.1209C40.0354 20.1209 40.2915 20.1319 40.5364 20.1648C40.7925 20.1978 41.0263 20.2418 41.2601 20.2857C41.4828 20.3407 41.6943 20.3956 41.8947 20.4615C42.0951 20.5275 42.251 20.5934 42.3623 20.6593C42.5182 20.7473 42.6295 20.8352 42.6963 20.9341C42.7631 21.022 42.7965 21.1429 42.7965 21.2967V21.8132C42.7965 22.044 42.7075 22.1648 42.5405 22.1648C42.4514 22.1648 42.3066 22.1209 42.1174 22.033C41.4828 21.7473 40.7702 21.6044 39.9797 21.6044C39.3451 21.6044 38.8441 21.7033 38.499 21.9121C38.1538 22.1209 37.9757 22.4396 37.9757 22.8901C37.9757 23.1978 38.087 23.4615 38.3097 23.6703C38.5324 23.8791 38.9443 24.0879 39.5344 24.2747L41.1153 24.7692C41.917 25.022 42.4959 25.3736 42.8411 25.8242C43.1862 26.2747 43.3532 26.7912 43.3532 27.3626C43.3532 27.8352 43.253 28.2637 43.0637 28.6374C42.8633 29.011 42.5961 29.3407 42.251 29.6044C41.9058 29.8791 41.4939 30.0769 41.0151 30.2198C40.5141 30.3736 39.9909 30.4506 39.423 30.4506Z" fill="#181E23"/>
<path fill-rule="evenodd" clip-rule="evenodd" d="M41.5274 35.7912C37.8644 38.4616 32.5426 39.8791 27.9667 39.8791C21.5537 39.8791 15.7754 37.5385 11.411 33.6484C11.0659 33.3407 11.3776 32.9231 11.7895 33.1649C16.5102 35.8682 22.3331 37.5055 28.3563 37.5055C32.4201 37.5055 36.8847 36.6703 40.993 34.9561C41.6053 34.6813 42.1286 35.3517 41.5274 35.7912Z" fill="#FF9900"/>
<path fill-rule="evenodd" clip-rule="evenodd" d="M43.0526 34.0769C42.585 33.4835 39.9575 33.7912 38.7662 33.9341C38.4099 33.978 38.3543 33.6703 38.6771 33.4396C40.7703 31.989 44.2105 32.4066 44.6113 32.8901C45.0122 33.3846 44.5 36.7802 42.5405 38.4066C42.2399 38.6594 41.9504 38.5275 42.084 38.1978C42.5294 37.1099 43.5203 34.6594 43.0526 34.0769Z" fill="#FF9900"/>
</g>
<defs>
<clipPath id="clip0_2_16203">
<rect width="33.8462" height="20" fill="white" transform="translate(11.0769 20)"/>
</clipPath>
</defs>
</svg>
