<svg width="56" height="56" viewBox="0 0 56 56" fill="none" xmlns="http://www.w3.org/2000/svg">
<path d="M31.85 21.41H32.85L35.7 18.56L35.84 17.35C34.2073 15.909 32.2343 14.9079 30.1072 14.4415C27.98 13.975 25.7691 14.0585 23.6833 14.684C21.5974 15.3096 19.7054 16.4566 18.1861 18.0166C16.6667 19.5767 15.5702 21.4983 15 23.6C15.3175 23.4699 15.6692 23.4488 16 23.54L21.7 22.6C21.7 22.6 21.99 22.12 22.14 22.15C23.3613 20.8087 25.0492 19.9849 26.858 19.8474C28.6669 19.7098 30.4599 20.2688 31.87 21.41H31.85Z" fill="#EA4335"/>
<path d="M39.7599 23.6C39.1048 21.1876 37.7598 19.0189 35.8899 17.36L31.8899 21.36C32.7236 22.0411 33.3916 22.9027 33.8438 23.8797C34.2959 24.8567 34.5202 25.9236 34.4999 27V27.71C34.9674 27.71 35.4304 27.8021 35.8623 27.981C36.2942 28.1599 36.6866 28.4221 37.0172 28.7527C37.3478 29.0833 37.61 29.4757 37.7889 29.9076C37.9678 30.3396 38.0599 30.8025 38.0599 31.27C38.0599 31.7375 37.9678 32.2004 37.7889 32.6323C37.61 33.0643 37.3478 33.4567 37.0172 33.7873C36.6866 34.1179 36.2942 34.3801 35.8623 34.559C35.4304 34.7379 34.9674 34.83 34.4999 34.83H27.3799L26.6699 35.55V39.82L27.3799 40.53H34.4999C36.4882 40.5455 38.4286 39.9206 40.0341 38.7478C41.6397 37.5749 42.8251 35.9165 43.415 34.0177C44.005 32.119 43.9681 30.0807 43.3098 28.2046C42.6515 26.3284 41.4069 24.7139 39.7599 23.6V23.6Z" fill="#4285F4"/>
<path d="M20.2499 40.49H27.3699V34.79H20.2499C19.7426 34.7899 19.2413 34.6807 18.7799 34.47L17.7799 34.78L14.9099 37.63L14.6599 38.63C16.2693 39.8453 18.2332 40.4987 20.2499 40.49V40.49Z" fill="#34A853"/>
<path d="M20.2501 22C18.3209 22.0115 16.4435 22.6253 14.8801 23.7556C13.3167 24.8859 12.1453 26.4763 11.5296 28.3046C10.9139 30.1329 10.8847 32.1079 11.4459 33.9537C12.0071 35.7995 13.1309 37.4239 14.6601 38.6L18.7901 34.47C18.2653 34.2329 17.8058 33.872 17.4511 33.4182C17.0964 32.9645 16.8571 32.4315 16.7537 31.8649C16.6503 31.2984 16.6859 30.7152 16.8574 30.1654C17.029 29.6156 17.3313 29.1157 17.7385 28.7084C18.1458 28.3012 18.6457 27.9989 19.1955 27.8273C19.7453 27.6558 20.3285 27.6202 20.895 27.7236C21.4616 27.827 21.9946 28.0663 22.4483 28.421C22.9021 28.7757 23.263 29.2352 23.5001 29.76L27.6301 25.63C26.7632 24.4968 25.646 23.5794 24.3657 22.9497C23.0854 22.3199 21.6769 21.9949 20.2501 22V22Z" fill="#FBBC05"/>
</svg>
