<svg width="51" height="51" viewBox="0 0 51 51" fill="none" xmlns="http://www.w3.org/2000/svg">
<path d="M44.0999 37.7999L44.0999 26.775L34.6499 21.2625L34.6988 31.3728L25.1999 36.8005L34.6989 43.3126L44.0999 37.7999Z" fill="#10B981"/>
<path d="M6.2999 37.8002L6.29992 26.7751L15.7744 21.2626L15.7744 31.3728L25.1999 37.0125L15.7744 43.3125L6.2999 37.8002Z" fill="#10B981"/>
<path d="M25.1999 4.7251L34.6499 10.2346L34.6499 21.2625L25.1999 15.7501L15.7499 21.2626V10.2346L25.1999 4.7251Z" fill="#10B981"/>
<path fill-rule="evenodd" clip-rule="evenodd" d="M25.9936 3.36426C25.5034 3.07845 24.8973 3.07845 24.407 3.36426L14.957 8.87375C14.473 9.15596 14.1753 9.67408 14.1753 10.2344V20.3708L5.50824 25.4135C5.02351 25.6956 4.72531 26.2141 4.7253 26.7749L4.72528 37.8C4.72528 38.3608 5.02349 38.8793 5.50823 39.1613L14.9827 44.6737C15.5028 44.9763 16.1498 44.9561 16.65 44.6218L25.3457 38.8096L33.8087 44.6114C34.312 44.9565 34.9695 44.9798 35.4959 44.671L44.897 39.1584C45.3791 38.8757 45.6753 38.3587 45.6753 37.7998L45.6753 26.7748C45.6753 26.2146 45.3778 25.6966 44.8939 25.4143L36.2253 20.3577L36.2253 10.2344C36.2253 9.67408 35.9276 9.15596 35.4436 8.87375L25.9936 3.36426ZM7.8753 27.6807L14.1998 24.001L14.1998 31.3726C14.1998 31.9265 14.4907 32.4397 14.9661 32.7241L22.2559 37.0859L15.717 41.4565L7.87528 36.8941L7.8753 27.6807ZM34.7651 41.448L28.1626 36.9216L35.4806 32.7401C35.9737 32.4583 36.277 31.9329 36.2742 31.365L36.2386 24.0122L42.5253 27.6794L42.5253 36.8975L34.7651 41.448ZM24.4067 14.3894L17.3253 18.5203V11.1393L25.2003 6.54803L33.0753 11.1393L33.0753 18.5202L25.9939 14.3894C25.5035 14.1034 24.8971 14.1034 24.4067 14.3894ZM33.4844 22.4124L33.5245 31.1108C33.5249 31.1902 33.4834 31.2639 33.4153 31.3047L25.3408 36.1537C25.2681 36.1973 25.177 36.1964 25.1052 36.1512L17.4303 31.3249C17.3648 31.2837 17.3251 31.2118 17.3251 31.1345L17.3251 22.3949C17.3251 22.3167 17.3658 22.244 17.4325 22.2031L25.2721 17.3969C25.3442 17.3527 25.4351 17.3527 25.5073 17.3969L33.377 22.2216C33.4434 22.2623 33.4841 22.3345 33.4844 22.4124Z" fill="#10B981"/>
</svg>
