<svg width="266" height="42" viewBox="0 0 266 42" fill="none" xmlns="http://www.w3.org/2000/svg">
<path d="M31.2069 10.8989H32.7069L36.9819 6.62389L37.1919 4.80889C34.7429 2.64732 31.7833 1.14575 28.5926 0.446034C25.402 -0.253686 22.0856 -0.12846 18.9568 0.809883C15.828 1.74823 12.99 3.46871 10.711 5.8088C8.43199 8.1489 6.78716 11.0314 5.93188 14.1839C6.40814 13.9887 6.93571 13.957 7.43188 14.0939L15.9819 12.6839C15.9819 12.6839 16.4169 11.9639 16.6419 12.0089C18.4739 9.99688 21.0056 8.76123 23.7189 8.55488C26.4322 8.34853 29.1217 9.18708 31.2369 10.8989H31.2069Z" fill="#171717"/>
<path d="M43.0718 14.1838C42.0891 10.5653 40.0716 7.31224 37.2668 4.82382L31.2668 10.8238C32.5172 11.8456 33.5193 13.1379 34.1975 14.6034C34.8757 16.0689 35.2123 17.6693 35.1818 19.2838V20.3488C35.883 20.3488 36.5774 20.4869 37.2253 20.7553C37.8732 21.0237 38.4619 21.417 38.9577 21.9129C39.4536 22.4087 39.8469 22.9974 40.1153 23.6453C40.3836 24.2932 40.5218 24.9876 40.5218 25.6888C40.5218 26.3901 40.3836 27.0845 40.1153 27.7324C39.8469 28.3802 39.4536 28.9689 38.9577 29.4648C38.4619 29.9606 37.8732 30.354 37.2253 30.6223C36.5774 30.8907 35.883 31.0288 35.1818 31.0288H24.5018L23.4368 32.1088V38.5138L24.5018 39.5788H35.1818C38.1641 39.602 41.0747 38.6647 43.4831 36.9055C45.8914 35.1462 47.6696 32.6586 48.5544 29.8104C49.4393 26.9623 49.384 23.9049 48.3966 21.0907C47.4092 18.2764 45.5422 15.8547 43.0718 14.1838Z" fill="#404040"/>
<path d="M13.8071 39.5188H24.4871V30.9688H13.8071C13.0462 30.9686 12.2942 30.8049 11.6021 30.4888L10.1021 30.9538L5.79712 35.2288L5.42212 36.7288C7.83627 38.5518 10.782 39.5319 13.8071 39.5188Z" fill="#525252"/>
<path d="M13.807 11.7838C10.9133 11.8011 8.09715 12.7218 5.75202 14.4172C3.40689 16.1127 1.64986 18.4983 0.726332 21.2408C-0.197195 23.9833 -0.241099 26.9457 0.600753 29.7144C1.44261 32.483 3.12817 34.9196 5.42203 36.6838L11.617 30.4888C10.8298 30.1332 10.1406 29.5918 9.60853 28.9112C9.0765 28.2306 8.71753 27.4311 8.56242 26.5812C8.40732 25.7314 8.46071 24.8566 8.71801 24.032C8.97531 23.2073 9.42884 22.4574 10.0397 21.8465C10.6505 21.2357 11.4005 20.7821 12.2251 20.5248C13.0498 20.2675 13.9246 20.2141 14.7744 20.3692C15.6243 20.5243 16.4238 20.8833 17.1044 21.4153C17.785 21.9474 18.3263 22.6366 18.682 23.4238L24.877 17.2288C23.5768 15.529 21.9009 14.1529 19.9805 13.2083C18.0601 12.2638 15.9472 11.7762 13.807 11.7838Z" fill="#A3A3A3"/>
<path d="M77.6171 33.5488C75.7783 33.5723 73.9537 33.2243 72.2526 32.5258C70.5515 31.8273 69.0088 30.7927 67.7171 29.4838C66.3847 28.2305 65.3273 26.714 64.612 25.0304C63.8967 23.3468 63.5392 21.5329 63.5621 19.7038C63.5401 17.8749 63.8981 16.0613 64.6133 14.3778C65.3285 12.6944 66.3854 11.1777 67.7171 9.92383C69.0025 8.60143 70.5423 7.5529 72.2437 6.8414C73.9451 6.1299 75.7729 5.77015 77.6171 5.78383C79.3742 5.76041 81.1185 6.0865 82.7486 6.74315C84.3786 7.3998 85.8618 8.3739 87.1121 9.60883L84.4421 12.3238C82.6136 10.5568 80.1596 9.58595 77.6171 9.62383C76.2982 9.60763 74.9903 9.86598 73.7766 10.3824C72.5629 10.8989 71.4699 11.6622 70.5671 12.6238C69.6288 13.5547 68.8886 14.6658 68.391 15.8903C67.8935 17.1148 67.6489 18.4273 67.6721 19.7488C67.6611 21.0553 67.9115 22.3507 68.4087 23.5589C68.9059 24.767 69.6397 25.8635 70.5671 26.7838C72.4246 28.635 74.9313 29.688 77.5535 29.7189C80.1758 29.7497 82.7065 28.7558 84.6071 26.9488C85.7837 25.6603 86.5055 24.0217 86.6621 22.2838H77.6621V18.4438H90.3971C90.5222 19.2172 90.5724 20.0008 90.5471 20.7838C90.6263 22.4044 90.376 24.0243 89.8114 25.5454C89.2467 27.0666 88.3795 28.4574 87.2621 29.6338C86.0197 30.9274 84.5186 31.9446 82.8568 32.6191C81.1949 33.2937 79.4096 33.6105 77.6171 33.5488ZM107.227 30.9988C105.518 32.6371 103.242 33.5518 100.875 33.5518C98.5071 33.5518 96.2312 32.6371 94.5221 30.9988C93.6714 30.174 93.0015 29.1814 92.5547 28.084C92.108 26.9866 91.8943 25.8082 91.9271 24.6238C91.8952 23.4395 92.1094 22.2615 92.556 21.1642C93.0027 20.0669 93.6721 19.0742 94.5221 18.2488C96.2329 16.614 98.5082 15.7017 100.875 15.7017C103.241 15.7017 105.516 16.614 107.227 18.2488C108.077 19.0742 108.746 20.0669 109.193 21.1642C109.64 22.2615 109.854 23.4395 109.822 24.6238C109.853 25.8093 109.637 26.9883 109.188 28.0858C108.738 29.1833 108.065 30.1753 107.212 30.9988H107.227ZM97.3271 28.4938C97.7817 28.9793 98.3311 29.3663 98.9413 29.6309C99.5515 29.8954 100.209 30.032 100.875 30.032C101.54 30.032 102.198 29.8954 102.808 29.6309C103.418 29.3663 103.967 28.9793 104.422 28.4938C104.918 27.9815 105.306 27.3752 105.563 26.7105C105.821 26.0459 105.943 25.3364 105.922 24.6238C105.944 23.9089 105.823 23.1968 105.565 22.5295C105.308 21.8623 104.919 21.2534 104.422 20.7388C103.961 20.2583 103.408 19.876 102.796 19.6148C102.184 19.3536 101.525 19.2189 100.86 19.2189C100.194 19.2189 99.5352 19.3536 98.923 19.6148C98.3108 19.876 97.7577 20.2583 97.2971 20.7388C96.8003 21.2534 96.4116 21.8623 96.1539 22.5295C95.8963 23.1968 95.775 23.9089 95.7971 24.6238C95.7781 25.3374 95.9024 26.0476 96.1626 26.7123C96.4229 27.377 96.8137 27.9828 97.3121 28.4938H97.3271ZM126.757 30.9988C125.048 32.6371 122.772 33.5518 120.405 33.5518C118.037 33.5518 115.761 32.6371 114.052 30.9988C113.201 30.174 112.531 29.1814 112.085 28.084C111.638 26.9866 111.424 25.8082 111.457 24.6238C111.425 23.4395 111.639 22.2615 112.086 21.1642C112.533 20.0669 113.202 19.0742 114.052 18.2488C115.761 16.6106 118.037 15.6959 120.405 15.6959C122.772 15.6959 125.048 16.6106 126.757 18.2488C127.607 19.0742 128.276 20.0669 128.723 21.1642C129.17 22.2615 129.384 23.4395 129.352 24.6238C129.385 25.8082 129.171 26.9866 128.724 28.084C128.278 29.1814 127.608 30.174 126.757 30.9988ZM116.857 28.4938C117.312 28.9793 117.861 29.3663 118.471 29.6309C119.081 29.8954 119.739 30.032 120.405 30.032C121.07 30.032 121.728 29.8954 122.338 29.6309C122.948 29.3663 123.497 28.9793 123.952 28.4938C124.448 27.9815 124.836 27.3752 125.093 26.7105C125.351 26.0459 125.473 25.3364 125.452 24.6238C125.474 23.9089 125.353 23.1968 125.095 22.5295C124.838 21.8623 124.449 21.2534 123.952 20.7388C123.491 20.2583 122.938 19.876 122.326 19.6148C121.714 19.3536 121.055 19.2189 120.39 19.2189C119.724 19.2189 119.065 19.3536 118.453 19.6148C117.841 19.876 117.288 20.2583 116.827 20.7388C116.33 21.2534 115.942 21.8623 115.684 22.5295C115.426 23.1968 115.305 23.9089 115.327 24.6238C115.308 25.3374 115.432 26.0476 115.693 26.7123C115.953 27.377 116.344 27.9828 116.842 28.4938H116.857ZM139.597 41.5588C137.799 41.616 136.036 41.0548 134.602 39.9688C133.329 39.0117 132.326 37.7401 131.692 36.2788L135.112 34.8538C135.484 35.7271 136.067 36.4949 136.807 37.0888C137.6 37.7278 138.594 38.0629 139.612 38.0338C140.257 38.0731 140.904 37.9728 141.507 37.7399C142.11 37.5069 142.656 37.1467 143.107 36.6838C144.011 35.5937 144.457 34.1959 144.352 32.7838V31.4938H144.217C143.645 32.1727 142.924 32.7092 142.109 33.0607C141.294 33.4122 140.408 33.569 139.522 33.5188C138.396 33.5222 137.281 33.292 136.248 32.8428C135.216 32.3936 134.287 31.735 133.522 30.9088C132.692 30.0892 132.036 29.1096 131.595 28.0293C131.154 26.949 130.937 25.7905 130.957 24.6238C130.936 23.4504 131.153 22.2848 131.594 21.1971C132.034 20.1094 132.69 19.1219 133.522 18.2938C134.285 17.4642 135.213 16.8024 136.246 16.3505C137.279 15.8985 138.395 15.6664 139.522 15.6688C140.476 15.6672 141.419 15.8772 142.282 16.2838C143.029 16.6099 143.695 17.0964 144.232 17.7088H144.367V16.2838H148.087V32.2588C148.185 33.5226 148.024 34.793 147.614 35.9923C147.204 37.1916 146.553 38.2946 145.702 39.2338C144.891 40.0095 143.933 40.6148 142.885 41.0141C141.836 41.4135 140.718 41.5987 139.597 41.5588ZM139.867 30.0388C140.508 30.0529 141.143 29.9258 141.729 29.6666C142.315 29.4073 142.837 29.0223 143.257 28.5388C144.183 27.4782 144.67 26.1056 144.622 24.6988C144.678 23.2683 144.19 21.8697 143.257 20.7838C142.837 20.2995 142.316 19.9139 141.73 19.6546C141.144 19.3953 140.508 19.2687 139.867 19.2838C139.209 19.2703 138.556 19.3971 137.95 19.6557C137.345 19.9144 136.802 20.2989 136.357 20.7838C135.365 21.8307 134.826 23.2268 134.857 24.6688C134.842 25.3762 134.966 26.0795 135.224 26.7385C135.481 27.3975 135.866 27.9991 136.357 28.5088C136.8 28.9984 137.342 29.3881 137.947 29.6519C138.552 29.9157 139.207 30.0476 139.867 30.0388ZM154.702 6.78883V33.0088H150.787V6.78883H154.702ZM165.442 33.5488C164.27 33.579 163.104 33.3667 162.017 32.9253C160.93 32.484 159.946 31.823 159.127 30.9838C158.296 30.1508 157.642 29.1575 157.206 28.0642C156.771 26.9709 156.562 25.8004 156.592 24.6238C156.548 23.4444 156.741 22.2681 157.161 21.1651C157.581 20.0621 158.219 19.055 159.037 18.2038C159.808 17.3915 160.739 16.7491 161.773 16.3178C162.806 15.8864 163.918 15.6756 165.037 15.6988C166.066 15.688 167.087 15.887 168.037 16.2838C168.893 16.6292 169.672 17.1388 170.332 17.7838C170.899 18.3307 171.402 18.9395 171.832 19.5988C172.18 20.1555 172.476 20.743 172.717 21.3538L173.122 22.3738L161.122 27.3088C161.485 28.1427 162.092 28.847 162.863 29.329C163.634 29.811 164.534 30.048 165.442 30.0088C166.326 30.0112 167.196 29.7845 167.966 29.3507C168.736 28.917 169.381 28.291 169.837 27.5338L172.837 29.5588C172.071 30.6542 171.092 31.5829 169.957 32.2888C168.608 33.1414 167.038 33.5794 165.442 33.5488ZM160.432 24.3538L168.412 21.0388C168.166 20.4543 167.727 19.9723 167.167 19.6738C166.541 19.3201 165.831 19.1389 165.112 19.1488C163.891 19.1804 162.732 19.6925 161.887 20.5738C161.381 21.0579 160.988 21.6477 160.737 22.3012C160.485 22.9546 160.381 23.6555 160.432 24.3538Z" fill="#171717"/>
<path d="M193.627 33.5489C191.962 33.5776 190.308 33.2696 188.765 32.6433C187.222 32.0171 185.821 31.0855 184.647 29.9045C183.473 28.7235 182.55 27.3175 181.933 25.7708C181.316 24.2241 181.018 22.5686 181.057 20.9039C181.018 19.2391 181.316 17.5836 181.933 16.0369C182.55 14.4903 183.473 13.0842 184.647 11.9032C185.821 10.7222 187.222 9.79062 188.765 9.16437C190.308 8.53811 191.962 8.23011 193.627 8.25885C195.312 8.20616 196.987 8.53496 198.527 9.22068C200.068 9.9064 201.433 10.9313 202.522 12.2189L200.362 14.3189C199.562 13.3137 198.537 12.5113 197.37 11.977C196.202 11.4427 194.925 11.1915 193.642 11.2439C192.406 11.216 191.178 11.4382 190.031 11.897C188.884 12.3559 187.842 13.0419 186.967 13.9139C186.057 14.8289 185.346 15.9222 184.878 17.1251C184.411 18.328 184.198 19.6145 184.252 20.9039C184.198 22.1932 184.411 23.4797 184.878 24.6826C185.346 25.8855 186.057 26.9788 186.967 27.8939C187.842 28.7658 188.884 29.4518 190.031 29.9107C191.178 30.3695 192.406 30.5917 193.642 30.5639C195.075 30.5799 196.494 30.2727 197.792 29.665C199.091 29.0573 200.235 28.1648 201.142 27.0539L203.302 29.2139C202.171 30.5662 200.751 31.6478 199.147 32.3789C197.417 33.1772 195.531 33.577 193.627 33.5489Z" fill="#171717"/>
<path d="M209.107 33.0088H206.002V8.78384H209.107V33.0088Z" fill="#171717"/>
<path d="M214.177 18.4288C215.804 16.813 218.004 15.9062 220.297 15.9062C222.59 15.9062 224.79 16.813 226.417 18.4288C227.213 19.2688 227.835 20.2579 228.246 21.3391C228.658 22.4203 228.852 23.5723 228.817 24.7288C228.852 25.8853 228.658 27.0373 228.246 28.1185C227.835 29.1997 227.213 30.1888 226.417 31.0288C224.79 32.6446 222.59 33.5514 220.297 33.5514C218.004 33.5514 215.804 32.6446 214.177 31.0288C213.382 30.1888 212.76 29.1997 212.348 28.1185C211.936 27.0373 211.742 25.8853 211.777 24.7288C211.742 23.5723 211.936 22.4203 212.348 21.3391C212.76 20.2579 213.382 19.2688 214.177 18.4288ZM216.487 29.0788C216.976 29.5958 217.566 30.0077 218.22 30.2891C218.874 30.5706 219.578 30.7157 220.29 30.7157C221.002 30.7157 221.706 30.5706 222.36 30.2891C223.013 30.0077 223.603 29.5958 224.092 29.0788C224.635 28.4965 225.056 27.8119 225.332 27.0651C225.607 26.3183 225.732 25.5241 225.697 24.7288C225.732 23.9335 225.607 23.1393 225.332 22.3925C225.056 21.6457 224.635 20.9612 224.092 20.3788C223.603 19.8618 223.013 19.45 222.36 19.1685C221.706 18.8871 221.002 18.7419 220.29 18.7419C219.578 18.7419 218.874 18.8871 218.22 19.1685C217.566 19.45 216.976 19.8618 216.487 20.3788C215.945 20.9612 215.523 21.6457 215.248 22.3925C214.972 23.1393 214.848 23.9335 214.882 24.7288C214.852 25.5227 214.979 26.3146 215.257 27.0588C215.536 27.8029 215.959 28.4845 216.502 29.0638L216.487 29.0788Z" fill="#171717"/>
<path d="M246.022 33.0088H243.022V30.7138H242.932C242.398 31.5855 241.642 32.2998 240.742 32.7838C239.807 33.3253 238.746 33.6099 237.667 33.6088C236.79 33.6688 235.911 33.53 235.095 33.2027C234.28 32.8754 233.549 32.3682 232.957 31.7188C231.82 30.2816 231.249 28.4781 231.352 26.6488V16.4488H234.457V26.0788C234.457 29.1688 235.822 30.7138 238.552 30.7138C239.158 30.7327 239.76 30.6065 240.308 30.3456C240.856 30.0847 241.334 29.6966 241.702 29.2138C242.506 28.1939 242.935 26.9279 242.917 25.6288V16.4488H246.022V33.0088Z" fill="#171717"/>
<path d="M256.567 33.5488C255.514 33.5523 254.472 33.3275 253.514 32.8899C252.556 32.4523 251.704 31.8123 251.017 31.0138C249.462 29.2962 248.629 27.045 248.692 24.7288C248.629 22.4127 249.462 20.1615 251.017 18.4438C251.704 17.6454 252.556 17.0054 253.514 16.5678C254.472 16.1301 255.514 15.9053 256.567 15.9088C257.747 15.8902 258.913 16.1688 259.957 16.7188C260.875 17.1806 261.652 17.8798 262.207 18.7438H262.342L262.207 16.4488V8.78384H265.312V33.0088H262.312V30.7138H262.177C261.622 31.5779 260.845 32.2771 259.927 32.7388C258.892 33.284 257.737 33.5625 256.567 33.5488ZM257.077 30.7138C257.779 30.7241 258.475 30.5849 259.119 30.3056C259.763 30.0263 260.34 29.6132 260.812 29.0938C261.867 27.8928 262.406 26.3245 262.312 24.7288C262.406 23.1332 261.867 21.5648 260.812 20.3638C260.337 19.8416 259.758 19.4244 259.112 19.1389C258.466 18.8534 257.768 18.7059 257.062 18.7059C256.356 18.7059 255.658 18.8534 255.012 19.1389C254.366 19.4244 253.787 19.8416 253.312 20.3638C252.788 20.9546 252.386 21.6429 252.128 22.3893C251.871 23.1358 251.764 23.9257 251.812 24.7138C251.764 25.502 251.871 26.2919 252.128 27.0383C252.386 27.7848 252.788 28.4731 253.312 29.0638C253.785 29.5925 254.366 30.0135 255.015 30.2981C255.665 30.5828 256.368 30.7246 257.077 30.7138Z" fill="#171717"/>
</svg>
