<svg width="726" height="516" viewBox="0 0 726 516" fill="none" xmlns="http://www.w3.org/2000/svg">
<rect x="27.5" y="18.5" width="671" height="478" rx="26.5" fill="#F5F5F5"/>
<rect x="27.5" y="18.5" width="671" height="478" rx="26.5" stroke="#171717"/>
<rect x="76.6777" y="0.5" width="572.556" height="147.547" rx="23.5" fill="#F5F5F5"/>
<rect x="76.6777" y="0.5" width="572.556" height="147.547" rx="23.5" stroke="#171717"/>
<rect x="118.62" y="29.4735" width="45.9788" height="45.9788" rx="13.7936" fill="#FBBF24"/>
<path d="M149.35 41.6256C149.76 41.6256 150.154 41.7886 150.445 42.0787C150.735 42.369 150.899 42.763 150.899 43.1735V47.818C150.899 48.2286 150.735 48.6224 150.445 48.9127C150.154 49.2031 149.761 49.3668 149.35 49.3668H142.383V52.4625H148.577C148.987 52.4627 149.381 52.6264 149.671 52.9166C149.961 53.2069 150.124 53.6009 150.124 54.0114V57.1071H152.447V63.3004H146.253V57.1071H148.577V54.0114H142.383V57.1071H144.705V63.3004H138.513V57.1071H140.835V54.0114H134.642V57.1071H136.964V63.3004H130.772V57.1071H133.094V54.0114C133.094 53.6009 133.257 53.2069 133.547 52.9166C133.837 52.6264 134.231 52.4626 134.642 52.4625H140.835V49.3668H133.869C133.458 49.3668 133.064 49.2031 132.774 48.9127C132.483 48.6224 132.32 48.2286 132.32 47.818V43.1735C132.32 42.763 132.484 42.369 132.774 42.0787C133.064 41.7886 133.458 41.6256 133.869 41.6256H149.35ZM132.32 58.6559V61.7526H135.416V58.6559H132.32ZM140.061 58.6559V61.7526H143.158V58.6559H140.061ZM147.802 58.6559V61.7526H150.899V58.6559H147.802ZM133.869 43.1735V47.818H149.35V43.1735H133.869ZM136.191 44.7223C136.618 44.7225 136.964 45.0685 136.964 45.4957C136.964 45.9231 136.618 46.27 136.191 46.2701C135.763 46.2701 135.416 45.9232 135.416 45.4957C135.417 45.0684 135.763 44.7223 136.191 44.7223Z" fill="#171717"/>
<rect x="207.158" y="29.4735" width="45.9788" height="45.9788" rx="13.7936" fill="#FBBF24"/>
<path fill-rule="evenodd" clip-rule="evenodd" d="M220.437 54.4051V62.1736H228.205V54.4051H220.437Z" fill="#262626"/>
<path fill-rule="evenodd" clip-rule="evenodd" d="M226.263 44.6943H222.379V48.5786H226.263V44.6943ZM220.437 42.7522V50.5208H228.205V42.7522H220.437Z" fill="#262626"/>
<path fill-rule="evenodd" clip-rule="evenodd" d="M237.916 44.6943H234.032V60.2315H237.916V44.6943ZM232.09 42.7522V62.1736H239.858V42.7522H232.09Z" fill="#262626"/>
<rect x="295.697" y="29.4735" width="45.9788" height="45.9788" rx="13.7936" fill="#FBBF24"/>
<path d="M319.46 41.6256V51.6891H329.524V53.2369H319.46V63.3004H317.913V53.2369H307.849V51.6891H317.913V41.6256H319.46ZM315.59 56.6432L313.578 58.6559L315.59 60.6686L314.506 61.7526L312.494 59.7399L310.481 61.7526L309.397 60.6686L311.41 58.6559L309.397 56.6432L310.481 55.5592L312.494 57.5719L314.506 55.5592L315.59 56.6432ZM315.59 44.2574L313.578 46.2701L315.59 48.2828L314.506 49.3668L312.494 47.3541L310.481 49.3668L309.397 48.2828L311.41 46.2701L309.397 44.2574L310.481 43.1735L312.494 45.1862L314.506 43.1735L315.59 44.2574ZM329.524 43.9479L324.105 49.3658L321.008 46.2701L322.092 45.1862L324.105 47.1989L328.44 42.8639L329.524 43.9479Z" fill="#171717"/>
<rect x="384.236" y="29.4735" width="45.9788" height="45.9788" rx="13.7936" fill="#FBBF24"/>
<path fill-rule="evenodd" clip-rule="evenodd" d="M397.936 50.6051C398.449 50.6051 398.865 51.021 398.865 51.534V53.3919C398.865 53.9049 398.449 54.3208 397.936 54.3208C397.423 54.3208 397.007 53.9049 397.007 53.3919V51.534C397.007 51.021 397.423 50.6051 397.936 50.6051Z" fill="#171717"/>
<path fill-rule="evenodd" clip-rule="evenodd" d="M402.58 47.8184C403.093 47.8184 403.509 48.2343 403.509 48.7473V56.1786C403.509 56.6916 403.093 57.1075 402.58 57.1075C402.067 57.1075 401.652 56.6916 401.652 56.1786V48.7473C401.652 48.2343 402.067 47.8184 402.58 47.8184Z" fill="#171717"/>
<path fill-rule="evenodd" clip-rule="evenodd" d="M407.225 45.0316C407.738 45.0316 408.154 45.4475 408.154 45.9605V58.9653C408.154 59.4784 407.738 59.8943 407.225 59.8943C406.712 59.8943 406.296 59.4784 406.296 58.9653V45.9605C406.296 45.4475 406.712 45.0316 407.225 45.0316Z" fill="#171717"/>
<path fill-rule="evenodd" clip-rule="evenodd" d="M411.87 47.8184C412.383 47.8184 412.799 48.2343 412.799 48.7473V56.1786C412.799 56.6916 412.383 57.1075 411.87 57.1075C411.357 57.1075 410.941 56.6916 410.941 56.1786V48.7473C410.941 48.2343 411.357 47.8184 411.87 47.8184Z" fill="#171717"/>
<path fill-rule="evenodd" clip-rule="evenodd" d="M416.514 50.6051C417.027 50.6051 417.443 51.021 417.443 51.534V53.3919C417.443 53.9049 417.027 54.3208 416.514 54.3208C416.001 54.3208 415.585 53.9049 415.585 53.3919V51.534C415.585 51.021 416.001 50.6051 416.514 50.6051Z" fill="#171717"/>
<rect x="472.774" y="29.4735" width="45.9788" height="45.9788" rx="13.7936" fill="#FBBF24"/>
<path fill-rule="evenodd" clip-rule="evenodd" d="M490.19 44.3432L504.11 52.4629L490.19 60.5826V44.3432ZM492.048 47.5778V57.348L500.423 52.4629L492.048 47.5778Z" fill="#171717"/>
<rect x="561.313" y="29.4735" width="45.9788" height="45.9788" rx="13.7936" fill="#FBBF24"/>
<path d="M587.066 45.1231L583.025 60.2051L581.53 59.8038L585.571 44.7227L587.066 45.1231ZM579.201 48.1358L574.881 52.463L579.201 56.7901L578.11 57.8819L572.691 52.463L578.11 47.044L579.201 48.1358ZM595.913 52.463L590.495 57.8819L589.404 56.7901L593.723 52.463L589.404 48.1358L590.495 47.044L595.913 52.463Z" fill="#171717"/>
<path d="M114.558 109.907V112.445H113.541V106.163H116.25C117.375 106.163 118.068 106.892 118.068 108.053C118.068 108.944 117.645 109.565 116.844 109.799L118.203 112.445H117.069L115.809 109.907H114.558ZM114.558 109.052H116.178C116.691 109.052 116.997 108.773 116.997 108.269V107.837C116.997 107.333 116.691 107.054 116.178 107.054H114.558V109.052ZM124.002 112.445H119.979V106.163H124.002V107.063H120.996V108.809H123.723V109.709H120.996V111.545H124.002V112.445ZM130.84 112.445H129.778L129.211 110.744H126.862L126.313 112.445H125.278L127.42 106.163H128.698L130.84 112.445ZM128.959 109.871L128.059 107.099H128.014L127.105 109.871H128.959ZM134.234 112.553C133.181 112.553 132.461 112.139 131.939 111.491L132.641 110.834C133.082 111.374 133.604 111.653 134.288 111.653C135.089 111.653 135.503 111.257 135.503 110.654C135.503 110.168 135.251 109.889 134.522 109.745L133.964 109.646C132.749 109.421 132.128 108.854 132.128 107.855C132.128 106.739 132.992 106.055 134.324 106.055C135.269 106.055 135.962 106.397 136.448 107.018L135.737 107.648C135.413 107.225 134.963 106.955 134.27 106.955C133.55 106.955 133.136 107.252 133.136 107.801C133.136 108.323 133.46 108.548 134.135 108.683L134.693 108.8C135.944 109.043 136.511 109.601 136.511 110.6C136.511 111.77 135.674 112.553 134.234 112.553ZM140.701 112.553C139.063 112.553 137.992 111.419 137.992 109.304C137.992 107.189 139.063 106.055 140.701 106.055C142.339 106.055 143.41 107.189 143.41 109.304C143.41 111.419 142.339 112.553 140.701 112.553ZM140.701 111.644C141.673 111.644 142.321 110.942 142.321 109.799V108.809C142.321 107.666 141.673 106.964 140.701 106.964C139.729 106.964 139.081 107.666 139.081 108.809V109.799C139.081 110.942 139.729 111.644 140.701 111.644ZM148.963 112.445L146.911 108.971L146.218 107.639H146.191V112.445H145.219V106.163H146.353L148.405 109.637L149.098 110.969H149.125V106.163H150.097V112.445H148.963ZM154.649 112.445H151.913V111.617H152.768V106.991H151.913V106.163H154.649V106.991H153.785V111.617H154.649V112.445ZM160.212 112.445L158.16 108.971L157.467 107.639H157.44V112.445H156.468V106.163H157.602L159.654 109.637L160.347 110.969H160.374V106.163H161.346V112.445H160.212ZM167.473 112.445V111.491H167.437C167.311 112.094 166.699 112.553 165.745 112.553C164.251 112.553 163.153 111.41 163.153 109.304C163.153 107.207 164.251 106.055 165.898 106.055C167.023 106.055 167.806 106.586 168.238 107.468L167.41 107.954C167.167 107.369 166.663 106.964 165.898 106.964C164.908 106.964 164.242 107.639 164.242 108.791V109.817C164.242 110.969 164.908 111.644 165.898 111.644C166.69 111.644 167.383 111.239 167.383 110.456V109.97H166.087V109.097H168.364V112.445H167.473Z" fill="#171717"/>
<path d="M199.761 107.445V101.163H200.967L202.65 104.358H202.704L204.387 101.163H205.539V107.445H204.567V102.639H204.522L204.027 103.656L202.65 106.167L201.273 103.656L200.778 102.639H200.733V107.445H199.761ZM207.595 101.163H208.594V105.033C208.594 106.095 208.963 106.644 209.944 106.644C210.925 106.644 211.294 106.095 211.294 105.033V101.163H212.293V104.871C212.293 106.707 211.663 107.553 209.944 107.553C208.225 107.553 207.595 106.707 207.595 104.871V101.163ZM217.914 107.445H214.341V101.163H215.358V106.545H217.914V107.445ZM220.159 107.445V102.063H218.287V101.163H223.048V102.063H221.176V107.445H220.159ZM226.993 107.445H224.257V106.617H225.112V101.991H224.257V101.163H226.993V101.991H226.129V106.617H226.993V107.445ZM228.811 107.445V101.163H230.017L231.7 104.358H231.754L233.437 101.163H234.589V107.445H233.617V102.639H233.572L233.077 103.656L231.7 106.167L230.323 103.656L229.828 102.639H229.783V107.445H228.811ZM239.111 107.553C237.473 107.553 236.402 106.419 236.402 104.304C236.402 102.189 237.473 101.055 239.111 101.055C240.749 101.055 241.82 102.189 241.82 104.304C241.82 106.419 240.749 107.553 239.111 107.553ZM239.111 106.644C240.083 106.644 240.731 105.942 240.731 104.799V103.809C240.731 102.666 240.083 101.964 239.111 101.964C238.139 101.964 237.491 102.666 237.491 103.809V104.799C237.491 105.942 238.139 106.644 239.111 106.644ZM243.628 107.445V101.163H245.851C247.453 101.163 248.506 102.207 248.506 104.304C248.506 106.401 247.453 107.445 245.851 107.445H243.628ZM244.645 106.545H245.851C246.787 106.545 247.417 105.942 247.417 104.808V103.8C247.417 102.666 246.787 102.063 245.851 102.063H244.645V106.545ZM255.087 107.445H254.025L253.458 105.744H251.109L250.56 107.445H249.525L251.667 101.163H252.945L255.087 107.445ZM253.206 104.871L252.306 102.099H252.261L251.352 104.871H253.206ZM260.173 107.445H256.6V101.163H257.617V106.545H260.173V107.445ZM196.501 114.646C196.501 112.9 197.203 111.379 198.103 110.605H199.03C198.049 111.505 197.428 112.918 197.428 114.286V115.006C197.428 116.374 198.049 117.787 199.03 118.687H198.103C197.203 117.913 196.501 116.392 196.501 114.646ZM202.152 117.553C201.099 117.553 200.379 117.139 199.857 116.491L200.559 115.834C201 116.374 201.522 116.653 202.206 116.653C203.007 116.653 203.421 116.257 203.421 115.654C203.421 115.168 203.169 114.889 202.44 114.745L201.882 114.646C200.667 114.421 200.046 113.854 200.046 112.855C200.046 111.739 200.91 111.055 202.242 111.055C203.187 111.055 203.88 111.397 204.366 112.018L203.655 112.648C203.331 112.225 202.881 111.955 202.188 111.955C201.468 111.955 201.054 112.252 201.054 112.801C201.054 113.323 201.378 113.548 202.053 113.683L202.611 113.8C203.862 114.043 204.429 114.601 204.429 115.6C204.429 116.77 203.592 117.553 202.152 117.553ZM210.051 117.445V114.709H207.207V117.445H206.19V111.163H207.207V113.809H210.051V111.163H211.068V117.445H210.051ZM215.585 117.553C213.947 117.553 212.876 116.419 212.876 114.304C212.876 112.189 213.947 111.055 215.585 111.055C217.223 111.055 218.294 112.189 218.294 114.304C218.294 116.419 217.223 117.553 215.585 117.553ZM215.585 116.644C216.557 116.644 217.205 115.942 217.205 114.799V113.809C217.205 112.666 216.557 111.964 215.585 111.964C214.613 111.964 213.965 112.666 213.965 113.809V114.799C213.965 115.942 214.613 116.644 215.585 116.644ZM221.119 114.907V117.445H220.102V111.163H222.811C223.936 111.163 224.629 111.892 224.629 113.053C224.629 113.944 224.206 114.565 223.405 114.799L224.764 117.445H223.63L222.37 114.907H221.119ZM221.119 114.052H222.739C223.252 114.052 223.558 113.773 223.558 113.269V112.837C223.558 112.333 223.252 112.054 222.739 112.054H221.119V114.052ZM227.634 117.445V112.063H225.762V111.163H230.523V112.063H228.651V117.445H227.634ZM231.442 118.804H230.596L233.089 110.785H233.935L231.442 118.804ZM239.173 117.445H235.6V111.163H236.617V116.545H239.173V117.445ZM242.877 117.553C241.239 117.553 240.168 116.419 240.168 114.304C240.168 112.189 241.239 111.055 242.877 111.055C244.515 111.055 245.586 112.189 245.586 114.304C245.586 116.419 244.515 117.553 242.877 117.553ZM242.877 116.644C243.849 116.644 244.497 115.942 244.497 114.799V113.809C244.497 112.666 243.849 111.964 242.877 111.964C241.905 111.964 241.257 112.666 241.257 113.809V114.799C241.257 115.942 241.905 116.644 242.877 116.644ZM251.138 117.445L249.086 113.971L248.393 112.639H248.366V117.445H247.394V111.163H248.528L250.58 114.637L251.273 115.969H251.3V111.163H252.272V117.445H251.138ZM258.4 117.445V116.491H258.364C258.238 117.094 257.626 117.553 256.672 117.553C255.178 117.553 254.08 116.41 254.08 114.304C254.08 112.207 255.178 111.055 256.825 111.055C257.95 111.055 258.733 111.586 259.165 112.468L258.337 112.954C258.094 112.369 257.59 111.964 256.825 111.964C255.835 111.964 255.169 112.639 255.169 113.791V114.817C255.169 115.969 255.835 116.644 256.825 116.644C257.617 116.644 258.31 116.239 258.31 115.456V114.97H257.014V114.097H259.291V117.445H258.4ZM262.927 114.646C262.927 116.392 262.225 117.913 261.325 118.687H260.398C261.379 117.787 262 116.374 262 115.006V114.286C262 112.918 261.379 111.505 260.398 110.605H261.325C262.225 111.379 262.927 112.9 262.927 114.646Z" fill="#171717"/>
<path d="M293.577 107.445V102.063H291.705V101.163H296.466V102.063H294.594V107.445H293.577ZM302.021 107.445H297.998V101.163H302.021V102.063H299.015V103.809H301.742V104.709H299.015V106.545H302.021V107.445ZM305.753 107.553C304.7 107.553 303.98 107.139 303.458 106.491L304.16 105.834C304.601 106.374 305.123 106.653 305.807 106.653C306.608 106.653 307.022 106.257 307.022 105.654C307.022 105.168 306.77 104.889 306.041 104.745L305.483 104.646C304.268 104.421 303.647 103.854 303.647 102.855C303.647 101.739 304.511 101.055 305.843 101.055C306.788 101.055 307.481 101.397 307.967 102.018L307.256 102.648C306.932 102.225 306.482 101.955 305.789 101.955C305.069 101.955 304.655 102.252 304.655 102.801C304.655 103.323 304.979 103.548 305.654 103.683L306.212 103.8C307.463 104.043 308.03 104.601 308.03 105.6C308.03 106.77 307.193 107.553 305.753 107.553ZM310.956 107.445V102.063H309.084V101.163H313.845V102.063H311.973V107.445H310.956ZM317.79 107.445H315.054V106.617H315.909V101.991H315.054V101.163H317.79V101.991H316.926V106.617H317.79V107.445ZM323.352 107.445L321.3 103.971L320.607 102.639H320.58V107.445H319.608V101.163H320.742L322.794 104.637L323.487 105.969H323.514V101.163H324.486V107.445H323.352ZM330.614 107.445V106.491H330.578C330.452 107.094 329.84 107.553 328.886 107.553C327.392 107.553 326.294 106.41 326.294 104.304C326.294 102.207 327.392 101.055 329.039 101.055C330.164 101.055 330.947 101.586 331.379 102.468L330.551 102.954C330.308 102.369 329.804 101.964 329.039 101.964C328.049 101.964 327.383 102.639 327.383 103.791V104.817C327.383 105.969 328.049 106.644 329.039 106.644C329.831 106.644 330.524 106.239 330.524 105.456V104.97H329.228V104.097H331.505V107.445H330.614ZM341.111 107.445H340.049L339.482 105.744H337.133L336.584 107.445H335.549L337.691 101.163H338.969L341.111 107.445ZM339.23 104.871L338.33 102.099H338.285L337.376 104.871H339.23ZM345.09 107.445H342.354V106.617H343.209V101.991H342.354V101.163H345.09V101.991H344.226V106.617H345.09V107.445ZM305.778 117.445H304.716L304.149 115.744H301.8L301.251 117.445H300.216L302.358 111.163H303.636L305.778 117.445ZM303.897 114.871L302.997 112.099H302.952L302.043 114.871H303.897ZM311.139 117.445V116.491H311.103C310.977 117.094 310.365 117.553 309.411 117.553C307.917 117.553 306.819 116.41 306.819 114.304C306.819 112.207 307.917 111.055 309.564 111.055C310.689 111.055 311.472 111.586 311.904 112.468L311.076 112.954C310.833 112.369 310.329 111.964 309.564 111.964C308.574 111.964 307.908 112.639 307.908 113.791V114.817C307.908 115.969 308.574 116.644 309.564 116.644C310.356 116.644 311.049 116.239 311.049 115.456V114.97H309.753V114.097H312.03V117.445H311.139ZM318.006 117.445H313.983V111.163H318.006V112.063H315V113.809H317.727V114.709H315V116.545H318.006V117.445ZM323.602 117.445L321.55 113.971L320.857 112.639H320.83V117.445H319.858V111.163H320.992L323.044 114.637L323.737 115.969H323.764V111.163H324.736V117.445H323.602ZM328.137 117.445V112.063H326.265V111.163H331.026V112.063H329.154V117.445H328.137ZM334.342 117.553C333.289 117.553 332.569 117.139 332.047 116.491L332.749 115.834C333.19 116.374 333.712 116.653 334.396 116.653C335.197 116.653 335.611 116.257 335.611 115.654C335.611 115.168 335.359 114.889 334.63 114.745L334.072 114.646C332.857 114.421 332.236 113.854 332.236 112.855C332.236 111.739 333.1 111.055 334.432 111.055C335.377 111.055 336.07 111.397 336.556 112.018L335.845 112.648C335.521 112.225 335.071 111.955 334.378 111.955C333.658 111.955 333.244 112.252 333.244 112.801C333.244 113.323 333.568 113.548 334.243 113.683L334.801 113.8C336.052 114.043 336.619 114.601 336.619 115.6C336.619 116.77 335.782 117.553 334.342 117.553Z" fill="#171717"/>
<path d="M397.917 107.445H396.855L396.288 105.744H393.939L393.39 107.445H392.355L394.497 101.163H395.775L397.917 107.445ZM396.036 104.871L395.136 102.099H395.091L394.182 104.871H396.036ZM399.236 101.163H400.235V105.033C400.235 106.095 400.604 106.644 401.585 106.644C402.566 106.644 402.935 106.095 402.935 105.033V101.163H403.934V104.871C403.934 106.707 403.304 107.553 401.585 107.553C399.866 107.553 399.236 106.707 399.236 104.871V101.163ZM405.982 107.445V101.163H408.205C409.807 101.163 410.86 102.207 410.86 104.304C410.86 106.401 409.807 107.445 408.205 107.445H405.982ZM406.999 106.545H408.205C409.141 106.545 409.771 105.942 409.771 104.808V103.8C409.771 102.666 409.141 102.063 408.205 102.063H406.999V106.545ZM415.131 107.445H412.395V106.617H413.25V101.991H412.395V101.163H415.131V101.991H414.267V106.617H415.131V107.445ZM419.379 107.553C417.741 107.553 416.67 106.419 416.67 104.304C416.67 102.189 417.741 101.055 419.379 101.055C421.017 101.055 422.088 102.189 422.088 104.304C422.088 106.419 421.017 107.553 419.379 107.553ZM419.379 106.644C420.351 106.644 420.999 105.942 420.999 104.799V103.809C420.999 102.666 420.351 101.964 419.379 101.964C418.407 101.964 417.759 102.666 417.759 103.809V104.799C417.759 105.942 418.407 106.644 419.379 106.644ZM370.437 117.445V112.063H368.565V111.163H373.326V112.063H371.454V117.445H370.437ZM375.875 114.907V117.445H374.858V111.163H377.567C378.692 111.163 379.385 111.892 379.385 113.053C379.385 113.944 378.962 114.565 378.161 114.799L379.52 117.445H378.386L377.126 114.907H375.875ZM375.875 114.052H377.495C378.008 114.052 378.314 113.773 378.314 113.269V112.837C378.314 112.333 378.008 112.054 377.495 112.054H375.875V114.052ZM386.281 117.445H385.219L384.652 115.744H382.303L381.754 117.445H380.719L382.861 111.163H384.139L386.281 117.445ZM384.4 114.871L383.5 112.099H383.455L382.546 114.871H384.4ZM391.538 117.445L389.486 113.971L388.793 112.639H388.766V117.445H387.794V111.163H388.928L390.98 114.637L391.673 115.969H391.7V111.163H392.672V117.445H391.538ZM396.64 117.553C395.587 117.553 394.867 117.139 394.345 116.491L395.047 115.834C395.488 116.374 396.01 116.653 396.694 116.653C397.495 116.653 397.909 116.257 397.909 115.654C397.909 115.168 397.657 114.889 396.928 114.745L396.37 114.646C395.155 114.421 394.534 113.854 394.534 112.855C394.534 111.739 395.398 111.055 396.73 111.055C397.675 111.055 398.368 111.397 398.854 112.018L398.143 112.648C397.819 112.225 397.369 111.955 396.676 111.955C395.956 111.955 395.542 112.252 395.542 112.801C395.542 113.323 395.866 113.548 396.541 113.683L397.099 113.8C398.35 114.043 398.917 114.601 398.917 115.6C398.917 116.77 398.08 117.553 396.64 117.553ZM403.036 117.553C401.398 117.553 400.399 116.41 400.399 114.304C400.399 112.198 401.398 111.055 403.036 111.055C404.125 111.055 404.854 111.541 405.277 112.477L404.422 112.945C404.206 112.351 403.765 111.964 403.036 111.964C402.073 111.964 401.479 112.666 401.479 113.827V114.781C401.479 115.942 402.073 116.644 403.036 116.644C403.783 116.644 404.26 116.212 404.485 115.6L405.304 116.095C404.881 117.004 404.125 117.553 403.036 117.553ZM407.939 114.907V117.445H406.922V111.163H409.631C410.756 111.163 411.449 111.892 411.449 113.053C411.449 113.944 411.026 114.565 410.225 114.799L411.584 117.445H410.45L409.19 114.907H407.939ZM407.939 114.052H409.559C410.072 114.052 410.378 113.773 410.378 113.269V112.837C410.378 112.333 410.072 112.054 409.559 112.054H407.939V114.052ZM415.826 117.445H413.09V116.617H413.945V111.991H413.09V111.163H415.826V111.991H414.962V116.617H415.826V117.445ZM418.661 117.445H417.644V111.163H420.344C421.496 111.163 422.171 111.91 422.171 113.053C422.171 114.196 421.496 114.943 420.344 114.943H418.661V117.445ZM418.661 112.054V114.052H420.281C420.794 114.052 421.1 113.773 421.1 113.269V112.837C421.1 112.333 420.794 112.054 420.281 112.054H418.661ZM425.14 117.445V112.063H423.268V111.163H428.029V112.063H426.157V117.445H425.14ZM431.974 117.445H429.238V116.617H430.093V111.991H429.238V111.163H431.974V111.991H431.11V116.617H431.974V117.445ZM436.222 117.553C434.584 117.553 433.513 116.419 433.513 114.304C433.513 112.189 434.584 111.055 436.222 111.055C437.86 111.055 438.931 112.189 438.931 114.304C438.931 116.419 437.86 117.553 436.222 117.553ZM436.222 116.644C437.194 116.644 437.842 115.942 437.842 114.799V113.809C437.842 112.666 437.194 111.964 436.222 111.964C435.25 111.964 434.602 112.666 434.602 113.809V114.799C434.602 115.942 435.25 116.644 436.222 116.644ZM444.483 117.445L442.431 113.971L441.738 112.639H441.711V117.445H440.739V111.163H441.873L443.925 114.637L444.618 115.969H444.645V111.163H445.617V117.445H444.483Z" fill="#171717"/>
<path d="M478.855 107.445V102.063H476.983V101.163H481.744V102.063H479.872V107.445H478.855ZM487.298 107.445H483.275V101.163H487.298V102.063H484.292V103.809H487.019V104.709H484.292V106.545H487.298V107.445ZM488.565 107.445L490.599 104.232L488.637 101.163H489.834L491.265 103.503H491.283L492.732 101.163H493.857L491.877 104.223L493.938 107.445H492.741L491.22 104.943H491.193L489.69 107.445H488.565ZM496.752 107.445V102.063H494.88V101.163H499.641V102.063H497.769V107.445H496.752ZM503.019 105.204H500.526V104.205H503.019V105.204ZM505.777 107.445V102.063H503.905V101.163H508.666V102.063H506.794V107.445H505.777ZM512.425 107.553C510.787 107.553 509.716 106.419 509.716 104.304C509.716 102.189 510.787 101.055 512.425 101.055C514.063 101.055 515.134 102.189 515.134 104.304C515.134 106.419 514.063 107.553 512.425 107.553ZM512.425 106.644C513.397 106.644 514.045 105.942 514.045 104.799V103.809C514.045 102.666 513.397 101.964 512.425 101.964C511.453 101.964 510.805 102.666 510.805 103.809V104.799C510.805 105.942 511.453 106.644 512.425 106.644ZM482.566 115.204H480.073V114.205H482.566V115.204ZM486.841 117.445H485.662L483.601 111.163H484.654L485.653 114.268L486.256 116.455H486.292L486.904 114.268L487.903 111.163H488.929L486.841 117.445ZM492.87 117.445H490.134V116.617H490.989V111.991H490.134V111.163H492.87V111.991H492.006V116.617H492.87V117.445ZM494.688 117.445V111.163H496.911C498.513 111.163 499.566 112.207 499.566 114.304C499.566 116.401 498.513 117.445 496.911 117.445H494.688ZM495.705 116.545H496.911C497.847 116.545 498.477 115.942 498.477 114.808V113.8C498.477 112.666 497.847 112.063 496.911 112.063H495.705V116.545ZM505.395 117.445H501.372V111.163H505.395V112.063H502.389V113.809H505.116V114.709H502.389V116.545H505.395V117.445ZM509.677 117.553C508.039 117.553 506.968 116.419 506.968 114.304C506.968 112.189 508.039 111.055 509.677 111.055C511.315 111.055 512.386 112.189 512.386 114.304C512.386 116.419 511.315 117.553 509.677 117.553ZM509.677 116.644C510.649 116.644 511.297 115.942 511.297 114.799V113.809C511.297 112.666 510.649 111.964 509.677 111.964C508.705 111.964 508.057 112.666 508.057 113.809V114.799C508.057 115.942 508.705 116.644 509.677 116.644Z" fill="#171717"/>
<path d="M569.48 107.553C567.842 107.553 566.843 106.41 566.843 104.304C566.843 102.198 567.842 101.055 569.48 101.055C570.569 101.055 571.298 101.541 571.721 102.477L570.866 102.945C570.65 102.351 570.209 101.964 569.48 101.964C568.517 101.964 567.923 102.666 567.923 103.827V104.781C567.923 105.942 568.517 106.644 569.48 106.644C570.227 106.644 570.704 106.212 570.929 105.6L571.748 106.095C571.325 107.004 570.569 107.553 569.48 107.553ZM575.682 107.553C574.044 107.553 572.973 106.419 572.973 104.304C572.973 102.189 574.044 101.055 575.682 101.055C577.32 101.055 578.391 102.189 578.391 104.304C578.391 106.419 577.32 107.553 575.682 107.553ZM575.682 106.644C576.654 106.644 577.302 105.942 577.302 104.799V103.809C577.302 102.666 576.654 101.964 575.682 101.964C574.71 101.964 574.062 102.666 574.062 103.809V104.799C574.062 105.942 574.71 106.644 575.682 106.644ZM580.199 107.445V101.163H582.422C584.024 101.163 585.077 102.207 585.077 104.304C585.077 106.401 584.024 107.445 582.422 107.445H580.199ZM581.216 106.545H582.422C583.358 106.545 583.988 105.942 583.988 104.808V103.8C583.988 102.666 583.358 102.063 582.422 102.063H581.216V106.545ZM589.349 107.445H586.613V106.617H587.468V101.991H586.613V101.163H589.349V101.991H588.485V106.617H589.349V107.445ZM594.911 107.445L592.859 103.971L592.166 102.639H592.139V107.445H591.167V101.163H592.301L594.353 104.637L595.046 105.969H595.073V101.163H596.045V107.445H594.911ZM602.172 107.445V106.491H602.136C602.01 107.094 601.398 107.553 600.444 107.553C598.95 107.553 597.852 106.41 597.852 104.304C597.852 102.207 598.95 101.055 600.597 101.055C601.722 101.055 602.505 101.586 602.937 102.468L602.109 102.954C601.866 102.369 601.362 101.964 600.597 101.964C599.607 101.964 598.941 102.639 598.941 103.791V104.817C598.941 105.969 599.607 106.644 600.597 106.644C601.389 106.644 602.082 106.239 602.082 105.456V104.97H600.786V104.097H603.063V107.445H602.172ZM572.432 117.445V112.063H570.56V111.163H575.321V112.063H573.449V117.445H572.432ZM581.25 117.445H580.188L579.621 115.744H577.272L576.723 117.445H575.688L577.83 111.163H579.108L581.25 117.445ZM579.369 114.871L578.469 112.099H578.424L577.515 114.871H579.369ZM584.644 117.553C583.591 117.553 582.871 117.139 582.349 116.491L583.051 115.834C583.492 116.374 584.014 116.653 584.698 116.653C585.499 116.653 585.913 116.257 585.913 115.654C585.913 115.168 585.661 114.889 584.932 114.745L584.374 114.646C583.159 114.421 582.538 113.854 582.538 112.855C582.538 111.739 583.402 111.055 584.734 111.055C585.679 111.055 586.372 111.397 586.858 112.018L586.147 112.648C585.823 112.225 585.373 111.955 584.68 111.955C583.96 111.955 583.546 112.252 583.546 112.801C583.546 113.323 583.87 113.548 584.545 113.683L585.103 113.8C586.354 114.043 586.921 114.601 586.921 115.6C586.921 116.77 586.084 117.553 584.644 117.553ZM592.471 117.445L590.563 114.511L589.699 115.501V117.445H588.682V111.163H589.699V114.349H589.735L590.635 113.206L592.327 111.163H593.515L591.274 113.809L593.695 117.445H592.471ZM596.983 117.553C595.93 117.553 595.21 117.139 594.688 116.491L595.39 115.834C595.831 116.374 596.353 116.653 597.037 116.653C597.838 116.653 598.252 116.257 598.252 115.654C598.252 115.168 598 114.889 597.271 114.745L596.713 114.646C595.498 114.421 594.877 113.854 594.877 112.855C594.877 111.739 595.741 111.055 597.073 111.055C598.018 111.055 598.711 111.397 599.197 112.018L598.486 112.648C598.162 112.225 597.712 111.955 597.019 111.955C596.299 111.955 595.885 112.252 595.885 112.801C595.885 113.323 596.209 113.548 596.884 113.683L597.442 113.8C598.693 114.043 599.26 114.601 599.26 115.6C599.26 116.77 598.423 117.553 596.983 117.553Z" fill="#171717"/>
<path d="M361.638 198.223C361.833 198.418 362.149 198.418 362.345 198.223L365.527 195.041C365.722 194.845 365.722 194.529 365.527 194.334C365.331 194.138 365.015 194.138 364.82 194.334L361.991 197.162L359.163 194.334C358.967 194.138 358.651 194.138 358.456 194.334C358.26 194.529 358.26 194.845 358.456 195.041L361.638 198.223ZM199.956 156.485H199.456V172.717H199.956H200.456V156.485H199.956ZM200.602 173.364V173.864H361.991V173.364V172.864H200.602V173.364ZM361.991 173.364H361.491V197.869H361.991H362.491V173.364H361.991ZM361.991 173.364V173.864H525.309V173.364V172.864H361.991V173.364ZM525.956 172.717H526.456V156.485H525.956H525.456V172.717H525.956ZM525.309 173.364V173.864C525.942 173.864 526.456 173.35 526.456 172.717H525.956H525.456C525.456 172.798 525.39 172.864 525.309 172.864V173.364ZM199.956 172.717H199.456C199.456 173.35 199.969 173.864 200.602 173.864V173.364V172.864C200.521 172.864 200.456 172.798 200.456 172.717H199.956Z" fill="#171717"/>
<g clip-path="url(#clip0_4_348)">
<g clip-path="url(#clip1_4_348)">
<rect x="7.95593" y="237.267" width="205.587" height="246.869" rx="16.6536" transform="rotate(-0.0480135 7.95593 237.267)" fill="#F5F5F5"/>
<g clip-path="url(#clip2_4_348)">
<mask id="path-25-inside-1_4_348" fill="white">
<path d="M7.95593 237.267L213.536 237.095L213.646 368.297L8.06588 368.47L7.95593 237.267Z"/>
</mask>
<path d="M7.95593 237.267L213.536 237.095L213.646 368.297L8.06588 368.47L7.95593 237.267Z" fill="#93C5FD"/>
<path d="M213.646 368.297L213.645 367.297L8.06504 367.47L8.06588 368.47L8.06672 369.47L213.647 369.297L213.646 368.297Z" fill="#171717" mask="url(#path-25-inside-1_4_348)"/>
<path d="M115.801 305.782L110.801 314.782L100.801 308.782L90.801 314.782L110.801 326.782L130.801 314.782L115.801 305.782Z" stroke="#171717" stroke-width="2"/>
<path d="M115.801 305.782L125.801 287.782L116.001 281.982L105.801 299.782L95.801 293.782L90.801 302.782L100.801 308.782L110.801 302.782L115.801 305.782Z" stroke="#171717" stroke-width="2"/>
</g>
<path d="M28.4491 395.263L22.8902 395.268L22.8832 386.833L28.442 386.828L28.4432 388.242L24.4795 388.246L24.4812 390.288L27.9857 390.285L27.9869 391.699L24.4824 391.702L24.4842 393.853L28.4479 393.85L28.4491 395.263ZM33.2298 395.259L31.393 395.261L29.285 388.955L30.8077 388.953L31.6921 391.672L32.3103 393.919L32.3949 393.919L33.0093 391.671L33.865 388.951L35.3393 388.95L33.2298 395.259ZM37.8296 395.401C36.5487 395.402 35.823 394.665 35.822 393.541C35.821 392.248 36.7993 391.607 38.5153 391.605L39.5908 391.605L39.5904 391.145C39.5898 390.444 39.239 390.034 38.4173 390.035C37.6922 390.035 37.2816 390.398 36.9799 390.833L36.0608 390.012C36.5194 389.287 37.2561 388.803 38.525 388.802C40.2289 388.8 41.1359 389.609 41.1371 391.047L41.1396 394.02L41.768 394.02L41.769 395.252L40.911 395.253C40.2464 395.254 39.8352 394.819 39.7379 394.166L39.6654 394.166C39.4607 394.976 38.7722 395.4 37.8296 395.401ZM38.3483 394.276C39.0371 394.276 39.5927 393.961 39.5923 393.369L39.5916 392.535L38.6006 392.536C37.791 392.537 37.3924 392.815 37.3928 393.31L37.393 393.516C37.3934 394.023 37.7441 394.277 38.3483 394.276ZM45.4016 395.249L44.5677 395.25C43.5164 395.251 43.0204 394.695 43.0196 393.729L43.0134 386.309L44.5602 386.307L44.5667 394.017L45.4005 394.017L45.4016 395.249ZM50.3434 395.245L50.3426 394.194L50.2821 394.194C50.0652 394.822 49.5581 395.391 48.5188 395.392C47.2258 395.393 46.5 394.499 46.4986 392.928L46.4953 388.94L48.0421 388.939L48.0453 392.77C48.0461 393.64 48.3727 394.111 49.1099 394.11C49.7262 394.11 50.3422 393.783 50.3417 393.106L50.3382 388.937L51.885 388.936L51.8903 395.244L50.3434 395.245ZM55.2365 395.386C53.9555 395.387 53.2298 394.651 53.2289 393.527C53.2278 392.234 54.2061 391.592 55.9221 391.591L56.9976 391.59L56.9972 391.131C56.9966 390.43 56.6459 390.019 55.8241 390.02C55.099 390.021 54.6885 390.383 54.3867 390.819L53.4676 389.998C53.9262 389.272 54.663 388.788 55.9318 388.787C57.6357 388.786 58.5428 389.595 58.544 391.033L58.5465 394.006L59.1748 394.005L59.1759 395.238L58.3179 395.238C57.6532 395.239 57.242 394.804 57.1448 394.152L57.0723 394.152C56.8675 394.962 56.1791 395.385 55.2365 395.386ZM55.7552 394.262C56.444 394.261 56.9996 393.946 56.9991 393.354L56.9984 392.52L56.0075 392.521C55.1978 392.522 54.7993 392.8 54.7997 393.296L54.7998 393.501C54.8003 394.009 55.1509 394.262 55.7552 394.262ZM62.3503 395.235C61.2869 395.236 60.7184 394.656 60.7176 393.629L60.7147 390.161L59.7842 390.162L59.7831 388.929L60.2665 388.929C60.7257 388.928 60.8705 388.711 60.8702 388.276L60.8693 387.2L62.259 387.199L62.2604 388.927L63.5535 388.926L63.5545 390.159L62.2615 390.16L62.2647 394.002L63.4611 394.001L63.4621 395.234L62.3503 395.235ZM65.6678 388.006C65.0273 388.006 64.7612 387.68 64.7608 387.233L64.7606 386.991C64.7602 386.544 65.0258 386.218 65.6663 386.217C66.2947 386.217 66.5729 386.543 66.5733 386.99L66.5735 387.232C66.5738 387.679 66.2962 388.005 65.6678 388.006ZM64.9004 395.233L64.8951 388.925L66.442 388.923L66.4472 395.232L64.9004 395.233ZM70.7418 395.373C68.9412 395.375 67.8163 394.094 67.8146 392.064C67.8129 390.046 68.9357 388.776 70.7363 388.775C72.5489 388.773 73.6739 390.041 73.6755 392.059C73.6773 394.09 72.5545 395.371 70.7418 395.373ZM70.7408 394.128C71.5504 394.128 72.0575 393.608 72.0567 392.653L72.0557 391.481C72.055 390.538 71.547 390.019 70.7373 390.02C69.9397 390.02 69.4326 390.54 69.4334 391.483L69.4344 392.655C69.4352 393.61 69.9432 394.129 70.7408 394.128ZM76.5963 395.223L75.0495 395.224L75.0442 388.916L76.591 388.915L76.5919 389.966L76.6523 389.966C76.9055 389.289 77.4368 388.769 78.4157 388.768C79.7087 388.767 80.4345 389.661 80.4358 391.232L80.4392 395.22L78.8924 395.221L78.8892 391.39C78.8884 390.496 78.5859 390.037 77.8488 390.038C77.2083 390.038 76.5923 390.377 76.5928 391.054L76.5963 395.223ZM84.2204 395.362C83.0241 395.363 82.2382 394.928 81.6092 394.204L82.551 393.285C83.0107 393.816 83.5668 394.142 84.2798 394.141C85.017 394.141 85.3309 393.862 85.3306 393.415C85.3303 393.053 85.1126 392.823 84.5566 392.751L83.9281 392.667C82.5745 392.499 81.8248 391.908 81.8238 390.76C81.8228 389.539 82.7768 388.765 84.2149 388.764C85.4475 388.763 86.0762 389.125 86.681 389.752L85.7754 390.66C85.4125 390.273 84.8806 389.984 84.2643 389.984C83.5996 389.985 83.3098 390.251 83.3101 390.637C83.3105 391.06 83.5403 391.254 84.1325 391.35L84.773 391.434C86.1508 391.626 86.816 392.242 86.8169 393.293C86.8179 394.514 85.7914 395.36 84.2204 395.362Z" fill="#171717"/>
<rect width="42.2388" height="8.89238" rx="4.44619" transform="matrix(1 -0.000837994 -0.000837994 -1 21.8433 459.599)" fill="#E5E5E5"/>
<rect width="137.832" height="8.89238" rx="4.44619" transform="matrix(1 -0.000837994 -0.000837994 -1 21.8265 439.592)" fill="#E5E5E5"/>
<rect width="137.832" height="8.89238" rx="4.44619" transform="matrix(1 -0.000837994 -0.000837994 -1 21.8098 419.584)" fill="#E5E5E5"/>
</g>
</g>
<rect x="7.95593" y="237.267" width="205.587" height="246.869" rx="17.3475" transform="rotate(-0.0480135 7.95593 237.267)" stroke="#171717"/>
<g clip-path="url(#clip3_4_348)">
<rect x="234.334" y="206.218" width="256.984" height="308.586" rx="20.817" transform="rotate(-0.0480135 234.334 206.218)" fill="#F5F5F5"/>
<g clip-path="url(#clip4_4_348)">
<mask id="path-35-inside-2_4_348" fill="white">
<path d="M234.334 206.219L491.31 206.004L491.447 370.007L234.472 370.223L234.334 206.219Z"/>
</mask>
<path d="M234.334 206.219L491.31 206.004L491.447 370.007L234.472 370.223L234.334 206.219Z" fill="#FB923C"/>
<path d="M491.447 370.007L491.446 369.007L234.471 369.223L234.472 370.223L234.473 371.223L491.448 371.007L491.447 370.007Z" fill="#171717" mask="url(#path-35-inside-2_4_348)"/>
<path d="M336.167 319.113V314.837C336.167 312.476 338.081 310.561 340.443 310.561H353.27C355.632 310.561 357.546 312.476 357.546 314.837V319.113" stroke="#171717" stroke-width="2"/>
<path d="M368.236 319.113V314.837C368.236 312.476 370.15 310.561 372.512 310.561H385.339C387.701 310.561 389.615 312.476 389.615 314.837V319.113" stroke="#171717" stroke-width="2"/>
<path d="M336.167 287.044V282.768C336.167 280.407 338.081 278.492 340.443 278.492H353.27C355.632 278.492 357.546 280.407 357.546 282.768V287.044" stroke="#171717" stroke-width="2"/>
<path d="M368.236 287.044V282.768C368.236 280.407 370.15 278.492 372.512 278.492H385.339C387.701 278.492 389.615 280.407 389.615 282.768V287.044" stroke="#171717" stroke-width="2"/>
<circle cx="346.856" cy="297.734" r="7.55172" stroke="#171717" stroke-width="2"/>
<circle cx="378.925" cy="297.734" r="7.55172" stroke="#171717" stroke-width="2"/>
<circle cx="346.856" cy="265.665" r="7.55172" stroke="#171717" stroke-width="2"/>
<circle cx="378.925" cy="265.665" r="7.55172" stroke="#171717" stroke-width="2"/>
</g>
<path d="M254.992 399.405L254.996 403.468L253.002 403.47L252.993 392.926L257.751 392.922C259.67 392.921 260.864 394.189 260.866 396.183C260.867 397.633 260.203 398.736 258.905 399.175L261.068 403.463L258.848 403.465L256.881 399.403L254.992 399.405ZM254.991 397.728L257.559 397.726C258.329 397.726 258.797 397.302 258.797 396.532L258.796 395.837C258.795 395.067 258.327 394.659 257.556 394.66L254.988 394.662L254.991 397.728ZM269.181 403.457L263.033 403.462L263.024 392.918L265.018 392.916L265.025 401.693L269.179 401.689L269.181 403.457ZM277.3 403.45L277.296 398.994L272.9 398.997L272.904 403.453L270.91 403.455L270.901 392.911L272.895 392.91L272.899 397.23L277.295 397.226L277.291 392.906L279.285 392.904L279.294 403.448L277.3 403.45ZM283.761 403.444L281.767 403.446L281.759 392.902L288.541 392.897L288.542 394.664L283.754 394.668L283.756 397.221L287.925 397.217L287.927 398.985L283.758 398.988L283.761 403.444Z" fill="#171717"/>
<rect width="52.7985" height="11.1155" rx="5.55774" transform="matrix(1 -0.000837994 -0.000837994 -1 251.694 483.634)" fill="#E5E5E5"/>
<rect width="172.29" height="11.1155" rx="5.55774" transform="matrix(1 -0.000837994 -0.000837994 -1 251.673 458.624)" fill="#E5E5E5"/>
<rect width="172.29" height="11.1155" rx="5.55774" transform="matrix(1 -0.000837994 -0.000837994 -1 251.652 433.615)" fill="#E5E5E5"/>
</g>
<rect x="234.334" y="206.218" width="256.984" height="308.586" rx="20.817" transform="rotate(-0.0480135 234.334 206.218)" stroke="#171717"/>
<g clip-path="url(#clip5_4_348)">
<rect x="512.161" y="236.844" width="205.587" height="246.869" rx="17.3475" transform="rotate(-0.0480135 512.161 236.844)" fill="#F5F5F5"/>
<g clip-path="url(#clip6_4_348)">
<mask id="path-52-inside-3_4_348" fill="white">
<path d="M512.161 236.844L717.741 236.672L717.851 367.875L512.271 368.047L512.161 236.844Z"/>
</mask>
<path d="M512.161 236.844L717.741 236.672L717.851 367.875L512.271 368.047L512.161 236.844Z" fill="#C084FC"/>
<path d="M717.851 367.875L717.85 366.875L512.27 367.047L512.271 368.047L512.272 369.047L717.852 368.875L717.851 367.875Z" fill="#171717" mask="url(#path-52-inside-3_4_348)"/>
<rect x="591.78" y="279.134" width="19.6281" height="19.6281" stroke="#171717" stroke-width="1.54839"/>
<rect x="618.604" y="279.134" width="19.6281" height="19.6281" stroke="#171717" stroke-width="1.54839"/>
<rect x="591.78" y="305.957" width="19.6281" height="19.6281" stroke="#171717" stroke-width="1.54839"/>
<rect x="618.604" y="305.957" width="19.6281" height="19.6281" stroke="#171717" stroke-width="1.54839"/>
</g>
<path d="M529.718 394.988C528.28 394.989 527.288 394.422 526.575 393.589L527.649 392.549C528.23 393.225 528.943 393.587 529.813 393.586C530.792 393.586 531.299 393.114 531.299 392.401C531.298 391.833 531.032 391.483 530.15 391.326L529.352 391.206C527.648 390.942 526.825 390.133 526.824 388.755C526.823 387.245 527.994 386.265 529.88 386.263C531.148 386.262 532.091 386.696 532.769 387.505L531.682 388.534C531.271 388.014 530.69 387.664 529.796 387.665C528.89 387.666 528.419 388.029 528.419 388.657C528.42 389.298 528.783 389.563 529.592 389.707L530.378 389.852C532.082 390.153 532.88 390.913 532.882 392.303C532.883 393.898 531.736 394.987 529.718 394.988ZM536.078 394.838L534.483 394.839L534.476 386.404L539.902 386.4L539.903 387.814L536.072 387.817L536.074 389.859L539.409 389.856L539.41 391.27L536.075 391.273L536.078 394.838ZM547.155 387.808L544.763 387.81L544.768 394.831L543.173 394.832L543.167 387.811L540.775 387.813L540.774 386.399L547.154 386.394L547.155 387.808Z" fill="#171717"/>
<rect width="42.2388" height="8.89238" rx="4.44619" transform="matrix(1 -0.000837994 -0.000837994 -1 526.048 459.177)" fill="#E5E5E5"/>
<rect width="137.832" height="8.89238" rx="4.44619" transform="matrix(1 -0.000837994 -0.000837994 -1 526.032 439.169)" fill="#E5E5E5"/>
<rect width="137.832" height="8.89238" rx="4.44619" transform="matrix(1 -0.000837994 -0.000837994 -1 526.015 419.161)" fill="#E5E5E5"/>
</g>
<rect x="512.661" y="237.344" width="204.587" height="245.869" rx="16.8475" transform="rotate(-0.0480135 512.661 237.344)" stroke="#171717"/>
<defs>
<clipPath id="clip0_4_348">
<rect x="7.95593" y="237.267" width="205.587" height="246.869" rx="17.3475" transform="rotate(-0.0480135 7.95593 237.267)" fill="white"/>
</clipPath>
<clipPath id="clip1_4_348">
<rect x="7.95593" y="237.267" width="205.587" height="246.869" rx="16.6536" transform="rotate(-0.0480135 7.95593 237.267)" fill="white"/>
</clipPath>
<clipPath id="clip2_4_348">
<path d="M7.96172 244.172C7.95852 240.358 11.0476 237.264 14.8613 237.261L206.638 237.1C210.451 237.097 213.546 240.186 213.549 244L213.653 368.297L8.06588 368.47L7.96172 244.172Z" fill="white"/>
</clipPath>
<clipPath id="clip3_4_348">
<rect x="234.334" y="206.218" width="256.984" height="308.586" rx="20.817" transform="rotate(-0.0480135 234.334 206.218)" fill="white"/>
</clipPath>
<clipPath id="clip4_4_348">
<path d="M234.341 214.85C234.337 210.083 238.199 206.215 242.966 206.211L482.686 206.01C487.454 206.006 491.321 209.868 491.325 214.635L491.456 370.007L234.472 370.222L234.341 214.85Z" fill="white"/>
</clipPath>
<clipPath id="clip5_4_348">
<rect x="512.161" y="236.844" width="205.587" height="246.869" rx="17.3475" transform="rotate(-0.0480135 512.161 236.844)" fill="white"/>
</clipPath>
<clipPath id="clip6_4_348">
<path d="M512.167 243.75C512.164 239.936 515.253 236.842 519.066 236.838L710.843 236.678C714.657 236.675 717.751 239.764 717.754 243.577L717.858 367.875L512.271 368.047L512.167 243.75Z" fill="white"/>
</clipPath>
</defs>
</svg>
