<svg width="156" height="31" viewBox="0 0 156 31" fill="none" xmlns="http://www.w3.org/2000/svg">
<g clip-path="url(#clip0_254_139349)">
<path d="M15.2828 30.5003C14.2399 30.5003 13.2011 30.4459 12.1624 30.3789C11.3526 30.3266 10.5471 30.2366 9.74575 30.1194C8.84269 29.9854 7.94599 29.8097 7.06625 29.5669C6.38365 29.3785 5.7159 29.1504 5.0651 28.87C4.30619 28.5414 3.58544 28.148 2.92616 27.652C2.06126 27.0032 1.35958 26.2164 0.859297 25.262C0.51376 24.6028 0.289055 23.9017 0.159743 23.1693C0.0113529 22.3217 -0.00136629 21.4699 0.0728288 20.6161C0.119466 20.074 0.20426 19.5341 0.314493 19.0004C0.488322 18.1591 0.723626 17.3325 1.01193 16.5226C1.21543 15.9492 1.43802 15.382 1.67756 14.8233C1.95103 14.185 2.23721 13.5488 2.54883 12.9272C2.9198 12.1884 3.31198 11.4602 3.71687 10.7402C4.08149 10.0915 4.46306 9.45109 4.85948 8.82116C5.24953 8.20379 5.65866 7.59689 6.07416 6.99626C6.63168 6.19054 7.24008 5.42458 7.88876 4.69002C8.63071 3.84872 9.43413 3.06811 10.3308 2.38587C11.0071 1.87104 11.7278 1.43156 12.5122 1.09671C13.2584 0.778611 14.0321 0.577704 14.844 0.517014C15.304 0.483529 15.7598 0.508643 16.2177 0.569333C17.2458 0.705364 18.187 1.07788 19.0774 1.58852C20.2751 2.27704 21.299 3.17275 22.2402 4.16682C22.9631 4.92859 23.6224 5.74059 24.2414 6.58398C24.9324 7.52573 25.5705 8.50097 26.1704 9.50132C26.6622 10.3175 27.1307 11.1462 27.578 11.9875C28.002 12.787 28.4005 13.5969 28.7651 14.4235C29.1128 15.2146 29.4308 16.0182 29.7042 16.8386C29.9692 17.636 30.1918 18.4459 30.3466 19.2704C30.495 20.0531 30.5861 20.8442 30.5797 21.6415C30.5755 22.5247 30.461 23.3911 30.1812 24.2345C29.9268 25.0025 29.5495 25.7057 29.0407 26.3398C28.2839 27.2837 27.3321 27.9868 26.2574 28.5352C25.2949 29.027 24.2774 29.3764 23.2302 29.6485C22.2466 29.9038 21.246 30.0796 20.2391 30.2073C19.3424 30.3203 18.4435 30.3998 17.5384 30.4291C16.7858 30.4521 16.0354 30.4773 15.2828 30.5024V30.5003ZM15.3507 4.31959C8.06894 4.33843 2.24993 10.1564 2.25841 17.2781C2.269 24.3935 8.11134 30.1759 15.3337 30.1926C22.573 30.2094 28.568 24.3873 28.462 17.0563C28.3624 10.0538 22.5942 4.33215 15.3507 4.31959Z" fill="white"/>
<path d="M146.132 18.1904C145.644 18.1067 145.216 18.0062 144.783 17.9623C143.09 17.7907 141.394 17.6379 139.698 17.4788C139.297 17.4412 139.161 17.5144 139.064 17.9037C138.983 18.2197 138.926 18.5482 138.918 18.8747C138.896 19.6218 138.913 20.3711 138.907 21.1203C138.905 21.3568 138.896 21.5953 138.852 21.8255C138.791 22.1541 138.612 22.2943 138.278 22.3173C138.146 22.3257 138.01 22.3299 137.879 22.3153C137.298 22.2504 136.719 22.1792 136.096 22.1039C136.086 21.9679 136.062 21.8297 136.062 21.6916C136.041 18.7743 136.024 15.859 136.005 12.9417C135.999 12.0878 135.988 11.234 135.982 10.3801C135.982 10.265 135.994 10.1499 136.003 10.0118C136.16 10.0055 136.289 9.99715 136.418 9.99296C139.651 9.90088 142.882 9.81089 146.115 9.7209C146.339 9.71462 146.566 9.72927 146.793 9.73346C147.054 9.73764 147.217 9.86949 147.287 10.1123C147.425 10.5915 147.569 11.0687 147.688 11.5542C147.936 12.5692 148.006 13.6051 148.014 14.6431C148.031 16.7715 148.039 18.8998 148.054 21.0282C148.056 21.3861 148.037 21.7418 147.847 22.0578C147.73 22.2525 147.586 22.4241 147.331 22.4492C146.982 22.4848 146.742 22.3655 146.63 22.0076C146.481 21.5326 146.369 21.0449 146.263 20.5573C146.1 19.7976 146.028 19.0275 146.134 18.1904H146.132ZM137.61 14.4192C137.82 14.4192 137.962 14.4192 138.104 14.4192C139.113 14.4317 140.122 14.4276 141.131 14.4631C142.125 14.4987 143.119 14.5824 144.113 14.6264C144.347 14.6368 144.593 14.595 144.817 14.5259C145.076 14.4464 145.286 14.2727 145.364 13.9965C145.426 13.7788 145.322 12.7617 145.222 12.5336C145.209 12.5294 145.197 12.5231 145.184 12.5231C142.89 12.408 140.597 12.2929 138.301 12.182C137.966 12.1653 137.828 12.2678 137.788 12.5964C137.716 13.1803 137.673 13.7683 137.612 14.4192H137.61Z" fill="white"/>
<path d="M120.78 11.1899C120.757 11.9392 121.134 12.5314 121.471 13.1425C121.698 13.5569 121.878 13.9964 122.071 14.4275C122.118 14.5342 122.143 14.6535 122.16 14.7686C122.209 15.0846 122.154 15.1809 121.825 15.2185C121.297 15.2813 120.765 15.3274 120.235 15.3546C119.256 15.4069 118.79 15.7962 118.612 16.7567C118.563 17.0204 118.419 17.2067 118.166 17.2548C117.844 17.3155 117.509 17.3595 117.183 17.3511C115.919 17.3176 114.656 17.259 113.393 17.2109C113.329 17.2088 113.263 17.2213 113.164 17.2318C113.028 17.9182 112.986 18.6005 113.013 19.3309C113.197 19.3497 113.352 19.379 113.507 19.3811C115.144 19.3874 116.782 19.4041 118.419 19.3811C119.43 19.3664 120.439 19.2848 121.448 19.2409C121.847 19.2241 122.247 19.2137 122.646 19.2241C122.779 19.2283 122.966 19.2681 123.034 19.3602C123.148 19.5129 122.983 19.6531 122.887 19.7682C122.737 19.9524 122.563 20.1157 122.406 20.2935C122.084 20.6598 121.747 21.0176 121.45 21.4027C121.278 21.6266 121.098 21.7187 120.816 21.7187C119.18 21.7187 117.541 21.7313 115.905 21.7438C115.385 21.748 114.866 21.7585 114.349 21.792C114.094 21.8087 113.88 21.7417 113.67 21.6162C112.856 21.1286 112.14 20.5237 111.5 19.8331C111.239 19.5527 110.991 19.2597 110.726 18.9814C110.571 18.8202 110.493 18.6465 110.493 18.4184C110.493 17.6817 110.459 16.9472 110.473 16.2105C110.497 15.0155 110.698 13.8561 111.275 12.7867C111.512 12.3473 111.779 11.9224 112.032 11.4892C112.135 11.3113 112.301 11.2485 112.498 11.2402C112.99 11.2192 113.482 11.1816 113.973 11.1774C116.129 11.1669 118.287 11.1648 120.443 11.1606C120.547 11.1606 120.649 11.1732 120.78 11.1837V11.1899ZM112.426 15.5366C112.595 15.5513 112.71 15.568 112.827 15.568C114.156 15.5659 115.487 15.5722 116.816 15.5513C117.492 15.5408 118.171 15.499 118.843 15.4257C119.08 15.4006 119.315 15.2625 119.527 15.1369C119.767 14.9925 119.835 14.7539 119.775 14.4819C119.718 14.2161 119.536 14.0759 119.284 14.0257C119.05 13.9796 118.811 13.9378 118.573 13.9336C116.965 13.9085 115.356 13.8896 113.749 13.8792C113.471 13.8792 113.191 13.9147 112.913 13.9378C112.687 13.9566 112.534 14.0717 112.513 14.3019C112.477 14.7037 112.456 15.1055 112.428 15.5366H112.426Z" fill="white"/>
<path d="M65.7146 17.2361C65.6213 17.9183 65.5365 18.588 65.5725 19.3142C65.7485 19.3393 65.9138 19.3812 66.0792 19.3812C67.5037 19.3916 68.9262 19.4209 70.3507 19.3937C71.7604 19.3665 73.168 19.2786 74.5756 19.22C74.7876 19.2117 75.0017 19.2054 75.2137 19.22C75.3493 19.2305 75.4829 19.2828 75.6165 19.3163C75.6249 19.58 75.4871 19.7286 75.3599 19.8751C74.8724 20.4317 74.3742 20.9759 73.8972 21.5409C73.7531 21.7104 73.5899 21.7188 73.4012 21.7209C72.1759 21.7251 70.9528 21.7251 69.7275 21.7376C68.782 21.7481 67.8387 21.769 66.8932 21.8004C66.6388 21.8088 66.4269 21.746 66.217 21.6184C65.4517 21.1538 64.7691 20.5929 64.1586 19.9462C63.8597 19.6302 63.5608 19.31 63.2831 18.9752C63.1813 18.8517 63.0881 18.678 63.0817 18.5252C63.0351 17.3323 62.963 16.1374 63.1432 14.9466C63.2831 14.0237 63.5778 13.1635 64.078 12.3704C64.2328 12.1255 64.3791 11.8765 64.5105 11.617C64.6292 11.3805 64.8052 11.2549 65.0723 11.2465C65.6171 11.2277 66.1619 11.1879 66.7067 11.1838C68.8499 11.1712 70.9909 11.1691 73.1341 11.1649C73.1871 11.1649 73.238 11.1733 73.2931 11.1775C73.3122 11.2172 73.344 11.2528 73.344 11.2884C73.3291 11.9539 73.6747 12.4896 73.9778 13.0442C74.2046 13.4607 74.4442 13.8772 74.5926 14.3229C74.9084 15.271 74.6922 15.2103 73.9757 15.271C73.5241 15.3086 73.0747 15.3379 72.6232 15.3693C71.8728 15.4195 71.3555 15.8569 71.1987 16.5768C71.0757 17.1461 70.9485 17.2675 70.3677 17.3449C70.1981 17.3679 70.0221 17.3637 69.8504 17.3575C68.5615 17.3135 67.2706 17.2633 65.9817 17.2172C65.9054 17.2151 65.8269 17.2277 65.7167 17.2361H65.7146ZM64.962 15.5263C65.1359 15.5451 65.227 15.5639 65.3182 15.5639C66.7682 15.5598 68.2181 15.5577 69.6681 15.543C70.1472 15.5388 70.6263 15.5095 71.1033 15.4802C71.4679 15.4572 71.8155 15.3735 72.0996 15.1265C72.2883 14.9633 72.4133 14.7666 72.3455 14.5029C72.2777 14.235 72.1017 14.0676 71.8261 14.0195C71.5781 13.9755 71.3259 13.9337 71.0757 13.9295C69.5325 13.9044 67.9913 13.8855 66.4481 13.8751C66.1428 13.873 65.8375 13.9023 65.5323 13.9295C65.2376 13.9567 65.1083 14.0425 65.0659 14.325C65.0065 14.7101 64.9981 15.1014 64.9641 15.5263H64.962Z" fill="white"/>
<path d="M101.186 15.6937C101.21 16.2713 101.235 16.807 101.252 17.3428C101.288 18.4185 101.328 19.4942 101.347 20.5719C101.352 20.844 101.29 21.1182 101.244 21.3881C101.205 21.6121 101.059 21.7272 100.824 21.7251C100.478 21.7209 100.131 21.7355 99.7872 21.7209C99.3188 21.6979 99.0199 21.4614 98.9223 20.9947C98.8312 20.5594 98.7633 20.1136 98.7337 19.67C98.6213 17.9664 98.5217 16.2629 98.4284 14.5573C98.3648 13.377 98.3245 12.1945 98.2652 11.0142C98.2525 10.7652 98.1995 10.5203 98.174 10.2713C98.1465 10.0055 98.2037 9.90504 98.456 9.90085C99.4777 9.88621 100.504 9.80668 101.521 9.99712C101.636 10.0181 101.757 10.0578 101.854 10.1185C102.081 10.2566 102.098 10.4701 101.894 10.6333C101.761 10.7401 101.606 10.8217 101.456 10.9033C101.233 11.0226 101.129 11.2026 101.14 11.4495C101.167 11.9874 101.186 12.5252 101.222 13.063C101.241 13.3288 101.294 13.3665 101.587 13.3456C102.236 13.2995 102.886 13.243 103.535 13.1907C103.575 13.1865 103.614 13.1823 103.654 13.1761C104.519 13.0275 105.261 13.243 105.859 13.8939C106.367 14.4485 106.889 14.9926 107.376 15.5618C107.758 16.0076 108.01 16.535 108.201 17.0833C108.606 18.2364 108.99 19.3979 109.38 20.5552C109.422 20.6787 109.45 20.8084 109.475 20.9382C109.553 21.3484 109.433 21.5639 109.019 21.6727C108.674 21.7627 108.318 21.8151 107.964 21.8799C107.86 21.8988 107.747 21.8883 107.648 21.9176C107.236 22.0369 107.222 21.9406 107.056 21.6037C106.554 20.5887 106.126 19.5444 105.759 18.4708C105.452 17.5646 104.896 16.7903 104.271 16.0641C103.951 15.6937 103.548 15.5221 103.075 15.5451C102.467 15.5723 101.858 15.6393 101.182 15.6937H101.186Z" fill="white"/>
<path d="M84.1086 22.2525C83.3497 22.2525 82.5908 22.265 81.8319 22.2441C81.6156 22.2378 81.374 22.1855 81.1938 22.0746C80.3713 21.5639 79.5721 21.0198 78.7559 20.5008C77.8444 19.9211 77.2127 19.1028 76.6806 18.1966C76.6064 18.069 76.5704 17.8974 76.5789 17.7488C76.6573 16.2399 76.7336 14.731 76.846 13.2242C76.8756 12.8245 77.024 12.4331 77.1279 12.0397C77.1936 11.7927 77.3738 11.6504 77.6261 11.6693C78.0479 11.6986 78.4719 11.7404 78.8874 11.8199C79.199 11.8806 79.3622 12.1192 79.3368 12.431C79.3092 12.7952 79.2817 13.1677 79.1863 13.5193C78.9001 14.5699 78.8153 15.6393 78.7793 16.717C78.7644 17.1461 78.898 17.5144 79.1608 17.8492C79.5339 18.3222 80.0257 18.6633 80.4879 19.0379C81.2341 19.6428 82.0968 19.8813 83.0423 19.8855C83.3476 19.8855 83.655 19.896 83.9602 19.8897C84.1065 19.8876 84.2527 19.8709 84.3948 19.8395C84.859 19.7411 85.1431 19.4691 85.2258 18.9982C85.3699 18.1883 85.3848 17.3763 85.2618 16.5643C85.0922 15.4467 85.1134 14.3376 85.3848 13.2368C85.4505 12.971 85.5459 12.7073 85.6519 12.4541C85.7706 12.1736 85.9974 12.0292 86.3111 12.0313C86.4044 12.0313 86.4977 12.0292 86.591 12.0313C87.0255 12.0502 87.1951 12.1527 87.3096 12.5754C87.4961 13.2723 87.6806 13.9755 87.8014 14.685C87.9879 15.7711 88.1173 16.8677 88.2826 17.9581C88.3504 18.4101 88.2996 18.8517 88.1978 19.287C88.0028 20.1199 87.7314 20.9298 87.3753 21.7125C87.2078 22.0829 86.9492 22.2629 86.5422 22.2608C85.7303 22.2566 84.9184 22.2608 84.1065 22.2608C84.1065 22.2566 84.1065 22.2525 84.1065 22.2483L84.1086 22.2525Z" fill="white"/>
<path d="M45.0396 16.9389V19.0945C45.1371 19.107 45.2389 19.1279 45.3385 19.1321C46.1907 19.1593 47.0429 19.1656 47.8929 19.2137C49.2899 19.2912 50.6763 19.4481 52.0394 19.7746C52.3234 19.8416 52.5969 19.9483 52.8704 20.0509C53.1417 20.1534 53.2965 20.3417 53.2901 20.6515C53.2795 21.2416 53.288 21.8318 53.288 22.4722C53.2074 22.4931 53.0993 22.5371 52.987 22.5454C52.351 22.5936 51.7129 22.6585 51.077 22.6731C48.9741 22.7212 46.8712 22.7484 44.7683 22.784C44.6368 22.7861 44.5033 22.784 44.3252 22.784C44.109 22.2901 43.861 21.8088 43.685 21.3044C43.3056 20.2225 43.0703 19.1028 42.9579 17.9623C42.9049 17.4265 43.0067 16.9535 43.3798 16.535C43.6384 16.2462 43.7783 15.8883 43.8652 15.5095C44.0539 14.708 44.2171 14.5573 45.0481 14.5071C46.6571 14.4108 48.266 14.3815 49.8771 14.4715C50.2439 14.4924 50.4559 14.6473 50.5512 14.9654C50.6466 15.2919 50.7399 15.6246 50.7717 15.9616C50.8226 16.5078 50.5534 16.8363 50.0064 16.9326C49.733 16.9807 49.451 17.0038 49.1733 16.9996C47.9481 16.987 46.7249 16.9598 45.4996 16.9389C45.3682 16.9368 45.2368 16.9389 45.0417 16.9389H45.0396Z" fill="white"/>
<path d="M92.2596 15.1537C91.861 15.1034 91.5324 15.0637 91.2039 15.0197C90.7227 14.9548 90.2605 14.8209 89.8747 14.5258C89.6712 14.3689 89.4762 14.1701 89.3511 13.9503C89.1455 13.5841 89.3257 13.1906 89.7327 13.0755C89.9298 13.0211 90.1545 13.0148 90.358 13.042C90.6463 13.0818 90.9283 13.1676 91.2102 13.2409C91.6003 13.3413 91.8483 13.3685 91.8335 12.747C91.8229 12.251 91.7317 11.755 91.6702 11.2611C91.6215 10.8614 91.4794 10.4993 91.2187 10.1833C91.1551 10.108 91.1127 10.0138 91.0428 9.89869C91.1339 9.88614 91.1848 9.86939 91.2314 9.87358C92.0794 9.94264 92.9294 10.0075 93.7753 10.0891C94.231 10.1331 94.2543 10.1645 94.3158 10.6123C94.4324 11.4704 94.5448 12.3305 94.6592 13.1885C94.6698 13.2639 94.6953 13.3392 94.7228 13.4501C94.9645 13.4501 95.2019 13.4501 95.4372 13.4501C95.6768 13.4501 95.9163 13.448 96.1559 13.4606C96.442 13.4773 96.6667 13.5987 96.7727 13.8813C96.9063 14.2391 97.0441 14.5928 97.1692 14.9528C97.2073 15.0616 97.2158 15.1809 97.2433 15.319C96.8385 15.4906 96.4251 15.4718 96.0181 15.4969C95.6238 15.522 95.2274 15.5366 94.8288 15.5555C94.8288 15.9719 94.814 16.3507 94.8331 16.7295C94.8649 17.3469 94.9179 17.9622 94.9624 18.5775C94.9709 18.6821 94.9899 18.7867 94.9984 18.8893C95.0366 19.3602 95.3164 19.6197 95.7552 19.7452C96.0753 19.8352 96.3996 19.9085 96.7134 20.0131C97.0483 20.1261 97.078 20.2224 96.9275 20.5426C96.7961 20.823 96.6095 21.0511 96.3382 21.2164C96.0562 21.3881 95.7743 21.5638 95.5199 21.7731C95.2719 21.9782 94.9963 22.0975 94.6868 22.1038C94.0487 22.1184 93.4106 22.108 92.7344 22.108C92.5309 21.681 92.444 21.2018 92.4249 20.7226C92.3528 19.0169 92.3104 17.3113 92.2574 15.6036C92.2532 15.4634 92.2574 15.3211 92.2574 15.1453L92.2596 15.1537Z" fill="white"/>
<path d="M149.184 9.11391C149.273 9.10345 149.362 9.08252 149.451 9.08252C150.104 9.08252 150.755 9.08252 151.408 9.0888C152.186 9.09717 152.491 9.2918 152.726 10.0368C153.133 11.3302 153.443 12.6507 153.53 14.0068C153.625 15.4885 153.685 16.9723 153.772 18.454C153.801 18.9521 153.861 19.4481 153.92 19.944C153.967 20.3375 154.13 20.6598 154.469 20.9088C154.626 21.0239 154.74 21.229 154.817 21.4174C154.916 21.658 154.978 21.9196 155.02 22.177C155.063 22.4386 154.978 22.5328 154.706 22.5768C154.575 22.5977 154.441 22.6061 154.308 22.6061C153.15 22.5977 151.993 22.583 150.836 22.5789C150.64 22.5789 150.524 22.4993 150.503 22.3173C150.456 21.9154 150.348 21.5011 150.399 21.1097C150.736 18.5816 150.609 16.0452 150.551 13.5129C150.53 12.5461 150.342 11.5834 150.212 10.6207C150.13 10.0096 149.805 9.54921 149.25 9.25413C149.216 9.23529 149.184 9.21018 149.152 9.18925C149.161 9.16414 149.171 9.14112 149.18 9.116L149.184 9.11391Z" fill="white"/>
<path d="M124.013 12.1924H132.685C132.685 12.2321 132.704 12.2991 132.683 12.3493C132.497 12.7972 132.492 13.2702 132.473 13.7431C132.467 13.875 132.456 14.0047 132.442 14.1366C132.405 14.4358 132.327 14.5384 132.018 14.5509C131.702 14.5656 131.379 14.5447 131.066 14.507C130.538 14.4442 130.016 14.3228 129.489 14.2873C129.001 14.2538 128.507 14.2873 128.015 14.3103C127.846 14.3166 127.674 14.3626 127.509 14.4107C127.195 14.5028 127.091 14.6242 127.089 14.9465C127.087 15.273 127.102 15.6036 127.136 15.928C127.212 16.6981 127.354 17.4662 127.375 18.2384C127.394 18.9688 127.331 19.7076 127.235 20.4337C127.14 21.1641 127.023 21.2416 126.29 21.2771C125.813 21.3002 125.331 21.2981 124.855 21.2813C124.418 21.2667 124.25 21.1139 124.219 20.6828C124.17 20.0026 124.138 19.3204 124.123 18.6361C124.081 16.6395 124.049 14.6451 124.015 12.6486C124.013 12.5209 124.015 12.3933 124.015 12.1924H124.013Z" fill="white"/>
<path d="M57.5298 22.0599C56.9447 22.041 56.3597 22.0243 55.7746 22.0055C55.4227 21.995 55.4248 21.9929 55.2976 21.6581C55.0814 21.0951 55.0729 20.4987 55.039 19.9106C54.9457 18.2992 54.897 16.6835 54.8058 15.0721C54.7146 13.4732 54.6341 11.8722 54.3076 10.2964C54.2334 9.9385 54.2822 9.87362 54.6638 9.88408C55.0347 9.89455 55.4057 9.93012 55.7767 9.96361C56.2219 10.0034 56.5144 10.2671 56.6692 10.6563C56.8324 11.0707 56.9914 11.4955 57.0719 11.9308C57.197 12.6005 57.286 13.2807 57.3306 13.9608C57.4217 15.3232 57.4705 16.6877 57.5383 18.0522C57.5659 18.6298 57.5849 19.2074 57.6231 19.7829C57.6464 20.1387 57.7058 20.1889 58.0725 20.1596C58.4032 20.1324 58.7339 20.0948 59.0625 20.0424C60.0079 19.8897 60.8813 20.1513 61.742 20.4861C61.7907 20.5049 61.8395 20.5301 61.8819 20.5614C62.043 20.6745 62.0494 20.7854 61.8777 20.8984C61.7123 21.0072 61.5342 21.1014 61.3519 21.1746C60.8919 21.3567 60.4574 21.5744 60.0715 21.8862C59.8553 22.062 59.5988 22.1206 59.3275 22.1227C58.7297 22.1248 58.1319 22.1227 57.5341 22.1227C57.5341 22.1017 57.5341 22.0808 57.5341 22.0599H57.5298Z" fill="white"/>
<path d="M43.5346 13.3518C43.276 13.2388 43.2654 13.0526 43.3248 12.881C43.5071 12.3557 43.4732 11.8157 43.4583 11.28C43.4477 10.8886 43.3841 10.4973 43.3417 10.108C43.3311 10.0055 43.312 9.90502 43.293 9.77945C43.3735 9.7669 43.435 9.74387 43.4944 9.74806C44.196 9.79829 44.8977 9.86944 45.5994 9.90083C47.2211 9.97199 48.8428 10.018 50.4623 10.085C50.8333 10.0996 51.2043 10.1499 51.5731 10.198C51.7109 10.2148 51.8445 10.2713 52.0395 10.3278C51.6113 10.6982 51.73 11.1209 51.783 11.5311C51.8085 11.7383 51.8657 11.9434 51.8869 12.1527C51.9208 12.4624 51.8169 12.5921 51.5074 12.6403C51.376 12.6612 51.2424 12.6633 51.1089 12.6612C48.9678 12.6361 46.8268 12.6068 44.6878 12.5796C44.4886 12.5775 44.2893 12.5628 44.09 12.567C43.8187 12.5754 43.7509 12.6298 43.6639 12.8914C43.6173 13.0358 43.5813 13.1823 43.5346 13.3539V13.3518Z" fill="white"/>
<path d="M15.1942 7.15295C16.3665 7.15295 17.2992 7.19062 18.2277 7.27015C18.8594 7.32456 19.489 7.40618 20.1144 7.5171C20.7164 7.62383 21.31 7.75777 21.8951 7.92938C22.5035 8.10935 23.0949 8.33747 23.6588 8.62836C24.5831 9.10552 25.3801 9.72707 25.9652 10.5893C26.3531 11.1606 26.6097 11.7885 26.7453 12.4623C26.8492 12.9793 26.9022 13.5024 26.8831 14.0298C26.8619 14.6033 26.7898 15.1725 26.6754 15.7375C26.5079 16.5621 26.2556 17.3615 25.9589 18.1484C25.7129 18.7993 25.4331 19.4355 25.13 20.0612C24.7145 20.9234 24.2566 21.7626 23.7712 22.5893C23.1182 23.6985 22.4102 24.7742 21.6068 25.785C21.0726 26.4568 20.5002 27.0951 19.8579 27.6727C19.2559 28.2126 18.6072 28.6918 17.8801 29.0581C16.907 29.5478 15.881 29.7717 14.7893 29.6336C14.1597 29.5541 13.564 29.3573 12.9959 29.0748C12.2561 28.7086 11.5989 28.2272 10.9905 27.6789C10.0959 26.8711 9.33066 25.9524 8.62475 24.9834C7.96335 24.0731 7.36767 23.123 6.81227 22.1477C6.19963 21.072 5.63363 19.9712 5.15454 18.8307C4.8196 18.0312 4.52706 17.2192 4.31295 16.3821C4.06493 15.4111 3.9123 14.4254 3.96953 13.4187C4.00981 12.7156 4.15184 12.0333 4.4359 11.3846C4.7454 10.6835 5.19693 10.0849 5.77354 9.57849C6.3035 9.11389 6.9013 8.75184 7.5415 8.45676C8.43184 8.04657 9.36882 7.78497 10.3291 7.59244C10.9842 7.46059 11.6477 7.36851 12.3133 7.30363C13.3499 7.20109 14.3887 7.16342 15.1921 7.15714L15.1942 7.15295ZM15.4062 26.7184C20.8691 26.7184 25.2296 22.3863 25.2381 17.056C25.2487 11.6106 20.8161 7.33293 15.4359 7.33503C9.85639 7.33503 5.59759 11.7843 5.60395 17.0267C5.61031 22.4554 10.062 26.7184 15.4062 26.7204V26.7184Z" fill="white"/>
<path d="M15.6754 24.3472C14.9207 24.3535 14.1533 24.3159 13.3902 24.2489C12.415 24.161 11.4526 24.0082 10.5156 23.7236C9.67406 23.4683 8.87911 23.1146 8.19652 22.5537C7.67291 22.1226 7.27438 21.6036 7.02211 20.9737C6.75925 20.3186 6.6893 19.6385 6.72957 18.9437C6.77197 18.2112 6.93944 17.5039 7.16415 16.8091C7.39945 16.0829 7.70259 15.3818 8.04177 14.6974C8.42546 13.9273 8.84943 13.1781 9.31156 12.4498C9.68678 11.8575 10.0853 11.2799 10.5241 10.7295C11.0795 10.0285 11.6879 9.3776 12.4066 8.83347C12.8899 8.46724 13.4071 8.16378 13.9859 7.96706C14.4755 7.79964 14.978 7.70965 15.4952 7.73686C16.0103 7.76406 16.5064 7.88754 16.9812 8.09263C17.6596 8.38562 18.2531 8.80417 18.8001 9.29179C19.3894 9.81708 19.9109 10.4031 20.3921 11.0246C21.2315 12.1087 21.9544 13.2618 22.5904 14.4714C22.8405 14.9465 23.0758 15.4278 23.2942 15.9175C23.6418 16.696 23.9174 17.4997 24.0722 18.3368C24.2099 19.0755 24.2545 19.8206 24.087 20.5635C23.9492 21.1725 23.6863 21.7187 23.273 22.1938C22.7748 22.7651 22.1516 23.1606 21.4562 23.4578C20.4557 23.8868 19.4 24.094 18.3252 24.2154C17.4497 24.3138 16.5721 24.3535 15.6796 24.3472H15.6754Z" fill="white"/>
</g>
<defs>
<clipPath id="clip0_254_139349">
<rect width="155" height="30" fill="white" transform="translate(0.0307617 0.5)"/>
</clipPath>
</defs>
</svg>
