<svg width="596" height="362" viewBox="0 0 596 362" fill="none" xmlns="http://www.w3.org/2000/svg">
<rect x="1.38379" y="361" width="360" height="56.5337" rx="11.3104" transform="rotate(-90 1.38379 361)" fill="#E5E5E5"/>
<rect x="1.38379" y="361" width="360" height="56.5337" rx="11.3104" transform="rotate(-90 1.38379 361)" stroke="#171717"/>
<path d="M34.1506 227.953L34.1506 229.397L25.2326 229.397L25.2326 225.564C25.2326 223.929 26.293 222.97 27.9157 222.97C29.5383 222.97 30.5987 223.929 30.5987 225.564L30.5987 227.953L34.1506 227.953ZM26.4975 227.953L29.3339 227.953L29.3339 225.653C29.3339 224.925 28.9378 224.491 28.2223 224.491L27.609 224.491C26.8935 224.491 26.4975 224.925 26.4975 225.653L26.4975 227.953ZM30.5476 219.176L34.1506 219.176L34.1506 220.62L25.2326 220.62L25.2326 216.774C25.2326 215.177 26.2675 214.193 27.9157 214.193C29.1805 214.193 30.0621 214.794 30.3943 215.931L34.1506 214.002L34.1506 215.612L30.5476 217.4L30.5476 219.176ZM29.3339 219.176L29.3339 216.877C29.3339 216.148 28.9378 215.714 28.2223 215.714L27.609 215.714C26.8935 215.714 26.4975 216.148 26.4975 216.877L26.4975 219.176L29.3339 219.176ZM34.1506 205.77L34.1506 211.481L25.2326 211.481L25.2326 205.77L26.5102 205.77L26.5102 210.038L28.9889 210.038L28.9889 206.166L30.2666 206.166L30.2666 210.038L32.873 210.038L32.873 205.77L34.1506 205.77ZM30.9693 199.909L30.9693 203.448L29.5511 203.448L29.5511 199.909L30.9693 199.909ZM34.1506 195.992L26.5102 195.992L26.5102 198.65L25.2326 198.65L25.2326 191.891L26.5102 191.891L26.5102 194.549L34.1506 194.549L34.1506 195.992ZM30.5476 188.273L34.1506 188.273L34.1506 189.717L25.2326 189.717L25.2326 185.871C25.2326 184.274 26.2675 183.291 27.9157 183.291C29.1805 183.291 30.0621 183.891 30.3943 185.028L34.1506 183.099L34.1506 184.709L30.5476 186.498L30.5476 188.273ZM29.3339 188.273L29.3339 185.974C29.3339 185.245 28.9378 184.811 28.2223 184.811L27.609 184.811C26.8935 184.811 26.4975 185.245 26.4975 185.974L26.4975 188.273L29.3339 188.273ZM34.1506 173.5L34.1506 175.008L31.7359 175.813L31.7359 179.147L34.1506 179.927L34.1506 181.396L25.2326 178.355L25.2326 176.541L34.1506 173.5ZM30.4965 176.171L26.5613 177.448L26.5613 177.512L30.4965 178.803L30.4965 176.171ZM34.1506 167.852L34.1506 171.736L32.9752 171.736L32.9752 170.522L26.408 170.522L26.408 171.736L25.2326 171.736L25.2326 167.852L26.408 167.852L26.408 169.078L32.9752 169.078L32.9752 167.852L34.1506 167.852ZM34.1506 159.955L29.2189 162.869L27.3279 163.852L27.3279 163.891L34.1506 163.891L34.1506 165.271L25.2326 165.271L25.2326 163.661L30.1643 160.748L32.0553 159.764L32.0553 159.725L25.2326 159.725L25.2326 158.346L34.1506 158.346L34.1506 159.955ZM34.1506 151.882L34.1506 155.766L32.9752 155.766L32.9752 154.553L26.408 154.553L26.408 155.766L25.2326 155.766L25.2326 151.882L26.408 151.882L26.408 153.109L32.9752 153.109L32.9752 151.882L34.1506 151.882ZM34.1506 143.986L29.2189 146.899L27.3279 147.883L27.3279 147.921L34.1506 147.921L34.1506 149.301L25.2326 149.301L25.2326 147.691L30.1643 144.778L32.0553 143.795L32.0553 143.756L25.2326 143.756L25.2326 142.376L34.1506 142.376L34.1506 143.986ZM34.1506 133.677L32.7963 133.677L32.7963 133.728C33.6523 133.907 34.304 134.776 34.304 136.13C34.304 138.251 32.6813 139.81 29.6916 139.81C26.7147 139.81 25.0793 138.251 25.0793 135.913C25.0793 134.316 25.8331 133.205 27.0852 132.591L27.7751 133.767C26.9446 134.112 26.3697 134.827 26.3697 135.913C26.3697 137.319 27.3279 138.264 28.9633 138.264L30.4199 138.264C32.0553 138.264 33.0135 137.319 33.0135 135.913C33.0135 134.789 32.4386 133.805 31.327 133.805L30.6371 133.805L30.6371 135.645L29.3977 135.645L29.3977 132.412L34.1506 132.412L34.1506 133.677Z" fill="#171717"/>
<path d="M84.5516 180.718C84.7075 180.874 84.7075 181.126 84.5516 181.282L82.0107 183.823C81.8548 183.979 81.602 183.979 81.446 183.823C81.2901 183.667 81.2901 183.415 81.446 183.259L83.7046 181L81.446 178.741C81.2901 178.585 81.2901 178.333 81.446 178.177C81.602 178.021 81.8548 178.021 82.0107 178.177L84.5516 180.718ZM67.5 180.601L84.2693 180.601L84.2693 181.399L67.5 181.399L67.5 180.601Z" fill="black"/>
<rect x="91.7693" y="1.5" width="413" height="359" rx="19.5" fill="#F5F5F5"/>
<rect x="91.7693" y="1.5" width="413" height="359" rx="19.5" stroke="#171717"/>
<path d="M247.277 34H245.833L245.833 25.0819H249.666C251.302 25.0819 252.26 26.1424 252.26 27.765C252.26 29.3877 251.302 30.4481 249.666 30.4481H247.277L247.277 34ZM247.277 26.3468L247.277 29.1832H249.577C250.305 29.1832 250.739 28.7872 250.739 28.0717L250.739 27.4584C250.739 26.7429 250.305 26.3468 249.577 26.3468H247.277ZM258.06 34.1533C255.734 34.1533 254.214 32.5435 254.214 29.541C254.214 26.5385 255.734 24.9286 258.06 24.9286C260.385 24.9286 261.906 26.5385 261.906 29.541C261.906 32.5435 260.385 34.1533 258.06 34.1533ZM258.06 32.8629C259.44 32.8629 260.36 31.8663 260.36 30.2437L260.36 28.8383C260.36 27.2156 259.44 26.2191 258.06 26.2191C256.68 26.2191 255.76 27.2156 255.76 28.8383L255.76 30.2437C255.76 31.8663 256.68 32.8629 258.06 32.8629ZM267.118 34.1533C265.623 34.1533 264.601 33.5656 263.86 32.6457L264.856 31.713C265.482 32.4796 266.224 32.8757 267.195 32.8757C268.332 32.8757 268.919 32.3135 268.919 31.4575C268.919 30.7675 268.562 30.3715 267.527 30.167L266.735 30.0265C265.01 29.7071 264.128 28.9021 264.128 27.4839C264.128 25.8996 265.355 24.9286 267.246 24.9286C268.587 24.9286 269.571 25.4141 270.261 26.2957L269.252 27.1901C268.792 26.5896 268.153 26.2063 267.169 26.2063C266.147 26.2063 265.559 26.6279 265.559 27.4073C265.559 28.1483 266.019 28.4677 266.977 28.6594L267.769 28.8255C269.545 29.1705 270.35 29.9626 270.35 31.3808C270.35 33.0418 269.162 34.1533 267.118 34.1533ZM274.503 34L274.503 26.3596H271.846L271.846 25.0819H278.605L278.605 26.3596H275.947L275.947 34H274.503ZM283.4 30.8186H279.861L279.861 29.4004H283.4L283.4 30.8186ZM287.316 34L287.316 26.3596H284.658L284.658 25.0819H291.417L291.417 26.3596H288.76L288.76 34H287.316ZM295.035 30.397L295.035 34H293.591L293.591 25.0819H297.437C299.034 25.0819 300.018 26.1169 300.018 27.765C300.018 29.0299 299.417 29.9115 298.28 30.2437L300.209 34H298.6L296.811 30.397H295.035ZM295.035 29.1832H297.335C298.063 29.1832 298.497 28.7872 298.497 28.0717L298.497 27.4584C298.497 26.7429 298.063 26.3468 297.335 26.3468H295.035L295.035 29.1832ZM309.808 34H308.301L307.496 31.5852H304.161L303.382 34H301.912L304.953 25.0819H306.767L309.808 34ZM307.138 30.3459L305.86 26.4107H305.796L304.506 30.3459H307.138ZM315.457 34H311.573L311.573 32.8246H312.786L312.786 26.2574H311.573L311.573 25.0819H315.457L315.457 26.2574H314.23L314.23 32.8246H315.457L315.457 34ZM323.353 34L320.44 29.0682L319.456 27.1773H319.418L319.418 34H318.038L318.038 25.0819H319.648L322.561 30.0137L323.545 31.9046H323.583L323.583 25.0819L324.963 25.0819L324.963 34H323.353ZM331.426 34H327.542L327.542 32.8246H328.756L328.756 26.2574H327.542L327.542 25.0819H331.426L331.426 26.2574H330.199L330.199 32.8246H331.426L331.426 34ZM339.322 34L336.409 29.0682L335.425 27.1773H335.387L335.387 34H334.007L334.007 25.0819H335.617L338.53 30.0137L339.514 31.9046H339.552L339.552 25.0819H340.932L340.932 34H339.322ZM349.631 34L349.631 32.6457H349.58C349.401 33.5017 348.532 34.1533 347.178 34.1533C345.057 34.1533 343.498 32.5307 343.498 29.541C343.498 26.564 345.057 24.9286 347.395 24.9286C348.992 24.9286 350.104 25.6824 350.717 26.9346L349.542 27.6245C349.197 26.794 348.481 26.2191 347.395 26.2191C345.99 26.2191 345.044 27.1773 345.044 28.8127L345.044 30.2692C345.044 31.9046 345.99 32.8629 347.395 32.8629C348.52 32.8629 349.503 32.2879 349.503 31.1764L349.503 30.4864H347.664L347.664 29.2471H350.896L350.896 34H349.631Z" fill="#171717"/>
<rect x="115" y="53.5" width="111" height="287" rx="11.3104" fill="#F5F5F5"/>
<rect x="115" y="53.5" width="111" height="287" rx="11.3104" stroke="#A3A3A3" stroke-dasharray="6 3"/>
<rect x="144.947" y="145.364" width="51.1063" height="51.1063" rx="15.3319" fill="#FB923C"/>
<path d="M182.794 175.872L179.124 172.23L179.766 171.588C179.944 171.409 180.045 171.166 180.045 170.913C180.045 170.66 179.944 170.417 179.766 170.237L174.017 164.488C173.837 164.309 173.594 164.209 173.341 164.209C173.088 164.209 172.845 164.309 172.665 164.488L171.908 165.245L165.431 158.738C165.251 158.56 165.008 158.46 164.755 158.46C164.502 158.46 164.259 158.56 164.08 158.738L160.247 162.571L160.132 162.715L156.299 168.465C156.176 168.648 156.12 168.869 156.141 169.089C156.162 169.309 156.258 169.515 156.414 169.672L159.288 172.547C159.377 172.636 159.483 172.708 159.6 172.756C159.717 172.805 159.842 172.83 159.969 172.83C160.095 172.83 160.22 172.805 160.337 172.756C160.454 172.708 160.56 172.636 160.649 172.547L164.75 168.436L166.753 170.439L162.153 175.029C161.975 175.208 161.875 175.451 161.875 175.704C161.875 175.957 161.975 176.2 162.153 176.38L164.07 178.296C164.159 178.387 164.265 178.459 164.381 178.508C164.498 178.557 164.624 178.583 164.75 178.584C164.926 178.582 165.099 178.533 165.249 178.44L169.398 175.948L171.736 178.296C171.915 178.475 172.158 178.575 172.411 178.575C172.665 178.575 172.908 178.475 173.087 178.296L173.729 177.625L177.361 181.295C178.08 182.015 179.056 182.419 180.073 182.419C181.09 182.419 182.065 182.015 182.784 181.295C183.504 180.576 183.908 179.601 183.908 178.584C183.908 177.566 183.504 176.591 182.784 175.872H182.794ZM164.75 165.724L159.959 170.515L158.321 168.877L161.665 163.855L164.75 160.77L170.586 166.606L168.104 169.078L164.75 165.724ZM172.416 176.265L169.695 173.543L164.904 176.418L164.195 175.709L173.375 166.519L177.773 170.918L172.416 176.265ZM181.443 179.935C181.265 180.113 181.054 180.254 180.821 180.351C180.588 180.447 180.339 180.497 180.087 180.497C179.835 180.497 179.586 180.447 179.353 180.351C179.12 180.254 178.909 180.113 178.731 179.935L175.09 176.303L177.802 173.591L181.443 177.223C181.621 177.401 181.762 177.612 181.859 177.845C181.955 178.078 182.005 178.327 182.005 178.579C182.005 178.831 181.955 179.08 181.859 179.313C181.762 179.545 181.621 179.757 181.443 179.935Z" fill="black"/>
<path d="M151.831 228.635V218.863H153.917L156.423 223.637H156.479L158.957 218.863H160.959V228.635H159.209V221.621H159.153L158.397 223.175L156.395 226.871L154.393 223.175L153.637 221.621H153.581V228.635H151.831ZM166.046 228.803C163.96 228.803 162.658 227.319 162.658 224.967C162.658 222.629 163.96 221.159 166.046 221.159C168.146 221.159 169.448 222.629 169.448 224.967C169.448 227.319 168.146 228.803 166.046 228.803ZM166.046 227.361C166.984 227.361 167.572 226.759 167.572 225.653V224.295C167.572 223.203 166.984 222.601 166.046 222.601C165.122 222.601 164.534 223.203 164.534 224.295V225.653C164.534 226.759 165.122 227.361 166.046 227.361ZM175.573 228.635V227.417H175.503C175.237 228.243 174.453 228.803 173.487 228.803C171.653 228.803 170.631 227.417 170.631 224.967C170.631 222.531 171.653 221.159 173.487 221.159C174.453 221.159 175.251 221.691 175.503 222.531H175.573V218.275H177.365V228.635H175.573ZM174.061 227.319C174.915 227.319 175.573 226.885 175.573 226.129V223.805C175.573 223.091 174.915 222.629 174.061 222.629C173.137 222.629 172.507 223.315 172.507 224.351V225.611C172.507 226.647 173.137 227.319 174.061 227.319ZM182.386 228.803C180.23 228.803 178.942 227.305 178.942 224.967C178.942 222.657 180.188 221.159 182.33 221.159C184.612 221.159 185.662 222.839 185.662 224.841V225.429H180.804V225.611C180.804 226.661 181.406 227.375 182.582 227.375C183.464 227.375 183.996 226.955 184.444 226.381L185.41 227.459C184.808 228.285 183.744 228.803 182.386 228.803ZM182.358 222.503C181.42 222.503 180.804 223.203 180.804 224.211V224.323H183.8V224.197C183.8 223.189 183.282 222.503 182.358 222.503ZM189.996 228.635H189.03C187.812 228.635 187.238 227.991 187.238 226.871V218.275H189.03V227.207H189.996V228.635ZM140.461 245.803C138.305 245.803 137.017 244.305 137.017 241.967C137.017 239.657 138.263 238.159 140.405 238.159C142.687 238.159 143.737 239.839 143.737 241.841V242.429H138.879V242.611C138.879 243.661 139.481 244.375 140.657 244.375C141.539 244.375 142.071 243.955 142.519 243.381L143.485 244.459C142.883 245.285 141.819 245.803 140.461 245.803ZM140.433 239.503C139.495 239.503 138.879 240.203 138.879 241.211V241.323H141.875V241.197C141.875 240.189 141.357 239.503 140.433 239.503ZM148.886 245.635H146.758L144.322 238.327H146.086L147.108 241.477L147.822 244.081H147.92L148.634 241.477L149.628 238.327H151.336L148.886 245.635ZM154.215 245.803C152.731 245.803 151.891 244.949 151.891 243.647C151.891 242.149 153.025 241.407 155.013 241.407H156.259V240.875C156.259 240.063 155.853 239.587 154.901 239.587C154.061 239.587 153.585 240.007 153.235 240.511L152.171 239.559C152.703 238.719 153.557 238.159 155.027 238.159C157.001 238.159 158.051 239.097 158.051 240.763V244.207H158.779V245.635H157.785C157.015 245.635 156.539 245.131 156.427 244.375H156.343C156.105 245.313 155.307 245.803 154.215 245.803ZM154.817 244.501C155.615 244.501 156.259 244.137 156.259 243.451V242.485H155.111C154.173 242.485 153.711 242.807 153.711 243.381V243.619C153.711 244.207 154.117 244.501 154.817 244.501ZM162.987 245.635H162.021C160.803 245.635 160.229 244.991 160.229 243.871V235.275H162.021V244.207H162.987V245.635ZM168.713 245.635V244.417H168.643C168.391 245.145 167.803 245.803 166.599 245.803C165.101 245.803 164.261 244.767 164.261 242.947V238.327H166.053V242.765C166.053 243.773 166.431 244.319 167.285 244.319C167.999 244.319 168.713 243.941 168.713 243.157V238.327H170.505V245.635H168.713ZM174.381 245.803C172.897 245.803 172.057 244.949 172.057 243.647C172.057 242.149 173.191 241.407 175.179 241.407H176.425V240.875C176.425 240.063 176.019 239.587 175.067 239.587C174.227 239.587 173.751 240.007 173.401 240.511L172.337 239.559C172.869 238.719 173.723 238.159 175.193 238.159C177.167 238.159 178.217 239.097 178.217 240.763V244.207H178.945V245.635H177.951C177.181 245.635 176.705 245.131 176.593 244.375H176.509C176.271 245.313 175.473 245.803 174.381 245.803ZM174.983 244.501C175.781 244.501 176.425 244.137 176.425 243.451V242.485H175.277C174.339 242.485 173.877 242.807 173.877 243.381V243.619C173.877 244.207 174.283 244.501 174.983 244.501ZM182.623 245.635C181.391 245.635 180.733 244.963 180.733 243.773V239.755H179.655V238.327H180.215C180.747 238.327 180.915 238.075 180.915 237.571V236.325H182.525V238.327H184.023V239.755H182.525V244.207H183.911V245.635H182.623ZM186.473 237.263C185.731 237.263 185.423 236.885 185.423 236.367V236.087C185.423 235.569 185.731 235.191 186.473 235.191C187.201 235.191 187.523 235.569 187.523 236.087V236.367C187.523 236.885 187.201 237.263 186.473 237.263ZM185.577 245.635V238.327H187.369V245.635H185.577ZM192.344 245.803C190.258 245.803 188.956 244.319 188.956 241.967C188.956 239.629 190.258 238.159 192.344 238.159C194.444 238.159 195.746 239.629 195.746 241.967C195.746 244.319 194.444 245.803 192.344 245.803ZM192.344 244.361C193.282 244.361 193.87 243.759 193.87 242.653V241.295C193.87 240.203 193.282 239.601 192.344 239.601C191.42 239.601 190.832 240.203 190.832 241.295V242.653C190.832 243.759 191.42 244.361 192.344 244.361ZM199.127 245.635H197.335V238.327H199.127V239.545H199.197C199.491 238.761 200.107 238.159 201.241 238.159C202.739 238.159 203.579 239.195 203.579 241.015V245.635H201.787V241.197C201.787 240.161 201.437 239.629 200.583 239.629C199.841 239.629 199.127 240.021 199.127 240.805V245.635Z" fill="#171717"/>
<rect x="241.769" y="54.5" width="240" height="85" rx="11.3104" fill="#F5F5F5"/>
<rect x="241.769" y="54.5" width="240" height="85" rx="11.3104" stroke="#A3A3A3" stroke-dasharray="6 3"/>
<path d="M303.022 71.4469H281.132C273.064 71.4469 266.524 77.9871 266.524 86.0548V107.945C266.524 116.013 273.064 122.553 281.132 122.553H303.022C311.09 122.553 317.63 116.013 317.63 107.945V86.0548C317.63 77.9871 311.09 71.4469 303.022 71.4469Z" fill="#FBBF24"/>
<rect x="277.758" y="83.278" width="11.2408" height="11.2408" stroke="#171717" stroke-width="2.04555"/>
<rect x="295.135" y="83.2781" width="11.2408" height="11.2408" stroke="#171717" stroke-width="2.04555"/>
<rect x="277.758" y="100.655" width="11.2408" height="11.2408" stroke="#171717" stroke-width="2.04555"/>
<rect x="295.135" y="100.655" width="11.2408" height="11.2408" stroke="#171717" stroke-width="2.04555"/>
<path d="M340.275 85.12C338.455 85.12 337.345 83.85 337.345 81.51C337.345 79.17 338.455 77.9 340.275 77.9C341.485 77.9 342.295 78.44 342.765 79.48L341.815 80C341.575 79.34 341.085 78.91 340.275 78.91C339.205 78.91 338.545 79.69 338.545 80.98V82.04C338.545 83.33 339.205 84.11 340.275 84.11C341.105 84.11 341.635 83.63 341.885 82.95L342.795 83.5C342.325 84.51 341.485 85.12 340.275 85.12ZM350.104 85H348.924L348.294 83.11H345.684L345.074 85H343.924L346.304 78.02H347.724L350.104 85ZM348.014 82.14L347.014 79.06H346.964L345.954 82.14H348.014ZM352.915 85H351.785V78.02H354.785C356.065 78.02 356.815 78.85 356.815 80.12C356.815 81.39 356.065 82.22 354.785 82.22H352.915V85ZM352.915 79.01V81.23H354.715C355.285 81.23 355.625 80.92 355.625 80.36V79.88C355.625 79.32 355.285 79.01 354.715 79.01H352.915ZM363.628 85H362.448L361.818 83.11H359.208L358.598 85H357.448L359.828 78.02H361.248L363.628 85ZM361.538 82.14L360.538 79.06H360.488L359.478 82.14H361.538ZM365.309 85V78.02H368.399C369.549 78.02 370.259 78.73 370.259 79.82C370.259 80.87 369.619 81.25 369.049 81.3V81.36C369.619 81.38 370.509 81.82 370.509 82.99C370.509 84.12 369.739 85 368.709 85H365.309ZM366.439 81.91V84.03H368.379C368.959 84.03 369.319 83.71 369.319 83.14V82.8C369.319 82.23 368.959 81.91 368.379 81.91H366.439ZM366.439 78.99V80.97H368.189C368.739 80.97 369.069 80.67 369.069 80.14V79.82C369.069 79.29 368.739 78.99 368.189 78.99H366.439ZM375.241 85H372.201V84.08H373.151V78.94H372.201V78.02H375.241V78.94H374.281V84.08H375.241V85ZM381.231 85H377.261V78.02H378.391V84H381.231V85ZM385.728 85H382.688V84.08H383.638V78.94H382.688V78.02H385.728V78.94H384.768V84.08H385.728V85ZM389.15 85V79.02H387.07V78.02H392.36V79.02H390.28V85H389.15ZM396.88 85H395.75V82.25L393.35 78.02H394.64L396.34 81.13H396.37L398.06 78.02H399.3L396.88 82.23V85ZM408.305 85H403.835V78.02H408.305V79.02H404.965V80.96H407.995V81.96H404.965V84H408.305V85ZM409.713 85L411.973 81.43L409.793 78.02H411.123L412.713 80.62H412.733L414.343 78.02H415.593L413.393 81.42L415.683 85H414.353L412.663 82.22H412.633L410.963 85H409.713ZM418.48 85H417.35V78.02H420.35C421.63 78.02 422.38 78.85 422.38 80.12C422.38 81.39 421.63 82.22 420.35 82.22H418.48V85ZM418.48 79.01V81.23H420.28C420.85 81.23 421.19 80.92 421.19 80.36V79.88C421.19 79.32 420.85 79.01 420.28 79.01H418.48ZM429.193 85H428.013L427.383 83.11H424.773L424.163 85H423.013L425.393 78.02H426.813L429.193 85ZM427.103 82.14L426.103 79.06H426.053L425.043 82.14H427.103ZM435.034 85L432.754 81.14L431.984 79.66H431.954V85H430.874V78.02H432.134L434.414 81.88L435.184 83.36H435.214V78.02H436.294V85H435.034ZM440.703 85.12C439.533 85.12 438.733 84.66 438.153 83.94L438.933 83.21C439.423 83.81 440.003 84.12 440.763 84.12C441.653 84.12 442.113 83.68 442.113 83.01C442.113 82.47 441.833 82.16 441.023 82L440.403 81.89C439.053 81.64 438.363 81.01 438.363 79.9C438.363 78.66 439.323 77.9 440.803 77.9C441.853 77.9 442.623 78.28 443.163 78.97L442.373 79.67C442.013 79.2 441.513 78.9 440.743 78.9C439.943 78.9 439.483 79.23 439.483 79.84C439.483 80.42 439.843 80.67 440.593 80.82L441.213 80.95C442.603 81.22 443.233 81.84 443.233 82.95C443.233 84.25 442.303 85.12 440.703 85.12ZM447.929 85H444.889V84.08H445.839V78.94H444.889V78.02H447.929V78.94H446.969V84.08H447.929V85ZM452.649 85.12C450.829 85.12 449.639 83.86 449.639 81.51C449.639 79.16 450.829 77.9 452.649 77.9C454.469 77.9 455.659 79.16 455.659 81.51C455.659 83.86 454.469 85.12 452.649 85.12ZM452.649 84.11C453.729 84.11 454.449 83.33 454.449 82.06V80.96C454.449 79.69 453.729 78.91 452.649 78.91C451.569 78.91 450.849 79.69 450.849 80.96V82.06C450.849 83.33 451.569 84.11 452.649 84.11ZM461.828 85L459.548 81.14L458.778 79.66H458.748V85H457.668V78.02H458.928L461.208 81.88L461.978 83.36H462.008V78.02H463.088V85H461.828ZM340.981 101.168C339.315 101.168 338.167 100.51 337.341 99.544L338.587 98.34C339.259 99.124 340.085 99.544 341.093 99.544C342.227 99.544 342.815 98.998 342.815 98.172C342.815 97.514 342.507 97.108 341.485 96.926L340.561 96.786C338.587 96.478 337.635 95.54 337.635 93.944C337.635 92.194 338.993 91.06 341.177 91.06C342.647 91.06 343.739 91.564 344.523 92.502L343.263 93.692C342.787 93.09 342.115 92.684 341.079 92.684C340.029 92.684 339.483 93.104 339.483 93.832C339.483 94.574 339.903 94.882 340.841 95.05L341.751 95.218C343.725 95.568 344.649 96.45 344.649 98.06C344.649 99.908 343.319 101.168 340.981 101.168ZM350.758 101V99.782H350.688C350.436 100.51 349.848 101.168 348.644 101.168C347.146 101.168 346.306 100.132 346.306 98.312V93.692H348.098V98.13C348.098 99.138 348.476 99.684 349.33 99.684C350.044 99.684 350.758 99.306 350.758 98.522V93.692H352.55V101H350.758ZM354.62 103.8V93.692H356.412V94.896H356.468C356.734 94.056 357.518 93.524 358.484 93.524C360.332 93.524 361.354 94.896 361.354 97.332C361.354 99.782 360.332 101.168 358.484 101.168C357.518 101.168 356.748 100.608 356.468 99.782H356.412V103.8H354.62ZM357.91 99.684C358.834 99.684 359.478 99.012 359.478 97.976V96.716C359.478 95.68 358.834 94.994 357.91 94.994C357.056 94.994 356.412 95.456 356.412 96.17V98.494C356.412 99.25 357.056 99.684 357.91 99.684ZM365.969 101.168C363.813 101.168 362.525 99.67 362.525 97.332C362.525 95.022 363.771 93.524 365.913 93.524C368.195 93.524 369.245 95.204 369.245 97.206V97.794H364.387V97.976C364.387 99.026 364.989 99.74 366.165 99.74C367.047 99.74 367.579 99.32 368.027 98.746L368.993 99.824C368.391 100.65 367.327 101.168 365.969 101.168ZM365.941 94.868C365.003 94.868 364.387 95.568 364.387 96.576V96.688H367.383V96.562C367.383 95.554 366.865 94.868 365.941 94.868ZM372.613 101H370.821V93.692H372.613V95.204H372.683C372.865 94.434 373.453 93.692 374.615 93.692H375.007V95.386H374.447C373.243 95.386 372.613 95.722 372.613 96.52V101ZM380.123 101H377.995L375.559 93.692H377.323L378.345 96.842L379.059 99.446H379.157L379.871 96.842L380.865 93.692H382.573L380.123 101ZM384.665 92.628C383.923 92.628 383.615 92.25 383.615 91.732V91.452C383.615 90.934 383.923 90.556 384.665 90.556C385.393 90.556 385.715 90.934 385.715 91.452V91.732C385.715 92.25 385.393 92.628 384.665 92.628ZM383.769 101V93.692H385.561V101H383.769ZM390.032 101.168C388.646 101.168 387.736 100.664 387.008 99.824L388.1 98.76C388.632 99.376 389.276 99.754 390.102 99.754C390.956 99.754 391.32 99.432 391.32 98.914C391.32 98.494 391.068 98.228 390.424 98.144L389.696 98.046C388.128 97.85 387.26 97.164 387.26 95.834C387.26 94.42 388.366 93.524 390.032 93.524C391.46 93.524 392.188 93.944 392.888 94.672L391.838 95.722C391.418 95.274 390.802 94.938 390.088 94.938C389.318 94.938 388.982 95.246 388.982 95.694C388.982 96.184 389.248 96.408 389.934 96.52L390.676 96.618C392.272 96.842 393.042 97.556 393.042 98.774C393.042 100.188 391.852 101.168 390.032 101.168ZM397.578 101.168C395.422 101.168 394.134 99.67 394.134 97.332C394.134 95.022 395.38 93.524 397.522 93.524C399.804 93.524 400.854 95.204 400.854 97.206V97.794H395.996V97.976C395.996 99.026 396.598 99.74 397.774 99.74C398.656 99.74 399.188 99.32 399.636 98.746L400.602 99.824C400 100.65 398.936 101.168 397.578 101.168ZM397.55 94.868C396.612 94.868 395.996 95.568 395.996 96.576V96.688H398.992V96.562C398.992 95.554 398.474 94.868 397.55 94.868ZM406.967 101V99.782H406.897C406.631 100.608 405.847 101.168 404.881 101.168C403.047 101.168 402.025 99.782 402.025 97.332C402.025 94.896 403.047 93.524 404.881 93.524C405.847 93.524 406.645 94.056 406.897 94.896H406.967V90.64H408.759V101H406.967ZM405.455 99.684C406.309 99.684 406.967 99.25 406.967 98.494V96.17C406.967 95.456 406.309 94.994 405.455 94.994C404.531 94.994 403.901 95.68 403.901 96.716V97.976C403.901 99.012 404.531 99.684 405.455 99.684ZM339.791 118H337.943V108.228H344.229V109.866H339.791V112.232H343.655V113.87H339.791V118ZM346.807 109.628C346.065 109.628 345.757 109.25 345.757 108.732V108.452C345.757 107.934 346.065 107.556 346.807 107.556C347.535 107.556 347.857 107.934 347.857 108.452V108.732C347.857 109.25 347.535 109.628 346.807 109.628ZM345.911 118V110.692H347.703V118H345.911ZM351.572 118H349.78V110.692H351.572V111.91H351.642C351.936 111.126 352.552 110.524 353.686 110.524C355.184 110.524 356.024 111.56 356.024 113.38V118H354.232V113.562C354.232 112.526 353.882 111.994 353.028 111.994C352.286 111.994 351.572 112.386 351.572 113.17V118ZM360.965 118.168C358.809 118.168 357.521 116.67 357.521 114.332C357.521 112.022 358.767 110.524 360.909 110.524C363.191 110.524 364.241 112.204 364.241 114.206V114.794H359.383V114.976C359.383 116.026 359.985 116.74 361.161 116.74C362.043 116.74 362.575 116.32 363.023 115.746L363.989 116.824C363.387 117.65 362.323 118.168 360.965 118.168ZM360.937 111.868C359.999 111.868 359.383 112.568 359.383 113.576V113.688H362.379V113.562C362.379 112.554 361.861 111.868 360.937 111.868ZM369.734 114.626H365.73V112.848H369.734V114.626ZM377.664 109.866H374.892V118H373.044V109.866H370.272V108.228H377.664V109.866ZM382.791 118V116.782H382.721C382.469 117.51 381.881 118.168 380.677 118.168C379.179 118.168 378.339 117.132 378.339 115.312V110.692H380.131V115.13C380.131 116.138 380.509 116.684 381.363 116.684C382.077 116.684 382.791 116.306 382.791 115.522V110.692H384.583V118H382.791ZM388.445 118H386.653V110.692H388.445V111.91H388.515C388.809 111.126 389.425 110.524 390.559 110.524C392.057 110.524 392.897 111.56 392.897 113.38V118H391.105V113.562C391.105 112.526 390.755 111.994 389.901 111.994C389.159 111.994 388.445 112.386 388.445 113.17V118ZM395.78 109.628C395.038 109.628 394.73 109.25 394.73 108.732V108.452C394.73 107.934 395.038 107.556 395.78 107.556C396.508 107.556 396.83 107.934 396.83 108.452V108.732C396.83 109.25 396.508 109.628 395.78 109.628ZM394.884 118V110.692H396.676V118H394.884ZM400.545 118H398.753V110.692H400.545V111.91H400.615C400.909 111.126 401.525 110.524 402.659 110.524C404.157 110.524 404.997 111.56 404.997 113.38V118H403.205V113.562C403.205 112.526 402.855 111.994 402.001 111.994C401.259 111.994 400.545 112.386 400.545 113.17V118ZM413.578 118.616C413.578 120.142 412.542 120.968 409.742 120.968C407.278 120.968 406.34 120.324 406.34 119.246C406.34 118.434 406.83 117.972 407.642 117.846V117.692C407.04 117.538 406.704 117.062 406.704 116.474C406.704 115.718 407.348 115.34 408.048 115.186V115.13C407.166 114.724 406.718 113.968 406.718 113.002C406.718 111.518 407.768 110.524 409.742 110.524C410.19 110.524 410.652 110.58 411.016 110.706V110.468C411.016 109.754 411.38 109.404 412.052 109.404H413.186V110.776H411.632V110.972C412.388 111.392 412.766 112.106 412.766 113.002C412.766 114.472 411.73 115.452 409.742 115.452C409.322 115.452 408.944 115.41 408.622 115.326C408.342 115.452 408.104 115.662 408.104 115.984C408.104 116.348 408.412 116.53 409.056 116.53H411.016C412.808 116.53 413.578 117.3 413.578 118.616ZM411.898 118.826C411.898 118.364 411.562 118.084 410.652 118.084H408.16C407.894 118.28 407.782 118.546 407.782 118.84C407.782 119.4 408.202 119.736 409.322 119.736H410.218C411.38 119.736 411.898 119.442 411.898 118.826ZM409.742 114.234C410.596 114.234 411.058 113.842 411.058 113.114V112.876C411.058 112.134 410.596 111.756 409.742 111.756C408.888 111.756 408.426 112.134 408.426 112.876V113.114C408.426 113.842 408.888 114.234 409.742 114.234ZM417.585 113.632C417.585 110.93 418.649 108.578 420.049 107.36H421.743C420.231 108.76 419.265 110.86 419.265 113.128V114.164C419.265 116.488 420.245 118.574 421.743 119.932H420.049C418.677 118.756 417.585 116.362 417.585 113.632ZM425.788 118.168C424.122 118.168 422.974 117.51 422.148 116.544L423.394 115.34C424.066 116.124 424.892 116.544 425.9 116.544C427.034 116.544 427.622 115.998 427.622 115.172C427.622 114.514 427.314 114.108 426.292 113.926L425.368 113.786C423.394 113.478 422.442 112.54 422.442 110.944C422.442 109.194 423.8 108.06 425.984 108.06C427.454 108.06 428.546 108.564 429.33 109.502L428.07 110.692C427.594 110.09 426.922 109.684 425.886 109.684C424.836 109.684 424.29 110.104 424.29 110.832C424.29 111.574 424.71 111.882 425.648 112.05L426.558 112.218C428.532 112.568 429.456 113.45 429.456 115.06C429.456 116.908 428.126 118.168 425.788 118.168ZM433.156 118H431.308V108.228H437.594V109.866H433.156V112.232H437.02V113.87H433.156V118ZM445.996 109.866H443.224V118H441.376V109.866H438.604V108.228H445.996V109.866ZM450.653 113.632C450.653 116.362 449.561 118.756 448.189 119.932H446.495C447.993 118.574 448.973 116.488 448.973 114.164V113.128C448.973 110.86 448.007 108.76 446.495 107.36H448.189C449.589 108.578 450.653 110.93 450.653 113.632Z" fill="#171717"/>
<rect x="241.769" y="155.5" width="240" height="84" rx="11.3104" fill="#4ADE80"/>
<rect x="266.524" y="171.947" width="51.1063" height="51.1063" rx="15.3319" fill="#4ADE80"/>
<path fill-rule="evenodd" clip-rule="evenodd" d="M297.613 191.105C298.244 191.526 298.985 191.751 299.743 191.751C300.759 191.75 301.734 191.345 302.452 190.627C303.171 189.908 303.575 188.934 303.576 187.918C303.576 187.16 303.351 186.419 302.93 185.788C302.509 185.158 301.91 184.667 301.21 184.376C300.509 184.086 299.739 184.01 298.995 184.158C298.252 184.306 297.569 184.671 297.033 185.207C296.497 185.743 296.132 186.426 295.984 187.17C295.836 187.913 295.912 188.684 296.202 189.385C296.492 190.085 296.983 190.684 297.613 191.105ZM298.678 186.324C298.993 186.114 299.364 186.001 299.743 186.001C300.251 186.002 300.738 186.204 301.097 186.563C301.457 186.922 301.659 187.41 301.659 187.918C301.659 188.297 301.547 188.667 301.336 188.982C301.126 189.298 300.827 189.543 300.476 189.688C300.126 189.833 299.741 189.871 299.369 189.797C298.997 189.723 298.656 189.541 298.388 189.273C298.12 189.005 297.937 188.663 297.863 188.292C297.789 187.92 297.827 187.534 297.972 187.184C298.117 186.834 298.363 186.535 298.678 186.324ZM293.994 197.5H295.91V195.584C295.91 195.33 296.011 195.086 296.191 194.906C296.371 194.727 296.614 194.626 296.868 194.625H302.618C302.872 194.626 303.115 194.727 303.295 194.906C303.475 195.086 303.576 195.33 303.576 195.584V197.5H305.492V195.584C305.492 194.821 305.188 194.091 304.65 193.552C304.111 193.013 303.38 192.71 302.618 192.709H296.868C296.106 192.71 295.375 193.013 294.836 193.552C294.297 194.091 293.994 194.821 293.994 195.584V197.5ZM297.613 205.478C298.244 205.9 298.985 206.124 299.743 206.124C300.759 206.123 301.734 205.719 302.452 205.001C303.171 204.282 303.575 203.308 303.576 202.291C303.576 201.533 303.351 200.792 302.93 200.162C302.509 199.532 301.91 199.04 301.21 198.75C300.509 198.46 299.739 198.384 298.995 198.532C298.252 198.68 297.569 199.045 297.033 199.581C296.497 200.117 296.132 200.8 295.984 201.544C295.836 202.287 295.912 203.058 296.202 203.758C296.492 204.459 296.983 205.057 297.613 205.478ZM298.678 200.698C298.993 200.487 299.364 200.375 299.743 200.375C300.251 200.376 300.738 200.578 301.097 200.937C301.457 201.296 301.659 201.783 301.659 202.291C301.659 202.67 301.547 203.041 301.336 203.356C301.126 203.671 300.827 203.917 300.476 204.062C300.126 204.207 299.741 204.245 299.369 204.171C298.997 204.097 298.656 203.915 298.388 203.647C298.12 203.378 297.937 203.037 297.863 202.665C297.789 202.293 297.827 201.908 297.972 201.558C298.117 201.208 298.363 200.908 298.678 200.698ZM295.91 211.874H293.994V209.957C293.994 209.195 294.297 208.464 294.836 207.925C295.375 207.387 296.106 207.083 296.868 207.083H302.618C303.38 207.083 304.111 207.387 304.65 207.925C305.188 208.464 305.492 209.195 305.492 209.957V211.874H303.576V209.957C303.576 209.703 303.475 209.46 303.295 209.28C303.115 209.1 302.872 208.999 302.618 208.999H296.868C296.614 208.999 296.371 209.1 296.191 209.28C296.011 209.46 295.91 209.703 295.91 209.957V211.874ZM278.662 211.874H280.578V209.957C280.578 209.703 280.679 209.46 280.859 209.28C281.039 209.1 281.282 208.999 281.536 208.999H287.286C287.54 208.999 287.783 209.1 287.963 209.28C288.143 209.46 288.244 209.703 288.244 209.957V211.874H290.161V209.957C290.16 209.195 289.857 208.464 289.318 207.925C288.779 207.387 288.048 207.083 287.286 207.083H281.536C280.774 207.083 280.043 207.387 279.505 207.925C278.966 208.464 278.662 209.195 278.662 209.957V211.874ZM282.282 205.478C282.912 205.9 283.653 206.124 284.411 206.124C285.427 206.123 286.402 205.719 287.12 205C287.839 204.282 288.243 203.308 288.244 202.291C288.244 201.533 288.019 200.792 287.598 200.162C287.177 199.532 286.578 199.04 285.878 198.75C285.178 198.46 284.407 198.384 283.663 198.532C282.92 198.68 282.237 199.045 281.701 199.581C281.165 200.117 280.8 200.8 280.652 201.544C280.504 202.287 280.58 203.058 280.87 203.758C281.16 204.459 281.651 205.057 282.282 205.478ZM283.346 200.698C283.662 200.487 284.032 200.375 284.411 200.375C284.919 200.375 285.406 200.578 285.766 200.937C286.125 201.296 286.327 201.783 286.328 202.291C286.328 202.67 286.215 203.041 286.005 203.356C285.794 203.671 285.495 203.917 285.144 204.062C284.794 204.207 284.409 204.245 284.037 204.171C283.665 204.097 283.324 203.915 283.056 203.647C282.788 203.378 282.605 203.037 282.531 202.665C282.457 202.293 282.495 201.908 282.64 201.558C282.786 201.208 283.031 200.908 283.346 200.698ZM278.662 197.5H280.578V195.584C280.578 195.33 280.68 195.086 280.859 194.906C281.039 194.727 281.282 194.626 281.536 194.625H287.286C287.54 194.626 287.783 194.727 287.963 194.906C288.143 195.086 288.244 195.33 288.244 195.584V197.5H290.161V195.584C290.16 194.821 289.857 194.091 289.318 193.552C288.779 193.013 288.048 192.71 287.286 192.709H281.536C280.774 192.71 280.043 193.013 279.505 193.552C278.966 194.091 278.662 194.821 278.662 195.584V197.5ZM282.282 191.105C282.912 191.526 283.653 191.751 284.411 191.751C285.427 191.75 286.402 191.345 287.12 190.627C287.839 189.908 288.243 188.934 288.244 187.918C288.244 187.16 288.019 186.419 287.598 185.788C287.177 185.158 286.578 184.667 285.878 184.376C285.178 184.086 284.407 184.01 283.663 184.158C282.92 184.306 282.237 184.671 281.701 185.207C281.165 185.743 280.8 186.426 280.652 187.17C280.504 187.913 280.58 188.684 280.87 189.385C281.16 190.085 281.651 190.684 282.282 191.105ZM283.346 186.324C283.662 186.114 284.032 186.001 284.411 186.001C284.919 186.002 285.406 186.204 285.766 186.563C286.125 186.922 286.327 187.41 286.328 187.918C286.328 188.297 286.215 188.667 286.005 188.982C285.794 189.298 285.495 189.543 285.144 189.688C284.794 189.833 284.409 189.871 284.037 189.797C283.665 189.723 283.324 189.541 283.056 189.273C282.788 189.005 282.605 188.663 282.531 188.292C282.457 187.92 282.495 187.534 282.64 187.184C282.786 186.834 283.031 186.535 283.346 186.324Z" fill="black"/>
<path d="M341.945 193.5V190.46H338.785V193.5H337.655V186.52H338.785V189.46H341.945V186.52H343.075V193.5H341.945ZM345.354 186.52H346.464V190.82C346.464 192 346.874 192.61 347.964 192.61C349.054 192.61 349.464 192 349.464 190.82V186.52H350.574V190.64C350.574 192.68 349.874 193.62 347.964 193.62C346.054 193.62 345.354 192.68 345.354 190.64V186.52ZM352.849 193.5V186.52H354.189L356.059 190.07H356.119L357.989 186.52H359.269V193.5H358.189V188.16H358.139L357.589 189.29L356.059 192.08L354.529 189.29L353.979 188.16H353.929V193.5H352.849ZM367.134 193.5H365.954L365.324 191.61H362.714L362.104 193.5H360.954L363.334 186.52H364.754L367.134 193.5ZM365.044 190.64L364.044 187.56H363.994L362.984 190.64H365.044ZM372.975 193.5L370.695 189.64L369.925 188.16H369.895V193.5H368.815V186.52H370.075L372.355 190.38L373.125 191.86H373.155V186.52H374.235V193.5H372.975ZM385.057 193.5H383.877L383.247 191.61H380.637L380.027 193.5H378.877L381.257 186.52H382.677L385.057 193.5ZM382.967 190.64L381.967 187.56H381.917L380.907 190.64H382.967ZM390.708 193.5H386.738V186.52H387.868V192.5H390.708V193.5ZM395.205 193.5H392.165V192.58H393.115V187.44H392.165V186.52H395.205V187.44H394.245V192.58H395.205V193.5ZM401.715 193.5V192.44H401.675C401.535 193.11 400.855 193.62 399.795 193.62C398.135 193.62 396.915 192.35 396.915 190.01C396.915 187.68 398.135 186.4 399.965 186.4C401.215 186.4 402.085 186.99 402.565 187.97L401.645 188.51C401.375 187.86 400.815 187.41 399.965 187.41C398.865 187.41 398.125 188.16 398.125 189.44V190.58C398.125 191.86 398.865 192.61 399.965 192.61C400.845 192.61 401.615 192.16 401.615 191.29V190.75H400.175V189.78H402.705V193.5H401.715ZM409.036 193.5L406.756 189.64L405.986 188.16H405.956V193.5H404.876V186.52H406.136L408.416 190.38L409.186 191.86H409.216V186.52H410.296V193.5H409.036ZM412.615 193.5V186.52H413.955L415.825 190.07H415.885L417.755 186.52H419.035V193.5H417.955V188.16H417.905L417.355 189.29L415.825 192.08L414.295 189.29L413.745 188.16H413.695V193.5H412.615ZM425.829 193.5H421.359V186.52H425.829V187.52H422.489V189.46H425.519V190.46H422.489V192.5H425.829V193.5ZM432.047 193.5L429.767 189.64L428.997 188.16H428.967V193.5H427.887V186.52H429.147L431.427 190.38L432.197 191.86H432.227V186.52H433.307V193.5H432.047ZM437.085 193.5V187.52H435.005V186.52H440.295V187.52H438.215V193.5H437.085ZM339.791 205.734V209.5H337.943V199.728H342.353C344.131 199.728 345.237 200.904 345.237 202.752C345.237 204.096 344.621 205.118 343.417 205.524L345.419 209.5H343.361L341.541 205.734H339.791ZM339.791 204.18H342.171C342.885 204.18 343.319 203.788 343.319 203.074V202.43C343.319 201.716 342.885 201.338 342.171 201.338H339.791V204.18ZM352.938 209.5H347.24V199.728H349.088V207.862H352.938V209.5ZM360.463 209.5V205.37H356.389V209.5H354.541V199.728H356.389V203.732H360.463V199.728H362.311V209.5H360.463ZM366.451 209.5H364.603V199.728H370.889V201.366H366.451V203.732H370.315V205.37H366.451V209.5ZM377.686 209.668C376.202 209.668 375.362 208.814 375.362 207.512C375.362 206.014 376.496 205.272 378.484 205.272H379.73V204.74C379.73 203.928 379.324 203.452 378.372 203.452C377.532 203.452 377.056 203.872 376.706 204.376L375.642 203.424C376.174 202.584 377.028 202.024 378.498 202.024C380.472 202.024 381.522 202.962 381.522 204.628V208.072H382.25V209.5H381.256C380.486 209.5 380.01 208.996 379.898 208.24H379.814C379.576 209.178 378.778 209.668 377.686 209.668ZM378.288 208.366C379.086 208.366 379.73 208.002 379.73 207.316V206.35H378.582C377.644 206.35 377.182 206.672 377.182 207.246V207.484C377.182 208.072 377.588 208.366 378.288 208.366ZM385.492 209.5H383.7V202.192H385.492V203.41H385.562C385.856 202.626 386.472 202.024 387.606 202.024C389.104 202.024 389.944 203.06 389.944 204.88V209.5H388.152V205.062C388.152 204.026 387.802 203.494 386.948 203.494C386.206 203.494 385.492 203.886 385.492 204.67V209.5ZM396.467 209.5V208.282H396.397C396.131 209.108 395.347 209.668 394.381 209.668C392.547 209.668 391.525 208.282 391.525 205.832C391.525 203.396 392.547 202.024 394.381 202.024C395.347 202.024 396.145 202.556 396.397 203.396H396.467V199.14H398.259V209.5H396.467ZM394.955 208.184C395.809 208.184 396.467 207.75 396.467 206.994V204.67C396.467 203.956 395.809 203.494 394.955 203.494C394.031 203.494 393.401 204.18 393.401 205.216V206.476C393.401 207.512 394.031 208.184 394.955 208.184ZM403.746 209.5V199.728H407.302C409.85 199.728 411.516 201.366 411.516 204.614C411.516 207.862 409.85 209.5 407.302 209.5H403.746ZM405.594 207.862H407.302C408.674 207.862 409.556 207.05 409.556 205.384V203.844C409.556 202.178 408.674 201.366 407.302 201.366H405.594V207.862ZM415.246 209.5H413.398V199.728H417.794C419.6 199.728 420.692 200.946 420.692 202.752C420.692 204.572 419.6 205.776 417.794 205.776H415.246V209.5ZM415.246 201.338V204.18H417.626C418.34 204.18 418.774 203.788 418.774 203.074V202.43C418.774 201.716 418.34 201.338 417.626 201.338H415.246ZM426.203 209.668C423.641 209.668 421.947 207.918 421.947 204.614C421.947 201.31 423.641 199.56 426.203 199.56C428.779 199.56 430.459 201.31 430.459 204.614C430.459 207.918 428.779 209.668 426.203 209.668ZM426.203 208.03C427.603 208.03 428.499 207.036 428.499 205.37V203.858C428.499 202.192 427.603 201.198 426.203 201.198C424.803 201.198 423.907 202.192 423.907 203.858V205.37C423.907 207.036 424.803 208.03 426.203 208.03Z" fill="#171717"/>
<path d="M241.769 273.597C241.769 267.262 241.769 264.095 243.002 261.676C244.086 259.547 245.817 257.817 247.945 256.733C250.364 255.5 253.532 255.5 259.866 255.5H463.673C470.007 255.5 473.174 255.5 475.594 256.733C477.722 257.817 479.452 259.547 480.537 261.676C481.769 264.095 481.769 267.262 481.769 273.597V322.403C481.769 328.738 481.769 331.905 480.537 334.324C479.452 336.453 477.722 338.183 475.594 339.267C473.174 340.5 470.007 340.5 463.673 340.5H259.866C253.532 340.5 250.364 340.5 247.945 339.267C245.817 338.183 244.086 336.453 243.002 334.324C241.769 331.905 241.769 328.738 241.769 322.403V273.597Z" fill="#F5F5F5"/>
<path d="M241.769 273.597C241.769 267.262 241.769 264.095 243.002 261.676C244.086 259.547 245.817 257.817 247.945 256.733C250.364 255.5 253.532 255.5 259.866 255.5H463.673C470.007 255.5 473.174 255.5 475.594 256.733C477.722 257.817 479.452 259.547 480.537 261.676C481.769 264.095 481.769 267.262 481.769 273.597V322.403C481.769 328.738 481.769 331.905 480.537 334.324C479.452 336.453 477.722 338.183 475.594 339.267C473.174 340.5 470.007 340.5 463.673 340.5H259.866C253.532 340.5 250.364 340.5 247.945 339.267C245.817 338.183 244.086 336.453 243.002 334.324C241.769 331.905 241.769 328.738 241.769 322.403V273.597Z" stroke="#A3A3A3" stroke-dasharray="6 3"/>
<rect x="266.524" y="272.447" width="51.1063" height="51.1063" rx="15.3319" fill="#93C5FD"/>
<path fill-rule="evenodd" clip-rule="evenodd" d="M302.7 290.902C304.104 293.003 304.854 295.473 304.854 298H302.724C302.724 295.894 302.1 293.836 300.93 292.085C299.76 290.334 298.097 288.969 296.152 288.163C294.206 287.358 292.065 287.147 290 287.558C287.935 287.968 286.037 288.982 284.548 290.471C283.059 291.96 282.045 293.858 281.635 295.923C281.224 297.988 281.435 300.129 282.24 302.075C283.046 304.02 284.411 305.683 286.162 306.853C287.913 308.023 289.971 308.647 292.077 308.647V310.777C289.55 310.777 287.08 310.027 284.979 308.623C282.878 307.22 281.24 305.224 280.273 302.889C279.306 300.555 279.053 297.986 279.546 295.508C280.039 293.029 281.256 290.753 283.043 288.966C284.83 287.179 287.106 285.962 289.585 285.469C292.063 284.976 294.632 285.229 296.967 286.196C299.301 287.163 301.297 288.801 302.7 290.902ZM292.077 304.388C290.814 304.388 289.579 304.014 288.528 303.312C287.477 302.61 286.659 301.612 286.175 300.445C285.692 299.277 285.565 297.993 285.812 296.754C286.058 295.515 286.667 294.376 287.56 293.483C288.453 292.589 289.592 291.981 290.831 291.734C292.07 291.488 293.355 291.615 294.522 292.098C295.689 292.582 296.687 293.4 297.389 294.451C298.091 295.501 298.465 296.737 298.465 298C298.464 299.694 297.79 301.318 296.592 302.515C295.395 303.713 293.771 304.386 292.077 304.388ZM292.077 293.741C291.235 293.741 290.411 293.991 289.711 294.459C289.011 294.927 288.465 295.592 288.143 296.37C287.82 297.148 287.736 298.005 287.9 298.831C288.064 299.657 288.47 300.416 289.066 301.012C289.661 301.607 290.42 302.013 291.246 302.177C292.072 302.341 292.929 302.257 293.707 301.935C294.485 301.612 295.15 301.066 295.618 300.366C296.086 299.666 296.336 298.842 296.336 298C296.335 296.871 295.886 295.788 295.087 294.99C294.289 294.192 293.206 293.742 292.077 293.741ZM294.207 298C294.207 299.176 293.253 300.129 292.077 300.129C290.901 300.129 289.948 299.176 289.948 298C289.948 296.824 290.901 295.871 292.077 295.871C293.253 295.871 294.207 296.824 294.207 298ZM295.708 306.518L298.465 309.275L305.482 302.259L306.983 303.76L298.465 312.278L294.207 308.019L295.708 306.518Z" fill="black"/>
<path d="M339.745 294.12C338.575 294.12 337.775 293.66 337.195 292.94L337.975 292.21C338.465 292.81 339.045 293.12 339.805 293.12C340.695 293.12 341.155 292.68 341.155 292.01C341.155 291.47 340.875 291.16 340.065 291L339.445 290.89C338.095 290.64 337.405 290.01 337.405 288.9C337.405 287.66 338.365 286.9 339.845 286.9C340.895 286.9 341.665 287.28 342.205 287.97L341.415 288.67C341.055 288.2 340.555 287.9 339.785 287.9C338.985 287.9 338.525 288.23 338.525 288.84C338.525 289.42 338.885 289.67 339.635 289.82L340.255 289.95C341.645 290.22 342.275 290.84 342.275 291.95C342.275 293.25 341.345 294.12 339.745 294.12ZM349.772 294H348.592L347.962 292.11H345.352L344.742 294H343.592L345.972 287.02H347.392L349.772 294ZM347.682 291.14L346.682 288.06H346.632L345.622 291.14H347.682ZM352.583 294H351.453V287.02H355.813V288.02H352.583V289.96H355.453V290.96H352.583V294ZM362.226 294H357.756V287.02H362.226V288.02H358.886V289.96H361.916V290.96H358.886V293H362.226V294ZM365.744 294V288.02H363.664V287.02H368.954V288.02H366.874V294H365.744ZM373.474 294H372.344V291.25L369.944 287.02H371.234L372.934 290.13H372.964L374.654 287.02H375.894L373.474 291.23V294ZM385.109 294L384.459 293.29C384.109 293.64 383.499 294.12 382.439 294.12C380.989 294.12 380.199 293.27 380.199 292.18C380.199 291.18 380.859 290.65 381.619 290.22C381.179 289.75 380.829 289.2 380.829 288.58C380.829 287.64 381.589 286.9 382.739 286.9C383.819 286.9 384.589 287.51 384.589 288.44C384.589 289.35 383.899 289.87 383.069 290.35L384.429 291.82C384.619 291.34 384.719 290.79 384.749 290.25H386.239V291.17H385.559C385.459 291.68 385.299 292.14 385.099 292.52L386.469 294H385.109ZM382.739 287.77C382.259 287.77 381.879 288.08 381.879 288.55V288.63C381.879 288.97 382.109 289.3 382.519 289.75C383.079 289.44 383.539 289.07 383.539 288.58V288.5C383.539 288.03 383.219 287.77 382.739 287.77ZM382.569 293.19C383.129 293.19 383.549 292.99 383.869 292.66L382.169 290.83C381.669 291.11 381.319 291.41 381.319 292.01V292.14C381.319 292.77 381.789 293.19 382.569 293.19ZM393.153 294.12C391.983 294.12 391.183 293.66 390.603 292.94L391.383 292.21C391.873 292.81 392.453 293.12 393.213 293.12C394.103 293.12 394.563 292.68 394.563 292.01C394.563 291.47 394.283 291.16 393.473 291L392.853 290.89C391.503 290.64 390.813 290.01 390.813 288.9C390.813 287.66 391.773 286.9 393.253 286.9C394.303 286.9 395.073 287.28 395.613 287.97L394.823 288.67C394.463 288.2 393.963 287.9 393.193 287.9C392.393 287.9 391.933 288.23 391.933 288.84C391.933 289.42 392.293 289.67 393.043 289.82L393.663 289.95C395.053 290.22 395.683 290.84 395.683 291.95C395.683 293.25 394.753 294.12 393.153 294.12ZM402.11 294H397.64V287.02H402.11V288.02H398.77V289.96H401.8V290.96H398.77V293H402.11V294ZM406.787 294.12C404.967 294.12 403.857 292.85 403.857 290.51C403.857 288.17 404.967 286.9 406.787 286.9C407.997 286.9 408.807 287.44 409.277 288.48L408.327 289C408.087 288.34 407.597 287.91 406.787 287.91C405.717 287.91 405.057 288.69 405.057 289.98V291.04C405.057 292.33 405.717 293.11 406.787 293.11C407.617 293.11 408.147 292.63 408.397 291.95L409.307 292.5C408.837 293.51 407.997 294.12 406.787 294.12ZM411.065 287.02H412.175V291.32C412.175 292.5 412.585 293.11 413.675 293.11C414.765 293.11 415.175 292.5 415.175 291.32V287.02H416.285V291.14C416.285 293.18 415.585 294.12 413.675 294.12C411.765 294.12 411.065 293.18 411.065 291.14V287.02ZM419.691 291.18V294H418.561V287.02H421.571C422.821 287.02 423.591 287.83 423.591 289.12C423.591 290.11 423.121 290.8 422.231 291.06L423.741 294H422.481L421.081 291.18H419.691ZM419.691 290.23H421.491C422.061 290.23 422.401 289.92 422.401 289.36V288.88C422.401 288.32 422.061 288.01 421.491 288.01H419.691V290.23ZM428.453 294H425.413V293.08H426.363V287.94H425.413V287.02H428.453V287.94H427.493V293.08H428.453V294ZM431.875 294V288.02H429.795V287.02H435.085V288.02H433.005V294H431.875ZM439.605 294H438.475V291.25L436.075 287.02H437.365L439.065 290.13H439.095L440.785 287.02H442.025L439.605 291.23V294ZM339.791 306.234V310H337.943V300.228H342.353C344.131 300.228 345.237 301.404 345.237 303.252C345.237 304.596 344.621 305.618 343.417 306.024L345.419 310H343.361L341.541 306.234H339.791ZM339.791 304.68H342.171C342.885 304.68 343.319 304.288 343.319 303.574V302.93C343.319 302.216 342.885 301.838 342.171 301.838H339.791V304.68ZM349.877 310.168C347.721 310.168 346.433 308.67 346.433 306.332C346.433 304.022 347.679 302.524 349.821 302.524C352.103 302.524 353.153 304.204 353.153 306.206V306.794H348.295V306.976C348.295 308.026 348.897 308.74 350.073 308.74C350.955 308.74 351.487 308.32 351.935 307.746L352.901 308.824C352.299 309.65 351.235 310.168 349.877 310.168ZM349.849 303.868C348.911 303.868 348.295 304.568 348.295 305.576V305.688H351.291V305.562C351.291 304.554 350.773 303.868 349.849 303.868ZM359.266 310V308.782H359.196C358.93 309.608 358.146 310.168 357.18 310.168C355.346 310.168 354.324 308.782 354.324 306.332C354.324 303.896 355.346 302.524 357.18 302.524C358.146 302.524 358.944 303.056 359.196 303.896H359.266V299.64H361.058V310H359.266ZM357.754 308.684C358.608 308.684 359.266 308.25 359.266 307.494V305.17C359.266 304.456 358.608 303.994 357.754 303.994C356.83 303.994 356.2 304.68 356.2 305.716V306.976C356.2 308.012 356.83 308.684 357.754 308.684ZM373.153 301.866H370.381V310H368.533V301.866H365.761V300.228H373.153V301.866ZM376.592 310.168C374.436 310.168 373.148 308.67 373.148 306.332C373.148 304.022 374.394 302.524 376.536 302.524C378.818 302.524 379.868 304.204 379.868 306.206V306.794H375.01V306.976C375.01 308.026 375.612 308.74 376.788 308.74C377.67 308.74 378.202 308.32 378.65 307.746L379.616 308.824C379.014 309.65 377.95 310.168 376.592 310.168ZM376.564 303.868C375.626 303.868 375.01 304.568 375.01 305.576V305.688H378.006V305.562C378.006 304.554 377.488 303.868 376.564 303.868ZM383.25 310.168C381.766 310.168 380.926 309.314 380.926 308.012C380.926 306.514 382.06 305.772 384.048 305.772H385.294V305.24C385.294 304.428 384.888 303.952 383.936 303.952C383.096 303.952 382.62 304.372 382.27 304.876L381.206 303.924C381.738 303.084 382.592 302.524 384.062 302.524C386.036 302.524 387.086 303.462 387.086 305.128V308.572H387.814V310H386.82C386.05 310 385.574 309.496 385.462 308.74H385.378C385.14 309.678 384.342 310.168 383.25 310.168ZM383.852 308.866C384.65 308.866 385.294 308.502 385.294 307.816V306.85H384.146C383.208 306.85 382.746 307.172 382.746 307.746V307.984C382.746 308.572 383.152 308.866 383.852 308.866ZM391.057 310H389.265V302.692H391.057V303.91H391.127C391.407 303.14 391.995 302.524 393.087 302.524C394.081 302.524 394.851 303.014 395.201 303.994H395.229C395.495 303.182 396.307 302.524 397.469 302.524C398.897 302.524 399.709 303.56 399.709 305.38V310H397.917V305.562C397.917 304.512 397.539 303.994 396.741 303.994C396.041 303.994 395.383 304.386 395.383 305.17V310H393.591V305.562C393.591 304.512 393.213 303.994 392.415 303.994C391.729 303.994 391.057 304.386 391.057 305.17V310ZM402.588 301.628C401.846 301.628 401.538 301.25 401.538 300.732V300.452C401.538 299.934 401.846 299.556 402.588 299.556C403.316 299.556 403.638 299.934 403.638 300.452V300.732C403.638 301.25 403.316 301.628 402.588 301.628ZM401.692 310V302.692H403.484V310H401.692ZM407.354 310H405.562V302.692H407.354V303.91H407.424C407.718 303.126 408.334 302.524 409.468 302.524C410.966 302.524 411.806 303.56 411.806 305.38V310H410.014V305.562C410.014 304.526 409.664 303.994 408.81 303.994C408.068 303.994 407.354 304.386 407.354 305.17V310ZM420.386 310.616C420.386 312.142 419.35 312.968 416.55 312.968C414.086 312.968 413.148 312.324 413.148 311.246C413.148 310.434 413.638 309.972 414.45 309.846V309.692C413.848 309.538 413.512 309.062 413.512 308.474C413.512 307.718 414.156 307.34 414.856 307.186V307.13C413.974 306.724 413.526 305.968 413.526 305.002C413.526 303.518 414.576 302.524 416.55 302.524C416.998 302.524 417.46 302.58 417.824 302.706V302.468C417.824 301.754 418.188 301.404 418.86 301.404H419.994V302.776H418.44V302.972C419.196 303.392 419.574 304.106 419.574 305.002C419.574 306.472 418.538 307.452 416.55 307.452C416.13 307.452 415.752 307.41 415.43 307.326C415.15 307.452 414.912 307.662 414.912 307.984C414.912 308.348 415.22 308.53 415.864 308.53H417.824C419.616 308.53 420.386 309.3 420.386 310.616ZM418.706 310.826C418.706 310.364 418.37 310.084 417.46 310.084H414.968C414.702 310.28 414.59 310.546 414.59 310.84C414.59 311.4 415.01 311.736 416.13 311.736H417.026C418.188 311.736 418.706 311.442 418.706 310.826ZM416.55 306.234C417.404 306.234 417.866 305.842 417.866 305.114V304.876C417.866 304.134 417.404 303.756 416.55 303.756C415.696 303.756 415.234 304.134 415.234 304.876V305.114C415.234 305.842 415.696 306.234 416.55 306.234Z" fill="#171717"/>
<path d="M529.321 181.282C529.477 181.126 529.477 180.874 529.321 180.718L526.78 178.177C526.624 178.021 526.371 178.021 526.215 178.177C526.059 178.333 526.059 178.585 526.215 178.741L528.474 181L526.215 183.259C526.059 183.415 526.059 183.667 526.215 183.823C526.371 183.979 526.624 183.979 526.78 183.823L529.321 181.282ZM512.269 181.399L529.039 181.399L529.039 180.601L512.269 180.601L512.269 181.399Z" fill="black"/>
<rect x="538.621" y="361" width="360" height="56.5337" rx="11.3104" transform="rotate(-90 538.621 361)" fill="#E5E5E5"/>
<rect x="538.621" y="361" width="360" height="56.5337" rx="11.3104" transform="rotate(-90 538.621 361)" stroke="#171717"/>
<path d="M571.388 224.039L562.47 224.039L562.47 220.883C562.47 218.609 563.952 217.114 566.929 217.114C569.906 217.114 571.388 218.609 571.388 220.883L571.388 224.039ZM570.11 222.595L570.11 220.883C570.11 219.554 569.254 218.66 567.644 218.66L566.213 218.66C564.604 218.66 563.748 219.554 563.748 220.883L563.748 222.595L570.11 222.595ZM571.388 208.84L571.388 214.551L562.47 214.551L562.47 208.84L563.748 208.84L563.748 213.107L566.226 213.107L566.226 209.236L567.504 209.236L567.504 213.107L570.11 213.107L570.11 208.84L571.388 208.84ZM571.388 204.767L571.388 206.21L562.47 206.21L562.47 202.378C562.47 200.742 563.53 199.784 565.153 199.784C566.776 199.784 567.836 200.742 567.836 202.378L567.836 204.767L571.388 204.767ZM563.735 204.767L566.571 204.767L566.571 202.467C566.571 201.739 566.175 201.304 565.46 201.304L564.846 201.304C564.131 201.304 563.735 201.739 563.735 202.467L563.735 204.767ZM571.388 192.361L571.388 197.434L562.47 197.434L562.47 195.99L570.11 195.99L570.11 192.361L571.388 192.361ZM571.541 187.104C571.541 189.429 569.931 190.949 566.929 190.949C563.926 190.949 562.317 189.429 562.317 187.104C562.317 184.778 563.926 183.258 566.929 183.258C569.931 183.258 571.541 184.778 571.541 187.104ZM570.251 187.104C570.251 185.724 569.254 184.804 567.632 184.804L566.226 184.804C564.604 184.804 563.607 185.724 563.607 187.104C563.607 188.483 564.604 189.403 566.226 189.403L567.632 189.403C569.254 189.403 570.251 188.483 570.251 187.104ZM571.388 177.638L571.388 179.082L567.874 179.082L562.47 182.148L562.47 180.5L566.443 178.328L566.443 178.29L562.47 176.13L562.47 174.546L567.849 177.638L571.388 177.638ZM571.388 172.538L562.47 172.538L562.47 170.826L567.006 168.436L567.006 168.36L562.47 165.971L562.47 164.335L571.388 164.335L571.388 165.715L564.565 165.715L564.565 165.779L566.009 166.482L569.574 168.436L566.009 170.391L564.565 171.094L564.565 171.158L571.388 171.158L571.388 172.538ZM571.388 155.654L571.388 161.365L562.47 161.365L562.47 155.654L563.748 155.654L563.748 159.921L566.226 159.921L566.226 156.05L567.504 156.05L567.504 159.921L570.11 159.921L570.11 155.654L571.388 155.654ZM571.388 147.71L566.456 150.623L564.565 151.607L564.565 151.645L571.388 151.645L571.388 153.025L562.47 153.025L562.47 151.415L567.402 148.502L569.293 147.518L569.293 147.48L562.47 147.48L562.47 146.1L571.388 146.1L571.388 147.71ZM571.388 141.272L563.748 141.272L563.748 143.93L562.47 143.93L562.47 137.171L563.748 137.171L563.748 139.828L571.388 139.828L571.388 141.272Z" fill="#171717"/>
</svg>
