<svg width="521" height="400" viewBox="0 0 521 400" fill="none" xmlns="http://www.w3.org/2000/svg">
<rect x="1.15652" y="0.560547" width="147.046" height="213.759" rx="11.0433" fill="#FBBF24"/>
<rect x="1.15652" y="0.560547" width="147.046" height="213.759" rx="11.0433" stroke="#171717" stroke-width="1.04784"/>
<path d="M84.9598 50.3235H64.3998C56.8225 50.3235 50.6798 56.4661 50.6798 64.0435V84.6035C50.6798 92.1808 56.8225 98.3235 64.3998 98.3235H84.9598C92.5372 98.3235 98.6798 92.1808 98.6798 84.6035V64.0435C98.6798 56.4661 92.5372 50.3235 84.9598 50.3235Z" fill="#FBBF24"/>
<path fill-rule="evenodd" clip-rule="evenodd" d="M80.2499 65.0247H82.8749C83.339 65.0247 83.7841 65.209 84.1123 65.5372C84.4405 65.8654 84.6249 66.3105 84.6249 66.7747V85.1497C84.6249 85.6138 84.4405 86.0589 84.1123 86.3871C83.7841 86.7153 83.339 86.8997 82.8749 86.8997H67.1249C66.6607 86.8997 66.2156 86.7153 65.8874 86.3871C65.5592 86.0589 65.3749 85.6138 65.3749 85.1497V66.7747C65.3749 66.3105 65.5592 65.8654 65.8874 65.5372C66.2156 65.209 66.6607 65.0247 67.1249 65.0247H69.7499V64.1497C69.7499 63.6855 69.9342 63.2404 70.2624 62.9122C70.5906 62.584 71.0357 62.3997 71.4999 62.3997H78.4999C78.964 62.3997 79.4091 62.584 79.7373 62.9122C80.0655 63.2404 80.2499 63.6855 80.2499 64.1497V65.0247ZM78.4999 64.1497H71.4999V67.6497H78.4999V64.1497ZM67.1249 85.1497H82.8749V66.7747H80.2499V69.3997H69.7499V66.7747H67.1249V85.1497ZM70.1086 75.166L73.2499 78.3072L79.8911 71.6572L81.1249 72.8997L73.2499 80.7747L68.8749 76.3997L70.1086 75.166Z" fill="black"/>
<path d="M36.4527 136.317V132.669H32.6607V136.317H31.3047V127.941H32.6607V131.469H36.4527V127.941H37.8087V136.317H36.4527ZM43.5552 136.317V135.285H43.5072C43.2792 135.897 42.7872 136.461 41.7552 136.461C40.4712 136.461 39.7152 135.585 39.7152 134.049V130.077H41.0232V133.881C41.0232 134.829 41.4192 135.333 42.2232 135.333C42.8952 135.333 43.5552 134.985 43.5552 134.253V130.077H44.8632V136.317H43.5552ZM48.0441 136.317H46.7361V130.077H48.0441V131.109H48.1041C48.3561 130.461 48.8241 129.933 49.7721 129.933C50.6121 129.933 51.3201 130.341 51.6201 131.205H51.6561C51.8841 130.509 52.5321 129.933 53.5401 129.933C54.7761 129.933 55.5081 130.821 55.5081 132.357V136.317H54.2001V132.513C54.2001 131.553 53.8401 131.061 53.0481 131.061C52.3881 131.061 51.7761 131.409 51.7761 132.129V136.317H50.4681V132.513C50.4681 131.541 50.0961 131.061 49.3281 131.061C48.6801 131.061 48.0441 131.409 48.0441 132.129V136.317ZM62.6221 136.317H61.8901C61.2061 136.317 60.8461 135.885 60.7621 135.273H60.7021C60.4621 136.053 59.7901 136.461 58.8781 136.461C57.5941 136.461 56.8621 135.729 56.8621 134.601C56.8621 133.365 57.7861 132.729 59.5261 132.729H60.6541V132.201C60.6541 131.445 60.2461 131.001 59.3701 131.001C58.6381 131.001 58.1941 131.361 57.8821 131.853L57.1021 131.145C57.5101 130.449 58.2421 129.933 59.4541 129.933C61.0621 129.933 61.9621 130.725 61.9621 132.117V135.249H62.6221V136.317ZM59.2501 135.465C60.0541 135.465 60.6541 135.081 60.6541 134.469V133.569H59.5501C58.6381 133.569 58.1941 133.869 58.1941 134.409V134.625C58.1941 135.177 58.6021 135.465 59.2501 135.465ZM65.2121 136.317H63.9041V130.077H65.2121V131.109H65.2721C65.5361 130.437 66.0641 129.933 67.0241 129.933C68.2961 129.933 69.0521 130.821 69.0521 132.357V136.317H67.7441V132.525C67.7441 131.553 67.3721 131.061 66.5681 131.061C65.8841 131.061 65.2121 131.409 65.2121 132.141V136.317ZM77.6249 136.317V135.285H77.5649C77.3009 136.017 76.6409 136.461 75.8129 136.461C74.2409 136.461 73.3289 135.249 73.3289 133.197C73.3289 131.145 74.2409 129.933 75.8129 129.933C76.6409 129.933 77.3009 130.365 77.5649 131.109H77.6249V127.437H78.9329V136.317H77.6249ZM76.2089 135.333C77.0009 135.333 77.6249 134.901 77.6249 134.265V132.129C77.6249 131.493 77.0009 131.061 76.2089 131.061C75.3089 131.061 74.7089 131.697 74.7089 132.657V133.737C74.7089 134.697 75.3089 135.333 76.2089 135.333ZM86.1065 136.317H85.3745C84.6905 136.317 84.3305 135.885 84.2465 135.273H84.1865C83.9465 136.053 83.2745 136.461 82.3625 136.461C81.0785 136.461 80.3465 135.729 80.3465 134.601C80.3465 133.365 81.2705 132.729 83.0105 132.729H84.1385V132.201C84.1385 131.445 83.7305 131.001 82.8545 131.001C82.1225 131.001 81.6785 131.361 81.3665 131.853L80.5865 131.145C80.9945 130.449 81.7265 129.933 82.9385 129.933C84.5465 129.933 85.4465 130.725 85.4465 132.117V135.249H86.1065V136.317ZM82.7345 135.465C83.5385 135.465 84.1385 135.081 84.1385 134.469V133.569H83.0345C82.1225 133.569 81.6785 133.869 81.6785 134.409V134.625C81.6785 135.177 82.0865 135.465 82.7345 135.465ZM90.2213 136.317H89.0813C88.1813 136.317 87.7013 135.813 87.7013 134.961V131.145H86.7293V130.077H87.2573C87.6893 130.077 87.8333 129.897 87.8333 129.465V128.373H89.0093V130.077H90.3173V131.145H89.0093V135.249H90.2213V136.317ZM97.0401 136.317H96.3081C95.6241 136.317 95.2641 135.885 95.1801 135.273H95.1201C94.8801 136.053 94.2081 136.461 93.2961 136.461C92.0121 136.461 91.2801 135.729 91.2801 134.601C91.2801 133.365 92.2041 132.729 93.9441 132.729H95.0721V132.201C95.0721 131.445 94.6641 131.001 93.7881 131.001C93.0561 131.001 92.6121 131.361 92.3001 131.853L91.5201 131.145C91.9281 130.449 92.6601 129.933 93.8721 129.933C95.4801 129.933 96.3801 130.725 96.3801 132.117V135.249H97.0401V136.317ZM93.6681 135.465C94.4721 135.465 95.0721 135.081 95.0721 134.469V133.569H93.9681C93.0561 133.569 92.6121 133.869 92.6121 134.409V134.625C92.6121 135.177 93.0201 135.465 93.6681 135.465ZM101.482 136.317V131.145H100.534V130.077H101.482V129.045C101.482 128.037 102.022 127.437 103.066 127.437H104.098V128.505H102.79V130.077H104.098V131.145H102.79V136.317H101.482ZM107.637 136.461C105.897 136.461 104.769 135.189 104.769 133.197C104.769 131.205 105.897 129.933 107.637 129.933C109.377 129.933 110.505 131.205 110.505 133.197C110.505 135.189 109.377 136.461 107.637 136.461ZM107.637 135.381C108.525 135.381 109.125 134.829 109.125 133.725V132.669C109.125 131.565 108.525 131.013 107.637 131.013C106.749 131.013 106.149 131.565 106.149 132.669V133.725C106.149 134.829 106.749 135.381 107.637 135.381ZM113.271 136.317H111.963V130.077H113.271V131.277H113.331C113.511 130.641 114.051 130.077 115.047 130.077H115.395V131.337H114.879C113.847 131.337 113.271 131.685 113.271 132.333V136.317ZM47.6967 155.317V145.077H49.6624L52.4056 150.285H52.4937L55.2369 145.077H57.1146V155.317H55.5303V147.483H55.4569L54.6501 149.141L52.4056 153.234L50.1612 149.141L49.3543 147.483H49.281V155.317H47.6967ZM64.4855 155.493C61.8156 155.493 60.0699 153.645 60.0699 150.197C60.0699 146.75 61.8156 144.901 64.4855 144.901C67.1554 144.901 68.9011 146.75 68.9011 150.197C68.9011 153.645 67.1554 155.493 64.4855 155.493ZM64.4855 154.011C66.0698 154.011 67.126 152.867 67.126 151.004V149.39C67.126 147.527 66.0698 146.383 64.4855 146.383C62.9011 146.383 61.8449 147.527 61.8449 149.39V151.004C61.8449 152.867 62.9011 154.011 64.4855 154.011ZM71.8484 155.317V145.077H75.4718C78.083 145.077 79.7994 146.779 79.7994 150.197C79.7994 153.615 78.083 155.317 75.4718 155.317H71.8484ZM73.5061 153.85H75.4718C76.9975 153.85 78.0244 152.867 78.0244 151.019V149.376C78.0244 147.527 76.9975 146.544 75.4718 146.544H73.5061V153.85ZM89.2998 155.317H82.7424V145.077H89.2998V146.544H84.4001V149.39H88.845V150.857H84.4001V153.85H89.2998V155.317ZM98.1423 155.317H92.3184V145.077H93.9761V153.85H98.1423V155.317ZM34.6006 174.317H28.0432V164.077H34.6006V165.544H29.7009V168.39H34.1458V169.857H29.7009V172.85H34.6006V174.317ZM41.8169 174.317H39.8951L36.5358 164.077H38.2521L39.8804 169.138L40.8633 172.703H40.922L41.9195 169.138L43.5479 164.077H45.2202L41.8169 174.317ZM55.0644 174.317H53.3334L52.4092 171.544H48.5804L47.6855 174.317H45.9985L49.4899 164.077H51.573L55.0644 174.317ZM51.9984 170.121L50.5315 165.603H50.4581L48.9765 170.121H51.9984ZM63.3544 174.317H57.5305V164.077H59.1882V172.85H63.3544V174.317ZM65.429 164.077H67.0574V170.385C67.0574 172.116 67.6588 173.011 69.2578 173.011C70.8568 173.011 71.4583 172.116 71.4583 170.385V164.077H73.0866V170.121C73.0866 173.114 72.0597 174.493 69.2578 174.493C66.4559 174.493 65.429 173.114 65.429 170.121V164.077ZM84.2938 174.317H82.5628L81.6386 171.544H77.8098L76.915 174.317H75.2279L78.7193 164.077H80.8024L84.2938 174.317ZM81.2279 170.121L79.7609 165.603H79.6875L78.2059 170.121H81.2279ZM87.9419 174.317V165.544H84.8906V164.077H92.6509V165.544H89.5996V174.317H87.9419ZM99.0805 174.317H94.6209V172.967H96.0145V165.427H94.6209V164.077H99.0805V165.427H97.6722V172.967H99.0805V174.317ZM106.005 174.493C103.335 174.493 101.589 172.645 101.589 169.197C101.589 165.75 103.335 163.901 106.005 163.901C108.675 163.901 110.42 165.75 110.42 169.197C110.42 172.645 108.675 174.493 106.005 174.493ZM106.005 173.011C107.589 173.011 108.645 171.867 108.645 170.004V168.39C108.645 166.527 107.589 165.383 106.005 165.383C104.42 165.383 103.364 166.527 103.364 168.39V170.004C103.364 171.867 104.42 173.011 106.005 173.011ZM119.47 174.317L116.126 168.654L114.996 166.483H114.952V174.317H113.368V164.077H115.216L118.561 169.74L119.69 171.911H119.734V164.077H121.319V174.317H119.47Z" fill="#171717"/>
<path d="M176.382 107.81C176.587 107.606 176.587 107.274 176.382 107.069L173.048 103.735C172.843 103.531 172.512 103.531 172.307 103.735C172.102 103.94 172.102 104.272 172.307 104.476L175.271 107.44L172.307 110.404C172.102 110.608 172.102 110.94 172.307 111.145C172.512 111.349 172.843 111.349 173.048 111.145L176.382 107.81ZM159.246 107.964L176.012 107.964L176.012 106.916L159.246 106.916L159.246 107.964Z" fill="black"/>
<rect x="187.055" y="0.560547" width="147.047" height="213.759" rx="11.0433" stroke="#171717" stroke-width="1.04784"/>
<rect x="236.578" y="50.3235" width="48" height="48" rx="14.4" fill="#4ADE80"/>
<rect x="259.266" y="66.011" width="5.56846" height="13.6118" rx="1" transform="rotate(-45 259.266 66.011)" stroke="black" stroke-width="1.75"/>
<rect x="261.891" y="82.636" width="5.56846" height="13.6118" rx="1" transform="rotate(135 261.891 82.636)" stroke="black" stroke-width="1.75"/>
<path d="M268.285 61.0306C267.895 60.6401 267.261 60.6401 266.871 61.0306L264.516 63.386L271.516 70.386L273.871 68.0306C274.261 67.6401 274.261 67.0069 273.871 66.6164L268.285 61.0306Z" stroke="black" stroke-width="1.75"/>
<path d="M252.871 87.6164C253.261 88.0069 253.895 88.0069 254.285 87.6164L256.641 85.261L249.641 78.261L247.285 80.6164C246.895 81.0069 246.895 81.6401 247.285 82.0306L252.871 87.6164Z" stroke="black" stroke-width="1.75"/>
<path d="M257.078 77.8235L263.859 71.0422" stroke="black" stroke-width="1.75"/>
<path d="M222.351 136.801V133.153H218.559V136.801H217.203V128.425H218.559V131.953H222.351V128.425H223.707V136.801H222.351ZM229.453 136.801V135.769H229.405C229.177 136.381 228.685 136.945 227.653 136.945C226.369 136.945 225.613 136.069 225.613 134.533V130.561H226.921V134.365C226.921 135.313 227.317 135.817 228.121 135.817C228.793 135.817 229.453 135.469 229.453 134.737V130.561H230.761V136.801H229.453ZM233.942 136.801H232.634V130.561H233.942V131.593H234.002C234.254 130.945 234.722 130.417 235.67 130.417C236.51 130.417 237.218 130.825 237.518 131.689H237.554C237.782 130.993 238.43 130.417 239.438 130.417C240.674 130.417 241.406 131.305 241.406 132.841V136.801H240.098V132.997C240.098 132.037 239.738 131.545 238.946 131.545C238.286 131.545 237.674 131.893 237.674 132.613V136.801H236.366V132.997C236.366 132.025 235.994 131.545 235.226 131.545C234.578 131.545 233.942 131.893 233.942 132.613V136.801ZM248.52 136.801H247.788C247.104 136.801 246.744 136.369 246.66 135.757H246.6C246.36 136.537 245.688 136.945 244.776 136.945C243.492 136.945 242.76 136.213 242.76 135.085C242.76 133.849 243.684 133.213 245.424 133.213H246.552V132.685C246.552 131.929 246.144 131.485 245.268 131.485C244.536 131.485 244.092 131.845 243.78 132.337L243 131.629C243.408 130.933 244.14 130.417 245.352 130.417C246.96 130.417 247.86 131.209 247.86 132.601V135.733H248.52V136.801ZM245.148 135.949C245.952 135.949 246.552 135.565 246.552 134.953V134.053H245.448C244.536 134.053 244.092 134.353 244.092 134.893V135.109C244.092 135.661 244.5 135.949 245.148 135.949ZM251.11 136.801H249.802V130.561H251.11V131.593H251.17C251.434 130.921 251.962 130.417 252.922 130.417C254.194 130.417 254.95 131.305 254.95 132.841V136.801H253.642V133.009C253.642 132.037 253.27 131.545 252.466 131.545C251.782 131.545 251.11 131.893 251.11 132.625V136.801ZM263.523 136.801V135.769H263.463C263.199 136.501 262.539 136.945 261.711 136.945C260.139 136.945 259.227 135.733 259.227 133.681C259.227 131.629 260.139 130.417 261.711 130.417C262.539 130.417 263.199 130.849 263.463 131.593H263.523V127.921H264.831V136.801H263.523ZM262.107 135.817C262.899 135.817 263.523 135.385 263.523 134.749V132.613C263.523 131.977 262.899 131.545 262.107 131.545C261.207 131.545 260.607 132.181 260.607 133.141V134.221C260.607 135.181 261.207 135.817 262.107 135.817ZM272.005 136.801H271.273C270.589 136.801 270.229 136.369 270.145 135.757H270.085C269.845 136.537 269.173 136.945 268.261 136.945C266.977 136.945 266.245 136.213 266.245 135.085C266.245 133.849 267.169 133.213 268.909 133.213H270.037V132.685C270.037 131.929 269.629 131.485 268.753 131.485C268.021 131.485 267.577 131.845 267.265 132.337L266.485 131.629C266.893 130.933 267.625 130.417 268.837 130.417C270.445 130.417 271.345 131.209 271.345 132.601V135.733H272.005V136.801ZM268.633 135.949C269.437 135.949 270.037 135.565 270.037 134.953V134.053H268.933C268.021 134.053 267.577 134.353 267.577 134.893V135.109C267.577 135.661 267.985 135.949 268.633 135.949ZM276.119 136.801H274.979C274.079 136.801 273.599 136.297 273.599 135.445V131.629H272.627V130.561H273.155C273.587 130.561 273.731 130.381 273.731 129.949V128.857H274.907V130.561H276.215V131.629H274.907V135.733H276.119V136.801ZM282.938 136.801H282.206C281.522 136.801 281.162 136.369 281.078 135.757H281.018C280.778 136.537 280.106 136.945 279.194 136.945C277.91 136.945 277.178 136.213 277.178 135.085C277.178 133.849 278.102 133.213 279.842 133.213H280.97V132.685C280.97 131.929 280.562 131.485 279.686 131.485C278.954 131.485 278.51 131.845 278.198 132.337L277.418 131.629C277.826 130.933 278.558 130.417 279.77 130.417C281.378 130.417 282.278 131.209 282.278 132.601V135.733H282.938V136.801ZM279.566 135.949C280.37 135.949 280.97 135.565 280.97 134.953V134.053H279.866C278.954 134.053 278.51 134.353 278.51 134.893V135.109C278.51 135.661 278.918 135.949 279.566 135.949ZM287.38 136.801V131.629H286.432V130.561H287.38V129.529C287.38 128.521 287.92 127.921 288.964 127.921H289.996V128.989H288.688V130.561H289.996V131.629H288.688V136.801H287.38ZM293.535 136.945C291.795 136.945 290.667 135.673 290.667 133.681C290.667 131.689 291.795 130.417 293.535 130.417C295.275 130.417 296.403 131.689 296.403 133.681C296.403 135.673 295.275 136.945 293.535 136.945ZM293.535 135.865C294.423 135.865 295.023 135.313 295.023 134.209V133.153C295.023 132.049 294.423 131.497 293.535 131.497C292.647 131.497 292.047 132.049 292.047 133.153V134.209C292.047 135.313 292.647 135.865 293.535 135.865ZM299.169 136.801H297.861V130.561H299.169V131.761H299.229C299.409 131.125 299.949 130.561 300.945 130.561H301.293V131.821H300.777C299.745 131.821 299.169 132.169 299.169 132.817V136.801ZM225.258 155.801V147.029H222.207V145.562H229.967V147.029H226.916V155.801H225.258ZM234.121 151.664V155.801H232.463V145.562H236.879C238.712 145.562 239.842 146.75 239.842 148.642C239.842 150.095 239.152 151.107 237.847 151.488L240.062 155.801H238.214L236.16 151.664H234.121ZM234.121 150.271H236.761C237.597 150.271 238.096 149.816 238.096 148.994V148.29C238.096 147.469 237.597 147.014 236.761 147.014H234.121V150.271ZM251.083 155.801H249.352L248.428 153.028H244.599L243.704 155.801H242.017L245.508 145.562H247.591L251.083 155.801ZM248.017 151.605L246.55 147.087H246.477L244.995 151.605H248.017ZM257.568 155.801H253.109V154.451H254.503V146.911H253.109V145.562H257.568V146.911H256.16V154.451H257.568V155.801ZM266.635 155.801L263.29 150.139L262.16 147.967H262.116V155.801H260.532V145.562H262.38L265.725 151.224L266.855 153.395H266.899V145.562H268.483V155.801H266.635ZM275.904 155.801H271.444V154.451H272.838V146.911H271.444V145.562H275.904V146.911H274.496V154.451H275.904V155.801ZM284.97 155.801L281.625 150.139L280.496 147.967H280.452V155.801H278.867V145.562H280.716L284.061 151.224L285.19 153.395H285.234V145.562H286.818V155.801H284.97ZM296.807 155.801V154.246H296.748C296.542 155.229 295.545 155.977 293.99 155.977C291.555 155.977 289.765 154.114 289.765 150.681C289.765 147.263 291.555 145.386 294.239 145.386C296.073 145.386 297.349 146.251 298.053 147.689L296.704 148.481C296.308 147.527 295.486 146.867 294.239 146.867C292.626 146.867 291.54 147.967 291.54 149.845V151.517C291.54 153.395 292.626 154.495 294.239 154.495C295.53 154.495 296.66 153.835 296.66 152.559V151.767H294.547V150.344H298.259V155.801H296.807ZM230.504 174.801V164.562H232.47L235.213 169.769H235.301L238.045 164.562H239.922V174.801H238.338V166.967H238.265L237.458 168.625L235.213 172.718L232.969 168.625L232.162 166.967H232.089V174.801H230.504ZM247.293 174.977C244.623 174.977 242.878 173.129 242.878 169.681C242.878 166.234 244.623 164.386 247.293 164.386C249.963 164.386 251.709 166.234 251.709 169.681C251.709 173.129 249.963 174.977 247.293 174.977ZM247.293 173.495C248.877 173.495 249.934 172.351 249.934 170.488V168.874C249.934 167.011 248.877 165.867 247.293 165.867C245.709 165.867 244.653 167.011 244.653 168.874V170.488C244.653 172.351 245.709 173.495 247.293 173.495ZM254.656 174.801V164.562H258.28C260.891 164.562 262.607 166.263 262.607 169.681C262.607 173.099 260.891 174.801 258.28 174.801H254.656ZM256.314 173.334H258.28C259.805 173.334 260.832 172.351 260.832 170.503V168.86C260.832 167.011 259.805 166.029 258.28 166.029H256.314V173.334ZM272.107 174.801H265.55V164.562H272.107V166.029H267.208V168.874H271.653V170.341H267.208V173.334H272.107V174.801ZM280.95 174.801H275.126V164.562H276.784V173.334H280.95V174.801ZM286.593 174.977C284.877 174.977 283.703 174.302 282.853 173.246L283.997 172.175C284.716 173.055 285.566 173.51 286.681 173.51C287.987 173.51 288.662 172.865 288.662 171.882C288.662 171.09 288.251 170.635 287.063 170.4L286.153 170.239C284.173 169.872 283.161 168.948 283.161 167.319C283.161 165.5 284.569 164.386 286.74 164.386C288.28 164.386 289.41 164.943 290.202 165.955L289.043 166.982C288.515 166.293 287.782 165.852 286.652 165.852C285.478 165.852 284.804 166.337 284.804 167.231C284.804 168.082 285.332 168.449 286.432 168.669L287.341 168.86C289.381 169.256 290.305 170.165 290.305 171.794C290.305 173.701 288.94 174.977 286.593 174.977Z" fill="#171717"/>
<path d="M362.281 107.81C362.485 107.606 362.485 107.274 362.281 107.069L358.946 103.735C358.742 103.531 358.41 103.531 358.205 103.735C358.001 103.94 358.001 104.272 358.205 104.476L361.169 107.44L358.205 110.404C358.001 110.608 358.001 110.94 358.205 111.145C358.41 111.349 358.742 111.349 358.946 111.145L362.281 107.81ZM345.145 107.964L361.91 107.964L361.91 106.916L345.145 106.916L345.145 107.964Z" fill="black"/>
<rect x="372.953" y="0.560547" width="147.047" height="213.759" rx="11.0433" stroke="#171717" stroke-width="1.04784"/>
<rect x="422.477" y="50.3235" width="48" height="48" rx="14.4" fill="#FB923C"/>
<path d="M453.477 72.5735H451.727V67.3235C451.727 65.9311 451.173 64.5957 450.189 63.6112C449.204 62.6266 447.869 62.0735 446.477 62.0735C445.084 62.0735 443.749 62.6266 442.764 63.6112C441.78 64.5957 441.227 65.9311 441.227 67.3235V72.5735H439.477C439.012 72.5735 438.567 72.7579 438.239 73.0861C437.911 73.4142 437.727 73.8594 437.727 74.3235V84.8235C437.727 85.2876 437.911 85.7327 438.239 86.0609C438.567 86.3891 439.012 86.5735 439.477 86.5735H453.477C453.941 86.5735 454.386 86.3891 454.714 86.0609C455.042 85.7327 455.227 85.2876 455.227 84.8235V74.3235C455.227 73.8594 455.042 73.4142 454.714 73.0861C454.386 72.7579 453.941 72.5735 453.477 72.5735ZM442.977 67.3235C442.977 66.3952 443.345 65.505 444.002 64.8486C444.658 64.1922 445.548 63.8235 446.477 63.8235C447.405 63.8235 448.295 64.1922 448.951 64.8486C449.608 65.505 449.977 66.3952 449.977 67.3235V72.5735H442.977V67.3235ZM453.477 84.8235H439.477V74.3235H453.477V84.8235Z" fill="black"/>
<path d="M408.249 136.801V133.153H404.457V136.801H403.101V128.425H404.457V131.953H408.249V128.425H409.605V136.801H408.249ZM415.352 136.801V135.769H415.304C415.076 136.381 414.584 136.945 413.552 136.945C412.268 136.945 411.512 136.069 411.512 134.533V130.561H412.82V134.365C412.82 135.313 413.216 135.817 414.02 135.817C414.692 135.817 415.352 135.469 415.352 134.737V130.561H416.66V136.801H415.352ZM419.841 136.801H418.533V130.561H419.841V131.593H419.901C420.153 130.945 420.621 130.417 421.569 130.417C422.409 130.417 423.117 130.825 423.417 131.689H423.453C423.681 130.993 424.329 130.417 425.337 130.417C426.573 130.417 427.305 131.305 427.305 132.841V136.801H425.997V132.997C425.997 132.037 425.637 131.545 424.845 131.545C424.185 131.545 423.573 131.893 423.573 132.613V136.801H422.265V132.997C422.265 132.025 421.893 131.545 421.125 131.545C420.477 131.545 419.841 131.893 419.841 132.613V136.801ZM434.419 136.801H433.687C433.003 136.801 432.643 136.369 432.559 135.757H432.499C432.259 136.537 431.587 136.945 430.675 136.945C429.391 136.945 428.659 136.213 428.659 135.085C428.659 133.849 429.583 133.213 431.323 133.213H432.451V132.685C432.451 131.929 432.043 131.485 431.167 131.485C430.435 131.485 429.991 131.845 429.679 132.337L428.899 131.629C429.307 130.933 430.039 130.417 431.251 130.417C432.859 130.417 433.759 131.209 433.759 132.601V135.733H434.419V136.801ZM431.047 135.949C431.851 135.949 432.451 135.565 432.451 134.953V134.053H431.347C430.435 134.053 429.991 134.353 429.991 134.893V135.109C429.991 135.661 430.399 135.949 431.047 135.949ZM437.009 136.801H435.701V130.561H437.009V131.593H437.069C437.333 130.921 437.861 130.417 438.821 130.417C440.093 130.417 440.849 131.305 440.849 132.841V136.801H439.541V133.009C439.541 132.037 439.169 131.545 438.365 131.545C437.681 131.545 437.009 131.893 437.009 132.625V136.801ZM449.421 136.801V135.769H449.361C449.097 136.501 448.437 136.945 447.609 136.945C446.037 136.945 445.125 135.733 445.125 133.681C445.125 131.629 446.037 130.417 447.609 130.417C448.437 130.417 449.097 130.849 449.361 131.593H449.421V127.921H450.729V136.801H449.421ZM448.005 135.817C448.797 135.817 449.421 135.385 449.421 134.749V132.613C449.421 131.977 448.797 131.545 448.005 131.545C447.105 131.545 446.505 132.181 446.505 133.141V134.221C446.505 135.181 447.105 135.817 448.005 135.817ZM457.903 136.801H457.171C456.487 136.801 456.127 136.369 456.043 135.757H455.983C455.743 136.537 455.071 136.945 454.159 136.945C452.875 136.945 452.143 136.213 452.143 135.085C452.143 133.849 453.067 133.213 454.807 133.213H455.935V132.685C455.935 131.929 455.527 131.485 454.651 131.485C453.919 131.485 453.475 131.845 453.163 132.337L452.383 131.629C452.791 130.933 453.523 130.417 454.735 130.417C456.343 130.417 457.243 131.209 457.243 132.601V135.733H457.903V136.801ZM454.531 135.949C455.335 135.949 455.935 135.565 455.935 134.953V134.053H454.831C453.919 134.053 453.475 134.353 453.475 134.893V135.109C453.475 135.661 453.883 135.949 454.531 135.949ZM462.018 136.801H460.878C459.978 136.801 459.498 136.297 459.498 135.445V131.629H458.526V130.561H459.054C459.486 130.561 459.63 130.381 459.63 129.949V128.857H460.806V130.561H462.114V131.629H460.806V135.733H462.018V136.801ZM468.837 136.801H468.105C467.421 136.801 467.061 136.369 466.977 135.757H466.917C466.677 136.537 466.005 136.945 465.093 136.945C463.809 136.945 463.077 136.213 463.077 135.085C463.077 133.849 464.001 133.213 465.741 133.213H466.869V132.685C466.869 131.929 466.461 131.485 465.585 131.485C464.853 131.485 464.409 131.845 464.097 132.337L463.317 131.629C463.725 130.933 464.457 130.417 465.669 130.417C467.277 130.417 468.177 131.209 468.177 132.601V135.733H468.837V136.801ZM465.465 135.949C466.269 135.949 466.869 135.565 466.869 134.953V134.053H465.765C464.853 134.053 464.409 134.353 464.409 134.893V135.109C464.409 135.661 464.817 135.949 465.465 135.949ZM473.279 136.801V131.629H472.331V130.561H473.279V129.529C473.279 128.521 473.819 127.921 474.863 127.921H475.895V128.989H474.587V130.561H475.895V131.629H474.587V136.801H473.279ZM479.434 136.945C477.694 136.945 476.566 135.673 476.566 133.681C476.566 131.689 477.694 130.417 479.434 130.417C481.174 130.417 482.302 131.689 482.302 133.681C482.302 135.673 481.174 136.945 479.434 136.945ZM479.434 135.865C480.322 135.865 480.922 135.313 480.922 134.209V133.153C480.922 132.049 480.322 131.497 479.434 131.497C478.546 131.497 477.946 132.049 477.946 133.153V134.209C477.946 135.313 478.546 135.865 479.434 135.865ZM485.067 136.801H483.759V130.561H485.067V131.761H485.127C485.307 131.125 485.847 130.561 486.843 130.561H487.191V131.821H486.675C485.643 131.821 485.067 132.169 485.067 132.817V136.801ZM414.244 155.977C412.528 155.977 411.354 155.302 410.503 154.246L411.647 153.175C412.366 154.055 413.217 154.51 414.332 154.51C415.637 154.51 416.312 153.865 416.312 152.882C416.312 152.09 415.902 151.635 414.713 151.4L413.804 151.239C411.823 150.872 410.811 149.948 410.811 148.319C410.811 146.5 412.219 145.386 414.391 145.386C415.931 145.386 417.06 145.943 417.853 146.955L416.694 147.982C416.166 147.293 415.432 146.852 414.303 146.852C413.129 146.852 412.454 147.337 412.454 148.231C412.454 149.082 412.982 149.449 414.082 149.669L414.992 149.86C417.031 150.256 417.955 151.165 417.955 152.794C417.955 154.701 416.591 155.977 414.244 155.977ZM428.953 155.801H427.222L426.297 153.028H422.469L421.574 155.801H419.887L423.378 145.562H425.461L428.953 155.801ZM425.887 151.605L424.42 147.087H424.346L422.865 151.605H425.887ZM433.076 155.801H431.419V145.562H437.815V147.029H433.076V149.874H437.287V151.341H433.076V155.801ZM447.223 155.801H440.665V145.562H447.223V147.029H442.323V149.874H446.768V151.341H442.323V154.334H447.223V155.801ZM452.383 155.801V147.029H449.332V145.562H457.092V147.029H454.041V155.801H452.383ZM463.723 155.801H462.066V151.767L458.545 145.562H460.437L462.931 150.124H462.975L465.454 145.562H467.274L463.723 151.738V155.801ZM480.792 155.801L479.838 154.759C479.325 155.273 478.43 155.977 476.875 155.977C474.748 155.977 473.589 154.73 473.589 153.131C473.589 151.664 474.557 150.887 475.672 150.256C475.027 149.566 474.513 148.76 474.513 147.85C474.513 146.471 475.628 145.386 477.315 145.386C478.9 145.386 480.029 146.28 480.029 147.645C480.029 148.98 479.017 149.742 477.799 150.447L479.794 152.603C480.073 151.899 480.22 151.092 480.264 150.3H482.45V151.649H481.452C481.305 152.398 481.071 153.072 480.777 153.63L482.787 155.801H480.792ZM477.315 146.662C476.611 146.662 476.054 147.117 476.054 147.806V147.923C476.054 148.422 476.391 148.906 476.992 149.566C477.814 149.112 478.489 148.569 478.489 147.85V147.733C478.489 147.043 478.019 146.662 477.315 146.662ZM477.066 154.613C477.887 154.613 478.503 154.319 478.973 153.835L476.479 151.151C475.746 151.561 475.232 152.002 475.232 152.882V153.072C475.232 153.997 475.922 154.613 477.066 154.613ZM412.711 174.977C410.995 174.977 409.821 174.302 408.97 173.246L410.114 172.175C410.833 173.055 411.684 173.51 412.799 173.51C414.105 173.51 414.779 172.865 414.779 171.882C414.779 171.09 414.369 170.635 413.18 170.4L412.271 170.239C410.29 169.872 409.278 168.948 409.278 167.319C409.278 165.5 410.687 164.386 412.858 164.386C414.398 164.386 415.528 164.943 416.32 165.955L415.161 166.982C414.633 166.293 413.899 165.852 412.77 165.852C411.596 165.852 410.921 166.337 410.921 167.231C410.921 168.082 411.449 168.449 412.55 168.669L413.459 168.86C415.498 169.256 416.422 170.165 416.422 171.794C416.422 173.701 415.058 174.977 412.711 174.977ZM425.85 174.801H419.293V164.562H425.85V166.029H420.95V168.874H425.395V170.341H420.95V173.334H425.85V174.801ZM432.712 174.977C430.042 174.977 428.414 173.114 428.414 169.681C428.414 166.249 430.042 164.386 432.712 164.386C434.487 164.386 435.675 165.178 436.365 166.703L434.971 167.466C434.619 166.498 433.9 165.867 432.712 165.867C431.142 165.867 430.174 167.011 430.174 168.904V170.459C430.174 172.351 431.142 173.495 432.712 173.495C433.93 173.495 434.707 172.791 435.074 171.794L436.409 172.601C435.719 174.082 434.487 174.977 432.712 174.977ZM438.988 164.562H440.616V170.87C440.616 172.601 441.217 173.495 442.816 173.495C444.415 173.495 445.017 172.601 445.017 170.87V164.562H446.645V170.605C446.645 173.598 445.618 174.977 442.816 174.977C440.015 174.977 438.988 173.598 438.988 170.605V164.562ZM451.641 170.664V174.801H449.983V164.562H454.399C456.233 164.562 457.362 165.75 457.362 167.642C457.362 169.095 456.673 170.107 455.367 170.488L457.582 174.801H455.734L453.68 170.664H451.641ZM451.641 169.271H454.282C455.118 169.271 455.616 168.816 455.616 167.994V167.29C455.616 166.469 455.118 166.014 454.282 166.014H451.641V169.271ZM464.496 174.801H460.036V173.451H461.43V165.911H460.036V164.562H464.496V165.911H463.087V173.451H464.496V174.801ZM469.515 174.801V166.029H466.464V164.562H474.224V166.029H471.173V174.801H469.515ZM480.856 174.801H479.198V170.767L475.677 164.562H477.57L480.063 169.124H480.107L482.587 164.562H484.406L480.856 170.738V174.801Z" fill="#171717"/>
<path d="M48.1798 244.029C48.3844 244.234 48.7162 244.234 48.9208 244.029L52.255 240.695C52.4596 240.491 52.4596 240.159 52.255 239.954C52.0504 239.75 51.7186 239.75 51.514 239.954L48.5503 242.918L45.5866 239.954C45.382 239.75 45.0502 239.75 44.8456 239.954C44.641 240.159 44.641 240.491 44.8456 240.695L48.1798 244.029ZM48.0264 226.894L48.0264 243.659L49.0742 243.659L49.0742 226.894L48.0264 226.894Z" fill="black"/>
<path d="M99.217 226.523C99.0124 226.318 98.6806 226.318 98.476 226.523L95.1418 229.857C94.9372 230.062 94.9372 230.394 95.1418 230.598C95.3464 230.803 95.6782 230.803 95.8828 230.598L98.8465 227.634L101.81 230.598C102.015 230.803 102.347 230.803 102.551 230.598C102.756 230.394 102.756 230.062 102.551 229.857L99.217 226.523ZM99.3704 243.659V226.894H98.3226V243.659H99.3704Z" fill="black"/>
<path d="M235.059 244.029C235.264 244.234 235.596 244.234 235.8 244.029L239.135 240.695C239.339 240.491 239.339 240.159 239.135 239.954C238.93 239.75 238.598 239.75 238.394 239.954L235.43 242.918L232.466 239.954C232.262 239.75 231.93 239.75 231.725 239.954C231.521 240.159 231.521 240.491 231.725 240.695L235.059 244.029ZM234.906 226.894L234.906 243.659L235.954 243.659L235.954 226.894L234.906 226.894Z" fill="black"/>
<path d="M286.097 226.523C285.892 226.318 285.56 226.318 285.356 226.523L282.021 229.857C281.817 230.062 281.817 230.394 282.021 230.598C282.226 230.803 282.558 230.803 282.762 230.598L285.726 227.634L288.69 230.598C288.894 230.803 289.226 230.803 289.431 230.598C289.635 230.394 289.635 230.062 289.431 229.857L286.097 226.523ZM286.25 243.659V226.894H285.202V243.659H286.25Z" fill="black"/>
<path d="M421.939 244.029C422.144 244.234 422.475 244.234 422.68 244.029L426.014 240.695C426.219 240.491 426.219 240.159 426.014 239.954C425.809 239.75 425.478 239.75 425.273 239.954L422.309 242.918L419.346 239.954C419.141 239.75 418.809 239.75 418.605 239.954C418.4 240.159 418.4 240.491 418.605 240.695L421.939 244.029ZM421.785 226.894L421.785 243.659L422.833 243.659L422.833 226.894L421.785 226.894Z" fill="black"/>
<path d="M472.976 226.523C472.771 226.318 472.44 226.318 472.235 226.523L468.901 229.857C468.696 230.062 468.696 230.394 468.901 230.598C469.106 230.803 469.437 230.803 469.642 230.598L472.606 227.634L475.569 230.598C475.774 230.803 476.106 230.803 476.31 230.598C476.515 230.394 476.515 230.062 476.31 229.857L472.976 226.523ZM473.13 243.659V226.894H472.082V243.659H473.13Z" fill="black"/>
<rect x="1.15631" y="256.233" width="518.844" height="142.506" rx="11.0433" stroke="#171717" stroke-width="1.04784"/>
<rect x="123.908" y="303.486" width="48" height="48" rx="14.1096" fill="#93C5FD"/>
<path d="M149.242 341.131V326.731L137.166 319.486L147.908 313.041L159.908 320.241V334.731L149.242 341.131Z" fill="black"/>
<path d="M135.908 334.731V321.841L139.908 324.241V332.241L146.575 336.241V341.131L135.908 334.731Z" fill="black"/>
<path d="M208.333 323.986H202.509V313.746H204.167V322.519H208.333V323.986ZM219.296 323.986H217.565L216.64 321.213H212.812L211.917 323.986H210.23L213.721 313.746H215.804L219.296 323.986ZM216.23 319.79L214.763 315.272H214.689L213.208 319.79H216.23ZM221.762 323.986V313.746H226.295C227.982 313.746 229.023 314.788 229.023 316.387C229.023 317.927 228.084 318.485 227.248 318.558V318.646C228.084 318.675 229.39 319.321 229.39 321.037C229.39 322.695 228.26 323.986 226.749 323.986H221.762ZM223.419 319.453V322.563H226.265C227.116 322.563 227.644 322.093 227.644 321.257V320.759C227.644 319.922 227.116 319.453 226.265 319.453H223.419ZM223.419 315.169V318.074H225.987C226.793 318.074 227.277 317.634 227.277 316.856V316.387C227.277 315.609 226.793 315.169 225.987 315.169H223.419ZM238.869 323.986H232.312V313.746H238.869V315.213H233.97V318.059H238.414V319.526H233.97V322.519H238.869V323.986ZM247.712 323.986H241.888V313.746H243.546V322.519H247.712V323.986ZM250.289 323.986V313.746H254.822C256.509 313.746 257.551 314.788 257.551 316.387C257.551 317.927 256.612 318.485 255.776 318.558V318.646C256.612 318.675 257.917 319.321 257.917 321.037C257.917 322.695 256.788 323.986 255.277 323.986H250.289ZM251.947 319.453V322.563H254.793C255.644 322.563 256.172 322.093 256.172 321.257V320.759C256.172 319.922 255.644 319.453 254.793 319.453H251.947ZM251.947 315.169V318.074H254.514C255.321 318.074 255.805 317.634 255.805 316.856V316.387C255.805 315.609 255.321 315.169 254.514 315.169H251.947ZM264.8 324.162C262.13 324.162 260.385 322.313 260.385 318.866C260.385 315.419 262.13 313.57 264.8 313.57C267.47 313.57 269.216 315.419 269.216 318.866C269.216 322.313 267.47 324.162 264.8 324.162ZM264.8 322.68C266.384 322.68 267.441 321.536 267.441 319.673V318.059C267.441 316.196 266.384 315.052 264.8 315.052C263.216 315.052 262.16 316.196 262.16 318.059V319.673C262.16 321.536 263.216 322.68 264.8 322.68ZM270.894 323.986L274.21 318.749L271.012 313.746H272.963L275.295 317.561H275.325L277.686 313.746H279.52L276.293 318.734L279.652 323.986H277.701L275.222 319.908H275.178L272.728 323.986H270.894ZM286.444 323.986V313.746H290.068C292.679 313.746 294.395 315.448 294.395 318.866C294.395 322.284 292.679 323.986 290.068 323.986H286.444ZM288.102 322.519H290.068C291.593 322.519 292.62 321.536 292.62 319.688V318.045C292.62 316.196 291.593 315.213 290.068 315.213H288.102V322.519ZM305.121 323.986H303.39L302.466 321.213H298.637L297.743 323.986H296.056L299.547 313.746H301.63L305.121 323.986ZM302.055 319.79L300.588 315.272H300.515L299.033 319.79H302.055ZM308.769 323.986V315.213H305.718V313.746H313.478V315.213H310.427V323.986H308.769ZM323.142 323.986H321.411L320.486 321.213H316.658L315.763 323.986H314.076L317.567 313.746H319.65L323.142 323.986ZM320.076 319.79L318.609 315.272H318.535L317.054 319.79H320.076ZM331.613 323.986H329.955V313.746H336.351V315.213H331.613V318.059H335.823V319.526H331.613V323.986ZM346.426 323.986H344.695L343.771 321.213H339.942L339.047 323.986H337.36L340.851 313.746H342.934L346.426 323.986ZM343.36 319.79L341.893 315.272H341.82L340.338 319.79H343.36ZM352.42 324.162C349.75 324.162 348.122 322.299 348.122 318.866C348.122 315.433 349.75 313.57 352.42 313.57C354.195 313.57 355.384 314.363 356.073 315.888L354.679 316.651C354.327 315.683 353.609 315.052 352.42 315.052C350.851 315.052 349.882 316.196 349.882 318.089V319.644C349.882 321.536 350.851 322.68 352.42 322.68C353.638 322.68 354.415 321.976 354.782 320.979L356.117 321.785C355.428 323.267 354.195 324.162 352.42 324.162ZM360.896 323.986V315.213H357.845V313.746H365.605V315.213H362.554V323.986H360.896ZM371.733 324.162C369.063 324.162 367.317 322.313 367.317 318.866C367.317 315.419 369.063 313.57 371.733 313.57C374.403 313.57 376.148 315.419 376.148 318.866C376.148 322.313 374.403 324.162 371.733 324.162ZM371.733 322.68C373.317 322.68 374.373 321.536 374.373 319.673V318.059C374.373 316.196 373.317 315.052 371.733 315.052C370.148 315.052 369.092 316.196 369.092 318.059V319.673C369.092 321.536 370.148 322.68 371.733 322.68ZM380.753 319.849V323.986H379.096V313.746H383.511C385.345 313.746 386.474 314.935 386.474 316.827C386.474 318.279 385.785 319.292 384.479 319.673L386.694 323.986H384.846L382.792 319.849H380.753ZM380.753 318.455H383.394C384.23 318.455 384.729 318.001 384.729 317.179V316.475C384.729 315.653 384.23 315.199 383.394 315.199H380.753V318.455ZM393.108 323.986H391.45V319.952L387.929 313.746H389.822L392.316 318.309H392.36L394.839 313.746H396.658L393.108 319.922V323.986ZM203.636 342.986H202.28V334.61H205.88C207.416 334.61 208.316 335.606 208.316 337.13C208.316 338.654 207.416 339.65 205.88 339.65H203.636V342.986ZM203.636 335.798V338.462H205.796C206.48 338.462 206.888 338.09 206.888 337.418V336.842C206.888 336.17 206.48 335.798 205.796 335.798H203.636ZM211.879 342.986H211.039C210.151 342.986 209.707 342.494 209.707 341.69V334.106H211.015V341.918H211.879V342.986ZM218.433 342.986H217.701C217.017 342.986 216.657 342.554 216.573 341.942H216.513C216.273 342.722 215.601 343.13 214.689 343.13C213.405 343.13 212.673 342.398 212.673 341.27C212.673 340.034 213.597 339.398 215.337 339.398H216.465V338.87C216.465 338.114 216.057 337.67 215.181 337.67C214.449 337.67 214.005 338.03 213.693 338.522L212.913 337.814C213.321 337.118 214.053 336.602 215.265 336.602C216.873 336.602 217.773 337.394 217.773 338.786V341.918H218.433V342.986ZM215.061 342.134C215.865 342.134 216.465 341.75 216.465 341.138V340.238H215.361C214.449 340.238 214.005 340.538 214.005 341.078V341.294C214.005 341.846 214.413 342.134 215.061 342.134ZM222.548 342.986H221.408C220.508 342.986 220.028 342.482 220.028 341.63V337.814H219.056V336.746H219.584C220.016 336.746 220.16 336.566 220.16 336.134V335.042H221.336V336.746H222.644V337.814H221.336V341.918H222.548V342.986ZM224.316 342.986V337.814H223.368V336.746H224.316V335.714C224.316 334.706 224.856 334.106 225.9 334.106H226.932V335.174H225.624V336.746H226.932V337.814H225.624V342.986H224.316ZM230.472 343.13C228.732 343.13 227.604 341.858 227.604 339.866C227.604 337.874 228.732 336.602 230.472 336.602C232.212 336.602 233.34 337.874 233.34 339.866C233.34 341.858 232.212 343.13 230.472 343.13ZM230.472 342.05C231.36 342.05 231.96 341.498 231.96 340.394V339.338C231.96 338.234 231.36 337.682 230.472 337.682C229.584 337.682 228.984 338.234 228.984 339.338V340.394C228.984 341.498 229.584 342.05 230.472 342.05ZM236.105 342.986H234.797V336.746H236.105V337.946H236.165C236.345 337.31 236.885 336.746 237.881 336.746H238.229V338.006H237.713C236.681 338.006 236.105 338.354 236.105 339.002V342.986ZM240.699 342.986H239.391V336.746H240.699V337.778H240.759C241.011 337.13 241.479 336.602 242.427 336.602C243.267 336.602 243.975 337.01 244.275 337.874H244.311C244.539 337.178 245.187 336.602 246.195 336.602C247.431 336.602 248.163 337.49 248.163 339.026V342.986H246.855V339.182C246.855 338.222 246.495 337.73 245.703 337.73C245.043 337.73 244.431 338.078 244.431 338.798V342.986H243.123V339.182C243.123 338.21 242.751 337.73 241.983 337.73C241.335 337.73 240.699 338.078 240.699 338.798V342.986ZM256.061 342.23H254.885V339.854H252.677V338.786H254.885V336.41H256.061V338.786H258.269V339.854H256.061V342.23ZM265.444 343.13C264.04 343.13 263.08 342.578 262.384 341.714L263.32 340.838C263.908 341.558 264.604 341.93 265.516 341.93C266.584 341.93 267.136 341.402 267.136 340.598C267.136 339.95 266.8 339.578 265.828 339.386L265.084 339.254C263.464 338.954 262.636 338.198 262.636 336.866C262.636 335.378 263.788 334.466 265.564 334.466C266.824 334.466 267.748 334.922 268.396 335.75L267.448 336.59C267.016 336.026 266.416 335.666 265.492 335.666C264.532 335.666 263.98 336.062 263.98 336.794C263.98 337.49 264.412 337.79 265.312 337.97L266.056 338.126C267.724 338.45 268.48 339.194 268.48 340.526C268.48 342.086 267.364 343.13 265.444 343.13ZM272.46 343.13C270.684 343.13 269.592 341.858 269.592 339.866C269.592 337.874 270.684 336.602 272.46 336.602C274.296 336.602 275.232 337.982 275.232 339.71V340.202H270.948V340.406C270.948 341.366 271.536 342.05 272.592 342.05C273.36 342.05 273.876 341.69 274.236 341.114L275.004 341.87C274.536 342.626 273.624 343.13 272.46 343.13ZM272.46 337.622C271.56 337.622 270.948 338.294 270.948 339.254V339.338H273.852V339.218C273.852 338.258 273.324 337.622 272.46 337.622ZM277.988 342.986H276.68V336.746H277.988V337.946H278.048C278.228 337.31 278.768 336.746 279.764 336.746H280.112V338.006H279.596C278.564 338.006 277.988 338.354 277.988 339.002V342.986ZM284.271 342.986H282.735L280.611 336.746H281.907L282.855 339.59L283.491 341.774H283.563L284.199 339.59L285.171 336.746H286.419L284.271 342.986ZM288.18 335.63C287.64 335.63 287.4 335.342 287.4 334.946V334.742C287.4 334.346 287.64 334.058 288.18 334.058C288.72 334.058 288.948 334.346 288.948 334.742V334.946C288.948 335.342 288.72 335.63 288.18 335.63ZM287.52 342.986V336.746H288.828V342.986H287.52ZM293.107 343.13C291.307 343.13 290.275 341.858 290.275 339.866C290.275 337.874 291.307 336.602 293.107 336.602C294.355 336.602 295.147 337.214 295.519 338.138L294.439 338.642C294.259 338.066 293.815 337.694 293.107 337.694C292.147 337.694 291.655 338.354 291.655 339.314V340.43C291.655 341.39 292.147 342.05 293.107 342.05C293.863 342.05 294.307 341.642 294.571 341.018L295.567 341.546C295.159 342.566 294.307 343.13 293.107 343.13ZM299.19 343.13C297.414 343.13 296.322 341.858 296.322 339.866C296.322 337.874 297.414 336.602 299.19 336.602C301.026 336.602 301.962 337.982 301.962 339.71V340.202H297.678V340.406C297.678 341.366 298.266 342.05 299.322 342.05C300.09 342.05 300.606 341.69 300.966 341.114L301.734 341.87C301.266 342.626 300.354 343.13 299.19 343.13ZM299.19 337.622C298.29 337.622 297.678 338.294 297.678 339.254V339.338H300.582V339.218C300.582 338.258 300.054 337.622 299.19 337.622ZM305.39 343.13C304.214 343.13 303.446 342.686 302.858 341.954L303.698 341.186C304.154 341.738 304.718 342.074 305.462 342.074C306.218 342.074 306.602 341.762 306.602 341.234C306.602 340.838 306.362 340.538 305.714 340.454L305.138 340.382C303.866 340.226 303.086 339.674 303.086 338.522C303.086 337.31 304.034 336.602 305.402 336.602C306.53 336.602 307.166 336.974 307.73 337.598L306.926 338.366C306.602 337.982 306.074 337.658 305.402 337.658C304.682 337.658 304.346 337.97 304.346 338.438C304.346 338.918 304.646 339.134 305.306 339.242L305.882 339.314C307.25 339.518 307.862 340.118 307.862 341.126C307.862 342.326 306.89 343.13 305.39 343.13Z" fill="#171717"/>
</svg>
