<svg width="650" height="569" viewBox="0 0 650 569" fill="none" xmlns="http://www.w3.org/2000/svg">
<rect width="650" height="569" fill="#3B82F6"/>
<g filter="url(#filter0_d_10_829)">
<rect x="75.5001" y="83.1602" width="500" height="401.124" rx="24" fill="white"/>
</g>
<circle cx="106.75" cy="111.75" r="3.75" fill="#F5F5F5"/>
<circle cx="150.705" cy="111.75" r="3.75" fill="#F5F5F5"/>
<circle cx="194.659" cy="111.75" r="3.75" fill="#F5F5F5"/>
<circle cx="238.614" cy="111.75" r="3.75" fill="#F5F5F5"/>
<circle cx="282.568" cy="111.75" r="3.75" fill="#F5F5F5"/>
<circle cx="326.523" cy="111.75" r="3.75" fill="#F5F5F5"/>
<circle cx="370.477" cy="111.75" r="3.75" fill="#F5F5F5"/>
<circle cx="414.432" cy="111.75" r="3.75" fill="#F5F5F5"/>
<circle cx="458.386" cy="111.75" r="3.75" fill="#F5F5F5"/>
<circle cx="502.341" cy="111.75" r="3.75" fill="#F5F5F5"/>
<circle cx="546.296" cy="111.75" r="3.75" fill="#F5F5F5"/>
<circle cx="106.75" cy="155.361" r="3.75" fill="#F5F5F5"/>
<circle cx="150.705" cy="155.361" r="3.75" fill="#F5F5F5"/>
<circle cx="194.659" cy="155.361" r="3.75" fill="#F5F5F5"/>
<circle cx="238.614" cy="155.361" r="3.75" fill="#F5F5F5"/>
<circle cx="282.568" cy="155.361" r="3.75" fill="#F5F5F5"/>
<circle cx="326.523" cy="155.361" r="3.75" fill="#F5F5F5"/>
<circle cx="370.477" cy="155.361" r="3.75" fill="#F5F5F5"/>
<circle cx="414.432" cy="155.361" r="3.75" fill="#F5F5F5"/>
<circle cx="458.386" cy="155.361" r="3.75" fill="#F5F5F5"/>
<circle cx="502.341" cy="155.361" r="3.75" fill="#F5F5F5"/>
<circle cx="546.296" cy="155.361" r="3.75" fill="#F5F5F5"/>
<circle cx="106.75" cy="198.972" r="3.75" fill="#F5F5F5"/>
<circle cx="150.705" cy="198.972" r="3.75" fill="#F5F5F5"/>
<circle cx="194.659" cy="198.972" r="3.75" fill="#F5F5F5"/>
<circle cx="238.614" cy="198.972" r="3.75" fill="#F5F5F5"/>
<circle cx="282.568" cy="198.972" r="3.75" fill="#F5F5F5"/>
<circle cx="326.523" cy="198.972" r="3.75" fill="#F5F5F5"/>
<circle cx="370.477" cy="198.972" r="3.75" fill="#F5F5F5"/>
<circle cx="414.432" cy="198.972" r="3.75" fill="#F5F5F5"/>
<circle cx="458.386" cy="198.972" r="3.75" fill="#F5F5F5"/>
<circle cx="502.341" cy="198.972" r="3.75" fill="#F5F5F5"/>
<circle cx="546.296" cy="198.972" r="3.75" fill="#F5F5F5"/>
<circle cx="106.75" cy="242.583" r="3.75" fill="#F5F5F5"/>
<circle cx="150.705" cy="242.583" r="3.75" fill="#F5F5F5"/>
<circle cx="194.659" cy="242.583" r="3.75" fill="#F5F5F5"/>
<circle cx="238.614" cy="242.583" r="3.75" fill="#F5F5F5"/>
<circle cx="282.568" cy="242.583" r="3.75" fill="#F5F5F5"/>
<circle cx="326.523" cy="242.583" r="3.75" fill="#F5F5F5"/>
<circle cx="370.477" cy="242.583" r="3.75" fill="#F5F5F5"/>
<circle cx="414.432" cy="242.583" r="3.75" fill="#F5F5F5"/>
<circle cx="458.386" cy="242.583" r="3.75" fill="#F5F5F5"/>
<circle cx="502.341" cy="242.583" r="3.75" fill="#F5F5F5"/>
<circle cx="546.296" cy="242.583" r="3.75" fill="#F5F5F5"/>
<circle cx="106.75" cy="286.194" r="3.75" fill="#F5F5F5"/>
<circle cx="150.705" cy="286.194" r="3.75" fill="#F5F5F5"/>
<circle cx="194.659" cy="286.194" r="3.75" fill="#F5F5F5"/>
<circle cx="238.614" cy="286.194" r="3.75" fill="#F5F5F5"/>
<circle cx="282.568" cy="286.194" r="3.75" fill="#F5F5F5"/>
<circle cx="326.523" cy="286.194" r="3.75" fill="#F5F5F5"/>
<circle cx="370.477" cy="286.194" r="3.75" fill="#F5F5F5"/>
<circle cx="414.432" cy="286.194" r="3.75" fill="#F5F5F5"/>
<circle cx="458.386" cy="286.194" r="3.75" fill="#F5F5F5"/>
<circle cx="502.341" cy="286.194" r="3.75" fill="#F5F5F5"/>
<circle cx="546.296" cy="286.194" r="3.75" fill="#F5F5F5"/>
<circle cx="106.75" cy="329.806" r="3.75" fill="#F5F5F5"/>
<circle cx="150.705" cy="329.806" r="3.75" fill="#F5F5F5"/>
<circle cx="194.659" cy="329.806" r="3.75" fill="#F5F5F5"/>
<circle cx="238.614" cy="329.806" r="3.75" fill="#F5F5F5"/>
<circle cx="282.568" cy="329.806" r="3.75" fill="#F5F5F5"/>
<circle cx="326.523" cy="329.806" r="3.75" fill="#F5F5F5"/>
<circle cx="370.477" cy="329.806" r="3.75" fill="#F5F5F5"/>
<circle cx="414.432" cy="329.806" r="3.75" fill="#F5F5F5"/>
<circle cx="458.386" cy="329.806" r="3.75" fill="#F5F5F5"/>
<circle cx="502.341" cy="329.806" r="3.75" fill="#F5F5F5"/>
<circle cx="546.296" cy="329.806" r="3.75" fill="#F5F5F5"/>
<circle cx="106.75" cy="373.417" r="3.75" fill="#F5F5F5"/>
<circle cx="150.705" cy="373.417" r="3.75" fill="#F5F5F5"/>
<circle cx="194.659" cy="373.417" r="3.75" fill="#F5F5F5"/>
<circle cx="238.614" cy="373.417" r="3.75" fill="#F5F5F5"/>
<circle cx="282.568" cy="373.417" r="3.75" fill="#F5F5F5"/>
<circle cx="326.523" cy="373.417" r="3.75" fill="#F5F5F5"/>
<circle cx="370.477" cy="373.417" r="3.75" fill="#F5F5F5"/>
<circle cx="414.432" cy="373.417" r="3.75" fill="#F5F5F5"/>
<circle cx="458.386" cy="373.417" r="3.75" fill="#F5F5F5"/>
<circle cx="502.341" cy="373.417" r="3.75" fill="#F5F5F5"/>
<circle cx="546.296" cy="373.417" r="3.75" fill="#F5F5F5"/>
<circle cx="106.75" cy="417.028" r="3.75" fill="#F5F5F5"/>
<circle cx="150.705" cy="417.028" r="3.75" fill="#F5F5F5"/>
<circle cx="194.659" cy="417.028" r="3.75" fill="#F5F5F5"/>
<circle cx="238.614" cy="417.028" r="3.75" fill="#F5F5F5"/>
<circle cx="282.568" cy="417.028" r="3.75" fill="#F5F5F5"/>
<circle cx="326.523" cy="417.028" r="3.75" fill="#F5F5F5"/>
<circle cx="370.477" cy="417.028" r="3.75" fill="#F5F5F5"/>
<circle cx="414.432" cy="417.028" r="3.75" fill="#F5F5F5"/>
<circle cx="458.386" cy="417.028" r="3.75" fill="#F5F5F5"/>
<circle cx="502.341" cy="417.028" r="3.75" fill="#F5F5F5"/>
<circle cx="546.296" cy="417.028" r="3.75" fill="#F5F5F5"/>
<circle cx="106.75" cy="460.639" r="3.75" fill="#F5F5F5"/>
<circle cx="150.705" cy="460.639" r="3.75" fill="#F5F5F5"/>
<circle cx="194.659" cy="460.639" r="3.75" fill="#F5F5F5"/>
<circle cx="238.614" cy="460.639" r="3.75" fill="#F5F5F5"/>
<circle cx="282.568" cy="460.639" r="3.75" fill="#F5F5F5"/>
<circle cx="326.523" cy="460.639" r="3.75" fill="#F5F5F5"/>
<circle cx="370.477" cy="460.639" r="3.75" fill="#F5F5F5"/>
<circle cx="414.432" cy="460.639" r="3.75" fill="#F5F5F5"/>
<circle cx="458.386" cy="460.639" r="3.75" fill="#F5F5F5"/>
<circle cx="502.341" cy="460.639" r="3.75" fill="#F5F5F5"/>
<circle cx="546.296" cy="460.639" r="3.75" fill="#F5F5F5"/>
<rect x="44" y="140" width="150" height="116" rx="12" fill="#171717"/>
<path fill-rule="evenodd" clip-rule="evenodd" d="M107.334 181.666C107.114 181.886 106.949 182.154 106.851 182.448L105.316 187.052C105.186 187.442 105.558 187.814 105.949 187.684L110.552 186.149C110.847 186.051 111.114 185.886 111.334 185.666L128.293 168.707L124.293 164.707L107.334 181.666ZM125.707 163.293L129.707 167.293L131.586 165.414C132.367 164.633 132.367 163.367 131.586 162.586L130.414 161.414C129.633 160.633 128.367 160.633 127.586 161.414L125.707 163.293Z" fill="#FAFAFA"/>
<path d="M102.342 213H97.5488V211.802H99.2266V202.249H97.5488V201.05H102.342V202.249H100.665V211.802H102.342V213ZM106.201 213H104.832V204.166H106.201V205.604H106.27C106.698 204.611 107.451 203.961 108.769 203.961C110.584 203.961 111.731 205.193 111.731 207.333V213H110.361V207.573C110.361 205.998 109.676 205.193 108.358 205.193C107.263 205.193 106.201 205.741 106.201 206.871V213ZM115.247 202.095C114.665 202.095 114.408 201.786 114.408 201.324V201.102C114.408 200.639 114.665 200.331 115.247 200.331C115.829 200.331 116.086 200.639 116.086 201.102V201.324C116.086 201.786 115.829 202.095 115.247 202.095ZM114.562 213V204.166H115.931V213H114.562ZM122.506 213H120.794C119.852 213 119.338 212.401 119.338 211.545V205.364H117.883V204.166H118.705C119.287 204.166 119.475 203.961 119.475 203.361V201.718H120.708V204.166H122.642V205.364H120.708V211.802H122.506V213ZM125.529 202.095C124.947 202.095 124.69 201.786 124.69 201.324V201.102C124.69 200.639 124.947 200.331 125.529 200.331C126.111 200.331 126.368 200.639 126.368 201.102V201.324C126.368 201.786 126.111 202.095 125.529 202.095ZM124.844 213V204.166H126.213V213H124.844ZM136.314 213H135.544C134.534 213 134.123 212.384 134.02 211.562H133.935C133.558 212.64 132.616 213.205 131.384 213.205C129.518 213.205 128.422 212.178 128.422 210.535C128.422 208.874 129.62 207.95 132.188 207.95H133.935V207.076C133.935 205.827 133.25 205.142 131.846 205.142C130.785 205.142 130.083 205.656 129.603 206.46L128.781 205.69C129.261 204.748 130.322 203.961 131.914 203.961C134.037 203.961 135.304 205.073 135.304 206.94V211.802H136.314V213ZM131.606 212.041C132.959 212.041 133.935 211.339 133.935 210.432V208.977H132.12C130.562 208.977 129.86 209.456 129.86 210.312V210.672C129.86 211.545 130.545 212.041 131.606 212.041ZM140.94 213H139.724C138.783 213 138.269 212.401 138.269 211.579V200.331H139.639V211.802H140.94V213ZM74.4158 234H73.2003C72.2587 234 71.7451 233.401 71.7451 232.579V221.331H73.1147V232.802H74.4158V234ZM83.6001 234H82.8297C81.8196 234 81.4087 233.384 81.306 232.562H81.2204C80.8437 233.64 79.9021 234.205 78.6695 234.205C76.8034 234.205 75.7077 233.178 75.7077 231.535C75.7077 229.874 76.9061 228.95 79.4741 228.95H81.2204V228.076C81.2204 226.827 80.5356 226.142 79.1317 226.142C78.0703 226.142 77.3684 226.656 76.889 227.46L76.0673 226.69C76.5466 225.748 77.6081 224.961 79.2002 224.961C81.3231 224.961 82.59 226.073 82.59 227.94V232.802H83.6001V234ZM78.8921 233.041C80.2445 233.041 81.2204 232.339 81.2204 231.432V229.977H79.4057C77.8477 229.977 77.1458 230.456 77.1458 231.312V231.672C77.1458 232.545 77.8306 233.041 78.8921 233.041ZM85.5548 234V221.331H86.9244V226.604H86.9929C87.4551 225.491 88.3625 224.961 89.578 224.961C91.7865 224.961 93.1732 226.758 93.1732 229.583C93.1732 232.408 91.7865 234.205 89.578 234.205C88.3625 234.205 87.5236 233.658 86.9929 232.562H86.9244V234H85.5548ZM89.2014 232.973C90.7422 232.973 91.7009 231.911 91.7009 230.336V228.83C91.7009 227.255 90.7422 226.193 89.2014 226.193C87.9516 226.193 86.9244 226.912 86.9244 227.888V231.175C86.9244 232.322 87.9516 232.973 89.2014 232.973ZM98.807 234.205C96.4102 234.205 94.8352 232.391 94.8352 229.583C94.8352 226.775 96.4102 224.961 98.807 224.961C101.17 224.961 102.625 226.775 102.625 229.275V229.925H96.2733V230.336C96.2733 231.86 97.2491 233.007 98.8926 233.007C100.005 233.007 100.861 232.459 101.324 231.483L102.3 232.185C101.735 233.384 100.468 234.205 98.807 234.205ZM98.807 226.108C97.3176 226.108 96.2733 227.238 96.2733 228.778V228.898H101.152V228.71C101.152 227.152 100.211 226.108 98.807 226.108ZM107.552 234H106.337C105.395 234 104.882 233.401 104.882 232.579V221.331H106.251V232.802H107.552V234ZM110.231 223.095C109.649 223.095 109.392 222.786 109.392 222.324V222.102C109.392 221.639 109.649 221.331 110.231 221.331C110.813 221.331 111.07 221.639 111.07 222.102V222.324C111.07 222.786 110.813 223.095 110.231 223.095ZM109.546 234V225.166H110.916V234H109.546ZM115.196 234H113.826V225.166H115.196V226.604H115.264C115.692 225.611 116.446 224.961 117.764 224.961C119.579 224.961 120.726 226.193 120.726 228.333V234H119.356V228.573C119.356 226.998 118.671 226.193 117.353 226.193C116.257 226.193 115.196 226.741 115.196 227.871V234ZM131.004 234.976C131.004 236.791 129.566 237.629 126.724 237.629C123.967 237.629 122.837 236.842 122.837 235.455C122.837 234.496 123.368 233.983 124.241 233.743V233.555C123.745 233.315 123.454 232.921 123.454 232.322C123.454 231.432 124.087 231.004 124.977 230.781V230.713C123.933 230.216 123.317 229.241 123.317 228.008C123.317 226.21 124.635 224.961 126.638 224.961C127.272 224.961 127.837 225.08 128.316 225.303V225.149C128.316 224.464 128.607 223.968 129.343 223.968H130.661V225.166H128.984V225.731C129.617 226.279 129.994 227.066 129.994 228.008C129.994 229.806 128.675 231.055 126.655 231.055C126.364 231.055 126.056 231.021 125.799 230.97C125.217 231.124 124.635 231.415 124.635 231.963C124.635 232.493 125.183 232.63 125.988 232.63H127.871C130.062 232.63 131.004 233.521 131.004 234.976ZM129.72 235.079C129.72 234.377 129.257 233.914 127.888 233.914H124.943C124.378 234.171 124.121 234.565 124.121 235.113C124.121 235.883 124.652 236.517 126.039 236.517H127.306C128.829 236.517 129.72 236.037 129.72 235.079ZM126.655 229.96C127.819 229.96 128.556 229.412 128.556 228.248V227.768C128.556 226.604 127.819 226.056 126.655 226.056C125.491 226.056 124.755 226.604 124.755 227.768V228.248C124.755 229.412 125.491 229.96 126.655 229.96ZM140.311 234H138.599C137.657 234 137.144 233.401 137.144 232.545V226.364H135.689V225.166H136.51C137.092 225.166 137.281 224.961 137.281 224.361V222.718H138.513V225.166H140.448V226.364H138.513V232.802H140.311V234ZM149.84 234H149.069C148.059 234 147.648 233.384 147.546 232.562H147.46C147.083 233.64 146.142 234.205 144.909 234.205C143.043 234.205 141.947 233.178 141.947 231.535C141.947 229.874 143.146 228.95 145.714 228.95H147.46V228.076C147.46 226.827 146.775 226.142 145.371 226.142C144.31 226.142 143.608 226.656 143.129 227.46L142.307 226.69C142.786 225.748 143.848 224.961 145.44 224.961C147.563 224.961 148.83 226.073 148.83 227.94V232.802H149.84V234ZM145.132 233.041C146.484 233.041 147.46 232.339 147.46 231.432V229.977H145.645C144.087 229.977 143.385 230.456 143.385 231.312V231.672C143.385 232.545 144.07 233.041 145.132 233.041ZM154.448 234.205C152.822 234.205 151.743 233.521 150.956 232.476L151.931 231.689C152.616 232.545 153.438 233.041 154.551 233.041C155.715 233.041 156.4 232.511 156.4 231.603C156.4 230.918 156.023 230.388 154.859 230.216L154.157 230.114C152.531 229.874 151.315 229.206 151.315 227.563C151.315 225.817 152.668 224.961 154.465 224.961C155.886 224.961 156.828 225.491 157.547 226.382L156.639 227.203C156.246 226.656 155.492 226.125 154.362 226.125C153.233 226.125 152.633 226.656 152.633 227.494C152.633 228.35 153.233 228.693 154.328 228.864L155.013 228.967C156.965 229.258 157.718 230.114 157.718 231.449C157.718 233.161 156.468 234.205 154.448 234.205ZM160.137 234V221.331H161.507V229.36H161.575L162.928 227.854L165.427 225.166H167.088L163.818 228.659L167.413 234H165.753L162.825 229.497L161.507 230.85V234H160.137Z" fill="#FAFAFA"/>
<rect x="44.535" y="319.535" width="148.93" height="108.93" rx="11.465" fill="#FB7185"/>
<rect x="44.535" y="319.535" width="148.93" height="108.93" rx="11.465" stroke="#171717" stroke-width="1.07"/>
<path d="M121 365C123.373 365 125.693 364.296 127.667 362.978C129.64 361.659 131.178 359.785 132.087 357.592C132.995 355.399 133.232 352.987 132.769 350.659C132.306 348.331 131.164 346.193 129.485 344.515C127.807 342.836 125.669 341.694 123.341 341.231C121.013 340.768 118.601 341.005 116.408 341.913C114.215 342.822 112.341 344.36 111.022 346.333C109.704 348.307 109 350.627 109 353V359.2L105.4 355.6L104 357L110 363L116 357L114.6 355.6L111 359.2V353C111 351.022 111.586 349.089 112.685 347.444C113.784 345.8 115.346 344.518 117.173 343.761C119 343.004 121.011 342.806 122.951 343.192C124.891 343.578 126.673 344.53 128.071 345.929C129.47 347.327 130.422 349.109 130.808 351.049C131.194 352.989 130.996 355 130.239 356.827C129.482 358.654 128.2 360.216 126.556 361.315C124.911 362.414 122.978 363 121 363V365Z" fill="#171717"/>
<path d="M93.0483 380.864V386H91.6102V374.05H96.3696C98.4582 374.05 99.708 375.266 99.708 377.44C99.708 379.186 98.8691 380.368 97.3112 380.727L100.05 386H98.424L95.8388 380.864H93.0483ZM93.0483 379.631H96.3696C97.4995 379.631 98.1672 379.015 98.1672 377.919V377.029C98.1672 375.933 97.4995 375.317 96.3696 375.317H93.0483V379.631ZM105.495 386.205C103.098 386.205 101.523 384.391 101.523 381.583C101.523 378.775 103.098 376.961 105.495 376.961C107.857 376.961 109.312 378.775 109.312 381.275V381.925H102.961V382.336C102.961 383.86 103.937 385.007 105.58 385.007C106.693 385.007 107.549 384.459 108.011 383.483L108.987 384.185C108.422 385.384 107.155 386.205 105.495 386.205ZM105.495 378.108C104.005 378.108 102.961 379.238 102.961 380.778V380.898H107.84V380.71C107.84 379.152 106.898 378.108 105.495 378.108ZM112.924 386L110.561 377.166H111.896L112.838 380.984L113.78 384.853H113.814L114.892 380.984L116.005 377.166H117.221L118.368 380.984L119.464 384.853H119.498L120.405 380.984L121.364 377.166H122.648L120.302 386H118.608L117.375 381.754L116.604 379.066H116.57L115.817 381.754L114.584 386H112.924ZM127.881 386.205C125.519 386.205 123.892 384.391 123.892 381.583C123.892 378.775 125.519 376.961 127.881 376.961C130.244 376.961 131.87 378.775 131.87 381.583C131.87 384.391 130.244 386.205 127.881 386.205ZM127.881 384.99C129.354 384.99 130.398 384.083 130.398 382.216V380.95C130.398 379.084 129.354 378.176 127.881 378.176C126.409 378.176 125.365 379.084 125.365 380.95V382.216C125.365 384.083 126.409 384.99 127.881 384.99ZM135.492 386H134.123V377.166H135.492V378.792H135.578C135.886 377.954 136.691 377.166 138.129 377.166H138.66V378.536H137.855C136.383 378.536 135.492 379.169 135.492 380.008V386ZM140.409 386V373.331H141.779V381.36H141.847L143.2 379.854L145.699 377.166H147.36L144.09 380.659L147.685 386H146.024L143.097 381.497L141.779 382.85V386H140.409ZM71.8948 401.659C71.8948 398.354 73.2473 395.478 74.9935 393.989H76.2946C74.3943 395.701 73.1788 398.543 73.1788 400.94V402.412C73.1788 404.809 74.4457 407.702 76.2946 409.345H74.9935C73.2986 407.907 71.8948 404.997 71.8948 401.659ZM84.854 407H84.0836C83.0735 407 82.6626 406.384 82.5599 405.562H82.4743C82.0976 406.64 81.156 407.205 79.9234 407.205C78.0573 407.205 76.9616 406.178 76.9616 404.535C76.9616 402.874 78.16 401.95 80.728 401.95H82.4743V401.076C82.4743 399.827 81.7895 399.142 80.3856 399.142C79.3242 399.142 78.6223 399.656 78.1429 400.46L77.3212 399.69C77.8005 398.748 78.862 397.961 80.4541 397.961C82.577 397.961 83.8439 399.073 83.8439 400.94V405.802H84.854V407ZM80.146 406.041C81.4984 406.041 82.4743 405.339 82.4743 404.432V402.977H80.6596C79.1016 402.977 78.3997 403.456 78.3997 404.312V404.672C78.3997 405.545 79.0845 406.041 80.146 406.041ZM89.4794 407H88.2639C87.3223 407 86.8087 406.401 86.8087 405.579V394.331H88.1783V405.802H89.4794V407ZM94.0604 407H92.8449C91.9033 407 91.3897 406.401 91.3897 405.579V394.331H92.7593V405.802H94.0604V407ZM101.47 407H100.1V398.166H101.47V399.792H101.555C101.863 398.954 102.668 398.166 104.106 398.166H104.637V399.536H103.832C102.36 399.536 101.47 400.169 101.47 401.008V407ZM109.624 407.205C107.227 407.205 105.652 405.391 105.652 402.583C105.652 399.775 107.227 397.961 109.624 397.961C111.987 397.961 113.442 399.775 113.442 402.275V402.925H107.09V403.336C107.09 404.86 108.066 406.007 109.71 406.007C110.822 406.007 111.678 405.459 112.141 404.483L113.117 405.185C112.552 406.384 111.285 407.205 109.624 407.205ZM109.624 399.108C108.135 399.108 107.09 400.238 107.09 401.778V401.898H111.969V401.71C111.969 400.152 111.028 399.108 109.624 399.108ZM115.699 409.226V398.166H117.068V408.37C117.068 409.585 116.469 410.424 115.151 410.424H114.261V409.226H115.699ZM116.384 396.095C115.801 396.095 115.545 395.786 115.545 395.324V395.102C115.545 394.639 115.801 394.331 116.384 394.331C116.966 394.331 117.222 394.639 117.222 395.102V395.324C117.222 395.786 116.966 396.095 116.384 396.095ZM123.3 407.205C120.903 407.205 119.328 405.391 119.328 402.583C119.328 399.775 120.903 397.961 123.3 397.961C125.663 397.961 127.118 399.775 127.118 402.275V402.925H120.766V403.336C120.766 404.86 121.742 406.007 123.386 406.007C124.498 406.007 125.354 405.459 125.817 404.483L126.792 405.185C126.228 406.384 124.961 407.205 123.3 407.205ZM123.3 399.108C121.811 399.108 120.766 400.238 120.766 401.778V401.898H125.645V401.71C125.645 400.152 124.704 399.108 123.3 399.108ZM132.662 407.205C130.179 407.205 128.724 405.408 128.724 402.583C128.724 399.758 130.179 397.961 132.662 397.961C134.408 397.961 135.452 398.817 135.966 400.032L134.819 400.614C134.494 399.707 133.74 399.176 132.662 399.176C131.035 399.176 130.196 400.289 130.196 401.83V403.336C130.196 404.877 131.035 405.99 132.662 405.99C133.774 405.99 134.579 405.459 135.058 404.449L136.051 405.117C135.486 406.384 134.339 407.205 132.662 407.205ZM141.648 407H139.936C138.995 407 138.481 406.401 138.481 405.545V399.364H137.026V398.166H137.848C138.43 398.166 138.618 397.961 138.618 397.361V395.718H139.851V398.166H141.785V399.364H139.851V405.802H141.648V407ZM147.241 407.205C144.844 407.205 143.269 405.391 143.269 402.583C143.269 399.775 144.844 397.961 147.241 397.961C149.604 397.961 151.059 399.775 151.059 402.275V402.925H144.707V403.336C144.707 404.86 145.683 406.007 147.327 406.007C148.44 406.007 149.296 405.459 149.758 404.483L150.734 405.185C150.169 406.384 148.902 407.205 147.241 407.205ZM147.241 399.108C145.752 399.108 144.707 400.238 144.707 401.778V401.898H149.587V401.71C149.587 400.152 148.645 399.108 147.241 399.108ZM158.966 407V405.562H158.897C158.366 406.658 157.527 407.205 156.312 407.205C154.103 407.205 152.717 405.408 152.717 402.583C152.717 399.758 154.103 397.961 156.312 397.961C157.527 397.961 158.435 398.491 158.897 399.604H158.966V394.331H160.335V407H158.966ZM156.689 405.973C157.938 405.973 158.966 405.322 158.966 404.175V400.888C158.966 399.912 157.938 399.193 156.689 399.193C155.148 399.193 154.189 400.255 154.189 401.83V403.336C154.189 404.911 155.148 405.973 156.689 405.973ZM166.106 401.659C166.106 404.997 164.702 407.907 163.007 409.345H161.706C163.555 407.702 164.822 404.809 164.822 402.412V400.94C164.822 398.543 163.606 395.701 161.706 393.989H163.007C164.753 395.478 166.106 398.354 166.106 401.659Z" fill="#171717"/>
<path d="M445 285C463 278.648 476.2 267.8 481 236.137C485.8 204.473 501 197.535 508 198.024" stroke="black"/>
<path d="M193 198C201.167 205.667 217 224 217 257.5C217 306.5 222 318 240.5 318" stroke="black"/>
<path d="M193 375C199.333 375.5 212.7 371.8 215.5 353C219 329.5 219 318 240.5 318" stroke="black"/>
<rect x="508.5" y="150.5" width="89" height="93" rx="11.5" fill="#4ADE80"/>
<rect x="508.5" y="150.5" width="89" height="93" rx="11.5" stroke="#171717"/>
<path d="M550 192L541 183L542.414 181.586L550 189.171L563.586 175.586L565 177L550 192Z" fill="#171717"/>
<path d="M534.092 219V207.05H538.098C541.077 207.05 542.995 209.036 542.995 213.025C542.995 217.014 541.077 219 538.098 219H534.092ZM535.53 217.733H538.098C540.067 217.733 541.454 216.364 541.454 214.001V212.049C541.454 209.687 540.067 208.317 538.098 208.317H535.53V217.733ZM548.779 219.205C546.417 219.205 544.79 217.391 544.79 214.583C544.79 211.775 546.417 209.961 548.779 209.961C551.142 209.961 552.768 211.775 552.768 214.583C552.768 217.391 551.142 219.205 548.779 219.205ZM548.779 217.99C550.252 217.99 551.296 217.083 551.296 215.216V213.95C551.296 212.084 550.252 211.176 548.779 211.176C547.307 211.176 546.263 212.084 546.263 213.95V215.216C546.263 217.083 547.307 217.99 548.779 217.99ZM556.39 219H555.021V210.166H556.39V211.604H556.459C556.887 210.611 557.64 209.961 558.958 209.961C560.773 209.961 561.92 211.193 561.92 213.333V219H560.551V213.573C560.551 211.998 559.866 211.193 558.548 211.193C557.452 211.193 556.39 211.741 556.39 212.871V219ZM568.072 219.205C565.676 219.205 564.101 217.391 564.101 214.583C564.101 211.775 565.676 209.961 568.072 209.961C570.435 209.961 571.89 211.775 571.89 214.275V214.925H565.539V215.336C565.539 216.86 566.514 218.007 568.158 218.007C569.271 218.007 570.127 217.459 570.589 216.483L571.565 217.185C571 218.384 569.733 219.205 568.072 219.205ZM568.072 211.108C566.583 211.108 565.539 212.238 565.539 213.778V213.898H570.418V213.71C570.418 212.152 569.476 211.108 568.072 211.108Z" fill="#171717"/>
<rect x="508.5" y="325.5" width="89" height="93" rx="11.5" fill="#FB7185"/>
<rect x="508.5" y="325.5" width="89" height="93" rx="11.5" stroke="#171717"/>
<path d="M555 371C557.373 371 559.693 370.296 561.667 368.978C563.64 367.659 565.178 365.785 566.087 363.592C566.995 361.399 567.232 358.987 566.769 356.659C566.306 354.331 565.164 352.193 563.485 350.515C561.807 348.836 559.669 347.694 557.341 347.231C555.013 346.768 552.601 347.005 550.408 347.913C548.215 348.822 546.341 350.36 545.022 352.333C543.704 354.307 543 356.627 543 359V365.2L539.4 361.6L538 363L544 369L550 363L548.6 361.6L545 365.2V359C545 357.022 545.586 355.089 546.685 353.444C547.784 351.8 549.346 350.518 551.173 349.761C553 349.004 555.011 348.806 556.951 349.192C558.891 349.578 560.673 350.53 562.071 351.929C563.47 353.327 564.422 355.109 564.808 357.049C565.194 358.989 564.996 361 564.239 362.827C563.482 364.654 562.2 366.216 560.556 367.315C558.911 368.414 556.978 369 555 369V371Z" fill="#171717"/>
<path d="M527.03 388.864V394H525.592V382.05H530.352C532.44 382.05 533.69 383.266 533.69 385.44C533.69 387.186 532.851 388.368 531.293 388.727L534.032 394H532.406L529.821 388.864H527.03ZM527.03 387.631H530.352C531.481 387.631 532.149 387.015 532.149 385.919V385.029C532.149 383.933 531.481 383.317 530.352 383.317H527.03V387.631ZM539.476 394.205C537.08 394.205 535.505 392.391 535.505 389.583C535.505 386.775 537.08 384.961 539.476 384.961C541.839 384.961 543.294 386.775 543.294 389.275V389.925H536.943V390.336C536.943 391.86 537.919 393.007 539.562 393.007C540.675 393.007 541.531 392.459 541.993 391.483L542.969 392.185C542.404 393.384 541.137 394.205 539.476 394.205ZM539.476 386.108C537.987 386.108 536.943 387.238 536.943 388.778V388.898H541.822V388.71C541.822 387.152 540.88 386.108 539.476 386.108ZM546.906 394L544.543 385.166H545.878L546.82 388.984L547.762 392.853H547.796L548.874 388.984L549.987 385.166H551.203L552.35 388.984L553.445 392.853H553.48L554.387 388.984L555.346 385.166H556.63L554.284 394H552.589L551.357 389.754L550.586 387.066H550.552L549.799 389.754L548.566 394H546.906ZM561.863 394.205C559.501 394.205 557.874 392.391 557.874 389.583C557.874 386.775 559.501 384.961 561.863 384.961C564.226 384.961 565.852 386.775 565.852 389.583C565.852 392.391 564.226 394.205 561.863 394.205ZM561.863 392.99C563.336 392.99 564.38 392.083 564.38 390.216V388.95C564.38 387.084 563.336 386.176 561.863 386.176C560.391 386.176 559.347 387.084 559.347 388.95V390.216C559.347 392.083 560.391 392.99 561.863 392.99ZM569.474 394H568.105V385.166H569.474V386.792H569.56C569.868 385.954 570.673 385.166 572.111 385.166H572.642V386.536H571.837C570.365 386.536 569.474 387.169 569.474 388.008V394ZM574.391 394V381.331H575.761V389.36H575.829L577.182 387.854L579.681 385.166H581.342L578.072 388.659L581.667 394H580.006L577.079 389.497L575.761 390.85V394H574.391Z" fill="#171717"/>
<path d="M240 205C240 198.373 245.373 193 252 193H432C438.627 193 444 198.373 444 205V255H240V205Z" fill="#8B5CF6"/>
<path d="M240 205C240 198.373 245.373 193 252 193H432C438.627 193 444 198.373 444 205V255H240V205Z" stroke="#171717"/>
<path d="M290.87 231L290 230.5L292 227H295C295.265 227 295.52 226.895 295.707 226.707C295.895 226.52 296 226.265 296 226V220C296 219.735 295.895 219.48 295.707 219.293C295.52 219.105 295.265 219 295 219H285C284.735 219 284.48 219.105 284.293 219.293C284.105 219.48 284 219.735 284 220V226C284 226.265 284.105 226.52 284.293 226.707C284.48 226.895 284.735 227 285 227H289.5V228H285C284.47 228 283.961 227.789 283.586 227.414C283.211 227.039 283 226.53 283 226V220C283 219.47 283.211 218.961 283.586 218.586C283.961 218.211 284.47 218 285 218H295C295.53 218 296.039 218.211 296.414 218.586C296.789 218.961 297 219.47 297 220V226C297 226.53 296.789 227.039 296.414 227.414C296.039 227.789 295.53 228 295 228H292.58L290.87 231Z" fill="#FAFAFA"/>
<path d="M294 221H286V222H294V221Z" fill="#FAFAFA"/>
<path d="M291 224H286V225H291V224Z" fill="#FAFAFA"/>
<path d="M313.03 224.864V230H311.592V218.05H316.352C318.44 218.05 319.69 219.266 319.69 221.44C319.69 223.186 318.851 224.368 317.293 224.727L320.032 230H318.406L315.821 224.864H313.03ZM313.03 223.631H316.352C317.481 223.631 318.149 223.015 318.149 221.919V221.029C318.149 219.933 317.481 219.317 316.352 219.317H313.03V223.631ZM325.476 230.205C323.08 230.205 321.505 228.391 321.505 225.583C321.505 222.775 323.08 220.961 325.476 220.961C327.839 220.961 329.294 222.775 329.294 225.275V225.925H322.943V226.336C322.943 227.86 323.919 229.007 325.562 229.007C326.675 229.007 327.531 228.459 327.993 227.483L328.969 228.185C328.404 229.384 327.137 230.205 325.476 230.205ZM325.476 222.108C323.987 222.108 322.943 223.238 322.943 224.778V224.898H327.822V224.71C327.822 223.152 326.88 222.108 325.476 222.108ZM334.961 230H333.369L330.27 221.166H331.64L333.181 225.549L334.139 228.562H334.225L335.184 225.549L336.759 221.166H338.077L334.961 230ZM340.528 219.095C339.946 219.095 339.69 218.786 339.69 218.324V218.102C339.69 217.639 339.946 217.331 340.528 217.331C341.111 217.331 341.367 217.639 341.367 218.102V218.324C341.367 218.786 341.111 219.095 340.528 219.095ZM339.844 230V221.166H341.213V230H339.844ZM347.445 230.205C345.048 230.205 343.473 228.391 343.473 225.583C343.473 222.775 345.048 220.961 347.445 220.961C349.807 220.961 351.263 222.775 351.263 225.275V225.925H344.911V226.336C344.911 227.86 345.887 229.007 347.531 229.007C348.643 229.007 349.499 228.459 349.962 227.483L350.937 228.185C350.372 229.384 349.106 230.205 347.445 230.205ZM347.445 222.108C345.955 222.108 344.911 223.238 344.911 224.778V224.898H349.79V224.71C349.79 223.152 348.849 222.108 347.445 222.108ZM354.874 230L352.511 221.166H353.847L354.788 224.984L355.73 228.853H355.764L356.843 224.984L357.956 221.166H359.171L360.318 224.984L361.414 228.853H361.448L362.355 224.984L363.314 221.166H364.598L362.253 230H360.558L359.325 225.754L358.555 223.066H358.521L357.767 225.754L356.535 230H354.874ZM374.287 230H372.575C371.633 230 371.119 229.401 371.119 228.545V222.364H369.664V221.166H370.486C371.068 221.166 371.256 220.961 371.256 220.361V218.718H372.489V221.166H374.423V222.364H372.489V228.802H374.287V230ZM383.815 230H383.045C382.035 230 381.624 229.384 381.521 228.562H381.436C381.059 229.64 380.117 230.205 378.885 230.205C377.019 230.205 375.923 229.178 375.923 227.535C375.923 225.874 377.121 224.95 379.689 224.95H381.436V224.076C381.436 222.827 380.751 222.142 379.347 222.142C378.286 222.142 377.584 222.656 377.104 223.46L376.282 222.69C376.762 221.748 377.823 220.961 379.415 220.961C381.538 220.961 382.805 222.073 382.805 223.94V228.802H383.815V230ZM379.107 229.041C380.46 229.041 381.436 228.339 381.436 227.432V225.977H379.621C378.063 225.977 377.361 226.456 377.361 227.312V227.672C377.361 228.545 378.046 229.041 379.107 229.041ZM388.424 230.205C386.797 230.205 385.719 229.521 384.931 228.476L385.907 227.689C386.592 228.545 387.414 229.041 388.526 229.041C389.691 229.041 390.375 228.511 390.375 227.603C390.375 226.918 389.999 226.388 388.835 226.216L388.133 226.114C386.506 225.874 385.291 225.206 385.291 223.563C385.291 221.817 386.643 220.961 388.441 220.961C389.862 220.961 390.803 221.491 391.522 222.382L390.615 223.203C390.221 222.656 389.468 222.125 388.338 222.125C387.208 222.125 386.609 222.656 386.609 223.494C386.609 224.35 387.208 224.693 388.304 224.864L388.989 224.967C390.94 225.258 391.694 226.114 391.694 227.449C391.694 229.161 390.444 230.205 388.424 230.205ZM394.113 230V217.331H395.482V225.36H395.551L396.903 223.854L399.403 221.166H401.063L397.793 224.659L401.389 230H399.728L396.801 225.497L395.482 226.85V230H394.113Z" fill="#FAFAFA"/>
<rect x="240" y="255" width="204" height="62" fill="#FAFAFA"/>
<rect x="240" y="255" width="204" height="62" stroke="#262626"/>
<path d="M315.08 292H313.574L312.375 288.473H307.547L306.349 292H304.894L309.071 280.05H310.903L315.08 292ZM312.016 287.206L309.996 281.386H309.91L307.89 287.206H312.016ZM316.923 295.424V283.166H318.292V284.604H318.361C318.823 283.491 319.73 282.961 320.946 282.961C323.154 282.961 324.541 284.758 324.541 287.583C324.541 290.408 323.154 292.205 320.946 292.205C319.73 292.205 318.891 291.658 318.361 290.562H318.292V295.424H316.923ZM320.569 290.973C322.11 290.973 323.069 289.911 323.069 288.336V286.83C323.069 285.255 322.11 284.193 320.569 284.193C319.319 284.193 318.292 284.912 318.292 285.888V289.175C318.292 290.322 319.319 290.973 320.569 290.973ZM326.854 295.424V283.166H328.223V284.604H328.292C328.754 283.491 329.661 282.961 330.877 282.961C333.085 282.961 334.472 284.758 334.472 287.583C334.472 290.408 333.085 292.205 330.877 292.205C329.661 292.205 328.822 291.658 328.292 290.562H328.223V295.424H326.854ZM330.5 290.973C332.041 290.973 333 289.911 333 288.336V286.83C333 285.255 332.041 284.193 330.5 284.193C329.25 284.193 328.223 284.912 328.223 285.888V289.175C328.223 290.322 329.25 290.973 330.5 290.973ZM338.154 292H336.785V283.166H338.154V284.792H338.24C338.548 283.954 339.353 283.166 340.791 283.166H341.321V284.536H340.517C339.044 284.536 338.154 285.169 338.154 286.008V292ZM346.326 292.205C343.963 292.205 342.337 290.391 342.337 287.583C342.337 284.775 343.963 282.961 346.326 282.961C348.688 282.961 350.315 284.775 350.315 287.583C350.315 290.391 348.688 292.205 346.326 292.205ZM346.326 290.99C347.798 290.99 348.842 290.083 348.842 288.216V286.95C348.842 285.084 347.798 284.176 346.326 284.176C344.853 284.176 343.809 285.084 343.809 286.95V288.216C343.809 290.083 344.853 290.99 346.326 290.99ZM355.977 292H354.385L351.286 283.166H352.656L354.197 287.549L355.155 290.562H355.241L356.2 287.549L357.775 283.166H359.093L355.977 292ZM364.047 292.205C361.65 292.205 360.075 290.391 360.075 287.583C360.075 284.775 361.65 282.961 364.047 282.961C366.41 282.961 367.865 284.775 367.865 287.275V287.925H361.513V288.336C361.513 289.86 362.489 291.007 364.133 291.007C365.246 291.007 366.102 290.459 366.564 289.483L367.54 290.185C366.975 291.384 365.708 292.205 364.047 292.205ZM364.047 284.108C362.558 284.108 361.513 285.238 361.513 286.778V286.898H366.393V286.71C366.393 285.152 365.451 284.108 364.047 284.108ZM375.771 292V290.562H375.703C375.172 291.658 374.333 292.205 373.118 292.205C370.909 292.205 369.523 290.408 369.523 287.583C369.523 284.758 370.909 282.961 373.118 282.961C374.333 282.961 375.241 283.491 375.703 284.604H375.771V279.331H377.141V292H375.771ZM373.494 290.973C374.744 290.973 375.771 290.322 375.771 289.175V285.888C375.771 284.912 374.744 284.193 373.494 284.193C371.954 284.193 370.995 285.255 370.995 286.83V288.336C370.995 289.911 371.954 290.973 373.494 290.973Z" fill="#171717"/>
<path d="M240 317H444V367C444 373.627 438.627 379 432 379H252C245.373 379 240 373.627 240 367V317Z" fill="#FAFAFA"/>
<path d="M240 317H444V367C444 373.627 438.627 379 432 379H252C245.373 379 240 373.627 240 367V317Z" stroke="#262626"/>
<path d="M311.03 348.864V354H309.592V342.05H314.352C316.44 342.05 317.69 343.266 317.69 345.44C317.69 347.186 316.851 348.368 315.293 348.727L318.032 354H316.406L313.821 348.864H311.03ZM311.03 347.631H314.352C315.481 347.631 316.149 347.015 316.149 345.919V345.029C316.149 343.933 315.481 343.317 314.352 343.317H311.03V347.631ZM323.476 354.205C321.08 354.205 319.505 352.391 319.505 349.583C319.505 346.775 321.08 344.961 323.476 344.961C325.839 344.961 327.294 346.775 327.294 349.275V349.925H320.943V350.336C320.943 351.86 321.919 353.007 323.562 353.007C324.675 353.007 325.531 352.459 325.993 351.483L326.969 352.185C326.404 353.384 325.137 354.205 323.476 354.205ZM323.476 346.108C321.987 346.108 320.943 347.238 320.943 348.778V348.898H325.822V348.71C325.822 347.152 324.88 346.108 323.476 346.108ZM329.551 356.226V345.166H330.921V355.37C330.921 356.585 330.322 357.424 329.003 357.424H328.113V356.226H329.551ZM330.236 343.095C329.654 343.095 329.397 342.786 329.397 342.324V342.102C329.397 341.639 329.654 341.331 330.236 341.331C330.818 341.331 331.075 341.639 331.075 342.102V342.324C331.075 342.786 330.818 343.095 330.236 343.095ZM337.152 354.205C334.756 354.205 333.181 352.391 333.181 349.583C333.181 346.775 334.756 344.961 337.152 344.961C339.515 344.961 340.97 346.775 340.97 349.275V349.925H334.619V350.336C334.619 351.86 335.594 353.007 337.238 353.007C338.351 353.007 339.207 352.459 339.669 351.483L340.645 352.185C340.08 353.384 338.813 354.205 337.152 354.205ZM337.152 346.108C335.663 346.108 334.619 347.238 334.619 348.778V348.898H339.498V348.71C339.498 347.152 338.556 346.108 337.152 346.108ZM346.514 354.205C344.032 354.205 342.577 352.408 342.577 349.583C342.577 346.758 344.032 344.961 346.514 344.961C348.26 344.961 349.305 345.817 349.818 347.032L348.671 347.614C348.346 346.707 347.593 346.176 346.514 346.176C344.888 346.176 344.049 347.289 344.049 348.83V350.336C344.049 351.877 344.888 352.99 346.514 352.99C347.627 352.99 348.432 352.459 348.911 351.449L349.904 352.117C349.339 353.384 348.192 354.205 346.514 354.205ZM355.501 354H353.789C352.847 354 352.334 353.401 352.334 352.545V346.364H350.879V345.166H351.7C352.282 345.166 352.471 344.961 352.471 344.361V342.718H353.703V345.166H355.638V346.364H353.703V352.802H355.501V354ZM361.094 354.205C358.697 354.205 357.122 352.391 357.122 349.583C357.122 346.775 358.697 344.961 361.094 344.961C363.456 344.961 364.911 346.775 364.911 349.275V349.925H358.56V350.336C358.56 351.86 359.536 353.007 361.179 353.007C362.292 353.007 363.148 352.459 363.61 351.483L364.586 352.185C364.021 353.384 362.754 354.205 361.094 354.205ZM361.094 346.108C359.604 346.108 358.56 347.238 358.56 348.778V348.898H363.439V348.71C363.439 347.152 362.498 346.108 361.094 346.108ZM372.818 354V352.562H372.749C372.219 353.658 371.38 354.205 370.164 354.205C367.956 354.205 366.569 352.408 366.569 349.583C366.569 346.758 367.956 344.961 370.164 344.961C371.38 344.961 372.287 345.491 372.749 346.604H372.818V341.331H374.188V354H372.818ZM370.541 352.973C371.791 352.973 372.818 352.322 372.818 351.175V347.888C372.818 346.912 371.791 346.193 370.541 346.193C369 346.193 368.041 347.255 368.041 348.83V350.336C368.041 351.911 369 352.973 370.541 352.973Z" fill="#171717"/>
<circle cx="508.5" cy="197.5" r="4.5" fill="#171717"/>
<circle cx="444.5" cy="285.5" r="4.5" fill="#171717"/>
<circle cx="193.5" cy="375.5" r="4.5" fill="#171717"/>
<circle cx="240.5" cy="317.5" r="4.5" fill="#171717"/>
<circle cx="193.5" cy="197.5" r="5" fill="#171717" stroke="#FAFAFA"/>
<circle cx="444.5" cy="344.5" r="4.5" fill="#171717"/>
<circle cx="508.5" cy="372.5" r="4.5" fill="#171717"/>
<path d="M444 344.5C459 344.5 469.411 350.97 475 359.5C484.5 374 496 373 508.5 373" stroke="black"/>
<defs>
<filter id="filter0_d_10_829" x="20.5016" y="55.6609" width="609.997" height="511.121" filterUnits="userSpaceOnUse" color-interpolation-filters="sRGB">
<feFlood flood-opacity="0" result="BackgroundImageFix"/>
<feColorMatrix in="SourceAlpha" type="matrix" values="0 0 0 0 0 0 0 0 0 0 0 0 0 0 0 0 0 0 127 0" result="hardAlpha"/>
<feOffset dy="27.4993"/>
<feGaussianBlur stdDeviation="27.4993"/>
<feComposite in2="hardAlpha" operator="out"/>
<feColorMatrix type="matrix" values="0 0 0 0 0 0 0 0 0 0 0 0 0 0 0 0 0 0 0.15 0"/>
<feBlend mode="normal" in2="BackgroundImageFix" result="effect1_dropShadow_10_829"/>
<feBlend mode="normal" in="SourceGraphic" in2="effect1_dropShadow_10_829" result="shape"/>
</filter>
</defs>
</svg>
