<svg width="195" height="195" viewBox="0 0 195 195" fill="none" xmlns="http://www.w3.org/2000/svg">
<path d="M97.1903 194.382C150.867 194.382 194.381 150.868 194.381 97.1912C194.381 43.514 150.867 0 97.1903 0C43.5136 0 0 43.514 0 97.1912C0 150.868 43.5136 194.382 97.1903 194.382Z" fill="#404040"/>
<path fill-rule="evenodd" clip-rule="evenodd" d="M96.9203 32.311C62.1595 32.312 33.5571 61.2384 33.5571 96.3908C33.5561 131.544 62.1595 160.472 96.9203 160.473C131.063 160.443 159.358 132.512 160.212 97.996H189.202V95.1411H160.241C159.573 60.4785 131.203 32.3287 96.9203 32.311ZM33.5571 96.3908V95.1411H4.2832V97.996H33.5571V96.3908Z" fill="#F5F5F5"/>
<path fill-rule="evenodd" clip-rule="evenodd" d="M96.8378 4.06567C46.2242 4.06567 4.98213 44.8139 4.10742 95.2203V95.2242L33.614 95.2497C34.0342 79.557 40.1788 63.9869 52.1577 52.005C57.3334 46.8284 63.2011 42.7985 69.437 39.7836L69.2289 39.7973L71.4731 38.7773H71.5968C72.6148 38.3336 73.6397 37.9095 74.6784 37.5217L74.591 37.5011C75.2419 37.2576 75.8859 37.025 76.5388 36.807L76.6379 36.8325C77.6481 36.4919 78.6534 36.1316 79.6803 35.8381L79.6361 35.8341C80.394 35.6182 81.1421 35.4149 81.9009 35.2274L82.0217 35.2667C83.2272 34.9712 84.4347 34.6708 85.6521 34.4489L85.6226 34.4391C86.1832 34.336 86.7388 34.2241 87.3033 34.1377L87.4025 34.1947C88.1721 34.0818 88.9438 33.9522 89.7184 33.8619L89.6437 33.8334C90.0355 33.7902 90.4399 33.7382 90.8326 33.7028C109.134 31.8925 128.07 37.988 142.086 52.008C148.754 58.6719 153.548 66.4775 156.619 74.7731L156.811 75.0008C157.189 76.0493 157.553 77.1046 157.88 78.1786L157.752 77.9205C157.96 78.5929 158.103 79.2792 158.288 79.9546L158.432 80.1195C158.618 80.79 158.79 81.4684 158.948 82.1438L158.82 81.971C159.858 86.2906 160.491 90.6877 160.621 95.1055H189.554C189.567 95.6807 189.591 96.256 189.599 96.8343L189.604 96.8401C189.604 45.6866 147.991 4.06666 96.8388 4.06666L96.8378 4.06567ZM62.99 61.0467V84.55H70.2921L70.3755 83.5918L70.2322 84.0641C70.2322 74.0387 75.3941 69.5719 86.9735 69.5719H88.8132V88.5799C88.8132 91.8383 86.4532 93.6918 84.7587 94.6627C86.4689 95.5414 88.8132 97.2613 88.8132 100.516V120.873C88.8132 123.513 86.999 125.094 83.9429 125.094H80.1957V134.244H110.459V125.094H106.912C103.541 125.094 101.838 123.737 101.838 121.061V100.516C101.838 97.2908 104.577 95.5207 106.482 94.6313C104.601 93.5789 101.838 91.5811 101.838 88.5799V69.6122L102.735 69.618H103.505C114.728 69.618 121.163 74.6906 121.163 83.5447L121.155 84.551H126.605V61.0476L62.99 61.0467Z" fill="#404040"/>
<path fill-rule="evenodd" clip-rule="evenodd" d="M93.8879 10.6033L88.3628 10.619L90.125 12.6335C90.125 12.6354 93.1958 17.3084 93.723 18.1075L92.969 19.3318L94.1177 20.4421C93.8173 20.8456 89.8433 26.0978 89.8433 26.0978C89.8354 26.0978 88.3186 27.5311 88.3186 27.5311L87.7434 28.0789L93.0329 28.019L92.6677 26.4178C92.8257 26.2156 95.6943 22.5027 96.1351 21.9323C96.5494 22.543 99.2167 26.5189 99.2265 26.5346L99.2246 26.5621C99.2246 26.7604 99.3443 27.8207 99.3443 27.8207L99.3777 28.0946L105.291 28.0887L103.135 25.9711C103.135 25.9633 99.8372 21.0753 99.2884 20.2555L100.04 19.0647L99.042 17.9505C99.3198 17.5705 103.032 12.6001 103.032 12.6001L104.749 10.619L99.4219 10.6033L99.6065 11.0342L100.14 12.2761C99.952 12.5284 97.3407 15.9909 96.9028 16.5731L94.0332 12.175L94.0372 12.1456C94.0372 11.9433 93.9213 10.8811 93.9213 10.8811L93.8879 10.6033ZM63.8434 16.7243L63.5675 16.8745L52.9993 22.432L54.9028 23.613C54.9028 23.6984 56.937 27.6292 57.2501 28.2418L56.4608 30.2995L58.6422 30.9288C58.761 31.1644 61.0239 35.7539 61.0337 35.7716C61.0032 35.7736 60.9915 37.2884 60.9915 37.2884L60.9895 37.8058L71.6971 32.1795L70.0773 28.93C70.0773 28.93 68.2974 31.3176 68.2974 31.3254C68.2798 31.2999 64.8673 33.1063 64.1497 33.4852C63.9013 33.0012 61.7896 28.8721 61.551 28.4048L64.4805 26.8723C64.4805 26.89 66.0071 26.6878 66.0071 26.6878L66.4361 26.6318L64.8575 23.451L63.4291 24.9668C63.4212 24.955 61.1829 26.1223 60.531 26.4571L58.4174 22.3888C58.9014 22.1336 62.7458 20.1377 62.7517 20.1338C62.7556 20.1642 65.0941 20.1181 65.0941 20.1181L65.5899 20.1083L63.8434 16.7243ZM133.267 18.2843L133.112 18.4286C133.112 18.4286 127.713 23.4167 127.695 23.4304C127.688 23.3892 125.648 23.7024 125.648 23.7024L125.384 23.7436C125.384 23.7436 125.393 25.5804 125.397 25.8199C125.199 25.9966 121.139 29.6486 121.139 29.6486C121.18 29.6152 119.68 30.5498 119.68 30.5498L119.201 30.8512L123.46 32.852C123.46 32.852 123.509 31.133 123.52 30.921L125.492 28.9477C125.846 29.1126 130.3 31.2165 130.663 31.3873C130.621 31.7456 130.379 33.8955 130.357 34.1096L128.884 35.3603L134.502 37.9903L134.061 35.644C134.075 35.644 134.819 30.2632 134.831 30.1807C134.879 30.2239 136.4 28.8564 136.4 28.8564L136.617 28.6659C136.617 28.6659 135.071 26.6976 135.063 26.6927C135.134 26.6868 135.46 19.5497 135.46 19.5497L135.474 19.3435L133.267 18.2843ZM131.487 23.2753C131.347 24.473 130.918 28.2045 130.846 28.8603L127.307 27.1914C127.816 26.7143 130.61 24.1 131.487 23.2753ZM35.8908 36.1241L35.7043 36.3548L26.7108 47.084L29.5607 49.4342C29.5607 49.4342 30.2518 46.6932 30.2558 46.6854C30.2715 46.6991 31.5762 45.148 32.0219 44.6189C32.4244 44.9537 35.2635 47.2882 35.4324 47.4237L35.67 49.5049L37.7541 49.4116L41.8882 52.885C41.8882 52.9488 42.5695 54.4174 42.5695 54.4174L42.7756 54.8661L46.6142 50.2736L44.3974 49.9319C44.3974 49.8721 40.3321 46.4508 40.2703 46.3928L40.2772 46.3575C40.2772 46.0875 40.0052 44.5728 40.0052 44.5728L39.9552 44.289C39.9552 44.289 38.1272 44.4834 37.9073 44.502C37.7247 44.3509 34.8993 41.9771 34.5047 41.6433C34.8119 41.2614 36.1844 39.6092 36.1883 39.5993C36.202 39.6209 38.3815 38.649 38.3815 38.649L38.8497 38.438L35.8908 36.1241ZM159.431 39.1586C158.911 39.1684 158.383 39.2754 157.858 39.5002C157.424 39.6828 156.826 40.0126 156.459 40.5447C156.015 41.1966 155.721 42.0713 155.631 43.0089L155.592 43.6646L155.554 43.9994C155.503 43.97 154.605 44.829 154.605 44.829L154.429 44.9959C154.429 44.9959 155.538 47.0084 155.538 47.0202V47.084C155.538 47.4668 155.635 49.3704 155.635 49.3704C155.612 50.2304 155.22 51.1031 154.72 51.4202C154.078 51.8345 153.253 51.9523 152.45 51.7481C151.689 51.5596 150.599 50.9942 149.729 49.3979C148.751 47.2872 149.356 45.7253 150.031 44.7917L150.26 44.4775L148.625 43.7638L148.475 43.9464C147.539 45.094 147.249 47.7201 148.574 50.3364C149.739 52.6346 151.277 54.1367 153.022 54.6776C154.372 55.1017 155.785 54.9505 157.116 54.2309C157.752 53.8981 158.309 53.2717 158.553 52.8378C159.039 52.0151 159.168 51.0236 159.17 50.7124L159.196 49.2016L159.128 48.37L160.19 47.2862L159.144 45.4965L159.155 45.3846L159.151 45.0361C159.151 43.6921 159.511 42.7929 160.179 42.5052C160.986 42.1489 162.825 42.194 163.619 43.9042C164.29 45.3611 164.424 46.3173 164.112 47.4413L164.041 47.7093L165.593 48.316L165.7 48.0029C166.225 46.3497 165.374 44.1987 164.823 43.0609C163.776 40.9266 161.681 39.1183 159.431 39.1586ZM21.6952 65.8967L19.4225 72.9012H12.0586L18.0167 77.2277L15.743 84.2342L21.6952 79.9009L27.6611 84.2342L25.3805 77.2277L31.3347 72.9012H23.9718L21.6952 65.8967ZM171.358 65.8967L169.084 72.8993H161.714L167.672 77.2316L165.397 84.2342L171.358 79.9029L177.317 84.2342L175.036 77.2316L181.002 72.8993H173.63L171.358 65.8967ZM29.4508 111.438L29.1072 111.768L27.8663 112.962C27.8447 112.949 26.3681 113.483 26.3681 113.483L23.3749 114.558C23.3749 114.487 21.5872 113.734 21.5872 113.734L21.3093 113.621L20.3247 115.796C20.1028 115.88 15.3631 117.613 15.3532 117.615C15.3454 117.597 13.7334 117.506 13.7334 117.506L13.2651 117.475L15.2718 123.079L16.8474 121.425C16.869 121.445 20.8617 119.958 21.9661 119.548L22.3352 120.599L16.6393 126.885L18.2326 131.426C18.2326 131.426 19.6453 129.267 19.6856 129.213C19.7788 129.112 24.3085 124.368 24.6413 124.017C26.0461 125.636 28.0116 126.374 29.6746 125.78C30.781 125.367 31.5428 124.591 31.9846 123.455C32.5873 121.889 32.4715 119.669 31.6812 117.512L29.4508 111.438ZM165.939 114.207L165.532 114.417C164.363 115.03 163.334 116.522 162.635 118.615C161.697 121.434 162.255 125.036 165.141 126.174C165.593 126.347 166.271 126.559 166.925 126.429C167.722 126.27 168.556 125.838 169.283 125.24L169.764 124.801L169.974 124.634C169.99 124.688 171.29 124.71 171.29 124.71L171.528 124.712C171.528 124.712 172.167 122.445 172.167 122.437C172.193 122.445 173.721 120.723 173.721 120.723C174.306 120.169 175.129 119.845 175.656 119.971C176.542 120.224 177.157 120.757 177.522 121.467C177.98 122.36 178.033 123.482 177.677 124.715C176.93 126.793 175.474 127.449 174.382 127.625L173.999 127.689L173.963 128.08L174.578 129.644L174.9 129.614C176.19 129.486 178.445 127.951 179.4 124.925C180.139 122.623 180.153 120.554 179.443 118.959C178.807 117.529 177.595 116.485 176.024 116.02C175.33 115.806 174.493 115.852 173.967 115.985H173.963C173.085 116.226 172.306 116.793 171.983 117.092C171.971 117.098 170.913 118.143 170.913 118.143L170.419 118.734L168.865 118.755L168.341 120.838L168.15 121.018C166.951 122.285 166.153 122.291 165.788 122.18C165.014 121.878 163.693 120.686 164.329 118.93C164.849 117.473 165.4 116.728 166.358 116.191L166.6 116.057L166.614 115.727L165.939 114.207ZM29.117 116.997C29.2593 117.374 29.5646 118.246 29.5646 118.246C29.7119 118.643 29.7816 119.015 29.7816 119.355C29.7816 119.637 29.7335 119.897 29.6402 120.139C29.4085 120.751 28.8931 121.219 28.1559 121.494C27.3509 121.782 26.4977 121.734 25.8361 121.37C25.3265 121.1 24.9505 120.662 24.7405 120.097L24.2084 118.652L29.117 116.997ZM154.856 139.685C154.574 139.671 154.28 139.687 153.98 139.733C152.321 139.974 150.443 141.163 148.962 142.916L144.775 147.844C144.775 147.844 146.926 148.483 146.936 148.483V148.485C146.936 148.531 150.444 151.591 150.481 151.624L150.465 151.73C150.465 152.135 150.632 153.588 150.632 153.588L150.668 153.885C150.668 153.885 152.814 153.701 153.042 153.677C153.238 153.841 157.072 157.137 157.072 157.137C157.072 157.192 157.763 158.605 157.763 158.605L157.968 159.022L161.851 154.522L159.662 153.959C159.662 153.933 156.4 151.161 155.497 150.402L156.235 149.559C156.578 149.64 164.485 151.462 164.485 151.462L167.647 147.836L165.029 147.653C164.981 147.643 158.584 146.006 158.071 145.875C158.312 145.197 158.493 144.513 158.493 143.869C158.493 142.562 158.026 141.385 157.131 140.609C156.458 140.033 155.7 139.726 154.856 139.685ZM44.5692 141.354L44.2826 141.451C44.2826 141.451 37.7159 143.743 37.6913 143.749C37.6894 143.708 35.7289 143.228 35.7289 143.228L35.4785 143.166C35.4785 143.166 34.699 144.824 34.5999 145.025L29.1022 146.874L29.1415 146.891C28.8941 146.903 28.4396 146.969 27.451 147.119L26.6666 147.249L30.0251 151.103C30.0251 151.103 30.8085 149.445 30.8958 149.253L33.3178 148.288C33.5632 148.568 36.6497 152.07 36.8902 152.347C36.7194 152.64 35.721 154.392 35.6317 154.557L33.6545 155.156L38.031 160.159L38.5965 157.593C38.6043 157.638 39.7303 155.755 39.7303 155.755L41.522 152.78C41.5426 152.834 43.2704 152.154 43.2704 152.154L43.5051 152.067C43.5051 152.067 43.1516 149.683 43.1477 149.676C43.2017 149.683 46.1979 143.511 46.1979 143.511L46.2873 143.327L44.5692 141.354ZM152.735 143.397C153.223 143.44 153.702 143.658 154.15 144.043C154.802 144.604 155.176 145.374 155.191 146.131V146.177C155.191 146.735 154.993 147.265 154.614 147.707L153.63 148.894C153.223 148.523 150.162 145.746 149.785 145.403L150.647 144.399C151.139 143.824 151.682 143.485 152.244 143.41C152.408 143.386 152.572 143.382 152.735 143.397ZM40.6325 145.617C40.0573 146.614 38.4924 149.335 38.1792 149.882C37.7708 149.42 36.3365 147.788 35.9105 147.298C36.5447 147.076 39.5458 146.006 40.6325 145.617ZM73.638 155.181C73.0372 155.307 72.4913 155.346 71.921 155.313C73.1196 155.832 74.336 156.287 75.5563 156.729C74.9162 156.359 74.3281 155.935 73.638 155.181ZM61.3105 155.913L61.3439 156.444L61.4784 158.452C61.4509 158.413 60.3062 160.752 60.3062 160.752L59.4885 162.426C59.2744 162.505 57.4298 163.21 57.4298 163.21C57.4298 163.21 58.0237 165.459 58.0316 165.478C57.9599 165.467 56.4657 168.489 56.4657 168.489L55.5861 170.261C55.5645 170.236 54.2225 171.222 54.2225 171.222L53.8141 171.524L58.7041 173.95C58.7041 173.95 58.4125 171.481 58.4066 171.475C58.4478 171.475 61.5079 165.316 62.6182 163.091L65.045 177.119L67.0536 178.133C67.0536 178.133 70.3149 171.468 70.3267 171.434C70.3581 171.493 72.0113 170.726 72.0113 170.726L72.2439 170.617L71.7335 168.54C71.8051 168.54 73.0421 166 73.0421 166L73.8638 164.317C73.8972 164.323 75.1754 163.315 75.1754 163.315L75.5563 163.013L70.8264 160.618L71.0413 163.045C71.005 163.019 68.7962 167.518 68.7962 167.518C68.7962 167.518 68.159 168.829 67.7251 169.714C67.4374 168.126 65.5987 158.015 65.5987 158.015L61.3105 155.913ZM132.536 157.098L132.119 157.281L121.084 162.075L123.022 163.495C123.022 163.577 124.815 167.757 124.972 168.128C124.875 168.346 124.019 170.174 124.019 170.174L126.192 170.974L128.167 175.821C128.141 175.825 128.009 177.5 128.009 177.5L127.966 178.014L139.259 173.094L137.804 169.682L135.737 172.068C135.725 172.039 133.113 173.183 133.113 173.183L131.698 173.806C131.574 173.509 129.748 169.153 129.542 168.651C130.002 168.452 132.357 167.439 132.363 167.437C132.366 167.448 134.074 167.35 134.074 167.35L134.51 167.33L133.008 163.71L131.366 165.232C131.362 165.22 128.637 166.399 128.637 166.399L128.588 166.419C128.384 165.948 126.99 162.715 126.789 162.242C127.217 162.059 130.822 160.511 130.958 160.447C131.124 160.461 134.018 160.62 134.018 160.62L132.535 157.095L132.536 157.098ZM99.578 165.908C95.2741 165.867 91.3551 168.508 90.0445 172.328L89.8246 173.137C89.8128 173.105 88.5817 174.384 88.5817 174.384L88.4041 174.576L89.7667 176.369C90.503 180.677 94.6517 183.945 99.3787 183.986C102.701 184.019 103.67 183.538 104.804 182.974L105.462 182.644L105.49 176.569C105.534 176.569 106.358 175.104 106.358 175.104L106.615 174.65L100.338 174.603L101.414 176.674C101.379 176.674 101.372 178.214 101.372 178.214L101.364 181.223C101.019 181.324 100.618 181.647 99.4013 181.635C96.4119 181.614 94.6527 178.933 94.2345 176.293C94.26 176.273 95.5785 174.961 95.5785 174.961L95.7768 174.761L94.3935 173.119L94.4848 172.596C95.0955 170.482 96.7605 168.212 99.5898 168.278C101.625 168.322 103.143 168.82 103.862 169.678L104.113 169.989L104.641 170.638L104.74 167.402L104.534 167.264C103.075 166.274 101.817 165.93 99.578 165.908Z" fill="#F5F5F5"/>
<path fill-rule="evenodd" clip-rule="evenodd" d="M91.0458 33.6733L90.8317 33.6989C90.4391 33.7352 90.0346 33.7862 89.6429 33.8304L89.7175 33.8579C90.2074 34.0464 91.6515 34.6207 91.8576 34.9692L92.5939 34.8583C92.5939 34.8583 91.6898 34.1269 91.0458 33.6733ZM87.3025 34.1357C86.736 34.2231 86.1823 34.3321 85.6237 34.4352L85.6532 34.446C86.684 34.7228 87.6431 35.3275 88.6818 35.8351L89.6841 35.7457C89.6841 35.7457 88.7495 34.9466 87.4016 34.1917L87.3025 34.1357ZM81.9 35.2235C81.1392 35.412 80.3931 35.6171 79.6352 35.8312L79.6794 35.8351C80.1791 35.9175 81.1481 36.1208 81.5133 36.537C82.6432 36.3348 83.4256 36.9032 84.1433 37.2714L85.8338 36.7294C85.8338 36.7294 83.6397 35.6486 82.8346 35.6299C82.492 35.466 82.2751 35.3344 82.0208 35.2628L81.9 35.2235ZM76.5369 36.8031C75.885 37.023 75.2401 37.2537 74.5902 37.4981L74.6775 37.5178C74.9907 37.5914 76.0441 37.8535 76.583 38.3179C77.7641 38.1176 78.9284 38.7017 79.7746 39.2407L81.4809 38.6389C81.2933 38.3257 79.0904 37.3686 77.8573 37.345C77.447 37.022 77.0189 36.9121 76.637 36.8286L76.5369 36.8031ZM72.5619 38.7459C72.235 38.7292 71.8855 38.7861 71.5959 38.7744H71.4722L69.228 39.7944L69.4361 39.7786C70.0605 39.7129 71.699 39.4969 71.9071 39.9711C73.1775 39.8454 74.546 40.62 75.3726 41.1452L77.1868 40.6769C76.2071 39.7953 74.4203 39.1013 73.3934 39.1572C73.1932 38.8539 72.8888 38.7626 72.5619 38.7459ZM67.3922 41.3602L65.2088 42.5432C65.4876 42.5609 67.3323 42.5972 67.5748 43.1381C68.8353 43.0311 70.2274 43.4709 71.0314 43.9735L72.6179 42.767C71.3731 42.0975 69.4263 41.7234 68.4142 41.7725C67.9027 41.5968 67.9763 41.4338 67.3922 41.3602ZM61.9063 44.7599L60.3915 46.042C61.1131 46.2678 61.3566 46.8745 61.7993 47.4969C63.2778 47.2191 65.4513 46.634 67.5728 47.1101L69.1662 45.6965C66.7717 45.2743 64.233 45.3931 62.942 45.7328C62.6328 45.2527 61.9063 44.7599 61.9063 44.7599ZM57.3845 49.4614L56.1269 50.6188C56.8544 50.8407 57.0841 51.6653 57.5377 52.272C58.7609 51.6653 61.4606 51.2324 64.1849 51.6035L65.5917 49.7893C61.4606 49.4957 59.7593 50.018 58.4742 50.6443C58.0325 49.8973 57.3845 49.4614 57.3845 49.4614ZM53.5126 54.2649L52.5181 55.8347C53.4282 56.3344 53.3428 56.9254 53.7806 57.5439C55.0156 56.9254 57.5288 55.7483 60.2649 56.1262L61.6638 54.3189C57.3845 54.4112 55.0284 54.7843 54.7172 55.7768C54.2872 55.0277 53.5126 54.2649 53.5126 54.2649ZM50.1168 58.9467L49.3707 60.7227C50.0324 61.2204 50.4389 62.4407 50.8963 63.0611C52.1215 62.4269 53.705 61.2214 56.4283 61.618L57.7183 59.5122C54.2479 59.5122 52.0116 60.22 51.6984 61.2214C51.2664 60.1847 50.1168 58.9467 50.1168 58.9467ZM128.311 59.4425V86.2562H119.554L124.622 91.0519H132.899V63.7326L128.311 59.4435V59.4425ZM47.37 63.926L46.6317 65.9032C47.5516 66.4029 47.6999 67.6212 48.1456 68.223C49.3707 67.6124 51.2154 66.4775 53.9672 66.8437L55.0981 64.7575C51.7602 64.7575 49.4493 65.4781 49.1518 66.4765C48.603 65.1051 47.37 63.926 47.37 63.926ZM44.6585 70.0333L44.0498 72.0821C44.9589 72.5946 45.3859 73.811 45.8277 74.4373C47.0588 73.811 48.5667 72.7949 51.3018 73.1709L52.1785 71.1947C48.0199 71.4499 46.939 71.8014 46.6317 72.788C46.0093 71.5609 44.6585 70.0333 44.6585 70.0333ZM86.9726 71.2821C76.2944 71.2821 71.9366 74.9831 71.9267 84.1651L71.915 86.2572H61.3644L66.1758 90.7662H76.209L76.2188 89.0806C76.2188 79.6797 77.1367 73.753 87.1091 72.7605V71.2821H86.9726ZM103.543 71.3311V88.578C103.543 91.8147 108.747 93.891 108.805 93.9136L110.946 94.751C109.61 93.7124 108.36 92.2918 108.36 90.5031V73.0472L109.186 73.0973C112.389 73.3721 114.695 74.2203 116.337 75.4592C113.679 72.8027 109.391 71.3488 103.543 71.3311ZM155.751 73.8502L155.498 74.7151C156.312 75.6016 157.098 76.545 157.75 77.9185L157.879 78.1767C157.551 77.1027 157.187 76.0454 156.811 74.9969L156.615 74.7711C156.393 74.5109 156.13 74.2243 155.751 73.8502ZM42.1561 75.8284L41.7477 77.8792C42.6715 78.3868 43.0818 79.6021 43.5354 80.2265C44.7547 79.6021 46.8026 78.481 49.5317 78.8452L50.216 76.8072C46.2047 77.0487 44.4484 77.4413 44.1313 78.4446C43.6876 77.6995 42.1561 75.8284 42.1561 75.8284ZM154.701 76.3428L154.389 77.2676C155.547 78.263 156.325 79.0877 157.057 80.8479L157.494 79.9427C156.748 78.425 156.358 78.0196 154.701 76.3428ZM153.457 79.0435L152.884 79.9653C154.444 81.3564 155.132 82.1251 155.858 84.1583L156.223 83.3827L156.179 83.5015C157.056 84.227 158.048 85.3854 158.644 88.5829L159.097 86.7686C158.921 84.4655 156.779 81.9091 156.472 82.7014L156.34 83.0627C155.605 81.5842 155.122 80.5662 153.457 79.0435ZM157.813 79.4195L157.383 80.3953C157.856 80.734 158.33 81.2357 158.817 81.969L158.946 82.1379C158.789 81.4644 158.617 80.7861 158.43 80.1156L158.286 79.9506L157.813 79.4195ZM151.738 81.8738L150.961 82.9066C152.135 83.6321 153.355 85.3854 154.1 87.1574L154.481 86.5301C155.127 87.0897 156.284 87.9349 157.041 92.3134L157.626 90.7898C156.982 86.6253 155.04 85.0565 154.883 85.9882L154.611 86.3239L154.82 85.9882C154.073 84.4901 153.167 82.8624 151.738 81.8738ZM40.3222 81.9023L39.8932 84.0895C40.8013 84.9318 41.4797 86.4958 41.9234 87.128C43.1525 86.5016 45.0767 84.7886 47.7912 85.1763L48.2172 83.3464C44.2471 83.6478 43.6139 84.0886 42.646 85.2716C42.212 84.5186 40.3222 81.9023 40.3222 81.9023ZM149.391 84.98L148.415 86.0147C149.589 86.7333 151.363 88.6624 152.105 90.4384L152.805 89.3859C152.066 87.88 150.825 85.9735 149.391 84.98ZM146.337 88.2275L145.217 89.1346C146.034 89.6736 148.866 92.0582 149.601 93.8361L150.458 92.6551C149.715 91.1471 147.826 89.2338 146.337 88.2275ZM38.5532 88.684L38.2361 90.8016C39.85 92.1888 40.5176 93.519 40.9868 94.0982C41.516 93.0418 43.5226 92.0523 46.2685 92.28L46.6092 90.2852C43.3528 90.4756 41.8871 91.0107 41.4571 91.9463C40.9819 91.2012 38.5532 88.684 38.5532 88.684ZM153.306 88.7891L153.162 88.8607L152.663 89.7236C154.061 91.5133 154.597 93.5278 154.757 96.2275L155.748 94.7098C155.719 92.069 154.086 88.6752 153.306 88.7891ZM151.445 91.4966L150.453 92.7886C151.102 94.9523 151.502 98.6357 151.148 100.769L152.432 99.0794C152.648 96.6615 151.891 93.6505 151.445 91.4966ZM142.77 91.6252L141.587 92.6747C142.769 93.3786 145.206 95.6385 145.936 97.4105L146.909 96.3807C146.164 94.8796 144.207 92.6119 142.77 91.6252ZM111.086 94.8659L108.725 95.5315C108.673 95.5452 103.548 97.0296 103.548 100.511V121.058C103.548 122.451 104.117 123.38 106.914 123.38H108.361L108.363 122.972V116.751C109.814 118.026 111.338 119.069 112.493 119.201L112.997 118.903C113.018 121.407 112.806 122.888 113.402 124.637L112.169 123.49V135.95H78.5916L83.8674 140.939H86.1519C86.4925 141.49 86.8852 141.918 87.3663 142.052L88.4579 140.939H116.236V127.276L114.227 125.411L115.829 124.74C114.634 123.487 114.684 119.8 114.807 117.804L114.251 118.131C112.025 117.763 109.615 115.539 108.502 114.028L108.362 114.086V102.44C108.362 98.242 114.18 96.631 114.18 96.631C114.18 96.631 112.597 96.0037 111.086 94.8659ZM139.417 94.9356L138.23 95.986C139.416 96.6929 141.85 98.9548 142.583 100.723L143.369 99.8834C143.605 102.706 143.588 105.877 143.265 107.358L144.724 106.193C144.963 103.648 144.806 100.704 144.349 98.5523L143.321 99.3043C142.471 97.8258 140.736 95.8476 139.417 94.9356ZM148.085 95.3548L146.979 96.4523C147.346 97.3997 147.63 98.5532 147.343 104.27L148.738 102.97C148.778 98.6828 148.546 97.5107 148.085 95.3548ZM37.4644 95.8721L37.324 97.9083C38.1281 98.2715 39.6144 100.761 40.0601 101.372C40.1651 101.259 40.2967 100.885 40.5706 100.55C41.0585 99.964 42.4643 99.1275 45.4851 99.2542L45.6579 97.387C42.1728 97.4282 41.0585 98.2783 40.763 98.6209C40.4852 98.8654 40.3782 99.3278 40.3026 99.588C39.7656 98.1665 37.4644 95.8721 37.4644 95.8721ZM135.492 98.1331L134.264 99.0519C134.781 99.1963 136.168 100.582 138.136 103.51L139.313 102.539C139.475 105.789 139.733 108.87 139.381 110.356L140.797 109.253C141.083 106.879 141.009 104.118 140.669 101.595L139.35 102.448C137.632 99.9247 136.486 98.7957 135.491 98.1183L135.492 98.1331ZM130.288 102.114L128.613 103.135C129.37 103.703 132.789 107.653 134.387 107.056C134.387 107.056 133.664 111.94 133.794 114.467L135.628 113.293C135.568 111.964 135.655 106.36 135.987 105.054C136.054 104.983 134.956 106.115 134.504 105.798C133.784 105.297 132.554 104.6 130.288 102.114ZM36.9863 102.269L37.0305 104.516C37.9317 105.057 39.3395 106.478 39.7528 107.114C40.3183 106.163 40.9594 105.67 45.0325 106.531L45.0541 104.585C40.2496 104.351 40.3193 104.786 40.1661 105.401C39.7538 104.638 36.9863 102.269 36.9863 102.269ZM124.052 105.413L121.772 106.657C123.092 108.021 127.418 111.456 128.304 111.484L128.425 111.391C128.44 114.285 128.077 115.788 129.185 118.006L131.253 117.143C130.061 115.904 130.116 112.204 130.233 110.21L130.161 110.084C129.424 110.343 128.488 110.12 127.651 109.406C126.819 108.694 124.052 105.413 124.052 105.413ZM36.9844 108.926L37.1061 110.939C38.1722 111.19 39.4779 111.849 39.9325 112.465C41.1547 111.839 42.8943 111.895 45.061 113.052L45.0031 111.055C42.3789 109.878 41.0261 110.087 40.063 110.659C39.6213 109.891 36.9844 108.926 36.9844 108.926ZM116.131 110.282L114.053 111.141C115.936 113.105 118.432 115.259 120.122 115.452L120.63 115.16C120.656 118.111 120.275 119.606 121.387 121.852L123.464 120.987C122.267 119.745 122.319 116.043 122.438 114.055L121.89 114.378C119.655 114.019 117.251 111.798 116.131 110.282ZM37.4468 114.292L37.9651 116.529C39.1579 116.837 39.9364 117.401 40.3841 118.026C40.6207 117.399 41.3825 117.745 42.3789 118.187C43.2576 118.593 43.9124 119.058 44.9275 119.614L44.8754 117.602C42.6597 116.178 40.495 115.094 40.1818 116.083C39.7499 115.336 37.4468 114.292 37.4468 114.292ZM38.4746 119.443L38.7534 121.47C39.7185 121.866 40.4606 122.415 40.9142 123.09C41.9588 122.96 42.8845 123.365 45.1277 124.972L44.9609 123.069C42.6695 121.15 41.5523 121.26 40.7355 121.26C40.2898 120.445 38.4746 119.443 38.4746 119.443ZM78.4846 134.702L77.8318 135.404L78.4846 135.702V134.702ZM75.4845 138.609L74.5754 139.975C76.7971 141.142 78.9677 141.23 80.9203 141.23L81.0352 141.065C81.848 142.86 82.6334 144.723 84.6037 145.467L85.7219 144.171C84.2748 143.588 82.3752 141.111 82.0218 139.622L81.8991 139.802C79.6843 140.222 77.0641 139.076 75.4845 138.609ZM72.8368 142.572L72.021 144.014C74.2407 144.7 76.1717 144.812 78.6437 144.534L78.7713 144.308C79.6647 145.953 79.8954 146.931 82.2103 148.291L83.3314 146.997C81.8745 146.41 80.1064 144.062 79.755 142.572L79.5135 142.956C77.2163 143.547 74.4242 143.035 72.8368 142.572ZM70.8282 146.702L70.1636 148.215C72.5698 149.04 74.8032 149.212 76.4309 148.872C77.2595 150.241 78.1607 151.533 80.1467 152.275L80.8732 150.981C79.2317 150.305 77.6983 149.436 77.1613 147.426C74.8503 148.01 72.4215 147.165 70.8282 146.702ZM69.5402 150.191L69.1014 151.537C71.3269 152.688 73.47 152.512 75.0928 152.163C75.9871 153.434 76.7391 154.147 78.7153 154.884L79.4241 153.86C77.3174 153.604 76.4908 152.526 75.5395 151.104C73.2442 151.688 71.1198 150.658 69.5402 150.191Z" fill="#404040"/>
</svg>
