<svg width="114" height="38" viewBox="0 0 114 38" fill="none" xmlns="http://www.w3.org/2000/svg">
<path d="M6.60047 14.9633C2.96047 14.9633 0.580469 12.4433 0.580469 7.74327C0.580469 3.04327 2.96047 0.523266 6.60047 0.523266C10.2405 0.523266 12.6205 3.04327 12.6205 7.74327C12.6205 12.4433 10.2405 14.9633 6.60047 14.9633ZM6.60047 12.9433C8.76047 12.9433 10.2005 11.3833 10.2005 8.84327V6.64327C10.2005 4.10327 8.76047 2.54327 6.60047 2.54327C4.44047 2.54327 3.00047 4.10327 3.00047 6.64327V8.84327C3.00047 11.3833 4.44047 12.9433 6.60047 12.9433ZM15.2788 18.7233V4.32327H17.4588V6.04327H17.5588C17.9988 4.80327 19.0988 4.08327 20.4788 4.08327C23.0988 4.08327 24.6188 6.10327 24.6188 9.52327C24.6188 12.9433 23.0988 14.9633 20.4788 14.9633C19.0988 14.9633 17.9988 14.2233 17.5588 13.0033H17.4588V18.7233H15.2788ZM19.8188 13.0833C21.3188 13.0833 22.3188 12.0233 22.3188 10.4233V8.62327C22.3188 7.02327 21.3188 5.96327 19.8188 5.96327C18.4988 5.96327 17.4588 6.68327 17.4588 7.74327V11.3033C17.4588 12.3633 18.4988 13.0833 19.8188 13.0833ZM31.1947 14.9633C28.2347 14.9633 26.4147 12.8433 26.4147 9.52327C26.4147 6.20327 28.2347 4.08327 31.1947 4.08327C34.2547 4.08327 35.8147 6.38327 35.8147 9.26327V10.0833H28.6747V10.4233C28.6747 12.0233 29.6547 13.1633 31.4147 13.1633C32.6947 13.1633 33.5547 12.5633 34.1547 11.6033L35.4347 12.8633C34.6547 14.1233 33.1347 14.9633 31.1947 14.9633ZM31.1947 5.78327C29.6947 5.78327 28.6747 6.90327 28.6747 8.50327V8.64327H33.5147V8.44327C33.5147 6.84327 32.6347 5.78327 31.1947 5.78327ZM40.408 14.7233H38.228V4.32327H40.408V6.04327H40.508C40.948 4.92327 41.828 4.08327 43.428 4.08327C45.548 4.08327 46.808 5.56327 46.808 8.12327V14.7233H44.628V8.40327C44.628 6.78327 44.008 5.96327 42.668 5.96327C41.528 5.96327 40.408 6.54327 40.408 7.76327V14.7233ZM57.8561 14.9633C55.8961 14.9633 54.6161 14.2233 53.6361 13.0033L55.0361 11.7233C55.7961 12.6433 56.7361 13.2033 57.9761 13.2033C59.2361 13.2033 59.8761 12.6833 59.8761 11.8033C59.8761 11.1433 59.4761 10.6433 58.3961 10.5033L57.4361 10.3833C55.3161 10.1233 54.0161 9.20327 54.0161 7.28327C54.0161 5.26327 55.5961 4.08327 57.8761 4.08327C59.7561 4.08327 60.8161 4.70327 61.7561 5.74327L60.4161 7.02327C59.8761 6.38327 58.9961 5.84327 57.8761 5.84327C56.6761 5.84327 56.1161 6.36327 56.1161 7.14327C56.1161 7.94327 56.6161 8.30327 57.7161 8.48327L58.6761 8.60327C60.9561 8.94327 61.9761 9.94327 61.9761 11.6233C61.9761 13.6233 60.3561 14.9633 57.8561 14.9633ZM68.5189 14.9633C65.6189 14.9633 63.7389 12.8433 63.7389 9.52327C63.7389 6.20327 65.6189 4.08327 68.5189 4.08327C71.4189 4.08327 73.2989 6.20327 73.2989 9.52327C73.2989 12.8433 71.4189 14.9633 68.5189 14.9633ZM68.5189 13.1633C69.9989 13.1633 70.9989 12.2433 70.9989 10.4033V8.64327C70.9989 6.80327 69.9989 5.88327 68.5189 5.88327C67.0389 5.88327 66.0389 6.80327 66.0389 8.64327V10.4033C66.0389 12.2433 67.0389 13.1633 68.5189 13.1633ZM82.028 14.7233V13.0033H81.948C81.568 14.0233 80.748 14.9633 79.028 14.9633C76.888 14.9633 75.628 13.5033 75.628 10.9433V4.32327H77.808V10.6633C77.808 12.2433 78.468 13.0833 79.808 13.0833C80.928 13.0833 82.028 12.5033 82.028 11.2833V4.32327H84.208V14.7233H82.028ZM89.5095 14.7233H87.3295V4.32327H89.5095V6.32327H89.6095C89.9095 5.26327 90.8095 4.32327 92.4695 4.32327H93.0495V6.42327H92.1895C90.4695 6.42327 89.5095 7.00327 89.5095 8.08327V14.7233ZM98.9081 14.9633C95.9081 14.9633 94.1881 12.8433 94.1881 9.52327C94.1881 6.20327 95.9081 4.08327 98.9081 4.08327C100.988 4.08327 102.308 5.10327 102.928 6.64327L101.128 7.48327C100.828 6.52327 100.088 5.90327 98.9081 5.90327C97.3081 5.90327 96.4881 7.00327 96.4881 8.60327V10.4633C96.4881 12.0633 97.3081 13.1633 98.9081 13.1633C100.168 13.1633 100.908 12.4833 101.348 11.4433L103.008 12.3233C102.328 14.0233 100.908 14.9633 98.9081 14.9633ZM109.046 14.9633C106.086 14.9633 104.266 12.8433 104.266 9.52327C104.266 6.20327 106.086 4.08327 109.046 4.08327C112.106 4.08327 113.666 6.38327 113.666 9.26327V10.0833H106.526V10.4233C106.526 12.0233 107.506 13.1633 109.266 13.1633C110.546 13.1633 111.406 12.5633 112.006 11.6033L113.286 12.8633C112.506 14.1233 110.986 14.9633 109.046 14.9633ZM109.046 5.78327C107.546 5.78327 106.526 6.90327 106.526 8.50327V8.64327H111.366V8.44327C111.366 6.84327 110.486 5.78327 109.046 5.78327ZM27.0095 37.7233H24.8295V27.3233H27.0095V29.0433H27.1095C27.5295 27.9633 28.3095 27.0833 29.8895 27.0833C31.2895 27.0833 32.4695 27.7633 32.9695 29.2033H33.0295C33.4095 28.0433 34.4895 27.0833 36.1695 27.0833C38.2295 27.0833 39.4495 28.5633 39.4495 31.1233V37.7233H37.2695V31.3833C37.2695 29.7833 36.6695 28.9633 35.3495 28.9633C34.2495 28.9633 33.2295 29.5433 33.2295 30.7433V37.7233H31.0495V31.3833C31.0495 29.7633 30.4295 28.9633 29.1495 28.9633C28.0695 28.9633 27.0095 29.5433 27.0095 30.7433V37.7233ZM46.5463 37.9633C43.6463 37.9633 41.7663 35.8433 41.7663 32.5233C41.7663 29.2033 43.6463 27.0833 46.5463 27.0833C49.4463 27.0833 51.3263 29.2033 51.3263 32.5233C51.3263 35.8433 49.4463 37.9633 46.5463 37.9633ZM46.5463 36.1633C48.0263 36.1633 49.0263 35.2433 49.0263 33.4033V31.6433C49.0263 29.8033 48.0263 28.8833 46.5463 28.8833C45.0663 28.8833 44.0663 29.8033 44.0663 31.6433V33.4033C44.0663 35.2433 45.0663 36.1633 46.5463 36.1633ZM60.2953 37.7233V36.0033H60.1953C59.7553 37.2233 58.6553 37.9633 57.2753 37.9633C54.6553 37.9633 53.1353 35.9433 53.1353 32.5233C53.1353 29.1033 54.6553 27.0833 57.2753 27.0833C58.6553 27.0833 59.7553 27.8033 60.1953 29.0433H60.2953V22.9233H62.4753V37.7233H60.2953ZM57.9353 36.0833C59.2553 36.0833 60.2953 35.3633 60.2953 34.3033V30.7433C60.2953 29.6833 59.2553 28.9633 57.9353 28.9633C56.4353 28.9633 55.4353 30.0233 55.4353 31.6233V33.4233C55.4353 35.0233 56.4353 36.0833 57.9353 36.0833ZM69.6713 37.9633C66.7113 37.9633 64.8913 35.8433 64.8913 32.5233C64.8913 29.2033 66.7113 27.0833 69.6713 27.0833C72.7313 27.0833 74.2913 29.3833 74.2913 32.2633V33.0833H67.1513V33.4233C67.1513 35.0233 68.1313 36.1633 69.8913 36.1633C71.1713 36.1633 72.0313 35.5633 72.6313 34.6033L73.9113 35.8633C73.1313 37.1233 71.6113 37.9633 69.6713 37.9633ZM69.6713 28.7833C68.1713 28.7833 67.1513 29.9033 67.1513 31.5033V31.6433H71.9913V31.4433C71.9913 29.8433 71.1113 28.7833 69.6713 28.7833ZM80.3245 37.7233H78.9245C77.4445 37.7233 76.7045 36.9033 76.7045 35.5633V22.9233H78.8845V35.9433H80.3245V37.7233ZM85.7077 37.9633C83.7477 37.9633 82.4677 37.2233 81.4877 36.0033L82.8877 34.7233C83.6477 35.6433 84.5877 36.2033 85.8277 36.2033C87.0877 36.2033 87.7277 35.6833 87.7277 34.8033C87.7277 34.1433 87.3277 33.6433 86.2477 33.5033L85.2877 33.3833C83.1677 33.1233 81.8677 32.2033 81.8677 30.2833C81.8677 28.2633 83.4477 27.0833 85.7277 27.0833C87.6077 27.0833 88.6677 27.7033 89.6077 28.7433L88.2677 30.0233C87.7277 29.3833 86.8477 28.8433 85.7277 28.8433C84.5277 28.8433 83.9677 29.3633 83.9677 30.1433C83.9677 30.9433 84.4677 31.3033 85.5677 31.4833L86.5277 31.6033C88.8077 31.9433 89.8277 32.9433 89.8277 34.6233C89.8277 36.6233 88.2077 37.9633 85.7077 37.9633Z" fill="#FAFAFA"/>
</svg>
