<svg width="16" height="16" viewBox="0 0 16 16" fill="none" xmlns="http://www.w3.org/2000/svg">
<path fill-rule="evenodd" clip-rule="evenodd" d="M3 7C3.27614 7 3.5 7.22386 3.5 7.5V8.5C3.5 8.77614 3.27614 9 3 9C2.72386 9 2.5 8.77614 2.5 8.5V7.5C2.5 7.22386 2.72386 7 3 7Z" fill="#A16207"/>
<path fill-rule="evenodd" clip-rule="evenodd" d="M5.5 5.5C5.77614 5.5 6 5.72386 6 6V10C6 10.2761 5.77614 10.5 5.5 10.5C5.22386 10.5 5 10.2761 5 10V6C5 5.72386 5.22386 5.5 5.5 5.5Z" fill="#A16207"/>
<path fill-rule="evenodd" clip-rule="evenodd" d="M8 4C8.27614 4 8.5 4.22386 8.5 4.5V11.5C8.5 11.7761 8.27614 12 8 12C7.72386 12 7.5 11.7761 7.5 11.5V4.5C7.5 4.22386 7.72386 4 8 4Z" fill="#A16207"/>
<path fill-rule="evenodd" clip-rule="evenodd" d="M10.5 5.5C10.7761 5.5 11 5.72386 11 6V10C11 10.2761 10.7761 10.5 10.5 10.5C10.2239 10.5 10 10.2761 10 10V6C10 5.72386 10.2239 5.5 10.5 5.5Z" fill="#A16207"/>
<path fill-rule="evenodd" clip-rule="evenodd" d="M13 7C13.2761 7 13.5 7.22386 13.5 7.5V8.5C13.5 8.77614 13.2761 9 13 9C12.7239 9 12.5 8.77614 12.5 8.5V7.5C12.5 7.22386 12.7239 7 13 7Z" fill="#A16207"/>
</svg>
