<svg width="48" height="48" viewBox="0 0 48 48" fill="none" xmlns="http://www.w3.org/2000/svg">
<path d="M34.28 0H13.72C6.14265 0 0 6.14265 0 13.72V34.28C0 41.8573 6.14265 48 13.72 48H34.28C41.8573 48 48 41.8573 48 34.28V13.72C48 6.14265 41.8573 0 34.28 0Z" fill="#4ADE80"/>
<path d="M24 19H12.3333C11.4493 19 10.6014 19.3512 9.97631 19.9763C9.35119 20.6014 9 21.4493 9 22.3333V29C9 29.8841 9.35119 30.7319 9.97631 31.357C10.6014 31.9821 11.4493 32.3333 12.3333 32.3333H17.3333" stroke="black" stroke-width="2" stroke-linejoin="round"/>
<path d="M24 29.0001H35.6667C36.5507 29.0001 37.3986 28.6489 38.0237 28.0238C38.6488 27.3986 39 26.5508 39 25.6667V19.0001C39 18.116 38.6488 17.2682 38.0237 16.6431C37.3986 16.0179 36.5507 15.6667 35.6667 15.6667H30.6667" stroke="black" stroke-width="2" stroke-linejoin="round"/>
<path d="M17.3334 19V12.3333C17.3334 11.4493 17.6846 10.6014 18.3097 9.97631C18.9348 9.35119 19.7827 9 20.6667 9H27.3334C28.2174 9 29.0653 9.35119 29.6904 9.97631C30.3155 10.6014 30.6667 11.4493 30.6667 12.3333V20.6667C30.6667 21.5507 30.3155 22.3986 29.6904 23.0237C29.0653 23.6488 28.2174 24 27.3334 24H20.6667C19.7827 24 18.9348 24.3512 18.3097 24.9763C17.6846 25.6014 17.3334 26.4493 17.3334 27.3333V35.6667C17.3334 36.5507 17.6846 37.3986 18.3097 38.0237C18.9348 38.6488 19.7827 39 20.6667 39H27.3334C28.2174 39 29.0653 38.6488 29.6904 38.0237C30.3155 37.3986 30.6667 36.5507 30.6667 35.6667V29" stroke="black" stroke-width="2" stroke-linecap="round" stroke-linejoin="round"/>
<path d="M22.3334 14V14.0167" stroke="black" stroke-width="2" stroke-linecap="round" stroke-linejoin="round"/>
<path d="M25.6666 34V34.0167" stroke="black" stroke-width="2" stroke-linecap="round" stroke-linejoin="round"/>
</svg>
