<svg width="503" height="249" viewBox="0 0 503 249" fill="none" xmlns="http://www.w3.org/2000/svg">
<g clip-path="url(#clip0_7_3519)">
<path d="M96.4781 135.814C96.4781 137.648 94.9821 139.144 93.1644 139.144H69.9197C68.0859 139.144 66.6059 137.648 66.6059 135.814V112.569C66.6059 110.735 68.1019 109.255 69.9197 109.255H93.1644C94.9821 109.255 96.4781 110.752 96.4781 112.569V135.814ZM116.393 153.251C116.393 156.437 113.787 159.043 110.586 159.043H52.4661C49.281 159.043 46.6589 156.437 46.6589 153.251V95.1478C46.6589 91.9627 49.2649 89.3407 52.4661 89.3407H110.586C113.787 89.3407 116.393 91.9467 116.393 95.1478V153.268V153.251ZM118.05 69.4098H45.0021C34.9642 69.4098 26.7441 77.6299 26.7441 87.6677V160.715C26.7441 170.753 34.9642 178.973 45.0021 178.973H118.05C128.088 178.973 136.308 170.753 136.308 160.715V87.6677C136.308 77.6138 128.088 69.4098 118.05 69.4098Z" fill="black"/>
<path d="M187.028 160.168C180.529 160.168 174.288 157.659 169.88 153.267C165.955 149.342 163.783 144.259 163.783 138.934H170.362C170.362 142.506 171.842 145.948 174.529 148.618C177.698 151.771 182.266 153.589 187.028 153.589H187.076C196.261 153.589 203.725 147.171 203.725 139.272C203.725 133.353 200.444 128.655 184.518 124.956C178.036 123.459 173.66 121.449 170.749 118.634C167.644 115.625 166.132 111.636 166.132 106.408C166.132 96.1128 175.365 87.7158 186.722 87.7158C192.159 87.7158 197.291 89.5818 201.168 92.9921C205.173 96.4989 207.377 101.244 207.377 106.328H200.798C200.798 99.684 194.492 94.2951 186.722 94.2951C178.953 94.2951 172.711 99.8448 172.711 106.408C172.711 112.408 174.77 115.931 186.014 118.537C198.015 121.304 210.289 125.937 210.321 139.24C210.321 144.902 207.86 150.195 203.404 154.136C199.044 157.997 193.253 160.12 187.092 160.12H187.028V160.168Z" fill="black"/>
<path d="M244.971 113.551C233.164 113.551 224.622 122.366 224.622 134.093C224.622 145.82 233.341 154.265 244.971 154.265C256.602 154.265 264.87 145.08 264.87 133.996C264.87 122.913 256.248 113.551 244.971 113.551ZM264.516 178.893V150.083H264.323C260.06 156.614 252.709 159.976 244.971 159.976C230.075 159.976 218.252 148.796 218.252 133.803C218.252 118.811 230.349 107.808 244.971 107.808C252.709 107.808 260.06 111.17 264.323 117.797H264.516V109.079H270.886V178.877H264.516V178.893Z" fill="black"/>
<path d="M362.143 113.55C350.336 113.55 341.794 122.366 341.794 134.093C341.794 145.819 350.513 154.265 362.143 154.265C373.774 154.265 382.042 145.079 382.042 133.996C382.042 122.913 373.42 113.55 362.143 113.55ZM381.688 158.801V150.082H381.495C377.136 156.613 369.865 159.975 362.143 159.975C347.247 159.975 335.424 148.795 335.424 133.819C335.424 118.843 347.505 107.824 362.143 107.824C369.961 107.824 377.232 111.105 381.495 117.829H381.688V109.111H388.042V158.817H381.688V158.801Z" fill="black"/>
<path d="M407.105 129.717V158.801H400.734V109.094H407.105V116.269H407.281C410.016 109.915 414.826 108.274 421.277 107.824V114.548C412.558 115.272 407.105 120.805 407.105 129.717Z" fill="black"/>
<path d="M449.749 113.535C439.84 113.535 431.942 120.806 430.382 130.522H469.182C467.541 120.79 459.739 113.535 449.733 113.535M475.616 136.248H430.365C430.816 146.061 439.921 154.233 449.637 154.233C457.262 154.233 464.726 149.873 467.444 142.506H474.152C470.533 152.866 460.72 159.944 449.717 159.944C435.368 159.944 423.818 148.233 423.818 133.948C423.818 119.663 435.352 107.776 449.621 107.776C463.889 107.776 475.713 120.05 475.713 134.415C475.713 135.042 475.6 135.589 475.6 136.232" fill="black"/>
<path d="M320.239 158.866V151.096H320.062C317.134 157.225 310.652 160.056 304.088 160.056C297.525 160.056 291.026 157.772 286.924 152.576C283.369 148.104 282.549 142.072 282.549 136.506V108.934H288.935V136.409C288.935 146.721 292.683 154.313 304.088 154.313C308.287 154.313 311.568 153.203 314.673 150.292C319.065 146.093 319.869 141.155 319.869 135.331V108.95H326.271V158.898H320.239V158.866Z" fill="black"/>
</g>
<defs>
<clipPath id="clip0_7_3519">
<rect width="449" height="109.564" fill="white" transform="translate(26.7441 69.4098)"/>
</clipPath>
</defs>
</svg>
