<svg width="49" height="48" viewBox="0 0 49 48" fill="none" xmlns="http://www.w3.org/2000/svg">
<path fill-rule="evenodd" clip-rule="evenodd" d="M21.5 4.5V7.5H18.8C18.5 9.3 17.6 12.45 14.75 15.45C16.1 16.35 17.9 17.4 20 18.15L18.95 21C16.25 20.1 14.15 18.9 12.5 17.55C10.85 18.75 8.75 19.95 6.05 21L5 18.15C7.1 17.4 8.9 16.5 10.1 15.45C8.6 13.8 7.55 12 6.95 10.5H10.4C10.85 11.4 11.6 12.45 12.5 13.5C14.6 11.25 15.5 8.85 15.8 7.5H3.5V4.5H11V1.5H14V4.5H21.5ZM42.5 22.5H39.5V16.5C39.5 12.3 36.2 9 32 9H26V6H32C37.85 6 42.5 10.65 42.5 16.5V22.5ZM20 42H24.5V39H20C15.8 39 12.5 35.7 12.5 31.5V25.5H9.5V31.5C9.5 37.35 14.15 42 20 42ZM45.7997 45H42.4997L41.1497 42H33.1997L31.9997 45H28.6997L35.5997 28.5H38.8997L45.7997 45ZM37.2497 32.4L34.5497 39H39.9497L37.2497 32.4Z" fill="#22C55E"/>
</svg>
