<svg width="887" height="499" viewBox="0 0 887 499" fill="none" xmlns="http://www.w3.org/2000/svg">
<rect width="887" height="499" rx="16" fill="#F5F5F5"/>
<g opacity="0.9" filter="url(#filter0_f_3108_20433)">
<ellipse cx="614.374" cy="250.286" rx="43" ry="42.5" fill="#4ADE80"/>
</g>
<g opacity="0.9" filter="url(#filter1_f_3108_20433)">
<ellipse cx="447.374" cy="147.286" rx="51" ry="50.5" fill="#FB923C"/>
</g>
<path d="M447.374 24L345 85.3521L447.374 146.768L549.748 85.4158L447.374 24Z" stroke="#171717" stroke-miterlimit="10" stroke-linecap="round" stroke-linejoin="round"/>
<path d="M447.37 146.767V270.459L549.744 209.033V85.415L447.37 146.767Z" stroke="#171717" stroke-miterlimit="10" stroke-linecap="round" stroke-linejoin="round"/>
<path d="M447.374 146.768V270.46L345 209.033V85.3518L447.374 146.768Z" stroke="#171717" stroke-miterlimit="10" stroke-linecap="round" stroke-linejoin="round"/>
<g opacity="0.9" filter="url(#filter2_f_3108_20433)">
<ellipse cx="280.374" cy="251.286" rx="47" ry="46.5" fill="#FCD34D"/>
</g>
<path d="M277.374 130L175 191.352L277.374 252.768L379.748 191.416L277.374 130Z" fill="url(#paint0_linear_3108_20433)" stroke="#171717" stroke-miterlimit="10" stroke-linecap="round" stroke-linejoin="round"/>
<path d="M277.37 252.767V376.459L379.744 315.033V191.415L277.37 252.767Z" fill="url(#paint1_linear_3108_20433)" stroke="#171717" stroke-miterlimit="10" stroke-linecap="round" stroke-linejoin="round"/>
<path d="M277.374 252.768V376.46L175 315.033V191.352L277.374 252.768Z" stroke="#171717" stroke-miterlimit="10" stroke-linecap="round" stroke-linejoin="round"/>
<g opacity="0.9" filter="url(#filter3_f_3108_20433)">
<ellipse cx="447.374" cy="350.786" rx="51" ry="50" fill="#60A5FA"/>
</g>
<path d="M611.365 128L508.991 189.352L611.365 250.768L713.738 189.416L611.365 128Z" fill="url(#paint2_linear_3108_20433)" stroke="#171717" stroke-miterlimit="10" stroke-linecap="round" stroke-linejoin="round"/>
<path d="M611.374 250.767V374.459L713.748 313.032V189.415L611.374 250.767Z" stroke="#171717" stroke-miterlimit="10" stroke-linecap="round" stroke-linejoin="round"/>
<path d="M611.365 250.767V374.459L508.991 313.033V189.352L611.365 250.767Z" fill="url(#paint3_linear_3108_20433)" stroke="#171717" stroke-miterlimit="10" stroke-linecap="round" stroke-linejoin="round"/>
<path d="M446.366 229L343.992 290.352L446.366 351.768L548.74 290.416L446.366 229Z" fill="url(#paint4_radial_3108_20433)" stroke="#171717" stroke-miterlimit="10" stroke-linecap="round" stroke-linejoin="round"/>
<path d="M446.363 351.767V475.459L548.737 414.032V290.415L446.363 351.767Z" fill="url(#paint5_linear_3108_20433)" stroke="#171717" stroke-miterlimit="10" stroke-linecap="round" stroke-linejoin="round"/>
<path d="M446.366 351.879V475.571L343.992 414.145V290.463L446.366 351.879Z" fill="url(#paint6_linear_3108_20433)" stroke="#171717" stroke-miterlimit="10" stroke-linecap="round" stroke-linejoin="round"/>
<path d="M428.356 97.4217L426.925 98.2477L423.869 97.3657L420.705 99.1927L422.257 100.943L420.863 101.748L415.285 95.1957L417.007 94.2017L428.356 97.4217ZM422.354 96.8827L417.407 95.4267L417.347 95.4617L419.856 98.3247L422.354 96.8827ZM433.716 94.3269L430.03 96.4549L428.915 95.8109L430.066 95.1459L423.834 91.5479L422.683 92.2129L421.567 91.5689L425.253 89.4409L426.368 90.0849L425.205 90.7569L431.436 94.3549L432.6 93.6829L433.716 94.3269ZM443.08 89.0885C440.873 90.3625 437.988 90.2505 435.151 88.6125C432.314 86.9745 432.12 85.3085 434.326 84.0345C435.793 83.1875 437.43 82.9985 439.261 83.3975L438.739 84.4265C437.648 84.1325 436.533 84.1745 435.551 84.7415C434.253 85.4905 434.399 86.4985 435.963 87.4015L437.248 88.1435C438.812 89.0465 440.558 89.1305 441.855 88.3815C442.862 87.8005 442.922 87.0935 442.401 86.4425L444.171 86.1905C444.826 87.2265 444.547 88.2415 443.08 89.0885ZM446.121 83.217L449.54 85.191L448.17 85.982L439.707 81.096L443.356 78.989C444.872 78.114 446.787 78.142 448.352 79.045C449.552 79.738 449.819 80.55 449.055 81.355L454.45 82.356L452.922 83.238L447.806 82.244L446.121 83.217ZM444.969 82.552L447.151 81.292C447.842 80.893 447.879 80.438 447.2 80.046L446.618 79.71C445.939 79.318 445.151 79.339 444.46 79.738L442.277 80.998L444.969 82.552ZM460.164 79.0571L456.478 81.1851L455.363 80.5411L456.515 79.8761L450.283 76.2781L449.131 76.9431L448.015 76.2991L451.701 74.1711L452.817 74.8151L451.653 75.4871L457.885 79.0851L459.049 78.4131L460.164 79.0571ZM464.312 76.662L457.062 72.476L454.54 73.932L453.328 73.232L459.741 69.529L460.954 70.229L458.432 71.685L465.682 75.871L464.312 76.662ZM473.518 71.347L469.832 73.475L468.717 72.831L469.869 72.166L463.637 68.568L462.485 69.233L461.37 68.589L465.055 66.461L466.171 67.105L465.007 67.777L471.239 71.375L472.403 70.703L473.518 71.347ZM479.29 68.1828C477.083 69.4568 474.197 69.3448 471.36 67.7068C468.523 66.0688 468.329 64.4028 470.536 63.1288C472.003 62.2818 473.64 62.0928 475.47 62.4918L474.949 63.5208C473.858 63.2268 472.742 63.2688 471.76 63.8358C470.463 64.5848 470.609 65.5928 472.173 66.4958L473.458 67.2378C475.022 68.1408 476.768 68.2248 478.065 67.4758C479.071 66.8948 479.132 66.1878 478.611 65.5368L480.381 65.2848C481.036 66.3208 480.757 67.3358 479.29 68.1828Z" fill="#171717"/>
<path d="M255.809 206.511L254.379 207.337L251.323 206.455L248.159 208.282L249.711 210.032L248.316 210.837L242.739 204.285L244.461 203.291L255.809 206.511ZM249.808 205.972L244.861 204.516L244.8 204.551L247.31 207.414L249.808 205.972ZM261.17 203.416L257.484 205.544L256.368 204.9L257.52 204.235L251.288 200.637L250.136 201.302L249.021 200.658L252.707 198.53L253.822 199.174L252.658 199.846L258.89 203.444L260.054 202.772L261.17 203.416ZM269.891 198.548C268.473 199.367 266.945 199.605 265.369 199.507L265.429 198.45C266.751 198.527 267.83 198.338 268.751 197.806C269.831 197.183 269.855 196.553 269.042 196.084C268.388 195.706 267.672 195.685 266.496 196.14L265.611 196.497C263.671 197.267 262.071 197.309 260.725 196.532C259.222 195.664 259.464 194.46 261.259 193.424C262.532 192.689 263.926 192.416 265.417 192.521L265.308 193.564C264.302 193.487 263.332 193.627 262.398 194.166C261.428 194.726 261.271 195.279 262.01 195.706C262.714 196.112 263.453 196.035 264.544 195.615L265.454 195.272C267.466 194.488 268.982 194.481 270.328 195.258C271.904 196.168 271.831 197.428 269.891 198.548ZM280.605 192.195L275.185 195.324L266.723 190.438L272.142 187.309L273.355 188.009L269.305 190.347L271.657 191.705L275.331 189.584L276.543 190.284L272.87 192.405L275.343 193.833L279.392 191.495L280.605 192.195ZM289.817 186.876L288.386 187.702L285.331 186.82L282.166 188.647L283.718 190.397L282.324 191.202L276.747 184.65L278.468 183.656L289.817 186.876ZM283.815 186.337L278.868 184.881L278.808 184.916L281.318 187.779L283.815 186.337ZM289.806 182.935L293.225 184.909L291.855 185.7L283.392 180.814L287.042 178.707C288.557 177.832 290.473 177.86 292.037 178.763C293.237 179.456 293.504 180.268 292.74 181.073L298.135 182.074L296.608 182.956L291.491 181.962L289.806 182.935ZM288.654 182.27L290.836 181.01C291.528 180.611 291.564 180.156 290.885 179.764L290.303 179.428C289.624 179.036 288.836 179.057 288.145 179.456L285.962 180.716L288.654 182.27ZM303.731 179.011C301.524 180.285 298.639 180.173 295.801 178.535C292.964 176.897 292.77 175.231 294.977 173.957C296.444 173.11 298.081 172.921 299.912 173.32L299.39 174.349C298.299 174.055 297.184 174.097 296.202 174.664C294.904 175.413 295.05 176.421 296.614 177.324L297.899 178.066C299.463 178.969 301.209 179.053 302.506 178.304C303.513 177.723 303.573 177.016 303.052 176.365L304.822 176.113C305.477 177.149 305.198 178.164 303.731 179.011ZM314.022 172.902L310.336 170.774L306.505 172.986L310.191 175.114L308.82 175.905L300.358 171.019L301.728 170.228L305.292 172.286L309.124 170.074L305.559 168.016L306.929 167.225L315.392 172.111L314.022 172.902Z" fill="#171717"/>
<path d="M422.266 311.175L420.835 312.001L417.78 311.119L414.615 312.946L416.167 314.696L414.773 315.501L409.196 308.949L410.917 307.955L422.266 311.175ZM416.264 310.636L411.318 309.18L411.257 309.215L413.767 312.078L416.264 310.636ZM415.58 305.263L416.925 304.486L422.139 307.496C423.57 308.322 424.806 308.462 426.128 307.699C427.449 306.936 427.207 306.222 425.776 305.396L420.563 302.386L421.909 301.609L426.904 304.493C429.377 305.921 429.668 307.069 427.352 308.406C425.037 309.743 423.048 309.575 420.575 308.147L415.58 305.263ZM434.9 303.881L427.65 299.695L425.128 301.151L423.916 300.451L430.33 296.748L431.542 297.448L429.02 298.904L436.27 303.09L434.9 303.881ZM444.002 298.794C441.795 300.068 438.825 300.019 435.976 298.374C433.126 296.729 433.042 295.014 435.248 293.74C437.455 292.466 440.425 292.515 443.275 294.16C446.124 295.805 446.209 297.52 444.002 298.794ZM442.777 298.087C444.087 297.331 444.014 296.281 442.474 295.392L441.141 294.622C439.601 293.733 437.782 293.691 436.473 294.447C435.163 295.203 435.236 296.253 436.776 297.142L438.11 297.912C439.649 298.801 441.468 298.843 442.777 298.087ZM458.348 290.343L453.535 293.122L445.072 288.236L446.442 287.445L453.692 291.631L457.136 289.643L458.348 290.343ZM467.408 285.112L465.978 285.938L462.922 285.056L459.758 286.883L461.31 288.633L459.915 289.438L454.338 282.886L456.06 281.892L467.408 285.112ZM461.407 284.573L456.46 283.117L456.399 283.152L458.909 286.015L461.407 284.573ZM469.446 283.935L460.984 279.049L464.73 276.886C466.124 276.081 467.846 276.081 469.168 276.844C470.441 277.579 470.125 278.293 469.495 278.727L469.568 278.769C470.283 278.384 471.896 278.069 473.314 278.888C474.684 279.679 474.818 280.834 473.569 281.555L469.446 283.935ZM467.07 280.981L469.64 282.465L471.993 281.107C472.696 280.701 472.744 280.225 472.053 279.826L471.641 279.588C470.95 279.189 470.125 279.217 469.422 279.623L467.07 280.981ZM463.53 278.937L465.93 280.323L468.052 279.098C468.719 278.713 468.755 278.272 468.113 277.901L467.725 277.677C467.082 277.306 466.318 277.327 465.652 277.712L463.53 278.937ZM483.586 275.772L478.166 278.901L469.703 274.015L475.123 270.886L476.335 271.586L472.286 273.924L474.638 275.282L478.312 273.161L479.524 273.861L475.85 275.982L478.324 277.41L482.373 275.072L483.586 275.772ZM490.894 271.553L486.081 274.332L477.618 269.446L478.988 268.655L486.238 272.841L489.681 270.853L490.894 271.553Z" fill="#171717"/>
<path d="M576.49 204.355L572.804 206.483L571.688 205.839L572.84 205.174L566.608 201.576L565.456 202.241L564.341 201.597L568.027 199.469L569.142 200.113L567.978 200.785L574.21 204.383L575.374 203.711L576.49 204.355ZM583.983 200.029L576.538 198.923L573.81 198.426L573.774 198.447L580.248 202.185L578.939 202.941L570.476 198.055L572.004 197.173L579.448 198.279L582.176 198.776L582.213 198.755L575.738 195.017L577.048 194.261L585.51 199.147L583.983 200.029ZM588.37 194.01L585.012 195.949L583.666 195.172L587.024 193.233L588.37 194.01ZM599.335 191.166L593.915 194.295L585.453 189.409L590.872 186.28L592.085 186.98L588.035 189.318L590.387 190.676L594.061 188.555L595.273 189.255L591.6 191.376L594.073 192.804L598.123 190.466L599.335 191.166ZM601.83 189.725L593.367 184.839L596.362 183.11C598.52 181.864 601.345 181.857 604.17 183.488C606.995 185.119 606.983 186.75 604.825 187.996L601.83 189.725ZM601.987 188.234L603.612 187.296C604.873 186.568 604.909 185.609 603.382 184.727L602.024 183.943C600.496 183.061 598.835 183.082 597.574 183.81L595.95 184.748L601.987 188.234ZM614.156 182.609L610.47 184.737L609.354 184.093L610.506 183.428L604.274 179.83L603.122 180.495L602.007 179.851L605.693 177.723L606.808 178.367L605.644 179.039L611.876 182.637L613.04 181.965L614.156 182.609ZM618.304 180.214L611.054 176.028L608.532 177.484L607.319 176.784L613.733 173.081L614.946 173.781L612.424 175.237L619.674 179.423L618.304 180.214ZM627.406 175.127C625.199 176.401 622.229 176.352 619.379 174.707C616.53 173.062 616.445 171.347 618.652 170.073C620.859 168.799 623.829 168.848 626.678 170.493C629.527 172.138 629.612 173.853 627.406 175.127ZM626.181 174.42C627.491 173.664 627.418 172.614 625.878 171.725L624.544 170.955C623.005 170.066 621.186 170.024 619.876 170.78C618.567 171.536 618.64 172.586 620.18 173.475L621.513 174.245C623.053 175.134 624.872 175.176 626.181 174.42ZM631.297 168.765L634.716 170.739L633.346 171.53L624.883 166.644L628.532 164.537C630.048 163.662 631.963 163.69 633.527 164.593C634.728 165.286 634.994 166.098 634.231 166.903L639.626 167.904L638.098 168.786L632.982 167.792L631.297 168.765ZM630.145 168.1L632.327 166.84C633.018 166.441 633.055 165.986 632.376 165.594L631.794 165.258C631.115 164.866 630.327 164.887 629.636 165.286L627.453 166.546L630.145 168.1ZM589.646 213.76L588.215 214.586L585.16 213.704L581.995 215.531L583.547 217.281L582.153 218.086L576.576 211.534L578.297 210.54L589.646 213.76ZM583.644 213.221L578.698 211.765L578.637 211.8L581.147 214.663L583.644 213.221ZM594.364 211.204C592.945 212.023 591.417 212.261 589.841 212.163L589.902 211.106C591.223 211.183 592.302 210.994 593.224 210.462C594.303 209.839 594.327 209.209 593.515 208.74C592.86 208.362 592.145 208.341 590.969 208.796L590.084 209.153C588.144 209.923 586.543 209.965 585.198 209.188C583.694 208.32 583.937 207.116 585.731 206.08C587.004 205.345 588.398 205.072 589.89 205.177L589.781 206.22C588.774 206.143 587.804 206.283 586.871 206.822C585.901 207.382 585.743 207.935 586.483 208.362C587.186 208.768 587.926 208.691 589.017 208.271L589.926 207.928C591.939 207.144 593.454 207.137 594.8 207.914C596.376 208.824 596.303 210.084 594.364 211.204ZM602.195 206.682C600.777 207.501 599.249 207.739 597.673 207.641L597.733 206.584C599.055 206.661 600.134 206.472 601.055 205.94C602.134 205.317 602.159 204.687 601.346 204.218C600.692 203.84 599.976 203.819 598.8 204.274L597.915 204.631C595.975 205.401 594.375 205.443 593.029 204.666C591.526 203.798 591.768 202.594 593.563 201.558C594.836 200.823 596.23 200.55 597.721 200.655L597.612 201.698C596.606 201.621 595.636 201.761 594.702 202.3C593.732 202.86 593.575 203.413 594.314 203.84C595.018 204.246 595.757 204.169 596.848 203.749L597.758 203.406C599.77 202.622 601.286 202.615 602.632 203.392C604.208 204.302 604.135 205.562 602.195 206.682ZM610.811 201.54L607.126 203.668L606.01 203.024L607.162 202.359L600.93 198.761L599.778 199.426L598.663 198.782L602.349 196.654L603.464 197.298L602.3 197.97L608.532 201.568L609.696 200.896L610.811 201.54ZM615.94 198.747C614.522 199.566 612.994 199.804 611.418 199.706L611.478 198.649C612.8 198.726 613.879 198.537 614.8 198.005C615.88 197.382 615.904 196.752 615.091 196.283C614.437 195.905 613.721 195.884 612.545 196.339L611.66 196.696C609.72 197.466 608.12 197.508 606.774 196.731C605.271 195.863 605.513 194.659 607.308 193.623C608.581 192.888 609.975 192.615 611.466 192.72L611.357 193.763C610.351 193.686 609.381 193.826 608.447 194.365C607.477 194.925 607.32 195.478 608.059 195.905C608.763 196.311 609.502 196.234 610.593 195.814L611.503 195.471C613.515 194.687 615.031 194.68 616.377 195.457C617.953 196.367 617.88 197.627 615.94 198.747ZM622.803 194.616L615.553 190.43L613.031 191.886L611.819 191.186L618.232 187.483L619.445 188.183L616.923 189.639L624.173 193.825L622.803 194.616ZM634.682 187.758L633.251 188.584L630.196 187.702L627.031 189.529L628.583 191.279L627.189 192.084L621.612 185.532L623.333 184.538L634.682 187.758ZM628.68 187.219L623.733 185.763L623.673 185.798L626.182 188.661L628.68 187.219ZM641.764 183.669L634.319 182.563L631.591 182.066L631.555 182.087L638.029 185.825L636.72 186.581L628.257 181.695L629.785 180.813L637.229 181.919L639.957 182.416L639.993 182.395L633.519 178.657L634.828 177.901L643.291 182.787L641.764 183.669ZM649.425 179.414C647.218 180.688 644.332 180.576 641.495 178.938C638.658 177.3 638.464 175.634 640.671 174.36C642.138 173.513 643.775 173.324 645.605 173.723L645.084 174.752C643.993 174.458 642.877 174.5 641.895 175.067C640.598 175.816 640.744 176.824 642.308 177.727L643.593 178.469C645.157 179.372 646.903 179.456 648.2 178.707C649.206 178.126 649.267 177.419 648.746 176.768L650.516 176.516C651.171 177.552 650.892 178.567 649.425 179.414ZM659.934 173.179L654.514 176.308L646.051 171.422L651.471 168.293L652.683 168.993L648.634 171.331L650.986 172.689L654.66 170.568L655.872 171.268L652.199 173.389L654.672 174.817L658.721 172.479L659.934 173.179Z" fill="#171717"/>
<defs>
<filter id="filter0_f_3108_20433" x="504.927" y="141.338" width="218.895" height="217.895" filterUnits="userSpaceOnUse" color-interpolation-filters="sRGB">
<feFlood flood-opacity="0" result="BackgroundImageFix"/>
<feBlend mode="normal" in="SourceGraphic" in2="BackgroundImageFix" result="shape"/>
<feGaussianBlur stdDeviation="33.2237" result="effect1_foregroundBlur_3108_20433"/>
</filter>
<filter id="filter1_f_3108_20433" x="329.927" y="30.3383" width="234.895" height="233.895" filterUnits="userSpaceOnUse" color-interpolation-filters="sRGB">
<feFlood flood-opacity="0" result="BackgroundImageFix"/>
<feBlend mode="normal" in="SourceGraphic" in2="BackgroundImageFix" result="shape"/>
<feGaussianBlur stdDeviation="33.2237" result="effect1_foregroundBlur_3108_20433"/>
</filter>
<filter id="filter2_f_3108_20433" x="166.927" y="138.338" width="226.895" height="225.895" filterUnits="userSpaceOnUse" color-interpolation-filters="sRGB">
<feFlood flood-opacity="0" result="BackgroundImageFix"/>
<feBlend mode="normal" in="SourceGraphic" in2="BackgroundImageFix" result="shape"/>
<feGaussianBlur stdDeviation="33.2237" result="effect1_foregroundBlur_3108_20433"/>
</filter>
<filter id="filter3_f_3108_20433" x="329.927" y="234.338" width="234.895" height="232.895" filterUnits="userSpaceOnUse" color-interpolation-filters="sRGB">
<feFlood flood-opacity="0" result="BackgroundImageFix"/>
<feBlend mode="normal" in="SourceGraphic" in2="BackgroundImageFix" result="shape"/>
<feGaussianBlur stdDeviation="33.2237" result="effect1_foregroundBlur_3108_20433"/>
</filter>
<linearGradient id="paint0_linear_3108_20433" x1="352" y1="191" x2="311" y2="199" gradientUnits="userSpaceOnUse">
<stop stop-color="#F5F5F5"/>
<stop offset="1" stop-color="#F5F5F5" stop-opacity="0"/>
</linearGradient>
<linearGradient id="paint1_linear_3108_20433" x1="368" y1="207.5" x2="336.5" y2="258.5" gradientUnits="userSpaceOnUse">
<stop stop-color="#F5F5F5"/>
<stop offset="1" stop-color="#F5F5F5" stop-opacity="0"/>
</linearGradient>
<linearGradient id="paint2_linear_3108_20433" x1="527.874" y1="189.786" x2="611.365" y2="250.768" gradientUnits="userSpaceOnUse">
<stop stop-color="#F5F5F5"/>
<stop offset="1" stop-color="#F5F5F5" stop-opacity="0"/>
</linearGradient>
<linearGradient id="paint3_linear_3108_20433" x1="472.374" y1="216.786" x2="568.374" y2="299.786" gradientUnits="userSpaceOnUse">
<stop stop-color="#F5F5F5"/>
<stop offset="1" stop-color="#F5F5F5" stop-opacity="0"/>
</linearGradient>
<radialGradient id="paint4_radial_3108_20433" cx="0" cy="0" r="1" gradientUnits="userSpaceOnUse" gradientTransform="translate(451 322) rotate(-93.764) scale(76.1643 127.024)">
<stop stop-color="#F5F5F5" stop-opacity="0"/>
<stop offset="1" stop-color="#F5F5F5"/>
</radialGradient>
<linearGradient id="paint5_linear_3108_20433" x1="534" y1="317.5" x2="507.5" y2="371" gradientUnits="userSpaceOnUse">
<stop stop-color="#F5F5F5"/>
<stop offset="1" stop-color="#F5F5F5" stop-opacity="0"/>
</linearGradient>
<linearGradient id="paint6_linear_3108_20433" x1="357.5" y1="312" x2="380" y2="363.5" gradientUnits="userSpaceOnUse">
<stop stop-color="#F5F5F5"/>
<stop offset="1" stop-color="#F5F5F5" stop-opacity="0"/>
</linearGradient>
</defs>
</svg>
