<svg width="55" height="55" viewBox="0 0 55 55" fill="none" xmlns="http://www.w3.org/2000/svg">
<path fill-rule="evenodd" clip-rule="evenodd" d="M35.0529 24.3734C34.3066 24.8511 33.4409 25.1197 32.5753 25.1197C31.3812 25.1197 30.2469 24.6421 29.4111 23.8063C28.5753 22.9705 28.0977 21.8361 28.0977 20.6421C28.0977 19.7466 28.3663 18.8809 28.8439 18.1645C29.3215 17.4182 30.038 16.8511 30.8439 16.5227C31.6499 16.1943 32.5753 16.1048 33.4409 16.254C34.3066 16.4331 35.1126 16.8511 35.7394 17.4779C36.3663 18.1048 36.7842 18.9108 36.9633 19.7764C37.1424 20.6421 37.0529 21.5376 36.6947 22.3734C36.3663 23.1794 35.7693 23.8958 35.0529 24.3734Z" stroke="#171717" stroke-miterlimit="10"/>
<path fill-rule="evenodd" clip-rule="evenodd" d="M44.3963 43.5379H11.3813V31.7468V10.5229H44.3963V43.5379Z" stroke="#171717" stroke-miterlimit="10"/>
<path d="M44.3963 38.1346L35.5605 29.5972L31.0828 34.0749L20.2172 25.1196L11.3813 33.6868" stroke="#171717" stroke-miterlimit="10"/>
</svg>
