<svg width="2509" height="772" viewBox="0 0 2509 772" fill="none" xmlns="http://www.w3.org/2000/svg">
<path d="M2508.73 771.921H0.269531V0.0800781H2508.73V771.921Z" fill="#002147"/>
<path d="M982.822 482.678C982.822 417.63 951.294 372.248 898.095 372.248C840.259 372.248 813.285 426.752 813.285 482.678C813.285 547.692 844.848 593.038 898.095 593.038C955.908 593.038 982.822 538.546 982.822 482.678M1022.29 481.386C1022.29 552.922 967.082 604.864 898.095 604.864C827.768 604.864 773.869 552.342 773.869 483.948C773.869 412.363 829.073 360.422 898.095 360.422C968.41 360.422 1022.29 413.016 1022.29 481.386M1741.21 482.678C1741.21 417.63 1709.65 372.248 1656.45 372.248C1598.61 372.248 1571.67 426.752 1571.67 482.678C1571.67 547.692 1603.21 593.038 1656.45 593.038C1714.25 593.038 1741.21 538.546 1741.21 482.678M1780.64 481.386C1780.64 552.922 1725.42 604.864 1656.45 604.864C1586.11 604.864 1532.22 552.342 1532.22 483.948C1532.22 412.363 1587.44 360.422 1656.45 360.422C1726.75 360.422 1780.64 413.016 1780.64 481.386M1931.13 522.039C1917.31 502.325 1912.05 495.137 1894.98 495.137H1876.57V575.309C1876.57 581.892 1879.2 585.118 1886.45 586.459L1913.37 592.366V600.954H1807.57V592.366L1831.9 586.459C1839.11 584.525 1841.74 581.892 1841.74 575.309V389.996C1841.74 383.401 1839.11 380.792 1831.9 378.835L1807.57 372.916V364.34H1910.74C1932.46 364.34 1947.56 366.333 1960.04 370.899C1985.67 380.792 2000.12 405.144 2000.12 428.084C2000.12 457.038 1978.43 481.39 1942.29 489.835V491.151C1949.53 494.496 1953.47 499.075 1979.1 532.643L2011.29 575.309C2015.89 581.892 2021.81 585.795 2029.05 587.147L2052.7 592.366V600.954H1996.19C1989.62 600.954 1986.33 598.949 1980.42 591.038L1931.13 522.039ZM1876.57 483.939H1906.15C1950.84 483.939 1960.71 455.745 1960.71 428.76C1960.71 408.382 1951.5 389.321 1930.47 380.14C1919.3 375.525 1908.77 375.525 1894.32 375.525H1876.57V483.939ZM1467.83 445.182H1477.7V524.061H1467.83L1461.91 500.421C1459.93 491.834 1454.69 488.571 1446.8 488.571H1389.61V575.316C1389.61 581.887 1392.25 585.125 1399.48 586.466L1426.42 592.373V600.96H1320.63V592.373L1344.94 586.466C1352.17 584.532 1354.81 581.887 1354.81 575.316V389.991C1354.81 383.408 1352.17 380.798 1344.94 378.842L1320.63 372.911V364.347H1499.37V423.547H1489.51L1478.35 388.01C1475.72 378.842 1471.77 375.532 1463.88 375.532H1389.61V477.375H1446.8C1454.69 477.375 1459.28 474.137 1461.91 465.549L1467.83 445.182ZM2140.76 375.528V579.214C2140.76 587.802 2142.71 589.806 2151.28 589.806H2180.17C2207.79 589.806 2228.15 585.797 2242.61 575.311C2266.93 557.59 2278.1 525.386 2278.1 484.618C2278.1 444.538 2266.93 405.146 2234.08 386.072C2220.29 378.161 2202.53 375.528 2174.92 375.528H2140.76ZM2071.74 600.956V592.368L2096.06 586.461C2103.3 584.527 2105.92 581.882 2105.92 575.311V389.987C2105.92 383.403 2103.3 380.794 2096.06 378.837L2071.74 372.918V364.342H2182.82C2213.04 364.342 2234.73 368.292 2252.48 376.18C2297.16 396.558 2317.54 440.577 2317.54 483.942C2317.54 526.062 2301.77 565.442 2261.69 586.461C2243.29 596.377 2217.64 600.956 2184.15 600.956H2071.74ZM1114.95 592.369V600.957H1031.49V592.369L1052.49 587.138C1060.41 585.122 1065.64 582.56 1070.9 576.653L1143.19 485.96L1070.9 389.988C1066.31 383.405 1060.41 380.143 1053.15 378.162L1033.44 372.919V364.343H1137.28V372.919L1114.95 377.498C1107.05 378.838 1109.02 382.1 1112.95 387.378L1166.18 463.6H1167.5L1222.05 387.378C1226 382.1 1227.33 380.143 1220.08 378.162L1199.05 372.919V364.343H1282.51V372.919L1261.48 378.162C1253.61 380.143 1248.35 382.741 1243.07 388.659L1174.73 474.798L1250.96 575.312C1255.58 581.883 1261.48 585.122 1268.7 587.138L1288.44 592.369V600.957H1184.6V592.369L1206.94 587.803C1214.84 586.462 1213.51 583.9 1209.57 578.538L1151.73 497.062H1150.43L1091.94 577.981C1087.99 583.224 1086.67 585.122 1093.91 587.138L1114.95 592.369ZM866.01 253.004C859.475 259.539 849.678 263.893 835.989 263.893C824.068 263.893 813.025 260.145 805.54 252.66C795.328 242.459 795.802 229.435 795.802 215.522V149.714H809.217V220.409C809.217 229.352 808.945 238.07 815.86 244.973C820.652 249.766 828.018 252.351 836.511 252.351C844.802 252.351 851.468 249.493 855.608 245.329C863.295 237.655 862.808 229.269 862.808 209.022V149.714H876.034V205.534C876.034 226.754 876.888 242.127 866.01 253.004M985.104 261.789L931.11 169.922L931.455 261.789H919.119V149.71H932.866L987.061 242.088L986.717 149.71H999.065V261.789H985.104ZM1045.79 149.713H1059.28V261.781H1045.79V149.713ZM1143.12 261.779H1127.67L1089.04 149.711H1103.1L1135.77 248.649L1169.44 149.711H1182.49L1143.12 261.779ZM1212.99 261.779V149.711H1273.92V160.885H1226.2V197.869H1271.01V208.77H1226.2V250.273H1275.25V261.779H1212.99ZM1372.7 261.779L1359.83 232.731C1351.86 214.867 1348.22 213.028 1331.97 213.028H1324.16V261.779H1310.93V149.711H1335.12C1350.07 149.711 1361.35 149.616 1370.16 158.43C1375.77 164.04 1378.9 171.489 1378.9 180.836C1378.9 188.629 1376.64 195.106 1371.95 200.099C1367.92 204.393 1361.24 208.165 1353.98 208.936C1357.92 209.161 1361.18 211.296 1363.29 213.42C1366.35 216.457 1368.57 221.083 1371.86 228.413L1386.74 261.779H1372.7ZM1360.46 166.578C1354.04 160.149 1345.7 160.446 1336.57 160.446H1324.16V202.305H1328.61C1339.92 202.305 1352.11 202.887 1359.79 195.201C1363.51 191.488 1365.58 186.281 1365.58 180.599C1365.58 174.288 1363.1 169.224 1360.46 166.578M1517.64 149.713H1531.13V261.781H1517.64V149.713ZM1608.07 160.886V261.78H1594.6V160.886H1561.27V149.712H1641.28V160.886H1608.07ZM1705.78 217.487V261.778H1692.48V217.487L1656.9 149.71H1672.31L1699.93 202.268L1726.76 149.71H1741.36L1705.78 217.487ZM1867.12 263.898C1838.11 263.898 1816.91 239.938 1816.91 206.251C1816.91 171.639 1837.89 147.595 1868.16 147.595C1897.48 147.595 1918.2 171.389 1918.2 205.218C1918.2 239.914 1897.45 263.898 1867.12 263.898M1867.07 159.042C1845.11 159.042 1830.86 177.593 1830.86 205.539C1830.86 233.39 1846.74 252.345 1867.79 252.345C1891.22 252.345 1904.25 232.417 1904.25 204.661C1904.25 177.309 1888.86 159.042 1867.07 159.042ZM1968.43 160.886V197.87H2011.76V208.771H1968.43V261.78H1955.05V149.712H2014.57V160.886H1968.43ZM1413.9 177.053C1413.9 159.831 1427.75 147.577 1448 147.577C1468.5 147.577 1478.33 158.158 1479.33 159.249L1472.76 167.208C1470.24 165.275 1461.28 158.68 1448.88 158.68C1434.59 158.68 1426.67 166.152 1426.67 176.294C1426.67 181.205 1428.68 184.74 1431.92 187.645C1435.76 191.085 1441.37 193.636 1447.41 196.423C1454.93 199.875 1465.22 203.753 1472.13 210.918C1476.9 215.864 1480.5 222.305 1480.5 231.142C1480.5 249.776 1467.57 263.975 1444.31 263.975C1424.48 263.975 1411.98 253.05 1410.8 251.959L1416.97 242.873C1420.15 245.234 1432.61 252.599 1443.98 252.599C1460.85 252.599 1467.16 243.359 1467.16 232.233C1467.16 227.049 1464.81 222.886 1461.31 219.541C1456.08 214.512 1448.17 211.131 1440.59 207.668C1433.06 204.228 1425.81 200.622 1420.67 195.225C1417.28 191.678 1413.9 185.866 1413.9 177.053M383.905 301.667C383.905 291.763 380.549 283.756 373.289 279.498C368.746 276.829 362.59 275.951 354.999 275.951H299.748V387.486H359.874C373.74 387.486 381.889 390.605 382.589 403.036H383.905V301.667ZM391.621 301.667C391.621 291.763 394.978 283.756 402.237 279.498C406.792 276.829 412.948 275.951 420.551 275.951H476.17V387.486H415.665C401.81 387.486 393.661 390.605 392.949 403.036H391.621V301.667Z" fill="white"/>
<path d="M487.803 284.195V402.109H402.305L401.333 404.517C399.85 408.194 397.181 411.598 387.858 411.598C378.535 411.598 375.878 408.194 374.383 404.517L373.411 402.109H288.139V284.196H280.429V287.789L273.027 285.512C272.173 282.606 269.516 280.459 266.325 280.459C262.458 280.459 259.303 283.614 259.303 287.481C259.303 291.372 262.458 294.515 266.325 294.515C268.021 294.515 269.551 293.886 270.761 292.89L280.429 295.855V305.333L273.169 304.028C272.628 302.763 271.726 301.684 270.577 300.927C269.427 300.17 268.081 299.767 266.704 299.77C262.837 299.77 259.682 302.913 259.682 306.792C259.682 310.671 262.837 313.814 266.704 313.814C268.709 313.814 270.512 312.96 271.793 311.62L280.429 313.173V322.828L272.837 322.496C271.615 320.456 269.397 319.069 266.835 319.069C262.968 319.069 259.813 322.212 259.813 326.091C259.813 329.969 262.968 333.124 266.835 333.124C269.184 333.124 271.235 331.962 272.516 330.206L280.429 330.551V341.048L272.671 341.332C272.027 340.418 271.172 339.673 270.179 339.159C269.186 338.645 268.084 338.377 266.965 338.379C263.098 338.379 259.943 341.522 259.943 345.401C259.943 349.28 263.098 352.423 266.965 352.423C269.504 352.423 271.71 351.059 272.943 349.042L280.429 348.77V358.449L271.947 359.907C271.293 359.205 270.502 358.645 269.623 358.262C268.743 357.878 267.795 357.679 266.835 357.678C262.968 357.678 259.813 360.821 259.813 364.7C259.813 368.579 262.968 371.722 266.835 371.722C268.204 371.723 269.543 371.324 270.687 370.573C271.831 369.823 272.731 368.754 273.276 367.499L280.429 366.278V375.778L271.153 378.601C269.943 377.605 268.401 376.977 266.704 376.977C264.842 376.977 263.056 377.716 261.739 379.033C260.422 380.35 259.682 382.136 259.682 383.999C259.682 385.861 260.422 387.647 261.739 388.964C263.056 390.281 264.842 391.021 266.704 391.021C269.896 391.021 272.564 388.886 273.418 385.979L280.429 383.833V393.025L270.18 397.45C269.038 396.689 267.697 396.285 266.325 396.287C262.458 396.287 259.303 399.43 259.303 403.309C259.303 407.187 262.458 410.331 266.325 410.331C269.777 410.331 272.647 407.828 273.228 404.53L280.429 401.423V409.821H368.655C372.248 416.072 378.452 419.31 387.858 419.31C397.265 419.31 403.48 416.072 407.05 409.821H495.513V284.196L487.803 284.195ZM329.81 244.873C311.97 244.873 297.522 247.648 297.522 251.064C297.522 254.492 311.97 257.256 329.81 257.256C347.637 257.256 362.097 254.492 362.097 251.064C362.097 247.648 347.637 244.873 329.81 244.873M374.263 206.191L355.629 219.286L355.474 220.614L359.899 222.607C360.777 223.046 360.777 223.746 360.337 224.173L348.63 234.054L347.515 233.959L339.224 221.742C338.643 220.946 338.856 220.152 339.864 219.986L345.428 219.072V217.673L330.992 197.283H328.62L314.185 217.673V219.072L319.759 219.986C320.756 220.152 320.957 220.946 320.388 221.742L312.085 233.959L310.993 234.054L300.046 224.173C299.606 223.746 299.606 223.046 300.484 222.607L304.92 220.614L304.754 219.286L285.337 206.191L283.772 206.808L295.159 241.633C300.958 239.036 314.243 237.209 329.794 237.138C345.368 237.209 358.653 239.036 364.441 241.633L375.841 206.808L374.263 206.191ZM387.717 478.43C369.878 478.43 355.43 481.205 355.43 484.621C355.43 488.049 369.878 490.813 387.717 490.813C405.545 490.813 420.004 488.049 420.004 484.621C420.004 481.205 405.545 478.43 387.717 478.43ZM432.172 439.745L413.538 452.852L413.383 454.181L417.808 456.161C418.685 456.601 418.685 457.3 418.246 457.727L406.539 467.62L405.424 467.513L397.133 455.296C396.563 454.501 396.765 453.706 397.773 453.54L403.337 452.639V451.227L388.901 430.837H386.528L372.093 451.227V452.639L377.668 453.54C378.665 453.706 378.866 454.501 378.297 455.296L369.993 467.513L368.891 467.62L357.966 457.727C357.515 457.3 357.515 456.601 358.393 456.161L362.829 454.181L362.663 452.852L343.246 439.745L341.668 440.362L353.079 475.2C358.867 472.59 372.152 470.763 387.715 470.692C403.277 470.763 416.574 472.59 422.35 475.2L433.75 440.362L432.172 439.745ZM445.498 244.873C427.646 244.873 413.199 247.648 413.199 251.064C413.199 254.492 427.646 257.256 445.498 257.256C463.314 257.256 477.773 254.492 477.773 251.064C477.773 247.648 463.314 244.873 445.498 244.873ZM489.942 206.191L471.308 219.286L471.142 220.614L475.578 222.607C476.443 223.046 476.456 223.746 476.005 224.173L464.297 234.054L463.195 233.959L454.903 221.742C454.322 220.946 454.536 220.152 455.532 219.986L461.095 219.072V217.673L446.661 197.284H444.3L429.865 217.674V219.073L435.427 219.987C436.436 220.153 436.637 220.947 436.068 221.743L427.777 233.96L426.662 234.055L415.726 224.044C415.286 223.628 415.286 222.916 416.164 222.478L420.6 220.615L420.434 219.287L401.017 206.192L399.439 206.808L410.839 241.634C416.627 239.037 429.912 237.21 445.486 237.139C461.048 237.21 474.333 239.037 480.11 241.634L491.521 206.808L489.942 206.191Z" fill="white"/>
<path d="M312.813 305.717C312.813 307.899 313.358 308.326 314.533 308.326C316.656 308.326 318.791 305.989 318.791 301.636C318.791 296.346 316.11 294.875 314.022 294.875C313.453 294.875 313.133 294.946 312.967 295.053C312.836 295.089 312.813 295.658 312.813 296.275V305.717ZM314.022 293.642C317.048 293.642 319.562 294.235 321.199 295.836C322.349 296.939 323.31 298.753 323.31 300.877C323.31 306.998 318.672 309.631 312.979 309.631H306.645V308.669C308.436 308.515 308.637 308.349 308.637 305.692V297.579C308.637 294.922 308.436 294.743 306.834 294.601V293.641L314.022 293.642ZM330.023 301.019C330.023 305.478 331.695 308.716 334.104 308.716C336.226 308.716 337.377 306.676 337.377 302.228C337.377 297.282 335.609 294.554 333.487 294.554C331.6 294.554 330.023 296.725 330.023 301.019M341.956 301.433C341.956 306.7 338.361 309.997 333.64 309.997C328.682 309.997 325.456 306.38 325.456 301.86C325.456 297.875 328.113 293.272 333.985 293.272C338.48 293.272 341.956 296.57 341.956 301.433M363.665 293.642V294.602C361.791 294.78 361.696 294.875 361.767 297.461L362.017 305.693C362.088 308.421 362.147 308.492 363.915 308.67V309.631H356.216V308.669C358.055 308.491 358.126 308.42 358.103 305.692L358.043 297.033H357.937L353.192 309.357H351.863L347.356 297.898H347.309L347.143 303.355C347.071 305.466 347.095 306.652 347.19 307.411C347.285 308.325 347.831 308.55 349.42 308.669V309.63H343.358V308.669C344.533 308.562 344.995 308.325 345.15 307.411C345.28 306.652 345.422 305.347 345.541 303.106L345.802 298.148C345.992 295.052 345.79 294.779 343.845 294.601V293.641H349.621L353.927 303.378L357.687 293.641L363.665 293.642ZM371.653 305.693C371.653 308.35 371.843 308.516 373.539 308.67V309.631H365.58V308.669C367.276 308.515 367.478 308.349 367.478 305.692V297.579C367.478 294.922 367.276 294.743 365.58 294.601V293.641H373.539V294.601C371.843 294.743 371.653 294.922 371.653 297.579V305.693ZM332.055 339.304H329.943L320.845 327.691H320.786V332.222C320.786 334.796 320.893 336.149 320.987 336.919C321.106 337.785 321.77 338.094 323.396 338.176V339.125H317.275V338.176C318.354 338.118 318.995 337.785 319.126 336.919C319.221 336.149 319.315 334.796 319.315 332.222V327.691C319.315 325.876 319.268 325.556 318.77 324.868C318.414 324.346 317.797 324.18 316.907 324.109V323.148H322.34L330.524 333.349H330.584V330.063C330.584 327.477 330.477 326.125 330.382 325.366C330.263 324.501 329.588 324.18 327.974 324.109V323.148H334.237V324.109C333.015 324.156 332.375 324.501 332.245 325.366C332.15 326.125 332.055 327.477 332.055 330.063V339.304ZM342.015 339.304C340.377 335.035 338.744 330.765 337.116 326.493C336.31 324.382 335.823 324.251 334.637 324.109V323.148H342.573V324.109L341.742 324.204C340.828 324.298 340.829 324.524 341.102 325.39C341.54 326.766 343.485 331.605 344.399 334.013C345.158 331.926 346.736 327.229 347.127 326.078C347.637 324.572 347.495 324.298 346.392 324.18L345.644 324.109V323.148H351.611V324.109C350.199 324.275 349.856 324.406 348.894 326.647C348.741 326.979 345.739 334.286 343.901 339.304H342.015ZM353.103 334.066C353.613 335.489 355.06 338.217 357.48 338.217C358.761 338.217 359.745 337.387 359.745 335.785C359.745 334.338 358.785 333.52 357.278 332.832L356.911 332.666C354.906 331.728 352.617 330.447 352.617 327.826C352.617 325.039 354.621 322.773 358.488 322.773C359.253 322.776 360.014 322.876 360.754 323.07C361.311 323.224 361.703 323.319 362.023 323.425C362.118 324.374 362.296 325.584 362.568 327.257L361.489 327.423C360.944 325.798 360.09 324.055 358.144 324.055C356.887 324.055 355.997 325.015 355.997 326.201C355.997 327.423 356.97 328.135 358.535 328.858L359.069 329.095C361.346 330.128 363.28 331.385 363.28 334.267C363.28 337.28 360.849 339.498 357.041 339.498C356.044 339.498 355.037 339.308 354.384 339.083C353.648 338.834 353.127 338.644 352.842 338.49C352.64 337.363 352.32 336.035 352.023 334.385L353.103 334.066ZM321.12 364.7C321.12 367.357 321.31 367.523 323.018 367.677V368.638H315.047V367.677C316.744 367.523 316.945 367.357 316.945 364.7V356.586C316.945 353.929 316.744 353.752 315.047 353.61V352.648H323.018V353.61C321.31 353.752 321.12 353.929 321.12 356.586V364.7ZM330.852 365.018C330.852 366.299 330.899 366.904 331.338 367.129C331.742 367.331 332.299 367.355 333.058 367.355C333.853 367.355 334.921 367.284 335.43 366.643C335.822 366.18 336.237 365.516 336.629 364.211L337.696 364.377C337.541 365.315 337.032 367.877 336.806 368.636H324.612V367.675C326.475 367.521 326.676 367.355 326.676 364.698V356.585C326.676 353.928 326.475 353.761 324.826 353.607V352.646H332.821V353.607C331.054 353.761 330.852 353.928 330.852 356.585V365.018ZM344.578 365.018C344.578 366.299 344.625 366.904 345.064 367.129C345.455 367.331 346.013 367.355 346.784 367.355C347.579 367.355 348.634 367.284 349.145 366.643C349.536 366.18 349.963 365.516 350.342 364.211L351.41 364.377C351.268 365.315 350.746 367.877 350.521 368.636H338.327V367.675C340.201 367.521 340.391 367.355 340.391 364.698V356.585C340.391 353.928 340.201 353.761 338.552 353.607V352.646H346.535V353.607C344.767 353.761 344.578 353.928 344.578 356.585V365.018ZM356.325 368.806C354.691 364.538 353.062 360.268 351.438 355.995C350.62 353.884 350.122 353.753 348.947 353.611V352.65H356.895V353.611L356.053 353.705C355.139 353.8 355.139 354.026 355.424 354.892C355.863 356.268 357.808 361.107 358.71 363.515C359.469 361.428 361.046 356.731 361.438 355.58C361.96 354.074 361.818 353.8 360.703 353.682L359.967 353.611V352.65H365.909V353.611C364.51 353.777 364.166 353.908 363.205 356.149C363.051 356.481 360.062 363.788 358.223 368.806H356.325ZM422.366 293.642V294.602C420.491 294.78 420.397 294.875 420.468 297.461L420.717 305.693C420.788 308.421 420.847 308.492 422.615 308.67V309.631H414.917V308.669C416.756 308.491 416.827 308.42 416.803 305.692L416.732 297.033H416.637L411.88 309.357H410.564L406.068 297.898H406.02L405.843 303.355C405.772 305.466 405.795 306.652 405.89 307.411C405.985 308.325 406.519 308.55 408.12 308.669V309.63H402.059V308.669C403.233 308.562 403.695 308.325 403.85 307.411C403.98 306.652 404.123 305.347 404.241 303.106L404.502 298.148C404.692 295.052 404.491 294.779 402.545 294.601V293.641H408.321L412.628 303.378L416.387 293.641L422.366 293.642ZM430.349 305.693C430.349 308.35 430.55 308.516 432.247 308.67V309.631H424.276V308.669C425.971 308.515 426.174 308.349 426.174 305.692V297.579C426.174 294.922 425.971 294.743 424.276 294.601V293.641H432.247V294.601C430.55 294.743 430.349 294.922 430.349 297.579V305.693ZM448.642 309.798H446.531L437.433 298.185H437.386V302.716C437.386 305.291 437.481 306.654 437.587 307.413C437.706 308.28 438.37 308.588 439.996 308.671V309.62H433.863V308.671C434.943 308.612 435.594 308.28 435.713 307.413C435.808 306.654 435.915 305.291 435.915 302.716V298.185C435.915 296.371 435.868 296.05 435.37 295.362C435.001 294.852 434.385 294.674 433.507 294.603V293.643H438.928L447.124 303.843H447.16V300.557C447.16 297.972 447.076 296.619 446.981 295.86C446.839 294.995 446.187 294.674 444.562 294.603V293.643H450.837V294.603C449.603 294.65 448.963 294.995 448.844 295.86C448.749 296.619 448.642 297.972 448.642 300.557V309.798ZM455.806 303.331H458.949L457.395 298.634H457.324L455.806 303.331ZM458.913 308.669L459.661 308.562C460.574 308.444 460.621 308.194 460.302 307.316L459.411 304.802H455.379L454.643 307.163C454.323 308.23 454.323 308.468 455.45 308.598L456.161 308.669V309.63H450.433V308.669C451.701 308.491 452.07 308.396 452.876 306.332L457.798 293.617L459.483 293.272L461.167 297.922C462.211 300.852 463.267 303.747 464.203 306.261C464.999 308.396 465.437 308.515 466.647 308.669V309.63H458.913V308.669ZM422.175 335.195C422.175 337.852 422.365 338.018 424.429 338.172V339.133H415.828V338.172C417.786 338.018 417.987 337.852 417.987 335.195V324.425H417.573C415.923 324.425 415.259 324.721 414.868 325.171C414.583 325.527 414.275 326.168 413.967 327.556H412.923C413.018 325.48 413.171 323.784 413.219 322.538H413.978C414.346 323.096 414.607 323.144 415.259 323.144H425.069C425.721 323.144 425.828 323.001 426.219 322.538H426.991C427.014 323.571 427.133 325.658 427.263 327.473L426.172 327.556C425.816 326.073 425.543 325.432 425.175 325.018C424.748 324.567 423.93 324.425 422.756 324.425H422.175V335.195ZM435.044 335.195C435.044 337.852 435.246 338.018 436.931 338.172V339.133H428.971V338.172C430.668 338.018 430.869 337.852 430.869 335.195V327.082C430.869 324.425 430.668 324.259 428.971 324.104V323.144H436.931V324.104C435.246 324.259 435.044 324.425 435.044 327.082V335.195ZM443.559 330.52C443.559 334.98 445.232 338.218 447.639 338.218C449.763 338.218 450.913 336.178 450.913 331.73C450.913 326.784 449.146 324.055 447.022 324.055C445.137 324.055 443.559 326.227 443.559 330.52ZM455.491 330.948C455.491 336.202 451.898 339.499 447.177 339.499C442.219 339.499 438.993 335.882 438.993 331.362C438.993 327.377 441.637 322.774 447.52 322.774C452.016 322.774 455.491 326.072 455.491 330.947M429.428 352.651V353.612C427.554 353.778 427.459 353.885 427.531 356.458L427.779 364.703C427.85 367.431 427.898 367.502 429.666 367.679V368.628H421.979V367.679C423.817 367.502 423.901 367.431 423.865 364.703L423.794 356.044H423.699L418.954 368.367H417.626L413.131 356.909H413.071L412.905 362.365C412.822 364.477 412.857 365.651 412.952 366.422C413.047 367.323 413.581 367.549 415.195 367.679V368.628H409.109V367.679C410.295 367.573 410.77 367.323 410.912 366.422C411.043 365.651 411.185 364.358 411.304 362.117L411.565 357.146C411.742 354.051 411.565 353.778 409.607 353.612V352.651H415.384L419.69 362.389L423.45 352.651H429.428ZM433.231 356.585C433.231 353.928 433.03 353.761 431.393 353.608V352.646H443.041C443.076 353.073 443.194 354.865 443.313 356.703L442.234 356.787C441.985 355.577 441.712 354.889 441.32 354.497C440.929 354.082 440.11 353.928 438.818 353.928H438.391C437.466 353.928 437.406 353.928 437.406 354.794V359.538H438.64C440.751 359.538 440.834 359.384 441.083 357.522H442.151V363.322H441.083C440.834 361.163 440.751 361.009 438.64 361.009H437.406V365.019C437.406 366.3 437.466 366.904 437.904 367.13C438.296 367.331 438.865 367.355 439.625 367.355C440.609 367.355 441.7 367.212 442.234 366.619C442.649 366.181 443.076 365.267 443.444 364.081L444.511 364.259C444.404 365.457 443.882 367.972 443.657 368.636H431.143V367.675C433.03 367.521 433.231 367.355 433.231 364.698V356.585ZM450.026 362.339H453.181L451.627 357.642H451.544L450.026 362.339ZM453.157 367.676L453.893 367.569C454.794 367.451 454.854 367.202 454.533 366.324L453.632 363.81H449.611L448.863 366.17C448.543 367.237 448.543 367.474 449.682 367.605L450.381 367.676V368.637H444.677V367.676C445.91 367.51 446.301 367.403 447.096 365.339L452.018 352.624L453.726 352.28L455.376 356.93C456.443 359.859 457.498 362.753 458.436 365.268C459.23 367.403 459.67 367.522 460.867 367.676V368.637H453.157V367.676Z" fill="#002147"/>
<path d="M365.547 566.442C365.547 567.286 365.381 568.123 365.058 568.903C364.736 569.683 364.262 570.392 363.665 570.989C363.068 571.586 362.359 572.06 361.579 572.382C360.799 572.705 359.963 572.871 359.118 572.871C358.273 572.873 357.436 572.708 356.654 572.385C355.873 572.063 355.163 571.59 354.564 570.992C353.966 570.395 353.491 569.686 353.167 568.905C352.844 568.124 352.677 567.287 352.677 566.442C352.677 562.895 355.56 560.013 359.118 560.013C360.823 560.014 362.457 560.692 363.663 561.898C364.868 563.103 365.546 564.737 365.547 566.442ZM430.757 577.137C430.757 577.982 430.591 578.818 430.268 579.598C429.945 580.378 429.472 581.087 428.875 581.684C428.278 582.281 427.569 582.755 426.789 583.078C426.009 583.401 425.172 583.567 424.328 583.566C423.483 583.568 422.646 583.403 421.864 583.08C421.083 582.758 420.373 582.284 419.775 581.687C419.177 581.09 418.702 580.381 418.378 579.6C418.054 578.82 417.888 577.983 417.888 577.137C417.888 573.59 420.77 570.72 424.328 570.72C427.875 570.72 430.757 573.59 430.757 577.137ZM393.902 112.439C393.902 115.985 391.02 118.868 387.461 118.868C383.914 118.868 381.044 115.985 381.044 112.439C381.044 108.892 383.914 106.01 387.461 106.01C391.02 106.01 393.902 108.892 393.902 112.439ZM546.924 172.628C546.77 176.175 543.769 178.927 540.223 178.785C536.676 178.63 533.924 175.63 534.066 172.083C534.14 170.379 534.888 168.775 536.145 167.623C537.402 166.47 539.065 165.865 540.768 165.938C544.303 166.093 547.066 169.082 546.924 172.628M224.428 448.643C226.895 452.201 228.153 456.009 228.141 459.947C228.129 464.443 226.634 468.084 218.592 473.647L195.38 490.193L191.097 484.049C191.097 484.049 214.88 467.111 215.271 466.839C219.375 464.003 221.119 461.928 221.131 458.689C221.131 456.625 220.372 454.384 218.889 452.237C216.565 448.892 213.575 447.813 210.954 447.813C208.558 447.813 205.995 449.485 201.417 452.676L179.58 467.49L175.393 461.453L196.163 447.373C201.951 443.317 206.553 440.53 210.835 440.541C217.074 440.553 221.629 444.61 224.428 448.643ZM150.233 403.312L194.405 387.821L196.849 394.511L171.572 425.386L203.515 412.754L205.9 419.278L162.225 436.05L159.782 429.36L185.189 398.437L152.605 409.836L150.233 403.312ZM143.623 368.139L189.859 361.283L190.963 368.685L144.726 375.541L143.623 368.139ZM142.253 312.391L142.431 304.633L188.584 323.386L188.252 331.085L140.865 345.211L140.913 337.442L179.344 326.671L142.253 312.391ZM176.134 221.977C178.874 216.995 180.831 215.11 183.725 215.121C184.805 215.121 186.157 215.382 187.509 216.13C189.265 217.114 190.605 218.727 191.103 220.459C191.298 221.113 191.391 221.793 191.376 222.475C191.353 225.251 189.811 228.05 188.185 230.968L187.225 232.7L174.059 225.619L176.134 221.977ZM184.449 207.814C177.842 207.827 174.782 211.61 170.571 219.225L165.079 229.059L206.262 251.406L209.809 244.977L192.705 235.63L193.701 233.791C196.583 228.572 197.579 227.789 204.922 228.406L218.255 229.592L222.062 222.677L206.701 221.372C203.605 221.088 201.174 220.851 199.205 221.431C198.541 221.621 197.758 222.024 196.986 222.559C197.165 221.728 197.485 220.909 197.497 220.068C197.497 218.751 197.318 217.446 196.915 216.26C196.026 213.508 194.068 211.29 191.103 209.653C188.897 208.431 186.691 207.803 184.449 207.814M235.607 141.752L241.561 137.221L269.922 174.371L263.968 178.903L235.607 141.752ZM261.275 123.529L291.522 107.789L294.463 113.459L282.697 119.591L301.332 155.378L294.701 158.829L276.054 123.043L264.229 129.211L261.275 123.529ZM336.707 93.5689L344.595 91.375L338.249 122.642L343.385 140.398L336.257 142.451L331.239 124.836L309.034 101.671L316.72 99.4408L332.686 116.082L336.707 93.5689ZM479.338 157.472L503.073 117.203L525.408 130.357L522.158 135.873L506.205 126.466L499.645 137.616L514.65 146.453L511.483 151.85L496.478 143.001L485.732 161.244L479.338 157.472ZM599.442 261.599L616.463 241.233L619.108 249.299L606.44 263.794L625.264 268.028L627.755 275.62L602.004 269.393L583.714 291.313L581.116 283.389L594.911 267.293L574.272 262.584L571.757 254.922L599.442 261.599ZM586.084 307.53L632.676 303.734L634.787 329.569L628.406 330.09L626.911 311.645L614.017 312.689L615.429 330.054L609.202 330.565L607.778 313.2L586.689 314.919L586.084 307.53ZM610.373 384.826C601.263 384.826 590.635 379.869 590.635 370.687C590.635 367.366 591.785 362.895 595.902 359.906C598.665 357.889 602.271 356.822 606.316 356.822C610.953 356.822 619.316 358.126 623.705 364.176C625.223 366.263 625.982 368.683 625.97 371.257C625.97 374.839 624.512 379.097 620.68 381.873C617.964 383.842 614.382 384.826 610.373 384.826M606.683 349.206C601.287 349.206 596.316 350.665 592.391 353.512C585.345 358.625 584.064 365.979 584.064 370.273C584.064 386.072 598.902 392.394 610.052 392.394C615.413 392.394 620.313 390.935 624.179 388.136C632.056 382.442 632.483 373.866 632.483 371.114C632.483 357.32 619.814 349.206 606.683 349.206ZM572.279 231.686C568.08 231.686 564.297 229.931 561.687 225.803C560.346 223.703 559.706 221.438 559.695 219.148C559.659 213.858 563.016 208.438 569.148 204.547C573.204 201.973 577.19 200.704 580.748 200.715C585.256 200.715 588.921 202.697 591.365 206.564C592.812 208.841 593.476 211.261 593.476 213.681C593.476 218.84 590.202 223.905 584.283 227.653C580.131 230.287 575.945 231.686 572.279 231.686M579.562 193.599C574.83 193.599 569.801 195.105 564.949 198.177C555.97 203.883 552.696 212.044 552.696 217.986C552.696 221.853 553.751 225.637 555.958 229.112C560.94 236.977 568.425 238.898 573.478 238.874C578.305 238.851 583.394 237.249 588.186 234.201C593.974 230.535 600.415 223.727 600.415 214.499C600.415 210.668 599.323 206.896 597.106 203.408C593.013 196.956 586.596 193.599 579.562 193.599M449.625 139.019C446.233 139.019 441.346 137.359 438.618 132.377C437.289 129.957 436.708 127.027 436.708 123.99C436.708 115.616 442.283 103.873 452.472 103.873C458.189 103.873 465.377 108.132 465.377 118.7C465.377 125.437 460.621 139.019 449.625 139.019ZM452.021 97.3257C442.283 97.3257 433.802 103.886 430.374 115.545C429.627 118.131 429.14 120.693 429.14 123.172C429.14 127.846 429.923 131.547 431.844 135.034C436.162 142.945 444.074 145.638 450.087 145.638C453.492 145.638 456.766 144.867 459.766 143.218C467.655 138.912 472.862 128.901 472.862 119.317C472.862 115.165 472.055 111.24 470.205 107.895C466.409 100.991 459.387 97.3257 452.021 97.3257ZM193.113 266.851L199.387 268.631L192.306 294.299L147.066 281.904L154.788 255.927L160.944 257.659L155.262 276.377L167.741 279.793L172.545 262.795L178.571 264.503L173.779 281.453L187.881 285.332L193.113 266.851ZM204.978 169.19C211.466 161.907 218.108 162.417 218.108 162.417L219.247 168.585C219.247 168.585 214.123 168.751 210.114 173.235C208.371 175.192 207.493 177.232 207.493 179.071C207.493 180.589 208.086 181.917 209.272 182.973C212.51 185.855 218.037 182.653 221.501 181.265C224.17 180.162 227.953 178.62 231.738 178.62C234.561 178.62 237.479 179.426 240.147 181.799C243.255 184.587 244.821 188.074 244.821 191.739C244.821 195.7 243.279 199.235 240.171 202.711C234.205 209.389 226.187 210.113 226.187 210.113L224.597 203.861C229.329 202.77 232.9 200.955 235.07 198.523C236.767 196.614 237.609 194.479 237.609 192.593C237.609 190.837 236.873 189.189 235.426 187.896C234.264 186.864 232.84 186.484 231.298 186.508C228.286 186.508 224.692 188.24 221.727 189.474C216.044 191.81 210.055 193.708 204.694 188.916C201.965 186.484 200.518 183.412 200.518 180.008C200.518 176.414 201.942 172.594 204.978 169.19M601.261 437.417C599.162 437.417 595.58 436.207 594.228 432.731C593.897 431.873 593.736 430.959 593.753 430.039C593.777 427.477 594.987 424.808 596.244 422.021L597.027 420.218L610.513 426.279L609.019 429.885C606.504 435.591 604.867 437.405 601.261 437.417M573.66 409.696L591.345 417.691L590.456 419.684C588.047 425.116 587.135 426.006 579.768 426.03L566.377 426.042L563.198 433.253L578.618 433.206C581.749 433.218 584.169 433.218 586.078 432.483C586.787 432.197 587.451 431.81 588.047 431.332C588 431.724 587.87 432.115 587.87 432.518C587.846 434.238 588.166 435.934 588.819 437.429C590.93 442.363 596.671 444.783 600.894 444.771C608.331 444.771 611.177 440.323 614.796 432.127C614.926 431.83 619.137 422.116 619.137 422.116L576.637 402.971L573.66 409.696ZM565.705 489.109C561.993 489.109 558.506 487.673 554.876 484.779C551.199 481.85 547.296 477.271 547.296 471.423C547.296 467.366 549.502 463.488 552.895 459.241L555.991 455.375L582.691 476.678L580.639 479.228C575.692 485.443 572.3 489.109 565.705 489.109M549.051 453.915C544.201 459.988 540.523 465.41 540.523 472.419C540.523 478.362 543.228 485.147 550.06 490.603C554.591 494.209 559.715 496.178 565.006 496.178C571.506 496.178 576.713 494.221 584.814 484.067L592.204 474.791L555.67 445.624L549.051 453.915Z" fill="white"/>
<path d="M544.703 542.839C501.195 558.223 460.593 557.167 425.957 549.434C427.084 533.966 433.49 517.431 443.287 514.359C519.567 490.695 575.127 419.574 575.127 335.737C575.127 232.624 491.088 148.739 387.786 148.739C284.472 148.739 200.433 232.624 200.433 335.737C200.433 393.099 227.228 447.591 272.326 482.914C261.615 487.623 252.482 495.238 245.874 504.716C242.458 502.379 239.161 499.971 236.113 497.468L234.405 499.176C236.445 501.643 239.612 504.893 243.407 508.535C237.856 517.87 234.642 528.747 234.642 540.372C234.642 542.186 234.761 543.977 234.914 545.733C167.802 496.816 127.912 419.063 127.912 335.737C127.912 192.461 244.499 75.8858 387.786 75.8858C531.073 75.8858 647.648 192.461 647.648 335.737C647.648 417.806 610.13 493.21 544.702 542.839M393.943 604.173C358.038 604.173 313.225 591.968 282.433 573.808C273.109 568.304 261.983 558.056 261.983 540.572C261.983 535.84 262.909 531.332 264.545 527.192C276.04 536.694 287.925 545.601 295.374 549.67C297.082 550.619 298.078 551.07 300.071 551.07C304.863 551.07 308.73 547.179 308.73 542.375C308.73 538.71 306.737 535.732 303.451 534.298C297.082 531.51 283.761 526.006 269.409 518.569C276.04 509.803 286.502 504.122 298.268 504.122C303.653 504.122 308.836 505.272 313.676 507.549L323.51 513.279C354.8 532.4 435.304 581.411 532.497 554.473C495.608 587.769 450.167 604.173 393.943 604.173M424.723 626.046C414.855 626.046 406.754 633.033 406.754 643.756C406.754 654.253 414.962 661.464 424.723 661.464C426.207 661.464 427.63 661.216 429.006 660.86C426.942 675.711 409.648 692.328 387.336 699.801C365.202 692.388 347.921 675.651 345.631 660.871C346.995 661.227 348.406 661.464 349.89 661.464C360.529 661.464 367.859 654.015 367.859 643.756C367.859 633.982 360.173 626.307 350.269 626.093C353.293 620.566 356.2 614.695 358.335 608.396C370.6 610.52 382.699 611.693 393.943 611.693C403.172 611.693 412.126 611.184 420.869 610.306C422.031 615.37 423.751 620.661 425.767 626.129C425.424 626.117 425.079 626.046 424.723 626.046M297.7 485.074C316.18 485.074 333.462 494.551 343.592 509.734C334.684 507.474 325.964 504.532 317.509 500.932L317.473 500.98L317.2 500.826C311.281 498.031 304.815 496.589 298.269 496.604C283.549 496.604 270.525 503.815 262.495 514.858C259.08 512.972 255.714 510.998 252.4 508.939C262.364 494.551 278.935 485.074 297.7 485.074ZM370.838 521.94C368.537 523.648 366.722 525.676 365.405 527.918C358.632 524.62 350.115 520.385 344.553 517.266C352.429 519.009 362.725 521.216 370.838 521.94M427.713 518.416C422.341 526.091 419.138 536.767 418.165 547.572C401.191 543.196 385.784 537.312 372.344 531.179C374.895 526.234 382.213 522.734 387.788 522.734C401.488 522.734 414.832 521.216 427.713 518.416ZM387.788 515.214C376.306 515.214 365.013 514.111 353.947 512C343.259 491.04 321.352 477.565 297.7 477.565C291.888 477.565 286.289 478.408 280.939 479.89C235.474 446.109 208.359 392.376 208.359 335.738C208.359 236.776 288.851 156.26 387.788 156.26C486.725 156.26 567.217 236.776 567.217 335.738C567.217 434.698 486.725 515.214 387.788 515.214M297.7 595.671C267.298 595.671 242.568 570.868 242.568 540.372C242.556 531.157 244.86 522.085 249.269 513.992C252.104 516.566 255.141 519.235 258.284 521.94C255.615 527.597 254.073 533.896 254.073 540.574C254.073 557.145 262.435 570.844 278.258 580.191C287.344 585.553 297.64 590.392 308.529 594.603C304.963 595.312 301.336 595.669 297.7 595.671M655.573 335.738C655.573 188.31 535.44 68.3789 387.788 68.3789C240.135 68.3789 120.002 188.31 120.002 335.738C120.002 424.177 163.676 506.615 236.85 556.575C244.05 583.37 268.568 603.191 297.7 603.191C305.576 603.191 313.226 601.697 320.485 598.885C330.33 602.129 340.354 604.798 350.507 606.88C347.661 614.993 343.509 622.703 339.547 629.358C339.547 629.358 339.642 629.334 339.772 629.31C339.701 629.358 339.618 629.393 339.547 629.44L345.122 635.027C346.546 634.245 348.159 633.77 349.891 633.77C355.406 633.77 359.889 638.241 359.889 643.757C359.889 649.273 355.406 653.756 349.891 653.756C345.075 653.756 340.852 650.672 338.633 647.375C338.633 647.375 337.341 651.871 337.341 657.802C337.294 677.005 358.265 698.949 387.337 708.201C416.386 699.151 437.345 677.052 437.345 657.837C437.345 651.218 436.029 647.375 436.029 647.375C433.799 650.068 430.181 653.756 424.724 653.756C419.221 653.756 414.726 649.273 414.726 643.757C414.726 638.241 419.221 633.77 424.724 633.77C426.658 633.77 428.449 634.339 429.98 635.3L435.388 629.88L435.59 629.938C432.529 622.608 430.299 615.883 428.781 609.418C476.927 602.942 517.553 582.563 549.84 548.604L549.828 548.568C617.021 497.505 655.572 420.026 655.572 335.737" fill="white"/>
</svg>
