<svg width="134" height="33" viewBox="0 0 134 33" fill="none" xmlns="http://www.w3.org/2000/svg">
<path d="M30.8529 0.532227C29.9969 0.532212 26.1572 0.57651 26.1572 0.57651V7.04192H9.98829C9.9883 7.04191 6.17686 7.04192 4.5839 9.74323C3.48174 11.4189 3.62527 13.0149 3.65363 13.2416C3.62527 13.4719 3.52428 15.0697 4.6282 16.7401C6.22472 19.4432 9.98829 19.4413 9.98829 19.4413H18.4936C19.8756 19.4413 20.083 20.4953 20.0883 20.947C20.083 21.3969 19.8703 22.4083 18.4936 22.4083C17.0885 22.4083 2.32468 22.4083 2.32468 22.4083H0.552741C0.552727 23.2763 0.552741 27.1467 0.552741 27.1467H18.3164C18.3164 27.1467 22.0941 27.1608 23.6766 24.4455C24.7768 22.7786 24.6723 21.1719 24.651 20.947C24.6652 20.7097 24.7822 19.0676 23.6766 17.4043C22.0906 14.6906 18.3164 14.7031 18.3164 14.7031L9.81109 14.7472C8.43609 14.7508 8.23052 13.6916 8.21636 13.2416C8.22698 12.7882 8.42722 11.7856 9.81109 11.7803C11.2198 11.7856 25.98 11.7803 25.98 11.7803H26.1572V20.8584C26.1572 20.8584 26.1465 24.6774 28.8594 26.261C30.4612 27.3132 31.9993 27.2513 32.3146 27.2353H37.3646V22.5412H32.2703C31.7902 22.5075 30.8652 22.2401 30.8529 20.947C30.8652 20.203 30.8475 15.7995 30.8529 11.7803L37.3203 11.736C37.3203 10.8751 37.276 7.04192 37.276 7.04192H30.8529C30.8529 5.74176 30.8529 4.87203 30.8529 4.87203V0.532227ZM73.5121 0.709362L73.5564 12.046V27.8552H78.252V22.0984L80.9099 18.7328L86.1371 27.9438H91.5415L91.0985 27.191C91.0985 27.191 86.3763 18.8408 84.2766 15.1016L90.9214 7.13049H84.8082L78.252 14.9687V0.753644C78.2521 0.753644 74.3715 0.709362 73.5121 0.709362ZM130.878 2.70213C129.298 2.70213 127.948 3.97218 127.955 5.62485C127.948 7.27398 129.294 8.59715 130.878 8.59186C132.486 8.59186 133.846 7.27929 133.846 5.62485C133.846 3.98459 132.502 2.70213 130.878 2.70213ZM130.878 3.05639C132.337 3.05286 133.492 4.22903 133.492 5.62485C133.492 7.07027 132.319 8.2358 130.878 8.23759C129.47 8.23581 128.309 7.08798 128.309 5.62485C128.309 4.19714 129.459 3.0546 130.878 3.05639ZM129.815 4.03063V7.17478H130.258V5.75771H130.79C131.305 5.75593 131.451 5.89409 131.499 6.37767C131.562 6.87896 131.577 6.96753 131.631 7.17478H132.074C131.963 6.85771 131.94 6.59022 131.897 6.20054C131.841 5.81438 131.743 5.65319 131.41 5.58057C132.005 5.40875 132.023 4.92516 132.03 4.82775C132.023 4.0324 131.155 4.0324 130.923 4.03063H129.815ZM130.258 4.38491H130.923C131.158 4.38491 131.543 4.42387 131.543 4.9163C131.543 5.4052 131.171 5.40342 130.967 5.40343H130.258V4.38491ZM100.711 6.95336C94.9206 6.95334 90.2125 11.6616 90.2125 17.4486C90.2161 23.1452 94.7469 27.7507 100.401 27.8995H107.223V23.3826H100.844H100.224C97.9488 23.3383 95.9359 21.5723 95.1739 19.2642H111.033C111.143 18.6549 111.21 18.049 111.21 17.4043C111.203 11.6173 106.511 6.95336 100.711 6.95336ZM113.159 7.17478L113.203 27.3239H117.943V11.9131H121.93C123.528 11.9131 123.759 13.0663 123.791 13.5516V16.2529H128.486V13.3302C128.511 13.006 128.564 11.4845 127.512 9.87608C125.917 7.17478 122.107 7.17478 122.107 7.17478H113.203H113.159ZM39.2252 7.21906L39.3139 27.3682H44.0094V11.9131H47.9963C49.6104 11.9184 49.8231 13.1123 49.8568 13.5959V16.2972H54.5525V13.3745C54.5719 13.0486 54.6321 11.5234 53.5779 9.92036C51.9849 7.21729 48.1735 7.21906 48.1735 7.21906H39.3139H39.2252ZM54.5967 7.26335L60.134 26.0839L60.3112 26.5711C60.4176 27.0032 60.4406 27.6587 59.6467 27.7224H59.1152H53.7993V32.4608H59.7796C60.1004 32.4838 61.6402 32.505 63.2349 31.4422C65.5047 30.0924 66.2578 26.9572 66.5129 26.0839C66.8142 25.0406 72.0059 7.26335 72.0059 7.26335C72.0059 7.26335 68.2513 7.26335 67.3989 7.26335L63.3235 21.6112L59.2038 7.26335C58.3461 7.26335 54.5967 7.26335 54.5967 7.26335ZM100.711 11.6031C103.18 11.6031 105.285 13.1247 106.16 15.2787H95.2625C96.1291 13.123 98.2482 11.6031 100.711 11.6031Z" fill="#171717"/>
</svg>
