<svg width="72" height="72" viewBox="0 0 72 72" fill="none" xmlns="http://www.w3.org/2000/svg">
<path fill-rule="evenodd" clip-rule="evenodd" d="M49.5 22.5H63C64.1931 22.5014 65.3369 22.9759 66.1805 23.8195C67.0241 24.6632 67.4986 25.8069 67.5 27V63C67.4986 64.1931 67.0241 65.3369 66.1805 66.1805C65.3369 67.0241 64.1931 67.4986 63 67.5H27C25.8069 67.4986 24.6632 67.0241 23.8195 66.1805C22.9759 65.3369 22.5014 64.1931 22.5 63V49.5H9H5.5C4.94772 49.5 4.5 49.0523 4.5 48.5V45V9V5.5C4.5 4.94772 4.94772 4.5 5.5 4.5H9H45H48.5C49.0523 4.5 49.5 4.94772 49.5 5.5V9V22.5ZM27 49.5H48.5C49.0523 49.5 49.5 49.0523 49.5 48.5V27H63L63.0034 63H27V49.5Z" fill="#262626"/>
</svg>
