<svg width="593" height="426" viewBox="0 0 593 426" fill="none" xmlns="http://www.w3.org/2000/svg">
<g clip-path="url(#clip0_91_1611)">
<rect x="0.5" y="0.5" width="592" height="425" rx="36" fill="#FBBF24"/>
<path d="M136.601 360.888C136.601 360.888 136.592 360.903 136.586 360.904C136.583 360.917 136.573 360.932 136.57 360.945L136.601 360.888Z" fill="#FBBF24"/>
<g clip-path="url(#clip1_91_1611)">
<path d="M389.519 118.031L293.875 173.258L198.231 118.031L292.17 61.8215L389.519 118.031Z" fill="#171717" stroke="#171717" stroke-linejoin="round"/>
<path d="M169.667 252.071L253.274 301.658L306.545 271.803L226.681 209.995" fill="#F5F5F5"/>
<path d="M169.667 252.071L253.274 301.658L306.545 271.803L226.681 209.995" stroke="#171717" stroke-linejoin="round"/>
<path d="M374.305 314.087L455.475 267.478L374.604 220.777L293.734 267.478L374.305 314.087Z" fill="#F5F5F5" stroke="#171717" stroke-linejoin="round"/>
<path d="M414.749 337.61L495.919 291.009L415.057 244.308L334.187 291.009L414.749 337.61Z" fill="#F5F5F5" stroke="#171717" stroke-linejoin="round"/>
<path d="M455.201 361.149L536.371 314.539L455.5 267.847L374.629 314.539L455.201 361.149Z" fill="#F5F5F5" stroke="#171717" stroke-linejoin="round"/>
<path d="M495.644 384.677L576.814 338.067L495.943 291.375L415.081 338.067L495.644 384.677Z" fill="#F5F5F5" stroke="#171717" stroke-linejoin="round"/>
<path d="M536.088 408.212L617.267 361.602L536.396 314.909L455.525 361.602L536.088 408.212Z" fill="#F5F5F5" stroke="#171717" stroke-linejoin="round"/>
<path d="M576.539 431.746L657.709 385.137L576.839 338.444L495.968 385.137L576.539 431.746Z" fill="#F5F5F5" stroke="#171717" stroke-linejoin="round"/>
<path d="M616.983 455.279L698.153 408.669L617.291 361.969L536.42 408.669L616.983 455.279Z" fill="#F5F5F5" stroke="#171717" stroke-linejoin="round"/>
<path d="M657.435 478.814L738.605 432.204L657.735 385.503L576.864 432.204L657.435 478.814Z" fill="#F5F5F5" stroke="#171717" stroke-linejoin="round"/>
<path d="M552.666 132.318L471.496 85.7083L552.367 39.0073L633.237 85.7083L552.666 132.318Z" fill="#F5F5F5" stroke="#171717" stroke-linejoin="round"/>
<path d="M629.666 84.3177L548.496 37.7083L629.367 -8.99268L710.237 37.7083L629.666 84.3177Z" fill="#F5F5F5" stroke="#171717" stroke-linejoin="round"/>
<path d="M512.222 155.841L431.052 109.24L511.923 62.5386L592.785 109.24L512.222 155.841Z" fill="#F5F5F5" stroke="#171717" stroke-linejoin="round"/>
<path d="M471.771 179.379L390.601 132.77L471.471 86.0771L552.342 132.77L471.771 179.379Z" fill="#F5F5F5" stroke="#171717" stroke-linejoin="round"/>
<path d="M431.327 202.911L350.157 156.301L431.027 109.608L511.89 156.301L431.327 202.911Z" fill="#F5F5F5" stroke="#171717" stroke-linejoin="round"/>
<path d="M390.884 226.442L309.706 179.832L390.576 133.14L471.447 179.832L390.884 226.442Z" fill="#F5F5F5" stroke="#171717" stroke-linejoin="round"/>
<path d="M350.431 249.98L269.261 203.371L350.131 156.678L431.002 203.371L350.431 249.98Z" fill="#F5F5F5" stroke="#171717" stroke-linejoin="round"/>
<path d="M284.5 165.656L390.551 226.898L309.988 273.507L210.343 216.292" fill="#F5F5F5"/>
<path d="M284.5 165.656L390.551 226.898L309.988 273.507L210.343 216.292" stroke="#171717" stroke-linejoin="round"/>
<path d="M318.355 199.846V225.367L339.7 212.989V187.468L318.355 199.846Z" fill="#F5F5F5" stroke="#171717" stroke-linejoin="round"/>
<path d="M318.356 199.846V225.367L297.011 212.989V187.468L318.356 199.846Z" fill="#F5F5F5" stroke="#171717" stroke-linejoin="round"/>
<path d="M339.7 187.47L318.356 174.334L297.011 187.47L318.356 199.848L339.7 187.47Z" fill="#F5F5F5" stroke="#171717" stroke-linejoin="round"/>
<path d="M188.64 344.106L107.47 297.496L188.341 250.803L269.211 297.496L188.64 344.106Z" fill="#F5F5F5" stroke="#171717" stroke-linejoin="round"/>
<path d="M148.197 367.637L67.0271 321.028L147.898 274.335L228.768 321.028L148.197 367.637Z" fill="#F5F5F5" stroke="#171717" stroke-linejoin="round"/>
<path d="M107.753 391.168L26.5833 344.559L107.446 297.866L188.316 344.559L107.753 391.168Z" fill="#F5F5F5" stroke="#171717" stroke-linejoin="round"/>
<path d="M67.3014 414.704L-13.8687 368.095L67.0019 321.394L147.873 368.095L67.3014 414.704Z" fill="#F5F5F5" stroke="#171717" stroke-linejoin="round"/>
<path d="M25.8575 438.236L-55.3125 391.626L25.5581 344.925L106.42 391.626L25.8575 438.236Z" fill="#F5F5F5" stroke="#171717" stroke-linejoin="round"/>
<path d="M-14.5944 461.762L-95.7644 415.161L-14.8938 368.46L65.9768 415.161L-14.5944 461.762Z" fill="#F5F5F5" stroke="#171717" stroke-linejoin="round"/>
<path d="M335.975 274.702L317.034 263.73L369.606 232.685L388.763 244.298" fill="#F5F5F5"/>
<path d="M335.975 274.702L317.034 263.73L369.606 232.685L388.763 244.298" stroke="#171717" stroke-linejoin="round"/>
<path d="M269.967 122.635L293.874 136.443L317.789 122.635" fill="#171717"/>
<path d="M269.967 122.635L293.874 136.443L317.789 122.635" stroke="#171717" stroke-linejoin="round"/>
<path d="M269.967 113.422L293.874 127.231L317.789 113.422L293.874 99.6216L269.967 113.422Z" fill="#171717" stroke="#171717" stroke-linejoin="round"/>
<path d="M269.967 113.422V122.631" stroke="#171717" stroke-linejoin="round"/>
<path d="M293.874 173.264L317.789 159.455" stroke="#171717" stroke-linejoin="round"/>
<path d="M213.005 219.952L279.102 181.786" stroke="#171717" stroke-linejoin="round"/>
<path d="M389.52 118.034L293.876 173.261L198.232 118.034L292.171 61.8245L389.52 118.034Z" fill="#171717" stroke="#171717" stroke-linejoin="round"/>
<path d="M212.954 237.018V149.248L227.727 157.592V173.264V228.284L212.954 237.018Z" fill="#171717" stroke="#171717" stroke-linejoin="round"/>
<path d="M198.231 118.035V228.482" stroke="#171717" stroke-linejoin="round"/>
<path d="M293.874 127.231L317.789 113.422V122.631L293.874 136.44V127.231Z" fill="#171717" stroke="#171717" stroke-linejoin="round"/>
<path d="M388.113 214.481L374.164 206.004L661.095 38.8904L675.869 47.392L388.113 214.481Z" fill="#F5F5F5" stroke="#171717" stroke-linejoin="round"/>
<path d="M389.519 228.476L675.993 394.508" stroke="#171717" stroke-linejoin="round"/>
<path d="M691.266 80.3641L540.43 167.556L389.594 254.748L389.595 211.626L691.266 37.2673V80.3641Z" fill="#F5F5F5" stroke="#171717" stroke-linejoin="round"/>
<path d="M580.349 449.741L675.993 394.513" stroke="#171717" stroke-linejoin="round"/>
<path d="M675.993 394.513V449.741L580.349 504.96" stroke="#171717" stroke-miterlimit="10"/>
<path d="M-88.6912 394.638V449.782L6.95273 504.96" stroke="#171717" stroke-miterlimit="10"/>
<path d="M279.101 181.786L213.004 143.62V219.952L279.101 181.786Z" fill="#171717" stroke="#171717" stroke-linejoin="round"/>
<path d="M374.746 235.791V143.62" stroke="#171717" stroke-linejoin="round"/>
<path d="M230.225 227.597L-74.741 402.646V387.041L213.031 219.985L213.006 143.62L230.241 153.594L230.225 227.597Z" fill="#F5F5F5" stroke="#171717" stroke-linejoin="round"/>
<path d="M-74.7414 387.041L-88.6912 378.565L198.232 211.451L213.006 219.953L-74.7414 387.041Z" fill="#F5F5F5" stroke="#171717" stroke-linejoin="round"/>
<path d="M691.191 -39.873L388.721 134.494V118.889L691.191 -56.7017V-39.873Z" fill="#F5F5F5" stroke="#171717" stroke-linejoin="round"/>
<path d="M388.72 118.889L374.77 110.412L661.693 -56.7017L676.467 -48.2L388.72 118.889Z" fill="#F5F5F5" stroke="#171717" stroke-linejoin="round"/>
<path d="M662.525 387.017L676.467 378.54L389.543 211.426L374.77 219.928L662.525 387.017Z" fill="#F5F5F5" stroke="#171717" stroke-linejoin="round"/>
<path d="M375.013 138.229V220.118L662.527 387.015L661.72 402.646L360.323 227.805L360.348 146.756" fill="#F5F5F5"/>
<path d="M375.013 138.229V220.118L662.527 387.015L661.72 402.646L360.323 227.805L360.348 146.756" stroke="#171717" stroke-linejoin="round"/>
<path d="M400.718 148.09V173.612L422.071 161.225V135.712L400.718 148.09Z" fill="#FB923C" stroke="#FB923C" stroke-linejoin="round"/>
<path d="M400.717 148.09V173.612L379.373 161.225V135.712L400.717 148.09Z" fill="#FB923C" stroke="#FB923C" stroke-linejoin="round"/>
<path d="M422.07 135.712L400.717 122.569L379.373 135.712L400.717 148.09L422.07 135.712Z" fill="#FB923C" stroke="#FB923C" stroke-linejoin="round"/>
<path d="M561.658 54.5539V80.0756L583.011 67.6891V42.1758L561.658 54.5539Z" fill="#FB923C" stroke="#FB923C" stroke-width="1.14561" stroke-linejoin="round"/>
<path d="M561.658 54.5539V80.0756L540.313 67.6891V42.1758L561.658 54.5539Z" fill="#FB923C" stroke="#FB923C" stroke-linejoin="round"/>
<path d="M583.011 42.1757L561.658 29.0322L540.313 42.1757L561.658 54.5539L583.011 42.1757Z" fill="#FB923C" stroke="#FB923C" stroke-linejoin="round"/>
<path d="M293.875 283.703V173.257L389.519 118.029V211.622L374.746 219.949V143.617L308.649 181.783V219.949V274.969L293.875 283.703Z" fill="#F5F5F5" stroke="#171717" stroke-linejoin="round"/>
<path d="M581.298 434.193L595.247 425.716L308.324 258.603L293.551 267.104L581.298 434.193Z" fill="#F5F5F5" stroke="#171717" stroke-linejoin="round"/>
<path d="M293.792 173.257V267.291L581.297 434.188L580.499 476.286L429.8 388.862L279.102 301.437L279.127 181.783L213.004 143.617V219.949L198.231 211.448V118.029L293.875 173.257" fill="#F5F5F5"/>
<path d="M293.792 173.257V267.291L581.297 434.188L580.499 476.286L429.8 388.862L279.102 301.437L279.127 181.783L213.004 143.617V219.949L198.231 211.448V118.029L293.875 173.257" stroke="#171717" stroke-linejoin="round"/>
<path d="M6.15439 434.193L-7.79541 425.716L279.128 258.603L293.901 267.104L6.15439 434.193Z" fill="#F5F5F5" stroke="#171717" stroke-linejoin="round"/>
<path d="M294.176 309.658L150.565 392.874L6.95334 476.09L6.15479 434.191L294.176 266.561V309.658Z" fill="#F5F5F5" stroke="#171717" stroke-linejoin="round"/>
<path d="M389.519 118.031L292.17 61.8215L198.231 118.031L293.875 173.258L389.519 118.031Z" fill="#F5F5F5" stroke="#171717" stroke-linejoin="round"/>
<path d="M556.568 361.296V386.817L535.224 374.431V348.917L556.568 361.296Z" fill="#93C5FD"/>
<path d="M556.569 361.296V386.817L577.914 374.431V348.917L556.569 361.296Z" fill="#93C5FD"/>
<path d="M535.224 348.917L556.568 335.774L577.913 348.917L556.568 361.296L535.224 348.917Z" fill="#93C5FD"/>
<path d="M318.514 116.828L294.582 130.712L270.642 115.98L294.582 102.096L318.514 116.828Z" fill="#F5F5F5" stroke="#171717" stroke-width="1.14561" stroke-linejoin="round"/>
<path d="M318.514 108.693V116.828L294.583 130.712V102.096L318.514 108.693Z" fill="#F5F5F5" stroke="#171717" stroke-width="1.14561" stroke-linejoin="round"/>
<path d="M294.582 102.096L270.642 107.844V115.98L294.582 130.712V102.096Z" fill="#F5F5F5" stroke="#171717" stroke-width="1.14561" stroke-linejoin="round"/>
<path d="M318.514 108.692L294.582 122.568L270.642 107.844L294.582 93.9597L318.514 108.692Z" fill="#171717" stroke="#171717" stroke-width="1.14561" stroke-linejoin="round"/>
<path d="M294.582 109.745L294.333 74.1246L263.28 55.0083V92.1261L294.582 109.745Z" fill="#F5F5F5" stroke="#171717" stroke-width="1.14561" stroke-linejoin="round"/>
<path d="M325.385 56.1156L294.333 74.1254L263.28 55.0092L294.333 36.9993L325.385 56.1156Z" fill="#F5F5F5" stroke="#171717" stroke-width="1.14561" stroke-linejoin="round"/>
<path d="M325.385 93.2341L294.583 109.747L294.333 74.1261L325.385 56.1162V93.2341Z" fill="#F5F5F5" stroke="#171717" stroke-width="1.14561" stroke-linejoin="round"/>
<path d="M479.792 102.093V127.615L501.136 115.237V89.7153L479.792 102.093Z" fill="#FB923C" stroke="#FB923C" stroke-width="1.14561" stroke-linejoin="round"/>
<path d="M479.792 102.093V127.615L458.447 115.237V89.7153L479.792 102.093Z" fill="#FB923C" stroke="#FB923C" stroke-width="1.14561" stroke-linejoin="round"/>
<path d="M501.136 89.7177L479.792 76.5825L458.447 89.7177L479.792 102.096L501.136 89.7177Z" fill="#FB923C" stroke="#FB923C" stroke-width="1.14561" stroke-linejoin="round"/>
<path d="M237.36 241.797V267.319L258.705 254.941V229.419L237.36 241.797Z" fill="#F5F5F5" stroke="#171717" stroke-width="1.1106" stroke-linejoin="round"/>
<path d="M237.359 241.797V267.319L216.006 254.941V229.419L237.359 241.797Z" fill="#F5F5F5" stroke="#171717" stroke-width="1.1106" stroke-linejoin="round"/>
<path d="M258.704 229.421L237.359 216.286L216.006 229.421L237.359 241.799L258.704 229.421Z" fill="#F5F5F5" stroke="#171717" stroke-width="1.1106" stroke-linejoin="round"/>
<path d="M156.14 289.254V314.776L177.485 302.389V276.876L156.14 289.254Z" fill="#F5F5F5" stroke="#171717" stroke-width="1.1106" stroke-linejoin="round"/>
<path d="M156.14 289.254V314.776L134.795 302.389V276.876L156.14 289.254Z" fill="#F5F5F5" stroke="#171717" stroke-width="1.1106" stroke-linejoin="round"/>
<path d="M177.485 276.876L156.14 263.732L134.795 276.876L156.14 289.254L177.485 276.876Z" fill="#F5F5F5" stroke="#171717" stroke-width="1.1106" stroke-linejoin="round"/>
<path d="M76.1277 336.509V362.03L97.4808 349.652V324.131L76.1277 336.509Z" fill="#F5F5F5" stroke="#171717" stroke-width="1.1106" stroke-linejoin="round"/>
<path d="M76.128 336.509V362.03L54.7832 349.652V324.131L76.128 336.509Z" fill="#F5F5F5" stroke="#171717" stroke-width="1.1106" stroke-linejoin="round"/>
<path d="M97.4811 324.133L76.128 310.998L54.7832 324.133L76.128 336.511L97.4811 324.133Z" fill="#F5F5F5" stroke="#171717" stroke-width="1.1106" stroke-linejoin="round"/>
<path d="M395.341 266.582V292.104L373.988 279.717V254.204L395.341 266.582Z" fill="#93C5FD"/>
<path d="M395.341 266.582V292.104L416.686 279.717V254.204L395.341 266.582Z" fill="#93C5FD"/>
<path d="M373.988 254.204L395.341 241.06L416.686 254.204L395.341 266.582L373.988 254.204Z" fill="#93C5FD"/>
<path d="M476.554 314.038V339.551L455.209 327.173V301.66L476.554 314.038Z" fill="#93C5FD"/>
<path d="M476.554 314.038V339.551L497.899 327.173V301.66L476.554 314.038Z" fill="#93C5FD"/>
<path d="M455.209 301.66L476.554 288.516L497.899 301.66L476.554 314.038L455.209 301.66Z" fill="#93C5FD"/>
</g>
</g>
<rect x="1" y="1" width="591" height="424" rx="35.5" stroke="#171717"/>
<defs>
<clipPath id="clip0_91_1611">
<rect x="0.5" y="0.5" width="592" height="425" rx="36" fill="white"/>
</clipPath>
<clipPath id="clip1_91_1611">
<rect width="1118.81" height="702.095" fill="white" transform="translate(-95.8047 -57.4861)"/>
</clipPath>
</defs>
</svg>
