<svg width="106" height="24" viewBox="0 0 106 24" fill="none" xmlns="http://www.w3.org/2000/svg">
<path d="M11.8592 12.9659H13.4274L14.2157 13.9801L14.9913 14.8835L16.4529 16.7159H14.7314L13.7257 15.4801L13.21 14.7472L11.8592 12.9659ZM16.5851 11.6364C16.5851 12.5881 16.4047 13.3977 16.0439 14.0653C15.6859 14.733 15.1973 15.2429 14.5779 15.5952C13.9615 15.9446 13.2683 16.1193 12.4984 16.1193C11.7228 16.1193 11.0268 15.9432 10.4103 15.5909C9.79386 15.2386 9.30664 14.7287 8.94869 14.0611C8.59073 13.3935 8.41175 12.5852 8.41175 11.6364C8.41175 10.6847 8.59073 9.875 8.94869 9.20739C9.30664 8.53977 9.79386 8.03125 10.4103 7.68182C11.0268 7.32955 11.7228 7.15341 12.4984 7.15341C13.2683 7.15341 13.9615 7.32955 14.5779 7.68182C15.1973 8.03125 15.6859 8.53977 16.0439 9.20739C16.4047 9.875 16.5851 10.6847 16.5851 11.6364ZM14.7143 11.6364C14.7143 11.0199 14.622 10.5 14.4373 10.0767C14.2555 9.65341 13.9984 9.33239 13.666 9.11364C13.3336 8.89489 12.9444 8.78551 12.4984 8.78551C12.0524 8.78551 11.6632 8.89489 11.3308 9.11364C10.9984 9.33239 10.7399 9.65341 10.5552 10.0767C10.3734 10.5 10.2825 11.0199 10.2825 11.6364C10.2825 12.2528 10.3734 12.7727 10.5552 13.196C10.7399 13.6193 10.9984 13.9403 11.3308 14.1591C11.6632 14.3778 12.0524 14.4872 12.4984 14.4872C12.9444 14.4872 13.3336 14.3778 13.666 14.1591C13.9984 13.9403 14.2555 13.6193 14.4373 13.196C14.622 12.7727 14.7143 12.2528 14.7143 11.6364ZM22.1152 13.2131V9.45455H23.9306V16H22.1877V14.8111H22.1195C21.9718 15.1946 21.726 15.5028 21.3823 15.7358C21.0414 15.9687 20.6252 16.0852 20.1337 16.0852C19.6962 16.0852 19.3113 15.9858 18.9789 15.7869C18.6465 15.5881 18.3865 15.3054 18.199 14.9389C18.0144 14.5724 17.9206 14.1335 17.9178 13.6222V9.45455H19.7331V13.2983C19.736 13.6847 19.8397 13.9901 20.0442 14.2145C20.2488 14.4389 20.5229 14.5511 20.8667 14.5511C21.0854 14.5511 21.29 14.5014 21.4803 14.402C21.6706 14.2997 21.824 14.1491 21.9405 13.9503C22.0598 13.7514 22.1181 13.5057 22.1152 13.2131ZM27.2491 16.1236C26.8315 16.1236 26.4593 16.0511 26.1326 15.9062C25.8059 15.7585 25.5474 15.5412 25.3571 15.2543C25.1696 14.9645 25.0758 14.6037 25.0758 14.1719C25.0758 13.8082 25.1426 13.5028 25.2761 13.2557C25.4096 13.0085 25.5914 12.8097 25.8216 12.6591C26.0517 12.5085 26.313 12.3949 26.6056 12.3182C26.9011 12.2415 27.2108 12.1875 27.5346 12.1562C27.9153 12.1165 28.2221 12.0795 28.4551 12.0455C28.688 12.0085 28.8571 11.9545 28.9622 11.8835C29.0673 11.8125 29.1199 11.7074 29.1199 11.5682V11.5426C29.1199 11.2727 29.0346 11.0639 28.8642 10.9162C28.6966 10.7685 28.4579 10.6946 28.1483 10.6946C27.8216 10.6946 27.5616 10.767 27.3684 10.9119C27.1752 11.054 27.0474 11.233 26.9849 11.4489L25.3059 11.3125C25.3912 10.9148 25.5588 10.571 25.8088 10.2812C26.0588 9.98864 26.3812 9.7642 26.7761 9.60795C27.1738 9.44886 27.6341 9.36932 28.1568 9.36932C28.5204 9.36932 28.8684 9.41193 29.2008 9.49716C29.536 9.58239 29.8329 9.71449 30.0914 9.89347C30.3528 10.0724 30.5588 10.3026 30.7093 10.5838C30.8599 10.8622 30.9352 11.196 30.9352 11.5852V16H29.2136V15.0923H29.1625C29.0574 15.2969 28.9167 15.4773 28.7406 15.6335C28.5645 15.7869 28.3528 15.9077 28.1056 15.9957C27.8585 16.081 27.573 16.1236 27.2491 16.1236ZM27.769 14.8707C28.036 14.8707 28.2718 14.8182 28.4764 14.7131C28.6809 14.6051 28.8414 14.4602 28.9579 14.2784C29.0744 14.0966 29.1326 13.8906 29.1326 13.6605V12.9659C29.0758 13.0028 28.9977 13.0369 28.8983 13.0682C28.8017 13.0966 28.6923 13.1236 28.5701 13.1491C28.448 13.1719 28.3258 13.1932 28.2037 13.2131C28.0815 13.2301 27.9707 13.2457 27.8713 13.2599C27.6582 13.2912 27.4721 13.3409 27.313 13.4091C27.1539 13.4773 27.0304 13.5696 26.9423 13.6861C26.8542 13.7997 26.8102 13.9418 26.8102 14.1122C26.8102 14.3594 26.8997 14.5483 27.0787 14.679C27.2605 14.8068 27.4906 14.8707 27.769 14.8707ZM34.1589 12.2159V16H32.3436V9.45455H34.0737V10.6094H34.1504C34.2953 10.2287 34.5382 9.92756 34.8791 9.70597C35.22 9.48153 35.6333 9.36932 36.1191 9.36932C36.5737 9.36932 36.97 9.46875 37.3081 9.66761C37.6461 9.86648 37.9089 10.1506 38.0964 10.5199C38.2839 10.8864 38.3777 11.3239 38.3777 11.8324V16H36.5623V12.1562C36.5652 11.7557 36.4629 11.4432 36.2555 11.2188C36.0481 10.9915 35.7626 10.8778 35.399 10.8778C35.1547 10.8778 34.9387 10.9304 34.7512 11.0355C34.5666 11.1406 34.4217 11.294 34.3166 11.4957C34.2143 11.6946 34.1618 11.9347 34.1589 12.2159ZM43.29 9.45455V10.8182H39.3482V9.45455H43.29ZM40.2431 7.88636H42.0584V13.9886C42.0584 14.1562 42.084 14.2869 42.1351 14.3807C42.1863 14.4716 42.2573 14.5355 42.3482 14.5724C42.4419 14.6094 42.5499 14.6278 42.6721 14.6278C42.7573 14.6278 42.8425 14.6207 42.9277 14.6065C43.013 14.5895 43.0783 14.5767 43.1238 14.5682L43.4093 15.919C43.3184 15.9474 43.1905 15.9801 43.0257 16.017C42.861 16.0568 42.6607 16.081 42.4249 16.0895C41.9874 16.1065 41.6039 16.0483 41.2743 15.9148C40.9476 15.7812 40.6934 15.5739 40.5115 15.2926C40.3297 15.0114 40.2402 14.6562 40.2431 14.2273V7.88636ZM48.6699 13.2131V9.45455H50.4853V16H48.7424V14.8111H48.6742C48.5265 15.1946 48.2807 15.5028 47.937 15.7358C47.5961 15.9687 47.1799 16.0852 46.6884 16.0852C46.2509 16.0852 45.8659 15.9858 45.5336 15.7869C45.2012 15.5881 44.9412 15.3054 44.7537 14.9389C44.5691 14.5724 44.4753 14.1335 44.4725 13.6222V9.45455H46.2878V13.2983C46.2907 13.6847 46.3944 13.9901 46.5989 14.2145C46.8034 14.4389 47.0776 14.5511 47.4213 14.5511C47.6401 14.5511 47.8446 14.5014 48.035 14.402C48.2253 14.2997 48.3787 14.1491 48.4952 13.9503C48.6145 13.7514 48.6728 13.5057 48.6699 13.2131ZM51.9373 16V9.45455H53.6674V10.6094H53.7441C53.8805 10.2259 54.1078 9.9233 54.426 9.7017C54.7441 9.48011 55.1248 9.36932 55.568 9.36932C56.0169 9.36932 56.399 9.48153 56.7143 9.70597C57.0297 9.92756 57.2399 10.2287 57.345 10.6094H57.4132C57.5467 10.2344 57.7882 9.93466 58.1376 9.71023C58.4899 9.48295 58.9061 9.36932 59.3862 9.36932C59.997 9.36932 60.4927 9.56392 60.8734 9.95312C61.2569 10.3395 61.4487 10.8878 61.4487 11.598V16H59.6376V11.956C59.6376 11.5923 59.541 11.3196 59.3478 11.1378C59.1547 10.956 58.9132 10.8651 58.6234 10.8651C58.2939 10.8651 58.0368 10.9702 57.8521 11.1804C57.6674 11.3878 57.5751 11.6619 57.5751 12.0028V16H55.8152V11.9176C55.8152 11.5966 55.7228 11.3409 55.5382 11.1506C55.3564 10.9602 55.1163 10.8651 54.818 10.8651C54.6163 10.8651 54.4345 10.9162 54.2725 11.0185C54.1135 11.1179 53.987 11.2585 53.8933 11.4403C53.7995 11.6193 53.7527 11.8295 53.7527 12.071V16H51.9373ZM64.1738 16L62.3926 9.45455H64.2292L65.2434 13.8523H65.3031L66.3599 9.45455H68.1625L69.2363 13.8267H69.2917L70.2889 9.45455H72.1213L70.3443 16H68.4224L67.2974 11.8835H67.2164L66.0914 16H64.1738ZM75.883 16.1278C75.2211 16.1278 74.6486 15.9872 74.1657 15.706C73.6855 15.4219 73.3148 15.027 73.0534 14.5213C72.7921 14.0128 72.6614 13.4233 72.6614 12.7528C72.6614 12.0767 72.7921 11.4858 73.0534 10.9801C73.3148 10.4716 73.6855 10.0767 74.1657 9.79545C74.6486 9.51136 75.2211 9.36932 75.883 9.36932C76.5449 9.36932 77.1159 9.51136 77.5961 9.79545C78.079 10.0767 78.4512 10.4716 78.7125 10.9801C78.9739 11.4858 79.1046 12.0767 79.1046 12.7528C79.1046 13.4233 78.9739 14.0128 78.7125 14.5213C78.4512 15.027 78.079 15.4219 77.5961 15.706C77.1159 15.9872 76.5449 16.1278 75.883 16.1278ZM75.8915 14.7216C76.1926 14.7216 76.4441 14.6364 76.6458 14.4659C76.8475 14.2926 76.9995 14.0568 77.1017 13.7585C77.2069 13.4602 77.2594 13.1207 77.2594 12.7401C77.2594 12.3594 77.2069 12.0199 77.1017 11.7216C76.9995 11.4233 76.8475 11.1875 76.6458 11.0142C76.4441 10.8409 76.1926 10.7543 75.8915 10.7543C75.5875 10.7543 75.3319 10.8409 75.1245 11.0142C74.9199 11.1875 74.7651 11.4233 74.66 11.7216C74.5577 12.0199 74.5066 12.3594 74.5066 12.7401C74.5066 13.1207 74.5577 13.4602 74.66 13.7585C74.7651 14.0568 74.9199 14.2926 75.1245 14.4659C75.3319 14.6364 75.5875 14.7216 75.8915 14.7216ZM80.285 16V9.45455H82.0449V10.5966H82.1131C82.2324 10.1903 82.4327 9.88352 82.714 9.67614C82.9952 9.46591 83.3191 9.3608 83.6855 9.3608C83.7765 9.3608 83.8745 9.36648 83.9796 9.37784C84.0847 9.3892 84.177 9.40483 84.2566 9.42472V11.0355C84.1713 11.0099 84.0534 10.9872 83.9029 10.9673C83.7523 10.9474 83.6145 10.9375 83.4895 10.9375C83.2225 10.9375 82.9838 10.9957 82.7736 11.1122C82.5662 11.2259 82.4015 11.3849 82.2793 11.5895C82.16 11.794 82.1003 12.0298 82.1003 12.2969V16H80.285ZM86.84 14.1165L86.8443 11.9389H87.1085L89.2051 9.45455H91.2889L88.4721 12.7443H88.0417L86.84 14.1165ZM85.1951 16V7.27273H87.0105V16H85.1951ZM89.286 16L87.3599 13.1491L88.5701 11.8665L91.4125 16H89.286ZM97.6255 11.321L95.9636 11.4233C95.9352 11.2812 95.8741 11.1534 95.7804 11.0398C95.6866 10.9233 95.563 10.831 95.4096 10.7628C95.2591 10.6918 95.0787 10.6562 94.8684 10.6562C94.5872 10.6562 94.35 10.7159 94.1568 10.8352C93.9636 10.9517 93.867 11.108 93.867 11.304C93.867 11.4602 93.9295 11.5923 94.0545 11.7003C94.1795 11.8082 94.394 11.8949 94.698 11.9602L95.8826 12.1989C96.519 12.3295 96.9934 12.5398 97.3059 12.8295C97.6184 13.1193 97.7747 13.5 97.7747 13.9716C97.7747 14.4006 97.6483 14.777 97.3954 15.1009C97.1454 15.4247 96.8017 15.6776 96.3642 15.8594C95.9295 16.0384 95.4281 16.1278 94.8599 16.1278C93.9934 16.1278 93.3031 15.9474 92.7889 15.5866C92.2775 15.223 91.9778 14.7287 91.8897 14.1037L93.6752 14.0099C93.7292 14.2741 93.8599 14.4759 94.0673 14.6151C94.2747 14.7514 94.5403 14.8196 94.8642 14.8196C95.1824 14.8196 95.438 14.7585 95.6312 14.6364C95.8272 14.5114 95.9267 14.3509 95.9295 14.1548C95.9267 13.9901 95.8571 13.8551 95.7207 13.75C95.5843 13.642 95.3741 13.5597 95.09 13.5028L93.9565 13.277C93.3173 13.1491 92.8414 12.9276 92.5289 12.6122C92.2193 12.2969 92.0645 11.8949 92.0645 11.4062C92.0645 10.9858 92.1781 10.6236 92.4054 10.3196C92.6355 10.0156 92.9579 9.78125 93.3727 9.61648C93.7903 9.4517 94.2789 9.36932 94.8386 9.36932C95.6653 9.36932 96.3159 9.54403 96.7903 9.89347C97.2676 10.2429 97.546 10.7187 97.6255 11.321Z" fill="black"/>
</svg>
