<svg width="56" height="56" viewBox="0 0 56 56" fill="none" xmlns="http://www.w3.org/2000/svg">
<g clip-path="url(#clip0_1946_344469)">
<path fill-rule="evenodd" clip-rule="evenodd" d="M17.0508 7.93366C17.8178 7.72999 18.6257 8.06784 19.0194 8.75679L28.6434 25.5987L48.1182 14.2384C48.6595 13.9227 49.3282 13.9204 49.8716 14.2325C50.415 14.5446 50.75 15.1234 50.75 15.75V40.25C50.75 40.8725 50.4194 41.448 49.8818 41.7617L28.8818 54.0117C28.3369 54.3295 27.6631 54.3295 27.1182 54.0117L6.11823 41.7617C5.58059 41.448 5.25 40.8725 5.25 40.25V15.75C5.25 15.1234 5.58503 14.5446 6.12839 14.2325C6.67176 13.9204 7.34052 13.9227 7.88177 14.2384L15.75 18.8282V9.62504C15.75 8.83153 16.2839 8.13733 17.0508 7.93366ZM15.75 22.8802L8.75 18.7969V39.2449L22.9901 47.5516L15.9994 35.9004C15.8362 35.6284 15.75 35.3172 15.75 35V22.8802ZM29.75 49.4532V29.0052L47.25 18.7969V39.2449L29.75 49.4532ZM26.25 29.0052L19.25 24.9219V34.5153L26.25 46.182V29.0052Z" fill="black"/>
</g>
<defs>
<clipPath id="clip0_1946_344469">
<rect width="56" height="56" fill="white"/>
</clipPath>
</defs>
</svg>
