<svg width="106" height="24" viewBox="0 0 106 24" fill="none" xmlns="http://www.w3.org/2000/svg">
<g clip-path="url(#clip0_156_9)">
<path d="M7.08313 17.7171C7.59172 18.6031 8.74836 19.0707 10.4054 19.0707C11.1519 19.0707 11.9722 18.964 12.8335 18.7835C13.662 21.3101 14.9827 22.9343 16.5003 22.9343C18.0179 22.9343 19.3386 21.3183 20.1671 18.7835C21.0284 18.964 21.8488 19.0707 22.5952 19.0707C24.2605 19.0707 25.4089 18.6031 25.9175 17.7171C26.582 16.5687 25.9913 14.641 23.9816 12.5C25.9913 10.3589 26.582 8.4312 25.9175 7.28276C25.4007 6.39683 24.2523 5.92925 22.5952 5.92925C21.8488 5.92925 21.0284 6.03589 20.1671 6.21636C19.3386 3.68159 18.0179 2.05737 16.5003 2.05737C14.9827 2.05737 13.662 3.67339 12.8335 6.20815C11.9722 6.02769 11.1519 5.92104 10.4054 5.92104C8.74016 5.92104 7.59172 6.38862 7.08313 7.27456C6.41867 8.423 7.0093 10.3589 9.01906 12.4917C7.0093 14.641 6.41867 16.5687 7.08313 17.7171ZM16.5003 22.2863C15.3027 22.2863 14.2034 20.8507 13.4816 18.6441C14.4577 18.398 15.4831 18.0453 16.5003 17.6023C17.5175 18.0453 18.5429 18.398 19.5191 18.6441C18.7972 20.8507 17.698 22.2863 16.5003 22.2863ZM12.5874 12.5C12.5874 11.7371 12.6284 10.9988 12.7023 10.2851C13.2847 9.87495 13.8999 9.4812 14.548 9.10386C15.1878 8.73472 15.8441 8.39839 16.5085 8.10308C17.1648 8.39839 17.821 8.73472 18.4691 9.10386C19.1171 9.4812 19.7323 9.87495 20.3148 10.2851C20.3804 10.9988 20.4214 11.7371 20.4214 12.5C20.4214 13.2546 20.3804 14.0011 20.3148 14.7148C19.7323 15.125 19.1171 15.5187 18.4691 15.8878C17.8292 16.257 17.173 16.5933 16.5085 16.8886C15.8523 16.5933 15.1878 16.257 14.548 15.8878C13.8999 15.5105 13.2847 15.1167 12.7023 14.7148C12.6284 14.0011 12.5874 13.2628 12.5874 12.5ZM11.9968 14.2144C11.2503 13.6484 10.5695 13.0742 9.98703 12.5C10.5777 11.9257 11.2503 11.3515 11.9968 10.7855C11.9558 11.3433 11.9312 11.9093 11.9312 12.5C11.9312 13.0824 11.9558 13.6566 11.9968 14.2144ZM12.7925 9.42378C12.9155 8.54605 13.0796 7.72573 13.2929 6.97104C14.0722 7.16792 14.8843 7.43862 15.6964 7.76675C15.196 8.00464 14.7038 8.25894 14.2116 8.54605C13.7113 8.83315 13.2437 9.12847 12.7925 9.42378ZM17.3042 7.76675C18.1163 7.43862 18.9284 7.16792 19.7077 6.97104C19.9128 7.71753 20.0851 8.54605 20.2081 9.42378C19.757 9.12847 19.2894 8.83315 18.789 8.54605C18.2968 8.26714 17.8046 8.01284 17.3042 7.76675ZM21.0038 10.7855C21.7503 11.3515 22.4312 11.9257 23.0136 12.5C22.423 13.0742 21.7503 13.6484 21.0038 14.2144C21.0448 13.6566 21.0695 13.0906 21.0695 12.5C21.0695 11.9175 21.0448 11.3433 21.0038 10.7855ZM20.2081 15.5761C20.0851 16.4539 19.921 17.2742 19.7077 18.0289C18.9284 17.832 18.1163 17.5613 17.3042 17.2332C17.8046 16.9953 18.2968 16.741 18.789 16.4621C19.2894 16.1667 19.757 15.8714 20.2081 15.5761ZM14.2198 16.4539C14.7038 16.7328 15.2042 16.9871 15.7046 17.225C14.8925 17.5531 14.0804 17.8238 13.3011 18.0207C13.0878 17.2742 12.9238 16.4457 12.8007 15.5679C13.2437 15.8714 13.7113 16.1667 14.2198 16.4539ZM25.3515 17.3972C24.9659 18.0617 23.9898 18.4308 22.5952 18.4308C21.9062 18.4308 21.1515 18.3324 20.3558 18.1765C20.6101 17.2496 20.807 16.216 20.93 15.1085C21.939 14.4031 22.7921 13.6976 23.5058 13.0003C25.1464 14.7394 25.9339 16.3964 25.3515 17.3972ZM22.5952 6.57729C23.9898 6.57729 24.9741 6.94644 25.3515 7.61089C25.9257 8.61167 25.1464 10.2687 23.4976 12.016C22.7839 11.3269 21.939 10.6132 20.9218 9.90776C20.7987 8.80034 20.6101 7.76675 20.3476 6.83979C21.1433 6.66753 21.9062 6.57729 22.5952 6.57729ZM16.5003 2.71362C17.698 2.71362 18.7972 4.14917 19.5191 6.35581C18.5347 6.6019 17.5175 6.95464 16.5003 7.39761C15.4831 6.95464 14.4577 6.6019 13.4816 6.35581C14.2034 4.14917 15.3027 2.71362 16.5003 2.71362ZM7.64914 7.60269C8.03469 6.93823 9.01086 6.56909 10.4136 6.56909C11.1027 6.56909 11.8573 6.66753 12.653 6.82339C12.3988 7.75034 12.2019 8.78394 12.0788 9.89136C11.0698 10.6132 10.2167 11.3187 9.50305 12.0078C7.85422 10.2605 7.07492 8.60347 7.64914 7.60269ZM9.50305 12.9839C10.2167 13.673 11.0616 14.3867 12.0788 15.0921C12.2019 16.1996 12.3905 17.2332 12.653 18.1601C11.8573 18.3242 11.1027 18.4144 10.4136 18.4144C9.01906 18.4144 8.03469 18.0453 7.64914 17.3808C7.07492 16.3964 7.85422 14.7394 9.50305 12.9839Z" fill="black"/>
<path d="M16.5006 14.1324C17.4029 14.1324 18.133 13.4023 18.133 12.5C18.133 11.5976 17.4029 10.8676 16.5006 10.8676C15.5982 10.8676 14.8682 11.5976 14.8682 12.5C14.8682 13.4023 15.5982 14.1324 16.5006 14.1324ZM16.5006 11.5238C17.042 11.5238 17.4768 11.9668 17.4768 12.5C17.4768 13.0414 17.0338 13.4761 16.5006 13.4761C15.9592 13.4761 15.5244 13.0332 15.5244 12.5C15.5244 11.9586 15.9592 11.5238 16.5006 11.5238Z" fill="black"/>
</g>
<path d="M33.8538 13.7273H34.8197L35.6294 14.7926L35.8424 15.0767L37.0498 16.6818H36.0839L35.2884 15.6165L35.0896 15.3466L33.8538 13.7273ZM37.3481 12.3636C37.3481 13.1307 37.2096 13.7936 36.9326 14.3523C36.6556 14.911 36.2757 15.3419 35.7927 15.6449C35.3097 15.9479 34.7581 16.0994 34.1379 16.0994C33.5176 16.0994 32.966 15.9479 32.483 15.6449C32.0001 15.3419 31.6201 14.911 31.3431 14.3523C31.0661 13.7936 30.9276 13.1307 30.9276 12.3636C30.9276 11.5966 31.0661 10.9337 31.3431 10.375C31.6201 9.81629 32.0001 9.38542 32.483 9.08239C32.966 8.77936 33.5176 8.62784 34.1379 8.62784C34.7581 8.62784 35.3097 8.77936 35.7927 9.08239C36.2757 9.38542 36.6556 9.81629 36.9326 10.375C37.2096 10.9337 37.3481 11.5966 37.3481 12.3636ZM36.4958 12.3636C36.4958 11.7339 36.3905 11.2024 36.1798 10.7692C35.9714 10.3359 35.6885 10.008 35.3311 9.78551C34.9759 9.56297 34.5782 9.4517 34.1379 9.4517C33.6975 9.4517 33.2986 9.56297 32.9411 9.78551C32.586 10.008 32.3031 10.3359 32.0924 10.7692C31.8841 11.2024 31.7799 11.7339 31.7799 12.3636C31.7799 12.9934 31.8841 13.5249 32.0924 13.9581C32.3031 14.3913 32.586 14.7192 32.9411 14.9418C33.2986 15.1643 33.6975 15.2756 34.1379 15.2756C34.5782 15.2756 34.9759 15.1643 35.3311 14.9418C35.6885 14.7192 35.9714 14.3913 36.1798 13.9581C36.3905 13.5249 36.4958 12.9934 36.4958 12.3636ZM42.1528 13.7699V10.5455H42.9909V16H42.1528V15.0767H42.096C41.9681 15.3537 41.7693 15.5893 41.4994 15.7834C41.2295 15.9751 40.8886 16.071 40.4767 16.071C40.1357 16.071 39.8327 15.9964 39.5676 15.8473C39.3024 15.6958 39.0941 15.4685 38.9426 15.1655C38.791 14.8601 38.7153 14.4754 38.7153 14.0114V10.5455H39.5534V13.9545C39.5534 14.3523 39.6646 14.6695 39.8872 14.9062C40.1121 15.143 40.3985 15.2614 40.7465 15.2614C40.9549 15.2614 41.1668 15.2081 41.3822 15.1016C41.6 14.995 41.7823 14.8317 41.9291 14.6115C42.0782 14.3913 42.1528 14.1108 42.1528 13.7699ZM46.1309 16.1278C45.7853 16.1278 45.4716 16.0627 45.1899 15.9325C44.9082 15.8 44.6845 15.6094 44.5187 15.3608C44.353 15.1098 44.2702 14.8068 44.2702 14.4517C44.2702 14.1392 44.3317 13.8859 44.4548 13.6918C44.5779 13.4953 44.7425 13.3414 44.9484 13.2301C45.1544 13.1188 45.3817 13.036 45.6302 12.9815C45.8812 12.9247 46.1333 12.8797 46.3866 12.8466C46.7181 12.804 46.9868 12.772 47.1927 12.7507C47.4011 12.727 47.5526 12.688 47.6473 12.6335C47.7443 12.5791 47.7929 12.4844 47.7929 12.3494V12.321C47.7929 11.9706 47.697 11.6984 47.5052 11.5043C47.3158 11.3101 47.0282 11.2131 46.6423 11.2131C46.2422 11.2131 45.9285 11.3007 45.7013 11.4759C45.474 11.651 45.3142 11.8381 45.2219 12.0369L44.4264 11.7528C44.5684 11.4214 44.7578 11.1634 44.9946 10.9787C45.2337 10.7917 45.4941 10.6615 45.7758 10.5881C46.0599 10.5123 46.3393 10.4744 46.6139 10.4744C46.7891 10.4744 46.9903 10.4957 47.2176 10.5384C47.4472 10.5786 47.6686 10.6626 47.8817 10.7905C48.0971 10.9183 48.2758 11.1113 48.4179 11.3693C48.5599 11.6274 48.6309 11.973 48.6309 12.4062V16H47.7929V15.2614H47.7503C47.6934 15.3797 47.5988 15.5064 47.4662 15.6413C47.3336 15.7763 47.1572 15.8911 46.9371 15.9858C46.7169 16.0805 46.4482 16.1278 46.1309 16.1278ZM46.2588 15.375C46.5902 15.375 46.8696 15.3099 47.0969 15.1797C47.3265 15.0495 47.4993 14.8814 47.6153 14.6754C47.7337 14.4695 47.7929 14.2528 47.7929 14.0256V13.2585C47.7574 13.3011 47.6792 13.3402 47.5585 13.3757C47.4401 13.4089 47.3028 13.4384 47.1466 13.4645C46.9927 13.4882 46.8424 13.5095 46.6956 13.5284C46.5512 13.545 46.434 13.5592 46.344 13.571C46.1262 13.5994 45.9226 13.6456 45.7332 13.7095C45.5462 13.7711 45.3947 13.8646 45.2787 13.9901C45.165 14.1132 45.1082 14.2812 45.1082 14.4943C45.1082 14.7855 45.2159 15.0057 45.4314 15.1548C45.6492 15.3016 45.925 15.375 46.2588 15.375ZM50.9987 12.7188V16H50.1606V10.5455H50.9703V11.3977H51.0413C51.1691 11.1207 51.3633 10.8982 51.6237 10.7301C51.8841 10.5597 52.2203 10.4744 52.6322 10.4744C53.0015 10.4744 53.3247 10.5502 53.6017 10.7017C53.8786 10.8509 54.0941 11.0781 54.248 11.3835C54.4018 11.6866 54.4788 12.0701 54.4788 12.5341V16H53.6407V12.5909C53.6407 12.1624 53.5294 11.8286 53.3069 11.5895C53.0844 11.348 52.779 11.2273 52.3907 11.2273C52.1232 11.2273 51.8841 11.2853 51.6734 11.4013C51.4651 11.5173 51.3005 11.6866 51.1798 11.9091C51.059 12.1316 50.9987 12.4015 50.9987 12.7188ZM58.3824 10.5455V11.2557H55.5557V10.5455H58.3824ZM56.3795 9.23864H57.2176V14.4375C57.2176 14.6742 57.2519 14.8518 57.3206 14.9702C57.3916 15.0862 57.4816 15.1643 57.5905 15.2045C57.7017 15.2424 57.8189 15.2614 57.942 15.2614C58.0344 15.2614 58.1101 15.2566 58.1693 15.2472C58.2285 15.2353 58.2758 15.2259 58.3113 15.2188L58.4818 15.9716C58.425 15.9929 58.3457 16.0142 58.2439 16.0355C58.1421 16.0592 58.0131 16.071 57.8568 16.071C57.6201 16.071 57.3881 16.0201 57.1608 15.9183C56.9359 15.8165 56.7488 15.6615 56.5997 15.4531C56.4529 15.2448 56.3795 14.982 56.3795 14.6648V9.23864ZM63.0805 13.7699V10.5455H63.9186V16H63.0805V15.0767H63.0237C62.8959 15.3537 62.697 15.5893 62.4271 15.7834C62.1572 15.9751 61.8163 16.071 61.4044 16.071C61.0635 16.071 60.7604 15.9964 60.4953 15.8473C60.2301 15.6958 60.0218 15.4685 59.8703 15.1655C59.7188 14.8601 59.643 14.4754 59.643 14.0114V10.5455H60.4811V13.9545C60.4811 14.3523 60.5924 14.6695 60.8149 14.9062C61.0398 15.143 61.3263 15.2614 61.6743 15.2614C61.8826 15.2614 62.0945 15.2081 62.3099 15.1016C62.5277 14.995 62.71 14.8317 62.8568 14.6115C63.0059 14.3913 63.0805 14.1108 63.0805 13.7699ZM65.4536 16V10.5455H66.2632V11.3977H66.3343C66.4479 11.1065 66.6314 10.8804 66.8847 10.7195C67.138 10.5561 67.4422 10.4744 67.7973 10.4744C68.1572 10.4744 68.4566 10.5561 68.6958 10.7195C68.9372 10.8804 69.1254 11.1065 69.2604 11.3977H69.3172C69.4569 11.116 69.6664 10.8923 69.9458 10.7266C70.2251 10.5585 70.5601 10.4744 70.9507 10.4744C71.4384 10.4744 71.8373 10.6271 72.1475 10.9325C72.4576 11.2356 72.6127 11.7079 72.6127 12.3494V16H71.7746V12.3494C71.7746 11.947 71.6645 11.6593 71.4443 11.4865C71.2242 11.3137 70.9649 11.2273 70.6666 11.2273C70.2831 11.2273 69.986 11.3433 69.7753 11.5753C69.5646 11.8049 69.4593 12.0961 69.4593 12.4489V16H68.607V12.2642C68.607 11.9541 68.5064 11.7043 68.3051 11.5149C68.1039 11.3232 67.8447 11.2273 67.5274 11.2273C67.3096 11.2273 67.106 11.2853 66.9166 11.4013C66.7296 11.5173 66.5781 11.6783 66.4621 11.8842C66.3485 12.0878 66.2916 12.3234 66.2916 12.5909V16H65.4536ZM75.3808 16L73.7188 10.5455H74.5995L75.7785 14.7216H75.8353L77.0001 10.5455H77.895L79.0455 14.7074H79.1024L80.2813 10.5455H81.162L79.5001 16H78.6762L77.483 11.8097H77.3978L76.2046 16H75.3808ZM84.3003 16.1136C83.8079 16.1136 83.3759 15.9964 83.0042 15.7621C82.6349 15.5277 82.346 15.1998 82.1377 14.7784C81.9317 14.357 81.8287 13.8646 81.8287 13.3011C81.8287 12.733 81.9317 12.237 82.1377 11.8132C82.346 11.3894 82.6349 11.0604 83.0042 10.826C83.3759 10.5916 83.8079 10.4744 84.3003 10.4744C84.7928 10.4744 85.2236 10.5916 85.593 10.826C85.9646 11.0604 86.2535 11.3894 86.4594 11.8132C86.6678 12.237 86.7719 12.733 86.7719 13.3011C86.7719 13.8646 86.6678 14.357 86.4594 14.7784C86.2535 15.1998 85.9646 15.5277 85.593 15.7621C85.2236 15.9964 84.7928 16.1136 84.3003 16.1136ZM84.3003 15.3608C84.6744 15.3608 84.9822 15.2649 85.2236 15.0732C85.4651 14.8814 85.6439 14.6293 85.7599 14.3168C85.8759 14.0043 85.9339 13.6657 85.9339 13.3011C85.9339 12.9366 85.8759 12.5968 85.7599 12.282C85.6439 11.9671 85.4651 11.7126 85.2236 11.5185C84.9822 11.3243 84.6744 11.2273 84.3003 11.2273C83.9263 11.2273 83.6185 11.3243 83.377 11.5185C83.1356 11.7126 82.9568 11.9671 82.8408 12.282C82.7248 12.5968 82.6668 12.9366 82.6668 13.3011C82.6668 13.6657 82.7248 14.0043 82.8408 14.3168C82.9568 14.6293 83.1356 14.8814 83.377 15.0732C83.6185 15.2649 83.9263 15.3608 84.3003 15.3608ZM88.0512 16V10.5455H88.8609V11.3693H88.9177C89.0171 11.0994 89.1971 10.8804 89.4575 10.7124C89.7179 10.5443 90.0115 10.4602 90.3382 10.4602C90.3997 10.4602 90.4767 10.4614 90.569 10.4638C90.6613 10.4661 90.7311 10.4697 90.7785 10.4744V11.3267C90.7501 11.3196 90.685 11.3089 90.5832 11.2947C90.4838 11.2782 90.3784 11.2699 90.2671 11.2699C90.002 11.2699 89.7652 11.3255 89.5569 11.4368C89.3509 11.5457 89.1876 11.6972 89.0669 11.8913C88.9485 12.0831 88.8893 12.3021 88.8893 12.5483V16H88.0512ZM92.5532 14.0114L92.539 12.9744H92.7094L95.0958 10.5455H96.1327L93.5901 13.1165H93.5191L92.5532 14.0114ZM91.7719 16V8.72727H92.61V16H91.7719ZM95.2378 16L93.1072 13.3011L93.7037 12.7188L96.3032 16H95.2378ZM101.075 11.767L100.322 11.9801C100.275 11.8546 100.205 11.7327 100.113 11.6143C100.023 11.4936 99.8996 11.3942 99.7433 11.3161C99.5871 11.2379 99.387 11.1989 99.1432 11.1989C98.8094 11.1989 98.5312 11.2758 98.3087 11.4297C98.0885 11.5812 97.9784 11.7741 97.9784 12.0085C97.9784 12.2169 98.0542 12.3814 98.2057 12.5021C98.3572 12.6229 98.594 12.7235 98.9159 12.804L99.7256 13.0028C100.213 13.1212 100.577 13.3023 100.816 13.5462C101.055 13.7876 101.174 14.099 101.174 14.4801C101.174 14.7926 101.084 15.072 100.905 15.3182C100.727 15.5644 100.478 15.7585 100.159 15.9006C99.8392 16.0426 99.4675 16.1136 99.0438 16.1136C98.4874 16.1136 98.027 15.9929 97.6624 15.7514C97.2978 15.5099 97.067 15.1572 96.9699 14.6932L97.7654 14.4943C97.8411 14.7879 97.9843 15.008 98.195 15.1548C98.4081 15.3016 98.6863 15.375 99.0296 15.375C99.4202 15.375 99.7303 15.2921 99.96 15.1264C100.192 14.9583 100.308 14.7571 100.308 14.5227C100.308 14.3333 100.242 14.1747 100.109 14.0469C99.9765 13.9167 99.7729 13.8196 99.4983 13.7557L98.5892 13.5426C98.0897 13.4242 97.7227 13.2408 97.4884 12.9922C97.2564 12.7412 97.1404 12.4276 97.1404 12.0511C97.1404 11.7434 97.2268 11.4711 97.3996 11.2344C97.5748 10.9976 97.8127 10.8118 98.1134 10.6768C98.4164 10.5419 98.7597 10.4744 99.1432 10.4744C99.683 10.4744 100.107 10.5928 100.415 10.8295C100.725 11.0663 100.945 11.3788 101.075 11.767Z" fill="black"/>
<defs>
<clipPath id="clip0_156_9">
<rect width="21" height="21" fill="white" transform="translate(6 2)"/>
</clipPath>
</defs>
</svg>
