<svg width="61" height="72" viewBox="0 0 61 72" fill="none" xmlns="http://www.w3.org/2000/svg">
<path d="M18 24.9122L43.5 9.4375" stroke="#2876D4" stroke-linecap="round" stroke-dasharray="1 2"/>
<path d="M8 18.4122L33 3.4375" stroke="#2876D4" stroke-linecap="round" stroke-dasharray="1 2"/>
<path d="M33.8015 34.9791L10.7979 48.6109" stroke="#2876D4" stroke-linejoin="round"/>
<path d="M35.0007 65.9376L60 50.7408" stroke="#2876D4" stroke-linecap="round" stroke-dasharray="1 2"/>
<path d="M1 22.6253V54.5748L27.1986 70.3365M1 22.6253L10.7978 28.8022M1 22.6253L6.7509 19.2174M27.1986 70.3365V58.1957M27.1986 70.3365L33.8014 66.5026M27.1986 58.1957L10.7978 48.6109V28.8022M27.1986 58.1957L33.8014 54.5748M10.7978 28.8022L17 25.4376" stroke="#2876D4" stroke-linejoin="round"/>
<path d="M35.0007 53.9376L60 39.0261L43.5993 29.0153" stroke="#2876D4" stroke-linecap="round" stroke-dasharray="1 2"/>
<path d="M60 18.7914V54.7878L33.8015 70.5495M60 18.7914L30.3935 1.32568L3.55597 17.3004M60 18.7914L33.8015 34.9791M33.8015 70.5495V34.9791M33.8015 70.5495L30.3935 68.4195M33.8015 34.9791L3.55597 17.3004M3.55597 17.3004V20.7084" stroke="#2876D4" stroke-linejoin="round"/>
<path d="M44 28.8257V9.32568" stroke="#2876D4" stroke-linecap="round" stroke-dasharray="1 2"/>
</svg>
