<svg width="17" height="16" viewBox="0 0 17 16" fill="none" xmlns="http://www.w3.org/2000/svg">
<path fill-rule="evenodd" clip-rule="evenodd" d="M4.77764 2.17971C5.92878 1.41054 7.28216 1 8.66663 1C10.5231 1 12.3036 1.7375 13.6164 3.05025C14.9291 4.36301 15.6666 6.14348 15.6666 8C15.6666 9.38447 15.2561 10.7378 14.4869 11.889C13.7177 13.0401 12.6245 13.9373 11.3454 14.4672C10.0663 14.997 8.65886 15.1356 7.301 14.8655C5.94313 14.5954 4.69585 13.9287 3.71688 12.9497C2.73791 11.9708 2.07123 10.7235 1.80113 9.36563C1.53104 8.00776 1.66966 6.6003 2.19947 5.32122C2.72929 4.04213 3.62649 2.94888 4.77764 2.17971ZM8.15101 10.3111L7.66663 10.7955L5.16663 8.2955L5.16668 8.29545L5.16663 8.2954L5.96193 7.5L5.96203 7.5001L5.96213 7.5L7.66663 9.2045L11.3716 5.5L11.3938 5.52203L12.1691 6.2925L12.1691 6.29255L12.1695 6.29295L8.15101 10.3111Z" fill="black"/>
</svg>
