<svg width="16" height="16" viewBox="0 0 16 16" fill="none" xmlns="http://www.w3.org/2000/svg">
<path fill-rule="evenodd" clip-rule="evenodd" d="M11.99 8.28284C12.2951 8.0995 12.644 8.00179 13 7.99999C13.4396 7.99871 13.8673 8.14272 14.2166 8.40963C14.5659 8.67653 14.8172 9.05138 14.9315 9.47587C15.0458 9.90036 15.0166 10.3507 14.8485 10.7569C14.6803 11.1631 14.3827 11.5023 14.0019 11.7219C13.621 11.9415 13.1783 12.0291 12.7426 11.971C12.3068 11.913 11.9024 11.7126 11.5923 11.401C11.2822 11.0895 11.0837 10.6841 11.0278 10.2481C10.9718 9.81208 11.0615 9.36978 11.2829 8.98999L9.85362 7.56059L8.70712 8.70709C8.64514 8.76744 8.57551 8.8194 8.50002 8.86164V11.063C9.36263 11.285 10 12.0681 10 13C10 14.1046 9.10459 15 8.00002 15C6.89545 15 6.00002 14.1046 6.00002 13C6.00002 12.0681 6.6374 11.285 7.50002 11.063V8.86164C7.42452 8.81943 7.3549 8.76751 7.29292 8.70719L6.14642 7.56069L4.71717 8.98999C4.96845 9.41355 5.05646 9.91428 4.96468 10.3981C4.87289 10.882 4.60762 11.3157 4.21869 11.6179C3.82975 11.92 3.34389 12.0697 2.85236 12.039C2.36082 12.0082 1.89742 11.7991 1.54918 11.4508C1.20093 11.1026 0.991795 10.6392 0.96104 10.1476C0.930285 9.65611 1.08003 9.17026 1.38215 8.78132C1.68427 8.39238 2.11799 8.12711 2.60185 8.03533C3.08572 7.94354 3.58645 8.03155 4.01002 8.28284L5.43952 6.85359L4.29302 5.70709C4.10548 5.51955 4.00013 5.2652 4.00013 4.99999C4.00013 4.73477 4.10548 4.48042 4.29302 4.29289L7.29302 1.29289C7.48055 1.10535 7.7349 1 8.00012 1C8.26533 1 8.51968 1.10535 8.70722 1.29289L11.7072 4.29289C11.8947 4.48042 12.0001 4.73477 12.0001 4.99999C12.0001 5.2652 11.8947 5.51955 11.7072 5.70709L10.5607 6.85359L11.99 8.28284ZM3.83149 10.5556C3.94137 10.3911 4.00002 10.1978 4.00002 9.99999C3.99971 9.73486 3.89426 9.48069 3.70679 9.29322C3.51932 9.10575 3.26514 9.00029 3.00002 8.99999C2.80224 8.99999 2.6089 9.05864 2.44445 9.16852C2.28 9.2784 2.15182 9.43458 2.07614 9.6173C2.00045 9.80003 1.98065 10.0011 2.01923 10.1951C2.05782 10.3891 2.15306 10.5672 2.29291 10.7071C2.43276 10.8469 2.61094 10.9422 2.80493 10.9808C2.99891 11.0194 3.19997 10.9996 3.3827 10.9239C3.56543 10.8482 3.7216 10.72 3.83149 10.5556ZM5.00002 4.99999L8.00002 7.99999L11 4.99999L8.00002 1.99999L5.00002 4.99999ZM12.4444 10.8315C12.6089 10.9413 12.8022 11 13 11C13.2651 10.9997 13.5193 10.8942 13.7068 10.7068C13.8943 10.5193 13.9997 10.2651 14 9.99999C14 9.80221 13.9414 9.60886 13.8315 9.44442C13.7216 9.27997 13.5654 9.15179 13.3827 9.07611C13.2 9.00042 12.9989 8.98062 12.8049 9.0192C12.6109 9.05779 12.4328 9.15303 12.2929 9.29288C12.1531 9.43273 12.0578 9.61092 12.0192 9.8049C11.9806 9.99888 12.0004 10.1999 12.0761 10.3827C12.1518 10.5654 12.28 10.7216 12.4444 10.8315ZM9.00002 13C9.00002 13.5523 8.5523 14 8.00002 14C7.44773 14 7.00002 13.5523 7.00002 13C7.00002 12.4477 7.44773 12 8.00002 12C8.5523 12 9.00002 12.4477 9.00002 13Z" fill="#F68C00"/>
</svg>
