<svg width="16" height="16" viewBox="0 0 16 16" fill="none" xmlns="http://www.w3.org/2000/svg">
<path fill-rule="evenodd" clip-rule="evenodd" d="M8.42626 2.5C5.89068 2.5 3.68856 3.94714 1.93504 7.04159C1.7989 7.28184 1.49377 7.36623 1.25352 7.23009C1.01327 7.09395 0.928873 6.78883 1.06502 6.54858C2.93445 3.24958 5.42085 1.5 8.42626 1.5C9.16306 1.5 9.78266 1.71692 10.2183 2.15259C10.653 2.58725 10.8443 3.17945 10.8443 3.81148C10.8443 4.53782 10.5178 5.101 10.091 5.55084C9.68354 5.98031 9.15261 6.339 8.6771 6.66024L8.65291 6.67659C8.14887 7.01716 7.70531 7.31958 7.38043 7.66201C7.06796 7.99137 6.90167 8.32061 6.90167 8.71312C6.90167 8.97311 6.99585 9.24901 7.18382 9.45487C7.3628 9.6509 7.65186 9.81148 8.10658 9.81148C8.66845 9.81148 9.05562 9.62387 9.47884 9.39302C9.51059 9.3757 9.54299 9.35782 9.57607 9.33956C9.96934 9.12247 10.4585 8.85246 11.0902 8.85246C11.5571 8.85246 11.9747 8.98672 12.2834 9.25433C12.5962 9.52536 12.7623 9.90458 12.7623 10.3115C12.7623 10.8959 12.5301 11.2468 12.3223 11.4893C12.2706 11.5497 12.2355 11.588 12.2087 11.6175C12.1802 11.6487 12.1608 11.6699 12.1404 11.6966C12.1447 11.7035 12.1499 11.7113 12.156 11.7199C12.2051 11.7899 12.2879 11.8813 12.4085 11.9908C12.6487 12.2087 12.9821 12.448 13.3334 12.6757C13.6813 12.9012 14.0312 13.1054 14.2954 13.2537C14.4271 13.3277 14.5367 13.3874 14.613 13.4284C14.6511 13.4488 14.6809 13.4646 14.7009 13.4752L14.7234 13.487L14.7288 13.4898L14.73 13.4905C14.73 13.4905 14.73 13.4905 14.73 13.4905C14.9751 13.6176 15.071 13.9195 14.9439 14.1646C14.8168 14.4097 14.515 14.5054 14.2699 14.3783L14.5 13.9344C14.2699 14.3783 14.2699 14.3783 14.2699 14.3783L14.2671 14.3768L14.2602 14.3732L14.2345 14.3598C14.2124 14.3481 14.1804 14.3311 14.1398 14.3094C14.0588 14.2658 13.9436 14.2031 13.8056 14.1256C13.5303 13.971 13.161 13.7556 12.7896 13.5149C12.4216 13.2764 12.0358 13.0029 11.7365 12.7313C11.5875 12.5961 11.4455 12.4485 11.3372 12.2941C11.2357 12.1493 11.123 11.9414 11.123 11.6967C11.123 11.4496 11.2207 11.2621 11.3171 11.1282C11.3731 11.0505 11.459 10.9548 11.5167 10.8907C11.5361 10.8691 11.5522 10.8511 11.563 10.8385C11.6748 10.7081 11.7623 10.5796 11.7623 10.3115C11.7623 10.1856 11.7154 10.0853 11.6285 10.01C11.5377 9.93131 11.3691 9.85246 11.0902 9.85246C10.7239 9.85246 10.4491 10.0025 10.0105 10.2421C9.99315 10.2516 9.97556 10.2612 9.95769 10.2709C9.50181 10.5196 8.92997 10.8115 8.10658 10.8115C7.38918 10.8115 6.82578 10.5458 6.44533 10.1291C6.07387 9.7223 5.90167 9.19902 5.90167 8.71312C5.90167 7.98677 6.22819 7.42359 6.65497 6.97375C7.06241 6.54428 7.59335 6.18559 8.06886 5.86434L8.09305 5.848C8.59709 5.50743 9.04065 5.20501 9.36552 4.86258C9.67799 4.53322 9.84429 4.20398 9.84429 3.81148C9.84429 3.37793 9.71591 3.06439 9.51123 2.8597C9.30756 2.65603 8.96814 2.5 8.42626 2.5Z" fill="#FBBF24"/>
</svg>
