<svg width="57" height="56" viewBox="0 0 57 56" fill="none" xmlns="http://www.w3.org/2000/svg">
<path fill-rule="evenodd" clip-rule="evenodd" d="M29.5383 1.9825C30.0816 2.29459 30.4167 2.87339 30.4167 3.5V15.75C30.4167 16.7165 29.6332 17.5 28.6667 17.5C27.7002 17.5 26.9167 16.7165 26.9167 15.75V6.54681L9.41667 16.7551V37.2032L17.2849 32.6134C18.1197 32.1264 19.1913 32.4084 19.6783 33.2432C20.1653 34.0781 19.8833 35.1496 19.0484 35.6366L8.54845 41.7616C8.00719 42.0773 7.33843 42.0796 6.79507 41.7675C6.2517 41.4554 5.91667 40.8766 5.91667 40.25V15.75C5.91667 15.1276 6.24727 14.552 6.7849 14.2384L27.7849 1.98839C28.3262 1.67265 28.9949 1.67041 29.5383 1.9825Z" fill="#171717"/>
<path fill-rule="evenodd" clip-rule="evenodd" d="M40.0383 8.1075C40.5816 8.41959 40.9167 8.99839 40.9167 9.625V34.125C40.9167 35.0915 40.1332 35.875 39.1667 35.875C38.2002 35.875 37.4167 35.0915 37.4167 34.125V12.6718L19.9167 22.8801V43.3282L27.7849 38.7384C28.6197 38.2514 29.6913 38.5334 30.1783 39.3682C30.6653 40.2031 30.3833 41.2746 29.5484 41.7616L19.0484 47.8866C18.5072 48.2023 17.8384 48.2046 17.2951 47.8925C16.7517 47.5804 16.4167 47.0016 16.4167 46.375V21.875C16.4167 21.2526 16.7473 20.677 17.2849 20.3634L38.2849 8.11339C38.8262 7.79765 39.4949 7.79541 40.0383 8.1075Z" fill="#171717"/>
<path fill-rule="evenodd" clip-rule="evenodd" d="M27.7951 26.4825C28.3384 26.1704 29.0072 26.1727 29.5484 26.4884L50.5484 38.7384C51.0861 39.052 51.4167 39.6276 51.4167 40.25C51.4167 40.8724 51.0861 41.448 50.5484 41.7616L29.5484 54.0116C29.0072 54.3273 28.3384 54.3296 27.7951 54.0175C27.2517 53.7054 26.9167 53.1266 26.9167 52.5V28C26.9167 27.3734 27.2517 26.7946 27.7951 26.4825ZM30.4167 31.0468V49.4532L46.1936 40.25L30.4167 31.0468Z" fill="#171717"/>
</svg>
