<svg width="56" height="56" viewBox="0 0 56 56" fill="none" xmlns="http://www.w3.org/2000/svg">
<path fill-rule="evenodd" clip-rule="evenodd" d="M16.6182 8.11339C17.1631 7.79554 17.8369 7.79554 18.3818 8.11339L28.8818 14.2384C29.4194 14.552 29.75 15.1276 29.75 15.75V27.8699L39.3818 33.4884C39.9194 33.802 40.25 34.3776 40.25 35V46.375C40.25 46.9974 39.9194 47.573 39.3818 47.8866L28.8818 54.0116C28.3369 54.3295 27.6631 54.3295 27.1182 54.0116L6.11823 41.7616C5.58059 41.448 5.25 40.8724 5.25 40.25V15.75C5.25 15.1276 5.58059 14.552 6.11823 14.2384L16.6182 8.11339ZM8.75 18.7968V39.2449L26.25 49.4532V41.2551L16.6182 35.6366C16.0806 35.323 15.75 34.7474 15.75 34.125V22.8801L8.75 18.7968ZM29.75 49.4532L36.75 45.3699V36.0051L27.1182 30.3866C26.5806 30.073 26.25 29.4974 26.25 28.875V16.7551L17.5 11.651L10.4731 15.75L18.3818 20.3634C18.9194 20.677 19.25 21.2526 19.25 21.875V33.1199L28.8818 38.7384C29.4194 39.052 29.75 39.6276 29.75 40.25V49.4532Z" fill="#171717"/>
<path fill-rule="evenodd" clip-rule="evenodd" d="M37.6182 8.11339C38.1631 7.79554 38.8369 7.79554 39.3818 8.11339L49.8818 14.2384C50.4194 14.552 50.75 15.1276 50.75 15.75V29.75C50.75 30.4129 50.3755 31.0188 49.7826 31.3152L39.2826 36.5653C38.7401 36.8365 38.0959 36.8075 37.58 36.4886C37.064 36.1698 36.75 35.6065 36.75 35V22.8801L27.1182 17.2616C26.5806 16.948 26.25 16.3724 26.25 15.75C26.25 15.1276 26.5806 14.552 27.1182 14.2384L37.6182 8.11339ZM31.4731 15.75L39.3818 20.3634C39.9194 20.677 40.25 21.2526 40.25 21.875V32.1684L47.25 28.6684V16.7551L38.5 11.651L31.4731 15.75Z" fill="#171717"/>
</svg>
