<svg width="56" height="56" viewBox="0 0 56 56" fill="none" xmlns="http://www.w3.org/2000/svg">
<path fill-rule="evenodd" clip-rule="evenodd" d="M27.1182 1.98839C27.6631 1.67054 28.3369 1.67054 28.8818 1.98839L49.8818 14.2384C50.4194 14.552 50.75 15.1276 50.75 15.75V40.25C50.75 40.8724 50.4194 41.448 49.8818 41.7616L28.8818 54.0116C28.3369 54.3295 27.6631 54.3295 27.1182 54.0116L6.11823 41.7616C5.58059 41.448 5.25 40.8724 5.25 40.25V15.75C5.25 15.1276 5.58059 14.552 6.11823 14.2384L27.1182 1.98839ZM8.75 17.5V33.6603L17.9844 17.5H8.75ZM22.0156 17.5L16.0156 28L22.0156 38.5H33.9844L39.9844 28L33.9844 17.5H22.0156ZM31.9844 14L27.3566 5.9013L13.4731 14H31.9844ZM32.7599 8.30259L42 24.4728L46.62 16.3877L32.7599 8.30259ZM47.25 22.3397L38.0156 38.5H47.25V22.3397ZM42.5269 42H24.0156L28.6434 50.0987L42.5269 42ZM23.2401 47.6974L14 31.5272L9.37995 39.6123L23.2401 47.6974Z" fill="#171717"/>
</svg>
