<svg width="117" height="39" viewBox="0 0 117 39" fill="none" xmlns="http://www.w3.org/2000/svg">
<path d="M50.3883 20.4976C50.3883 25.9647 46.1113 29.9933 40.8626 29.9933C35.6139 29.9933 31.337 25.9647 31.337 20.4976C31.337 14.992 35.6139 11.002 40.8626 11.002C46.1113 11.002 50.3883 14.992 50.3883 20.4976ZM46.2184 20.4976C46.2184 17.0812 43.7396 14.7437 40.8626 14.7437C37.9857 14.7437 35.5068 17.0812 35.5068 20.4976C35.5068 23.8798 37.9857 26.2515 40.8626 26.2515C43.7396 26.2515 46.2184 23.8755 46.2184 20.4976Z" fill="black"/>
<path d="M70.9368 20.4976C70.9368 25.9647 66.6599 29.9933 61.4112 29.9933C56.1624 29.9933 51.8855 25.9647 51.8855 20.4976C51.8855 14.9963 56.1624 11.002 61.4112 11.002C66.6599 11.002 70.9368 14.992 70.9368 20.4976ZM66.7669 20.4976C66.7669 17.0812 64.2881 14.7437 61.4112 14.7437C58.5342 14.7437 56.0554 17.0812 56.0554 20.4976C56.0554 23.8798 58.5342 26.2515 61.4112 26.2515C64.2881 26.2515 66.7669 23.8755 66.7669 20.4976Z" fill="black"/>
<path d="M90.6296 11.5756V28.6233C90.6296 35.6359 86.494 38.5 81.6049 38.5C77.0026 38.5 74.2327 35.4218 73.1881 32.9045L76.8185 31.3932C77.465 32.9388 79.049 34.7625 81.6006 34.7625C84.7302 34.7625 86.6695 32.8317 86.6695 29.197V27.8313H86.524C85.5907 28.9829 83.7926 29.989 81.5235 29.989C76.7757 29.989 72.426 25.8534 72.426 20.5319C72.426 15.1718 76.7757 11.002 81.5235 11.002C83.7883 11.002 85.5864 12.008 86.524 13.1254H86.6695V11.5799H90.6296V11.5756ZM86.9649 20.5319C86.9649 17.1883 84.7344 14.7437 81.896 14.7437C79.0191 14.7437 76.6087 17.1883 76.6087 20.5319C76.6087 23.8412 79.0191 26.2515 81.896 26.2515C84.7344 26.2515 86.9649 23.8412 86.9649 20.5319Z" fill="black"/>
<path d="M97.16 1.58423V29.4119H93.0929V1.58423H97.16Z" fill="black"/>
<path d="M113.01 23.622L116.247 25.7798C115.202 27.3253 112.685 29.9882 108.335 29.9882C102.941 29.9882 98.912 25.8183 98.912 20.4925C98.912 14.8456 102.975 10.9968 107.868 10.9968C112.796 10.9968 115.206 14.9184 115.994 17.0376L116.426 18.1164L103.733 23.3737C104.704 25.2789 106.216 26.2507 108.335 26.2507C110.458 26.2507 111.931 25.2061 113.01 23.622ZM103.048 20.2057L111.533 16.6822C111.066 15.4964 109.662 14.6701 108.01 14.6701C105.89 14.6701 102.941 16.541 103.048 20.2057Z" fill="black"/>
<path d="M15.9418 18.0272V13.9986H29.5174C29.6501 14.7007 29.7186 15.5312 29.7186 16.4303C29.7186 19.4528 28.8924 23.1903 26.2295 25.8532C23.6393 28.5503 20.33 29.9888 15.946 29.9888C7.82035 29.9888 0.987579 23.3701 0.987579 15.2444C0.987579 7.11871 7.82035 0.5 15.946 0.5C20.4413 0.5 23.6436 2.26385 26.0496 4.56285L23.2069 7.40555C21.4816 5.78726 19.1441 4.5286 15.9418 4.5286C10.008 4.5286 5.36723 9.31068 5.36723 15.2444C5.36723 21.1781 10.008 25.9602 15.9418 25.9602C19.7906 25.9602 21.9825 24.4147 23.3867 23.0105C24.5255 21.8717 25.2747 20.2448 25.5702 18.0229L15.9418 18.0272Z" fill="black"/>
</svg>
