<svg width="48" height="48" viewBox="0 0 48 48" fill="none" xmlns="http://www.w3.org/2000/svg">
<path d="M34.28 0H13.72C6.14265 0 0 6.14265 0 13.72V34.28C0 41.8573 6.14265 48 13.72 48H34.28C41.8573 48 48 41.8573 48 34.28V13.72C48 6.14265 41.8573 0 34.28 0Z" fill="#FB923C"/>
<mask id="path-2-inside-1_4_15072" fill="white">
<path fill-rule="evenodd" clip-rule="evenodd" d="M26.2858 25.7631L34.6648 17.6001C37.3468 20.3541 39.0028 24.1251 39.0028 28.2741H27.3028C27.3028 27.2841 26.8978 26.3841 26.2498 25.7271"/>
</mask>
<path fill-rule="evenodd" clip-rule="evenodd" d="M26.2858 25.7631L34.6648 17.6001C37.3468 20.3541 39.0028 24.1251 39.0028 28.2741H27.3028C27.3028 27.2841 26.8978 26.3841 26.2498 25.7271" fill="#FB923C"/>
<path d="M34.6648 17.6001L35.3095 16.9722L34.6815 16.3273L34.0367 16.9554L34.6648 17.6001ZM39.0028 28.2741V29.1741H39.9028V28.2741H39.0028ZM27.3028 28.2741H26.4028V29.1741H27.3028V28.2741ZM26.9138 26.4077L35.2928 18.2447L34.0367 16.9554L25.6577 25.1184L26.9138 26.4077ZM34.02 18.228C36.5449 20.8208 38.1028 24.369 38.1028 28.2741H39.9028C39.9028 23.8812 38.1486 19.8874 35.3095 16.9722L34.02 18.228ZM39.0028 27.3741H27.3028V29.1741H39.0028V27.3741ZM28.2028 28.2741C28.2028 27.0336 27.6946 25.9103 26.8905 25.0951L25.609 26.3591C26.1009 26.8579 26.4028 27.5346 26.4028 28.2741H28.2028Z" fill="#FB923C" mask="url(#path-2-inside-1_4_15072)"/>
<path d="M23.9997 32.45C25.9879 32.45 27.5997 30.8382 27.5997 28.85C27.5997 26.8618 25.9879 25.25 23.9997 25.25C22.0114 25.25 20.3997 26.8618 20.3997 28.85C20.3997 30.8382 22.0114 32.45 23.9997 32.45Z" stroke="black" stroke-width="0.9" stroke-miterlimit="10"/>
<path d="M8.69995 28.85C8.69995 20.399 15.549 13.55 24 13.55C32.451 13.55 39.3 20.399 39.3 28.85" stroke="black" stroke-width="1.8" stroke-miterlimit="10"/>
<path d="M37.5087 15.6831L26.5737 26.3391" stroke="black" stroke-width="1.8" stroke-miterlimit="10"/>
<path d="M23.883 32.45C25.8712 32.45 27.483 30.8382 27.483 28.85C27.483 26.8618 25.8712 25.25 23.883 25.25C21.8947 25.25 20.283 26.8618 20.283 28.85C20.283 30.8382 21.8947 32.45 23.883 32.45Z" stroke="black" stroke-width="1.8" stroke-miterlimit="10"/>
<path d="M12.9836 18.23L15.9356 21.101" stroke="black" stroke-width="1.8" stroke-miterlimit="10"/>
<path d="M23.9998 13.55V18.05" stroke="black" stroke-width="1.8" stroke-miterlimit="10"/>
</svg>
