<svg width="284" height="152" viewBox="0 0 284 152" fill="none" xmlns="http://www.w3.org/2000/svg">
<rect width="283" height="152" transform="translate(0.333496)" fill="#F9A8D4"/>
<path fill-rule="evenodd" clip-rule="evenodd" d="M124.333 55H159.333C160.262 55 161.152 55.3687 161.808 56.0251C162.465 56.6815 162.833 57.5717 162.833 58.5V93.5C162.833 94.4283 162.465 95.3185 161.808 95.9749C161.152 96.6312 160.262 97 159.333 97H141.833V93.5H159.333V90L150.583 81.25L147.801 84.0325C147.145 84.6844 146.258 85.0503 145.333 85.0503C144.409 85.0503 143.522 84.6844 142.866 84.0325L138.333 79.5L132.061 73.2271L134.537 70.75L145.333 81.5475L148.116 78.765C148.772 78.1131 149.659 77.7472 150.583 77.7472C151.508 77.7472 152.395 78.1131 153.051 78.765L159.333 85.0475V58.5H124.333V76H120.833V58.5C120.833 57.5717 121.202 56.6815 121.859 56.0251C122.515 55.3687 123.405 55 124.333 55ZM147.083 72.5C148.122 72.5 149.137 72.1921 150 71.6152C150.864 71.0383 151.537 70.2184 151.934 69.2591C152.331 68.2998 152.435 67.2442 152.233 66.2258C152.03 65.2074 151.53 64.2719 150.796 63.5377C150.062 62.8035 149.126 62.3035 148.108 62.1009C147.089 61.8983 146.034 62.0023 145.074 62.3996C144.115 62.797 143.295 63.4699 142.718 64.3333C142.141 65.1966 141.833 66.2117 141.833 67.25C141.833 68.6424 142.387 69.9777 143.371 70.9623C144.356 71.9469 145.691 72.5 147.083 72.5ZM147.083 65.5C147.43 65.5 147.768 65.6026 148.056 65.7949C148.344 65.9872 148.568 66.2605 148.7 66.5803C148.833 66.9001 148.867 67.2519 148.8 67.5914C148.732 67.9309 148.566 68.2427 148.321 68.4874C148.076 68.7322 147.764 68.8989 147.425 68.9664C147.085 69.0339 146.734 68.9992 146.414 68.8668C146.094 68.7343 145.821 68.51 145.628 68.2223C145.436 67.9345 145.333 67.5961 145.333 67.25C145.333 66.7859 145.518 66.3408 145.846 66.0126C146.174 65.6844 146.619 65.5 147.083 65.5ZM120.833 83V86.5H128.859L117.333 98.0255L119.808 100.5L131.333 88.9745V97H134.833V83H120.833Z" fill="black" fill-opacity="0.3"/>
</svg>
