<svg width="48" height="48" viewBox="0 0 48 48" fill="none" xmlns="http://www.w3.org/2000/svg">
<path d="M34.28 0H13.72C6.14265 0 0 6.14265 0 13.72V34.28C0 41.8573 6.14265 48 13.72 48H34.28C41.8573 48 48 41.8573 48 34.28V13.72C48 6.14265 41.8573 0 34.28 0Z" fill="#FBBF24"/>
<path fill-rule="evenodd" clip-rule="evenodd" d="M10.5 11.625H37.5C38.0966 11.6256 38.6685 11.8628 39.0903 12.2847C39.5122 12.7065 39.7494 13.2784 39.75 13.875V34.125C39.7494 34.7216 39.5122 35.2935 39.0903 35.7153C38.6685 36.1372 38.0966 36.3744 37.5 36.375H10.5C9.90345 36.3744 9.3315 36.1372 8.90967 35.7153C8.48784 35.2935 8.2506 34.7216 8.25 34.125V13.875C8.2506 13.2784 8.48784 12.7065 8.90967 12.2847C9.3315 11.8628 9.90345 11.6256 10.5 11.625ZM22.875 13.875H10.5V34.125H22.875V13.875ZM25.125 13.875V34.125H37.5V13.875H25.125ZM20.625 17.25H12.75V19.5H20.625V17.25ZM35.25 17.25H27.375V19.5H35.25V17.25ZM35.25 22.875H27.375V25.125H35.25V22.875ZM27.375 28.5H35.25V30.75H27.375V28.5ZM12.75 22.875H20.625V25.125H12.75V22.875ZM20.625 28.5H12.75V30.75H20.625V28.5Z" fill="black"/>
</svg>
