<svg width="119" height="35" viewBox="0 0 119 35" fill="none" xmlns="http://www.w3.org/2000/svg">
<path fill-rule="evenodd" clip-rule="evenodd" d="M108.346 0.724365C108.7 0.808336 109.05 0.910301 109.407 0.972851C112.273 1.47496 114.82 2.65827 116.989 4.64701C117.156 4.80125 117.306 4.97433 117.496 5.17398C116.095 6.7977 114.571 8.25863 113.148 9.88064C113.037 9.77011 112.951 9.69213 112.874 9.60816C111.375 7.96901 109.527 6.99992 107.353 6.71116C106.593 6.61005 105.816 6.61862 105.063 6.82255C103.934 7.1293 103.064 7.75994 102.728 8.95439C102.412 10.0811 102.828 11.2165 103.756 11.9191C104.599 12.5557 105.55 12.9662 106.53 13.3183C108.286 13.9515 110.063 14.5299 111.794 15.2274C113.558 15.9386 115.206 16.8708 116.498 18.3446C117.69 19.701 118.459 21.245 118.712 23.0632C119.073 25.6578 118.42 27.9944 117.04 30.1494C116.194 31.4706 115.023 32.4432 113.668 33.1818C111.966 34.1106 110.146 34.6418 108.214 34.7498C107.345 34.7995 106.473 34.8689 105.605 34.8423C103.097 34.7652 100.668 34.2768 98.3993 33.1483C96.7028 32.3043 95.2307 31.1442 93.9952 29.6824C93.9575 29.637 93.9352 29.577 93.8898 29.4939C95.3378 27.9524 96.7859 26.4135 98.282 24.8224C98.4705 25.028 98.6367 25.2037 98.7961 25.3853C99.7472 26.4735 100.86 27.3346 102.17 27.9284C103.067 28.3337 103.996 28.5685 104.974 28.6962C105.922 28.8204 106.837 28.733 107.745 28.5197C108.638 28.3097 109.416 27.853 109.938 27.0673C110.959 25.5335 110.517 23.8541 109.116 22.849C108.43 22.3572 107.643 21.981 106.858 21.6649C105.59 21.1525 104.283 20.7369 102.995 20.2733C101.684 19.8021 100.395 19.2768 99.2091 18.5262C97.1158 17.2007 95.6154 15.4073 95.0705 12.9113C94.5787 10.6612 94.9163 8.51226 95.9805 6.47896C97.2923 3.97182 99.3067 2.31467 101.924 1.39356C102.688 1.12451 103.47 0.924868 104.277 0.834899C104.348 0.827187 104.413 0.762923 104.48 0.724365H108.346ZM43.7951 24.6587C43.9648 24.6887 44.0436 24.7144 44.1207 24.7144C46.0898 24.7058 48.0579 24.6964 50.0261 24.6844C50.0432 24.6844 50.063 24.6638 50.0767 24.6484C50.0887 24.6338 50.0929 24.6133 50.1246 24.5387L47.0477 16.8494H46.9252L43.7951 24.6587ZM47.9765 0.724365C48.3141 0.982276 48.5386 1.31987 48.7049 1.71402C49.6705 4.02066 50.6413 6.32472 51.619 8.62622C52.5058 10.7152 53.4055 12.7991 54.2949 14.8863C55.3146 17.2838 56.3256 19.6856 57.3479 22.0822C58.1062 23.861 58.8756 25.6355 59.6408 27.4109C60.555 29.5342 61.471 31.6566 62.3844 33.7798C62.4418 33.9127 62.4821 34.0515 62.5429 34.2254H54.0224C53.6823 33.3883 53.3335 32.534 52.9891 31.6789C52.8794 31.4064 52.7714 31.1322 52.6772 30.8546C52.5761 30.5564 52.4021 30.4201 52.0731 30.4373C51.5556 30.463 51.0346 30.445 50.5154 30.445H42.2254C42.1011 30.445 41.976 30.4536 41.8518 30.4424C41.5905 30.421 41.4431 30.517 41.3411 30.7852C40.9898 31.708 40.6102 32.6197 40.2392 33.5356C40.145 33.767 40.0439 33.9949 39.9419 34.2348H32.7787C32.8138 34.0677 32.8215 33.9264 32.8746 33.8038C34.2507 30.5975 35.6362 27.3955 37.0106 24.1883C38.6986 20.2476 40.3806 16.3036 42.0617 12.3595C43.0831 9.9629 44.0984 7.56458 45.1147 5.16541C45.5902 4.04294 46.0658 2.92047 46.531 1.79457C46.711 1.35758 46.9457 0.974565 47.3536 0.724365H47.9774H47.9765ZM0.615234 1.1168C1.21417 1.20934 1.64002 1.48525 2.01532 1.8674C3.58506 3.46971 5.15823 5.06944 6.73054 6.66918C9.41933 9.40595 12.109 12.1427 14.7986 14.8778C14.9134 14.9952 15.0385 15.1023 15.1825 15.2377C15.3376 15.0946 15.4781 14.9763 15.6066 14.8461C19.8394 10.5413 24.074 6.23561 28.3025 1.92567C28.6932 1.52809 29.1199 1.21962 29.6649 1.13051C29.6966 1.15793 29.7137 1.16993 29.7283 1.18535C29.742 1.19906 29.7626 1.21534 29.7643 1.23248C29.7746 1.31559 29.7848 1.39956 29.7848 1.48353L29.7857 34.1491C29.3358 34.282 24.2076 34.3274 23.068 34.2108V18.4663C22.5085 18.8904 22.1358 19.3565 21.7159 19.7687C21.2669 20.2082 20.8317 20.6632 20.3904 21.1113L19.112 22.4138L17.8336 23.7136C17.3914 24.1617 16.945 24.6039 16.5072 25.0563C16.0856 25.4924 15.6743 25.9388 15.2142 26.4264L7.42887 18.5142C7.37318 18.5519 7.35604 18.5588 7.34576 18.5716C7.33291 18.5871 7.32091 18.6076 7.31834 18.6273C7.31234 18.6685 7.30977 18.7113 7.30977 18.7533C7.30549 23.8721 7.30206 28.9909 7.29692 34.1089C7.29692 34.1286 7.28321 34.1466 7.2755 34.1654C6.84536 34.2785 1.55348 34.3137 0.615234 34.2057V1.1168ZM73.2226 7.12416C73.1207 7.95702 73.1455 15.4647 73.2535 15.9788C74.6244 15.9463 76.0134 16.0842 77.3852 15.8203C78.4991 15.6061 79.4416 15.0749 80.08 14.0723C80.4715 13.4563 80.6455 12.7819 80.726 12.0562C80.8391 11.0365 80.6763 10.0786 80.1794 9.2003C79.4305 7.87819 78.2026 7.32638 76.7768 7.20128C75.788 7.11559 74.7907 7.11902 73.7976 7.08903C73.6159 7.08303 73.4343 7.11131 73.2226 7.12416ZM65.487 34.1843V1.29074C65.6344 1.27789 65.7921 1.25133 65.9497 1.25133C69.4405 1.24876 72.933 1.22562 76.423 1.2599C78.1615 1.27618 79.9 1.39099 81.5855 1.88539C83.6744 2.4989 85.4481 3.61366 86.7865 5.37876C87.8387 6.76771 88.3725 8.3546 88.5233 10.1026C88.6399 11.4461 88.5062 12.7477 88.1223 14.0286C87.5422 15.96 86.3812 17.456 84.7789 18.6188C84.5973 18.7499 84.4148 18.8793 84.192 19.0378C84.5064 19.2871 84.7661 19.4945 85.0266 19.6993C86.0282 20.4876 86.7599 21.5012 87.4017 22.5971C88.2337 24.0178 88.7881 25.5584 89.3185 27.1101C90.0305 29.1957 90.7409 31.2821 91.4486 33.3686C91.5411 33.641 91.6165 33.9195 91.7168 34.2511H83.7756C83.6513 34.2511 83.5262 34.2477 83.4011 34.2511C83.2057 34.258 83.0952 34.1689 83.0498 33.9726C82.7996 32.9101 82.5631 31.8442 82.2889 30.7877C81.7328 28.6533 81.1836 26.5121 80.1528 24.5473C79.4982 23.2989 78.5479 22.4035 77.1436 22.1139C76.7194 22.0256 76.285 21.9596 75.8532 21.9451C75.0649 21.9194 74.274 21.9365 73.4848 21.9425C73.406 21.9425 73.3272 21.981 73.2792 21.9939C73.2389 22.035 73.2226 22.0479 73.2115 22.065C73.2004 22.0822 73.1926 22.1027 73.1858 22.1224C73.1789 22.1421 73.1721 22.1618 73.1704 22.1824C73.1669 22.2252 73.1644 22.2672 73.1644 22.3092C73.1609 26.243 73.1575 30.1768 73.1524 34.1106C73.1524 34.1294 73.137 34.1483 73.1292 34.1663C72.6751 34.2751 66.1579 34.2931 65.4862 34.1834" fill="#171717"/>
</svg>
