<svg width="2270" height="698" viewBox="0 0 2270 698" fill="none" xmlns="http://www.w3.org/2000/svg">
<path d="M228.652 0.00212835C154.192 0.00212835 114.477 4.9697 97.0961 4.9697C68.137 4.9697 42.489 4.13858 16.8304 4.13858C2.77033 4.13858 0.288574 4.9697 0.288574 10.7577C0.288574 20.6759 3.59438 21.5144 40.8377 21.5144C63.9944 21.5144 77.2485 28.9583 77.2485 94.2923V474.735C77.2485 487.139 75.5833 488.795 38.3528 488.795C20.1469 488.795 15.178 490.439 15.178 498.719C15.178 506.988 20.9709 507.813 29.2551 507.813C55.7261 507.813 73.932 504.509 108.68 504.509C145.085 504.509 179.843 512.77 214.597 512.77C329.614 512.77 406.57 468.949 406.57 376.316C406.57 304.365 357.737 276.239 318.849 256.378C302.3 248.111 286.576 243.977 286.576 242.329C286.576 239.854 304.782 230.75 320.512 219.996C346.996 201.805 382.574 172.844 382.574 114.129C382.574 55.4063 336.232 0 228.649 0L228.652 0.00212835ZM1646.4 0.94818C1642.08 0.94818 1614.73 13.1777 1558.59 16.7746C1546.36 17.4929 1540.6 16.7671 1540.6 25.4008C1540.6 33.3215 1547.8 34.7645 1560.76 34.7645C1593.14 34.7645 1597.46 34.7602 1597.46 80.0739V476.44C1597.46 489.389 1585.22 488.671 1555.71 488.671C1538.43 488.671 1537.72 492.999 1537.72 498.035C1537.72 503.788 1539.15 505.226 1555.71 505.226C1565.79 505.226 1603.94 503.792 1628.4 503.792C1641.37 503.792 1657.2 505.226 1667.99 505.226C1693.9 505.226 1698.93 505.225 1698.93 498.035C1698.93 492.267 1700.37 487.954 1664.39 487.954C1651.44 487.954 1646.4 480.042 1646.4 420.342C1646.4 399.47 1650 342.651 1650 68.5648C1650 46.9887 1653.59 21.0792 1653.59 12.4455C1653.59 4.53126 1649.99 0.941795 1646.4 0.941795L1646.4 0.94818ZM1048.89 1.66543C1042.41 1.66543 999.941 17.4823 948.131 17.4823C940.213 17.4823 938.774 20.363 938.774 27.5526C938.774 32.601 941.652 34.7655 971.15 34.7655C990.581 34.7655 996.344 41.24 996.344 92.3076C996.344 244.099 994.18 457.027 994.18 477.885C994.18 488.674 987.707 488.672 963.239 488.672C945.964 488.672 942.371 492.269 942.371 498.036C942.371 504.506 946.689 505.227 963.239 505.227C973.313 505.227 999.946 503.793 1024.43 503.793C1047.46 503.793 1080.55 505.227 1091.34 505.227C1107.17 505.227 1110.78 505.226 1110.78 498.036C1110.78 492.268 1107.9 488.671 1091.34 488.671C1046.73 488.671 1048.17 488.677 1048.17 454.876V409.556C1048.17 403.078 1058.24 398.036 1069.76 390.84C1081.99 382.925 1092.06 375.739 1094.94 375.739C1099.26 375.739 1129.5 421.068 1159.73 455.595C1189.95 490.12 1196.43 508.105 1209.39 508.105C1219.47 508.105 1241.05 507.388 1249.69 507.388C1256.17 507.388 1265.52 508.105 1274.16 508.105C1289.99 508.105 1295.03 506.666 1295.03 501.631C1295.03 495.878 1289.27 492.267 1272 492.267C1247.54 492.267 1224.51 457.025 1200.02 427.533C1149.65 367.102 1136.71 353.44 1136.71 346.963C1136.71 341.928 1181.32 310.285 1217.31 275.027C1239.62 253.45 1264.08 222.524 1264.08 216.039C1264.08 213.879 1261.21 213.161 1255.45 213.161C1246.82 213.161 1205.07 215.312 1195.71 215.312C1187.07 215.312 1173.41 213.161 1166.21 213.161C1156.86 213.161 1153.26 214.597 1153.26 220.363C1153.26 226.841 1156.85 228.271 1167.65 228.271C1199.31 228.271 1201.47 229.714 1201.47 241.22C1201.47 256.325 1194.99 268.556 1166.93 295.167C1143.9 316.757 1069.04 382.931 1051.04 382.931C1048.89 382.931 1048.17 380.77 1048.17 377.891C1048.17 260.639 1052.48 180.074 1052.48 70.7304C1052.48 47.7102 1053.92 17.4812 1053.92 8.13562C1053.92 3.82039 1052.48 1.66224 1048.89 1.66224V1.66543ZM203.819 19.8522C279.118 19.8522 313.874 99.2535 313.874 140.611C313.874 205.945 286.569 221.659 262.573 239.857C262.573 239.857 227.814 234.889 177.348 234.889C157.478 234.889 146.728 236.537 146.728 223.301V43.8419C146.728 27.3004 149.214 19.8564 203.818 19.8564L203.819 19.8522ZM566.686 205.963C501.196 205.963 432.817 266.395 432.817 367.824C432.817 487.956 520.626 516.742 579.636 516.742C637.933 516.742 699.109 471.406 699.109 467.815C699.109 466.372 696.949 462.057 693.349 462.057C689.037 462.057 663.129 479.329 615.631 479.329C560.926 479.329 483.91 452.71 483.91 353.436C483.91 336.894 486.078 333.297 497.602 332.578C579.635 327.544 651.607 311.727 670.319 307.397C689.762 303.08 699.837 300.207 699.837 297.326C699.837 291.573 688.313 274.305 676.07 259.925C650.165 229.709 604.112 205.969 566.681 205.969L566.686 205.963ZM1405.88 205.963C1340.39 205.963 1272.01 266.395 1272.01 367.824C1272.01 487.956 1359.81 516.742 1418.82 516.742C1477.11 516.742 1538.3 471.406 1538.3 467.815C1538.3 466.372 1536.13 462.057 1532.54 462.057C1528.22 462.057 1502.31 479.329 1454.81 479.329C1400.11 479.329 1323.11 452.71 1323.11 353.436C1323.11 336.894 1325.27 333.297 1336.78 332.578C1418.83 327.544 1490.78 311.727 1509.51 307.397C1528.94 303.08 1539.02 300.207 1539.02 297.326C1539.02 291.573 1527.51 274.305 1515.27 259.925C1489.35 229.709 1443.3 205.969 1405.87 205.969L1405.88 205.963ZM1820.99 205.963C1755.49 205.963 1687.12 266.395 1687.12 367.824C1687.12 487.956 1774.93 516.742 1833.94 516.742C1892.24 516.742 1953.42 471.406 1953.42 467.815C1953.42 466.372 1951.25 462.057 1947.66 462.057C1943.34 462.057 1917.44 479.329 1869.93 479.329C1815.24 479.329 1738.23 452.71 1738.23 353.436C1738.23 336.894 1740.39 333.297 1751.9 332.578C1833.94 327.544 1905.92 311.727 1924.63 307.397C1944.06 303.08 1954.14 300.207 1954.14 297.326C1954.14 291.573 1942.63 274.305 1930.39 259.925C1904.48 229.709 1858.42 205.969 1821 205.969L1820.99 205.963ZM817.138 210.993C805.613 210.993 791.937 214.589 780.425 214.589C766.032 214.589 752.355 213.144 727.887 213.144C715.644 213.144 716.368 215.312 716.368 223.951C716.368 231.867 716.363 231.143 729.333 231.143C769.631 231.143 768.186 232.582 768.186 281.495V478.606C768.186 488.677 766.033 489.394 736.527 489.394C719.247 489.394 718.529 490.826 718.529 498.03C718.529 505.227 719.964 505.221 736.527 505.221C746.602 505.221 771.075 501.626 795.542 501.626C818.579 501.626 866.794 505.221 876.868 505.221C895.58 505.221 896.302 505.945 896.302 498.03C896.302 491.545 895.58 489.394 876.868 489.394C823.615 489.394 821.463 489.388 821.463 454.143V305.943C821.463 275.734 837.286 258.47 879.021 258.47C915.013 258.47 923.655 287.964 933.73 287.964C938.049 287.964 949.556 256.315 949.556 249.118C949.556 230.421 916.455 214.584 903.485 214.584C869.662 214.584 835.852 251.997 825.059 251.997C822.178 251.997 821.461 246.963 821.461 240.493C821.461 238.331 822.897 222.505 822.897 218.906C822.897 213.14 820.018 210.988 817.137 210.988L817.138 210.993ZM2254.18 211.709C2244.11 211.709 2224.67 214.589 2213.88 214.589C2194.44 214.589 2181.49 213.154 2162.06 213.154C2149.1 213.154 2146.94 213.149 2146.94 222.507C2146.94 229.703 2149.82 229.71 2172.14 229.71C2196.6 229.71 2196.59 234.02 2196.59 255.597C2196.59 265.666 2170.69 340.491 2153.42 392.276C2141.91 426.098 2137.59 436.163 2132.55 436.163C2129.67 436.163 2121.03 423.936 2115.26 408.832C2072.09 298.037 2053.38 272.857 2053.38 251.999C2053.38 235.457 2057.7 231.141 2074.96 231.141C2090.08 231.141 2092.96 230.421 2092.96 223.949C2092.96 216.021 2090.08 213.151 2074.96 213.151C2051.94 213.151 2026.74 215.303 2006.59 215.303C1989.32 215.303 1984.29 213.868 1964.14 213.868C1951.19 213.868 1949.03 217.471 1949.03 223.949C1949.03 230.421 1949.75 231.141 1964.14 231.141C1977.09 231.141 1982.13 234.743 2000.13 277.896C2039.71 371.415 2097.28 504.498 2097.28 512.413C2097.28 533.989 2035.4 618.869 2009.48 651.235C1985.02 682.176 1951.19 686.491 1951.19 690.808C1951.19 694.406 1958.38 698 1970.62 698C1986.45 698 1991.48 692.247 2013.07 689.374C2028.91 687.214 2037.55 686.491 2045.47 670.669C2068.49 623.186 2100.88 564.913 2146.23 454.854C2203.08 316.751 2234.75 230.419 2250.58 230.419C2259.22 230.419 2269.29 226.82 2269.29 220.349C2269.29 212.427 2265.69 211.703 2254.18 211.703V211.709ZM559.487 221.074C592.598 221.074 635.053 274.297 635.053 292.281C635.053 296.597 634.343 298.036 626.424 299.473C572.445 308.105 533.58 317.472 496.157 317.472C487.513 317.472 487.517 316.746 487.517 313.148C487.517 303.065 504.795 221.072 559.486 221.072L559.487 221.074ZM1398.66 221.074C1431.78 221.074 1474.24 274.297 1474.24 292.281C1474.24 296.597 1473.52 298.036 1465.6 299.473C1411.62 308.105 1372.76 317.472 1335.34 317.472C1326.71 317.472 1326.7 316.746 1326.7 313.148C1326.7 303.065 1343.97 221.072 1398.66 221.072L1398.66 221.074ZM1813.78 221.074C1846.88 221.074 1889.36 274.297 1889.36 292.281C1889.36 296.597 1888.63 298.036 1880.72 299.473C1826.74 308.105 1787.88 317.472 1750.45 317.472C1741.81 317.472 1741.81 316.746 1741.81 313.148C1741.81 303.065 1759.07 221.072 1813.78 221.072L1813.78 221.074ZM176.577 250.587C266.761 250.587 327.987 308.483 327.987 382.922C327.987 454.874 281.657 497.894 218.776 497.894C192.292 497.894 165.824 492.1 156.715 482.17C149.275 473.896 146.785 427.588 146.785 420.139V272.086C146.785 253.895 153.413 250.585 176.584 250.585L176.577 250.587ZM586.888 588.212C569.888 588.212 555.707 598.463 555.707 615.451C555.707 647.736 598.263 641.98 598.263 659.95C598.263 667.107 592.784 673.285 581.691 673.285C574.244 673.285 564.838 669.783 556.966 664.45L549.949 676.807C557.813 682.274 568.482 687.48 581.692 687.48C600.09 687.48 615.399 675.67 615.399 659.39C615.399 626.673 572.842 636.512 572.842 614.744C572.842 607.588 577.62 602.399 586.89 602.399C595.174 602.399 601.63 605.208 608.796 608.852L614.837 596.776C606.7 591.728 596.998 588.213 586.89 588.213L586.888 588.212ZM926.16 588.212C897.228 588.212 884.312 608.854 884.312 637.773C884.312 665.289 897.088 687.481 926.16 687.481C955.232 687.481 968.019 665.289 968.019 637.773C968.019 608.854 955.093 588.212 926.16 588.212V588.212ZM1151.7 588.212C1122.77 588.212 1108.57 608.992 1108.57 637.919C1108.57 667.396 1121.51 687.48 1151.14 687.48C1164.06 687.48 1176.14 682.134 1185.97 673.149L1177.4 662.206C1169.54 669.368 1160.55 673.285 1151.98 673.285C1134.14 673.285 1125.7 660.521 1125.7 637.774C1125.7 615.173 1134.7 602.398 1151.7 602.398C1160.83 602.398 1167.57 605.631 1175.01 611.803L1183.72 600.569C1173.61 592.282 1163.64 588.212 1151.7 588.212H1151.7ZM1517.37 588.212C1488.43 588.212 1475.53 608.854 1475.53 637.773C1475.53 665.289 1488.3 687.481 1517.37 687.481C1546.45 687.481 1559.23 665.289 1559.23 637.773C1559.23 608.854 1546.31 588.212 1517.37 588.212V588.212ZM173.357 589.615L157.199 591.309V685.931H173.917V621.353H174.198L214.788 685.931H229.678V589.761H212.959V652.946H212.544L173.358 589.616L173.357 589.615ZM387.782 589.615V685.931H446.213L447.482 671.746H404.499V644.517H440.599V630.331H404.499V603.801H445.09V589.616L387.782 589.615ZM989.521 589.615V685.931H1006.23V644.517H1041.63V630.331H1006.23V603.801H1045.7V589.616L989.521 589.615ZM1247.92 589.615L1228.4 591.163L1194.55 685.931H1210.14L1218.14 662.756H1256.91L1264.92 685.931H1282.06L1247.92 589.615H1247.92ZM1408.56 589.615V685.931H1425.27V644.517H1460.68V630.331H1425.27V603.801H1464.75V589.616L1408.56 589.615ZM1671.74 589.615L1655.58 591.309V685.931H1672.29V621.353H1672.58L1713.16 685.931H1728.05V589.761H1711.34V652.946H1710.92L1671.74 589.616V589.615ZM1832.8 589.615L1813.27 591.163L1779.42 685.931H1795.01L1803.02 662.756H1841.78L1849.78 685.931H1866.93L1832.8 589.615H1832.8ZM62.7764 589.76V652.509C62.7764 674.133 74.7114 687.48 98.3152 687.48C121.764 687.48 133.707 674.136 133.707 652.374V589.76H116.987V653.496C116.987 665.435 111.942 673.284 98.3141 673.284C84.5479 673.284 79.4854 665.43 79.4854 653.351V589.76H62.7785H62.7764ZM253.486 589.76V685.931H270.195V589.76H253.486ZM286.622 589.76L319.767 685.931H338.159L371.452 589.76H355.013L336.621 643.53C336.621 643.53 334.797 648.999 330.02 665.427H329.177C324.539 648.999 322.72 643.385 322.72 643.385L304.317 589.76H286.622ZM469.599 589.76V685.931H486.308V647.458H494.314C500.356 647.458 503.868 653.084 506.676 658.838L520.015 685.93H538.418L520.015 651.252C518.897 649.003 517.208 646.472 514.12 644.643V644.372C526.757 639.597 532.242 629.774 532.242 618.268C532.242 601.56 521.703 589.761 500.489 589.761H469.6L469.599 589.76ZM635.302 589.76V685.931H652.011V589.76H635.302ZM671.246 589.76V604.081H696.676V685.931H713.385V603.934H737.683L738.953 589.76H671.246ZM749.89 589.76L780.23 644.788V685.931H796.938V644.787L827.288 589.76H808.875L795.255 617.144C795.255 617.144 793.569 620.644 788.798 631.319H788.383C783.32 620.644 781.489 617.144 781.489 617.144L768.711 589.76H749.893H749.89ZM1295.6 589.76V685.931H1352.48L1353.75 671.746H1312.32V589.76H1295.6ZM1370.02 589.76V685.931H1386.73V589.76H1370.02ZM1573.64 589.76V685.931H1590.36V647.458H1598.37C1604.4 647.458 1607.92 653.084 1610.73 658.838L1624.07 685.93H1642.47L1624.07 651.252C1622.95 649.003 1621.26 646.472 1618.18 644.643V644.372C1630.81 639.597 1636.3 629.774 1636.3 618.268C1636.3 601.56 1625.76 589.761 1604.54 589.761H1573.64V589.76ZM1749.05 589.76V685.931H1765.76V589.76H1749.05ZM926.136 602.397C942.713 602.397 950.716 616.856 950.716 637.773C950.716 658.69 942.58 673.284 926.136 673.284C909.568 673.284 901.423 658.684 901.423 637.626C901.423 616.709 909.568 602.397 926.136 602.397V602.397ZM1517.34 602.397C1533.91 602.397 1541.92 616.856 1541.92 637.773C1541.92 658.69 1533.77 673.284 1517.34 673.284C1500.76 673.284 1492.62 658.684 1492.62 637.626C1492.62 616.709 1500.76 602.397 1517.34 602.397V602.397ZM486.307 604.081H500.073C511.451 604.081 515.107 609.416 515.107 618.402C515.107 627.527 510.468 633.418 500.354 633.418H486.307V604.081ZM1590.36 604.081H1604.13C1615.5 604.081 1619.16 609.416 1619.16 618.402C1619.16 627.527 1614.52 633.418 1604.41 633.418H1590.36V604.081ZM1237.18 606.607H1237.46C1244.06 626.539 1245.19 629.625 1245.19 629.625L1252.63 650.826H1222.15L1229.59 629.626C1229.59 629.626 1230.72 626.54 1237.18 606.607H1237.18ZM1822.06 606.607H1822.34C1828.94 626.539 1830.08 629.625 1830.08 629.625L1837.51 650.826H1807.03L1814.48 629.626C1814.48 629.626 1815.6 626.54 1822.06 606.607H1822.06Z" fill="#00326F"/>
</svg>
