<svg width="182" height="32" viewBox="0 0 182 32" fill="none" xmlns="http://www.w3.org/2000/svg">
<g clip-path="url(#clip0_785_33831)">
<path d="M51.2505 31.1051C55.7398 31.1051 59.6688 28.8605 61.2221 24.3284C61.5236 23.4208 61.0911 22.8178 60.2292 22.8178H58.5449C57.7682 22.8178 57.2505 23.162 56.9033 23.8958C55.5663 26.5305 53.7085 27.4777 51.3785 27.4777C47.2333 27.4777 44.6871 24.5842 44.6871 19.7508C44.6871 14.9173 47.3216 12.0239 51.2902 12.0239C53.7083 12.0239 55.6943 13.0594 56.946 15.5203C57.3359 16.2543 57.8079 16.5985 58.5876 16.5985H60.2719C61.1337 16.5985 61.5663 16.0381 61.2647 15.2158C59.4525 10.294 55.3926 8.39651 51.2505 8.39651C44.9917 8.39651 40.3287 13.0168 40.3287 19.7508C40.3287 26.4848 44.7755 31.1051 51.2505 31.1051ZM164.218 17.765C164.778 14.095 167.282 11.8077 170.693 11.8077C174.104 11.8077 176.65 14.1376 176.952 17.765H164.218ZM170.866 31.1051C174.838 31.1051 178.81 29.2502 180.753 25.0624C181.227 24.0695 180.795 23.3782 179.933 23.3782H178.337C177.561 23.3782 177.086 23.7223 176.696 24.4137C175.401 26.701 173.157 27.6512 170.869 27.6512C166.941 27.6512 164.394 24.9741 164.093 20.6157H179.937C180.799 20.6157 181.363 20.1406 181.363 19.2331C181.188 12.4564 176.787 8.39955 170.699 8.39955C164.611 8.39955 159.777 12.8036 159.777 19.7538C159.777 26.704 164.483 31.1081 170.872 31.1081L170.866 31.1051ZM145.743 20.3142H147.168C148.03 20.3142 148.505 19.8391 148.636 18.9314C149.458 13.099 152.873 12.3254 156.503 12.499C157.28 12.5356 157.916 11.9386 157.916 11.1589V9.82188C157.916 8.95996 157.484 8.43914 156.622 8.39651C153.409 8.27468 150.543 9.3772 148.886 12.499C148.794 12.6696 148.539 12.6239 148.517 12.432L148.249 10.0777C148.164 9.2158 147.689 8.7833 146.824 8.7833H140.306C139.545 8.7833 138.923 9.40157 138.923 10.166V10.9C138.923 11.6615 139.542 12.2828 140.306 12.2828H142.983C143.745 12.2828 144.366 12.9011 144.366 13.6655V18.9314C144.366 19.6928 144.984 20.3142 145.749 20.3142H145.743ZM139.916 30.6756H153.427C154.289 30.6756 154.81 30.1579 154.81 29.2928V28.5588C154.81 27.6969 154.292 27.1762 153.427 27.1762H149.973C149.111 27.1762 148.59 26.6583 148.59 25.7934V23.4178C148.59 22.5558 148.073 22.035 147.208 22.035H145.74C144.878 22.035 144.357 22.5527 144.357 23.4178V25.7934C144.357 26.6553 143.839 27.1762 142.974 27.1762H139.91C139.048 27.1762 138.527 27.6939 138.527 28.5588V29.2928C138.527 30.1549 139.045 30.6756 139.91 30.6756H139.916ZM119.065 17.768C119.626 14.098 122.129 11.8107 125.541 11.8107C128.952 11.8107 131.498 14.1406 131.8 17.768H119.065ZM125.714 31.1081C129.686 31.1081 133.657 29.2534 135.6 25.0654C136.076 24.0726 135.643 23.3812 134.781 23.3812H133.185C132.409 23.3812 131.934 23.7254 131.544 24.4167C130.249 26.704 128.005 27.6542 125.717 27.6542C121.788 27.6542 119.242 24.9771 118.941 20.6189H134.784C135.646 20.6189 136.21 20.1437 136.21 19.2361C136.036 12.4594 131.635 8.40259 125.547 8.40259C119.458 8.40259 114.625 12.8066 114.625 19.7568C114.625 26.707 119.331 31.1111 125.72 31.1111L125.714 31.1081ZM75.7712 31.1081C82.2465 31.1081 86.8667 26.3172 86.8667 19.7538C86.8667 13.1904 82.2465 8.39955 75.7712 8.39955C69.2962 8.39955 64.676 13.2787 64.676 19.7538C64.676 21.2646 64.9348 22.9486 65.7113 24.8036C66.1012 25.7111 66.8352 25.8391 67.612 25.2786L68.8637 24.371C69.5124 23.8958 69.6829 23.3355 69.4667 22.5163C69.1225 21.4381 69.0342 20.4878 69.0342 19.6685C69.0342 15.1366 71.754 12.0269 75.7682 12.0269C79.7824 12.0269 82.5023 15.0909 82.5023 19.7538C82.5023 24.4167 79.8251 27.4807 75.8536 27.4807C74.4708 27.4807 73.1764 27.2219 71.623 26.0553C70.9743 25.5376 70.3712 25.4523 69.6799 25.97L68.7296 26.6614C67.9529 27.2219 67.8678 27.9984 68.5986 28.6045C70.8434 30.4167 73.4322 31.1081 75.7652 31.1081H75.7712ZM92.3458 30.6756H93.7713C94.5327 30.6756 95.154 30.0573 95.154 29.2928V18.9771C95.154 14.6188 97.4838 12.0269 101.111 12.0269C104.392 12.0269 106.292 14.1863 106.292 18.1579V29.2958C106.292 30.0573 106.91 30.6786 107.675 30.6786H109.143C109.904 30.6786 110.525 30.0603 110.525 29.2958V17.4665C110.525 11.6402 107.547 8.40259 102.497 8.40259C99.0585 8.40259 97.0271 9.8097 95.5103 11.7681C95.3945 11.9173 95.1601 11.8351 95.1601 11.6493V2.27165C95.1508 1.50719 94.5327 0.888916 93.7713 0.888916H92.3458C91.5844 0.888916 90.9631 1.50719 90.9631 2.27165V29.2928C90.9631 30.0542 91.5814 30.6756 92.3458 30.6756Z" fill="white"/>
<mask id="mask0_785_33831" style="mask-type:luminance" maskUnits="userSpaceOnUse" x="0" y="0" width="31" height="32">
<path d="M30.4398 0.888916H0.21759V31.1111H30.4398V0.888916Z" fill="white"/>
</mask>
<g mask="url(#mask0_785_33831)">
<path fill-rule="evenodd" clip-rule="evenodd" d="M10.0091 18.8834C10.8226 18.8834 12.4407 18.8388 14.6774 17.9179C17.2838 16.8448 22.4693 14.8968 26.2101 12.8958C28.8263 11.4963 29.9732 9.64541 29.9732 7.15281C29.9732 3.69338 27.1687 0.888916 23.7093 0.888916H9.21484C4.24579 0.888916 0.21759 4.91711 0.21759 9.88616C0.21759 14.8552 3.98917 18.8834 10.0091 18.8834Z" fill="white"/>
<path fill-rule="evenodd" clip-rule="evenodd" d="M12.4607 25.0791C12.4607 22.6434 13.927 20.4473 16.1767 19.5136L20.7413 17.6192C25.3584 15.703 30.4404 19.096 30.4404 24.0951C30.4404 27.968 27.3001 31.1074 23.427 31.1063L18.485 31.1051C15.1576 31.1042 12.4607 28.4066 12.4607 25.0791Z" fill="white"/>
<path d="M5.40424 20.0695C2.53978 20.0695 0.21759 22.3915 0.21759 25.256V25.9278C0.21759 28.7922 2.53969 31.1143 5.40415 31.1143C8.26862 31.1143 10.5908 28.7922 10.5908 25.9278V25.256C10.5908 22.3915 8.26871 20.0695 5.40424 20.0695Z" fill="white"/>
</g>
</g>
<defs>
<clipPath id="clip0_785_33831">
<rect width="181.333" height="32" fill="white" transform="translate(0.21759)"/>
</clipPath>
</defs>
</svg>
