<svg width="179" height="28" viewBox="0 0 179 28" fill="none" xmlns="http://www.w3.org/2000/svg">
<g clip-path="url(#clip0_2231_392772)">
<path d="M15.1193 1.81681C15.0843 2.0442 15.0668 2.28908 15.0318 2.51647C14.8919 3.30359 14.752 4.1082 14.717 4.91281C14.682 5.71742 14.647 6.53953 14.6645 7.34414C14.7345 10.0728 15.2242 12.7315 16.2212 15.2678C17.2532 17.909 18.8275 20.2004 20.8565 22.1945C23.2354 24.5208 25.9815 26.3225 29.0251 27.6343C29.0775 27.6518 29.1125 27.6868 29.165 27.7043C29.165 27.7043 29.165 27.7218 29.1825 27.7568C28.9901 27.7568 28.7977 27.7743 28.6053 27.7743C27.9581 27.7743 27.3109 27.7568 26.6637 27.7568C23.5327 27.7568 20.4017 27.7393 17.2707 27.7393C13.4576 27.7218 9.66191 27.7043 5.84875 27.6868C4.39695 27.6868 2.96264 27.6693 1.51084 27.6518C1.33593 27.6518 1.16101 27.6343 1.00359 27.5819C0.618774 27.4594 0.426367 27.1271 0.531316 26.7423C0.566299 26.5848 0.653757 26.4274 0.723723 26.27C2.07057 23.9611 3.41742 21.6347 4.76427 19.3258C7.51045 14.6206 10.2391 9.91539 12.9853 5.21017C13.5275 4.28312 14.0698 3.35606 14.612 2.4465C14.717 2.2541 14.8394 2.07918 14.9618 1.90427C14.9968 1.86928 15.0318 1.8343 15.0668 1.79932C15.0843 1.79932 15.1018 1.79932 15.1193 1.81681Z" fill="black"/>
<path d="M16.851 0.452298C21.4513 9.18058 26.0341 17.9089 30.6169 26.6372C30.5469 26.987 30.302 27.1444 29.9872 27.0395C29.9172 27.022 29.8297 26.987 29.7598 26.952C29.2525 26.7246 28.7453 26.4972 28.2555 26.2348C27.1885 25.6751 26.1215 25.1329 25.1245 24.4507C24.1625 23.786 23.2529 23.0514 22.4133 22.2293C21.4688 21.3197 20.5592 20.3752 19.7721 19.3432C18.0055 17.0518 16.8335 14.4805 16.2038 11.6644C15.6966 9.42546 15.5391 7.13407 15.6441 4.84268C15.6966 3.51332 15.8365 2.20145 16.1164 0.907078C16.1339 0.872095 16.1339 0.81962 16.1514 0.784637C16.2563 0.469789 16.4837 0.347348 16.851 0.452298Z" fill="black"/>
<path d="M92.5898 7.92104C92.7473 7.88606 92.8697 7.86857 92.9921 7.85107C93.8317 8.6207 94.6713 9.37284 95.5109 10.125C96.3505 10.8946 97.1901 11.6467 98.0472 12.4164C98.8868 13.1685 99.7089 13.9381 100.548 14.6728L100.618 14.6378V14.3754C100.618 12.3814 100.618 10.4048 100.618 8.4108C100.618 8.32335 100.618 8.2184 100.618 8.13094L103.557 8.09596V8.23589C103.557 8.23589 103.557 8.37582 103.557 8.46328C103.557 12.5388 103.557 16.6143 103.557 20.6899C103.557 20.7948 103.557 20.8998 103.557 21.0222C103.452 21.0572 103.365 21.0747 103.277 21.0922C100.723 18.7833 98.1696 16.4919 95.5634 14.1655C95.5459 14.288 95.5459 14.3754 95.5459 14.4454C95.5459 15.0576 95.5459 15.6523 95.5459 16.2645C95.5459 17.6813 95.5459 19.1156 95.5459 20.5325C95.5459 20.6199 95.5459 20.7249 95.5459 20.8123L92.6073 20.8298V20.5849C92.6073 20.0427 92.6073 19.5005 92.6073 18.9757C92.6073 15.4074 92.6073 11.8391 92.6073 8.25338C92.5898 8.14843 92.5898 8.04348 92.5898 7.92104Z" fill="black"/>
<path d="M68.644 8.21875C71.3377 8.21875 74.0139 8.21875 76.7251 8.21875C76.7251 9.12831 76.7251 10.0204 76.7251 10.9299C76.6201 10.9299 76.5327 10.9474 76.4277 10.9474C74.9235 10.9474 73.4192 10.9474 71.9149 10.9474C71.8275 10.9474 71.7225 10.9474 71.6176 10.9649C71.6176 11.7171 71.6176 12.4517 71.6176 13.2038C71.705 13.2038 71.7925 13.2213 71.8799 13.2213C73.2443 13.2213 74.6261 13.2213 75.9905 13.2213C76.0779 13.2213 76.1654 13.2213 76.2528 13.2388C76.2528 14.0959 76.2528 14.953 76.2528 15.8276C74.6961 15.8276 73.1568 15.8276 71.6351 15.8276C71.6351 15.8276 71.6176 18.3289 71.6351 18.2939C73.3142 18.2939 75.0109 18.2939 76.7251 18.2939C76.7251 19.2209 76.7251 20.0955 76.7251 20.9876L68.6615 21.0051C68.609 20.8127 68.5915 8.5336 68.644 8.21875Z" fill="black"/>
<path d="M60.3352 20.9876C59.3207 20.9876 58.3587 20.9876 57.3792 20.9876C57.3267 20.8127 57.3092 8.53363 57.3792 8.30624C57.5191 8.28875 57.6765 8.27125 57.8339 8.25376C59.0408 8.14881 60.2478 8.06136 61.4547 8.11383C62.4342 8.14881 63.3788 8.35871 64.2708 8.83098C65.4777 9.46068 66.2649 10.4052 66.5272 11.7521C66.7022 12.6966 66.6322 13.6412 66.2649 14.5332C65.8626 15.5303 65.1279 16.2299 64.1659 16.6672C63.4312 16.9995 62.6616 17.157 61.8745 17.1919C61.4547 17.2094 61.0174 17.1919 60.5976 17.1919C60.5276 17.1919 60.4577 17.1919 60.3527 17.1919C60.3352 18.4513 60.3352 19.7107 60.3352 20.9876ZM60.3527 10.965C60.3002 11.3498 60.3177 14.4108 60.3702 14.5857C60.7725 14.6382 61.1748 14.6557 61.5771 14.6207C61.8745 14.5857 62.1718 14.5332 62.4692 14.4283C63.0289 14.2359 63.3788 13.8161 63.5012 13.2389C63.5187 13.1164 63.5362 12.994 63.5537 12.8715C63.6061 11.9795 63.1164 11.2098 62.2243 10.9999C61.5946 10.8425 60.9824 10.895 60.3527 10.965Z" fill="black"/>
<path d="M42.4238 17.4887C42.7211 18.3283 43.0185 19.1504 43.3159 20.0075C43.2284 20.06 43.1584 20.1299 43.071 20.1649C42.3013 20.6372 41.4618 20.9171 40.5697 21.0745C39.1704 21.3194 37.771 21.2319 36.4242 20.7421C34.2902 19.9375 32.8909 18.4507 32.3662 16.2118C31.9988 14.6726 32.1213 13.1508 32.8034 11.699C33.6255 9.94985 35.0074 8.84788 36.8265 8.32313C38.978 7.69344 41.0594 7.93832 43.036 9.02279C43.0885 9.04029 43.1235 9.07527 43.1934 9.12774C42.8961 9.94985 42.5987 10.7894 42.2839 11.629C42.1964 11.5941 42.1264 11.5591 42.074 11.5241C41.3393 11.1568 40.5872 10.8769 39.7651 10.8069C39.0479 10.737 38.3483 10.7894 37.6661 11.0168C36.6341 11.3667 35.9344 12.0838 35.6021 13.1158C35.2872 14.0604 35.2698 15.0399 35.5671 15.9844C35.9869 17.3313 36.9314 18.0834 38.2958 18.3458C39.6601 18.6082 40.9545 18.2933 42.1614 17.6461C42.2314 17.5937 42.3188 17.5587 42.4238 17.4887Z" fill="black"/>
<path d="M168.537 9.0056C168.24 9.82771 167.943 10.6323 167.645 11.4719C167.558 11.4369 167.488 11.4019 167.418 11.367C166.683 10.9821 165.896 10.7198 165.057 10.6498C164.287 10.5798 163.517 10.6498 162.8 10.9647C161.786 11.3845 161.156 12.1541 160.876 13.1861C160.631 14.0782 160.631 14.9877 160.911 15.8798C161.313 17.1742 162.223 17.9438 163.535 18.2237C164.567 18.451 165.581 18.3461 166.561 17.9788C166.911 17.8563 167.225 17.6814 167.575 17.524C167.628 17.489 167.698 17.4715 167.75 17.4365C167.855 17.559 168.59 19.5355 168.642 19.9028C168.572 19.9553 168.502 19.9903 168.432 20.0428C167.505 20.585 166.508 20.8999 165.441 21.0223C164.252 21.1447 163.062 21.0573 161.926 20.655C160.421 20.1302 159.214 19.2032 158.41 17.8039C157.902 16.9118 157.64 15.9497 157.588 14.9177C157.535 13.8857 157.658 12.8887 158.06 11.9267C158.707 10.3699 159.809 9.25048 161.348 8.55082C162.45 8.04357 163.605 7.88614 164.794 7.90363C166.071 7.93862 167.243 8.30594 168.362 8.90065C168.415 8.91814 168.467 8.95313 168.537 9.0056Z" fill="black"/>
<path d="M169.691 19.7629C169.971 18.8708 170.234 18.0137 170.496 17.1216C170.583 17.1741 170.636 17.2091 170.688 17.2441C171.441 17.7338 172.245 18.0837 173.137 18.2586C173.575 18.346 173.994 18.3635 174.432 18.3285C174.712 18.3111 174.974 18.2236 175.201 18.0137C175.604 17.6289 175.656 16.9642 175.306 16.5094C175.149 16.2995 174.939 16.1421 174.712 16.0197C174.257 15.7748 173.784 15.5649 173.312 15.3375C172.892 15.1276 172.455 14.9352 172.053 14.7078C171.615 14.4629 171.248 14.1481 170.933 13.7458C170.479 13.186 170.251 12.5388 170.216 11.8392C170.146 10.2474 170.881 9.1105 172.28 8.41083C172.962 8.061 173.68 7.93856 174.449 7.92107C175.621 7.88609 176.741 8.14846 177.79 8.63822C177.947 8.70819 178.087 8.79565 178.245 8.88311C178 9.75768 177.755 10.6148 177.51 11.5068C177.423 11.4544 177.353 11.4194 177.283 11.3669C176.706 11.0171 176.111 10.7547 175.464 10.5798C175.044 10.4573 174.607 10.4399 174.169 10.5098C174.047 10.5273 173.907 10.5623 173.784 10.6148C173.12 10.8946 172.945 11.7517 173.452 12.2765C173.627 12.4514 173.854 12.5913 174.064 12.6963C174.502 12.9237 174.956 13.1161 175.411 13.3085C175.971 13.5533 176.531 13.8332 177.038 14.2005C177.248 14.358 177.458 14.5504 177.65 14.7428C178.105 15.215 178.367 15.7923 178.455 16.4395C178.542 17.0692 178.507 17.6988 178.315 18.3285C178.017 19.2556 177.44 19.9553 176.601 20.445C175.936 20.8298 175.219 21.0222 174.449 21.0572C172.822 21.1447 171.318 20.7074 169.901 19.9203C169.849 19.8678 169.779 19.8153 169.691 19.7629Z" fill="black"/>
<path d="M82.8819 18.5562C82.567 19.3083 82.2522 20.078 81.9373 20.8476C80.9403 20.8476 79.9608 20.8476 78.9463 20.8476C80.9578 16.5447 82.9519 12.2767 84.9459 8.00879C85.0858 8.00879 85.2083 8.00879 85.3482 8.00879C87.3422 12.2767 89.3363 16.5447 91.3303 20.8126L88.2868 20.8476C87.9544 20.1129 87.6571 19.3258 87.3247 18.5737C87.1498 18.5212 83.1967 18.5037 82.8819 18.5562ZM85.1033 13.2563C84.9984 13.5186 84.8934 13.7635 84.7885 14.0084C84.6835 14.2533 84.5786 14.4982 84.4911 14.743C84.3862 14.9879 84.2812 15.2503 84.1763 15.4952C84.0713 15.7401 83.9489 15.9849 83.8789 16.2648C84.736 16.2648 85.5406 16.2648 86.3627 16.2648C86.3277 16.0724 85.2432 13.4137 85.1033 13.2563Z" fill="black"/>
<path d="M110.815 8.00879C110.938 8.00879 111.06 8.00879 111.2 8.00879C113.194 12.2767 115.188 16.5447 117.2 20.8476C116.168 20.8476 115.171 20.8476 114.156 20.8476C113.824 20.0955 113.526 19.3258 113.177 18.5387C111.707 18.5212 110.238 18.5387 108.769 18.5387C108.436 19.3258 108.122 20.0955 107.807 20.8651C106.81 20.8651 105.848 20.8651 104.886 20.8651C104.868 20.8476 104.868 20.8476 104.868 20.8476V20.8301C106.827 16.6146 108.786 12.3992 110.745 8.1837C110.745 8.11374 110.78 8.06126 110.815 8.00879ZM110.99 13.2213C110.833 13.4662 109.748 16.0899 109.748 16.2473C109.976 16.2998 112.057 16.2823 112.232 16.2298C111.812 15.2503 111.41 14.2533 110.99 13.2213Z" fill="black"/>
<path d="M49.9442 7.729C51.9383 12.1719 53.9148 16.5447 55.9088 20.9176L53.2501 20.9526C52.9703 20.3404 52.6904 19.7107 52.393 19.046C51.6059 19.4134 50.7838 19.6233 49.9092 19.6058C49.0347 19.5883 48.2126 19.3784 47.4079 19.0111C47.0931 19.6582 46.7957 20.3229 46.4809 20.9526C45.5888 20.9526 44.7142 20.9526 43.8047 20.9526C45.8337 16.5447 47.8802 12.1719 49.9442 7.729ZM49.9092 13.5712C49.3845 14.6906 48.8772 15.7576 48.405 16.8246C49.332 17.3668 50.6089 17.4193 51.396 16.8421C50.9063 15.7751 50.4165 14.7081 49.9092 13.5712Z" fill="black"/>
<path d="M134.482 20.8474C133.485 20.8474 132.54 20.8474 131.561 20.8474C131.543 20.76 131.543 20.655 131.543 20.5676C131.543 19.0633 131.543 17.5765 131.543 16.0722C131.543 15.8623 131.491 15.6874 131.386 15.5125C129.987 13.1162 128.57 10.7023 127.17 8.30598C127.135 8.25351 127.118 8.18354 127.083 8.13107C127.24 8.07859 130.092 8.0611 130.441 8.11357C131.298 9.70531 132.156 11.332 133.013 12.9412C133.048 12.9412 133.048 12.9412 133.065 12.9412C133.065 12.9412 133.083 12.9412 133.083 12.9238C133.1 12.9063 133.1 12.9063 133.118 12.8888C133.118 12.8888 133.118 12.8713 133.135 12.8713C133.153 12.8538 133.153 12.8363 133.17 12.8188C133.992 11.2621 134.832 9.7228 135.654 8.16605C135.654 8.14856 135.671 8.14856 135.671 8.13107L135.689 8.11357C135.864 8.0611 138.732 8.0611 138.96 8.11357C138.925 8.18354 138.907 8.25351 138.872 8.30598C137.595 10.4924 136.336 12.6614 135.059 14.8478C134.919 15.1102 134.762 15.3551 134.604 15.6175C134.517 15.7574 134.499 15.8798 134.499 16.0372C134.499 17.5415 134.499 19.0283 134.499 20.5326C134.482 20.6375 134.482 20.725 134.482 20.8474Z" fill="black"/>
<path d="M150.206 8.13115C150.241 8.37604 150.241 10.58 150.189 10.7724C150.101 10.7724 150.014 10.7899 149.909 10.7899C148.842 10.7899 147.775 10.7899 146.726 10.7899C146.621 10.7899 146.516 10.8074 146.393 10.8074C146.393 10.9298 146.376 11.0348 146.376 11.1572C146.376 14.2707 146.376 17.4017 146.376 20.5152C146.376 20.6201 146.376 20.7251 146.376 20.8475C146.376 20.8475 145.711 20.865 145.396 20.865C145.081 20.865 144.766 20.865 144.452 20.865C144.137 20.865 143.804 20.865 143.455 20.865C143.437 20.4102 143.437 20.0079 143.437 19.5881C143.437 19.1683 143.437 18.766 143.437 18.3462C143.437 17.9264 143.437 17.5066 143.437 17.0868C143.437 16.667 143.437 16.2647 143.437 15.8449C143.437 15.4251 143.437 15.0053 143.437 14.5855C143.437 14.1657 143.437 13.7634 143.437 13.3436C143.437 12.9238 143.437 12.504 143.437 12.0842C143.437 11.6644 143.437 11.2621 143.437 10.8249C143.315 10.8074 143.227 10.7899 143.122 10.7899C142.055 10.7899 140.988 10.7899 139.939 10.7899C139.851 10.7899 139.746 10.7724 139.624 10.7724C139.606 9.88031 139.624 9.00573 139.606 8.14865C139.834 8.07868 149.996 8.07868 150.206 8.13115Z" fill="black"/>
<path d="M121.399 8.09617C121.399 11.472 121.399 14.8129 121.399 18.1713C121.521 18.1713 121.626 18.1888 121.731 18.1888C123.218 18.1888 124.722 18.1888 126.209 18.1888C126.296 18.1888 126.401 18.1888 126.489 18.1888C126.559 18.3812 126.559 20.6026 126.506 20.83C126.349 20.8825 118.775 20.9 118.512 20.8475L118.495 20.83L118.477 20.8125C118.477 20.7775 118.46 20.7426 118.46 20.7076C118.46 16.5446 118.46 12.3991 118.46 8.2361C118.46 8.20112 118.477 8.18363 118.477 8.11366C118.705 8.07868 118.95 8.09617 119.195 8.09617C119.439 8.09617 119.684 8.09617 119.929 8.09617C120.174 8.09617 120.402 8.09617 120.646 8.09617C120.874 8.09617 121.119 8.09617 121.399 8.09617Z" fill="black"/>
<path d="M155.105 20.8475C154.125 20.8475 153.181 20.8475 152.201 20.8475C152.201 20.7251 152.184 20.6201 152.184 20.5152C152.184 17.0868 152.184 13.6585 152.184 10.2302C152.184 9.61796 152.184 9.00575 152.184 8.39355C152.184 8.30609 152.184 8.21863 152.201 8.14867C152.393 8.0787 154.912 8.0787 155.122 8.14867C155.105 12.3641 155.105 16.5971 155.105 20.8475Z" fill="black"/>
</g>
<defs>
<clipPath id="clip0_2231_392772">
<rect width="178.029" height="27.3393" fill="white" transform="translate(0.49707 0.41748)"/>
</clipPath>
</defs>
</svg>
