<svg width="601" height="451" viewBox="0 0 601 451" fill="none" xmlns="http://www.w3.org/2000/svg">
<g clip-path="url(#clip0_3177_33564)">
<rect x="0.5" y="0.5" width="600" height="450" rx="24" fill="#F5F5F5"/>
<g clip-path="url(#clip1_3177_33564)">
<rect x="286.5" y="200.5" width="233" height="138" rx="12" fill="white"/>
<rect width="233" height="28.4209" transform="translate(286.5 200.5)" fill="#FBBF24"/>
<path fill-rule="evenodd" clip-rule="evenodd" d="M298.11 216.869L302.605 222.171L307.102 216.867C307.126 216.839 307.286 216.629 307.286 216.629L307.287 216.627C308.054 215.616 308.469 214.381 308.467 213.112C308.467 211.557 307.849 210.066 306.75 208.967C305.651 207.868 304.16 207.25 302.605 207.25C301.051 207.25 299.56 207.868 298.46 208.967C297.361 210.066 296.743 211.557 296.743 213.112C296.742 214.382 297.157 215.617 297.924 216.629C297.924 216.629 298.084 216.839 298.11 216.869ZM298.801 216.02C298.785 216 298.775 215.987 298.775 215.987C298.147 215.16 297.808 214.15 297.809 213.112C297.809 211.84 298.314 210.62 299.214 209.721C300.113 208.821 301.333 208.316 302.605 208.316C303.877 208.316 305.097 208.821 305.997 209.721C306.896 210.62 307.401 211.84 307.401 213.112C307.402 214.149 307.063 215.159 306.436 215.985C306.436 215.986 306.311 216.151 306.287 216.18L302.605 220.523L298.928 216.186C298.908 216.161 298.839 216.07 298.801 216.02ZM303.138 209.914H302.072V214.71H303.138V209.914ZM302.605 217.908C303.047 217.908 303.405 217.55 303.405 217.108C303.405 216.667 303.047 216.309 302.605 216.309C302.164 216.309 301.806 216.667 301.806 217.108C301.806 217.55 302.164 217.908 302.605 217.908Z" fill="#171717"/>
<path d="M319.961 219.71H315.705V218.422H317.035V211.226H315.705V209.938H319.961V211.226H318.617V218.422H319.961V219.71ZM324.12 219.878C322.748 219.878 321.852 219.36 321.166 218.506L322.146 217.61C322.678 218.254 323.336 218.646 324.204 218.646C325.086 218.646 325.534 218.282 325.534 217.666C325.534 217.204 325.254 216.854 324.498 216.756L323.826 216.672C322.342 216.49 321.432 215.846 321.432 214.502C321.432 213.088 322.538 212.262 324.134 212.262C325.45 212.262 326.192 212.696 326.85 213.424L325.912 214.32C325.534 213.872 324.918 213.494 324.134 213.494C323.294 213.494 322.902 213.858 322.902 214.404C322.902 214.964 323.252 215.216 324.022 215.342L324.694 215.426C326.29 215.664 327.004 216.364 327.004 217.54C327.004 218.94 325.87 219.878 324.12 219.878ZM330.956 219.878C329.584 219.878 328.688 219.36 328.002 218.506L328.982 217.61C329.514 218.254 330.172 218.646 331.04 218.646C331.922 218.646 332.37 218.282 332.37 217.666C332.37 217.204 332.09 216.854 331.334 216.756L330.662 216.672C329.178 216.49 328.268 215.846 328.268 214.502C328.268 213.088 329.374 212.262 330.97 212.262C332.286 212.262 333.028 212.696 333.686 213.424L332.748 214.32C332.37 213.872 331.754 213.494 330.97 213.494C330.13 213.494 329.738 213.858 329.738 214.404C329.738 214.964 330.088 215.216 330.858 215.342L331.53 215.426C333.126 215.664 333.84 216.364 333.84 217.54C333.84 218.94 332.706 219.878 330.956 219.878ZM339.974 219.71V218.506H339.918C339.652 219.22 339.078 219.878 337.874 219.878C336.376 219.878 335.494 218.856 335.494 217.064V212.43H337.02V216.868C337.02 217.974 337.482 218.562 338.42 218.562C339.204 218.562 339.974 218.156 339.974 217.302V212.43H341.5V219.71H339.974ZM346.541 219.878C344.469 219.878 343.195 218.394 343.195 216.07C343.195 213.746 344.469 212.262 346.541 212.262C348.683 212.262 349.775 213.872 349.775 215.888V216.462H344.777V216.7C344.777 217.82 345.463 218.618 346.695 218.618C347.591 218.618 348.193 218.198 348.613 217.526L349.509 218.408C348.963 219.29 347.899 219.878 346.541 219.878ZM346.541 213.452C345.491 213.452 344.777 214.236 344.777 215.356V215.454H348.165V215.314C348.165 214.194 347.549 213.452 346.541 213.452ZM361.591 219.71H354.913V218.394H357.657V211.086H357.545L355.277 213.508L354.311 212.64L356.803 209.938H359.211V218.394H361.591V219.71ZM366.275 219.878C363.839 219.878 362.733 218.016 362.733 214.824C362.733 211.632 363.839 209.77 366.275 209.77C368.711 209.77 369.817 211.632 369.817 214.824C369.817 218.016 368.711 219.878 366.275 219.878ZM366.275 218.534C367.633 218.534 368.137 217.386 368.137 215.678V213.97C368.137 212.262 367.633 211.114 366.275 211.114C364.917 211.114 364.413 212.262 364.413 213.97V215.678C364.413 217.386 364.917 218.534 366.275 218.534ZM376.994 219.71H375.496V217.806H370.96V216.448L374.922 209.938H376.994V216.56H378.324V217.806H376.994V219.71ZM375.398 211.38L372.304 216.56H375.496V211.38H375.398Z" fill="#171717"/>
<circle cx="311.14" cy="250" r="10.0799" fill="#FB923C"/>
<circle cx="311.14" cy="250" r="8.63994" stroke="#171717" stroke-width="0.719995" stroke-linejoin="bevel"/>
<path d="M314.74 255.76L314.404 255.088C314.169 254.618 313.688 254.32 313.161 254.32V254.32C312.337 254.32 311.555 253.954 311.027 253.321L309.32 251.272C308.676 250.5 308.551 249.419 309 248.52L309.056 248.408C309.451 247.619 310.257 247.12 311.14 247.12V247.12C312.023 247.12 312.829 247.619 313.224 248.408L313.3 248.56C313.741 249.443 313.646 250.499 313.054 251.288L312.94 251.44L312.4 252.16M307.54 255.76L307.862 255.116C308.106 254.628 308.605 254.32 309.15 254.32H310.06" stroke="#171717" stroke-width="0.719995" stroke-linejoin="bevel"/>
<path d="M331.438 242.045H329.584V241.146H331.438V242.045ZM333.019 242.045H331.166V241.146H333.019V242.045ZM334.601 242.045H332.747V241.146H334.601V242.045ZM336.182 242.045H334.328V241.146H336.182V242.045ZM337.763 242.045H335.909V241.146H337.763V242.045ZM339.344 242.045H337.491V241.146H339.344V242.045ZM340.926 242.045H339.072V241.146H340.926V242.045ZM342.507 242.045H340.653V241.146H342.507V242.045ZM344.088 242.045H342.234V241.146H344.088V242.045ZM345.669 242.045H343.816V241.146H345.669V242.045ZM347.251 242.045H345.397V241.146H347.251V242.045ZM348.832 242.045H346.978V241.146H348.832V242.045ZM350.413 242.045H348.559V241.146H350.413V242.045ZM351.994 242.045H350.141V241.146H351.994V242.045ZM353.576 242.045H351.722V241.146H353.576V242.045ZM355.157 242.045H353.303V241.146H355.157V242.045ZM356.738 242.045H354.884V241.146H356.738V242.045ZM358.319 242.045H356.466V241.146H358.319V242.045ZM359.901 242.045H358.047V241.146H359.901V242.045ZM361.482 242.045H359.628V241.146H361.482V242.045ZM363.063 242.045H361.209V241.146H363.063V242.045ZM364.645 242.045H362.791V241.146H364.645V242.045ZM366.226 242.045H364.372V241.146H366.226V242.045ZM367.807 242.045H365.953V241.146H367.807V242.045ZM369.388 242.045H367.534V241.146H369.388V242.045ZM370.97 242.045H369.116V241.146H370.97V242.045ZM372.551 242.045H370.697V241.146H372.551V242.045ZM374.132 242.045H372.278V241.146H374.132V242.045ZM375.713 242.045H373.859V241.146H375.713V242.045ZM377.295 242.045H375.441V241.146H377.295V242.045ZM378.876 242.045H377.022V241.146H378.876V242.045ZM380.457 242.045H378.603V241.146H380.457V242.045ZM382.038 242.045H380.184V241.146H382.038V242.045ZM383.62 242.045H381.766V241.146H383.62V242.045ZM385.201 242.045H383.347V241.146H385.201V242.045ZM386.782 242.045H384.928V241.146H386.782V242.045ZM388.363 242.045H386.509V241.146H388.363V242.045ZM389.945 242.045H388.091V241.146H389.945V242.045ZM391.526 242.045H389.672V241.146H391.526V242.045ZM393.107 242.045H391.253V241.146H393.107V242.045ZM394.688 242.045H392.834V241.146H394.688V242.045ZM396.27 242.045H394.416V241.146H396.27V242.045ZM397.851 242.045H395.997V241.146H397.851V242.045ZM399.432 242.045H397.578V241.146H399.432V242.045ZM401.013 242.045H399.159V241.146H401.013V242.045ZM402.595 242.045H400.741V241.146H402.595V242.045ZM404.176 242.045H402.322V241.146H404.176V242.045ZM405.757 242.045H403.903V241.146H405.757V242.045ZM407.338 242.045H405.484V241.146H407.338V242.045ZM408.92 242.045H407.066V241.146H408.92V242.045ZM410.501 242.045H408.647V241.146H410.501V242.045ZM412.082 242.045H410.228V241.146H412.082V242.045ZM413.663 242.045H411.809V241.146H413.663V242.045ZM415.245 242.045H413.391V241.146H415.245V242.045ZM416.826 242.045H414.972V241.146H416.826V242.045ZM418.407 242.045H416.553V241.146H418.407V242.045ZM419.988 242.045H418.134V241.146H419.988V242.045ZM421.57 242.045H419.716V241.146H421.57V242.045ZM423.151 242.045H421.297V241.146H423.151V242.045ZM424.732 242.045H422.878V241.146H424.732V242.045ZM426.313 242.045H424.46V241.146H426.313V242.045ZM427.895 242.045H426.041V241.146H427.895V242.045ZM429.476 242.045H427.622V241.146H429.476V242.045ZM431.057 242.045H429.203V241.146H431.057V242.045ZM432.638 242.045H430.785V241.146H432.638V242.045ZM434.22 242.045H432.366V241.146H434.22V242.045ZM435.801 242.045H433.947V241.146H435.801V242.045ZM437.382 242.045H435.528V241.146H437.382V242.045ZM438.963 242.045H437.11V241.146H438.963V242.045ZM440.545 242.045H438.691V241.146H440.545V242.045ZM442.126 242.045H440.272V241.146H442.126V242.045ZM443.707 242.045H441.853V241.146H443.707V242.045ZM445.288 242.045H443.435V241.146H445.288V242.045ZM446.87 242.045H445.016V241.146H446.87V242.045ZM448.451 242.045H446.597V241.146H448.451V242.045ZM450.032 242.045H448.178V241.146H450.032V242.045ZM451.613 242.045H449.76V241.146H451.613V242.045ZM453.195 242.045H451.341V241.146H453.195V242.045ZM454.776 242.045H452.922V241.146H454.776V242.045ZM456.357 242.045H454.503V241.146H456.357V242.045ZM457.939 242.045H456.085V241.146H457.939V242.045ZM459.52 242.045H457.666V241.146H459.52V242.045ZM461.101 242.045H459.247V241.146H461.101V242.045ZM462.682 242.045H460.828V241.146H462.682V242.045ZM464.264 242.045H462.41V241.146H464.264V242.045ZM465.845 242.045H463.991V241.146H465.845V242.045ZM467.426 242.045H465.572V241.146H467.426V242.045ZM469.007 242.045H467.153V241.146H469.007V242.045ZM470.589 242.045H468.735V241.146H470.589V242.045ZM472.17 242.045H470.316V241.146H472.17V242.045ZM473.751 242.045H471.897V241.146H473.751V242.045ZM475.332 242.045H473.478V241.146H475.332V242.045ZM476.914 242.045H475.06V241.146H476.914V242.045ZM478.495 242.045H476.641V241.146H478.495V242.045ZM480.076 242.045H478.222V241.146H480.076V242.045ZM481.657 242.045H479.803V241.146H481.657V242.045ZM331.438 251.045H329.584V250.146H331.438V251.045ZM333.019 251.045H331.166V250.146H333.019V251.045ZM334.601 251.045H332.747V250.146H334.601V251.045ZM336.182 251.045H334.328V250.146H336.182V251.045ZM337.763 251.045H335.909V250.146H337.763V251.045ZM339.344 251.045H337.491V250.146H339.344V251.045ZM340.926 251.045H339.072V250.146H340.926V251.045ZM342.507 251.045H340.653V250.146H342.507V251.045ZM344.088 251.045H342.234V250.146H344.088V251.045ZM345.669 251.045H343.816V250.146H345.669V251.045ZM347.251 251.045H345.397V250.146H347.251V251.045ZM348.832 251.045H346.978V250.146H348.832V251.045ZM350.413 251.045H348.559V250.146H350.413V251.045ZM351.994 251.045H350.141V250.146H351.994V251.045ZM353.576 251.045H351.722V250.146H353.576V251.045ZM355.157 251.045H353.303V250.146H355.157V251.045ZM356.738 251.045H354.884V250.146H356.738V251.045ZM358.319 251.045H356.466V250.146H358.319V251.045ZM359.901 251.045H358.047V250.146H359.901V251.045ZM361.482 251.045H359.628V250.146H361.482V251.045ZM363.063 251.045H361.209V250.146H363.063V251.045ZM364.645 251.045H362.791V250.146H364.645V251.045ZM366.226 251.045H364.372V250.146H366.226V251.045ZM367.807 251.045H365.953V250.146H367.807V251.045ZM369.388 251.045H367.534V250.146H369.388V251.045ZM370.97 251.045H369.116V250.146H370.97V251.045ZM372.551 251.045H370.697V250.146H372.551V251.045ZM374.132 251.045H372.278V250.146H374.132V251.045ZM375.713 251.045H373.859V250.146H375.713V251.045ZM377.295 251.045H375.441V250.146H377.295V251.045ZM378.876 251.045H377.022V250.146H378.876V251.045ZM380.457 251.045H378.603V250.146H380.457V251.045ZM382.038 251.045H380.184V250.146H382.038V251.045ZM383.62 251.045H381.766V250.146H383.62V251.045ZM385.201 251.045H383.347V250.146H385.201V251.045ZM386.782 251.045H384.928V250.146H386.782V251.045ZM388.363 251.045H386.509V250.146H388.363V251.045ZM389.945 251.045H388.091V250.146H389.945V251.045ZM391.526 251.045H389.672V250.146H391.526V251.045ZM393.107 251.045H391.253V250.146H393.107V251.045ZM394.688 251.045H392.834V250.146H394.688V251.045ZM396.27 251.045H394.416V250.146H396.27V251.045ZM397.851 251.045H395.997V250.146H397.851V251.045ZM399.432 251.045H397.578V250.146H399.432V251.045ZM401.013 251.045H399.159V250.146H401.013V251.045ZM402.595 251.045H400.741V250.146H402.595V251.045ZM404.176 251.045H402.322V250.146H404.176V251.045ZM405.757 251.045H403.903V250.146H405.757V251.045ZM407.338 251.045H405.484V250.146H407.338V251.045ZM408.92 251.045H407.066V250.146H408.92V251.045ZM410.501 251.045H408.647V250.146H410.501V251.045ZM412.082 251.045H410.228V250.146H412.082V251.045ZM413.663 251.045H411.809V250.146H413.663V251.045ZM415.245 251.045H413.391V250.146H415.245V251.045ZM416.826 251.045H414.972V250.146H416.826V251.045ZM418.407 251.045H416.553V250.146H418.407V251.045ZM419.988 251.045H418.134V250.146H419.988V251.045ZM421.57 251.045H419.716V250.146H421.57V251.045ZM423.151 251.045H421.297V250.146H423.151V251.045ZM424.732 251.045H422.878V250.146H424.732V251.045ZM426.313 251.045H424.46V250.146H426.313V251.045ZM427.895 251.045H426.041V250.146H427.895V251.045ZM429.476 251.045H427.622V250.146H429.476V251.045ZM431.057 251.045H429.203V250.146H431.057V251.045ZM432.638 251.045H430.785V250.146H432.638V251.045ZM434.22 251.045H432.366V250.146H434.22V251.045ZM435.801 251.045H433.947V250.146H435.801V251.045ZM437.382 251.045H435.528V250.146H437.382V251.045ZM438.963 251.045H437.11V250.146H438.963V251.045ZM440.545 251.045H438.691V250.146H440.545V251.045ZM442.126 251.045H440.272V250.146H442.126V251.045ZM443.707 251.045H441.853V250.146H443.707V251.045ZM445.288 251.045H443.435V250.146H445.288V251.045ZM446.87 251.045H445.016V250.146H446.87V251.045ZM448.451 251.045H446.597V250.146H448.451V251.045ZM450.032 251.045H448.178V250.146H450.032V251.045ZM451.613 251.045H449.76V250.146H451.613V251.045ZM453.195 251.045H451.341V250.146H453.195V251.045ZM454.776 251.045H452.922V250.146H454.776V251.045ZM456.357 251.045H454.503V250.146H456.357V251.045ZM457.939 251.045H456.085V250.146H457.939V251.045ZM459.52 251.045H457.666V250.146H459.52V251.045ZM461.101 251.045H459.247V250.146H461.101V251.045ZM462.682 251.045H460.828V250.146H462.682V251.045ZM464.264 251.045H462.41V250.146H464.264V251.045ZM465.845 251.045H463.991V250.146H465.845V251.045ZM467.426 251.045H465.572V250.146H467.426V251.045ZM469.007 251.045H467.153V250.146H469.007V251.045ZM470.589 251.045H468.735V250.146H470.589V251.045ZM472.17 251.045H470.316V250.146H472.17V251.045ZM473.751 251.045H471.897V250.146H473.751V251.045ZM475.332 251.045H473.478V250.146H475.332V251.045ZM476.914 251.045H475.06V250.146H476.914V251.045ZM478.495 251.045H476.641V250.146H478.495V251.045ZM480.076 251.045H478.222V250.146H480.076V251.045ZM481.657 251.045H479.803V250.146H481.657V251.045ZM331.438 260.045H329.584V259.146H331.438V260.045ZM333.019 260.045H331.166V259.146H333.019V260.045ZM334.601 260.045H332.747V259.146H334.601V260.045ZM336.182 260.045H334.328V259.146H336.182V260.045ZM337.763 260.045H335.909V259.146H337.763V260.045ZM339.344 260.045H337.491V259.146H339.344V260.045ZM340.926 260.045H339.072V259.146H340.926V260.045ZM342.507 260.045H340.653V259.146H342.507V260.045ZM344.088 260.045H342.234V259.146H344.088V260.045ZM345.669 260.045H343.816V259.146H345.669V260.045ZM347.251 260.045H345.397V259.146H347.251V260.045ZM348.832 260.045H346.978V259.146H348.832V260.045ZM350.413 260.045H348.559V259.146H350.413V260.045ZM351.994 260.045H350.141V259.146H351.994V260.045ZM353.576 260.045H351.722V259.146H353.576V260.045ZM355.157 260.045H353.303V259.146H355.157V260.045ZM356.738 260.045H354.884V259.146H356.738V260.045ZM358.319 260.045H356.466V259.146H358.319V260.045ZM359.901 260.045H358.047V259.146H359.901V260.045ZM361.482 260.045H359.628V259.146H361.482V260.045ZM363.063 260.045H361.209V259.146H363.063V260.045ZM364.645 260.045H362.791V259.146H364.645V260.045ZM366.226 260.045H364.372V259.146H366.226V260.045ZM367.807 260.045H365.953V259.146H367.807V260.045ZM369.388 260.045H367.534V259.146H369.388V260.045ZM370.97 260.045H369.116V259.146H370.97V260.045ZM372.551 260.045H370.697V259.146H372.551V260.045ZM374.132 260.045H372.278V259.146H374.132V260.045ZM375.713 260.045H373.859V259.146H375.713V260.045Z" fill="#171717"/>
<circle cx="311.14" cy="287" r="10.0799" fill="#FBBF24"/>
<circle cx="311.14" cy="287" r="8.63994" stroke="#171717" stroke-width="0.719995" stroke-linejoin="bevel"/>
<path d="M314.74 292.76L314.404 292.088C314.169 291.617 313.688 291.32 313.161 291.32V291.32C312.337 291.32 311.555 290.954 311.027 290.32L309.32 288.272C308.676 287.499 308.551 286.419 309 285.519L309.056 285.408C309.451 284.618 310.257 284.12 311.14 284.12V284.12C312.023 284.12 312.829 284.618 313.224 285.408L313.3 285.56C313.741 286.442 313.646 287.498 313.054 288.288L312.94 288.44L312.4 289.16M307.54 292.76L307.862 292.116C308.106 291.628 308.605 291.32 309.15 291.32H310.06" stroke="#171717" stroke-width="0.719995" stroke-linejoin="bevel"/>
<path d="M331.438 279.046H329.584V278.147H331.438V279.046ZM333.02 279.046H331.166V278.147H333.02V279.046ZM334.601 279.046H332.747V278.147H334.601V279.046ZM336.182 279.046H334.328V278.147H336.182V279.046ZM337.763 279.046H335.91V278.147H337.763V279.046ZM339.345 279.046H337.491V278.147H339.345V279.046ZM340.926 279.046H339.072V278.147H340.926V279.046ZM342.507 279.046H340.653V278.147H342.507V279.046ZM344.088 279.046H342.235V278.147H344.088V279.046ZM345.67 279.046H343.816V278.147H345.67V279.046ZM347.251 279.046H345.397V278.147H347.251V279.046ZM348.832 279.046H346.978V278.147H348.832V279.046ZM350.413 279.046H348.56V278.147H350.413V279.046ZM351.995 279.046H350.141V278.147H351.995V279.046ZM353.576 279.046H351.722V278.147H353.576V279.046ZM355.157 279.046H353.303V278.147H355.157V279.046ZM356.738 279.046H354.885V278.147H356.738V279.046ZM358.32 279.046H356.466V278.147H358.32V279.046ZM359.901 279.046H358.047V278.147H359.901V279.046ZM361.482 279.046H359.628V278.147H361.482V279.046ZM363.063 279.046H361.21V278.147H363.063V279.046ZM364.645 279.046H362.791V278.147H364.645V279.046ZM366.226 279.046H364.372V278.147H366.226V279.046ZM367.807 279.046H365.953V278.147H367.807V279.046ZM369.389 279.046H367.535V278.147H369.389V279.046ZM370.97 279.046H369.116V278.147H370.97V279.046ZM372.551 279.046H370.697V278.147H372.551V279.046ZM374.132 279.046H372.278V278.147H374.132V279.046ZM375.714 279.046H373.86V278.147H375.714V279.046ZM377.295 279.046H375.441V278.147H377.295V279.046ZM378.876 279.046H377.022V278.147H378.876V279.046ZM380.457 279.046H378.603V278.147H380.457V279.046ZM382.039 279.046H380.185V278.147H382.039V279.046ZM383.62 279.046H381.766V278.147H383.62V279.046ZM385.201 279.046H383.347V278.147H385.201V279.046ZM386.782 279.046H384.928V278.147H386.782V279.046ZM388.364 279.046H386.51V278.147H388.364V279.046ZM389.945 279.046H388.091V278.147H389.945V279.046ZM391.526 279.046H389.672V278.147H391.526V279.046ZM393.107 279.046H391.253V278.147H393.107V279.046ZM394.689 279.046H392.835V278.147H394.689V279.046ZM396.27 279.046H394.416V278.147H396.27V279.046ZM397.851 279.046H395.997V278.147H397.851V279.046ZM399.432 279.046H397.578V278.147H399.432V279.046ZM401.014 279.046H399.16V278.147H401.014V279.046ZM402.595 279.046H400.741V278.147H402.595V279.046ZM404.176 279.046H402.322V278.147H404.176V279.046ZM405.757 279.046H403.903V278.147H405.757V279.046ZM407.339 279.046H405.485V278.147H407.339V279.046ZM408.92 279.046H407.066V278.147H408.92V279.046ZM410.501 279.046H408.647V278.147H410.501V279.046ZM412.082 279.046H410.228V278.147H412.082V279.046ZM413.664 279.046H411.81V278.147H413.664V279.046ZM415.245 279.046H413.391V278.147H415.245V279.046ZM416.826 279.046H414.972V278.147H416.826V279.046ZM418.407 279.046H416.553V278.147H418.407V279.046ZM419.989 279.046H418.135V278.147H419.989V279.046ZM421.57 279.046H419.716V278.147H421.57V279.046ZM423.151 279.046H421.297V278.147H423.151V279.046ZM424.732 279.046H422.879V278.147H424.732V279.046ZM426.314 279.046H424.46V278.147H426.314V279.046ZM427.895 279.046H426.041V278.147H427.895V279.046ZM429.476 279.046H427.622V278.147H429.476V279.046ZM431.057 279.046H429.204V278.147H431.057V279.046ZM432.639 279.046H430.785V278.147H432.639V279.046ZM434.22 279.046H432.366V278.147H434.22V279.046ZM435.801 279.046H433.947V278.147H435.801V279.046ZM437.382 279.046H435.529V278.147H437.382V279.046ZM438.964 279.046H437.11V278.147H438.964V279.046ZM440.545 279.046H438.691V278.147H440.545V279.046ZM442.126 279.046H440.272V278.147H442.126V279.046ZM443.707 279.046H441.854V278.147H443.707V279.046ZM445.289 279.046H443.435V278.147H445.289V279.046ZM446.87 279.046H445.016V278.147H446.87V279.046ZM448.451 279.046H446.597V278.147H448.451V279.046ZM450.032 279.046H448.179V278.147H450.032V279.046ZM451.614 279.046H449.76V278.147H451.614V279.046ZM453.195 279.046H451.341V278.147H453.195V279.046ZM454.776 279.046H452.922V278.147H454.776V279.046ZM456.358 279.046H454.504V278.147H456.358V279.046ZM457.939 279.046H456.085V278.147H457.939V279.046ZM459.52 279.046H457.666V278.147H459.52V279.046ZM461.101 279.046H459.247V278.147H461.101V279.046ZM462.683 279.046H460.829V278.147H462.683V279.046ZM464.264 279.046H462.41V278.147H464.264V279.046ZM465.845 279.046H463.991V278.147H465.845V279.046ZM467.426 279.046H465.572V278.147H467.426V279.046ZM469.008 279.046H467.154V278.147H469.008V279.046ZM470.589 279.046H468.735V278.147H470.589V279.046ZM472.17 279.046H470.316V278.147H472.17V279.046ZM473.751 279.046H471.897V278.147H473.751V279.046ZM475.333 279.046H473.479V278.147H475.333V279.046ZM476.914 279.046H475.06V278.147H476.914V279.046ZM478.495 279.046H476.641V278.147H478.495V279.046ZM480.076 279.046H478.222V278.147H480.076V279.046ZM481.658 279.046H479.804V278.147H481.658V279.046ZM331.438 288.046H329.584V287.147H331.438V288.046ZM333.02 288.046H331.166V287.147H333.02V288.046ZM334.601 288.046H332.747V287.147H334.601V288.046ZM336.182 288.046H334.328V287.147H336.182V288.046ZM337.763 288.046H335.91V287.147H337.763V288.046ZM339.345 288.046H337.491V287.147H339.345V288.046ZM340.926 288.046H339.072V287.147H340.926V288.046ZM342.507 288.046H340.653V287.147H342.507V288.046ZM344.088 288.046H342.235V287.147H344.088V288.046ZM345.67 288.046H343.816V287.147H345.67V288.046ZM347.251 288.046H345.397V287.147H347.251V288.046ZM348.832 288.046H346.978V287.147H348.832V288.046ZM350.413 288.046H348.56V287.147H350.413V288.046ZM351.995 288.046H350.141V287.147H351.995V288.046ZM353.576 288.046H351.722V287.147H353.576V288.046ZM355.157 288.046H353.303V287.147H355.157V288.046ZM356.738 288.046H354.885V287.147H356.738V288.046ZM358.32 288.046H356.466V287.147H358.32V288.046ZM359.901 288.046H358.047V287.147H359.901V288.046ZM361.482 288.046H359.628V287.147H361.482V288.046ZM363.063 288.046H361.21V287.147H363.063V288.046ZM364.645 288.046H362.791V287.147H364.645V288.046ZM366.226 288.046H364.372V287.147H366.226V288.046ZM367.807 288.046H365.953V287.147H367.807V288.046ZM369.389 288.046H367.535V287.147H369.389V288.046ZM370.97 288.046H369.116V287.147H370.97V288.046ZM372.551 288.046H370.697V287.147H372.551V288.046ZM374.132 288.046H372.278V287.147H374.132V288.046ZM375.714 288.046H373.86V287.147H375.714V288.046ZM377.295 288.046H375.441V287.147H377.295V288.046ZM378.876 288.046H377.022V287.147H378.876V288.046ZM380.457 288.046H378.603V287.147H380.457V288.046ZM382.039 288.046H380.185V287.147H382.039V288.046ZM383.62 288.046H381.766V287.147H383.62V288.046ZM385.201 288.046H383.347V287.147H385.201V288.046ZM386.782 288.046H384.928V287.147H386.782V288.046ZM388.364 288.046H386.51V287.147H388.364V288.046ZM389.945 288.046H388.091V287.147H389.945V288.046ZM391.526 288.046H389.672V287.147H391.526V288.046ZM393.107 288.046H391.253V287.147H393.107V288.046ZM394.689 288.046H392.835V287.147H394.689V288.046ZM396.27 288.046H394.416V287.147H396.27V288.046ZM397.851 288.046H395.997V287.147H397.851V288.046ZM399.432 288.046H397.578V287.147H399.432V288.046ZM401.014 288.046H399.16V287.147H401.014V288.046ZM402.595 288.046H400.741V287.147H402.595V288.046ZM404.176 288.046H402.322V287.147H404.176V288.046ZM405.757 288.046H403.903V287.147H405.757V288.046ZM407.339 288.046H405.485V287.147H407.339V288.046ZM408.92 288.046H407.066V287.147H408.92V288.046ZM410.501 288.046H408.647V287.147H410.501V288.046ZM412.082 288.046H410.228V287.147H412.082V288.046ZM413.664 288.046H411.81V287.147H413.664V288.046ZM415.245 288.046H413.391V287.147H415.245V288.046ZM416.826 288.046H414.972V287.147H416.826V288.046ZM418.407 288.046H416.553V287.147H418.407V288.046ZM419.989 288.046H418.135V287.147H419.989V288.046ZM421.57 288.046H419.716V287.147H421.57V288.046ZM423.151 288.046H421.297V287.147H423.151V288.046ZM424.732 288.046H422.879V287.147H424.732V288.046ZM426.314 288.046H424.46V287.147H426.314V288.046ZM427.895 288.046H426.041V287.147H427.895V288.046ZM429.476 288.046H427.622V287.147H429.476V288.046ZM431.057 288.046H429.204V287.147H431.057V288.046ZM432.639 288.046H430.785V287.147H432.639V288.046ZM434.22 288.046H432.366V287.147H434.22V288.046ZM435.801 288.046H433.947V287.147H435.801V288.046ZM437.382 288.046H435.529V287.147H437.382V288.046ZM438.964 288.046H437.11V287.147H438.964V288.046ZM440.545 288.046H438.691V287.147H440.545V288.046ZM442.126 288.046H440.272V287.147H442.126V288.046ZM443.707 288.046H441.854V287.147H443.707V288.046ZM445.289 288.046H443.435V287.147H445.289V288.046ZM446.87 288.046H445.016V287.147H446.87V288.046ZM448.451 288.046H446.597V287.147H448.451V288.046ZM450.032 288.046H448.179V287.147H450.032V288.046ZM451.614 288.046H449.76V287.147H451.614V288.046ZM453.195 288.046H451.341V287.147H453.195V288.046ZM454.776 288.046H452.922V287.147H454.776V288.046ZM456.358 288.046H454.504V287.147H456.358V288.046ZM457.939 288.046H456.085V287.147H457.939V288.046ZM459.52 288.046H457.666V287.147H459.52V288.046ZM461.101 288.046H459.247V287.147H461.101V288.046ZM462.683 288.046H460.829V287.147H462.683V288.046ZM464.264 288.046H462.41V287.147H464.264V288.046ZM465.845 288.046H463.991V287.147H465.845V288.046ZM467.426 288.046H465.572V287.147H467.426V288.046ZM469.008 288.046H467.154V287.147H469.008V288.046ZM470.589 288.046H468.735V287.147H470.589V288.046ZM472.17 288.046H470.316V287.147H472.17V288.046ZM473.751 288.046H471.897V287.147H473.751V288.046ZM475.333 288.046H473.479V287.147H475.333V288.046ZM476.914 288.046H475.06V287.147H476.914V288.046ZM478.495 288.046H476.641V287.147H478.495V288.046ZM480.076 288.046H478.222V287.147H480.076V288.046ZM481.658 288.046H479.804V287.147H481.658V288.046ZM331.438 297.046H329.584V296.147H331.438V297.046ZM333.02 297.046H331.166V296.147H333.02V297.046ZM334.601 297.046H332.747V296.147H334.601V297.046ZM336.182 297.046H334.328V296.147H336.182V297.046ZM337.763 297.046H335.91V296.147H337.763V297.046ZM339.345 297.046H337.491V296.147H339.345V297.046ZM340.926 297.046H339.072V296.147H340.926V297.046ZM342.507 297.046H340.653V296.147H342.507V297.046ZM344.088 297.046H342.235V296.147H344.088V297.046ZM345.67 297.046H343.816V296.147H345.67V297.046ZM347.251 297.046H345.397V296.147H347.251V297.046ZM348.832 297.046H346.978V296.147H348.832V297.046ZM350.413 297.046H348.56V296.147H350.413V297.046ZM351.995 297.046H350.141V296.147H351.995V297.046ZM353.576 297.046H351.722V296.147H353.576V297.046ZM355.157 297.046H353.303V296.147H355.157V297.046ZM356.738 297.046H354.885V296.147H356.738V297.046ZM358.32 297.046H356.466V296.147H358.32V297.046ZM359.901 297.046H358.047V296.147H359.901V297.046ZM361.482 297.046H359.628V296.147H361.482V297.046ZM363.063 297.046H361.21V296.147H363.063V297.046ZM364.645 297.046H362.791V296.147H364.645V297.046ZM366.226 297.046H364.372V296.147H366.226V297.046ZM367.807 297.046H365.953V296.147H367.807V297.046ZM369.389 297.046H367.535V296.147H369.389V297.046ZM370.97 297.046H369.116V296.147H370.97V297.046ZM372.551 297.046H370.697V296.147H372.551V297.046ZM374.132 297.046H372.278V296.147H374.132V297.046ZM375.714 297.046H373.86V296.147H375.714V297.046ZM377.295 297.046H375.441V296.147H377.295V297.046Z" fill="#171717"/>
<rect x="303" y="306" width="80.6333" height="21.0236" rx="3.51179" stroke="#171717"/>
<path d="M327.307 316.692V319.512H326.177V312.532H329.187C330.437 312.532 331.207 313.342 331.207 314.632C331.207 315.622 330.737 316.312 329.847 316.572L331.357 319.512H330.097L328.697 316.692H327.307ZM327.307 315.742H329.107C329.677 315.742 330.017 315.432 330.017 314.872V314.392C330.017 313.832 329.677 313.522 329.107 313.522H327.307V315.742ZM334.543 319.632C333.063 319.632 332.153 318.572 332.153 316.912C332.153 315.252 333.063 314.192 334.543 314.192C336.073 314.192 336.853 315.342 336.853 316.782V317.192H333.283V317.362C333.283 318.162 333.773 318.732 334.653 318.732C335.293 318.732 335.723 318.432 336.023 317.952L336.663 318.582C336.273 319.212 335.513 319.632 334.543 319.632ZM334.543 315.042C333.793 315.042 333.283 315.602 333.283 316.402V316.472H335.703V316.372C335.703 315.572 335.263 315.042 334.543 315.042ZM339.71 319.632C338.73 319.632 338.09 319.262 337.6 318.652L338.3 318.012C338.68 318.472 339.15 318.752 339.77 318.752C340.4 318.752 340.72 318.492 340.72 318.052C340.72 317.722 340.52 317.472 339.98 317.402L339.5 317.342C338.44 317.212 337.79 316.752 337.79 315.792C337.79 314.782 338.58 314.192 339.72 314.192C340.66 314.192 341.19 314.502 341.66 315.022L340.99 315.662C340.72 315.342 340.28 315.072 339.72 315.072C339.12 315.072 338.84 315.332 338.84 315.722C338.84 316.122 339.09 316.302 339.64 316.392L340.12 316.452C341.26 316.622 341.77 317.122 341.77 317.962C341.77 318.962 340.96 319.632 339.71 319.632ZM345.041 319.632C343.591 319.632 342.651 318.572 342.651 316.912C342.651 315.252 343.591 314.192 345.041 314.192C346.491 314.192 347.431 315.252 347.431 316.912C347.431 318.572 346.491 319.632 345.041 319.632ZM345.041 318.732C345.781 318.732 346.281 318.272 346.281 317.352V316.472C346.281 315.552 345.781 315.092 345.041 315.092C344.301 315.092 343.801 315.552 343.801 316.472V317.352C343.801 318.272 344.301 318.732 345.041 318.732ZM350.455 319.512H349.755C349.015 319.512 348.645 319.102 348.645 318.432V312.112H349.735V318.622H350.455V319.512ZM353.829 319.512H352.549L350.779 314.312H351.859L352.649 316.682L353.179 318.502H353.239L353.769 316.682L354.579 314.312H355.619L353.829 319.512ZM358.498 319.632C357.018 319.632 356.108 318.572 356.108 316.912C356.108 315.252 357.018 314.192 358.498 314.192C360.028 314.192 360.808 315.342 360.808 316.782V317.192H357.238V317.362C357.238 318.162 357.728 318.732 358.608 318.732C359.248 318.732 359.678 318.432 359.978 317.952L360.618 318.582C360.228 319.212 359.468 319.632 358.498 319.632ZM358.498 315.042C357.748 315.042 357.238 315.602 357.238 316.402V316.472H359.658V316.372C359.658 315.572 359.218 315.042 358.498 315.042Z" fill="#171717"/>
<rect x="390.82" y="305.5" width="81.6333" height="22.0236" rx="4.01179" fill="#FBBF24"/>
<path d="M420.626 316.692V319.512H419.496V312.532H422.506C423.756 312.532 424.526 313.342 424.526 314.632C424.526 315.622 424.056 316.312 423.166 316.572L424.676 319.512H423.416L422.016 316.692H420.626ZM420.626 315.742H422.426C422.996 315.742 423.336 315.432 423.336 314.872V314.392C423.336 313.832 422.996 313.522 422.426 313.522H420.626V315.742ZM427.862 319.632C426.382 319.632 425.472 318.572 425.472 316.912C425.472 315.252 426.382 314.192 427.862 314.192C429.392 314.192 430.172 315.342 430.172 316.782V317.192H426.602V317.362C426.602 318.162 427.092 318.732 427.972 318.732C428.612 318.732 429.042 318.432 429.342 317.952L429.982 318.582C429.592 319.212 428.832 319.632 427.862 319.632ZM427.862 315.042C427.112 315.042 426.602 315.602 426.602 316.402V316.472H429.022V316.372C429.022 315.572 428.582 315.042 427.862 315.042ZM431.379 321.512V314.312H432.469V315.172H432.519C432.739 314.552 433.289 314.192 433.979 314.192C435.289 314.192 436.049 315.202 436.049 316.912C436.049 318.622 435.289 319.632 433.979 319.632C433.289 319.632 432.739 319.262 432.519 318.652H432.469V321.512H431.379ZM433.649 318.692C434.399 318.692 434.899 318.162 434.899 317.362V316.462C434.899 315.662 434.399 315.132 433.649 315.132C432.989 315.132 432.469 315.492 432.469 316.022V317.802C432.469 318.332 432.989 318.692 433.649 318.692ZM439.107 319.512H438.407C437.667 319.512 437.297 319.102 437.297 318.432V312.112H438.387V318.622H439.107V319.512ZM442.221 317.372L443.261 314.312H444.311L442.121 320.542C441.871 321.242 441.561 321.512 440.751 321.512H440.121V320.622H441.001L441.301 319.742L439.411 314.312H440.501L441.541 317.372L441.841 318.502H441.891L442.221 317.372Z" fill="#171717"/>
</g>
<rect x="286.5" y="200.5" width="233" height="138" rx="12" stroke="#171717"/>
<path d="M138.188 165.767C138.188 165.767 138.175 165.78 138.168 165.78C138.161 165.794 138.148 165.807 138.141 165.82L138.188 165.767Z" fill="#FBBF24"/>
<rect x="287" y="97" width="185" height="92" rx="11.5" fill="white"/>
<rect x="287" y="97" width="185" height="92" rx="11.5" stroke="#171717"/>
<path d="M304.386 119.4L304.975 118.811L301.808 115.639H310.237V114.803H301.808L304.975 111.632L304.386 111.042L300.207 115.221L304.386 119.4Z" fill="#171717"/>
<path d="M326.939 120.198V118.994H326.869C326.561 119.848 325.791 120.366 324.825 120.366C322.991 120.366 321.927 118.952 321.927 116.558C321.927 114.164 322.991 112.75 324.825 112.75C325.791 112.75 326.561 113.254 326.869 114.122H326.939V109.838H328.465V120.198H326.939ZM325.287 119.05C326.211 119.05 326.939 118.546 326.939 117.804V115.312C326.939 114.57 326.211 114.066 325.287 114.066C324.237 114.066 323.537 114.808 323.537 115.928V117.188C323.537 118.308 324.237 119.05 325.287 119.05ZM336.834 120.198H335.98C335.182 120.198 334.762 119.694 334.664 118.98H334.594C334.314 119.89 333.53 120.366 332.466 120.366C330.968 120.366 330.114 119.512 330.114 118.196C330.114 116.754 331.192 116.012 333.222 116.012H334.538V115.396C334.538 114.514 334.062 113.996 333.04 113.996C332.186 113.996 331.668 114.416 331.304 114.99L330.394 114.164C330.87 113.352 331.724 112.75 333.138 112.75C335.014 112.75 336.064 113.674 336.064 115.298V118.952H336.834V120.198ZM332.9 119.204C333.838 119.204 334.538 118.756 334.538 118.042V116.992H333.25C332.186 116.992 331.668 117.342 331.668 117.972V118.224C331.668 118.868 332.144 119.204 332.9 119.204ZM341.635 120.198H340.305C339.255 120.198 338.695 119.61 338.695 118.616V114.164H337.561V112.918H338.177C338.681 112.918 338.849 112.708 338.849 112.204V110.93H340.221V112.918H341.747V114.164H340.221V118.952H341.635V120.198ZM349.59 120.198H348.736C347.938 120.198 347.518 119.694 347.42 118.98H347.35C347.07 119.89 346.286 120.366 345.222 120.366C343.724 120.366 342.87 119.512 342.87 118.196C342.87 116.754 343.948 116.012 345.978 116.012H347.294V115.396C347.294 114.514 346.818 113.996 345.796 113.996C344.942 113.996 344.424 114.416 344.06 114.99L343.15 114.164C343.626 113.352 344.48 112.75 345.894 112.75C347.77 112.75 348.82 113.674 348.82 115.298V118.952H349.59V120.198ZM345.656 119.204C346.594 119.204 347.294 118.756 347.294 118.042V116.992H346.006C344.942 116.992 344.424 117.342 344.424 117.972V118.224C344.424 118.868 344.9 119.204 345.656 119.204ZM352.611 120.198H351.085V112.918H352.611V114.318H352.681C352.891 113.576 353.521 112.918 354.683 112.918H355.089V114.388H354.487C353.283 114.388 352.611 114.794 352.611 115.55V120.198ZM359.232 120.366C357.202 120.366 355.886 118.882 355.886 116.558C355.886 114.234 357.202 112.75 359.232 112.75C361.262 112.75 362.578 114.234 362.578 116.558C362.578 118.882 361.262 120.366 359.232 120.366ZM359.232 119.106C360.268 119.106 360.968 118.462 360.968 117.174V115.942C360.968 114.654 360.268 114.01 359.232 114.01C358.196 114.01 357.496 114.654 357.496 115.942V117.174C357.496 118.462 358.196 119.106 359.232 119.106ZM365.443 120.198L363.455 112.918H364.939L365.681 115.97L366.339 118.728H366.381L367.137 115.97L368.019 112.918H369.391L370.287 115.97L371.057 118.728H371.099L371.743 115.97L372.499 112.918H373.913L371.953 120.198H370.231L369.279 116.88L368.691 114.836H368.663L368.089 116.88L367.123 120.198H365.443ZM381.093 122.662H374.079V121.346H381.093V122.662ZM386.629 120.198H382.373V118.91H383.703V111.714H382.373V110.426H386.629V111.714H385.285V118.91H386.629V120.198ZM388.617 120.198V110.426H392.075C394.567 110.426 396.205 112.05 396.205 115.312C396.205 118.574 394.567 120.198 392.075 120.198H388.617ZM390.199 118.798H392.075C393.531 118.798 394.511 117.86 394.511 116.096V114.528C394.511 112.764 393.531 111.826 392.075 111.826H390.199V118.798ZM403.761 122.662H396.747V121.346H403.761V122.662ZM406.849 114.444H407.843C409.047 114.444 409.621 113.87 409.621 113.072V112.974C409.621 112.092 409.005 111.588 408.067 111.588C407.143 111.588 406.499 112.036 406.051 112.778L405.001 111.868C405.589 111.014 406.485 110.258 408.109 110.258C409.957 110.258 411.287 111.196 411.287 112.778C411.287 114.024 410.433 114.794 409.411 115.018V115.088C410.517 115.298 411.455 116.096 411.455 117.51C411.455 119.218 410.055 120.366 407.969 120.366C406.149 120.366 405.239 119.512 404.623 118.616L405.785 117.706C406.261 118.49 406.835 119.036 407.969 119.036C409.159 119.036 409.817 118.434 409.817 117.426V117.328C409.817 116.334 409.117 115.788 407.885 115.788H406.849V114.444ZM415.244 114.444H416.238C417.442 114.444 418.016 113.87 418.016 113.072V112.974C418.016 112.092 417.4 111.588 416.462 111.588C415.538 111.588 414.894 112.036 414.446 112.778L413.396 111.868C413.984 111.014 414.88 110.258 416.504 110.258C418.352 110.258 419.682 111.196 419.682 112.778C419.682 114.024 418.828 114.794 417.806 115.018V115.088C418.912 115.298 419.85 116.096 419.85 117.51C419.85 119.218 418.45 120.366 416.364 120.366C414.544 120.366 413.634 119.512 413.018 118.616L414.18 117.706C414.656 118.49 415.23 119.036 416.364 119.036C417.554 119.036 418.212 118.434 418.212 117.426V117.328C418.212 116.334 417.512 115.788 416.28 115.788H415.244V114.444ZM423.638 114.444H424.632C425.836 114.444 426.41 113.87 426.41 113.072V112.974C426.41 112.092 425.794 111.588 424.856 111.588C423.932 111.588 423.288 112.036 422.84 112.778L421.79 111.868C422.378 111.014 423.274 110.258 424.898 110.258C426.746 110.258 428.076 111.196 428.076 112.778C428.076 114.024 427.222 114.794 426.2 115.018V115.088C427.306 115.298 428.244 116.096 428.244 117.51C428.244 119.218 426.844 120.366 424.758 120.366C422.938 120.366 422.028 119.512 421.412 118.616L422.574 117.706C423.05 118.49 423.624 119.036 424.758 119.036C425.948 119.036 426.606 118.434 426.606 117.426V117.328C426.606 116.334 425.906 115.788 424.674 115.788H423.638V114.444Z" fill="#171717"/>
<rect x="295.024" y="131.769" width="168.953" height="18.0236" rx="3.51179" stroke="#171717"/>
<path d="M301.743 144.281H300.773V137.301H305.023V138.161H301.743V140.321H304.703V141.181H301.743V144.281ZM306.807 138.021C306.417 138.021 306.247 137.811 306.247 137.511V137.371C306.247 137.071 306.417 136.861 306.807 136.861C307.197 136.861 307.367 137.071 307.367 137.371V137.511C307.367 137.811 307.197 138.021 306.807 138.021ZM306.337 144.281V139.101H307.267V144.281H306.337ZM309.836 144.281H308.906V139.101H309.836V139.951H309.886C310.126 139.381 310.566 138.981 311.346 138.981C312.406 138.981 313.056 139.711 313.056 140.971V144.281H312.126V141.111C312.126 140.241 311.766 139.791 311.036 139.791C310.426 139.791 309.836 140.101 309.836 140.731V144.281ZM318.938 144.281H318.408C317.838 144.281 317.568 143.921 317.498 143.421H317.448C317.238 144.061 316.688 144.401 315.948 144.401C314.868 144.401 314.238 143.801 314.238 142.851C314.238 141.851 314.968 141.311 316.448 141.311H317.428V140.841C317.428 140.151 317.058 139.761 316.278 139.761C315.668 139.761 315.278 140.061 315.008 140.501L314.448 139.991C314.758 139.431 315.368 138.981 316.328 138.981C317.618 138.981 318.358 139.641 318.358 140.761V143.491H318.938V144.281ZM316.158 143.651C316.888 143.651 317.428 143.281 317.428 142.761V141.961H316.438C315.588 141.961 315.208 142.221 315.208 142.701V142.901C315.208 143.381 315.578 143.651 316.158 143.651ZM321.718 144.281H321.018C320.378 144.281 320.048 143.901 320.048 143.331V136.881H320.978V143.491H321.718V144.281ZM326.245 141.381V144.281H325.275V137.301H328.155C329.385 137.301 330.135 138.071 330.135 139.351C330.135 140.361 329.665 141.051 328.765 141.281L330.315 144.281H329.225L327.775 141.381H326.245ZM326.245 140.541H328.115C328.735 140.541 329.105 140.201 329.105 139.601V139.101C329.105 138.501 328.735 138.161 328.115 138.161H326.245V140.541ZM333.503 144.401C332.063 144.401 331.153 143.331 331.153 141.691C331.153 140.051 332.063 138.981 333.503 138.981C334.953 138.981 335.773 140.081 335.773 141.531V141.921H332.123V142.131C332.123 142.991 332.653 143.611 333.583 143.611C334.233 143.611 334.703 143.301 334.983 142.771L335.583 143.281C335.223 143.951 334.473 144.401 333.503 144.401ZM333.503 139.731C332.693 139.731 332.123 140.351 332.123 141.201V141.271H334.783V141.171C334.783 140.311 334.283 139.731 333.503 139.731ZM339.182 144.281H338.092L336.302 139.101H337.232L338.082 141.581L338.622 143.371H338.682L339.232 141.581L340.092 139.101H340.982L339.182 144.281ZM342.432 138.021C342.042 138.021 341.872 137.811 341.872 137.511V137.371C341.872 137.071 342.042 136.861 342.432 136.861C342.822 136.861 342.992 137.071 342.992 137.371V137.511C342.992 137.811 342.822 138.021 342.432 138.021ZM341.962 144.281V139.101H342.892V144.281H341.962ZM346.511 144.401C345.071 144.401 344.161 143.331 344.161 141.691C344.161 140.051 345.071 138.981 346.511 138.981C347.961 138.981 348.781 140.081 348.781 141.531V141.921H345.131V142.131C345.131 142.991 345.661 143.611 346.591 143.611C347.241 143.611 347.711 143.301 347.991 142.771L348.591 143.281C348.231 143.951 347.481 144.401 346.511 144.401ZM346.511 139.731C345.701 139.731 345.131 140.351 345.131 141.201V141.271H347.791V141.171C347.791 140.311 347.291 139.731 346.511 139.731ZM350.859 144.281L349.469 139.101H350.369L350.909 141.311L351.429 143.441H351.449L352.039 141.311L352.679 139.101H353.509L354.169 141.311L354.769 143.441H354.799L355.289 141.311L355.839 139.101H356.709L355.329 144.281H354.229L353.529 141.851L353.089 140.331H353.069L352.639 141.851L351.939 144.281H350.859Z" fill="#171717"/>
<path d="M456.453 139.292L453.779 142.636L451.104 139.292H456.453Z" fill="#171717"/>
<rect x="295.024" y="156.141" width="80.6333" height="21.0236" rx="3.51179" stroke="#171717"/>
<path d="M314.807 166.833V169.653H313.677V162.673H316.687C317.937 162.673 318.707 163.483 318.707 164.773C318.707 165.763 318.237 166.453 317.347 166.713L318.857 169.653H317.597L316.197 166.833H314.807ZM314.807 165.883H316.607C317.177 165.883 317.517 165.573 317.517 165.013V164.533C317.517 163.973 317.177 163.663 316.607 163.663H314.807V165.883ZM322.043 169.773C320.563 169.773 319.653 168.713 319.653 167.053C319.653 165.393 320.563 164.333 322.043 164.333C323.573 164.333 324.353 165.483 324.353 166.923V167.333H320.783V167.503C320.783 168.303 321.273 168.873 322.153 168.873C322.793 168.873 323.223 168.573 323.523 168.093L324.163 168.723C323.773 169.353 323.013 169.773 322.043 169.773ZM322.043 165.183C321.293 165.183 320.783 165.743 320.783 166.543V166.613H323.203V166.513C323.203 165.713 322.763 165.183 322.043 165.183ZM325.56 170.763V164.453H326.65V170.353C326.65 171.153 326.26 171.653 325.38 171.653H324.75V170.763H325.56ZM326.11 163.523C325.66 163.523 325.46 163.283 325.46 162.953V162.783C325.46 162.453 325.66 162.213 326.11 162.213C326.56 162.213 326.75 162.453 326.75 162.783V162.953C326.75 163.283 326.56 163.523 326.11 163.523ZM330.246 169.773C328.766 169.773 327.856 168.713 327.856 167.053C327.856 165.393 328.766 164.333 330.246 164.333C331.776 164.333 332.556 165.483 332.556 166.923V167.333H328.986V167.503C328.986 168.303 329.476 168.873 330.356 168.873C330.996 168.873 331.426 168.573 331.726 168.093L332.366 168.723C331.976 169.353 331.216 169.773 330.246 169.773ZM330.246 165.183C329.496 165.183 328.986 165.743 328.986 166.543V166.613H331.406V166.513C331.406 165.713 330.966 165.183 330.246 165.183ZM335.773 169.773C334.273 169.773 333.413 168.713 333.413 167.053C333.413 165.393 334.273 164.333 335.773 164.333C336.813 164.333 337.473 164.843 337.783 165.613L336.883 166.033C336.733 165.553 336.363 165.243 335.773 165.243C334.973 165.243 334.563 165.793 334.563 166.593V167.523C334.563 168.323 334.973 168.873 335.773 168.873C336.403 168.873 336.773 168.533 336.993 168.013L337.823 168.453C337.483 169.303 336.773 169.773 335.773 169.773ZM341.25 169.653H340.3C339.55 169.653 339.15 169.233 339.15 168.523V165.343H338.34V164.453H338.78C339.14 164.453 339.26 164.303 339.26 163.943V163.033H340.24V164.453H341.33V165.343H340.24V168.763H341.25V169.653Z" fill="#171717"/>
<path d="M351.177 168.847L346.999 164.668L347.584 164.083L351.177 167.677L354.771 164.083L355.356 164.668L351.177 168.847Z" fill="#171717"/>
<rect x="382.843" y="155.641" width="81.6333" height="22.0236" rx="4.01179" fill="#93C5FD"/>
<path d="M410.56 169.653H409.38L408.75 167.763H406.14L405.53 169.653H404.38L406.76 162.673H408.18L410.56 169.653ZM408.47 166.793L407.47 163.713H407.42L406.41 166.793H408.47ZM411.561 171.653V164.453H412.651V165.313H412.701C412.921 164.693 413.471 164.333 414.161 164.333C415.471 164.333 416.231 165.343 416.231 167.053C416.231 168.763 415.471 169.773 414.161 169.773C413.471 169.773 412.921 169.403 412.701 168.793H412.651V171.653H411.561ZM413.831 168.833C414.581 168.833 415.081 168.303 415.081 167.503V166.603C415.081 165.803 414.581 165.273 413.831 165.273C413.171 165.273 412.651 165.633 412.651 166.163V167.943C412.651 168.473 413.171 168.833 413.831 168.833ZM417.479 171.653V164.453H418.569V165.313H418.619C418.839 164.693 419.389 164.333 420.079 164.333C421.389 164.333 422.149 165.343 422.149 167.053C422.149 168.763 421.389 169.773 420.079 169.773C419.389 169.773 418.839 169.403 418.619 168.793H418.569V171.653H417.479ZM419.749 168.833C420.499 168.833 420.999 168.303 420.999 167.503V166.603C420.999 165.803 420.499 165.273 419.749 165.273C419.089 165.273 418.569 165.633 418.569 166.163V167.943C418.569 168.473 419.089 168.833 419.749 168.833ZM424.487 169.653H423.397V164.453H424.487V165.453H424.537C424.687 164.923 425.137 164.453 425.967 164.453H426.257V165.503H425.827C424.967 165.503 424.487 165.793 424.487 166.333V169.653ZM429.216 169.773C427.766 169.773 426.826 168.713 426.826 167.053C426.826 165.393 427.766 164.333 429.216 164.333C430.666 164.333 431.606 165.393 431.606 167.053C431.606 168.713 430.666 169.773 429.216 169.773ZM429.216 168.873C429.956 168.873 430.456 168.413 430.456 167.493V166.613C430.456 165.693 429.956 165.233 429.216 165.233C428.476 165.233 427.976 165.693 427.976 166.613V167.493C427.976 168.413 428.476 168.873 429.216 168.873ZM435.153 169.653H433.873L432.103 164.453H433.183L433.973 166.823L434.503 168.643H434.563L435.093 166.823L435.903 164.453H436.943L435.153 169.653ZM439.822 169.773C438.342 169.773 437.432 168.713 437.432 167.053C437.432 165.393 438.342 164.333 439.822 164.333C441.352 164.333 442.132 165.483 442.132 166.923V167.333H438.562V167.503C438.562 168.303 439.052 168.873 439.932 168.873C440.572 168.873 441.002 168.573 441.302 168.093L441.942 168.723C441.552 169.353 440.792 169.773 439.822 169.773ZM439.822 165.183C439.072 165.183 438.562 165.743 438.562 166.543V166.613H440.982V166.513C440.982 165.713 440.542 165.183 439.822 165.183Z" fill="#171717"/>
<rect x="118" y="69" width="156.191" height="100.736" rx="11.5" fill="white"/>
<rect x="118" y="69" width="156.191" height="100.736" rx="11.5" stroke="#171717"/>
<path d="M136.284 100.904H130.076V89.7356H131.628V99.5276H136.284V100.904ZM144.937 100.904H144.089C143.177 100.904 142.745 100.328 142.633 99.5276H142.553C142.217 100.552 141.337 101.096 140.153 101.096C138.425 101.096 137.417 100.136 137.417 98.6156C137.417 97.0156 138.585 96.1516 140.953 96.1516H142.521V95.3996C142.521 94.2956 141.929 93.6716 140.681 93.6716C139.705 93.6716 139.081 94.1516 138.649 94.8556L137.753 94.0396C138.249 93.1436 139.225 92.4236 140.761 92.4236C142.825 92.4236 144.009 93.4796 144.009 95.2716V99.6396H144.937V100.904ZM140.489 99.8956C141.657 99.8956 142.521 99.3036 142.521 98.4716V97.1916H140.937C139.577 97.1916 138.969 97.6076 138.969 98.3756V98.6956C138.969 99.4636 139.561 99.8956 140.489 99.8956ZM146.714 100.904V89.0636H148.202V93.9756H148.266C148.65 92.9516 149.514 92.4236 150.65 92.4236C152.73 92.4236 153.978 94.0716 153.978 96.7596C153.978 99.4476 152.73 101.096 150.65 101.096C149.514 101.096 148.65 100.568 148.266 99.5436H148.202V100.904H146.714ZM150.218 99.7996C151.546 99.7996 152.394 98.8556 152.394 97.4636V96.0556C152.394 94.6636 151.546 93.7196 150.218 93.7196C149.098 93.7196 148.202 94.3596 148.202 95.2396V98.2796C148.202 99.1596 149.098 99.7996 150.218 99.7996ZM159.241 101.096C156.937 101.096 155.481 99.3836 155.481 96.7596C155.481 94.1356 156.937 92.4236 159.241 92.4236C161.561 92.4236 162.873 94.1836 162.873 96.5036V97.1276H157.033V97.4636C157.033 98.8396 157.881 99.8316 159.369 99.8316C160.409 99.8316 161.161 99.3356 161.609 98.4876L162.569 99.3036C161.993 100.376 160.793 101.096 159.241 101.096ZM159.241 93.6236C157.945 93.6236 157.033 94.6156 157.033 95.9756V96.0876H161.289V95.9276C161.289 94.5516 160.489 93.6236 159.241 93.6236ZM167.573 100.904H166.453C165.429 100.904 164.901 100.296 164.901 99.3836V89.0636H166.389V99.6396H167.573V100.904Z" fill="#171717"/>
<rect x="128.636" y="114.04" width="40.0898" height="12.2173" fill="#4ADE80"/>
<rect x="168.726" y="114.04" width="94.8289" height="12.2173" fill="#E5E5E5"/>
<path d="M192.225 143.48H192.985C193.925 143.48 194.405 142.99 194.405 142.32V142.25C194.405 141.52 193.895 141.15 193.155 141.15C192.435 141.15 192.005 141.49 191.715 142.02L191.095 141.54C191.445 140.98 192.055 140.4 193.175 140.4C194.355 140.4 195.295 141.03 195.295 142.16C195.295 143.06 194.695 143.6 193.955 143.79V143.83C194.705 143.98 195.425 144.54 195.425 145.59C195.425 146.79 194.475 147.62 193.055 147.62C191.845 147.62 191.225 147.03 190.795 146.43L191.425 145.95C191.785 146.5 192.195 146.87 193.045 146.87C194.025 146.87 194.545 146.4 194.545 145.58V145.5C194.545 144.68 194.025 144.21 193.045 144.21H192.225V143.48ZM197.731 146.33C198.151 146.33 198.341 146.57 198.341 146.92V147.06C198.341 147.6 198.001 148.34 197.431 148.83H196.761C197.161 148.41 197.401 148.06 197.511 147.59C197.241 147.53 197.121 147.33 197.121 147.06V146.92C197.121 146.57 197.311 146.33 197.731 146.33ZM204.566 147.5H199.976V146.76H201.926V141.14H201.856L200.096 142.78L199.606 142.25L201.456 140.52H202.766V146.76H204.566V147.5ZM209.642 147.5H208.842V146.13H205.472V145.39L208.392 140.52H209.642V145.43H210.652V146.13H209.642V147.5ZM208.792 141.17L206.262 145.43H208.842V141.17H208.792ZM216.068 140.52V141.26H213.008L212.808 143.92H212.878C213.208 143.45 213.578 143.15 214.308 143.15C215.508 143.15 216.388 143.96 216.388 145.31C216.388 146.67 215.508 147.62 214.038 147.62C212.878 147.62 212.278 147.03 211.858 146.43L212.488 145.95C212.848 146.5 213.198 146.87 214.038 146.87C214.988 146.87 215.498 146.34 215.498 145.42V145.32C215.498 144.4 214.988 143.87 214.038 143.87C213.398 143.87 213.078 144.14 212.788 144.46L212.078 144.36L212.328 140.52H216.068ZM223.597 147.5V146.66H223.557C223.247 147.3 222.757 147.62 222.047 147.62C220.757 147.62 219.947 146.57 219.947 144.92C219.947 143.27 220.757 142.22 222.047 142.22C222.757 142.22 223.287 142.53 223.557 143.18H223.597V140.1H224.397V147.5H223.597ZM222.267 146.9C222.997 146.9 223.597 146.52 223.597 145.85V143.93C223.597 143.36 222.997 142.94 222.267 142.94C221.367 142.94 220.807 143.56 220.807 144.48V145.36C220.807 146.28 221.367 146.9 222.267 146.9ZM230.298 147.5H229.848C229.258 147.5 229.018 147.14 228.958 146.66H228.908C228.688 147.29 228.138 147.62 227.418 147.62C226.328 147.62 225.688 147.02 225.688 146.06C225.688 145.09 226.388 144.55 227.888 144.55H228.908V144.04C228.908 143.31 228.508 142.91 227.688 142.91C227.068 142.91 226.658 143.21 226.378 143.68L225.898 143.23C226.178 142.68 226.798 142.22 227.728 142.22C228.968 142.22 229.708 142.87 229.708 143.96V146.8H230.298V147.5ZM227.548 146.94C228.338 146.94 228.908 146.53 228.908 146V145.15H227.848C226.938 145.15 226.528 145.43 226.528 145.93V146.14C226.528 146.65 226.928 146.94 227.548 146.94ZM233.58 147.5H232.58C232.03 147.5 231.73 147.15 231.73 146.65V143.04H230.88V142.34H231.36C231.7 142.34 231.81 142.22 231.81 141.87V140.91H232.53V142.34H233.66V143.04H232.53V146.8H233.58V147.5ZM239.146 147.5H238.696C238.106 147.5 237.866 147.14 237.806 146.66H237.756C237.536 147.29 236.986 147.62 236.266 147.62C235.176 147.62 234.536 147.02 234.536 146.06C234.536 145.09 235.236 144.55 236.736 144.55H237.756V144.04C237.756 143.31 237.356 142.91 236.536 142.91C235.916 142.91 235.506 143.21 235.226 143.68L234.746 143.23C235.026 142.68 235.646 142.22 236.576 142.22C237.816 142.22 238.556 142.87 238.556 143.96V146.8H239.146V147.5ZM236.396 146.94C237.186 146.94 237.756 146.53 237.756 146V145.15H236.696C235.786 145.15 235.376 145.43 235.376 145.93V146.14C235.376 146.65 235.776 146.94 236.396 146.94ZM243.451 147.5H242.651V142.34H243.451V143.29H243.501C243.681 142.8 244.151 142.34 244.991 142.34H245.301V143.14H244.831C243.971 143.14 243.451 143.51 243.451 144V147.5ZM248.224 147.62C246.844 147.62 245.894 146.56 245.894 144.92C245.894 143.28 246.844 142.22 248.224 142.22C249.604 142.22 250.554 143.28 250.554 144.92C250.554 146.56 249.604 147.62 248.224 147.62ZM248.224 146.91C249.084 146.91 249.694 146.38 249.694 145.29V144.55C249.694 143.46 249.084 142.93 248.224 142.93C247.364 142.93 246.754 143.46 246.754 144.55V145.29C246.754 146.38 247.364 146.91 248.224 146.91ZM252.661 147.5L251.281 142.34H252.061L252.611 144.57L253.161 146.83H253.181L253.811 144.57L254.461 142.34H255.171L255.841 144.57L256.481 146.83H256.501L257.031 144.57L257.591 142.34H258.341L256.971 147.5H255.981L255.261 145.02L254.811 143.45H254.791L254.351 145.02L253.631 147.5H252.661ZM261.027 147.62C260.077 147.62 259.447 147.22 258.987 146.61L259.557 146.15C259.957 146.65 260.437 146.94 261.087 146.94C261.767 146.94 262.167 146.63 262.167 146.1C262.167 145.7 261.947 145.39 261.267 145.29L260.857 145.23C259.907 145.09 259.197 144.7 259.197 143.74C259.197 142.72 259.987 142.22 261.037 142.22C261.867 142.22 262.417 142.53 262.837 143.05L262.307 143.53C262.077 143.21 261.637 142.9 260.977 142.9C260.317 142.9 259.967 143.21 259.967 143.7C259.967 144.2 260.317 144.4 260.957 144.5L261.357 144.56C262.497 144.73 262.937 145.23 262.937 146.01C262.937 147.01 262.207 147.62 261.027 147.62Z" fill="#171717"/>
<path d="M196.713 171.237V170.626H195.491V171.237H196.713ZM196.102 183.455L199.629 177.346H192.575L196.102 183.455ZM195.491 171.237V177.957H196.713V171.237H195.491Z" fill="#171717"/>
<rect x="118" y="181.64" width="156.191" height="100.736" rx="11.5" fill="white"/>
<rect x="118" y="181.64" width="156.191" height="100.736" rx="11.5" stroke="#171717"/>
<path d="M131.628 209.623V214.263H130.076V203.095H134.684C136.652 203.095 137.852 204.327 137.852 206.375C137.852 207.991 137.1 209.095 135.66 209.463L138.14 214.263H136.396L134.076 209.623H131.628ZM131.628 208.279H134.62C135.612 208.279 136.204 207.735 136.204 206.775V205.975C136.204 205.015 135.612 204.471 134.62 204.471H131.628V208.279ZM143.241 214.455C140.937 214.455 139.481 212.743 139.481 210.119C139.481 207.495 140.937 205.783 143.241 205.783C145.561 205.783 146.873 207.543 146.873 209.863V210.487H141.033V210.823C141.033 212.199 141.881 213.191 143.369 213.191C144.409 213.191 145.161 212.695 145.609 211.847L146.569 212.663C145.993 213.735 144.793 214.455 143.241 214.455ZM143.241 206.983C141.945 206.983 141.033 207.975 141.033 209.335V209.447H145.289V209.287C145.289 207.911 144.489 206.983 143.241 206.983ZM152.328 214.263H150.584L147.72 205.975H149.208L150.568 209.943L151.432 212.807H151.528L152.408 209.943L153.784 205.975H155.208L152.328 214.263ZM157.528 204.247C156.904 204.247 156.632 203.911 156.632 203.431V203.207C156.632 202.727 156.904 202.391 157.528 202.391C158.152 202.391 158.424 202.727 158.424 203.207V203.431C158.424 203.911 158.152 204.247 157.528 204.247ZM156.776 214.263V205.975H158.264V214.263H156.776ZM164.053 214.455C161.749 214.455 160.293 212.743 160.293 210.119C160.293 207.495 161.749 205.783 164.053 205.783C166.373 205.783 167.685 207.543 167.685 209.863V210.487H161.845V210.823C161.845 212.199 162.693 213.191 164.181 213.191C165.221 213.191 165.973 212.695 166.421 211.847L167.381 212.663C166.805 213.735 165.605 214.455 164.053 214.455ZM164.053 206.983C162.757 206.983 161.845 207.975 161.845 209.335V209.447H166.101V209.287C166.101 207.911 165.301 206.983 164.053 206.983ZM171.011 214.263L168.787 205.975H170.227L171.091 209.511L171.923 212.919H171.955L172.899 209.511L173.923 205.975H175.251L176.307 209.511L177.267 212.919H177.315L178.099 209.511L178.979 205.975H180.371L178.163 214.263H176.403L175.283 210.375L174.579 207.943H174.547L173.859 210.375L172.739 214.263H171.011Z" fill="#171717"/>
<rect x="218.727" y="200.763" width="44.8281" height="16" rx="8" fill="#4ADE80"/>
<path d="M228.241 211.87C226.619 211.87 225.631 210.738 225.631 208.654C225.631 206.569 226.619 205.437 228.241 205.437C229.319 205.437 230.04 205.918 230.459 206.845L229.613 207.308C229.399 206.72 228.963 206.337 228.241 206.337C227.288 206.337 226.7 207.032 226.7 208.181V209.126C226.7 210.275 227.288 210.97 228.241 210.97C228.98 210.97 229.453 210.542 229.675 209.936L230.486 210.426C230.067 211.326 229.319 211.87 228.241 211.87ZM234.288 211.763V210.997H234.252C234.083 211.451 233.718 211.87 232.952 211.87C231.999 211.87 231.437 211.219 231.437 210.079V207.13H232.408V209.954C232.408 210.658 232.702 211.032 233.299 211.032C233.798 211.032 234.288 210.774 234.288 210.23V207.13H235.259V211.763H234.288ZM238.12 211.87C237.247 211.87 236.676 211.54 236.24 210.997L236.863 210.426C237.202 210.836 237.621 211.086 238.173 211.086C238.734 211.086 239.019 210.854 239.019 210.462C239.019 210.168 238.841 209.945 238.36 209.883L237.933 209.829C236.988 209.714 236.409 209.304 236.409 208.449C236.409 207.549 237.113 207.023 238.129 207.023C238.966 207.023 239.438 207.299 239.857 207.763L239.26 208.333C239.019 208.048 238.627 207.807 238.129 207.807C237.594 207.807 237.345 208.039 237.345 208.386C237.345 208.743 237.567 208.903 238.057 208.983L238.485 209.037C239.5 209.188 239.955 209.633 239.955 210.382C239.955 211.273 239.233 211.87 238.12 211.87ZM243.12 211.763H242.274C241.606 211.763 241.249 211.389 241.249 210.756V207.923H240.528V207.13H240.92C241.24 207.13 241.347 206.996 241.347 206.676V205.865H242.22V207.13H243.191V207.923H242.22V210.97H243.12V211.763ZM246.027 211.87C244.736 211.87 243.898 210.925 243.898 209.446C243.898 207.968 244.736 207.023 246.027 207.023C247.319 207.023 248.157 207.968 248.157 209.446C248.157 210.925 247.319 211.87 246.027 211.87ZM246.027 211.068C246.687 211.068 247.132 210.658 247.132 209.838V209.054C247.132 208.235 246.687 207.825 246.027 207.825C245.368 207.825 244.923 208.235 244.923 209.054V209.838C244.923 210.658 245.368 211.068 246.027 211.068ZM250.21 211.763H249.239V207.13H250.21V207.896H250.254C250.441 207.415 250.789 207.023 251.493 207.023C252.116 207.023 252.642 207.326 252.865 207.968H252.891C253.061 207.451 253.542 207.023 254.29 207.023C255.208 207.023 255.751 207.682 255.751 208.823V211.763H254.78V208.939C254.78 208.226 254.513 207.861 253.925 207.861C253.435 207.861 252.98 208.119 252.98 208.654V211.763H252.009V208.939C252.009 208.217 251.733 207.861 251.163 207.861C250.682 207.861 250.21 208.119 250.21 208.654V211.763Z" fill="#171717"/>
<rect x="128.636" y="227.899" width="67.4593" height="12.2173" fill="#4ADE80"/>
<rect x="196.095" y="227.899" width="67.4593" height="12.2173" fill="#E5E5E5"/>
<path d="M195.061 261.252H194.261V259.882H190.891V259.142L193.811 254.272H195.061V259.182H196.071V259.882H195.061V261.252ZM194.211 254.922L191.681 259.182H194.261V254.922H194.211ZM197.867 260.082C198.287 260.082 198.477 260.322 198.477 260.672V260.812C198.477 261.352 198.137 262.092 197.567 262.582H196.897C197.297 262.162 197.537 261.812 197.647 261.342C197.377 261.282 197.257 261.082 197.257 260.812V260.672C197.257 260.322 197.447 260.082 197.867 260.082ZM204.562 260.512V261.252H199.982V260.392L202.262 258.292C202.912 257.692 203.412 256.992 203.412 256.322V256.202C203.412 255.432 202.982 254.902 202.122 254.902C201.262 254.902 200.862 255.422 200.672 256.082L199.922 255.792C200.192 254.972 200.812 254.152 202.162 254.152C203.522 254.152 204.302 254.992 204.302 256.182C204.302 257.262 203.662 258.022 202.772 258.822L200.892 260.512H204.562ZM208.238 261.372C206.788 261.372 205.898 260.352 205.898 258.692C205.898 256.622 207.268 255.002 208.388 254.272H209.468C207.978 255.362 207.148 256.272 206.768 257.892L206.818 257.912C207.148 257.342 207.648 256.912 208.498 256.912C209.698 256.912 210.558 257.742 210.558 259.062C210.558 260.432 209.638 261.372 208.238 261.372ZM208.228 260.642C209.148 260.642 209.688 260.112 209.688 259.172V259.092C209.688 258.152 209.148 257.622 208.228 257.622C207.308 257.622 206.768 258.152 206.768 259.092V259.172C206.768 260.112 207.308 260.642 208.228 260.642ZM216.204 254.272V255.012H213.144L212.944 257.672H213.014C213.344 257.202 213.714 256.902 214.444 256.902C215.644 256.902 216.524 257.712 216.524 259.062C216.524 260.422 215.644 261.372 214.174 261.372C213.014 261.372 212.414 260.782 211.994 260.182L212.624 259.702C212.984 260.252 213.334 260.622 214.174 260.622C215.124 260.622 215.634 260.092 215.634 259.172V259.072C215.634 258.152 215.124 257.622 214.174 257.622C213.534 257.622 213.214 257.892 212.924 258.212L212.214 258.112L212.464 254.272H216.204ZM223.733 261.252V260.412H223.693C223.383 261.052 222.893 261.372 222.183 261.372C220.893 261.372 220.083 260.322 220.083 258.672C220.083 257.022 220.893 255.972 222.183 255.972C222.893 255.972 223.423 256.282 223.693 256.932H223.733V253.852H224.533V261.252H223.733ZM222.403 260.652C223.133 260.652 223.733 260.272 223.733 259.602V257.682C223.733 257.112 223.133 256.692 222.403 256.692C221.503 256.692 220.943 257.312 220.943 258.232V259.112C220.943 260.032 221.503 260.652 222.403 260.652ZM230.434 261.252H229.984C229.394 261.252 229.154 260.892 229.094 260.412H229.044C228.824 261.042 228.274 261.372 227.554 261.372C226.464 261.372 225.824 260.772 225.824 259.812C225.824 258.842 226.524 258.302 228.024 258.302H229.044V257.792C229.044 257.062 228.644 256.662 227.824 256.662C227.204 256.662 226.794 256.962 226.514 257.432L226.034 256.982C226.314 256.432 226.934 255.972 227.864 255.972C229.104 255.972 229.844 256.622 229.844 257.712V260.552H230.434V261.252ZM227.684 260.692C228.474 260.692 229.044 260.282 229.044 259.752V258.902H227.984C227.074 258.902 226.664 259.182 226.664 259.682V259.892C226.664 260.402 227.064 260.692 227.684 260.692ZM233.716 261.252H232.716C232.166 261.252 231.866 260.902 231.866 260.402V256.792H231.016V256.092H231.496C231.836 256.092 231.946 255.972 231.946 255.622V254.662H232.666V256.092H233.796V256.792H232.666V260.552H233.716V261.252ZM239.282 261.252H238.832C238.242 261.252 238.002 260.892 237.942 260.412H237.892C237.672 261.042 237.122 261.372 236.402 261.372C235.312 261.372 234.672 260.772 234.672 259.812C234.672 258.842 235.372 258.302 236.872 258.302H237.892V257.792C237.892 257.062 237.492 256.662 236.672 256.662C236.052 256.662 235.642 256.962 235.362 257.432L234.882 256.982C235.162 256.432 235.782 255.972 236.712 255.972C237.952 255.972 238.692 256.622 238.692 257.712V260.552H239.282V261.252ZM236.532 260.692C237.322 260.692 237.892 260.282 237.892 259.752V258.902H236.832C235.922 258.902 235.512 259.182 235.512 259.682V259.892C235.512 260.402 235.912 260.692 236.532 260.692ZM243.587 261.252H242.787V256.092H243.587V257.042H243.637C243.817 256.552 244.287 256.092 245.127 256.092H245.437V256.892H244.967C244.107 256.892 243.587 257.262 243.587 257.752V261.252ZM248.36 261.372C246.98 261.372 246.03 260.312 246.03 258.672C246.03 257.032 246.98 255.972 248.36 255.972C249.74 255.972 250.69 257.032 250.69 258.672C250.69 260.312 249.74 261.372 248.36 261.372ZM248.36 260.662C249.22 260.662 249.83 260.132 249.83 259.042V258.302C249.83 257.212 249.22 256.682 248.36 256.682C247.5 256.682 246.89 257.212 246.89 258.302V259.042C246.89 260.132 247.5 260.662 248.36 260.662ZM252.797 261.252L251.417 256.092H252.197L252.747 258.322L253.297 260.582H253.317L253.947 258.322L254.597 256.092H255.307L255.977 258.322L256.617 260.582H256.637L257.167 258.322L257.727 256.092H258.477L257.107 261.252H256.117L255.397 258.772L254.947 257.202H254.927L254.487 258.772L253.767 261.252H252.797ZM261.163 261.372C260.213 261.372 259.583 260.972 259.123 260.362L259.693 259.902C260.093 260.402 260.573 260.692 261.223 260.692C261.903 260.692 262.303 260.382 262.303 259.852C262.303 259.452 262.083 259.142 261.403 259.042L260.993 258.982C260.043 258.842 259.333 258.452 259.333 257.492C259.333 256.472 260.123 255.972 261.173 255.972C262.003 255.972 262.553 256.282 262.973 256.802L262.443 257.282C262.213 256.962 261.773 256.652 261.113 256.652C260.453 256.652 260.103 256.962 260.103 257.452C260.103 257.952 260.453 258.152 261.093 258.252L261.493 258.312C262.633 258.482 263.073 258.982 263.073 259.762C263.073 260.762 262.343 261.372 261.163 261.372Z" fill="#171717"/>
<path d="M196.711 283.874V283.263H195.489V283.874H196.711ZM196.1 296.091L199.627 289.982H192.573L196.1 296.091ZM195.489 283.874V290.593H196.711V283.874H195.489Z" fill="#171717"/>
<rect x="117.911" y="294.191" width="156.368" height="100.913" rx="15.179" fill="white"/>
<rect x="117.911" y="294.191" width="156.368" height="100.913" rx="15.179" stroke="#171717" stroke-width="0.822988"/>
<path d="M130.074 326.072V314.904H133.898C136.73 314.904 138.554 316.76 138.554 320.488C138.554 324.216 136.73 326.072 133.898 326.072H130.074ZM131.626 324.696H133.898C135.674 324.696 136.89 323.512 136.89 321.384V319.592C136.89 317.464 135.674 316.28 133.898 316.28H131.626V324.696ZM143.943 326.264C141.687 326.264 140.167 324.568 140.167 321.928C140.167 319.288 141.687 317.592 143.943 317.592C146.199 317.592 147.719 319.288 147.719 321.928C147.719 324.568 146.199 326.264 143.943 326.264ZM143.943 324.984C145.239 324.984 146.135 324.168 146.135 322.552V321.304C146.135 319.688 145.239 318.872 143.943 318.872C142.647 318.872 141.751 319.688 141.751 321.304V322.552C141.751 324.168 142.647 324.984 143.943 324.984ZM151.231 326.072H149.743V317.784H151.231V319.144H151.311C151.695 318.232 152.399 317.592 153.647 317.592C155.343 317.592 156.383 318.76 156.383 320.776V326.072H154.895V321C154.895 319.608 154.319 318.888 153.151 318.888C152.175 318.888 151.231 319.384 151.231 320.392V326.072ZM162.083 326.264C159.779 326.264 158.323 324.552 158.323 321.928C158.323 319.304 159.779 317.592 162.083 317.592C164.403 317.592 165.715 319.352 165.715 321.672V322.296H159.875V322.632C159.875 324.008 160.723 325 162.211 325C163.251 325 164.003 324.504 164.451 323.656L165.411 324.472C164.835 325.544 163.635 326.264 162.083 326.264ZM162.083 318.792C160.787 318.792 159.875 319.784 159.875 321.144V321.256H164.131V321.096C164.131 319.72 163.331 318.792 162.083 318.792Z" fill="#171717"/>
<rect x="128.636" y="338.869" width="105.792" height="12.2173" fill="#4ADE80"/>
<rect x="234.428" y="338.869" width="29.1261" height="12.2173" fill="#E5E5E5"/>
<path d="M192.385 375.62C190.935 375.62 190.045 374.6 190.045 372.94C190.045 370.87 191.415 369.25 192.535 368.52H193.615C192.125 369.61 191.295 370.52 190.915 372.14L190.965 372.16C191.295 371.59 191.795 371.16 192.645 371.16C193.845 371.16 194.705 371.99 194.705 373.31C194.705 374.68 193.785 375.62 192.385 375.62ZM192.375 374.89C193.295 374.89 193.835 374.36 193.835 373.42V373.34C193.835 372.4 193.295 371.87 192.375 371.87C191.455 371.87 190.915 372.4 190.915 373.34V373.42C190.915 374.36 191.455 374.89 192.375 374.89ZM196.731 374.33C197.151 374.33 197.341 374.57 197.341 374.92V375.06C197.341 375.6 197.001 376.34 196.431 376.83H195.761C196.161 376.41 196.401 376.06 196.511 375.59C196.241 375.53 196.121 375.33 196.121 375.06V374.92C196.121 374.57 196.311 374.33 196.731 374.33ZM200.746 375.5H199.846L202.516 369.24H199.536V370.54H198.786V368.52H203.366V369.26L200.746 375.5ZM207.102 375.62C205.652 375.62 204.762 374.6 204.762 372.94C204.762 370.87 206.132 369.25 207.252 368.52H208.332C206.842 369.61 206.012 370.52 205.632 372.14L205.682 372.16C206.012 371.59 206.512 371.16 207.362 371.16C208.562 371.16 209.422 371.99 209.422 373.31C209.422 374.68 208.502 375.62 207.102 375.62ZM207.092 374.89C208.012 374.89 208.552 374.36 208.552 373.42V373.34C208.552 372.4 208.012 371.87 207.092 371.87C206.172 371.87 205.632 372.4 205.632 373.34V373.42C205.632 374.36 206.172 374.89 207.092 374.89ZM215.068 368.52V369.26H212.008L211.808 371.92H211.878C212.208 371.45 212.578 371.15 213.308 371.15C214.508 371.15 215.388 371.96 215.388 373.31C215.388 374.67 214.508 375.62 213.038 375.62C211.878 375.62 211.278 375.03 210.858 374.43L211.488 373.95C211.848 374.5 212.198 374.87 213.038 374.87C213.988 374.87 214.498 374.34 214.498 373.42V373.32C214.498 372.4 213.988 371.87 213.038 371.87C212.398 371.87 212.078 372.14 211.788 372.46L211.078 372.36L211.328 368.52H215.068ZM222.597 375.5V374.66H222.557C222.247 375.3 221.757 375.62 221.047 375.62C219.757 375.62 218.947 374.57 218.947 372.92C218.947 371.27 219.757 370.22 221.047 370.22C221.757 370.22 222.287 370.53 222.557 371.18H222.597V368.1H223.397V375.5H222.597ZM221.267 374.9C221.997 374.9 222.597 374.52 222.597 373.85V371.93C222.597 371.36 221.997 370.94 221.267 370.94C220.367 370.94 219.807 371.56 219.807 372.48V373.36C219.807 374.28 220.367 374.9 221.267 374.9ZM229.298 375.5H228.848C228.258 375.5 228.018 375.14 227.958 374.66H227.908C227.688 375.29 227.138 375.62 226.418 375.62C225.328 375.62 224.688 375.02 224.688 374.06C224.688 373.09 225.388 372.55 226.888 372.55H227.908V372.04C227.908 371.31 227.508 370.91 226.688 370.91C226.068 370.91 225.658 371.21 225.378 371.68L224.898 371.23C225.178 370.68 225.798 370.22 226.728 370.22C227.968 370.22 228.708 370.87 228.708 371.96V374.8H229.298V375.5ZM226.548 374.94C227.338 374.94 227.908 374.53 227.908 374V373.15H226.848C225.938 373.15 225.528 373.43 225.528 373.93V374.14C225.528 374.65 225.928 374.94 226.548 374.94ZM232.58 375.5H231.58C231.03 375.5 230.73 375.15 230.73 374.65V371.04H229.88V370.34H230.36C230.7 370.34 230.81 370.22 230.81 369.87V368.91H231.53V370.34H232.66V371.04H231.53V374.8H232.58V375.5ZM238.146 375.5H237.696C237.106 375.5 236.866 375.14 236.806 374.66H236.756C236.536 375.29 235.986 375.62 235.266 375.62C234.176 375.62 233.536 375.02 233.536 374.06C233.536 373.09 234.236 372.55 235.736 372.55H236.756V372.04C236.756 371.31 236.356 370.91 235.536 370.91C234.916 370.91 234.506 371.21 234.226 371.68L233.746 371.23C234.026 370.68 234.646 370.22 235.576 370.22C236.816 370.22 237.556 370.87 237.556 371.96V374.8H238.146V375.5ZM235.396 374.94C236.186 374.94 236.756 374.53 236.756 374V373.15H235.696C234.786 373.15 234.376 373.43 234.376 373.93V374.14C234.376 374.65 234.776 374.94 235.396 374.94ZM242.451 375.5H241.651V370.34H242.451V371.29H242.501C242.681 370.8 243.151 370.34 243.991 370.34H244.301V371.14H243.831C242.971 371.14 242.451 371.51 242.451 372V375.5ZM247.224 375.62C245.844 375.62 244.894 374.56 244.894 372.92C244.894 371.28 245.844 370.22 247.224 370.22C248.604 370.22 249.554 371.28 249.554 372.92C249.554 374.56 248.604 375.62 247.224 375.62ZM247.224 374.91C248.084 374.91 248.694 374.38 248.694 373.29V372.55C248.694 371.46 248.084 370.93 247.224 370.93C246.364 370.93 245.754 371.46 245.754 372.55V373.29C245.754 374.38 246.364 374.91 247.224 374.91ZM251.661 375.5L250.281 370.34H251.061L251.611 372.57L252.161 374.83H252.181L252.811 372.57L253.461 370.34H254.171L254.841 372.57L255.481 374.83H255.501L256.031 372.57L256.591 370.34H257.341L255.971 375.5H254.981L254.261 373.02L253.811 371.45H253.791L253.351 373.02L252.631 375.5H251.661ZM260.027 375.62C259.077 375.62 258.447 375.22 257.987 374.61L258.557 374.15C258.957 374.65 259.437 374.94 260.087 374.94C260.767 374.94 261.167 374.63 261.167 374.1C261.167 373.7 260.947 373.39 260.267 373.29L259.857 373.23C258.907 373.09 258.197 372.7 258.197 371.74C258.197 370.72 258.987 370.22 260.037 370.22C260.867 370.22 261.417 370.53 261.837 371.05L261.307 371.53C261.077 371.21 260.637 370.9 259.977 370.9C259.317 370.9 258.967 371.21 258.967 371.7C258.967 372.2 259.317 372.4 259.957 372.5L260.357 372.56C261.497 372.73 261.937 373.23 261.937 374.01C261.937 375.01 261.207 375.62 260.027 375.62Z" fill="#171717"/>
<path d="M118 275L118 259L132.035 255.424L118 275Z" fill="#171717"/>
<path d="M52.3699 233.235C52.6225 232.518 52.8751 231.801 53.1288 231.076C59.7582 227.096 66.5845 223.504 73.8306 220.749C75.1201 220.26 76.3264 219.57 77.5758 218.97C78.4615 217.774 79.3473 216.578 80.239 215.39C79.3473 216.578 78.4605 217.781 77.5758 218.97C78.571 218.953 79.5583 218.942 80.5535 218.925C81.0595 218.16 81.6049 217.415 82.046 216.612C81.598 217.414 81.0526 218.159 80.5535 218.925C87.1462 220.114 93.7693 220.757 100.456 219.76C101.173 220.203 101.89 220.646 102.598 221.095C104.72 224.788 108.079 226.956 111.869 228.581C112.372 229.43 112.868 230.278 113.37 231.127C115.209 233.672 114.5 232 117.5 236L117.5 204.5C114.628 198.617 110.673 196.714 104.589 195.028C94.6554 192.273 84.5382 190.197 74.7253 187.001C75.0188 186.438 75.3202 185.868 75.6137 185.305C83.3941 182.797 90.3282 179.045 95.2183 172.174C95.7756 171.395 96.9896 170.459 97.7627 170.565C102.72 171.239 106.736 168.809 110.856 166.823C114.871 164.886 118.543 161.63 122.727 160.796C129.732 159.401 133.991 154.878 138.277 150.069C139.616 148.565 140.242 146.641 139.111 144.6C138.816 144.691 138.522 144.775 138.221 144.858C138.515 144.774 138.816 144.691 139.111 144.6C138.929 143.869 138.654 143.201 137.975 142.785C134.424 139.235 130.897 140.821 127.382 142.859C126.652 143.182 125.915 143.505 125.184 143.828C121.044 144.845 116.695 145.069 112.786 146.959C109.49 148.557 106.037 149.152 102.408 149.32C98.1613 149.518 93.847 149.698 89.7117 150.581C85.6927 151.44 81.4557 151.815 77.7629 153.862C71.4809 157.344 64.9514 160.302 58.3749 163.148C57.4129 163.565 56.4897 164.438 55.2944 163.897C55.2974 163.876 55.3004 163.855 55.2896 163.832C55.2414 163.825 55.2049 163.834 55.1694 163.836C55.236 163.381 55.3163 162.927 55.3828 162.471C58.6298 158.173 61.2677 153.61 61.8948 148.112C61.9678 147.467 62.2491 146.747 62.6665 146.251C70.1181 137.364 76.1808 127.479 82.9502 118.105C86.5255 113.15 88.9298 107.728 89.9254 101.635C90.4634 98.3368 89.8976 95.7024 87.2057 93.6456C86.6435 92.915 85.8203 92.7665 84.9762 92.6644C80.0182 92.335 76.1045 95.6545 74.2151 101.793C73.8819 102.436 73.5488 103.078 73.2156 103.72C72.6158 103.632 69.1194 108.578 68.5684 109.216C66.7931 111.248 64.9922 113.262 63.1737 115.252C59.5356 119.239 55.8287 123.167 52.1651 127.136C44.9832 134.899 38.162 142.94 31.8664 151.431C32.3802 150.709 32.895 149.981 33.4087 149.259C33.0365 149.783 32.3197 148.134 32.2957 147.962C32.2013 147.306 32.9503 146.662 33.16 146.093C33.7097 144.644 33.5721 142.741 34.6314 141.515C38.657 136.851 39.4818 131.156 40.9561 125.689C41.807 122.515 41.3342 119.196 38.7454 116.625C37.9518 115.551 36.9009 115.13 35.5896 115.382C32.6318 116.254 31.9261 119.013 30.6436 121.286C30.0834 122.036 29.5154 122.792 28.9542 123.549C30.7491 123.649 32.3096 123.426 33.6425 122.88C32.3096 123.426 30.7481 123.656 28.9542 123.549C24.6431 130.553 20.6218 137.791 15.3915 144.146C9.7507 150.999 6.97559 158.912 4.79306 167.299C1.69944 179.176 -1.46229 191.086 -8.21966 201.582C-12.8814 208.817 -16.7316 216.474 -20.4854 224.195C-23.0707 229.506 -25.4131 234.986 -28.4713 240.017C-41.9644 262.211 -58.7293 281.594 -78.9809 297.901L-103.5 465.776L-84.9105 432.791C-84.9105 432.791 -62.9721 400.211 -49.9473 381.079C-47.2437 377.223 -44.4821 373.404 -41.6497 369.63C-28.8198 352.556 -16.1148 335.371 -0.611288 320.527C4.57006 315.567 10.4477 312.203 17.8718 311.941C21.9337 311.801 25.9887 311.083 29.7402 309.452C38.2734 305.743 47.1628 303.066 55.9857 300.216C69.5679 295.828 82.2333 289.761 93.8295 281.375C100.309 276.689 107.102 272.45 113.757 268.008C115.877 265.837 118.531 264.392 121.034 262.776C121.679 262.363 122.259 261.912 122.785 261.439C122.847 261.448 122.909 261.457 122.965 261.465C124.611 260.077 126.265 258.683 127.973 257.354L132.059 255.406C132.352 255.089 132.644 254.779 132.936 254.463C134.669 251.713 136.23 248.931 134.123 245.662C133.568 244.883 133.013 244.104 132.457 243.332C129.045 239.31 124.286 239.594 119.69 239.346C114.92 239.122 110.609 240.585 106.511 242.898C101.991 245.453 97.4366 247.952 92.8998 250.476C85.2891 254.715 77.6615 254.2 70.0296 250.533C69.1395 249.156 68.0517 247.975 66.5901 247.183C60.4653 243.948 56.4097 238.598 52.3867 233.217M85.6388 98.2031C85.8044 97.889 85.9444 97.557 86.0706 97.2229C85.9444 97.557 85.7975 97.888 85.6388 98.2031C85.2649 98.931 84.8942 99.5888 84.5209 100.169C84.8953 99.5819 85.2649 98.931 85.6388 98.2031Z" fill="#FBBF24"/>
<path d="M10.7775 177.81L19.8234 168.902C19.8234 168.902 31.222 149.913 32.6928 149.099" stroke="#171717" stroke-miterlimit="10" stroke-linecap="round"/>
<path d="M30.4702 122.424C30.4702 122.424 35.1133 123.511 37.7501 115.726" stroke="#171717" stroke-miterlimit="10" stroke-linecap="round"/>
<path d="M74.2051 101.813C74.2051 101.813 83.5712 105.465 86.0003 92.8351" stroke="#171717" stroke-miterlimit="10" stroke-linecap="round"/>
<path d="M126.712 144.156C126.712 144.156 130.817 147.864 138.563 144.583" stroke="#171717" stroke-miterlimit="10" stroke-linecap="round"/>
<path d="M47.1482 223.817C47.1482 223.817 48.2123 229.499 52.5714 231.856" stroke="#171717" stroke-miterlimit="10" stroke-linecap="round"/>
<path d="M49.8594 238.902C49.8594 238.902 50.8277 246.445 70.0129 250.552" stroke="#171717" stroke-miterlimit="10" stroke-linecap="round"/>
<path d="M77.5818 218.977C79.3434 218.727 82.8807 213.647 82.8807 213.647" stroke="#171717" stroke-miterlimit="10" stroke-linecap="round"/>
<path d="M100.456 219.76L107.947 217.308" stroke="#171717" stroke-miterlimit="10" stroke-linecap="round"/>
<path d="M112.671 229.938L117.444 230.614" stroke="#171717" stroke-miterlimit="10" stroke-linecap="round"/>
<path d="M58.6233 181.62L74.4797 186.149" stroke="#171717" stroke-miterlimit="10" stroke-linecap="round"/>
<path d="M54.2292 164.474L38.6801 172.544" stroke="#171717" stroke-miterlimit="10" stroke-linecap="round"/>
<path d="M31.5831 171.303L29.1559 171.724C26.5335 172.18 24.214 173.695 22.7474 175.927L16.0443 186.1" stroke="#171717" stroke-miterlimit="10" stroke-linecap="round"/>
<path d="M51.3451 181.922L46.9813 181.285C44.6994 180.952 42.4163 181.88 41.0082 183.711L32.5722 194.71" stroke="#171717" stroke-miterlimit="10" stroke-linecap="round"/>
<path d="M132.44 243.352C132.44 243.352 123.539 246.443 125.984 258.728" stroke="#171717" stroke-miterlimit="10" stroke-linecap="round"/>
<path d="M451.999 160.011L472 178.5L472.5 160.011L451.999 160.011Z" fill="#171717"/>
<path d="M677.389 197.654C665.367 188.858 652.877 180.614 643.839 168.349C640.162 163.362 635.485 159.261 630.59 155.475C622.199 148.982 614.853 141.462 608.43 133.019C597.448 118.58 586.478 104.131 575.438 89.7365C573.469 87.1724 572.071 84.4779 571.038 81.3675C568.1 72.5282 564.363 63.9395 557.406 57.4626C553.514 53.8431 550.022 49.9782 546.778 45.81C544.652 43.0704 542.421 40.4145 540.23 37.7162C539.762 36.1631 538.635 35.1041 537.403 34.2123C536.047 33.232 535.029 30.6906 532.753 32.93C530.812 34.3114 530.647 36.4603 530.372 38.5508C529.939 38.9491 529.506 39.3475 529.07 39.7531C520.152 32.1897 511.588 24.2639 503.71 15.5976C503.431 15.7231 503.153 15.8241 502.89 15.9062C503.153 15.8241 503.424 15.7203 503.71 15.5976C503.353 14.9726 502.998 14.3404 502.633 13.7127C501.131 10.2494 498.748 7.75137 494.983 6.77319C494.148 6.51284 493.357 6.67577 492.606 7.08529C490.293 8.7475 490.199 11.1885 490.37 13.6724C490.77 19.5736 493.27 24.6097 497.129 28.9457C504.181 36.867 509.853 45.936 517.492 53.36C517.903 53.757 518.202 54.4505 518.246 55.0305C518.493 57.8998 520.186 59.9942 521.863 62.1075C521.67 62.3983 521.479 62.6818 521.285 62.9726C519.806 63.9666 518.601 62.8946 517.31 62.4609C509.051 59.6631 500.976 54.9474 492.158 55.6809C478.821 56.7888 466.079 54.2468 453.216 51.8492C452.514 51.6729 451.812 51.4965 451.107 51.3274C448.55 50.5443 445.989 49.8173 443.314 50.8029C442.368 51.2214 441.358 51.5491 441.003 52.6979C439.412 54.6598 440.745 56.1365 442.014 57.3655C447.62 62.8059 453.431 67.0569 461.69 68.9434C470.51 70.9612 479.025 74.8255 488.017 76.7844C488.874 76.9696 489.813 77.3274 490.44 77.8975C493.854 81.012 498.183 82.396 502.228 84.3339C502.452 84.8088 502.679 85.2764 502.897 85.7486C497.254 89.05 490.845 89.9553 484.658 91.4922C479.512 92.7713 474.983 95.039 471.722 99.2142C468.5 102.5 471.722 100 472.5 108.5L472.5 129.5L473.453 128.751C473.925 128.425 474.385 128.087 474.855 127.744C475.019 127.616 475.187 127.481 475.347 127.343C475.347 127.343 478.606 125.238 480.055 124.017C481.88 122.484 483.449 120.646 484.493 118.492C485.835 118.075 487.184 117.662 488.527 117.262C488.764 117.162 488.994 117.059 489.231 116.958C490.604 116.719 491.973 116.47 493.347 116.231C496.057 115.914 498.826 116.008 501.506 115.446C503.106 115.111 504.622 114.454 506.01 113.591C507.418 112.719 508.47 111.521 509.765 110.532C510.874 110.879 511.975 111.224 513.084 111.572C513.631 111.83 514.178 112.088 514.725 112.346C521.942 113.579 528.871 115.721 535.424 119.021C535.894 119.763 536.365 120.506 536.842 121.251C536.986 121.48 535.949 123.205 535.81 123.483C535.403 124.29 534.978 125.08 534.527 125.853C533.624 127.397 532.633 128.892 531.57 130.335C530.305 132.048 528.875 133.632 527.458 135.221C526.165 136.684 525.009 138.546 523.328 139.571C521.978 140.399 520.477 140.821 519.023 141.402C517.255 142.112 515.494 142.825 513.729 143.528C501.145 145.436 488.6 146.614 476.388 141.532C474.981 140.946 473.46 140.616 472.001 140.167C465.015 139.892 458.842 142.023 453.468 146.487C452.377 146.767 451.448 147.25 451.049 148.407C447.566 152.034 447.837 155.276 451.995 160C455.246 161.718 458.57 163.134 462.531 162.77C462.49 162.663 470.356 165.253 474.275 166.672C475.424 167.349 476.56 168.08 477.726 168.69C482.496 170.614 487.164 172.848 492.05 174.378C500.564 177.049 508.734 180.318 516.134 185.415C517.996 186.696 520.308 187.427 522.507 188.082C530.768 190.55 538.991 193.094 546.872 196.625C558.645 201.905 570.691 205.449 583.859 203.829C588.6 203.241 592.792 204.945 596.281 208.602C602.054 214.645 607.872 220.638 613.324 226.981C621.221 236.16 627.773 246.351 635.253 255.843C636.99 258.344 638.729 260.837 640.466 263.337C644.568 269.207 653.071 280.443 657.171 286.32L688.071 205.193C684.501 202.682 680.895 200.224 677.37 197.639L677.389 197.654Z" fill="#FB923C"/>
<path d="M515.514 143.621C515.514 143.621 539.503 141.418 547.843 118.434" stroke="#171717" stroke-miterlimit="10" stroke-linecap="round"/>
<path d="M477.855 114.175C477.855 114.175 484.701 118.423 486.618 117.844" stroke="#171717" stroke-miterlimit="10" stroke-linecap="round"/>
<path d="M508.883 105.202C508.883 105.202 510.276 109.212 511.524 111.344" stroke="#171717" stroke-miterlimit="10" stroke-linecap="round"/>
<path d="M538.385 115.071C538.385 115.071 538.199 118.405 536.852 121.247" stroke="#171717" stroke-miterlimit="10" stroke-linecap="round"/>
<path d="M502.904 85.7529L521.963 77.1822" stroke="#171717" stroke-miterlimit="10" stroke-linecap="round"/>
<path d="M533.26 73.2422C533.26 73.2422 545.623 71.1088 555.399 83.2819" stroke="#171717" stroke-miterlimit="10" stroke-linecap="round"/>
<path d="M521.3 62.9794C521.448 63.1767 534.042 68.6694 534.042 68.6694" stroke="#171717" stroke-miterlimit="10" stroke-linecap="round"/>
<path d="M543.208 70.3879C543.208 70.3879 560.061 73.021 562.572 80.1987L560.061 73.021L544.45 53.9207C540.947 49.629 536.947 45.7698 532.553 42.4061L529.073 39.7469" stroke="#171717" stroke-miterlimit="10" stroke-linecap="round"/>
<path d="M451.589 147.51C451.589 147.51 459.694 145.585 461.606 155.185C461.606 155.185 462.018 160.229 465.274 163.673" stroke="#171717" stroke-miterlimit="10" stroke-linecap="round"/>
<path d="M492.953 8.58447C492.953 8.58447 493.968 17.7599 502.977 17.1985" stroke="#171717" stroke-miterlimit="10" stroke-linecap="round"/>
<path d="M441.238 54.234C441.238 54.234 446.065 59.3945 452.314 52.7621" stroke="#171717" stroke-miterlimit="10" stroke-linecap="round"/>
<path d="M390.99 315.084L355.5 338L388.5 338L390.99 315.084Z" fill="#171717"/>
<path d="M388.483 323.134C388.47 322.938 388.463 322.746 388.466 322.552C388.44 322.553 388.414 322.538 388.388 322.54C388.386 322.573 388.387 322.599 388.375 322.635C387.148 326.433 385.211 329.943 383.66 333.611C382.105 336.047 380.167 338.335 378.545 340.741C377.582 343.259 376.107 345.528 374.905 347.915C371.697 354.309 369.46 361.23 364.535 366.755C361.796 369.829 359.067 373.089 357.603 377.03C354.446 385.52 350.454 393.573 345.817 401.358C340.261 410.697 336.3 420.604 336.437 431.741C336.456 433.571 319.215 463.449 318 465L391.62 470.077C408.097 459.229 425.201 449.422 442.278 439.574C445.15 437.918 447.729 435.757 451.381 435.113C460.588 433.488 469.687 430.81 477.011 424.786C481.965 420.712 487.283 417.295 492.551 413.747C494.358 412.526 496.615 411.935 497.829 409.906C500.684 410.084 502.273 407.967 503.641 406.113C506.206 402.637 500.031 401.385 498.254 400.635C498.023 400.329 497.796 400.033 497.572 399.731C498.264 398.899 498.822 397.859 499.679 397.269C505.362 393.349 509.308 387.412 515.505 384.024C518.18 382.56 520.189 379.886 522.502 377.758C523.363 378.399 524.119 378.056 524.852 377.503C528.102 376.35 530.781 374.53 532.176 371.215C532.555 370.335 532.679 369.469 532.072 368.627C528.996 365.536 521.483 364.72 516.759 367.384C510.53 370.898 504.508 374.773 498.374 378.446C493.151 381.568 488.592 385.856 482.562 387.575C480.639 388.122 478.368 390.557 476.982 389.036C475.301 387.189 477.472 384.807 478.565 382.826C483.35 374.205 487.077 365.339 487.086 355.176C487.098 344.98 491.473 335.777 494.528 326.296C494.658 325.74 494.794 325.188 494.919 324.639C495.883 322.411 496.89 320.183 496.359 317.653C496.261 316.511 495.96 315.481 494.887 314.852C493.724 313.65 492.528 313.871 491.286 314.74C488.885 316.408 486.429 318.009 484.484 320.251C480.8 324.488 478.375 329.326 476.228 334.549C473.75 340.585 470.118 346.159 468.459 352.572C467.8 355.124 466.536 357.457 464.878 359.312C462.143 362.38 460.426 366.01 458.276 369.404C457.815 369.39 457.364 369.374 456.903 369.36C455.111 365.416 454.159 361.246 453.979 356.94C453.568 347.188 449.167 341.22 447.67 338.926L420.387 339.235C422.191 342.896 424.156 346.429 427.71 348.733C427.989 350.134 428.268 351.536 428.547 352.937C428.66 356.82 428.853 360.699 428.864 364.581C428.879 368.108 430.235 370.934 432.815 373.24C432.27 374.098 431.721 374.947 431.176 375.805C428.507 383.113 426.075 390.526 421.603 397.025C420.924 397.267 420.242 397.5 419.562 397.742C412.899 394.778 408.758 388.86 403.65 384.084L403.653 384.094C403.579 383.769 403.505 383.444 403.431 383.119C402.385 380.798 402.918 377.866 400.718 375.988C400.608 367.104 400.808 358.247 402.624 349.484C403.301 346.217 404.428 343.172 406.221 340.372C411.054 331.83 409.245 323.709 404.713 315.752C404.241 315.117 403.758 314.484 403.286 313.849C399.352 309.53 396.077 309.865 390.982 315.112C389.768 317.593 388.268 319.993 388.475 323.163" fill="#93C5FD"/>
<path d="M388.022 324.503C388.022 324.503 396.095 320.796 399.846 321.789C399.846 321.789 403.507 318 403.979 314.733" stroke="#171717" stroke-miterlimit="10" stroke-linecap="round"/>
<path d="M428.144 350.816C428.144 350.816 430.733 345.058 432.589 342.952" stroke="#171717" stroke-miterlimit="10" stroke-linecap="round"/>
<path d="M432.181 374.235C432.181 374.235 435.246 372.555 437.7 373.198" stroke="#171717" stroke-miterlimit="10" stroke-linecap="round"/>
<path d="M400.668 377.104C400.668 377.104 401.99 401.461 421.12 408.534" stroke="#171717" stroke-miterlimit="10" stroke-linecap="round"/>
<path d="M419.573 397.724L425.071 400.159" stroke="#171717" stroke-miterlimit="10" stroke-linecap="round"/>
<path d="M456.91 369.347L462.212 387.565" stroke="#171717" stroke-miterlimit="10" stroke-linecap="round"/>
<path d="M464.355 398.289C464.355 398.289 466.142 411.4 453.187 419.888" stroke="#171717" stroke-miterlimit="10" stroke-linecap="round"/>
<path d="M476.982 389.036L469.998 400.493" stroke="#171717" stroke-miterlimit="10" stroke-linecap="round"/>
<path d="M497.574 399.741L493.058 404.088C492.571 404.555 492.048 404.983 491.501 405.363L460.964 426.571C460.777 426.7 460.532 426.727 460.316 426.644L457.998 425.738C457.429 425.516 457.415 424.739 457.958 424.468C459.966 423.442 462.895 420.188 465.136 410.35" stroke="#171717" stroke-miterlimit="10" stroke-linecap="round"/>
<path d="M494.297 315.626C494.297 315.626 487.635 321.773 494.129 325.987" stroke="#171717" stroke-miterlimit="10" stroke-linecap="round"/>
<path d="M532.079 368.631C532.079 368.631 521.778 370.623 522.509 377.762" stroke="#171717" stroke-miterlimit="10" stroke-linecap="round"/>
</g>
<rect x="1" y="1" width="599" height="449" rx="23.5" stroke="#171717"/>
<defs>
<clipPath id="clip0_3177_33564">
<rect x="0.5" y="0.5" width="600" height="450" rx="24" fill="white"/>
</clipPath>
<clipPath id="clip1_3177_33564">
<rect x="286.5" y="200.5" width="233" height="138" rx="12" fill="white"/>
</clipPath>
</defs>
</svg>
