<svg width="672" height="527" viewBox="0 0 672 527" fill="none" xmlns="http://www.w3.org/2000/svg">
<rect x="-0.5" y="0.5" width="128" height="224" rx="14.5" transform="matrix(-1 0 0 1 570 28)" fill="#F5F5F5" stroke="#262626"/>
<path d="M450.684 218.25L474.5 177L498.316 218.25H450.684Z" fill="#4ADE80" stroke="#171717"/>
<path d="M450.684 161.25L474.5 120L498.316 161.25H450.684Z" fill="#4ADE80" stroke="#171717"/>
<path d="M497.684 188.25L521.5 147L545.316 188.25H497.684Z" fill="#4ADE80" stroke="#171717"/>
<path d="M450.684 104.25L474.5 63L498.316 104.25H450.684Z" fill="#4ADE80" stroke="#171717"/>
<path d="M497.684 131.25L521.5 90L545.316 131.25H497.684Z" fill="#4ADE80" stroke="#171717"/>
<rect x="-0.5" y="0.5" width="87" height="224" rx="14.5" transform="matrix(-1 0 0 1 671 28)" fill="#F5F5F5" stroke="#262626"/>
<circle cx="19.6" cy="19.6" r="19.6" transform="matrix(-1 0 0 1 647.2 66)" fill="#FBBF24" stroke="#171717"/>
<circle cx="19.6" cy="19.6" r="19.1" transform="matrix(-1 0 0 1 647.2 121.2)" fill="#FBBF24" stroke="#171717"/>
<circle cx="19.6" cy="19.6" r="19.6" transform="matrix(-1 0 0 1 647.2 176.4)" fill="#FBBF24" stroke="#171717"/>
<rect x="103.5" y="265.5" width="128" height="224" rx="14.5" fill="#F5F5F5" stroke="#262626"/>
<path d="M195.5 413L170.818 455.75H220.182L195.5 413Z" fill="#E5E5E5"/>
<path d="M195.5 356L170.818 398.75H220.182L195.5 356Z" fill="#E5E5E5"/>
<path d="M148.5 383L123.818 425.75H173.182L148.5 383Z" fill="#E5E5E5"/>
<path d="M195.5 299L170.818 341.75H220.182L195.5 299Z" fill="#E5E5E5"/>
<path d="M148.5 326L123.818 368.75H173.182L148.5 326Z" fill="#E5E5E5"/>
<rect x="0.5" y="27.5" width="231" height="224" rx="14.5" fill="#F5F5F5" stroke="#262626"/>
<rect x="440.5" y="265.5" width="231" height="224" rx="14.5" fill="#FAFAFA" stroke="#262626"/>
<rect x="0.5" y="265.5" width="87" height="224" rx="14.5" fill="#F5F5F5" stroke="#262626"/>
<rect x="383.5" y="4.5" width="51" height="30" rx="4.5" fill="#93C5FD" stroke="#171717"/>
<path d="M264.408 49.816C277.888 49.816 288.816 38.8882 288.816 25.408C288.816 11.9278 277.888 1 264.408 1C250.928 1 240 11.9278 240 25.408C240 38.8882 250.928 49.816 264.408 49.816Z" fill="#F5F5F5" stroke="black" stroke-miterlimit="10"/>
<path d="M264.408 41.0312V49.7192" stroke="black" stroke-miterlimit="10"/>
<path d="M264.408 1.0957V9.7777" stroke="black" stroke-miterlimit="10"/>
<path d="M269.754 40.0957L272.724 48.2497" stroke="black" stroke-miterlimit="10"/>
<path d="M256.092 2.56543L259.062 10.7194" stroke="black" stroke-miterlimit="10"/>
<path d="M274.452 37.3779L280.032 44.0319" stroke="black" stroke-miterlimit="10"/>
<path d="M248.778 6.7832L254.208 13.2512" stroke="black" stroke-miterlimit="10"/>
<path d="M277.938 33.2197L285.462 37.5637" stroke="black" stroke-miterlimit="10"/>
<path d="M243.354 13.252L250.872 17.596" stroke="black" stroke-miterlimit="10"/>
<path d="M279.798 28.1191L288.348 29.6251" stroke="black" stroke-miterlimit="10"/>
<path d="M240.468 21.1836L248.778 22.6536" stroke="black" stroke-miterlimit="10"/>
<path d="M279.798 22.6956L288.348 21.1836" stroke="black" stroke-miterlimit="10"/>
<path d="M240.468 29.6251L249.018 28.1191" stroke="black" stroke-miterlimit="10"/>
<path d="M277.938 17.596L285.462 13.252" stroke="black" stroke-miterlimit="10"/>
<path d="M243.354 37.5637L250.872 33.2197" stroke="black" stroke-miterlimit="10"/>
<path d="M274.452 13.4372L280.032 6.7832" stroke="black" stroke-miterlimit="10"/>
<path d="M248.778 44.0319L254.364 37.3779" stroke="black" stroke-miterlimit="10"/>
<path d="M269.754 10.7194L272.724 2.56543" stroke="black" stroke-miterlimit="10"/>
<path d="M256.092 48.2497L259.062 40.0957" stroke="black" stroke-miterlimit="10"/>
<rect x="214" y="18" width="245" height="484" rx="18" fill="white"/>
<rect x="214" y="18" width="245" height="484" rx="18" stroke="#171717"/>
<rect x="236.5" y="40.5" width="200" height="284" rx="7.5" fill="white"/>
<rect x="236.5" y="40.5" width="200" height="284" rx="7.5" stroke="#171717"/>
<g clip-path="url(#clip0_3271_30996)">
<mask id="path-42-inside-1_3271_30996" fill="white">
<path d="M236 48C236 43.5817 239.582 40 244 40H429C433.418 40 437 43.5817 437 48V170H236V48Z"/>
</mask>
<rect width="201" height="130" transform="translate(236 40)" fill="#9EC5FF"/>
<path fill-rule="evenodd" clip-rule="evenodd" d="M337.992 85.75C329.117 85.75 321.41 90.815 315.272 101.646C314.796 102.486 313.728 102.782 312.887 102.305C312.046 101.829 311.751 100.761 312.227 99.92C318.77 88.3735 327.473 82.25 337.992 82.25C340.57 82.25 342.739 83.0092 344.264 84.5341C345.785 86.0554 346.455 88.1281 346.455 90.3402C346.455 92.8824 345.312 94.8535 343.818 96.4279C342.392 97.9311 340.534 99.1865 338.87 100.311L338.785 100.368C337.021 101.56 335.468 102.619 334.331 103.817C333.238 104.97 332.656 106.122 332.656 107.496C332.656 108.406 332.985 109.372 333.643 110.092C334.27 110.778 335.281 111.34 336.873 111.34C338.839 111.34 340.194 110.684 341.676 109.876C341.787 109.815 341.9 109.752 342.016 109.688C343.392 108.929 345.105 107.984 347.315 107.984C348.95 107.984 350.411 108.454 351.492 109.39C352.586 110.339 353.168 111.666 353.168 113.09C353.168 115.135 352.355 116.364 351.628 117.213C351.447 117.424 351.324 117.558 351.23 117.661C351.13 117.77 351.063 117.845 350.991 117.938C351.006 117.962 351.024 117.989 351.046 118.02C351.217 118.265 351.507 118.584 351.93 118.968C352.77 119.73 353.937 120.568 355.167 121.365C356.384 122.154 357.609 122.869 358.533 123.388C358.995 123.647 359.378 123.856 359.645 123.999C359.779 124.071 359.883 124.126 359.953 124.163L360.032 124.205L360.051 124.214L360.055 124.217C360.055 124.217 360.055 124.217 360.055 124.217C360.913 124.662 361.248 125.718 360.803 126.576C360.358 127.434 359.302 127.769 358.444 127.324L359.25 125.77C358.444 127.324 358.444 127.324 358.444 127.324L358.434 127.319L358.41 127.306L358.321 127.259C358.243 127.218 358.131 127.159 357.989 127.083C357.706 126.93 357.302 126.711 356.819 126.44C355.856 125.898 354.563 125.145 353.263 124.302C351.975 123.467 350.625 122.51 349.578 121.56C349.056 121.086 348.559 120.57 348.18 120.029C347.825 119.522 347.43 118.795 347.43 117.939C347.43 117.074 347.772 116.417 348.11 115.949C348.305 115.677 348.606 115.342 348.808 115.117C348.876 115.042 348.933 114.979 348.97 114.935C349.362 114.478 349.668 114.028 349.668 113.09C349.668 112.65 349.503 112.299 349.199 112.035C348.882 111.76 348.292 111.484 347.315 111.484C346.033 111.484 345.072 112.009 343.536 112.847C343.476 112.88 343.414 112.914 343.352 112.948C341.756 113.819 339.755 114.84 336.873 114.84C334.362 114.84 332.39 113.91 331.058 112.452C329.758 111.028 329.156 109.197 329.156 107.496C329.156 104.954 330.298 102.983 331.792 101.408C333.218 99.905 335.076 98.6496 336.741 97.5252L336.825 97.468C338.59 96.276 340.142 95.2176 341.279 94.019C342.373 92.8663 342.955 91.7139 342.955 90.3402C342.955 88.8227 342.505 87.7254 341.789 87.009C341.076 86.2961 339.888 85.75 337.992 85.75Z" fill="#171717"/>
</g>
<path d="M235 48C235 43.0294 239.029 39 244 39H429C433.971 39 438 43.0294 438 48H436C436 44.134 432.866 41 429 41H244C240.134 41 237 44.134 237 48H235ZM437 170H236H437ZM235 170V48C235 43.0294 239.029 39 244 39V41C240.134 41 237 44.134 237 48V170H235ZM429 39C433.971 39 438 43.0294 438 48V170H436V48C436 44.134 432.866 41 429 41V39Z" fill="#171717" mask="url(#path-42-inside-1_3271_30996)"/>
<path d="M256.13 201.168C254.492 201.168 253.372 200.524 252.56 199.516L253.652 198.494C254.338 199.334 255.15 199.768 256.214 199.768C257.46 199.768 258.104 199.152 258.104 198.214C258.104 197.458 257.712 197.024 256.578 196.8L255.71 196.646C253.82 196.296 252.854 195.414 252.854 193.86C252.854 192.124 254.198 191.06 256.27 191.06C257.74 191.06 258.818 191.592 259.574 192.558L258.468 193.538C257.964 192.88 257.264 192.46 256.186 192.46C255.066 192.46 254.422 192.922 254.422 193.776C254.422 194.588 254.926 194.938 255.976 195.148L256.844 195.33C258.79 195.708 259.672 196.576 259.672 198.13C259.672 199.95 258.37 201.168 256.13 201.168ZM264.315 201.168C262.243 201.168 260.969 199.684 260.969 197.36C260.969 195.036 262.243 193.552 264.315 193.552C266.457 193.552 267.549 195.162 267.549 197.178V197.752H262.551V197.99C262.551 199.11 263.237 199.908 264.469 199.908C265.365 199.908 265.967 199.488 266.387 198.816L267.283 199.698C266.737 200.58 265.673 201.168 264.315 201.168ZM264.315 194.742C263.265 194.742 262.551 195.526 262.551 196.646V196.744H265.939V196.604C265.939 195.484 265.323 194.742 264.315 194.742ZM275.622 201.686C275.622 203.198 274.544 203.968 271.926 203.968C269.546 203.968 268.622 203.324 268.622 202.218C268.622 201.42 269.098 200.986 269.868 200.818V200.664C269.336 200.496 269.042 200.09 269.042 199.544C269.042 198.788 269.63 198.424 270.33 198.256V198.2C269.476 197.794 269 197.024 269 196.044C269 194.56 270.05 193.552 271.898 193.552C272.388 193.552 272.836 193.622 273.214 193.776V193.58C273.214 192.936 273.522 192.544 274.166 192.544H275.286V193.776H273.802V194.07C274.46 194.504 274.824 195.204 274.824 196.044C274.824 197.514 273.76 198.508 271.912 198.508C271.562 198.508 271.226 198.466 270.96 198.396C270.596 198.522 270.26 198.76 270.26 199.124C270.26 199.516 270.638 199.67 271.282 199.67H273.074C274.866 199.67 275.622 200.426 275.622 201.686ZM274.194 201.854C274.194 201.35 273.858 201.028 272.864 201.028H270.4C270.064 201.224 269.896 201.518 269.896 201.868C269.896 202.456 270.33 202.862 271.464 202.862H272.416C273.606 202.862 274.194 202.526 274.194 201.854ZM271.912 197.402C272.808 197.402 273.326 196.996 273.326 196.17V195.89C273.326 195.064 272.808 194.658 271.912 194.658C271.016 194.658 270.498 195.064 270.498 195.89V196.17C270.498 196.996 271.016 197.402 271.912 197.402ZM278.284 201H276.758V193.72H278.284V194.924H278.354C278.648 194.168 279.194 193.552 280.3 193.552C281.28 193.552 282.106 194.028 282.456 195.036H282.498C282.764 194.224 283.52 193.552 284.696 193.552C286.138 193.552 286.992 194.588 286.992 196.38V201H285.466V196.562C285.466 195.442 285.046 194.868 284.122 194.868C283.352 194.868 282.638 195.274 282.638 196.114V201H281.112V196.562C281.112 195.428 280.678 194.868 279.782 194.868C279.026 194.868 278.284 195.274 278.284 196.114V201ZM291.96 201.168C289.888 201.168 288.614 199.684 288.614 197.36C288.614 195.036 289.888 193.552 291.96 193.552C294.102 193.552 295.194 195.162 295.194 197.178V197.752H290.196V197.99C290.196 199.11 290.882 199.908 292.114 199.908C293.01 199.908 293.612 199.488 294.032 198.816L294.928 199.698C294.382 200.58 293.318 201.168 291.96 201.168ZM291.96 194.742C290.91 194.742 290.196 195.526 290.196 196.646V196.744H293.584V196.604C293.584 195.484 292.968 194.742 291.96 194.742ZM298.409 201H296.883V193.72H298.409V194.924H298.479C298.787 194.14 299.403 193.552 300.523 193.552C302.007 193.552 302.889 194.588 302.889 196.38V201H301.363V196.576C301.363 195.442 300.929 194.868 299.991 194.868C299.193 194.868 298.409 195.274 298.409 196.128V201ZM308.35 201H307.02C305.97 201 305.41 200.412 305.41 199.418V194.966H304.276V193.72H304.892C305.396 193.72 305.564 193.51 305.564 193.006V191.732H306.936V193.72H308.462V194.966H306.936V199.754H308.35V201ZM321.294 201H319.642L318.76 198.354H315.106L314.252 201H312.642L315.974 191.228H317.962L321.294 201ZM318.368 196.996L316.968 192.684H316.898L315.484 196.996H318.368ZM324.222 201H322.696V193.72H324.222V194.924H324.292C324.6 194.14 325.216 193.552 326.336 193.552C327.82 193.552 328.702 194.588 328.702 196.38V201H327.176V196.576C327.176 195.442 326.742 194.868 325.804 194.868C325.006 194.868 324.222 195.274 324.222 196.128V201ZM333.717 198.004L335.173 193.72H336.643L333.577 202.442C333.227 203.422 332.793 203.8 331.659 203.8H330.777V202.554H332.009L332.429 201.322L329.783 193.72H331.309L332.765 198.004L333.185 199.586H333.255L333.717 198.004ZM341.245 201H339.915C338.865 201 338.305 200.412 338.305 199.418V194.966H337.171V193.72H337.787C338.291 193.72 338.459 193.51 338.459 193.006V191.732H339.831V193.72H341.357V194.966H339.831V199.754H341.245V201ZM343.012 201V190.64H344.538V194.924H344.608C344.916 194.14 345.532 193.552 346.652 193.552C348.136 193.552 349.018 194.588 349.018 196.38V201H347.492V196.562C347.492 195.442 347.058 194.868 346.12 194.868C345.322 194.868 344.538 195.274 344.538 196.114V201H343.012ZM351.903 192.418C351.273 192.418 350.993 192.082 350.993 191.62V191.382C350.993 190.92 351.273 190.584 351.903 190.584C352.533 190.584 352.799 190.92 352.799 191.382V191.62C352.799 192.082 352.533 192.418 351.903 192.418ZM351.133 201V193.72H352.659V201H351.133ZM356.364 201H354.838V193.72H356.364V194.924H356.434C356.742 194.14 357.358 193.552 358.478 193.552C359.962 193.552 360.844 194.588 360.844 196.38V201H359.318V196.576C359.318 195.442 358.884 194.868 357.946 194.868C357.148 194.868 356.364 195.274 356.364 196.128V201ZM369.343 201.686C369.343 203.198 368.265 203.968 365.647 203.968C363.267 203.968 362.343 203.324 362.343 202.218C362.343 201.42 362.819 200.986 363.589 200.818V200.664C363.057 200.496 362.763 200.09 362.763 199.544C362.763 198.788 363.351 198.424 364.051 198.256V198.2C363.197 197.794 362.721 197.024 362.721 196.044C362.721 194.56 363.771 193.552 365.619 193.552C366.109 193.552 366.557 193.622 366.935 193.776V193.58C366.935 192.936 367.243 192.544 367.887 192.544H369.007V193.776H367.523V194.07C368.181 194.504 368.545 195.204 368.545 196.044C368.545 197.514 367.481 198.508 365.633 198.508C365.283 198.508 364.947 198.466 364.681 198.396C364.317 198.522 363.981 198.76 363.981 199.124C363.981 199.516 364.359 199.67 365.003 199.67H366.795C368.587 199.67 369.343 200.426 369.343 201.686ZM367.915 201.854C367.915 201.35 367.579 201.028 366.585 201.028H364.121C363.785 201.224 363.617 201.518 363.617 201.868C363.617 202.456 364.051 202.862 365.185 202.862H366.137C367.327 202.862 367.915 202.526 367.915 201.854ZM365.633 197.402C366.529 197.402 367.047 196.996 367.047 196.17V195.89C367.047 195.064 366.529 194.658 365.633 194.658C364.737 194.658 364.219 195.064 364.219 195.89V196.17C364.219 196.996 364.737 197.402 365.633 197.402Z" fill="#171717"/>
<path d="M255.468 227.144C254.124 227.144 253.176 226.592 252.504 225.68L253.248 225.056C253.836 225.836 254.532 226.256 255.504 226.256C256.704 226.256 257.352 225.632 257.352 224.672C257.352 223.88 256.908 223.484 255.804 223.232L255.12 223.076C253.596 222.728 252.756 222.056 252.756 220.772C252.756 219.284 253.884 218.48 255.528 218.48C256.788 218.48 257.676 218.96 258.3 219.848L257.544 220.4C257.088 219.764 256.452 219.368 255.48 219.368C254.412 219.368 253.752 219.836 253.752 220.736C253.752 221.528 254.268 221.888 255.324 222.128L256.008 222.284C257.64 222.656 258.348 223.376 258.348 224.624C258.348 226.16 257.268 227.144 255.468 227.144ZM263.809 227V225.992H263.761C263.521 226.58 263.053 227.144 262.021 227.144C260.749 227.144 259.933 226.28 259.933 224.78V220.808H260.893V224.612C260.893 225.716 261.385 226.28 262.309 226.28C263.065 226.28 263.809 225.908 263.809 225.092V220.808H264.769V227H263.809ZM266.813 229.4V220.808H267.773V221.816H267.821C268.145 221.036 268.781 220.664 269.633 220.664C271.181 220.664 272.153 221.924 272.153 223.904C272.153 225.884 271.181 227.144 269.633 227.144C268.781 227.144 268.193 226.76 267.821 225.992H267.773V229.4H266.813ZM269.369 226.28C270.449 226.28 271.121 225.536 271.121 224.432V223.376C271.121 222.272 270.449 221.528 269.369 221.528C268.493 221.528 267.773 222.032 267.773 222.716V225.02C267.773 225.824 268.493 226.28 269.369 226.28ZM276.102 227.144C274.422 227.144 273.318 225.872 273.318 223.904C273.318 221.936 274.422 220.664 276.102 220.664C277.758 220.664 278.778 221.936 278.778 223.688V224.144H274.326V224.432C274.326 225.5 275.01 226.304 276.162 226.304C276.942 226.304 277.542 225.92 277.866 225.236L278.55 225.728C278.154 226.568 277.266 227.144 276.102 227.144ZM276.102 221.468C275.058 221.468 274.326 222.26 274.326 223.34V223.424H277.746V223.292C277.746 222.2 277.086 221.468 276.102 221.468ZM281.32 227H280.36V220.808H281.32V221.948H281.38C281.596 221.36 282.16 220.808 283.168 220.808H283.54V221.768H282.976C281.944 221.768 281.32 222.212 281.32 222.8V227ZM287.938 227V221.648H286.93V220.808H287.938V219.56C287.938 218.708 288.382 218.12 289.294 218.12H290.23V218.96H288.898V220.808H290.23V221.648H288.898V227H287.938ZM296.533 227H295.993C295.285 227 294.997 226.568 294.925 225.992H294.865C294.601 226.748 293.941 227.144 293.077 227.144C291.769 227.144 291.001 226.424 291.001 225.272C291.001 224.108 291.841 223.46 293.641 223.46H294.865V222.848C294.865 221.972 294.385 221.492 293.401 221.492C292.657 221.492 292.165 221.852 291.829 222.416L291.253 221.876C291.589 221.216 292.333 220.664 293.449 220.664C294.937 220.664 295.825 221.444 295.825 222.752V226.16H296.533V227ZM293.233 226.328C294.181 226.328 294.865 225.836 294.865 225.2V224.18H293.593C292.501 224.18 292.009 224.516 292.009 225.116V225.368C292.009 225.98 292.489 226.328 293.233 226.328ZM299.763 227.144C298.623 227.144 297.867 226.664 297.315 225.932L297.999 225.38C298.479 225.98 299.055 226.328 299.835 226.328C300.651 226.328 301.131 225.956 301.131 225.32C301.131 224.84 300.867 224.468 300.051 224.348L299.559 224.276C298.419 224.108 297.567 223.64 297.567 222.488C297.567 221.264 298.515 220.664 299.775 220.664C300.771 220.664 301.431 221.036 301.935 221.66L301.299 222.236C301.023 221.852 300.495 221.48 299.703 221.48C298.911 221.48 298.491 221.852 298.491 222.44C298.491 223.04 298.911 223.28 299.679 223.4L300.159 223.472C301.527 223.676 302.055 224.276 302.055 225.212C302.055 226.412 301.179 227.144 299.763 227.144ZM306.236 227H305.036C304.376 227 304.016 226.58 304.016 225.98V221.648H302.996V220.808H303.572C303.98 220.808 304.112 220.664 304.112 220.244V219.092H304.976V220.808H306.332V221.648H304.976V226.16H306.236V227ZM311.191 219.356C310.783 219.356 310.603 219.14 310.603 218.816V218.66C310.603 218.336 310.783 218.12 311.191 218.12C311.599 218.12 311.779 218.336 311.779 218.66V218.816C311.779 219.14 311.599 219.356 311.191 219.356ZM310.711 227V220.808H311.671V227H310.711ZM314.671 227H313.711V220.808H314.671V221.816H314.719C314.995 221.18 315.427 220.664 316.387 220.664C317.203 220.664 317.947 221.036 318.283 221.924H318.307C318.535 221.252 319.135 220.664 320.191 220.664C321.451 220.664 322.207 221.528 322.207 223.028V227H321.247V223.196C321.247 222.104 320.827 221.528 319.891 221.528C319.135 221.528 318.439 221.912 318.439 222.704V227H317.479V223.196C317.479 222.092 317.059 221.528 316.147 221.528C315.391 221.528 314.671 221.912 314.671 222.704V227ZM329.228 227H328.688C327.98 227 327.692 226.568 327.62 225.992H327.56C327.296 226.748 326.636 227.144 325.772 227.144C324.464 227.144 323.696 226.424 323.696 225.272C323.696 224.108 324.536 223.46 326.336 223.46H327.56V222.848C327.56 221.972 327.08 221.492 326.096 221.492C325.352 221.492 324.86 221.852 324.524 222.416L323.948 221.876C324.284 221.216 325.028 220.664 326.144 220.664C327.632 220.664 328.52 221.444 328.52 222.752V226.16H329.228V227ZM325.928 226.328C326.876 226.328 327.56 225.836 327.56 225.2V224.18H326.288C325.196 224.18 324.704 224.516 324.704 225.116V225.368C324.704 225.98 325.184 226.328 325.928 226.328ZM335.818 227.684C335.818 228.956 334.81 229.544 332.818 229.544C330.886 229.544 330.094 228.992 330.094 228.02C330.094 227.348 330.466 226.988 331.078 226.82V226.688C330.73 226.52 330.526 226.244 330.526 225.824C330.526 225.2 330.97 224.9 331.594 224.744V224.696C330.862 224.348 330.43 223.664 330.43 222.8C330.43 221.54 331.354 220.664 332.758 220.664C333.202 220.664 333.598 220.748 333.934 220.904V220.796C333.934 220.316 334.138 219.968 334.654 219.968H335.578V220.808H334.402V221.204C334.846 221.588 335.11 222.14 335.11 222.8C335.11 224.06 334.186 224.936 332.77 224.936C332.566 224.936 332.35 224.912 332.17 224.876C331.762 224.984 331.354 225.188 331.354 225.572C331.354 225.944 331.738 226.04 332.302 226.04H333.622C335.158 226.04 335.818 226.664 335.818 227.684ZM334.918 227.756C334.918 227.264 334.594 226.94 333.634 226.94H331.57C331.174 227.12 330.994 227.396 330.994 227.78C330.994 228.32 331.366 228.764 332.338 228.764H333.226C334.294 228.764 334.918 228.428 334.918 227.756ZM332.77 224.168C333.586 224.168 334.102 223.784 334.102 222.968V222.632C334.102 221.816 333.586 221.432 332.77 221.432C331.954 221.432 331.438 221.816 331.438 222.632V222.968C331.438 223.784 331.954 224.168 332.77 224.168ZM339.196 227.144C337.516 227.144 336.412 225.872 336.412 223.904C336.412 221.936 337.516 220.664 339.196 220.664C340.852 220.664 341.872 221.936 341.872 223.688V224.144H337.42V224.432C337.42 225.5 338.104 226.304 339.256 226.304C340.036 226.304 340.636 225.92 340.96 225.236L341.644 225.728C341.248 226.568 340.36 227.144 339.196 227.144ZM339.196 221.468C338.152 221.468 337.42 222.26 337.42 223.34V223.424H340.84V223.292C340.84 222.2 340.18 221.468 339.196 221.468ZM348.15 227.144C347.01 227.144 346.254 226.664 345.702 225.932L346.386 225.38C346.866 225.98 347.442 226.328 348.222 226.328C349.038 226.328 349.518 225.956 349.518 225.32C349.518 224.84 349.254 224.468 348.438 224.348L347.946 224.276C346.806 224.108 345.954 223.64 345.954 222.488C345.954 221.264 346.902 220.664 348.162 220.664C349.158 220.664 349.818 221.036 350.322 221.66L349.686 222.236C349.41 221.852 348.882 221.48 348.09 221.48C347.298 221.48 346.878 221.852 346.878 222.44C346.878 223.04 347.298 223.28 348.066 223.4L348.546 223.472C349.914 223.676 350.442 224.276 350.442 225.212C350.442 226.412 349.566 227.144 348.15 227.144ZM354.465 227.144C352.785 227.144 351.681 225.872 351.681 223.904C351.681 221.936 352.785 220.664 354.465 220.664C356.121 220.664 357.141 221.936 357.141 223.688V224.144H352.689V224.432C352.689 225.5 353.373 226.304 354.525 226.304C355.305 226.304 355.905 225.92 356.229 225.236L356.913 225.728C356.517 226.568 355.629 227.144 354.465 227.144ZM354.465 221.468C353.421 221.468 352.689 222.26 352.689 223.34V223.424H356.109V223.292C356.109 222.2 355.449 221.468 354.465 221.468ZM363.943 227.684C363.943 228.956 362.935 229.544 360.943 229.544C359.011 229.544 358.219 228.992 358.219 228.02C358.219 227.348 358.591 226.988 359.203 226.82V226.688C358.855 226.52 358.651 226.244 358.651 225.824C358.651 225.2 359.095 224.9 359.719 224.744V224.696C358.987 224.348 358.555 223.664 358.555 222.8C358.555 221.54 359.479 220.664 360.883 220.664C361.327 220.664 361.723 220.748 362.059 220.904V220.796C362.059 220.316 362.263 219.968 362.779 219.968H363.703V220.808H362.527V221.204C362.971 221.588 363.235 222.14 363.235 222.8C363.235 224.06 362.311 224.936 360.895 224.936C360.691 224.936 360.475 224.912 360.295 224.876C359.887 224.984 359.479 225.188 359.479 225.572C359.479 225.944 359.863 226.04 360.427 226.04H361.747C363.283 226.04 363.943 226.664 363.943 227.684ZM363.043 227.756C363.043 227.264 362.719 226.94 361.759 226.94H359.695C359.299 227.12 359.119 227.396 359.119 227.78C359.119 228.32 359.491 228.764 360.463 228.764H361.351C362.419 228.764 363.043 228.428 363.043 227.756ZM360.895 224.168C361.711 224.168 362.227 223.784 362.227 222.968V222.632C362.227 221.816 361.711 221.432 360.895 221.432C360.079 221.432 359.563 221.816 359.563 222.632V222.968C359.563 223.784 360.079 224.168 360.895 224.168ZM366.023 227H365.063V220.808H366.023V221.816H366.071C366.347 221.18 366.779 220.664 367.739 220.664C368.555 220.664 369.299 221.036 369.635 221.924H369.659C369.887 221.252 370.487 220.664 371.543 220.664C372.803 220.664 373.559 221.528 373.559 223.028V227H372.599V223.196C372.599 222.104 372.179 221.528 371.243 221.528C370.487 221.528 369.791 221.912 369.791 222.704V227H368.831V223.196C368.831 222.092 368.411 221.528 367.499 221.528C366.743 221.528 366.023 221.912 366.023 222.704V227ZM377.868 227.144C376.188 227.144 375.084 225.872 375.084 223.904C375.084 221.936 376.188 220.664 377.868 220.664C379.524 220.664 380.544 221.936 380.544 223.688V224.144H376.092V224.432C376.092 225.5 376.776 226.304 377.928 226.304C378.708 226.304 379.308 225.92 379.632 225.236L380.316 225.728C379.92 226.568 379.032 227.144 377.868 227.144ZM377.868 221.468C376.824 221.468 376.092 222.26 376.092 223.34V223.424H379.512V223.292C379.512 222.2 378.852 221.468 377.868 221.468ZM383.085 227H382.125V220.808H383.085V221.816H383.133C383.433 221.12 383.961 220.664 384.885 220.664C386.157 220.664 386.961 221.528 386.961 223.028V227H386.001V223.196C386.001 222.092 385.521 221.528 384.597 221.528C383.829 221.528 383.085 221.912 383.085 222.704V227ZM391.514 227H390.314C389.654 227 389.294 226.58 389.294 225.98V221.648H388.274V220.808H388.85C389.258 220.808 389.39 220.664 389.39 220.244V219.092H390.254V220.808H391.61V221.648H390.254V226.16H391.514V227ZM398.193 227H397.653C396.945 227 396.657 226.568 396.585 225.992H396.525C396.261 226.748 395.601 227.144 394.737 227.144C393.429 227.144 392.661 226.424 392.661 225.272C392.661 224.108 393.501 223.46 395.301 223.46H396.525V222.848C396.525 221.972 396.045 221.492 395.061 221.492C394.317 221.492 393.825 221.852 393.489 222.416L392.913 221.876C393.249 221.216 393.993 220.664 395.109 220.664C396.597 220.664 397.485 221.444 397.485 222.752V226.16H398.193V227ZM394.893 226.328C395.841 226.328 396.525 225.836 396.525 225.2V224.18H395.253C394.161 224.18 393.669 224.516 393.669 225.116V225.368C393.669 225.98 394.149 226.328 394.893 226.328ZM402.131 227H400.931C400.271 227 399.911 226.58 399.911 225.98V221.648H398.891V220.808H399.467C399.875 220.808 400.007 220.664 400.007 220.244V219.092H400.871V220.808H402.227V221.648H400.871V226.16H402.131V227ZM404.25 219.356C403.842 219.356 403.662 219.14 403.662 218.816V218.66C403.662 218.336 403.842 218.12 404.25 218.12C404.658 218.12 404.838 218.336 404.838 218.66V218.816C404.838 219.14 404.658 219.356 404.25 219.356ZM403.77 227V220.808H404.73V227H403.77ZM409.11 227.144C407.454 227.144 406.314 225.872 406.314 223.904C406.314 221.936 407.454 220.664 409.11 220.664C410.766 220.664 411.906 221.936 411.906 223.904C411.906 225.872 410.766 227.144 409.11 227.144ZM409.11 226.292C410.142 226.292 410.874 225.656 410.874 224.348V223.46C410.874 222.152 410.142 221.516 409.11 221.516C408.078 221.516 407.346 222.152 407.346 223.46V224.348C407.346 225.656 408.078 226.292 409.11 226.292ZM414.445 227H413.485V220.808H414.445V221.816H414.493C414.793 221.12 415.321 220.664 416.245 220.664C417.517 220.664 418.321 221.528 418.321 223.028V227H417.361V223.196C417.361 222.092 416.881 221.528 415.957 221.528C415.189 221.528 414.445 221.912 414.445 222.704V227ZM253.02 245.4V236.808H253.98V237.816H254.028C254.352 237.036 254.988 236.664 255.84 236.664C257.388 236.664 258.36 237.924 258.36 239.904C258.36 241.884 257.388 243.144 255.84 243.144C254.988 243.144 254.4 242.76 254.028 241.992H253.98V245.4H253.02ZM255.576 242.28C256.656 242.28 257.328 241.536 257.328 240.432V239.376C257.328 238.272 256.656 237.528 255.576 237.528C254.7 237.528 253.98 238.032 253.98 238.716V241.02C253.98 241.824 254.7 242.28 255.576 242.28ZM262.321 243.144C260.665 243.144 259.525 241.872 259.525 239.904C259.525 237.936 260.665 236.664 262.321 236.664C263.977 236.664 265.117 237.936 265.117 239.904C265.117 241.872 263.977 243.144 262.321 243.144ZM262.321 242.292C263.353 242.292 264.085 241.656 264.085 240.348V239.46C264.085 238.152 263.353 237.516 262.321 237.516C261.289 237.516 260.557 238.152 260.557 239.46V240.348C260.557 241.656 261.289 242.292 262.321 242.292ZM267.645 243L265.989 236.808H266.925L267.585 239.484L268.245 242.196H268.269L269.025 239.484L269.805 236.808H270.657L271.461 239.484L272.229 242.196H272.253L272.889 239.484L273.561 236.808H274.461L272.817 243H271.629L270.765 240.024L270.225 238.14H270.201L269.673 240.024L268.809 243H267.645ZM278.118 243.144C276.438 243.144 275.334 241.872 275.334 239.904C275.334 237.936 276.438 236.664 278.118 236.664C279.774 236.664 280.794 237.936 280.794 239.688V240.144H276.342V240.432C276.342 241.5 277.026 242.304 278.178 242.304C278.958 242.304 279.558 241.92 279.882 241.236L280.566 241.728C280.17 242.568 279.282 243.144 278.118 243.144ZM278.118 237.468C277.074 237.468 276.342 238.26 276.342 239.34V239.424H279.762V239.292C279.762 238.2 279.102 237.468 278.118 237.468ZM283.335 243H282.375V236.808H283.335V237.948H283.395C283.611 237.36 284.175 236.808 285.183 236.808H285.555V237.768H284.991C283.959 237.768 283.335 238.212 283.335 238.8V243ZM289.051 243.144C287.371 243.144 286.267 241.872 286.267 239.904C286.267 237.936 287.371 236.664 289.051 236.664C290.707 236.664 291.727 237.936 291.727 239.688V240.144H287.275V240.432C287.275 241.5 287.959 242.304 289.111 242.304C289.891 242.304 290.491 241.92 290.815 241.236L291.499 241.728C291.103 242.568 290.215 243.144 289.051 243.144ZM289.051 237.468C288.007 237.468 287.275 238.26 287.275 239.34V239.424H290.695V239.292C290.695 238.2 290.035 237.468 289.051 237.468ZM297.269 243V241.992H297.221C296.849 242.76 296.261 243.144 295.409 243.144C293.861 243.144 292.889 241.884 292.889 239.904C292.889 237.924 293.861 236.664 295.409 236.664C296.261 236.664 296.897 237.036 297.221 237.816H297.269V234.12H298.229V243H297.269ZM295.673 242.28C296.549 242.28 297.269 241.824 297.269 241.02V238.716C297.269 238.032 296.549 237.528 295.673 237.528C294.593 237.528 293.921 238.272 293.921 239.376V240.432C293.921 241.536 294.593 242.28 295.673 242.28ZM303.106 243V234.12H304.066V237.816H304.114C304.438 237.036 305.074 236.664 305.926 236.664C307.474 236.664 308.446 237.924 308.446 239.904C308.446 241.884 307.474 243.144 305.926 243.144C305.074 243.144 304.486 242.76 304.114 241.992H304.066V243H303.106ZM305.662 242.28C306.742 242.28 307.414 241.536 307.414 240.432V239.376C307.414 238.272 306.742 237.528 305.662 237.528C304.786 237.528 304.066 238.032 304.066 238.716V241.02C304.066 241.824 304.786 242.28 305.662 242.28ZM312.324 241.02L313.824 236.808H314.772L312 244.44C311.724 245.184 311.472 245.4 310.56 245.4H310.068V244.56H311.04L311.508 243.24L309.192 236.808H310.152L311.64 241.02L311.928 242.028H311.988L312.324 241.02ZM318.929 243V234.624H320.273L322.673 239.136H322.733L325.145 234.624H326.441V243H325.457V235.944H325.397L324.689 237.348L322.685 240.996L320.681 237.348L319.973 235.944H319.913V243H318.929ZM330.899 243.144C329.219 243.144 328.115 241.872 328.115 239.904C328.115 237.936 329.219 236.664 330.899 236.664C332.555 236.664 333.575 237.936 333.575 239.688V240.144H329.123V240.432C329.123 241.5 329.807 242.304 330.959 242.304C331.739 242.304 332.339 241.92 332.663 241.236L333.347 241.728C332.951 242.568 332.063 243.144 330.899 243.144ZM330.899 237.468C329.855 237.468 329.123 238.26 329.123 239.34V239.424H332.543V239.292C332.543 238.2 331.883 237.468 330.899 237.468ZM337.725 243H336.525C335.865 243 335.505 242.58 335.505 241.98V237.648H334.485V236.808H335.061C335.469 236.808 335.601 236.664 335.601 236.244V235.092H336.465V236.808H337.821V237.648H336.465V242.16H337.725V243ZM344.404 243H343.864C343.156 243 342.868 242.568 342.796 241.992H342.736C342.472 242.748 341.812 243.144 340.948 243.144C339.64 243.144 338.872 242.424 338.872 241.272C338.872 240.108 339.712 239.46 341.512 239.46H342.736V238.848C342.736 237.972 342.256 237.492 341.272 237.492C340.528 237.492 340.036 237.852 339.7 238.416L339.124 237.876C339.46 237.216 340.204 236.664 341.32 236.664C342.808 236.664 343.696 237.444 343.696 238.752V242.16H344.404V243ZM341.104 242.328C342.052 242.328 342.736 241.836 342.736 241.2V240.18H341.464C340.372 240.18 339.88 240.516 339.88 241.116V241.368C339.88 241.98 340.36 242.328 341.104 242.328ZM346.446 234C346.95 234 347.178 234.288 347.178 234.708V234.876C347.178 235.524 346.77 236.412 346.086 237H345.282C345.762 236.496 346.05 236.076 346.182 235.512C345.858 235.44 345.714 235.2 345.714 234.876V234.708C345.714 234.288 345.942 234 346.446 234ZM350.318 243.144C349.178 243.144 348.422 242.664 347.87 241.932L348.554 241.38C349.034 241.98 349.61 242.328 350.39 242.328C351.206 242.328 351.686 241.956 351.686 241.32C351.686 240.84 351.422 240.468 350.605 240.348L350.114 240.276C348.974 240.108 348.122 239.64 348.122 238.488C348.122 237.264 349.07 236.664 350.33 236.664C351.326 236.664 351.986 237.036 352.49 237.66L351.854 238.236C351.578 237.852 351.05 237.48 350.258 237.48C349.466 237.48 349.046 237.852 349.046 238.44C349.046 239.04 349.466 239.28 350.234 239.4L350.714 239.472C352.082 239.676 352.61 240.276 352.61 241.212C352.61 242.412 351.734 243.144 350.318 243.144ZM359.589 243.144C358.245 243.144 357.297 242.592 356.625 241.68L357.369 241.056C357.957 241.836 358.653 242.256 359.625 242.256C360.825 242.256 361.473 241.632 361.473 240.672C361.473 239.88 361.029 239.484 359.925 239.232L359.241 239.076C357.717 238.728 356.877 238.056 356.877 236.772C356.877 235.284 358.005 234.48 359.649 234.48C360.909 234.48 361.797 234.96 362.421 235.848L361.665 236.4C361.209 235.764 360.573 235.368 359.601 235.368C358.533 235.368 357.873 235.836 357.873 236.736C357.873 237.528 358.389 237.888 359.445 238.128L360.129 238.284C361.761 238.656 362.469 239.376 362.469 240.624C362.469 242.16 361.389 243.144 359.589 243.144ZM366.442 243.144C364.762 243.144 363.658 241.872 363.658 239.904C363.658 237.936 364.762 236.664 366.442 236.664C368.098 236.664 369.118 237.936 369.118 239.688V240.144H364.666V240.432C364.666 241.5 365.35 242.304 366.502 242.304C367.282 242.304 367.882 241.92 368.206 241.236L368.89 241.728C368.494 242.568 367.606 243.144 366.442 243.144ZM366.442 237.468C365.398 237.468 364.666 238.26 364.666 239.34V239.424H368.086V239.292C368.086 238.2 367.426 237.468 366.442 237.468ZM375.92 243.684C375.92 244.956 374.912 245.544 372.92 245.544C370.988 245.544 370.196 244.992 370.196 244.02C370.196 243.348 370.568 242.988 371.18 242.82V242.688C370.832 242.52 370.628 242.244 370.628 241.824C370.628 241.2 371.072 240.9 371.696 240.744V240.696C370.964 240.348 370.532 239.664 370.532 238.8C370.532 237.54 371.456 236.664 372.86 236.664C373.304 236.664 373.7 236.748 374.036 236.904V236.796C374.036 236.316 374.24 235.968 374.756 235.968H375.68V236.808H374.504V237.204C374.948 237.588 375.212 238.14 375.212 238.8C375.212 240.06 374.288 240.936 372.872 240.936C372.668 240.936 372.452 240.912 372.272 240.876C371.864 240.984 371.456 241.188 371.456 241.572C371.456 241.944 371.84 242.04 372.404 242.04H373.724C375.26 242.04 375.92 242.664 375.92 243.684ZM375.02 243.756C375.02 243.264 374.696 242.94 373.736 242.94H371.672C371.276 243.12 371.096 243.396 371.096 243.78C371.096 244.32 371.468 244.764 372.44 244.764H373.328C374.396 244.764 375.02 244.428 375.02 243.756ZM372.872 240.168C373.688 240.168 374.204 239.784 374.204 238.968V238.632C374.204 237.816 373.688 237.432 372.872 237.432C372.056 237.432 371.54 237.816 371.54 238.632V238.968C371.54 239.784 372.056 240.168 372.872 240.168ZM378 243H377.04V236.808H378V237.816H378.048C378.324 237.18 378.756 236.664 379.716 236.664C380.532 236.664 381.276 237.036 381.612 237.924H381.636C381.864 237.252 382.464 236.664 383.52 236.664C384.78 236.664 385.536 237.528 385.536 239.028V243H384.576V239.196C384.576 238.104 384.156 237.528 383.22 237.528C382.464 237.528 381.768 237.912 381.768 238.704V243H380.808V239.196C380.808 238.092 380.388 237.528 379.476 237.528C378.72 237.528 378 237.912 378 238.704V243ZM389.844 243.144C388.164 243.144 387.06 241.872 387.06 239.904C387.06 237.936 388.164 236.664 389.844 236.664C391.5 236.664 392.52 237.936 392.52 239.688V240.144H388.068V240.432C388.068 241.5 388.752 242.304 389.904 242.304C390.684 242.304 391.284 241.92 391.608 241.236L392.292 241.728C391.896 242.568 391.008 243.144 389.844 243.144ZM389.844 237.468C388.8 237.468 388.068 238.26 388.068 239.34V239.424H391.488V239.292C391.488 238.2 390.828 237.468 389.844 237.468ZM395.062 243H394.102V236.808H395.062V237.816H395.11C395.41 237.12 395.938 236.664 396.862 236.664C398.134 236.664 398.938 237.528 398.938 239.028V243H397.978V239.196C397.978 238.092 397.498 237.528 396.574 237.528C395.806 237.528 395.062 237.912 395.062 238.704V243ZM403.49 243H402.29C401.63 243 401.27 242.58 401.27 241.98V237.648H400.25V236.808H400.826C401.234 236.808 401.366 236.664 401.366 236.244V235.092H402.23V236.808H403.586V237.648H402.23V242.16H403.49V243ZM259.416 259H258.36L257.52 256.528H254.136L253.296 259H252.276L255.204 250.624H256.488L259.416 259ZM257.268 255.64L255.852 251.56H255.792L254.376 255.64H257.268ZM261.668 259H260.708V252.808H261.668V253.816H261.716C262.016 253.12 262.544 252.664 263.468 252.664C264.74 252.664 265.544 253.528 265.544 255.028V259H264.584V255.196C264.584 254.092 264.104 253.528 263.18 253.528C262.412 253.528 261.668 253.912 261.668 254.704V259ZM269.75 257.02L271.25 252.808H272.198L269.426 260.44C269.15 261.184 268.898 261.4 267.986 261.4H267.494V260.56H268.466L268.934 259.24L266.618 252.808H267.578L269.066 257.02L269.354 258.028H269.414L269.75 257.02ZM275.99 259H274.79C274.13 259 273.77 258.58 273.77 257.98V253.648H272.75V252.808H273.326C273.734 252.808 273.866 252.664 273.866 252.244V251.092H274.73V252.808H276.086V253.648H274.73V258.16H275.99V259ZM277.629 259V250.12H278.589V253.816H278.637C278.937 253.12 279.465 252.664 280.389 252.664C281.661 252.664 282.465 253.528 282.465 255.028V259H281.505V255.196C281.505 254.092 281.025 253.528 280.101 253.528C279.333 253.528 278.589 253.912 278.589 254.704V259H277.629ZM284.93 251.356C284.522 251.356 284.342 251.14 284.342 250.816V250.66C284.342 250.336 284.522 250.12 284.93 250.12C285.338 250.12 285.518 250.336 285.518 250.66V250.816C285.518 251.14 285.338 251.356 284.93 251.356ZM284.45 259V252.808H285.41V259H284.45ZM288.41 259H287.45V252.808H288.41V253.816H288.458C288.758 253.12 289.286 252.664 290.21 252.664C291.482 252.664 292.286 253.528 292.286 255.028V259H291.326V255.196C291.326 254.092 290.846 253.528 289.922 253.528C289.154 253.528 288.41 253.912 288.41 254.704V259ZM299.49 259.684C299.49 260.956 298.482 261.544 296.49 261.544C294.558 261.544 293.766 260.992 293.766 260.02C293.766 259.348 294.138 258.988 294.75 258.82V258.688C294.402 258.52 294.198 258.244 294.198 257.824C294.198 257.2 294.642 256.9 295.266 256.744V256.696C294.534 256.348 294.102 255.664 294.102 254.8C294.102 253.54 295.026 252.664 296.43 252.664C296.874 252.664 297.27 252.748 297.606 252.904V252.796C297.606 252.316 297.81 251.968 298.326 251.968H299.25V252.808H298.074V253.204C298.518 253.588 298.782 254.14 298.782 254.8C298.782 256.06 297.858 256.936 296.442 256.936C296.238 256.936 296.022 256.912 295.842 256.876C295.434 256.984 295.026 257.188 295.026 257.572C295.026 257.944 295.41 258.04 295.974 258.04H297.294C298.83 258.04 299.49 258.664 299.49 259.684ZM298.59 259.756C298.59 259.264 298.266 258.94 297.306 258.94H295.242C294.846 259.12 294.666 259.396 294.666 259.78C294.666 260.32 295.038 260.764 296.01 260.764H296.898C297.966 260.764 298.59 260.428 298.59 259.756ZM296.442 256.168C297.258 256.168 297.774 255.784 297.774 254.968V254.632C297.774 253.816 297.258 253.432 296.442 253.432C295.626 253.432 295.11 253.816 295.11 254.632V254.968C295.11 255.784 295.626 256.168 296.442 256.168ZM301.374 259.144C300.87 259.144 300.642 258.856 300.642 258.448V258.292C300.642 257.884 300.87 257.596 301.374 257.596C301.878 257.596 302.106 257.884 302.106 258.292V258.448C302.106 258.856 301.878 259.144 301.374 259.144ZM313.264 259H312.208L311.368 256.528H307.984L307.144 259H306.124L309.052 250.624H310.336L313.264 259ZM311.116 255.64L309.7 251.56H309.64L308.224 255.64H311.116ZM316.805 259H315.689L313.517 252.808H314.477L315.557 255.88L316.229 257.992H316.289L316.961 255.88L318.065 252.808H318.989L316.805 259ZM325.162 259H324.622C323.914 259 323.626 258.568 323.554 257.992H323.494C323.23 258.748 322.57 259.144 321.706 259.144C320.398 259.144 319.63 258.424 319.63 257.272C319.63 256.108 320.47 255.46 322.27 255.46H323.494V254.848C323.494 253.972 323.014 253.492 322.03 253.492C321.286 253.492 320.794 253.852 320.458 254.416L319.882 253.876C320.218 253.216 320.962 252.664 322.078 252.664C323.566 252.664 324.454 253.444 324.454 254.752V258.16H325.162V259ZM321.862 258.328C322.81 258.328 323.494 257.836 323.494 257.2V256.18H322.222C321.13 256.18 320.638 256.516 320.638 257.116V257.368C320.638 257.98 321.118 258.328 321.862 258.328ZM327.012 251.356C326.604 251.356 326.424 251.14 326.424 250.816V250.66C326.424 250.336 326.604 250.12 327.012 250.12C327.42 250.12 327.6 250.336 327.6 250.66V250.816C327.6 251.14 327.42 251.356 327.012 251.356ZM326.532 259V252.808H327.492V259H326.532ZM331.404 259H330.552C329.892 259 329.532 258.58 329.532 258.004V250.12H330.492V258.16H331.404V259ZM337.841 259H337.301C336.593 259 336.305 258.568 336.233 257.992H336.173C335.909 258.748 335.249 259.144 334.385 259.144C333.077 259.144 332.309 258.424 332.309 257.272C332.309 256.108 333.149 255.46 334.949 255.46H336.173V254.848C336.173 253.972 335.693 253.492 334.709 253.492C333.965 253.492 333.473 253.852 333.137 254.416L332.561 253.876C332.897 253.216 333.641 252.664 334.757 252.664C336.245 252.664 337.133 253.444 337.133 254.752V258.16H337.841V259ZM334.541 258.328C335.489 258.328 336.173 257.836 336.173 257.2V256.18H334.901C333.809 256.18 333.317 256.516 333.317 257.116V257.368C333.317 257.98 333.797 258.328 334.541 258.328ZM339.211 259V250.12H340.171V253.816H340.219C340.543 253.036 341.179 252.664 342.031 252.664C343.579 252.664 344.551 253.924 344.551 255.904C344.551 257.884 343.579 259.144 342.031 259.144C341.179 259.144 340.591 258.76 340.219 257.992H340.171V259H339.211ZM341.767 258.28C342.847 258.28 343.519 257.536 343.519 256.432V255.376C343.519 254.272 342.847 253.528 341.767 253.528C340.891 253.528 340.171 254.032 340.171 254.716V257.02C340.171 257.824 340.891 258.28 341.767 258.28ZM348.044 259H347.192C346.532 259 346.172 258.58 346.172 258.004V250.12H347.132V258.16H348.044V259ZM351.77 259.144C350.09 259.144 348.986 257.872 348.986 255.904C348.986 253.936 350.09 252.664 351.77 252.664C353.426 252.664 354.446 253.936 354.446 255.688V256.144H349.994V256.432C349.994 257.5 350.678 258.304 351.83 258.304C352.61 258.304 353.21 257.92 353.534 257.236L354.218 257.728C353.822 258.568 352.934 259.144 351.77 259.144ZM351.77 253.468C350.726 253.468 349.994 254.26 349.994 255.34V255.424H353.414V255.292C353.414 254.2 352.754 253.468 351.77 253.468ZM359.344 251.356C358.936 251.356 358.756 251.14 358.756 250.816V250.66C358.756 250.336 358.936 250.12 359.344 250.12C359.752 250.12 359.932 250.336 359.932 250.66V250.816C359.932 251.14 359.752 251.356 359.344 251.356ZM358.864 259V252.808H359.824V259H358.864ZM362.824 259H361.864V252.808H362.824V253.816H362.872C363.172 253.12 363.7 252.664 364.624 252.664C365.896 252.664 366.7 253.528 366.7 255.028V259H365.74V255.196C365.74 254.092 365.26 253.528 364.336 253.528C363.568 253.528 362.824 253.912 362.824 254.704V259ZM373.392 259H372.54C371.88 259 371.52 258.58 371.52 258.004V250.12H372.48V258.16H373.392V259ZM375.27 251.356C374.862 251.356 374.682 251.14 374.682 250.816V250.66C374.682 250.336 374.862 250.12 375.27 250.12C375.678 250.12 375.858 250.336 375.858 250.66V250.816C375.858 251.14 375.678 251.356 375.27 251.356ZM374.79 259V252.808H375.75V259H374.79ZM380.274 259H379.158L376.986 252.808H377.946L379.026 255.88L379.698 257.992H379.758L380.43 255.88L381.534 252.808H382.458L380.274 259ZM385.93 259.144C384.25 259.144 383.146 257.872 383.146 255.904C383.146 253.936 384.25 252.664 385.93 252.664C387.586 252.664 388.606 253.936 388.606 255.688V256.144H384.154V256.432C384.154 257.5 384.838 258.304 385.99 258.304C386.77 258.304 387.37 257.92 387.694 257.236L388.378 257.728C387.982 258.568 387.094 259.144 385.93 259.144ZM385.93 253.468C384.886 253.468 384.154 254.26 384.154 255.34V255.424H387.574V255.292C387.574 254.2 386.914 253.468 385.93 253.468ZM395.364 259.144C393.708 259.144 392.568 257.872 392.568 255.904C392.568 253.936 393.708 252.664 395.364 252.664C397.02 252.664 398.16 253.936 398.16 255.904C398.16 257.872 397.02 259.144 395.364 259.144ZM395.364 258.292C396.396 258.292 397.128 257.656 397.128 256.348V255.46C397.128 254.152 396.396 253.516 395.364 253.516C394.332 253.516 393.6 254.152 393.6 255.46V256.348C393.6 257.656 394.332 258.292 395.364 258.292ZM400.699 259H399.739V252.808H400.699V253.948H400.759C400.975 253.36 401.539 252.808 402.547 252.808H402.919V253.768H402.355C401.323 253.768 400.699 254.212 400.699 254.8V259ZM255.36 275.144C253.704 275.144 252.564 273.872 252.564 271.904C252.564 269.936 253.704 268.664 255.36 268.664C257.016 268.664 258.156 269.936 258.156 271.904C258.156 273.872 257.016 275.144 255.36 275.144ZM255.36 274.292C256.392 274.292 257.124 273.656 257.124 272.348V271.46C257.124 270.152 256.392 269.516 255.36 269.516C254.328 269.516 253.596 270.152 253.596 271.46V272.348C253.596 273.656 254.328 274.292 255.36 274.292ZM260.001 275V269.648H258.993V268.808H260.001V267.56C260.001 266.708 260.445 266.12 261.357 266.12H262.293V266.96H260.961V268.808H262.293V269.648H260.961V275H260.001ZM263.891 275V269.648H262.883V268.808H263.891V267.56C263.891 266.708 264.335 266.12 265.247 266.12H266.183V266.96H264.851V268.808H266.183V269.648H264.851V275H263.891ZM269.318 275H268.466C267.806 275 267.446 274.58 267.446 274.004V266.12H268.406V274.16H269.318V275ZM271.195 267.356C270.787 267.356 270.607 267.14 270.607 266.816V266.66C270.607 266.336 270.787 266.12 271.195 266.12C271.603 266.12 271.783 266.336 271.783 266.66V266.816C271.783 267.14 271.603 267.356 271.195 267.356ZM270.715 275V268.808H271.675V275H270.715ZM274.675 275H273.715V268.808H274.675V269.816H274.723C275.023 269.12 275.551 268.664 276.475 268.664C277.747 268.664 278.551 269.528 278.551 271.028V275H277.591V271.196C277.591 270.092 277.111 269.528 276.187 269.528C275.419 269.528 274.675 269.912 274.675 270.704V275ZM282.864 275.144C281.184 275.144 280.08 273.872 280.08 271.904C280.08 269.936 281.184 268.664 282.864 268.664C284.52 268.664 285.54 269.936 285.54 271.688V272.144H281.088V272.432C281.088 273.5 281.772 274.304 282.924 274.304C283.704 274.304 284.304 273.92 284.628 273.236L285.312 273.728C284.916 274.568 284.028 275.144 282.864 275.144ZM282.864 269.468C281.82 269.468 281.088 270.26 281.088 271.34V271.424H284.508V271.292C284.508 270.2 283.848 269.468 282.864 269.468ZM290.918 275H289.958V268.808H290.918V269.816H290.966C291.242 269.18 291.674 268.664 292.634 268.664C293.45 268.664 294.194 269.036 294.53 269.924H294.554C294.782 269.252 295.382 268.664 296.438 268.664C297.698 268.664 298.454 269.528 298.454 271.028V275H297.494V271.196C297.494 270.104 297.074 269.528 296.138 269.528C295.382 269.528 294.686 269.912 294.686 270.704V275H293.726V271.196C293.726 270.092 293.306 269.528 292.394 269.528C291.638 269.528 290.918 269.912 290.918 270.704V275ZM302.774 275.144C301.118 275.144 299.978 273.872 299.978 271.904C299.978 269.936 301.118 268.664 302.774 268.664C304.43 268.664 305.57 269.936 305.57 271.904C305.57 273.872 304.43 275.144 302.774 275.144ZM302.774 274.292C303.806 274.292 304.538 273.656 304.538 272.348V271.46C304.538 270.152 303.806 269.516 302.774 269.516C301.742 269.516 301.01 270.152 301.01 271.46V272.348C301.01 273.656 301.742 274.292 302.774 274.292ZM311.109 275V273.992H311.061C310.689 274.76 310.101 275.144 309.249 275.144C307.701 275.144 306.729 273.884 306.729 271.904C306.729 269.924 307.701 268.664 309.249 268.664C310.101 268.664 310.737 269.036 311.061 269.816H311.109V266.12H312.069V275H311.109ZM309.513 274.28C310.389 274.28 311.109 273.824 311.109 273.02V270.716C311.109 270.032 310.389 269.528 309.513 269.528C308.433 269.528 307.761 270.272 307.761 271.376V272.432C307.761 273.536 308.433 274.28 309.513 274.28ZM316.438 275.144C314.758 275.144 313.654 273.872 313.654 271.904C313.654 269.936 314.758 268.664 316.438 268.664C318.094 268.664 319.114 269.936 319.114 271.688V272.144H314.662V272.432C314.662 273.5 315.346 274.304 316.498 274.304C317.278 274.304 317.878 273.92 318.202 273.236L318.886 273.728C318.49 274.568 317.602 275.144 316.438 275.144ZM316.438 269.468C315.394 269.468 314.662 270.26 314.662 271.34V271.424H318.082V271.292C318.082 270.2 317.422 269.468 316.438 269.468ZM321.073 275.144C320.569 275.144 320.341 274.856 320.341 274.448V274.292C320.341 273.884 320.569 273.596 321.073 273.596C321.577 273.596 321.805 273.884 321.805 274.292V274.448C321.805 274.856 321.577 275.144 321.073 275.144Z" fill="#171717"/>
<rect x="236.42" y="445.42" width="94.1608" height="38.1608" rx="7.58038" stroke="#171717" stroke-width="0.83923"/>
<path d="M263.988 470.192C261.14 470.192 259.396 468.144 259.396 464.416C259.396 460.688 261.14 458.64 263.988 458.64C265.876 458.64 267.172 459.52 267.892 461.12L266.612 461.856C266.196 460.752 265.332 460.032 263.988 460.032C262.164 460.032 261.06 461.392 261.06 463.568V465.264C261.06 467.44 262.164 468.8 263.988 468.8C265.364 468.8 266.292 468.016 266.708 466.864L267.956 467.616C267.236 469.216 265.876 470.192 263.988 470.192ZM276.723 470H275.875C274.963 470 274.531 469.424 274.419 468.624H274.339C274.003 469.648 273.123 470.192 271.939 470.192C270.211 470.192 269.203 469.232 269.203 467.712C269.203 466.112 270.371 465.248 272.739 465.248H274.307V464.496C274.307 463.392 273.715 462.768 272.467 462.768C271.491 462.768 270.867 463.248 270.435 463.952L269.539 463.136C270.035 462.24 271.011 461.52 272.547 461.52C274.611 461.52 275.795 462.576 275.795 464.368V468.736H276.723V470ZM272.275 468.992C273.443 468.992 274.307 468.4 274.307 467.568V466.288H272.723C271.363 466.288 270.755 466.704 270.755 467.472V467.792C270.755 468.56 271.347 468.992 272.275 468.992ZM279.988 470H278.5V461.712H279.988V463.072H280.068C280.452 462.16 281.156 461.52 282.404 461.52C284.1 461.52 285.14 462.688 285.14 464.704V470H283.652V464.928C283.652 463.536 283.076 462.816 281.908 462.816C280.932 462.816 279.988 463.312 279.988 464.32V470ZM290.807 470.192C288.439 470.192 287.079 468.512 287.079 465.856C287.079 463.2 288.439 461.52 290.807 461.52C292.439 461.52 293.463 462.32 293.943 463.504L292.711 464.112C292.439 463.296 291.767 462.8 290.807 462.8C289.383 462.8 288.663 463.776 288.663 465.136V466.576C288.663 467.936 289.383 468.912 290.807 468.912C291.815 468.912 292.503 468.4 292.919 467.504L294.007 468.176C293.479 469.424 292.391 470.192 290.807 470.192ZM298.824 470.192C296.52 470.192 295.064 468.48 295.064 465.856C295.064 463.232 296.52 461.52 298.824 461.52C301.144 461.52 302.456 463.28 302.456 465.6V466.224H296.616V466.56C296.616 467.936 297.464 468.928 298.952 468.928C299.992 468.928 300.744 468.432 301.192 467.584L302.152 468.4C301.576 469.472 300.376 470.192 298.824 470.192ZM298.824 462.72C297.528 462.72 296.616 463.712 296.616 465.072V465.184H300.872V465.024C300.872 463.648 300.072 462.72 298.824 462.72ZM307.156 470H306.036C305.012 470 304.484 469.392 304.484 468.48V458.16H305.972V468.736H307.156V470Z" fill="#171717"/>
<rect x="342" y="445" width="95" height="39" rx="8" fill="#93C5FD"/>
<path d="M376.156 470.192C374.332 470.192 373.052 469.456 372.156 468.272L373.26 467.28C374.044 468.288 374.972 468.832 376.22 468.832C377.74 468.832 378.556 468.048 378.556 466.864C378.556 465.888 378.028 465.376 376.636 465.072L375.692 464.88C373.596 464.448 372.492 463.504 372.492 461.76C372.492 459.776 373.996 458.64 376.284 458.64C377.964 458.64 379.164 459.264 380.012 460.416L378.876 461.328C378.284 460.512 377.468 460 376.204 460C374.844 460 374.028 460.592 374.028 461.696C374.028 462.688 374.652 463.136 375.98 463.424L376.924 463.616C379.116 464.096 380.092 465.072 380.092 466.784C380.092 468.848 378.636 470.192 376.156 470.192ZM385.803 470H384.235C383.211 470 382.667 469.392 382.667 468.432V462.976H381.339V461.712H382.075C382.635 461.712 382.811 461.504 382.811 460.944V459.424H384.155V461.712H385.931V462.976H384.155V468.736H385.803V470ZM394.801 470H393.953C393.041 470 392.609 469.424 392.497 468.624H392.417C392.081 469.648 391.201 470.192 390.017 470.192C388.289 470.192 387.281 469.232 387.281 467.712C387.281 466.112 388.449 465.248 390.817 465.248H392.385V464.496C392.385 463.392 391.793 462.768 390.545 462.768C389.569 462.768 388.945 463.248 388.513 463.952L387.617 463.136C388.113 462.24 389.089 461.52 390.625 461.52C392.689 461.52 393.873 462.576 393.873 464.368V468.736H394.801V470ZM390.353 468.992C391.521 468.992 392.385 468.4 392.385 467.568V466.288H390.801C389.441 466.288 388.833 466.704 388.833 467.472V467.792C388.833 468.56 389.425 468.992 390.353 468.992ZM398.066 470H396.578V461.712H398.066V463.296H398.146C398.418 462.48 399.154 461.712 400.482 461.712H400.978V463.2H400.242C398.866 463.2 398.066 463.744 398.066 464.56V470ZM406.24 470H404.672C403.648 470 403.104 469.392 403.104 468.432V462.976H401.776V461.712H402.512C403.072 461.712 403.248 461.504 403.248 460.944V459.424H404.592V461.712H406.368V462.976H404.592V468.736H406.24V470Z" fill="#171717"/>
<rect x="33" y="65" width="41.0231" height="41.0231" fill="#E5E5E5"/>
<rect x="87.9883" y="65" width="41.0231" height="41.0231" fill="#E5E5E5"/>
<rect x="142.977" y="65" width="41.0231" height="41.0231" fill="#E5E5E5"/>
<rect x="33" y="122.023" width="41.0231" height="41.0231" fill="#E5E5E5"/>
<rect x="87.9883" y="122.023" width="41.0231" height="41.0231" fill="#E5E5E5"/>
<rect x="142.977" y="122.023" width="41.0231" height="41.0231" fill="#E5E5E5"/>
<rect x="33" y="179.046" width="41.0231" height="41.0231" fill="#E5E5E5"/>
<rect x="87.9883" y="179.046" width="41.0231" height="41.0231" fill="#E5E5E5"/>
<rect x="142.977" y="179.046" width="41.0231" height="41.0231" fill="#E5E5E5"/>
<rect x="486" y="302" width="41.0231" height="41.0231" fill="#FB923C" stroke="#171717"/>
<rect x="540.988" y="302" width="41.0231" height="41.0231" fill="#FB923C" stroke="#171717"/>
<rect x="595.977" y="302" width="41.0231" height="41.0231" fill="#FB923C" stroke="#171717"/>
<rect x="486" y="359.023" width="41.0231" height="41.0231" fill="#FB923C" stroke="#171717"/>
<rect x="540.988" y="359.023" width="41.0231" height="41.0231" fill="#FB923C" stroke="#171717"/>
<rect x="595.977" y="359.023" width="41.0231" height="41.0231" fill="#FB923C" stroke="#171717"/>
<rect x="486" y="416.046" width="41.0231" height="41.0231" fill="#FB923C" stroke="#171717"/>
<rect x="540.988" y="416.046" width="41.0231" height="41.0231" fill="#FB923C" stroke="#171717"/>
<rect x="595.977" y="416.046" width="41.0231" height="41.0231" fill="#FB923C" stroke="#171717"/>
<circle cx="43.6" cy="322.6" r="19.6" fill="#E5E5E5"/>
<circle cx="43.6" cy="377.8" r="19.6" fill="#E5E5E5"/>
<circle cx="43.6" cy="433" r="19.6" fill="#E5E5E5"/>
<defs>
<clipPath id="clip0_3271_30996">
<path d="M236 48C236 43.5817 239.582 40 244 40H429C433.418 40 437 43.5817 437 48V170H236V48Z" fill="white"/>
</clipPath>
</defs>
</svg>
