<svg width="49" height="48" viewBox="0 0 49 48" fill="none" xmlns="http://www.w3.org/2000/svg">
<path d="M39.4999 24C38.432 24.0054 37.3853 24.2985 36.4699 24.8485L32.182 20.5608L35.6215 17.1213C36.1841 16.5587 36.5001 15.7956 36.5001 15C36.5001 14.2043 36.1841 13.4413 35.6215 12.8787L26.6215 3.87866C26.0589 3.31606 25.2958 3 24.5002 3C23.7045 3 22.9415 3.31606 22.3789 3.87866L13.3789 12.8787C12.8163 13.4413 12.5002 14.2043 12.5002 15C12.5002 15.7956 12.8163 16.5587 13.3789 17.1213L16.8184 20.5608L12.5299 24.8485C11.2592 24.0947 9.75698 23.8306 8.30538 24.106C6.85378 24.3813 5.55263 25.1771 4.64627 26.344C3.7399 27.5108 3.29067 28.9683 3.38294 30.4429C3.4752 31.9175 4.10261 33.3077 5.14735 34.3525C6.19209 35.3972 7.58229 36.0246 9.05689 36.1169C10.5315 36.2092 11.9891 35.7599 13.1559 34.8536C14.3227 33.9472 15.1185 32.6461 15.3939 31.1945C15.6692 29.7429 15.4052 28.2407 14.6513 26.97L18.9391 22.6821L22.3786 26.1216C22.5645 26.3025 22.7734 26.4583 22.9999 26.5849V33H18.4999V45H30.4999V33H25.9999V26.5849C26.2264 26.4582 26.4352 26.3023 26.6212 26.1213L30.0607 22.6818L34.3484 26.97C33.6843 28.1094 33.4153 29.4363 33.5832 30.7443C33.7511 32.0524 34.3465 33.2684 35.2768 34.2031C36.2071 35.1378 37.4202 35.739 38.7275 35.9131C40.0348 36.0872 41.3629 35.8244 42.5055 35.1657C43.648 34.507 44.5408 33.4893 45.0452 32.2707C45.5496 31.0521 45.6372 29.7011 45.2944 28.4276C44.9516 27.1541 44.1976 26.0296 43.1497 25.2289C42.1018 24.4282 40.8187 23.9961 39.4999 24V24ZM12.4999 30C12.4999 30.5933 12.3239 31.1733 11.9943 31.6667C11.6646 32.16 11.1961 32.5445 10.6479 32.7716C10.0997 32.9987 9.49654 33.0581 8.9146 32.9423C8.33265 32.8266 7.7981 32.5408 7.37855 32.1213C6.95899 31.7017 6.67327 31.1672 6.55751 30.5852C6.44175 30.0033 6.50116 29.4001 6.72823 28.8519C6.95529 28.3037 7.33981 27.8352 7.83316 27.5056C8.3265 27.1759 8.90652 27 9.49987 27C10.2952 27.0009 11.0578 27.3172 11.6202 27.8796C12.1826 28.4421 12.499 29.2046 12.4999 30ZM27.4999 36V42H21.4999V36H27.4999ZM24.4999 24L15.4999 15L24.4999 5.99996L33.4999 15L24.4999 24ZM39.4999 33C38.9065 33 38.3265 32.824 37.8332 32.4944C37.3398 32.1647 36.9553 31.6962 36.7282 31.148C36.5012 30.5998 36.4418 29.9966 36.5575 29.4147C36.6733 28.8327 36.959 28.2982 37.3785 27.8786C37.7981 27.4591 38.3327 27.1734 38.9146 27.0576C39.4965 26.9419 40.0997 27.0013 40.6479 27.2283C41.1961 27.4554 41.6646 27.8399 41.9943 28.3333C42.3239 28.8266 42.4999 29.4066 42.4999 30C42.499 30.7953 42.1826 31.5579 41.6202 32.1203C41.0578 32.6827 40.2952 32.999 39.4999 33V33Z" fill="#3B82F6"/>
</svg>
