<svg width="61" height="61" viewBox="0 0 61 61" fill="none" xmlns="http://www.w3.org/2000/svg">
<rect x="0.163818" y="0.852722" width="60" height="60" rx="18" fill="#93C5FD"/>
<g clip-path="url(#clip0_26_1944)">
<path d="M34.0388 30.0584L31.5298 27.5495L30.1638 28.9154L34.0388 32.7904L39.8513 26.9779L38.4854 25.612L34.0388 30.0584Z" fill="#171717"/>
<path d="M24.3513 32.7902H22.4138V34.7277H24.3513V32.7902Z" fill="#171717"/>
<path d="M26.2888 24.0715H21.4451V26.009H25.3201V27.9465H22.4138V30.8527H24.3513V29.884H26.2888C26.8238 29.884 27.2576 29.4502 27.2576 28.9152V25.0402C27.2576 24.5053 26.8238 24.0715 26.2888 24.0715Z" fill="#171717"/>
<path d="M31.8456 44.4152L30.1641 43.4465L34.0391 36.6652H39.8516C40.9241 36.6652 41.7891 35.8005 41.7891 34.7277V23.1027C41.7891 22.0299 40.9241 21.1652 39.8516 21.1652H20.4766C19.4041 21.1652 18.5391 22.0299 18.5391 23.1027V34.7277C18.5391 35.8005 19.4041 36.6652 20.4766 36.6652H29.1953V38.6027H20.4766C18.3363 38.6027 16.6016 36.8687 16.6016 34.7277V23.1027C16.6016 20.9609 18.3363 19.2277 20.4766 19.2277H39.8516C41.9918 19.2277 43.7266 20.9609 43.7266 23.1027V34.7277C43.7266 36.8687 41.9918 38.6027 39.8516 38.6027H35.1673L31.8456 44.4152Z" fill="#171717"/>
</g>
<defs>
<clipPath id="clip0_26_1944">
<rect width="31" height="31" fill="white" transform="translate(14.6638 15.3527)"/>
</clipPath>
</defs>
</svg>
