<svg width="145" height="17" viewBox="0 0 145 17" fill="none" xmlns="http://www.w3.org/2000/svg">
<g clip-path="url(#clip0_109_130993)">
<path d="M35.5028 3.69999H40.7588V16.324H44.1188V3.69999H49.3748V0.675987H35.5028V3.69999ZM29.5988 11.62L22.5668 0.675987H18.7748V16.3H22.0148V5.35599L29.0468 16.324H32.8387V0.699987H29.5988V11.62ZM62.7668 6.91599H55.3988V0.675987H52.0387V16.3H55.3988V9.91599H62.7668V16.3H66.1267V0.675987H62.7668V6.91599ZM6.51075 0.675987L0.270752 16.3H3.75075L5.02275 13.012H11.5508L12.8228 16.3H16.3028L10.0628 0.675987H6.51075ZM6.15075 10.132L8.28675 4.63599L10.4228 10.132H6.15075ZM93.8708 0.411987C89.3587 0.411987 86.1667 3.77199 86.1667 8.52399C86.1667 13.276 89.3587 16.588 93.8708 16.588C98.3828 16.588 101.527 13.228 101.527 8.52399C101.527 3.81999 98.3587 0.411987 93.8708 0.411987ZM93.8708 13.468C91.2308 13.468 89.6227 11.596 89.6227 8.52399C89.6227 5.45199 91.2308 3.53199 93.8708 3.53199C96.5107 3.53199 98.0707 5.40399 98.0707 8.52399C98.0707 11.644 96.4867 13.468 93.8708 13.468ZM140.695 11.068C140.119 12.58 138.943 13.468 137.359 13.468C134.719 13.468 133.111 11.596 133.111 8.52399C133.111 5.45199 134.719 3.53199 137.359 3.53199C138.943 3.53199 140.095 4.39599 140.695 5.93199H144.247C143.383 2.57199 140.767 0.411987 137.359 0.411987C132.847 0.411987 129.655 3.77199 129.655 8.52399C129.655 13.276 132.847 16.588 137.359 16.588C140.767 16.588 143.383 14.404 144.271 11.068H140.695ZM119.359 0.675987L125.599 16.3H129.007L122.767 0.675987H119.359ZM112.279 0.675987H104.647V16.3H108.007V10.636H112.303C115.855 10.636 118.015 8.76399 118.015 5.64399C118.015 2.54799 115.831 0.675987 112.279 0.675987ZM112.135 7.63599H108.007V3.69999H112.135C113.791 3.69999 114.655 4.37199 114.655 5.66799C114.655 6.96399 113.791 7.63599 112.135 7.63599ZM83.5988 5.45199C83.5988 2.49999 81.4388 0.699987 77.8867 0.699987H70.2548V16.324H73.6148V10.204H77.3348L80.6947 16.324H84.3907L80.6708 9.74799C82.5188 9.00399 83.5988 7.51599 83.5988 5.45199ZM73.5908 3.69999H77.7188C79.3748 3.69999 80.2388 4.29999 80.2388 5.45199C80.2388 6.60399 79.3748 7.20399 77.7188 7.20399H73.5908V3.69999Z" fill="white"/>
</g>
<defs>
<clipPath id="clip0_109_130993">
<rect width="144" height="16.176" fill="white" transform="translate(0.270752 0.411987)"/>
</clipPath>
</defs>
</svg>
