<svg width="48" height="48" viewBox="0 0 48 48" fill="none" xmlns="http://www.w3.org/2000/svg">
<path d="M34.28 0H13.72C6.14265 0 0 6.14265 0 13.72V34.28C0 41.8573 6.14265 48 13.72 48H34.28C41.8573 48 48 41.8573 48 34.28V13.72C48 6.14265 41.8573 0 34.28 0Z" fill="#93C5FD"/>
<path d="M32 22H30V16C30 14.4087 29.3679 12.8826 28.2426 11.7574C27.1174 10.6321 25.5913 10 24 10C22.4087 10 20.8826 10.6321 19.7574 11.7574C18.6321 12.8826 18 14.4087 18 16V22H16C15.4696 22 14.9609 22.2107 14.5858 22.5858C14.2107 22.9609 14 23.4696 14 24V36C14 36.5304 14.2107 37.0391 14.5858 37.4142C14.9609 37.7893 15.4696 38 16 38H32C32.5304 38 33.0391 37.7893 33.4142 37.4142C33.7893 37.0391 34 36.5304 34 36V24C34 23.4696 33.7893 22.9609 33.4142 22.5858C33.0391 22.2107 32.5304 22 32 22ZM20 16C20 14.9391 20.4214 13.9217 21.1716 13.1716C21.9217 12.4214 22.9391 12 24 12C25.0609 12 26.0783 12.4214 26.8284 13.1716C27.5786 13.9217 28 14.9391 28 16V22H20V16ZM32 36H16V24H32V36Z" fill="black"/>
</svg>
