<svg width="72" height="72" viewBox="0 0 72 72" fill="none" xmlns="http://www.w3.org/2000/svg">
<path d="M67.5 27H63V33.75H67.5V27Z" fill="#262626"/>
<path d="M58.5 15.75H54V45H58.5V15.75Z" fill="#262626"/>
<path d="M49.5 24.75H45V36H49.5V24.75Z" fill="#262626"/>
<path d="M40.5 20.25H36V40.5H40.5V20.25Z" fill="#262626"/>
<path d="M31.5 27H27V33.75H31.5V27Z" fill="#262626"/>
<path d="M30.375 58.5C32.239 58.5 33.75 56.989 33.75 55.125C33.75 53.261 32.239 51.75 30.375 51.75C28.511 51.75 27 53.261 27 55.125C27 56.989 28.511 58.5 30.375 58.5Z" fill="#262626"/>
<path d="M45 67.5H15.75C14.5569 67.4986 13.4131 67.0241 12.5695 66.1805C11.7259 65.3369 11.2514 64.1931 11.25 63V9C11.2514 7.80695 11.7259 6.66315 12.5695 5.81953C13.4131 4.97592 14.5569 4.50137 15.75 4.5H45V9H15.75V63H45V54H49.5V63C49.4986 64.1931 49.0241 65.3369 48.1805 66.1805C47.3369 67.0241 46.1931 67.4986 45 67.5Z" fill="#262626"/>
</svg>
