<svg width="69" height="15" viewBox="0 0 69 15" fill="none" xmlns="http://www.w3.org/2000/svg">
<path d="M17.8823 5.73859H5.59147C4.84423 5.73859 4.22583 6.35699 4.22583 7.10423C4.22583 7.85146 4.84423 8.46987 5.59147 8.46987H17.8823C18.6295 8.46987 19.2479 7.85146 19.2479 7.10423C19.2479 6.33122 18.6295 5.73859 17.8823 5.73859Z" fill="#121619"/>
<path d="M18.9129 11.2527H3.71043C3.42699 11.2527 2.75706 11.2527 2.73129 10.4797C2.73129 10.5055 2.73129 3.75459 2.73129 3.75459C2.75706 3.00735 3.42699 3.00735 3.71043 3.00735H18.9387C19.6859 3.00735 20.3043 2.38895 20.3043 1.64171C20.3043 0.894471 19.6859 0.276062 18.9387 0.276062H3.71043C0.979141 0.276062 0 2.36318 0 3.75459L0.0257667 10.5055C0.0257667 10.6601 0.0515336 11.9742 1.05644 12.9534C1.52025 13.4172 2.37055 13.9583 3.7362 13.9583H18.9387C19.6859 13.9583 20.3043 13.3399 20.3043 12.5926C20.2785 11.8454 19.6859 11.2527 18.9129 11.2527Z" fill="#121619"/>
<path d="M27.2357 5.73852C26.4884 5.73852 25.87 6.35692 25.87 7.10416C25.87 7.8514 26.4884 8.44404 27.2357 8.44404H37.8259C38.032 8.44404 39.8614 8.41827 41.1498 7.12993C41.897 6.38269 42.2835 5.40355 42.2835 4.24405C42.2835 2.74957 41.6651 1.87349 41.124 1.35816C39.8099 0.147117 37.9547 0.22442 37.7486 0.250187C37.7743 0.250187 37.8001 0.250187 37.8516 0.250187H25.4062C22.6749 0.250187 21.6958 2.3373 21.6958 3.72871V12.7471C21.6958 13.4943 22.3142 14.1127 23.0614 14.1127C23.8087 14.1127 24.4271 13.4943 24.4271 12.7471V3.72871C24.4529 2.98147 25.1228 2.98147 25.4062 2.98147H37.9547C38.7277 2.98147 39.3461 3.59988 39.3461 4.37288C39.3461 5.14588 38.7277 5.76429 37.9547 5.76429L27.2357 5.73852Z" fill="#121619"/>
<path d="M66.0146 1.5128V12.7472C66.0146 13.4944 66.6331 14.1128 67.3803 14.1128C68.1275 14.1128 68.7459 13.4944 68.7459 12.7472V1.5128C68.7459 0.765565 68.1275 0.147156 67.3803 0.147156C66.6073 0.147156 66.0146 0.765565 66.0146 1.5128Z" fill="#121619"/>
<path d="M59.9595 5.73854C60.7325 5.73854 61.3509 5.09437 61.3509 4.34713C61.3509 3.57413 60.7325 2.98149 59.9595 2.98149H47.3337C47.0503 2.98149 46.3803 2.98149 46.3546 3.75449V12.7471C46.3546 13.4944 45.7362 14.1128 44.9889 14.1128C44.2417 14.1128 43.6233 13.4944 43.6233 12.7471V3.78026C43.6233 2.36308 44.6024 0.275968 47.3337 0.275968H59.8307C59.8049 0.275968 59.7791 0.275968 59.7534 0.275968C59.9595 0.275968 61.8147 0.172907 63.1288 1.40971C63.6442 1.89928 64.2883 2.80112 64.2883 4.2956C64.2883 5.4551 63.9018 6.46001 63.1546 7.20725C61.892 8.44406 60.0883 8.46983 59.908 8.46983H52.1521C51.3791 8.46983 50.7607 9.08823 50.7607 9.86123C50.7607 10.6342 51.3791 11.2784 52.1521 11.2784H62.7681C63.5153 11.2784 64.1337 11.8711 64.1337 12.6183C64.1337 13.3655 63.5153 13.9839 62.7681 13.9839H52.4098C52.4356 13.9839 50.3484 14.0612 49.0343 12.8502C48.4675 12.3349 47.8491 11.3557 47.8491 9.75817C47.8491 8.26369 48.6221 7.36185 49.1374 6.87228C50.4515 5.66124 52.4356 5.79008 52.4098 5.79008L59.9595 5.73854Z" fill="#121619"/>
</svg>
