<svg width="36" height="37" viewBox="0 0 36 37" fill="none" xmlns="http://www.w3.org/2000/svg">
<path d="M5.25375 31.7527L12.4425 18.2527L20.655 25.5539C20.9122 25.7824 21.2183 25.9489 21.5498 26.0405C21.8814 26.1322 22.2295 26.1466 22.5675 26.0827C22.9086 26.0188 23.2302 25.8769 23.5074 25.6681C23.7845 25.4593 24.0096 25.1892 24.165 24.8789L30.375 12.5152L28.3275 11.5027L22.1513 23.8777L13.9388 16.5764C13.6881 16.3433 13.3876 16.1705 13.0601 16.0711C12.7326 15.9717 12.3867 15.9483 12.0488 16.0027C11.715 16.0581 11.3981 16.188 11.1215 16.3827C10.8449 16.5775 10.6158 16.8321 10.4512 17.1277L4.5 28.3777V2.50269H2.25V31.7527C2.25 32.3494 2.48705 32.9217 2.90901 33.3437C3.33097 33.7656 3.90326 34.0027 4.5 34.0027H33.75V31.7527H5.25375Z" fill="#EA580C"/>
</svg>
