<svg width="601" height="162" viewBox="0 0 601 162" fill="none" xmlns="http://www.w3.org/2000/svg">
<path d="M300.801 0.400391C312.501 0.400391 322.001 9.90041 322.001 21.6004C322.001 33.3004 312.501 42.8004 300.801 42.8004C289.101 42.8004 279.601 33.3004 279.601 21.6004C279.701 9.90041 289.201 0.400391 300.801 0.400391ZM300.801 32.4004C306.801 32.4004 311.701 27.5004 311.701 21.5004C311.701 15.5004 306.801 10.6004 300.801 10.6004C294.801 10.6004 289.901 15.5004 289.901 21.5004C290.001 27.6004 294.901 32.4004 300.801 32.4004ZM295.401 160.2V63.9004H306.301V160.2H295.401ZM0.800781 160.2V63.9004H11.7008V160.2H0.800781ZM93.1008 63.9004H102.901V160.2H90.6008L57.3008 79.7004V160.2H47.5008V63.9004H60.5008L93.1008 141.9V63.9004ZM422.101 160.2V63.9004H433.001V160.2C432.901 160.2 422.101 160.2 422.101 160.2ZM600.801 73.7004H566.401V104.5H598.201V114.3H566.401V150.5H600.801V160.3H556.001V64.0004H600.901C600.801 63.9004 600.801 73.7004 600.801 73.7004ZM514.401 63.9004H525.601L500.601 160.2H487.901L464.401 63.9004H475.601L494.301 148.3L514.401 63.9004ZM336.701 63.9004H390.301V73.7004H368.901V160.2H358.001V73.7004H336.601C336.701 73.7004 336.701 63.9004 336.701 63.9004ZM127.901 63.9004H181.501V73.7004H160.201V160.2H149.301V73.7004H127.901V63.9004ZM250.901 63.9004H261.401V135.2C261.001 149.7 249.601 161.6 235.001 161.6C220.401 161.6 208.901 149.7 208.601 135.2V63.9004H219.501V135.3C219.701 143.9 226.501 151 235.201 151C243.901 151 250.701 143.9 250.901 135.3V63.9004Z" fill="black"/>
</svg>
