<svg width="37" height="42" viewBox="0 0 37 42" fill="none" xmlns="http://www.w3.org/2000/svg">
<path d="M10.9023 14.6291L25.6372 5.68726" stroke="#EEF2F7" stroke-linecap="round" stroke-dasharray="1 2"/>
<path d="M5.13086 10.8734L19.5767 2.22046" stroke="#EEF2F7" stroke-linecap="round" stroke-dasharray="1 2"/>
<path d="M20.0365 20.4456L6.74414 28.3225" stroke="#EEF2F7" stroke-linejoin="round"/>
<path d="M20.7285 38.3352L35.174 29.554" stroke="#EEF2F7" stroke-linecap="round" stroke-dasharray="1 2"/>
<path d="M1.08203 13.3083V31.7699L16.2205 40.8776M1.08203 13.3083L6.74357 16.8776M1.08203 13.3083L4.40511 11.3391M16.2205 40.8776V33.8622M16.2205 40.8776L20.0359 38.6622M16.2205 33.8622L6.74357 28.3237V16.8776M16.2205 33.8622L20.0359 31.7699M6.74357 16.8776L10.3274 14.9334" stroke="#EEF2F7" stroke-linejoin="round"/>
<path d="M20.7285 31.4003L35.174 22.7839L25.6971 16.9993" stroke="#EEF2F7" stroke-linecap="round" stroke-dasharray="1 2"/>
<path d="M35.1759 11.0923V31.8923L20.0375 41M35.1759 11.0923L18.0682 1L2.56055 10.2308M35.1759 11.0923L20.0375 20.4462M20.0375 41V20.4462M20.0375 41L18.0682 39.7692M20.0375 20.4462L2.56055 10.2308M2.56055 10.2308V12.2" stroke="#EEF2F7" stroke-linejoin="round"/>
<path d="M25.9297 16.8899V5.62207" stroke="#EEF2F7" stroke-linecap="round" stroke-dasharray="1 2"/>
</svg>
