<svg width="35" height="35" viewBox="0 0 35 35" fill="none" xmlns="http://www.w3.org/2000/svg">
<path d="M34.6267 32.7375L25.1892 23.25C27.4454 20.5278 28.5662 17.0411 28.3189 13.5141C28.0715 9.98706 26.4751 6.69087 23.8611 4.31015C21.247 1.92942 17.8164 0.647137 14.2817 0.729639C10.747 0.812141 7.37992 2.25308 4.87983 4.75318C2.37973 7.25327 0.938789 10.6203 0.856287 14.1551C0.773785 17.6898 2.05607 21.1204 4.43679 23.7344C6.81752 26.3484 10.1137 27.9449 13.6407 28.1922C17.1677 28.4395 20.6544 27.3187 23.3767 25.0625L32.8642 34.5L34.6267 32.7375ZM3.37668 14.5C3.37668 12.275 4.03649 10.0999 5.27265 8.24987C6.50882 6.39982 8.26583 4.95788 10.3215 4.10639C12.3772 3.25491 14.6392 3.03212 16.8215 3.4662C19.0037 3.90029 21.0083 4.97174 22.5816 6.54508C24.155 8.11842 25.2264 10.123 25.6605 12.3053C26.0946 14.4876 25.8718 16.7496 25.0203 18.8052C24.1688 20.8609 22.7269 22.6179 20.8769 23.8541C19.0268 25.0902 16.8517 25.75 14.6267 25.75C11.643 25.75 8.78152 24.5648 6.67173 22.455C4.56195 20.3452 3.37668 17.4837 3.37668 14.5Z" fill="#21272C"/>
</svg>
