<svg width="32" height="32" viewBox="0 0 32 32" fill="none" xmlns="http://www.w3.org/2000/svg">
<path fill-rule="evenodd" clip-rule="evenodd" d="M6.11 15H12C12.5304 15 13.0391 15.2107 13.4142 15.5858C13.7893 15.9609 14 16.4696 14 17V23C14 23.5304 13.7893 24.0391 13.4142 24.4142C13.0391 24.7893 12.5304 25 12 25H6C5.46957 25 4.96086 24.7893 4.58579 24.4142C4.21071 24.0391 4 23.5304 4 23V16.35C4.00061 14.5394 4.44816 12.7569 5.30293 11.1607C6.15771 9.56456 7.39328 8.20408 8.9 7.2L10.69 6L11.79 7.66L10 8.86C8.96033 9.55672 8.07739 10.4626 7.40759 11.5198C6.73779 12.577 6.29585 13.7623 6.11 15ZM20.11 15H26C26.5304 15 27.0391 15.2107 27.4142 15.5858C27.7893 15.9609 28 16.4696 28 17V23C28 23.5304 27.7893 24.0391 27.4142 24.4142C27.0391 24.7893 26.5304 25 26 25H20C19.4696 25 18.9609 24.7893 18.5858 24.4142C18.2107 24.0391 18 23.5304 18 23V16.35C18.0006 14.5394 18.4482 12.7569 19.3029 11.1607C20.1577 9.56456 21.3933 8.20408 22.9 7.2L24.7 6L25.79 7.66L24 8.86C22.9603 9.55672 22.0774 10.4626 21.4076 11.5198C20.7378 12.577 20.2959 13.7623 20.11 15Z" fill="#171717"/>
</svg>
