<svg width="32" height="32" viewBox="0 0 32 32" fill="none" xmlns="http://www.w3.org/2000/svg">
<path d="M22.9997 20.0002C22.2512 20.004 21.513 20.1757 20.8398 20.5029C20.1665 20.83 19.5753 21.3041 19.1097 21.8902L11.7997 17.3202C12.0661 16.4604 12.0661 15.54 11.7997 14.6802L19.1097 10.1102C19.8516 11.0289 20.8948 11.6554 22.0544 11.8786C23.214 12.1018 24.4152 11.9074 25.4452 11.3298C26.4752 10.7522 27.2675 9.8287 27.6818 8.72285C28.0961 7.61701 28.1056 6.40022 27.7086 5.28804C27.3117 4.17585 26.5339 3.24006 25.5131 2.64643C24.4922 2.05281 23.2942 1.83965 22.1312 2.04474C20.9683 2.24983 19.9155 2.85991 19.1593 3.76692C18.403 4.67394 17.9923 5.81933 17.9997 7.0002C18.0044 7.44738 18.0717 7.8917 18.1997 8.3202L10.8897 12.8902C10.2443 12.0778 9.36223 11.4863 8.36565 11.1976C7.36906 10.9089 6.30736 10.9375 5.32771 11.2792C4.34806 11.621 3.49898 12.259 2.89818 13.1049C2.29738 13.9508 1.97461 14.9627 1.97461 16.0002C1.97461 17.0378 2.29738 18.0496 2.89818 18.8955C3.49898 19.7414 4.34806 20.3794 5.32771 20.7212C6.30736 21.0629 7.36906 21.0915 8.36565 20.8028C9.36223 20.5142 10.2443 19.9226 10.8897 19.1102L18.1997 23.6802C18.0717 24.1087 18.0044 24.553 17.9997 25.0002C17.9997 25.9891 18.2929 26.9558 18.8423 27.7781C19.3918 28.6003 20.1726 29.2412 21.0863 29.6196C21.9999 29.998 23.0052 30.0971 23.9751 29.9041C24.9451 29.7112 25.836 29.235 26.5352 28.5357C27.2345 27.8365 27.7107 26.9456 27.9036 25.9757C28.0965 25.0058 27.9975 24.0004 27.6191 23.0868C27.2407 22.1732 26.5998 21.3923 25.7775 20.8429C24.9553 20.2934 23.9886 20.0002 22.9997 20.0002ZM22.9997 4.0002C23.593 4.0002 24.1731 4.17615 24.6664 4.5058C25.1597 4.83544 25.5443 5.30398 25.7713 5.85215C25.9984 6.40033 26.0578 7.00353 25.942 7.58547C25.8263 8.16742 25.5406 8.70197 25.121 9.12152C24.7015 9.54108 24.1669 9.8268 23.585 9.94256C23.003 10.0583 22.3998 9.99891 21.8516 9.77184C21.3035 9.54478 20.8349 9.16026 20.5053 8.66691C20.1756 8.17357 19.9997 7.59355 19.9997 7.0002C19.9997 6.20455 20.3158 5.44149 20.8784 4.87888C21.441 4.31627 22.204 4.0002 22.9997 4.0002ZM6.9997 19.0002C6.40635 19.0002 5.82633 18.8243 5.33298 18.4946C4.83964 18.165 4.45512 17.6964 4.22806 17.1483C4.00099 16.6001 3.94158 15.9969 4.05734 15.4149C4.1731 14.833 4.45882 14.2984 4.87838 13.8789C5.29793 13.4593 5.83248 13.1736 6.41442 13.0578C6.99637 12.9421 7.59957 13.0015 8.14775 13.2286C8.69592 13.4556 9.16446 13.8401 9.4941 14.3335C9.82375 14.8268 9.99969 15.4069 9.99969 16.0002C9.99969 16.7959 9.68363 17.5589 9.12102 18.1215C8.55841 18.6841 7.79534 19.0002 6.9997 19.0002ZM22.9997 28.0002C22.4063 28.0002 21.8263 27.8243 21.333 27.4946C20.8396 27.165 20.4551 26.6964 20.2281 26.1483C20.001 25.6001 19.9416 24.9969 20.0573 24.4149C20.1731 23.833 20.4588 23.2984 20.8784 22.8789C21.2979 22.4593 21.8325 22.1736 22.4144 22.0578C22.9964 21.9421 23.5996 22.0015 24.1477 22.2286C24.6959 22.4556 25.1645 22.8401 25.4941 23.3335C25.8237 23.8268 25.9997 24.4069 25.9997 25.0002C25.9997 25.7959 25.6836 26.5589 25.121 27.1215C24.5584 27.6841 23.7953 28.0002 22.9997 28.0002Z" fill="#171717"/>
</svg>
