<svg width="72" height="72" viewBox="0 0 72 72" fill="none" xmlns="http://www.w3.org/2000/svg">
<path d="M60.75 6.75H11.25C10.0569 6.75119 8.91299 7.22568 8.06934 8.06934C7.22568 8.91299 6.75119 10.0569 6.75 11.25V60.75C6.75137 61.9431 7.22592 63.0869 8.06953 63.9305C8.91315 64.7741 10.0569 65.2486 11.25 65.25H60.75C61.943 65.2484 63.0866 64.7738 63.9302 63.9302C64.7738 63.0866 65.2484 61.943 65.25 60.75V11.25C65.2486 10.0569 64.7741 8.91315 63.9305 8.06953C63.0869 7.22592 61.9431 6.75137 60.75 6.75ZM60.75 20.25H38.25V11.25H60.75V20.25ZM33.75 60.75H24.75V51.75H33.75V60.75ZM33.75 47.25H24.75V38.25H33.75V47.25ZM20.25 47.25H11.25V38.25H20.25V47.25ZM24.75 33.75V24.75H47.25V33.75H24.75ZM24.75 20.25V11.25H33.75V20.25H24.75ZM51.75 24.75H60.75V33.75H51.75V24.75ZM20.25 11.25V33.75H11.25V11.25H20.25ZM11.25 51.75H20.25V60.75H11.25V51.75ZM38.25 60.75V38.25H60.7522L60.7545 60.75H38.25Z" fill="#262626"/>
</svg>
