<svg width="78" height="41" viewBox="0 0 78 41" fill="none" xmlns="http://www.w3.org/2000/svg">
<path d="M5.43502 0.926931C6.80336 0.411991 8.27808 0.556535 9.70848 0.54449C29.9054 0.547501 50.1032 0.548505 70.3017 0.547501C73.99 0.514377 77.2645 3.83589 77.2793 7.58803C77.2852 16.3149 77.2852 25.0428 77.2793 33.7717C77.2084 37.1565 74.4954 40.2732 71.1854 40.6587C68.9215 40.6737 66.6577 40.7851 64.3969 40.6827C45.4826 40.6888 26.5673 40.6908 7.65095 40.6888C3.90651 40.8785 0.445778 37.313 0.649698 33.5007C0.652653 24.8702 0.653638 16.2396 0.652653 7.60911C0.563992 4.63089 2.70368 1.85142 5.43443 0.926931H5.43502Z" fill="#121619"/>
<path d="M6.66778 3.07214C7.08839 2.98152 7.51758 2.9388 7.94745 2.94476C28.7237 2.9538 49.4999 2.95681 70.2761 2.9538C72.6965 2.95078 74.8746 5.10089 74.9012 7.57622C74.9248 16.2218 74.9042 24.8674 74.9101 33.513C74.9869 36.169 72.5812 38.4576 70.013 38.3793C49.3255 38.3793 28.637 38.3803 7.94745 38.3823C5.37333 38.4967 2.85536 36.184 2.99426 33.5039C3.00293 25.2709 3.00293 17.0389 2.99426 8.80786C3.01495 7.83218 2.88491 6.79628 3.33709 5.89287C3.63799 5.19057 4.09588 4.56967 4.67418 4.07976C5.25248 3.58985 5.93518 3.24448 6.66778 3.07124V3.07214Z" fill="white"/>
<path d="M32.9438 8.30302C33.721 8.30603 34.4993 8.30503 35.2785 8.30001C36.8271 11.9407 38.3137 15.6025 39.8652 19.2402C38.9786 19.2583 38.095 19.2583 37.2084 19.2433C36.9335 18.4362 36.6173 17.6442 36.2952 16.8522C34.7879 16.8191 33.2807 16.8462 31.7735 16.8281C31.4661 17.6472 31.139 18.4583 30.7923 19.2613C29.9589 19.2553 29.1255 19.2553 28.295 19.2493C29.8613 15.6086 31.4277 11.9648 32.9438 8.30302V8.30302ZM42.6699 9.25762C44.6913 7.80013 47.4576 7.89649 49.5943 9.03779C49.5677 9.79966 49.5618 10.5615 49.5706 11.3234C47.9866 10.3206 45.7907 9.95926 44.1889 11.1096C42.5369 12.2027 42.3625 14.8858 43.7929 16.2409C45.1878 17.6352 47.4989 17.3732 49.0505 16.3945C49.4288 16.9877 49.813 17.581 50.2031 18.1682C48.687 19.3426 46.6892 19.6287 44.845 19.3366C42.4275 18.9692 40.4859 16.7017 40.3351 14.2354C40.2775 13.2719 40.4616 12.3094 40.8701 11.4385C41.2785 10.5676 41.8979 9.81707 42.6699 9.25762V9.25762ZM8.33447 19.2613C8.3522 15.6236 8.32265 11.9889 8.34925 8.3512C10.084 8.39637 11.8188 8.33314 13.5536 8.38132C14.8126 8.40842 16.246 9.01069 16.6656 10.3266C17.1799 11.5312 16.4795 12.7839 15.6283 13.6C16.1631 13.8156 16.6177 14.1971 16.928 14.6905C17.2383 15.1839 17.3884 15.7642 17.3572 16.3493C17.2289 18.3296 15.8795 19.1138 14.4225 19.2131C12.3951 19.3125 10.3619 19.2192 8.33447 19.2613ZM19.8574 19.2553C19.8633 15.6266 19.8633 11.9979 19.8574 8.36927C20.6495 8.36626 21.4415 8.36626 22.2335 8.36927C22.2247 11.2632 22.2306 14.1571 22.2276 17.051C24.0009 17.054 25.7711 17.048 27.5443 17.054C27.5471 17.7797 27.553 18.5065 27.5621 19.2342C24.9939 19.2794 22.4256 19.2402 19.8574 19.2553ZM51.7783 19.2523C51.8049 15.6206 51.7872 11.9889 51.7872 8.36024C52.5733 8.36325 53.3624 8.36927 54.1515 8.37228C54.1544 9.94421 54.1396 11.5131 54.1515 13.085C55.5251 11.5432 56.829 9.9412 58.1737 8.3753C59.243 8.36024 60.3104 8.36024 61.3773 8.38433C59.7755 10.1189 58.1924 11.8705 56.6281 13.6391C58.221 15.5574 59.9292 17.3672 61.5783 19.2342C60.4937 19.2643 59.412 19.2673 58.3303 19.2312C57.0004 17.581 55.5819 16.0061 54.1633 14.4371C54.1308 16.0392 54.1515 17.6382 54.1603 19.2402C53.3653 19.2553 52.5698 19.2553 51.7777 19.2523H51.7783ZM69.5991 12.6755H68.2308C67.7556 12.6635 67.2792 12.6665 66.8034 12.6755C66.8181 11.7661 66.8211 10.8536 66.8211 9.94421C66.0823 9.94421 65.3444 9.94521 64.6075 9.94722C64.5928 10.8536 64.5987 11.7631 64.6129 12.6725C63.7085 12.6785 62.8052 12.6805 61.9028 12.6785C61.888 13.4163 61.8811 14.1561 61.8821 14.8979C62.7884 14.8949 63.6967 14.8929 64.6069 14.8919C64.6069 15.8314 64.601 16.7709 64.5951 17.7105C65.3369 17.7135 66.0817 17.7135 66.8235 17.7135C66.8205 16.7709 66.8146 15.8314 66.8116 14.8919L69.5513 14.9069C69.571 14.1902 69.5867 13.4735 69.5986 12.7568H69.5968L69.5991 12.6755Z" fill="#121619"/>
<path d="M33.9811 11.218C34.5574 12.3714 34.9741 13.597 35.444 14.7985C34.4865 14.7955 33.5289 14.7975 32.5714 14.8045C33.0384 13.606 33.5821 12.4406 33.9811 11.218Z" fill="white"/>
<path d="M32.7931 22.1647C34.5781 21.5143 36.5493 21.8666 38.2664 22.5743C38.2871 23.3633 38.2959 24.1552 38.3019 24.9472C36.7089 24.0167 34.5899 23.571 32.9704 24.6883C31.3183 25.7242 31.0021 28.2989 32.3468 29.7232C33.721 31.3042 36.1592 31.0633 37.7847 30.0213C38.1452 30.6146 38.5186 31.1988 38.9047 31.7739C36.4459 33.6681 32.4148 33.6079 30.3726 31.0964C28.9865 29.5606 28.7383 27.1997 29.4683 25.2996C29.7812 24.5722 30.2379 23.9184 30.81 23.379C31.3821 22.8397 32.0571 22.4263 32.7931 22.1647V22.1647ZM8.33447 32.855C8.35516 29.2294 8.31674 25.6037 8.35516 21.981C10.6574 22.1105 13.1222 21.5956 15.2648 22.7218C16.2443 23.2633 17.031 24.1058 17.513 25.1295C17.995 26.1532 18.1477 27.3058 17.9492 28.4231C17.7507 29.5403 17.2113 30.5653 16.4077 31.3519C15.6041 32.1385 14.5774 32.6466 13.4738 32.8038C11.7627 32.9092 10.0486 32.8219 8.33447 32.855ZM19.8545 32.852C19.8811 29.2264 19.8308 25.6007 19.8811 21.975C22.4345 22.0112 24.9879 21.9841 27.5414 21.9901C27.5473 22.6978 27.5502 23.4084 27.5591 24.1161C25.7711 24.1673 23.9831 24.0649 22.1981 24.1673C22.2069 24.893 22.2247 25.6218 22.2631 26.3475C23.8265 26.2993 25.3899 26.3204 26.9562 26.3264C26.9503 27.0311 26.9503 27.7387 26.9473 28.4434C25.3692 28.4462 23.792 28.4452 22.2158 28.4404V30.726C24.0127 30.7228 25.8095 30.7228 27.6064 30.726C27.6064 31.4367 27.6034 32.1504 27.6005 32.861C25.0205 32.84 22.4375 32.852 19.8545 32.852ZM40.5036 32.858C40.5391 29.2263 40.4445 25.5917 40.5479 21.963C41.3222 21.9841 42.0995 21.9931 42.8768 21.9991C42.8827 23.5831 42.8502 25.1671 42.9034 26.754C44.2244 25.1369 45.5454 23.5168 46.9611 21.9841C48.0014 21.9961 49.0387 21.9901 50.079 21.981C48.5126 23.7668 46.8872 25.5013 45.3297 27.3021C46.9433 29.1721 48.6456 30.9639 50.2356 32.855C49.1776 32.8601 48.1225 32.855 47.0645 32.8339C45.6755 31.244 44.3131 29.6269 42.8856 28.076C42.859 29.663 42.8827 31.253 42.8768 32.843C42.0847 32.8484 41.2937 32.8534 40.5036 32.858ZM51.7813 32.855C51.8108 29.2294 51.7665 25.6007 51.8049 21.975C54.3583 22.0112 56.9147 21.981 59.4682 21.9901C59.4711 22.7008 59.4711 23.4144 59.4741 24.1251C57.692 24.1312 55.9129 24.1071 54.1337 24.1402C54.1249 24.878 54.1396 25.6157 54.1869 26.3535C55.7503 26.2933 57.3167 26.3204 58.88 26.3294C58.88 27.0341 58.8771 27.7387 58.8771 28.4434C57.293 28.4466 55.7109 28.4456 54.1308 28.4404C54.1335 29.2033 54.1385 29.9661 54.1455 30.729C55.9306 30.714 57.7186 30.7441 59.5036 30.7019C59.5214 31.4216 59.5332 32.1389 59.5391 32.858C56.9529 32.846 54.367 32.845 51.7813 32.855V32.855ZM67.7757 29.0487C68.317 28.8778 68.8257 28.614 69.28 28.2687C71.0532 26.7721 70.7399 23.3271 68.5027 22.4568C68.1667 22.3213 67.8196 22.2165 67.4654 22.1437C67.4311 22.1361 67.4018 22.1277 67.3631 22.1205L67.3448 22.1175C66.5783 21.9854 65.8005 21.9336 65.0237 21.963C63.481 21.9365 61.8738 21.9865 61.8738 21.9865C61.8679 25.6091 61.8679 29.2338 61.8738 32.8604C62.66 32.8514 63.449 32.8514 64.2352 32.8544C64.244 31.6077 64.2352 30.364 64.247 29.1173C64.4391 29.1475 64.8203 29.2107 65.0095 29.2408C66.0882 30.2857 66.8034 31.6559 67.8141 32.7671C68.7953 32.9689 69.8238 32.8032 70.8227 32.8544C69.8208 31.5752 68.8012 30.3098 67.7757 29.0481V29.0487Z" fill="#121619"/>
<path d="M10.678 24.2049C11.7745 24.2501 12.9743 24.0122 13.9733 24.5994C15.9267 25.6172 16.0627 28.7972 14.3249 30.0951C13.3024 30.9503 11.8897 30.6462 10.6751 30.6974C10.6898 28.5322 10.6839 26.3701 10.678 24.2049V24.2049ZM64.241 24.2028C65.2695 24.2751 66.3896 24.0071 67.356 24.4558C68.281 24.9135 68.219 26.4161 67.3057 26.8468C66.3393 27.2714 65.2399 27.0455 64.2203 27.0636C64.241 26.109 64.244 25.1574 64.241 24.2028ZM10.6426 10.4771C10.6426 10.4771 14.6432 10.0293 14.4284 11.6298C14.4284 11.6298 14.6619 12.7907 12.7769 12.7711L10.657 12.7907L10.6426 10.4771ZM10.6514 14.7562C10.6514 14.7562 15.2157 14.3768 15.0679 15.8614C15.0679 15.8614 15.2503 17.1924 13.5335 17.1117L10.642 17.1201L10.6514 14.7562Z" fill="white"/>
<path d="M5.43502 0.926931C6.80336 0.411991 8.27808 0.556535 9.70848 0.54449C29.9054 0.547501 50.1032 0.548505 70.3017 0.547501C73.99 0.514377 77.2645 3.83589 77.2793 7.58803C77.2852 16.3149 77.2852 25.0428 77.2793 33.7717C77.2084 37.1565 74.4954 40.2732 71.1854 40.6587C68.9215 40.6737 66.6577 40.7851 64.3969 40.6827C45.4826 40.6888 26.5673 40.6908 7.65095 40.6888C3.90651 40.8785 0.445778 37.313 0.649698 33.5007C0.652653 24.8702 0.653638 16.2396 0.652653 7.60911C0.563992 4.63089 2.70368 1.85142 5.43443 0.926931H5.43502Z" fill="#121619"/>
<path d="M6.66778 3.07214C7.08839 2.98152 7.51758 2.9388 7.94745 2.94476C28.7237 2.9538 49.4999 2.95681 70.2761 2.9538C72.6965 2.95078 74.8746 5.10089 74.9012 7.57622C74.9248 16.2218 74.9042 24.8674 74.9101 33.513C74.9869 36.169 72.5812 38.4576 70.013 38.3793C49.3255 38.3793 28.637 38.3803 7.94745 38.3823C5.37333 38.4967 2.85536 36.184 2.99426 33.5039C3.00293 25.2709 3.00293 17.0389 2.99426 8.80786C3.01495 7.83218 2.88491 6.79628 3.33709 5.89287C3.63799 5.19057 4.09588 4.56967 4.67418 4.07976C5.25248 3.58985 5.93518 3.24448 6.66778 3.07124V3.07214Z" fill="white"/>
<path d="M32.9438 8.30302C33.721 8.30603 34.4993 8.30503 35.2785 8.30001C36.8271 11.9407 38.3137 15.6025 39.8652 19.2402C38.9786 19.2583 38.095 19.2583 37.2084 19.2433C36.9335 18.4362 36.6173 17.6442 36.2952 16.8522C34.7879 16.8191 33.2807 16.8462 31.7735 16.8281C31.4661 17.6472 31.139 18.4583 30.7923 19.2613C29.9589 19.2553 29.1255 19.2553 28.295 19.2493C29.8613 15.6086 31.4277 11.9648 32.9438 8.30302V8.30302ZM42.6699 9.25762C44.6913 7.80013 47.4576 7.89649 49.5943 9.03779C49.5677 9.79966 49.5618 10.5615 49.5706 11.3234C47.9866 10.3206 45.7907 9.95926 44.1889 11.1096C42.5369 12.2027 42.3625 14.8858 43.7929 16.2409C45.1878 17.6352 47.4989 17.3732 49.0505 16.3945C49.4288 16.9877 49.813 17.581 50.2031 18.1682C48.687 19.3426 46.6892 19.6287 44.845 19.3366C42.4275 18.9692 40.4859 16.7017 40.3351 14.2354C40.2775 13.2719 40.4616 12.3094 40.8701 11.4385C41.2785 10.5676 41.8979 9.81707 42.6699 9.25762V9.25762ZM8.33447 19.2613C8.3522 15.6236 8.32265 11.9889 8.34925 8.3512C10.084 8.39637 11.8188 8.33314 13.5536 8.38132C14.8126 8.40842 16.246 9.01069 16.6656 10.3266C17.1799 11.5312 16.4795 12.7839 15.6283 13.6C16.1631 13.8156 16.6177 14.1971 16.928 14.6905C17.2383 15.1839 17.3884 15.7642 17.3572 16.3493C17.2289 18.3296 15.8795 19.1138 14.4225 19.2131C12.3951 19.3125 10.3619 19.2192 8.33447 19.2613ZM19.8574 19.2553C19.8633 15.6266 19.8633 11.9979 19.8574 8.36927C20.6495 8.36626 21.4415 8.36626 22.2335 8.36927C22.2247 11.2632 22.2306 14.1571 22.2276 17.051C24.0009 17.054 25.7711 17.048 27.5443 17.054C27.5471 17.7797 27.553 18.5065 27.5621 19.2342C24.9939 19.2794 22.4256 19.2402 19.8574 19.2553ZM51.7783 19.2523C51.8049 15.6206 51.7872 11.9889 51.7872 8.36024C52.5733 8.36325 53.3624 8.36927 54.1515 8.37228C54.1544 9.94421 54.1396 11.5131 54.1515 13.085C55.5251 11.5432 56.829 9.9412 58.1737 8.3753C59.243 8.36024 60.3104 8.36024 61.3773 8.38433C59.7755 10.1189 58.1924 11.8705 56.6281 13.6391C58.221 15.5574 59.9292 17.3672 61.5783 19.2342C60.4937 19.2643 59.412 19.2673 58.3303 19.2312C57.0004 17.581 55.5819 16.0061 54.1633 14.4371C54.1308 16.0392 54.1515 17.6382 54.1603 19.2402C53.3653 19.2553 52.5698 19.2553 51.7777 19.2523H51.7783ZM69.5991 12.6755H68.2308C67.7556 12.6635 67.2792 12.6665 66.8034 12.6755C66.8181 11.7661 66.8211 10.8536 66.8211 9.94421C66.0823 9.94421 65.3444 9.94521 64.6075 9.94722C64.5928 10.8536 64.5987 11.7631 64.6129 12.6725C63.7085 12.6785 62.8052 12.6805 61.9028 12.6785C61.888 13.4163 61.8811 14.1561 61.8821 14.8979C62.7884 14.8949 63.6967 14.8929 64.6069 14.8919C64.6069 15.8314 64.601 16.7709 64.5951 17.7105C65.3369 17.7135 66.0817 17.7135 66.8235 17.7135C66.8205 16.7709 66.8146 15.8314 66.8116 14.8919L69.5513 14.9069C69.571 14.1902 69.5867 13.4735 69.5986 12.7568H69.5968L69.5991 12.6755Z" fill="#121619"/>
<path d="M33.9811 11.218C34.5574 12.3714 34.9741 13.597 35.444 14.7985C34.4865 14.7955 33.5289 14.7975 32.5714 14.8045C33.0384 13.606 33.5821 12.4406 33.9811 11.218Z" fill="white"/>
<path d="M32.7931 22.1647C34.5781 21.5143 36.5493 21.8666 38.2664 22.5743C38.2871 23.3633 38.2959 24.1552 38.3019 24.9472C36.7089 24.0167 34.5899 23.571 32.9704 24.6883C31.3183 25.7242 31.0021 28.2989 32.3468 29.7232C33.721 31.3042 36.1592 31.0633 37.7847 30.0213C38.1452 30.6146 38.5186 31.1988 38.9047 31.7739C36.4459 33.6681 32.4148 33.6079 30.3726 31.0964C28.9865 29.5606 28.7383 27.1997 29.4683 25.2996C29.7812 24.5722 30.2379 23.9184 30.81 23.379C31.3821 22.8397 32.0571 22.4263 32.7931 22.1647V22.1647ZM8.33447 32.855C8.35516 29.2294 8.31674 25.6037 8.35516 21.981C10.6574 22.1105 13.1222 21.5956 15.2648 22.7218C16.2443 23.2633 17.031 24.1058 17.513 25.1295C17.995 26.1532 18.1477 27.3058 17.9492 28.4231C17.7507 29.5403 17.2113 30.5653 16.4077 31.3519C15.6041 32.1385 14.5774 32.6466 13.4738 32.8038C11.7627 32.9092 10.0486 32.8219 8.33447 32.855ZM19.8545 32.852C19.8811 29.2264 19.8308 25.6007 19.8811 21.975C22.4345 22.0112 24.9879 21.9841 27.5414 21.9901C27.5473 22.6978 27.5502 23.4084 27.5591 24.1161C25.7711 24.1673 23.9831 24.0649 22.1981 24.1673C22.2069 24.893 22.2247 25.6218 22.2631 26.3475C23.8265 26.2993 25.3899 26.3204 26.9562 26.3264C26.9503 27.0311 26.9503 27.7387 26.9473 28.4434C25.3692 28.4462 23.792 28.4452 22.2158 28.4404V30.726C24.0127 30.7228 25.8095 30.7228 27.6064 30.726C27.6064 31.4367 27.6034 32.1504 27.6005 32.861C25.0205 32.84 22.4375 32.852 19.8545 32.852ZM40.5036 32.858C40.5391 29.2263 40.4445 25.5917 40.5479 21.963C41.3222 21.9841 42.0995 21.9931 42.8768 21.9991C42.8827 23.5831 42.8502 25.1671 42.9034 26.754C44.2244 25.1369 45.5454 23.5168 46.9611 21.9841C48.0014 21.9961 49.0387 21.9901 50.079 21.981C48.5126 23.7668 46.8872 25.5013 45.3297 27.3021C46.9433 29.1721 48.6456 30.9639 50.2356 32.855C49.1776 32.8601 48.1225 32.855 47.0645 32.8339C45.6755 31.244 44.3131 29.6269 42.8856 28.076C42.859 29.663 42.8827 31.253 42.8768 32.843C42.0847 32.8484 41.2937 32.8534 40.5036 32.858ZM51.7813 32.855C51.8108 29.2294 51.7665 25.6007 51.8049 21.975C54.3583 22.0112 56.9147 21.981 59.4682 21.9901C59.4711 22.7008 59.4711 23.4144 59.4741 24.1251C57.692 24.1312 55.9129 24.1071 54.1337 24.1402C54.1249 24.878 54.1396 25.6157 54.1869 26.3535C55.7503 26.2933 57.3167 26.3204 58.88 26.3294C58.88 27.0341 58.8771 27.7387 58.8771 28.4434C57.293 28.4466 55.7109 28.4456 54.1308 28.4404C54.1335 29.2033 54.1385 29.9661 54.1455 30.729C55.9306 30.714 57.7186 30.7441 59.5036 30.7019C59.5214 31.4216 59.5332 32.1389 59.5391 32.858C56.9529 32.846 54.367 32.845 51.7813 32.855V32.855ZM67.7757 29.0487C68.317 28.8778 68.8257 28.614 69.28 28.2687C71.0532 26.7721 70.7399 23.3271 68.5027 22.4568C68.1667 22.3213 67.8196 22.2165 67.4654 22.1437C67.4311 22.1361 67.4018 22.1277 67.3631 22.1205L67.3448 22.1175C66.5783 21.9854 65.8005 21.9336 65.0237 21.963C63.481 21.9365 61.8738 21.9865 61.8738 21.9865C61.8679 25.6091 61.8679 29.2338 61.8738 32.8604C62.66 32.8514 63.449 32.8514 64.2352 32.8544C64.244 31.6077 64.2352 30.364 64.247 29.1173C64.4391 29.1475 64.8203 29.2107 65.0095 29.2408C66.0882 30.2857 66.8034 31.6559 67.8141 32.7671C68.7953 32.9689 69.8238 32.8032 70.8227 32.8544C69.8208 31.5752 68.8012 30.3098 67.7757 29.0481V29.0487Z" fill="#121619"/>
<path d="M10.678 24.2049C11.7745 24.2501 12.9743 24.0122 13.9733 24.5994C15.9267 25.6172 16.0627 28.7972 14.3249 30.0951C13.3024 30.9503 11.8897 30.6462 10.6751 30.6974C10.6898 28.5322 10.6839 26.3701 10.678 24.2049V24.2049ZM64.241 24.2028C65.2695 24.2751 66.3896 24.0071 67.356 24.4558C68.281 24.9135 68.219 26.4161 67.3057 26.8468C66.3393 27.2714 65.2399 27.0455 64.2203 27.0636C64.241 26.109 64.244 25.1574 64.241 24.2028ZM10.6426 10.4771C10.6426 10.4771 14.6432 10.0293 14.4284 11.6298C14.4284 11.6298 14.6619 12.7907 12.7769 12.7711L10.657 12.7907L10.6426 10.4771ZM10.6514 14.7562C10.6514 14.7562 15.2157 14.3768 15.0679 15.8614C15.0679 15.8614 15.2503 17.1924 13.5335 17.1117L10.642 17.1201L10.6514 14.7562Z" fill="white"/>
</svg>
