<svg width="158" height="31" viewBox="0 0 158 31" fill="none" xmlns="http://www.w3.org/2000/svg">
<g clip-path="url(#clip0_3596_353470)">
<path d="M26.9435 6.26822C22.4397 6.26822 18.6471 9.56058 18.015 14.0119V1.63257C18.015 1.55356 17.9623 1.50088 17.8833 1.50088C17.857 1.50088 17.8043 1.52722 17.778 1.55356L12.5104 6.97937C11.4042 6.50527 10.1927 6.26822 9.0075 6.26822C4.02967 6.26822 0 10.2981 0 15.2498C0 20.2015 4.02967 24.2313 9.0075 24.2313C13.5113 24.2313 17.3039 20.939 17.936 16.4877V28.867C17.936 28.9987 18.094 29.0514 18.173 28.9723L23.4406 23.5465C24.5468 24.0206 25.732 24.2577 26.9435 24.2577C31.9213 24.2577 35.951 20.2278 35.951 15.2761C35.951 10.2717 31.9213 6.26822 26.9435 6.26822ZM70.032 2.50176C70.032 3.60799 69.1365 4.50351 68.0303 4.50351C66.9241 4.50351 66.0287 3.60799 66.0287 2.50176C66.0287 1.39552 66.9241 0.5 68.0303 0.5C69.1365 0.5 70.032 1.36918 70.032 2.50176ZM93.736 0.763389V23.9416C93.736 24.0733 93.8413 24.1523 93.9467 24.1523H96.7911C96.9228 24.1523 97.0018 24.047 97.0018 23.9416V0.763389C97.0018 0.631694 96.8965 0.552678 96.7911 0.552678H93.9467C93.8413 0.552678 93.736 0.658033 93.736 0.763389ZM59.3916 8.90211V0.789728C59.3916 0.658033 59.4969 0.579017 59.6023 0.579017H62.4467C62.5784 0.579017 62.6574 0.684372 62.6574 0.789728V23.968C62.6574 24.0996 62.5521 24.1787 62.4467 24.1787H59.6023C59.4706 24.1787 59.3916 24.0733 59.3916 23.968V21.9662C58.022 23.5202 56.0993 24.4684 53.729 24.4684C48.8565 24.4684 44.8795 20.4122 44.8795 15.4342C44.8795 10.4561 48.8565 6.39991 53.729 6.39991C56.0993 6.39991 58.022 7.34811 59.3916 8.90211V8.90211ZM48.4877 15.4342C48.4877 18.5685 50.8581 21.1234 53.9133 21.1234C56.9685 21.1234 59.0755 18.5685 59.0755 15.4342C59.0755 12.2998 56.9948 9.74495 53.9133 9.74495C50.8318 9.74495 48.4877 12.2998 48.4877 15.4342V15.4342ZM104.008 8.90211C105.377 7.34811 107.3 6.39991 109.67 6.39991C114.543 6.39991 118.52 10.4561 118.52 15.4342C118.52 20.4122 114.543 24.4684 109.67 24.4684C107.3 24.4684 105.377 23.5202 104.008 21.9662V30.2893C104.008 30.421 103.902 30.5 103.797 30.5H100.952C100.821 30.5 100.742 30.3946 100.742 30.2893V7.11106C100.742 6.97937 100.847 6.90035 100.952 6.90035H103.797C103.929 6.90035 104.008 7.00571 104.008 7.11106V8.90211ZM104.324 15.4342C104.324 18.5685 106.404 21.1234 109.486 21.1234C112.567 21.1234 114.911 18.5685 114.911 15.4342C114.911 12.2998 112.541 9.74495 109.486 9.74495C106.431 9.74495 104.324 12.2998 104.324 15.4342V15.4342ZM86.7301 8.90211V7.11106C86.7301 6.97937 86.8355 6.90035 86.9408 6.90035H89.7853C89.917 6.90035 89.996 7.00571 89.996 7.11106V23.968C89.996 24.0996 89.8906 24.1787 89.7853 24.1787H86.9408C86.8091 24.1787 86.7301 24.0733 86.7301 23.968V21.9662C85.3606 23.5202 83.4379 24.4684 81.0938 24.4684C76.2214 24.4684 72.2444 20.4122 72.2444 15.4342C72.2444 10.4561 76.2214 6.39991 81.0938 6.39991C83.4642 6.39991 85.3869 7.34811 86.7301 8.90211V8.90211ZM75.8526 15.4342C75.8526 18.5685 78.223 21.1234 81.2782 21.1234C84.3334 21.1234 86.4404 18.5685 86.4404 15.4342C86.4404 12.2998 84.3597 9.74495 81.2782 9.74495C78.1967 9.74495 75.8526 12.2998 75.8526 15.4342V15.4342ZM134.77 7.11106V8.90211C133.401 7.34811 131.478 6.39991 129.134 6.39991C124.261 6.39991 120.284 10.4561 120.284 15.4342C120.284 20.4122 124.261 24.4684 129.134 24.4684C131.504 24.4684 133.427 23.5202 134.77 21.9662V23.968C134.77 24.0996 134.875 24.1787 134.981 24.1787H137.825C137.957 24.1787 138.036 24.0733 138.036 23.968V7.11106C138.036 6.97937 137.931 6.90035 137.825 6.90035H134.981C134.875 6.87401 134.77 6.97937 134.77 7.11106V7.11106ZM129.292 21.1234C126.21 21.1234 123.866 18.5685 123.866 15.4342C123.866 12.2998 126.237 9.74495 129.292 9.74495C132.347 9.74495 134.454 12.2998 134.454 15.4342C134.454 18.5685 132.373 21.1234 129.292 21.1234ZM154.734 0.789728V8.90211C153.365 7.34811 151.442 6.39991 149.072 6.39991C144.199 6.39991 140.222 10.4561 140.222 15.4342C140.222 20.4122 144.199 24.4684 149.072 24.4684C151.442 24.4684 153.365 23.5202 154.734 21.9662V23.968C154.734 24.0996 154.839 24.1787 154.945 24.1787H157.789C157.921 24.1787 158 24.0733 158 23.968V0.789728C158 0.658033 157.895 0.579017 157.789 0.579017H154.945C154.813 0.552678 154.734 0.658033 154.734 0.789728ZM149.256 21.1234C146.174 21.1234 143.83 18.5685 143.83 15.4342C143.83 12.2998 146.201 9.74495 149.256 9.74495C152.311 9.74495 154.418 12.2998 154.418 15.4342C154.418 18.5685 152.337 21.1234 149.256 21.1234ZM66.3711 23.9416V7.11106C66.3711 6.97937 66.4764 6.90035 66.5818 6.90035H69.4262C69.5579 6.90035 69.6369 7.00571 69.6369 7.11106V23.9416C69.6369 24.0733 69.5316 24.1523 69.4262 24.1523H66.5818C66.4764 24.1787 66.3711 24.0733 66.3711 23.9416Z" fill="#262626"/>
</g>
<defs>
<clipPath id="clip0_3596_353470">
<rect width="158" height="30" fill="white" transform="translate(0 0.5)"/>
</clipPath>
</defs>
</svg>
