<svg width="56" height="56" viewBox="0 0 56 56" fill="none" xmlns="http://www.w3.org/2000/svg">
<path fill-rule="evenodd" clip-rule="evenodd" d="M16.6182 8.11339C17.1631 7.79554 17.8369 7.79554 18.3818 8.11339L28 13.724L37.6182 8.11339C38.1631 7.79554 38.8369 7.79554 39.3818 8.11339L49.8818 14.2384C50.4194 14.552 50.75 15.1276 50.75 15.75V29.75C50.75 30.4129 50.3755 31.0188 49.7826 31.3152L40.25 36.0816V46.375C40.25 46.9974 39.9194 47.573 39.3818 47.8866L28.8818 54.0116C28.3369 54.3295 27.6631 54.3295 27.1182 54.0116L6.11823 41.7616C5.58059 41.448 5.25 40.8724 5.25 40.25V15.75C5.25 15.1276 5.58059 14.552 6.11823 14.2384L16.6182 8.11339ZM39.1537 34.3876C38.7462 34.6216 38.2446 34.6199 37.8387 34.3831L29.0887 29.279C28.6854 29.0438 28.4375 28.6121 28.4375 28.1453L28.4375 16.7703C28.4375 16.3003 28.6888 15.8662 29.0963 15.6322C29.5038 15.3981 30.0053 15.3997 30.4113 15.6365L39.1613 20.7401C39.5645 20.9753 39.8125 21.407 39.8125 21.8739V33.2494C39.8125 33.7194 39.5612 34.1535 39.1537 34.3876Z" fill="#FBBF24"/>
</svg>
