<svg width="32" height="32" viewBox="0 0 32 32" fill="none" xmlns="http://www.w3.org/2000/svg">
<path fill-rule="evenodd" clip-rule="evenodd" d="M9.66671 4.50559C9.17336 4.17595 8.59334 4 8 4C7.20435 4 6.44129 4.31607 5.87868 4.87868C5.31607 5.44129 5 6.20435 5 7C5 7.59334 5.17595 8.17336 5.50559 8.66671C5.83523 9.16006 6.30377 9.54458 6.85195 9.77164C7.40013 9.9987 8.00333 10.0581 8.58527 9.94236C9.16721 9.8266 9.70176 9.54088 10.1213 9.12132C10.5409 8.70176 10.8266 8.16721 10.9424 7.58527C11.0581 7.00333 10.9987 6.40013 10.7716 5.85195C10.5446 5.30377 10.1601 4.83524 9.66671 4.50559ZM5.22215 2.84265C6.04439 2.29324 7.01109 2 8 2C9.32608 2 10.5978 2.52678 11.5355 3.46447C12.4732 4.40215 13 5.67392 13 7C13 7.98891 12.7068 8.95561 12.1573 9.77785C11.6079 10.6001 10.827 11.241 9.91342 11.6194C8.99978 11.9978 7.99445 12.0969 7.02455 11.9039C6.05464 11.711 5.16373 11.2348 4.46446 10.5355C3.7652 9.83627 3.289 8.94536 3.09607 7.97545C2.90315 7.00555 3.00216 6.00021 3.3806 5.08658C3.75904 4.17295 4.3999 3.39206 5.22215 2.84265ZM25.6667 12.5056C25.1734 12.1759 24.5933 12 24 12C23.2044 12 22.4413 12.3161 21.8787 12.8787C21.3161 13.4413 21 14.2044 21 15C21 15.5933 21.1759 16.1734 21.5056 16.6667C21.8352 17.1601 22.3038 17.5446 22.8519 17.7716C23.4001 17.9987 24.0033 18.0581 24.5853 17.9424C25.1672 17.8266 25.7018 17.5409 26.1213 17.1213C26.5409 16.7018 26.8266 16.1672 26.9424 15.5853C27.0581 15.0033 26.9987 14.4001 26.7716 13.8519C26.5446 13.3038 26.1601 12.8352 25.6667 12.5056ZM21.2221 10.8427C22.0444 10.2932 23.0111 10 24 10C25.3261 10 26.5979 10.5268 27.5355 11.4645C28.4732 12.4021 29 13.6739 29 15C29 15.9889 28.7068 16.9556 28.1573 17.7779C27.6079 18.6001 26.827 19.241 25.9134 19.6194C24.9998 19.9978 23.9945 20.0969 23.0245 19.9039C22.0546 19.711 21.1637 19.2348 20.4645 18.5355C19.7652 17.8363 19.289 16.9454 19.0961 15.9755C18.9031 15.0055 19.0022 14.0002 19.3806 13.0866C19.759 12.173 20.3999 11.3921 21.2221 10.8427ZM29 30H31V27C31 25.6739 30.4732 24.4021 29.5355 23.4645C28.5979 22.5268 27.3261 22 26 22H22C20.6739 22 19.4021 22.5268 18.4645 23.4645C17.5268 24.4021 17 25.6739 17 27V30H19V27C19 26.2044 19.3161 25.4413 19.8787 24.8787C20.4413 24.3161 21.2044 24 22 24H26C26.7956 24 27.5587 24.3161 28.1213 24.8787C28.6839 25.4413 29 26.2044 29 27V30ZM15 22H13V19C13 18.2044 12.6839 17.4413 12.1213 16.8787C11.5587 16.3161 10.7956 16 10 16H6C5.20435 16 4.44129 16.3161 3.87868 16.8787C3.31607 17.4413 3 18.2044 3 19V22H1V19C1 17.6739 1.52678 16.4021 2.46447 15.4645C3.40215 14.5268 4.67392 14 6 14H10C11.3261 14 12.5979 14.5268 13.5355 15.4645C14.4732 16.4021 15 17.6739 15 19V22Z" fill="black"/>
</svg>
