<svg width="151" height="32" viewBox="0 0 151 32" fill="none" xmlns="http://www.w3.org/2000/svg">
<g clip-path="url(#clip0_1154_23826)">
<path fill-rule="evenodd" clip-rule="evenodd" d="M143.709 27.2001C143.35 27.2001 143.15 26.976 143.15 26.6704C143.15 26.3647 143.35 26.1406 143.709 26.1406C144.608 26.1406 145.008 25.8556 145.586 24.3075L145.965 23.3296L142.591 14.5086C142.571 14.4476 142.551 14.3463 142.551 14.2441C142.551 13.9797 142.77 13.735 143.09 13.735C143.33 13.735 143.51 13.8569 143.61 14.1428L146.505 21.8219H146.524L149.34 14.1428C149.44 13.8569 149.62 13.735 149.86 13.735C150.178 13.735 150.379 13.9797 150.379 14.2441C150.379 14.3463 150.358 14.4476 150.338 14.5086L146.585 24.4707C145.745 26.7313 145.066 27.2001 143.869 27.2001H143.709ZM137.524 12.6558C137.524 10.3333 138.263 9.68167 140.18 9.68167H140.46C140.819 9.68167 141.019 9.90486 141.019 10.2105C141.019 10.5162 140.819 10.7403 140.46 10.7403C138.882 10.7403 138.603 10.985 138.603 12.5124V13.6947C138.603 13.7762 138.643 13.8166 138.723 13.8166H140.521C140.859 13.8166 141.019 14.02 141.019 14.306C141.019 14.591 140.859 14.7945 140.521 14.7945H138.723C138.643 14.7945 138.603 14.8348 138.603 14.9164V23.024C138.603 23.4112 138.383 23.6147 138.064 23.6147C137.744 23.6147 137.524 23.4112 137.524 23.024V12.6558ZM134.238 14.3257C134.238 13.9385 134.457 13.735 134.777 13.735C135.096 13.735 135.316 13.9385 135.316 14.3257V23.024C135.316 23.4112 135.096 23.6147 134.777 23.6147C134.457 23.6147 134.238 23.4112 134.238 23.024V14.3257ZM134.777 9.6001C135.237 9.6001 135.616 9.98643 135.616 10.4561C135.616 10.924 135.237 11.3112 134.777 11.3112C134.318 11.3112 133.939 10.924 133.939 10.4561C133.939 9.98643 134.318 9.6001 134.777 9.6001ZM127.155 14.3257C127.155 13.9385 127.374 13.735 127.694 13.735C128.013 13.735 128.233 13.9385 128.233 14.3257V15.2633H128.254C128.612 14.2854 129.511 13.6131 130.75 13.6131C131.508 13.6131 132.007 13.8166 132.386 14.0407C132.626 14.1832 132.706 14.3463 132.706 14.5292C132.706 14.8348 132.486 15.0795 132.167 15.0795C132.087 15.0795 131.988 15.0589 131.887 15.0186C131.448 14.8151 131.028 14.6726 130.55 14.6726C128.872 14.6726 128.233 16.139 128.233 17.9524V23.024C128.233 23.4112 128.013 23.6147 127.694 23.6147C127.374 23.6147 127.155 23.4112 127.155 23.024V14.3257ZM117.665 18.665C117.665 17.4423 117.765 16.7701 117.964 16.139C118.483 14.5086 119.781 13.6131 121.479 13.6131C123.195 13.6131 124.494 14.5086 125.013 16.139C125.214 16.7504 125.313 17.4836 125.313 18.4615C125.313 18.7663 125.113 18.9706 124.814 18.9706H118.882C118.803 18.9706 118.763 19.011 118.763 19.0925C118.763 19.8867 118.803 20.2946 118.963 20.7831C119.382 22.0667 120.361 22.678 121.658 22.678C122.737 22.678 123.516 22.3311 124.235 21.5781C124.333 21.476 124.473 21.3738 124.633 21.3738C124.914 21.3738 125.113 21.5781 125.113 21.8426C125.113 21.9851 125.073 22.107 124.993 22.2092C124.314 23.0858 123.176 23.7375 121.599 23.7375C119.761 23.7375 118.503 22.8608 117.964 21.1909C117.765 20.5796 117.665 19.9073 117.665 18.665ZM124.095 17.9721C124.175 17.9721 124.214 17.9318 124.214 17.8502C124.214 17.2801 124.154 16.8516 124.035 16.4644C123.655 15.2633 122.716 14.6314 121.479 14.6314C120.241 14.6314 119.323 15.2633 118.943 16.4644C118.823 16.8516 118.763 17.2801 118.763 17.8502C118.763 17.9318 118.803 17.9721 118.882 17.9721H124.095ZM100.491 18.665C100.491 17.4423 100.59 16.7701 100.791 16.139C101.309 14.5086 102.607 13.6131 104.305 13.6131C106.022 13.6131 107.319 14.5086 107.839 16.139C108.039 16.7504 108.139 17.4836 108.139 18.4615C108.139 18.7663 107.939 18.9706 107.64 18.9706H101.708C101.629 18.9706 101.589 19.011 101.589 19.0925C101.589 19.8867 101.629 20.2946 101.788 20.7831C102.208 22.0667 103.186 22.678 104.484 22.678C105.563 22.678 106.341 22.3311 107.06 21.5781C107.159 21.476 107.3 21.3738 107.459 21.3738C107.739 21.3738 107.939 21.5781 107.939 21.8426C107.939 21.9851 107.9 22.107 107.819 22.2092C107.14 23.0858 106.001 23.7375 104.424 23.7375C102.587 23.7375 101.329 22.8608 100.791 21.1909C100.59 20.5796 100.491 19.9073 100.491 18.665ZM106.921 17.9721C107.001 17.9721 107.04 17.9318 107.04 17.8502C107.04 17.2801 106.98 16.8516 106.861 16.4644C106.481 15.2633 105.543 14.6314 104.305 14.6314C103.066 14.6314 102.148 15.2633 101.769 16.4644C101.649 16.8516 101.589 17.2801 101.589 17.8502C101.589 17.9318 101.629 17.9721 101.708 17.9721H106.921ZM107.904 10.4149C107.884 10.3333 107.863 10.2311 107.863 10.1496C107.863 9.82329 108.103 9.6001 108.423 9.6001C108.663 9.6001 108.863 9.76323 108.962 10.0483L112.856 21.5979H112.896L116.73 10.0483C116.829 9.76323 117.03 9.6001 117.269 9.6001C117.588 9.6001 117.828 9.82329 117.828 10.1496C117.828 10.2311 117.808 10.3539 117.789 10.4149L113.535 22.9836C113.395 23.4112 113.215 23.6147 112.836 23.6147C112.477 23.6147 112.298 23.4112 112.157 22.9836L107.904 10.4149ZM98.6638 23.6147C97.2069 23.6147 96.6872 22.9227 96.6872 21.3334V10.2114C96.6872 9.82419 96.9061 9.62071 97.2265 9.62071C97.5451 9.62071 97.7649 9.82419 97.7649 10.2114V21.2922C97.7649 22.2504 98.0248 22.5552 98.8631 22.5552C99.2226 22.5552 99.422 22.7793 99.422 23.0858C99.422 23.3906 99.2226 23.6147 98.8631 23.6147H98.6638ZM88.4401 22.3114V23.024C88.4401 23.4112 88.2202 23.6147 87.9007 23.6147C87.5813 23.6147 87.3614 23.4112 87.3614 23.024V10.1908C87.3614 9.80357 87.5813 9.6001 87.9007 9.6001C88.2202 9.6001 88.4401 9.80357 88.4401 10.1908V15.0383H88.4596C88.9188 14.2038 89.7581 13.6131 91.3155 13.6131C92.9325 13.6131 94.0912 14.4888 94.5905 16.0171C94.829 16.8113 94.9295 17.5651 94.9295 18.665C94.9295 19.7854 94.829 20.5393 94.5905 21.3334C94.0912 22.8608 92.9325 23.7375 91.3155 23.7375C89.7581 23.7375 88.9188 23.1468 88.4596 22.3114H88.4401ZM93.8313 18.665C93.8313 17.7068 93.7708 17.0551 93.5715 16.4241C93.2128 15.3242 92.354 14.6726 91.1357 14.6726C89.9369 14.6726 89.0586 15.2221 88.6794 16.3631C88.5201 16.8929 88.4401 17.7068 88.4401 18.665C88.4401 19.6429 88.5201 20.4577 88.6794 20.9874C89.0586 22.1276 89.9369 22.678 91.1357 22.678C92.354 22.678 93.2128 22.0263 93.5715 20.9256C93.7708 20.2946 93.8313 19.6429 93.8313 18.665ZM84.187 22.3517H84.1674C83.6281 23.2274 82.7302 23.7375 81.3917 23.7375C79.295 23.7375 78.0971 22.3929 78.0971 20.0301V14.3257C78.0971 13.9385 78.316 13.735 78.6364 13.735C78.9559 13.735 79.1748 13.9385 79.1748 14.3257V19.7648C79.1748 21.7 79.974 22.678 81.6311 22.678C83.0683 22.678 84.187 21.6391 84.187 19.9683V14.3257C84.187 13.9385 84.4068 13.735 84.7263 13.735C85.0458 13.735 85.2656 13.9385 85.2656 14.3257V23.024C85.2656 23.4112 85.0458 23.6147 84.7263 23.6147C84.4068 23.6147 84.187 23.4112 84.187 23.024V22.3517ZM68.8016 18.665C68.8016 17.5033 68.9209 16.7907 69.1202 16.139C69.6399 14.5292 70.9375 13.6131 72.6746 13.6131C74.4323 13.6131 75.7298 14.5292 76.2487 16.139C76.4489 16.7907 76.5682 17.5033 76.5682 18.665C76.5682 19.8464 76.4489 20.5599 76.2487 21.2115C75.7298 22.8205 74.4323 23.7375 72.6746 23.7375C70.9375 23.7375 69.6399 22.8205 69.1202 21.2115C68.9209 20.5599 68.8016 19.8464 68.8016 18.665ZM75.47 18.665C75.47 17.6261 75.3899 17.0354 75.2101 16.485C74.831 15.3242 73.9126 14.6726 72.6746 14.6726C71.4563 14.6726 70.5379 15.3242 70.1588 16.485C69.979 17.0354 69.8989 17.6261 69.8989 18.665C69.8989 19.7245 69.979 20.3152 70.1588 20.8646C70.5379 22.0263 71.4563 22.678 72.6746 22.678C73.9126 22.678 74.831 22.0263 75.2101 20.8646C75.3899 20.3152 75.47 19.7245 75.47 18.665ZM58.124 10.3127C58.124 9.96671 58.3438 9.76323 58.6829 9.76323H62.2569C64.7523 9.76323 66.2305 10.8837 66.8704 12.8996C67.1703 13.8578 67.2691 14.6923 67.2691 16.6894C67.2691 18.6856 67.1703 19.5201 66.8704 20.4783C66.2305 22.4942 64.7523 23.6147 62.2569 23.6147H58.6829C58.3438 23.6147 58.124 23.4112 58.124 23.0652V10.3127ZM62.0976 22.5148C64.1338 22.5148 65.2124 21.8228 65.7713 20.0911C66.0303 19.2557 66.1309 18.4615 66.1309 16.6894C66.1309 14.9164 66.0303 14.1222 65.7713 13.2868C65.2124 11.556 64.1338 10.8631 62.0976 10.8631H59.3815C59.3014 10.8631 59.2614 10.9034 59.2614 10.985V22.3929C59.2614 22.4745 59.3014 22.5148 59.3815 22.5148H62.0976Z" fill="#262626"/>
<path fill-rule="evenodd" clip-rule="evenodd" d="M1.65674 27.1998C0.778363 27.1998 0.0664062 26.4531 0.0664062 25.5308V6.46882C0.0664062 5.54647 0.778363 4.7998 1.65674 4.7998C2.53512 4.7998 3.24796 5.54647 3.24796 6.46882V25.5308C3.24796 26.4531 2.53512 27.1998 1.65674 27.1998Z" fill="#262626"/>
<path fill-rule="evenodd" clip-rule="evenodd" d="M8.69581 27.1998H6.51455C5.58812 27.1998 4.83789 26.4531 4.83789 25.5317C4.83789 24.6102 5.58812 23.8636 6.51455 23.8636H8.69581C13.0521 23.8636 16.5959 20.3355 16.5959 15.9998C16.5959 11.6641 13.0521 8.13695 8.69581 8.13695H6.51455C5.58812 8.13695 4.83789 7.38939 4.83789 6.46793C4.83789 5.54647 5.58812 4.7998 6.51455 4.7998H8.69581C14.9005 4.7998 19.9483 9.82389 19.9483 15.9998C19.9483 22.1757 14.9005 27.1998 8.69581 27.1998Z" fill="#262626"/>
<path fill-rule="evenodd" clip-rule="evenodd" d="M31.8408 27.1998C31.2276 27.1998 30.6403 26.8431 30.3644 26.2353L21.6919 7.17426C21.3118 6.33886 21.6652 5.34569 22.4803 4.95667C23.2955 4.56675 24.2638 4.92888 24.6438 5.76429L33.3163 24.8254C33.6954 25.6608 33.343 26.653 32.5278 27.0429C32.3054 27.1496 32.0713 27.1998 31.8408 27.1998Z" fill="#262626"/>
<path fill-rule="evenodd" clip-rule="evenodd" d="M34.9204 20.7994C34.697 20.7994 34.4701 20.7493 34.2538 20.6426C33.4618 20.2518 33.1192 19.2577 33.4885 18.4205L39.0738 5.76482C39.4431 4.92852 40.3838 4.56639 41.175 4.9572C41.967 5.34712 42.3087 6.34118 41.9394 7.17838L36.355 19.8341C36.0862 20.4418 35.5167 20.7994 34.9204 20.7994Z" fill="#262626"/>
<path d="M50.1699 -0.000488281H50.5677V31.9995H50.1699V-0.000488281Z" fill="#262626"/>
</g>
<defs>
<clipPath id="clip0_1154_23826">
<rect width="150.312" height="32" fill="white" transform="translate(0.0664062)"/>
</clipPath>
</defs>
</svg>
