<svg width="2106" height="508" viewBox="0 0 2106 508" fill="none" xmlns="http://www.w3.org/2000/svg">
<path d="M1801.23 495.474H1883.09V320.998C1883.09 279.385 1901.89 227.044 1963.64 227.044C2005.25 227.044 2024.02 247.18 2024.02 294.157V495.474H2105.89V270.679C2105.89 172.021 2039.45 147.862 1981.75 147.862C1935.43 147.862 1902.55 165.976 1884.43 189.475H1883.09V4.25025H1801.23V495.474ZM1775.73 244.498C1754.93 193.498 1714.66 147.862 1632.12 147.862C1522.07 147.862 1458.32 224.362 1458.32 325.681C1458.32 427.02 1522.07 503.52 1626.07 503.52C1718.02 503.52 1756.93 449.178 1779.75 399.499L1709.96 362.61C1697.21 393.474 1676.41 428.361 1627.43 428.361C1570.39 428.361 1544.21 378.723 1544.21 325.681C1544.21 272.68 1573.73 223.021 1632.12 223.021C1664.32 223.021 1693.18 243.817 1703.93 277.384L1775.73 244.498V244.498ZM1180.05 282.067C1188.78 245.839 1220.32 214.975 1267.96 214.975C1322.98 214.975 1345.12 263.953 1345.12 282.067H1180.05V282.067ZM1431.03 345.157C1431.03 223.681 1381.37 147.862 1267.96 147.862C1157.89 147.862 1094.14 224.362 1094.14 325.681C1094.14 427.02 1157.89 503.52 1267.96 503.52C1360.55 503.52 1409.55 459.246 1435.05 420.315L1365.94 380.064C1357.87 391.452 1332.37 428.361 1267.96 428.361C1223.66 428.361 1181.39 395.496 1180.05 345.157H1431.03V345.157ZM934.893 81.9672V417.633C934.893 469.314 957.71 499.497 1024.8 499.497C1050.32 499.497 1070.44 495.474 1089.91 491.451V424.338C1077.82 425.679 1065.07 428.361 1053.67 428.361C1022.12 428.361 1016.76 413.61 1016.76 386.769V214.975H1089.91V155.909H1016.76V0.000244599L934.893 81.9672ZM797.717 495.474H879.581V4.25025H797.717V495.474V495.474ZM657.241 374.019C657.241 417.633 608.263 436.428 569.992 436.428C540.469 436.428 516.991 419.634 516.991 394.134C516.991 361.93 542.491 353.203 573.355 347.178L618.31 337.771C633.082 335.089 646.513 331.066 657.241 325.681V374.019V374.019ZM739.105 259.27C739.105 162.634 665.968 147.862 592.81 147.862C518.332 147.862 447.857 178.726 447.857 258.589L529.741 261.952C529.741 225.043 545.173 210.952 592.81 210.952C628.378 210.952 657.241 220.339 657.241 253.885V263.953C636.445 271.339 598.174 278.044 568.651 284.089L534.425 290.794C484.106 300.862 431.084 330.405 431.084 396.837C431.084 462.588 482.084 503.52 546.514 503.52C588.787 503.52 625.696 490.11 657.241 464.61C657.241 473.337 659.923 487.428 665.287 495.474H751.855C747.171 488.088 739.105 473.337 739.105 438.429V259.27V259.27ZM418.747 155.909C395.929 55.9308 322.771 5.59124 226.817 5.59124C83.8852 5.59124 0.288574 121.682 0.288574 256.567C0.288574 391.452 73.8173 507.543 226.817 507.543C322.111 507.543 385.861 461.247 424.111 365.292L342.247 327.703C324.793 383.406 289.225 424.338 226.817 424.338C131.522 424.338 91.9314 339.792 91.9314 256.567C91.9314 173.362 131.522 88.8166 226.817 88.8166C281.179 88.8166 324.793 125.045 332.179 178.066L418.747 155.909Z" fill="#F58427"/>
</svg>
