<svg width="672" height="512" viewBox="0 0 672 512" fill="none" xmlns="http://www.w3.org/2000/svg">
<g clip-path="url(#clip0_3226_155043)">
<rect width="672" height="512" rx="26.88" fill="#F5F5F5"/>
<g clip-path="url(#clip1_3226_155043)">
<rect x="320.32" y="227.556" width="260.96" height="157.013" rx="13.44" fill="white"/>
<rect width="260.96" height="31.8314" transform="translate(320.32 227.556)" fill="#FBBF24"/>
<path fill-rule="evenodd" clip-rule="evenodd" d="M333.324 245.889L338.358 251.827L343.395 245.887C343.422 245.855 343.601 245.62 343.601 245.62L343.602 245.618C344.461 244.486 344.926 243.103 344.923 241.681C344.923 239.94 344.232 238.27 343.001 237.039C341.769 235.807 340.099 235.116 338.358 235.116C336.617 235.116 334.947 235.807 333.716 237.039C332.485 238.27 331.793 239.94 331.793 241.681C331.791 243.103 332.256 244.487 333.116 245.62C333.116 245.62 333.295 245.855 333.324 245.889ZM334.097 244.939C334.08 244.916 334.069 244.901 334.068 244.901C333.365 243.975 332.985 242.844 332.987 241.681C332.987 240.256 333.553 238.89 334.56 237.883C335.567 236.875 336.934 236.309 338.358 236.309C339.783 236.309 341.149 236.875 342.156 237.883C343.164 238.89 343.73 240.256 343.73 241.681C343.731 242.843 343.351 243.974 342.649 244.899C342.648 244.9 342.509 245.085 342.482 245.117L338.358 249.982L334.239 245.124C334.217 245.096 334.14 244.995 334.097 244.939ZM338.955 238.1H337.761V243.471H338.955V238.1ZM338.358 247.052C338.852 247.052 339.253 246.651 339.253 246.157C339.253 245.663 338.852 245.262 338.358 245.262C337.863 245.262 337.463 245.663 337.463 246.157C337.463 246.651 337.863 247.052 338.358 247.052Z" fill="#171717"/>
<path d="M357.796 248.971H353.029V247.529H354.519V239.469H353.029V238.027H357.796V239.469H356.291V247.529H357.796V248.971ZM362.454 249.159C360.917 249.159 359.914 248.579 359.146 247.623L360.243 246.619C360.839 247.34 361.576 247.78 362.548 247.78C363.536 247.78 364.038 247.372 364.038 246.682C364.038 246.164 363.724 245.772 362.877 245.663L362.125 245.569C360.463 245.365 359.444 244.644 359.444 243.138C359.444 241.555 360.682 240.629 362.47 240.629C363.944 240.629 364.775 241.116 365.512 241.931L364.461 242.934C364.038 242.433 363.348 242.009 362.47 242.009C361.529 242.009 361.09 242.417 361.09 243.028C361.09 243.656 361.482 243.938 362.344 244.079L363.097 244.173C364.885 244.44 365.684 245.224 365.684 246.541C365.684 248.109 364.414 249.159 362.454 249.159ZM370.11 249.159C368.574 249.159 367.57 248.579 366.802 247.623L367.899 246.619C368.495 247.34 369.232 247.78 370.204 247.78C371.192 247.78 371.694 247.372 371.694 246.682C371.694 246.164 371.38 245.772 370.534 245.663L369.781 245.569C368.119 245.365 367.1 244.644 367.1 243.138C367.1 241.555 368.339 240.629 370.126 240.629C371.6 240.629 372.431 241.116 373.168 241.931L372.117 242.934C371.694 242.433 371.004 242.009 370.126 242.009C369.185 242.009 368.746 242.417 368.746 243.028C368.746 243.656 369.138 243.938 370.001 244.079L370.753 244.173C372.541 244.44 373.34 245.224 373.34 246.541C373.34 248.109 372.07 249.159 370.11 249.159ZM380.21 248.971V247.623H380.148C379.85 248.422 379.207 249.159 377.858 249.159C376.181 249.159 375.193 248.015 375.193 246.008V240.818H376.902V245.788C376.902 247.027 377.419 247.685 378.47 247.685C379.348 247.685 380.21 247.231 380.21 246.274V240.818H381.92V248.971H380.21ZM387.566 249.159C385.245 249.159 383.818 247.497 383.818 244.894C383.818 242.292 385.245 240.629 387.566 240.629C389.965 240.629 391.188 242.433 391.188 244.691V245.333H385.59V245.6C385.59 246.854 386.358 247.748 387.738 247.748C388.742 247.748 389.416 247.278 389.886 246.525L390.89 247.513C390.278 248.501 389.087 249.159 387.566 249.159ZM387.566 241.962C386.39 241.962 385.59 242.84 385.59 244.095V244.204H389.385V244.048C389.385 242.793 388.695 241.962 387.566 241.962ZM404.422 248.971H396.942V247.497H400.015V239.312H399.89L397.35 242.025L396.268 241.053L399.059 238.027H401.756V247.497H404.422V248.971ZM409.668 249.159C406.94 249.159 405.701 247.074 405.701 243.499C405.701 239.924 406.94 237.838 409.668 237.838C412.397 237.838 413.635 239.924 413.635 243.499C413.635 247.074 412.397 249.159 409.668 249.159ZM409.668 247.654C411.189 247.654 411.754 246.368 411.754 244.455V242.542C411.754 240.629 411.189 239.344 409.668 239.344C408.147 239.344 407.583 240.629 407.583 242.542V244.455C407.583 246.368 408.147 247.654 409.668 247.654ZM421.673 248.971H419.995V246.839H414.915V245.318L419.352 238.027H421.673V245.443H423.163V246.839H421.673V248.971ZM419.885 239.642L416.42 245.443H419.995V239.642H419.885Z" fill="#171717"/>
<circle cx="347.917" cy="282.875" r="11.2895" fill="#FB923C"/>
<circle cx="347.917" cy="282.876" r="9.67673" stroke="#171717" stroke-width="0.806394" stroke-linejoin="bevel"/>
<path d="M351.95 289.327L351.573 288.574C351.31 288.047 350.771 287.714 350.182 287.714V287.714C349.258 287.714 348.382 287.304 347.791 286.594L345.879 284.3C345.158 283.435 345.018 282.225 345.521 281.217L345.584 281.092C346.026 280.208 346.929 279.65 347.918 279.65V279.65C348.906 279.65 349.81 280.208 350.252 281.092L350.337 281.263C350.831 282.251 350.724 283.434 350.061 284.318L349.934 284.488L349.329 285.295M343.886 289.327L344.246 288.605C344.52 288.059 345.078 287.714 345.689 287.714H346.708" stroke="#171717" stroke-width="0.806394" stroke-linejoin="bevel"/>
<path d="M370.651 274.246H368.575V273.24H370.651V274.246ZM372.422 274.246H370.346V273.24H372.422V274.246ZM374.193 274.246H372.117V273.24H374.193V274.246ZM375.964 274.246H373.888V273.24H375.964V274.246ZM377.735 274.246H375.659V273.24H377.735V274.246ZM379.506 274.246H377.43V273.24H379.506V274.246ZM381.277 274.246H379.201V273.24H381.277V274.246ZM383.048 274.246H380.972V273.24H383.048V274.246ZM384.819 274.246H382.743V273.24H384.819V274.246ZM386.59 274.246H384.514V273.24H386.59V274.246ZM388.361 274.246H386.285V273.24H388.361V274.246ZM390.132 274.246H388.056V273.24H390.132V274.246ZM391.903 274.246H389.827V273.24H391.903V274.246ZM393.674 274.246H391.598V273.24H393.674V274.246ZM395.445 274.246H393.369V273.24H395.445V274.246ZM397.216 274.246H395.14V273.24H397.216V274.246ZM398.987 274.246H396.911V273.24H398.987V274.246ZM400.758 274.246H398.682V273.24H400.758V274.246ZM402.529 274.246H400.453V273.24H402.529V274.246ZM404.3 274.246H402.224V273.24H404.3V274.246ZM406.071 274.246H403.995V273.24H406.071V274.246ZM407.842 274.246H405.766V273.24H407.842V274.246ZM409.613 274.246H407.537V273.24H409.613V274.246ZM411.384 274.246H409.308V273.24H411.384V274.246ZM413.155 274.246H411.079V273.24H413.155V274.246ZM414.926 274.246H412.85V273.24H414.926V274.246ZM416.697 274.246H414.621V273.24H416.697V274.246ZM418.468 274.246H416.392V273.24H418.468V274.246ZM420.239 274.246H418.163V273.24H420.239V274.246ZM422.01 274.246H419.934V273.24H422.01V274.246ZM423.781 274.246H421.705V273.24H423.781V274.246ZM425.552 274.246H423.476V273.24H425.552V274.246ZM427.323 274.246H425.247V273.24H427.323V274.246ZM429.094 274.246H427.018V273.24H429.094V274.246ZM430.865 274.246H428.789V273.24H430.865V274.246ZM432.636 274.246H430.56V273.24H432.636V274.246ZM434.407 274.246H432.331V273.24H434.407V274.246ZM436.178 274.246H434.102V273.24H436.178V274.246ZM437.949 274.246H435.873V273.24H437.949V274.246ZM439.72 274.246H437.644V273.24H439.72V274.246ZM441.491 274.246H439.415V273.24H441.491V274.246ZM443.262 274.246H441.186V273.24H443.262V274.246ZM445.033 274.246H442.957V273.24H445.033V274.246ZM446.804 274.246H444.728V273.24H446.804V274.246ZM448.575 274.246H446.499V273.24H448.575V274.246ZM450.346 274.246H448.27V273.24H450.346V274.246ZM452.117 274.246H450.041V273.24H452.117V274.246ZM453.888 274.246H451.812V273.24H453.888V274.246ZM455.659 274.246H453.583V273.24H455.659V274.246ZM457.43 274.246H455.354V273.24H457.43V274.246ZM459.201 274.246H457.125V273.24H459.201V274.246ZM460.972 274.246H458.896V273.24H460.972V274.246ZM462.743 274.246H460.667V273.24H462.743V274.246ZM464.514 274.246H462.438V273.24H464.514V274.246ZM466.285 274.246H464.209V273.24H466.285V274.246ZM468.056 274.246H465.98V273.24H468.056V274.246ZM469.827 274.246H467.751V273.24H469.827V274.246ZM471.598 274.246H469.522V273.24H471.598V274.246ZM473.369 274.246H471.293V273.24H473.369V274.246ZM475.14 274.246H473.064V273.24H475.14V274.246ZM476.911 274.246H474.835V273.24H476.911V274.246ZM478.682 274.246H476.606V273.24H478.682V274.246ZM480.453 274.246H478.377V273.24H480.453V274.246ZM482.224 274.246H480.148V273.24H482.224V274.246ZM483.995 274.246H481.919V273.24H483.995V274.246ZM485.766 274.246H483.69V273.24H485.766V274.246ZM487.537 274.246H485.461V273.24H487.537V274.246ZM489.308 274.246H487.232V273.24H489.308V274.246ZM491.079 274.246H489.003V273.24H491.079V274.246ZM492.85 274.246H490.774V273.24H492.85V274.246ZM494.621 274.246H492.545V273.24H494.621V274.246ZM496.392 274.246H494.316V273.24H496.392V274.246ZM498.163 274.246H496.087V273.24H498.163V274.246ZM499.934 274.246H497.858V273.24H499.934V274.246ZM501.705 274.246H499.629V273.24H501.705V274.246ZM503.476 274.246H501.4V273.24H503.476V274.246ZM505.247 274.246H503.171V273.24H505.247V274.246ZM507.018 274.246H504.942V273.24H507.018V274.246ZM508.789 274.246H506.713V273.24H508.789V274.246ZM510.56 274.246H508.484V273.24H510.56V274.246ZM512.331 274.246H510.255V273.24H512.331V274.246ZM514.102 274.246H512.026V273.24H514.102V274.246ZM515.873 274.246H513.797V273.24H515.873V274.246ZM517.644 274.246H515.568V273.24H517.644V274.246ZM519.415 274.246H517.339V273.24H519.415V274.246ZM521.186 274.246H519.11V273.24H521.186V274.246ZM522.957 274.246H520.881V273.24H522.957V274.246ZM524.728 274.246H522.652V273.24H524.728V274.246ZM526.499 274.246H524.423V273.24H526.499V274.246ZM528.27 274.246H526.194V273.24H528.27V274.246ZM530.041 274.246H527.965V273.24H530.041V274.246ZM531.812 274.246H529.736V273.24H531.812V274.246ZM533.583 274.246H531.507V273.24H533.583V274.246ZM535.354 274.246H533.278V273.24H535.354V274.246ZM537.125 274.246H535.049V273.24H537.125V274.246ZM538.896 274.246H536.82V273.24H538.896V274.246ZM370.651 284.246H368.575V283.24H370.651V284.246ZM372.422 284.246H370.346V283.24H372.422V284.246ZM374.193 284.246H372.117V283.24H374.193V284.246ZM375.964 284.246H373.888V283.24H375.964V284.246ZM377.735 284.246H375.659V283.24H377.735V284.246ZM379.506 284.246H377.43V283.24H379.506V284.246ZM381.277 284.246H379.201V283.24H381.277V284.246ZM383.048 284.246H380.972V283.24H383.048V284.246ZM384.819 284.246H382.743V283.24H384.819V284.246ZM386.59 284.246H384.514V283.24H386.59V284.246ZM388.361 284.246H386.285V283.24H388.361V284.246ZM390.132 284.246H388.056V283.24H390.132V284.246ZM391.903 284.246H389.827V283.24H391.903V284.246ZM393.674 284.246H391.598V283.24H393.674V284.246ZM395.445 284.246H393.369V283.24H395.445V284.246ZM397.216 284.246H395.14V283.24H397.216V284.246ZM398.987 284.246H396.911V283.24H398.987V284.246ZM400.758 284.246H398.682V283.24H400.758V284.246ZM402.529 284.246H400.453V283.24H402.529V284.246ZM404.3 284.246H402.224V283.24H404.3V284.246ZM406.071 284.246H403.995V283.24H406.071V284.246ZM407.842 284.246H405.766V283.24H407.842V284.246ZM409.613 284.246H407.537V283.24H409.613V284.246ZM411.384 284.246H409.308V283.24H411.384V284.246ZM413.155 284.246H411.079V283.24H413.155V284.246ZM414.926 284.246H412.85V283.24H414.926V284.246ZM416.697 284.246H414.621V283.24H416.697V284.246ZM418.468 284.246H416.392V283.24H418.468V284.246ZM420.239 284.246H418.163V283.24H420.239V284.246ZM422.01 284.246H419.934V283.24H422.01V284.246ZM423.781 284.246H421.705V283.24H423.781V284.246ZM425.552 284.246H423.476V283.24H425.552V284.246ZM427.323 284.246H425.247V283.24H427.323V284.246ZM429.094 284.246H427.018V283.24H429.094V284.246ZM430.865 284.246H428.789V283.24H430.865V284.246ZM432.636 284.246H430.56V283.24H432.636V284.246ZM434.407 284.246H432.331V283.24H434.407V284.246ZM436.178 284.246H434.102V283.24H436.178V284.246ZM437.949 284.246H435.873V283.24H437.949V284.246ZM439.72 284.246H437.644V283.24H439.72V284.246ZM441.491 284.246H439.415V283.24H441.491V284.246ZM443.262 284.246H441.186V283.24H443.262V284.246ZM445.033 284.246H442.957V283.24H445.033V284.246ZM446.804 284.246H444.728V283.24H446.804V284.246ZM448.575 284.246H446.499V283.24H448.575V284.246ZM450.346 284.246H448.27V283.24H450.346V284.246ZM452.117 284.246H450.041V283.24H452.117V284.246ZM453.888 284.246H451.812V283.24H453.888V284.246ZM455.659 284.246H453.583V283.24H455.659V284.246ZM457.43 284.246H455.354V283.24H457.43V284.246ZM459.201 284.246H457.125V283.24H459.201V284.246ZM460.972 284.246H458.896V283.24H460.972V284.246ZM462.743 284.246H460.667V283.24H462.743V284.246ZM464.514 284.246H462.438V283.24H464.514V284.246ZM466.285 284.246H464.209V283.24H466.285V284.246ZM468.056 284.246H465.98V283.24H468.056V284.246ZM469.827 284.246H467.751V283.24H469.827V284.246ZM471.598 284.246H469.522V283.24H471.598V284.246ZM473.369 284.246H471.293V283.24H473.369V284.246ZM475.14 284.246H473.064V283.24H475.14V284.246ZM476.911 284.246H474.835V283.24H476.911V284.246ZM478.682 284.246H476.606V283.24H478.682V284.246ZM480.453 284.246H478.377V283.24H480.453V284.246ZM482.224 284.246H480.148V283.24H482.224V284.246ZM483.995 284.246H481.919V283.24H483.995V284.246ZM485.766 284.246H483.69V283.24H485.766V284.246ZM487.537 284.246H485.461V283.24H487.537V284.246ZM489.308 284.246H487.232V283.24H489.308V284.246ZM491.079 284.246H489.003V283.24H491.079V284.246ZM492.85 284.246H490.774V283.24H492.85V284.246ZM494.621 284.246H492.545V283.24H494.621V284.246ZM496.392 284.246H494.316V283.24H496.392V284.246ZM498.163 284.246H496.087V283.24H498.163V284.246ZM499.934 284.246H497.858V283.24H499.934V284.246ZM501.705 284.246H499.629V283.24H501.705V284.246ZM503.476 284.246H501.4V283.24H503.476V284.246ZM505.247 284.246H503.171V283.24H505.247V284.246ZM507.018 284.246H504.942V283.24H507.018V284.246ZM508.789 284.246H506.713V283.24H508.789V284.246ZM510.56 284.246H508.484V283.24H510.56V284.246ZM512.331 284.246H510.255V283.24H512.331V284.246ZM514.102 284.246H512.026V283.24H514.102V284.246ZM515.873 284.246H513.797V283.24H515.873V284.246ZM517.644 284.246H515.568V283.24H517.644V284.246ZM519.415 284.246H517.339V283.24H519.415V284.246ZM521.186 284.246H519.11V283.24H521.186V284.246ZM522.957 284.246H520.881V283.24H522.957V284.246ZM524.728 284.246H522.652V283.24H524.728V284.246ZM526.499 284.246H524.423V283.24H526.499V284.246ZM528.27 284.246H526.194V283.24H528.27V284.246ZM530.041 284.246H527.965V283.24H530.041V284.246ZM531.812 284.246H529.736V283.24H531.812V284.246ZM533.583 284.246H531.507V283.24H533.583V284.246ZM535.354 284.246H533.278V283.24H535.354V284.246ZM537.125 284.246H535.049V283.24H537.125V284.246ZM538.896 284.246H536.82V283.24H538.896V284.246ZM370.651 294.246H368.575V293.24H370.651V294.246ZM372.422 294.246H370.346V293.24H372.422V294.246ZM374.193 294.246H372.117V293.24H374.193V294.246ZM375.964 294.246H373.888V293.24H375.964V294.246ZM377.735 294.246H375.659V293.24H377.735V294.246ZM379.506 294.246H377.43V293.24H379.506V294.246ZM381.277 294.246H379.201V293.24H381.277V294.246ZM383.048 294.246H380.972V293.24H383.048V294.246ZM384.819 294.246H382.743V293.24H384.819V294.246ZM386.59 294.246H384.514V293.24H386.59V294.246ZM388.361 294.246H386.285V293.24H388.361V294.246ZM390.132 294.246H388.056V293.24H390.132V294.246ZM391.903 294.246H389.827V293.24H391.903V294.246ZM393.674 294.246H391.598V293.24H393.674V294.246ZM395.445 294.246H393.369V293.24H395.445V294.246ZM397.216 294.246H395.14V293.24H397.216V294.246ZM398.987 294.246H396.911V293.24H398.987V294.246ZM400.758 294.246H398.682V293.24H400.758V294.246ZM402.529 294.246H400.453V293.24H402.529V294.246ZM404.3 294.246H402.224V293.24H404.3V294.246ZM406.071 294.246H403.995V293.24H406.071V294.246ZM407.842 294.246H405.766V293.24H407.842V294.246ZM409.613 294.246H407.537V293.24H409.613V294.246ZM411.384 294.246H409.308V293.24H411.384V294.246ZM413.155 294.246H411.079V293.24H413.155V294.246ZM414.926 294.246H412.85V293.24H414.926V294.246ZM416.697 294.246H414.621V293.24H416.697V294.246ZM418.468 294.246H416.392V293.24H418.468V294.246ZM420.239 294.246H418.163V293.24H420.239V294.246Z" fill="#171717"/>
<circle cx="347.917" cy="318.475" r="11.2895" fill="#FBBF24"/>
<circle cx="347.917" cy="318.475" r="9.67673" stroke="#171717" stroke-width="0.806394" stroke-linejoin="bevel"/>
<path d="M351.95 324.926L351.573 324.174C351.31 323.647 350.771 323.314 350.182 323.314V323.314C349.258 323.314 348.382 322.903 347.791 322.194L345.879 319.9C345.158 319.034 345.018 317.824 345.521 316.817L345.584 316.692C346.026 315.808 346.929 315.25 347.918 315.25V315.25C348.906 315.25 349.81 315.808 350.252 316.692L350.337 316.863C350.831 317.851 350.724 319.034 350.061 319.918L349.934 320.088L349.329 320.895M343.886 324.926L344.246 324.205C344.52 323.659 345.078 323.314 345.689 323.314H346.708" stroke="#171717" stroke-width="0.806394" stroke-linejoin="bevel"/>
<path d="M370.651 309.847H368.575V308.84H370.651V309.847ZM372.422 309.847H370.346V308.84H372.422V309.847ZM374.193 309.847H372.117V308.84H374.193V309.847ZM375.964 309.847H373.888V308.84H375.964V309.847ZM377.735 309.847H375.659V308.84H377.735V309.847ZM379.506 309.847H377.43V308.84H379.506V309.847ZM381.277 309.847H379.201V308.84H381.277V309.847ZM383.048 309.847H380.972V308.84H383.048V309.847ZM384.819 309.847H382.743V308.84H384.819V309.847ZM386.59 309.847H384.514V308.84H386.59V309.847ZM388.361 309.847H386.285V308.84H388.361V309.847ZM390.132 309.847H388.056V308.84H390.132V309.847ZM391.903 309.847H389.827V308.84H391.903V309.847ZM393.674 309.847H391.598V308.84H393.674V309.847ZM395.445 309.847H393.369V308.84H395.445V309.847ZM397.216 309.847H395.14V308.84H397.216V309.847ZM398.987 309.847H396.911V308.84H398.987V309.847ZM400.758 309.847H398.682V308.84H400.758V309.847ZM402.529 309.847H400.453V308.84H402.529V309.847ZM404.3 309.847H402.224V308.84H404.3V309.847ZM406.071 309.847H403.995V308.84H406.071V309.847ZM407.842 309.847H405.766V308.84H407.842V309.847ZM409.613 309.847H407.537V308.84H409.613V309.847ZM411.384 309.847H409.308V308.84H411.384V309.847ZM413.155 309.847H411.079V308.84H413.155V309.847ZM414.926 309.847H412.85V308.84H414.926V309.847ZM416.697 309.847H414.621V308.84H416.697V309.847ZM418.468 309.847H416.392V308.84H418.468V309.847ZM420.239 309.847H418.163V308.84H420.239V309.847ZM422.01 309.847H419.934V308.84H422.01V309.847ZM423.781 309.847H421.705V308.84H423.781V309.847ZM425.552 309.847H423.476V308.84H425.552V309.847ZM427.323 309.847H425.247V308.84H427.323V309.847ZM429.094 309.847H427.018V308.84H429.094V309.847ZM430.865 309.847H428.789V308.84H430.865V309.847ZM432.636 309.847H430.56V308.84H432.636V309.847ZM434.407 309.847H432.331V308.84H434.407V309.847ZM436.178 309.847H434.102V308.84H436.178V309.847ZM437.949 309.847H435.873V308.84H437.949V309.847ZM439.72 309.847H437.644V308.84H439.72V309.847ZM441.491 309.847H439.415V308.84H441.491V309.847ZM443.262 309.847H441.186V308.84H443.262V309.847ZM445.033 309.847H442.957V308.84H445.033V309.847ZM446.804 309.847H444.728V308.84H446.804V309.847ZM448.575 309.847H446.499V308.84H448.575V309.847ZM450.346 309.847H448.27V308.84H450.346V309.847ZM452.117 309.847H450.041V308.84H452.117V309.847ZM453.888 309.847H451.812V308.84H453.888V309.847ZM455.659 309.847H453.583V308.84H455.659V309.847ZM457.43 309.847H455.354V308.84H457.43V309.847ZM459.201 309.847H457.125V308.84H459.201V309.847ZM460.972 309.847H458.896V308.84H460.972V309.847ZM462.743 309.847H460.667V308.84H462.743V309.847ZM464.514 309.847H462.438V308.84H464.514V309.847ZM466.285 309.847H464.209V308.84H466.285V309.847ZM468.056 309.847H465.98V308.84H468.056V309.847ZM469.827 309.847H467.751V308.84H469.827V309.847ZM471.598 309.847H469.522V308.84H471.598V309.847ZM473.369 309.847H471.293V308.84H473.369V309.847ZM475.14 309.847H473.064V308.84H475.14V309.847ZM476.911 309.847H474.835V308.84H476.911V309.847ZM478.682 309.847H476.606V308.84H478.682V309.847ZM480.453 309.847H478.377V308.84H480.453V309.847ZM482.224 309.847H480.148V308.84H482.224V309.847ZM483.995 309.847H481.919V308.84H483.995V309.847ZM485.766 309.847H483.69V308.84H485.766V309.847ZM487.537 309.847H485.461V308.84H487.537V309.847ZM489.308 309.847H487.232V308.84H489.308V309.847ZM491.079 309.847H489.003V308.84H491.079V309.847ZM492.85 309.847H490.774V308.84H492.85V309.847ZM494.621 309.847H492.545V308.84H494.621V309.847ZM496.392 309.847H494.316V308.84H496.392V309.847ZM498.163 309.847H496.087V308.84H498.163V309.847ZM499.934 309.847H497.858V308.84H499.934V309.847ZM501.705 309.847H499.629V308.84H501.705V309.847ZM503.476 309.847H501.4V308.84H503.476V309.847ZM505.247 309.847H503.171V308.84H505.247V309.847ZM507.018 309.847H504.942V308.84H507.018V309.847ZM508.789 309.847H506.713V308.84H508.789V309.847ZM510.56 309.847H508.484V308.84H510.56V309.847ZM512.331 309.847H510.255V308.84H512.331V309.847ZM514.102 309.847H512.026V308.84H514.102V309.847ZM515.873 309.847H513.797V308.84H515.873V309.847ZM517.644 309.847H515.568V308.84H517.644V309.847ZM519.415 309.847H517.339V308.84H519.415V309.847ZM521.186 309.847H519.11V308.84H521.186V309.847ZM522.957 309.847H520.881V308.84H522.957V309.847ZM524.728 309.847H522.652V308.84H524.728V309.847ZM526.499 309.847H524.423V308.84H526.499V309.847ZM528.27 309.847H526.194V308.84H528.27V309.847ZM530.041 309.847H527.965V308.84H530.041V309.847ZM531.812 309.847H529.736V308.84H531.812V309.847ZM533.583 309.847H531.507V308.84H533.583V309.847ZM535.354 309.847H533.278V308.84H535.354V309.847ZM537.125 309.847H535.049V308.84H537.125V309.847ZM538.896 309.847H536.82V308.84H538.896V309.847ZM370.651 319.847H368.575V318.84H370.651V319.847ZM372.422 319.847H370.346V318.84H372.422V319.847ZM374.193 319.847H372.117V318.84H374.193V319.847ZM375.964 319.847H373.888V318.84H375.964V319.847ZM377.735 319.847H375.659V318.84H377.735V319.847ZM379.506 319.847H377.43V318.84H379.506V319.847ZM381.277 319.847H379.201V318.84H381.277V319.847ZM383.048 319.847H380.972V318.84H383.048V319.847ZM384.819 319.847H382.743V318.84H384.819V319.847ZM386.59 319.847H384.514V318.84H386.59V319.847ZM388.361 319.847H386.285V318.84H388.361V319.847ZM390.132 319.847H388.056V318.84H390.132V319.847ZM391.903 319.847H389.827V318.84H391.903V319.847ZM393.674 319.847H391.598V318.84H393.674V319.847ZM395.445 319.847H393.369V318.84H395.445V319.847ZM397.216 319.847H395.14V318.84H397.216V319.847ZM398.987 319.847H396.911V318.84H398.987V319.847ZM400.758 319.847H398.682V318.84H400.758V319.847ZM402.529 319.847H400.453V318.84H402.529V319.847ZM404.3 319.847H402.224V318.84H404.3V319.847ZM406.071 319.847H403.995V318.84H406.071V319.847ZM407.842 319.847H405.766V318.84H407.842V319.847ZM409.613 319.847H407.537V318.84H409.613V319.847ZM411.384 319.847H409.308V318.84H411.384V319.847ZM413.155 319.847H411.079V318.84H413.155V319.847ZM414.926 319.847H412.85V318.84H414.926V319.847ZM416.697 319.847H414.621V318.84H416.697V319.847ZM418.468 319.847H416.392V318.84H418.468V319.847ZM420.239 319.847H418.163V318.84H420.239V319.847ZM422.01 319.847H419.934V318.84H422.01V319.847ZM423.781 319.847H421.705V318.84H423.781V319.847ZM425.552 319.847H423.476V318.84H425.552V319.847ZM427.323 319.847H425.247V318.84H427.323V319.847ZM429.094 319.847H427.018V318.84H429.094V319.847ZM430.865 319.847H428.789V318.84H430.865V319.847ZM432.636 319.847H430.56V318.84H432.636V319.847ZM434.407 319.847H432.331V318.84H434.407V319.847ZM436.178 319.847H434.102V318.84H436.178V319.847ZM437.949 319.847H435.873V318.84H437.949V319.847ZM439.72 319.847H437.644V318.84H439.72V319.847ZM441.491 319.847H439.415V318.84H441.491V319.847ZM443.262 319.847H441.186V318.84H443.262V319.847ZM445.033 319.847H442.957V318.84H445.033V319.847ZM446.804 319.847H444.728V318.84H446.804V319.847ZM448.575 319.847H446.499V318.84H448.575V319.847ZM450.346 319.847H448.27V318.84H450.346V319.847ZM452.117 319.847H450.041V318.84H452.117V319.847ZM453.888 319.847H451.812V318.84H453.888V319.847ZM455.659 319.847H453.583V318.84H455.659V319.847ZM457.43 319.847H455.354V318.84H457.43V319.847ZM459.201 319.847H457.125V318.84H459.201V319.847ZM460.972 319.847H458.896V318.84H460.972V319.847ZM462.743 319.847H460.667V318.84H462.743V319.847ZM464.514 319.847H462.438V318.84H464.514V319.847ZM466.285 319.847H464.209V318.84H466.285V319.847ZM468.056 319.847H465.98V318.84H468.056V319.847ZM469.827 319.847H467.751V318.84H469.827V319.847ZM471.598 319.847H469.522V318.84H471.598V319.847ZM473.369 319.847H471.293V318.84H473.369V319.847ZM475.14 319.847H473.064V318.84H475.14V319.847ZM476.911 319.847H474.835V318.84H476.911V319.847ZM478.682 319.847H476.606V318.84H478.682V319.847ZM480.453 319.847H478.377V318.84H480.453V319.847ZM482.224 319.847H480.148V318.84H482.224V319.847ZM483.995 319.847H481.919V318.84H483.995V319.847ZM485.766 319.847H483.69V318.84H485.766V319.847ZM487.537 319.847H485.461V318.84H487.537V319.847ZM489.308 319.847H487.232V318.84H489.308V319.847ZM491.079 319.847H489.003V318.84H491.079V319.847ZM492.85 319.847H490.774V318.84H492.85V319.847ZM494.621 319.847H492.545V318.84H494.621V319.847ZM496.392 319.847H494.316V318.84H496.392V319.847ZM498.163 319.847H496.087V318.84H498.163V319.847ZM499.934 319.847H497.858V318.84H499.934V319.847ZM501.705 319.847H499.629V318.84H501.705V319.847ZM503.476 319.847H501.4V318.84H503.476V319.847ZM505.247 319.847H503.171V318.84H505.247V319.847ZM507.018 319.847H504.942V318.84H507.018V319.847ZM508.789 319.847H506.713V318.84H508.789V319.847ZM510.56 319.847H508.484V318.84H510.56V319.847ZM512.331 319.847H510.255V318.84H512.331V319.847ZM514.102 319.847H512.026V318.84H514.102V319.847ZM515.873 319.847H513.797V318.84H515.873V319.847ZM517.644 319.847H515.568V318.84H517.644V319.847ZM519.415 319.847H517.339V318.84H519.415V319.847ZM521.186 319.847H519.11V318.84H521.186V319.847ZM522.957 319.847H520.881V318.84H522.957V319.847ZM524.728 319.847H522.652V318.84H524.728V319.847ZM526.499 319.847H524.423V318.84H526.499V319.847ZM528.27 319.847H526.194V318.84H528.27V319.847ZM530.041 319.847H527.965V318.84H530.041V319.847ZM531.812 319.847H529.736V318.84H531.812V319.847ZM533.583 319.847H531.507V318.84H533.583V319.847ZM535.354 319.847H533.278V318.84H535.354V319.847ZM537.125 319.847H535.049V318.84H537.125V319.847ZM538.896 319.847H536.82V318.84H538.896V319.847ZM370.651 329.847H368.575V328.84H370.651V329.847ZM372.422 329.847H370.346V328.84H372.422V329.847ZM374.193 329.847H372.117V328.84H374.193V329.847ZM375.964 329.847H373.888V328.84H375.964V329.847ZM377.735 329.847H375.659V328.84H377.735V329.847ZM379.506 329.847H377.43V328.84H379.506V329.847ZM381.277 329.847H379.201V328.84H381.277V329.847ZM383.048 329.847H380.972V328.84H383.048V329.847ZM384.819 329.847H382.743V328.84H384.819V329.847ZM386.59 329.847H384.514V328.84H386.59V329.847ZM388.361 329.847H386.285V328.84H388.361V329.847ZM390.132 329.847H388.056V328.84H390.132V329.847ZM391.903 329.847H389.827V328.84H391.903V329.847ZM393.674 329.847H391.598V328.84H393.674V329.847ZM395.445 329.847H393.369V328.84H395.445V329.847ZM397.216 329.847H395.14V328.84H397.216V329.847ZM398.987 329.847H396.911V328.84H398.987V329.847ZM400.758 329.847H398.682V328.84H400.758V329.847ZM402.529 329.847H400.453V328.84H402.529V329.847ZM404.3 329.847H402.224V328.84H404.3V329.847ZM406.071 329.847H403.995V328.84H406.071V329.847ZM407.842 329.847H405.766V328.84H407.842V329.847ZM409.613 329.847H407.537V328.84H409.613V329.847ZM411.384 329.847H409.308V328.84H411.384V329.847ZM413.155 329.847H411.079V328.84H413.155V329.847ZM414.926 329.847H412.85V328.84H414.926V329.847ZM416.697 329.847H414.621V328.84H416.697V329.847ZM418.468 329.847H416.392V328.84H418.468V329.847ZM420.239 329.847H418.163V328.84H420.239V329.847ZM422.01 329.847H419.934V328.84H422.01V329.847Z" fill="#171717"/>
<rect x="338.8" y="339.635" width="90.3093" height="22.8664" rx="3.9332" stroke="#171717" stroke-width="1.12"/>
<path d="M365.684 352.41V355.568H364.418V347.751H367.789C369.189 347.751 370.052 348.658 370.052 350.103C370.052 351.212 369.525 351.984 368.529 352.276L370.22 355.568H368.809L367.241 352.41H365.684ZM365.684 351.346H367.7C368.338 351.346 368.719 350.999 368.719 350.372V349.834C368.719 349.207 368.338 348.86 367.7 348.86H365.684V351.346ZM373.788 355.703C372.131 355.703 371.112 354.516 371.112 352.656C371.112 350.797 372.131 349.61 373.788 349.61C375.502 349.61 376.376 350.898 376.376 352.511V352.97H372.377V353.16C372.377 354.056 372.926 354.695 373.912 354.695C374.628 354.695 375.11 354.359 375.446 353.821L376.163 354.527C375.726 355.232 374.875 355.703 373.788 355.703ZM373.788 350.562C372.948 350.562 372.377 351.189 372.377 352.085V352.164H375.088V352.052C375.088 351.156 374.595 350.562 373.788 350.562ZM379.575 355.703C378.478 355.703 377.761 355.288 377.212 354.605L377.996 353.888C378.422 354.404 378.948 354.717 379.642 354.717C380.348 354.717 380.706 354.426 380.706 353.933C380.706 353.564 380.482 353.284 379.878 353.205L379.34 353.138C378.153 352.992 377.425 352.477 377.425 351.402C377.425 350.271 378.31 349.61 379.586 349.61C380.639 349.61 381.233 349.957 381.759 350.54L381.009 351.256C380.706 350.898 380.214 350.596 379.586 350.596C378.914 350.596 378.601 350.887 378.601 351.324C378.601 351.772 378.881 351.973 379.497 352.074L380.034 352.141C381.311 352.332 381.882 352.892 381.882 353.832C381.882 354.952 380.975 355.703 379.575 355.703ZM385.546 355.703C383.922 355.703 382.869 354.516 382.869 352.656C382.869 350.797 383.922 349.61 385.546 349.61C387.17 349.61 388.223 350.797 388.223 352.656C388.223 354.516 387.17 355.703 385.546 355.703ZM385.546 354.695C386.375 354.695 386.935 354.18 386.935 353.149V352.164C386.935 351.133 386.375 350.618 385.546 350.618C384.717 350.618 384.157 351.133 384.157 352.164V353.149C384.157 354.18 384.717 354.695 385.546 354.695ZM391.611 355.568H390.827C389.998 355.568 389.583 355.109 389.583 354.359V347.28H390.804V354.572H391.611V355.568ZM395.389 355.568H393.955L391.973 349.744H393.182L394.067 352.399L394.661 354.437H394.728L395.322 352.399L396.229 349.744H397.394L395.389 355.568ZM400.618 355.703C398.961 355.703 397.941 354.516 397.941 352.656C397.941 350.797 398.961 349.61 400.618 349.61C402.332 349.61 403.205 350.898 403.205 352.511V352.97H399.207V353.16C399.207 354.056 399.756 354.695 400.741 354.695C401.458 354.695 401.94 354.359 402.276 353.821L402.993 354.527C402.556 355.232 401.705 355.703 400.618 355.703ZM400.618 350.562C399.778 350.562 399.207 351.189 399.207 352.085V352.164H401.917V352.052C401.917 351.156 401.425 350.562 400.618 350.562Z" fill="#171717"/>
<rect x="437.158" y="339.075" width="91.4293" height="23.9864" rx="4.4932" fill="#FBBF24"/>
<path d="M470.602 352.41V355.568H469.336V347.751H472.707C474.107 347.751 474.97 348.658 474.97 350.103C474.97 351.212 474.443 351.984 473.447 352.276L475.138 355.568H473.727L472.159 352.41H470.602ZM470.602 351.346H472.618C473.256 351.346 473.637 350.999 473.637 350.372V349.834C473.637 349.207 473.256 348.86 472.618 348.86H470.602V351.346ZM478.706 355.703C477.049 355.703 476.03 354.516 476.03 352.656C476.03 350.797 477.049 349.61 478.706 349.61C480.42 349.61 481.294 350.898 481.294 352.511V352.97H477.295V353.16C477.295 354.056 477.844 354.695 478.83 354.695C479.546 354.695 480.028 354.359 480.364 353.821L481.081 354.527C480.644 355.232 479.793 355.703 478.706 355.703ZM478.706 350.562C477.866 350.562 477.295 351.189 477.295 352.085V352.164H480.006V352.052C480.006 351.156 479.513 350.562 478.706 350.562ZM482.645 357.808V349.744H483.866V350.708H483.922C484.168 350.013 484.784 349.61 485.557 349.61C487.024 349.61 487.875 350.741 487.875 352.656C487.875 354.572 487.024 355.703 485.557 355.703C484.784 355.703 484.168 355.288 483.922 354.605H483.866V357.808H482.645ZM485.187 354.65C486.027 354.65 486.587 354.056 486.587 353.16V352.152C486.587 351.256 486.027 350.663 485.187 350.663C484.448 350.663 483.866 351.066 483.866 351.66V353.653C483.866 354.247 484.448 354.65 485.187 354.65ZM491.3 355.568H490.516C489.688 355.568 489.273 355.109 489.273 354.359V347.28H490.494V354.572H491.3V355.568ZM494.787 353.172L495.952 349.744H497.128L494.675 356.722C494.395 357.506 494.048 357.808 493.141 357.808H492.435V356.812H493.421L493.757 355.826L491.64 349.744H492.861L494.026 353.172L494.362 354.437H494.418L494.787 353.172Z" fill="#171717"/>
</g>
<rect x="320.32" y="227.556" width="260.96" height="157.013" rx="13.44" stroke="#171717" stroke-width="1.12"/>
<path d="M154.211 188.037C154.211 188.037 154.196 188.052 154.188 188.052C154.181 188.067 154.166 188.082 154.158 188.097L154.211 188.037Z" fill="#FBBF24"/>
<rect x="320.88" y="108.08" width="207.2" height="103.04" rx="12.88" fill="white"/>
<rect x="320.88" y="108.08" width="207.2" height="103.04" rx="12.88" stroke="#171717" stroke-width="1.12"/>
<path d="M340.352 133.168L341.012 132.509L337.464 128.956H346.905V128.02H337.464L341.012 124.468L340.352 123.808L335.672 128.488L340.352 133.168Z" fill="#171717"/>
<path d="M365.612 134.502V133.153H365.534C365.189 134.11 364.326 134.69 363.244 134.69C361.19 134.69 359.999 133.106 359.999 130.425C359.999 127.744 361.19 126.16 363.244 126.16C364.326 126.16 365.189 126.725 365.534 127.697H365.612V122.899H367.321V134.502H365.612ZM363.762 133.216C364.797 133.216 365.612 132.652 365.612 131.821V129.03C365.612 128.199 364.797 127.634 363.762 127.634C362.586 127.634 361.802 128.465 361.802 129.72V131.131C361.802 132.385 362.586 133.216 363.762 133.216ZM376.695 134.502H375.738C374.844 134.502 374.374 133.937 374.264 133.138H374.186C373.872 134.157 372.994 134.69 371.803 134.69C370.125 134.69 369.168 133.734 369.168 132.26C369.168 130.645 370.376 129.814 372.649 129.814H374.123V129.124C374.123 128.136 373.59 127.556 372.445 127.556C371.489 127.556 370.909 128.026 370.501 128.669L369.482 127.744C370.015 126.834 370.971 126.16 372.555 126.16C374.656 126.16 375.832 127.195 375.832 129.014V133.106H376.695V134.502ZM372.289 133.389C373.339 133.389 374.123 132.887 374.123 132.087V130.911H372.681C371.489 130.911 370.909 131.303 370.909 132.009V132.291C370.909 133.012 371.442 133.389 372.289 133.389ZM382.071 134.502H380.582C379.406 134.502 378.779 133.843 378.779 132.73V127.744H377.508V126.348H378.198C378.763 126.348 378.951 126.113 378.951 125.549V124.122H380.488V126.348H382.197V127.744H380.488V133.106H382.071V134.502ZM390.981 134.502H390.025C389.131 134.502 388.661 133.937 388.551 133.138H388.472C388.159 134.157 387.281 134.69 386.089 134.69C384.411 134.69 383.455 133.734 383.455 132.26C383.455 130.645 384.662 129.814 386.936 129.814H388.41V129.124C388.41 128.136 387.877 127.556 386.732 127.556C385.775 127.556 385.195 128.026 384.788 128.669L383.768 127.744C384.302 126.834 385.258 126.16 386.842 126.16C388.943 126.16 390.119 127.195 390.119 129.014V133.106H390.981V134.502ZM386.575 133.389C387.626 133.389 388.41 132.887 388.41 132.087V130.911H386.967C385.775 130.911 385.195 131.303 385.195 132.009V132.291C385.195 133.012 385.728 133.389 386.575 133.389ZM394.365 134.502H392.656V126.348H394.365V127.916H394.444C394.679 127.085 395.385 126.348 396.686 126.348H397.141V127.995H396.467C395.118 127.995 394.365 128.449 394.365 129.296V134.502ZM401.781 134.69C399.507 134.69 398.033 133.028 398.033 130.425C398.033 127.822 399.507 126.16 401.781 126.16C404.055 126.16 405.528 127.822 405.528 130.425C405.528 133.028 404.055 134.69 401.781 134.69ZM401.781 133.279C402.941 133.279 403.725 132.558 403.725 131.115V129.735C403.725 128.293 402.941 127.571 401.781 127.571C400.621 127.571 399.837 128.293 399.837 129.735V131.115C399.837 132.558 400.621 133.279 401.781 133.279ZM408.737 134.502L406.51 126.348H408.172L409.003 129.767L409.74 132.856H409.787L410.634 129.767L411.622 126.348H413.159L414.162 129.767L415.025 132.856H415.072L415.793 129.767L416.64 126.348H418.223L416.028 134.502H414.099L413.033 130.786L412.375 128.497H412.343L411.7 130.786L410.618 134.502H408.737ZM426.265 137.262H418.41V135.788H426.265V137.262ZM432.465 134.502H427.699V133.059H429.188V125H427.699V123.557H432.465V125H430.96V133.059H432.465V134.502ZM434.692 134.502V123.557H438.565C441.356 123.557 443.191 125.376 443.191 129.03C443.191 132.683 441.356 134.502 438.565 134.502H434.692ZM436.464 132.934H438.565C440.196 132.934 441.293 131.883 441.293 129.908V128.152C441.293 126.176 440.196 125.125 438.565 125.125H436.464V132.934ZM451.653 137.262H443.798V135.788H451.653V137.262ZM455.112 128.057H456.225C457.573 128.057 458.216 127.415 458.216 126.521V126.411C458.216 125.423 457.526 124.859 456.476 124.859C455.441 124.859 454.72 125.361 454.218 126.192L453.042 125.172C453.7 124.216 454.704 123.369 456.523 123.369C458.593 123.369 460.082 124.42 460.082 126.192C460.082 127.587 459.126 128.449 457.981 128.7V128.779C459.22 129.014 460.27 129.908 460.27 131.491C460.27 133.404 458.702 134.69 456.366 134.69C454.328 134.69 453.308 133.734 452.618 132.73L453.92 131.711C454.453 132.589 455.096 133.201 456.366 133.201C457.699 133.201 458.436 132.526 458.436 131.397V131.288C458.436 130.174 457.652 129.563 456.272 129.563H455.112V128.057ZM464.513 128.057H465.627C466.975 128.057 467.618 127.415 467.618 126.521V126.411C467.618 125.423 466.928 124.859 465.878 124.859C464.843 124.859 464.121 125.361 463.62 126.192L462.444 125.172C463.102 124.216 464.106 123.369 465.925 123.369C467.994 123.369 469.484 124.42 469.484 126.192C469.484 127.587 468.528 128.449 467.383 128.7V128.779C468.622 129.014 469.672 129.908 469.672 131.491C469.672 133.404 468.104 134.69 465.768 134.69C463.729 134.69 462.71 133.734 462.02 132.73L463.322 131.711C463.855 132.589 464.498 133.201 465.768 133.201C467.101 133.201 467.838 132.526 467.838 131.397V131.288C467.838 130.174 467.054 129.563 465.674 129.563H464.513V128.057ZM473.915 128.057H475.029C476.377 128.057 477.02 127.415 477.02 126.521V126.411C477.02 125.423 476.33 124.859 475.28 124.859C474.245 124.859 473.523 125.361 473.022 126.192L471.846 125.172C472.504 124.216 473.508 123.369 475.327 123.369C477.396 123.369 478.886 124.42 478.886 126.192C478.886 127.587 477.929 128.449 476.785 128.7V128.779C478.024 129.014 479.074 129.908 479.074 131.491C479.074 133.404 477.506 134.69 475.17 134.69C473.131 134.69 472.112 133.734 471.422 132.73L472.724 131.711C473.257 132.589 473.9 133.201 475.17 133.201C476.503 133.201 477.24 132.526 477.24 131.397V131.288C477.24 130.174 476.456 129.563 475.076 129.563H473.915V128.057Z" fill="#171717"/>
<rect x="329.867" y="147.021" width="189.227" height="19.8664" rx="3.9332" stroke="#171717" stroke-width="1.12"/>
<path d="M337.392 160.954H336.306V153.137H341.066V154.1H337.392V156.519H340.707V157.482H337.392V160.954ZM343.065 153.943C342.628 153.943 342.437 153.708 342.437 153.372V153.215C342.437 152.879 342.628 152.644 343.065 152.644C343.501 152.644 343.692 152.879 343.692 153.215V153.372C343.692 153.708 343.501 153.943 343.065 153.943ZM342.538 160.954V155.153H343.58V160.954H342.538ZM346.456 160.954H345.415V155.153H346.456V156.105H346.512C346.781 155.466 347.274 155.018 348.147 155.018C349.335 155.018 350.063 155.836 350.063 157.247V160.954H349.021V157.404C349.021 156.43 348.618 155.926 347.8 155.926C347.117 155.926 346.456 156.273 346.456 156.978V160.954ZM356.651 160.954H356.057C355.419 160.954 355.117 160.551 355.038 159.991H354.982C354.747 160.708 354.131 161.089 353.302 161.089C352.093 161.089 351.387 160.417 351.387 159.353C351.387 158.233 352.205 157.628 353.862 157.628H354.96V157.102C354.96 156.329 354.545 155.892 353.672 155.892C352.989 155.892 352.552 156.228 352.249 156.721L351.622 156.15C351.969 155.522 352.653 155.018 353.728 155.018C355.173 155.018 356.001 155.758 356.001 157.012V160.07H356.651V160.954ZM353.537 160.249C354.355 160.249 354.96 159.834 354.96 159.252V158.356H353.851C352.899 158.356 352.473 158.647 352.473 159.185V159.409C352.473 159.946 352.888 160.249 353.537 160.249ZM359.765 160.954H358.981C358.264 160.954 357.894 160.529 357.894 159.89V152.666H358.936V160.07H359.765V160.954ZM364.834 157.706V160.954H363.748V153.137H366.974C368.351 153.137 369.191 153.999 369.191 155.433C369.191 156.564 368.665 157.337 367.657 157.594L369.393 160.954H368.172L366.548 157.706H364.834ZM364.834 156.766H366.929C367.623 156.766 368.038 156.385 368.038 155.713V155.153C368.038 154.481 367.623 154.1 366.929 154.1H364.834V156.766ZM372.964 161.089C371.351 161.089 370.332 159.89 370.332 158.054C370.332 156.217 371.351 155.018 372.964 155.018C374.588 155.018 375.506 156.25 375.506 157.874V158.311H371.418V158.546C371.418 159.51 372.012 160.204 373.053 160.204C373.781 160.204 374.308 159.857 374.621 159.263L375.293 159.834C374.89 160.585 374.05 161.089 372.964 161.089ZM372.964 155.858C372.056 155.858 371.418 156.553 371.418 157.505V157.583H374.397V157.471C374.397 156.508 373.837 155.858 372.964 155.858ZM379.325 160.954H378.104L376.099 155.153H377.141L378.093 157.93L378.697 159.935H378.765L379.381 157.93L380.344 155.153H381.341L379.325 160.954ZM382.965 153.943C382.528 153.943 382.337 153.708 382.337 153.372V153.215C382.337 152.879 382.528 152.644 382.965 152.644C383.401 152.644 383.592 152.879 383.592 153.215V153.372C383.592 153.708 383.401 153.943 382.965 153.943ZM382.438 160.954V155.153H383.48V160.954H382.438ZM387.532 161.089C385.919 161.089 384.9 159.89 384.9 158.054C384.9 156.217 385.919 155.018 387.532 155.018C389.156 155.018 390.075 156.25 390.075 157.874V158.311H385.987V158.546C385.987 159.51 386.58 160.204 387.622 160.204C388.35 160.204 388.876 159.857 389.19 159.263L389.862 159.834C389.459 160.585 388.619 161.089 387.532 161.089ZM387.532 155.858C386.625 155.858 385.987 156.553 385.987 157.505V157.583H388.966V157.471C388.966 156.508 388.406 155.858 387.532 155.858ZM392.403 160.954L390.846 155.153H391.854L392.459 157.628L393.041 160.014H393.064L393.724 157.628L394.441 155.153H395.371L396.11 157.628L396.782 160.014H396.816L397.364 157.628L397.98 155.153H398.955L397.409 160.954H396.177L395.393 158.233L394.9 156.53H394.878L394.396 158.233L393.612 160.954H392.403Z" fill="#171717"/>
<path d="M510.668 155.448L507.672 159.192L504.677 155.448H510.668Z" fill="#171717"/>
<rect x="329.867" y="173.998" width="90.3093" height="22.8664" rx="3.9332" stroke="#171717" stroke-width="1.12"/>
<path d="M351.764 186.773V189.932H350.498V182.114H353.87C355.27 182.114 356.132 183.021 356.132 184.466C356.132 185.575 355.606 186.348 354.609 186.639L356.3 189.932H354.889L353.321 186.773H351.764ZM351.764 185.709H353.78C354.418 185.709 354.799 185.362 354.799 184.735V184.197C354.799 183.57 354.418 183.223 353.78 183.223H351.764V185.709ZM359.869 190.066C358.211 190.066 357.192 188.879 357.192 187.02C357.192 185.16 358.211 183.973 359.869 183.973C361.582 183.973 362.456 185.261 362.456 186.874V187.333H358.457V187.524C358.457 188.42 359.006 189.058 359.992 189.058C360.709 189.058 361.19 188.722 361.526 188.184L362.243 188.89C361.806 189.596 360.955 190.066 359.869 190.066ZM359.869 184.925C359.029 184.925 358.457 185.552 358.457 186.448V186.527H361.168V186.415C361.168 185.519 360.675 184.925 359.869 184.925ZM363.807 191.175V184.108H365.028V190.716C365.028 191.612 364.591 192.172 363.606 192.172H362.9V191.175H363.807ZM364.423 183.066C363.919 183.066 363.695 182.797 363.695 182.428V182.237C363.695 181.868 363.919 181.599 364.423 181.599C364.927 181.599 365.14 181.868 365.14 182.237V182.428C365.14 182.797 364.927 183.066 364.423 183.066ZM369.056 190.066C367.398 190.066 366.379 188.879 366.379 187.02C366.379 185.16 367.398 183.973 369.056 183.973C370.77 183.973 371.643 185.261 371.643 186.874V187.333H367.645V187.524C367.645 188.42 368.194 189.058 369.179 189.058C369.896 189.058 370.378 188.722 370.714 188.184L371.43 188.89C370.994 189.596 370.142 190.066 369.056 190.066ZM369.056 184.925C368.216 184.925 367.645 185.552 367.645 186.448V186.527H370.355V186.415C370.355 185.519 369.862 184.925 369.056 184.925ZM375.246 190.066C373.566 190.066 372.603 188.879 372.603 187.02C372.603 185.16 373.566 183.973 375.246 183.973C376.411 183.973 377.15 184.544 377.497 185.407L376.489 185.877C376.321 185.34 375.907 184.992 375.246 184.992C374.35 184.992 373.891 185.608 373.891 186.504V187.546C373.891 188.442 374.35 189.058 375.246 189.058C375.951 189.058 376.366 188.677 376.612 188.095L377.542 188.588C377.161 189.54 376.366 190.066 375.246 190.066ZM381.381 189.932H380.317C379.477 189.932 379.029 189.461 379.029 188.666V185.104H378.122V184.108H378.614C379.018 184.108 379.152 183.94 379.152 183.536V182.517H380.25V184.108H381.47V185.104H380.25V188.935H381.381V189.932Z" fill="#171717"/>
<path d="M393.019 188.229L388.339 183.548L388.994 182.893L393.019 186.918L397.044 182.893L397.7 183.548L393.019 188.229Z" fill="#171717"/>
<rect x="428.225" y="173.438" width="91.4293" height="23.9864" rx="4.4932" fill="#93C5FD"/>
<path d="M459.107 189.932H457.786L457.08 187.815H454.157L453.474 189.932H452.186L454.851 182.114H456.442L459.107 189.932ZM456.767 186.728L455.647 183.279H455.591L454.459 186.728H456.767ZM460.229 192.172V184.108H461.449V185.071H461.505C461.752 184.376 462.368 183.973 463.141 183.973C464.608 183.973 465.459 185.104 465.459 187.02C465.459 188.935 464.608 190.066 463.141 190.066C462.368 190.066 461.752 189.652 461.505 188.968H461.449V192.172H460.229ZM462.771 189.013C463.611 189.013 464.171 188.42 464.171 187.524V186.516C464.171 185.62 463.611 185.026 462.771 185.026C462.032 185.026 461.449 185.429 461.449 186.023V188.016C461.449 188.61 462.032 189.013 462.771 189.013ZM466.857 192.172V184.108H468.078V185.071H468.134C468.38 184.376 468.996 183.973 469.769 183.973C471.236 183.973 472.087 185.104 472.087 187.02C472.087 188.935 471.236 190.066 469.769 190.066C468.996 190.066 468.38 189.652 468.134 188.968H468.078V192.172H466.857ZM469.399 189.013C470.239 189.013 470.799 188.42 470.799 187.524V186.516C470.799 185.62 470.239 185.026 469.399 185.026C468.66 185.026 468.078 185.429 468.078 186.023V188.016C468.078 188.61 468.66 189.013 469.399 189.013ZM474.706 189.932H473.485V184.108H474.706V185.228H474.762C474.93 184.634 475.434 184.108 476.363 184.108H476.688V185.284H476.207C475.243 185.284 474.706 185.608 474.706 186.213V189.932ZM480.003 190.066C478.379 190.066 477.326 188.879 477.326 187.02C477.326 185.16 478.379 183.973 480.003 183.973C481.627 183.973 482.679 185.16 482.679 187.02C482.679 188.879 481.627 190.066 480.003 190.066ZM480.003 189.058C480.831 189.058 481.391 188.543 481.391 187.512V186.527C481.391 185.496 480.831 184.981 480.003 184.981C479.174 184.981 478.614 185.496 478.614 186.527V187.512C478.614 188.543 479.174 189.058 480.003 189.058ZM486.651 189.932H485.218L483.235 184.108H484.445L485.33 186.762L485.923 188.8H485.991L486.584 186.762L487.491 184.108H488.656L486.651 189.932ZM491.881 190.066C490.223 190.066 489.204 188.879 489.204 187.02C489.204 185.16 490.223 183.973 491.881 183.973C493.594 183.973 494.468 185.261 494.468 186.874V187.333H490.469V187.524C490.469 188.42 491.018 189.058 492.004 189.058C492.721 189.058 493.202 188.722 493.538 188.184L494.255 188.89C493.818 189.596 492.967 190.066 491.881 190.066ZM491.881 184.925C491.041 184.925 490.469 185.552 490.469 186.448V186.527H493.18V186.415C493.18 185.519 492.687 184.925 491.881 184.925Z" fill="#171717"/>
<rect x="131.6" y="76.7199" width="174.934" height="112.824" rx="12.88" fill="white"/>
<rect x="131.6" y="76.7199" width="174.934" height="112.824" rx="12.88" stroke="#171717" stroke-width="1.12"/>
<path d="M152.078 112.792H145.125V100.284H146.864V111.251H152.078V112.792ZM161.77 112.792H160.82C159.799 112.792 159.315 112.147 159.19 111.251H159.1C158.724 112.398 157.738 113.007 156.412 113.007C154.477 113.007 153.348 111.932 153.348 110.229C153.348 108.437 154.656 107.47 157.308 107.47H159.064V106.628C159.064 105.391 158.401 104.692 157.004 104.692C155.91 104.692 155.212 105.23 154.728 106.018L153.724 105.104C154.28 104.101 155.373 103.294 157.093 103.294C159.405 103.294 160.731 104.477 160.731 106.484V111.376H161.77V112.792ZM156.788 111.663C158.097 111.663 159.064 111 159.064 110.068V108.635H157.29C155.767 108.635 155.086 109.1 155.086 109.961V110.319C155.086 111.179 155.749 111.663 156.788 111.663ZM163.76 112.792V99.5312H165.426V105.033H165.498C165.928 103.886 166.896 103.294 168.168 103.294C170.498 103.294 171.895 105.14 171.895 108.151C171.895 111.161 170.498 113.007 168.168 113.007C166.896 113.007 165.928 112.416 165.498 111.269H165.426V112.792H163.76ZM167.684 111.556C169.171 111.556 170.121 110.498 170.121 108.939V107.362C170.121 105.803 169.171 104.746 167.684 104.746C166.43 104.746 165.426 105.463 165.426 106.448V109.853C165.426 110.839 166.43 111.556 167.684 111.556ZM177.79 113.007C175.21 113.007 173.579 111.09 173.579 108.151C173.579 105.212 175.21 103.294 177.79 103.294C180.389 103.294 181.858 105.266 181.858 107.864V108.563H175.317V108.939C175.317 110.48 176.267 111.591 177.934 111.591C179.098 111.591 179.941 111.036 180.442 110.086L181.518 111C180.873 112.201 179.529 113.007 177.79 113.007ZM177.79 104.638C176.339 104.638 175.317 105.749 175.317 107.273V107.398H180.084V107.219C180.084 105.678 179.188 104.638 177.79 104.638ZM187.122 112.792H185.868C184.721 112.792 184.13 112.111 184.13 111.09V99.5312H185.796V111.376H187.122V112.792Z" fill="#171717"/>
<rect x="143.513" y="127.264" width="44.9006" height="13.6833" fill="#4ADE80"/>
<rect x="188.413" y="127.264" width="106.208" height="13.6833" fill="#E5E5E5"/>
<path d="M214.732 160.038H215.583C216.636 160.038 217.173 159.489 217.173 158.739V158.66C217.173 157.843 216.602 157.428 215.773 157.428C214.967 157.428 214.485 157.809 214.161 158.403L213.466 157.865C213.858 157.238 214.541 156.588 215.796 156.588C217.117 156.588 218.17 157.294 218.17 158.559C218.17 159.567 217.498 160.172 216.669 160.385V160.43C217.509 160.598 218.316 161.225 218.316 162.401C218.316 163.745 217.252 164.675 215.661 164.675C214.306 164.675 213.612 164.014 213.13 163.342L213.836 162.804C214.239 163.42 214.698 163.835 215.65 163.835C216.748 163.835 217.33 163.308 217.33 162.39V162.3C217.33 161.382 216.748 160.855 215.65 160.855H214.732V160.038ZM220.899 163.23C221.369 163.23 221.582 163.499 221.582 163.891V164.047C221.582 164.652 221.201 165.481 220.563 166.03H219.812C220.26 165.559 220.529 165.167 220.652 164.641C220.35 164.574 220.215 164.35 220.215 164.047V163.891C220.215 163.499 220.428 163.23 220.899 163.23ZM228.553 164.54H223.413V163.711H225.597V157.417H225.518L223.547 159.254L222.998 158.66L225.07 156.723H226.537V163.711H228.553V164.54ZM234.239 164.54H233.343V163.006H229.568V162.177L232.839 156.723H234.239V162.222H235.37V163.006H234.239V164.54ZM233.287 157.451L230.453 162.222H233.343V157.451H233.287ZM241.436 156.723V157.551H238.009L237.785 160.531H237.863C238.233 160.004 238.647 159.668 239.465 159.668C240.809 159.668 241.794 160.575 241.794 162.087C241.794 163.611 240.809 164.675 239.162 164.675C237.863 164.675 237.191 164.014 236.721 163.342L237.426 162.804C237.829 163.42 238.221 163.835 239.162 163.835C240.226 163.835 240.797 163.241 240.797 162.211V162.099C240.797 161.068 240.226 160.475 239.162 160.475C238.445 160.475 238.087 160.777 237.762 161.135L236.967 161.023L237.247 156.723H241.436ZM249.869 164.54V163.599H249.824C249.477 164.316 248.928 164.675 248.133 164.675C246.688 164.675 245.781 163.499 245.781 161.651C245.781 159.803 246.688 158.627 248.133 158.627C248.928 158.627 249.522 158.974 249.824 159.702H249.869V156.252H250.765V164.54H249.869ZM248.379 163.868C249.197 163.868 249.869 163.443 249.869 162.692V160.542C249.869 159.903 249.197 159.433 248.379 159.433C247.371 159.433 246.744 160.127 246.744 161.158V162.143C246.744 163.174 247.371 163.868 248.379 163.868ZM257.374 164.54H256.87C256.209 164.54 255.94 164.137 255.873 163.599H255.817C255.57 164.305 254.954 164.675 254.148 164.675C252.927 164.675 252.21 164.003 252.21 162.927C252.21 161.841 252.994 161.236 254.674 161.236H255.817V160.665C255.817 159.847 255.369 159.399 254.45 159.399C253.756 159.399 253.297 159.735 252.983 160.262L252.446 159.758C252.759 159.142 253.454 158.627 254.495 158.627C255.884 158.627 256.713 159.355 256.713 160.575V163.756H257.374V164.54ZM254.294 163.913C255.178 163.913 255.817 163.454 255.817 162.86V161.908H254.63C253.61 161.908 253.151 162.222 253.151 162.782V163.017C253.151 163.588 253.599 163.913 254.294 163.913ZM261.049 164.54H259.929C259.313 164.54 258.977 164.148 258.977 163.588V159.545H258.025V158.761H258.563C258.944 158.761 259.067 158.627 259.067 158.235V157.159H259.873V158.761H261.139V159.545H259.873V163.756H261.049V164.54ZM267.283 164.54H266.779C266.118 164.54 265.849 164.137 265.782 163.599H265.726C265.48 164.305 264.864 164.675 264.057 164.675C262.837 164.675 262.12 164.003 262.12 162.927C262.12 161.841 262.904 161.236 264.584 161.236H265.726V160.665C265.726 159.847 265.278 159.399 264.36 159.399C263.665 159.399 263.206 159.735 262.893 160.262L262.355 159.758C262.669 159.142 263.363 158.627 264.405 158.627C265.793 158.627 266.622 159.355 266.622 160.575V163.756H267.283V164.54ZM264.203 163.913C265.088 163.913 265.726 163.454 265.726 162.86V161.908H264.539C263.52 161.908 263.061 162.222 263.061 162.782V163.017C263.061 163.588 263.509 163.913 264.203 163.913ZM272.105 164.54H271.209V158.761H272.105V159.825H272.161C272.362 159.276 272.889 158.761 273.829 158.761H274.177V159.657H273.65C272.687 159.657 272.105 160.071 272.105 160.62V164.54ZM277.45 164.675C275.905 164.675 274.841 163.487 274.841 161.651C274.841 159.814 275.905 158.627 277.45 158.627C278.996 158.627 280.06 159.814 280.06 161.651C280.06 163.487 278.996 164.675 277.45 164.675ZM277.45 163.879C278.414 163.879 279.097 163.286 279.097 162.065V161.236C279.097 160.015 278.414 159.422 277.45 159.422C276.487 159.422 275.804 160.015 275.804 161.236V162.065C275.804 163.286 276.487 163.879 277.45 163.879ZM282.42 164.54L280.874 158.761H281.748L282.364 161.259L282.98 163.79H283.002L283.708 161.259L284.436 158.761H285.231L285.981 161.259L286.698 163.79H286.721L287.314 161.259L287.941 158.761H288.781L287.247 164.54H286.138L285.332 161.763L284.828 160.004H284.805L284.313 161.763L283.506 164.54H282.42ZM291.79 164.675C290.726 164.675 290.02 164.227 289.505 163.543L290.144 163.028C290.592 163.588 291.129 163.913 291.857 163.913C292.619 163.913 293.067 163.566 293.067 162.972C293.067 162.524 292.82 162.177 292.059 162.065L291.6 161.998C290.536 161.841 289.74 161.404 289.74 160.329C289.74 159.187 290.625 158.627 291.801 158.627C292.731 158.627 293.347 158.974 293.817 159.556L293.224 160.094C292.966 159.735 292.473 159.388 291.734 159.388C290.995 159.388 290.603 159.735 290.603 160.284C290.603 160.844 290.995 161.068 291.712 161.18L292.16 161.247C293.436 161.438 293.929 161.998 293.929 162.871C293.929 163.991 293.112 164.675 291.79 164.675Z" fill="#171717"/>
<path d="M219.758 191.225V190.541H218.39V191.225H219.758ZM219.074 204.908L223.024 198.067H215.124L219.074 204.908ZM218.39 191.225V198.751H219.758V191.225H218.39Z" fill="#171717"/>
<rect x="131.6" y="202.876" width="174.934" height="112.824" rx="12.88" fill="white"/>
<rect x="131.6" y="202.876" width="174.934" height="112.824" rx="12.88" stroke="#171717" stroke-width="1.12"/>
<path d="M146.864 234.278V239.474H145.125V226.966H150.286C152.491 226.966 153.835 228.346 153.835 230.64C153.835 232.45 152.992 233.686 151.38 234.098L154.157 239.474H152.204L149.605 234.278H146.864ZM146.864 232.772H150.215C151.326 232.772 151.989 232.163 151.989 231.088V230.192C151.989 229.117 151.326 228.507 150.215 228.507H146.864V232.772ZM159.87 239.689C157.29 239.689 155.659 237.772 155.659 234.833C155.659 231.894 157.29 229.977 159.87 229.977C162.469 229.977 163.938 231.948 163.938 234.546V235.245H157.397V235.622C157.397 237.163 158.347 238.274 160.014 238.274C161.178 238.274 162.021 237.718 162.522 236.768L163.598 237.682C162.953 238.883 161.609 239.689 159.87 239.689ZM159.87 231.321C158.419 231.321 157.397 232.432 157.397 233.955V234.08H162.164V233.901C162.164 232.36 161.268 231.321 159.87 231.321ZM170.048 239.474H168.095L164.887 230.192H166.553L168.077 234.636L169.044 237.844H169.152L170.137 234.636L171.679 230.192H173.273L170.048 239.474ZM175.872 228.256C175.173 228.256 174.868 227.88 174.868 227.343V227.092C174.868 226.554 175.173 226.178 175.872 226.178C176.571 226.178 176.875 226.554 176.875 227.092V227.343C176.875 227.88 176.571 228.256 175.872 228.256ZM175.03 239.474V230.192H176.696V239.474H175.03ZM183.18 239.689C180.6 239.689 178.969 237.772 178.969 234.833C178.969 231.894 180.6 229.977 183.18 229.977C185.779 229.977 187.248 231.948 187.248 234.546V235.245H180.707V235.622C180.707 237.163 181.657 238.274 183.324 238.274C184.488 238.274 185.331 237.718 185.832 236.768L186.908 237.682C186.263 238.883 184.919 239.689 183.18 239.689ZM183.18 231.321C181.729 231.321 180.707 232.432 180.707 233.955V234.08H185.474V233.901C185.474 232.36 184.578 231.321 183.18 231.321ZM190.973 239.474L188.482 230.192H190.095L191.063 234.152L191.995 237.969H192.031L193.088 234.152L194.235 230.192H195.722L196.905 234.152L197.98 237.969H198.034L198.912 234.152L199.897 230.192H201.456L198.983 239.474H197.012L195.758 235.12L194.969 232.396H194.934L194.163 235.12L192.909 239.474H190.973Z" fill="#171717"/>
<rect x="244.254" y="223.974" width="50.3675" height="18" rx="9" fill="#4ADE80"/>
<path d="M254.91 236.094C253.094 236.094 251.986 234.827 251.986 232.492C251.986 230.157 253.094 228.89 254.91 228.89C256.117 228.89 256.925 229.429 257.394 230.467L256.446 230.985C256.207 230.327 255.718 229.898 254.91 229.898C253.842 229.898 253.184 230.676 253.184 231.963V233.021C253.184 234.308 253.842 235.086 254.91 235.086C255.738 235.086 256.267 234.607 256.516 233.929L257.424 234.478C256.955 235.485 256.117 236.094 254.91 236.094ZM261.683 235.974V235.116H261.643C261.453 235.625 261.044 236.094 260.186 236.094C259.118 236.094 258.49 235.366 258.49 234.089V230.786H259.577V233.949C259.577 234.737 259.907 235.156 260.575 235.156C261.134 235.156 261.683 234.867 261.683 234.258V230.786H262.77V235.974H261.683ZM265.974 236.094C264.996 236.094 264.358 235.725 263.869 235.116L264.567 234.478C264.946 234.937 265.415 235.216 266.034 235.216C266.662 235.216 266.982 234.957 266.982 234.518C266.982 234.188 266.782 233.939 266.243 233.869L265.764 233.809C264.707 233.679 264.058 233.22 264.058 232.263C264.058 231.255 264.846 230.666 265.984 230.666C266.922 230.666 267.451 230.975 267.92 231.494L267.251 232.133C266.982 231.814 266.543 231.544 265.984 231.544C265.385 231.544 265.106 231.804 265.106 232.193C265.106 232.592 265.355 232.771 265.904 232.861L266.383 232.921C267.521 233.091 268.029 233.59 268.029 234.428C268.029 235.426 267.221 236.094 265.974 236.094ZM271.575 235.974H270.627C269.878 235.974 269.479 235.555 269.479 234.847V231.674H268.671V230.786H269.11C269.469 230.786 269.589 230.636 269.589 230.277V229.369H270.567V230.786H271.654V231.674H270.567V235.086H271.575V235.974ZM274.831 236.094C273.384 236.094 272.446 235.036 272.446 233.38C272.446 231.724 273.384 230.666 274.831 230.666C276.277 230.666 277.215 231.724 277.215 233.38C277.215 235.036 276.277 236.094 274.831 236.094ZM274.831 235.196C275.569 235.196 276.068 234.737 276.068 233.819V232.941C276.068 232.023 275.569 231.564 274.831 231.564C274.092 231.564 273.593 232.023 273.593 232.941V233.819C273.593 234.737 274.092 235.196 274.831 235.196ZM279.515 235.974H278.427V230.786H279.515V231.644H279.565C279.774 231.105 280.163 230.666 280.952 230.666C281.65 230.666 282.239 231.005 282.488 231.724H282.518C282.708 231.145 283.247 230.666 284.085 230.666C285.112 230.666 285.721 231.404 285.721 232.682V235.974H284.634V232.811C284.634 232.013 284.334 231.604 283.676 231.604C283.127 231.604 282.618 231.893 282.618 232.492V235.974H281.53V232.811C281.53 232.003 281.221 231.604 280.582 231.604C280.044 231.604 279.515 231.893 279.515 232.492V235.974Z" fill="#171717"/>
<rect x="143.513" y="254.447" width="75.5544" height="13.6833" fill="#4ADE80"/>
<rect x="219.067" y="254.447" width="75.5544" height="13.6833" fill="#E5E5E5"/>
<path d="M217.909 291.602H217.013V290.068H213.238V289.239L216.509 283.785H217.909V289.284H219.04V290.068H217.909V291.602ZM216.957 284.513L214.123 289.284H217.013V284.513H216.957ZM221.052 290.292C221.522 290.292 221.735 290.561 221.735 290.953V291.109C221.735 291.714 221.354 292.543 220.716 293.092H219.965C220.413 292.621 220.682 292.229 220.805 291.703C220.503 291.636 220.368 291.412 220.368 291.109V290.953C220.368 290.561 220.581 290.292 221.052 290.292ZM228.549 290.773V291.602H223.42V290.639L225.973 288.287C226.701 287.615 227.261 286.831 227.261 286.081V285.946C227.261 285.084 226.78 284.49 225.817 284.49C224.853 284.49 224.405 285.073 224.193 285.812L223.353 285.487C223.655 284.569 224.349 283.65 225.861 283.65C227.385 283.65 228.258 284.591 228.258 285.924C228.258 287.133 227.541 287.985 226.545 288.881L224.439 290.773H228.549ZM232.667 291.737C231.043 291.737 230.046 290.594 230.046 288.735C230.046 286.417 231.58 284.602 232.835 283.785H234.044C232.376 285.005 231.446 286.025 231.02 287.839L231.076 287.861C231.446 287.223 232.006 286.741 232.958 286.741C234.302 286.741 235.265 287.671 235.265 289.149C235.265 290.684 234.235 291.737 232.667 291.737ZM232.656 290.919C233.686 290.919 234.291 290.325 234.291 289.273V289.183C234.291 288.13 233.686 287.537 232.656 287.537C231.625 287.537 231.02 288.13 231.02 289.183V289.273C231.02 290.325 231.625 290.919 232.656 290.919ZM241.589 283.785V284.613H238.162L237.938 287.593H238.016C238.386 287.066 238.8 286.73 239.618 286.73C240.962 286.73 241.947 287.637 241.947 289.149C241.947 290.673 240.962 291.737 239.315 291.737C238.016 291.737 237.344 291.076 236.874 290.404L237.579 289.866C237.982 290.482 238.374 290.897 239.315 290.897C240.379 290.897 240.95 290.303 240.95 289.273V289.161C240.95 288.13 240.379 287.537 239.315 287.537C238.598 287.537 238.24 287.839 237.915 288.197L237.12 288.085L237.4 283.785H241.589ZM250.022 291.602V290.661H249.977C249.63 291.378 249.081 291.737 248.286 291.737C246.841 291.737 245.934 290.561 245.934 288.713C245.934 286.865 246.841 285.689 248.286 285.689C249.081 285.689 249.674 286.036 249.977 286.764H250.022V283.314H250.918V291.602H250.022ZM248.532 290.93C249.35 290.93 250.022 290.505 250.022 289.754V287.604C250.022 286.965 249.35 286.495 248.532 286.495C247.524 286.495 246.897 287.189 246.897 288.22V289.205C246.897 290.236 247.524 290.93 248.532 290.93ZM257.526 291.602H257.022C256.362 291.602 256.093 291.199 256.026 290.661H255.97C255.723 291.367 255.107 291.737 254.301 291.737C253.08 291.737 252.363 291.065 252.363 289.989C252.363 288.903 253.147 288.298 254.827 288.298H255.97V287.727C255.97 286.909 255.522 286.461 254.603 286.461C253.909 286.461 253.45 286.797 253.136 287.324L252.598 286.82C252.912 286.204 253.606 285.689 254.648 285.689C256.037 285.689 256.866 286.417 256.866 287.637V290.818H257.526V291.602ZM254.446 290.975C255.331 290.975 255.97 290.516 255.97 289.922V288.97H254.782C253.763 288.97 253.304 289.284 253.304 289.844V290.079C253.304 290.65 253.752 290.975 254.446 290.975ZM261.202 291.602H260.082C259.466 291.602 259.13 291.21 259.13 290.65V286.607H258.178V285.823H258.716C259.097 285.823 259.22 285.689 259.22 285.297V284.221H260.026V285.823H261.292V286.607H260.026V290.818H261.202V291.602ZM267.436 291.602H266.932C266.271 291.602 266.002 291.199 265.935 290.661H265.879C265.633 291.367 265.017 291.737 264.21 291.737C262.989 291.737 262.273 291.065 262.273 289.989C262.273 288.903 263.057 288.298 264.737 288.298H265.879V287.727C265.879 286.909 265.431 286.461 264.513 286.461C263.818 286.461 263.359 286.797 263.045 287.324L262.508 286.82C262.821 286.204 263.516 285.689 264.557 285.689C265.946 285.689 266.775 286.417 266.775 287.637V290.818H267.436V291.602ZM264.356 290.975C265.241 290.975 265.879 290.516 265.879 289.922V288.97H264.692C263.673 288.97 263.213 289.284 263.213 289.844V290.079C263.213 290.65 263.661 290.975 264.356 290.975ZM272.258 291.602H271.362V285.823H272.258V286.887H272.314C272.515 286.338 273.042 285.823 273.982 285.823H274.33V286.719H273.803C272.84 286.719 272.258 287.133 272.258 287.682V291.602ZM277.603 291.737C276.058 291.737 274.994 290.549 274.994 288.713C274.994 286.876 276.058 285.689 277.603 285.689C279.149 285.689 280.213 286.876 280.213 288.713C280.213 290.549 279.149 291.737 277.603 291.737ZM277.603 290.941C278.567 290.941 279.25 290.348 279.25 289.127V288.298C279.25 287.077 278.567 286.484 277.603 286.484C276.64 286.484 275.957 287.077 275.957 288.298V289.127C275.957 290.348 276.64 290.941 277.603 290.941ZM282.573 291.602L281.027 285.823H281.901L282.517 288.321L283.133 290.852H283.155L283.861 288.321L284.589 285.823H285.384L286.134 288.321L286.851 290.852H286.873L287.467 288.321L288.094 285.823H288.934L287.4 291.602H286.291L285.485 288.825L284.981 287.066H284.958L284.465 288.825L283.659 291.602H282.573ZM291.943 291.737C290.879 291.737 290.173 291.289 289.658 290.605L290.296 290.09C290.744 290.65 291.282 290.975 292.01 290.975C292.772 290.975 293.22 290.628 293.22 290.034C293.22 289.586 292.973 289.239 292.212 289.127L291.752 289.06C290.688 288.903 289.893 288.466 289.893 287.391C289.893 286.249 290.778 285.689 291.954 285.689C292.884 285.689 293.5 286.036 293.97 286.618L293.376 287.156C293.119 286.797 292.626 286.45 291.887 286.45C291.148 286.45 290.756 286.797 290.756 287.346C290.756 287.906 291.148 288.13 291.864 288.242L292.312 288.309C293.589 288.5 294.082 289.06 294.082 289.933C294.082 291.053 293.264 291.737 291.943 291.737Z" fill="#171717"/>
<path d="M219.755 317.379V316.694H218.387V317.379H219.755ZM219.071 331.062L223.021 324.22H215.121L219.071 331.062ZM218.387 317.379V324.904H219.755V317.379H218.387Z" fill="#171717"/>
<rect x="131.501" y="328.934" width="175.132" height="113.022" rx="17.0005" fill="white"/>
<rect x="131.501" y="328.934" width="175.132" height="113.022" rx="17.0005" stroke="#171717" stroke-width="0.921747"/>
<path d="M145.124 379.157V366.649H149.406C152.578 366.649 154.621 368.727 154.621 372.903C154.621 377.078 152.578 379.157 149.406 379.157H145.124ZM146.862 377.616H149.406C151.396 377.616 152.757 376.29 152.757 373.906V371.899C152.757 369.516 151.396 368.19 149.406 368.19H146.862V377.616ZM160.656 379.372C158.13 379.372 156.427 377.472 156.427 374.515C156.427 371.559 158.13 369.659 160.656 369.659C163.183 369.659 164.885 371.559 164.885 374.515C164.885 377.472 163.183 379.372 160.656 379.372ZM160.656 377.938C162.108 377.938 163.111 377.024 163.111 375.214V373.817C163.111 372.007 162.108 371.093 160.656 371.093C159.205 371.093 158.201 372.007 158.201 373.817V375.214C158.201 377.024 159.205 377.938 160.656 377.938ZM168.819 379.157H167.153V369.874H168.819V371.397H168.909C169.339 370.376 170.127 369.659 171.525 369.659C173.425 369.659 174.589 370.967 174.589 373.225V379.157H172.923V373.476C172.923 371.917 172.278 371.111 170.97 371.111C169.877 371.111 168.819 371.666 168.819 372.795V379.157ZM180.973 379.372C178.393 379.372 176.762 377.454 176.762 374.515C176.762 371.577 178.393 369.659 180.973 369.659C183.572 369.659 185.041 371.63 185.041 374.229V374.928H178.5V375.304C178.5 376.845 179.45 377.956 181.117 377.956C182.282 377.956 183.124 377.401 183.626 376.451L184.701 377.365C184.056 378.565 182.712 379.372 180.973 379.372ZM180.973 371.003C179.522 371.003 178.5 372.114 178.5 373.637V373.763H183.267V373.584C183.267 372.042 182.371 371.003 180.973 371.003Z" fill="#171717"/>
<rect x="143.513" y="393.049" width="118.488" height="13.6833" fill="#4ADE80"/>
<rect x="262" y="393.049" width="32.6213" height="13.6833" fill="#E5E5E5"/>
<path d="M214.031 419.934C212.407 419.934 211.41 418.792 211.41 416.933C211.41 414.614 212.944 412.8 214.199 411.982H215.408C213.74 413.203 212.81 414.222 212.384 416.037L212.44 416.059C212.81 415.421 213.37 414.939 214.322 414.939C215.666 414.939 216.629 415.869 216.629 417.347C216.629 418.881 215.599 419.934 214.031 419.934ZM214.02 419.117C215.05 419.117 215.655 418.523 215.655 417.47V417.381C215.655 416.328 215.05 415.734 214.02 415.734C212.989 415.734 212.384 416.328 212.384 417.381V417.47C212.384 418.523 212.989 419.117 214.02 419.117ZM218.898 418.489C219.369 418.489 219.582 418.758 219.582 419.15V419.307C219.582 419.912 219.201 420.741 218.562 421.289H217.812C218.26 420.819 218.529 420.427 218.652 419.901C218.35 419.833 218.215 419.609 218.215 419.307V419.15C218.215 418.758 218.428 418.489 218.898 418.489ZM223.395 419.8H222.387L225.377 412.789H222.04V414.245H221.2V411.982H226.329V412.811L223.395 419.8ZM230.514 419.934C228.89 419.934 227.893 418.792 227.893 416.933C227.893 414.614 229.427 412.8 230.682 411.982H231.891C230.222 413.203 229.293 414.222 228.867 416.037L228.923 416.059C229.293 415.421 229.853 414.939 230.805 414.939C232.149 414.939 233.112 415.869 233.112 417.347C233.112 418.881 232.082 419.934 230.514 419.934ZM230.502 419.117C231.533 419.117 232.138 418.523 232.138 417.47V417.381C232.138 416.328 231.533 415.734 230.502 415.734C229.472 415.734 228.867 416.328 228.867 417.381V417.47C228.867 418.523 229.472 419.117 230.502 419.117ZM239.436 411.982V412.811H236.008L235.784 415.79H235.863C236.232 415.264 236.647 414.928 237.464 414.928C238.808 414.928 239.794 415.835 239.794 417.347C239.794 418.87 238.808 419.934 237.162 419.934C235.863 419.934 235.191 419.273 234.72 418.601L235.426 418.064C235.829 418.68 236.221 419.094 237.162 419.094C238.226 419.094 238.797 418.501 238.797 417.47V417.358C238.797 416.328 238.226 415.734 237.162 415.734C236.445 415.734 236.087 416.037 235.762 416.395L234.967 416.283L235.247 411.982H239.436ZM247.869 419.8V418.859H247.824C247.477 419.576 246.928 419.934 246.133 419.934C244.688 419.934 243.781 418.758 243.781 416.91C243.781 415.062 244.688 413.886 246.133 413.886C246.928 413.886 247.521 414.233 247.824 414.961H247.869V411.512H248.765V419.8H247.869ZM246.379 419.128C247.197 419.128 247.869 418.702 247.869 417.952V415.801C247.869 415.163 247.197 414.693 246.379 414.693C245.371 414.693 244.744 415.387 244.744 416.417V417.403C244.744 418.433 245.371 419.128 246.379 419.128ZM255.373 419.8H254.869C254.209 419.8 253.94 419.397 253.873 418.859H253.817C253.57 419.565 252.954 419.934 252.148 419.934C250.927 419.934 250.21 419.262 250.21 418.187C250.21 417.101 250.994 416.496 252.674 416.496H253.817V415.925C253.817 415.107 253.369 414.659 252.45 414.659C251.756 414.659 251.297 414.995 250.983 415.521L250.445 415.017C250.759 414.401 251.453 413.886 252.495 413.886C253.884 413.886 254.713 414.614 254.713 415.835V419.016H255.373V419.8ZM252.293 419.173C253.178 419.173 253.817 418.713 253.817 418.12V417.168H252.629C251.61 417.168 251.151 417.481 251.151 418.041V418.277C251.151 418.848 251.599 419.173 252.293 419.173ZM259.049 419.8H257.929C257.313 419.8 256.977 419.408 256.977 418.848V414.805H256.025V414.021H256.563C256.943 414.021 257.067 413.886 257.067 413.494V412.419H257.873V414.021H259.139V414.805H257.873V419.016H259.049V419.8ZM265.283 419.8H264.779C264.118 419.8 263.849 419.397 263.782 418.859H263.726C263.48 419.565 262.864 419.934 262.057 419.934C260.836 419.934 260.12 419.262 260.12 418.187C260.12 417.101 260.904 416.496 262.584 416.496H263.726V415.925C263.726 415.107 263.278 414.659 262.36 414.659C261.665 414.659 261.206 414.995 260.892 415.521L260.355 415.017C260.668 414.401 261.363 413.886 262.404 413.886C263.793 413.886 264.622 414.614 264.622 415.835V419.016H265.283V419.8ZM262.203 419.173C263.088 419.173 263.726 418.713 263.726 418.12V417.168H262.539C261.52 417.168 261.06 417.481 261.06 418.041V418.277C261.06 418.848 261.508 419.173 262.203 419.173ZM270.104 419.8H269.208V414.021H270.104V415.085H270.16C270.362 414.536 270.888 414.021 271.829 414.021H272.176V414.917H271.65C270.687 414.917 270.104 415.331 270.104 415.88V419.8ZM275.45 419.934C273.905 419.934 272.841 418.747 272.841 416.91C272.841 415.073 273.905 413.886 275.45 413.886C276.996 413.886 278.06 415.073 278.06 416.91C278.06 418.747 276.996 419.934 275.45 419.934ZM275.45 419.139C276.413 419.139 277.097 418.545 277.097 417.325V416.496C277.097 415.275 276.413 414.681 275.45 414.681C274.487 414.681 273.804 415.275 273.804 416.496V417.325C273.804 418.545 274.487 419.139 275.45 419.139ZM280.42 419.8L278.874 414.021H279.748L280.364 416.518L280.98 419.049H281.002L281.708 416.518L282.436 414.021H283.231L283.981 416.518L284.698 419.049H284.72L285.314 416.518L285.941 414.021H286.781L285.247 419.8H284.138L283.332 417.022L282.828 415.264H282.805L282.312 417.022L281.506 419.8H280.42ZM289.79 419.934C288.726 419.934 288.02 419.486 287.505 418.803L288.143 418.288C288.591 418.848 289.129 419.173 289.857 419.173C290.619 419.173 291.067 418.825 291.067 418.232C291.067 417.784 290.82 417.437 290.059 417.325L289.599 417.257C288.535 417.101 287.74 416.664 287.74 415.589C287.74 414.446 288.625 413.886 289.801 413.886C290.731 413.886 291.347 414.233 291.817 414.816L291.223 415.353C290.966 414.995 290.473 414.648 289.734 414.648C288.995 414.648 288.603 414.995 288.603 415.544C288.603 416.104 288.995 416.328 289.711 416.44L290.159 416.507C291.436 416.697 291.929 417.257 291.929 418.131C291.929 419.251 291.111 419.934 289.79 419.934Z" fill="#171717"/>
<path d="M131.6 307.44L131.6 289.52L147.319 285.514L131.6 307.44Z" fill="#171717"/>
<path d="M58.0942 260.664C58.3772 259.86 58.6601 259.057 58.9442 258.246C66.3692 253.788 74.0146 249.765 82.1303 246.679C83.5744 246.132 84.9255 245.358 86.3248 244.686C87.3169 243.347 88.309 242.007 89.3077 240.677C88.309 242.007 87.3158 243.354 86.3248 244.686C87.4394 244.667 88.5452 244.655 89.6599 244.636C90.2266 243.779 90.8374 242.945 91.3315 242.046C90.8297 242.944 90.2189 243.778 89.6599 244.636C97.0437 245.967 104.462 246.688 111.951 245.571C112.753 246.067 113.556 246.563 114.35 247.066C116.727 251.203 120.489 253.631 124.733 255.451C125.296 256.402 125.852 257.352 126.415 258.302C128.474 261.153 127.68 259.28 131.04 263.76L131.04 228.48C127.823 221.891 123.393 219.759 116.58 217.872C105.454 214.786 94.1228 212.46 83.1323 208.881C83.461 208.25 83.7986 207.613 84.1273 206.982C92.8413 204.173 100.608 199.97 106.084 192.275C106.709 191.403 108.068 190.354 108.934 190.472C114.486 191.228 118.984 188.506 123.599 186.282C128.095 184.113 132.208 180.466 136.894 179.532C144.74 177.97 149.51 172.903 154.31 167.517C155.81 165.833 156.511 163.678 155.244 161.392C154.914 161.494 154.585 161.588 154.248 161.681C154.577 161.587 154.914 161.494 155.244 161.392C155.041 160.573 154.732 159.825 153.972 159.359C149.995 155.383 146.045 157.159 142.108 159.442C141.29 159.804 140.464 160.165 139.646 160.528C135.009 161.666 130.138 161.918 125.76 164.034C122.068 165.824 118.201 166.491 114.136 166.678C109.381 166.9 104.549 167.102 99.9171 168.091C95.4158 169.052 90.6703 169.472 86.5344 171.766C79.4986 175.665 72.1855 178.978 64.8199 182.166C63.7424 182.632 62.7085 183.61 61.3697 183.004C61.373 182.981 61.3764 182.958 61.3644 182.932C61.3103 182.924 61.2695 182.934 61.2297 182.936C61.3042 182.426 61.3942 181.918 61.4687 181.408C65.1053 176.594 68.0598 171.483 68.7621 165.325C68.844 164.603 69.1589 163.796 69.6264 163.241C77.9722 153.288 84.7625 142.216 92.3442 131.718C96.3485 126.168 99.0413 120.095 100.156 113.271C100.759 109.577 100.125 106.627 97.1103 104.323C96.4807 103.505 95.5587 103.339 94.6133 103.224C89.0604 102.855 84.677 106.573 82.5609 113.449C82.1877 114.168 81.8146 114.887 81.4414 115.606C80.7697 115.508 76.8537 121.047 76.2366 121.762C74.2483 124.038 72.2313 126.293 70.1945 128.522C66.1198 132.988 61.9681 137.387 57.8649 141.833C49.8211 150.527 42.1814 159.532 35.1304 169.042C35.7058 168.234 36.2823 167.418 36.8577 166.61C36.4409 167.197 35.6381 165.351 35.6111 165.157C35.5054 164.423 36.3443 163.701 36.5792 163.064C37.1948 161.441 37.0407 159.31 38.2271 157.936C42.7358 152.713 43.6595 146.334 45.3108 140.212C46.2638 136.656 45.7342 132.939 42.8348 130.061C41.946 128.857 40.769 128.385 39.3003 128.668C35.9876 129.645 35.1972 132.735 33.7608 135.28C33.1334 136.12 32.4972 136.967 31.8687 137.815C33.879 137.927 35.6267 137.677 37.1196 137.066C35.6267 137.677 33.8778 137.934 31.8687 137.815C27.0402 145.66 22.5364 153.766 16.6785 160.884C10.3607 168.559 7.25262 177.421 4.8082 186.815C1.34333 200.117 -2.1978 213.456 -9.76606 225.212C-14.9872 233.315 -19.2994 241.891 -23.5037 250.538C-26.3992 256.486 -29.0227 262.625 -32.4479 268.259C-47.5602 293.116 -66.3368 314.825 -89.0186 333.089L-116.48 521.109L-95.6598 484.166C-95.6598 484.166 -71.0888 447.676 -56.501 426.248C-53.473 421.93 -50.38 417.652 -47.2077 413.426C-32.8383 394.302 -18.6086 375.056 -1.24468 358.431C4.55842 352.875 11.1413 349.108 19.4564 348.814C24.0057 348.658 28.5473 347.852 32.749 346.027C42.3061 341.872 52.2623 338.873 62.144 335.682C77.356 330.767 91.5413 323.973 104.529 314.58C111.786 309.331 119.395 304.584 126.848 299.61C129.222 297.177 132.195 295.559 134.998 293.75C135.72 293.287 136.37 292.781 136.96 292.252C137.029 292.262 137.099 292.272 137.16 292.281C139.004 290.727 140.856 289.165 142.769 287.676L147.346 285.495C147.674 285.14 148.001 284.793 148.329 284.438C150.269 281.358 152.017 278.242 149.658 274.582C149.036 273.709 148.414 272.837 147.792 271.972C143.97 267.467 138.64 267.786 133.492 267.507C128.151 267.256 123.322 268.896 118.732 271.486C113.67 274.347 108.569 277.147 103.488 279.973C94.9637 284.721 86.4209 284.144 77.8731 280.037C76.8762 278.494 75.6578 277.172 74.0209 276.285C67.1611 272.662 62.6188 266.669 58.113 260.643M95.3554 109.428C95.5408 109.076 95.6977 108.704 95.8391 108.33C95.6977 108.704 95.5331 109.075 95.3554 109.428C94.9367 110.243 94.5215 110.979 94.1033 111.629C94.5227 110.972 94.9367 110.243 95.3554 109.428Z" fill="#FBBF24"/>
<path d="M11.5109 198.587L21.6423 188.611C21.6423 188.611 34.4088 167.343 36.056 166.431" stroke="#171717" stroke-width="1.12" stroke-miterlimit="10" stroke-linecap="round"/>
<path d="M33.5665 136.555C33.5665 136.555 38.7668 137.772 41.7199 129.053" stroke="#171717" stroke-width="1.12" stroke-miterlimit="10" stroke-linecap="round"/>
<path d="M82.5488 113.471C82.5488 113.471 93.0388 117.561 95.7594 103.415" stroke="#171717" stroke-width="1.12" stroke-miterlimit="10" stroke-linecap="round"/>
<path d="M141.357 160.894C141.357 160.894 145.955 165.048 154.63 161.372" stroke="#171717" stroke-width="1.12" stroke-miterlimit="10" stroke-linecap="round"/>
<path d="M52.2461 250.115C52.2461 250.115 53.4379 256.479 58.3201 259.118" stroke="#171717" stroke-width="1.12" stroke-miterlimit="10" stroke-linecap="round"/>
<path d="M55.2822 267.01C55.2822 267.01 56.3667 275.459 77.8541 280.058" stroke="#171717" stroke-width="1.12" stroke-miterlimit="10" stroke-linecap="round"/>
<path d="M86.3318 244.695C88.3048 244.414 92.2665 238.724 92.2665 238.724" stroke="#171717" stroke-width="1.12" stroke-miterlimit="10" stroke-linecap="round"/>
<path d="M111.951 245.571L120.34 242.825" stroke="#171717" stroke-width="1.12" stroke-miterlimit="10" stroke-linecap="round"/>
<path d="M125.631 256.97L130.978 257.728" stroke="#171717" stroke-width="1.12" stroke-miterlimit="10" stroke-linecap="round"/>
<path d="M65.0977 202.854L82.8568 207.927" stroke="#171717" stroke-width="1.12" stroke-miterlimit="10" stroke-linecap="round"/>
<path d="M60.1767 183.651L42.7617 192.689" stroke="#171717" stroke-width="1.12" stroke-miterlimit="10" stroke-linecap="round"/>
<path d="M34.8136 191.3L32.0951 191.771C29.158 192.282 26.5602 193.979 24.9176 196.478L17.4101 207.872" stroke="#171717" stroke-width="1.12" stroke-miterlimit="10" stroke-linecap="round"/>
<path d="M56.9456 203.192L52.0581 202.479C49.5024 202.105 46.9454 203.145 45.3683 205.196L35.92 217.514" stroke="#171717" stroke-width="1.12" stroke-miterlimit="10" stroke-linecap="round"/>
<path d="M147.772 271.994C147.772 271.994 137.804 275.456 140.542 289.215" stroke="#171717" stroke-width="1.12" stroke-miterlimit="10" stroke-linecap="round"/>
<path d="M505.679 178.652L528.08 199.36L528.64 178.652L505.679 178.652Z" fill="#171717"/>
<path d="M758.116 220.813C744.65 210.961 730.662 201.728 720.539 187.991C716.421 182.405 711.183 177.813 705.7 173.572C696.302 166.3 688.075 157.878 680.881 148.421C668.581 132.25 656.295 116.066 643.93 99.9449C641.724 97.0731 640.159 94.0553 639.002 90.5717C635.712 80.6716 631.526 71.0523 623.735 63.7982C619.376 59.7443 615.464 55.4156 611.831 50.7473C609.45 47.6789 606.951 44.7043 604.497 41.6822C603.973 39.9427 602.711 38.7567 601.33 37.7578C599.812 36.6598 598.672 33.8135 596.123 36.3217C593.949 37.8688 593.764 40.2756 593.456 42.6169C592.971 43.063 592.486 43.5092 591.998 43.9634C582.01 35.4925 572.418 26.6156 563.595 16.9093C563.282 17.0499 562.97 17.163 562.676 17.255C562.97 17.163 563.274 17.0468 563.595 16.9093C563.195 16.2093 562.797 15.5013 562.388 14.7982C560.706 10.9194 558.037 8.12157 553.821 7.026C552.885 6.73441 552 6.91689 551.158 7.37555C548.568 9.23723 548.462 11.9711 548.654 14.7531C549.102 21.3625 551.902 27.0029 556.224 31.8592C564.122 40.7311 570.475 50.8883 579.03 59.2033C579.491 59.6478 579.825 60.4246 579.875 61.0742C580.152 64.2878 582.048 66.6335 583.926 69.0004C583.709 69.3261 583.496 69.6437 583.279 69.9694C581.623 71.0826 580.273 69.882 578.827 69.3962C569.577 66.2627 560.533 60.9811 550.657 61.8026C535.719 63.0434 521.448 60.1965 507.042 57.5112C506.255 57.3136 505.469 57.1161 504.679 56.9267C501.816 56.0496 498.948 55.2354 495.951 56.3393C494.892 56.8081 493.761 57.175 493.363 58.4617C491.581 60.659 493.074 62.3129 494.495 63.6894C500.774 69.7826 507.282 74.5438 516.532 76.6566C526.411 78.9165 535.948 83.2446 546.019 85.4385C546.978 85.646 548.03 86.0467 548.732 86.6852C552.556 90.1734 557.405 91.7235 561.934 93.894C562.186 94.4259 562.441 94.9496 562.684 95.4784C556.364 99.1761 549.185 100.19 542.256 101.911C536.493 103.344 531.421 105.884 527.768 110.56C524.16 114.24 527.768 111.44 528.64 120.96L528.64 144.48L529.707 143.641C530.236 143.276 530.751 142.897 531.277 142.513C531.461 142.37 531.649 142.218 531.828 142.064C531.828 142.064 535.478 139.706 537.101 138.339C539.146 136.622 540.903 134.564 542.072 132.151C543.574 131.685 545.085 131.221 546.59 130.774C546.856 130.661 547.113 130.546 547.378 130.433C548.916 130.166 550.449 129.887 551.988 129.619C555.024 129.263 558.125 129.368 561.126 128.739C562.919 128.364 564.617 127.629 566.171 126.662C567.748 125.685 568.926 124.344 570.377 123.236C571.618 123.625 572.852 124.011 574.093 124.401C574.706 124.69 575.319 124.979 575.932 125.268C584.015 126.649 591.775 129.048 599.115 132.743C599.641 133.575 600.168 134.406 600.703 135.241C600.864 135.497 599.702 137.43 599.546 137.741C599.091 138.644 598.615 139.53 598.109 140.395C597.098 142.125 595.988 143.799 594.798 145.415C593.381 147.334 591.779 149.108 590.193 150.888C588.744 152.526 587.449 154.612 585.567 155.76C584.055 156.687 582.374 157.16 580.745 157.81C578.765 158.606 576.793 159.404 574.816 160.191C560.722 162.329 546.672 163.648 532.994 157.956C531.418 157.3 529.715 156.929 528.081 156.427C520.256 156.119 513.343 158.505 507.324 163.505C506.102 163.819 505.062 164.36 504.615 165.655C500.714 169.718 501.017 173.349 505.674 178.639C509.315 180.564 513.039 182.15 517.475 181.743C517.428 181.623 526.238 184.524 530.628 186.112C531.914 186.871 533.187 187.69 534.493 188.373C539.835 190.528 545.063 193.03 550.535 194.743C560.071 197.735 569.222 201.397 577.51 207.105C579.596 208.539 582.184 209.358 584.648 210.092C593.9 212.856 603.11 215.705 611.936 219.66C625.122 225.573 638.613 229.543 653.362 227.729C658.672 227.07 663.366 228.979 667.274 233.074C673.74 239.842 680.256 246.554 686.363 253.658C695.207 263.939 702.545 275.353 710.923 285.984C712.868 288.785 714.816 291.577 716.761 294.378C721.355 300.952 730.879 313.536 735.471 320.119L770.079 229.256C766.081 226.444 762.042 223.69 758.095 220.795L758.116 220.813Z" fill="#FB923C"/>
<path d="M576.815 160.295C576.815 160.295 603.683 157.828 613.024 132.087" stroke="#171717" stroke-width="1.12" stroke-miterlimit="10" stroke-linecap="round"/>
<path d="M534.638 127.316C534.638 127.316 542.306 132.073 544.452 131.425" stroke="#171717" stroke-width="1.12" stroke-miterlimit="10" stroke-linecap="round"/>
<path d="M569.388 117.266C569.388 117.266 570.948 121.757 572.346 124.145" stroke="#171717" stroke-width="1.12" stroke-miterlimit="10" stroke-linecap="round"/>
<path d="M602.431 128.32C602.431 128.32 602.222 132.054 600.714 135.237" stroke="#171717" stroke-width="1.12" stroke-miterlimit="10" stroke-linecap="round"/>
<path d="M562.691 95.4832L584.038 85.884" stroke="#171717" stroke-width="1.12" stroke-miterlimit="10" stroke-linecap="round"/>
<path d="M596.691 81.4713C596.691 81.4713 610.537 79.0818 621.487 92.7157" stroke="#171717" stroke-width="1.12" stroke-miterlimit="10" stroke-linecap="round"/>
<path d="M583.295 69.9768C583.461 70.1978 597.566 76.3496 597.566 76.3496" stroke="#171717" stroke-width="1.12" stroke-miterlimit="10" stroke-linecap="round"/>
<path d="M607.833 78.2744C607.833 78.2744 626.707 81.2235 629.521 89.2625L626.707 81.2235L609.224 59.8311C605.3 55.0245 600.821 50.7021 595.898 46.9347L592.001 43.9565" stroke="#171717" stroke-width="1.12" stroke-miterlimit="10" stroke-linecap="round"/>
<path d="M505.22 164.651C505.22 164.651 514.297 162.496 516.439 173.248C516.439 173.248 516.9 178.897 520.546 182.754" stroke="#171717" stroke-width="1.12" stroke-miterlimit="10" stroke-linecap="round"/>
<path d="M551.547 9.05469C551.547 9.05469 552.683 19.3311 562.773 18.7024" stroke="#171717" stroke-width="1.12" stroke-miterlimit="10" stroke-linecap="round"/>
<path d="M493.626 60.182C493.626 60.182 499.033 65.9617 506.032 58.5334" stroke="#171717" stroke-width="1.12" stroke-miterlimit="10" stroke-linecap="round"/>
<path d="M437.348 352.334L397.599 378L434.559 378L437.348 352.334Z" fill="#171717"/>
<path d="M434.541 361.35C434.527 361.131 434.519 360.916 434.522 360.698C434.493 360.7 434.464 360.683 434.434 360.685C434.432 360.721 434.434 360.751 434.42 360.791C433.046 365.045 430.877 368.976 429.139 373.084C427.397 375.812 425.227 378.376 423.41 381.07C422.331 383.89 420.68 386.432 419.334 389.105C415.741 396.266 413.235 404.017 407.719 410.205C404.651 413.649 401.595 417.3 399.956 421.713C396.42 431.223 391.949 440.241 386.755 448.961C380.532 459.421 376.096 470.516 376.249 482.99C376.271 485.039 356.961 518.503 355.6 520.24L438.054 525.926C456.509 513.776 475.665 502.793 494.791 491.763C498.008 489.908 500.896 487.488 504.987 486.767C515.299 484.947 525.49 481.947 533.693 475.2C539.24 470.637 545.197 466.811 551.097 462.837C553.121 461.469 555.648 460.807 557.008 458.534C560.206 458.734 561.986 456.363 563.518 454.286C566.39 450.394 559.475 448.992 557.484 448.151C557.226 447.808 556.971 447.477 556.72 447.139C557.496 446.207 558.12 445.043 559.081 444.381C565.445 439.99 569.865 433.342 576.806 429.547C579.801 427.907 582.052 424.913 584.643 422.529C585.607 423.246 586.453 422.862 587.274 422.243C590.914 420.953 593.914 418.913 595.478 415.201C595.902 414.216 596.041 413.245 595.361 412.302C591.916 408.84 583.501 407.927 578.21 410.91C571.234 414.846 564.489 419.186 557.619 423.3C551.769 426.796 546.663 431.599 539.91 433.524C537.755 434.136 535.212 436.864 533.66 435.161C531.777 433.092 534.209 430.424 535.432 428.205C540.792 418.549 544.966 408.62 544.976 397.237C544.989 385.817 549.89 375.51 553.312 364.892C553.457 364.269 553.609 363.651 553.75 363.035C554.829 360.54 555.956 358.045 555.362 355.211C555.252 353.932 554.915 352.778 553.714 352.074C552.411 350.728 551.071 350.976 549.68 351.949C546.991 353.816 544.24 355.61 542.062 358.121C537.936 362.866 535.22 368.285 532.816 374.134C530.04 380.895 525.972 387.138 524.114 394.321C523.376 397.178 521.96 399.792 520.103 401.869C517.04 405.305 515.117 409.371 512.709 413.172C512.192 413.157 511.687 413.138 511.171 413.123C509.164 408.706 508.098 404.036 507.896 399.213C507.436 388.29 502.507 381.606 500.831 379.037L470.274 379.383C472.294 383.484 474.494 387.44 478.475 390.021C478.787 391.59 479.1 393.16 479.413 394.73C479.54 399.079 479.756 403.422 479.768 407.771C479.785 411.721 481.303 414.886 484.193 417.468C483.582 418.43 482.968 419.38 482.357 420.342C479.368 428.527 476.644 436.829 471.635 444.108C470.874 444.379 470.111 444.64 469.35 444.911C461.886 441.591 457.249 434.963 451.528 429.614L451.531 429.625C451.449 429.261 451.366 428.897 451.283 428.533C450.112 425.934 450.708 422.65 448.244 420.546C448.121 410.596 448.345 400.677 450.379 390.862C451.137 387.203 452.399 383.792 454.408 380.656C459.821 371.09 457.794 361.994 452.718 353.082C452.189 352.371 451.649 351.662 451.12 350.951C446.714 346.113 443.046 346.489 437.34 352.365C435.98 355.144 434.3 357.833 434.532 361.382" fill="#93C5FD"/>
<path d="M434.024 362.884C434.024 362.884 443.066 358.732 447.267 359.844C447.267 359.844 451.367 355.6 451.896 351.941" stroke="#171717" stroke-width="1.12" stroke-miterlimit="10" stroke-linecap="round"/>
<path d="M478.961 392.353C478.961 392.353 481.86 385.904 483.939 383.546" stroke="#171717" stroke-width="1.12" stroke-miterlimit="10" stroke-linecap="round"/>
<path d="M483.482 418.583C483.482 418.583 486.915 416.702 489.664 417.422" stroke="#171717" stroke-width="1.12" stroke-miterlimit="10" stroke-linecap="round"/>
<path d="M448.188 421.797C448.188 421.797 449.669 449.077 471.094 456.999" stroke="#171717" stroke-width="1.12" stroke-miterlimit="10" stroke-linecap="round"/>
<path d="M469.361 444.891L475.52 447.618" stroke="#171717" stroke-width="1.12" stroke-miterlimit="10" stroke-linecap="round"/>
<path d="M511.18 413.109L517.117 433.513" stroke="#171717" stroke-width="1.12" stroke-miterlimit="10" stroke-linecap="round"/>
<path d="M519.518 445.524C519.518 445.524 521.518 460.208 507.009 469.715" stroke="#171717" stroke-width="1.12" stroke-miterlimit="10" stroke-linecap="round"/>
<path d="M533.659 435.161L525.837 447.992" stroke="#171717" stroke-width="1.12" stroke-miterlimit="10" stroke-linecap="round"/>
<path d="M556.723 447.15L551.664 452.019C551.12 452.541 550.533 453.02 549.921 453.446L515.72 477.199C515.51 477.344 515.235 477.374 514.994 477.281L512.397 476.267C511.76 476.018 511.744 475.148 512.352 474.844C514.602 473.695 517.882 470.051 520.392 459.032" stroke="#171717" stroke-width="1.12" stroke-miterlimit="10" stroke-linecap="round"/>
<path d="M553.052 352.941C553.052 352.941 545.591 359.826 552.864 364.546" stroke="#171717" stroke-width="1.12" stroke-miterlimit="10" stroke-linecap="round"/>
<path d="M595.368 412.307C595.368 412.307 583.831 414.538 584.649 422.534" stroke="#171717" stroke-width="1.12" stroke-miterlimit="10" stroke-linecap="round"/>
</g>
<rect x="0.56" y="0.56" width="670.88" height="510.88" rx="26.32" stroke="#171717" stroke-width="1.12"/>
<defs>
<clipPath id="clip0_3226_155043">
<rect width="672" height="512" rx="26.88" fill="white"/>
</clipPath>
<clipPath id="clip1_3226_155043">
<rect x="320.32" y="227.556" width="260.96" height="157.013" rx="13.44" fill="white"/>
</clipPath>
</defs>
</svg>
