<svg width="180" height="29" viewBox="0 0 180 29" fill="none" xmlns="http://www.w3.org/2000/svg">
<path d="M64.6597 24.664V28.7592H63.2323V24.664H61.457V23.5352H66.3837V24.664H64.6597Z" fill="#262626"/>
<path d="M70.4629 28.7569V23.5352H75.1015V24.6563H71.8347V25.5549H74.4844V26.6367H71.8347V27.635H75.1049V28.7561L70.4629 28.7569Z" fill="#262626"/>
<path d="M82.0525 27.6434C82.632 27.6426 83.1927 27.4611 83.6406 27.1288L84.2945 28.056C83.6679 28.5652 82.8508 28.8418 82.0089 28.8287C81.9798 28.8295 81.9508 28.8302 81.9217 28.8302C80.2901 28.8302 78.9473 27.6164 78.9473 26.1406C78.9473 24.6655 80.2901 23.4517 81.9217 23.4517C81.9508 23.4517 81.9798 23.4524 82.0089 23.4532C82.8508 23.4401 83.6688 23.7159 84.2945 24.2259L83.6406 25.1531C83.1927 24.8208 82.632 24.6393 82.0525 24.6385C81.1439 24.6385 80.396 25.3146 80.396 26.1359C80.396 26.9573 81.1439 27.6334 82.0525 27.6334V27.6434Z" fill="#262626"/>
<path d="M92.5202 26.6761H89.7936V28.7569H88.3662V23.5352H89.7936V25.5549H92.5202V23.5352H93.9476V28.7569H92.5202V26.6761Z" fill="#262626"/>
<path d="M100.09 25.5865V28.7544H98.6631V23.5327H99.9033L102.817 26.7007V23.5327H104.244V28.7544H103.004L100.09 25.5865Z" fill="#262626"/>
<path d="M111.349 23.4588C111.352 23.4588 111.355 23.4588 111.358 23.4588C112.99 23.4588 114.332 24.6719 114.332 26.1469C114.332 27.622 112.99 28.8351 111.358 28.8351C109.73 28.8351 108.389 27.6266 108.385 26.1547C108.384 26.1315 108.384 26.1083 108.384 26.0851C108.384 24.6441 109.696 23.458 111.29 23.458C111.31 23.458 111.329 23.4588 111.349 23.4588ZM111.349 27.6212C111.367 27.6219 111.384 27.622 111.402 27.622C112.292 27.622 113.026 26.959 113.026 26.1539C113.026 25.3488 112.292 24.6858 111.402 24.6858C110.511 24.6858 109.779 25.348 109.778 26.1531C109.776 26.1771 109.776 26.201 109.776 26.2249C109.776 26.9914 110.473 27.6212 111.321 27.6212C111.33 27.6212 111.339 27.6212 111.349 27.6212Z" fill="#262626"/>
<path d="M118.479 28.7569V23.5352H119.906V27.6357H122.785V28.7569H118.479Z" fill="#262626"/>
<path d="M128.521 23.4588C128.524 23.4588 128.527 23.4588 128.53 23.4588C130.162 23.4588 131.504 24.6719 131.504 26.1469C131.504 27.622 130.162 28.8351 128.53 28.8351C126.902 28.8351 125.561 27.6266 125.557 26.1547C125.556 26.1315 125.556 26.1083 125.556 26.0851C125.556 24.6441 126.868 23.458 128.462 23.458C128.481 23.458 128.501 23.4588 128.521 23.4588ZM128.521 27.6212C128.539 27.6219 128.556 27.622 128.574 27.622C129.464 27.622 130.198 26.959 130.198 26.1539C130.198 25.3488 129.464 24.6858 128.574 24.6858C127.683 24.6858 126.951 25.348 126.95 26.1531C126.948 26.1771 126.948 26.201 126.948 26.2249C126.948 26.9914 127.645 27.6212 128.493 27.6212C128.502 27.6212 128.511 27.6212 128.521 27.6212Z" fill="#262626"/>
<path d="M140.722 28.1042C139.991 28.5662 139.124 28.8205 138.233 28.8336C138.195 28.8351 138.157 28.8359 138.12 28.8359C136.487 28.8359 135.145 27.6213 135.145 26.1462C135.145 24.6704 136.487 23.4565 138.12 23.4565C138.157 23.4565 138.195 23.4566 138.233 23.4581C139.055 23.4473 139.856 23.693 140.501 24.1535L139.847 25.1286C139.396 24.8064 138.834 24.6357 138.259 24.6449C137.363 24.6612 136.636 25.3326 136.636 26.1424C136.636 26.9637 137.384 27.6398 138.293 27.6398C138.305 27.6398 138.316 27.6398 138.327 27.6398C138.689 27.6398 139.047 27.5633 139.371 27.4173V26.6508H137.987V25.6695H140.722V28.1042Z" fill="#262626"/>
<path d="M145.847 26.7453L143.646 23.6276V23.5356H145.235L146.56 25.5554L147.885 23.5356H149.473V23.6276L147.273 26.7376V28.7574H145.846L145.847 26.7453Z" fill="#262626"/>
<path d="M9.84607 3.50096C11.7812 3.69335 13.6394 4.29527 15.2693 5.25802C16.2095 5.91093 16.8138 6.9803 15.195 8.39893C14.2804 9.20096 13.6197 9.63985 13.0325 10.2789C12.3821 10.9866 11.5154 12.2237 14.0035 14.3138C16.9489 16.5367 20.2139 18.3881 23.7089 19.8191C25.0149 16.3884 23.0422 12.5876 19.2891 11.3026C21.1225 10.1776 22.2234 8.29925 22.2234 6.29571C22.2234 2.97553 19.2019 0.244141 15.5292 0.244141H0.983398V2.98018C3.94931 2.90291 6.91606 3.07753 9.84607 3.50096Z" fill="#262626"/>
<path d="M6.31605 16.0115C3.61596 12.9857 4.43564 11.3523 5.39636 10.3772C6.434 9.32632 8.22637 8.54981 9.52299 7.6226C11.3966 6.28355 10.388 5.16781 8.305 4.51954C7.33488 4.25992 6.34169 4.0791 5.33653 3.97865C4.04418 3.84498 2.56294 3.7685 0.983398 3.73682V24.3765H16.2557C12.5932 21.948 9.25717 19.1408 6.31605 16.0115Z" fill="#262626"/>
<path d="M130.112 3.84668H134.13L138.037 14.1093L142.055 3.84668H146.093L140.373 17.2665H135.726L130.112 3.84668Z" fill="#262626"/>
<path d="M149.33 17.2665V3.84668H161.249V6.72798H152.822V9.0375H159.655V11.8191H152.822V14.3844H161.249V17.2657L149.33 17.2665Z" fill="#262626"/>
<path d="M32.7382 3.84717H39.9179C43.2146 3.84717 45.1574 4.99149 45.1574 7.45864C45.1847 8.71192 44.3231 9.8493 43.0205 10.2805C45.0941 10.6753 46.3386 11.7408 46.3386 13.6354C46.3386 15.8854 44.4172 17.267 40.9239 17.267H32.7373L32.7382 3.84717ZM39.3307 9.1168C40.641 9.1168 41.382 8.72198 41.382 7.81409C41.382 6.86679 40.6837 6.49203 39.3734 6.49203H36.4092V9.11913L39.3307 9.1168ZM40.3786 14.6229C41.7538 14.6229 42.4299 14.1492 42.4299 13.2413C42.4299 12.2546 41.6436 11.8011 40.2034 11.8011H36.4092V14.6229H40.3786Z" fill="#262626"/>
<path d="M50.3359 17.2665V3.84668H54.0036V14.3852H61.3824V17.2665H50.3359Z" fill="#262626"/>
<path d="M66.6257 11.2868C66.6257 13.2184 67.7172 14.4053 69.8352 14.4053C72.0181 14.4053 73.1096 13.1814 73.1096 11.2868V3.84668H76.7764V11.5039C76.7764 14.7205 74.331 17.4836 69.8343 17.4836C65.4025 17.4836 62.958 14.9771 62.958 11.5039V3.84668H66.6257V11.2868Z" fill="#262626"/>
<path d="M82.0361 17.2665V3.84668H93.9527V6.72798H85.526V9.0375H92.3587V11.8191H85.526V14.3844H93.9527V17.2657L82.0361 17.2665Z" fill="#262626"/>
<path d="M126.874 3.84668H123.206V17.2665H126.874V3.84668Z" fill="#262626"/>
<path d="M118.968 17.2639L115.286 11.9394C117.024 11.3553 118.146 9.80608 118.043 8.13247C117.978 5.092 115.196 3.85107 112.349 3.85107H104.98V17.2639H108.646V12.4463H111.467L114.8 17.2639H118.968ZM108.647 6.73083H112.284C112.351 6.72388 112.417 6.72079 112.484 6.72079C113.453 6.72079 114.252 7.4417 114.252 8.31868C114.252 8.34186 114.251 8.36504 114.25 8.38822C114.251 8.40367 114.251 8.41913 114.251 8.43458C114.251 9.32238 113.443 10.0526 112.461 10.0526C112.402 10.0526 112.343 10.0502 112.284 10.0448H108.647V6.73083Z" fill="#262626"/>
<path d="M179.933 17.2634L176.251 11.9389C177.989 11.3548 179.111 9.80559 179.008 8.13198C178.943 5.09151 176.161 3.85059 173.314 3.85059H165.946V17.2634H169.612V12.4458H172.433L175.766 17.2634H179.933ZM169.611 6.72958H173.248C173.315 6.72262 173.382 6.71953 173.448 6.71953C174.418 6.71953 175.216 7.44043 175.216 8.31742C175.216 8.3406 175.215 8.36377 175.214 8.38695C175.215 8.40241 175.215 8.41786 175.215 8.43331C175.215 9.32111 174.407 10.0513 173.425 10.0513C173.366 10.0513 173.307 10.049 173.248 10.0436H169.611V6.72958Z" fill="#262626"/>
</svg>
