<svg width="70" height="25" viewBox="0 0 70 25" fill="none" xmlns="http://www.w3.org/2000/svg">
<g clip-path="url(#clip0_777_241504)">
<path fill-rule="evenodd" clip-rule="evenodd" d="M57.5149 0.500091C54.7826 0.495697 52.1336 1.43975 50.0199 3.17109C47.8919 1.43958 45.2313 0.496061 42.4879 0.500091C39.7549 0.489325 37.104 1.43414 34.9939 3.17109C32.9349 1.50609 30.3329 0.500091 27.4979 0.500091C24.766 0.495928 22.1173 1.43997 20.0039 3.17109C17.9459 1.50609 15.3439 0.500091 12.5079 0.500091C5.90789 0.500091 0.587891 5.80309 0.587891 12.3841C0.587891 18.9641 5.90789 24.2681 12.5089 24.2681C15.3439 24.2681 17.9839 23.2611 20.0039 21.5971C22.0619 23.2611 24.6639 24.2671 27.4979 24.2671C30.3329 24.2671 32.9729 23.2611 34.9929 21.5971C37.1212 23.3285 39.7823 24.2716 42.5259 24.2671C45.3999 24.2671 48.0009 23.2611 50.0589 21.5971C52.1169 23.2611 54.7189 24.2671 57.5539 24.2671C64.1549 24.2671 69.4749 18.9651 69.4749 12.3841C69.4359 5.84209 64.1159 0.500091 57.5149 0.500091ZM50.0199 17.7261C48.9039 16.1688 48.3064 14.2999 48.3119 12.3841C48.3119 10.4101 48.9329 8.55209 50.0199 7.04209C51.1362 8.59922 51.7341 10.4682 51.7289 12.3841C51.7289 14.3971 51.0689 16.2161 50.0199 17.7261ZM34.9929 17.7261C33.8766 16.169 33.2787 14.3 33.2839 12.3841C33.2839 10.4101 33.9049 8.55209 34.9929 7.04209C36.1088 8.59934 36.7064 10.4683 36.7009 12.3841C36.7009 14.3971 36.0409 16.2161 34.9929 17.7261ZM19.9649 17.7261C18.8486 16.169 18.2507 14.3 18.2559 12.3841C18.2559 10.4101 18.8779 8.55209 19.9649 7.04209C21.0808 8.59934 21.6784 10.4683 21.6729 12.3841C21.6729 14.3971 21.0129 16.2161 19.9649 17.7261ZM3.18989 12.3841C3.18989 7.31309 7.30589 3.17109 12.4319 3.17109C14.4665 3.16492 16.4459 3.83189 18.0619 5.06809C16.4699 7.08109 15.5379 9.59709 15.5379 12.3841C15.5379 15.1321 16.4699 17.6871 18.0619 19.7001C16.5089 20.9001 14.5669 21.5971 12.4319 21.5971C7.34489 21.5971 3.18989 17.4941 3.18989 12.3841ZM21.8279 19.7001C23.4199 17.6871 24.3519 15.1711 24.3519 12.3841C24.3519 9.63509 23.4199 7.08109 21.8279 5.06809C23.3809 3.86809 25.3229 3.17109 27.4579 3.17109C29.5939 3.17109 31.5359 3.86809 33.0879 5.06809C31.4969 7.08109 30.5649 9.59709 30.5649 12.3841C30.5649 15.1321 31.4969 17.6871 33.0889 19.7001C31.5359 20.9001 29.5939 21.5971 27.4589 21.5971C25.3229 21.5971 23.3809 20.9001 21.8279 19.7001ZM36.8559 19.7001C38.4479 17.6871 39.3799 15.1711 39.3799 12.3841C39.3799 9.63509 38.4479 7.08109 36.8559 5.06809C38.4089 3.86809 40.3499 3.17109 42.4859 3.17109C44.5205 3.16492 46.4999 3.83189 48.1159 5.06809C46.5249 7.08109 45.5929 9.59709 45.5929 12.3841C45.5929 15.1321 46.5249 17.6871 48.1169 19.7001C46.5629 20.9001 44.6219 21.5971 42.4869 21.5971C40.452 21.6035 38.4721 20.9365 36.8559 19.7001ZM57.5139 21.5971C55.4793 21.6033 53.4998 20.9363 51.8839 19.7001C53.4749 17.6871 54.4069 15.1711 54.4069 12.3841C54.4069 9.63509 53.4749 7.08109 51.8829 5.06809C53.4369 3.86809 55.3779 3.17109 57.5129 3.17109C62.6009 3.17109 66.7559 7.27409 66.7559 12.3841C66.7559 17.4941 62.6009 21.5971 57.5139 21.5971Z" fill="#171717"/>
</g>
<defs>
<clipPath id="clip0_777_241504">
<rect width="69" height="24" fill="white" transform="translate(0.587891 0.5)"/>
</clipPath>
</defs>
</svg>
