<svg width="672" height="512" viewBox="0 0 672 512" fill="none" xmlns="http://www.w3.org/2000/svg">
<g clip-path="url(#clip0_3424_237073)">
<rect width="672" height="512" rx="24" fill="#FAFAFA"/>
<g clip-path="url(#clip1_3424_237073)">
<path d="M42.9009 392.028L38.7207 394.442L43.868 403.357L48.0482 400.944L42.9009 392.028Z" fill="#FB923C"/>
<path d="M70.488 386H65.6611V396.295H70.488V386Z" fill="#FB923C"/>
<path d="M61.0737 386.4L56.3203 387.24L58.1097 397.377L62.8631 396.538L61.0737 386.4Z" fill="#FB923C"/>
<path d="M51.8714 388.428L47.3359 390.079L50.8586 399.752L55.3941 398.101L51.8714 388.428Z" fill="#FB923C"/>
<path d="M35.2113 397.088L31.5132 400.19L38.129 408.077L41.8272 404.975L35.2113 397.088Z" fill="#FB923C"/>
<path d="M28.2662 403.444L25.1636 407.142L33.0387 413.75L36.1414 410.053L28.2662 403.444Z" fill="#FB923C"/>
<path d="M22.5199 410.912L20.1064 415.093L29.0094 420.233L31.4229 416.053L22.5199 410.912Z" fill="#FB923C"/>
<path d="M18.1656 419.255L16.5171 423.792L26.1926 427.307L27.8411 422.771L18.1656 419.255Z" fill="#FB923C"/>
<path d="M15.3019 428.241L14.4629 432.995L24.5867 434.781L25.4257 430.028L15.3019 428.241Z" fill="#FB923C"/>
<path d="M24.3555 437.587H14.0752V442.413H24.3555V437.587Z" fill="#FB923C"/>
<path d="M24.5933 445.222L14.4683 447.002L15.304 451.756L25.429 449.976L24.5933 445.222Z" fill="#FB923C"/>
<path d="M26.18 452.664L16.5088 456.192L18.1629 460.727L27.8341 457.199L26.18 452.664Z" fill="#FB923C"/>
<path d="M29.015 459.767L20.1147 464.912L22.5304 469.091L31.4307 463.946L29.015 459.767Z" fill="#FB923C"/>
<path d="M33.046 466.242L25.1611 472.861L28.2644 476.558L36.1494 469.939L33.046 466.242Z" fill="#FB923C"/>
<path d="M38.1286 471.935L31.5142 479.823L35.2129 482.925L41.8273 475.036L38.1286 471.935Z" fill="#FB923C"/>
<path d="M44.1281 476.656L38.9824 485.573L43.1631 487.985L48.3088 479.069L44.1281 476.656Z" fill="#FB923C"/>
<path d="M50.842 480.249L47.3228 489.923L51.8588 491.573L55.3781 481.899L50.842 480.249Z" fill="#FB923C"/>
<path d="M58.1103 482.628L56.3262 492.767L61.08 493.603L62.8641 483.464L58.1103 482.628Z" fill="#FB923C"/>
<path d="M70.488 483.705H65.6611V494H70.488V483.705Z" fill="#FB923C"/>
<path d="M78.0412 482.625L73.2881 483.465L75.081 493.602L79.8342 492.762L78.0412 482.625Z" fill="#E5E5E5"/>
<path d="M85.2844 480.268L80.7495 481.922L84.2755 491.593L88.8104 489.94L85.2844 480.268Z" fill="#E5E5E5"/>
<path d="M92.0158 476.669L87.8364 479.084L92.9868 487.998L97.1662 485.583L92.0158 476.669Z" fill="#E5E5E5"/>
<path d="M98.0095 471.939L94.3135 475.044L100.935 482.927L104.631 479.822L98.0095 471.939Z" fill="#E5E5E5"/>
<path d="M103.108 466.244L100.006 469.942L107.893 476.558L110.995 472.86L103.108 466.244Z" fill="#E5E5E5"/>
<path d="M107.138 459.761L104.725 463.941L113.64 469.089L116.053 464.908L107.138 459.761Z" fill="#E5E5E5"/>
<path d="M109.983 452.693L108.33 457.228L118.001 460.754L119.655 456.219L109.983 452.693Z" fill="#E5E5E5"/>
<path d="M111.537 445.213L110.697 449.967L120.834 451.758L121.674 447.004L111.537 445.213Z" fill="#E5E5E5"/>
<path d="M122.075 437.587H111.781V442.413H122.075V437.587Z" fill="#FB923C"/>
<path d="M120.827 428.251L110.69 430.046L111.531 434.799L121.668 433.004L120.827 428.251Z" fill="#FB923C"/>
<path d="M117.98 419.249L108.31 422.778L109.964 427.312L119.635 423.783L117.98 419.249Z" fill="#FB923C"/>
<path d="M113.64 410.899L104.734 416.063L107.156 420.239L116.061 415.075L113.64 410.899Z" fill="#FB923C"/>
<path d="M107.893 403.438L100.016 410.066L103.124 413.759L111.001 407.131L107.893 403.438Z" fill="#FB923C"/>
<path d="M100.943 397.075L94.3286 404.964L98.0273 408.065L104.642 400.177L100.943 397.075Z" fill="#FB923C"/>
<path d="M92.9949 392.029L87.8477 400.944L92.0279 403.358L97.1751 394.442L92.9949 392.029Z" fill="#FB923C"/>
<path d="M84.2885 388.432L80.7676 398.105L85.3034 399.756L88.8243 390.083L84.2885 388.432Z" fill="#FB923C"/>
<path d="M75.0637 386.404L73.2778 396.542L78.0315 397.379L79.8174 387.241L75.0637 386.404Z" fill="#FB923C"/>
</g>
<rect x="18.5" y="21.5" width="226.098" height="94.485" rx="13.5" fill="white"/>
<rect x="18.5" y="21.5" width="226.098" height="94.485" rx="13.5" stroke="#171717"/>
<path d="M35.728 52.723H29.376V41.555H31.184V51.123H35.728V52.723ZM44.5388 52.723H43.5628C42.6508 52.723 42.1708 52.147 42.0588 51.331H41.9788C41.6588 52.371 40.7628 52.915 39.5468 52.915C37.8348 52.915 36.8588 51.939 36.8588 50.435C36.8588 48.787 38.0908 47.939 40.4108 47.939H41.9148V47.235C41.9148 46.227 41.3708 45.635 40.2028 45.635C39.2268 45.635 38.6348 46.115 38.2188 46.771L37.1788 45.827C37.7228 44.899 38.6988 44.211 40.3148 44.211C42.4588 44.211 43.6588 45.267 43.6588 47.123V51.299H44.5388V52.723ZM40.0428 51.587C41.1148 51.587 41.9148 51.075 41.9148 50.259V49.059H40.4427C39.2268 49.059 38.6348 49.459 38.6348 50.179V50.467C38.6348 51.203 39.1788 51.587 40.0428 51.587ZM46.248 52.723V40.883H47.992V45.779H48.072C48.424 44.787 49.304 44.211 50.408 44.211C52.504 44.211 53.72 45.827 53.72 48.563C53.72 51.299 52.504 52.915 50.408 52.915C49.304 52.915 48.424 52.323 48.072 51.347H47.992V52.723H46.248ZM49.88 51.411C51.08 51.411 51.88 50.563 51.88 49.283V47.843C51.88 46.563 51.08 45.715 49.88 45.715C48.824 45.715 47.992 46.291 47.992 47.139V49.987C47.992 50.835 48.824 51.411 49.88 51.411ZM58.9808 52.915C56.6128 52.915 55.1568 51.219 55.1568 48.563C55.1568 45.907 56.6128 44.211 58.9808 44.211C61.4288 44.211 62.6768 46.051 62.6768 48.355V49.011H56.9648V49.283C56.9648 50.563 57.7488 51.475 59.1568 51.475C60.1808 51.475 60.8688 50.995 61.3488 50.227L62.3728 51.235C61.7488 52.243 60.5328 52.915 58.9808 52.915ZM58.9808 45.571C57.7808 45.571 56.9648 46.467 56.9648 47.747V47.859H60.8368V47.699C60.8368 46.419 60.1328 45.571 58.9808 45.571ZM67.5034 52.723H66.3834C65.1994 52.723 64.6074 52.067 64.6074 50.995V40.883H66.3514V51.299H67.5034V52.723Z" fill="#171717"/>
<rect x="28" y="63.723" width="119" height="10.9709" fill="#FB923C"/>
<rect x="147" y="63.723" width="88.0977" height="10.9709" fill="#E5E5E5"/>
<path d="M35.419 94.694H34.459V93.05H30.415V92.162L33.919 86.318H35.419V92.21H36.631V93.05H35.419V94.694ZM34.399 87.098L31.363 92.21H34.459V87.098H34.399ZM38.7863 93.29C39.2903 93.29 39.5183 93.578 39.5183 93.998V94.166C39.5183 94.814 39.1103 95.702 38.4263 96.29H37.6223C38.1023 95.786 38.3903 95.366 38.5223 94.802C38.1983 94.73 38.0543 94.49 38.0543 94.166V93.998C38.0543 93.578 38.2823 93.29 38.7863 93.29ZM46.8198 93.806V94.694H41.3238V93.662L44.0598 91.142C44.8398 90.422 45.4398 89.582 45.4398 88.778V88.634C45.4398 87.71 44.9238 87.074 43.8918 87.074C42.8598 87.074 42.3798 87.698 42.1518 88.49L41.2518 88.142C41.5758 87.158 42.3198 86.174 43.9398 86.174C45.5718 86.174 46.5078 87.182 46.5078 88.61C46.5078 89.906 45.7398 90.818 44.6718 91.778L42.4158 93.806H46.8198ZM51.2311 94.838C49.4911 94.838 48.4231 93.614 48.4231 91.622C48.4231 89.138 50.0671 87.194 51.4111 86.318H52.7071C50.9191 87.626 49.9231 88.718 49.4671 90.662L49.5271 90.686C49.9231 90.002 50.5231 89.486 51.5431 89.486C52.9831 89.486 54.0151 90.482 54.0151 92.066C54.0151 93.71 52.9111 94.838 51.2311 94.838ZM51.2191 93.962C52.3231 93.962 52.9711 93.326 52.9711 92.198V92.102C52.9711 90.974 52.3231 90.338 51.2191 90.338C50.1151 90.338 49.4671 90.974 49.4671 92.102V92.198C49.4671 93.326 50.1151 93.962 51.2191 93.962ZM60.7905 86.318V87.206H57.1185L56.8785 90.398H56.9625C57.3585 89.834 57.8025 89.474 58.6785 89.474C60.1185 89.474 61.1745 90.446 61.1745 92.066C61.1745 93.698 60.1185 94.838 58.3545 94.838C56.9625 94.838 56.2425 94.13 55.7385 93.41L56.4945 92.834C56.9265 93.494 57.3465 93.938 58.3545 93.938C59.4945 93.938 60.1065 93.302 60.1065 92.198V92.078C60.1065 90.974 59.4945 90.338 58.3545 90.338C57.5865 90.338 57.2025 90.662 56.8545 91.046L56.0025 90.926L56.3025 86.318H60.7905ZM69.8257 94.694V93.686H69.7777C69.4057 94.454 68.8177 94.838 67.9657 94.838C66.4177 94.838 65.4457 93.578 65.4457 91.598C65.4457 89.618 66.4177 88.358 67.9657 88.358C68.8177 88.358 69.4537 88.73 69.7777 89.51H69.8257V85.814H70.7857V94.694H69.8257ZM68.2297 93.974C69.1057 93.974 69.8257 93.518 69.8257 92.714V90.41C69.8257 89.726 69.1057 89.222 68.2297 89.222C67.1497 89.222 66.4777 89.966 66.4777 91.07V92.126C66.4777 93.23 67.1497 93.974 68.2297 93.974ZM77.8666 94.694H77.3266C76.6186 94.694 76.3306 94.262 76.2586 93.686H76.1986C75.9346 94.442 75.2746 94.838 74.4106 94.838C73.1026 94.838 72.3346 94.118 72.3346 92.966C72.3346 91.802 73.1746 91.154 74.9746 91.154H76.1986V90.542C76.1986 89.666 75.7186 89.186 74.7346 89.186C73.9906 89.186 73.4986 89.546 73.1626 90.11L72.5866 89.57C72.9226 88.91 73.6666 88.358 74.7826 88.358C76.2706 88.358 77.1586 89.138 77.1586 90.446V93.854H77.8666V94.694ZM74.5666 94.022C75.5146 94.022 76.1986 93.53 76.1986 92.894V91.874H74.9266C73.8346 91.874 73.3426 92.21 73.3426 92.81V93.062C73.3426 93.674 73.8226 94.022 74.5666 94.022ZM81.8048 94.694H80.6048C79.9448 94.694 79.5848 94.274 79.5848 93.674V89.342H78.5648V88.502H79.1408C79.5488 88.502 79.6808 88.358 79.6808 87.938V86.786H80.5448V88.502H81.9008V89.342H80.5448V93.854H81.8048V94.694ZM88.4838 94.694H87.9438C87.2358 94.694 86.9478 94.262 86.8758 93.686H86.8158C86.5518 94.442 85.8918 94.838 85.0278 94.838C83.7198 94.838 82.9518 94.118 82.9518 92.966C82.9518 91.802 83.7918 91.154 85.5918 91.154H86.8158V90.542C86.8158 89.666 86.3358 89.186 85.3518 89.186C84.6078 89.186 84.1158 89.546 83.7798 90.11L83.2038 89.57C83.5398 88.91 84.2838 88.358 85.3998 88.358C86.8878 88.358 87.7758 89.138 87.7758 90.446V93.854H88.4838V94.694ZM85.1838 94.022C86.1318 94.022 86.8158 93.53 86.8158 92.894V91.874H85.5438C84.4518 91.874 83.9598 92.21 83.9598 92.81V93.062C83.9598 93.674 84.4398 94.022 85.1838 94.022ZM93.6499 94.694H92.6899V88.502H93.6499V89.642H93.7099C93.9259 89.054 94.4899 88.502 95.4979 88.502H95.8699V89.462H95.3059C94.2739 89.462 93.6499 89.906 93.6499 90.494V94.694ZM99.3776 94.838C97.7216 94.838 96.5816 93.566 96.5816 91.598C96.5816 89.63 97.7216 88.358 99.3776 88.358C101.034 88.358 102.174 89.63 102.174 91.598C102.174 93.566 101.034 94.838 99.3776 94.838ZM99.3776 93.986C100.41 93.986 101.142 93.35 101.142 92.042V91.154C101.142 89.846 100.41 89.21 99.3776 89.21C98.3456 89.21 97.6136 89.846 97.6136 91.154V92.042C97.6136 93.35 98.3456 93.986 99.3776 93.986ZM104.702 94.694L103.046 88.502H103.982L104.642 91.178L105.302 93.89H105.326L106.082 91.178L106.862 88.502H107.714L108.518 91.178L109.286 93.89H109.31L109.946 91.178L110.618 88.502H111.518L109.874 94.694H108.686L107.822 91.718L107.282 89.834H107.258L106.73 91.718L105.866 94.694H104.702ZM114.741 94.838C113.601 94.838 112.845 94.358 112.293 93.626L112.977 93.074C113.457 93.674 114.033 94.022 114.813 94.022C115.629 94.022 116.109 93.65 116.109 93.014C116.109 92.534 115.845 92.162 115.029 92.042L114.537 91.97C113.397 91.802 112.545 91.334 112.545 90.182C112.545 88.958 113.493 88.358 114.753 88.358C115.749 88.358 116.409 88.73 116.913 89.354L116.277 89.93C116.001 89.546 115.473 89.174 114.681 89.174C113.889 89.174 113.469 89.546 113.469 90.134C113.469 90.734 113.889 90.974 114.657 91.094L115.137 91.166C116.505 91.37 117.033 91.97 117.033 92.906C117.033 94.106 116.157 94.838 114.741 94.838Z" fill="#737373"/>
<path d="M132.103 120.874V120.326H131.006V120.874H132.103ZM131.555 131.845L134.722 126.36H128.388L131.555 131.845ZM131.006 120.874V126.908H132.103V120.874H131.006Z" fill="#D4D4D4"/>
<rect x="18.5" y="133.758" width="226.098" height="94.485" rx="13.5" fill="white"/>
<rect x="18.5" y="133.758" width="226.098" height="94.485" rx="13.5" stroke="#171717"/>
<path d="M31.184 161.003V165.515H29.376V154.347H34.192C36.192 154.347 37.424 155.643 37.424 157.707C37.424 159.291 36.672 160.395 35.248 160.811L37.664 165.515H35.648L33.408 161.003H31.184ZM31.184 159.483H34.064C34.976 159.483 35.52 158.987 35.52 158.091V157.323C35.52 156.427 34.976 155.931 34.064 155.931H31.184V159.483ZM42.762 165.707C40.394 165.707 38.938 164.011 38.938 161.355C38.938 158.699 40.394 157.003 42.762 157.003C45.21 157.003 46.458 158.843 46.458 161.147V161.803H40.746V162.075C40.746 163.355 41.53 164.267 42.938 164.267C43.962 164.267 44.65 163.787 45.13 163.019L46.154 164.027C45.53 165.035 44.314 165.707 42.762 165.707ZM42.762 158.363C41.562 158.363 40.746 159.259 40.746 160.539V160.651H44.618V160.491C44.618 159.211 43.914 158.363 42.762 158.363ZM52.104 165.515H50.056L47.224 157.195H48.952L50.216 160.987L51.064 163.899H51.16L52.008 160.987L53.304 157.195H54.968L52.104 165.515ZM57.3155 155.707C56.5955 155.707 56.2755 155.323 56.2755 154.795V154.523C56.2755 153.995 56.5955 153.611 57.3155 153.611C58.0355 153.611 58.3395 153.995 58.3395 154.523V154.795C58.3395 155.323 58.0355 155.707 57.3155 155.707ZM56.4355 165.515V157.195H58.1795V165.515H56.4355ZM63.9339 165.707C61.5659 165.707 60.1099 164.011 60.1099 161.355C60.1099 158.699 61.5659 157.003 63.9339 157.003C66.3819 157.003 67.6299 158.843 67.6299 161.147V161.803H61.9179V162.075C61.9179 163.355 62.7019 164.267 64.1099 164.267C65.1339 164.267 65.8219 163.787 66.3019 163.019L67.3259 164.027C66.7019 165.035 65.4859 165.707 63.9339 165.707ZM63.9339 158.363C62.7339 158.363 61.9179 159.259 61.9179 160.539V160.651H65.7899V160.491C65.7899 159.211 65.0859 158.363 63.9339 158.363ZM70.9224 165.515L68.6504 157.195H70.3464L71.1944 160.683L71.9464 163.835H71.9944L72.8584 160.683L73.8664 157.195H75.4344L76.4584 160.683L77.3384 163.835H77.3864L78.1224 160.683L78.9864 157.195H80.6024L78.3624 165.515H76.3944L75.3064 161.723L74.6344 159.387H74.6024L73.9464 161.723L72.8424 165.515H70.9224Z" fill="#171717"/>
<rect x="184.698" y="151.015" width="50.3993" height="18" rx="9" fill="#FB923C"/>
<path d="M195.378 163.135C193.558 163.135 192.448 161.865 192.448 159.525C192.448 157.185 193.558 155.915 195.378 155.915C196.588 155.915 197.398 156.455 197.868 157.495L196.918 158.015C196.678 157.355 196.188 156.925 195.378 156.925C194.308 156.925 193.648 157.705 193.648 158.995V160.055C193.648 161.345 194.308 162.125 195.378 162.125C196.208 162.125 196.738 161.645 196.988 160.965L197.898 161.515C197.428 162.525 196.588 163.135 195.378 163.135ZM202.166 163.015V162.155H202.126C201.936 162.665 201.526 163.135 200.666 163.135C199.596 163.135 198.966 162.405 198.966 161.125V157.815H200.056V160.985C200.056 161.775 200.386 162.195 201.056 162.195C201.616 162.195 202.166 161.905 202.166 161.295V157.815H203.256V163.015H202.166ZM206.467 163.135C205.487 163.135 204.847 162.765 204.357 162.155L205.057 161.515C205.437 161.975 205.907 162.255 206.527 162.255C207.157 162.255 207.477 161.995 207.477 161.555C207.477 161.225 207.277 160.975 206.737 160.905L206.257 160.845C205.197 160.715 204.547 160.255 204.547 159.295C204.547 158.285 205.337 157.695 206.477 157.695C207.417 157.695 207.947 158.005 208.417 158.525L207.747 159.165C207.477 158.845 207.037 158.575 206.477 158.575C205.877 158.575 205.597 158.835 205.597 159.225C205.597 159.625 205.847 159.805 206.397 159.895L206.877 159.955C208.017 160.125 208.527 160.625 208.527 161.465C208.527 162.465 207.717 163.135 206.467 163.135ZM212.08 163.015H211.13C210.38 163.015 209.98 162.595 209.98 161.885V158.705H209.17V157.815H209.61C209.97 157.815 210.09 157.665 210.09 157.305V156.395H211.07V157.815H212.16V158.705H211.07V162.125H212.08V163.015ZM215.343 163.135C213.893 163.135 212.953 162.075 212.953 160.415C212.953 158.755 213.893 157.695 215.343 157.695C216.793 157.695 217.733 158.755 217.733 160.415C217.733 162.075 216.793 163.135 215.343 163.135ZM215.343 162.235C216.083 162.235 216.583 161.775 216.583 160.855V159.975C216.583 159.055 216.083 158.595 215.343 158.595C214.603 158.595 214.103 159.055 214.103 159.975V160.855C214.103 161.775 214.603 162.235 215.343 162.235ZM220.037 163.015H218.947V157.815H220.037V158.675H220.087C220.297 158.135 220.687 157.695 221.477 157.695C222.177 157.695 222.767 158.035 223.017 158.755H223.047C223.237 158.175 223.777 157.695 224.617 157.695C225.647 157.695 226.257 158.435 226.257 159.715V163.015H225.167V159.845C225.167 159.045 224.867 158.635 224.207 158.635C223.657 158.635 223.147 158.925 223.147 159.525V163.015H222.057V159.845C222.057 159.035 221.747 158.635 221.107 158.635C220.567 158.635 220.037 158.925 220.037 159.525V163.015Z" fill="#171717"/>
<rect x="28" y="179.015" width="35" height="10.9709" fill="#FB923C"/>
<rect x="63" y="179.015" width="172.098" height="10.9709" fill="#E5E5E5"/>
<path d="M34.814 209.985H29.306V209.097H31.646V202.353H31.562L29.45 204.321L28.862 203.685L31.082 201.609H32.654V209.097H34.814V209.985ZM37.0773 208.581C37.5813 208.581 37.8093 208.869 37.8093 209.289V209.457C37.8093 210.105 37.4013 210.993 36.7173 211.581H35.9133C36.3933 211.077 36.6813 210.657 36.8133 210.093C36.4893 210.021 36.3453 209.781 36.3453 209.457V209.289C36.3453 208.869 36.5733 208.581 37.0773 208.581ZM42.3268 210.129C40.5868 210.129 39.5188 208.905 39.5188 206.913C39.5188 204.429 41.1628 202.485 42.5068 201.609H43.8028C42.0148 202.917 41.0188 204.009 40.5628 205.953L40.6228 205.977C41.0188 205.293 41.6188 204.777 42.6388 204.777C44.0788 204.777 45.1108 205.773 45.1108 207.357C45.1108 209.001 44.0068 210.129 42.3268 210.129ZM42.3148 209.253C43.4188 209.253 44.0668 208.617 44.0668 207.489V207.393C44.0668 206.265 43.4188 205.629 42.3148 205.629C41.2108 205.629 40.5628 206.265 40.5628 207.393V207.489C40.5628 208.617 41.2108 209.253 42.3148 209.253ZM49.0902 209.985H48.0102L51.2142 202.473H47.6382V204.033H46.7382V201.609H52.2342V202.497L49.0902 209.985ZM56.2855 209.985H55.2055L58.4095 202.473H54.8335V204.033H53.9335V201.609H59.4295V202.497L56.2855 209.985ZM68.1167 209.985V208.977H68.0687C67.6967 209.745 67.1087 210.129 66.2567 210.129C64.7087 210.129 63.7367 208.869 63.7367 206.889C63.7367 204.909 64.7087 203.649 66.2567 203.649C67.1087 203.649 67.7447 204.021 68.0687 204.801H68.1167V201.105H69.0767V209.985H68.1167ZM66.5207 209.265C67.3967 209.265 68.1167 208.809 68.1167 208.005V205.701C68.1167 205.017 67.3967 204.513 66.5207 204.513C65.4407 204.513 64.7687 205.257 64.7687 206.361V207.417C64.7687 208.521 65.4407 209.265 66.5207 209.265ZM76.1577 209.985H75.6177C74.9097 209.985 74.6217 209.553 74.5497 208.977H74.4897C74.2257 209.733 73.5657 210.129 72.7017 210.129C71.3937 210.129 70.6257 209.409 70.6257 208.257C70.6257 207.093 71.4657 206.445 73.2657 206.445H74.4897V205.833C74.4897 204.957 74.0097 204.477 73.0257 204.477C72.2817 204.477 71.7897 204.837 71.4537 205.401L70.8777 204.861C71.2137 204.201 71.9577 203.649 73.0737 203.649C74.5617 203.649 75.4497 204.429 75.4497 205.737V209.145H76.1577V209.985ZM72.8577 209.313C73.8057 209.313 74.4897 208.821 74.4897 208.185V207.165H73.2177C72.1257 207.165 71.6337 207.501 71.6337 208.101V208.353C71.6337 208.965 72.1137 209.313 72.8577 209.313ZM80.0958 209.985H78.8958C78.2358 209.985 77.8758 209.565 77.8758 208.965V204.633H76.8558V203.793H77.4318C77.8398 203.793 77.9718 203.649 77.9718 203.229V202.077H78.8358V203.793H80.1918V204.633H78.8358V209.145H80.0958V209.985ZM86.7748 209.985H86.2348C85.5268 209.985 85.2388 209.553 85.1668 208.977H85.1068C84.8428 209.733 84.1828 210.129 83.3188 210.129C82.0108 210.129 81.2428 209.409 81.2428 208.257C81.2428 207.093 82.0828 206.445 83.8828 206.445H85.1068V205.833C85.1068 204.957 84.6268 204.477 83.6428 204.477C82.8988 204.477 82.4068 204.837 82.0708 205.401L81.4948 204.861C81.8308 204.201 82.5748 203.649 83.6908 203.649C85.1788 203.649 86.0668 204.429 86.0668 205.737V209.145H86.7748V209.985ZM83.4748 209.313C84.4228 209.313 85.1068 208.821 85.1068 208.185V207.165H83.8348C82.7428 207.165 82.2508 207.501 82.2508 208.101V208.353C82.2508 208.965 82.7308 209.313 83.4748 209.313ZM91.9409 209.985H90.9809V203.793H91.9409V204.933H92.0009C92.2169 204.345 92.7809 203.793 93.7889 203.793H94.1609V204.753H93.5969C92.5649 204.753 91.9409 205.197 91.9409 205.785V209.985ZM97.6686 210.129C96.0126 210.129 94.8726 208.857 94.8726 206.889C94.8726 204.921 96.0126 203.649 97.6686 203.649C99.3246 203.649 100.465 204.921 100.465 206.889C100.465 208.857 99.3246 210.129 97.6686 210.129ZM97.6686 209.277C98.7006 209.277 99.4326 208.641 99.4326 207.333V206.445C99.4326 205.137 98.7006 204.501 97.6686 204.501C96.6366 204.501 95.9046 205.137 95.9046 206.445V207.333C95.9046 208.641 96.6366 209.277 97.6686 209.277ZM102.993 209.985L101.337 203.793H102.273L102.933 206.469L103.593 209.181H103.617L104.373 206.469L105.153 203.793H106.005L106.809 206.469L107.577 209.181H107.601L108.237 206.469L108.909 203.793H109.809L108.165 209.985H106.977L106.113 207.009L105.573 205.125H105.549L105.021 207.009L104.157 209.985H102.993ZM113.032 210.129C111.892 210.129 111.136 209.649 110.584 208.917L111.268 208.365C111.748 208.965 112.324 209.313 113.104 209.313C113.92 209.313 114.4 208.941 114.4 208.305C114.4 207.825 114.136 207.453 113.32 207.333L112.828 207.261C111.688 207.093 110.836 206.625 110.836 205.473C110.836 204.249 111.784 203.649 113.044 203.649C114.04 203.649 114.7 204.021 115.204 204.645L114.568 205.221C114.292 204.837 113.764 204.465 112.972 204.465C112.18 204.465 111.76 204.837 111.76 205.425C111.76 206.025 112.18 206.265 112.948 206.385L113.428 206.457C114.796 206.661 115.324 207.261 115.324 208.197C115.324 209.397 114.448 210.129 113.032 210.129Z" fill="#737373"/>
<path d="M132.101 233.129V232.58H131.004V233.129H132.101ZM131.553 244.1L134.72 238.614H128.386L131.553 244.1ZM131.004 233.129V239.163H132.101V233.129H131.004Z" fill="#D4D4D4"/>
<rect x="18.5" y="246.015" width="226.098" height="94.485" rx="13.5" fill="white"/>
<rect x="18.5" y="246.015" width="226.098" height="94.485" rx="13.5" stroke="#171717"/>
<path d="M29.374 276.607V265.439H33.326C36.174 265.439 38.046 267.295 38.046 271.023C38.046 274.751 36.174 276.607 33.326 276.607H29.374ZM31.182 275.007H33.326C34.99 275.007 36.11 273.935 36.11 271.919V270.127C36.11 268.111 34.99 267.039 33.326 267.039H31.182V275.007ZM43.4319 276.799C41.1119 276.799 39.6079 275.103 39.6079 272.447C39.6079 269.791 41.1119 268.095 43.4319 268.095C45.7519 268.095 47.2559 269.791 47.2559 272.447C47.2559 275.103 45.7519 276.799 43.4319 276.799ZM43.4319 275.359C44.6159 275.359 45.4159 274.623 45.4159 273.151V271.743C45.4159 270.271 44.6159 269.535 43.4319 269.535C42.2479 269.535 41.4479 270.271 41.4479 271.743V273.151C41.4479 274.623 42.2479 275.359 43.4319 275.359ZM50.9432 276.607H49.1992V268.287H50.9432V269.663H51.0232C51.3752 268.767 52.0792 268.095 53.3592 268.095C55.0552 268.095 56.0632 269.279 56.0632 271.327V276.607H54.3192V271.551C54.3192 270.255 53.8232 269.599 52.7512 269.599C51.8392 269.599 50.9432 270.063 50.9432 271.039V276.607ZM61.7444 276.799C59.3764 276.799 57.9204 275.103 57.9204 272.447C57.9204 269.791 59.3764 268.095 61.7444 268.095C64.1924 268.095 65.4404 269.935 65.4404 272.239V272.895H59.7284V273.167C59.7284 274.447 60.5124 275.359 61.9204 275.359C62.9444 275.359 63.6324 274.879 64.1124 274.111L65.1364 275.119C64.5124 276.127 63.2964 276.799 61.7444 276.799ZM61.7444 269.455C60.5444 269.455 59.7284 270.351 59.7284 271.631V271.743H63.6004V271.583C63.6004 270.303 62.8964 269.455 61.7444 269.455Z" fill="#171717"/>
<rect x="28" y="287.772" width="144.816" height="10.9709" fill="#FB923C"/>
<rect x="172.816" y="287.772" width="62.2818" height="10.9709" fill="#E5E5E5"/>
<path d="M35.6885 319.376H34.7285V317.732H30.6845V316.844L34.1885 311H35.6885V316.892H36.9005V317.732H35.6885V319.376ZM34.6685 311.78L31.6325 316.892H34.7285V311.78H34.6685ZM41.0238 319.52C39.0198 319.52 38.1438 317.924 38.1438 315.188C38.1438 312.452 39.0198 310.856 41.0238 310.856C43.0278 310.856 43.9038 312.452 43.9038 315.188C43.9038 317.924 43.0278 319.52 41.0238 319.52ZM41.0238 318.644C42.3318 318.644 42.8478 317.492 42.8478 315.872V314.504C42.8478 312.884 42.3318 311.732 41.0238 311.732C39.7158 311.732 39.1998 312.884 39.1998 314.504V315.872C39.1998 317.492 39.7158 318.644 41.0238 318.644ZM48.2311 319.52C46.4911 319.52 45.4231 318.296 45.4231 316.304C45.4231 313.82 47.0671 311.876 48.4111 311H49.7071C47.9191 312.308 46.9231 313.4 46.4671 315.344L46.5271 315.368C46.9231 314.684 47.5231 314.168 48.5431 314.168C49.9831 314.168 51.0151 315.164 51.0151 316.748C51.0151 318.392 49.9111 319.52 48.2311 319.52ZM48.2191 318.644C49.3231 318.644 49.9711 318.008 49.9711 316.88V316.784C49.9711 315.656 49.3231 315.02 48.2191 315.02C47.1151 315.02 46.4671 315.656 46.4671 316.784V316.88C46.4671 318.008 47.1151 318.644 48.2191 318.644ZM57.2745 319.376H56.3145V317.732H52.2705V316.844L55.7745 311H57.2745V316.892H58.4865V317.732H57.2745V319.376ZM56.2545 311.78L53.2185 316.892H56.3145V311.78H56.2545ZM66.8257 319.376V318.368H66.7777C66.4057 319.136 65.8177 319.52 64.9657 319.52C63.4177 319.52 62.4457 318.26 62.4457 316.28C62.4457 314.3 63.4177 313.04 64.9657 313.04C65.8177 313.04 66.4537 313.412 66.7777 314.192H66.8257V310.496H67.7857V319.376H66.8257ZM65.2297 318.656C66.1057 318.656 66.8257 318.2 66.8257 317.396V315.092C66.8257 314.408 66.1057 313.904 65.2297 313.904C64.1497 313.904 63.4777 314.648 63.4777 315.752V316.808C63.4777 317.912 64.1497 318.656 65.2297 318.656ZM74.8666 319.376H74.3266C73.6186 319.376 73.3306 318.944 73.2586 318.368H73.1986C72.9346 319.124 72.2746 319.52 71.4106 319.52C70.1026 319.52 69.3346 318.8 69.3346 317.648C69.3346 316.484 70.1746 315.836 71.9746 315.836H73.1986V315.224C73.1986 314.348 72.7186 313.868 71.7346 313.868C70.9906 313.868 70.4986 314.228 70.1626 314.792L69.5866 314.252C69.9226 313.592 70.6666 313.04 71.7826 313.04C73.2706 313.04 74.1586 313.82 74.1586 315.128V318.536H74.8666V319.376ZM71.5666 318.704C72.5146 318.704 73.1986 318.212 73.1986 317.576V316.556H71.9266C70.8346 316.556 70.3426 316.892 70.3426 317.492V317.744C70.3426 318.356 70.8226 318.704 71.5666 318.704ZM78.8048 319.376H77.6048C76.9448 319.376 76.5848 318.956 76.5848 318.356V314.024H75.5648V313.184H76.1408C76.5488 313.184 76.6808 313.04 76.6808 312.62V311.468H77.5448V313.184H78.9008V314.024H77.5448V318.536H78.8048V319.376ZM85.4838 319.376H84.9438C84.2358 319.376 83.9478 318.944 83.8758 318.368H83.8158C83.5518 319.124 82.8918 319.52 82.0278 319.52C80.7198 319.52 79.9518 318.8 79.9518 317.648C79.9518 316.484 80.7918 315.836 82.5918 315.836H83.8158V315.224C83.8158 314.348 83.3358 313.868 82.3518 313.868C81.6078 313.868 81.1158 314.228 80.7798 314.792L80.2038 314.252C80.5398 313.592 81.2838 313.04 82.3998 313.04C83.8878 313.04 84.7758 313.82 84.7758 315.128V318.536H85.4838V319.376ZM82.1838 318.704C83.1318 318.704 83.8158 318.212 83.8158 317.576V316.556H82.5438C81.4518 316.556 80.9598 316.892 80.9598 317.492V317.744C80.9598 318.356 81.4398 318.704 82.1838 318.704ZM90.6499 319.376H89.6899V313.184H90.6499V314.324H90.7099C90.9259 313.736 91.4899 313.184 92.4979 313.184H92.8699V314.144H92.3059C91.2739 314.144 90.6499 314.588 90.6499 315.176V319.376ZM96.3776 319.52C94.7216 319.52 93.5816 318.248 93.5816 316.28C93.5816 314.312 94.7216 313.04 96.3776 313.04C98.0336 313.04 99.1736 314.312 99.1736 316.28C99.1736 318.248 98.0336 319.52 96.3776 319.52ZM96.3776 318.668C97.4096 318.668 98.1416 318.032 98.1416 316.724V315.836C98.1416 314.528 97.4096 313.892 96.3776 313.892C95.3456 313.892 94.6136 314.528 94.6136 315.836V316.724C94.6136 318.032 95.3456 318.668 96.3776 318.668ZM101.702 319.376L100.046 313.184H100.982L101.642 315.86L102.302 318.572H102.326L103.082 315.86L103.862 313.184H104.714L105.518 315.86L106.286 318.572H106.31L106.946 315.86L107.618 313.184H108.518L106.874 319.376H105.686L104.822 316.4L104.282 314.516H104.258L103.73 316.4L102.866 319.376H101.702ZM111.741 319.52C110.601 319.52 109.845 319.04 109.293 318.308L109.977 317.756C110.457 318.356 111.033 318.704 111.813 318.704C112.629 318.704 113.109 318.332 113.109 317.696C113.109 317.216 112.845 316.844 112.029 316.724L111.537 316.652C110.397 316.484 109.545 316.016 109.545 314.864C109.545 313.64 110.493 313.04 111.753 313.04C112.749 313.04 113.409 313.412 113.913 314.036L113.277 314.612C113.001 314.228 112.473 313.856 111.681 313.856C110.889 313.856 110.469 314.228 110.469 314.816C110.469 315.416 110.889 315.656 111.657 315.776L112.137 315.848C113.505 316.052 114.033 316.652 114.033 317.588C114.033 318.788 113.157 319.52 111.741 319.52Z" fill="#737373"/>
<rect x="259.5" y="21.5" width="394" height="319" rx="17.5" fill="white"/>
<rect x="259.5" y="21.5" width="394" height="319" rx="17.5" stroke="#171717"/>
<path d="M291.994 67H290.294V56.4968H294.808C296.734 56.4968 297.863 57.7457 297.863 59.6568C297.863 61.5678 296.734 62.8168 294.808 62.8168H291.994V67ZM291.994 57.9865V61.327H294.703C295.561 61.327 296.072 60.8606 296.072 60.0179V59.2956C296.072 58.453 295.561 57.9865 294.703 57.9865H291.994ZM301.101 67H299.461V59.1752H301.101V60.68H301.176C301.402 59.8825 302.079 59.1752 303.328 59.1752H303.765V60.7552H303.117C301.823 60.7552 301.101 61.1916 301.101 62.0042V67ZM308.218 67.1806C305.991 67.1806 304.621 65.5855 304.621 63.0876C304.621 60.5897 305.991 58.9947 308.218 58.9947C310.52 58.9947 311.694 60.7251 311.694 62.892V63.509H306.322V63.7648C306.322 64.9686 307.059 65.8263 308.383 65.8263C309.346 65.8263 309.993 65.3749 310.445 64.6526L311.408 65.6006C310.821 66.5486 309.677 67.1806 308.218 67.1806ZM308.218 60.2737C307.089 60.2737 306.322 61.1164 306.322 62.3202V62.4255H309.963V62.275C309.963 61.0712 309.301 60.2737 308.218 60.2737ZM316.534 67.1806C314.277 67.1806 312.983 65.5855 312.983 63.0876C312.983 60.5897 314.277 58.9947 316.534 58.9947C318.099 58.9947 319.092 59.7621 319.558 60.9208L318.204 61.5528C317.978 60.8305 317.422 60.364 316.534 60.364C315.33 60.364 314.713 61.1916 314.713 62.3954V63.7949C314.713 64.9987 315.33 65.8263 316.534 65.8263C317.482 65.8263 318.039 65.3147 318.37 64.5322L319.619 65.1943C319.107 66.4733 318.039 67.1806 316.534 67.1806ZM322.008 57.7758C321.331 57.7758 321.03 57.4147 321.03 56.9181V56.6623C321.03 56.1657 321.331 55.8046 322.008 55.8046C322.685 55.8046 322.971 56.1657 322.971 56.6623V56.9181C322.971 57.4147 322.685 57.7758 322.008 57.7758ZM321.18 67V59.1752H322.82V67H321.18ZM327.645 67.1806C326.171 67.1806 325.208 66.6238 324.47 65.7059L325.524 64.7429C326.095 65.435 326.803 65.8564 327.736 65.8564C328.684 65.8564 329.165 65.4651 329.165 64.803C329.165 64.3065 328.864 63.9303 328.052 63.825L327.329 63.7347C325.734 63.539 324.756 62.8469 324.756 61.4023C324.756 59.8825 325.945 58.9947 327.66 58.9947C329.075 58.9947 329.872 59.4611 330.58 60.2436L329.571 61.2067C329.165 60.7251 328.503 60.3189 327.66 60.3189C326.757 60.3189 326.336 60.7101 326.336 61.297C326.336 61.8989 326.712 62.1697 327.54 62.3051L328.262 62.3954C329.978 62.6512 330.745 63.4036 330.745 64.6676C330.745 66.1724 329.526 67.1806 327.645 67.1806ZM333.426 57.7758C332.748 57.7758 332.448 57.4147 332.448 56.9181V56.6623C332.448 56.1657 332.748 55.8046 333.426 55.8046C334.103 55.8046 334.389 56.1657 334.389 56.6623V56.9181C334.389 57.4147 334.103 57.7758 333.426 57.7758ZM332.598 67V59.1752H334.238V67H332.598ZM339.65 67.1806C337.468 67.1806 336.054 65.5855 336.054 63.0876C336.054 60.5897 337.468 58.9947 339.65 58.9947C341.832 58.9947 343.246 60.5897 343.246 63.0876C343.246 65.5855 341.832 67.1806 339.65 67.1806ZM339.65 65.8263C340.764 65.8263 341.516 65.1341 341.516 63.7497V62.4255C341.516 61.0411 340.764 60.349 339.65 60.349C338.537 60.349 337.784 61.0411 337.784 62.4255V63.7497C337.784 65.1341 338.537 65.8263 339.65 65.8263ZM346.714 67H345.074V59.1752H346.714V60.4693H346.789C347.12 59.6267 347.783 58.9947 348.986 58.9947C350.581 58.9947 351.529 60.1082 351.529 62.0343V67H349.889V62.245C349.889 61.0261 349.423 60.4091 348.415 60.4091C347.557 60.4091 346.714 60.8455 346.714 61.7634V67ZM357.133 62.3202C357.133 59.401 358.307 56.8579 359.812 55.5638H361.362C359.721 57.0686 358.683 59.431 358.683 61.7183V62.9221C358.683 65.2093 359.721 67.5718 361.362 69.0766H359.812C358.307 67.7825 357.133 65.2394 357.133 62.3202ZM368.869 67L365.679 62.0945L364.235 63.7497V67H362.534V56.4968H364.235V61.8236H364.295L365.8 59.9126L368.629 56.4968H370.615L366.868 60.9208L370.916 67H368.869ZM373.841 67H372.201V59.1752H373.841V60.68H373.916C374.142 59.8825 374.819 59.1752 376.068 59.1752H376.504V60.7552H375.857C374.563 60.7552 373.841 61.1916 373.841 62.0042V67ZM378.789 57.7758C378.112 57.7758 377.811 57.4147 377.811 56.9181V56.6623C377.811 56.1657 378.112 55.8046 378.789 55.8046C379.466 55.8046 379.752 56.1657 379.752 56.6623V56.9181C379.752 57.4147 379.466 57.7758 378.789 57.7758ZM377.961 67V59.1752H379.601V67H377.961ZM381.944 70.0095V59.1752H383.584V60.4693H383.659C383.99 59.5364 384.818 58.9947 385.856 58.9947C387.827 58.9947 388.971 60.5145 388.971 63.0876C388.971 65.6608 387.827 67.1806 385.856 67.1806C384.818 67.1806 383.99 66.6238 383.659 65.7059H383.584V70.0095H381.944ZM385.359 65.7661C386.488 65.7661 387.24 64.9686 387.24 63.7648V62.4105C387.24 61.2067 386.488 60.4091 385.359 60.4091C384.366 60.4091 383.584 60.9509 383.584 61.7484V64.4269C383.584 65.2244 384.366 65.7661 385.359 65.7661ZM390.849 70.0095V59.1752H392.489V60.4693H392.564C392.895 59.5364 393.723 58.9947 394.761 58.9947C396.732 58.9947 397.876 60.5145 397.876 63.0876C397.876 65.6608 396.732 67.1806 394.761 67.1806C393.723 67.1806 392.895 66.6238 392.564 65.7059H392.489V70.0095H390.849ZM394.265 65.7661C395.393 65.7661 396.146 64.9686 396.146 63.7648V62.4105C396.146 61.2067 395.393 60.4091 394.265 60.4091C393.271 60.4091 392.489 60.9509 392.489 61.7484V64.4269C392.489 65.2244 393.271 65.7661 394.265 65.7661ZM402.824 67.1806C400.597 67.1806 399.227 65.5855 399.227 63.0876C399.227 60.5897 400.597 58.9947 402.824 58.9947C405.126 58.9947 406.3 60.7251 406.3 62.892V63.509H400.928V63.7648C400.928 64.9686 401.665 65.8263 402.989 65.8263C403.952 65.8263 404.599 65.3749 405.051 64.6526L406.014 65.6006C405.427 66.5486 404.283 67.1806 402.824 67.1806ZM402.824 60.2737C401.695 60.2737 400.928 61.1164 400.928 62.3202V62.4255H404.569V62.275C404.569 61.0712 403.907 60.2737 402.824 60.2737ZM409.755 67H408.115V59.1752H409.755V60.4693H409.831C410.162 59.6267 410.824 58.9947 412.028 58.9947C413.623 58.9947 414.571 60.1082 414.571 62.0343V67H412.931V62.245C412.931 61.0261 412.464 60.4091 411.456 60.4091C410.598 60.4091 409.755 60.8455 409.755 61.7634V67ZM421.765 67V65.7059H421.689C421.358 66.6238 420.531 67.1806 419.492 67.1806C417.521 67.1806 416.378 65.6608 416.378 63.0876C416.378 60.5145 417.521 58.9947 419.492 58.9947C420.531 58.9947 421.358 59.5364 421.689 60.4693H421.765V55.8648H423.405V67H421.765ZM419.989 65.7661C420.982 65.7661 421.765 65.2244 421.765 64.4269V61.7484C421.765 60.9509 420.982 60.4091 419.989 60.4091C418.86 60.4091 418.108 61.2067 418.108 62.4105V63.7648C418.108 64.9686 418.86 65.7661 419.989 65.7661ZM428.819 67.1806C426.637 67.1806 425.223 65.5855 425.223 63.0876C425.223 60.5897 426.637 58.9947 428.819 58.9947C431.001 58.9947 432.415 60.5897 432.415 63.0876C432.415 65.5855 431.001 67.1806 428.819 67.1806ZM428.819 65.8263C429.932 65.8263 430.685 65.1341 430.685 63.7497V62.4255C430.685 61.0411 429.932 60.349 428.819 60.349C427.705 60.349 426.953 61.0411 426.953 62.4255V63.7497C426.953 65.1341 427.705 65.8263 428.819 65.8263ZM435.883 67H434.243V59.1752H435.883V60.68H435.958C436.184 59.8825 436.861 59.1752 438.11 59.1752H438.547V60.7552H437.899C436.605 60.7552 435.883 61.1916 435.883 62.0042V67ZM440.498 67V60.5145H439.309V59.1752H440.498V57.8811C440.498 56.6171 441.175 55.8648 442.484 55.8648H443.778V57.204H442.138V59.1752H443.778V60.5145H442.138V67H440.498ZM446.757 55.7143C447.51 55.7143 447.841 56.1206 447.841 56.6924V56.9482C447.841 57.8962 447.254 59.0699 446.366 59.7922H445.192C445.824 59.1752 446.231 58.6034 446.441 57.8962C445.93 57.7909 445.674 57.4297 445.674 56.9632V56.6924C445.674 56.1206 446.005 55.7143 446.757 55.7143ZM451.626 67.1806C450.152 67.1806 449.189 66.6238 448.451 65.7059L449.505 64.7429C450.077 65.435 450.784 65.8564 451.717 65.8564C452.665 65.8564 453.146 65.4651 453.146 64.803C453.146 64.3065 452.845 63.9303 452.033 63.825L451.31 63.7347C449.715 63.539 448.737 62.8469 448.737 61.4023C448.737 59.8825 449.926 58.9947 451.641 58.9947C453.056 58.9947 453.853 59.4611 454.561 60.2436L453.553 61.2067C453.146 60.7251 452.484 60.3189 451.641 60.3189C450.739 60.3189 450.317 60.7101 450.317 61.297C450.317 61.8989 450.693 62.1697 451.521 62.3051L452.243 62.3954C453.959 62.6512 454.726 63.4036 454.726 64.6676C454.726 66.1724 453.507 67.1806 451.626 67.1806ZM466.786 67H465.869C465.011 67 464.559 66.4583 464.454 65.6909H464.379C464.078 66.669 463.235 67.1806 462.092 67.1806C460.481 67.1806 459.564 66.2627 459.564 64.8482C459.564 63.2983 460.722 62.5008 462.904 62.5008H464.319V61.8387C464.319 60.8907 463.807 60.3339 462.709 60.3339C461.791 60.3339 461.234 60.7853 460.843 61.4023L459.865 60.5145C460.376 59.6417 461.294 58.9947 462.814 58.9947C464.83 58.9947 465.959 59.9878 465.959 61.7333V65.6608H466.786V67ZM462.558 65.9316C463.566 65.9316 464.319 65.4501 464.319 64.6827V63.5541H462.934C461.791 63.5541 461.234 63.9303 461.234 64.6074V64.8783C461.234 65.5705 461.745 65.9316 462.558 65.9316ZM471.118 67H470.064C468.951 67 468.394 66.383 468.394 65.3749V55.8648H470.034V65.6608H471.118V67ZM472.685 70.0095V59.1752H474.325V60.4693H474.4C474.731 59.5364 475.559 58.9947 476.597 58.9947C478.568 58.9947 479.712 60.5145 479.712 63.0876C479.712 65.6608 478.568 67.1806 476.597 67.1806C475.559 67.1806 474.731 66.6238 474.4 65.7059H474.325V70.0095H472.685ZM476.101 65.7661C477.229 65.7661 477.982 64.9686 477.982 63.7648V62.4105C477.982 61.2067 477.229 60.4091 476.101 60.4091C475.108 60.4091 474.325 60.9509 474.325 61.7484V64.4269C474.325 65.2244 475.108 65.7661 476.101 65.7661ZM481.59 67V55.8648H483.23V60.4693H483.305C483.636 59.6267 484.299 58.9947 485.502 58.9947C487.097 58.9947 488.045 60.1082 488.045 62.0343V67H486.405V62.2299C486.405 61.0261 485.939 60.4091 484.931 60.4091C484.073 60.4091 483.23 60.8455 483.23 61.7484V67H481.59ZM496.97 67H496.052C495.194 67 494.743 66.4583 494.637 65.6909H494.562C494.261 66.669 493.419 67.1806 492.275 67.1806C490.665 67.1806 489.747 66.2627 489.747 64.8482C489.747 63.2983 490.906 62.5008 493.088 62.5008H494.502V61.8387C494.502 60.8907 493.99 60.3339 492.892 60.3339C491.974 60.3339 491.417 60.7853 491.026 61.4023L490.048 60.5145C490.56 59.6417 491.477 58.9947 492.997 58.9947C495.014 58.9947 496.142 59.9878 496.142 61.7333V65.6608H496.97V67ZM492.741 65.9316C493.75 65.9316 494.502 65.4501 494.502 64.6827V63.5541H493.118C491.974 63.5541 491.417 63.9303 491.417 64.6074V64.8783C491.417 65.5705 491.929 65.9316 492.741 65.9316ZM501.512 62.3202C501.512 65.2394 500.338 67.7825 498.833 69.0766H497.283C498.923 67.5718 499.962 65.2093 499.962 62.9221V61.7183C499.962 59.431 498.923 57.0686 497.283 55.5638H498.833C500.338 56.8579 501.512 59.401 501.512 62.3202Z" fill="#171717"/>
<rect x="316.244" y="160.917" width="23.5119" height="119.44" fill="#FB923C"/>
<path d="M317.354 289.793H320.514V294.655C320.514 295.765 319.715 296.47 318.577 296.47C317.58 296.47 316.893 295.925 316.696 294.984L317.448 294.824C317.571 295.351 317.862 295.774 318.596 295.774C319.31 295.774 319.724 295.37 319.724 294.514V290.479H317.354V289.793ZM325.984 296.357V295.567H325.947C325.74 296.047 325.363 296.47 324.564 296.47C323.548 296.47 322.881 295.793 322.881 294.617V291.504H323.633V294.486C323.633 295.37 324.037 295.802 324.78 295.802C325.382 295.802 325.984 295.511 325.984 294.871V291.504H326.737V296.357H325.984ZM328.783 296.357V295.718H330.476V290.037H328.783V289.398H331.228V295.718H332.921V296.357H328.783ZM337.62 293.536L338.438 291.504H339.191L336.783 297.42C336.557 297.975 336.275 298.238 335.541 298.238H334.827V297.599H335.955L336.501 296.263L334.545 291.504H335.316L336.134 293.536L336.858 295.379H336.896L337.62 293.536Z" fill="#737373"/>
<rect x="363.67" y="179.357" width="23" height="101" fill="#FB923C"/>
<path d="M371.531 296.357H370.694L370.139 294.486H367.835L367.28 296.357H366.462L368.475 289.793H369.519L371.531 296.357ZM369.951 293.799L369.029 290.63H368.945L368.023 293.799H369.951ZM376.155 296.357V295.567H376.117C375.91 296.047 375.534 296.47 374.734 296.47C373.719 296.47 373.051 295.793 373.051 294.617V291.504H373.803V294.486C373.803 295.37 374.208 295.802 374.951 295.802C375.553 295.802 376.155 295.511 376.155 294.871V291.504H376.907V296.357H376.155ZM383.477 296.912C383.477 297.89 382.65 298.351 381.032 298.351C379.471 298.351 378.831 297.918 378.831 297.147C378.831 296.63 379.123 296.348 379.621 296.216V296.103C379.349 295.972 379.189 295.765 379.189 295.436C379.189 294.937 379.565 294.711 380.063 294.589V294.551C379.471 294.288 379.113 293.752 379.113 293.066C379.113 292.078 379.856 291.391 380.994 291.391C381.361 291.391 381.681 291.457 381.954 291.589V291.504C381.954 291.128 382.114 290.846 382.537 290.846H383.43V291.504H382.339V291.833C382.687 292.134 382.885 292.558 382.885 293.066C382.885 294.053 382.132 294.74 380.994 294.74C380.834 294.74 380.684 294.73 380.534 294.702C380.242 294.758 379.838 294.928 379.838 295.257C379.838 295.548 380.157 295.614 380.618 295.614H381.69C382.941 295.614 383.477 296.122 383.477 296.912ZM382.772 296.95C382.772 296.564 382.499 296.31 381.719 296.31H380.035C379.715 296.442 379.546 296.658 379.546 296.968C379.546 297.392 379.856 297.749 380.646 297.749H381.38C382.255 297.749 382.772 297.476 382.772 296.95ZM380.994 294.156C381.747 294.156 382.095 293.771 382.095 293.197V292.924C382.095 292.351 381.747 291.975 380.994 291.975C380.251 291.975 379.903 292.351 379.903 292.924V293.197C379.903 293.771 380.251 294.156 380.994 294.156Z" fill="#737373"/>
<rect x="410.585" y="129.881" width="23.5119" height="150.476" fill="#FB923C"/>
<path d="M413.301 296.47C412.126 296.47 411.411 295.99 410.922 295.313L411.496 294.843C412.003 295.483 412.539 295.793 413.329 295.793C414.279 295.793 414.797 295.332 414.797 294.542C414.797 293.903 414.467 293.564 413.574 293.413L412.84 293.291C411.552 293.075 411.148 292.332 411.148 291.504C411.148 290.301 412.003 289.68 413.339 289.68C414.383 289.68 415.098 290.056 415.54 290.686L414.985 291.166C414.618 290.686 414.148 290.357 413.329 290.357C412.445 290.357 411.947 290.743 411.947 291.486C411.947 292.069 412.248 292.445 413.179 292.605L413.884 292.727C415.173 292.953 415.596 293.667 415.596 294.523C415.596 295.736 414.759 296.47 413.301 296.47ZM419.42 296.47C418.028 296.47 417.144 295.473 417.144 293.94C417.144 292.388 418.056 291.391 419.373 291.391C420.68 291.391 421.527 292.388 421.527 293.761V294.119H417.934V294.345C417.934 295.2 418.508 295.821 419.42 295.821C420.069 295.821 420.558 295.501 420.812 294.975L421.367 295.351C421.075 296 420.379 296.47 419.42 296.47ZM419.373 292.012C418.545 292.012 417.934 292.642 417.934 293.489V293.555H420.718V293.451C420.718 292.595 420.172 292.012 419.373 292.012ZM423.423 298.238V291.504H424.175V292.294H424.213C424.523 291.702 425.031 291.391 425.708 291.391C426.893 291.391 427.608 292.341 427.608 293.931C427.608 295.52 426.893 296.47 425.708 296.47C425.031 296.47 424.523 296.16 424.213 295.567H424.175V298.238H423.423ZM425.417 295.802C426.291 295.802 426.799 295.219 426.799 294.345V293.517C426.799 292.642 426.291 292.059 425.417 292.059C424.749 292.059 424.175 292.407 424.175 293.056V294.805C424.175 295.454 424.749 295.802 425.417 295.802ZM433.492 296.357H431.601C430.868 296.357 430.529 295.896 430.529 295.247V292.144H428.912V291.504H430.115C430.435 291.504 430.557 291.391 430.557 291.062V289.793H431.282V291.504H433.492V292.144H431.282V295.718H433.492V296.357Z" fill="#737373"/>
<rect x="458.012" y="164.357" width="24" height="116" fill="#FB923C"/>
<path d="M463.998 296.47C462.399 296.47 461.703 295.219 461.703 293.075C461.703 290.931 462.399 289.68 463.998 289.68C465.597 289.68 466.293 290.931 466.293 293.075C466.293 295.219 465.597 296.47 463.998 296.47ZM463.998 295.783C465.042 295.783 465.456 294.928 465.456 293.611V292.539C465.456 291.222 465.042 290.366 463.998 290.366C462.954 290.366 462.54 291.222 462.54 292.539V293.611C462.54 294.928 462.954 295.783 463.998 295.783ZM470.183 296.47C468.791 296.47 467.982 295.464 467.982 293.931C467.982 292.388 468.8 291.391 470.173 291.391C471.114 291.391 471.697 291.852 471.97 292.511L471.368 292.83C471.189 292.332 470.775 292.04 470.173 292.04C469.289 292.04 468.791 292.661 468.791 293.517V294.345C468.791 295.2 469.28 295.821 470.192 295.821C470.841 295.821 471.264 295.501 471.509 294.975L472.045 295.341C471.763 295.99 471.152 296.47 470.183 296.47ZM478.154 296.357H476.264C475.53 296.357 475.192 295.896 475.192 295.247V292.144H473.574V291.504H474.778C475.098 291.504 475.22 291.391 475.22 291.062V289.793H475.944V291.504H478.154V292.144H475.944V295.718H478.154V296.357Z" fill="#737373"/>
<rect x="505.683" y="128" width="23.5119" height="152.357" fill="#FB923C"/>
<path d="M512.375 296.357L510.136 290.799H510.071V296.357H509.356V289.793H510.475L512.713 295.294H512.779V289.793H513.494V296.357H512.375ZM517.44 296.47C516.077 296.47 515.24 295.473 515.24 293.931C515.24 292.388 516.077 291.391 517.44 291.391C518.804 291.391 519.641 292.388 519.641 293.931C519.641 295.473 518.804 296.47 517.44 296.47ZM517.44 295.821C518.277 295.821 518.842 295.323 518.842 294.279V293.583C518.842 292.539 518.277 292.04 517.44 292.04C516.603 292.04 516.039 292.539 516.039 293.583V294.279C516.039 295.323 516.603 295.821 517.44 295.821ZM523.935 296.357H522.976L521.236 291.504H521.998L522.694 293.536L523.446 295.727H523.484L524.236 293.536L524.932 291.504H525.675L523.935 296.357Z" fill="#737373"/>
<rect x="552.865" y="165.357" width="23" height="115" fill="#FB923C"/>
<path d="M556.424 296.357V289.793H558.258C559.856 289.793 560.646 290.921 560.646 293.075C560.646 295.229 559.856 296.357 558.258 296.357H556.424ZM557.214 295.671H558.22C559.264 295.671 559.809 294.899 559.809 293.583V292.567C559.809 291.25 559.264 290.479 558.22 290.479H557.214V295.671ZM564.452 296.47C563.06 296.47 562.176 295.473 562.176 293.94C562.176 292.388 563.088 291.391 564.405 291.391C565.712 291.391 566.558 292.388 566.558 293.761V294.119H562.966V294.345C562.966 295.2 563.539 295.821 564.452 295.821C565.101 295.821 565.59 295.501 565.844 294.975L566.399 295.351C566.107 296 565.411 296.47 564.452 296.47ZM564.405 292.012C563.577 292.012 562.966 292.642 562.966 293.489V293.555H565.75V293.451C565.75 292.595 565.204 292.012 564.405 292.012ZM570.552 296.47C569.16 296.47 568.351 295.464 568.351 293.931C568.351 292.388 569.169 291.391 570.542 291.391C571.483 291.391 572.066 291.852 572.339 292.511L571.737 292.83C571.558 292.332 571.144 292.04 570.542 292.04C569.658 292.04 569.16 292.661 569.16 293.517V294.345C569.16 295.2 569.649 295.821 570.561 295.821C571.21 295.821 571.633 295.501 571.878 294.975L572.414 295.341C572.132 295.99 571.52 296.47 570.552 296.47Z" fill="#737373"/>
<rect x="599.536" y="184.357" width="24" height="96" fill="#FB923C"/>
<path d="M604.055 289.793H607.215V294.655C607.215 295.765 606.416 296.47 605.278 296.47C604.281 296.47 603.594 295.925 603.397 294.984L604.149 294.824C604.271 295.351 604.563 295.774 605.296 295.774C606.011 295.774 606.425 295.37 606.425 294.514V290.479H604.055V289.793ZM613.889 296.357H613.371C612.788 296.357 612.563 296.019 612.506 295.567H612.459C612.252 296.122 611.791 296.47 611.001 296.47C609.986 296.47 609.337 295.906 609.337 294.993C609.337 294.1 609.967 293.583 611.425 293.583H612.459V293.103C612.459 292.398 612.036 292.031 611.302 292.031C610.653 292.031 610.258 292.304 610.005 292.746L609.497 292.37C609.741 291.862 610.362 291.391 611.349 291.391C612.487 291.391 613.212 292.003 613.212 293.028V295.699H613.889V296.357ZM611.133 295.84C611.904 295.84 612.459 295.445 612.459 294.946V294.147H611.425C610.531 294.147 610.127 294.41 610.127 294.881V295.078C610.127 295.577 610.512 295.84 611.133 295.84ZM616.405 296.357H615.653V291.504H616.405V292.294H616.443C616.65 291.815 617.026 291.391 617.826 291.391C618.841 291.391 619.509 292.069 619.509 293.244V296.357H618.757V293.376C618.757 292.492 618.352 292.059 617.609 292.059C617.007 292.059 616.405 292.351 616.405 292.99V296.357Z" fill="#737373"/>
<path d="M291.821 127.113C290.223 127.113 289.527 125.862 289.527 123.718C289.527 121.573 290.223 120.323 291.821 120.323C293.42 120.323 294.116 121.573 294.116 123.718C294.116 125.862 293.42 127.113 291.821 127.113ZM291.821 126.426C292.875 126.426 293.298 125.57 293.298 124.254V123.182C293.298 121.865 292.875 121.009 291.821 121.009C290.768 121.009 290.345 121.865 290.345 123.182V124.254C290.345 125.57 290.768 126.426 291.821 126.426ZM291.821 124.273C291.389 124.273 291.238 124.075 291.238 123.821V123.614C291.238 123.36 291.389 123.163 291.821 123.163C292.254 123.163 292.405 123.36 292.405 123.614V123.821C292.405 124.075 292.254 124.273 291.821 124.273ZM297.461 127.085C296.953 127.085 296.765 126.84 296.765 126.52V126.351C296.765 126.031 296.953 125.787 297.461 125.787C297.968 125.787 298.157 126.031 298.157 126.351V126.52C298.157 126.84 297.968 127.085 297.461 127.085ZM303.1 127.113C301.576 127.113 300.796 126.295 300.796 125.213C300.796 124.32 301.332 123.802 302.131 123.586V123.511C301.435 123.276 300.993 122.721 300.993 121.968C300.993 120.972 301.774 120.323 303.1 120.323C304.426 120.323 305.206 120.972 305.206 121.968C305.206 122.721 304.764 123.276 304.068 123.511V123.586C304.868 123.802 305.404 124.32 305.404 125.213C305.404 126.295 304.623 127.113 303.1 127.113ZM303.1 126.445C304.021 126.445 304.586 126.003 304.586 125.26V125.053C304.586 124.301 304.04 123.868 303.1 123.868C302.159 123.868 301.614 124.301 301.614 125.053V125.26C301.614 126.003 302.178 126.445 303.1 126.445ZM303.1 123.229C303.946 123.229 304.407 122.843 304.407 122.175V122.044C304.407 121.376 303.927 120.99 303.1 120.99C302.272 120.99 301.793 121.376 301.793 122.044V122.175C301.793 122.843 302.253 123.229 303.1 123.229ZM291.821 166.113C290.223 166.113 289.527 164.862 289.527 162.718C289.527 160.573 290.223 159.323 291.821 159.323C293.42 159.323 294.116 160.573 294.116 162.718C294.116 164.862 293.42 166.113 291.821 166.113ZM291.821 165.426C292.875 165.426 293.298 164.57 293.298 163.254V162.182C293.298 160.865 292.875 160.009 291.821 160.009C290.768 160.009 290.345 160.865 290.345 162.182V163.254C290.345 164.57 290.768 165.426 291.821 165.426ZM291.821 163.273C291.389 163.273 291.238 163.075 291.238 162.821V162.614C291.238 162.36 291.389 162.163 291.821 162.163C292.254 162.163 292.405 162.36 292.405 162.614V162.821C292.405 163.075 292.254 163.273 291.821 163.273ZM297.461 166.085C296.953 166.085 296.765 165.84 296.765 165.52V165.351C296.765 165.031 296.953 164.787 297.461 164.787C297.968 164.787 298.157 165.031 298.157 165.351V165.52C298.157 165.84 297.968 166.085 297.461 166.085ZM303.109 166.113C301.727 166.113 300.88 165.154 300.88 163.592C300.88 161.646 302.188 160.122 303.26 159.435H304.275C302.846 160.461 302.056 161.316 301.689 162.84L301.736 162.859C302.056 162.323 302.536 161.918 303.354 161.918C304.501 161.918 305.319 162.699 305.319 163.94C305.319 165.229 304.445 166.113 303.109 166.113ZM303.1 165.445C303.993 165.445 304.52 164.928 304.52 164.044V163.969C304.52 163.085 303.993 162.567 303.1 162.567C302.206 162.567 301.68 163.085 301.68 163.969V164.044C301.68 164.928 302.206 165.445 303.1 165.445ZM291.821 204.113C290.223 204.113 289.527 202.862 289.527 200.718C289.527 198.573 290.223 197.323 291.821 197.323C293.42 197.323 294.116 198.573 294.116 200.718C294.116 202.862 293.42 204.113 291.821 204.113ZM291.821 203.426C292.875 203.426 293.298 202.57 293.298 201.254V200.182C293.298 198.865 292.875 198.009 291.821 198.009C290.768 198.009 290.345 198.865 290.345 200.182V201.254C290.345 202.57 290.768 203.426 291.821 203.426ZM291.821 201.273C291.389 201.273 291.238 201.075 291.238 200.821V200.614C291.238 200.36 291.389 200.163 291.821 200.163C292.254 200.163 292.405 200.36 292.405 200.614V200.821C292.405 201.075 292.254 201.273 291.821 201.273ZM297.461 204.085C296.953 204.085 296.765 203.84 296.765 203.52V203.351C296.765 203.031 296.953 202.787 297.461 202.787C297.968 202.787 298.157 203.031 298.157 203.351V203.52C298.157 203.84 297.968 204.085 297.461 204.085ZM304.586 204H303.833V202.712H300.598V202.016L303.438 197.435H304.586V202.063H305.564V202.712H304.586V204ZM303.796 198.047L301.303 202.063H303.833V198.047H303.796ZM291.821 243.113C290.223 243.113 289.527 241.862 289.527 239.718C289.527 237.573 290.223 236.323 291.821 236.323C293.42 236.323 294.116 237.573 294.116 239.718C294.116 241.862 293.42 243.113 291.821 243.113ZM291.821 242.426C292.875 242.426 293.298 241.57 293.298 240.254V239.182C293.298 237.865 292.875 237.009 291.821 237.009C290.768 237.009 290.345 237.865 290.345 239.182V240.254C290.345 241.57 290.768 242.426 291.821 242.426ZM291.821 240.273C291.389 240.273 291.238 240.075 291.238 239.821V239.614C291.238 239.36 291.389 239.163 291.821 239.163C292.254 239.163 292.405 239.36 292.405 239.614V239.821C292.405 240.075 292.254 240.273 291.821 240.273ZM297.461 243.085C296.953 243.085 296.765 242.84 296.765 242.52V242.351C296.765 242.031 296.953 241.787 297.461 241.787C297.968 241.787 298.157 242.031 298.157 242.351V242.52C298.157 242.84 297.968 243.085 297.461 243.085ZM305.329 242.313V243H300.946V242.191L303.137 240.216C303.777 239.642 304.238 239.031 304.238 238.363V238.251C304.238 237.461 303.815 237.009 303.006 237.009C302.206 237.009 301.802 237.451 301.595 238.128L300.89 237.865C301.144 237.094 301.736 236.323 303.025 236.323C304.332 236.323 305.065 237.113 305.065 238.222C305.065 239.219 304.473 239.953 303.598 240.715L301.764 242.313H305.329ZM291.821 282.113C290.223 282.113 289.527 280.862 289.527 278.718C289.527 276.573 290.223 275.323 291.821 275.323C293.42 275.323 294.116 276.573 294.116 278.718C294.116 280.862 293.42 282.113 291.821 282.113ZM291.821 281.426C292.875 281.426 293.298 280.57 293.298 279.254V278.182C293.298 276.865 292.875 276.009 291.821 276.009C290.768 276.009 290.345 276.865 290.345 278.182V279.254C290.345 280.57 290.768 281.426 291.821 281.426ZM291.821 279.273C291.389 279.273 291.238 279.075 291.238 278.821V278.614C291.238 278.36 291.389 278.163 291.821 278.163C292.254 278.163 292.405 278.36 292.405 278.614V278.821C292.405 279.075 292.254 279.273 291.821 279.273Z" fill="#737373"/>
<rect x="260.504" y="384.504" width="121.992" height="109.992" rx="13.607" fill="white"/>
<rect x="260.504" y="384.504" width="121.992" height="109.992" rx="13.607" stroke="#171717" stroke-width="1.00792"/>
<path d="M297.92 436.189H296V432.901H287.912V431.125L294.92 419.437H297.92V431.221H300.344V432.901H297.92V436.189ZM295.88 420.997L289.808 431.221H296V420.997H295.88ZM313.343 419.437V421.213H305.999L305.519 427.597H305.687C306.479 426.469 307.367 425.749 309.119 425.749C311.999 425.749 314.111 427.693 314.111 430.933C314.111 434.197 311.999 436.477 308.471 436.477C305.687 436.477 304.247 435.061 303.239 433.621L304.751 432.469C305.615 433.789 306.455 434.677 308.471 434.677C310.751 434.677 311.975 433.405 311.975 431.197V430.957C311.975 428.749 310.751 427.477 308.471 427.477C306.935 427.477 306.167 428.125 305.471 428.893L303.767 428.653L304.367 419.437H313.343ZM323.493 436.189V418.429H325.413V425.821H325.509C326.109 424.429 327.165 423.517 329.013 423.517C331.557 423.517 333.165 425.245 333.165 428.245V436.189H331.245V428.581C331.245 426.373 330.285 425.245 328.437 425.245C326.901 425.245 325.413 426.013 325.413 427.597V436.189H323.493ZM339.054 436.189H337.134V423.805H339.054V426.085H339.174C339.606 424.909 340.734 423.805 342.75 423.805H343.494V425.725H342.366C340.302 425.725 339.054 426.613 339.054 427.789V436.189ZM349.666 436.477C347.386 436.477 345.874 435.517 344.77 434.053L346.138 432.949C347.098 434.149 348.25 434.845 349.81 434.845C351.442 434.845 352.402 434.101 352.402 432.829C352.402 431.869 351.874 431.125 350.242 430.885L349.258 430.741C346.978 430.405 345.274 429.469 345.274 427.165C345.274 424.717 347.17 423.517 349.69 423.517C351.682 423.517 353.002 424.261 354.01 425.509L352.738 426.661C352.186 425.893 351.13 425.149 349.546 425.149C347.962 425.149 347.122 425.893 347.122 427.069C347.122 428.269 347.962 428.749 349.498 428.989L350.458 429.133C353.194 429.541 354.25 430.741 354.25 432.613C354.25 435.013 352.498 436.477 349.666 436.477Z" fill="#171717"/>
<path d="M285.969 460.189V453.013H283.473V451.813H289.821V453.013H287.325V460.189H285.969ZM292.71 460.333C290.97 460.333 289.842 459.061 289.842 457.069C289.842 455.077 290.97 453.805 292.71 453.805C294.45 453.805 295.578 455.077 295.578 457.069C295.578 459.061 294.45 460.333 292.71 460.333ZM292.71 459.253C293.598 459.253 294.198 458.701 294.198 457.597V456.541C294.198 455.437 293.598 454.885 292.71 454.885C291.822 454.885 291.222 455.437 291.222 456.541V457.597C291.222 458.701 291.822 459.253 292.71 459.253ZM299.868 460.189H298.728C297.828 460.189 297.348 459.685 297.348 458.833V455.017H296.376V453.949H296.904C297.336 453.949 297.48 453.769 297.48 453.337V452.245H298.656V453.949H299.964V455.017H298.656V459.121H299.868V460.189ZM306.687 460.189H305.955C305.271 460.189 304.911 459.757 304.827 459.145H304.767C304.527 459.925 303.855 460.333 302.943 460.333C301.659 460.333 300.927 459.601 300.927 458.473C300.927 457.237 301.851 456.601 303.591 456.601H304.719V456.073C304.719 455.317 304.311 454.873 303.435 454.873C302.703 454.873 302.259 455.233 301.947 455.725L301.167 455.017C301.575 454.321 302.307 453.805 303.519 453.805C305.127 453.805 306.027 454.597 306.027 455.989V459.121H306.687V460.189ZM303.315 459.337C304.119 459.337 304.719 458.953 304.719 458.341V457.441H303.615C302.703 457.441 302.259 457.741 302.259 458.281V458.497C302.259 459.049 302.667 459.337 303.315 459.337ZM310.141 460.189H309.301C308.413 460.189 307.969 459.697 307.969 458.893V451.309H309.277V459.121H310.141V460.189ZM319.087 460.189H314.323V451.813H315.679V458.989H319.087V460.189ZM325.695 460.189H324.963C324.279 460.189 323.919 459.757 323.835 459.145H323.775C323.535 459.925 322.863 460.333 321.951 460.333C320.667 460.333 319.935 459.601 319.935 458.473C319.935 457.237 320.859 456.601 322.599 456.601H323.727V456.073C323.727 455.317 323.319 454.873 322.443 454.873C321.711 454.873 321.267 455.233 320.955 455.725L320.175 455.017C320.583 454.321 321.315 453.805 322.527 453.805C324.135 453.805 325.035 454.597 325.035 455.989V459.121H325.695V460.189ZM322.323 459.337C323.127 459.337 323.727 458.953 323.727 458.341V457.441H322.623C321.711 457.441 321.267 457.741 321.267 458.281V458.497C321.267 459.049 321.675 459.337 322.323 459.337ZM326.977 460.189V451.309H328.285V454.981H328.345C328.609 454.237 329.269 453.805 330.097 453.805C331.669 453.805 332.581 455.017 332.581 457.069C332.581 459.121 331.669 460.333 330.097 460.333C329.269 460.333 328.609 459.889 328.345 459.157H328.285V460.189H326.977ZM329.701 459.205C330.601 459.205 331.201 458.569 331.201 457.609V456.529C331.201 455.569 330.601 454.933 329.701 454.933C328.909 454.933 328.285 455.365 328.285 456.001V458.137C328.285 458.773 328.909 459.205 329.701 459.205ZM336.526 460.333C334.75 460.333 333.658 459.061 333.658 457.069C333.658 455.077 334.75 453.805 336.526 453.805C338.362 453.805 339.298 455.185 339.298 456.913V457.405H335.014V457.609C335.014 458.569 335.602 459.253 336.658 459.253C337.426 459.253 337.942 458.893 338.302 458.317L339.07 459.073C338.602 459.829 337.69 460.333 336.526 460.333ZM336.526 454.825C335.626 454.825 335.014 455.497 335.014 456.457V456.541H337.918V456.421C337.918 455.461 337.39 454.825 336.526 454.825ZM342.918 460.189H342.078C341.19 460.189 340.746 459.697 340.746 458.893V451.309H342.054V459.121H342.918V460.189ZM344.828 452.833C344.288 452.833 344.048 452.545 344.048 452.149V451.945C344.048 451.549 344.288 451.261 344.828 451.261C345.368 451.261 345.596 451.549 345.596 451.945V452.149C345.596 452.545 345.368 452.833 344.828 452.833ZM344.168 460.189V453.949H345.476V460.189H344.168ZM348.652 460.189H347.344V453.949H348.652V454.981H348.712C348.976 454.309 349.504 453.805 350.464 453.805C351.736 453.805 352.492 454.693 352.492 456.229V460.189H351.184V456.397C351.184 455.425 350.812 454.933 350.008 454.933C349.324 454.933 348.652 455.281 348.652 456.013V460.189ZM359.777 460.777C359.777 462.073 358.853 462.733 356.609 462.733C354.569 462.733 353.777 462.181 353.777 461.233C353.777 460.549 354.185 460.177 354.845 460.033V459.901C354.389 459.757 354.137 459.409 354.137 458.941C354.137 458.293 354.641 457.981 355.241 457.837V457.789C354.509 457.441 354.101 456.781 354.101 455.941C354.101 454.669 355.001 453.805 356.585 453.805C357.005 453.805 357.389 453.865 357.713 453.997V453.829C357.713 453.277 357.977 452.941 358.529 452.941H359.489V453.997H358.217V454.249C358.781 454.621 359.093 455.221 359.093 455.941C359.093 457.201 358.181 458.053 356.597 458.053C356.297 458.053 356.009 458.017 355.781 457.957C355.469 458.065 355.181 458.269 355.181 458.581C355.181 458.917 355.505 459.049 356.057 459.049H357.593C359.129 459.049 359.777 459.697 359.777 460.777ZM358.553 460.921C358.553 460.489 358.265 460.213 357.413 460.213H355.301C355.013 460.381 354.869 460.633 354.869 460.933C354.869 461.437 355.241 461.785 356.213 461.785H357.029C358.049 461.785 358.553 461.497 358.553 460.921ZM356.597 457.105C357.365 457.105 357.809 456.757 357.809 456.049V455.809C357.809 455.101 357.365 454.753 356.597 454.753C355.829 454.753 355.385 455.101 355.385 455.809V456.049C355.385 456.757 355.829 457.105 356.597 457.105ZM312.9 474.189H311.76C310.86 474.189 310.38 473.685 310.38 472.833V469.017H309.408V467.949H309.936C310.368 467.949 310.512 467.769 310.512 467.337V466.245H311.688V467.949H312.996V469.017H311.688V473.121H312.9V474.189ZM315.074 466.833C314.534 466.833 314.294 466.545 314.294 466.149V465.945C314.294 465.549 314.534 465.261 315.074 465.261C315.614 465.261 315.842 465.549 315.842 465.945V466.149C315.842 466.545 315.614 466.833 315.074 466.833ZM314.414 474.189V467.949H315.722V474.189H314.414ZM318.898 474.189H317.59V467.949H318.898V468.981H318.958C319.21 468.333 319.678 467.805 320.626 467.805C321.466 467.805 322.174 468.213 322.474 469.077H322.51C322.738 468.381 323.386 467.805 324.394 467.805C325.63 467.805 326.362 468.693 326.362 470.229V474.189H325.054V470.385C325.054 469.425 324.694 468.933 323.902 468.933C323.242 468.933 322.63 469.281 322.63 470.001V474.189H321.322V470.385C321.322 469.413 320.95 468.933 320.182 468.933C319.534 468.933 318.898 469.281 318.898 470.001V474.189ZM330.62 474.333C328.844 474.333 327.752 473.061 327.752 471.069C327.752 469.077 328.844 467.805 330.62 467.805C332.456 467.805 333.392 469.185 333.392 470.913V471.405H329.108V471.609C329.108 472.569 329.696 473.253 330.752 473.253C331.52 473.253 332.036 472.893 332.396 472.317L333.164 473.073C332.696 473.829 331.784 474.333 330.62 474.333ZM330.62 468.825C329.72 468.825 329.108 469.497 329.108 470.457V470.541H332.012V470.421C332.012 469.461 331.484 468.825 330.62 468.825Z" fill="#737373"/>
<rect x="393.52" y="384.504" width="123.992" height="109.992" rx="13.607" fill="white"/>
<rect x="393.52" y="384.504" width="123.992" height="109.992" rx="13.607" stroke="#171717" stroke-width="1.00792"/>
<path d="M421.808 425.581C421.808 430.549 418.52 434.437 415.832 436.189H413.24C416.816 433.573 418.808 431.389 419.72 427.501L419.6 427.453C418.808 428.821 417.608 429.853 415.568 429.853C412.688 429.853 410.624 427.861 410.624 424.693C410.624 421.405 412.832 419.149 416.192 419.149C419.672 419.149 421.808 421.597 421.808 425.581ZM416.216 428.149C418.424 428.149 419.72 426.877 419.72 424.621V424.429C419.72 422.173 418.424 420.901 416.216 420.901C414.008 420.901 412.712 422.173 412.712 424.429V424.621C412.712 426.877 414.008 428.149 416.216 428.149ZM434.326 436.189H432.406V432.901H424.318V431.125L431.326 419.437H434.326V431.221H436.75V432.901H434.326V436.189ZM432.286 420.997L426.214 431.221H432.406V420.997H432.286ZM444.157 436.189H441.997L448.405 421.165H441.253V424.285H439.453V419.437H450.445V421.213L444.157 436.189ZM455.452 433.381C456.46 433.381 456.916 433.957 456.916 434.797V435.133C456.916 436.429 456.1 438.205 454.732 439.381H453.124C454.084 438.373 454.66 437.533 454.924 436.405C454.276 436.261 453.988 435.781 453.988 435.133V434.797C453.988 433.957 454.444 433.381 455.452 433.381ZM470.679 419.437V421.213H463.335L462.855 427.597H463.023C463.815 426.469 464.703 425.749 466.455 425.749C469.335 425.749 471.447 427.693 471.447 430.933C471.447 434.197 469.335 436.477 465.807 436.477C463.023 436.477 461.583 435.061 460.575 433.621L462.087 432.469C462.951 433.789 463.791 434.677 465.807 434.677C468.087 434.677 469.311 433.405 469.311 431.197V430.957C469.311 428.749 468.087 427.477 465.807 427.477C464.271 427.477 463.503 428.125 462.807 428.893L461.103 428.653L461.703 419.437H470.679ZM485.909 425.581C485.909 430.549 482.621 434.437 479.933 436.189H477.341C480.917 433.573 482.909 431.389 483.821 427.501L483.701 427.453C482.909 428.821 481.709 429.853 479.669 429.853C476.789 429.853 474.725 427.861 474.725 424.693C474.725 421.405 476.933 419.149 480.293 419.149C483.773 419.149 485.909 421.597 485.909 425.581ZM480.317 428.149C482.525 428.149 483.821 426.877 483.821 424.621V424.429C483.821 422.173 482.525 420.901 480.317 420.901C478.109 420.901 476.813 422.173 476.813 424.429V424.621C476.813 426.877 478.109 428.149 480.317 428.149ZM500.636 436.189H489.62V434.413H494.3V420.925H494.132L489.908 424.861L488.732 423.589L493.172 419.437H496.316V434.413H500.636V436.189Z" fill="#171717"/>
<path d="M430.356 460.333C428.952 460.333 427.992 459.781 427.296 458.917L428.232 458.041C428.82 458.761 429.516 459.133 430.428 459.133C431.496 459.133 432.048 458.605 432.048 457.801C432.048 457.153 431.712 456.781 430.74 456.589L429.996 456.457C428.376 456.157 427.548 455.401 427.548 454.069C427.548 452.581 428.7 451.669 430.476 451.669C431.736 451.669 432.66 452.125 433.308 452.953L432.36 453.793C431.928 453.229 431.328 452.869 430.404 452.869C429.444 452.869 428.892 453.265 428.892 453.997C428.892 454.693 429.324 454.993 430.224 455.173L430.968 455.329C432.636 455.653 433.392 456.397 433.392 457.729C433.392 459.289 432.276 460.333 430.356 460.333ZM438.704 460.189V459.157H438.656C438.428 459.769 437.936 460.333 436.904 460.333C435.62 460.333 434.864 459.457 434.864 457.921V453.949H436.172V457.753C436.172 458.701 436.568 459.205 437.372 459.205C438.044 459.205 438.704 458.857 438.704 458.125V453.949H440.012V460.189H438.704ZM441.885 460.189V451.309H443.193V454.981H443.253C443.517 454.237 444.177 453.805 445.005 453.805C446.577 453.805 447.489 455.017 447.489 457.069C447.489 459.121 446.577 460.333 445.005 460.333C444.177 460.333 443.517 459.889 443.253 459.157H443.193V460.189H441.885ZM444.609 459.205C445.509 459.205 446.109 458.569 446.109 457.609V456.529C446.109 455.569 445.509 454.933 444.609 454.933C443.817 454.933 443.193 455.365 443.193 456.001V458.137C443.193 458.773 443.817 459.205 444.609 459.205ZM450.295 460.189H448.987V453.949H450.295V454.981H450.355C450.607 454.333 451.075 453.805 452.023 453.805C452.863 453.805 453.571 454.213 453.871 455.077H453.907C454.135 454.381 454.783 453.805 455.791 453.805C457.027 453.805 457.759 454.693 457.759 456.229V460.189H456.451V456.385C456.451 455.425 456.091 454.933 455.299 454.933C454.639 454.933 454.027 455.281 454.027 456.001V460.189H452.719V456.385C452.719 455.413 452.347 454.933 451.579 454.933C450.931 454.933 450.295 455.281 450.295 456.001V460.189ZM460.229 452.833C459.689 452.833 459.449 452.545 459.449 452.149V451.945C459.449 451.549 459.689 451.261 460.229 451.261C460.769 451.261 460.997 451.549 460.997 451.945V452.149C460.997 452.545 460.769 452.833 460.229 452.833ZM459.569 460.189V453.949H460.877V460.189H459.569ZM465.612 460.189H464.472C463.572 460.189 463.092 459.685 463.092 458.833V455.017H462.12V453.949H462.648C463.08 453.949 463.224 453.769 463.224 453.337V452.245H464.4V453.949H465.708V455.017H464.4V459.121H465.612V460.189ZM469.913 460.189H468.773C467.873 460.189 467.393 459.685 467.393 458.833V455.017H466.421V453.949H466.949C467.381 453.949 467.525 453.769 467.525 453.337V452.245H468.701V453.949H470.009V455.017H468.701V459.121H469.913V460.189ZM473.829 460.333C472.053 460.333 470.961 459.061 470.961 457.069C470.961 455.077 472.053 453.805 473.829 453.805C475.665 453.805 476.601 455.185 476.601 456.913V457.405H472.317V457.609C472.317 458.569 472.905 459.253 473.961 459.253C474.729 459.253 475.245 458.893 475.605 458.317L476.373 459.073C475.905 459.829 474.993 460.333 473.829 460.333ZM473.829 454.825C472.929 454.825 472.317 455.497 472.317 456.457V456.541H475.221V456.421C475.221 455.461 474.693 454.825 473.829 454.825ZM481.973 460.189V459.157H481.913C481.649 459.889 480.989 460.333 480.161 460.333C478.589 460.333 477.677 459.121 477.677 457.069C477.677 455.017 478.589 453.805 480.161 453.805C480.989 453.805 481.649 454.237 481.913 454.981H481.973V451.309H483.281V460.189H481.973ZM480.557 459.205C481.349 459.205 481.973 458.773 481.973 458.137V456.001C481.973 455.365 481.349 454.933 480.557 454.933C479.657 454.933 479.057 455.569 479.057 456.529V457.609C479.057 458.569 479.657 459.205 480.557 459.205ZM443.376 474.189H438.612V465.813H439.968V472.989H443.376V474.189ZM449.984 474.189H449.252C448.568 474.189 448.208 473.757 448.124 473.145H448.064C447.824 473.925 447.152 474.333 446.24 474.333C444.956 474.333 444.224 473.601 444.224 472.473C444.224 471.237 445.148 470.601 446.888 470.601H448.016V470.073C448.016 469.317 447.608 468.873 446.732 468.873C446 468.873 445.556 469.233 445.244 469.725L444.464 469.017C444.872 468.321 445.604 467.805 446.816 467.805C448.424 467.805 449.324 468.597 449.324 469.989V473.121H449.984V474.189ZM446.612 473.337C447.416 473.337 448.016 472.953 448.016 472.341V471.441H446.912C446 471.441 445.556 471.741 445.556 472.281V472.497C445.556 473.049 445.964 473.337 446.612 473.337ZM451.266 474.189V465.309H452.574V468.981H452.634C452.898 468.237 453.558 467.805 454.386 467.805C455.958 467.805 456.87 469.017 456.87 471.069C456.87 473.121 455.958 474.333 454.386 474.333C453.558 474.333 452.898 473.889 452.634 473.157H452.574V474.189H451.266ZM453.99 473.205C454.89 473.205 455.49 472.569 455.49 471.609V470.529C455.49 469.569 454.89 468.933 453.99 468.933C453.198 468.933 452.574 469.365 452.574 470.001V472.137C452.574 472.773 453.198 473.205 453.99 473.205ZM460.816 474.333C459.04 474.333 457.948 473.061 457.948 471.069C457.948 469.077 459.04 467.805 460.816 467.805C462.652 467.805 463.588 469.185 463.588 470.913V471.405H459.304V471.609C459.304 472.569 459.892 473.253 460.948 473.253C461.716 473.253 462.232 472.893 462.592 472.317L463.36 473.073C462.892 473.829 461.98 474.333 460.816 474.333ZM460.816 468.825C459.916 468.825 459.304 469.497 459.304 470.457V470.541H462.208V470.421C462.208 469.461 461.68 468.825 460.816 468.825ZM467.207 474.189H466.367C465.479 474.189 465.035 473.697 465.035 472.893V465.309H466.343V473.121H467.207V474.189ZM470.437 474.333C469.261 474.333 468.493 473.889 467.905 473.157L468.745 472.389C469.201 472.941 469.765 473.277 470.509 473.277C471.265 473.277 471.649 472.965 471.649 472.437C471.649 472.041 471.409 471.741 470.761 471.657L470.185 471.585C468.913 471.429 468.133 470.877 468.133 469.725C468.133 468.513 469.081 467.805 470.449 467.805C471.577 467.805 472.213 468.177 472.777 468.801L471.973 469.569C471.649 469.185 471.121 468.861 470.449 468.861C469.729 468.861 469.393 469.173 469.393 469.641C469.393 470.121 469.693 470.337 470.353 470.445L470.929 470.517C472.297 470.721 472.909 471.321 472.909 472.329C472.909 473.529 471.937 474.333 470.437 474.333Z" fill="#737373"/>
<rect x="528.536" y="384.504" width="122.992" height="109.992" rx="13.607" fill="white"/>
<rect x="528.536" y="384.504" width="122.992" height="109.992" rx="13.607" stroke="#171717" stroke-width="1.00792"/>
<path d="M568.452 436.189H566.532V432.901H558.444V431.125L565.452 419.437H568.452V431.221H570.876V432.901H568.452V436.189ZM566.412 420.997L560.34 431.221H566.532V420.997H566.412ZM575.186 433.381C576.194 433.381 576.65 433.957 576.65 434.797V435.133C576.65 436.429 575.834 438.205 574.466 439.381H572.858C573.818 438.373 574.394 437.533 574.658 436.405C574.01 436.261 573.722 435.781 573.722 435.133V434.797C573.722 433.957 574.178 433.381 575.186 433.381ZM589.381 436.189H587.461V432.901H579.373V431.125L586.381 419.437H589.381V431.221H591.805V432.901H589.381V436.189ZM587.341 420.997L581.269 431.221H587.461V420.997H587.341ZM605.98 436.189H594.964V434.413H599.644V420.925H599.476L595.252 424.861L594.076 423.589L598.516 419.437H601.66V434.413H605.98V436.189ZM611.683 426.541H613.507C615.763 426.541 616.915 425.365 616.915 423.757V423.589C616.915 421.837 615.691 420.949 613.915 420.949C612.187 420.949 611.155 421.765 610.459 423.037L608.971 421.885C609.811 420.541 611.275 419.149 613.963 419.149C616.795 419.149 619.051 420.661 619.051 423.373C619.051 425.533 617.611 426.829 615.835 427.285V427.381C617.635 427.741 619.363 429.085 619.363 431.605C619.363 434.485 617.083 436.477 613.675 436.477C610.771 436.477 609.283 435.061 608.251 433.621L609.763 432.469C610.627 433.789 611.611 434.677 613.651 434.677C616.003 434.677 617.251 433.549 617.251 431.581V431.389C617.251 429.421 616.003 428.293 613.651 428.293H611.683V426.541Z" fill="#171717"/>
<path d="M571.505 460.189V451.813H575.213C576.593 451.813 577.445 452.665 577.445 453.973C577.445 455.233 576.677 455.689 575.993 455.749V455.821C576.677 455.845 577.745 456.373 577.745 457.777C577.745 459.133 576.821 460.189 575.585 460.189H571.505ZM572.861 456.481V459.025H575.189C575.885 459.025 576.317 458.641 576.317 457.957V457.549C576.317 456.865 575.885 456.481 575.189 456.481H572.861ZM572.861 452.977V455.353H574.961C575.621 455.353 576.017 454.993 576.017 454.357V453.973C576.017 453.337 575.621 452.977 574.961 452.977H572.861ZM579.619 452.833C579.079 452.833 578.839 452.545 578.839 452.149V451.945C578.839 451.549 579.079 451.261 579.619 451.261C580.159 451.261 580.387 451.549 580.387 451.945V452.149C580.387 452.545 580.159 452.833 579.619 452.833ZM578.959 460.189V453.949H580.267V460.189H578.959ZM583.947 460.189H583.107C582.219 460.189 581.775 459.697 581.775 458.893V451.309H583.083V459.121H583.947V460.189ZM586.939 460.189H586.099C585.211 460.189 584.767 459.697 584.767 458.893V451.309H586.075V459.121H586.939V460.189ZM593.133 460.189H592.401C591.717 460.189 591.357 459.757 591.273 459.145H591.213C590.973 459.925 590.301 460.333 589.389 460.333C588.105 460.333 587.373 459.601 587.373 458.473C587.373 457.237 588.297 456.601 590.037 456.601H591.165V456.073C591.165 455.317 590.757 454.873 589.881 454.873C589.149 454.873 588.705 455.233 588.393 455.725L587.613 455.017C588.021 454.321 588.753 453.805 589.965 453.805C591.573 453.805 592.473 454.597 592.473 455.989V459.121H593.133V460.189ZM589.761 459.337C590.565 459.337 591.165 458.953 591.165 458.341V457.441H590.061C589.149 457.441 588.705 457.741 588.705 458.281V458.497C588.705 459.049 589.113 459.337 589.761 459.337ZM594.055 460.189V451.309H595.363V454.981H595.423C595.687 454.237 596.347 453.805 597.175 453.805C598.747 453.805 599.659 455.017 599.659 457.069C599.659 459.121 598.747 460.333 597.175 460.333C596.347 460.333 595.687 459.889 595.423 459.157H595.363V460.189H594.055ZM596.779 459.205C597.679 459.205 598.279 458.569 598.279 457.609V456.529C598.279 455.569 597.679 454.933 596.779 454.933C595.987 454.933 595.363 455.365 595.363 456.001V458.137C595.363 458.773 595.987 459.205 596.779 459.205ZM602.968 460.189H602.128C601.24 460.189 600.796 459.697 600.796 458.893V451.309H602.104V459.121H602.968V460.189ZM606.306 460.333C604.53 460.333 603.438 459.061 603.438 457.069C603.438 455.077 604.53 453.805 606.306 453.805C608.142 453.805 609.078 455.185 609.078 456.913V457.405H604.794V457.609C604.794 458.569 605.382 459.253 606.438 459.253C607.206 459.253 607.722 458.893 608.082 458.317L608.85 459.073C608.382 459.829 607.47 460.333 606.306 460.333ZM606.306 454.825C605.406 454.825 604.794 455.497 604.794 456.457V456.541H607.698V456.421C607.698 455.461 607.17 454.825 606.306 454.825ZM566.131 474.189H564.715L563.959 471.921H560.827L560.095 474.189H558.715L561.571 465.813H563.275L566.131 474.189ZM563.623 470.757L562.423 467.061H562.363L561.151 470.757H563.623ZM568.28 474.189H566.972V467.949H568.28V468.981H568.34C568.604 468.309 569.132 467.805 570.092 467.805C571.364 467.805 572.12 468.693 572.12 470.229V474.189H570.812V470.397C570.812 469.425 570.44 468.933 569.636 468.933C568.952 468.933 568.28 469.281 568.28 470.013V474.189ZM574.881 474.189H573.573V467.949H574.881V468.981H574.941C575.205 468.309 575.733 467.805 576.693 467.805C577.965 467.805 578.721 468.693 578.721 470.229V474.189H577.413V470.397C577.413 469.425 577.041 468.933 576.237 468.933C575.553 468.933 574.881 469.281 574.881 470.013V474.189ZM582.622 474.333C580.882 474.333 579.754 473.061 579.754 471.069C579.754 469.077 580.882 467.805 582.622 467.805C584.362 467.805 585.49 469.077 585.49 471.069C585.49 473.061 584.362 474.333 582.622 474.333ZM582.622 473.253C583.51 473.253 584.11 472.701 584.11 471.597V470.541C584.11 469.437 583.51 468.885 582.622 468.885C581.734 468.885 581.134 469.437 581.134 470.541V471.597C581.134 472.701 581.734 473.253 582.622 473.253ZM589.42 474.189H588.28C587.38 474.189 586.9 473.685 586.9 472.833V469.017H585.928V467.949H586.456C586.888 467.949 587.032 467.769 587.032 467.337V466.245H588.208V467.949H589.516V469.017H588.208V473.121H589.42V474.189ZM595.879 474.189H595.147C594.463 474.189 594.103 473.757 594.019 473.145H593.959C593.719 473.925 593.047 474.333 592.135 474.333C590.851 474.333 590.119 473.601 590.119 472.473C590.119 471.237 591.043 470.601 592.783 470.601H593.911V470.073C593.911 469.317 593.503 468.873 592.627 468.873C591.895 468.873 591.451 469.233 591.139 469.725L590.359 469.017C590.767 468.321 591.499 467.805 592.711 467.805C594.319 467.805 595.219 468.597 595.219 469.989V473.121H595.879V474.189ZM592.507 473.337C593.311 473.337 593.911 472.953 593.911 472.341V471.441H592.807C591.895 471.441 591.451 471.741 591.451 472.281V472.497C591.451 473.049 591.859 473.337 592.507 473.337ZM599.634 474.189H598.494C597.594 474.189 597.114 473.685 597.114 472.833V469.017H596.142V467.949H596.67C597.102 467.949 597.246 467.769 597.246 467.337V466.245H598.422V467.949H599.73V469.017H598.422V473.121H599.634V474.189ZM601.449 466.833C600.909 466.833 600.669 466.545 600.669 466.149V465.945C600.669 465.549 600.909 465.261 601.449 465.261C601.989 465.261 602.217 465.549 602.217 465.945V466.149C602.217 466.545 601.989 466.833 601.449 466.833ZM600.789 474.189V467.949H602.097V474.189H600.789ZM606.052 474.333C604.312 474.333 603.184 473.061 603.184 471.069C603.184 469.077 604.312 467.805 606.052 467.805C607.792 467.805 608.92 469.077 608.92 471.069C608.92 473.061 607.792 474.333 606.052 474.333ZM606.052 473.253C606.94 473.253 607.54 472.701 607.54 471.597V470.541C607.54 469.437 606.94 468.885 606.052 468.885C605.164 468.885 604.564 469.437 604.564 470.541V471.597C604.564 472.701 605.164 473.253 606.052 473.253ZM611.326 474.189H610.018V467.949H611.326V468.981H611.386C611.65 468.309 612.178 467.805 613.138 467.805C614.41 467.805 615.166 468.693 615.166 470.229V474.189H613.858V470.397C613.858 469.425 613.486 468.933 612.682 468.933C611.998 468.933 611.326 469.281 611.326 470.013V474.189ZM618.599 474.333C617.423 474.333 616.655 473.889 616.067 473.157L616.907 472.389C617.363 472.941 617.927 473.277 618.671 473.277C619.427 473.277 619.811 472.965 619.811 472.437C619.811 472.041 619.571 471.741 618.923 471.657L618.347 471.585C617.075 471.429 616.295 470.877 616.295 469.725C616.295 468.513 617.243 467.805 618.611 467.805C619.739 467.805 620.375 468.177 620.939 468.801L620.135 469.569C619.811 469.185 619.283 468.861 618.611 468.861C617.891 468.861 617.555 469.173 617.555 469.641C617.555 470.121 617.855 470.337 618.515 470.445L619.091 470.517C620.459 470.721 621.071 471.321 621.071 472.329C621.071 473.529 620.099 474.333 618.599 474.333Z" fill="#737373"/>
<path d="M-48 366H698.5" stroke="#171717"/>
<path d="M140 394V485" stroke="#171717"/>
<path d="M147.5 467C147.5 471.142 144.142 474.5 140 474.5C135.858 474.5 132.5 471.142 132.5 467C132.5 462.858 135.858 459.5 140 459.5C144.142 459.5 147.5 462.858 147.5 467Z" fill="#FB923C" stroke="#171717"/>
<path d="M166 394V485" stroke="#171717"/>
<circle cx="166" cy="428" r="7.5" fill="#FB923C" stroke="#171717"/>
<path d="M192 394V485" stroke="#171717"/>
<circle cx="192" cy="446" r="7.5" fill="#FB923C" stroke="#171717"/>
<path d="M218 394V485" stroke="#171717"/>
<circle cx="218" cy="409" r="7.5" fill="#FB923C" stroke="#171717"/>
<path d="M244 394V485" stroke="#171717"/>
<circle cx="244" cy="427.5" r="7.5" fill="#FB923C" stroke="#171717"/>
<circle cx="68.5" cy="439.5" r="38" fill="#FB923C" stroke="#171717"/>
<circle cx="92.5" cy="439.5" r="6" fill="#FB923C" stroke="#171717"/>
</g>
<defs>
<clipPath id="clip0_3424_237073">
<rect width="672" height="512" rx="24" fill="white"/>
</clipPath>
<clipPath id="clip1_3424_237073">
<rect width="108" height="108" fill="white" transform="translate(14.0752 386)"/>
</clipPath>
</defs>
</svg>
