<svg width="672" height="512" viewBox="0 0 672 512" fill="none" xmlns="http://www.w3.org/2000/svg">
<g clip-path="url(#clip0_3108_32916)">
<rect width="672" height="512" rx="24" fill="#F5F5F5"/>
<g clip-path="url(#clip1_3108_32916)">
<path d="M42.9007 392.028L38.7205 394.442L43.8677 403.357L48.0479 400.944L42.9007 392.028Z" fill="#FB923C"/>
<path d="M70.4883 386H65.6614V396.295H70.4883V386Z" fill="#FB923C"/>
<path d="M61.0737 386.401L56.3203 387.24L58.1097 397.377L62.8631 396.538L61.0737 386.401Z" fill="#FB923C"/>
<path d="M51.8717 388.428L47.3362 390.079L50.8588 399.752L55.3943 398.101L51.8717 388.428Z" fill="#FB923C"/>
<path d="M35.2116 397.088L31.5134 400.19L38.1292 408.077L41.8274 404.975L35.2116 397.088Z" fill="#FB923C"/>
<path d="M28.266 403.445L25.1633 407.142L33.0385 413.75L36.1412 410.053L28.266 403.445Z" fill="#FB923C"/>
<path d="M22.5196 410.912L20.1062 415.093L29.0092 420.233L31.4226 416.053L22.5196 410.912Z" fill="#FB923C"/>
<path d="M18.1654 419.255L16.5168 423.792L26.1924 427.307L27.8409 422.771L18.1654 419.255Z" fill="#FB923C"/>
<path d="M15.3017 428.241L14.4626 432.995L24.5864 434.781L25.4255 430.028L15.3017 428.241Z" fill="#FB923C"/>
<path d="M24.3555 437.587H14.0752V442.413H24.3555V437.587Z" fill="#FB923C"/>
<path d="M24.5933 445.222L14.4683 447.002L15.304 451.756L25.429 449.976L24.5933 445.222Z" fill="#FB923C"/>
<path d="M26.1803 452.664L16.509 456.192L18.1631 460.727L27.8343 457.199L26.1803 452.664Z" fill="#FB923C"/>
<path d="M29.015 459.767L20.1147 464.912L22.5304 469.091L31.4307 463.946L29.015 459.767Z" fill="#FB923C"/>
<path d="M33.0463 466.242L25.1614 472.861L28.2647 476.558L36.1496 469.939L33.0463 466.242Z" fill="#FB923C"/>
<path d="M38.1288 471.935L31.5144 479.823L35.2131 482.925L41.8275 475.036L38.1288 471.935Z" fill="#FB923C"/>
<path d="M44.1279 476.656L38.9822 485.572L43.1628 487.985L48.3085 479.069L44.1279 476.656Z" fill="#FB923C"/>
<path d="M50.842 480.249L47.3228 489.923L51.8588 491.573L55.3781 481.899L50.842 480.249Z" fill="#FB923C"/>
<path d="M58.1105 482.628L56.3264 492.767L61.0803 493.603L62.8644 483.464L58.1105 482.628Z" fill="#FB923C"/>
<path d="M70.4883 483.705H65.6614V494H70.4883V483.705Z" fill="#FB923C"/>
<path d="M78.041 482.624L73.2878 483.465L75.0808 493.602L79.8339 492.762L78.041 482.624Z" fill="#E5E5E5"/>
<path d="M85.2842 480.268L80.7493 481.922L84.2753 491.593L88.8102 489.94L85.2842 480.268Z" fill="#E5E5E5"/>
<path d="M92.016 476.669L87.8367 479.084L92.987 487.998L97.1664 485.583L92.016 476.669Z" fill="#E5E5E5"/>
<path d="M98.0095 471.939L94.3135 475.044L100.935 482.927L104.631 479.822L98.0095 471.939Z" fill="#E5E5E5"/>
<path d="M103.108 466.244L100.006 469.942L107.893 476.558L110.995 472.86L103.108 466.244Z" fill="#E5E5E5"/>
<path d="M107.138 459.761L104.725 463.941L113.64 469.088L116.053 464.908L107.138 459.761Z" fill="#E5E5E5"/>
<path d="M109.983 452.693L108.329 457.228L118.001 460.754L119.654 456.219L109.983 452.693Z" fill="#E5E5E5"/>
<path d="M111.537 445.213L110.697 449.967L120.835 451.758L121.674 447.004L111.537 445.213Z" fill="#E5E5E5"/>
<path d="M122.075 437.587H111.781V442.413H122.075V437.587Z" fill="#FB923C"/>
<path d="M120.827 428.251L110.69 430.046L111.531 434.799L121.668 433.004L120.827 428.251Z" fill="#FB923C"/>
<path d="M117.98 419.249L108.31 422.778L109.964 427.312L119.635 423.783L117.98 419.249Z" fill="#FB923C"/>
<path d="M113.64 410.899L104.735 416.063L107.156 420.239L116.062 415.075L113.64 410.899Z" fill="#FB923C"/>
<path d="M107.893 403.438L100.016 410.066L103.124 413.76L111.001 407.131L107.893 403.438Z" fill="#FB923C"/>
<path d="M100.943 397.075L94.3284 404.964L98.0271 408.065L104.642 400.177L100.943 397.075Z" fill="#FB923C"/>
<path d="M92.9949 392.029L87.8477 400.944L92.0279 403.358L97.1751 394.443L92.9949 392.029Z" fill="#FB923C"/>
<path d="M84.2888 388.432L80.7678 398.105L85.3036 399.756L88.8246 390.083L84.2888 388.432Z" fill="#FB923C"/>
<path d="M75.0639 386.404L73.2781 396.542L78.0318 397.379L79.8176 387.241L75.0639 386.404Z" fill="#FB923C"/>
</g>
<rect x="18.5" y="21.5" width="226.098" height="94.485" rx="13.5" fill="white"/>
<rect x="18.5" y="21.5" width="226.098" height="94.485" rx="13.5" stroke="#171717"/>
<path d="M35.648 52.723H29.44V41.555H30.992V51.347H35.648V52.723ZM44.3014 52.723H43.4534C42.5414 52.723 42.1094 52.147 41.9974 51.347H41.9174C41.5814 52.371 40.7014 52.915 39.5174 52.915C37.7894 52.915 36.7814 51.955 36.7814 50.435C36.7814 48.835 37.9494 47.971 40.3174 47.971H41.8854V47.219C41.8854 46.115 41.2934 45.491 40.0454 45.491C39.0694 45.491 38.4454 45.971 38.0134 46.675L37.1174 45.859C37.6134 44.963 38.5894 44.243 40.1254 44.243C42.1894 44.243 43.3734 45.299 43.3734 47.091V51.459H44.3014V52.723ZM39.8534 51.715C41.0214 51.715 41.8854 51.123 41.8854 50.291V49.011H40.3014C38.9414 49.011 38.3334 49.427 38.3334 50.195V50.515C38.3334 51.283 38.9254 51.715 39.8534 51.715ZM46.0776 52.723V40.883H47.5656V45.795H47.6296C48.0136 44.771 48.8776 44.243 50.0136 44.243C52.0936 44.243 53.3416 45.891 53.3416 48.579C53.3416 51.267 52.0936 52.915 50.0136 52.915C48.8776 52.915 48.0136 52.387 47.6296 51.363H47.5656V52.723H46.0776ZM49.5816 51.619C50.9096 51.619 51.7576 50.675 51.7576 49.283V47.875C51.7576 46.483 50.9096 45.539 49.5816 45.539C48.4616 45.539 47.5656 46.179 47.5656 47.059V50.099C47.5656 50.979 48.4616 51.619 49.5816 51.619ZM58.605 52.915C56.301 52.915 54.845 51.203 54.845 48.579C54.845 45.955 56.301 44.243 58.605 44.243C60.925 44.243 62.237 46.003 62.237 48.323V48.947H56.397V49.283C56.397 50.659 57.245 51.651 58.733 51.651C59.773 51.651 60.525 51.155 60.973 50.307L61.933 51.123C61.357 52.195 60.157 52.915 58.605 52.915ZM58.605 45.443C57.309 45.443 56.397 46.435 56.397 47.795V47.907H60.653V47.747C60.653 46.371 59.853 45.443 58.605 45.443ZM66.9371 52.723H65.8171C64.7931 52.723 64.2651 52.115 64.2651 51.203V40.883H65.7531V51.459H66.9371V52.723Z" fill="#171717"/>
<rect x="28" y="63.723" width="119" height="10.9709" fill="#FB923C"/>
<rect x="147" y="63.723" width="88.0977" height="10.9709" fill="#E5E5E5"/>
<path d="M35.419 94.694H34.459V93.05H30.415V92.162L33.919 86.318H35.419V92.21H36.631V93.05H35.419V94.694ZM34.399 87.098L31.363 92.21H34.459V87.098H34.399ZM38.7863 93.29C39.2903 93.29 39.5183 93.578 39.5183 93.998V94.166C39.5183 94.814 39.1103 95.702 38.4263 96.29H37.6223C38.1023 95.786 38.3903 95.366 38.5223 94.802C38.1983 94.73 38.0543 94.49 38.0543 94.166V93.998C38.0543 93.578 38.2823 93.29 38.7863 93.29ZM46.8198 93.806V94.694H41.3238V93.662L44.0598 91.142C44.8398 90.422 45.4398 89.582 45.4398 88.778V88.634C45.4398 87.71 44.9238 87.074 43.8918 87.074C42.8598 87.074 42.3798 87.698 42.1518 88.49L41.2518 88.142C41.5758 87.158 42.3198 86.174 43.9398 86.174C45.5718 86.174 46.5078 87.182 46.5078 88.61C46.5078 89.906 45.7398 90.818 44.6718 91.778L42.4158 93.806H46.8198ZM51.2311 94.838C49.4911 94.838 48.4231 93.614 48.4231 91.622C48.4231 89.138 50.0671 87.194 51.4111 86.318H52.7071C50.9191 87.626 49.9231 88.718 49.4671 90.662L49.5271 90.686C49.9231 90.002 50.5231 89.486 51.5431 89.486C52.9831 89.486 54.0151 90.482 54.0151 92.066C54.0151 93.71 52.9111 94.838 51.2311 94.838ZM51.2191 93.962C52.3231 93.962 52.9711 93.326 52.9711 92.198V92.102C52.9711 90.974 52.3231 90.338 51.2191 90.338C50.1151 90.338 49.4671 90.974 49.4671 92.102V92.198C49.4671 93.326 50.1151 93.962 51.2191 93.962ZM60.7905 86.318V87.206H57.1185L56.8785 90.398H56.9625C57.3585 89.834 57.8025 89.474 58.6785 89.474C60.1185 89.474 61.1745 90.446 61.1745 92.066C61.1745 93.698 60.1185 94.838 58.3545 94.838C56.9625 94.838 56.2425 94.13 55.7385 93.41L56.4945 92.834C56.9265 93.494 57.3465 93.938 58.3545 93.938C59.4945 93.938 60.1065 93.302 60.1065 92.198V92.078C60.1065 90.974 59.4945 90.338 58.3545 90.338C57.5865 90.338 57.2025 90.662 56.8545 91.046L56.0025 90.926L56.3025 86.318H60.7905ZM69.8257 94.694V93.686H69.7777C69.4057 94.454 68.8177 94.838 67.9657 94.838C66.4177 94.838 65.4457 93.578 65.4457 91.598C65.4457 89.618 66.4177 88.358 67.9657 88.358C68.8177 88.358 69.4537 88.73 69.7777 89.51H69.8257V85.814H70.7857V94.694H69.8257ZM68.2297 93.974C69.1057 93.974 69.8257 93.518 69.8257 92.714V90.41C69.8257 89.726 69.1057 89.222 68.2297 89.222C67.1497 89.222 66.4777 89.966 66.4777 91.07V92.126C66.4777 93.23 67.1497 93.974 68.2297 93.974ZM77.8666 94.694H77.3266C76.6186 94.694 76.3306 94.262 76.2586 93.686H76.1986C75.9346 94.442 75.2746 94.838 74.4106 94.838C73.1026 94.838 72.3346 94.118 72.3346 92.966C72.3346 91.802 73.1746 91.154 74.9746 91.154H76.1986V90.542C76.1986 89.666 75.7186 89.186 74.7346 89.186C73.9906 89.186 73.4986 89.546 73.1626 90.11L72.5866 89.57C72.9226 88.91 73.6666 88.358 74.7826 88.358C76.2706 88.358 77.1586 89.138 77.1586 90.446V93.854H77.8666V94.694ZM74.5666 94.022C75.5146 94.022 76.1986 93.53 76.1986 92.894V91.874H74.9266C73.8346 91.874 73.3426 92.21 73.3426 92.81V93.062C73.3426 93.674 73.8226 94.022 74.5666 94.022ZM81.8048 94.694H80.6048C79.9448 94.694 79.5848 94.274 79.5848 93.674V89.342H78.5648V88.502H79.1408C79.5488 88.502 79.6808 88.358 79.6808 87.938V86.786H80.5448V88.502H81.9008V89.342H80.5448V93.854H81.8048V94.694ZM88.4838 94.694H87.9438C87.2358 94.694 86.9478 94.262 86.8758 93.686H86.8158C86.5518 94.442 85.8918 94.838 85.0278 94.838C83.7198 94.838 82.9518 94.118 82.9518 92.966C82.9518 91.802 83.7918 91.154 85.5918 91.154H86.8158V90.542C86.8158 89.666 86.3358 89.186 85.3518 89.186C84.6078 89.186 84.1158 89.546 83.7798 90.11L83.2038 89.57C83.5398 88.91 84.2838 88.358 85.3998 88.358C86.8878 88.358 87.7758 89.138 87.7758 90.446V93.854H88.4838V94.694ZM85.1838 94.022C86.1318 94.022 86.8158 93.53 86.8158 92.894V91.874H85.5438C84.4518 91.874 83.9598 92.21 83.9598 92.81V93.062C83.9598 93.674 84.4398 94.022 85.1838 94.022ZM93.6499 94.694H92.6899V88.502H93.6499V89.642H93.7099C93.9259 89.054 94.4899 88.502 95.4979 88.502H95.8699V89.462H95.3059C94.2739 89.462 93.6499 89.906 93.6499 90.494V94.694ZM99.3776 94.838C97.7216 94.838 96.5816 93.566 96.5816 91.598C96.5816 89.63 97.7216 88.358 99.3776 88.358C101.034 88.358 102.174 89.63 102.174 91.598C102.174 93.566 101.034 94.838 99.3776 94.838ZM99.3776 93.986C100.41 93.986 101.142 93.35 101.142 92.042V91.154C101.142 89.846 100.41 89.21 99.3776 89.21C98.3456 89.21 97.6136 89.846 97.6136 91.154V92.042C97.6136 93.35 98.3456 93.986 99.3776 93.986ZM104.702 94.694L103.046 88.502H103.982L104.642 91.178L105.302 93.89H105.326L106.082 91.178L106.862 88.502H107.714L108.518 91.178L109.286 93.89H109.31L109.946 91.178L110.618 88.502H111.518L109.874 94.694H108.686L107.822 91.718L107.282 89.834H107.258L106.73 91.718L105.866 94.694H104.702ZM114.741 94.838C113.601 94.838 112.845 94.358 112.293 93.626L112.977 93.074C113.457 93.674 114.033 94.022 114.813 94.022C115.629 94.022 116.109 93.65 116.109 93.014C116.109 92.534 115.845 92.162 115.029 92.042L114.537 91.97C113.397 91.802 112.545 91.334 112.545 90.182C112.545 88.958 113.493 88.358 114.753 88.358C115.749 88.358 116.409 88.73 116.913 89.354L116.277 89.93C116.001 89.546 115.473 89.174 114.681 89.174C113.889 89.174 113.469 89.546 113.469 90.134C113.469 90.734 113.889 90.974 114.657 91.094L115.137 91.166C116.505 91.37 117.033 91.97 117.033 92.906C117.033 94.106 116.157 94.838 114.741 94.838Z" fill="#737373"/>
<path d="M132.103 120.874V120.326H131.006V120.874H132.103ZM131.555 131.845L134.722 126.36H128.388L131.555 131.845ZM131.006 120.874V126.908H132.103V120.874H131.006Z" fill="#D4D4D4"/>
<rect x="18.5" y="133.758" width="226.098" height="94.485" rx="13.5" fill="white"/>
<rect x="18.5" y="133.758" width="226.098" height="94.485" rx="13.5" stroke="#171717"/>
<path d="M30.992 160.875V165.515H29.44V154.347H34.048C36.016 154.347 37.216 155.579 37.216 157.627C37.216 159.243 36.464 160.347 35.024 160.715L37.504 165.515H35.76L33.44 160.875H30.992ZM30.992 159.531H33.984C34.976 159.531 35.568 158.987 35.568 158.027V157.227C35.568 156.267 34.976 155.723 33.984 155.723H30.992V159.531ZM42.605 165.707C40.301 165.707 38.845 163.995 38.845 161.371C38.845 158.747 40.301 157.035 42.605 157.035C44.925 157.035 46.237 158.795 46.237 161.115V161.739H40.397V162.075C40.397 163.451 41.245 164.443 42.733 164.443C43.773 164.443 44.525 163.947 44.973 163.099L45.933 163.915C45.357 164.987 44.157 165.707 42.605 165.707ZM42.605 158.235C41.309 158.235 40.397 159.227 40.397 160.587V160.699H44.653V160.539C44.653 159.163 43.853 158.235 42.605 158.235ZM51.6921 165.515H49.9481L47.0841 157.227H48.5721L49.9321 161.195L50.7961 164.059H50.8921L51.7721 161.195L53.1481 157.227H54.5721L51.6921 165.515ZM56.8921 155.499C56.2681 155.499 55.9961 155.163 55.9961 154.683V154.459C55.9961 153.979 56.2681 153.643 56.8921 153.643C57.5161 153.643 57.7881 153.979 57.7881 154.459V154.683C57.7881 155.163 57.5161 155.499 56.8921 155.499ZM56.1401 165.515V157.227H57.6281V165.515H56.1401ZM63.4175 165.707C61.1135 165.707 59.6575 163.995 59.6575 161.371C59.6575 158.747 61.1135 157.035 63.4175 157.035C65.7375 157.035 67.0495 158.795 67.0495 161.115V161.739H61.2095V162.075C61.2095 163.451 62.0575 164.443 63.5455 164.443C64.5855 164.443 65.3375 163.947 65.7855 163.099L66.7455 163.915C66.1695 164.987 64.9695 165.707 63.4175 165.707ZM63.4175 158.235C62.1215 158.235 61.2095 159.227 61.2095 160.587V160.699H65.4655V160.539C65.4655 159.163 64.6655 158.235 63.4175 158.235ZM70.3755 165.515L68.1515 157.227H69.5915L70.4555 160.763L71.2875 164.171H71.3195L72.2635 160.763L73.2875 157.227H74.6155L75.6715 160.763L76.6315 164.171H76.6795L77.4635 160.763L78.3435 157.227H79.7355L77.5275 165.515H75.7675L74.6475 161.627L73.9435 159.195H73.9115L73.2235 161.627L72.1035 165.515H70.3755Z" fill="#171717"/>
<rect x="184.698" y="151.015" width="50.3993" height="18" rx="9" fill="#FB923C"/>
<path d="M195.378 163.135C193.558 163.135 192.448 161.865 192.448 159.525C192.448 157.185 193.558 155.915 195.378 155.915C196.588 155.915 197.398 156.455 197.868 157.495L196.918 158.015C196.678 157.355 196.188 156.925 195.378 156.925C194.308 156.925 193.648 157.705 193.648 158.995V160.055C193.648 161.345 194.308 162.125 195.378 162.125C196.208 162.125 196.738 161.645 196.988 160.965L197.898 161.515C197.428 162.525 196.588 163.135 195.378 163.135ZM202.166 163.015V162.155H202.126C201.936 162.665 201.526 163.135 200.666 163.135C199.596 163.135 198.966 162.405 198.966 161.125V157.815H200.056V160.985C200.056 161.775 200.386 162.195 201.056 162.195C201.616 162.195 202.166 161.905 202.166 161.295V157.815H203.256V163.015H202.166ZM206.467 163.135C205.487 163.135 204.847 162.765 204.357 162.155L205.057 161.515C205.437 161.975 205.907 162.255 206.527 162.255C207.157 162.255 207.477 161.995 207.477 161.555C207.477 161.225 207.277 160.975 206.737 160.905L206.257 160.845C205.197 160.715 204.547 160.255 204.547 159.295C204.547 158.285 205.337 157.695 206.477 157.695C207.417 157.695 207.947 158.005 208.417 158.525L207.747 159.165C207.477 158.845 207.037 158.575 206.477 158.575C205.877 158.575 205.597 158.835 205.597 159.225C205.597 159.625 205.847 159.805 206.397 159.895L206.877 159.955C208.017 160.125 208.527 160.625 208.527 161.465C208.527 162.465 207.717 163.135 206.467 163.135ZM212.08 163.015H211.13C210.38 163.015 209.98 162.595 209.98 161.885V158.705H209.17V157.815H209.61C209.97 157.815 210.09 157.665 210.09 157.305V156.395H211.07V157.815H212.16V158.705H211.07V162.125H212.08V163.015ZM215.343 163.135C213.893 163.135 212.953 162.075 212.953 160.415C212.953 158.755 213.893 157.695 215.343 157.695C216.793 157.695 217.733 158.755 217.733 160.415C217.733 162.075 216.793 163.135 215.343 163.135ZM215.343 162.235C216.083 162.235 216.583 161.775 216.583 160.855V159.975C216.583 159.055 216.083 158.595 215.343 158.595C214.603 158.595 214.103 159.055 214.103 159.975V160.855C214.103 161.775 214.603 162.235 215.343 162.235ZM220.037 163.015H218.947V157.815H220.037V158.675H220.087C220.297 158.135 220.687 157.695 221.477 157.695C222.177 157.695 222.767 158.035 223.017 158.755H223.047C223.237 158.175 223.777 157.695 224.617 157.695C225.647 157.695 226.257 158.435 226.257 159.715V163.015H225.167V159.845C225.167 159.045 224.867 158.635 224.207 158.635C223.657 158.635 223.147 158.925 223.147 159.525V163.015H222.057V159.845C222.057 159.035 221.747 158.635 221.107 158.635C220.567 158.635 220.037 158.925 220.037 159.525V163.015Z" fill="#171717"/>
<rect x="28" y="179.015" width="35" height="10.9709" fill="#FB923C"/>
<rect x="63" y="179.015" width="172.098" height="10.9709" fill="#E5E5E5"/>
<path d="M34.814 209.985H29.306V209.097H31.646V202.353H31.562L29.45 204.321L28.862 203.685L31.082 201.609H32.654V209.097H34.814V209.985ZM37.0773 208.581C37.5813 208.581 37.8093 208.869 37.8093 209.289V209.457C37.8093 210.105 37.4013 210.993 36.7173 211.581H35.9133C36.3933 211.077 36.6813 210.657 36.8133 210.093C36.4893 210.021 36.3453 209.781 36.3453 209.457V209.289C36.3453 208.869 36.5733 208.581 37.0773 208.581ZM42.3268 210.129C40.5868 210.129 39.5188 208.905 39.5188 206.913C39.5188 204.429 41.1628 202.485 42.5068 201.609H43.8028C42.0148 202.917 41.0188 204.009 40.5628 205.953L40.6228 205.977C41.0188 205.293 41.6188 204.777 42.6388 204.777C44.0788 204.777 45.1108 205.773 45.1108 207.357C45.1108 209.001 44.0068 210.129 42.3268 210.129ZM42.3148 209.253C43.4188 209.253 44.0668 208.617 44.0668 207.489V207.393C44.0668 206.265 43.4188 205.629 42.3148 205.629C41.2108 205.629 40.5628 206.265 40.5628 207.393V207.489C40.5628 208.617 41.2108 209.253 42.3148 209.253ZM49.0902 209.985H48.0102L51.2142 202.473H47.6382V204.033H46.7382V201.609H52.2342V202.497L49.0902 209.985ZM56.2855 209.985H55.2055L58.4095 202.473H54.8335V204.033H53.9335V201.609H59.4295V202.497L56.2855 209.985ZM68.1167 209.985V208.977H68.0687C67.6967 209.745 67.1087 210.129 66.2567 210.129C64.7087 210.129 63.7367 208.869 63.7367 206.889C63.7367 204.909 64.7087 203.649 66.2567 203.649C67.1087 203.649 67.7447 204.021 68.0687 204.801H68.1167V201.105H69.0767V209.985H68.1167ZM66.5207 209.265C67.3967 209.265 68.1167 208.809 68.1167 208.005V205.701C68.1167 205.017 67.3967 204.513 66.5207 204.513C65.4407 204.513 64.7687 205.257 64.7687 206.361V207.417C64.7687 208.521 65.4407 209.265 66.5207 209.265ZM76.1577 209.985H75.6177C74.9097 209.985 74.6217 209.553 74.5497 208.977H74.4897C74.2257 209.733 73.5657 210.129 72.7017 210.129C71.3937 210.129 70.6257 209.409 70.6257 208.257C70.6257 207.093 71.4657 206.445 73.2657 206.445H74.4897V205.833C74.4897 204.957 74.0097 204.477 73.0257 204.477C72.2817 204.477 71.7897 204.837 71.4537 205.401L70.8777 204.861C71.2137 204.201 71.9577 203.649 73.0737 203.649C74.5617 203.649 75.4497 204.429 75.4497 205.737V209.145H76.1577V209.985ZM72.8577 209.313C73.8057 209.313 74.4897 208.821 74.4897 208.185V207.165H73.2177C72.1257 207.165 71.6337 207.501 71.6337 208.101V208.353C71.6337 208.965 72.1137 209.313 72.8577 209.313ZM80.0958 209.985H78.8958C78.2358 209.985 77.8758 209.565 77.8758 208.965V204.633H76.8558V203.793H77.4318C77.8398 203.793 77.9718 203.649 77.9718 203.229V202.077H78.8358V203.793H80.1918V204.633H78.8358V209.145H80.0958V209.985ZM86.7748 209.985H86.2348C85.5268 209.985 85.2388 209.553 85.1668 208.977H85.1068C84.8428 209.733 84.1828 210.129 83.3188 210.129C82.0108 210.129 81.2428 209.409 81.2428 208.257C81.2428 207.093 82.0828 206.445 83.8828 206.445H85.1068V205.833C85.1068 204.957 84.6268 204.477 83.6428 204.477C82.8988 204.477 82.4068 204.837 82.0708 205.401L81.4948 204.861C81.8308 204.201 82.5748 203.649 83.6908 203.649C85.1788 203.649 86.0668 204.429 86.0668 205.737V209.145H86.7748V209.985ZM83.4748 209.313C84.4228 209.313 85.1068 208.821 85.1068 208.185V207.165H83.8348C82.7428 207.165 82.2508 207.501 82.2508 208.101V208.353C82.2508 208.965 82.7308 209.313 83.4748 209.313ZM91.9409 209.985H90.9809V203.793H91.9409V204.933H92.0009C92.2169 204.345 92.7809 203.793 93.7889 203.793H94.1609V204.753H93.5969C92.5649 204.753 91.9409 205.197 91.9409 205.785V209.985ZM97.6686 210.129C96.0126 210.129 94.8726 208.857 94.8726 206.889C94.8726 204.921 96.0126 203.649 97.6686 203.649C99.3246 203.649 100.465 204.921 100.465 206.889C100.465 208.857 99.3246 210.129 97.6686 210.129ZM97.6686 209.277C98.7006 209.277 99.4326 208.641 99.4326 207.333V206.445C99.4326 205.137 98.7006 204.501 97.6686 204.501C96.6366 204.501 95.9046 205.137 95.9046 206.445V207.333C95.9046 208.641 96.6366 209.277 97.6686 209.277ZM102.993 209.985L101.337 203.793H102.273L102.933 206.469L103.593 209.181H103.617L104.373 206.469L105.153 203.793H106.005L106.809 206.469L107.577 209.181H107.601L108.237 206.469L108.909 203.793H109.809L108.165 209.985H106.977L106.113 207.009L105.573 205.125H105.549L105.021 207.009L104.157 209.985H102.993ZM113.032 210.129C111.892 210.129 111.136 209.649 110.584 208.917L111.268 208.365C111.748 208.965 112.324 209.313 113.104 209.313C113.92 209.313 114.4 208.941 114.4 208.305C114.4 207.825 114.136 207.453 113.32 207.333L112.828 207.261C111.688 207.093 110.836 206.625 110.836 205.473C110.836 204.249 111.784 203.649 113.044 203.649C114.04 203.649 114.7 204.021 115.204 204.645L114.568 205.221C114.292 204.837 113.764 204.465 112.972 204.465C112.18 204.465 111.76 204.837 111.76 205.425C111.76 206.025 112.18 206.265 112.948 206.385L113.428 206.457C114.796 206.661 115.324 207.261 115.324 208.197C115.324 209.397 114.448 210.129 113.032 210.129Z" fill="#737373"/>
<path d="M132.101 233.129V232.58H131.004V233.129H132.101ZM131.553 244.1L134.72 238.614H128.386L131.553 244.1ZM131.004 233.129V239.163H132.101V233.129H131.004Z" fill="#D4D4D4"/>
<rect x="18.5" y="246.015" width="226.098" height="94.485" rx="13.5" fill="white"/>
<rect x="18.5" y="246.015" width="226.098" height="94.485" rx="13.5" stroke="#171717"/>
<path d="M29.4383 276.607V265.439H33.2623C36.0943 265.439 37.9183 267.295 37.9183 271.023C37.9183 274.751 36.0943 276.607 33.2623 276.607H29.4383ZM30.9903 275.231H33.2623C35.0383 275.231 36.2543 274.047 36.2543 271.919V270.127C36.2543 267.999 35.0383 266.815 33.2623 266.815H30.9903V275.231ZM43.3068 276.799C41.0508 276.799 39.5308 275.103 39.5308 272.463C39.5308 269.823 41.0508 268.127 43.3068 268.127C45.5628 268.127 47.0828 269.823 47.0828 272.463C47.0828 275.103 45.5628 276.799 43.3068 276.799ZM43.3068 275.519C44.6028 275.519 45.4988 274.703 45.4988 273.087V271.839C45.4988 270.223 44.6028 269.407 43.3068 269.407C42.0108 269.407 41.1148 270.223 41.1148 271.839V273.087C41.1148 274.703 42.0108 275.519 43.3068 275.519ZM50.5952 276.607H49.1072V268.319H50.5952V269.679H50.6752C51.0592 268.767 51.7632 268.127 53.0112 268.127C54.7072 268.127 55.7472 269.295 55.7472 271.311V276.607H54.2592V271.535C54.2592 270.143 53.6832 269.423 52.5152 269.423C51.5392 269.423 50.5952 269.919 50.5952 270.927V276.607ZM61.447 276.799C59.143 276.799 57.687 275.087 57.687 272.463C57.687 269.839 59.143 268.127 61.447 268.127C63.767 268.127 65.079 269.887 65.079 272.207V272.831H59.239V273.167C59.239 274.543 60.087 275.535 61.575 275.535C62.615 275.535 63.367 275.039 63.815 274.191L64.775 275.007C64.199 276.079 62.999 276.799 61.447 276.799ZM61.447 269.327C60.151 269.327 59.239 270.319 59.239 271.679V271.791H63.495V271.631C63.495 270.255 62.695 269.327 61.447 269.327Z" fill="#171717"/>
<rect x="28" y="287.772" width="144.816" height="10.9709" fill="#FB923C"/>
<rect x="172.816" y="287.772" width="62.2818" height="10.9709" fill="#E5E5E5"/>
<path d="M35.6885 319.376H34.7285V317.732H30.6845V316.844L34.1885 311H35.6885V316.892H36.9005V317.732H35.6885V319.376ZM34.6685 311.78L31.6325 316.892H34.7285V311.78H34.6685ZM41.0238 319.52C39.0198 319.52 38.1438 317.924 38.1438 315.188C38.1438 312.452 39.0198 310.856 41.0238 310.856C43.0278 310.856 43.9038 312.452 43.9038 315.188C43.9038 317.924 43.0278 319.52 41.0238 319.52ZM41.0238 318.644C42.3318 318.644 42.8478 317.492 42.8478 315.872V314.504C42.8478 312.884 42.3318 311.732 41.0238 311.732C39.7158 311.732 39.1998 312.884 39.1998 314.504V315.872C39.1998 317.492 39.7158 318.644 41.0238 318.644ZM48.2311 319.52C46.4911 319.52 45.4231 318.296 45.4231 316.304C45.4231 313.82 47.0671 311.876 48.4111 311H49.7071C47.9191 312.308 46.9231 313.4 46.4671 315.344L46.5271 315.368C46.9231 314.684 47.5231 314.168 48.5431 314.168C49.9831 314.168 51.0151 315.164 51.0151 316.748C51.0151 318.392 49.9111 319.52 48.2311 319.52ZM48.2191 318.644C49.3231 318.644 49.9711 318.008 49.9711 316.88V316.784C49.9711 315.656 49.3231 315.02 48.2191 315.02C47.1151 315.02 46.4671 315.656 46.4671 316.784V316.88C46.4671 318.008 47.1151 318.644 48.2191 318.644ZM57.2745 319.376H56.3145V317.732H52.2705V316.844L55.7745 311H57.2745V316.892H58.4865V317.732H57.2745V319.376ZM56.2545 311.78L53.2185 316.892H56.3145V311.78H56.2545ZM66.8257 319.376V318.368H66.7777C66.4057 319.136 65.8177 319.52 64.9657 319.52C63.4177 319.52 62.4457 318.26 62.4457 316.28C62.4457 314.3 63.4177 313.04 64.9657 313.04C65.8177 313.04 66.4537 313.412 66.7777 314.192H66.8257V310.496H67.7857V319.376H66.8257ZM65.2297 318.656C66.1057 318.656 66.8257 318.2 66.8257 317.396V315.092C66.8257 314.408 66.1057 313.904 65.2297 313.904C64.1497 313.904 63.4777 314.648 63.4777 315.752V316.808C63.4777 317.912 64.1497 318.656 65.2297 318.656ZM74.8666 319.376H74.3266C73.6186 319.376 73.3306 318.944 73.2586 318.368H73.1986C72.9346 319.124 72.2746 319.52 71.4106 319.52C70.1026 319.52 69.3346 318.8 69.3346 317.648C69.3346 316.484 70.1746 315.836 71.9746 315.836H73.1986V315.224C73.1986 314.348 72.7186 313.868 71.7346 313.868C70.9906 313.868 70.4986 314.228 70.1626 314.792L69.5866 314.252C69.9226 313.592 70.6666 313.04 71.7826 313.04C73.2706 313.04 74.1586 313.82 74.1586 315.128V318.536H74.8666V319.376ZM71.5666 318.704C72.5146 318.704 73.1986 318.212 73.1986 317.576V316.556H71.9266C70.8346 316.556 70.3426 316.892 70.3426 317.492V317.744C70.3426 318.356 70.8226 318.704 71.5666 318.704ZM78.8048 319.376H77.6048C76.9448 319.376 76.5848 318.956 76.5848 318.356V314.024H75.5648V313.184H76.1408C76.5488 313.184 76.6808 313.04 76.6808 312.62V311.468H77.5448V313.184H78.9008V314.024H77.5448V318.536H78.8048V319.376ZM85.4838 319.376H84.9438C84.2358 319.376 83.9478 318.944 83.8758 318.368H83.8158C83.5518 319.124 82.8918 319.52 82.0278 319.52C80.7198 319.52 79.9518 318.8 79.9518 317.648C79.9518 316.484 80.7918 315.836 82.5918 315.836H83.8158V315.224C83.8158 314.348 83.3358 313.868 82.3518 313.868C81.6078 313.868 81.1158 314.228 80.7798 314.792L80.2038 314.252C80.5398 313.592 81.2838 313.04 82.3998 313.04C83.8878 313.04 84.7758 313.82 84.7758 315.128V318.536H85.4838V319.376ZM82.1838 318.704C83.1318 318.704 83.8158 318.212 83.8158 317.576V316.556H82.5438C81.4518 316.556 80.9598 316.892 80.9598 317.492V317.744C80.9598 318.356 81.4398 318.704 82.1838 318.704ZM90.6499 319.376H89.6899V313.184H90.6499V314.324H90.7099C90.9259 313.736 91.4899 313.184 92.4979 313.184H92.8699V314.144H92.3059C91.2739 314.144 90.6499 314.588 90.6499 315.176V319.376ZM96.3776 319.52C94.7216 319.52 93.5816 318.248 93.5816 316.28C93.5816 314.312 94.7216 313.04 96.3776 313.04C98.0336 313.04 99.1736 314.312 99.1736 316.28C99.1736 318.248 98.0336 319.52 96.3776 319.52ZM96.3776 318.668C97.4096 318.668 98.1416 318.032 98.1416 316.724V315.836C98.1416 314.528 97.4096 313.892 96.3776 313.892C95.3456 313.892 94.6136 314.528 94.6136 315.836V316.724C94.6136 318.032 95.3456 318.668 96.3776 318.668ZM101.702 319.376L100.046 313.184H100.982L101.642 315.86L102.302 318.572H102.326L103.082 315.86L103.862 313.184H104.714L105.518 315.86L106.286 318.572H106.31L106.946 315.86L107.618 313.184H108.518L106.874 319.376H105.686L104.822 316.4L104.282 314.516H104.258L103.73 316.4L102.866 319.376H101.702ZM111.741 319.52C110.601 319.52 109.845 319.04 109.293 318.308L109.977 317.756C110.457 318.356 111.033 318.704 111.813 318.704C112.629 318.704 113.109 318.332 113.109 317.696C113.109 317.216 112.845 316.844 112.029 316.724L111.537 316.652C110.397 316.484 109.545 316.016 109.545 314.864C109.545 313.64 110.493 313.04 111.753 313.04C112.749 313.04 113.409 313.412 113.913 314.036L113.277 314.612C113.001 314.228 112.473 313.856 111.681 313.856C110.889 313.856 110.469 314.228 110.469 314.816C110.469 315.416 110.889 315.656 111.657 315.776L112.137 315.848C113.505 316.052 114.033 316.652 114.033 317.588C114.033 318.788 113.157 319.52 111.741 319.52Z" fill="#737373"/>
<rect x="259.5" y="21.5" width="394" height="319" rx="17.5" fill="white"/>
<rect x="259.5" y="21.5" width="394" height="319" rx="17.5" stroke="#171717"/>
<path d="M302.147 72.432H296.309V61.9288H297.768V71.1379H302.147V72.432ZM310.286 72.432H309.488C308.63 72.432 308.224 71.8903 308.119 71.1379H308.044C307.728 72.101 306.9 72.6126 305.786 72.6126C304.161 72.6126 303.213 71.7097 303.213 70.2802C303.213 68.7754 304.312 67.9629 306.539 67.9629H308.013V67.2556C308.013 66.2173 307.457 65.6305 306.283 65.6305C305.365 65.6305 304.778 66.0819 304.372 66.744L303.529 65.9766C303.996 65.1339 304.914 64.4568 306.358 64.4568C308.299 64.4568 309.413 65.4499 309.413 67.1352V71.2432H310.286V72.432ZM306.102 71.484C307.201 71.484 308.013 70.9272 308.013 70.1448V68.941H306.524C305.245 68.941 304.673 69.3322 304.673 70.0545V70.3554C304.673 71.0777 305.23 71.484 306.102 71.484ZM311.956 72.432V61.2968H313.356V65.9164H313.416C313.777 64.9533 314.589 64.4568 315.658 64.4568C317.614 64.4568 318.788 66.0067 318.788 68.5347C318.788 71.0627 317.614 72.6126 315.658 72.6126C314.589 72.6126 313.777 72.116 313.416 71.153H313.356V72.432H311.956ZM315.252 71.3937C316.501 71.3937 317.298 70.5059 317.298 69.1968V67.8726C317.298 66.5634 316.501 65.6756 315.252 65.6756C314.198 65.6756 313.356 66.2775 313.356 67.1051V69.9642C313.356 70.7918 314.198 71.3937 315.252 71.3937ZM323.738 72.6126C321.571 72.6126 320.202 71.0025 320.202 68.5347C320.202 66.0669 321.571 64.4568 323.738 64.4568C325.92 64.4568 327.154 66.112 327.154 68.2939V68.8808H321.661V69.1968C321.661 70.4909 322.459 71.4238 323.858 71.4238C324.836 71.4238 325.544 70.9573 325.965 70.1598L326.868 70.9272C326.326 71.9354 325.197 72.6126 323.738 72.6126ZM323.738 65.5853C322.519 65.5853 321.661 66.5183 321.661 67.7973V67.9027H325.664V67.7522C325.664 66.4581 324.912 65.5853 323.738 65.5853ZM331.574 72.432H330.521C329.558 72.432 329.061 71.8602 329.061 71.0025V61.2968H330.461V71.2432H331.574V72.432ZM333.956 63.0122C333.37 63.0122 333.114 62.6962 333.114 62.2448V62.0341C333.114 61.5827 333.37 61.2667 333.956 61.2667C334.543 61.2667 334.799 61.5827 334.799 62.0341V62.2448C334.799 62.6962 334.543 63.0122 333.956 63.0122ZM333.249 72.432V64.6373H334.649V72.432H333.249ZM338.513 72.432H337.114V64.6373H338.513V65.9164H338.589C338.95 65.0587 339.612 64.4568 340.786 64.4568C342.381 64.4568 343.359 65.5552 343.359 67.4512V72.432H341.959V67.6619C341.959 66.3528 341.418 65.6756 340.319 65.6756C339.401 65.6756 338.513 66.1421 338.513 67.0901V72.432ZM352.436 73.2295C352.436 74.8396 351.202 75.6221 348.569 75.6221C346.086 75.6221 345.093 74.9299 345.093 73.7261C345.093 72.8834 345.574 72.417 346.372 72.2213V72.0558C345.875 71.8602 345.604 71.469 345.604 70.9122C345.604 70.1297 346.191 69.7385 346.959 69.5579V69.4977C346.041 69.0613 345.514 68.2036 345.514 67.1352C345.514 65.5552 346.658 64.4568 348.524 64.4568C349.065 64.4568 349.547 64.5621 349.968 64.7276V64.5621C349.968 63.9151 350.254 63.4937 350.916 63.4937H352.105V64.6674H350.57V65.0888C351.202 65.5552 351.548 66.2775 351.548 67.1352C351.548 68.7152 350.405 69.7987 348.524 69.7987C348.223 69.7987 347.907 69.7686 347.651 69.7084C347.199 69.8438 346.763 70.0996 346.763 70.536C346.763 70.9874 347.199 71.1229 347.907 71.1229H349.682C351.608 71.1229 352.436 71.9204 352.436 73.2295ZM351.127 73.365C351.127 72.7781 350.736 72.4019 349.592 72.4019H346.974C346.537 72.6276 346.342 72.9587 346.342 73.3951C346.342 74.0421 346.808 74.5537 348.027 74.5537H349.08C350.405 74.5537 351.127 74.1625 351.127 73.365ZM348.539 68.7453C349.532 68.7453 350.149 68.2789 350.149 67.3309V66.9396C350.149 65.9916 349.532 65.5251 348.539 65.5251C347.546 65.5251 346.929 65.9916 346.929 66.9396V67.3309C346.929 68.2789 347.546 68.7453 348.539 68.7453ZM364.497 72.432L363.444 71.2733C362.977 71.8 362.044 72.6126 360.389 72.6126C358.267 72.6126 357.109 71.3335 357.109 69.7084C357.109 68.1585 358.147 67.361 359.246 66.744C358.553 66.0067 358.072 65.2091 358.072 64.2762C358.072 62.8617 359.17 61.7482 360.871 61.7482C362.406 61.7482 363.489 62.6511 363.489 64.0354C363.489 65.4048 362.436 66.2023 361.142 66.9246L363.369 69.3171C363.654 68.5648 363.805 67.7071 363.85 66.8644H365.987V68.0381H364.949C364.798 68.8657 364.557 69.6031 364.226 70.2351L366.288 72.432H364.497ZM360.81 62.8918C360.013 62.8918 359.426 63.4486 359.426 64.201V64.3514C359.426 64.9232 359.802 65.465 360.419 66.1421C361.307 65.6455 362.15 65.0286 362.15 64.2461V64.0806C362.15 63.3282 361.533 62.8918 360.81 62.8918ZM360.54 71.4088C361.473 71.4088 362.165 71.0326 362.676 70.4457L359.968 67.5415C359.185 67.9629 358.553 68.4444 358.553 69.4977V69.7084C358.553 70.7467 359.321 71.4088 360.54 71.4088ZM372.977 68.0682V72.432H371.518V61.9288H375.851C377.702 61.9288 378.831 63.0874 378.831 65.0135C378.831 66.5333 378.123 67.5716 376.769 67.9177L379.102 72.432H377.461L375.279 68.0682H372.977ZM372.977 66.8042H375.791C376.724 66.8042 377.281 66.2926 377.281 65.3897V64.6373C377.281 63.7345 376.724 63.2229 375.791 63.2229H372.977V66.8042ZM383.899 72.6126C381.732 72.6126 380.363 71.0025 380.363 68.5347C380.363 66.0669 381.732 64.4568 383.899 64.4568C386.081 64.4568 387.315 66.112 387.315 68.2939V68.8808H381.822V69.1968C381.822 70.4909 382.62 71.4238 384.019 71.4238C384.997 71.4238 385.705 70.9573 386.126 70.1598L387.029 70.9272C386.487 71.9354 385.359 72.6126 383.899 72.6126ZM383.899 65.5853C382.68 65.5853 381.822 66.5183 381.822 67.7973V67.9027H385.825V67.7522C385.825 66.4581 385.073 65.5853 383.899 65.5853ZM392.445 72.432H390.805L388.111 64.6373H389.511L390.79 68.3691L391.603 71.0627H391.693L392.52 68.3691L393.815 64.6373H395.154L392.445 72.432ZM397.336 63.0122C396.749 63.0122 396.493 62.6962 396.493 62.2448V62.0341C396.493 61.5827 396.749 61.2667 397.336 61.2667C397.923 61.2667 398.178 61.5827 398.178 62.0341V62.2448C398.178 62.6962 397.923 63.0122 397.336 63.0122ZM396.628 72.432V64.6373H398.028V72.432H396.628ZM403.473 72.6126C401.306 72.6126 399.936 71.0025 399.936 68.5347C399.936 66.0669 401.306 64.4568 403.473 64.4568C405.655 64.4568 406.888 66.112 406.888 68.2939V68.8808H401.396V69.1968C401.396 70.4909 402.194 71.4238 403.593 71.4238C404.571 71.4238 405.278 70.9573 405.7 70.1598L406.603 70.9272C406.061 71.9354 404.932 72.6126 403.473 72.6126ZM403.473 65.5853C402.254 65.5853 401.396 66.5183 401.396 67.7973V67.9027H405.399V67.7522C405.399 66.4581 404.646 65.5853 403.473 65.5853ZM410.016 72.432L407.925 64.6373H409.279L410.092 67.9629L410.874 71.168H410.904L411.792 67.9629L412.755 64.6373H414.004L414.997 67.9629L415.9 71.168H415.945L416.683 67.9629L417.51 64.6373H418.819L416.743 72.432H415.087L414.034 68.7754L413.372 66.4882H413.342L412.695 68.7754L411.642 72.432H410.016ZM421.2 63.0122C420.613 63.0122 420.358 62.6962 420.358 62.2448V62.0341C420.358 61.5827 420.613 61.2667 421.2 61.2667C421.787 61.2667 422.043 61.5827 422.043 62.0341V62.2448C422.043 62.6962 421.787 63.0122 421.2 63.0122ZM420.493 72.432V64.6373H421.892V72.432H420.493ZM425.757 72.432H424.358V64.6373H425.757V65.9164H425.832C426.194 65.0587 426.856 64.4568 428.029 64.4568C429.624 64.4568 430.603 65.5552 430.603 67.4512V72.432H429.203V67.6619C429.203 66.3528 428.661 65.6756 427.563 65.6756C426.645 65.6756 425.757 66.1421 425.757 67.0901V72.432ZM439.68 73.2295C439.68 74.8396 438.446 75.6221 435.813 75.6221C433.33 75.6221 432.337 74.9299 432.337 73.7261C432.337 72.8834 432.818 72.417 433.616 72.2213V72.0558C433.119 71.8602 432.848 71.469 432.848 70.9122C432.848 70.1297 433.435 69.7385 434.203 69.5579V69.4977C433.285 69.0613 432.758 68.2036 432.758 67.1352C432.758 65.5552 433.902 64.4568 435.768 64.4568C436.309 64.4568 436.791 64.5621 437.212 64.7276V64.5621C437.212 63.9151 437.498 63.4937 438.16 63.4937H439.349V64.6674H437.814V65.0888C438.446 65.5552 438.792 66.2775 438.792 67.1352C438.792 68.7152 437.648 69.7987 435.768 69.7987C435.467 69.7987 435.151 69.7686 434.895 69.7084C434.443 69.8438 434.007 70.0996 434.007 70.536C434.007 70.9874 434.443 71.1229 435.151 71.1229H436.926C438.852 71.1229 439.68 71.9204 439.68 73.2295ZM438.371 73.365C438.371 72.7781 437.98 72.4019 436.836 72.4019H434.218C433.781 72.6276 433.586 72.9587 433.586 73.3951C433.586 74.0421 434.052 74.5537 435.271 74.5537H436.324C437.648 74.5537 438.371 74.1625 438.371 73.365ZM435.783 68.7453C436.776 68.7453 437.393 68.2789 437.393 67.3309V66.9396C437.393 65.9916 436.776 65.5251 435.783 65.5251C434.789 65.5251 434.172 65.9916 434.172 66.9396V67.3309C434.172 68.2789 434.789 68.7453 435.783 68.7453ZM451.199 72.432V67.7672H446.143V72.432H444.684V61.9288H446.143V66.4731H451.199V61.9288H452.659V72.432H451.199ZM458.241 72.6126C456.119 72.6126 454.69 71.0175 454.69 68.5347C454.69 66.0518 456.119 64.4568 458.241 64.4568C460.363 64.4568 461.792 66.0518 461.792 68.5347C461.792 71.0175 460.363 72.6126 458.241 72.6126ZM458.241 71.4088C459.46 71.4088 460.303 70.6413 460.303 69.1215V67.9478C460.303 66.428 459.46 65.6606 458.241 65.6606C457.022 65.6606 456.179 66.428 456.179 67.9478V69.1215C456.179 70.6413 457.022 71.4088 458.241 71.4088ZM468.466 72.432V71.153H468.391C468.105 71.9053 467.503 72.6126 466.209 72.6126C464.614 72.6126 463.621 71.5141 463.621 69.6181V64.6373H465.02V69.4074C465.02 70.7166 465.577 71.3937 466.676 71.3937C467.563 71.3937 468.466 70.9423 468.466 69.9642V64.6373H469.866V72.432H468.466ZM473.736 72.432H472.337V64.6373H473.736V66.1271H473.811C474.067 65.3596 474.759 64.6373 476.008 64.6373H476.475V66.0368H475.783C474.489 66.0368 473.736 66.5484 473.736 67.3158V72.432ZM480.372 72.6126C478.928 72.6126 477.98 72.0257 477.257 71.1078L478.205 70.2952C478.792 71.0326 479.514 71.4539 480.462 71.4539C481.456 71.4539 481.997 71.0175 481.997 70.2952C481.997 69.7234 481.696 69.3171 480.748 69.1817L480.086 69.0764C478.597 68.8657 477.558 68.2488 477.558 66.8042C477.558 65.2693 478.747 64.4568 480.387 64.4568C481.711 64.4568 482.539 64.9232 483.201 65.7057L482.313 66.5484C481.937 66.0518 481.275 65.6154 480.342 65.6154C479.394 65.6154 478.913 66.0518 478.913 66.7139C478.913 67.4061 479.364 67.692 480.267 67.8274L480.929 67.9328C482.644 68.1886 483.352 68.941 483.352 70.1448C483.352 71.6646 482.208 72.6126 480.372 72.6126Z" fill="#171717"/>
<rect x="317.131" y="108.214" width="23.5119" height="53.6071" fill="#E5E5E5"/>
<rect x="317.131" y="161.821" width="23.5119" height="119.44" fill="#FB923C"/>
<path d="M318.213 290.697H321.457V295.531C321.457 296.66 320.649 297.375 319.473 297.375C318.41 297.375 317.714 296.791 317.517 295.823L318.382 295.644C318.504 296.171 318.786 296.594 319.482 296.594C320.16 296.594 320.545 296.208 320.545 295.39V291.478H318.213V290.697ZM326.805 297.262V296.453H326.767C326.561 296.942 326.175 297.375 325.376 297.375C324.379 297.375 323.711 296.707 323.711 295.531V292.409H324.586V295.381C324.586 296.218 324.962 296.632 325.667 296.632C326.241 296.632 326.805 296.349 326.805 295.738V292.409H327.68V297.262H326.805ZM329.651 297.262V296.538H331.297V291.026H329.651V290.302H332.172V296.538H333.827V297.262H329.651ZM338.46 294.44L339.259 292.409H340.143L337.754 298.268C337.519 298.851 337.209 299.143 336.456 299.143H335.695V298.419H336.823L337.322 297.177L335.365 292.409H336.278L337.077 294.44L337.745 296.199H337.792L338.46 294.44Z" fill="#737373"/>
<rect x="364.549" y="205.083" width="23.5119" height="10.3452" fill="#E5E5E5"/>
<rect x="364.549" y="215.428" width="23.5119" height="65.8333" fill="#FB923C"/>
<path d="M372.713 297.262H371.744L371.218 295.447H369.007L368.481 297.262H367.55L369.515 290.697H370.747L372.713 297.262ZM371.02 294.675L370.155 291.638H370.07L369.205 294.675H371.02ZM377.224 297.262V296.453H377.186C376.979 296.942 376.593 297.375 375.794 297.375C374.797 297.375 374.129 296.707 374.129 295.531V292.409H375.004V295.381C375.004 296.218 375.38 296.632 376.086 296.632C376.659 296.632 377.224 296.349 377.224 295.738V292.409H378.098V297.262H377.224ZM384.65 297.807C384.65 298.795 383.822 299.256 382.157 299.256C380.54 299.256 379.928 298.814 379.928 298.071C379.928 297.544 380.229 297.271 380.747 297.13V297.027C380.446 296.904 380.267 296.688 380.267 296.349C380.267 295.851 380.634 295.635 381.142 295.512V295.465C380.549 295.202 380.201 294.675 380.201 293.979C380.201 292.964 380.963 292.296 382.12 292.296C382.477 292.296 382.797 292.352 383.06 292.475V292.352C383.06 291.976 383.248 291.694 383.681 291.694H384.565V292.428H383.455V292.71C383.841 293.001 384.057 293.443 384.057 293.979C384.057 294.995 383.286 295.663 382.12 295.663C381.941 295.663 381.762 295.654 381.602 295.616C381.339 295.682 380.991 295.832 380.991 296.133C380.991 296.434 381.311 296.491 381.762 296.491H382.834C384.114 296.491 384.65 297.008 384.65 297.807ZM383.831 297.854C383.831 297.497 383.577 297.262 382.834 297.262H381.16C380.878 297.384 380.728 297.581 380.728 297.864C380.728 298.268 381.019 298.597 381.781 298.597H382.534C383.361 298.597 383.831 298.343 383.831 297.854ZM382.12 295.023C382.834 295.023 383.164 294.657 383.164 294.111V293.848C383.164 293.302 382.834 292.936 382.12 292.936C381.414 292.936 381.095 293.302 381.095 293.848V294.111C381.095 294.657 381.414 295.023 382.12 295.023Z" fill="#737373"/>
<rect x="411.968" y="104.452" width="23.5119" height="26.3333" fill="#E5E5E5"/>
<rect x="411.968" y="130.786" width="23.5119" height="150.476" fill="#FB923C"/>
<path d="M414.666 297.375C413.509 297.375 412.775 296.914 412.277 296.246L412.897 295.691C413.405 296.312 413.951 296.603 414.703 296.603C415.597 296.603 416.086 296.171 416.086 295.428C416.086 294.826 415.775 294.506 414.929 294.365L414.205 294.243C412.935 294.036 412.512 293.293 412.512 292.437C412.512 291.224 413.368 290.584 414.741 290.584C415.775 290.584 416.499 290.951 416.941 291.562L416.34 292.127C415.982 291.666 415.503 291.356 414.731 291.356C413.894 291.356 413.433 291.713 413.433 292.409C413.433 292.973 413.725 293.312 414.6 293.462L415.305 293.584C416.546 293.801 417.007 294.506 417.007 295.39C417.007 296.613 416.161 297.375 414.666 297.375ZM420.813 297.375C419.374 297.375 418.499 296.387 418.499 294.845C418.499 293.284 419.411 292.296 420.747 292.296C422.082 292.296 422.938 293.284 422.938 294.685V295.052H419.402V295.249C419.402 296.058 419.938 296.641 420.822 296.641C421.452 296.641 421.932 296.34 422.195 295.842L422.788 296.302C422.477 296.923 421.791 297.375 420.813 297.375ZM420.756 292.992C419.966 292.992 419.402 293.575 419.402 294.374V294.45H422.026V294.346C422.026 293.537 421.518 292.992 420.756 292.992ZM424.74 299.143V292.409H425.615V293.218H425.662C425.953 292.625 426.442 292.296 427.148 292.296C428.304 292.296 429.029 293.218 429.029 294.835C429.029 296.453 428.304 297.375 427.148 297.375C426.442 297.375 425.953 297.045 425.662 296.453H425.615V299.143H424.74ZM426.79 296.632C427.618 296.632 428.098 296.077 428.098 295.24V294.431C428.098 293.594 427.618 293.039 426.79 293.039C426.16 293.039 425.615 293.368 425.615 293.989V295.682C425.615 296.302 426.16 296.632 426.79 296.632ZM434.884 297.262H433.013C432.223 297.262 431.856 296.782 431.856 296.096V293.133H430.304V292.409H431.433C431.771 292.409 431.903 292.287 431.903 291.939V290.697H432.73V292.409H434.884V293.133H432.73V296.538H434.884V297.262Z" fill="#737373"/>
<rect x="459.387" y="150.536" width="23.5119" height="32.9167" fill="#E5E5E5"/>
<rect x="459.387" y="183.452" width="23.5119" height="97.8095" fill="#FB923C"/>
<path d="M465.129 297.375C463.502 297.375 462.778 296.124 462.778 293.979C462.778 291.835 463.502 290.584 465.129 290.584C466.756 290.584 467.48 291.835 467.48 293.979C467.48 296.124 466.756 297.375 465.129 297.375ZM465.129 296.603C466.126 296.603 466.512 295.785 466.512 294.525V293.434C466.512 292.174 466.126 291.356 465.129 291.356C464.132 291.356 463.747 292.174 463.747 293.434V294.525C463.747 295.785 464.132 296.603 465.129 296.603ZM471.323 297.375C469.903 297.375 469.066 296.378 469.066 294.835C469.066 293.293 469.912 292.296 471.314 292.296C472.273 292.296 472.865 292.757 473.148 293.425L472.461 293.801C472.282 293.321 471.897 293.03 471.314 293.03C470.477 293.03 469.997 293.613 469.997 294.421V295.249C469.997 296.058 470.467 296.641 471.333 296.641C471.953 296.641 472.348 296.321 472.593 295.823L473.223 296.237C472.931 296.895 472.311 297.375 471.323 297.375ZM479.295 297.262H477.423C476.633 297.262 476.266 296.782 476.266 296.096V293.133H474.715V292.409H475.843C476.182 292.409 476.313 292.287 476.313 291.939V290.697H477.141V292.409H479.295V293.133H477.141V296.538H479.295V297.262Z" fill="#737373"/>
<rect x="506.561" y="108.214" width="23.5119" height="20.6905" fill="#E5E5E5"/>
<rect x="506.562" y="128.905" width="23.5119" height="152.357" fill="#FB923C"/>
<path d="M513.188 297.262L511.081 291.948H511.006V297.262H510.197V290.697H511.42L513.526 296.011H513.601V290.697H514.41V297.262H513.188ZM518.319 297.375C516.927 297.375 516.071 296.387 516.071 294.835C516.071 293.284 516.927 292.296 518.319 292.296C519.711 292.296 520.567 293.284 520.567 294.835C520.567 296.387 519.711 297.375 518.319 297.375ZM518.319 296.65C519.118 296.65 519.636 296.171 519.636 295.193V294.478C519.636 293.5 519.118 293.02 518.319 293.02C517.52 293.02 517.002 293.5 517.002 294.478V295.193C517.002 296.171 517.52 296.65 518.319 296.65ZM524.88 297.262H523.789L522.049 292.409H522.942L523.629 294.45L524.325 296.528H524.372L525.068 294.45L525.745 292.409H526.62L524.88 297.262Z" fill="#737373"/>
<rect x="553.736" y="210.726" width="23.5119" height="6.58333" fill="#E5E5E5"/>
<rect x="553.736" y="217.309" width="23.5119" height="63.9524" fill="#FB923C"/>
<path d="M557.494 297.262V290.697H559.384C561.011 290.697 561.811 291.835 561.811 293.979C561.811 296.124 561.011 297.262 559.384 297.262H557.494ZM558.397 296.491H559.337C560.334 296.491 560.851 295.766 560.851 294.506V293.453C560.851 292.193 560.334 291.468 559.337 291.468H558.397V296.491ZM565.588 297.375C564.149 297.375 563.274 296.387 563.274 294.845C563.274 293.284 564.186 292.296 565.522 292.296C566.857 292.296 567.713 293.284 567.713 294.685V295.052H564.177V295.249C564.177 296.058 564.713 296.641 565.597 296.641C566.227 296.641 566.707 296.34 566.97 295.842L567.563 296.302C567.252 296.923 566.566 297.375 565.588 297.375ZM565.531 292.992C564.741 292.992 564.177 293.575 564.177 294.374V294.45H566.801V294.346C566.801 293.537 566.293 292.992 565.531 292.992ZM571.688 297.375C570.267 297.375 569.43 296.378 569.43 294.835C569.43 293.293 570.277 292.296 571.678 292.296C572.637 292.296 573.23 292.757 573.512 293.425L572.826 293.801C572.647 293.321 572.261 293.03 571.678 293.03C570.841 293.03 570.362 293.613 570.362 294.421V295.249C570.362 296.058 570.832 296.641 571.697 296.641C572.318 296.641 572.713 296.321 572.957 295.823L573.587 296.237C573.296 296.895 572.675 297.375 571.688 297.375Z" fill="#737373"/>
<rect x="600.91" y="190.976" width="23.5119" height="6.58333" fill="#E5E5E5"/>
<rect x="600.91" y="197.559" width="23.5119" height="83.7024" fill="#FB923C"/>
<path d="M605.157 290.697H608.402V295.531C608.402 296.66 607.593 297.375 606.418 297.375C605.355 297.375 604.659 296.791 604.461 295.823L605.327 295.644C605.449 296.171 605.731 296.594 606.427 296.594C607.104 296.594 607.49 296.208 607.49 295.39V291.478H605.157V290.697ZM615.057 297.262H614.483C613.91 297.262 613.656 296.933 613.599 296.462H613.552C613.345 297.027 612.866 297.375 612.085 297.375C611.088 297.375 610.439 296.82 610.439 295.907C610.439 294.986 611.098 294.478 612.546 294.478H613.533V294.045C613.533 293.359 613.148 293.011 612.433 293.011C611.793 293.011 611.408 293.274 611.154 293.707L610.599 293.265C610.853 292.757 611.493 292.296 612.499 292.296C613.674 292.296 614.408 292.907 614.408 293.97V296.538H615.057V297.262ZM612.292 296.688C613.016 296.688 613.533 296.321 613.533 295.832V295.08H612.555C611.728 295.08 611.342 295.324 611.342 295.776V295.973C611.342 296.444 611.709 296.688 612.292 296.688ZM617.602 297.262H616.727V292.409H617.602V293.218H617.64C617.846 292.729 618.232 292.296 619.031 292.296C620.028 292.296 620.696 292.964 620.696 294.139V297.262H619.821V294.29C619.821 293.453 619.445 293.039 618.74 293.039C618.166 293.039 617.602 293.321 617.602 293.932V297.262Z" fill="#737373"/>
<path d="M303 127.791C301.467 127.791 300.658 126.973 300.658 125.892C300.658 125.008 301.204 124.481 301.994 124.274V124.199C301.307 123.964 300.856 123.418 300.856 122.666C300.856 121.669 301.646 121.001 303 121.001C304.354 121.001 305.144 121.669 305.144 122.666C305.144 123.418 304.693 123.964 304.006 124.199V124.274C304.796 124.481 305.342 125.008 305.342 125.892C305.342 126.973 304.533 127.791 303 127.791ZM303 127.048C303.865 127.048 304.392 126.625 304.392 125.929V125.722C304.392 125.017 303.884 124.603 303 124.603C302.116 124.603 301.608 125.017 301.608 125.722V125.929C301.608 126.625 302.135 127.048 303 127.048ZM303 123.888C303.799 123.888 304.241 123.522 304.241 122.882V122.75C304.241 122.12 303.79 121.744 303 121.744C302.21 121.744 301.758 122.12 301.758 122.75V122.882C301.758 123.522 302.2 123.888 303 123.888ZM303.019 166.791C301.599 166.791 300.733 165.823 300.733 164.252C300.733 162.324 302.031 160.819 303.113 160.114H304.307C302.84 161.158 302.022 162.023 301.674 163.5L301.721 163.518C302.031 162.992 302.492 162.569 303.32 162.569C304.458 162.569 305.276 163.349 305.276 164.6C305.276 165.888 304.382 166.791 303.019 166.791ZM303.009 166.039C303.856 166.039 304.354 165.55 304.354 164.713V164.628C304.354 163.782 303.856 163.302 303.009 163.302C302.163 163.302 301.664 163.782 301.664 164.628V164.713C301.664 165.55 302.153 166.039 303.009 166.039ZM304.542 204.678H303.668V203.399H300.479V202.6L303.282 198.114H304.542V202.666H305.483V203.399H304.542V204.678ZM303.621 198.885L301.269 202.666H303.668V198.885H303.621ZM305.257 242.898V243.678H300.818V242.776L302.981 240.848C303.639 240.274 304.063 239.7 304.063 239.061V238.957C304.063 238.214 303.649 237.791 302.896 237.791C302.125 237.791 301.74 238.233 301.552 238.873L300.743 238.572C301.006 237.772 301.627 237.001 302.934 237.001C304.27 237.001 305.022 237.8 305.022 238.92C305.022 239.926 304.392 240.66 303.498 241.421L301.777 242.898H305.257ZM303 282.791C301.373 282.791 300.649 281.54 300.649 279.396C300.649 277.252 301.373 276.001 303 276.001C304.627 276.001 305.351 277.252 305.351 279.396C305.351 281.54 304.627 282.791 303 282.791ZM303 282.02C304.016 282.02 304.411 281.211 304.411 279.951V278.841C304.411 277.581 304.016 276.772 303 276.772C301.984 276.772 301.589 277.581 301.589 278.841V279.951C301.589 281.211 301.984 282.02 303 282.02ZM303 279.951C302.567 279.951 302.417 279.754 302.417 279.5V279.293C302.417 279.039 302.567 278.841 303 278.841C303.433 278.841 303.583 279.039 303.583 279.293V279.5C303.583 279.754 303.433 279.951 303 279.951Z" fill="#737373"/>
<circle cx="518.186" cy="67.4317" r="3.7619" fill="#FB923C"/>
<path d="M529.061 70.4317H528.403C527.801 70.4317 527.49 70.0743 527.49 69.5382V63.4722H528.365V69.6887H529.061V70.4317ZM534.152 70.4317H533.653C533.117 70.4317 532.863 70.0931 532.798 69.6229H532.751C532.553 70.2248 532.036 70.5446 531.34 70.5446C530.324 70.5446 529.732 69.9803 529.732 69.0868C529.732 68.1463 530.418 67.6385 531.81 67.6385H532.732V67.1965C532.732 66.5475 532.384 66.1807 531.65 66.1807C531.077 66.1807 530.71 66.4629 530.456 66.8767L529.929 66.3971C530.221 65.8704 530.794 65.4472 531.697 65.4472C532.911 65.4472 533.606 66.0679 533.606 67.1212V69.6887H534.152V70.4317ZM531.537 69.8392C532.224 69.8392 532.732 69.4912 532.732 69.0022V68.2498H531.801C531.001 68.2498 530.644 68.4943 530.644 68.9457V69.1338C530.644 69.5853 530.992 69.8392 531.537 69.8392ZM535.196 70.4317V63.4722H536.071V66.3594H536.108C536.334 65.7575 536.842 65.4472 537.51 65.4472C538.732 65.4472 539.466 66.4159 539.466 67.9959C539.466 69.5759 538.732 70.5446 537.51 70.5446C536.842 70.5446 536.334 70.2342 536.108 69.6323H536.071V70.4317H535.196ZM537.256 69.7828C538.036 69.7828 538.535 69.2279 538.535 68.4097V67.5821C538.535 66.7638 538.036 66.209 537.256 66.209C536.597 66.209 536.071 66.5852 536.071 67.1024V68.8893C536.071 69.4066 536.597 69.7828 537.256 69.7828ZM542.56 70.5446C541.205 70.5446 540.349 69.5382 540.349 67.9959C540.349 66.4535 541.205 65.4472 542.56 65.4472C543.923 65.4472 544.694 66.4817 544.694 67.8454V68.2122H541.262V68.4097C541.262 69.2185 541.76 69.8016 542.635 69.8016C543.246 69.8016 543.688 69.51 543.951 69.0116L544.516 69.4912C544.177 70.1213 543.472 70.5446 542.56 70.5446ZM542.56 66.1525C541.798 66.1525 541.262 66.7356 541.262 67.535V67.6009H543.763V67.5068C543.763 66.698 543.293 66.1525 542.56 66.1525ZM547.457 70.4317H546.799C546.197 70.4317 545.887 70.0743 545.887 69.5382V63.4722H546.761V69.6887H547.457V70.4317ZM548.946 64.5443C548.579 64.5443 548.419 64.3468 548.419 64.0647V63.933C548.419 63.6509 548.579 63.4534 548.946 63.4534C549.313 63.4534 549.473 63.6509 549.473 63.933V64.0647C549.473 64.3468 549.313 64.5443 548.946 64.5443ZM548.504 70.4317V65.56H549.379V70.4317H548.504ZM551.794 70.4317H550.92V65.56H551.794V66.3594H551.841C552.067 65.8234 552.481 65.4472 553.214 65.4472C554.211 65.4472 554.823 66.1337 554.823 67.3187V70.4317H553.948V67.4504C553.948 66.6322 553.609 66.209 552.923 66.209C552.349 66.209 551.794 66.5005 551.794 67.093V70.4317ZM560.496 70.9302C560.496 71.9365 559.725 72.4255 558.079 72.4255C556.527 72.4255 555.906 71.9929 555.906 71.2405C555.906 70.7138 556.207 70.4223 556.706 70.3V70.1966C556.395 70.0743 556.226 69.8298 556.226 69.4818C556.226 68.9928 556.593 68.7482 557.073 68.6354V68.5978C556.499 68.325 556.17 67.789 556.17 67.1212C556.17 66.1337 556.885 65.4472 558.051 65.4472C558.389 65.4472 558.69 65.513 558.954 65.6165V65.513C558.954 65.1086 559.132 64.8453 559.546 64.8453H560.289V65.5788H559.33V65.8422C559.725 66.1337 559.941 66.5852 559.941 67.1212C559.941 68.1087 559.226 68.7859 558.051 68.7859C557.863 68.7859 557.665 68.7671 557.505 68.7294C557.223 68.8141 556.95 68.974 556.95 69.2467C556.95 69.5288 557.223 69.6135 557.665 69.6135H558.775C559.979 69.6135 560.496 70.1119 560.496 70.9302ZM559.678 71.0148C559.678 70.648 559.433 70.4129 558.718 70.4129H557.082C556.809 70.554 556.687 70.7609 556.687 71.0336C556.687 71.438 556.979 71.7578 557.74 71.7578H558.399C559.226 71.7578 559.678 71.5132 559.678 71.0148ZM558.06 68.1275C558.681 68.1275 559.066 67.836 559.066 67.2435V66.999C559.066 66.4065 558.681 66.1149 558.06 66.1149C557.439 66.1149 557.054 66.4065 557.054 66.999V67.2435C557.054 67.836 557.439 68.1275 558.06 68.1275Z" fill="#737373"/>
<circle cx="575.653" cy="67.4317" r="3.7619" fill="#E5E5E5"/>
<path d="M586.232 70.4317H585.357V65.56H586.232V66.4911H586.279C586.438 66.0115 586.871 65.56 587.652 65.56H587.943V66.4347H587.511C586.702 66.4347 586.232 66.7544 586.232 67.2341V70.4317ZM590.7 70.5446C589.346 70.5446 588.49 69.5382 588.49 67.9959C588.49 66.4535 589.346 65.4472 590.7 65.4472C592.064 65.4472 592.835 66.4817 592.835 67.8454V68.2122H589.402V68.4097C589.402 69.2185 589.9 69.8016 590.775 69.8016C591.386 69.8016 591.828 69.51 592.092 69.0116L592.656 69.4912C592.318 70.1213 591.612 70.5446 590.7 70.5446ZM590.7 66.1525C589.938 66.1525 589.402 66.7356 589.402 67.535V67.6009H591.904V67.5068C591.904 66.698 591.433 66.1525 590.7 66.1525ZM596.041 70.4317H595.016L593.333 65.56H594.207L595.007 67.8924L595.515 69.5759H595.571L596.088 67.8924L596.897 65.56H597.734L596.041 70.4317ZM599.098 64.5443C598.731 64.5443 598.571 64.3468 598.571 64.0647V63.933C598.571 63.6509 598.731 63.4534 599.098 63.4534C599.465 63.4534 599.625 63.6509 599.625 63.933V64.0647C599.625 64.3468 599.465 64.5443 599.098 64.5443ZM598.656 70.4317V65.56H599.53V70.4317H598.656ZM602.933 70.5446C601.579 70.5446 600.723 69.5382 600.723 67.9959C600.723 66.4535 601.579 65.4472 602.933 65.4472C604.297 65.4472 605.068 66.4817 605.068 67.8454V68.2122H601.636V68.4097C601.636 69.2185 602.134 69.8016 603.009 69.8016C603.62 69.8016 604.062 69.51 604.325 69.0116L604.89 69.4912C604.551 70.1213 603.846 70.5446 602.933 70.5446ZM602.933 66.1525C602.172 66.1525 601.636 66.7356 601.636 67.535V67.6009H604.137V67.5068C604.137 66.698 603.667 66.1525 602.933 66.1525ZM607.023 70.4317L605.716 65.56H606.563L607.07 67.6385L607.559 69.6417H607.578L608.133 67.6385L608.735 65.56H609.516L610.136 67.6385L610.701 69.6417H610.729L611.19 67.6385L611.707 65.56H612.525L611.227 70.4317H610.193L609.534 68.1463L609.121 66.7168H609.102L608.697 68.1463L608.039 70.4317H607.023ZM614.013 64.5443C613.646 64.5443 613.487 64.3468 613.487 64.0647V63.933C613.487 63.6509 613.646 63.4534 614.013 63.4534C614.38 63.4534 614.54 63.6509 614.54 63.933V64.0647C614.54 64.3468 614.38 64.5443 614.013 64.5443ZM613.571 70.4317V65.56H614.446V70.4317H613.571ZM616.861 70.4317H615.987V65.56H616.861V66.3594H616.908C617.134 65.8234 617.548 65.4472 618.281 65.4472C619.278 65.4472 619.89 66.1337 619.89 67.3187V70.4317H619.015V67.4504C619.015 66.6322 618.676 66.209 617.99 66.209C617.416 66.209 616.861 66.5005 616.861 67.093V70.4317ZM625.563 70.9302C625.563 71.9365 624.792 72.4255 623.146 72.4255C621.594 72.4255 620.973 71.9929 620.973 71.2405C620.973 70.7138 621.274 70.4223 621.773 70.3V70.1966C621.463 70.0743 621.293 69.8298 621.293 69.4818C621.293 68.9928 621.66 68.7482 622.14 68.6354V68.5978C621.566 68.325 621.237 67.789 621.237 67.1212C621.237 66.1337 621.952 65.4472 623.118 65.4472C623.456 65.4472 623.757 65.513 624.021 65.6165V65.513C624.021 65.1086 624.199 64.8453 624.613 64.8453H625.356V65.5788H624.397V65.8422C624.792 66.1337 625.008 66.5852 625.008 67.1212C625.008 68.1087 624.293 68.7859 623.118 68.7859C622.93 68.7859 622.732 68.7671 622.572 68.7294C622.29 68.8141 622.017 68.974 622.017 69.2467C622.017 69.5288 622.29 69.6135 622.732 69.6135H623.842C625.046 69.6135 625.563 70.1119 625.563 70.9302ZM624.745 71.0148C624.745 70.648 624.5 70.4129 623.785 70.4129H622.149C621.876 70.554 621.754 70.7609 621.754 71.0336C621.754 71.438 622.046 71.7578 622.807 71.7578H623.466C624.293 71.7578 624.745 71.5132 624.745 71.0148ZM623.127 68.1275C623.748 68.1275 624.133 67.836 624.133 67.2435V66.999C624.133 66.4065 623.748 66.1149 623.127 66.1149C622.506 66.1149 622.121 66.4065 622.121 66.999V67.2435C622.121 67.836 622.506 68.1275 623.127 68.1275Z" fill="#737373"/>
<rect x="260.504" y="384.504" width="121.992" height="109.992" rx="13.607" fill="white"/>
<rect x="260.504" y="384.504" width="121.992" height="109.992" rx="13.607" stroke="#171717" stroke-width="1.00792"/>
<path d="M297.92 436.189H296V432.901H287.912V431.125L294.92 419.437H297.92V431.221H300.344V432.901H297.92V436.189ZM295.88 420.997L289.808 431.221H296V420.997H295.88ZM313.343 419.437V421.213H305.999L305.519 427.597H305.687C306.479 426.469 307.367 425.749 309.119 425.749C311.999 425.749 314.111 427.693 314.111 430.933C314.111 434.197 311.999 436.477 308.471 436.477C305.687 436.477 304.247 435.061 303.239 433.621L304.751 432.469C305.615 433.789 306.455 434.677 308.471 434.677C310.751 434.677 311.975 433.405 311.975 431.197V430.957C311.975 428.749 310.751 427.477 308.471 427.477C306.935 427.477 306.167 428.125 305.471 428.893L303.767 428.653L304.367 419.437H313.343ZM323.493 436.189V418.429H325.413V425.821H325.509C326.109 424.429 327.165 423.517 329.013 423.517C331.557 423.517 333.165 425.245 333.165 428.245V436.189H331.245V428.581C331.245 426.373 330.285 425.245 328.437 425.245C326.901 425.245 325.413 426.013 325.413 427.597V436.189H323.493ZM339.054 436.189H337.134V423.805H339.054V426.085H339.174C339.606 424.909 340.734 423.805 342.75 423.805H343.494V425.725H342.366C340.302 425.725 339.054 426.613 339.054 427.789V436.189ZM349.666 436.477C347.386 436.477 345.874 435.517 344.77 434.053L346.138 432.949C347.098 434.149 348.25 434.845 349.81 434.845C351.442 434.845 352.402 434.101 352.402 432.829C352.402 431.869 351.874 431.125 350.242 430.885L349.258 430.741C346.978 430.405 345.274 429.469 345.274 427.165C345.274 424.717 347.17 423.517 349.69 423.517C351.682 423.517 353.002 424.261 354.01 425.509L352.738 426.661C352.186 425.893 351.13 425.149 349.546 425.149C347.962 425.149 347.122 425.893 347.122 427.069C347.122 428.269 347.962 428.749 349.498 428.989L350.458 429.133C353.194 429.541 354.25 430.741 354.25 432.613C354.25 435.013 352.498 436.477 349.666 436.477Z" fill="#171717"/>
<path d="M286.511 460.189V452.845H283.919V451.813H290.267V452.845H287.675V460.189H286.511ZM293.132 460.333C291.44 460.333 290.3 459.061 290.3 457.081C290.3 455.101 291.44 453.829 293.132 453.829C294.824 453.829 295.964 455.101 295.964 457.081C295.964 459.061 294.824 460.333 293.132 460.333ZM293.132 459.373C294.104 459.373 294.776 458.761 294.776 457.549V456.613C294.776 455.401 294.104 454.789 293.132 454.789C292.16 454.789 291.488 455.401 291.488 456.613V457.549C291.488 458.761 292.16 459.373 293.132 459.373ZM300.17 460.189H298.994C298.226 460.189 297.818 459.733 297.818 459.013V454.921H296.822V453.973H297.374C297.794 453.973 297.926 453.817 297.926 453.397V452.257H298.934V453.973H300.266V454.921H298.934V459.241H300.17V460.189ZM306.92 460.189H306.284C305.6 460.189 305.276 459.757 305.192 459.157H305.132C304.88 459.925 304.22 460.333 303.332 460.333C302.036 460.333 301.28 459.613 301.28 458.473C301.28 457.273 302.156 456.625 303.932 456.625H305.108V456.061C305.108 455.233 304.664 454.765 303.728 454.765C302.996 454.765 302.528 455.125 302.204 455.653L301.532 455.041C301.904 454.369 302.636 453.829 303.788 453.829C305.336 453.829 306.224 454.621 306.224 455.965V459.241H306.92V460.189ZM303.584 459.433C304.46 459.433 305.108 458.989 305.108 458.365V457.405H303.92C302.9 457.405 302.444 457.717 302.444 458.293V458.533C302.444 459.109 302.888 459.433 303.584 459.433ZM310.256 460.189H309.416C308.648 460.189 308.252 459.733 308.252 459.049V451.309H309.368V459.241H310.256V460.189ZM319.179 460.189H314.523V451.813H315.687V459.157H319.179V460.189ZM325.67 460.189H325.034C324.35 460.189 324.026 459.757 323.942 459.157H323.882C323.63 459.925 322.97 460.333 322.082 460.333C320.786 460.333 320.03 459.613 320.03 458.473C320.03 457.273 320.906 456.625 322.682 456.625H323.858V456.061C323.858 455.233 323.414 454.765 322.478 454.765C321.746 454.765 321.278 455.125 320.954 455.653L320.282 455.041C320.654 454.369 321.386 453.829 322.538 453.829C324.086 453.829 324.974 454.621 324.974 455.965V459.241H325.67V460.189ZM322.334 459.433C323.21 459.433 323.858 458.989 323.858 458.365V457.405H322.67C321.65 457.405 321.194 457.717 321.194 458.293V458.533C321.194 459.109 321.638 459.433 322.334 459.433ZM327.002 460.189V451.309H328.118V454.993H328.166C328.454 454.225 329.102 453.829 329.954 453.829C331.514 453.829 332.45 455.065 332.45 457.081C332.45 459.097 331.514 460.333 329.954 460.333C329.102 460.333 328.454 459.937 328.166 459.169H328.118V460.189H327.002ZM329.63 459.361C330.626 459.361 331.262 458.653 331.262 457.609V456.553C331.262 455.509 330.626 454.801 329.63 454.801C328.79 454.801 328.118 455.281 328.118 455.941V458.221C328.118 458.881 328.79 459.361 329.63 459.361ZM336.397 460.333C334.669 460.333 333.577 459.049 333.577 457.081C333.577 455.113 334.669 453.829 336.397 453.829C338.137 453.829 339.121 455.149 339.121 456.889V457.357H334.741V457.609C334.741 458.641 335.377 459.385 336.493 459.385C337.273 459.385 337.837 459.013 338.173 458.377L338.893 458.989C338.461 459.793 337.561 460.333 336.397 460.333ZM336.397 454.729C335.425 454.729 334.741 455.473 334.741 456.493V456.577H337.933V456.457C337.933 455.425 337.333 454.729 336.397 454.729ZM342.646 460.189H341.806C341.038 460.189 340.642 459.733 340.642 459.049V451.309H341.758V459.241H342.646V460.189ZM344.546 452.677C344.078 452.677 343.874 452.425 343.874 452.065V451.897C343.874 451.537 344.078 451.285 344.546 451.285C345.014 451.285 345.218 451.537 345.218 451.897V452.065C345.218 452.425 345.014 452.677 344.546 452.677ZM343.982 460.189V453.973H345.098V460.189H343.982ZM348.18 460.189H347.064V453.973H348.18V454.993H348.24C348.528 454.309 349.056 453.829 349.992 453.829C351.264 453.829 352.044 454.705 352.044 456.217V460.189H350.928V456.385C350.928 455.341 350.496 454.801 349.62 454.801C348.888 454.801 348.18 455.173 348.18 455.929V460.189ZM359.283 460.825C359.283 462.109 358.299 462.733 356.199 462.733C354.219 462.733 353.427 462.181 353.427 461.221C353.427 460.549 353.811 460.177 354.447 460.021V459.889C354.051 459.733 353.835 459.421 353.835 458.977C353.835 458.353 354.303 458.041 354.915 457.897V457.849C354.183 457.501 353.763 456.817 353.763 455.965C353.763 454.705 354.675 453.829 356.163 453.829C356.595 453.829 356.979 453.913 357.315 454.045V453.913C357.315 453.397 357.543 453.061 358.071 453.061H359.019V453.997H357.795V454.333C358.299 454.705 358.575 455.281 358.575 455.965C358.575 457.225 357.663 458.089 356.163 458.089C355.923 458.089 355.671 458.065 355.467 458.017C355.107 458.125 354.759 458.329 354.759 458.677C354.759 459.037 355.107 459.145 355.671 459.145H357.087C358.623 459.145 359.283 459.781 359.283 460.825ZM358.239 460.933C358.239 460.465 357.927 460.165 357.015 460.165H354.927C354.579 460.345 354.423 460.609 354.423 460.957C354.423 461.473 354.795 461.881 355.767 461.881H356.607C357.663 461.881 358.239 461.569 358.239 460.933ZM356.175 457.249C356.967 457.249 357.459 456.877 357.459 456.121V455.809C357.459 455.053 356.967 454.681 356.175 454.681C355.383 454.681 354.891 455.053 354.891 455.809V456.121C354.891 456.877 355.383 457.249 356.175 457.249ZM312.926 474.189H311.75C310.982 474.189 310.574 473.733 310.574 473.013V468.921H309.578V467.973H310.13C310.55 467.973 310.682 467.817 310.682 467.397V466.257H311.69V467.973H313.022V468.921H311.69V473.241H312.926V474.189ZM315.079 466.677C314.611 466.677 314.407 466.425 314.407 466.065V465.897C314.407 465.537 314.611 465.285 315.079 465.285C315.547 465.285 315.751 465.537 315.751 465.897V466.065C315.751 466.425 315.547 466.677 315.079 466.677ZM314.515 474.189V467.973H315.631V474.189H314.515ZM318.713 474.189H317.597V467.973H318.713V468.993H318.773C319.037 468.357 319.601 467.829 320.429 467.829C321.257 467.829 321.989 468.213 322.313 469.089H322.337C322.565 468.417 323.189 467.829 324.233 467.829C325.481 467.829 326.225 468.705 326.225 470.217V474.189H325.109V470.385C325.109 469.341 324.713 468.801 323.849 468.801C323.129 468.801 322.469 469.173 322.469 469.929V474.189H321.353V470.385C321.353 469.341 320.957 468.801 320.105 468.801C319.397 468.801 318.713 469.173 318.713 469.929V474.189ZM330.497 474.333C328.769 474.333 327.677 473.049 327.677 471.081C327.677 469.113 328.769 467.829 330.497 467.829C332.237 467.829 333.221 469.149 333.221 470.889V471.357H328.841V471.609C328.841 472.641 329.477 473.385 330.593 473.385C331.373 473.385 331.937 473.013 332.273 472.377L332.993 472.989C332.561 473.793 331.661 474.333 330.497 474.333ZM330.497 468.729C329.525 468.729 328.841 469.473 328.841 470.493V470.577H332.033V470.457C332.033 469.425 331.433 468.729 330.497 468.729Z" fill="#737373"/>
<rect x="393.52" y="384.504" width="123.992" height="109.992" rx="13.607" fill="white"/>
<rect x="393.52" y="384.504" width="123.992" height="109.992" rx="13.607" stroke="#171717" stroke-width="1.00792"/>
<path d="M421.808 425.581C421.808 430.549 418.52 434.437 415.832 436.189H413.24C416.816 433.573 418.808 431.389 419.72 427.501L419.6 427.453C418.808 428.821 417.608 429.853 415.568 429.853C412.688 429.853 410.624 427.861 410.624 424.693C410.624 421.405 412.832 419.149 416.192 419.149C419.672 419.149 421.808 421.597 421.808 425.581ZM416.216 428.149C418.424 428.149 419.72 426.877 419.72 424.621V424.429C419.72 422.173 418.424 420.901 416.216 420.901C414.008 420.901 412.712 422.173 412.712 424.429V424.621C412.712 426.877 414.008 428.149 416.216 428.149ZM434.326 436.189H432.406V432.901H424.318V431.125L431.326 419.437H434.326V431.221H436.75V432.901H434.326V436.189ZM432.286 420.997L426.214 431.221H432.406V420.997H432.286ZM444.157 436.189H441.997L448.405 421.165H441.253V424.285H439.453V419.437H450.445V421.213L444.157 436.189ZM455.452 433.381C456.46 433.381 456.916 433.957 456.916 434.797V435.133C456.916 436.429 456.1 438.205 454.732 439.381H453.124C454.084 438.373 454.66 437.533 454.924 436.405C454.276 436.261 453.988 435.781 453.988 435.133V434.797C453.988 433.957 454.444 433.381 455.452 433.381ZM470.679 419.437V421.213H463.335L462.855 427.597H463.023C463.815 426.469 464.703 425.749 466.455 425.749C469.335 425.749 471.447 427.693 471.447 430.933C471.447 434.197 469.335 436.477 465.807 436.477C463.023 436.477 461.583 435.061 460.575 433.621L462.087 432.469C462.951 433.789 463.791 434.677 465.807 434.677C468.087 434.677 469.311 433.405 469.311 431.197V430.957C469.311 428.749 468.087 427.477 465.807 427.477C464.271 427.477 463.503 428.125 462.807 428.893L461.103 428.653L461.703 419.437H470.679ZM485.909 425.581C485.909 430.549 482.621 434.437 479.933 436.189H477.341C480.917 433.573 482.909 431.389 483.821 427.501L483.701 427.453C482.909 428.821 481.709 429.853 479.669 429.853C476.789 429.853 474.725 427.861 474.725 424.693C474.725 421.405 476.933 419.149 480.293 419.149C483.773 419.149 485.909 421.597 485.909 425.581ZM480.317 428.149C482.525 428.149 483.821 426.877 483.821 424.621V424.429C483.821 422.173 482.525 420.901 480.317 420.901C478.109 420.901 476.813 422.173 476.813 424.429V424.621C476.813 426.877 478.109 428.149 480.317 428.149ZM500.636 436.189H489.62V434.413H494.3V420.925H494.132L489.908 424.861L488.732 423.589L493.172 419.437H496.316V434.413H500.636V436.189Z" fill="#171717"/>
<path d="M430.684 460.333C429.316 460.333 428.356 459.781 427.684 458.893L428.512 458.149C429.1 458.905 429.796 459.313 430.732 459.313C431.872 459.313 432.484 458.725 432.484 457.837C432.484 457.105 432.088 456.721 431.044 456.493L430.336 456.349C428.764 456.025 427.936 455.317 427.936 454.009C427.936 452.521 429.064 451.669 430.78 451.669C432.04 451.669 432.94 452.137 433.576 453.001L432.724 453.685C432.28 453.073 431.668 452.689 430.72 452.689C429.7 452.689 429.088 453.133 429.088 453.961C429.088 454.705 429.556 455.041 430.552 455.257L431.26 455.401C432.904 455.761 433.636 456.493 433.636 457.777C433.636 459.325 432.544 460.333 430.684 460.333ZM439.034 460.189V459.169H438.974C438.746 459.769 438.266 460.333 437.234 460.333C435.962 460.333 435.17 459.457 435.17 457.945V453.973H436.286V457.777C436.286 458.821 436.73 459.361 437.606 459.361C438.314 459.361 439.034 459.001 439.034 458.221V453.973H440.15V460.189H439.034ZM442.121 460.189V451.309H443.237V454.993H443.285C443.573 454.225 444.221 453.829 445.073 453.829C446.633 453.829 447.569 455.065 447.569 457.081C447.569 459.097 446.633 460.333 445.073 460.333C444.221 460.333 443.573 459.937 443.285 459.169H443.237V460.189H442.121ZM444.749 459.361C445.745 459.361 446.381 458.653 446.381 457.609V456.553C446.381 455.509 445.745 454.801 444.749 454.801C443.909 454.801 443.237 455.281 443.237 455.941V458.221C443.237 458.881 443.909 459.361 444.749 459.361ZM450.257 460.189H449.141V453.973H450.257V454.993H450.317C450.581 454.357 451.145 453.829 451.973 453.829C452.801 453.829 453.533 454.213 453.857 455.089H453.881C454.109 454.417 454.733 453.829 455.777 453.829C457.025 453.829 457.769 454.705 457.769 456.217V460.189H456.653V456.385C456.653 455.341 456.257 454.801 455.393 454.801C454.673 454.801 454.013 455.173 454.013 455.929V460.189H452.897V456.385C452.897 455.341 452.501 454.801 451.649 454.801C450.941 454.801 450.257 455.173 450.257 455.929V460.189ZM460.228 452.677C459.76 452.677 459.556 452.425 459.556 452.065V451.897C459.556 451.537 459.76 451.285 460.228 451.285C460.696 451.285 460.9 451.537 460.9 451.897V452.065C460.9 452.425 460.696 452.677 460.228 452.677ZM459.664 460.189V453.973H460.78V460.189H459.664ZM465.446 460.189H464.27C463.502 460.189 463.094 459.733 463.094 459.013V454.921H462.098V453.973H462.65C463.07 453.973 463.202 453.817 463.202 453.397V452.257H464.21V453.973H465.542V454.921H464.21V459.241H465.446V460.189ZM469.641 460.189H468.465C467.697 460.189 467.289 459.733 467.289 459.013V454.921H466.293V453.973H466.845C467.265 453.973 467.397 453.817 467.397 453.397V452.257H468.405V453.973H469.737V454.921H468.405V459.241H469.641V460.189ZM473.56 460.333C471.832 460.333 470.74 459.049 470.74 457.081C470.74 455.113 471.832 453.829 473.56 453.829C475.3 453.829 476.284 455.149 476.284 456.889V457.357H471.904V457.609C471.904 458.641 472.54 459.385 473.656 459.385C474.436 459.385 475 459.013 475.336 458.377L476.056 458.989C475.624 459.793 474.724 460.333 473.56 460.333ZM473.56 454.729C472.588 454.729 471.904 455.473 471.904 456.493V456.577H475.096V456.457C475.096 455.425 474.496 454.729 473.56 454.729ZM481.741 460.189V459.169H481.693C481.405 459.937 480.757 460.333 479.905 460.333C478.345 460.333 477.409 459.097 477.409 457.081C477.409 455.065 478.345 453.829 479.905 453.829C480.757 453.829 481.405 454.225 481.693 454.993H481.741V451.309H482.857V460.189H481.741ZM480.229 459.361C481.069 459.361 481.741 458.881 481.741 458.221V455.941C481.741 455.281 481.069 454.801 480.229 454.801C479.233 454.801 478.597 455.509 478.597 456.553V457.609C478.597 458.653 479.233 459.361 480.229 459.361ZM443.533 474.189H438.877V465.813H440.041V473.157H443.533V474.189ZM450.023 474.189H449.387C448.703 474.189 448.379 473.757 448.295 473.157H448.235C447.983 473.925 447.323 474.333 446.435 474.333C445.139 474.333 444.383 473.613 444.383 472.473C444.383 471.273 445.259 470.625 447.035 470.625H448.211V470.061C448.211 469.233 447.767 468.765 446.831 468.765C446.099 468.765 445.631 469.125 445.307 469.653L444.635 469.041C445.007 468.369 445.739 467.829 446.891 467.829C448.439 467.829 449.327 468.621 449.327 469.965V473.241H450.023V474.189ZM446.687 473.433C447.563 473.433 448.211 472.989 448.211 472.365V471.405H447.023C446.003 471.405 445.547 471.717 445.547 472.293V472.533C445.547 473.109 445.991 473.433 446.687 473.433ZM451.355 474.189V465.309H452.471V468.993H452.519C452.807 468.225 453.455 467.829 454.307 467.829C455.867 467.829 456.803 469.065 456.803 471.081C456.803 473.097 455.867 474.333 454.307 474.333C453.455 474.333 452.807 473.937 452.519 473.169H452.471V474.189H451.355ZM453.983 473.361C454.979 473.361 455.615 472.653 455.615 471.609V470.553C455.615 469.509 454.979 468.801 453.983 468.801C453.143 468.801 452.471 469.281 452.471 469.941V472.221C452.471 472.881 453.143 473.361 453.983 473.361ZM460.751 474.333C459.023 474.333 457.931 473.049 457.931 471.081C457.931 469.113 459.023 467.829 460.751 467.829C462.491 467.829 463.475 469.149 463.475 470.889V471.357H459.095V471.609C459.095 472.641 459.731 473.385 460.847 473.385C461.627 473.385 462.191 473.013 462.527 472.377L463.247 472.989C462.815 473.793 461.915 474.333 460.751 474.333ZM460.751 468.729C459.779 468.729 459.095 469.473 459.095 470.493V470.577H462.287V470.457C462.287 469.425 461.687 468.729 460.751 468.729ZM467 474.189H466.16C465.392 474.189 464.996 473.733 464.996 473.049V465.309H466.112V473.241H467V474.189ZM470.244 474.333C469.092 474.333 468.336 473.865 467.76 473.133L468.516 472.485C468.984 473.073 469.56 473.409 470.316 473.409C471.108 473.409 471.54 473.061 471.54 472.485C471.54 472.029 471.3 471.705 470.544 471.597L470.016 471.513C468.828 471.345 468 470.853 468 469.701C468 468.477 468.948 467.829 470.256 467.829C471.312 467.829 471.972 468.201 472.5 468.825L471.792 469.497C471.492 469.101 470.964 468.753 470.22 468.753C469.464 468.753 469.08 469.101 469.08 469.629C469.08 470.181 469.44 470.409 470.16 470.517L470.688 470.601C472.056 470.805 472.62 471.405 472.62 472.365C472.62 473.577 471.708 474.333 470.244 474.333Z" fill="#737373"/>
<rect x="528.536" y="384.504" width="122.992" height="109.992" rx="13.607" fill="white"/>
<rect x="528.536" y="384.504" width="122.992" height="109.992" rx="13.607" stroke="#171717" stroke-width="1.00792"/>
<path d="M568.452 436.189H566.532V432.901H558.444V431.125L565.452 419.437H568.452V431.221H570.876V432.901H568.452V436.189ZM566.412 420.997L560.34 431.221H566.532V420.997H566.412ZM575.186 433.381C576.194 433.381 576.65 433.957 576.65 434.797V435.133C576.65 436.429 575.834 438.205 574.466 439.381H572.858C573.818 438.373 574.394 437.533 574.658 436.405C574.01 436.261 573.722 435.781 573.722 435.133V434.797C573.722 433.957 574.178 433.381 575.186 433.381ZM589.381 436.189H587.461V432.901H579.373V431.125L586.381 419.437H589.381V431.221H591.805V432.901H589.381V436.189ZM587.341 420.997L581.269 431.221H587.461V420.997H587.341ZM605.98 436.189H594.964V434.413H599.644V420.925H599.476L595.252 424.861L594.076 423.589L598.516 419.437H601.66V434.413H605.98V436.189ZM611.683 426.541H613.507C615.763 426.541 616.915 425.365 616.915 423.757V423.589C616.915 421.837 615.691 420.949 613.915 420.949C612.187 420.949 611.155 421.765 610.459 423.037L608.971 421.885C609.811 420.541 611.275 419.149 613.963 419.149C616.795 419.149 619.051 420.661 619.051 423.373C619.051 425.533 617.611 426.829 615.835 427.285V427.381C617.635 427.741 619.363 429.085 619.363 431.605C619.363 434.485 617.083 436.477 613.675 436.477C610.771 436.477 609.283 435.061 608.251 433.621L609.763 432.469C610.627 433.789 611.611 434.677 613.651 434.677C616.003 434.677 617.251 433.549 617.251 431.581V431.389C617.251 429.421 616.003 428.293 613.651 428.293H611.683V426.541Z" fill="#171717"/>
<path d="M571.846 460.189V451.813H575.41C576.79 451.813 577.654 452.665 577.654 453.973C577.654 455.221 576.85 455.677 576.238 455.749V455.821C576.874 455.857 577.942 456.373 577.942 457.777C577.942 459.145 577.006 460.189 575.77 460.189H571.846ZM573.01 456.385V459.181H575.422C576.214 459.181 576.694 458.773 576.694 457.993V457.573C576.694 456.793 576.214 456.385 575.422 456.385H573.01ZM573.01 452.821V455.401H575.23C575.962 455.401 576.406 455.005 576.406 454.309V453.913C576.406 453.217 575.962 452.821 575.23 452.821H573.01ZM579.841 452.677C579.373 452.677 579.169 452.425 579.169 452.065V451.897C579.169 451.537 579.373 451.285 579.841 451.285C580.309 451.285 580.513 451.537 580.513 451.897V452.065C580.513 452.425 580.309 452.677 579.841 452.677ZM579.277 460.189V453.973H580.393V460.189H579.277ZM584.003 460.189H583.163C582.395 460.189 581.999 459.733 581.999 459.049V451.309H583.115V459.241H584.003V460.189ZM586.913 460.189H586.073C585.305 460.189 584.909 459.733 584.909 459.049V451.309H586.025V459.241H586.913V460.189ZM593.049 460.189H592.413C591.729 460.189 591.405 459.757 591.321 459.157H591.261C591.009 459.925 590.349 460.333 589.461 460.333C588.165 460.333 587.409 459.613 587.409 458.473C587.409 457.273 588.285 456.625 590.061 456.625H591.237V456.061C591.237 455.233 590.793 454.765 589.857 454.765C589.125 454.765 588.657 455.125 588.333 455.653L587.661 455.041C588.033 454.369 588.765 453.829 589.917 453.829C591.465 453.829 592.353 454.621 592.353 455.965V459.241H593.049V460.189ZM589.713 459.433C590.589 459.433 591.237 458.989 591.237 458.365V457.405H590.049C589.029 457.405 588.573 457.717 588.573 458.293V458.533C588.573 459.109 589.017 459.433 589.713 459.433ZM594.021 460.189V451.309H595.137V454.993H595.185C595.473 454.225 596.121 453.829 596.973 453.829C598.533 453.829 599.469 455.065 599.469 457.081C599.469 459.097 598.533 460.333 596.973 460.333C596.121 460.333 595.473 459.937 595.185 459.169H595.137V460.189H594.021ZM596.649 459.361C597.645 459.361 598.281 458.653 598.281 457.609V456.553C598.281 455.509 597.645 454.801 596.649 454.801C595.809 454.801 595.137 455.281 595.137 455.941V458.221C595.137 458.881 595.809 459.361 596.649 459.361ZM602.684 460.189H601.844C601.076 460.189 600.68 459.733 600.68 459.049V451.309H601.796V459.241H602.684V460.189ZM606.036 460.333C604.308 460.333 603.216 459.049 603.216 457.081C603.216 455.113 604.308 453.829 606.036 453.829C607.776 453.829 608.76 455.149 608.76 456.889V457.357H604.38V457.609C604.38 458.641 605.016 459.385 606.132 459.385C606.912 459.385 607.476 459.013 607.812 458.377L608.532 458.989C608.1 459.793 607.2 460.333 606.036 460.333ZM606.036 454.729C605.064 454.729 604.38 455.473 604.38 456.493V456.577H607.572V456.457C607.572 455.425 606.972 454.729 606.036 454.729ZM566.397 474.189H565.173L564.381 471.825H561.117L560.313 474.189H559.137L562.041 465.813H563.505L566.397 474.189ZM564.093 470.793L562.773 466.881H562.713L561.393 470.793H564.093ZM568.406 474.189H567.29V467.973H568.406V468.993H568.466C568.754 468.309 569.282 467.829 570.218 467.829C571.49 467.829 572.27 468.705 572.27 470.217V474.189H571.154V470.385C571.154 469.341 570.722 468.801 569.846 468.801C569.114 468.801 568.406 469.173 568.406 469.929V474.189ZM574.925 474.189H573.809V467.973H574.925V468.993H574.985C575.273 468.309 575.801 467.829 576.737 467.829C578.009 467.829 578.789 468.705 578.789 470.217V474.189H577.673V470.385C577.673 469.341 577.241 468.801 576.365 468.801C575.633 468.801 574.925 469.173 574.925 469.929V474.189ZM582.716 474.333C581.024 474.333 579.884 473.061 579.884 471.081C579.884 469.101 581.024 467.829 582.716 467.829C584.408 467.829 585.548 469.101 585.548 471.081C585.548 473.061 584.408 474.333 582.716 474.333ZM582.716 473.373C583.688 473.373 584.36 472.761 584.36 471.549V470.613C584.36 469.401 583.688 468.789 582.716 468.789C581.744 468.789 581.072 469.401 581.072 470.613V471.549C581.072 472.761 581.744 473.373 582.716 473.373ZM589.394 474.189H588.218C587.45 474.189 587.042 473.733 587.042 473.013V468.921H586.046V467.973H586.598C587.018 467.973 587.15 467.817 587.15 467.397V466.257H588.158V467.973H589.49V468.921H588.158V473.241H589.394V474.189ZM595.783 474.189H595.147C594.463 474.189 594.139 473.757 594.055 473.157H593.995C593.743 473.925 593.083 474.333 592.195 474.333C590.899 474.333 590.143 473.613 590.143 472.473C590.143 471.273 591.019 470.625 592.795 470.625H593.971V470.061C593.971 469.233 593.527 468.765 592.591 468.765C591.859 468.765 591.391 469.125 591.067 469.653L590.395 469.041C590.767 468.369 591.499 467.829 592.651 467.829C594.199 467.829 595.087 468.621 595.087 469.965V473.241H595.783V474.189ZM592.447 473.433C593.323 473.433 593.971 472.989 593.971 472.365V471.405H592.783C591.763 471.405 591.307 471.717 591.307 472.293V472.533C591.307 473.109 591.751 473.433 592.447 473.433ZM599.444 474.189H598.268C597.5 474.189 597.092 473.733 597.092 473.013V468.921H596.096V467.973H596.648C597.068 467.973 597.2 467.817 597.2 467.397V466.257H598.208V467.973H599.54V468.921H598.208V473.241H599.444V474.189ZM601.237 466.677C600.769 466.677 600.565 466.425 600.565 466.065V465.897C600.565 465.537 600.769 465.285 601.237 465.285C601.705 465.285 601.909 465.537 601.909 465.897V466.065C601.909 466.425 601.705 466.677 601.237 466.677ZM600.673 474.189V467.973H601.789V474.189H600.673ZM605.783 474.333C604.091 474.333 602.951 473.061 602.951 471.081C602.951 469.101 604.091 467.829 605.783 467.829C607.475 467.829 608.615 469.101 608.615 471.081C608.615 473.061 607.475 474.333 605.783 474.333ZM605.783 473.373C606.755 473.373 607.427 472.761 607.427 471.549V470.613C607.427 469.401 606.755 468.789 605.783 468.789C604.811 468.789 604.139 469.401 604.139 470.613V471.549C604.139 472.761 604.811 473.373 605.783 473.373ZM610.889 474.189H609.773V467.973H610.889V468.993H610.949C611.237 468.309 611.765 467.829 612.701 467.829C613.973 467.829 614.753 468.705 614.753 470.217V474.189H613.637V470.385C613.637 469.341 613.205 468.801 612.329 468.801C611.597 468.801 610.889 469.173 610.889 469.929V474.189ZM618.2 474.333C617.048 474.333 616.292 473.865 615.716 473.133L616.472 472.485C616.94 473.073 617.516 473.409 618.272 473.409C619.064 473.409 619.496 473.061 619.496 472.485C619.496 472.029 619.256 471.705 618.5 471.597L617.972 471.513C616.784 471.345 615.956 470.853 615.956 469.701C615.956 468.477 616.904 467.829 618.212 467.829C619.268 467.829 619.928 468.201 620.456 468.825L619.748 469.497C619.448 469.101 618.92 468.753 618.176 468.753C617.42 468.753 617.036 469.101 617.036 469.629C617.036 470.181 617.396 470.409 618.116 470.517L618.644 470.601C620.012 470.805 620.576 471.405 620.576 472.365C620.576 473.577 619.664 474.333 618.2 474.333Z" fill="#737373"/>
<path d="M-48 366H698.5" stroke="#171717"/>
<path d="M140 394V485" stroke="#171717"/>
<path d="M147.5 467C147.5 471.142 144.142 474.5 140 474.5C135.858 474.5 132.5 471.142 132.5 467C132.5 462.858 135.858 459.5 140 459.5C144.142 459.5 147.5 462.858 147.5 467Z" fill="#FB923C" stroke="#171717"/>
<path d="M166 394V485" stroke="#171717"/>
<circle cx="166" cy="428" r="7.5" fill="#FB923C" stroke="#171717"/>
<path d="M192 394V485" stroke="#171717"/>
<circle cx="192" cy="446" r="7.5" fill="#FB923C" stroke="#171717"/>
<path d="M218 394V485" stroke="#171717"/>
<circle cx="218" cy="409" r="7.5" fill="#FB923C" stroke="#171717"/>
<path d="M244 394V485" stroke="#171717"/>
<circle cx="244" cy="427.5" r="7.5" fill="#FB923C" stroke="#171717"/>
<circle cx="68.5" cy="439.5" r="38" fill="#FB923C" stroke="#171717"/>
<circle cx="92.5" cy="439.5" r="6" fill="#FB923C" stroke="#171717"/>
</g>
<defs>
<clipPath id="clip0_3108_32916">
<rect width="672" height="512" rx="24" fill="white"/>
</clipPath>
<clipPath id="clip1_3108_32916">
<rect width="108" height="108" fill="white" transform="translate(14.0752 386)"/>
</clipPath>
</defs>
</svg>
