<svg width="91" height="40" viewBox="0 0 91 40" fill="none" xmlns="http://www.w3.org/2000/svg">
<path d="M2.86779 26.76H3.66977V29.5061C3.66977 29.8651 3.64077 30.1413 3.58278 30.3346C3.50484 30.5871 3.36348 30.7898 3.15868 30.9427C2.95386 31.0955 2.68381 31.1718 2.34853 31.1718C1.95525 31.1718 1.65255 31.0518 1.44054 30.8122C1.22848 30.5725 1.12155 30.221 1.11972 29.7573L1.87821 29.6626C1.88727 29.9112 1.9208 30.0867 1.97879 30.1893C2.06579 30.3451 2.19809 30.4231 2.37572 30.4231C2.55515 30.4231 2.68202 30.3673 2.75633 30.2559C2.83063 30.1444 2.86779 29.9131 2.86779 29.562V26.76Z" fill="white"/>
<path d="M6.19531 30.0976L6.95652 30.2367C6.85864 30.5405 6.70414 30.7718 6.493 30.9306C6.28185 31.0894 6.0177 31.1688 5.70054 31.1688C5.19849 31.1688 4.82695 30.9903 4.5859 30.6332C4.3956 30.3472 4.30045 29.9862 4.30045 29.5502C4.30045 29.0294 4.4255 28.6216 4.67561 28.3266C4.92572 28.0317 5.24198 27.8843 5.62438 27.8843C6.05392 27.8843 6.39282 28.0386 6.64114 28.3474C6.88943 28.6561 7.00814 29.1291 6.99727 29.7663H5.0834C5.08884 30.0129 5.15046 30.2047 5.26827 30.3418C5.38607 30.4789 5.53287 30.5475 5.70869 30.5475C5.82831 30.5475 5.9289 30.5119 6.01046 30.4409C6.09201 30.3699 6.15363 30.2555 6.19532 30.0977L6.19531 30.0976ZM6.23881 29.2572C6.23337 29.0166 6.17628 28.8336 6.06754 28.7083C5.95879 28.5831 5.82649 28.5204 5.67061 28.5204C5.50387 28.5204 5.36613 28.5865 5.25739 28.7187C5.14865 28.8508 5.09518 29.0304 5.09699 29.2572L6.23881 29.2572Z" fill="white"/>
<path d="M8.94663 27.9556V28.6184H8.42464V29.8849C8.42464 30.1414 8.42963 30.2908 8.4396 30.3332C8.44956 30.3756 8.47222 30.4107 8.50756 30.4383C8.5429 30.4659 8.58595 30.4797 8.6367 30.4797C8.70738 30.4797 8.80978 30.4531 8.9439 30.3998L9.00914 31.0449C8.83152 31.1277 8.63036 31.1692 8.4056 31.1692C8.26786 31.1692 8.14371 31.144 8.03316 31.0937C7.92261 31.0434 7.8415 30.9783 7.78985 30.8984C7.73819 30.8185 7.7024 30.7105 7.68246 30.5744C7.66615 30.4777 7.658 30.2824 7.658 29.9885V28.6184H7.3073V27.9556H7.658V27.3312L8.42465 26.8459V27.9556L8.94663 27.9556Z" fill="white"/>
<path d="M11.0317 31.098V26.76H12.323C12.8123 26.76 13.1313 26.7817 13.2799 26.8251C13.5083 26.8902 13.6995 27.0318 13.8535 27.2498C14.0076 27.4677 14.0846 27.7493 14.0846 28.0946C14.0846 28.3609 14.0402 28.5848 13.9514 28.7663C13.8626 28.9478 13.7498 29.0903 13.6129 29.1939C13.4761 29.2975 13.337 29.366 13.1956 29.3996C13.0035 29.441 12.7253 29.4617 12.361 29.4617H11.8363V31.0981L11.0317 31.098ZM11.8364 27.4938V28.7248H12.2768C12.594 28.7248 12.806 28.7021 12.913 28.6568C13.0199 28.6114 13.1037 28.5404 13.1644 28.4437C13.2251 28.347 13.2555 28.2346 13.2555 28.1064C13.2555 27.9485 13.2129 27.8183 13.1277 27.7158C13.0425 27.6132 12.9347 27.5491 12.8042 27.5234C12.7082 27.5037 12.5151 27.4938 12.2252 27.4938L11.8364 27.4938Z" fill="white"/>
<path d="M15.4764 31.0981H14.7125V27.9556H15.422V28.4024C15.5435 28.1913 15.6527 28.0522 15.7496 27.9851C15.8466 27.9181 15.9567 27.8845 16.0799 27.8845C16.2539 27.8845 16.4216 27.9368 16.5829 28.0414L16.3464 28.7663C16.2177 28.6756 16.0981 28.6302 15.9875 28.6302C15.8806 28.6302 15.79 28.6623 15.7157 28.7264C15.6414 28.7905 15.5829 28.9064 15.5403 29.0741C15.4977 29.2418 15.4764 29.5929 15.4764 30.1275L15.4764 31.0981Z" fill="white"/>
<path d="M16.7323 29.4824C16.7323 29.2062 16.7948 28.9389 16.9199 28.6805C17.0449 28.4221 17.2221 28.2248 17.4513 28.0887C17.6806 27.9526 17.9366 27.8845 18.2194 27.8845C18.6561 27.8845 19.0141 28.0389 19.2932 28.3476C19.5723 28.6564 19.7118 29.0465 19.7118 29.5179C19.7118 29.9934 19.5709 30.3874 19.2891 30.7001C19.0073 31.0128 18.6525 31.1691 18.2248 31.1691C17.9601 31.1691 17.7078 31.104 17.4676 30.9738C17.2275 30.8436 17.0449 30.6528 16.9198 30.4012C16.7948 30.1497 16.7323 29.8435 16.7323 29.4824L16.7323 29.4824ZM17.5152 29.5268C17.5152 29.8385 17.5832 30.0772 17.7191 30.2429C17.8551 30.4086 18.0227 30.4915 18.2221 30.4915C18.4214 30.4915 18.5886 30.4086 18.7236 30.2429C18.8587 30.0772 18.9262 29.8365 18.9262 29.5209C18.9262 29.2131 18.8587 28.9764 18.7236 28.8107C18.5886 28.645 18.4214 28.5621 18.2221 28.5621C18.0227 28.5621 17.8551 28.645 17.7191 28.8107C17.5832 28.9764 17.5152 29.2151 17.5152 29.5268V29.5268Z" fill="white"/>
<path d="M20.2909 27.9555H21.0032V28.4172C21.0956 28.2593 21.2207 28.1311 21.3784 28.0325C21.536 27.9338 21.7109 27.8845 21.9031 27.8845C22.2384 27.8845 22.5229 28.0275 22.7567 28.3136C22.9905 28.5997 23.1074 28.9981 23.1074 29.5091C23.1074 30.0338 22.9896 30.4417 22.754 30.7327C22.5184 31.0236 22.2329 31.1691 21.8976 31.1691C21.7381 31.1691 21.5936 31.1346 21.464 31.0655C21.3344 30.9965 21.198 30.8781 21.0549 30.7105V32.2936H20.2909L20.2909 27.9555ZM21.0467 29.4736C21.0467 29.8267 21.111 30.0876 21.2397 30.2563C21.3684 30.4249 21.5252 30.5093 21.71 30.5093C21.8877 30.5093 22.0354 30.4318 22.1532 30.277C22.271 30.1221 22.3299 29.8681 22.3299 29.515C22.3299 29.1856 22.2691 28.941 22.1477 28.7812C22.0263 28.6214 21.8759 28.5415 21.6964 28.5415C21.5098 28.5415 21.3548 28.6199 21.2316 28.7767C21.1083 28.9335 21.0467 29.1658 21.0467 29.4736L21.0467 29.4736Z" fill="white"/>
<path d="M25.6168 31.0979V30.6274C25.5117 30.7951 25.3735 30.9273 25.2022 31.0239C25.0309 31.1206 24.8502 31.1689 24.6599 31.1689C24.4659 31.1689 24.2919 31.1226 24.1379 31.0298C23.9838 30.9371 23.8724 30.8069 23.8035 30.6393C23.7346 30.4716 23.7002 30.2398 23.7002 29.9439V27.9553H24.4641V29.3994C24.4641 29.8413 24.4782 30.112 24.5063 30.2116C24.5344 30.3112 24.5856 30.3902 24.6599 30.4483C24.7342 30.5065 24.8284 30.5356 24.9426 30.5356C25.0731 30.5356 25.19 30.4967 25.2933 30.4188C25.3966 30.3408 25.4673 30.2442 25.5053 30.1288C25.5434 30.0134 25.5624 29.7308 25.5624 29.281V27.9553H26.3264V31.0979L25.6168 31.0979Z" fill="white"/>
<path d="M27.1201 31.098V26.76H27.884V31.098H27.1201Z" fill="white"/>
<path d="M28.3953 30.2013L29.1619 30.0741C29.1946 30.2358 29.2607 30.3586 29.3604 30.4425C29.4601 30.5263 29.5996 30.5682 29.7791 30.5682C29.9766 30.5682 30.1252 30.5288 30.2249 30.4499C30.292 30.3946 30.3255 30.3207 30.3255 30.2279C30.3255 30.1648 30.3074 30.1125 30.2711 30.0711C30.2335 30.0321 30.1483 29.9955 30.0158 29.962C29.3997 29.8139 29.0091 29.6791 28.8444 29.5567C28.616 29.3868 28.5018 29.1511 28.5018 28.8494C28.5018 28.5772 28.6006 28.3484 28.7981 28.1629C28.9957 27.9775 29.302 27.8848 29.717 27.8848C30.1121 27.8848 30.4057 27.9548 30.5978 28.0949C30.7899 28.2349 30.9222 28.4421 30.9948 28.7163L30.2743 28.8613C30.2435 28.7389 30.1851 28.6452 30.099 28.5801C30.0129 28.515 29.8901 28.4825 29.7306 28.4825C29.5295 28.4825 29.3854 28.5131 29.2984 28.5742C29.2404 28.6176 29.2114 28.6738 29.2114 28.7429C29.2114 28.8021 29.2367 28.8524 29.2875 28.8938C29.3564 28.949 29.5942 29.027 30.0011 29.1276C30.408 29.2282 30.6921 29.3515 30.8534 29.4975C31.0129 29.6454 31.0926 29.8516 31.0926 30.1159C31.0926 30.4039 30.9821 30.6515 30.761 30.8586C30.5399 31.0658 30.2127 31.1693 29.7796 31.1693C29.3863 31.1693 29.075 31.0825 28.8457 30.9089C28.6164 30.7353 28.4665 30.4996 28.3958 30.2017L28.3953 30.2013Z" fill="white"/>
<path d="M31.7636 27.5294V26.76H32.5275V27.5294H31.7636ZM31.7636 31.098V27.9555H32.5275V31.098H31.7636Z" fill="white"/>
<path d="M33.1311 29.4824C33.1311 29.2062 33.1937 28.9389 33.3187 28.6805C33.4438 28.4221 33.6209 28.2248 33.8502 28.0887C34.0794 27.9526 34.3354 27.8845 34.6182 27.8845C35.055 27.8845 35.4129 28.0389 35.692 28.3476C35.9711 28.6564 36.1107 29.0465 36.1107 29.5179C36.1107 29.9934 35.9698 30.3874 35.6879 30.7001C35.4061 31.0128 35.0513 31.1691 34.6236 31.1691C34.359 31.1691 34.1066 31.104 33.8665 30.9738C33.6263 30.8436 33.4437 30.6528 33.3187 30.4012C33.1936 30.1497 33.1311 29.8435 33.1311 29.4824L33.1311 29.4824ZM33.9141 29.5268C33.9141 29.8385 33.982 30.0772 34.118 30.2429C34.2539 30.4086 34.4215 30.4915 34.6209 30.4915C34.8203 30.4915 34.9875 30.4086 35.1225 30.2429C35.2575 30.0772 35.325 29.8365 35.325 29.5209C35.325 29.2131 35.2575 28.9764 35.1225 28.8107C34.9874 28.645 34.8203 28.5621 34.6209 28.5621C34.4215 28.5621 34.2539 28.645 34.118 28.8107C33.982 28.9764 33.9141 29.2151 33.9141 29.5268V29.5268Z" fill="white"/>
<path d="M39.3373 31.0981H38.5733V29.4943C38.5733 29.155 38.557 28.9355 38.5244 28.8358C38.4918 28.7362 38.4388 28.6588 38.3654 28.6036C38.292 28.5483 38.2036 28.5207 38.1003 28.5207C37.968 28.5207 37.8493 28.5602 37.7442 28.6391C37.639 28.718 37.567 28.8225 37.528 28.9527C37.4891 29.0829 37.4696 29.3236 37.4696 29.6747V31.0981H36.7057V27.9555H37.4152V28.4171C37.6671 28.0621 37.9843 27.8845 38.3667 27.8845C38.5352 27.8845 38.6893 27.9176 38.8289 27.9837C38.9684 28.0497 39.074 28.1341 39.1456 28.2367C39.2172 28.3392 39.267 28.4556 39.2951 28.5858C39.3232 28.716 39.3372 28.9025 39.3372 29.1451L39.3373 31.0981Z" fill="white"/>
<path d="M41.6859 31.0979V26.7954H42.4906V30.367H44.4914V31.0979H41.6859Z" fill="white"/>
<path d="M45.6348 28.9143L44.9416 28.7782C45.0195 28.4744 45.1536 28.2495 45.3439 28.1035C45.5342 27.9575 45.817 27.8845 46.1921 27.8845C46.5328 27.8845 46.7866 27.9284 46.9533 28.0162C47.1201 28.104 47.2374 28.2154 47.3054 28.3506C47.3733 28.4857 47.4073 28.7338 47.4073 29.0948L47.3991 30.0654C47.3991 30.3416 47.4114 30.5453 47.4359 30.6765C47.4603 30.8076 47.5061 30.9482 47.5731 31.0981H46.8174C46.7974 31.0429 46.773 30.961 46.744 30.8525C46.7313 30.8032 46.7222 30.7707 46.7168 30.7549C46.5863 30.893 46.4468 30.9965 46.2981 31.0656C46.1495 31.1346 45.9909 31.1692 45.8224 31.1692C45.5252 31.1692 45.2909 31.0814 45.1196 30.9058C44.9484 30.7302 44.8627 30.5083 44.8627 30.24C44.8627 30.0625 44.9017 29.9042 44.9796 29.7651C45.0576 29.626 45.1668 29.5195 45.3072 29.4455C45.4477 29.3715 45.6502 29.3069 45.9148 29.2517C46.2719 29.1787 46.5193 29.1106 46.657 29.0475V28.9646C46.657 28.8048 46.6207 28.6909 46.5483 28.6229C46.4758 28.5548 46.3389 28.5208 46.1378 28.5208C46.0018 28.5208 45.8958 28.5499 45.8197 28.6081C45.7436 28.6663 45.6819 28.7683 45.6348 28.9143L45.6348 28.9143ZM46.657 29.5889C46.5592 29.6245 46.4042 29.6669 46.1922 29.7162C45.9801 29.7655 45.8415 29.8138 45.7762 29.8612C45.6765 29.9381 45.6267 30.0358 45.6267 30.1541C45.6267 30.2705 45.6666 30.3711 45.7463 30.456C45.8261 30.5408 45.9275 30.5832 46.0508 30.5832C46.1885 30.5832 46.3199 30.5339 46.445 30.4352C46.5374 30.3603 46.5981 30.2685 46.6271 30.16C46.6471 30.089 46.657 29.9539 46.657 29.7547L46.657 29.5889Z" fill="white"/>
<path d="M48.1302 31.098V26.76H48.8941V28.3224C49.1297 28.0305 49.4088 27.8845 49.7314 27.8845C50.083 27.8845 50.3739 28.0231 50.6041 28.3002C50.8343 28.5774 50.9493 28.9754 50.9493 29.4942C50.9493 30.0308 50.832 30.4441 50.5973 30.7341C50.3626 31.0241 50.0776 31.1691 49.7423 31.1691C49.5774 31.1691 49.4147 31.1242 49.2543 31.0344C49.0939 30.9447 48.9557 30.812 48.8397 30.6365V31.0981L48.1302 31.098ZM48.8887 29.4587C48.8887 29.7842 48.9358 30.0248 49.03 30.1807C49.1623 30.4016 49.3381 30.5121 49.5575 30.5121C49.726 30.5121 49.8696 30.4337 49.9884 30.2769C50.1071 30.12 50.1664 29.8729 50.1664 29.5356C50.1664 29.1766 50.1066 28.9176 49.987 28.7588C49.8674 28.6 49.7142 28.5206 49.5276 28.5206C49.3445 28.5206 49.1923 28.598 49.0708 28.7529C48.9494 28.9078 48.8887 29.143 48.8887 29.4587H48.8887Z" fill="white"/>
<path d="M51.3881 29.4824C51.3881 29.2062 51.4506 28.9389 51.5757 28.6805C51.7007 28.4221 51.8779 28.2248 52.1071 28.0887C52.3364 27.9526 52.5924 27.8845 52.8752 27.8845C53.3119 27.8845 53.6699 28.0389 53.949 28.3476C54.2281 28.6564 54.3676 29.0465 54.3676 29.5179C54.3676 29.9934 54.2267 30.3874 53.9449 30.7001C53.6631 31.0128 53.3083 31.1691 52.8806 31.1691C52.616 31.1691 52.3636 31.104 52.1234 30.9738C51.8833 30.8436 51.7007 30.6528 51.5756 30.4012C51.4506 30.1497 51.3881 29.8435 51.3881 29.4824L51.3881 29.4824ZM52.171 29.5268C52.171 29.8385 52.239 30.0772 52.3749 30.2429C52.5109 30.4086 52.6785 30.4915 52.8779 30.4915C53.0772 30.4915 53.2444 30.4086 53.3794 30.2429C53.5145 30.0772 53.582 29.8365 53.582 29.5209C53.582 29.2131 53.5145 28.9764 53.3794 28.8107C53.2444 28.645 53.0772 28.5621 52.8779 28.5621C52.6785 28.5621 52.5109 28.645 52.3749 28.8107C52.239 28.9764 52.171 29.2151 52.171 29.5268V29.5268Z" fill="white"/>
<path d="M55.702 31.0981H54.9381V27.9556H55.6477V28.4024C55.7691 28.1913 55.8783 28.0522 55.9752 27.9851C56.0722 27.9181 56.1823 27.8845 56.3056 27.8845C56.4795 27.8845 56.6472 27.9368 56.8085 28.0414L56.572 28.7663C56.4433 28.6756 56.3237 28.6302 56.2131 28.6302C56.1062 28.6302 56.0156 28.6623 55.9412 28.7264C55.8669 28.7905 55.8085 28.9064 55.7659 29.0741C55.7233 29.2418 55.702 29.5929 55.702 30.1275L55.702 31.0981Z" fill="white"/>
<path d="M57.7034 28.9144L57.0125 28.7784C57.0904 28.4746 57.2245 28.2497 57.4148 28.1037C57.6051 27.9578 57.8879 27.8848 58.263 27.8848C58.6037 27.8848 58.8575 27.9287 59.0242 28.0164C59.191 28.1042 59.3083 28.2157 59.3763 28.3508C59.4442 28.486 59.4782 28.734 59.4782 29.095L59.47 30.0656C59.47 30.3418 59.4823 30.5455 59.5068 30.6767C59.5312 30.8079 59.577 30.9485 59.6441 31.0984H58.8883C58.8683 31.0432 58.8439 30.9613 58.8149 30.8528C58.8022 30.8035 58.7931 30.7709 58.7877 30.7551C58.6572 30.8932 58.5177 30.9968 58.369 31.0658C58.2204 31.1349 58.0618 31.1694 57.8933 31.1694C57.596 31.1694 57.3618 31.0816 57.1905 30.906C57.0193 30.7305 56.9336 30.5085 56.9336 30.2403C56.9336 30.0627 56.9726 29.9044 57.0505 29.7653C57.1285 29.6262 57.2377 29.5197 57.3781 29.4457C57.5186 29.3718 57.7211 29.3071 57.9857 29.2519C58.3428 29.1789 58.5902 29.1109 58.7279 29.0477V28.9649C58.7279 28.8051 58.6916 28.6912 58.6192 28.6231C58.5467 28.555 58.4098 28.521 58.2087 28.521C58.0727 28.521 57.9667 28.5501 57.8906 28.6083C57.8145 28.6665 57.7528 28.7686 57.7057 28.9146L57.7034 28.9144ZM58.7256 29.5891C58.6278 29.6246 58.4728 29.667 58.2608 29.7163C58.0487 29.7656 57.9101 29.814 57.8448 29.8613C57.7451 29.9382 57.6953 30.0359 57.6953 30.1543C57.6953 30.2706 57.7352 30.3713 57.8149 30.4561C57.8947 30.5409 57.9962 30.5833 58.1194 30.5833C58.2571 30.5833 58.3885 30.534 58.5136 30.4354C58.606 30.3604 58.6667 30.2687 58.6957 30.1602C58.7157 30.0892 58.7256 29.954 58.7256 29.7548L58.7256 29.5891Z" fill="white"/>
<path d="M61.5556 27.9556V28.6184H61.0336V29.8849C61.0336 30.1414 61.0386 30.2908 61.0486 30.3332C61.0585 30.3756 61.0812 30.4107 61.1165 30.4383C61.1519 30.4659 61.1949 30.4797 61.2457 30.4797C61.3163 30.4797 61.4187 30.4531 61.5528 30.3998L61.6181 31.0449C61.4405 31.1277 61.2393 31.1692 61.0146 31.1692C60.8768 31.1692 60.7527 31.144 60.6421 31.0937C60.5316 31.0434 60.4505 30.9783 60.3988 30.8984C60.3472 30.8185 60.3114 30.7105 60.2914 30.5744C60.2751 30.4777 60.267 30.2824 60.267 29.9885V28.6184H59.9163V27.9556H60.267V27.3312L61.0336 26.8459V27.9556L61.5556 27.9556Z" fill="white"/>
<path d="M61.9172 29.4824C61.9172 29.2062 61.9797 28.9389 62.1048 28.6805C62.2298 28.4221 62.407 28.2248 62.6362 28.0887C62.8655 27.9526 63.1215 27.8845 63.4042 27.8845C63.841 27.8845 64.1989 28.0389 64.4781 28.3476C64.7572 28.6564 64.8967 29.0465 64.8967 29.5179C64.8967 29.9934 64.7558 30.3874 64.474 30.7001C64.1921 31.0128 63.8374 31.1691 63.4096 31.1691C63.145 31.1691 62.8927 31.104 62.6525 30.9738C62.4124 30.8436 62.2298 30.6528 62.1047 30.4012C61.9797 30.1497 61.9171 29.8435 61.9171 29.4824L61.9172 29.4824ZM62.7001 29.5268C62.7001 29.8385 62.7681 30.0772 62.904 30.2429C63.0399 30.4086 63.2076 30.4915 63.4069 30.4915C63.6063 30.4915 63.7735 30.4086 63.9085 30.2429C64.0435 30.0772 64.111 29.8365 64.111 29.5209C64.111 29.2131 64.0435 28.9764 63.9085 28.8107C63.7735 28.645 63.6063 28.5621 63.4069 28.5621C63.2076 28.5621 63.0399 28.645 62.904 28.8107C62.7681 28.9764 62.7001 29.2151 62.7001 29.5268V29.5268Z" fill="white"/>
<path d="M66.2277 31.0981H65.4638V27.9556H66.1733V28.4024C66.2948 28.1913 66.404 28.0522 66.5009 27.9851C66.5979 27.9181 66.708 27.8845 66.8312 27.8845C67.0052 27.8845 67.1729 27.9368 67.3342 28.0414L67.0976 28.7663C66.969 28.6756 66.8494 28.6302 66.7388 28.6302C66.6318 28.6302 66.5412 28.6623 66.4669 28.7264C66.3926 28.7905 66.3342 28.9064 66.2916 29.0741C66.249 29.2418 66.2277 29.5929 66.2277 30.1275L66.2277 31.0981Z" fill="white"/>
<path d="M67.2981 27.9556H68.111L68.8015 30.1867L69.4757 27.9556H70.2668L69.2474 30.9798L69.0652 31.5272C68.9982 31.7107 68.9343 31.8507 68.8736 31.9474C68.8128 32.0441 68.7431 32.1225 68.6642 32.1827C68.5854 32.2428 68.4884 32.2897 68.3733 32.3232C68.2582 32.3568 68.1282 32.3735 67.9832 32.3735C67.8364 32.3735 67.6923 32.3567 67.551 32.3232L67.483 31.6722C67.6026 31.6978 67.7104 31.7107 67.8065 31.7107C67.9841 31.7107 68.1155 31.654 68.2007 31.5405C68.2859 31.4271 68.3511 31.2826 68.3964 31.107L67.2981 27.9556Z" fill="white"/>
<path d="M4.41125 37.0509L4.99069 37.1959C4.86922 37.6674 4.65068 38.027 4.33507 38.2745C4.01945 38.5221 3.63367 38.6459 3.17765 38.6459C2.70572 38.6459 2.3219 38.5507 2.02624 38.3604C1.73054 38.17 1.50552 37.8943 1.35122 37.5333C1.19689 37.1723 1.11974 36.7847 1.11974 36.3704C1.11974 35.9186 1.20685 35.5246 1.38108 35.1882C1.55531 34.8519 1.80321 34.5964 2.12481 34.4218C2.44639 34.2472 2.80032 34.1599 3.18665 34.1599C3.62473 34.1599 3.99309 34.2704 4.2918 34.4913C4.59048 34.7123 4.79855 35.023 4.91604 35.4235L4.34542 35.5551C4.24384 35.2394 4.09651 35.0097 3.90336 34.8658C3.71022 34.7219 3.46727 34.6498 3.17457 34.6498C2.83805 34.6498 2.55678 34.7297 2.33079 34.8895C2.10479 35.0493 1.946 35.2638 1.8544 35.5331C1.7628 35.8024 1.71701 36.08 1.71701 36.3661C1.717 36.735 1.77126 37.057 1.87979 37.3322C1.98831 37.6074 2.15707 37.8131 2.38605 37.9492C2.61504 38.0853 2.86294 38.1534 3.12979 38.1534C3.45435 38.1534 3.72915 38.0606 3.95416 37.8752C4.17917 37.6898 4.33148 37.4146 4.41115 37.0496L4.41125 37.0509Z" fill="white"/>
<path d="M7.70884 38.1858C7.50972 38.3535 7.31805 38.4718 7.13387 38.5409C6.94968 38.6099 6.75204 38.6445 6.54099 38.6445C6.19252 38.6445 5.9247 38.5601 5.73752 38.3915C5.55034 38.2228 5.45676 38.0073 5.45676 37.7449C5.45676 37.591 5.4921 37.4505 5.56279 37.3232C5.63348 37.196 5.72607 37.0939 5.84057 37.017C5.95506 36.94 6.084 36.8818 6.22735 36.8424C6.33288 36.8148 6.49218 36.7881 6.70524 36.7625C7.13935 36.7112 7.45892 36.65 7.66404 36.579C7.66603 36.506 7.66705 36.4597 7.66705 36.4399C7.66705 36.2229 7.61627 36.0701 7.51472 35.9813C7.37732 35.8609 7.17322 35.8008 6.90241 35.8008C6.64952 35.8008 6.46283 35.8447 6.34237 35.9325C6.2219 36.0202 6.13279 36.1756 6.07505 36.3985L5.54938 36.3275C5.59717 36.1046 5.67582 35.9246 5.78534 35.7875C5.89486 35.6504 6.05316 35.5448 6.26023 35.4708C6.46732 35.3969 6.70725 35.3599 6.98006 35.3599C7.25086 35.3599 7.4709 35.3914 7.64014 35.4546C7.8094 35.5177 7.93385 35.5971 8.0135 35.6928C8.09315 35.7884 8.1489 35.9093 8.18076 36.0553C8.19868 36.146 8.20764 36.3097 8.20764 36.5465V37.2567C8.20764 37.7518 8.21909 38.065 8.24199 38.1962C8.26488 38.3273 8.31018 38.4531 8.37789 38.5734H7.81635C7.76059 38.463 7.72475 38.3337 7.70882 38.1858L7.70884 38.1858ZM7.66404 36.9962C7.4689 37.0751 7.1762 37.1422 6.78589 37.1974C6.56486 37.229 6.40857 37.2645 6.31696 37.304C6.22537 37.3434 6.15468 37.4011 6.1049 37.4771C6.05511 37.553 6.03022 37.6374 6.03023 37.7301C6.03023 37.8721 6.08449 37.9905 6.19301 38.0852C6.30153 38.1799 6.46033 38.2272 6.6694 38.2272C6.87649 38.2272 7.06069 38.1823 7.22197 38.0926C7.38326 38.0028 7.50174 37.88 7.57741 37.7242C7.63515 37.6038 7.66403 37.4263 7.66403 37.1915L7.66404 36.9962Z" fill="white"/>
<path d="M9.03201 38.5723V34.2344H9.56965V38.5723H9.03201Z" fill="white"/>
<path d="M10.4089 34.8464V34.2339H10.9465V34.8464H10.4089ZM10.4089 38.572V35.4294H10.9465V38.572H10.4089Z" fill="white"/>
<path d="M11.8963 38.5724V35.8441H11.4214V35.4298H11.8963V35.0955C11.8963 34.8844 11.9152 34.7276 11.953 34.625C12.0048 34.4869 12.0959 34.3749 12.2263 34.2891C12.3567 34.2033 12.5394 34.1604 12.7744 34.1604C12.9257 34.1604 13.093 34.1782 13.2762 34.2137L13.1955 34.6782C13.084 34.6585 12.9785 34.6486 12.8789 34.6486C12.7156 34.6486 12.6002 34.6832 12.5325 34.7522C12.4648 34.8213 12.4309 34.9505 12.4309 35.1399V35.4299H13.0492V35.8441H12.4309V38.5724L11.8963 38.5724Z" fill="white"/>
<path d="M13.2641 37.0009C13.2641 36.419 13.4274 35.9879 13.754 35.7078C14.0268 35.475 14.3593 35.3586 14.7516 35.3586C15.1876 35.3586 15.5441 35.5002 15.8209 35.7833C16.0976 36.0664 16.236 36.4575 16.236 36.9566C16.236 37.361 16.1748 37.6791 16.0524 37.9109C15.9299 38.1427 15.7517 38.3227 15.5177 38.4509C15.2838 38.5792 15.0284 38.6433 14.7516 38.6433C14.3075 38.6433 13.9486 38.5022 13.6748 38.2201C13.401 37.938 13.2641 37.5316 13.2641 37.001V37.0009ZM13.8167 37.0009C13.8167 37.4034 13.9053 37.7047 14.0825 37.9049C14.2597 38.1052 14.4828 38.2053 14.7516 38.2053C15.0184 38.2053 15.2404 38.1047 15.4176 37.9035C15.5948 37.7022 15.6835 37.3955 15.6835 36.9832C15.6835 36.5945 15.5944 36.3001 15.4161 36.0999C15.2379 35.8996 15.0164 35.7995 14.7516 35.7995C14.4827 35.7995 14.2597 35.8991 14.0825 36.0984C13.9053 36.2976 13.8167 36.5985 13.8167 37.0009L13.8167 37.0009Z" fill="white"/>
<path d="M16.8633 38.5722V35.4296H17.3472V35.9061C17.4707 35.6831 17.5847 35.5362 17.6892 35.4652C17.7937 35.3942 17.9087 35.3586 18.0342 35.3586C18.2154 35.3586 18.3996 35.4159 18.5868 35.5303L18.4016 36.0244C18.2701 35.9475 18.1387 35.909 18.0073 35.909C17.8898 35.909 17.7843 35.944 17.6907 36.0141C17.5971 36.0841 17.5304 36.1813 17.4906 36.3055C17.4309 36.4949 17.401 36.7021 17.401 36.927V38.5722L16.8633 38.5722Z" fill="white"/>
<path d="M18.9122 38.5722V35.4297H19.396V35.8765C19.629 35.5313 19.9655 35.3586 20.4056 35.3586C20.5967 35.3586 20.7725 35.3927 20.9328 35.4607C21.093 35.5288 21.213 35.6181 21.2927 35.7285C21.3723 35.839 21.4281 35.9702 21.4599 36.1221C21.4798 36.2207 21.4898 36.3933 21.4898 36.6399V38.5722H20.9522V36.6606C20.9522 36.4436 20.9312 36.2814 20.8894 36.1739C20.8476 36.0664 20.7734 35.9806 20.6669 35.9164C20.5604 35.8523 20.4354 35.8203 20.2921 35.8203C20.0631 35.8203 19.8654 35.8923 19.6992 36.0363C19.5329 36.1803 19.4498 36.4535 19.4498 36.8559V38.5722L18.9122 38.5722Z" fill="white"/>
<path d="M22.3204 34.8464V34.2339H22.858V34.8464H22.3204ZM22.3204 38.572V35.4294H22.858V38.572H22.3204Z" fill="white"/>
<path d="M25.7491 38.1858C25.55 38.3535 25.3583 38.4718 25.1741 38.5409C24.99 38.6099 24.7923 38.6445 24.5813 38.6445C24.2328 38.6445 23.965 38.5601 23.7778 38.3915C23.5906 38.2228 23.497 38.0073 23.497 37.7449C23.497 37.591 23.5324 37.4505 23.6031 37.3232C23.6738 37.196 23.7664 37.0939 23.8808 37.017C23.9953 36.94 24.1243 36.8818 24.2676 36.8424C24.3732 36.8148 24.5325 36.7881 24.7455 36.7625C25.1796 36.7112 25.4992 36.65 25.7043 36.579C25.7063 36.506 25.7073 36.4597 25.7073 36.4399C25.7073 36.2229 25.6566 36.0701 25.555 35.9813C25.4176 35.8609 25.2135 35.8008 24.9427 35.8008C24.6898 35.8008 24.5031 35.8447 24.3826 35.9325C24.2622 36.0202 24.1731 36.1756 24.1153 36.3985L23.5897 36.3275C23.6375 36.1046 23.7161 35.9246 23.8256 35.7875C23.9351 35.6504 24.0934 35.5448 24.3005 35.4708C24.5076 35.3969 24.7475 35.3599 25.0203 35.3599C25.2911 35.3599 25.5112 35.3914 25.6804 35.4546C25.8497 35.5177 25.9741 35.5971 26.0538 35.6928C26.1334 35.7884 26.1892 35.9093 26.221 36.0553C26.239 36.146 26.2479 36.3097 26.2479 36.5465V37.2567C26.2479 37.7518 26.2594 38.065 26.2823 38.1962C26.3052 38.3273 26.3505 38.4531 26.4182 38.5734H25.8566C25.8009 38.463 25.765 38.3337 25.7491 38.1858L25.7491 38.1858ZM25.7043 36.9962C25.5092 37.0751 25.2165 37.1422 24.8262 37.1974C24.6051 37.229 24.4488 37.2645 24.3572 37.304C24.2656 37.3434 24.195 37.4011 24.1452 37.4771C24.0954 37.553 24.0705 37.6374 24.0705 37.7301C24.0705 37.8721 24.1248 37.9905 24.2333 38.0852C24.3418 38.1799 24.5006 38.2272 24.7097 38.2272C24.9168 38.2272 25.101 38.1823 25.2623 38.0926C25.4235 38.0028 25.542 37.88 25.6177 37.7242C25.6754 37.6038 25.7043 37.4263 25.7043 37.1915L25.7043 36.9962Z" fill="white"/>
<path d="M28.9482 38.5723V34.2344H29.5277V38.5723H28.9482Z" fill="white"/>
<path d="M30.4774 38.5722V35.4297H30.9613V35.8765C31.1943 35.5313 31.5308 35.3586 31.9708 35.3586C32.162 35.3586 32.3377 35.3927 32.498 35.4607C32.6583 35.5288 32.7783 35.6181 32.8579 35.7285C32.9376 35.839 32.9933 35.9702 33.0252 36.1221C33.0451 36.2207 33.055 36.3933 33.0551 36.6399V38.5722H32.5174V36.6606C32.5174 36.4436 32.4965 36.2814 32.4547 36.1739C32.4129 36.0664 32.3387 35.9806 32.2322 35.9164C32.1256 35.8523 32.0007 35.8203 31.8573 35.8203C31.6283 35.8203 31.4307 35.8923 31.2645 36.0363C31.0982 36.1803 31.015 36.4535 31.015 36.8559V38.5722L30.4774 38.5722Z" fill="white"/>
<path d="M33.6672 37.6354L34.1988 37.5526C34.2287 37.7637 34.3118 37.9254 34.4482 38.0379C34.5846 38.1503 34.7753 38.2065 35.0202 38.2065C35.2671 38.2065 35.4503 38.1567 35.5698 38.0571C35.6892 37.9575 35.749 37.8406 35.749 37.7065C35.749 37.5861 35.6962 37.4914 35.5907 37.4224C35.517 37.375 35.3338 37.3149 35.0411 37.2419C34.6469 37.1432 34.3736 37.0579 34.2212 36.9859C34.0689 36.9139 33.9534 36.8143 33.8748 36.687C33.7961 36.5598 33.7568 36.4192 33.7568 36.2654C33.7568 36.1253 33.7891 35.9956 33.8539 35.8762C33.9186 35.7569 34.0067 35.6578 34.1182 35.5788C34.2018 35.5177 34.3158 35.4659 34.4602 35.4235C34.6045 35.3811 34.7594 35.3599 34.9246 35.3599C35.1735 35.3599 35.3921 35.3954 35.5803 35.4664C35.7684 35.5374 35.9073 35.6336 35.9969 35.7549C36.0865 35.8762 36.1482 36.0385 36.1821 36.2417L35.6564 36.3127C35.6325 36.1509 35.5633 36.0247 35.4488 35.9339C35.3343 35.8432 35.1726 35.7978 34.9635 35.7978C34.7166 35.7978 34.5403 35.8382 34.4348 35.9191C34.3293 36 34.2765 36.0947 34.2765 36.2032C34.2765 36.2722 34.2984 36.3344 34.3422 36.3896C34.386 36.4468 34.4547 36.4942 34.5483 36.5317C34.6021 36.5514 34.7604 36.5968 35.0232 36.6678C35.4035 36.7684 35.6688 36.8508 35.8192 36.9149C35.9696 36.979 36.0875 37.0722 36.1732 37.1945C36.2588 37.3168 36.3016 37.4687 36.3016 37.6502C36.3016 37.8277 36.2493 37.9949 36.1448 38.1518C36.0402 38.3086 35.8894 38.4299 35.6923 38.5157C35.4952 38.6015 35.2721 38.6444 35.0232 38.6444C34.6111 38.6444 34.2969 38.5596 34.0809 38.39C33.8648 38.2203 33.7269 37.9688 33.6672 37.6354L33.6672 37.6354Z" fill="white"/>
<path d="M38.1148 38.0965L38.1924 38.567C38.0411 38.5986 37.9057 38.6144 37.7862 38.6144C37.5911 38.6144 37.4397 38.5837 37.3322 38.5226C37.2247 38.4615 37.149 38.3811 37.1052 38.2815C37.0614 38.1818 37.0395 37.9722 37.0395 37.6526V35.8446H36.6453V35.4303H37.0395V34.6521L37.5741 34.3325V35.4303H38.1147V35.8446H37.5741V37.6822C37.5741 37.8341 37.5836 37.9318 37.6025 37.9752C37.6214 38.0186 37.6523 38.0531 37.6951 38.0787C37.7379 38.1044 37.7991 38.1172 37.8788 38.1172C37.9385 38.1172 38.0172 38.1103 38.1148 38.0965L38.1148 38.0965Z" fill="white"/>
<path d="M38.6415 34.8464V34.2339H39.1791V34.8464H38.6415ZM38.6415 38.572V35.4294H39.1791V38.572H38.6415Z" fill="white"/>
<path d="M41.1747 38.0965L41.2523 38.567C41.101 38.5986 40.9656 38.6144 40.8461 38.6144C40.651 38.6144 40.4996 38.5837 40.3921 38.5226C40.2846 38.4615 40.2089 38.3811 40.1651 38.2815C40.1213 38.1818 40.0994 37.9722 40.0994 37.6526V35.8446H39.7051V35.4303H40.0994V34.6521L40.634 34.3325V35.4303H41.1746V35.8446H40.634V37.6822C40.634 37.8341 40.6435 37.9318 40.6624 37.9752C40.6813 38.0186 40.7122 38.0531 40.755 38.0787C40.7978 38.1044 40.859 38.1172 40.9387 38.1172C40.9984 38.1172 41.0771 38.1103 41.1747 38.0965V38.0965Z" fill="white"/>
<path d="M43.7751 38.5723V38.1107C43.5282 38.4657 43.1927 38.6433 42.7685 38.6433C42.5814 38.6433 42.4066 38.6078 42.2443 38.5368C42.0821 38.4658 41.9616 38.3765 41.8829 38.269C41.8043 38.1615 41.749 38.0298 41.7172 37.8739C41.6953 37.7694 41.6843 37.6037 41.6843 37.3768V35.4297H42.2219V37.1726C42.2219 37.4508 42.2329 37.6382 42.2548 37.7348C42.2886 37.8749 42.3603 37.9849 42.4699 38.0648C42.5794 38.1447 42.7148 38.1846 42.8761 38.1846C43.0374 38.1846 43.1887 38.1437 43.3301 38.0618C43.4714 37.98 43.5715 37.8685 43.6302 37.7274C43.689 37.5864 43.7183 37.3817 43.7184 37.1134V35.4297H44.256V38.5723L43.7751 38.5723Z" fill="white"/>
<path d="M46.2744 38.0965L46.352 38.567C46.2007 38.5986 46.0653 38.6144 45.9458 38.6144C45.7507 38.6144 45.5993 38.5837 45.4918 38.5226C45.3843 38.4615 45.3086 38.3811 45.2648 38.2815C45.221 38.1818 45.1991 37.9722 45.1991 37.6526V35.8446H44.8049V35.4303H45.1991V34.6521L45.7337 34.3325V35.4303H46.2743V35.8446H45.7337V37.6822C45.7337 37.8341 45.7432 37.9318 45.7621 37.9752C45.781 38.0186 45.8119 38.0531 45.8547 38.0787C45.8975 38.1044 45.9588 38.1172 46.0384 38.1172C46.0981 38.1172 46.1768 38.1103 46.2744 38.0965L46.2744 38.0965Z" fill="white"/>
<path d="M48.9687 37.5612L49.5243 37.6293C49.4367 37.9508 49.2744 38.2004 49.0374 38.3779C48.8005 38.5555 48.4978 38.6442 48.1294 38.6442C47.6655 38.6442 47.2976 38.5027 47.0258 38.2196C46.754 37.9365 46.6181 37.5395 46.6181 37.0286C46.6181 36.4999 46.7555 36.0895 47.0303 35.7976C47.3051 35.5056 47.6615 35.3596 48.0996 35.3596C48.5237 35.3596 48.8702 35.5026 49.139 35.7887C49.4078 36.0747 49.5422 36.4772 49.5422 36.996C49.5422 37.0276 49.5411 37.0749 49.5392 37.138H47.1736C47.1936 37.4833 47.2921 37.7476 47.4693 37.9311C47.6465 38.1145 47.8676 38.2063 48.1324 38.2063C48.3295 38.2063 48.4978 38.155 48.6372 38.0524C48.7766 37.9498 48.8871 37.7861 48.9687 37.5612L48.9687 37.5612ZM47.2035 36.7001H48.9747C48.9508 36.4357 48.8831 36.2375 48.7716 36.1053C48.6004 35.9002 48.3783 35.7976 48.1056 35.7976C47.8586 35.7976 47.651 35.8794 47.4828 36.0432C47.3145 36.2069 47.2215 36.4259 47.2035 36.7001L47.2035 36.7001Z" fill="white"/>
<path d="M51.7007 37.0009C51.7007 36.419 51.864 35.9879 52.1905 35.7078C52.4633 35.475 52.7959 35.3586 53.1881 35.3586C53.6242 35.3586 53.9806 35.5002 54.2574 35.7833C54.5342 36.0664 54.6726 36.4575 54.6726 36.9566C54.6726 37.361 54.6114 37.6791 54.4889 37.9109C54.3664 38.1427 54.1882 38.3227 53.9543 38.4509C53.7203 38.5792 53.4649 38.6433 53.1881 38.6433C52.7441 38.6433 52.3851 38.5022 52.1114 38.2201C51.8376 37.938 51.7007 37.5316 51.7007 37.001L51.7007 37.0009ZM52.2533 37.0009C52.2533 37.4034 52.3419 37.7047 52.5191 37.9049C52.6963 38.1052 52.9194 38.2053 53.1882 38.2053C53.455 38.2053 53.677 38.1047 53.8542 37.9035C54.0314 37.7022 54.12 37.3955 54.12 36.9832C54.12 36.5945 54.0309 36.3001 53.8527 36.0999C53.6745 35.8996 53.453 35.7995 53.1881 35.7995C52.9193 35.7995 52.6963 35.8991 52.5191 36.0984C52.3419 36.2976 52.2532 36.5985 52.2532 37.0009L52.2533 37.0009Z" fill="white"/>
<path d="M55.4308 38.5724V35.8441H54.9559V35.4298H55.4308V35.0955C55.4308 34.8844 55.4497 34.7276 55.4876 34.625C55.5394 34.4869 55.6304 34.3749 55.7609 34.2891C55.8913 34.2033 56.074 34.1604 56.3089 34.1604C56.4603 34.1604 56.6275 34.1782 56.8107 34.2137L56.7301 34.6782C56.6186 34.6585 56.5131 34.6486 56.4135 34.6486C56.2502 34.6486 56.1347 34.6832 56.067 34.7522C55.9993 34.8213 55.9655 34.9505 55.9655 35.1399V35.4299H56.5837V35.8441H55.9655V38.5724L55.4308 38.5724Z" fill="white"/>
<path d="M59.8814 38.5723V34.7463H58.4387V34.2344H61.9094V34.7463H60.4608V38.5723H59.8814Z" fill="white"/>
<path d="M64.6097 37.5612L65.1652 37.6293C65.0776 37.9508 64.9153 38.2004 64.6784 38.3779C64.4414 38.5555 64.1388 38.6442 63.7704 38.6442C63.3064 38.6442 62.9386 38.5027 62.6668 38.2196C62.3949 37.9365 62.2591 37.5395 62.2591 37.0286C62.2591 36.4999 62.3965 36.0895 62.6713 35.7976C62.9461 35.5056 63.3025 35.3596 63.7405 35.3596C64.1646 35.3596 64.5111 35.5026 64.78 35.7887C65.0488 36.0747 65.1832 36.4772 65.1832 36.996C65.1832 37.0276 65.1821 37.0749 65.1802 37.138H62.8146C62.8345 37.4833 62.9331 37.7476 63.1103 37.9311C63.2875 38.1145 63.5085 38.2063 63.7734 38.2063C63.9705 38.2063 64.1388 38.155 64.2781 38.0524C64.4175 37.9498 64.528 37.7861 64.6097 37.5612L64.6097 37.5612ZM62.8445 36.7001H64.6157C64.5918 36.4357 64.5241 36.2375 64.4126 36.1053C64.2413 35.9002 64.0193 35.7976 63.7465 35.7976C63.4996 35.7976 63.292 35.8794 63.1238 36.0432C62.9555 36.2069 62.8624 36.4259 62.8445 36.7001L62.8445 36.7001Z" fill="white"/>
<path d="M67.912 37.4199L68.4407 37.488C68.3829 37.849 68.2351 38.1316 67.9971 38.3358C67.7592 38.5399 67.467 38.642 67.1205 38.642C66.6864 38.642 66.3374 38.5015 66.0736 38.2203C65.8097 37.9392 65.6778 37.5363 65.6778 37.0116C65.6778 36.6722 65.7346 36.3753 65.8481 36.1209C65.9616 35.8664 66.1343 35.6755 66.3663 35.5483C66.5983 35.421 66.8507 35.3574 67.1235 35.3574C67.468 35.3574 67.7497 35.4437 67.9688 35.6163C68.1878 35.789 68.3282 36.0341 68.3899 36.3517L67.8672 36.4316C67.8174 36.2205 67.7293 36.0617 67.6029 35.9551C67.4764 35.8486 67.3236 35.7954 67.1444 35.7953C66.8736 35.7954 66.6535 35.8915 66.4843 36.0839C66.315 36.2762 66.2304 36.5805 66.2304 36.9968C66.2304 37.4189 66.3121 37.7257 66.4753 37.9171C66.6386 38.1084 66.8517 38.2041 67.1145 38.2041C67.3256 38.2041 67.5018 38.14 67.6432 38.0117C67.7846 37.8835 67.8742 37.6862 67.912 37.4199L67.912 37.4199Z" fill="white"/>
<path d="M68.8989 38.5723V34.2344H69.4365V35.7909C69.6874 35.5028 70.004 35.3588 70.3863 35.3588C70.6213 35.3588 70.8254 35.4047 70.9986 35.4964C71.1719 35.5881 71.2958 35.7149 71.3705 35.8767C71.4452 36.0384 71.4825 36.2732 71.4825 36.5809V38.5724H70.9449V36.5809C70.9449 36.3146 70.8866 36.1208 70.7702 35.9995C70.6537 35.8781 70.4889 35.8175 70.2758 35.8175C70.1165 35.8175 69.9667 35.8584 69.8263 35.9403C69.6859 36.0221 69.5859 36.1331 69.5261 36.2732C69.4664 36.4132 69.4365 36.6066 69.4365 36.8531V38.5724L68.8989 38.5723Z" fill="white"/>
<path d="M72.3063 38.5722V35.4297H72.7902V35.8765C73.0232 35.5313 73.3597 35.3586 73.7997 35.3586C73.9909 35.3586 74.1666 35.3927 74.3269 35.4607C74.4872 35.5288 74.6072 35.6181 74.6868 35.7285C74.7665 35.839 74.8222 35.9702 74.8541 36.1221C74.874 36.2207 74.884 36.3933 74.884 36.6399V38.5722H74.3463V36.6606C74.3463 36.4436 74.3254 36.2814 74.2836 36.1739C74.2418 36.0664 74.1676 35.9806 74.0611 35.9164C73.9546 35.8523 73.8296 35.8203 73.6863 35.8203C73.4573 35.8203 73.2596 35.8923 73.0934 36.0363C72.9271 36.1803 72.844 36.4535 72.844 36.8559V38.5722L72.3063 38.5722Z" fill="white"/>
<path d="M75.511 37.0009C75.511 36.419 75.6743 35.9879 76.0009 35.7078C76.2737 35.475 76.6062 35.3586 76.9985 35.3586C77.4345 35.3586 77.791 35.5002 78.0677 35.7833C78.3445 36.0664 78.4829 36.4575 78.4829 36.9566C78.4829 37.361 78.4217 37.6791 78.2992 37.9109C78.1768 38.1427 77.9985 38.3227 77.7646 38.4509C77.5306 38.5792 77.2752 38.6433 76.9985 38.6433C76.5544 38.6433 76.1955 38.5022 75.9217 38.2201C75.6479 37.938 75.511 37.5316 75.511 37.001L75.511 37.0009ZM76.0636 37.0009C76.0636 37.4034 76.1522 37.7047 76.3294 37.9049C76.5067 38.1052 76.7297 38.2053 76.9985 38.2053C77.2653 38.2053 77.4873 38.1047 77.6645 37.9035C77.8418 37.7022 77.9304 37.3955 77.9304 36.9832C77.9304 36.5945 77.8413 36.3001 77.663 36.0999C77.4848 35.8996 77.2633 35.7995 76.9985 35.7995C76.7296 35.7995 76.5066 35.8991 76.3294 36.0984C76.1522 36.2976 76.0636 36.5985 76.0636 37.0009L76.0636 37.0009Z" fill="white"/>
<path d="M79.1023 38.5723V34.2344H79.64V38.5723H79.1023Z" fill="white"/>
<path d="M80.2769 37.0009C80.2769 36.419 80.4402 35.9879 80.7667 35.7078C81.0395 35.475 81.372 35.3586 81.7643 35.3586C82.2004 35.3586 82.5568 35.5002 82.8336 35.7833C83.1104 36.0664 83.2488 36.4575 83.2488 36.9566C83.2488 37.361 83.1876 37.6791 83.0651 37.9109C82.9426 38.1427 82.7644 38.3227 82.5305 38.4509C82.2965 38.5792 82.0411 38.6433 81.7643 38.6433C81.3203 38.6433 80.9614 38.5022 80.6876 38.2201C80.4138 37.938 80.2769 37.5316 80.2769 37.001V37.0009ZM80.8295 37.0009C80.8295 37.4034 80.9181 37.7047 81.0953 37.9049C81.2725 38.1052 81.4955 38.2053 81.7643 38.2053C82.0312 38.2053 82.2532 38.1047 82.4304 37.9035C82.6076 37.7022 82.6962 37.3955 82.6962 36.9832C82.6962 36.5945 82.6071 36.3001 82.4289 36.0999C82.2507 35.8996 82.0292 35.7995 81.7643 35.7995C81.4955 35.7995 81.2725 35.8991 81.0953 36.0984C80.918 36.2976 80.8294 36.5985 80.8294 37.0009L80.8295 37.0009Z" fill="white"/>
<path d="M83.7817 38.8326L84.3045 38.9095C84.3264 39.0693 84.3871 39.1857 84.4866 39.2587C84.6201 39.3573 84.8023 39.4067 85.0333 39.4067C85.2822 39.4067 85.4743 39.3573 85.6097 39.2587C85.7451 39.1601 85.8367 39.022 85.8845 38.8444C85.9124 38.7359 85.9253 38.5081 85.9234 38.1609C85.6884 38.4351 85.3957 38.5722 85.0452 38.5722C84.6091 38.5722 84.2716 38.4164 84.0327 38.1047C83.7937 37.793 83.6742 37.4192 83.6742 36.9832C83.6742 36.6833 83.729 36.4067 83.8385 36.1532C83.948 35.8997 84.1068 35.7039 84.3149 35.5658C84.523 35.4277 84.7674 35.3586 85.0482 35.3586C85.4225 35.3586 85.7312 35.5086 85.9741 35.8084V35.4297H86.4699V38.1461C86.4699 38.6354 86.4196 38.9821 86.3191 39.1862C86.2185 39.3904 86.0592 39.5517 85.8412 39.6701C85.6231 39.7884 85.3548 39.8476 85.0362 39.8476C84.6579 39.8476 84.3522 39.7633 84.1193 39.5946C83.8863 39.4259 83.7738 39.1719 83.7818 38.8326L83.7817 38.8326ZM84.2268 36.9447C84.2268 37.357 84.3094 37.6578 84.4747 37.8472C84.64 38.0366 84.8471 38.1313 85.096 38.1313C85.3429 38.1313 85.55 38.0371 85.7173 37.8487C85.8845 37.6603 85.9682 37.3649 85.9682 36.9624C85.9682 36.5778 85.8821 36.2878 85.7098 36.0925C85.5376 35.8972 85.33 35.7995 85.0871 35.7995C84.8481 35.7995 84.645 35.8957 84.4778 36.088C84.3105 36.2804 84.2269 36.5659 84.2269 36.9447L84.2268 36.9447Z" fill="white"/>
<path d="M87.2642 39.7806L87.2045 39.2805C87.322 39.3121 87.4245 39.3279 87.5121 39.3279C87.6316 39.3279 87.7272 39.3081 87.7989 39.2687C87.8705 39.2292 87.9293 39.174 87.9751 39.103C88.0089 39.0497 88.0637 38.9175 88.1394 38.7064C88.1493 38.6768 88.1652 38.6334 88.1871 38.5762L86.9835 35.4277H87.5629L88.223 37.2476C88.3086 37.4784 88.3853 37.721 88.453 37.9755C88.5147 37.7309 88.5884 37.4922 88.674 37.2594L89.352 35.4277H89.8897L88.683 38.6236C88.5535 38.9688 88.453 39.2065 88.3813 39.3367C88.2857 39.5123 88.1762 39.641 88.0527 39.7229C87.9293 39.8047 87.7819 39.8457 87.6107 39.8457C87.5071 39.8457 87.3916 39.8239 87.2642 39.7806L87.2642 39.7806Z" fill="white"/>
<path d="M2.62522 18.8914L4.04654 16.2715L9.52134 16.168C13.9427 16.0844 15.057 15.9698 15.3125 15.5721C15.4865 15.3012 15.6311 11.7938 15.6339 7.77594L15.639 0.472168H19.1484H22.6578V9.1225C22.6578 17.5528 22.6386 17.8004 21.9058 18.858C21.4922 19.4549 20.7295 20.2523 20.2109 20.63C19.3175 21.2806 18.7939 21.3218 10.2359 21.414L1.2039 21.5113L2.62522 18.8914Z" fill="white"/>
<path d="M24.9973 10.9765V0.472168H35.4547C45.6354 0.472168 45.9514 0.491699 47.4006 1.21075C51.8124 3.39972 52.8108 11.3858 49.0858 14.691C47.4657 16.1286 46.4458 16.2951 40.0645 16.1637L35.2452 16.0645L33.7978 13.6567C33.0017 12.3324 32.3503 11.1876 32.3503 11.1127C32.3503 11.0378 34.7568 10.9765 37.698 10.9765C42.6 10.9765 43.1013 10.9218 43.7141 10.32C44.6257 9.42462 44.6212 7.27177 43.7058 6.37275C43.0737 5.75186 42.6724 5.71407 37.6062 5.79829L32.1832 5.88845L32.0936 13.6846L32.004 21.4808H28.5007H24.9973V10.9765H24.9973Z" fill="white"/>
<path d="M55.1441 20.9317C53.1517 19.9673 53.0725 19.5313 53.0725 9.51561V0.472168H56.2415H59.4105L59.5003 8.1042L59.59 15.7362L65.5227 15.8259L71.4554 15.9155L72.7921 18.5267C73.5273 19.9629 74.1289 21.2151 74.1289 21.3094C74.1289 21.4036 70.1056 21.4774 65.1883 21.4733C57.6159 21.467 56.0788 21.3841 55.1441 20.9317V20.9317Z" fill="white"/>
</svg>
