<svg width="48" height="48" viewBox="0 0 48 48" fill="none" xmlns="http://www.w3.org/2000/svg">
<path d="M23.9989 3C21.2709 3.00614 18.6088 3.83862 16.3632 5.38774C14.1177 6.93686 12.3942 9.12993 11.4198 11.678C10.4454 14.2261 10.2659 17.0095 10.9048 19.6617C11.5437 22.3138 12.9711 24.7102 14.9989 26.535V45L23.9989 39L32.9989 45V26.535C35.0267 24.7102 36.4541 22.3138 37.093 19.6617C37.7319 17.0095 37.5524 14.2261 36.578 11.678C35.6036 9.12993 33.8801 6.93686 31.6346 5.38774C29.3891 3.83862 26.7269 3.00614 23.9989 3V3ZM29.9989 39.39L25.6639 36.51L23.9989 35.4L22.3339 36.51L17.9989 39.39V28.575C19.8596 29.5138 21.9147 30.0029 23.9989 30.0029C26.0831 30.0029 28.1382 29.5138 29.9989 28.575V39.39ZM31.3339 24C29.5992 25.6936 27.3318 26.7347 24.9167 26.9466C22.5016 27.1585 20.0875 26.5282 18.0844 25.1625C16.0812 23.7969 14.6123 21.7802 13.9271 19.4546C13.2418 17.1291 13.3824 14.6381 14.325 12.4044C15.2676 10.1708 16.9541 8.33215 19.0982 7.20062C21.2424 6.06908 23.712 5.71438 26.0879 6.19673C28.4639 6.67907 30.5997 7.96873 32.1328 9.8468C33.6659 11.7249 34.5019 14.0756 34.4989 16.5C34.4971 17.8979 34.2163 19.2813 33.6728 20.5692C33.1293 21.8571 32.3341 23.0235 31.3339 24Z" fill="#F59E0B"/>
</svg>
