<svg width="181" height="25" viewBox="0 0 181 25" fill="none" xmlns="http://www.w3.org/2000/svg">
<path d="M0.51239 0.745997C0.82839 0.739997 1.14439 0.728997 1.46039 0.728497C2.48489 0.725997 3.50939 0.727497 4.53389 0.727497C4.63289 0.727497 4.73239 0.727497 4.85539 0.727497V23.648H0.51239V0.745997Z" fill="black"/>
<path d="M9.01239 0.745997C9.32839 0.739997 9.64439 0.728997 9.96039 0.728497C10.9849 0.725997 12.0094 0.727497 13.0339 0.727497C13.1329 0.727497 13.2324 0.727497 13.3554 0.727497V23.648H9.01239V0.745997Z" fill="black"/>
<path d="M37.0124 0.745997C37.3284 0.739997 37.6444 0.728997 37.9604 0.728497C38.9849 0.725997 40.0094 0.727497 41.0339 0.727497C41.1329 0.727497 41.2324 0.727497 41.3554 0.727497V23.648H37.0124V0.745997Z" fill="black"/>
<path d="M22.0109 19.9885H34.6899V23.7335H17.6699V0.841998C17.7589 0.836998 17.8469 0.827998 17.9349 0.827998C23.3079 0.827498 28.6809 0.828498 34.0539 0.822998C34.2799 0.822998 34.3494 0.879498 34.3464 1.113C34.3334 2.177 34.3409 3.2415 34.3409 4.306V4.587H22.0089V10.073H30.1909V13.8515H22.0114V19.989L22.0109 19.9885Z" fill="black"/>
<path d="M152.33 21.679V23.7315H148.14V0.5H152.367V9.3525C152.668 9.076 152.966 8.779 153.29 8.5115C154.571 7.452 156.068 7.0285 157.706 7.1245C160.985 7.3165 163.357 9.2765 164.225 12.5865C164.897 15.1455 164.756 17.679 163.622 20.1045C162.371 22.78 159.751 24.3045 156.805 24.0845C155.051 23.9535 153.593 23.227 152.477 21.8525C152.446 21.8145 152.414 21.778 152.33 21.679H152.33ZM152.124 15.6995C152.173 16.1865 152.192 16.6785 152.276 17.1595C152.469 18.2545 152.906 19.228 153.834 19.9085C155.891 21.417 158.8 20.518 159.715 18.0825C160.226 16.722 160.226 15.315 159.984 13.9035C159.829 12.9995 159.464 12.1905 158.786 11.545C157.376 10.2045 154.176 10.0225 152.814 12.635C152.313 13.597 152.143 14.6255 152.124 15.699V15.6995Z" fill="black"/>
<path d="M145.16 23.7406H141.028V21.6391C140.712 21.9906 140.437 22.3441 140.114 22.6456C139.241 23.4611 138.179 23.8921 137.008 24.0641C135.637 24.2656 134.283 24.2051 132.977 23.7021C130.947 22.9211 129.893 21.2306 130.007 19.0616C130.112 17.0681 131.187 15.8331 132.975 15.1176C134.302 14.5866 135.694 14.2991 137.089 14.0206C138.035 13.8316 138.977 13.6286 139.919 13.4241C140.08 13.3891 140.237 13.3256 140.389 13.2586C141.021 12.9786 141.2 12.5686 140.987 11.9066C140.826 11.4046 140.475 11.0631 140.003 10.8751C138.696 10.3536 137.367 10.3136 136.071 10.8836C135.125 11.3001 134.666 12.0906 134.622 13.1196C134.62 13.1606 134.617 13.2016 134.614 13.2651H130.363C130.362 12.6056 130.485 11.9746 130.707 11.3641C131.404 9.44807 132.817 8.28407 134.702 7.64307C136.061 7.18107 137.466 7.07807 138.891 7.16657C139.826 7.22457 140.744 7.36456 141.625 7.68956C143.455 8.36456 144.569 9.66857 144.956 11.5666C145.085 12.1971 145.148 12.8511 145.151 13.4951C145.17 16.8041 145.16 20.1136 145.16 23.4226V23.7401L145.16 23.7406ZM141.063 15.6871C140.675 15.8366 140.314 16.0101 139.934 16.1151C138.861 16.4121 137.778 16.6746 136.704 16.9646C136.124 17.1211 135.561 17.3296 135.08 17.7056C134.457 18.1936 134.23 18.8421 134.379 19.6076C134.522 20.3371 135.024 20.7451 135.706 20.9546C136.359 21.1551 137.024 21.1246 137.683 21.0031C139.121 20.7386 140.21 20.0131 140.759 18.6096C141.128 17.6656 141.076 16.6766 141.063 15.6871Z" fill="black"/>
<path d="M92.2744 17.013H80.4139C80.4409 17.1925 80.4579 17.3445 80.4869 17.4935C80.8619 19.418 82.2884 20.6155 84.2544 20.6685C84.9074 20.686 85.5514 20.644 86.1764 20.441C87.2089 20.106 87.9399 19.435 88.3904 18.4535C88.4284 18.3705 88.4639 18.2865 88.5014 18.203C88.5044 18.196 88.5134 18.1915 88.5419 18.165C89.7639 18.5925 90.9994 19.025 92.2609 19.467C92.2134 19.579 92.1779 19.6765 92.1324 19.7695C91.0084 22.073 89.1339 23.3805 86.6444 23.838C84.8844 24.1615 83.1254 24.1395 81.4114 23.579C78.6499 22.676 77.0094 20.74 76.4089 17.9365C75.9619 15.849 76.0749 13.777 76.9634 11.8095C78.1599 9.16097 80.2399 7.64297 83.1159 7.23197C84.7644 6.99647 86.3764 7.16897 87.9019 7.86147C89.9949 8.81147 91.2514 10.473 91.8829 12.6445C92.1824 13.675 92.2614 14.7335 92.2739 15.7995C92.2784 16.196 92.2749 16.593 92.2749 17.013H92.2744ZM87.9284 14.032C87.8964 13.789 87.8784 13.5665 87.8359 13.349C87.5819 12.042 86.9359 11.0515 85.5959 10.6435C84.8994 10.4315 84.1859 10.4065 83.4704 10.528C81.4219 10.876 80.4894 12.602 80.3689 14.0315H87.9284V14.032Z" fill="black"/>
<path d="M60.0539 17.016H48.2109C48.2984 17.8225 48.5364 18.544 49.0029 19.1805C49.5214 19.887 50.2239 20.3245 51.0709 20.527C52.0119 20.7515 52.9524 20.734 53.8829 20.4645C54.9649 20.151 55.7219 19.4615 56.1914 18.4475C56.2329 18.358 56.2719 18.267 56.3204 18.158C57.5649 18.594 58.8009 19.0265 60.0864 19.4765C59.8749 19.86 59.6944 20.231 59.4754 20.578C58.5899 21.98 57.3529 22.9585 55.7829 23.4795C53.6404 24.191 51.4619 24.263 49.2989 23.5995C46.4994 22.741 44.8334 20.7995 44.2154 17.9775C43.7489 15.8485 43.8694 13.738 44.7954 11.735C46.0029 9.12297 48.0749 7.63647 50.9194 7.22997C52.4639 7.00947 53.9794 7.15597 55.4304 7.74497C57.4389 8.56047 58.7519 10.043 59.4924 12.0575C60.0789 13.6525 60.0934 15.311 60.0544 17.016H60.0539ZM55.6959 14.0355C55.7014 13.973 55.7089 13.94 55.7064 13.908C55.5599 12.222 54.7679 10.7365 52.6769 10.499C51.3254 10.3455 50.1064 10.6345 49.1584 11.6825C48.5599 12.3445 48.2669 13.144 48.1434 14.0355H55.6954H55.6959Z" fill="black"/>
<path d="M98.9159 7.45753V10.032C98.9849 9.92903 99.0179 9.88903 99.0414 9.84403C99.9699 8.06353 101.459 7.18353 103.449 7.11553C104.583 7.07653 105.674 7.25203 106.669 7.83503C107.878 8.54303 108.574 9.63553 108.979 10.94C109.275 11.8925 109.384 12.8735 109.385 13.8665C109.388 17.0765 109.386 20.286 109.386 23.496V23.734H105.086C105.086 23.628 105.086 23.5305 105.086 23.433C105.086 20.3645 105.093 17.296 105.079 14.228C105.077 13.7495 105.028 13.2625 104.926 12.7955C104.648 11.5315 103.809 10.8495 102.512 10.7785C100.936 10.692 99.8119 11.4725 99.2829 13.017C99.0244 13.772 98.9229 14.551 98.9229 15.3455C98.9229 18.0395 98.9229 20.734 98.9229 23.428C98.9229 23.526 98.9229 23.624 98.9229 23.7365H94.6329C94.6279 23.6475 94.6184 23.56 94.6184 23.4725C94.6179 18.2255 94.6189 12.9785 94.6134 7.73103C94.6134 7.50653 94.6679 7.43603 94.9029 7.43853C96.1524 7.45053 97.4019 7.44403 98.6514 7.44503C98.7324 7.44503 98.8134 7.45253 98.9159 7.45803V7.45753Z" fill="black"/>
<path d="M179.96 10.6696C178.823 11.2711 177.707 11.8611 176.591 12.4511C176.34 12.1741 176.111 11.8756 175.836 11.6291C174.587 10.5106 173.127 10.2086 171.513 10.5766C171.135 10.6626 170.797 10.8446 170.524 11.1296C169.893 11.7886 170.047 12.7911 170.895 13.1131C171.612 13.3856 172.374 13.5541 173.129 13.7136C174.455 13.9936 175.794 14.2186 177.049 14.7636C177.803 15.0911 178.515 15.4911 179.065 16.1136C180.277 17.4871 180.373 19.0546 179.726 20.6826C179.128 22.1866 177.936 23.1101 176.463 23.6901C174.994 24.2686 173.467 24.3506 171.918 24.1416C169.919 23.8726 168.165 23.0861 166.73 21.6481C166.467 21.3851 166.233 21.0946 165.963 20.7921C167.121 20.1326 168.239 19.4956 169.372 18.8501C169.423 18.9111 169.471 18.9641 169.515 19.0211C170.775 20.6496 172.966 21.1571 174.551 20.7556C175.223 20.5851 175.76 20.2351 175.929 19.5021C176.051 18.9721 175.916 18.5586 175.433 18.3191C174.954 18.0816 174.437 17.8976 173.918 17.7671C172.749 17.4736 171.562 17.2526 170.394 16.9541C169.356 16.6891 168.376 16.2721 167.541 15.5766C166.427 14.6496 166.003 13.4356 166.108 12.0256C166.235 10.3256 167.141 9.09361 168.537 8.19611C169.845 7.35511 171.301 7.04061 172.844 7.07961C175.679 7.15161 178.019 8.24212 179.807 10.4621C179.854 10.5201 179.896 10.5826 179.96 10.6706V10.6696Z" fill="black"/>
<path d="M117.933 0.841064V19.9806H128.326V23.7341H113.551V0.841064H117.933Z" fill="black"/>
<path d="M60.1344 7.44401H61.1714C62.2129 7.44401 63.2544 7.44901 64.2954 7.43951C64.4914 7.43751 64.5829 7.48651 64.6494 7.68351C65.5384 10.3095 66.4384 12.932 67.3359 15.5555C67.6689 16.5295 68.0019 17.503 68.3354 18.477C68.3614 18.5525 68.3919 18.626 68.4744 18.7065C69.6654 14.956 70.8564 11.205 72.0484 7.45201H76.3339C76.3154 7.52351 76.3054 7.58601 76.2839 7.64451C74.3444 12.946 72.4034 18.2465 70.4689 23.5495C70.4089 23.7145 70.3284 23.7565 70.1629 23.7555C68.9799 23.7485 67.7969 23.7475 66.6139 23.7565C66.4399 23.758 66.3679 23.6975 66.3089 23.544C64.2754 18.251 62.2379 12.9595 60.2019 7.66751C60.1789 7.60751 60.1644 7.54451 60.1339 7.44401H60.1344Z" fill="black"/>
</svg>
