<svg width="650" height="569" viewBox="0 0 650 569" fill="none" xmlns="http://www.w3.org/2000/svg">
<rect width="650" height="569" fill="#FB923C"/>
<g filter="url(#filter0_dd_170_76803)">
<rect x="65" y="82" width="521" height="404" rx="24" fill="white" shape-rendering="crispEdges"/>
<path d="M120.739 140.209H113.881V127.645H115.393V138.877H120.739V140.209ZM130.297 140.209H129.487C128.425 140.209 127.993 139.561 127.885 138.697H127.795C127.399 139.831 126.409 140.425 125.113 140.425C123.151 140.425 121.999 139.345 121.999 137.617C121.999 135.871 123.259 134.899 125.959 134.899H127.795V133.981C127.795 132.667 127.075 131.947 125.599 131.947C124.483 131.947 123.745 132.487 123.241 133.333L122.377 132.523C122.881 131.533 123.997 130.705 125.671 130.705C127.903 130.705 129.235 131.875 129.235 133.837V138.949H130.297V140.209ZM125.347 139.201C126.769 139.201 127.795 138.463 127.795 137.509V135.979H125.887C124.249 135.979 123.511 136.483 123.511 137.383V137.761C123.511 138.679 124.231 139.201 125.347 139.201ZM132.352 140.209V126.889H133.792V132.433H133.864C134.35 131.263 135.304 130.705 136.582 130.705C138.904 130.705 140.362 132.595 140.362 135.565C140.362 138.535 138.904 140.425 136.582 140.425C135.304 140.425 134.422 139.849 133.864 138.697H133.792V140.209H132.352ZM136.186 139.129C137.806 139.129 138.814 138.013 138.814 136.357V134.773C138.814 133.117 137.806 132.001 136.186 132.001C134.872 132.001 133.792 132.757 133.792 133.783V137.239C133.792 138.445 134.872 139.129 136.186 139.129ZM146.286 140.425C143.766 140.425 142.11 138.517 142.11 135.565C142.11 132.613 143.766 130.705 146.286 130.705C148.77 130.705 150.3 132.613 150.3 135.241V135.925H143.622V136.357C143.622 137.959 144.648 139.165 146.376 139.165C147.546 139.165 148.446 138.589 148.932 137.563L149.958 138.301C149.364 139.561 148.032 140.425 146.286 140.425ZM146.286 131.911C144.72 131.911 143.622 133.099 143.622 134.719V134.845H148.752V134.647C148.752 133.009 147.762 131.911 146.286 131.911ZM155.481 140.209H154.203C153.213 140.209 152.673 139.579 152.673 138.715V126.889H154.113V138.949H155.481V140.209ZM158.297 128.743C157.685 128.743 157.415 128.419 157.415 127.933V127.699C157.415 127.213 157.685 126.889 158.297 126.889C158.909 126.889 159.179 127.213 159.179 127.699V127.933C159.179 128.419 158.909 128.743 158.297 128.743ZM157.577 140.209V130.921H159.017V140.209H157.577ZM163.517 140.209H162.077V130.921H163.517V132.433H163.589C164.039 131.389 164.831 130.705 166.217 130.705C168.125 130.705 169.331 132.001 169.331 134.251V140.209H167.891V134.503C167.891 132.847 167.171 132.001 165.785 132.001C164.633 132.001 163.517 132.577 163.517 133.765V140.209ZM180.137 141.235C180.137 143.143 178.625 144.025 175.637 144.025C172.739 144.025 171.551 143.197 171.551 141.739C171.551 140.731 172.109 140.191 173.027 139.939V139.741C172.505 139.489 172.199 139.075 172.199 138.445C172.199 137.509 172.865 137.059 173.801 136.825V136.753C172.703 136.231 172.055 135.205 172.055 133.909C172.055 132.019 173.441 130.705 175.547 130.705C176.213 130.705 176.807 130.831 177.311 131.065V130.903C177.311 130.183 177.617 129.661 178.391 129.661H179.777V130.921H178.013V131.515C178.679 132.091 179.075 132.919 179.075 133.909C179.075 135.799 177.689 137.113 175.565 137.113C175.259 137.113 174.935 137.077 174.665 137.023C174.053 137.185 173.441 137.491 173.441 138.067C173.441 138.625 174.017 138.769 174.863 138.769H176.843C179.147 138.769 180.137 139.705 180.137 141.235ZM178.787 141.343C178.787 140.605 178.301 140.119 176.861 140.119H173.765C173.171 140.389 172.901 140.803 172.901 141.379C172.901 142.189 173.459 142.855 174.917 142.855H176.249C177.851 142.855 178.787 142.351 178.787 141.343ZM175.565 135.961C176.789 135.961 177.563 135.385 177.563 134.161V133.657C177.563 132.433 176.789 131.857 175.565 131.857C174.341 131.857 173.567 132.433 173.567 133.657V134.161C173.567 135.385 174.341 135.961 175.565 135.961ZM194.693 140.209L193.343 138.733C192.839 139.363 191.723 140.425 189.689 140.425C187.205 140.425 185.837 138.877 185.837 136.951C185.837 135.079 187.115 134.107 188.411 133.405C187.547 132.505 186.989 131.569 186.989 130.453C186.989 128.761 188.285 127.429 190.247 127.429C192.029 127.429 193.271 128.527 193.271 130.129C193.271 131.785 191.975 132.721 190.391 133.603L193.217 136.645C193.577 135.727 193.757 134.665 193.811 133.603H196.259V134.827H194.981C194.819 135.871 194.513 136.807 194.117 137.599L196.565 140.209H194.693ZM190.175 128.635C189.149 128.635 188.411 129.373 188.411 130.327V130.543C188.411 131.263 188.897 131.983 189.617 132.793C190.751 132.181 191.885 131.371 191.885 130.381V130.165C191.885 129.193 191.093 128.635 190.175 128.635ZM189.815 139.165C191.021 139.165 191.903 138.661 192.533 137.869L189.167 134.233C188.195 134.755 187.331 135.349 187.331 136.753V137.023C187.331 138.337 188.303 139.165 189.815 139.165ZM204.479 134.809V140.209H202.967V127.645H207.971C210.167 127.645 211.481 128.923 211.481 131.209C211.481 133.045 210.599 134.287 208.961 134.665L211.841 140.209H210.131L207.413 134.809H204.479ZM204.479 133.513H207.971C209.159 133.513 209.861 132.865 209.861 131.713V130.777C209.861 129.625 209.159 128.977 207.971 128.977H204.479V133.513ZM217.565 140.425C215.045 140.425 213.389 138.517 213.389 135.565C213.389 132.613 215.045 130.705 217.565 130.705C220.049 130.705 221.579 132.613 221.579 135.241V135.925H214.901V136.357C214.901 137.959 215.927 139.165 217.655 139.165C218.825 139.165 219.725 138.589 220.211 137.563L221.237 138.301C220.643 139.561 219.311 140.425 217.565 140.425ZM217.565 131.911C215.999 131.911 214.901 133.099 214.901 134.719V134.845H220.031V134.647C220.031 133.009 219.041 131.911 217.565 131.911ZM227.537 140.209H225.863L222.605 130.921H224.045L225.665 135.529L226.673 138.697H226.763L227.771 135.529L229.427 130.921H230.813L227.537 140.209ZM233.391 128.743C232.779 128.743 232.509 128.419 232.509 127.933V127.699C232.509 127.213 232.779 126.889 233.391 126.889C234.003 126.889 234.273 127.213 234.273 127.699V127.933C234.273 128.419 234.003 128.743 233.391 128.743ZM232.671 140.209V130.921H234.111V140.209H232.671ZM240.663 140.425C238.143 140.425 236.487 138.517 236.487 135.565C236.487 132.613 238.143 130.705 240.663 130.705C243.147 130.705 244.677 132.613 244.677 135.241V135.925H237.999V136.357C237.999 137.959 239.025 139.165 240.753 139.165C241.923 139.165 242.823 138.589 243.309 137.563L244.335 138.301C243.741 139.561 242.409 140.425 240.663 140.425ZM240.663 131.911C239.097 131.911 237.999 133.099 237.999 134.719V134.845H243.129V134.647C243.129 133.009 242.139 131.911 240.663 131.911ZM248.474 140.209L245.99 130.921H247.394L248.384 134.935L249.374 139.003H249.41L250.544 134.935L251.714 130.921H252.992L254.198 134.935L255.35 139.003H255.386L256.34 134.935L257.348 130.921H258.698L256.232 140.209H254.45L253.154 135.745L252.344 132.919H252.308L251.516 135.745L250.22 140.209H248.474ZM261.498 128.743C260.886 128.743 260.616 128.419 260.616 127.933V127.699C260.616 127.213 260.886 126.889 261.498 126.889C262.11 126.889 262.38 127.213 262.38 127.699V127.933C262.38 128.419 262.11 128.743 261.498 128.743ZM260.778 140.209V130.921H262.218V140.209H260.778ZM266.718 140.209H265.278V130.921H266.718V132.433H266.79C267.24 131.389 268.032 130.705 269.418 130.705C271.326 130.705 272.532 132.001 272.532 134.251V140.209H271.092V134.503C271.092 132.847 270.372 132.001 268.986 132.001C267.834 132.001 266.718 132.577 266.718 133.765V140.209ZM283.339 141.235C283.339 143.143 281.827 144.025 278.839 144.025C275.941 144.025 274.753 143.197 274.753 141.739C274.753 140.731 275.311 140.191 276.229 139.939V139.741C275.707 139.489 275.401 139.075 275.401 138.445C275.401 137.509 276.067 137.059 277.003 136.825V136.753C275.905 136.231 275.257 135.205 275.257 133.909C275.257 132.019 276.643 130.705 278.749 130.705C279.415 130.705 280.009 130.831 280.513 131.065V130.903C280.513 130.183 280.819 129.661 281.593 129.661H282.979V130.921H281.215V131.515C281.881 132.091 282.277 132.919 282.277 133.909C282.277 135.799 280.891 137.113 278.767 137.113C278.461 137.113 278.137 137.077 277.867 137.023C277.255 137.185 276.643 137.491 276.643 138.067C276.643 138.625 277.219 138.769 278.065 138.769H280.045C282.349 138.769 283.339 139.705 283.339 141.235ZM281.989 141.343C281.989 140.605 281.503 140.119 280.063 140.119H276.967C276.373 140.389 276.103 140.803 276.103 141.379C276.103 142.189 276.661 142.855 278.119 142.855H279.451C281.053 142.855 281.989 142.351 281.989 141.343ZM278.767 135.961C279.991 135.961 280.765 135.385 280.765 134.161V133.657C280.765 132.433 279.991 131.857 278.767 131.857C277.543 131.857 276.769 132.433 276.769 133.657V134.161C276.769 135.385 277.543 135.961 278.767 135.961ZM297.282 140.209V134.521H290.928V140.209H289.416V127.645H290.928V133.189H297.282V127.645H298.794V140.209H297.282ZM305.509 140.425C303.025 140.425 301.315 138.517 301.315 135.565C301.315 132.613 303.025 130.705 305.509 130.705C307.993 130.705 309.703 132.613 309.703 135.565C309.703 138.517 307.993 140.425 305.509 140.425ZM305.509 139.147C307.057 139.147 308.155 138.193 308.155 136.231V134.899C308.155 132.937 307.057 131.983 305.509 131.983C303.961 131.983 302.863 132.937 302.863 134.899V136.231C302.863 138.193 303.961 139.147 305.509 139.147ZM317.795 140.209V138.697H317.723C317.363 139.579 316.661 140.425 315.113 140.425C313.205 140.425 311.981 139.129 311.981 136.879V130.921H313.421V136.627C313.421 138.283 314.159 139.129 315.545 139.129C316.679 139.129 317.795 138.571 317.795 137.347V130.921H319.235V140.209H317.795ZM323.741 140.209H322.301V130.921H323.741V132.631H323.831C324.155 131.749 325.001 130.921 326.513 130.921H327.071V132.361H326.225C324.677 132.361 323.741 133.027 323.741 133.909V140.209ZM331.701 140.425C329.991 140.425 328.857 139.705 328.029 138.607L329.055 137.779C329.775 138.679 330.639 139.201 331.809 139.201C333.033 139.201 333.753 138.643 333.753 137.689C333.753 136.969 333.357 136.411 332.133 136.231L331.395 136.123C329.685 135.871 328.407 135.169 328.407 133.441C328.407 131.605 329.829 130.705 331.719 130.705C333.213 130.705 334.203 131.263 334.959 132.199L334.005 133.063C333.591 132.487 332.799 131.929 331.611 131.929C330.423 131.929 329.793 132.487 329.793 133.369C329.793 134.269 330.423 134.629 331.575 134.809L332.295 134.917C334.347 135.223 335.139 136.123 335.139 137.527C335.139 139.327 333.825 140.425 331.701 140.425Z" fill="#171717"/>
<rect x="141.643" y="187.899" width="31.0435" height="70.7792" fill="#E5E5E5"/>
<rect x="141.643" y="258.678" width="31.0435" height="157.701" fill="#FB923C"/>
<path d="M142.915 428.712H147.199V435.094C147.199 436.584 146.131 437.528 144.579 437.528C143.176 437.528 142.257 436.758 141.996 435.479L143.138 435.243C143.3 435.938 143.672 436.497 144.591 436.497C145.485 436.497 145.994 435.988 145.994 434.908V429.742H142.915V428.712ZM154.26 437.379V436.311H154.21C153.937 436.957 153.428 437.528 152.372 437.528C151.056 437.528 150.174 436.646 150.174 435.094V430.972H151.329V434.895C151.329 436.001 151.826 436.547 152.757 436.547C153.515 436.547 154.26 436.174 154.26 435.367V430.972H155.414V437.379H154.26ZM158.017 437.379V436.423H160.19V429.146H158.017V428.19H161.345V436.423H163.531V437.379H158.017ZM169.647 433.654L170.703 430.972H171.87L168.716 438.708C168.406 439.477 167.996 439.862 167.003 439.862H165.997V438.906H167.487L168.145 437.267L165.562 430.972H166.767L167.822 433.654L168.704 435.976H168.766L169.647 433.654Z" fill="#737373"/>
<rect x="204.303" y="315.798" width="31.0435" height="13.6591" fill="#E5E5E5"/>
<rect x="204.303" y="329.457" width="31.0435" height="86.9218" fill="#FB923C"/>
<path d="M214.964 437.379H213.685L212.99 434.982H210.072L209.376 437.379H208.147L210.742 428.712H212.369L214.964 437.379ZM212.729 433.964L211.587 429.953H211.475L210.333 433.964H212.729ZM220.92 437.379V436.311H220.87C220.597 436.957 220.088 437.528 219.032 437.528C217.716 437.528 216.834 436.646 216.834 435.094V430.972H217.989V434.895C217.989 436.001 218.486 436.547 219.417 436.547C220.175 436.547 220.92 436.174 220.92 435.367V430.972H222.075V437.379H220.92ZM230.725 438.099C230.725 439.403 229.632 440.011 227.434 440.011C225.298 440.011 224.491 439.428 224.491 438.447C224.491 437.751 224.888 437.391 225.571 437.205V437.068C225.174 436.907 224.938 436.621 224.938 436.174C224.938 435.516 225.422 435.231 226.093 435.069V435.007C225.311 434.659 224.851 433.964 224.851 433.045C224.851 431.704 225.857 430.823 227.384 430.823C227.856 430.823 228.278 430.897 228.626 431.058V430.897C228.626 430.4 228.874 430.028 229.446 430.028H230.613V430.996H229.148V431.369C229.657 431.754 229.942 432.337 229.942 433.045C229.942 434.386 228.924 435.268 227.384 435.268C227.148 435.268 226.912 435.256 226.701 435.206C226.354 435.293 225.894 435.491 225.894 435.889C225.894 436.286 226.316 436.361 226.912 436.361H228.328C230.017 436.361 230.725 437.044 230.725 438.099ZM229.644 438.161C229.644 437.689 229.309 437.379 228.328 437.379H226.118C225.745 437.54 225.547 437.801 225.547 438.174C225.547 438.708 225.932 439.142 226.937 439.142H227.931C229.023 439.142 229.644 438.807 229.644 438.161ZM227.384 434.424C228.328 434.424 228.763 433.939 228.763 433.219V432.871C228.763 432.151 228.328 431.667 227.384 431.667C226.453 431.667 226.031 432.151 226.031 432.871V433.219C226.031 433.939 226.453 434.424 227.384 434.424Z" fill="#737373"/>
<rect x="266.963" y="182.932" width="31.0435" height="34.7687" fill="#E5E5E5"/>
<rect x="266.963" y="217.7" width="31.0435" height="198.678" fill="#FB923C"/>
<path d="M270.524 437.528C268.996 437.528 268.028 436.919 267.37 436.038L268.189 435.305C268.86 436.125 269.58 436.509 270.573 436.509C271.753 436.509 272.399 435.938 272.399 434.957C272.399 434.163 271.989 433.74 270.871 433.554L269.915 433.393C268.239 433.119 267.68 432.139 267.68 431.009C267.68 429.407 268.81 428.562 270.623 428.562C271.989 428.562 272.945 429.047 273.529 429.854L272.734 430.599C272.262 429.99 271.629 429.581 270.611 429.581C269.505 429.581 268.897 430.052 268.897 430.971C268.897 431.716 269.282 432.163 270.437 432.362L271.368 432.523C273.007 432.809 273.616 433.74 273.616 434.908C273.616 436.522 272.498 437.528 270.524 437.528ZM278.64 437.528C276.74 437.528 275.585 436.224 275.585 434.187C275.585 432.126 276.79 430.822 278.553 430.822C280.316 430.822 281.446 432.126 281.446 433.976V434.461H276.777V434.721C276.777 435.789 277.485 436.559 278.652 436.559C279.484 436.559 280.118 436.162 280.465 435.504L281.247 436.112C280.838 436.932 279.931 437.528 278.64 437.528ZM278.565 431.741C277.522 431.741 276.777 432.511 276.777 433.567V433.666H280.242V433.529C280.242 432.461 279.571 431.741 278.565 431.741ZM283.825 439.862V430.971H284.98V432.039H285.042C285.427 431.257 286.073 430.822 287.004 430.822C288.532 430.822 289.488 432.039 289.488 434.175C289.488 436.311 288.532 437.528 287.004 437.528C286.073 437.528 285.427 437.093 285.042 436.311H284.98V439.862H283.825ZM286.532 436.547C287.625 436.547 288.258 435.814 288.258 434.709V433.641C288.258 432.536 287.625 431.803 286.532 431.803C285.7 431.803 284.98 432.238 284.98 433.057V435.293C284.98 436.112 285.7 436.547 286.532 436.547ZM297.219 437.379H294.748C293.705 437.379 293.221 436.745 293.221 435.839V431.927H291.172V430.971H292.662C293.109 430.971 293.283 430.81 293.283 430.35V428.711H294.375V430.971H297.219V431.927H294.375V436.423H297.219V437.379Z" fill="#737373"/>
<rect x="329.623" y="243.777" width="31.0435" height="43.4609" fill="#E5E5E5"/>
<rect x="329.623" y="287.238" width="31.0435" height="129.141" fill="#FB923C"/>
<path d="M337.205 437.528C335.056 437.528 334.1 435.876 334.1 433.045C334.1 430.214 335.056 428.562 337.205 428.562C339.353 428.562 340.309 430.214 340.309 433.045C340.309 435.876 339.353 437.528 337.205 437.528ZM337.205 436.509C338.521 436.509 339.03 435.429 339.03 433.765V432.325C339.03 430.661 338.521 429.581 337.205 429.581C335.888 429.581 335.379 430.661 335.379 432.325V433.765C335.379 435.429 335.888 436.509 337.205 436.509ZM345.383 437.528C343.508 437.528 342.403 436.211 342.403 434.175C342.403 432.139 343.52 430.822 345.37 430.822C346.637 430.822 347.419 431.431 347.792 432.312L346.885 432.809C346.649 432.176 346.14 431.791 345.37 431.791C344.265 431.791 343.632 432.561 343.632 433.629V434.721C343.632 435.789 344.253 436.559 345.395 436.559C346.215 436.559 346.736 436.137 347.059 435.479L347.891 436.025C347.506 436.894 346.687 437.528 345.383 437.528ZM355.908 437.379H353.437C352.394 437.379 351.91 436.745 351.91 435.839V431.927H349.861V430.971H351.351C351.798 430.971 351.972 430.81 351.972 430.35V428.711H353.064V430.971H355.908V431.927H353.064V436.423H355.908V437.379Z" fill="#737373"/>
<rect x="391.806" y="187.899" width="31.0435" height="27.3183" fill="#E5E5E5"/>
<rect x="391.806" y="215.217" width="31.0435" height="201.162" fill="#FB923C"/>
<path d="M400.555 437.379L397.773 430.363H397.674V437.379H396.606V428.712H398.22L401.002 435.727H401.101V428.712H402.169V437.379H400.555ZM407.33 437.528C405.492 437.528 404.362 436.224 404.362 434.175C404.362 432.126 405.492 430.823 407.33 430.823C409.167 430.823 410.297 432.126 410.297 434.175C410.297 436.224 409.167 437.528 407.33 437.528ZM407.33 436.572C408.385 436.572 409.068 435.938 409.068 434.647V433.703C409.068 432.412 408.385 431.779 407.33 431.779C406.274 431.779 405.591 432.412 405.591 433.703V434.647C405.591 435.938 406.274 436.572 407.33 436.572ZM415.992 437.379H414.552L412.254 430.972H413.434L414.341 433.666L415.259 436.41H415.322L416.24 433.666L417.134 430.972H418.289L415.992 437.379Z" fill="#737373"/>
<rect x="453.987" y="323.248" width="31.0435" height="8.69218" fill="#E5E5E5"/>
<rect x="453.987" y="331.94" width="31.0435" height="84.4383" fill="#FB923C"/>
<path d="M458.949 437.379V428.711H461.445C463.593 428.711 464.648 430.214 464.648 433.045C464.648 435.876 463.593 437.379 461.445 437.379H458.949ZM460.141 436.36H461.383C462.699 436.36 463.382 435.404 463.382 433.74V432.35C463.382 430.686 462.699 429.73 461.383 429.73H460.141V436.36ZM469.635 437.528C467.736 437.528 466.581 436.224 466.581 434.187C466.581 432.126 467.785 430.822 469.548 430.822C471.312 430.822 472.442 432.126 472.442 433.976V434.461H467.773V434.721C467.773 435.789 468.481 436.559 469.648 436.559C470.48 436.559 471.113 436.162 471.461 435.504L472.243 436.112C471.833 436.932 470.927 437.528 469.635 437.528ZM469.561 431.741C468.518 431.741 467.773 432.511 467.773 433.567V433.666H471.237V433.529C471.237 432.461 470.567 431.741 469.561 431.741ZM477.689 437.528C475.814 437.528 474.709 436.211 474.709 434.175C474.709 432.139 475.827 430.822 477.677 430.822C478.944 430.822 479.726 431.431 480.098 432.312L479.192 432.809C478.956 432.176 478.447 431.791 477.677 431.791C476.572 431.791 475.939 432.561 475.939 433.629V434.721C475.939 435.789 476.559 436.559 477.702 436.559C478.521 436.559 479.043 436.137 479.366 435.479L480.198 436.025C479.813 436.894 478.993 437.528 477.689 437.528Z" fill="#737373"/>
<rect x="516.17" y="297.172" width="31.0435" height="8.69218" fill="#E5E5E5"/>
<rect x="516.17" y="305.864" width="31.0435" height="110.515" fill="#FB923C"/>
<path d="M521.777 428.711H526.061V435.094C526.061 436.584 524.993 437.528 523.441 437.528C522.038 437.528 521.119 436.758 520.858 435.479L522.001 435.243C522.162 435.938 522.535 436.497 523.454 436.497C524.348 436.497 524.857 435.988 524.857 434.908V429.742H521.777V428.711ZM534.848 437.379H534.09C533.333 437.379 532.998 436.944 532.923 436.323H532.861C532.588 437.068 531.955 437.528 530.924 437.528C529.608 437.528 528.751 436.795 528.751 435.591C528.751 434.374 529.62 433.703 531.532 433.703H532.836V433.132C532.836 432.225 532.327 431.766 531.383 431.766C530.539 431.766 530.03 432.114 529.695 432.685L528.962 432.101C529.297 431.431 530.142 430.822 531.47 430.822C533.022 430.822 533.991 431.629 533.991 433.033V436.423H534.848V437.379ZM531.197 436.621C532.153 436.621 532.836 436.137 532.836 435.491V434.498H531.545C530.452 434.498 529.943 434.821 529.943 435.417V435.677C529.943 436.298 530.427 436.621 531.197 436.621ZM538.208 437.379H537.053V430.971H538.208V432.039H538.258C538.531 431.393 539.04 430.822 540.096 430.822C541.412 430.822 542.293 431.704 542.293 433.256V437.379H541.139V433.455C541.139 432.35 540.642 431.803 539.711 431.803C538.953 431.803 538.208 432.176 538.208 432.983V437.379Z" fill="#737373"/>
<path d="M122.83 213.38C120.806 213.38 119.738 212.299 119.738 210.871C119.738 209.704 120.458 209.009 121.501 208.736V208.636C120.595 208.326 119.999 207.606 119.999 206.612C119.999 205.296 121.042 204.414 122.83 204.414C124.618 204.414 125.661 205.296 125.661 206.612C125.661 207.606 125.065 208.326 124.158 208.636V208.736C125.201 209.009 125.922 209.704 125.922 210.871C125.922 212.299 124.854 213.38 122.83 213.38ZM122.83 212.399C123.972 212.399 124.667 211.84 124.667 210.921V210.648C124.667 209.717 123.997 209.17 122.83 209.17C121.662 209.17 120.992 209.717 120.992 210.648V210.921C120.992 211.84 121.687 212.399 122.83 212.399ZM122.83 208.227C123.885 208.227 124.469 207.742 124.469 206.898V206.724C124.469 205.892 123.873 205.395 122.83 205.395C121.787 205.395 121.191 205.892 121.191 206.724V206.898C121.191 207.742 121.774 208.227 122.83 208.227ZM122.855 264.38C120.98 264.38 119.837 263.101 119.837 261.027C119.837 258.481 121.551 256.495 122.979 255.563H124.556C122.619 256.942 121.538 258.084 121.079 260.034L121.141 260.058C121.551 259.363 122.159 258.804 123.252 258.804C124.754 258.804 125.835 259.835 125.835 261.486C125.835 263.188 124.655 264.38 122.855 264.38ZM122.842 263.386C123.96 263.386 124.618 262.741 124.618 261.635V261.524C124.618 260.406 123.96 259.773 122.842 259.773C121.725 259.773 121.066 260.406 121.066 261.524V261.635C121.066 262.741 121.712 263.386 122.842 263.386ZM124.866 316.231H123.711V314.542H119.502V313.486L123.202 307.563H124.866V313.573H126.108V314.542H124.866V316.231ZM123.649 308.582L120.545 313.573H123.711V308.582H123.649ZM125.81 366.2V367.231H119.949V366.039L122.805 363.493C123.674 362.736 124.233 361.978 124.233 361.134V360.997C124.233 360.016 123.687 359.457 122.693 359.457C121.675 359.457 121.166 360.041 120.917 360.885L119.85 360.488C120.197 359.433 121.017 358.414 122.743 358.414C124.506 358.414 125.499 359.47 125.499 360.948C125.499 362.276 124.667 363.245 123.488 364.251L121.215 366.2H125.81ZM122.83 418.38C120.682 418.38 119.725 416.728 119.725 413.897C119.725 411.066 120.682 409.414 122.83 409.414C124.978 409.414 125.934 411.066 125.934 413.897C125.934 416.728 124.978 418.38 122.83 418.38ZM122.83 417.361C124.171 417.361 124.692 416.294 124.692 414.63V413.164C124.692 411.5 124.171 410.433 122.83 410.433C121.489 410.433 120.967 411.5 120.967 413.164V414.63C120.967 416.294 121.489 417.361 122.83 417.361ZM122.83 414.63C122.259 414.63 122.06 414.369 122.06 414.034V413.76C122.06 413.425 122.259 413.164 122.83 413.164C123.401 413.164 123.6 413.425 123.6 413.76V414.034C123.6 414.369 123.401 414.63 122.83 414.63Z" fill="#737373"/>
<circle cx="406.945" cy="134.208" r="4.96696" fill="#FB923C"/>
<path d="M421.506 138.208H420.666C419.898 138.208 419.502 137.752 419.502 137.068V129.328H420.618V137.26H421.506V138.208ZM428.001 138.208H427.365C426.681 138.208 426.357 137.776 426.273 137.176H426.213C425.961 137.944 425.301 138.352 424.413 138.352C423.117 138.352 422.361 137.632 422.361 136.492C422.361 135.292 423.237 134.644 425.013 134.644H426.189V134.08C426.189 133.252 425.745 132.784 424.809 132.784C424.077 132.784 423.609 133.144 423.285 133.672L422.613 133.06C422.985 132.388 423.717 131.848 424.869 131.848C426.417 131.848 427.305 132.64 427.305 133.984V137.26H428.001V138.208ZM424.665 137.452C425.541 137.452 426.189 137.008 426.189 136.384V135.424H425.001C423.981 135.424 423.525 135.736 423.525 136.312V136.552C423.525 137.128 423.969 137.452 424.665 137.452ZM429.334 138.208V129.328H430.45V133.012H430.498C430.786 132.244 431.434 131.848 432.286 131.848C433.846 131.848 434.782 133.084 434.782 135.1C434.782 137.116 433.846 138.352 432.286 138.352C431.434 138.352 430.786 137.956 430.498 137.188H430.45V138.208H429.334ZM431.962 137.38C432.958 137.38 433.594 136.672 433.594 135.628V134.572C433.594 133.528 432.958 132.82 431.962 132.82C431.122 132.82 430.45 133.3 430.45 133.96V136.24C430.45 136.9 431.122 137.38 431.962 137.38ZM438.729 138.352C437.001 138.352 435.909 137.068 435.909 135.1C435.909 133.132 437.001 131.848 438.729 131.848C440.469 131.848 441.453 133.168 441.453 134.908V135.376H437.073V135.628C437.073 136.66 437.709 137.404 438.825 137.404C439.605 137.404 440.169 137.032 440.505 136.396L441.225 137.008C440.793 137.812 439.893 138.352 438.729 138.352ZM438.729 132.748C437.757 132.748 437.073 133.492 437.073 134.512V134.596H440.265V134.476C440.265 133.444 439.665 132.748 438.729 132.748ZM444.978 138.208H444.138C443.37 138.208 442.974 137.752 442.974 137.068V129.328H444.09V137.26H444.978V138.208ZM446.878 130.696C446.41 130.696 446.206 130.444 446.206 130.084V129.916C446.206 129.556 446.41 129.304 446.878 129.304C447.346 129.304 447.55 129.556 447.55 129.916V130.084C447.55 130.444 447.346 130.696 446.878 130.696ZM446.314 138.208V131.992H447.43V138.208H446.314ZM450.512 138.208H449.396V131.992H450.512V133.012H450.572C450.86 132.328 451.388 131.848 452.324 131.848C453.596 131.848 454.376 132.724 454.376 134.236V138.208H453.26V134.404C453.26 133.36 452.828 132.82 451.952 132.82C451.22 132.82 450.512 133.192 450.512 133.948V138.208ZM461.615 138.844C461.615 140.128 460.631 140.752 458.531 140.752C456.551 140.752 455.759 140.2 455.759 139.24C455.759 138.568 456.143 138.196 456.779 138.04V137.908C456.383 137.752 456.167 137.44 456.167 136.996C456.167 136.372 456.635 136.06 457.247 135.916V135.868C456.515 135.52 456.095 134.836 456.095 133.984C456.095 132.724 457.007 131.848 458.495 131.848C458.927 131.848 459.311 131.932 459.647 132.064V131.932C459.647 131.416 459.875 131.08 460.403 131.08H461.351V132.016H460.127V132.352C460.631 132.724 460.907 133.3 460.907 133.984C460.907 135.244 459.995 136.108 458.495 136.108C458.255 136.108 458.003 136.084 457.799 136.036C457.439 136.144 457.091 136.348 457.091 136.696C457.091 137.056 457.439 137.164 458.003 137.164H459.419C460.955 137.164 461.615 137.8 461.615 138.844ZM460.571 138.952C460.571 138.484 460.259 138.184 459.347 138.184H457.259C456.911 138.364 456.755 138.628 456.755 138.976C456.755 139.492 457.127 139.9 458.099 139.9H458.939C459.995 139.9 460.571 139.588 460.571 138.952ZM458.507 135.268C459.299 135.268 459.791 134.896 459.791 134.14V133.828C459.791 133.072 459.299 132.7 458.507 132.7C457.715 132.7 457.223 133.072 457.223 133.828V134.14C457.223 134.896 457.715 135.268 458.507 135.268Z" fill="#737373"/>
<circle cx="481.929" cy="134.208" r="4.96696" fill="#E5E5E5"/>
<path d="M495.507 138.208H494.391V131.992H495.507V133.18H495.567C495.771 132.568 496.323 131.992 497.319 131.992H497.691V133.108H497.139C496.107 133.108 495.507 133.516 495.507 134.128V138.208ZM501.209 138.352C499.481 138.352 498.389 137.068 498.389 135.1C498.389 133.132 499.481 131.848 501.209 131.848C502.949 131.848 503.933 133.168 503.933 134.908V135.376H499.553V135.628C499.553 136.66 500.189 137.404 501.305 137.404C502.085 137.404 502.649 137.032 502.985 136.396L503.705 137.008C503.273 137.812 502.373 138.352 501.209 138.352ZM501.209 132.748C500.237 132.748 499.553 133.492 499.553 134.512V134.596H502.745V134.476C502.745 133.444 502.145 132.748 501.209 132.748ZM508.024 138.208H506.716L504.568 131.992H505.684L506.704 134.968L507.352 137.116H507.424L508.084 134.968L509.116 131.992H510.184L508.024 138.208ZM511.924 130.696C511.456 130.696 511.252 130.444 511.252 130.084V129.916C511.252 129.556 511.456 129.304 511.924 129.304C512.392 129.304 512.596 129.556 512.596 129.916V130.084C512.596 130.444 512.392 130.696 511.924 130.696ZM511.36 138.208V131.992H512.476V138.208H511.36ZM516.818 138.352C515.09 138.352 513.998 137.068 513.998 135.1C513.998 133.132 515.09 131.848 516.818 131.848C518.558 131.848 519.542 133.168 519.542 134.908V135.376H515.162V135.628C515.162 136.66 515.798 137.404 516.914 137.404C517.694 137.404 518.258 137.032 518.594 136.396L519.314 137.008C518.882 137.812 517.982 138.352 516.818 138.352ZM516.818 132.748C515.846 132.748 515.162 133.492 515.162 134.512V134.596H518.354V134.476C518.354 133.444 517.754 132.748 516.818 132.748ZM522.037 138.208L520.369 131.992H521.449L522.097 134.644L522.721 137.2H522.745L523.453 134.644L524.221 131.992H525.217L526.009 134.644L526.729 137.2H526.765L527.353 134.644L528.013 131.992H529.057L527.401 138.208H526.081L525.241 135.292L524.713 133.468H524.689L524.173 135.292L523.333 138.208H522.037ZM530.955 130.696C530.487 130.696 530.283 130.444 530.283 130.084V129.916C530.283 129.556 530.487 129.304 530.955 129.304C531.423 129.304 531.627 129.556 531.627 129.916V130.084C531.627 130.444 531.423 130.696 530.955 130.696ZM530.391 138.208V131.992H531.507V138.208H530.391ZM534.589 138.208H533.473V131.992H534.589V133.012H534.649C534.937 132.328 535.465 131.848 536.401 131.848C537.673 131.848 538.453 132.724 538.453 134.236V138.208H537.337V134.404C537.337 133.36 536.905 132.82 536.029 132.82C535.297 132.82 534.589 133.192 534.589 133.948V138.208ZM545.692 138.844C545.692 140.128 544.708 140.752 542.608 140.752C540.628 140.752 539.836 140.2 539.836 139.24C539.836 138.568 540.22 138.196 540.856 138.04V137.908C540.46 137.752 540.244 137.44 540.244 136.996C540.244 136.372 540.712 136.06 541.324 135.916V135.868C540.592 135.52 540.172 134.836 540.172 133.984C540.172 132.724 541.084 131.848 542.572 131.848C543.004 131.848 543.388 131.932 543.724 132.064V131.932C543.724 131.416 543.952 131.08 544.48 131.08H545.428V132.016H544.204V132.352C544.708 132.724 544.984 133.3 544.984 133.984C544.984 135.244 544.072 136.108 542.572 136.108C542.332 136.108 542.08 136.084 541.876 136.036C541.516 136.144 541.168 136.348 541.168 136.696C541.168 137.056 541.516 137.164 542.08 137.164H543.496C545.032 137.164 545.692 137.8 545.692 138.844ZM544.648 138.952C544.648 138.484 544.336 138.184 543.424 138.184H541.336C540.988 138.364 540.832 138.628 540.832 138.976C540.832 139.492 541.204 139.9 542.176 139.9H543.016C544.072 139.9 544.648 139.588 544.648 138.952ZM542.584 135.268C543.376 135.268 543.868 134.896 543.868 134.14V133.828C543.868 133.072 543.376 132.7 542.584 132.7C541.792 132.7 541.3 133.072 541.3 133.828V134.14C541.3 134.896 541.792 135.268 542.584 135.268Z" fill="#737373"/>
</g>
<defs>
<filter id="filter0_dd_170_76803" x="32.5" y="74.5" width="586" height="469" filterUnits="userSpaceOnUse" color-interpolation-filters="sRGB">
<feFlood flood-opacity="0" result="BackgroundImageFix"/>
<feColorMatrix in="SourceAlpha" type="matrix" values="0 0 0 0 0 0 0 0 0 0 0 0 0 0 0 0 0 0 127 0" result="hardAlpha"/>
<feOffset dy="10"/>
<feGaussianBlur stdDeviation="6.25"/>
<feComposite in2="hardAlpha" operator="out"/>
<feColorMatrix type="matrix" values="0 0 0 0 0 0 0 0 0 0 0 0 0 0 0 0 0 0 0.08 0"/>
<feBlend mode="normal" in2="BackgroundImageFix" result="effect1_dropShadow_170_76803"/>
<feColorMatrix in="SourceAlpha" type="matrix" values="0 0 0 0 0 0 0 0 0 0 0 0 0 0 0 0 0 0 127 0" result="hardAlpha"/>
<feOffset dy="25"/>
<feGaussianBlur stdDeviation="16.25"/>
<feComposite in2="hardAlpha" operator="out"/>
<feColorMatrix type="matrix" values="0 0 0 0 0 0 0 0 0 0 0 0 0 0 0 0 0 0 0.03 0"/>
<feBlend mode="normal" in2="effect1_dropShadow_170_76803" result="effect2_dropShadow_170_76803"/>
<feBlend mode="normal" in="SourceGraphic" in2="effect2_dropShadow_170_76803" result="shape"/>
</filter>
</defs>
</svg>
