<svg width="124" height="18" viewBox="0 0 124 18" fill="none" xmlns="http://www.w3.org/2000/svg">
<g clip-path="url(#clip0_1143_181174)">
<path d="M73.5603 9.99395C73.3768 9.96285 72.7584 9.86087 72.5768 9.82794C71.6003 9.65507 70.7628 9.42915 70.7628 8.4587C70.7628 7.62544 71.6476 7.23717 72.7487 7.23717C74.3871 7.23717 75.8241 7.96981 75.9876 8.05076L76.8854 5.71197C76.5407 5.53453 75.0792 4.76393 72.7765 4.76393C70.6673 4.76393 68.0927 5.85695 68.0927 8.57623C68.0927 11.0101 69.8544 11.7913 71.5517 12.0858C71.7861 12.1288 72.5235 12.2527 72.7338 12.2888C73.8757 12.4795 74.503 12.8989 74.503 13.637C74.503 14.5727 73.6126 15.0122 72.2637 15.0122C70.105 15.0122 68.8376 14.3765 68.4711 14.2284L67.4766 16.5168C67.786 16.6742 69.26 17.4951 72.1363 17.4951C74.9273 17.4951 77.1666 16.1304 77.1666 13.5899C77.1462 11.226 75.5355 10.3292 73.5603 9.99395ZM82.0824 0.503906L79.4415 1.94632V5.00083H78.0509V7.49464H79.4415V12.8866C79.4415 15.1901 80.4 17.2582 83.7821 17.2582H84.8401V14.7616H84.444C82.781 14.7616 82.0824 13.8145 82.0824 12.5271V7.4951H85.1162V5.00128H82.0824V0.503906ZM102.718 7.29891C103.749 7.29891 104.806 7.76172 105.121 8.88172L107.518 7.98216C106.848 5.63972 104.644 4.76393 102.699 4.76393C99.2153 4.76393 97.8112 6.8992 97.8112 8.97502V13.2817C97.8112 15.3566 99.2153 17.4942 102.699 17.4942C104.644 17.4942 106.848 16.617 107.518 14.275L105.121 13.375C104.804 14.4936 103.749 14.9592 102.718 14.9592C100.924 14.9592 100.448 13.9892 100.448 12.8834V9.37152C100.447 8.26799 100.924 7.29891 102.718 7.29891ZM114.013 10.5057L118.95 5.00128H115.702L111.455 9.79958V0.504821H108.811V17.2577H111.455V13.3567L112.322 12.3899L116.104 17.2577H119.274L114.013 10.5057Z" fill="black"/>
<path d="M92.5036 7.6762H89.7566C89.3203 7.6762 88.9654 8.02652 88.9654 8.45595V11.3984H86.2559V8.45595C86.2559 8.00215 86.3464 7.55278 86.5223 7.13352C86.6982 6.71426 86.9561 6.33334 87.2812 6.01251C87.6063 5.69169 87.9923 5.43725 88.417 5.26374C88.8418 5.09023 89.297 5.00104 89.7566 5.00128H92.5036V7.6762ZM90.268 14.5823H93.0169C93.2263 14.5817 93.427 14.4993 93.575 14.353C93.723 14.2067 93.8064 14.0084 93.8067 13.8017V10.8606H96.5162V13.8021C96.5162 14.7185 96.1476 15.5973 95.4913 16.2453C94.8351 16.8933 93.9451 17.2575 93.0169 17.2577H90.268V14.5823ZM45.4762 5.00128H48.509V7.4951H45.4762V12.5271C45.4762 13.8136 46.1738 14.7616 47.835 14.7616H48.2315V17.2577H47.173C43.7905 17.2577 42.8343 15.1901 42.8343 12.8861V7.4951H38.3891V12.5271C38.3891 13.8136 39.0877 14.7616 40.7488 14.7616H41.1444V17.2577H40.086C36.7048 17.2577 35.7463 15.1901 35.7463 12.8861V7.4951H34.4071V5.00128H35.7463V1.94678L38.3891 0.504364V5.00128H42.8343V1.94678L45.4762 0.504364V5.00128ZM16.9611 4.76393C16.125 4.76393 15.2777 4.92354 14.5148 5.2423V0.503906H11.8729V17.2573H14.5148V7.68032C15.0452 7.35104 15.8095 7.15439 16.5563 7.15439C18.2165 7.15439 18.998 8.06585 18.998 9.4104V17.2577H21.6375V9.05368C21.638 6.57999 19.8225 4.76393 16.9611 4.76393ZM30.3496 14.8201C29.8475 15.0877 29.2119 15.2409 28.5796 15.2409C26.6085 15.2409 25.8673 14.2494 25.8673 12.882V5.00128H23.2255V12.9291C23.2255 16.0115 25.0303 17.4942 28.2544 17.4942C29.7988 17.4942 31.5086 17.1086 32.9901 16.4752V5.00083H30.3496V14.8201ZM6.93388 9.99395C6.75136 9.96285 6.13201 9.86087 5.94996 9.82794C4.97531 9.65507 4.13638 9.42915 4.13638 8.4587C4.13638 7.62544 5.02024 7.23717 6.12275 7.23717C7.76075 7.23717 9.19772 7.96981 9.36171 8.05076L10.2595 5.71197C9.91666 5.53453 8.4533 4.76393 6.14961 4.76393C4.04235 4.76393 1.46628 5.85695 1.46628 8.57623C1.46628 11.0101 3.22612 11.7913 4.9262 12.0858C5.16014 12.1288 5.89761 12.2527 6.10978 12.2888C7.25119 12.4795 7.87564 12.8989 7.87564 13.637C7.87564 14.5727 6.98761 15.0122 5.63959 15.0122C3.47858 15.0122 2.21163 14.3765 1.84567 14.2284L0.851562 16.5168C1.16147 16.6742 2.63456 17.4951 5.51081 17.4951C8.30182 17.4951 10.5411 16.1304 10.5411 13.5899C10.517 11.226 8.90727 10.3292 6.93388 9.99395ZM59.4303 8.97502C59.4303 6.73319 57.6996 4.76302 54.5876 4.76302C51.0554 4.76302 49.6991 6.94036 49.6991 8.97502V13.0457C49.6991 15.8615 51.5214 17.4951 54.5876 17.4951C57.2925 17.4951 58.6965 15.9507 59.1139 15.0237L56.8834 13.7006C56.693 14.2453 55.8106 15.0095 54.6052 15.0095C52.9723 15.0095 52.3442 14.1095 52.3442 12.9821L52.3344 12.3112H59.4303V8.97502ZM56.7889 10.1997H52.3349V9.30796C52.3349 8.31326 52.8412 7.24631 54.576 7.24631C56.2479 7.24631 56.7889 8.28537 56.7889 9.25948V10.1997ZM61.1211 8.97959V17.2577H63.7602V9.20231C63.7602 8.49894 64.1646 7.29662 66.1037 7.29662C66.4081 7.29662 67.096 7.38168 67.3155 7.42239V4.89473C67.077 4.83802 66.5317 4.76256 65.9689 4.76256C62.6114 4.76302 61.1211 6.84158 61.1211 8.97959Z" fill="black"/>
<path d="M121.41 5.00195V5.27772H120.892V6.68813H120.612V5.27772H120.094V5.00195H121.41ZM121.858 6.68813H121.58V5.00378H121.892L122.362 6.09817L122.837 5.00378H123.149V6.68813H122.87V5.91478L122.923 5.45745H122.898L122.754 5.85579L122.475 6.45443H122.255L121.974 5.85579L121.831 5.45105H121.808L121.858 5.91707V6.68813Z" fill="black"/>
</g>
<defs>
<clipPath id="clip0_1143_181174">
<rect width="122.299" height="17" fill="white" transform="translate(0.851562 0.5)"/>
</clipPath>
</defs>
</svg>
