<svg width="674" height="514" viewBox="0 0 674 514" fill="none" xmlns="http://www.w3.org/2000/svg">
<path d="M213.877 353.006C214.088 352.734 214.039 352.341 213.766 352.129L209.322 348.682C209.049 348.47 208.656 348.52 208.445 348.793C208.233 349.065 208.283 349.458 208.555 349.669L212.506 352.734L209.442 356.685C209.23 356.958 209.28 357.35 209.552 357.562C209.825 357.773 210.218 357.724 210.429 357.451L213.877 353.006ZM195.087 436.255C173.976 422.997 167.609 395.136 180.867 374.025L179.808 373.36C166.184 395.056 172.726 423.689 194.422 437.314L195.087 436.255ZM214.015 442.892C207.489 442.158 201.022 439.982 195.087 436.255L194.422 437.314C200.52 441.143 207.167 443.38 213.876 444.134L214.015 442.892ZM180.867 374.025C188.355 362.101 200.501 354.88 213.461 353.243L213.305 352.003C199.989 353.685 187.504 361.105 179.808 373.36L180.867 374.025Z" fill="#171717"/>
<path d="M223.017 442.239C222.806 442.512 222.855 442.904 223.128 443.116L227.573 446.563C227.845 446.775 228.238 446.725 228.449 446.453C228.661 446.18 228.611 445.787 228.339 445.576L224.388 442.511L227.452 438.56C227.664 438.288 227.614 437.895 227.342 437.684C227.069 437.472 226.676 437.522 226.465 437.794L223.017 442.239ZM241.807 358.99C262.918 372.248 269.285 400.11 256.027 421.221L257.086 421.885C270.711 400.19 264.168 371.557 242.472 357.932L241.807 358.99ZM222.879 352.353C229.405 353.087 235.872 355.263 241.807 358.99L242.472 357.932C236.374 354.102 229.727 351.866 223.018 351.111L222.879 352.353ZM256.027 421.221C248.539 433.145 236.393 440.365 223.433 442.002L223.589 443.242C236.905 441.56 249.39 434.14 257.086 421.885L256.027 421.221Z" fill="#171717"/>
<rect x="1" y="0.779297" width="195.11" height="229.147" rx="16" fill="#F5F5F5"/>
<rect x="1" y="0.779297" width="195.11" height="229.147" rx="16" stroke="#171717"/>
<rect x="68.1638" y="41.8527" width="60" height="60" rx="18" fill="#93C5FD"/>
<g clip-path="url(#clip0_26_1936)">
<path d="M102.039 71.0584L99.5298 68.5495L98.1638 69.9154L102.039 73.7904L107.851 67.9779L106.485 66.612L102.039 71.0584Z" fill="#171717"/>
<path d="M92.3513 73.7902H90.4138V75.7277H92.3513V73.7902Z" fill="#171717"/>
<path d="M94.2888 65.0715H89.4451V67.009H93.3201V68.9465H90.4138V71.8527H92.3513V70.884H94.2888C94.8238 70.884 95.2576 70.4502 95.2576 69.9152V66.0402C95.2576 65.5053 94.8238 65.0715 94.2888 65.0715Z" fill="#171717"/>
<path d="M99.8456 85.4152L98.1641 84.4465L102.039 77.6652H107.852C108.924 77.6652 109.789 76.8005 109.789 75.7277V64.1027C109.789 63.0299 108.924 62.1652 107.852 62.1652H88.4766C87.4041 62.1652 86.5391 63.0299 86.5391 64.1027V75.7277C86.5391 76.8005 87.4041 77.6652 88.4766 77.6652H97.1953V79.6027H88.4766C86.3363 79.6027 84.6016 77.8687 84.6016 75.7277V64.1027C84.6016 61.9609 86.3363 60.2277 88.4766 60.2277H107.852C109.992 60.2277 111.727 61.9609 111.727 64.1027V75.7277C111.727 77.8687 109.992 79.6027 107.852 79.6027H103.167L99.8456 85.4152Z" fill="#171717"/>
</g>
<path d="M59.8707 142.853V131.685H63.6147C66.3987 131.685 68.1907 133.541 68.1907 137.269C68.1907 140.997 66.3987 142.853 63.6147 142.853H59.8707ZM61.2147 141.669H63.6147C65.4547 141.669 66.7507 140.389 66.7507 138.181V136.357C66.7507 134.149 65.4547 132.869 63.6147 132.869H61.2147V141.669ZM73.5811 143.045C71.3411 143.045 69.8691 141.349 69.8691 138.725C69.8691 136.101 71.3411 134.405 73.5811 134.405C75.7891 134.405 77.1491 136.101 77.1491 138.437V139.045H71.2131V139.429C71.2131 140.853 72.1251 141.925 73.6611 141.925C74.7011 141.925 75.5011 141.413 75.9331 140.501L76.8451 141.157C76.3171 142.277 75.1331 143.045 73.5811 143.045ZM73.5811 135.477C72.1891 135.477 71.2131 136.533 71.2131 137.973V138.085H75.7731V137.909C75.7731 136.453 74.8931 135.477 73.5811 135.477ZM81.7383 143.045C80.2183 143.045 79.2103 142.405 78.4743 141.429L79.3863 140.693C80.0263 141.493 80.7943 141.957 81.8343 141.957C82.9223 141.957 83.5623 141.461 83.5623 140.613C83.5623 139.973 83.2103 139.477 82.1223 139.317L81.4663 139.221C79.9463 138.997 78.8103 138.373 78.8103 136.837C78.8103 135.205 80.0743 134.405 81.7543 134.405C83.0823 134.405 83.9623 134.901 84.6343 135.733L83.7863 136.501C83.4183 135.989 82.7143 135.493 81.6583 135.493C80.6023 135.493 80.0423 135.989 80.0423 136.773C80.0423 137.573 80.6023 137.893 81.6263 138.053L82.2663 138.149C84.0903 138.421 84.7943 139.221 84.7943 140.469C84.7943 142.069 83.6263 143.045 81.7383 143.045ZM87.6952 132.661C87.1512 132.661 86.9112 132.373 86.9112 131.941V131.733C86.9112 131.301 87.1512 131.013 87.6952 131.013C88.2392 131.013 88.4792 131.301 88.4792 131.733V131.941C88.4792 132.373 88.2392 132.661 87.6952 132.661ZM87.0552 142.853V134.597H88.3352V142.853H87.0552ZM98.0152 143.765C98.0152 145.461 96.6712 146.245 94.0152 146.245C91.4392 146.245 90.3832 145.509 90.3832 144.213C90.3832 143.317 90.8792 142.837 91.6952 142.613V142.437C91.2312 142.213 90.9592 141.845 90.9592 141.285C90.9592 140.453 91.5512 140.053 92.3832 139.845V139.781C91.4072 139.317 90.8312 138.405 90.8312 137.253C90.8312 135.573 92.0632 134.405 93.9352 134.405C94.5272 134.405 95.0552 134.517 95.5032 134.725V134.581C95.5032 133.941 95.7752 133.477 96.4632 133.477H97.6952V134.597H96.1272V135.125C96.7192 135.637 97.0712 136.373 97.0712 137.253C97.0712 138.933 95.8392 140.101 93.9512 140.101C93.6792 140.101 93.3912 140.069 93.1512 140.021C92.6072 140.165 92.0632 140.437 92.0632 140.949C92.0632 141.445 92.5752 141.573 93.3272 141.573H95.0872C97.1352 141.573 98.0152 142.405 98.0152 143.765ZM96.8152 143.861C96.8152 143.205 96.3832 142.773 95.1032 142.773H92.3512C91.8232 143.013 91.5832 143.381 91.5832 143.893C91.5832 144.613 92.0792 145.205 93.3752 145.205H94.5592C95.9832 145.205 96.8152 144.757 96.8152 143.861ZM93.9512 139.077C95.0392 139.077 95.7272 138.565 95.7272 137.477V137.029C95.7272 135.941 95.0392 135.429 93.9512 135.429C92.8632 135.429 92.1752 135.941 92.1752 137.029V137.477C92.1752 138.565 92.8632 139.077 93.9512 139.077ZM100.788 142.853H99.5083V134.597H100.788V135.941H100.852C101.252 135.013 101.956 134.405 103.188 134.405C104.884 134.405 105.956 135.557 105.956 137.557V142.853H104.676V137.781C104.676 136.309 104.036 135.557 102.804 135.557C101.78 135.557 100.788 136.069 100.788 137.125V142.853ZM119.103 142.853H118.383C117.439 142.853 117.055 142.277 116.959 141.509H116.879C116.527 142.517 115.647 143.045 114.495 143.045C112.751 143.045 111.727 142.085 111.727 140.549C111.727 138.997 112.847 138.133 115.247 138.133H116.879V137.317C116.879 136.149 116.239 135.509 114.927 135.509C113.935 135.509 113.279 135.989 112.831 136.741L112.063 136.021C112.511 135.141 113.503 134.405 114.991 134.405C116.975 134.405 118.159 135.445 118.159 137.189V141.733H119.103V142.853ZM114.703 141.957C115.967 141.957 116.879 141.301 116.879 140.453V139.093H115.183C113.727 139.093 113.071 139.541 113.071 140.341V140.677C113.071 141.493 113.711 141.957 114.703 141.957ZM122.21 142.853H120.93V134.597H122.21V135.941H122.274C122.674 135.013 123.378 134.405 124.61 134.405C126.306 134.405 127.378 135.557 127.378 137.557V142.853H126.098V137.781C126.098 136.309 125.458 135.557 124.226 135.557C123.202 135.557 122.21 136.069 122.21 137.125V142.853ZM135.304 142.853V141.509H135.24C134.744 142.533 133.96 143.045 132.824 143.045C130.76 143.045 129.464 141.365 129.464 138.725C129.464 136.085 130.76 134.405 132.824 134.405C133.96 134.405 134.808 134.901 135.24 135.941H135.304V131.013H136.584V142.853H135.304ZM133.176 141.893C134.344 141.893 135.304 141.285 135.304 140.213V137.141C135.304 136.229 134.344 135.557 133.176 135.557C131.736 135.557 130.84 136.549 130.84 138.021V139.429C130.84 140.901 131.736 141.893 133.176 141.893ZM45.4536 167.053V155.597H46.7336V156.941H46.7976C47.2296 155.901 48.0776 155.405 49.2136 155.405C51.2776 155.405 52.5736 157.085 52.5736 159.725C52.5736 162.365 51.2776 164.045 49.2136 164.045C48.0776 164.045 47.2936 163.533 46.7976 162.509H46.7336V167.053H45.4536ZM48.8616 162.893C50.3016 162.893 51.1976 161.901 51.1976 160.429V159.021C51.1976 157.549 50.3016 156.557 48.8616 156.557C47.6936 156.557 46.7336 157.229 46.7336 158.141V161.213C46.7336 162.285 47.6936 162.893 48.8616 162.893ZM56.0149 163.853H54.7349V155.597H56.0149V157.117H56.0949C56.3829 156.333 57.1349 155.597 58.4789 155.597H58.9749V156.877H58.2229C56.8469 156.877 56.0149 157.469 56.0149 158.253V163.853ZM63.6357 164.045C61.3957 164.045 59.9237 162.349 59.9237 159.725C59.9237 157.101 61.3957 155.405 63.6357 155.405C65.8437 155.405 67.2037 157.101 67.2037 159.437V160.045H61.2677V160.429C61.2677 161.853 62.1797 162.925 63.7157 162.925C64.7557 162.925 65.5557 162.413 65.9877 161.501L66.8997 162.157C66.3717 163.277 65.1877 164.045 63.6357 164.045ZM63.6357 156.477C62.2437 156.477 61.2677 157.533 61.2677 158.973V159.085H65.8277V158.909C65.8277 157.453 64.9477 156.477 63.6357 156.477ZM69.313 167.053V155.597H70.593V156.941H70.657C71.089 155.901 71.937 155.405 73.073 155.405C75.137 155.405 76.433 157.085 76.433 159.725C76.433 162.365 75.137 164.045 73.073 164.045C71.937 164.045 71.153 163.533 70.657 162.509H70.593V167.053H69.313ZM72.721 162.893C74.161 162.893 75.057 161.901 75.057 160.429V159.021C75.057 157.549 74.161 156.557 72.721 156.557C71.553 156.557 70.593 157.229 70.593 158.141V161.213C70.593 162.285 71.553 162.893 72.721 162.893ZM85.3142 163.853H84.5942C83.6502 163.853 83.2662 163.277 83.1702 162.509H83.0902C82.7382 163.517 81.8582 164.045 80.7062 164.045C78.9622 164.045 77.9382 163.085 77.9382 161.549C77.9382 159.997 79.0582 159.133 81.4582 159.133H83.0902V158.317C83.0902 157.149 82.4502 156.509 81.1382 156.509C80.1462 156.509 79.4902 156.989 79.0422 157.741L78.2742 157.021C78.7222 156.141 79.7142 155.405 81.2022 155.405C83.1862 155.405 84.3702 156.445 84.3702 158.189V162.733H85.3142V163.853ZM80.9142 162.957C82.1782 162.957 83.0902 162.301 83.0902 161.453V160.093H81.3942C79.9382 160.093 79.2822 160.541 79.2822 161.341V161.677C79.2822 162.493 79.9222 162.957 80.9142 162.957ZM88.4211 163.853H87.1411V155.597H88.4211V157.117H88.5011C88.7891 156.333 89.5411 155.597 90.8851 155.597H91.3811V156.877H90.6291C89.2531 156.877 88.4211 157.469 88.4211 158.253V163.853ZM96.042 164.045C93.802 164.045 92.33 162.349 92.33 159.725C92.33 157.101 93.802 155.405 96.042 155.405C98.25 155.405 99.61 157.101 99.61 159.437V160.045H93.674V160.429C93.674 161.853 94.586 162.925 96.122 162.925C97.162 162.925 97.962 162.413 98.394 161.501L99.306 162.157C98.778 163.277 97.594 164.045 96.042 164.045ZM96.042 156.477C94.65 156.477 93.674 157.533 93.674 158.973V159.085H98.234V158.909C98.234 157.453 97.354 156.477 96.042 156.477ZM112.22 163.853H111.5C110.556 163.853 110.172 163.277 110.076 162.509H109.996C109.644 163.517 108.764 164.045 107.612 164.045C105.868 164.045 104.844 163.085 104.844 161.549C104.844 159.997 105.964 159.133 108.364 159.133H109.996V158.317C109.996 157.149 109.356 156.509 108.044 156.509C107.052 156.509 106.396 156.989 105.948 157.741L105.18 157.021C105.628 156.141 106.62 155.405 108.108 155.405C110.092 155.405 111.276 156.445 111.276 158.189V162.733H112.22V163.853ZM107.82 162.957C109.084 162.957 109.996 162.301 109.996 161.453V160.093H108.3C106.844 160.093 106.188 160.541 106.188 161.341V161.677C106.188 162.493 106.828 162.957 107.82 162.957ZM126.89 163.853V162.509H126.826C126.33 163.533 125.546 164.045 124.41 164.045C122.346 164.045 121.05 162.365 121.05 159.725C121.05 157.085 122.346 155.405 124.41 155.405C125.546 155.405 126.394 155.901 126.826 156.941H126.89V152.013H128.17V163.853H126.89ZM124.762 162.893C125.93 162.893 126.89 162.285 126.89 161.213V158.141C126.89 157.229 125.93 156.557 124.762 156.557C123.322 156.557 122.426 157.549 122.426 159.021V160.429C122.426 161.901 123.322 162.893 124.762 162.893ZM137.611 163.853H136.891C135.947 163.853 135.563 163.277 135.467 162.509H135.387C135.035 163.517 134.155 164.045 133.003 164.045C131.259 164.045 130.235 163.085 130.235 161.549C130.235 159.997 131.355 159.133 133.755 159.133H135.387V158.317C135.387 157.149 134.747 156.509 133.435 156.509C132.443 156.509 131.787 156.989 131.339 157.741L130.571 157.021C131.019 156.141 132.011 155.405 133.499 155.405C135.483 155.405 136.667 156.445 136.667 158.189V162.733H137.611V163.853ZM133.211 162.957C134.475 162.957 135.387 162.301 135.387 161.453V160.093H133.691C132.235 160.093 131.579 160.541 131.579 161.341V161.677C131.579 162.493 132.219 162.957 133.211 162.957ZM142.862 163.853H141.262C140.382 163.853 139.902 163.293 139.902 162.493V156.717H138.542V155.597H139.31C139.854 155.597 140.03 155.405 140.03 154.845V153.309H141.182V155.597H142.99V156.717H141.182V162.733H142.862V163.853ZM151.767 163.853H151.047C150.103 163.853 149.719 163.277 149.623 162.509H149.543C149.191 163.517 148.311 164.045 147.159 164.045C145.415 164.045 144.391 163.085 144.391 161.549C144.391 159.997 145.511 159.133 147.911 159.133H149.543V158.317C149.543 157.149 148.903 156.509 147.591 156.509C146.599 156.509 145.943 156.989 145.495 157.741L144.727 157.021C145.175 156.141 146.167 155.405 147.655 155.405C149.639 155.405 150.823 156.445 150.823 158.189V162.733H151.767V163.853ZM147.367 162.957C148.631 162.957 149.543 162.301 149.543 161.453V160.093H147.847C146.391 160.093 145.735 160.541 145.735 161.341V161.677C145.735 162.493 146.375 162.957 147.367 162.957ZM46.4574 184.853H45.3214C44.4414 184.853 43.9614 184.293 43.9614 183.525V173.013H45.2414V183.733H46.4574V184.853ZM55.0408 184.853H54.3208C53.3768 184.853 52.9928 184.277 52.8968 183.509H52.8168C52.4648 184.517 51.5848 185.045 50.4328 185.045C48.6888 185.045 47.6648 184.085 47.6648 182.549C47.6648 180.997 48.7848 180.133 51.1848 180.133H52.8168V179.317C52.8168 178.149 52.1768 177.509 50.8648 177.509C49.8728 177.509 49.2168 177.989 48.7688 178.741L48.0008 178.021C48.4488 177.141 49.4408 176.405 50.9288 176.405C52.9128 176.405 54.0968 177.445 54.0968 179.189V183.733H55.0408V184.853ZM50.6408 183.957C51.9048 183.957 52.8168 183.301 52.8168 182.453V181.093H51.1208C49.6648 181.093 49.0088 181.541 49.0088 182.341V182.677C49.0088 183.493 49.6488 183.957 50.6408 183.957ZM56.8677 184.853V173.013H58.1477V177.941H58.2117C58.6437 176.901 59.4917 176.405 60.6277 176.405C62.6917 176.405 63.9877 178.085 63.9877 180.725C63.9877 183.365 62.6917 185.045 60.6277 185.045C59.4917 185.045 58.7077 184.533 58.2117 183.509H58.1477V184.853H56.8677ZM60.2757 183.893C61.7157 183.893 62.6117 182.901 62.6117 181.429V180.021C62.6117 178.549 61.7157 177.557 60.2757 177.557C59.1077 177.557 58.1477 178.229 58.1477 179.141V182.213C58.1477 183.285 59.1077 183.893 60.2757 183.893ZM69.2529 185.045C67.0129 185.045 65.5409 183.349 65.5409 180.725C65.5409 178.101 67.0129 176.405 69.2529 176.405C71.4609 176.405 72.8209 178.101 72.8209 180.437V181.045H66.8849V181.429C66.8849 182.853 67.7969 183.925 69.3329 183.925C70.3729 183.925 71.1729 183.413 71.6049 182.501L72.5169 183.157C71.9889 184.277 70.8049 185.045 69.2529 185.045ZM69.2529 177.477C67.8609 177.477 66.8849 178.533 66.8849 179.973V180.085H71.4449V179.909C71.4449 178.453 70.5649 177.477 69.2529 177.477ZM77.4262 184.853H76.2902C75.4102 184.853 74.9302 184.293 74.9302 183.525V173.013H76.2102V183.733H77.4262V184.853ZM79.9296 174.661C79.3856 174.661 79.1456 174.373 79.1456 173.941V173.733C79.1456 173.301 79.3856 173.013 79.9296 173.013C80.4736 173.013 80.7136 173.301 80.7136 173.733V173.941C80.7136 174.373 80.4736 174.661 79.9296 174.661ZM79.2896 184.853V176.597H80.5696V184.853H79.2896ZM84.5696 184.853H83.2896V176.597H84.5696V177.941H84.6336C85.0336 177.013 85.7376 176.405 86.9696 176.405C88.6656 176.405 89.7376 177.557 89.7376 179.557V184.853H88.4576V179.781C88.4576 178.309 87.8176 177.557 86.5856 177.557C85.5616 177.557 84.5696 178.069 84.5696 179.125V184.853ZM99.3433 185.765C99.3433 187.461 97.9993 188.245 95.3433 188.245C92.7673 188.245 91.7113 187.509 91.7113 186.213C91.7113 185.317 92.2073 184.837 93.0233 184.613V184.437C92.5593 184.213 92.2873 183.845 92.2873 183.285C92.2873 182.453 92.8793 182.053 93.7113 181.845V181.781C92.7353 181.317 92.1593 180.405 92.1593 179.253C92.1593 177.573 93.3913 176.405 95.2633 176.405C95.8553 176.405 96.3833 176.517 96.8313 176.725V176.581C96.8313 175.941 97.1033 175.477 97.7913 175.477H99.0233V176.597H97.4553V177.125C98.0473 177.637 98.3993 178.373 98.3993 179.253C98.3993 180.933 97.1673 182.101 95.2793 182.101C95.0073 182.101 94.7193 182.069 94.4793 182.021C93.9353 182.165 93.3913 182.437 93.3913 182.949C93.3913 183.445 93.9033 183.573 94.6553 183.573H96.4153C98.4633 183.573 99.3433 184.405 99.3433 185.765ZM98.1433 185.861C98.1433 185.205 97.7113 184.773 96.4313 184.773H93.6793C93.1513 185.013 92.9113 185.381 92.9113 185.893C92.9113 186.613 93.4073 187.205 94.7033 187.205H95.8873C97.3113 187.205 98.1433 186.757 98.1433 185.861ZM95.2793 181.077C96.3673 181.077 97.0553 180.565 97.0553 179.477V179.029C97.0553 177.941 96.3673 177.429 95.2793 177.429C94.1913 177.429 93.5033 177.941 93.5033 179.029V179.477C93.5033 180.565 94.1913 181.077 95.2793 181.077ZM104.618 188.053V176.597H105.898V177.941H105.962C106.394 176.901 107.242 176.405 108.378 176.405C110.442 176.405 111.738 178.085 111.738 180.725C111.738 183.365 110.442 185.045 108.378 185.045C107.242 185.045 106.458 184.533 105.962 183.509H105.898V188.053H104.618ZM108.026 183.893C109.466 183.893 110.362 182.901 110.362 181.429V180.021C110.362 178.549 109.466 177.557 108.026 177.557C106.858 177.557 105.898 178.229 105.898 179.141V182.213C105.898 183.285 106.858 183.893 108.026 183.893ZM115.179 184.853H113.899V176.597H115.179V178.117H115.259C115.547 177.333 116.299 176.597 117.643 176.597H118.139V177.877H117.387C116.011 177.877 115.179 178.469 115.179 179.253V184.853ZM122.816 185.045C120.608 185.045 119.088 183.349 119.088 180.725C119.088 178.101 120.608 176.405 122.816 176.405C125.024 176.405 126.544 178.101 126.544 180.725C126.544 183.349 125.024 185.045 122.816 185.045ZM122.816 183.909C124.192 183.909 125.168 183.061 125.168 181.317V180.133C125.168 178.389 124.192 177.541 122.816 177.541C121.44 177.541 120.464 178.389 120.464 180.133V181.317C120.464 183.061 121.44 183.909 122.816 183.909ZM128.649 186.933V176.597H129.929V186.133C129.929 187.269 129.369 188.053 128.137 188.053H127.305V186.933H128.649ZM129.289 174.661C128.745 174.661 128.505 174.373 128.505 173.941V173.733C128.505 173.301 128.745 173.013 129.289 173.013C129.833 173.013 130.073 173.301 130.073 173.733V173.941C130.073 174.373 129.833 174.661 129.289 174.661ZM135.753 185.045C133.513 185.045 132.041 183.349 132.041 180.725C132.041 178.101 133.513 176.405 135.753 176.405C137.961 176.405 139.321 178.101 139.321 180.437V181.045H133.385V181.429C133.385 182.853 134.297 183.925 135.833 183.925C136.873 183.925 137.673 183.413 138.105 182.501L139.017 183.157C138.489 184.277 137.305 185.045 135.753 185.045ZM135.753 177.477C134.361 177.477 133.385 178.533 133.385 179.973V180.085H137.945V179.909C137.945 178.453 137.065 177.477 135.753 177.477ZM144.502 185.045C142.182 185.045 140.822 183.365 140.822 180.725C140.822 178.085 142.182 176.405 144.502 176.405C146.134 176.405 147.11 177.205 147.59 178.341L146.518 178.885C146.214 178.037 145.51 177.541 144.502 177.541C142.982 177.541 142.198 178.581 142.198 180.021V181.429C142.198 182.869 142.982 183.909 144.502 183.909C145.542 183.909 146.294 183.413 146.742 182.469L147.67 183.093C147.142 184.277 146.07 185.045 144.502 185.045ZM152.901 184.853H151.301C150.421 184.853 149.941 184.293 149.941 183.493V177.717H148.581V176.597H149.349C149.893 176.597 150.069 176.405 150.069 175.845V174.309H151.221V176.597H153.029V177.717H151.221V183.733H152.901V184.853Z" fill="#171717"/>
<path d="M235.841 115.706C236.037 115.511 236.037 115.194 235.841 114.999L232.659 111.817C232.464 111.622 232.148 111.622 231.952 111.817C231.757 112.012 231.757 112.329 231.952 112.524L234.781 115.353L231.952 118.181C231.757 118.376 231.757 118.693 231.952 118.888C232.148 119.084 232.464 119.084 232.659 118.888L235.841 115.706ZM200.067 115.853H235.488V114.853H200.067V115.853Z" fill="#171717"/>
<rect x="239.445" y="0.779297" width="195.11" height="229.147" rx="16" fill="#F5F5F5"/>
<rect x="239.445" y="0.779297" width="195.11" height="229.147" rx="16" stroke="#171717"/>
<rect x="306.96" y="47.7793" width="60" height="60" rx="18" fill="#FBBF24"/>
<path d="M329.21 91.3418H325.335C324.821 91.3418 324.328 91.1377 323.965 90.7743C323.602 90.411 323.397 89.9182 323.397 89.4043V85.5293C323.397 85.0154 323.602 84.5226 323.965 84.1593C324.328 83.7959 324.821 83.5918 325.335 83.5918H329.21C329.724 83.5918 330.217 83.7959 330.58 84.1593C330.943 84.5226 331.147 85.0154 331.147 85.5293V89.4043C331.147 89.9182 330.943 90.411 330.58 90.7743C330.217 91.1377 329.724 91.3418 329.21 91.3418ZM325.335 85.5293V89.4043H329.21V85.5293H325.335Z" fill="#171717"/>
<path d="M338.897 91.3418H335.022C334.509 91.3418 334.016 91.1377 333.652 90.7743C333.289 90.411 333.085 89.9182 333.085 89.4043V85.5293C333.085 85.0154 333.289 84.5226 333.652 84.1593C334.016 83.7959 334.509 83.5918 335.022 83.5918H338.897C339.411 83.5918 339.904 83.7959 340.267 84.1593C340.631 84.5226 340.835 85.0154 340.835 85.5293V89.4043C340.835 89.9182 340.631 90.411 340.267 90.7743C339.904 91.1377 339.411 91.3418 338.897 91.3418ZM335.022 85.5293V89.4043H338.897V85.5293H335.022Z" fill="#171717"/>
<path d="M348.585 91.3418H344.71C344.196 91.3418 343.703 91.1377 343.34 90.7743C342.977 90.411 342.772 89.9182 342.772 89.4043V85.5293C342.772 85.0154 342.977 84.5226 343.34 84.1593C343.703 83.7959 344.196 83.5918 344.71 83.5918H348.585C349.099 83.5918 349.592 83.7959 349.955 84.1593C350.318 84.5226 350.522 85.0154 350.522 85.5293V89.4043C350.522 89.9182 350.318 90.411 349.955 90.7743C349.592 91.1377 349.099 91.3418 348.585 91.3418ZM344.71 85.5293V89.4043H348.585V85.5293H344.71Z" fill="#171717"/>
<path d="M329.21 81.6543H325.335C324.821 81.6543 324.328 81.4502 323.965 81.0868C323.602 80.7235 323.397 80.2307 323.397 79.7168V75.8418C323.397 75.3279 323.602 74.8351 323.965 74.4718C324.328 74.1084 324.821 73.9043 325.335 73.9043H329.21C329.724 73.9043 330.217 74.1084 330.58 74.4718C330.943 74.8351 331.147 75.3279 331.147 75.8418V79.7168C331.147 80.2307 330.943 80.7235 330.58 81.0868C330.217 81.4502 329.724 81.6543 329.21 81.6543ZM325.335 75.8418V79.7168H329.21V75.8418H325.335Z" fill="#171717"/>
<path d="M338.897 81.6543H335.022C334.509 81.6543 334.016 81.4502 333.652 81.0868C333.289 80.7235 333.085 80.2307 333.085 79.7168V75.8418C333.085 75.3279 333.289 74.8351 333.652 74.4718C334.016 74.1084 334.509 73.9043 335.022 73.9043H338.897C339.411 73.9043 339.904 74.1084 340.267 74.4718C340.631 74.8351 340.835 75.3279 340.835 75.8418V79.7168C340.835 80.2307 340.631 80.7235 340.267 81.0868C339.904 81.4502 339.411 81.6543 338.897 81.6543ZM335.022 75.8418V79.7168H338.897V75.8418H335.022Z" fill="#171717"/>
<path d="M348.585 81.6543H344.71C344.196 81.6543 343.703 81.4502 343.34 81.0868C342.977 80.7235 342.772 80.2307 342.772 79.7168V75.8418C342.772 75.3279 342.977 74.8351 343.34 74.4718C343.703 74.1084 344.196 73.9043 344.71 73.9043H348.585C349.099 73.9043 349.592 74.1084 349.955 74.4718C350.318 74.8351 350.522 75.3279 350.522 75.8418V79.7168C350.522 80.2307 350.318 80.7235 349.955 81.0868C349.592 81.4502 349.099 81.6543 348.585 81.6543ZM344.71 75.8418V79.7168H348.585V75.8418H344.71Z" fill="#171717"/>
<path d="M329.21 71.9668H325.335C324.821 71.9668 324.328 71.7627 323.965 71.3993C323.602 71.036 323.397 70.5432 323.397 70.0293V66.1543C323.397 65.6404 323.602 65.1476 323.965 64.7843C324.328 64.4209 324.821 64.2168 325.335 64.2168H329.21C329.724 64.2168 330.217 64.4209 330.58 64.7843C330.943 65.1476 331.147 65.6404 331.147 66.1543V70.0293C331.147 70.5432 330.943 71.036 330.58 71.3993C330.217 71.7627 329.724 71.9668 329.21 71.9668ZM325.335 66.1543V70.0293H329.21V66.1543H325.335Z" fill="#171717"/>
<path d="M338.897 71.9668H335.022C334.509 71.9668 334.016 71.7627 333.652 71.3993C333.289 71.036 333.085 70.5432 333.085 70.0293V66.1543C333.085 65.6404 333.289 65.1476 333.652 64.7843C334.016 64.4209 334.509 64.2168 335.022 64.2168H338.897C339.411 64.2168 339.904 64.4209 340.267 64.7843C340.631 65.1476 340.835 65.6404 340.835 66.1543V70.0293C340.835 70.5432 340.631 71.036 340.267 71.3993C339.904 71.7627 339.411 71.9668 338.897 71.9668ZM335.022 66.1543V70.0293H338.897V66.1543H335.022Z" fill="#171717"/>
<path d="M348.585 71.9668H344.71C344.196 71.9668 343.703 71.7627 343.34 71.3993C342.977 71.036 342.772 70.5432 342.772 70.0293V66.1543C342.772 65.6404 342.977 65.1476 343.34 64.7843C343.703 64.4209 344.196 64.2168 344.71 64.2168H348.585C349.099 64.2168 349.592 64.4209 349.955 64.7843C350.318 65.1476 350.522 65.6404 350.522 66.1543V70.0293C350.522 70.5432 350.318 71.036 349.955 71.3993C349.592 71.7627 349.099 71.9668 348.585 71.9668ZM344.71 66.1543V70.0293H348.585V66.1543H344.71Z" fill="#171717"/>
<path d="M281.493 148.971C278.677 148.971 276.997 146.987 276.997 143.259C276.997 139.531 278.677 137.419 281.493 137.419C283.349 137.419 284.629 138.315 285.333 139.867L284.245 140.523C283.797 139.371 282.869 138.619 281.493 138.619C279.573 138.619 278.437 140.139 278.437 142.427V144.091C278.437 146.379 279.573 147.771 281.493 147.771C282.917 147.771 283.893 146.971 284.341 145.755L285.413 146.427C284.709 147.995 283.349 148.971 281.493 148.971ZM290.487 148.971C288.279 148.971 286.759 147.275 286.759 144.651C286.759 142.027 288.279 140.331 290.487 140.331C292.695 140.331 294.215 142.027 294.215 144.651C294.215 147.275 292.695 148.971 290.487 148.971ZM290.487 147.835C291.863 147.835 292.839 146.987 292.839 145.243V144.059C292.839 142.315 291.863 141.467 290.487 141.467C289.111 141.467 288.135 142.315 288.135 144.059V145.243C288.135 146.987 289.111 147.835 290.487 147.835ZM297.6 148.779H296.32V140.523H297.6V141.867H297.664C298.064 140.939 298.768 140.331 300 140.331C301.696 140.331 302.768 141.483 302.768 143.483V148.779H301.488V143.707C301.488 142.235 300.848 141.483 299.616 141.483C298.592 141.483 297.6 141.995 297.6 143.051V148.779ZM305.862 148.779V141.643H304.518V140.523H305.862V138.859C305.862 137.723 306.454 136.939 307.67 136.939H308.918V138.059H307.142V140.523H311.766V148.779H310.486V141.643H307.142V148.779H305.862ZM311.126 138.587C310.582 138.587 310.342 138.299 310.342 137.867V137.659C310.342 137.227 310.582 136.939 311.126 136.939C311.67 136.939 311.91 137.227 311.91 137.659V137.867C311.91 138.299 311.67 138.587 311.126 138.587ZM321.452 149.691C321.452 151.387 320.108 152.171 317.452 152.171C314.876 152.171 313.82 151.435 313.82 150.139C313.82 149.243 314.316 148.763 315.132 148.539V148.363C314.668 148.139 314.396 147.771 314.396 147.211C314.396 146.379 314.988 145.979 315.82 145.771V145.707C314.844 145.243 314.268 144.331 314.268 143.179C314.268 141.499 315.5 140.331 317.372 140.331C317.964 140.331 318.492 140.443 318.94 140.651V140.507C318.94 139.867 319.212 139.403 319.9 139.403H321.132V140.523H319.564V141.051C320.156 141.563 320.508 142.299 320.508 143.179C320.508 144.859 319.276 146.027 317.388 146.027C317.116 146.027 316.828 145.995 316.588 145.947C316.044 146.091 315.5 146.363 315.5 146.875C315.5 147.371 316.012 147.499 316.764 147.499H318.524C320.572 147.499 321.452 148.331 321.452 149.691ZM320.252 149.787C320.252 149.131 319.82 148.699 318.54 148.699H315.788C315.26 148.939 315.02 149.307 315.02 149.819C315.02 150.539 315.516 151.131 316.812 151.131H317.996C319.42 151.131 320.252 150.683 320.252 149.787ZM317.388 145.003C318.476 145.003 319.164 144.491 319.164 143.403V142.955C319.164 141.867 318.476 141.355 317.388 141.355C316.3 141.355 315.612 141.867 315.612 142.955V143.403C315.612 144.491 316.3 145.003 317.388 145.003ZM327.971 148.779V147.435H327.907C327.587 148.219 326.963 148.971 325.587 148.971C323.891 148.971 322.803 147.819 322.803 145.819V140.523H324.083V145.595C324.083 147.067 324.739 147.819 325.971 147.819C326.979 147.819 327.971 147.323 327.971 146.235V140.523H329.251V148.779H327.971ZM333.256 148.779H331.976V140.523H333.256V142.043H333.336C333.624 141.259 334.376 140.523 335.72 140.523H336.216V141.803H335.464C334.088 141.803 333.256 142.395 333.256 143.179V148.779ZM340.877 148.971C338.637 148.971 337.165 147.275 337.165 144.651C337.165 142.027 338.637 140.331 340.877 140.331C343.085 140.331 344.445 142.027 344.445 144.363V144.971H338.509V145.355C338.509 146.779 339.421 147.851 340.957 147.851C341.997 147.851 342.797 147.339 343.229 146.427L344.141 147.083C343.613 148.203 342.429 148.971 340.877 148.971ZM340.877 141.403C339.485 141.403 338.509 142.459 338.509 143.899V144.011H343.069V143.835C343.069 142.379 342.189 141.403 340.877 141.403ZM355.616 151.979V147.435H355.552C355.056 148.459 354.272 148.971 353.136 148.971C351.072 148.971 349.776 147.291 349.776 144.651C349.776 142.011 351.072 140.331 353.136 140.331C354.272 140.331 355.12 140.827 355.552 141.867H355.616V140.523H356.896V151.979H355.616ZM353.488 147.819C354.656 147.819 355.616 147.211 355.616 146.139V143.067C355.616 142.155 354.656 141.483 353.488 141.483C352.048 141.483 351.152 142.475 351.152 143.947V145.355C351.152 146.827 352.048 147.819 353.488 147.819ZM364.705 148.779V147.435H364.641C364.321 148.219 363.697 148.971 362.321 148.971C360.625 148.971 359.537 147.819 359.537 145.819V140.523H360.817V145.595C360.817 147.067 361.473 147.819 362.705 147.819C363.713 147.819 364.705 147.323 364.705 146.235V140.523H365.985V148.779H364.705ZM375.431 148.779H374.711C373.767 148.779 373.383 148.203 373.287 147.435H373.207C372.855 148.443 371.975 148.971 370.823 148.971C369.079 148.971 368.055 148.011 368.055 146.475C368.055 144.923 369.175 144.059 371.575 144.059H373.207V143.243C373.207 142.075 372.567 141.435 371.255 141.435C370.263 141.435 369.607 141.915 369.159 142.667L368.391 141.947C368.839 141.067 369.831 140.331 371.319 140.331C373.303 140.331 374.487 141.371 374.487 143.115V147.659H375.431V148.779ZM371.031 147.883C372.295 147.883 373.207 147.227 373.207 146.379V145.019H371.511C370.055 145.019 369.399 145.467 369.399 146.267V146.603C369.399 147.419 370.039 147.883 371.031 147.883ZM379.754 148.779H378.618C377.738 148.779 377.258 148.219 377.258 147.451V136.939H378.538V147.659H379.754V148.779ZM382.257 138.587C381.713 138.587 381.473 138.299 381.473 137.867V137.659C381.473 137.227 381.713 136.939 382.257 136.939C382.801 136.939 383.041 137.227 383.041 137.659V137.867C383.041 138.299 382.801 138.587 382.257 138.587ZM381.617 148.779V140.523H382.897V148.779H381.617ZM389.041 148.779H387.441C386.561 148.779 386.081 148.219 386.081 147.419V141.643H384.721V140.523H385.489C386.033 140.523 386.209 140.331 386.209 139.771V138.235H387.361V140.523H389.169V141.643H387.361V147.659H389.041V148.779ZM394.314 146.139L396.314 140.523H397.578L393.882 150.699C393.514 151.691 393.178 151.979 391.962 151.979H391.306V150.859H392.602L393.226 149.099L390.138 140.523H391.418L393.402 146.139L393.786 147.483H393.866L394.314 146.139ZM300.681 169.971C298.361 169.971 297.001 168.291 297.001 165.651C297.001 163.011 298.361 161.331 300.681 161.331C302.313 161.331 303.289 162.131 303.769 163.267L302.697 163.811C302.393 162.963 301.689 162.467 300.681 162.467C299.161 162.467 298.377 163.507 298.377 164.947V166.355C298.377 167.795 299.161 168.835 300.681 168.835C301.721 168.835 302.473 168.339 302.921 167.395L303.849 168.019C303.321 169.203 302.249 169.971 300.681 169.971ZM308.682 169.971C306.474 169.971 304.954 168.275 304.954 165.651C304.954 163.027 306.474 161.331 308.682 161.331C310.89 161.331 312.41 163.027 312.41 165.651C312.41 168.275 310.89 169.971 308.682 169.971ZM308.682 168.835C310.058 168.835 311.034 167.987 311.034 166.243V165.059C311.034 163.315 310.058 162.467 308.682 162.467C307.306 162.467 306.33 163.315 306.33 165.059V166.243C306.33 167.987 307.306 168.835 308.682 168.835ZM315.795 169.779H314.515V161.523H315.795V162.867H315.859C316.259 161.939 316.963 161.331 318.195 161.331C319.891 161.331 320.963 162.483 320.963 164.483V169.779H319.683V164.707C319.683 163.235 319.043 162.483 317.811 162.483C316.787 162.483 315.795 162.995 315.795 164.051V169.779ZM327.033 169.779H325.433C324.553 169.779 324.073 169.219 324.073 168.419V162.643H322.713V161.523H323.481C324.025 161.523 324.201 161.331 324.201 160.771V159.235H325.353V161.523H327.161V162.643H325.353V168.659H327.033V169.779ZM330.499 169.779H329.219V161.523H330.499V163.043H330.579C330.867 162.259 331.619 161.523 332.963 161.523H333.459V162.803H332.707C331.331 162.803 330.499 163.395 330.499 164.179V169.779ZM338.135 169.971C335.927 169.971 334.407 168.275 334.407 165.651C334.407 163.027 335.927 161.331 338.135 161.331C340.343 161.331 341.863 163.027 341.863 165.651C341.863 168.275 340.343 169.971 338.135 169.971ZM338.135 168.835C339.511 168.835 340.487 167.987 340.487 166.243V165.059C340.487 163.315 339.511 162.467 338.135 162.467C336.759 162.467 335.783 163.315 335.783 165.059V166.243C335.783 167.987 336.759 168.835 338.135 168.835ZM346.465 169.779H345.329C344.449 169.779 343.969 169.219 343.969 168.451V157.939H345.249V168.659H346.465V169.779ZM358.829 169.779H358.109C357.165 169.779 356.781 169.203 356.685 168.435H356.605C356.253 169.443 355.373 169.971 354.221 169.971C352.477 169.971 351.453 169.011 351.453 167.475C351.453 165.923 352.573 165.059 354.973 165.059H356.605V164.243C356.605 163.075 355.965 162.435 354.653 162.435C353.661 162.435 353.005 162.915 352.557 163.667L351.789 162.947C352.237 162.067 353.229 161.331 354.717 161.331C356.701 161.331 357.885 162.371 357.885 164.115V168.659H358.829V169.779ZM354.429 168.883C355.693 168.883 356.605 168.227 356.605 167.379V166.019H354.909C353.453 166.019 352.797 166.467 352.797 167.267V167.603C352.797 168.419 353.437 168.883 354.429 168.883ZM361.936 169.779H360.656V161.523H361.936V162.867H362C362.4 161.939 363.104 161.331 364.336 161.331C366.032 161.331 367.104 162.483 367.104 164.483V169.779H365.824V164.707C365.824 163.235 365.184 162.483 363.952 162.483C362.928 162.483 361.936 162.995 361.936 164.051V169.779ZM375.03 169.779V168.435H374.966C374.47 169.459 373.686 169.971 372.55 169.971C370.486 169.971 369.19 168.291 369.19 165.651C369.19 163.011 370.486 161.331 372.55 161.331C373.686 161.331 374.534 161.827 374.966 162.867H375.03V157.939H376.31V169.779H375.03ZM372.902 168.819C374.07 168.819 375.03 168.211 375.03 167.139V164.067C375.03 163.155 374.07 162.483 372.902 162.483C371.462 162.483 370.566 163.475 370.566 164.947V166.355C370.566 167.827 371.462 168.819 372.902 168.819ZM302.695 190.779L300.487 182.523H301.735L302.615 186.091L303.495 189.707H303.527L304.535 186.091L305.575 182.523H306.711L307.783 186.091L308.807 189.707H308.839L309.687 186.091L310.583 182.523H311.783L309.591 190.779H308.007L306.855 186.811L306.135 184.299H306.103L305.399 186.811L304.247 190.779H302.695ZM316.674 190.971C314.466 190.971 312.946 189.275 312.946 186.651C312.946 184.027 314.466 182.331 316.674 182.331C318.882 182.331 320.402 184.027 320.402 186.651C320.402 189.275 318.882 190.971 316.674 190.971ZM316.674 189.835C318.05 189.835 319.026 188.987 319.026 187.243V186.059C319.026 184.315 318.05 183.467 316.674 183.467C315.298 183.467 314.322 184.315 314.322 186.059V187.243C314.322 188.987 315.298 189.835 316.674 189.835ZM323.788 190.779H322.508V182.523H323.788V184.043H323.868C324.156 183.259 324.908 182.523 326.252 182.523H326.748V183.803H325.996C324.62 183.803 323.788 184.395 323.788 185.179V190.779ZM328.383 190.779V178.939H329.663V186.443H329.727L330.991 185.035L333.327 182.523H334.879L331.823 185.787L335.183 190.779H333.631L330.895 186.571L329.663 187.835V190.779H328.383ZM337.268 190.779V183.643H335.924V182.523H337.268V180.859C337.268 179.723 337.86 178.939 339.076 178.939H340.324V180.059H338.548V182.523H340.324V183.643H338.548V190.779H337.268ZM344.504 190.779H343.368C342.488 190.779 342.008 190.219 342.008 189.451V178.939H343.288V189.659H344.504V190.779ZM349.487 190.971C347.279 190.971 345.759 189.275 345.759 186.651C345.759 184.027 347.279 182.331 349.487 182.331C351.695 182.331 353.215 184.027 353.215 186.651C353.215 189.275 351.695 190.971 349.487 190.971ZM349.487 189.835C350.863 189.835 351.839 188.987 351.839 187.243V186.059C351.839 184.315 350.863 183.467 349.487 183.467C348.111 183.467 347.135 184.315 347.135 186.059V187.243C347.135 188.987 348.111 189.835 349.487 189.835ZM356.586 190.779L354.378 182.523H355.626L356.506 186.091L357.386 189.707H357.418L358.426 186.091L359.466 182.523H360.602L361.674 186.091L362.698 189.707H362.73L363.578 186.091L364.474 182.523H365.674L363.482 190.779H361.898L360.746 186.811L360.026 184.299H359.994L359.29 186.811L358.138 190.779H356.586ZM369.972 190.971C368.452 190.971 367.444 190.331 366.708 189.355L367.62 188.619C368.26 189.419 369.028 189.883 370.068 189.883C371.156 189.883 371.796 189.387 371.796 188.539C371.796 187.899 371.444 187.403 370.356 187.243L369.7 187.147C368.18 186.923 367.044 186.299 367.044 184.763C367.044 183.131 368.308 182.331 369.988 182.331C371.316 182.331 372.196 182.827 372.868 183.659L372.02 184.427C371.652 183.915 370.948 183.419 369.892 183.419C368.836 183.419 368.276 183.915 368.276 184.699C368.276 185.499 368.836 185.819 369.86 185.979L370.5 186.075C372.324 186.347 373.028 187.147 373.028 188.395C373.028 189.995 371.86 190.971 369.972 190.971Z" fill="#171717"/>
<path d="M474.286 115.706C474.482 115.511 474.482 115.194 474.286 114.999L471.105 111.817C470.909 111.622 470.593 111.622 470.397 111.817C470.202 112.012 470.202 112.329 470.397 112.524L473.226 115.353L470.397 118.181C470.202 118.376 470.202 118.693 470.397 118.888C470.593 119.084 470.909 119.084 471.105 118.888L474.286 115.706ZM438.512 115.853H473.933V114.853H438.512V115.853Z" fill="#171717"/>
<rect x="477.891" y="0.779297" width="195.11" height="229.147" rx="16" fill="#F5F5F5"/>
<rect x="477.891" y="0.779297" width="195.11" height="229.147" rx="16" stroke="#171717"/>
<rect x="542.333" y="47.7793" width="60" height="60" rx="18" fill="#F87171"/>
<path fill-rule="evenodd" clip-rule="evenodd" d="M577.93 71.3137C578.568 71.7395 579.317 71.9668 580.083 71.9668C581.111 71.9657 582.096 71.5571 582.822 70.8306C583.549 70.1042 583.957 69.1192 583.958 68.0918C583.958 67.3254 583.731 66.5762 583.305 65.939C582.879 65.3017 582.274 64.8051 581.566 64.5118C580.858 64.2185 580.079 64.1417 579.327 64.2913C578.576 64.4408 577.885 64.8098 577.343 65.3518C576.801 65.8937 576.432 66.5841 576.283 67.3358C576.133 68.0875 576.21 68.8666 576.503 69.5747C576.797 70.2828 577.293 70.888 577.93 71.3137ZM579.007 66.4808C579.325 66.2679 579.7 66.1543 580.083 66.1543C580.597 66.1549 581.089 66.3592 581.453 66.7224C581.816 67.0857 582.02 67.5781 582.021 68.0918C582.021 68.475 581.907 68.8496 581.694 69.1682C581.481 69.4868 581.179 69.7352 580.825 69.8818C580.471 70.0285 580.081 70.0668 579.705 69.9921C579.329 69.9173 578.984 69.7328 578.713 69.4618C578.442 69.1909 578.258 68.8456 578.183 68.4698C578.108 68.0939 578.147 67.7044 578.293 67.3503C578.44 66.9963 578.688 66.6937 579.007 66.4808ZM574.271 77.7793H576.208V75.8418C576.208 75.5849 576.311 75.3387 576.492 75.157C576.674 74.9754 576.92 74.8733 577.177 74.873H582.99C583.246 74.8733 583.493 74.9754 583.674 75.157C583.856 75.3387 583.958 75.5849 583.958 75.8418V77.7793H585.896V75.8418C585.895 75.0713 585.588 74.3325 585.044 73.7877C584.499 73.2429 583.76 72.9364 582.99 72.9355H577.177C576.406 72.9364 575.668 73.2429 575.123 73.7877C574.578 74.3325 574.272 75.0713 574.271 75.8418V77.7793ZM577.93 85.845C578.568 86.2708 579.317 86.498 580.083 86.498C581.111 86.497 582.096 86.0885 582.822 85.362C583.549 84.6355 583.957 83.6505 583.958 82.623C583.958 81.8566 583.731 81.1075 583.305 80.4702C582.879 79.833 582.274 79.3363 581.566 79.043C580.858 78.7497 580.079 78.673 579.327 78.8225C578.576 78.972 577.885 79.3411 577.343 79.883C576.801 80.4249 576.432 81.1154 576.283 81.8671C576.133 82.6187 576.21 83.3979 576.503 84.1059C576.797 84.814 577.293 85.4192 577.93 85.845ZM579.007 81.0121C579.325 80.7992 579.7 80.6855 580.083 80.6855C580.597 80.6862 581.089 80.8906 581.453 81.2538C581.816 81.617 582.02 82.1094 582.021 82.623C582.021 83.0063 581.907 83.3808 581.694 83.6995C581.481 84.0181 581.179 84.2664 580.825 84.4131C580.471 84.5597 580.081 84.5981 579.705 84.5233C579.329 84.4486 578.984 84.264 578.713 83.9931C578.442 83.7221 578.258 83.3769 578.183 83.001C578.108 82.6252 578.147 82.2356 578.293 81.8816C578.44 81.5276 578.688 81.225 579.007 81.0121ZM576.208 92.3105H574.271V90.373C574.272 89.6025 574.578 88.8638 575.123 88.319C575.668 87.7741 576.406 87.4676 577.177 87.4668H582.99C583.76 87.4676 584.499 87.7741 585.044 88.319C585.588 88.8638 585.895 89.6025 585.896 90.373V92.3105H583.958V90.373C583.958 90.1162 583.856 89.8698 583.674 89.6882C583.493 89.5066 583.246 89.4045 582.99 89.4043H577.177C576.92 89.4045 576.674 89.5066 576.492 89.6882C576.311 89.8698 576.208 90.1162 576.208 90.373V92.3105ZM558.771 92.3105H560.708V90.373C560.708 90.1162 560.811 89.8699 560.992 89.6883C561.174 89.5067 561.42 89.4045 561.677 89.4043H567.49C567.746 89.4045 567.993 89.5067 568.174 89.6883C568.356 89.8699 568.458 90.1162 568.458 90.373V92.3105H570.396V90.373C570.395 89.6025 570.088 88.8638 569.544 88.319C568.999 87.7741 568.26 87.4676 567.49 87.4668H561.677C560.906 87.4676 560.168 87.7741 559.623 88.319C559.078 88.8638 558.772 89.6025 558.771 90.373V92.3105ZM562.43 85.845C563.068 86.2708 563.817 86.498 564.583 86.498C565.611 86.497 566.596 86.0884 567.322 85.3619C568.049 84.6354 568.457 83.6504 568.458 82.623C568.458 81.8566 568.231 81.1075 567.805 80.4702C567.379 79.833 566.774 79.3363 566.066 79.043C565.358 78.7497 564.579 78.673 563.827 78.8225C563.076 78.972 562.385 79.3411 561.843 79.883C561.301 80.4249 560.932 81.1154 560.783 81.8671C560.633 82.6187 560.71 83.3979 561.003 84.1059C561.297 84.814 561.793 85.4192 562.43 85.845ZM563.507 81.0121C563.825 80.7992 564.2 80.6855 564.583 80.6855C565.097 80.6861 565.589 80.8905 565.953 81.2537C566.316 81.6169 566.52 82.1094 566.521 82.623C566.521 83.0063 566.407 83.3808 566.194 83.6995C565.981 84.0181 565.679 84.2664 565.325 84.4131C564.971 84.5597 564.581 84.5981 564.205 84.5233C563.829 84.4486 563.484 84.264 563.213 83.9931C562.942 83.7221 562.758 83.3769 562.683 83.001C562.608 82.6252 562.647 82.2356 562.793 81.8816C562.94 81.5276 563.188 81.225 563.507 81.0121ZM558.771 77.7793H560.708V75.8418C560.709 75.585 560.811 75.3388 560.992 75.1572C561.174 74.9756 561.42 74.8734 561.677 74.873H567.49C567.746 74.8734 567.993 74.9756 568.174 75.1572C568.356 75.3388 568.458 75.585 568.458 75.8418V77.7793H570.396V75.8418C570.395 75.0713 570.088 74.3325 569.544 73.7877C568.999 73.2429 568.26 72.9364 567.49 72.9355H561.677C560.906 72.9364 560.168 73.2429 559.623 73.7877C559.078 74.3325 558.772 75.0713 558.771 75.8418V77.7793ZM562.43 71.3137C563.068 71.7395 563.817 71.9668 564.583 71.9668C565.611 71.9656 566.596 71.557 567.322 70.8306C568.048 70.1041 568.457 69.1192 568.458 68.0918C568.458 67.3254 568.231 66.5762 567.805 65.939C567.379 65.3017 566.774 64.8051 566.066 64.5118C565.358 64.2185 564.579 64.1417 563.827 64.2913C563.076 64.4408 562.385 64.8098 561.843 65.3518C561.301 65.8937 560.932 66.5841 560.783 67.3358C560.633 68.0875 560.71 68.8666 561.003 69.5747C561.297 70.2828 561.793 70.888 562.43 71.3137ZM563.507 66.4808C563.825 66.2679 564.2 66.1543 564.583 66.1543C565.097 66.1548 565.589 66.3591 565.953 66.7223C566.316 67.0856 566.52 67.5781 566.521 68.0918C566.521 68.475 566.407 68.8496 566.194 69.1682C565.981 69.4868 565.679 69.7352 565.325 69.8818C564.971 70.0285 564.581 70.0668 564.205 69.9921C563.829 69.9173 563.484 69.7328 563.213 69.4618C562.942 69.1909 562.758 68.8456 562.683 68.4698C562.608 68.0939 562.647 67.7044 562.793 67.3503C562.94 66.9963 563.188 66.6937 563.507 66.4808Z" fill="#171717"/>
<path d="M510.07 148.971C507.254 148.971 505.574 146.987 505.574 143.259C505.574 139.531 507.254 137.419 510.07 137.419C511.926 137.419 513.206 138.315 513.91 139.867L512.822 140.523C512.374 139.371 511.446 138.619 510.07 138.619C508.15 138.619 507.014 140.139 507.014 142.427V144.091C507.014 146.379 508.15 147.771 510.07 147.771C511.494 147.771 512.47 146.971 512.918 145.755L513.99 146.427C513.286 147.995 511.926 148.971 510.07 148.971ZM521.031 148.779V147.435H520.967C520.647 148.219 520.023 148.971 518.647 148.971C516.951 148.971 515.863 147.819 515.863 145.819V140.523H517.143V145.595C517.143 147.067 517.799 147.819 519.031 147.819C520.039 147.819 521.031 147.323 521.031 146.235V140.523H522.311V148.779H521.031ZM526.317 148.779H525.037V140.523H526.317V142.043H526.397C526.685 141.259 527.437 140.523 528.781 140.523H529.277V141.803H528.525C527.149 141.803 526.317 142.395 526.317 143.179V148.779ZM537.569 148.779H536.849C535.905 148.779 535.521 148.203 535.425 147.435H535.345C534.993 148.443 534.113 148.971 532.961 148.971C531.217 148.971 530.193 148.011 530.193 146.475C530.193 144.923 531.313 144.059 533.713 144.059H535.345V143.243C535.345 142.075 534.705 141.435 533.393 141.435C532.401 141.435 531.745 141.915 531.297 142.667L530.529 141.947C530.977 141.067 531.969 140.331 533.457 140.331C535.441 140.331 536.625 141.371 536.625 143.115V147.659H537.569V148.779ZM533.169 147.883C534.433 147.883 535.345 147.227 535.345 146.379V145.019H533.649C532.193 145.019 531.537 145.467 531.537 146.267V146.603C531.537 147.419 532.177 147.883 533.169 147.883ZM542.82 148.779H541.22C540.34 148.779 539.86 148.219 539.86 147.419V141.643H538.5V140.523H539.268C539.812 140.523 539.988 140.331 539.988 139.771V138.235H541.14V140.523H542.948V141.643H541.14V147.659H542.82V148.779ZM548.047 148.971C545.807 148.971 544.335 147.275 544.335 144.651C544.335 142.027 545.807 140.331 548.047 140.331C550.255 140.331 551.615 142.027 551.615 144.363V144.971H545.679V145.355C545.679 146.779 546.591 147.851 548.127 147.851C549.167 147.851 549.967 147.339 550.399 146.427L551.311 147.083C550.783 148.203 549.599 148.971 548.047 148.971ZM548.047 141.403C546.655 141.403 545.679 142.459 545.679 143.899V144.011H550.239V143.835C550.239 142.379 549.359 141.403 548.047 141.403ZM564.226 148.779H563.506C562.562 148.779 562.178 148.203 562.082 147.435H562.002C561.65 148.443 560.77 148.971 559.618 148.971C557.874 148.971 556.85 148.011 556.85 146.475C556.85 144.923 557.97 144.059 560.37 144.059H562.002V143.243C562.002 142.075 561.362 141.435 560.05 141.435C559.058 141.435 558.402 141.915 557.954 142.667L557.186 141.947C557.634 141.067 558.626 140.331 560.114 140.331C562.098 140.331 563.282 141.371 563.282 143.115V147.659H564.226V148.779ZM559.826 147.883C561.09 147.883 562.002 147.227 562.002 146.379V145.019H560.306C558.85 145.019 558.194 145.467 558.194 146.267V146.603C558.194 147.419 558.834 147.883 559.826 147.883ZM575.114 148.779V147.435H575.05C574.554 148.459 573.77 148.971 572.634 148.971C570.57 148.971 569.274 147.291 569.274 144.651C569.274 142.011 570.57 140.331 572.634 140.331C573.77 140.331 574.618 140.827 575.05 141.867H575.114V136.939H576.394V148.779H575.114ZM572.986 147.819C574.154 147.819 575.114 147.211 575.114 146.139V143.067C575.114 142.155 574.154 141.483 572.986 141.483C571.546 141.483 570.65 142.475 570.65 143.947V145.355C570.65 146.827 571.546 147.819 572.986 147.819ZM582.219 148.971C579.979 148.971 578.507 147.275 578.507 144.651C578.507 142.027 579.979 140.331 582.219 140.331C584.427 140.331 585.787 142.027 585.787 144.363V144.971H579.851V145.355C579.851 146.779 580.763 147.851 582.299 147.851C583.339 147.851 584.139 147.339 584.571 146.427L585.483 147.083C584.955 148.203 583.771 148.971 582.219 148.971ZM582.219 141.403C580.827 141.403 579.851 142.459 579.851 143.899V144.011H584.411V143.835C584.411 142.379 583.531 141.403 582.219 141.403ZM593.176 148.779V147.435H593.112C592.616 148.459 591.832 148.971 590.696 148.971C588.632 148.971 587.336 147.291 587.336 144.651C587.336 142.011 588.632 140.331 590.696 140.331C591.832 140.331 592.68 140.827 593.112 141.867H593.176V136.939H594.456V148.779H593.176ZM591.048 147.819C592.216 147.819 593.176 147.211 593.176 146.139V143.067C593.176 142.155 592.216 141.483 591.048 141.483C589.608 141.483 588.712 142.475 588.712 143.947V145.355C588.712 146.827 589.608 147.819 591.048 147.819ZM597.818 138.587C597.274 138.587 597.034 138.299 597.034 137.867V137.659C597.034 137.227 597.274 136.939 597.818 136.939C598.362 136.939 598.602 137.227 598.602 137.659V137.867C598.602 138.299 598.362 138.587 597.818 138.587ZM597.178 148.779V140.523H598.458V148.779H597.178ZM604.25 148.971C601.93 148.971 600.57 147.291 600.57 144.651C600.57 142.011 601.93 140.331 604.25 140.331C605.882 140.331 606.858 141.131 607.338 142.267L606.266 142.811C605.962 141.963 605.258 141.467 604.25 141.467C602.73 141.467 601.946 142.507 601.946 143.947V145.355C601.946 146.795 602.73 147.835 604.25 147.835C605.29 147.835 606.042 147.339 606.49 146.395L607.418 147.019C606.89 148.203 605.818 148.971 604.25 148.971ZM615.944 148.779H615.224C614.28 148.779 613.896 148.203 613.8 147.435H613.72C613.368 148.443 612.488 148.971 611.336 148.971C609.592 148.971 608.568 148.011 608.568 146.475C608.568 144.923 609.688 144.059 612.088 144.059H613.72V143.243C613.72 142.075 613.08 141.435 611.768 141.435C610.776 141.435 610.12 141.915 609.672 142.667L608.904 141.947C609.352 141.067 610.344 140.331 611.832 140.331C613.816 140.331 615 141.371 615 143.115V147.659H615.944V148.779ZM611.544 147.883C612.808 147.883 613.72 147.227 613.72 146.379V145.019H612.024C610.568 145.019 609.912 145.467 609.912 146.267V146.603C609.912 147.419 610.552 147.883 611.544 147.883ZM621.195 148.779H619.595C618.715 148.779 618.235 148.219 618.235 147.419V141.643H616.875V140.523H617.643C618.187 140.523 618.363 140.331 618.363 139.771V138.235H619.515V140.523H621.323V141.643H619.515V147.659H621.195V148.779ZM626.422 148.971C624.182 148.971 622.71 147.275 622.71 144.651C622.71 142.027 624.182 140.331 626.422 140.331C628.63 140.331 629.99 142.027 629.99 144.363V144.971H624.054V145.355C624.054 146.779 624.966 147.851 626.502 147.851C627.542 147.851 628.342 147.339 628.774 146.427L629.686 147.083C629.158 148.203 627.974 148.971 626.422 148.971ZM626.422 141.403C625.03 141.403 624.054 142.459 624.054 143.899V144.011H628.614V143.835C628.614 142.379 627.734 141.403 626.422 141.403ZM637.379 148.779V147.435H637.315C636.819 148.459 636.035 148.971 634.899 148.971C632.835 148.971 631.539 147.291 631.539 144.651C631.539 142.011 632.835 140.331 634.899 140.331C636.035 140.331 636.883 140.827 637.315 141.867H637.379V136.939H638.659V148.779H637.379ZM635.251 147.819C636.419 147.819 637.379 147.211 637.379 146.139V143.067C637.379 142.155 636.419 141.483 635.251 141.483C633.811 141.483 632.915 142.475 632.915 143.947V145.355C632.915 146.827 633.811 147.819 635.251 147.819ZM515.572 169.779H514.436C513.556 169.779 513.076 169.219 513.076 168.451V157.939H514.356V168.659H515.572V169.779ZM524.155 169.779H523.435C522.491 169.779 522.107 169.203 522.011 168.435H521.931C521.579 169.443 520.699 169.971 519.547 169.971C517.803 169.971 516.779 169.011 516.779 167.475C516.779 165.923 517.899 165.059 520.299 165.059H521.931V164.243C521.931 163.075 521.291 162.435 519.979 162.435C518.987 162.435 518.331 162.915 517.883 163.667L517.115 162.947C517.563 162.067 518.555 161.331 520.043 161.331C522.027 161.331 523.211 162.371 523.211 164.115V168.659H524.155V169.779ZM519.755 168.883C521.019 168.883 521.931 168.227 521.931 167.379V166.019H520.235C518.779 166.019 518.123 166.467 518.123 167.267V167.603C518.123 168.419 518.763 168.883 519.755 168.883ZM525.982 169.779V157.939H527.262V162.867H527.326C527.758 161.827 528.606 161.331 529.742 161.331C531.806 161.331 533.102 163.011 533.102 165.651C533.102 168.291 531.806 169.971 529.742 169.971C528.606 169.971 527.822 169.459 527.326 168.435H527.262V169.779H525.982ZM529.39 168.819C530.83 168.819 531.726 167.827 531.726 166.355V164.947C531.726 163.475 530.83 162.483 529.39 162.483C528.222 162.483 527.262 163.155 527.262 164.067V167.139C527.262 168.211 528.222 168.819 529.39 168.819ZM538.368 169.971C536.128 169.971 534.656 168.275 534.656 165.651C534.656 163.027 536.128 161.331 538.368 161.331C540.576 161.331 541.936 163.027 541.936 165.363V165.971H536V166.355C536 167.779 536.912 168.851 538.448 168.851C539.488 168.851 540.288 168.339 540.72 167.427L541.632 168.083C541.104 169.203 539.92 169.971 538.368 169.971ZM538.368 162.403C536.976 162.403 536 163.459 536 164.899V165.011H540.56V164.835C540.56 163.379 539.68 162.403 538.368 162.403ZM546.541 169.779H545.405C544.525 169.779 544.045 169.219 544.045 168.451V157.939H545.325V168.659H546.541V169.779ZM549.044 159.587C548.5 159.587 548.26 159.299 548.26 158.867V158.659C548.26 158.227 548.5 157.939 549.044 157.939C549.588 157.939 549.828 158.227 549.828 158.659V158.867C549.828 159.299 549.588 159.587 549.044 159.587ZM548.404 169.779V161.523H549.684V169.779H548.404ZM553.684 169.779H552.404V161.523H553.684V162.867H553.748C554.148 161.939 554.852 161.331 556.084 161.331C557.78 161.331 558.852 162.483 558.852 164.483V169.779H557.572V164.707C557.572 163.235 556.932 162.483 555.7 162.483C554.676 162.483 553.684 162.995 553.684 164.051V169.779ZM568.458 170.691C568.458 172.387 567.114 173.171 564.458 173.171C561.882 173.171 560.826 172.435 560.826 171.139C560.826 170.243 561.322 169.763 562.138 169.539V169.363C561.674 169.139 561.402 168.771 561.402 168.211C561.402 167.379 561.994 166.979 562.826 166.771V166.707C561.85 166.243 561.274 165.331 561.274 164.179C561.274 162.499 562.506 161.331 564.378 161.331C564.97 161.331 565.498 161.443 565.946 161.651V161.507C565.946 160.867 566.218 160.403 566.906 160.403H568.138V161.523H566.57V162.051C567.162 162.563 567.514 163.299 567.514 164.179C567.514 165.859 566.282 167.027 564.394 167.027C564.122 167.027 563.834 166.995 563.594 166.947C563.05 167.091 562.506 167.363 562.506 167.875C562.506 168.371 563.018 168.499 563.77 168.499H565.53C567.578 168.499 568.458 169.331 568.458 170.691ZM567.258 170.787C567.258 170.131 566.826 169.699 565.546 169.699H562.794C562.266 169.939 562.026 170.307 562.026 170.819C562.026 171.539 562.522 172.131 563.818 172.131H565.002C566.426 172.131 567.258 171.683 567.258 170.787ZM564.394 166.003C565.482 166.003 566.17 165.491 566.17 164.403V163.955C566.17 162.867 565.482 162.355 564.394 162.355C563.306 162.355 562.618 162.867 562.618 163.955V164.403C562.618 165.491 563.306 166.003 564.394 166.003ZM577.156 169.779H575.556C574.676 169.779 574.196 169.219 574.196 168.419V162.643H572.836V161.523H573.604C574.148 161.523 574.324 161.331 574.324 160.771V159.235H575.476V161.523H577.284V162.643H575.476V168.659H577.156V169.779ZM582.383 169.971C580.143 169.971 578.671 168.275 578.671 165.651C578.671 163.027 580.143 161.331 582.383 161.331C584.591 161.331 585.951 163.027 585.951 165.363V165.971H580.015V166.355C580.015 167.779 580.927 168.851 582.463 168.851C583.503 168.851 584.303 168.339 584.735 167.427L585.647 168.083C585.119 169.203 583.935 169.971 582.383 169.971ZM582.383 162.403C580.991 162.403 580.015 163.459 580.015 164.899V165.011H584.575V164.835C584.575 163.379 583.695 162.403 582.383 162.403ZM594.78 169.779H594.06C593.116 169.779 592.732 169.203 592.636 168.435H592.556C592.204 169.443 591.324 169.971 590.172 169.971C588.428 169.971 587.404 169.011 587.404 167.475C587.404 165.923 588.524 165.059 590.924 165.059H592.556V164.243C592.556 163.075 591.916 162.435 590.604 162.435C589.612 162.435 588.956 162.915 588.508 163.667L587.74 162.947C588.188 162.067 589.18 161.331 590.668 161.331C592.652 161.331 593.836 162.371 593.836 164.115V168.659H594.78V169.779ZM590.38 168.883C591.644 168.883 592.556 168.227 592.556 167.379V166.019H590.86C589.404 166.019 588.748 166.467 588.748 167.267V167.603C588.748 168.419 589.388 168.883 590.38 168.883ZM597.887 169.779H596.607V161.523H597.887V162.867H597.951C598.319 162.019 598.895 161.331 600.175 161.331C601.263 161.331 602.255 161.827 602.703 163.011H602.735C603.039 162.115 603.839 161.331 605.247 161.331C606.927 161.331 607.935 162.483 607.935 164.483V169.779H606.655V164.707C606.655 163.251 606.095 162.483 604.847 162.483C603.839 162.483 602.911 162.995 602.911 164.051V169.779H601.631V164.707C601.631 163.235 601.071 162.483 599.855 162.483C598.847 162.483 597.887 162.995 597.887 164.051V169.779ZM614.805 169.779V162.643H613.461V161.523H614.805V159.859C614.805 158.723 615.397 157.939 616.613 157.939H617.861V159.059H616.085V161.523H617.861V162.643H616.085V169.779H614.805ZM622.602 169.971C620.394 169.971 618.874 168.275 618.874 165.651C618.874 163.027 620.394 161.331 622.602 161.331C624.81 161.331 626.33 163.027 626.33 165.651C626.33 168.275 624.81 169.971 622.602 169.971ZM622.602 168.835C623.978 168.835 624.954 167.987 624.954 166.243V165.059C624.954 163.315 623.978 162.467 622.602 162.467C621.226 162.467 620.25 163.315 620.25 165.059V166.243C620.25 167.987 621.226 168.835 622.602 168.835ZM629.715 169.779H628.435V161.523H629.715V163.043H629.795C630.083 162.259 630.835 161.523 632.179 161.523H632.675V162.803H631.923C630.547 162.803 629.715 163.395 629.715 164.179V169.779ZM531.572 190.971C530.052 190.971 529.044 190.331 528.308 189.355L529.22 188.619C529.86 189.419 530.628 189.883 531.668 189.883C532.756 189.883 533.396 189.387 533.396 188.539C533.396 187.899 533.044 187.403 531.956 187.243L531.3 187.147C529.78 186.923 528.644 186.299 528.644 184.763C528.644 183.131 529.908 182.331 531.588 182.331C532.916 182.331 533.796 182.827 534.468 183.659L533.62 184.427C533.252 183.915 532.548 183.419 531.492 183.419C530.436 183.419 529.876 183.915 529.876 184.699C529.876 185.499 530.436 185.819 531.46 185.979L532.1 186.075C533.924 186.347 534.628 187.147 534.628 188.395C534.628 189.995 533.46 190.971 531.572 190.971ZM536.889 193.979V182.523H538.169V183.867H538.233C538.665 182.827 539.513 182.331 540.649 182.331C542.713 182.331 544.009 184.011 544.009 186.651C544.009 189.291 542.713 190.971 540.649 190.971C539.513 190.971 538.729 190.459 538.233 189.435H538.169V193.979H536.889ZM540.297 189.819C541.737 189.819 542.633 188.827 542.633 187.355V185.947C542.633 184.475 541.737 183.483 540.297 183.483C539.129 183.483 538.169 184.155 538.169 185.067V188.139C538.169 189.211 539.129 189.819 540.297 189.819ZM549.274 190.971C547.034 190.971 545.562 189.275 545.562 186.651C545.562 184.027 547.034 182.331 549.274 182.331C551.482 182.331 552.842 184.027 552.842 186.363V186.971H546.906V187.355C546.906 188.779 547.818 189.851 549.354 189.851C550.394 189.851 551.194 189.339 551.626 188.427L552.538 189.083C552.01 190.203 550.826 190.971 549.274 190.971ZM549.274 183.403C547.882 183.403 546.906 184.459 546.906 185.899V186.011H551.466V185.835C551.466 184.379 550.586 183.403 549.274 183.403ZM558.023 190.971C555.703 190.971 554.343 189.291 554.343 186.651C554.343 184.011 555.703 182.331 558.023 182.331C559.655 182.331 560.631 183.131 561.111 184.267L560.039 184.811C559.735 183.963 559.031 183.467 558.023 183.467C556.503 183.467 555.719 184.507 555.719 185.947V187.355C555.719 188.795 556.503 189.835 558.023 189.835C559.063 189.835 559.815 189.339 560.263 188.395L561.191 189.019C560.663 190.203 559.591 190.971 558.023 190.971ZM563.638 180.587C563.094 180.587 562.854 180.299 562.854 179.867V179.659C562.854 179.227 563.094 178.939 563.638 178.939C564.182 178.939 564.422 179.227 564.422 179.659V179.867C564.422 180.299 564.182 180.587 563.638 180.587ZM562.998 190.779V182.523H564.278V190.779H562.998ZM567.446 190.779V183.643H566.102V182.523H567.446V180.859C567.446 179.723 568.038 178.939 569.254 178.939H570.502V180.059H568.726V182.523H573.35V190.779H572.07V183.643H568.726V190.779H567.446ZM572.71 180.587C572.166 180.587 571.926 180.299 571.926 179.867V179.659C571.926 179.227 572.166 178.939 572.71 178.939C573.254 178.939 573.494 179.227 573.494 179.659V179.867C573.494 180.299 573.254 180.587 572.71 180.587ZM579.148 190.971C576.828 190.971 575.468 189.291 575.468 186.651C575.468 184.011 576.828 182.331 579.148 182.331C580.78 182.331 581.756 183.131 582.236 184.267L581.164 184.811C580.86 183.963 580.156 183.467 579.148 183.467C577.628 183.467 576.844 184.507 576.844 185.947V187.355C576.844 188.795 577.628 189.835 579.148 189.835C580.188 189.835 580.94 189.339 581.388 188.395L582.316 189.019C581.788 190.203 580.716 190.971 579.148 190.971ZM591.328 190.779H589.728C588.848 190.779 588.368 190.219 588.368 189.419V183.643H587.008V182.523H587.776C588.32 182.523 588.496 182.331 588.496 181.771V180.235H589.648V182.523H591.456V183.643H589.648V189.659H591.328V190.779ZM600.234 190.779H599.514C598.57 190.779 598.186 190.203 598.09 189.435H598.01C597.658 190.443 596.778 190.971 595.626 190.971C593.882 190.971 592.858 190.011 592.858 188.475C592.858 186.923 593.978 186.059 596.378 186.059H598.01V185.243C598.01 184.075 597.37 183.435 596.058 183.435C595.066 183.435 594.41 183.915 593.962 184.667L593.194 183.947C593.642 183.067 594.634 182.331 596.122 182.331C598.106 182.331 599.29 183.371 599.29 185.115V189.659H600.234V190.779ZM595.834 189.883C597.098 189.883 598.01 189.227 598.01 188.379V187.019H596.314C594.858 187.019 594.202 187.467 594.202 188.267V188.603C594.202 189.419 594.842 189.883 595.834 189.883ZM604.54 190.971C603.02 190.971 602.012 190.331 601.276 189.355L602.188 188.619C602.828 189.419 603.596 189.883 604.636 189.883C605.724 189.883 606.364 189.387 606.364 188.539C606.364 187.899 606.012 187.403 604.924 187.243L604.268 187.147C602.748 186.923 601.612 186.299 601.612 184.763C601.612 183.131 602.876 182.331 604.556 182.331C605.884 182.331 606.764 182.827 607.436 183.659L606.588 184.427C606.22 183.915 605.516 183.419 604.46 183.419C603.404 183.419 602.844 183.915 602.844 184.699C602.844 185.499 603.404 185.819 604.428 185.979L605.068 186.075C606.892 186.347 607.596 187.147 607.596 188.395C607.596 189.995 606.428 190.971 604.54 190.971ZM609.857 190.779V178.939H611.137V186.443H611.201L612.465 185.035L614.801 182.523H616.353L613.297 185.787L616.657 190.779H615.105L612.369 186.571L611.137 187.835V190.779H609.857Z" fill="#171717"/>
<rect x="477.853" y="283.632" width="195.11" height="229.147" rx="16" fill="#F5F5F5"/>
<rect x="477.853" y="283.632" width="195.11" height="229.147" rx="16" stroke="#171717"/>
<rect x="545.407" y="324.706" width="60" height="60" rx="18" fill="#FB923C"/>
<path d="M587.836 359.714L584.126 356.033L584.775 355.384C584.956 355.202 585.057 354.957 585.057 354.701C585.057 354.445 584.956 354.2 584.775 354.018L578.963 348.206C578.781 348.025 578.536 347.924 578.28 347.924C578.024 347.924 577.778 348.025 577.597 348.206L576.831 348.971L570.283 342.393C570.101 342.213 569.856 342.111 569.6 342.111C569.344 342.111 569.098 342.213 568.917 342.393L565.042 346.268L564.925 346.413L561.05 352.226C560.926 352.412 560.87 352.634 560.891 352.857C560.912 353.079 561.009 353.288 561.167 353.447L564.073 356.353C564.163 356.444 564.27 356.516 564.388 356.565C564.506 356.614 564.633 356.639 564.761 356.639C564.889 356.639 565.015 356.614 565.133 356.565C565.251 356.516 565.358 356.444 565.449 356.353L569.595 352.197L571.619 354.222L566.969 358.862C566.789 359.043 566.688 359.289 566.688 359.545C566.688 359.801 566.789 360.046 566.969 360.228L568.907 362.165C568.997 362.257 569.104 362.33 569.222 362.379C569.34 362.429 569.467 362.455 569.595 362.456C569.773 362.455 569.947 362.404 570.099 362.311L574.293 359.792L576.657 362.165C576.838 362.346 577.084 362.447 577.34 362.447C577.596 362.447 577.841 362.346 578.023 362.165L578.672 361.487L582.344 365.197C583.071 365.925 584.057 366.333 585.085 366.333C586.113 366.333 587.1 365.925 587.827 365.197C588.554 364.47 588.962 363.484 588.962 362.456C588.962 361.428 588.554 360.441 587.827 359.714H587.836ZM569.595 349.455L564.751 354.299L563.094 352.642L566.475 347.566L569.595 344.447L575.494 350.347L572.985 352.846L569.595 349.455ZM577.345 360.112L574.594 357.36L569.75 360.267L569.033 359.55L578.314 350.259L582.76 354.706L577.345 360.112ZM586.47 363.822C586.29 364.002 586.077 364.145 585.842 364.242C585.606 364.34 585.354 364.39 585.1 364.39C584.845 364.39 584.593 364.34 584.358 364.242C584.122 364.145 583.909 364.002 583.729 363.822L580.048 360.15L582.789 357.409L586.47 361.08C586.651 361.26 586.793 361.474 586.891 361.709C586.988 361.944 587.039 362.196 587.039 362.451C587.039 362.706 586.988 362.958 586.891 363.193C586.793 363.428 586.651 363.642 586.47 363.822Z" fill="#171717"/>
<path d="M555.488 415.722H551.936V425.706H550.592V415.722H547.04V414.538H555.488V415.722ZM557.766 425.706H556.486V417.45H557.766V418.97H557.846C558.134 418.186 558.886 417.45 560.23 417.45H560.726V418.73H559.974C558.598 418.73 557.766 419.322 557.766 420.106V425.706ZM569.018 425.706H568.298C567.354 425.706 566.97 425.13 566.874 424.362H566.794C566.442 425.37 565.562 425.898 564.41 425.898C562.666 425.898 561.642 424.938 561.642 423.402C561.642 421.85 562.762 420.986 565.162 420.986H566.794V420.17C566.794 419.002 566.154 418.362 564.842 418.362C563.85 418.362 563.194 418.842 562.746 419.594L561.978 418.874C562.426 417.994 563.418 417.258 564.906 417.258C566.89 417.258 568.074 418.298 568.074 420.042V424.586H569.018V425.706ZM564.618 424.81C565.882 424.81 566.794 424.154 566.794 423.306V421.946H565.098C563.642 421.946 562.986 422.394 562.986 423.194V423.53C562.986 424.346 563.626 424.81 564.618 424.81ZM571.485 415.514C570.941 415.514 570.701 415.226 570.701 414.794V414.586C570.701 414.154 570.941 413.866 571.485 413.866C572.029 413.866 572.269 414.154 572.269 414.586V414.794C572.269 415.226 572.029 415.514 571.485 415.514ZM570.845 425.706V417.45H572.125V425.706H570.845ZM576.125 425.706H574.845V417.45H576.125V418.794H576.189C576.589 417.866 577.293 417.258 578.525 417.258C580.221 417.258 581.293 418.41 581.293 420.41V425.706H580.013V420.634C580.013 419.162 579.373 418.41 578.141 418.41C577.117 418.41 576.125 418.922 576.125 419.978V425.706ZM584.579 415.514C584.035 415.514 583.795 415.226 583.795 414.794V414.586C583.795 414.154 584.035 413.866 584.579 413.866C585.123 413.866 585.363 414.154 585.363 414.586V414.794C585.363 415.226 585.123 415.514 584.579 415.514ZM583.939 425.706V417.45H585.219V425.706H583.939ZM589.219 425.706H587.939V417.45H589.219V418.794H589.283C589.683 417.866 590.387 417.258 591.619 417.258C593.315 417.258 594.387 418.41 594.387 420.41V425.706H593.107V420.634C593.107 419.162 592.467 418.41 591.235 418.41C590.211 418.41 589.219 418.922 589.219 419.978V425.706ZM603.993 426.618C603.993 428.314 602.649 429.098 599.993 429.098C597.417 429.098 596.361 428.362 596.361 427.066C596.361 426.17 596.857 425.69 597.673 425.466V425.29C597.209 425.066 596.937 424.698 596.937 424.138C596.937 423.306 597.529 422.906 598.361 422.698V422.634C597.385 422.17 596.809 421.258 596.809 420.106C596.809 418.426 598.041 417.258 599.913 417.258C600.505 417.258 601.033 417.37 601.481 417.578V417.434C601.481 416.794 601.753 416.33 602.441 416.33H603.673V417.45H602.105V417.978C602.697 418.49 603.049 419.226 603.049 420.106C603.049 421.786 601.817 422.954 599.929 422.954C599.657 422.954 599.369 422.922 599.129 422.874C598.585 423.018 598.041 423.29 598.041 423.802C598.041 424.298 598.553 424.426 599.305 424.426H601.065C603.113 424.426 603.993 425.258 603.993 426.618ZM602.793 426.714C602.793 426.058 602.361 425.626 601.081 425.626H598.329C597.801 425.866 597.561 426.234 597.561 426.746C597.561 427.466 598.057 428.058 599.353 428.058H600.537C601.961 428.058 602.793 427.61 602.793 426.714ZM599.929 421.93C601.017 421.93 601.705 421.418 601.705 420.33V419.882C601.705 418.794 601.017 418.282 599.929 418.282C598.841 418.282 598.153 418.794 598.153 419.882V420.33C598.153 421.418 598.841 421.93 599.929 421.93ZM523.009 441.714C523.009 438.626 524.273 435.938 525.905 434.546H527.121C525.345 436.146 524.209 438.802 524.209 441.042V442.418C524.209 444.658 525.393 447.362 527.121 448.898H525.905C524.321 447.554 523.009 444.834 523.009 441.714ZM531.52 446.898C529.312 446.898 527.792 445.202 527.792 442.578C527.792 439.954 529.312 438.258 531.52 438.258C533.728 438.258 535.248 439.954 535.248 442.578C535.248 445.202 533.728 446.898 531.52 446.898ZM531.52 445.762C532.896 445.762 533.872 444.914 533.872 443.17V441.986C533.872 440.242 532.896 439.394 531.52 439.394C530.144 439.394 529.168 440.242 529.168 441.986V443.17C529.168 444.914 530.144 445.762 531.52 445.762ZM538.633 446.706H537.353V438.45H538.633V439.794H538.697C539.097 438.866 539.801 438.258 541.033 438.258C542.729 438.258 543.801 439.41 543.801 441.41V446.706H542.521V441.634C542.521 440.162 541.881 439.41 540.649 439.41C539.625 439.41 538.633 439.922 538.633 440.978V446.706ZM546.447 446.706V434.866H547.727V439.794H547.791C548.223 438.754 549.071 438.258 550.207 438.258C552.271 438.258 553.567 439.938 553.567 442.578C553.567 445.218 552.271 446.898 550.207 446.898C549.071 446.898 548.287 446.386 547.791 445.362H547.727V446.706H546.447ZM549.855 445.746C551.295 445.746 552.191 444.754 552.191 443.282V441.874C552.191 440.402 551.295 439.41 549.855 439.41C548.687 439.41 547.727 440.082 547.727 440.994V444.066C547.727 445.138 548.687 445.746 549.855 445.746ZM558.848 446.898C556.64 446.898 555.12 445.202 555.12 442.578C555.12 439.954 556.64 438.258 558.848 438.258C561.056 438.258 562.576 439.954 562.576 442.578C562.576 445.202 561.056 446.898 558.848 446.898ZM558.848 445.762C560.224 445.762 561.2 444.914 561.2 443.17V441.986C561.2 440.242 560.224 439.394 558.848 439.394C557.472 439.394 556.496 440.242 556.496 441.986V443.17C556.496 444.914 557.472 445.762 558.848 445.762ZM571.401 446.706H570.681C569.737 446.706 569.353 446.13 569.257 445.362H569.177C568.825 446.37 567.945 446.898 566.793 446.898C565.049 446.898 564.025 445.938 564.025 444.402C564.025 442.85 565.145 441.986 567.545 441.986H569.177V441.17C569.177 440.002 568.537 439.362 567.225 439.362C566.233 439.362 565.577 439.842 565.129 440.594L564.361 439.874C564.809 438.994 565.801 438.258 567.289 438.258C569.273 438.258 570.457 439.298 570.457 441.042V445.586H571.401V446.706ZM567.001 445.81C568.265 445.81 569.177 445.154 569.177 444.306V442.946H567.481C566.025 442.946 565.369 443.394 565.369 444.194V444.53C565.369 445.346 566.009 445.81 567.001 445.81ZM574.508 446.706H573.228V438.45H574.508V439.97H574.588C574.876 439.186 575.628 438.45 576.972 438.45H577.468V439.73H576.716C575.34 439.73 574.508 440.322 574.508 441.106V446.706ZM584.289 446.706V445.362H584.225C583.729 446.386 582.945 446.898 581.809 446.898C579.745 446.898 578.449 445.218 578.449 442.578C578.449 439.938 579.745 438.258 581.809 438.258C582.945 438.258 583.793 438.754 584.225 439.794H584.289V434.866H585.569V446.706H584.289ZM582.161 445.746C583.329 445.746 584.289 445.138 584.289 444.066V440.994C584.289 440.082 583.329 439.41 582.161 439.41C580.721 439.41 579.825 440.402 579.825 441.874V443.282C579.825 444.754 580.721 445.746 582.161 445.746ZM588.931 436.514C588.387 436.514 588.147 436.226 588.147 435.794V435.586C588.147 435.154 588.387 434.866 588.931 434.866C589.475 434.866 589.715 435.154 589.715 435.586V435.794C589.715 436.226 589.475 436.514 588.931 436.514ZM588.291 446.706V438.45H589.571V446.706H588.291ZM593.571 446.706H592.291V438.45H593.571V439.794H593.635C594.035 438.866 594.739 438.258 595.971 438.258C597.667 438.258 598.739 439.41 598.739 441.41V446.706H597.459V441.634C597.459 440.162 596.819 439.41 595.587 439.41C594.563 439.41 593.571 439.922 593.571 440.978V446.706ZM608.344 447.618C608.344 449.314 607 450.098 604.344 450.098C601.768 450.098 600.712 449.362 600.712 448.066C600.712 447.17 601.208 446.69 602.024 446.466V446.29C601.56 446.066 601.288 445.698 601.288 445.138C601.288 444.306 601.88 443.906 602.712 443.698V443.634C601.736 443.17 601.16 442.258 601.16 441.106C601.16 439.426 602.392 438.258 604.264 438.258C604.856 438.258 605.384 438.37 605.832 438.578V438.434C605.832 437.794 606.104 437.33 606.792 437.33H608.024V438.45H606.456V438.978C607.048 439.49 607.4 440.226 607.4 441.106C607.4 442.786 606.168 443.954 604.28 443.954C604.008 443.954 603.72 443.922 603.48 443.874C602.936 444.018 602.392 444.29 602.392 444.802C602.392 445.298 602.904 445.426 603.656 445.426H605.416C607.464 445.426 608.344 446.258 608.344 447.618ZM607.144 447.714C607.144 447.058 606.712 446.626 605.432 446.626H602.68C602.152 446.866 601.912 447.234 601.912 447.746C601.912 448.466 602.408 449.058 603.704 449.058H604.888C606.312 449.058 607.144 448.61 607.144 447.714ZM604.28 442.93C605.368 442.93 606.056 442.418 606.056 441.33V440.882C606.056 439.794 605.368 439.282 604.28 439.282C603.192 439.282 602.504 439.794 602.504 440.882V441.33C602.504 442.418 603.192 442.93 604.28 442.93ZM612.916 441.714C612.916 444.834 611.604 447.554 610.02 448.898H608.804C610.532 447.362 611.716 444.658 611.716 442.418V441.042C611.716 438.802 610.58 436.146 608.804 434.546H610.02C611.652 435.938 612.916 438.626 612.916 441.714ZM627.048 446.706L625.848 445.394C625.4 445.954 624.408 446.898 622.6 446.898C620.392 446.898 619.176 445.522 619.176 443.81C619.176 442.146 620.312 441.282 621.464 440.658C620.696 439.858 620.2 439.026 620.2 438.034C620.2 436.53 621.352 435.346 623.096 435.346C624.68 435.346 625.784 436.322 625.784 437.746C625.784 439.218 624.632 440.05 623.224 440.834L625.736 443.538C626.056 442.722 626.216 441.778 626.264 440.834H628.44V441.922H627.304C627.16 442.85 626.888 443.682 626.536 444.386L628.712 446.706H627.048ZM623.032 436.418C622.12 436.418 621.464 437.074 621.464 437.922V438.114C621.464 438.754 621.896 439.394 622.536 440.114C623.544 439.57 624.552 438.85 624.552 437.97V437.778C624.552 436.914 623.848 436.418 623.032 436.418ZM622.712 445.778C623.784 445.778 624.568 445.33 625.128 444.626L622.136 441.394C621.272 441.858 620.504 442.386 620.504 443.634V443.874C620.504 445.042 621.368 445.778 622.712 445.778ZM518.074 467.898C515.754 467.898 514.394 466.218 514.394 463.578C514.394 460.938 515.754 459.258 518.074 459.258C519.706 459.258 520.682 460.058 521.162 461.194L520.09 461.738C519.786 460.89 519.082 460.394 518.074 460.394C516.554 460.394 515.77 461.434 515.77 462.874V464.282C515.77 465.722 516.554 466.762 518.074 466.762C519.114 466.762 519.866 466.266 520.314 465.322L521.242 465.946C520.714 467.13 519.642 467.898 518.074 467.898ZM529.768 467.706H529.048C528.104 467.706 527.72 467.13 527.624 466.362H527.544C527.192 467.37 526.312 467.898 525.16 467.898C523.416 467.898 522.392 466.938 522.392 465.402C522.392 463.85 523.512 462.986 525.912 462.986H527.544V462.17C527.544 461.002 526.904 460.362 525.592 460.362C524.6 460.362 523.944 460.842 523.496 461.594L522.728 460.874C523.176 459.994 524.168 459.258 525.656 459.258C527.64 459.258 528.824 460.298 528.824 462.042V466.586H529.768V467.706ZM525.368 466.81C526.632 466.81 527.544 466.154 527.544 465.306V463.946H525.848C524.392 463.946 523.736 464.394 523.736 465.194V465.53C523.736 466.346 524.376 466.81 525.368 466.81ZM534.091 467.706H532.955C532.075 467.706 531.595 467.146 531.595 466.378V455.866H532.875V466.586H534.091V467.706ZM536.595 457.514C536.051 457.514 535.811 457.226 535.811 456.794V456.586C535.811 456.154 536.051 455.866 536.595 455.866C537.139 455.866 537.379 456.154 537.379 456.586V456.794C537.379 457.226 537.139 457.514 536.595 457.514ZM535.955 467.706V459.45H537.235V467.706H535.955ZM539.955 467.706V455.866H541.235V460.794H541.299C541.731 459.754 542.579 459.258 543.715 459.258C545.779 459.258 547.075 460.938 547.075 463.578C547.075 466.218 545.779 467.898 543.715 467.898C542.579 467.898 541.795 467.386 541.299 466.362H541.235V467.706H539.955ZM543.363 466.746C544.803 466.746 545.699 465.754 545.699 464.282V462.874C545.699 461.402 544.803 460.41 543.363 460.41C542.195 460.41 541.235 461.082 541.235 461.994V465.066C541.235 466.138 542.195 466.746 543.363 466.746ZM550.516 467.706H549.236V459.45H550.516V460.97H550.596C550.884 460.186 551.636 459.45 552.98 459.45H553.476V460.73H552.724C551.348 460.73 550.516 461.322 550.516 462.106V467.706ZM561.768 467.706H561.048C560.104 467.706 559.72 467.13 559.624 466.362H559.544C559.192 467.37 558.312 467.898 557.16 467.898C555.416 467.898 554.392 466.938 554.392 465.402C554.392 463.85 555.512 462.986 557.912 462.986H559.544V462.17C559.544 461.002 558.904 460.362 557.592 460.362C556.6 460.362 555.944 460.842 555.496 461.594L554.728 460.874C555.176 459.994 556.168 459.258 557.656 459.258C559.64 459.258 560.824 460.298 560.824 462.042V466.586H561.768V467.706ZM557.368 466.81C558.632 466.81 559.544 466.154 559.544 465.306V463.946H557.848C556.392 463.946 555.736 464.394 555.736 465.194V465.53C555.736 466.346 556.376 466.81 557.368 466.81ZM567.019 467.706H565.419C564.539 467.706 564.059 467.146 564.059 466.346V460.57H562.699V459.45H563.467C564.011 459.45 564.187 459.258 564.187 458.698V457.162H565.339V459.45H567.147V460.57H565.339V466.586H567.019V467.706ZM569.845 457.514C569.301 457.514 569.061 457.226 569.061 456.794V456.586C569.061 456.154 569.301 455.866 569.845 455.866C570.389 455.866 570.629 456.154 570.629 456.586V456.794C570.629 457.226 570.389 457.514 569.845 457.514ZM569.205 467.706V459.45H570.485V467.706H569.205ZM576.325 467.898C574.117 467.898 572.597 466.202 572.597 463.578C572.597 460.954 574.117 459.258 576.325 459.258C578.533 459.258 580.053 460.954 580.053 463.578C580.053 466.202 578.533 467.898 576.325 467.898ZM576.325 466.762C577.701 466.762 578.677 465.914 578.677 464.17V462.986C578.677 461.242 577.701 460.394 576.325 460.394C574.949 460.394 573.973 461.242 573.973 462.986V464.17C573.973 465.914 574.949 466.762 576.325 466.762ZM583.438 467.706H582.158V459.45H583.438V460.794H583.502C583.902 459.866 584.606 459.258 585.838 459.258C587.534 459.258 588.606 460.41 588.606 462.41V467.706H587.326V462.634C587.326 461.162 586.686 460.41 585.454 460.41C584.43 460.41 583.438 460.922 583.438 461.978V467.706ZM595.033 470.906V459.45H596.313V460.794H596.377C596.809 459.754 597.657 459.258 598.793 459.258C600.857 459.258 602.153 460.938 602.153 463.578C602.153 466.218 600.857 467.898 598.793 467.898C597.657 467.898 596.873 467.386 596.377 466.362H596.313V470.906H595.033ZM598.441 466.746C599.881 466.746 600.777 465.754 600.777 464.282V462.874C600.777 461.402 599.881 460.41 598.441 460.41C597.273 460.41 596.313 461.082 596.313 461.994V465.066C596.313 466.138 597.273 466.746 598.441 466.746ZM604.314 467.706V455.866H605.594V460.794H605.658C606.058 459.866 606.762 459.258 607.994 459.258C609.69 459.258 610.762 460.41 610.762 462.41V467.706H609.482V462.634C609.482 461.162 608.842 460.41 607.61 460.41C606.586 460.41 605.594 460.922 605.594 461.978V467.706H604.314ZM620.128 467.706H619.408C618.464 467.706 618.08 467.13 617.984 466.362H617.904C617.552 467.37 616.672 467.898 615.52 467.898C613.776 467.898 612.752 466.938 612.752 465.402C612.752 463.85 613.872 462.986 616.272 462.986H617.904V462.17C617.904 461.002 617.264 460.362 615.952 460.362C614.96 460.362 614.304 460.842 613.856 461.594L613.088 460.874C613.536 459.994 614.528 459.258 616.016 459.258C618 459.258 619.184 460.298 619.184 462.042V466.586H620.128V467.706ZM615.728 466.81C616.992 466.81 617.904 466.154 617.904 465.306V463.946H616.208C614.752 463.946 614.096 464.394 614.096 465.194V465.53C614.096 466.346 614.736 466.81 615.728 466.81ZM624.435 467.898C622.915 467.898 621.907 467.258 621.171 466.282L622.083 465.546C622.723 466.346 623.491 466.81 624.531 466.81C625.619 466.81 626.259 466.314 626.259 465.466C626.259 464.826 625.907 464.33 624.819 464.17L624.163 464.074C622.643 463.85 621.507 463.226 621.507 461.69C621.507 460.058 622.771 459.258 624.451 459.258C625.779 459.258 626.659 459.754 627.331 460.586L626.483 461.354C626.115 460.842 625.411 460.346 624.355 460.346C623.299 460.346 622.739 460.842 622.739 461.626C622.739 462.426 623.299 462.746 624.323 462.906L624.963 463.002C626.787 463.274 627.491 464.074 627.491 465.322C627.491 466.922 626.323 467.898 624.435 467.898ZM632.856 467.898C630.616 467.898 629.144 466.202 629.144 463.578C629.144 460.954 630.616 459.258 632.856 459.258C635.064 459.258 636.424 460.954 636.424 463.29V463.898H630.488V464.282C630.488 465.706 631.4 466.778 632.936 466.778C633.976 466.778 634.776 466.266 635.208 465.354L636.12 466.01C635.592 467.13 634.408 467.898 632.856 467.898ZM632.856 460.33C631.464 460.33 630.488 461.386 630.488 462.826V462.938H635.048V462.762C635.048 461.306 634.168 460.33 632.856 460.33Z" fill="#171717"/>
<path d="M438.155 386.989C437.959 386.794 437.959 386.477 438.155 386.282L441.337 383.1C441.532 382.904 441.848 382.904 442.044 383.1C442.239 383.295 442.239 383.612 442.044 383.807L439.215 386.635L442.044 389.464C442.239 389.659 442.239 389.975 442.044 390.171C441.848 390.366 441.532 390.366 441.337 390.171L438.155 386.989ZM473.929 387.135H438.508V386.135H473.929V387.135Z" fill="#171717"/>
<rect x="1" y="283.632" width="195.11" height="229.147" rx="16" fill="#F5F5F5"/>
<rect x="1" y="283.632" width="195.11" height="229.147" rx="16" stroke="#171717"/>
<rect x="68.5376" y="335.206" width="60" height="60" rx="18" fill="#FBBF24"/>
<g clip-path="url(#clip1_26_1936)">
<path d="M108.225 368.112C106.089 368.112 104.35 369.85 104.35 371.987C104.35 372.649 104.533 373.263 104.827 373.809C103.009 375.139 100.81 375.862 98.5378 375.862C92.662 375.862 87.8816 371.082 87.8816 365.206H85.9441C85.9441 372.15 91.5936 377.8 98.5378 377.8C101.294 377.8 103.955 376.893 106.136 375.241C106.74 375.63 107.455 375.862 108.225 375.862C110.362 375.862 112.1 374.124 112.1 371.987C112.1 369.85 110.362 368.112 108.225 368.112ZM108.225 373.925C107.157 373.925 106.288 373.055 106.288 371.987C106.288 370.919 107.157 370.05 108.225 370.05C109.294 370.05 110.163 370.919 110.163 371.987C110.163 373.055 109.294 373.925 108.225 373.925Z" fill="black"/>
<path d="M98.5378 352.612C95.7813 352.612 93.1203 353.519 90.9396 355.171C90.3356 354.782 89.6209 354.55 88.8503 354.55C86.7137 354.55 84.9753 356.288 84.9753 358.425C84.9753 360.561 86.7137 362.3 88.8503 362.3C90.987 362.3 92.7253 360.561 92.7253 358.425C92.7253 357.762 92.543 357.148 92.249 356.602C94.0666 355.273 96.2654 354.55 98.5378 354.55C104.414 354.55 109.194 359.33 109.194 365.206H111.132C111.132 358.262 105.482 352.612 98.5378 352.612ZM88.8503 360.362C87.782 360.362 86.9128 359.493 86.9128 358.425C86.9128 357.357 87.782 356.487 88.8503 356.487C89.9187 356.487 90.7878 357.357 90.7878 358.425C90.7878 359.493 89.9187 360.362 88.8503 360.362Z" fill="black"/>
</g>
<path d="M65.1574 436.206H60.6774V435.086H62.2454V426.158H60.6774V425.038H65.1574V426.158H63.5894V435.086H65.1574V436.206ZM70.9076 436.206H69.3076C68.4276 436.206 67.9476 435.646 67.9476 434.846V429.07H66.5876V427.95H67.3556C67.8996 427.95 68.0756 427.758 68.0756 427.198V425.662H69.2276V427.95H71.0356V429.07H69.2276V435.086H70.9076V436.206ZM76.1345 436.398C73.8945 436.398 72.4225 434.702 72.4225 432.078C72.4225 429.454 73.8945 427.758 76.1345 427.758C78.3425 427.758 79.7025 429.454 79.7025 431.79V432.398H73.7665V432.782C73.7665 434.206 74.6785 435.278 76.2145 435.278C77.2545 435.278 78.0545 434.766 78.4865 433.854L79.3985 434.51C78.8705 435.63 77.6865 436.398 76.1345 436.398ZM76.1345 428.83C74.7425 428.83 73.7665 429.886 73.7665 431.326V431.438H78.3265V431.262C78.3265 429.806 77.4465 428.83 76.1345 428.83ZM83.0918 436.206H81.8118V427.95H83.0918V429.47H83.1718C83.4598 428.686 84.2118 427.95 85.5558 427.95H86.0518V429.23H85.2998C83.9238 429.23 83.0918 429.822 83.0918 430.606V436.206ZM94.3443 436.206H93.6243C92.6803 436.206 92.2963 435.63 92.2003 434.862H92.1203C91.7683 435.87 90.8883 436.398 89.7363 436.398C87.9923 436.398 86.9683 435.438 86.9683 433.902C86.9683 432.35 88.0883 431.486 90.4883 431.486H92.1203V430.67C92.1203 429.502 91.4803 428.862 90.1683 428.862C89.1763 428.862 88.5203 429.342 88.0723 430.094L87.3043 429.374C87.7523 428.494 88.7443 427.758 90.2323 427.758C92.2163 427.758 93.4003 428.798 93.4003 430.542V435.086H94.3443V436.206ZM89.9443 435.31C91.2083 435.31 92.1203 434.654 92.1203 433.806V432.446H90.4243C88.9683 432.446 88.3123 432.894 88.3123 433.694V434.03C88.3123 434.846 88.9523 435.31 89.9443 435.31ZM99.5951 436.206H97.9951C97.1151 436.206 96.6351 435.646 96.6351 434.846V429.07H95.2751V427.95H96.0431C96.5871 427.95 96.7631 427.758 96.7631 427.198V425.662H97.9151V427.95H99.7231V429.07H97.9151V435.086H99.5951V436.206ZM102.421 426.014C101.877 426.014 101.637 425.726 101.637 425.294V425.086C101.637 424.654 101.877 424.366 102.421 424.366C102.965 424.366 103.205 424.654 103.205 425.086V425.294C103.205 425.726 102.965 426.014 102.421 426.014ZM101.781 436.206V427.95H103.061V436.206H101.781ZM108.901 436.398C106.693 436.398 105.173 434.702 105.173 432.078C105.173 429.454 106.693 427.758 108.901 427.758C111.109 427.758 112.629 429.454 112.629 432.078C112.629 434.702 111.109 436.398 108.901 436.398ZM108.901 435.262C110.277 435.262 111.253 434.414 111.253 432.67V431.486C111.253 429.742 110.277 428.894 108.901 428.894C107.525 428.894 106.549 429.742 106.549 431.486V432.67C106.549 434.414 107.525 435.262 108.901 435.262ZM116.014 436.206H114.734V427.95H116.014V429.294H116.078C116.478 428.366 117.182 427.758 118.414 427.758C120.11 427.758 121.182 428.91 121.182 430.91V436.206H119.902V431.134C119.902 429.662 119.262 428.91 118.03 428.91C117.006 428.91 116.014 429.422 116.014 430.478V436.206ZM135.273 436.206L134.073 434.894C133.625 435.454 132.633 436.398 130.825 436.398C128.617 436.398 127.401 435.022 127.401 433.31C127.401 431.646 128.537 430.782 129.689 430.158C128.921 429.358 128.425 428.526 128.425 427.534C128.425 426.03 129.577 424.846 131.321 424.846C132.905 424.846 134.009 425.822 134.009 427.246C134.009 428.718 132.857 429.55 131.449 430.334L133.961 433.038C134.281 432.222 134.441 431.278 134.489 430.334H136.665V431.422H135.529C135.385 432.35 135.113 433.182 134.761 433.886L136.937 436.206H135.273ZM131.257 425.918C130.345 425.918 129.689 426.574 129.689 427.422V427.614C129.689 428.254 130.121 428.894 130.761 429.614C131.769 429.07 132.777 428.35 132.777 427.47V427.278C132.777 426.414 132.073 425.918 131.257 425.918ZM130.937 435.278C132.009 435.278 132.793 434.83 133.353 434.126L130.361 430.894C129.497 431.358 128.729 431.886 128.729 433.134V433.374C128.729 434.542 129.593 435.278 130.937 435.278ZM61.6855 457.206H60.4055V448.95H61.6855V450.47H61.7655C62.0535 449.686 62.8055 448.95 64.1495 448.95H64.6455V450.23H63.8935C62.5175 450.23 61.6855 450.822 61.6855 451.606V457.206ZM69.3064 457.398C67.0664 457.398 65.5944 455.702 65.5944 453.078C65.5944 450.454 67.0664 448.758 69.3064 448.758C71.5144 448.758 72.8744 450.454 72.8744 452.79V453.398H66.9384V453.782C66.9384 455.206 67.8504 456.278 69.3864 456.278C70.4264 456.278 71.2264 455.766 71.6584 454.854L72.5704 455.51C72.0424 456.63 70.8584 457.398 69.3064 457.398ZM69.3064 449.83C67.9144 449.83 66.9384 450.886 66.9384 452.326V452.438H71.4984V452.262C71.4984 450.806 70.6184 449.83 69.3064 449.83ZM75.4316 457.206V450.07H74.0876V448.95H75.4316V447.286C75.4316 446.15 76.0236 445.366 77.2396 445.366H78.4876V446.486H76.7116V448.95H81.3356V457.206H80.0556V450.07H76.7116V457.206H75.4316ZM80.6956 447.014C80.1516 447.014 79.9116 446.726 79.9116 446.294V446.086C79.9116 445.654 80.1516 445.366 80.6956 445.366C81.2396 445.366 81.4796 445.654 81.4796 446.086V446.294C81.4796 446.726 81.2396 447.014 80.6956 447.014ZM85.3418 457.206H84.0618V448.95H85.3418V450.294H85.4058C85.8058 449.366 86.5098 448.758 87.7418 448.758C89.4378 448.758 90.5098 449.91 90.5098 451.91V457.206H89.2298V452.134C89.2298 450.662 88.5898 449.91 87.3578 449.91C86.3338 449.91 85.3418 450.422 85.3418 451.478V457.206ZM96.2595 457.398C94.0195 457.398 92.5475 455.702 92.5475 453.078C92.5475 450.454 94.0195 448.758 96.2595 448.758C98.4675 448.758 99.8275 450.454 99.8275 452.79V453.398H93.8915V453.782C93.8915 455.206 94.8035 456.278 96.3395 456.278C97.3795 456.278 98.1795 455.766 98.6115 454.854L99.5235 455.51C98.9955 456.63 97.8115 457.398 96.2595 457.398ZM96.2595 449.83C94.8675 449.83 93.8915 450.886 93.8915 452.326V452.438H98.4515V452.262C98.4515 450.806 97.5715 449.83 96.2595 449.83ZM103.217 457.206H101.937V448.95H103.217V450.294H103.281C103.649 449.446 104.225 448.758 105.505 448.758C106.593 448.758 107.585 449.254 108.033 450.438H108.065C108.369 449.542 109.169 448.758 110.577 448.758C112.257 448.758 113.265 449.91 113.265 451.91V457.206H111.985V452.134C111.985 450.678 111.425 449.91 110.177 449.91C109.169 449.91 108.241 450.422 108.241 451.478V457.206H106.961V452.134C106.961 450.662 106.401 449.91 105.185 449.91C104.177 449.91 103.217 450.422 103.217 451.478V457.206ZM119.01 457.398C116.77 457.398 115.298 455.702 115.298 453.078C115.298 450.454 116.77 448.758 119.01 448.758C121.218 448.758 122.578 450.454 122.578 452.79V453.398H116.642V453.782C116.642 455.206 117.554 456.278 119.09 456.278C120.13 456.278 120.93 455.766 121.362 454.854L122.274 455.51C121.746 456.63 120.562 457.398 119.01 457.398ZM119.01 449.83C117.618 449.83 116.642 450.886 116.642 452.326V452.438H121.202V452.262C121.202 450.806 120.322 449.83 119.01 449.83ZM125.967 457.206H124.687V448.95H125.967V450.294H126.031C126.431 449.366 127.135 448.758 128.367 448.758C130.063 448.758 131.135 449.91 131.135 451.91V457.206H129.855V452.134C129.855 450.662 129.215 449.91 127.983 449.91C126.959 449.91 125.967 450.422 125.967 451.478V457.206ZM137.205 457.206H135.605C134.725 457.206 134.245 456.646 134.245 455.846V450.07H132.885V448.95H133.653C134.197 448.95 134.373 448.758 134.373 448.198V446.662H135.525V448.95H137.333V450.07H135.525V456.086H137.205V457.206Z" fill="#171717"/>
<path d="M578.141 274.573C577.945 274.769 577.629 274.769 577.434 274.573L574.252 271.391C574.056 271.196 574.056 270.879 574.252 270.684C574.447 270.489 574.763 270.489 574.959 270.684L577.787 273.513L580.616 270.684C580.811 270.489 581.127 270.489 581.323 270.684C581.518 270.879 581.518 271.196 581.323 271.391L578.141 274.573ZM578.287 240.667L578.287 274.22L577.287 274.22L577.287 240.667L578.287 240.667Z" fill="#171717"/>
<rect x="239.426" y="283.632" width="195.11" height="229.147" rx="16" fill="#4ADE80"/>
<rect x="239.426" y="283.632" width="195.11" height="229.147" rx="16" stroke="#171717"/>
<rect x="307.426" y="324.706" width="60" height="60" rx="18" fill="#22C55E"/>
<path fill-rule="evenodd" clip-rule="evenodd" d="M338.036 368.201C338.15 368.246 338.272 368.269 338.395 368.268C338.613 368.267 338.825 368.192 338.995 368.055L343.839 364.18C343.953 364.09 344.046 363.975 344.109 363.844C344.173 363.714 344.207 363.57 344.207 363.425V356.072L347.869 352.42C348.862 351.432 349.649 350.258 350.184 348.964C350.72 347.67 350.993 346.283 350.989 344.883V343.081C350.989 342.567 350.784 342.074 350.421 341.711C350.058 341.348 349.565 341.143 349.051 341.143H347.249C345.849 341.139 344.462 341.412 343.168 341.947C341.874 342.483 340.7 343.27 339.712 344.263L336.06 347.925H328.707C328.561 347.927 328.417 347.961 328.286 348.027C328.155 348.092 328.041 348.187 327.952 348.302L324.077 353.146C323.969 353.28 323.898 353.441 323.873 353.611C323.847 353.781 323.867 353.955 323.931 354.115C323.995 354.274 324.099 354.413 324.233 354.518C324.368 354.624 324.527 354.692 324.697 354.716L331.478 355.684L331.749 353.747L326.644 353.02L329.172 349.862H336.457C336.585 349.863 336.711 349.838 336.829 349.79C336.947 349.742 337.055 349.671 337.145 349.581L341.088 345.638C341.895 344.826 342.855 344.182 343.912 343.743C344.97 343.304 346.104 343.079 347.249 343.081H349.051V344.883C349.053 346.028 348.828 347.162 348.389 348.22C347.95 349.277 347.306 350.237 346.494 351.044L342.551 354.987C342.461 355.077 342.39 355.185 342.342 355.303C342.293 355.421 342.269 355.547 342.27 355.675V362.96L339.131 365.488L338.404 360.383L336.467 360.654L337.436 367.435C337.459 367.605 337.528 367.764 337.633 367.899C337.738 368.033 337.878 368.137 338.036 368.201ZM328.987 361.77L336.734 354.023L338.104 355.393L330.357 363.14L328.987 361.77Z" fill="#171717"/>
<path d="M319.073 425.706H312.977V414.538H314.321V424.522H319.073V425.706ZM327.569 425.706H326.849C325.905 425.706 325.521 425.13 325.425 424.362H325.345C324.993 425.37 324.113 425.898 322.961 425.898C321.217 425.898 320.193 424.938 320.193 423.402C320.193 421.85 321.313 420.986 323.713 420.986H325.345V420.17C325.345 419.002 324.705 418.362 323.393 418.362C322.401 418.362 321.745 418.842 321.297 419.594L320.529 418.874C320.977 417.994 321.969 417.258 323.457 417.258C325.441 417.258 326.625 418.298 326.625 420.042V424.586H327.569V425.706ZM323.169 424.81C324.433 424.81 325.345 424.154 325.345 423.306V421.946H323.649C322.193 421.946 321.537 422.394 321.537 423.194V423.53C321.537 424.346 322.177 424.81 323.169 424.81ZM334.484 425.706V424.362H334.42C334.1 425.146 333.476 425.898 332.1 425.898C330.404 425.898 329.316 424.746 329.316 422.746V417.45H330.596V422.522C330.596 423.994 331.252 424.746 332.484 424.746C333.492 424.746 334.484 424.25 334.484 423.162V417.45H335.764V425.706H334.484ZM339.769 425.706H338.489V417.45H339.769V418.794H339.833C340.233 417.866 340.937 417.258 342.169 417.258C343.865 417.258 344.937 418.41 344.937 420.41V425.706H343.657V420.634C343.657 419.162 343.017 418.41 341.785 418.41C340.761 418.41 339.769 418.922 339.769 419.978V425.706ZM350.655 425.898C348.335 425.898 346.975 424.218 346.975 421.578C346.975 418.938 348.335 417.258 350.655 417.258C352.287 417.258 353.263 418.058 353.743 419.194L352.671 419.738C352.367 418.89 351.663 418.394 350.655 418.394C349.135 418.394 348.351 419.434 348.351 420.874V422.282C348.351 423.722 349.135 424.762 350.655 424.762C351.695 424.762 352.447 424.266 352.895 423.322L353.823 423.946C353.295 425.13 352.223 425.898 350.655 425.898ZM355.63 425.706V413.866H356.91V418.794H356.974C357.374 417.866 358.078 417.258 359.31 417.258C361.006 417.258 362.078 418.41 362.078 420.41V425.706H360.798V420.634C360.798 419.162 360.158 418.41 358.926 418.41C357.902 418.41 356.91 418.922 356.91 419.978V425.706H355.63ZM299.732 449.906V438.45H301.012V439.794H301.076C301.508 438.754 302.356 438.258 303.492 438.258C305.556 438.258 306.852 439.938 306.852 442.578C306.852 445.218 305.556 446.898 303.492 446.898C302.356 446.898 301.572 446.386 301.076 445.362H301.012V449.906H299.732ZM303.14 445.746C304.58 445.746 305.476 444.754 305.476 443.282V441.874C305.476 440.402 304.58 439.41 303.14 439.41C301.972 439.41 301.012 440.082 301.012 440.994V444.066C301.012 445.138 301.972 445.746 303.14 445.746ZM310.293 446.706H309.013V438.45H310.293V439.97H310.373C310.661 439.186 311.413 438.45 312.757 438.45H313.253V439.73H312.501C311.125 439.73 310.293 440.322 310.293 441.106V446.706ZM317.93 446.898C315.722 446.898 314.202 445.202 314.202 442.578C314.202 439.954 315.722 438.258 317.93 438.258C320.138 438.258 321.658 439.954 321.658 442.578C321.658 445.202 320.138 446.898 317.93 446.898ZM317.93 445.762C319.306 445.762 320.282 444.914 320.282 443.17V441.986C320.282 440.242 319.306 439.394 317.93 439.394C316.554 439.394 315.578 440.242 315.578 441.986V443.17C315.578 444.914 316.554 445.762 317.93 445.762ZM329.043 446.706V445.362H328.979C328.483 446.386 327.699 446.898 326.563 446.898C324.499 446.898 323.203 445.218 323.203 442.578C323.203 439.938 324.499 438.258 326.563 438.258C327.699 438.258 328.547 438.754 328.979 439.794H329.043V434.866H330.323V446.706H329.043ZM326.915 445.746C328.083 445.746 329.043 445.138 329.043 444.066V440.994C329.043 440.082 328.083 439.41 326.915 439.41C325.475 439.41 324.579 440.402 324.579 441.874V443.282C324.579 444.754 325.475 445.746 326.915 445.746ZM338.132 446.706V445.362H338.068C337.748 446.146 337.124 446.898 335.748 446.898C334.052 446.898 332.964 445.746 332.964 443.746V438.45H334.244V443.522C334.244 444.994 334.9 445.746 336.132 445.746C337.14 445.746 338.132 445.25 338.132 444.162V438.45H339.412V446.706H338.132ZM345.21 446.898C342.89 446.898 341.53 445.218 341.53 442.578C341.53 439.938 342.89 438.258 345.21 438.258C346.842 438.258 347.818 439.058 348.298 440.194L347.226 440.738C346.922 439.89 346.218 439.394 345.21 439.394C343.69 439.394 342.906 440.434 342.906 441.874V443.282C342.906 444.722 343.69 445.762 345.21 445.762C346.25 445.762 347.002 445.266 347.45 444.322L348.378 444.946C347.85 446.13 346.778 446.898 345.21 446.898ZM353.609 446.706H352.009C351.129 446.706 350.649 446.146 350.649 445.346V439.57H349.289V438.45H350.057C350.601 438.45 350.777 438.258 350.777 437.698V436.162H351.929V438.45H353.737V439.57H351.929V445.586H353.609V446.706ZM356.434 436.514C355.89 436.514 355.65 436.226 355.65 435.794V435.586C355.65 435.154 355.89 434.866 356.434 434.866C356.978 434.866 357.218 435.154 357.218 435.586V435.794C357.218 436.226 356.978 436.514 356.434 436.514ZM355.794 446.706V438.45H357.074V446.706H355.794ZM362.914 446.898C360.706 446.898 359.186 445.202 359.186 442.578C359.186 439.954 360.706 438.258 362.914 438.258C365.122 438.258 366.642 439.954 366.642 442.578C366.642 445.202 365.122 446.898 362.914 446.898ZM362.914 445.762C364.29 445.762 365.266 444.914 365.266 443.17V441.986C365.266 440.242 364.29 439.394 362.914 439.394C361.538 439.394 360.562 440.242 360.562 441.986V443.17C360.562 444.914 361.538 445.762 362.914 445.762ZM370.027 446.706H368.747V438.45H370.027V439.794H370.091C370.491 438.866 371.195 438.258 372.427 438.258C374.123 438.258 375.195 439.41 375.195 441.41V446.706H373.915V441.634C373.915 440.162 373.275 439.41 372.043 439.41C371.019 439.41 370.027 439.922 370.027 440.978V446.706ZM323.771 469.786V459.45H325.051V468.986C325.051 470.122 324.491 470.906 323.259 470.906H322.427V469.786H323.771ZM324.411 457.514C323.867 457.514 323.627 457.226 323.627 456.794V456.586C323.627 456.154 323.867 455.866 324.411 455.866C324.955 455.866 325.195 456.154 325.195 456.586V456.794C325.195 457.226 324.955 457.514 324.411 457.514ZM330.891 467.898C328.683 467.898 327.163 466.202 327.163 463.578C327.163 460.954 328.683 459.258 330.891 459.258C333.099 459.258 334.619 460.954 334.619 463.578C334.619 466.202 333.099 467.898 330.891 467.898ZM330.891 466.762C332.267 466.762 333.243 465.914 333.243 464.17V462.986C333.243 461.242 332.267 460.394 330.891 460.394C329.515 460.394 328.539 461.242 328.539 462.986V464.17C328.539 465.914 329.515 466.762 330.891 466.762ZM336.724 467.706V455.866H338.004V460.794H338.068C338.5 459.754 339.348 459.258 340.484 459.258C342.548 459.258 343.844 460.938 343.844 463.578C343.844 466.218 342.548 467.898 340.484 467.898C339.348 467.898 338.564 467.386 338.068 466.362H338.004V467.706H336.724ZM340.132 466.746C341.572 466.746 342.468 465.754 342.468 464.282V462.874C342.468 461.402 341.572 460.41 340.132 460.41C338.964 460.41 338.004 461.082 338.004 461.994V465.066C338.004 466.138 338.964 466.746 340.132 466.746ZM348.485 467.898C346.965 467.898 345.957 467.258 345.221 466.282L346.133 465.546C346.773 466.346 347.541 466.81 348.581 466.81C349.669 466.81 350.309 466.314 350.309 465.466C350.309 464.826 349.957 464.33 348.869 464.17L348.213 464.074C346.693 463.85 345.557 463.226 345.557 461.69C345.557 460.058 346.821 459.258 348.501 459.258C349.829 459.258 350.709 459.754 351.381 460.586L350.533 461.354C350.165 460.842 349.461 460.346 348.405 460.346C347.349 460.346 346.789 460.842 346.789 461.626C346.789 462.426 347.349 462.746 348.373 462.906L349.013 463.002C350.837 463.274 351.541 464.074 351.541 465.322C351.541 466.922 350.373 467.898 348.485 467.898Z" fill="#171717"/>
<defs>
<clipPath id="clip0_26_1936">
<rect width="31" height="31" fill="white" transform="translate(82.6638 56.3527)"/>
</clipPath>
<clipPath id="clip1_26_1936">
<rect width="31" height="31" fill="white" transform="translate(83.0376 349.706)"/>
</clipPath>
</defs>
</svg>
