<svg width="472" height="234" viewBox="0 0 472 234" fill="none" xmlns="http://www.w3.org/2000/svg">
<g clip-path="url(#clip0_7_3496)">
<path fill-rule="evenodd" clip-rule="evenodd" d="M135.063 69.6694H148.152V147.468H135.063V69.6694ZM83.9792 97.7573C83.9792 95.9178 82.7217 94.9141 81.2729 94.9141C79.8242 94.9141 78.5408 95.8884 78.5408 97.7573V135.225C78.5408 137.095 79.8345 138.07 81.2729 138.07C82.7114 138.07 83.9792 137.054 83.9792 135.225V122.948H97.056V134.264C97.056 143.448 89.869 148.231 81.2127 148.231C72.5563 148.231 65.4641 143.602 65.4641 134.264V98.7108C65.4641 89.3972 72.9353 84.7508 81.2127 84.7508C89.49 84.7508 97.056 89.5409 97.056 98.7108V108.848H83.9792V97.7573ZM113.328 99.4463C113.328 97.5756 114.617 96.6014 116.057 96.6014C117.497 96.6014 118.767 97.6102 118.767 99.4463V147.477H131.855V96.0182C131.855 87.6304 126.446 84.7421 122.317 84.7421C117.705 84.7421 114.463 88.0907 113.568 89.7918H113.356V69.6676H100.267V147.477H113.328V99.448V99.4463ZM169.864 134.107C169.864 135.938 168.6 136.952 167.154 136.952C165.709 136.952 164.426 135.977 164.426 134.107V85.4776H151.342V137.12C151.342 143.967 156.043 148.233 161.087 148.233C166.131 148.233 168.972 144.516 169.759 143.15H170.054L170.286 147.478H182.946V85.4776H169.864V134.108V134.107ZM199.22 147.477H186.138V85.4776H199.098L199.229 89.8004H199.49C200.452 87.8969 203.565 84.7439 208.283 84.7439C213.001 84.7439 216.311 88.525 216.982 90.747H217.168C218.145 88.4852 221.57 84.7439 226.526 84.7439C231.482 84.7439 236.331 88.1582 236.331 96.5944V147.48H223.243V98.8337C223.243 96.9596 221.963 95.9836 220.522 95.9836C219.082 95.9836 217.801 96.9924 217.801 98.8337V147.478H204.645V98.8545C204.645 96.9803 203.342 96.0043 201.904 96.0043C200.466 96.0043 199.218 97.0149 199.218 98.8545V147.478L199.22 147.477ZM261.25 84.7404C256.869 84.7352 253.718 88.4593 252.893 89.8195H252.614V69.6694H239.529V147.477H252.466L252.614 143.149H252.893C253.548 144.819 256.354 148.209 261.153 148.217C266.695 148.221 271.203 143.426 271.203 136.176V96.0164C271.203 89.0407 266.504 84.7404 261.25 84.7404ZM258.068 134.129C258.068 135.965 256.803 136.974 255.353 136.974C253.902 136.974 252.621 135.996 252.621 134.129V98.8701C252.621 97.0028 253.913 96.0268 255.353 96.0268C256.793 96.0268 258.068 97.0392 258.068 98.8701V134.129ZM287.479 135.259C287.479 137.127 288.776 138.101 290.216 138.101C291.656 138.101 292.922 137.099 292.922 135.259V122.948H306.001V134.254C306.001 143.606 298.347 148.231 290.164 148.231C281.982 148.231 274.381 143.606 274.381 134.254V98.7316C274.381 89.4128 281.872 84.7508 290.154 84.7508C298.437 84.7508 306.004 89.5201 306.004 98.7316V118.767H287.484V135.259H287.479ZM292.922 109.312V97.7694C292.922 95.9351 291.658 94.9279 290.216 94.9279C288.774 94.9279 287.479 95.897 287.479 97.7694L287.489 109.312H292.922ZM325.043 96.0164C323.612 96.0164 322.308 96.9907 322.308 98.8649V147.477H309.212V85.4776H322.046L322.297 89.7935H322.587C323.822 88.0682 326.981 84.7439 331.353 84.7439C336.425 84.7439 340.845 88.8729 340.845 95.4315V118.705H327.749V98.4547C327.749 96.9699 326.34 96.0199 325.017 96.0199H325.043V96.0164ZM391.884 135.258C391.884 137.125 393.188 138.099 394.625 138.099C396.062 138.099 397.331 137.097 397.331 135.258V122.947H410.413V134.252C410.413 143.604 402.735 148.229 394.566 148.229C386.397 148.229 378.795 143.604 378.795 134.252V98.7299C378.795 89.4111 386.272 84.7491 394.558 84.7491C402.844 84.7491 410.413 89.5184 410.413 98.7299V118.766H391.884V135.258ZM397.329 109.31V97.7677C397.329 95.9334 396.068 94.9262 394.623 94.9262C393.178 94.9262 391.881 95.8953 391.881 97.7677L391.894 109.31H397.329ZM429.412 96.0147C427.965 96.0147 426.666 96.989 426.666 98.8631V147.475H413.567V85.4776H426.396L426.658 89.7935H426.942C428.181 88.0682 431.345 84.7439 435.717 84.7439C440.789 84.7439 445.212 88.8729 445.212 95.4315V118.705H432.105V98.4547C432.105 96.9699 430.696 96.0199 429.381 96.0199H429.412V96.0147ZM362.537 130.241C362.537 132.072 361.283 133.082 359.831 133.082C358.378 133.082 357.098 132.108 357.098 130.241V98.8787C357.098 97.0132 358.399 96.0459 359.831 96.0459C361.262 96.0459 362.537 97.0478 362.537 98.8787V130.241ZM362.537 152.014C362.537 153.845 361.281 154.85 359.831 154.85C358.38 154.85 357.098 153.876 357.098 152.014V146.985H344.032V150.4C344.032 160.09 350.688 164.405 359.791 164.405C368.893 164.405 375.632 160.09 375.632 150.4V85.4776H362.733L362.537 89.8229H362.222C361.541 88.4039 358.473 84.7439 353.596 84.7439C348.719 84.7439 344.035 88.3866 344.035 95.12V132.151C344.035 139.239 348.568 143.382 353.669 143.382C358.769 143.382 361.35 140.12 362.153 138.833H362.537V152.019V152.014ZM41.9412 134.256C41.9412 136.133 43.2401 137.106 44.6802 137.106C46.1203 137.106 47.3796 136.095 47.3796 134.256V126.906C47.3796 121.041 46.129 118.906 41.793 114.813C38.0979 111.318 36.2323 109.523 33.8429 107.26C30.7887 104.361 27.2676 100.318 27.2676 92.7631V83.4443C27.2624 73.2169 35.7379 69.4098 44.6647 69.4098C53.5915 69.4098 61.9688 73.3 61.9688 83.375V95.3917H47.3813V83.7315C47.3813 81.8954 46.1203 80.8883 44.675 80.8883C43.2297 80.8883 41.9429 81.8643 41.9429 83.7315V89.3315C41.9429 94.1804 43.4537 96.3124 47.4554 100.149C49.0644 101.696 52.7061 105.256 55.5106 108.004C60.5235 112.939 62.2582 117.387 62.2582 123.507V133.923C62.2582 144.751 53.5795 148.558 44.663 148.558C35.7465 148.558 27.209 144.753 27.209 134.437V119.522H41.9412V134.256Z" fill="black"/>
</g>
<defs>
<clipPath id="clip0_7_3496">
<rect width="418" height="95" fill="white" transform="translate(27.209 69.4098)"/>
</clipPath>
</defs>
</svg>
