<svg width="48" height="49" viewBox="0 0 48 49" fill="none" xmlns="http://www.w3.org/2000/svg">
<path fill-rule="evenodd" clip-rule="evenodd" d="M45 3.08008V12.0801H42V36.0801H45V45.0801H36V42.0801H12V45.0801H3V36.0801H6V12.0801H3V3.08008H12V6.08008H36V3.08008H45ZM42 6.08008H39V9.08008H42V6.08008ZM9 6.08008H6V9.08008H9V6.08008ZM6 42.0801H9V39.0801H6V42.0801ZM39 42.0801H42V39.0801H39V42.0801ZM36 36.0801H39V12.0801H36V9.08008H12V12.0801H9V36.0801H12V39.0801H36V36.0801ZM13.5 13.5801H28.5V19.5801H34.5V34.5801H19.5V28.5801H13.5V13.5801ZM25.5 16.5801H16.5V25.5801H25.5V16.5801ZM22.5 31.5801H31.5V22.5801H28.5V28.5801H22.5V31.5801Z" fill="#38BDF8"/>
</svg>
