<svg width="459" height="82" viewBox="0 0 459 82" fill="none" xmlns="http://www.w3.org/2000/svg">
<path fill-rule="evenodd" clip-rule="evenodd" d="M131.452 34.9587C126.487 35.5792 123.385 37.0272 121.316 39.0965C119.661 40.7509 118.834 42.8194 118.834 44.8879C118.834 48.6115 121.523 51.3009 124.833 51.3009C126.901 51.3009 128.969 50.4725 130.004 49.2324C130.417 48.8182 130.832 47.991 130.832 47.1639L131.452 34.9587ZM139.933 57.0922C135.796 57.0922 132.072 54.4033 131.038 50.2671C128.969 53.9895 125.039 57.0922 119.868 57.0922C114.076 57.0922 109.111 52.5414 109.111 46.7497C109.111 38.6819 116.765 32.8906 131.245 32.6835V30.615C131.452 24.8233 128.142 21.3059 122.35 21.3059C118.212 21.3059 113.869 23.9961 110.973 27.5118C110.767 27.7189 109.526 26.4784 109.526 26.2709C113.248 18.8249 120.075 14.6874 127.108 14.6874C135.174 14.6874 140.967 20.4796 140.76 30.2012L140.141 46.3363C140.141 50.06 141.795 51.7143 143.656 51.7143C145.725 51.7143 147.173 50.0596 148 47.7831C148 47.5769 149.241 48.1973 149.241 48.404C149.241 53.9895 145.104 57.0922 139.932 57.0922H139.933ZM191.44 55.6442H180.477C180.269 55.6442 180.269 53.5761 180.477 53.5761C185.027 52.9552 185.648 52.5414 185.648 43.6469V31.2359C185.648 25.6504 182.338 21.7205 177.581 21.7205C174.271 21.7205 171.168 23.3752 169.72 25.4442C168.686 26.6855 168.065 28.9607 168.065 31.8568V43.6469C168.065 52.5418 169.099 52.9552 173.651 53.5761C173.651 53.5761 173.857 55.6442 173.651 55.6442H152.55C152.344 55.6442 152.344 53.5761 152.344 53.5761C157.308 52.7477 157.929 52.5414 157.929 43.6469V28.5465C157.929 19.4445 156.895 19.0311 151.515 18.204C151.102 18.204 151.309 16.1351 151.515 16.1351H167.237V25.2371H167.445C170.961 18.6169 176.34 14.687 182.958 14.687C190.406 14.687 196.197 20.4792 196.197 29.9945V43.4403C196.197 52.3352 197.024 52.7485 201.989 53.3694C202.403 53.3694 202.196 55.4375 201.989 55.4375C198.886 55.6442 194.335 55.6442 191.439 55.6442M224.743 57.0922C212.332 57.0922 204.265 47.3702 204.265 36.2001C204.265 24.2024 212.333 14.6866 225.572 14.6866C231.777 14.6866 234.879 16.7555 236.742 16.7555C237.569 16.7555 238.396 16.1351 238.81 15.1008C238.81 14.8937 241.293 14.8937 241.293 15.1008V29.9941C241.293 30.2012 238.81 30.2012 238.81 29.9941C235.501 23.1677 230.95 17.3764 225.572 17.3764C218.952 17.3764 215.022 24.4095 215.022 34.1311C215.022 44.4737 220.4 51.3009 227.847 51.3009C232.811 51.3009 238.397 47.7839 240.672 43.8536C240.879 43.4394 242.534 44.2678 242.534 44.682C239.845 51.7143 232.811 57.0922 224.744 57.0922M275.009 30.8217V27.9256C275.009 21.513 271.907 17.7898 267.976 17.7898C263.011 17.7898 259.289 23.1677 258.461 30.8217H275.01H275.009ZM258.461 35.5788C258.461 44.4737 263.426 51.3001 271.906 51.3001C276.871 51.3001 281.835 47.9906 284.525 43.8528C284.525 43.6465 286.179 44.267 286.179 44.6812C283.905 51.7143 276.457 57.0918 268.183 57.0918C255.152 57.0918 247.498 47.5764 247.498 36.1997C247.498 24.8229 255.565 14.687 269.218 14.687C279.56 14.687 286.387 21.513 287.008 30.8217V33.7178H258.875C258.461 34.1311 258.461 35.1654 258.461 35.5796L258.461 35.5788ZM307.693 57.0922C301.28 57.0922 295.695 55.4383 293.834 54.1962C293.627 53.9895 293.006 48.6115 293.006 43.2332C293.006 43.0269 295.488 42.819 295.488 43.2332C298.798 50.4729 303.556 54.6099 308.727 54.6099C313.071 54.6099 316.174 52.3352 316.174 48.8182C316.174 44.6816 311.209 42.8194 306.245 40.5442C300.246 38.269 293.421 35.1658 293.421 27.5127C293.421 21.513 298.592 15.3075 308.314 15.3075C312.452 15.3075 315.14 16.9622 317.002 16.9622C317.829 16.9622 318.656 16.3422 319.277 15.3075C319.277 15.1008 321.759 15.1008 321.759 15.3075V28.9607C321.759 29.1674 319.277 29.1674 319.277 28.9607C315.967 22.7548 312.037 18.4107 307.279 18.4107C302.935 18.4107 300.865 21.3067 300.865 23.5828C300.865 27.7194 305.624 29.3741 310.588 31.443C316.587 33.9249 323.62 37.0285 323.62 44.8883C323.62 51.5072 317.415 57.0918 307.693 57.0918M328.171 20.4788C327.551 20.4788 327.344 18.8236 327.965 18.4103C332.309 14.4795 339.549 7.86062 343.479 3.7232C343.686 3.5161 345.134 3.7232 345.134 4.13739V16.3409H359.2C359.614 16.3409 359.614 20.2713 359.2 20.2713H345.134V43.2323C345.134 48.4036 348.237 50.6788 351.546 50.6788C354.029 50.6788 356.718 48.6111 357.959 46.128C357.959 45.9217 359.614 46.7489 359.614 46.9564C357.96 52.5418 352.581 56.8847 346.582 56.8847C340.169 56.8847 334.998 52.7477 334.998 44.6804V20.4783L328.171 20.4788ZM393.539 27.0989C392.297 27.0989 389.194 23.3752 386.919 23.3752C385.884 23.3752 384.643 23.9957 383.609 25.03C381.954 26.6847 380.506 30.6154 380.506 33.9249V43.854C380.506 52.9556 381.955 53.1623 386.713 53.7824C386.713 53.7824 386.919 55.8505 386.713 55.8505H364.787C364.579 55.8505 364.579 53.7828 364.787 53.7828C369.751 52.9552 370.372 52.7481 370.372 43.8544V28.7528C370.372 19.8579 369.338 19.2374 363.959 18.4103C363.545 18.4103 363.752 16.3413 363.959 16.3413H379.886V26.6839H380.3C380.714 25.4429 381.54 23.9949 382.162 22.5469C385.057 17.789 388.576 14.8929 392.298 14.8929C395.814 14.8929 398.711 17.5823 398.711 20.4783C398.916 23.7878 394.573 27.0972 393.539 27.0972M436.356 32.4764L422.911 67.0214C418.154 79.2257 413.809 81.7084 408.017 81.7084C404.708 81.7084 400.984 80.0533 400.984 79.0195C400.777 77.3643 403.053 71.3659 404.294 71.3659C404.708 71.3659 409.672 73.6403 412.154 73.6403C415.67 73.6403 417.946 71.3659 419.807 66.4009L422.29 59.7812C421.463 56.4718 411.533 34.752 410.293 31.8555C407.811 26.0634 406.155 21.513 404.501 19.8579C403.467 18.8232 402.433 18.4103 399.537 17.9961C399.33 17.9961 399.33 15.9271 399.537 15.9271C402.226 15.9271 407.811 16.1338 410.914 16.1338C414.017 16.1338 419.394 15.9267 422.084 15.9267C422.29 15.9267 422.29 17.9956 422.084 17.9956C415.878 18.8224 416.498 20.8909 419.809 29.1658L427.049 46.7481L432.84 31.6476C434.909 26.4764 435.943 23.3736 435.943 21.5118C435.943 19.2358 434.494 18.4086 430.151 18.2023C429.944 18.2023 429.944 15.9263 430.151 15.9263C433.047 15.9263 436.771 16.133 439.253 16.133C441.115 16.133 442.976 15.9259 446.493 15.9259C446.7 15.9259 446.906 18.2019 446.493 18.2019C444.218 18.4082 443.184 19.0287 441.942 20.2696C440.287 21.9247 439.046 25.2342 436.357 32.474L436.356 32.4764Z" fill="black"/>
<path fill-rule="evenodd" clip-rule="evenodd" d="M62.1548 13.6528C54.915 5.79215 47.6756 7.03391 46.4343 7.24018C47.0548 7.44687 47.6756 21.0997 55.3292 28.3394C60.5005 33.0965 71.0501 31.4418 71.0501 31.4418C71.0501 31.4418 69.1879 21.3064 62.1548 13.6528ZM70.8438 40.3375C68.5678 40.3375 59.2595 41.1651 53.054 48.8182C46.6414 56.886 46.8481 63.2986 45.4 64.7462C46.6414 65.1604 59.6733 66.401 65.2584 57.9202C70.6363 50.0588 70.8438 41.5785 70.8438 40.3375ZM14.1645 34.7512C15.6122 34.9587 20.5771 41.3714 29.4721 42.1985C39.1941 43.2336 42.5036 38.269 42.7111 38.269C42.7111 37.6481 34.8504 29.1674 26.1626 29.1674C20.1629 29.3737 14.1645 34.7512 14.1645 34.7512ZM49.5366 39.0962C49.33 39.3029 41.263 50.0596 22.2319 47.1635C6.92434 44.6812 1.33929 36.1997 0.304626 35.993C1.54598 34.3379 13.1303 25.0296 26.5752 25.2363C39.8146 25.6505 49.5362 33.0969 49.5362 33.0969H58.017C51.1914 31.0284 42.9173 27.3052 39.1937 19.0308C35.8843 11.3776 36.5047 6.8264 35.0567 0.414193C35.0567 0.414193 50.3638 -0.827157 62.1548 6.8264C72.9115 13.8595 78.9099 32.4765 79.117 33.0969H85.7359L84.2887 0L92.5627 0.206687C91.1151 8.89491 92.9769 70.9518 92.5627 70.9518C91.7356 71.158 84.7021 71.571 84.082 69.9167C84.082 69.9167 85.7367 39.5091 85.9438 38.8883H79.5304C79.5304 39.3025 78.9099 56.471 65.8784 65.573C52.8457 74.6746 34.0224 71.9852 34.0224 71.9852C36.2985 68.4686 34.0224 64.7454 40.6413 54.6096C48.2953 43.0257 58.4311 38.8883 58.2249 38.8883C57.6044 39.0958 49.7442 39.0962 49.5366 39.0962Z" fill="black"/>
<path fill-rule="evenodd" clip-rule="evenodd" d="M454.527 19.7459C455.128 19.7459 455.548 19.5265 455.548 19.0061C455.548 18.5468 455.306 18.2474 454.587 18.2474H453.947V19.7463L454.527 19.7459ZM453.308 17.6873H454.687C455.466 17.6873 456.226 17.9674 456.226 18.9668C456.226 19.4662 455.885 19.9469 455.426 20.0863L456.406 21.8046H455.665L454.886 20.2856H453.946V21.8046H453.308V17.6873ZM457.685 19.8259C457.685 17.9067 456.346 16.4877 454.666 16.4877C452.989 16.4877 451.649 17.9067 451.649 19.8259C451.649 21.7246 452.988 23.1038 454.666 23.1038C456.346 23.1038 457.685 21.725 457.685 19.8259ZM451.029 19.8259C451.029 17.4871 452.688 15.9284 454.667 15.9284C456.665 15.9284 458.304 17.4875 458.304 19.8263C458.304 22.145 456.665 23.684 454.667 23.684C452.688 23.684 451.029 22.1446 451.029 19.8259Z" fill="black"/>
</svg>
