<svg xmlns="http://www.w3.org/2000/svg" fill="none" viewBox="0 0 99 29">
  <defs/>
  <g fill-rule="evenodd" clip-path="url(#clip0)" clip-rule="evenodd">
    <path fill="#6A7888" d="M25.35 12.61c-.785 0-1.423.65-1.423 1.447 0 .798.638 1.448 1.422 1.448.784 0 1.422-.65 1.422-1.448 0-.798-.638-1.447-1.422-1.447zm0 4.181c-1.482 0-2.687-1.226-2.687-2.734 0-1.507 1.205-2.734 2.686-2.734 1.481 0 2.687 1.227 2.687 2.734 0 1.508-1.206 2.734-2.687 2.734zM14.363 23.755c-.354 0-.691.132-.955.376-.281.26-.446.616-.464 1.002-.018.387.113.757.368 1.043.256.286.606.454.985.473.785.045 1.451-.58 1.488-1.378.037-.797-.57-1.477-1.353-1.515a1.234 1.234 0 00-.07-.001zm.003 4.182l-.13-.003c-1.479-.072-2.626-1.356-2.555-2.861.034-.73.345-1.403.876-1.894a2.654 2.654 0 011.935-.708c1.48.071 2.626 1.355 2.556 2.861-.069 1.462-1.26 2.605-2.682 2.605zM25.35 23.755c-.785 0-1.423.65-1.423 1.448 0 .798.638 1.447 1.422 1.447.784 0 1.422-.65 1.422-1.447 0-.799-.638-1.448-1.422-1.448zm0 4.182c-1.482 0-2.687-1.227-2.687-2.734 0-1.508 1.205-2.735 2.686-2.735 1.481 0 2.687 1.227 2.687 2.735 0 1.507-1.206 2.734-2.687 2.734z"/>
    <path fill="#121619" d="M25.64.294a2.61 2.61 0 00-1.987.61c-1.036.882-2.309 1.426-3.66 1.426h-.234c-1.326 0-2.636-.447-3.617-1.353a2.611 2.611 0 00-3.555 0c-.981.906-2.291 1.353-3.617 1.353h-.235c-1.35 0-2.623-.544-3.66-1.426A2.609 2.609 0 003.09.294C1.871.426.88 1.43.745 2.67.567 4.298 1.815 5.677 3.38 5.677c.685 0 1.308-.264 1.777-.698.982-.907 2.292-1.353 3.617-1.353h.196c1.325 0 2.636.446 3.617 1.353a2.608 2.608 0 003.555 0c.981-.907 2.291-1.353 3.617-1.353h.196c1.325 0 2.635.446 3.617 1.353a2.61 2.61 0 001.777.698c1.565 0 2.813-1.38 2.635-3.008C27.85 1.429 26.858.426 25.64.294zM17 13.748c-.136-1.24-1.127-2.243-2.345-2.375a2.614 2.614 0 00-2.096.71c-.918.872-2.147 1.326-3.404 1.326h-.566c-1.256 0-2.485-.454-3.404-1.327-.013-.013-.029-.024-.042-.037a3.253 3.253 0 00-.116-.098l-.08-.065a2.654 2.654 0 00-.164-.112l-.043-.03a2.688 2.688 0 00-.223-.12l-.06-.027a2.458 2.458 0 00-.457-.16l-.047-.011a2.539 2.539 0 00-.27-.047c-.057-.006-.114-.007-.172-.01-.04-.002-.081-.007-.122-.007-.1 0-.197.005-.293.015H3.09c-.088.01-.174.025-.26.043l-.052.014a2.507 2.507 0 00-.428.142c-.032.014-.064.027-.095.042l-.12.063c-.152.082-.295.18-.428.29l-.045.037a2.697 2.697 0 00-.291.295l-.038.048a2.697 2.697 0 00-.35.56l-.04.089a2.774 2.774 0 00-.145.45l-.01.041a2.687 2.687 0 00-.043.26v.01c-.007.058-.008.117-.01.174-.002.041-.007.082-.007.122v.004c0 .092.005.184.014.274.003.029.008.057.012.085.008.062.017.124.03.184.006.036.016.07.024.106a2.734 2.734 0 00.079.266 2.881 2.881 0 00.227.484c.018.03.038.06.058.09.028.044.056.087.087.129l.032.04a2.6 2.6 0 00.133.163c.817.922 1.32 2.088 1.32 3.33v.879c0 1.247-.506 2.418-1.33 3.341a2.71 2.71 0 00-.686 1.81c0 1.592 1.355 2.863 2.956 2.682 1.218-.138 2.203-1.146 2.332-2.387A2.718 2.718 0 005.32 23.4c-.858-.935-1.304-2.185-1.304-3.465v-.576c0-1.242.424-2.455 1.234-3.38.893-.79 2.006-1.274 3.19-1.274h.863c1.226 0 2.377.514 3.284 1.353a2.61 2.61 0 001.778.698c1.564 0 2.812-1.379 2.634-3.008zM39.727 7.546v14.019h1.952V15.22h6.233v-1.88H41.68V8.49h6.506V6.61h-7.49l-.968.936zM50.367 7.55v14.015h1.826V6.61h-.913l-.913.94zM59.287 19.258l-3.568-8.375h-1.952l4.575 10.639-.188.407c-.546 1.41-1.428 2.285-2.834 2.178v1.73c2.141.15 3.778-1.217 4.66-3.61l4.281-11.344H62.31l-3.022 8.375zM67.619 12.678v-1.795h-.912l-.914.935v9.747h1.826v-5.661c0-2.521 1.7-3.333 3.274-3.269v-1.944c-1.322 0-2.603.491-3.274 1.987zM73.39 15.455c.294-1.858 1.658-3.097 3.631-3.097 1.575 0 3.065.982 3.38 3.097h-7.01zm3.631-4.85c-3.274 0-5.498 2.457-5.498 5.62 0 3.203 2.245 5.617 5.624 5.617 2.1 0 3.694-.96 4.618-2.413l-1.553-.898c-.525.876-1.574 1.56-3.023 1.56-1.951 0-3.442-1.09-3.798-3.012h8.794a5.55 5.55 0 00.063-.833c0-2.991-2.057-5.64-5.227-5.64zM85.605 15.455c.294-1.858 1.658-3.097 3.631-3.097 1.574 0 3.064.982 3.38 3.097h-7.01zm3.631-4.85c-3.274 0-5.499 2.457-5.499 5.62 0 3.203 2.246 5.617 5.625 5.617 2.1 0 3.694-.96 4.618-2.413l-1.554-.898c-.524.876-1.574 1.56-3.022 1.56-1.952 0-3.442-1.09-3.799-3.012H94.4c.041-.278.062-.556.062-.833 0-2.991-2.056-5.64-5.226-5.64zM97.478 6.618l-.917.933v14.014h1.826V6.618h-.909z"/>
  </g>
  <defs>
    <clipPath id="clip0">
      <path fill="#fff" d="M0 0h98v28H0z" transform="translate(.728 .217)"/>
    </clipPath>
  </defs>
</svg>
