<svg width="48" height="49" viewBox="0 0 48 49" fill="none" xmlns="http://www.w3.org/2000/svg">
<rect y="0.5" width="48" height="48" rx="14" fill="#FB923C"/>
<path d="M35 27.5C36.6543 27.5 38 26.1543 38 24.5C38 22.8457 36.6543 21.5 35 21.5C33.698 21.5 32.5984 22.3384 32.1843 23.5H26.414L33.7148 16.1992C34.1059 16.3867 34.5383 16.5 35 16.5C36.6543 16.5 38 15.1543 38 13.5C38 11.8457 36.6543 10.5 35 10.5C33.3457 10.5 32 11.8457 32 13.5C32 13.9619 32.1135 14.394 32.3005 14.7852L24 23.086V16.5001C24 15.3976 24.897 14.5001 26 14.5001H28V12.5001H26C24.7998 12.5001 23.7339 13.0426 23 13.8824C22.2661 13.0426 21.2002 12.5001 20 12.5001H19C14.0376 12.5001 10 16.5372 10 21.5001V27.5001C10 32.463 14.0376 36.5001 19 36.5001H20C21.2002 36.5001 22.2661 35.9576 23 35.1178C23.7339 35.9576 24.7998 36.5001 26 36.5001H28V34.5001H26C24.897 34.5001 24 33.6026 24 32.5001V25.9142L32.3005 34.215C32.1135 34.6061 32 35.0382 32 35.5002C32 37.1545 33.3457 38.5002 35 38.5002C36.6543 38.5002 38 37.1545 38 35.5002C38 33.8459 36.6543 32.5002 35 32.5002C34.5383 32.5002 34.106 32.6135 33.7148 32.801L26.414 25.5002H32.1843C32.5984 26.6618 33.698 27.5 35 27.5ZM35 23.5C35.5513 23.5 36 23.9482 36 24.5C36 25.0518 35.5513 25.5 35 25.5C34.4487 25.5 34 25.0518 34 24.5C34 23.9482 34.4487 23.5 35 23.5ZM35 12.5C35.5515 12.5 36 12.9487 36 13.5C36 14.0513 35.5515 14.5 35 14.5C34.4485 14.5 34 14.0513 34 13.5C34 12.9487 34.4485 12.5 35 12.5ZM22 20.5H20V22.5H22V26.5H20C18.3457 26.5 17 27.8457 17 29.5V31.5H19V29.5C19 28.9482 19.4487 28.5 20 28.5H22V32.5C22 33.6025 21.103 34.5 20 34.5H19C15.4805 34.5 12.5676 31.8867 12.0798 28.5H14V26.5H12V22.5H15C16.6543 22.5 18 21.1543 18 19.5V17.5H16V19.5C16 20.0518 15.5513 20.5 15 20.5H12.0798C12.5676 17.1133 15.4804 14.5 19 14.5H20C21.103 14.5 22 15.3975 22 16.5V20.5ZM36 35.5C36 36.0513 35.5515 36.5 35 36.5C34.4485 36.5 34 36.0513 34 35.5C34 34.9487 34.4485 34.5 35 34.5C35.5515 34.5 36 34.9487 36 35.5Z" fill="#171717"/>
</svg>
