<svg width="56" height="56" viewBox="0 0 56 56" fill="none" xmlns="http://www.w3.org/2000/svg">
<path fill-rule="evenodd" clip-rule="evenodd" d="M26.6773 1.23258C27.4947 0.755807 28.5053 0.755807 29.3227 1.23258L50.3227 13.4826C51.1291 13.953 51.625 14.8164 51.625 15.75V40.25C51.625 41.1836 51.1291 42.047 50.3227 42.5174L29.3227 54.7674C28.5053 55.2442 27.4947 55.2442 26.6773 54.7674L5.67734 42.5174C4.87089 42.047 4.375 41.1836 4.375 40.25V15.75C4.375 14.8164 4.87089 13.953 5.67734 13.4826L26.6773 1.23258ZM21.8939 18.3241C22.0691 18.0174 22.3953 17.8281 22.7486 17.8281H33.2491C33.6023 17.8281 33.9285 18.0174 34.1038 18.3241L39.354 27.5121C39.527 27.8147 39.527 28.1862 39.354 28.4889L34.1038 37.6768C33.9285 37.9835 33.6023 38.1728 33.2491 38.1728H22.7486C22.3953 38.1728 22.0691 37.9835 21.8939 37.6768L16.6436 28.4889C16.4707 28.1862 16.4707 27.8147 16.6436 27.5121L21.8939 18.3241Z" fill="#F97316"/>
</svg>
