<svg width="16" height="17" viewBox="0 0 16 17" fill="none" xmlns="http://www.w3.org/2000/svg">
<path d="M10 5.5127H9V6.5127H10V5.5127Z" fill="black" fill-opacity="0.54"/>
<path d="M7 5.5127H6V6.5127H7V5.5127Z" fill="black" fill-opacity="0.54"/>
<path d="M13 10.5127H10.5V9.5127H11C11.2651 9.51239 11.5193 9.40694 11.7068 9.21947C11.8942 9.032 11.9997 8.77782 12 8.5127V6.5127H13V5.5127H12V4.5127C11.9997 4.24757 11.8942 3.9934 11.7068 3.80592C11.5193 3.61845 11.2651 3.513 11 3.5127H10V1.5127H9V3.5127H7V1.5127H6V3.5127H5C4.73488 3.513 4.4807 3.61845 4.29323 3.80592C4.10576 3.9934 4.0003 4.24757 4 4.5127V5.5127H3V6.5127H4V8.5127C4.0003 8.77782 4.10576 9.032 4.29323 9.21947C4.4807 9.40694 4.73488 9.51239 5 9.5127H5.5V10.5127H3C2.73488 10.513 2.4807 10.6185 2.29323 10.8059C2.10576 10.9934 2.0003 11.2476 2 11.5127V15.5127H3V11.5127H13V15.5127H14V11.5127C13.9997 11.2476 13.8942 10.9934 13.7068 10.8059C13.5193 10.6185 13.2651 10.513 13 10.5127ZM5 4.5127H11V8.5127H5V4.5127ZM6.5 9.5127H9.5V10.5127H6.5V9.5127Z" fill="black" fill-opacity="0.54"/>
</svg>
