<svg width="48" height="49" viewBox="0 0 48 49" fill="none" xmlns="http://www.w3.org/2000/svg">
<rect y="0.5" width="48" height="48" rx="14" fill="#4ADE80"/>
<path fill-rule="evenodd" clip-rule="evenodd" d="M26 13.5V15.5H22.8C22.1411 18.3271 20.7946 20.948 18.88 23.13C20.3266 24.6058 22.0724 25.7549 24 26.5L23.29 28.34C21.1259 27.4707 19.1648 26.1633 17.53 24.5C15.865 26.1408 13.9036 27.4507 11.75 28.36L11 26.5C12.9166 25.6887 14.6661 24.5291 16.16 23.08C14.8083 21.4317 13.7895 19.5366 13.16 17.5H15.26C15.7694 19.0181 16.5448 20.4335 17.55 21.68C19.092 19.9046 20.1859 17.7854 20.74 15.5H10V13.5H17V10.5H19V13.5H26ZM38.0004 37.5H35.8504L34.2504 33.5H27.4004L25.8004 37.5H23.6504L29.6504 22.5H32.0004L38.0004 37.5ZM30.8204 24.94L28.2004 31.5H33.4504L30.8204 24.94Z" fill="#171717"/>
</svg>
