<svg width="36" height="43" viewBox="0 0 36 43" fill="none" xmlns="http://www.w3.org/2000/svg">
<g clip-path="url(#clip0_1808_9282)">
<path d="M19.5888 19.7489L10.2269 29.1107C9.84927 29.4884 9.23563 29.4884 8.85801 29.1107L3.7129 23.9656C3.33528 23.588 3.33528 22.9744 3.7129 22.5968L25.2531 1.07228C25.6307 0.694657 26.2444 0.694657 26.622 1.07228L31.7671 6.21738C32.1447 6.59501 32.1447 7.20864 31.7671 7.58627L25.7094 13.644" stroke="#171717" stroke-miterlimit="10"/>
<path d="M24.2144 23.13C26.8996 23.13 29.0763 20.9533 29.0763 18.2681C29.0763 15.583 26.8996 13.4062 24.2144 13.4062C21.5293 13.4062 19.3525 15.583 19.3525 18.2681C19.3525 20.9533 21.5293 23.13 24.2144 23.13Z" stroke="#171717" stroke-miterlimit="10"/>
<path d="M14.8216 24.5296L8.30762 18.0156" stroke="#171717" stroke-miterlimit="10"/>
<path d="M19.3525 35.5273H35.2127V41.9941H29.9889H19.3525V35.5273Z" stroke="#171717" stroke-miterlimit="10"/>
<path d="M0 42H28.3217" stroke="#171717" stroke-miterlimit="10"/>
<path d="M28.3213 20.8789C28.3213 20.8789 35.2601 26.9209 30.5084 35.5275" stroke="#171717" stroke-miterlimit="10"/>
</g>
<defs>
<clipPath id="clip0_1808_9282">
<rect width="36" height="42.7815" fill="white"/>
</clipPath>
</defs>
</svg>
