<svg width="111" height="45" viewBox="0 0 111 45" fill="none" xmlns="http://www.w3.org/2000/svg">
<g clip-path="url(#clip0_2276_319753)">
<path d="M107.325 18.8352C106.701 18.8346 106.063 18.6113 105.701 18.4261C98.3265 14.6514 89.9588 12.4201 81.8342 12.4201C80.8157 12.4201 80.0611 12.4598 79.1122 12.5539C80.6462 14.9476 83.2862 18.4314 85.0944 20.5662C85.5659 21.1208 85.7038 21.4551 85.7038 21.9893C85.7038 22.9197 84.7073 23.8214 83.6483 23.8214C82.9402 23.8214 82.5162 23.5473 81.8622 22.7905C79.6592 20.2501 76.3515 15.7477 74.7841 13.1932C67.0728 14.5333 58.4756 19.0099 53.396 22.9641C52.815 23.4217 52.4113 23.6093 51.8292 23.6093C50.7494 23.6093 49.8105 22.6958 49.8105 21.6515C49.8105 21.0484 50.0371 20.5937 50.8303 19.9432C58.5832 13.6012 70.6249 8.59155 80.8514 8.59155C84.9053 8.59155 88.816 9.14382 92.597 10.0538C94.8939 10.6049 98.2991 11.7263 101.2 12.97C93.5959 8.45421 84.0651 4.32823 78.0389 4.32823C76.5013 4.32823 75.5607 4.83434 75.5607 5.85181C75.5607 6.45083 75.9008 7.25323 76.4085 8.05914C75.2021 8.17895 73.6134 8.41973 72.4111 8.7359C71.7826 7.60447 71.3462 6.3959 71.3462 5.09908C71.3462 2.21031 73.2602 0.433105 77.1167 0.433105C85.8519 0.433105 100.532 8.43551 107.858 14.2814C108.696 14.9512 109.522 15.781 109.522 16.7541C109.522 17.7172 108.674 18.8346 107.325 18.8352Z" fill="black"/>
<path d="M12.3945 35.8604C12.3945 35.3456 12.7115 35.0259 13.1996 35.0259C13.6878 35.0259 13.9904 35.3456 13.9904 35.8604V36.7289C14.4167 35.8727 15.3586 35.0259 16.2077 35.0259C16.7535 35.0259 17.0181 35.3409 17.0181 35.7587C17.0181 36.1661 16.7916 36.4735 16.0887 36.664C14.6326 37.0631 13.994 37.8638 13.994 39.4002V43.8459C13.994 44.3607 13.6872 44.681 13.1996 44.681C12.712 44.681 12.3945 44.3607 12.3945 43.8459V35.8604Z" fill="black"/>
<path d="M48.2207 35.8604C48.2207 35.3456 48.5364 35.0259 49.0258 35.0259C49.5122 35.0259 49.8178 35.3456 49.8178 35.8604V36.7289C50.2417 35.8727 51.1836 35.0259 52.0338 35.0259C52.5797 35.0259 52.8455 35.3409 52.8455 35.7587C52.8455 36.1661 52.6165 36.4735 51.9155 36.664C50.4582 37.0631 49.8208 37.8638 49.8208 39.4002V43.8459C49.8208 44.3607 49.5128 44.681 49.0264 44.681C48.5376 44.681 48.2213 44.3607 48.2213 43.8459V35.8604H48.2207Z" fill="black"/>
<path d="M21.5686 35.0259C23.1306 35.0259 24.1337 35.6424 24.1337 36.1959C24.1337 36.5278 23.8828 36.8592 23.5028 36.8592C22.9178 36.8592 22.6425 36.3957 21.568 36.3957C19.7539 36.3957 18.8228 37.9906 18.8228 39.8537C18.8228 41.8729 19.8705 43.3123 21.568 43.3123C22.7501 43.3123 23.0093 42.8319 23.5653 42.8319C23.9274 42.8319 24.145 43.0721 24.145 43.4397C24.145 43.795 23.8465 44.0849 23.3078 44.3292C22.8375 44.5419 22.215 44.681 21.568 44.681C18.8496 44.681 17.2168 42.6741 17.2168 39.8537C17.2174 37.0918 18.8644 35.0259 21.5686 35.0259Z" fill="black"/>
<path d="M26.472 40.4566C26.5023 42.0012 27.5209 43.3114 29.3088 43.3114C31.1877 43.3114 31.6313 42.2776 32.3097 42.2776C32.6897 42.2776 32.9566 42.5307 32.9566 42.9269C32.9566 43.6901 31.2424 44.6801 29.3231 44.6801C27.8865 44.6801 26.9239 44.2319 26.2074 43.5166C25.2947 42.6066 24.8672 41.2636 24.8672 39.8534C24.8672 37.2738 26.4928 35.0244 29.1828 35.0244C31.6854 35.0244 33.3069 37.1961 33.3069 39.6214C33.3069 40.1714 33.0803 40.456 32.4233 40.456H26.472V40.4566ZM31.7086 39.2848C31.7086 37.936 30.9273 36.3955 29.1756 36.3955C27.4543 36.3955 26.5326 37.7227 26.472 39.2848H31.7086Z" fill="black"/>
<path d="M36.5819 43.8461C36.5819 44.3604 36.2721 44.6801 35.7839 44.6801C35.2958 44.6801 34.9824 44.3604 34.9824 43.8461V32.6651C34.9824 32.1508 35.2958 31.8306 35.7839 31.8306C36.2721 31.8306 36.5819 32.1508 36.5819 32.6651V43.8461Z" fill="black"/>
<path d="M42.3997 44.6833C39.8566 44.6833 38.168 42.6922 38.168 39.8537C38.168 37.0141 39.8566 35.0229 42.3997 35.0229C44.9392 35.0229 46.6314 37.0135 46.6314 39.8537C46.6314 42.6922 44.9392 44.6833 42.3997 44.6833ZM42.3997 43.3117C43.9558 43.3117 45.0242 41.9763 45.0242 39.8543C45.0242 37.73 43.9558 36.3957 42.3997 36.3957C40.8413 36.3957 39.7728 37.73 39.7728 39.8543C39.7728 41.9757 40.8407 43.3117 42.3997 43.3117Z" fill="black"/>
<path d="M63.9358 35.6775C63.0451 38.6872 61.5818 43.6343 61.4623 44.0422C61.3274 44.4922 61.0491 44.681 60.6133 44.681C60.1756 44.681 59.9051 44.522 59.7618 44.0422C59.6387 43.6185 58.1035 38.4342 57.2241 35.4554C57.0754 34.9639 56.9404 34.383 56.8388 33.8909C56.7781 34.3719 56.6996 34.9347 56.6146 35.4607C56.158 38.2752 55.4498 42.663 55.2536 43.9014C55.1668 44.4466 54.8843 44.681 54.42 44.681C53.9859 44.681 53.707 44.3929 53.707 43.9359C53.707 43.7588 53.7445 43.5279 53.7962 43.2258C53.7962 43.2258 55.3998 33.746 55.5277 33.0213C55.6644 32.2464 56.0735 31.832 56.7377 31.832C57.3311 31.832 57.799 32.1739 57.9875 32.8185C58.1035 33.2194 59.3961 37.6721 60.2173 40.4866C60.3695 41.0062 60.5205 41.6181 60.6376 42.1703C60.7458 41.628 60.8885 41.0448 61.036 40.5369C61.8548 37.7253 63.173 33.22 63.2889 32.8185C63.4768 32.1733 63.8954 31.832 64.4876 31.832C65.1114 31.832 65.5686 32.2335 65.6964 33.0213C65.8148 33.7477 67.4291 43.2258 67.4291 43.2258C67.4814 43.5279 67.5159 43.7588 67.5159 43.9359C67.5159 44.3929 67.2382 44.681 66.8042 44.681C66.3398 44.681 66.0562 44.4466 65.9717 43.9014C65.7803 42.6975 65.1066 38.5218 64.65 35.7044C64.5572 35.1293 64.4686 34.4765 64.3978 33.8792C64.2807 34.4005 64.1279 35.0405 63.9358 35.6775Z" fill="black"/>
<path d="M70.3273 32.2578C70.8684 32.2578 71.303 32.6839 71.303 33.2163C71.303 33.7487 70.869 34.1747 70.3273 34.1747C69.7856 34.1747 69.3516 33.7487 69.3516 33.2163C69.3522 32.6839 69.7862 32.2578 70.3273 32.2578ZM71.1276 35.8601C71.1276 35.3453 70.8155 35.0256 70.3273 35.0256C69.8391 35.0256 69.5293 35.3453 69.5293 35.8601V43.8456C69.5293 44.3605 69.8391 44.6807 70.3273 44.6807C70.8155 44.6807 71.1276 44.3605 71.1276 43.8456V35.8601Z" fill="black"/>
<path d="M73.9093 33.0919C73.9093 32.577 74.219 32.2573 74.706 32.2573C75.1948 32.2573 75.5087 32.577 75.5087 33.0919V35.1321H76.1592C76.6819 35.1321 76.9536 35.3839 76.9536 35.81C76.9536 36.236 76.6819 36.4908 76.1592 36.4908H75.5087V43.8457C75.5087 44.36 75.1954 44.6802 74.706 44.6802C74.2196 44.6802 73.9093 44.36 73.9093 43.8457V36.4914H73.3283C72.8069 36.4914 72.5352 36.2366 72.5352 35.8106C72.5352 35.3845 72.8069 35.1326 73.3283 35.1326H73.9093V33.0919Z" fill="black"/>
<path d="M78.9474 33.0919C78.9474 32.577 79.2596 32.2573 79.7489 32.2573C80.2365 32.2573 80.5469 32.577 80.5469 33.0919V35.1321H81.1962C81.7224 35.1321 81.9905 35.3839 81.9905 35.81C81.9905 36.236 81.7224 36.4908 81.1962 36.4908H80.5469V43.8457C80.5469 44.36 80.2371 44.6802 79.7489 44.6802C79.2602 44.6802 78.9474 44.36 78.9474 43.8457V36.4914H78.3647C77.842 36.4914 77.5703 36.2366 77.5703 35.8106C77.5703 35.3845 77.842 35.1326 78.3647 35.1326H78.9474V33.0919Z" fill="black"/>
<path d="M10.6771 43.2428C10.3423 42.3615 7.22072 34.1149 6.73553 32.842C6.49056 32.2032 6.11775 31.8315 5.49997 31.8315C4.8691 31.8315 4.53375 32.2044 4.28759 32.842C4.0658 33.4141 0.667696 42.3639 0.328777 43.2428C0.180128 43.6291 0.123047 43.8366 0.123047 44.0038C0.123047 44.3971 0.466723 44.6799 0.882344 44.6799C1.31105 44.6799 1.55721 44.4619 1.69159 44.0943C1.77305 43.874 2.21424 42.6549 2.77732 41.1027H8.22261C8.75478 42.5684 9.18288 43.746 9.30953 44.0943C9.43143 44.4251 9.65321 44.6799 10.0867 44.6799C10.5023 44.6799 10.8923 44.431 10.8923 44.0225C10.8929 43.843 10.8489 43.701 10.6771 43.2428ZM3.28272 39.7147C3.9457 37.8908 4.67051 35.8938 5.15332 34.559C5.28948 34.1867 5.40899 33.8343 5.50056 33.5398C5.60164 33.8571 5.72591 34.2206 5.84661 34.5561C6.3318 35.8938 7.05543 37.8861 7.71721 39.7147H3.28272Z" fill="black"/>
<path d="M95.0452 43.8461C95.0452 44.3604 94.7307 44.6801 94.2425 44.6801C93.7561 44.6801 93.4434 44.3604 93.4434 43.8461V32.6651C93.4434 32.1508 93.7555 31.8306 94.2425 31.8306C94.7301 31.8306 95.0452 32.1508 95.0452 32.6651V43.8461Z" fill="black"/>
<path d="M90.3866 35.0258C89.8991 35.0258 89.5899 35.3455 89.5899 35.8603V36.5657C89 35.6125 88.0386 35.0234 86.8536 35.0234C84.4193 35.0234 82.7461 37.014 82.7461 39.8542C82.7461 42.6921 84.4193 44.6838 86.8536 44.6838C88.038 44.6838 88.9994 44.0942 89.5899 43.1392V43.8469C89.5899 44.3606 89.8991 44.6809 90.3866 44.6809C90.8754 44.6809 91.187 44.3606 91.187 43.8469V35.8603C91.1864 35.3455 90.8754 35.0258 90.3866 35.0258ZM86.9778 43.314C85.4218 43.314 84.3533 41.9762 84.3533 39.8542C84.3533 37.7299 85.4218 36.3921 86.9778 36.3921C88.5363 36.3921 89.6036 37.7299 89.6036 39.8542C89.6036 41.9756 88.5363 43.314 86.9778 43.314Z" fill="black"/>
</g>
<defs>
<clipPath id="clip0_2276_319753">
<rect width="110" height="45" fill="white" transform="translate(0.0839844)"/>
</clipPath>
</defs>
</svg>
