<svg width="135" height="33" viewBox="0 0 135 33" fill="none" xmlns="http://www.w3.org/2000/svg">
<g opacity="0.9" clip-path="url(#clip0_1675_103978)">
<path d="M79.4203 13.0578V13.0682C79.3536 13.0682 79.2865 13.0786 79.2197 13.0786C79.153 13.0786 79.0858 13.0682 79.0191 13.0682C75.0398 13.0682 72.5765 15.4124 72.5765 19.1753V21.0253C72.5765 24.6515 75.0734 26.9011 79.0748 26.9011C79.1567 26.9032 79.2386 26.8997 79.32 26.8907C79.3757 26.8907 79.4203 26.9011 79.476 26.9011C82.1622 26.9011 84.0351 25.9763 85.2274 24.063L82.8533 22.7699C82.0618 23.8735 81.003 24.704 79.4871 24.704C77.4586 24.704 76.2437 23.5267 76.2437 21.54V21.0145H85.6512V18.8282C85.6512 15.3174 83.2104 13.0578 79.4203 13.0578ZM79.2197 15.2128C81.0701 15.297 82.1847 16.4531 82.1847 18.3556V18.8811H76.2326V18.576C76.2326 16.4739 77.2915 15.297 79.2197 15.2128ZM64.607 13.0682C62.8348 13.0682 61.3079 13.7621 60.5053 14.9182L60.3047 15.2124V13.3833H56.9384V31.1371H60.4717V24.9357L60.6724 25.2195C61.4303 26.281 62.913 26.9116 64.6405 26.9116H64.7298H64.8076C67.7169 26.9116 70.6483 25.1245 70.6483 21.1199V18.8707C70.6483 15.9905 68.8425 13.079 64.7851 13.079L64.763 13.0686H64.6852L64.607 13.0682ZM63.7823 15.57C65.8333 15.6016 67.1039 16.9153 67.1039 19.0178V20.9516C67.1039 23.0537 65.8219 24.3573 63.7487 24.3994C61.8205 24.3677 60.4717 22.9803 60.4717 21.0041V19.0174C60.4717 17.0203 61.8316 15.6121 63.7823 15.57ZM109.572 8.68515L102.772 26.5965H106.596L107.9 22.7598H115.323V22.8019L116.627 26.6069H120.45L113.64 8.69558H113.239L113.228 8.68515H109.572ZM111.601 11.765L114.443 20.2268H108.735L111.601 11.765ZM134.127 11.2078V8.68515H122.468V11.2078H126.558V24.0526H122.468V26.5753H134.127V24.0526H130.036V11.2078H134.127ZM95.761 13.0686H95.6607H95.605C93.6322 13.0686 92.2277 13.6991 91.5365 14.9081L91.3248 15.2761V13.384H87.9586V26.5861H91.4919V18.7235C91.4919 16.8736 92.5508 15.8121 94.3787 15.7804C96.1287 15.8121 97.1319 16.8527 97.1319 18.6502V26.5861H100.665V18.0822C100.665 14.9394 98.8374 13.0682 95.7721 13.0682L95.761 13.0686ZM45.5798 8.31716C40.3742 8.31716 37.1308 11.3761 37.1308 16.3059V18.9653C37.1308 23.8951 40.3631 26.9537 45.5798 26.9537H45.658H45.7358C50.9413 26.9537 54.1848 23.8951 54.1848 18.9653V16.3059C54.1848 11.3761 50.9413 8.31716 45.7358 8.31716H45.658H45.5798ZM45.658 10.9873C48.7568 11.0189 50.5401 12.8898 50.5401 16.1272V19.1545C50.5401 22.3918 48.7568 24.2631 45.658 24.2943C42.5591 24.2627 40.7755 22.3918 40.7755 19.1545V16.1272C40.7755 12.8898 42.5591 11.0186 45.658 10.9873ZM14.8827 0.980558C11.2822 0.980558 8.08342 3.16687 6.96845 6.39381C5.82422 6.61623 4.74335 7.06592 3.79777 7.71294C2.85219 8.35996 2.06358 9.18948 1.48442 10.1463C-0.321334 13.0894 0.0910047 16.7894 2.51014 19.312C1.76327 21.425 2.0196 23.7371 3.21238 25.6504C5.00707 28.604 8.6182 30.1177 12.1519 29.4134C12.9256 30.2368 13.8766 30.8952 14.9414 31.3447C16.0062 31.7942 17.1605 32.0245 18.3271 32.0202C21.9276 32.0202 25.1263 29.8339 26.2413 26.6069C28.5597 26.1548 30.5551 24.7882 31.7143 22.8544C33.5311 19.9113 33.1188 16.2113 30.7 13.6887V13.6783C31.069 12.6339 31.1972 11.5272 31.0761 10.4323C30.955 9.33742 30.5874 8.27954 29.9978 7.32942C28.2027 4.38628 24.5912 2.87225 21.0689 3.57656C20.2916 2.75527 19.3382 2.09911 18.2717 1.65156C17.2052 1.20401 16.05 0.975293 14.8827 0.980558ZM14.8827 2.99889L14.8716 3.00932C16.3207 3.00932 17.7141 3.48233 18.8287 4.35499C18.7841 4.37585 18.6948 4.42837 18.6281 4.46003L12.0741 8.0233C11.7396 8.20208 11.5389 8.5384 11.5389 8.90639V17.2732L8.71891 15.7387V8.82221C8.71828 7.27943 9.36709 5.79949 10.5228 4.70753C11.6785 3.61557 13.2466 3.00126 14.8827 2.99889ZM22.7779 5.43474C23.864 5.43277 24.9314 5.70123 25.8722 6.21298C26.8131 6.72473 27.5939 7.46163 28.1359 8.3492C28.8492 9.52652 29.1166 10.9035 28.8714 12.2384C28.8267 12.2067 28.7379 12.165 28.6818 12.1333L22.1278 8.55926C21.9629 8.47133 21.7767 8.42512 21.5873 8.42512C21.3979 8.42512 21.2117 8.47133 21.0468 8.55926L13.3668 12.7427V9.67327L19.7091 6.21503C20.6416 5.70521 21.7 5.43596 22.7779 5.43437V5.43474ZM6.56756 8.61178V15.9592C6.56756 16.3272 6.7682 16.6531 7.10273 16.8423L14.7713 21.0153L11.9398 22.5602L5.6086 19.1124C4.19372 18.3391 3.162 17.068 2.73992 15.5782C2.31784 14.0883 2.53989 12.5013 3.35733 11.1657C4.07843 9.987 5.21412 9.08373 6.56756 8.61178ZM21.2585 10.4301L27.6008 13.8779C30.5547 15.4862 31.5575 19.039 29.852 21.8246L29.8631 21.835C29.1388 23.0124 28.0017 23.9163 26.6529 24.3789V17.0311C26.6529 16.6631 26.4522 16.3268 26.1177 16.1484L18.4381 11.9646L21.2585 10.4301ZM16.5992 12.9635L19.8319 14.7293V18.2505L16.5992 20.0163L13.3668 18.2505V14.7293L16.5992 12.9635ZM21.6819 15.7387L24.5019 17.2732V24.1793C24.5019 27.3958 21.7376 30.0026 18.3382 30.0026V29.9921C16.9001 29.9921 15.4956 29.5191 14.3921 28.6468C14.4367 28.626 14.5371 28.5731 14.5928 28.5414L21.1467 24.9782C21.4813 24.7994 21.693 24.4631 21.6815 24.0951L21.6819 15.7387ZM19.8426 20.2584V23.3274L13.5003 26.7753C10.5464 28.3731 6.77887 27.4271 5.07343 24.6519H5.08449C4.36013 23.485 4.10341 22.0976 4.34868 20.7627C4.39331 20.7944 4.48257 20.8361 4.53826 20.8678L11.0922 24.4418C11.2571 24.5298 11.4433 24.576 11.6327 24.576C11.8222 24.576 12.0084 24.5298 12.1732 24.4418L19.8426 20.2584Z" fill="white"/>
</g>
<defs>
<clipPath id="clip0_1675_103978">
<rect width="133.76" height="31.04" fill="white" transform="translate(0.367188 0.980469)"/>
</clipPath>
</defs>
</svg>
