<svg width="363" height="232" viewBox="0 0 363 232" fill="none" xmlns="http://www.w3.org/2000/svg">
<rect width="362.731" height="231.498" fill="#FB923C"/>
<path d="M210.686 132.119V99.3779C212.504 98.9116 214.167 97.9724 215.505 96.6558C216.843 95.3392 217.809 93.6919 218.304 91.8813C218.8 90.0707 218.808 88.1612 218.327 86.3466C217.846 84.532 216.893 82.877 215.566 81.5496C214.239 80.2222 212.584 79.2697 210.769 78.7887C208.954 78.3077 207.045 78.3155 205.234 78.8111C203.424 79.3067 201.776 80.2726 200.46 81.6107C199.143 82.9488 198.204 84.6114 197.738 86.4298H164.997C164.531 84.6114 163.592 82.9488 162.275 81.6107C160.958 80.2726 159.311 79.3067 157.5 78.8111C155.69 78.3155 153.78 78.3077 151.966 78.7887C150.151 79.2697 148.496 80.2222 147.169 81.5496C145.841 82.877 144.889 84.532 144.408 86.3466C143.927 88.1612 143.935 90.0707 144.43 91.8813C144.926 93.6919 145.892 95.3392 147.23 96.6558C148.568 97.9724 150.231 98.9116 152.049 99.3779V132.119C150.231 132.585 148.568 133.524 147.23 134.841C145.892 136.157 144.926 137.805 144.43 139.615C143.935 141.426 143.927 143.335 144.408 145.15C144.889 146.964 145.841 148.619 147.169 149.947C148.496 151.274 150.151 152.227 151.966 152.708C153.78 153.189 155.69 153.181 157.5 152.685C159.311 152.19 160.958 151.224 162.275 149.886C163.592 148.548 164.531 146.885 164.997 145.067H197.738C198.204 146.885 199.143 148.548 200.46 149.886C201.776 151.224 203.424 152.19 205.234 152.685C207.045 153.181 208.954 153.189 210.769 152.708C212.584 152.227 214.239 151.274 215.566 149.947C216.893 148.619 217.846 146.964 218.327 145.15C218.808 143.335 218.8 141.426 218.304 139.615C217.809 137.805 216.843 136.157 215.505 134.841C214.167 133.524 212.504 132.585 210.686 132.119V132.119ZM208.02 83.7645C209.075 83.7645 210.105 84.0771 210.982 84.6628C211.859 85.2486 212.542 86.0811 212.945 87.0552C213.349 88.0292 213.454 89.101 213.249 90.1351C213.043 91.1691 212.535 92.1189 211.79 92.8644C211.044 93.6099 210.094 94.1176 209.06 94.3233C208.026 94.529 206.955 94.4234 205.981 94.02C205.006 93.6165 204.174 92.9333 203.588 92.0566C203.002 91.18 202.69 90.1494 202.69 89.0951C202.691 87.6818 203.254 86.3269 204.253 85.3276C205.252 84.3282 206.607 83.7661 208.02 83.7645V83.7645ZM149.384 89.0951C149.384 88.0408 149.696 87.0102 150.282 86.1336C150.868 85.2569 151.7 84.5737 152.674 84.1702C153.648 83.7668 154.72 83.6612 155.754 83.8669C156.788 84.0726 157.738 84.5803 158.484 85.3258C159.229 86.0713 159.737 87.0211 159.942 88.0551C160.148 89.0892 160.043 90.161 159.639 91.135C159.236 92.1091 158.552 92.9416 157.676 93.5274C156.799 94.1131 155.769 94.4257 154.714 94.4257C153.301 94.4243 151.946 93.8622 150.946 92.8629C149.947 91.8635 149.385 90.5084 149.384 89.0951V89.0951ZM154.714 147.732C153.66 147.732 152.629 147.419 151.753 146.834C150.876 146.248 150.193 145.415 149.789 144.441C149.386 143.467 149.28 142.395 149.486 141.361C149.692 140.327 150.199 139.378 150.945 138.632C151.69 137.887 152.64 137.379 153.674 137.173C154.708 136.967 155.78 137.073 156.754 137.476C157.728 137.88 158.561 138.563 159.146 139.44C159.732 140.316 160.045 141.347 160.045 142.401C160.043 143.815 159.481 145.17 158.482 146.169C157.482 147.168 156.128 147.73 154.714 147.732ZM197.738 139.736H164.997C164.52 137.904 163.562 136.232 162.223 134.893C160.884 133.553 159.212 132.596 157.38 132.119V99.3779C159.212 98.9003 160.884 97.9426 162.223 96.6036C163.562 95.2647 164.519 93.5928 164.997 91.7604H197.738C198.215 93.5929 199.173 95.2649 200.512 96.6039C201.851 97.943 203.523 98.9005 205.355 99.3779V132.119C203.523 132.596 201.851 133.553 200.511 134.892C199.172 136.231 198.215 137.903 197.738 139.736V139.736ZM208.02 147.732C206.966 147.732 205.936 147.419 205.059 146.834C204.182 146.248 203.499 145.415 203.096 144.441C202.692 143.467 202.587 142.395 202.792 141.361C202.998 140.327 203.506 139.378 204.251 138.632C204.997 137.887 205.946 137.379 206.981 137.173C208.015 136.967 209.086 137.073 210.06 137.476C211.034 137.88 211.867 138.563 212.453 139.44C213.038 140.316 213.351 141.347 213.351 142.401C213.349 143.815 212.787 145.169 211.788 146.169C210.788 147.168 209.434 147.73 208.02 147.732V147.732Z" fill="black" fill-opacity="0.3"/>
</svg>
