<svg width="147" height="31" viewBox="0 0 147 31" fill="none" xmlns="http://www.w3.org/2000/svg">
<g clip-path="url(#clip0)">
<path d="M102.501 23.5215C103.136 23.5215 103.757 23.7089 104.285 24.0599C104.813 24.411 105.224 24.91 105.467 25.4938C105.71 26.0776 105.774 26.72 105.65 27.3397C105.526 27.9595 105.22 28.5288 104.771 28.9756C104.322 29.4224 103.75 29.7267 103.128 29.85C102.505 29.9732 101.859 29.91 101.273 29.6682C100.686 29.4263 100.185 29.0168 99.8321 28.4914C99.4793 27.966 99.291 27.3483 99.291 26.7164C99.2905 26.2967 99.3731 25.881 99.5343 25.4931C99.6954 25.1053 99.9319 24.7528 100.23 24.4561C100.528 24.1593 100.882 23.924 101.272 23.7636C101.662 23.6032 102.08 23.5209 102.501 23.5215Z" fill="#121619" stroke="url(#paint0_linear)" stroke-width="0.5" stroke-miterlimit="10"/>
<path d="M102.961 18.2143H82.2591C82.8507 20.0684 84.0197 21.6871 85.5969 22.8362C87.1742 23.9853 89.078 24.6052 91.0327 24.6062H93.7844C94.5144 24.6062 95.2145 24.8948 95.7307 25.4085C96.2469 25.9222 96.5368 26.6189 96.5368 27.3454C96.5368 28.0719 96.2469 28.7686 95.7307 29.2823C95.2145 29.796 94.5144 30.0846 93.7844 30.0846H91.0327C88.1293 30.0844 85.2911 29.2274 82.8771 27.622C80.4631 26.0165 78.5816 23.7347 77.4706 21.0652C76.3596 18.3956 76.069 15.4581 76.6356 12.6241C77.2021 9.79017 78.6003 7.18705 80.6534 5.14392C82.7065 3.10079 85.3222 1.70941 88.1698 1.14574C91.0175 0.582069 93.9691 0.871411 96.6516 1.97718C99.334 3.08295 101.627 4.95549 103.24 7.358C104.853 9.76051 105.714 12.5851 105.714 15.4746C105.704 16.1982 105.411 16.8895 104.896 17.4011C104.382 17.9128 103.688 18.2046 102.961 18.2143ZM82.2591 12.7361H99.749C99.1651 10.8829 98.002 9.26355 96.4291 8.11389C94.8562 6.96423 92.9556 6.34427 91.004 6.34427C89.0525 6.34427 87.1519 6.96423 85.579 8.11389C84.0061 9.26355 82.843 10.8829 82.2591 12.7361Z" fill="#121619" stroke="url(#paint1_linear)" stroke-width="0.5" stroke-miterlimit="10"/>
<path d="M143.171 8.86908C142.436 8.87919 141.734 9.17456 141.215 9.69227C140.695 10.21 140.399 10.9091 140.39 11.6407V27.1459C140.39 27.8801 140.683 28.5841 141.205 29.1032C141.726 29.6223 142.434 29.9139 143.171 29.9139C143.909 29.9139 144.617 29.6223 145.138 29.1032C145.66 28.5841 145.953 27.8801 145.953 27.1459V11.6407C145.944 10.9091 145.648 10.21 145.128 9.69227C144.609 9.17456 143.907 8.87919 143.171 8.86908Z" fill="#121619" stroke="url(#paint2_linear)" stroke-width="0.5" stroke-miterlimit="10"/>
<path d="M143.172 0.566532C143.813 0.566442 144.441 0.755772 144.974 1.11058C145.508 1.46538 145.924 1.96973 146.17 2.55983C146.416 3.14993 146.48 3.79928 146.355 4.42576C146.229 5.05223 145.92 5.6277 145.467 6.07938C145.013 6.53105 144.435 6.83865 143.805 6.96327C143.176 7.08789 142.523 7.02393 141.93 6.77948C141.337 6.53503 140.83 6.12108 140.474 5.58997C140.117 5.05886 139.927 4.43444 139.927 3.7957C139.926 3.37147 140.01 2.95126 140.173 2.55919C140.335 2.16711 140.574 1.81086 140.876 1.51087C141.177 1.21088 141.535 0.973045 141.929 0.810996C142.323 0.648946 142.745 0.565871 143.172 0.566532Z" fill="#121619" stroke="url(#paint3_linear)" stroke-width="0.5" stroke-miterlimit="10"/>
<path d="M137.354 15.3027V27.1445C137.354 27.8787 137.061 28.5828 136.54 29.1019C136.018 29.6211 135.31 29.9127 134.573 29.9127C133.835 29.9127 133.127 29.6211 132.606 29.1019C132.084 28.5828 131.791 27.8787 131.791 27.1445V26.7383C133.525 25.3731 134.926 23.6352 135.889 21.6549C136.853 19.6745 137.353 17.503 137.354 15.3027Z" fill="#121619" stroke="url(#paint4_linear)" stroke-width="0.5" stroke-miterlimit="10"/>
<path d="M102.3 6.13095C99.4872 4.61021 96.2508 4.04923 93.0869 4.53396C89.923 5.01869 87.0061 6.5224 84.783 8.8147C84.6409 8.94477 84.5033 9.0817 84.3703 9.22091C83.8988 9.71539 83.4829 10.2594 83.1297 10.8435C83.1275 10.8485 83.1244 10.8532 83.1205 10.8572C82.7646 11.4498 82.4755 12.0796 82.2583 12.7353L81.5429 13.9266L77.3855 20.8482L72.7603 28.5457C72.4855 28.9648 72.1102 29.3092 71.6682 29.5478C71.2262 29.7865 70.7315 29.9119 70.2287 29.9127H70.2172C69.7343 29.9132 69.2594 29.7898 68.8385 29.5543C68.4175 29.3189 68.0647 28.9793 67.814 28.5685L62.7853 20.4192L57.5776 11.9777C57.1823 10.9783 56.6133 10.056 55.8968 9.25286L53.0304 4.60651C52.7219 4.1013 52.5822 3.51183 52.6312 2.92267C52.6802 2.33352 52.9155 1.77496 53.3033 1.32713C56.5107 2.30488 59.2874 4.34142 61.1755 7.10084L61.8932 8.26015L70.192 21.6857L78.2958 8.20766L78.4747 7.9087L78.4816 7.91327C80.3769 4.80855 83.3614 2.51323 86.8583 1.4709C89.6079 0.657026 92.5371 0.664795 95.2823 1.49325C98.0275 2.3217 100.468 3.93434 102.3 6.13095Z" fill="#00172D" stroke="#121619" stroke-width="0.5" stroke-miterlimit="10"/>
<path d="M61.8927 8.26014C61.6702 7.86077 61.431 7.47433 61.1749 7.10083C59.2869 4.34141 56.5101 2.30487 53.3027 1.32712C51.2838 0.716735 49.1564 0.546686 47.0655 0.828566C44.9746 1.11045 42.9694 1.83763 41.1864 2.96055C39.4034 4.08348 37.8847 5.57575 36.7337 7.33566C35.5827 9.09558 34.8264 11.0818 34.5165 13.1589C34.2066 15.236 34.3503 17.3551 34.9378 19.372C35.5253 21.3888 36.5428 23.2559 37.9209 24.8459C39.2991 26.436 41.0055 27.7117 42.9239 28.5861C44.8423 29.4604 46.9275 29.9129 49.0375 29.9127C52.0267 29.9072 54.9432 28.9958 57.399 27.2999C59.8548 25.604 61.7334 23.2039 62.7847 20.4192C63.528 18.4487 63.8331 16.3414 63.6791 14.2422C63.5251 12.1431 62.9156 10.1022 61.8927 8.26014ZM58.2122 15.3027C58.2152 17.5752 57.3659 19.7671 55.8304 21.4492C54.295 23.1313 52.184 24.1825 49.9107 24.3972C47.6374 24.6118 45.3655 23.9744 43.5396 22.6097C41.7137 21.2449 40.4653 19.2511 40.0388 17.0186C39.6123 14.786 40.0384 12.4754 41.2337 10.5391C42.429 8.60272 44.3074 7.18002 46.5012 6.54946C48.695 5.9189 51.0464 6.12587 53.0949 7.12986C55.1435 8.13386 56.7418 9.86259 57.577 11.9777C57.9981 13.0361 58.2138 14.1643 58.2129 15.3027H58.2122Z" fill="#121619" stroke="url(#paint5_linear)" stroke-width="0.5" stroke-miterlimit="10"/>
<path d="M34.3644 29.9134C33.9747 29.9134 33.5887 29.8371 33.2286 29.6886C32.8685 29.5402 32.5412 29.3226 32.2656 29.0484C31.99 28.7741 31.7714 28.4485 31.6222 28.0901C31.473 27.7317 31.3962 27.3476 31.3962 26.9597V10.8323C31.3962 9.57885 30.8959 8.37672 30.0053 7.49038C29.1147 6.60404 27.9067 6.1061 26.6472 6.1061C25.3877 6.1061 24.1798 6.60404 23.2892 7.49038C22.3985 8.37672 21.8982 9.57885 21.8982 10.8323V26.9597C21.8913 27.7386 21.5756 28.4833 21.0197 29.0316C20.4638 29.58 19.7128 29.8877 18.9301 29.8877C18.1474 29.8877 17.3964 29.58 16.8405 29.0316C16.2847 28.4833 15.9689 27.7386 15.962 26.9597V10.8323C15.994 8.03294 17.1338 5.359 19.1342 3.39067C21.1346 1.42235 23.8342 0.31842 26.6472 0.31842C29.4603 0.31842 32.1599 1.42235 34.1603 3.39067C36.1607 5.359 37.3005 8.03294 37.3324 10.8323V26.9597C37.3324 27.7431 37.0197 28.4943 36.4631 29.0483C35.9065 29.6022 35.1516 29.9134 34.3644 29.9134Z" fill="#121619" stroke="url(#paint6_linear)" stroke-width="0.5" stroke-miterlimit="10"/>
<path d="M18.9334 29.9134C18.1463 29.9134 17.3914 29.6022 16.8348 29.0483C16.2781 28.4943 15.9655 27.7431 15.9655 26.9597V10.8323C15.9655 10.2117 15.8426 9.59709 15.604 9.02368C15.3653 8.45027 15.0155 7.92925 14.5745 7.49038C14.1335 7.05151 13.61 6.70338 13.0338 6.46586C12.4576 6.22835 11.8401 6.1061 11.2164 6.1061C10.5928 6.1061 9.97524 6.22835 9.39906 6.46586C8.82288 6.70338 8.29936 7.05151 7.85837 7.49038C7.41738 7.92925 7.06757 8.45027 6.82891 9.02368C6.59025 9.59709 6.46741 10.2117 6.46741 10.8323V26.9597C6.46053 27.7386 6.14479 28.4833 5.58892 29.0316C5.03304 29.58 4.28203 29.8877 3.49933 29.8877C2.71664 29.8877 1.96562 29.58 1.40974 29.0316C0.853868 28.4833 0.538129 27.7386 0.53125 26.9597V10.8323C0.563169 8.03294 1.70298 5.359 3.70337 3.39067C5.70376 1.42235 8.40337 0.31842 11.2164 0.31842C14.0295 0.31842 16.7291 1.42235 18.7295 3.39067C20.7299 5.359 21.8697 8.03294 21.9016 10.8323V26.9597C21.9016 27.3476 21.8248 27.7317 21.6757 28.0901C21.5265 28.4485 21.3079 28.7741 21.0322 29.0484C20.7566 29.3226 20.4294 29.5402 20.0693 29.6886C19.7092 29.8371 19.3232 29.9134 18.9334 29.9134Z" fill="#121619" stroke="white" stroke-width="0.5" stroke-miterlimit="10"/>
<path d="M136.061 9.31673C134.575 6.03588 131.922 3.41812 128.613 1.96759C125.304 0.517061 121.572 0.336329 118.137 1.4602C114.702 2.58407 111.806 4.93307 110.007 8.05483C108.208 11.1766 107.633 14.8503 108.394 18.3686C109.154 21.8869 111.195 25.0008 114.124 27.1108C117.053 29.2208 120.664 30.1776 124.259 29.7969C127.855 29.4163 131.182 27.7251 133.6 25.049C136.018 22.373 137.355 18.9013 137.354 15.3027C137.352 13.2389 136.911 11.199 136.061 9.31673ZM131.791 16.3159C131.531 18.6353 130.388 20.7674 128.598 22.2744C126.807 23.7814 124.505 24.5489 122.163 24.4192C119.822 24.2895 117.619 23.2725 116.008 21.5771C114.396 19.8816 113.498 17.6364 113.498 15.3027C113.498 12.9689 114.396 10.7237 116.008 9.02827C117.619 7.33281 119.822 6.3158 122.163 6.1861C124.505 6.05641 126.807 6.82389 128.598 8.33091C130.388 9.83792 131.531 11.9701 131.791 14.2894C131.868 14.9628 131.868 15.6426 131.791 16.3159Z" fill="#121619" stroke="#121619" stroke-width="0.5" stroke-miterlimit="10"/>
</g>
<defs>
<linearGradient id="paint0_linear" x1="2951.6" y1="813.092" x2="3134.65" y2="813.092" gradientUnits="userSpaceOnUse">
<stop stop-color="white"/>
<stop offset="0.144" stop-color="#FBF6FA"/>
<stop offset="0.383" stop-color="#F1DCEC"/>
<stop offset="0.583" stop-color="#E6C2DE"/>
</linearGradient>
<linearGradient id="paint1_linear" x1="10182.5" y1="2171.91" x2="13956.4" y2="2171.91" gradientUnits="userSpaceOnUse">
<stop stop-color="white"/>
<stop offset="0.144" stop-color="#FBF6FA"/>
<stop offset="0.383" stop-color="#F1DCEC"/>
<stop offset="0.583" stop-color="#E6C2DE"/>
</linearGradient>
<linearGradient id="paint2_linear" x1="3608.52" y1="1933.67" x2="3746.24" y2="1933.67" gradientUnits="userSpaceOnUse">
<stop stop-color="white"/>
<stop offset="0.144" stop-color="#FBF6FA"/>
<stop offset="0.383" stop-color="#F1DCEC"/>
<stop offset="0.583" stop-color="#E6C2DE"/>
</linearGradient>
<linearGradient id="paint3_linear" x1="4173.09" y1="149.92" x2="4360.02" y2="149.92" gradientUnits="userSpaceOnUse">
<stop stop-color="white"/>
<stop offset="0.144" stop-color="#FBF6FA"/>
<stop offset="0.383" stop-color="#F1DCEC"/>
<stop offset="0.583" stop-color="#E6C2DE"/>
</linearGradient>
<linearGradient id="paint4_linear" x1="3391.59" y1="1559.32" x2="3529.33" y2="1559.32" gradientUnits="userSpaceOnUse">
<stop stop-color="white"/>
<stop offset="0.144" stop-color="#FBF6FA"/>
<stop offset="0.383" stop-color="#F1DCEC"/>
<stop offset="0.583" stop-color="#E6C2DE"/>
</linearGradient>
<linearGradient id="paint5_linear" x1="4763.57" y1="2149.62" x2="8537.59" y2="2149.62" gradientUnits="userSpaceOnUse">
<stop stop-color="white"/>
<stop offset="0.144" stop-color="#FBF6FA"/>
<stop offset="0.383" stop-color="#F1DCEC"/>
<stop offset="0.583" stop-color="#E6C2DE"/>
</linearGradient>
<linearGradient id="paint6_linear" x1="1743.78" y1="2144.95" x2="3746.05" y2="2144.95" gradientUnits="userSpaceOnUse">
<stop stop-color="white"/>
<stop offset="0.144" stop-color="#FBF6FA"/>
<stop offset="0.383" stop-color="#F1DCEC"/>
<stop offset="0.583" stop-color="#E6C2DE"/>
</linearGradient>
<clipPath id="clip0">
<rect width="146" height="30" fill="white" transform="translate(0.473877 0.141602)"/>
</clipPath>
</defs>
</svg>
