<svg width="48" height="49" viewBox="0 0 48 49" fill="none" xmlns="http://www.w3.org/2000/svg">
<rect y="0.5" width="48" height="48" rx="14" fill="#4ADE80"/>
<path fill-rule="evenodd" clip-rule="evenodd" d="M14 22.5C14.5523 22.5 15 22.9477 15 23.5V25.5C15 26.0523 14.5523 26.5 14 26.5C13.4477 26.5 13 26.0523 13 25.5V23.5C13 22.9477 13.4477 22.5 14 22.5Z" fill="#171717"/>
<path fill-rule="evenodd" clip-rule="evenodd" d="M19 19.5C19.5523 19.5 20 19.9477 20 20.5V28.5C20 29.0523 19.5523 29.5 19 29.5C18.4477 29.5 18 29.0523 18 28.5V20.5C18 19.9477 18.4477 19.5 19 19.5Z" fill="#171717"/>
<path fill-rule="evenodd" clip-rule="evenodd" d="M24 16.5C24.5523 16.5 25 16.9477 25 17.5V31.5C25 32.0523 24.5523 32.5 24 32.5C23.4477 32.5 23 32.0523 23 31.5V17.5C23 16.9477 23.4477 16.5 24 16.5Z" fill="#171717"/>
<path fill-rule="evenodd" clip-rule="evenodd" d="M29 19.5C29.5523 19.5 30 19.9477 30 20.5V28.5C30 29.0523 29.5523 29.5 29 29.5C28.4477 29.5 28 29.0523 28 28.5V20.5C28 19.9477 28.4477 19.5 29 19.5Z" fill="#171717"/>
<path fill-rule="evenodd" clip-rule="evenodd" d="M34 22.5C34.5523 22.5 35 22.9477 35 23.5V25.5C35 26.0523 34.5523 26.5 34 26.5C33.4477 26.5 33 26.0523 33 25.5V23.5C33 22.9477 33.4477 22.5 34 22.5Z" fill="#171717"/>
</svg>
