<svg width="154" height="24" viewBox="0 0 154 24" fill="none" xmlns="http://www.w3.org/2000/svg">
<path d="M18.4152 6.29324H19.2814L21.7501 3.82477L21.8714 2.77675C20.4571 1.52861 18.748 0.661581 16.9055 0.257549C15.0629 -0.146483 13.1478 -0.0741755 11.341 0.467643C9.53413 1.00946 7.89527 2.0029 6.57918 3.35412C5.2631 4.70534 4.31324 6.36973 3.81934 8.19006C4.09436 8.07734 4.39902 8.05907 4.68556 8.13809L9.62302 7.32393C9.62302 7.32393 9.87423 6.90819 10.0042 6.93417C11.0621 5.7724 12.5241 5.05891 14.091 4.93976C15.6579 4.82061 17.211 5.30481 18.4325 6.29324H18.4152Z" fill="#747474"/>
<path d="M25.2666 8.18981C24.6991 6.10039 23.5341 4.22202 21.9143 2.78516L18.4494 6.24968C19.1715 6.83965 19.7502 7.58589 20.1419 8.4321C20.5335 9.27831 20.7279 10.2024 20.7102 11.1347V11.7496C21.1152 11.7496 21.5162 11.8294 21.8903 11.9843C22.2645 12.1393 22.6044 12.3664 22.8908 12.6527C23.1771 12.939 23.4043 13.279 23.5593 13.6531C23.7142 14.0272 23.794 14.4281 23.794 14.833C23.794 15.2379 23.7142 15.6389 23.5593 16.013C23.4043 16.3871 23.1771 16.727 22.8908 17.0133C22.6044 17.2997 22.2645 17.5268 21.8903 17.6817C21.5162 17.8367 21.1152 17.9165 20.7102 17.9165H14.5428L13.9277 18.5401V22.2384L14.5428 22.8534H20.7102C22.4325 22.8668 24.1133 22.3256 25.5041 21.3097C26.8949 20.2939 27.9217 18.8575 28.4327 17.2129C28.9437 15.5683 28.9118 13.803 28.3416 12.178C27.7714 10.553 26.6932 9.15463 25.2666 8.18981Z" fill="#7D7D7D"/>
<path d="M8.36659 22.8196H14.5341V17.8826H8.36659C7.92719 17.8825 7.49293 17.788 7.09325 17.6055L6.22703 17.874L3.74097 20.3424L3.52441 21.2086C4.91854 22.2612 6.61967 22.8272 8.36659 22.8196Z" fill="#7D7D7D"/>
<path d="M8.36685 6.80474C6.69576 6.81472 5.0695 7.34633 3.71524 8.32532C2.36097 9.30431 1.34632 10.6818 0.812998 12.2654C0.279678 13.8489 0.254325 15.5595 0.740478 17.1582C1.22663 18.7569 2.20001 20.1638 3.52467 21.1825L7.10217 17.6054C6.64754 17.4 6.24954 17.0874 5.9423 16.6944C5.63506 16.3014 5.42776 15.8398 5.33819 15.3491C5.24862 14.8583 5.27945 14.3532 5.42804 13.877C5.57663 13.4009 5.83853 12.9678 6.19129 12.6151C6.54404 12.2624 6.97712 12.0005 7.45334 11.852C7.92957 11.7034 8.43474 11.6726 8.92551 11.7621C9.41627 11.8517 9.87798 12.059 10.271 12.3662C10.664 12.6734 10.9767 13.0713 11.1821 13.5259L14.7596 9.94879C14.0087 8.96726 13.0409 8.17271 11.9319 7.62728C10.8229 7.08185 9.60274 6.80033 8.36685 6.80474Z" fill="#BBBBBB"/>
<path d="M45.2167 19.3726C44.1548 19.3861 43.1012 19.1852 42.1188 18.7819C41.1364 18.3786 40.2456 17.7811 39.4996 17.0254C38.7302 16.3017 38.1196 15.426 37.7065 14.4539C37.2935 13.4817 37.087 12.4344 37.1002 11.3782C37.0875 10.3221 37.2942 9.27493 37.7073 8.30286C38.1203 7.3308 38.7306 6.45505 39.4996 5.73104C40.2419 4.96746 41.1311 4.36202 42.1137 3.95119C43.0962 3.54035 44.1517 3.33263 45.2167 3.34052C46.2314 3.327 47.2387 3.51529 48.18 3.89445C49.1213 4.27361 49.9779 4.83608 50.6999 5.54916L49.158 7.11685C48.1021 6.09651 46.685 5.53594 45.2167 5.55782C44.4551 5.54846 43.6998 5.69764 42.9989 5.99586C42.298 6.29407 41.6668 6.73482 41.1455 7.29008C40.6036 7.82758 40.1762 8.46917 39.8888 9.17621C39.6015 9.88326 39.4603 10.6411 39.4737 11.4042C39.4673 12.1586 39.6119 12.9066 39.899 13.6042C40.1862 14.3018 40.6099 14.935 41.1455 15.4663C42.2182 16.5352 43.6657 17.1433 45.18 17.1611C46.6943 17.1789 48.1558 16.605 49.2533 15.5616C49.9328 14.8176 50.3496 13.8714 50.44 12.868H45.2427V10.6507H52.5969C52.6692 11.0972 52.6982 11.5497 52.6835 12.0018C52.7293 12.9376 52.5847 13.8729 52.2587 14.7513C51.9326 15.6296 51.4318 16.4327 50.7865 17.112C50.069 17.8589 49.2022 18.4463 48.2425 18.8358C47.2828 19.2253 46.2518 19.4082 45.2167 19.3726ZM62.3159 17.9002C61.329 18.8461 60.0146 19.3743 58.6475 19.3743C57.2803 19.3743 55.966 18.8461 54.979 17.9002C54.4878 17.4239 54.1009 16.8508 53.8429 16.2171C53.585 15.5834 53.4615 14.903 53.4805 14.2191C53.4621 13.5353 53.5857 12.8551 53.8437 12.2215C54.1016 11.5879 54.4882 11.0146 54.979 10.5381C55.967 9.59407 57.2809 9.06728 58.6475 9.06728C60.014 9.06728 61.3279 9.59407 62.3159 10.5381C62.8067 11.0146 63.1933 11.5879 63.4513 12.2215C63.7092 12.8551 63.8329 13.5353 63.8145 14.2191C63.8323 14.9037 63.7075 15.5844 63.448 16.2181C63.1885 16.8519 62.8001 17.4247 62.3073 17.9002H62.3159ZM56.5989 16.4537C56.8614 16.7341 57.1786 16.9575 57.531 17.1103C57.8834 17.2631 58.2634 17.3419 58.6475 17.3419C59.0315 17.3419 59.4115 17.2631 59.7639 17.1103C60.1163 16.9575 60.4336 16.7341 60.6961 16.4537C60.9823 16.1579 61.2064 15.8078 61.3552 15.424C61.504 15.0402 61.5744 14.6305 61.5623 14.2191C61.5751 13.8063 61.505 13.3951 61.3562 13.0098C61.2074 12.6245 60.983 12.273 60.6961 11.9758C60.4301 11.6984 60.1107 11.4776 59.7571 11.3268C59.4036 11.176 59.0232 11.0982 58.6388 11.0982C58.2544 11.0982 57.874 11.176 57.5205 11.3268C57.1669 11.4776 56.8475 11.6984 56.5815 11.9758C56.2946 12.273 56.0702 12.6245 55.9214 13.0098C55.7726 13.3951 55.7025 13.8063 55.7153 14.2191C55.7044 14.6312 55.7761 15.0412 55.9264 15.425C56.0767 15.8088 56.3024 16.1586 56.5902 16.4537H56.5989ZM73.5941 17.9002C72.6072 18.8461 71.2928 19.3743 69.9257 19.3743C68.5585 19.3743 67.2442 18.8461 66.2572 17.9002C65.766 17.4239 65.3791 16.8508 65.1211 16.2171C64.8632 15.5834 64.7397 14.903 64.7587 14.2191C64.7403 13.5353 64.8639 12.8551 65.1219 12.2215C65.3798 11.5879 65.7664 11.0146 66.2572 10.5381C67.2442 9.59209 68.5585 9.06396 69.9257 9.06396C71.2928 9.06396 72.6072 9.59209 73.5941 10.5381C74.0849 11.0146 74.4715 11.5879 74.7295 12.2215C74.9874 12.8551 75.1111 13.5353 75.0927 14.2191C75.1116 14.903 74.9882 15.5834 74.7302 16.2171C74.4722 16.8508 74.0854 17.4239 73.5941 17.9002ZM67.8771 16.4537C68.1396 16.7341 68.4568 16.9575 68.8092 17.1103C69.1616 17.2631 69.5416 17.3419 69.9257 17.3419C70.3098 17.3419 70.6897 17.2631 71.0421 17.1103C71.3945 16.9575 71.7118 16.7341 71.9743 16.4537C72.2605 16.1579 72.4846 15.8078 72.6334 15.424C72.7822 15.0402 72.8526 14.6305 72.8405 14.2191C72.8533 13.8063 72.7832 13.3951 72.6344 13.0098C72.4857 12.6245 72.2612 12.273 71.9743 11.9758C71.7083 11.6984 71.3889 11.4776 71.0354 11.3268C70.6818 11.176 70.3014 11.0982 69.917 11.0982C69.5326 11.0982 69.1522 11.176 68.7987 11.3268C68.4451 11.4776 68.1257 11.6984 67.8597 11.9758C67.5728 12.273 67.3484 12.6245 67.1996 13.0098C67.0508 13.3951 66.9807 13.8063 66.9935 14.2191C66.9826 14.6312 67.0543 15.0412 67.2046 15.425C67.3549 15.8088 67.5806 16.1586 67.8684 16.4537H67.8771ZM81.009 23.9977C79.9707 24.0307 78.9526 23.7067 78.1245 23.0796C77.3892 22.5269 76.8101 21.7927 76.444 20.949L78.419 20.1261C78.6339 20.6304 78.9702 21.0737 79.3978 21.4167C79.8555 21.7856 80.4299 21.9791 81.0176 21.9623C81.3903 21.985 81.7635 21.9271 82.1118 21.7926C82.4601 21.6581 82.7753 21.4501 83.0359 21.1828C83.5578 20.5534 83.8155 19.7462 83.7549 18.9309V18.186H83.6769C83.3469 18.578 82.93 18.8878 82.4594 19.0907C81.9888 19.2937 81.4774 19.3843 80.9657 19.3553C80.3153 19.3572 79.6716 19.2243 79.0752 18.9649C78.4788 18.7055 77.9427 18.3253 77.5008 17.8482C77.0212 17.3749 76.6427 16.8093 76.3881 16.1855C76.1335 15.5617 76.0081 14.8928 76.0195 14.2191C76.0076 13.5415 76.1326 12.8685 76.3872 12.2405C76.6417 11.6124 77.0205 11.0422 77.5008 10.5641C77.9416 10.085 78.4773 9.70284 79.0738 9.4419C79.6703 9.18096 80.3146 9.04693 80.9657 9.04832C81.5167 9.04736 82.061 9.16864 82.5595 9.40344C82.9907 9.59173 83.3752 9.87266 83.6856 10.2263H83.7636V9.40344H85.9118V18.6277C85.9683 19.3574 85.8754 20.091 85.6385 20.7835C85.4017 21.476 85.026 22.1129 84.5345 22.6552C84.0663 23.1031 83.5131 23.4526 82.9076 23.6832C82.3021 23.9138 81.6565 24.0207 81.009 23.9977ZM81.1649 17.3459C81.5348 17.354 81.9019 17.2806 82.2403 17.1309C82.5786 16.9812 82.8798 16.7589 83.1226 16.4797C83.657 15.8673 83.9388 15.0747 83.9108 14.2624C83.9429 13.4364 83.6613 12.6288 83.1226 12.0018C82.8802 11.7222 82.579 11.4995 82.2406 11.3498C81.9022 11.2001 81.5349 11.127 81.1649 11.1357C80.7849 11.1279 80.4076 11.2011 80.0581 11.3504C79.7086 11.4998 79.3949 11.7218 79.1379 12.0018C78.5649 12.6063 78.2537 13.4124 78.2717 14.2451C78.2629 14.6535 78.3349 15.0597 78.4836 15.4402C78.6322 15.8207 78.8546 16.1681 79.1379 16.4624C79.3937 16.7451 79.7068 16.9701 80.0563 17.1224C80.4058 17.2747 80.7837 17.3509 81.1649 17.3459ZM89.7318 3.92083V19.0608H87.471V3.92083H89.7318ZM95.934 19.3726C95.2569 19.39 94.5835 19.2674 93.956 19.0126C93.3285 18.7577 92.7604 18.3761 92.2872 17.8915C91.807 17.4105 91.4297 16.8369 91.178 16.2056C90.9264 15.5743 90.8057 14.8985 90.8233 14.2191C90.7977 13.5381 90.9095 12.8589 91.1521 12.222C91.3946 11.5851 91.763 11.0036 92.2352 10.5121C92.6802 10.043 93.2182 9.6721 93.8149 9.42302C94.4116 9.17395 95.0537 9.05222 95.7001 9.06564C96.2945 9.05937 96.884 9.1743 97.4325 9.40344C97.9266 9.60284 98.3769 9.89709 98.7579 10.2696C99.085 10.5853 99.3755 10.9369 99.6241 11.3176C99.8251 11.639 99.9962 11.9782 100.135 12.331L100.369 12.9199L93.4393 15.7695C93.6488 16.251 93.9994 16.6577 94.4447 16.936C94.8901 17.2143 95.4093 17.3512 95.934 17.3285C96.4445 17.3299 96.9466 17.199 97.3914 16.9485C97.8362 16.6981 98.2085 16.3366 98.472 15.8994L100.204 17.0687C99.7623 17.7011 99.1966 18.2374 98.5413 18.645C97.7621 19.1373 96.8555 19.3903 95.934 19.3726ZM93.0408 14.0632L97.6491 12.1491C97.5071 11.8116 97.2532 11.5332 96.9301 11.3609C96.5684 11.1566 96.1588 11.052 95.7434 11.0577C95.0385 11.076 94.3692 11.3717 93.881 11.8806C93.5889 12.1601 93.3621 12.5007 93.2169 12.878C93.0716 13.2553 93.0115 13.66 93.0408 14.0632Z" fill="#5F6368"/>
<path d="M112.21 19.3717C111.249 19.3883 110.294 19.2105 109.403 18.8489C108.512 18.4873 107.703 17.9493 107.025 17.2674C106.347 16.5855 105.814 15.7736 105.457 14.8805C105.101 13.9874 104.929 13.0315 104.951 12.0703C104.929 11.109 105.101 10.1531 105.457 9.26001C105.814 8.36692 106.347 7.55504 107.025 6.8731C107.703 6.19117 108.512 5.65325 109.403 5.29164C110.294 4.93003 111.249 4.75219 112.21 4.76878C113.183 4.73836 114.151 4.92821 115.04 5.32416C115.93 5.72011 116.718 6.31192 117.347 7.05536L116.099 8.26795C115.638 7.68755 115.046 7.22425 114.372 6.91572C113.697 6.60719 112.96 6.46215 112.219 6.49238C111.505 6.47631 110.796 6.6046 110.134 6.86954C109.471 7.13448 108.869 7.5306 108.364 8.03409C107.839 8.56244 107.428 9.19374 107.158 9.88832C106.888 10.5829 106.765 11.3258 106.796 12.0703C106.765 12.8147 106.888 13.5576 107.158 14.2522C107.428 14.9468 107.839 15.5781 108.364 16.1064C108.869 16.6099 109.471 17.006 110.134 17.271C110.796 17.5359 111.505 17.6642 112.219 17.6481C113.047 17.6574 113.866 17.48 114.616 17.1291C115.366 16.7782 116.027 16.2629 116.55 15.6214L117.797 16.8686C117.144 17.6495 116.324 18.274 115.398 18.6962C114.399 19.1571 113.31 19.388 112.21 19.3717Z" fill="#5F6368"/>
<path d="M121.149 19.0603H119.355V5.07227H121.149V19.0603Z" fill="#5F6368"/>
<path d="M124.077 10.6402C125.016 9.70721 126.287 9.18359 127.611 9.18359C128.935 9.18359 130.206 9.70721 131.145 10.6402C131.605 11.1253 131.964 11.6964 132.201 12.3207C132.439 12.945 132.551 13.6102 132.531 14.278C132.551 14.9457 132.439 15.6109 132.201 16.2352C131.964 16.8595 131.605 17.4307 131.145 17.9157C130.206 18.8487 128.935 19.3723 127.611 19.3723C126.287 19.3723 125.016 18.8487 124.077 17.9157C123.617 17.4307 123.258 16.8595 123.02 16.2352C122.783 15.6109 122.671 14.9457 122.691 14.278C122.671 13.6102 122.783 12.945 123.02 12.3207C123.258 11.6964 123.617 11.1253 124.077 10.6402ZM125.411 16.7897C125.693 17.0883 126.034 17.3261 126.411 17.4886C126.789 17.6511 127.196 17.7349 127.607 17.7349C128.018 17.7349 128.424 17.6511 128.802 17.4886C129.18 17.3261 129.52 17.0883 129.802 16.7897C130.116 16.4535 130.359 16.0582 130.518 15.627C130.677 15.1958 130.749 14.7372 130.729 14.278C130.749 13.8187 130.677 13.3602 130.518 12.9289C130.359 12.4977 130.116 12.1024 129.802 11.7662C129.52 11.4676 129.18 11.2298 128.802 11.0673C128.424 10.9048 128.018 10.821 127.607 10.821C127.196 10.821 126.789 10.9048 126.411 11.0673C126.034 11.2298 125.693 11.4676 125.411 11.7662C125.097 12.1024 124.854 12.4977 124.695 12.9289C124.536 13.3602 124.464 13.8187 124.484 14.278C124.466 14.7363 124.54 15.1936 124.701 15.6233C124.861 16.053 125.106 16.4465 125.419 16.7811L125.411 16.7897Z" fill="#5F6368"/>
<path d="M142.467 19.0601H140.734V17.7349H140.682C140.374 18.2383 139.938 18.6507 139.418 18.9302C138.878 19.2429 138.265 19.4072 137.642 19.4066C137.136 19.4412 136.628 19.361 136.157 19.1721C135.686 18.9831 135.264 18.6902 134.922 18.3153C134.266 17.4854 133.936 16.444 133.995 15.3877V9.49805H135.788V15.0586C135.788 16.8428 136.576 17.7349 138.153 17.7349C138.503 17.7459 138.851 17.673 139.167 17.5223C139.484 17.3717 139.76 17.1476 139.972 16.8688C140.437 16.2799 140.684 15.5489 140.674 14.7988V9.49805H142.467V19.0601Z" fill="#5F6368"/>
<path d="M148.556 19.3721C147.948 19.3741 147.347 19.2443 146.793 18.9916C146.24 18.7389 145.748 18.3693 145.351 17.9083C144.453 16.9165 143.972 15.6166 144.009 14.2792C143.972 12.9418 144.453 11.6419 145.351 10.6501C145.748 10.1891 146.24 9.81955 146.793 9.56686C147.347 9.31417 147.948 9.18437 148.556 9.18638C149.238 9.17563 149.911 9.33647 150.514 9.65409C151.044 9.9207 151.493 10.3245 151.813 10.8234H151.891L151.813 9.49819V5.07227H153.606V19.0603H151.874V17.7351H151.796C151.475 18.234 151.027 18.6378 150.497 18.9044C149.899 19.2192 149.232 19.3799 148.556 19.3721ZM148.851 17.7351C149.256 17.741 149.658 17.6606 150.03 17.4994C150.402 17.3381 150.735 17.0996 151.008 16.7997C151.617 16.1062 151.928 15.2006 151.874 14.2792C151.928 13.3579 151.617 12.4523 151.008 11.7588C150.733 11.4572 150.399 11.2163 150.026 11.0515C149.653 10.8866 149.25 10.8015 148.842 10.8015C148.435 10.8015 148.031 10.8866 147.658 11.0515C147.285 11.2163 146.951 11.4572 146.677 11.7588C146.374 12.0999 146.142 12.4973 145.993 12.9284C145.845 13.3594 145.782 13.8155 145.81 14.2706C145.782 14.7256 145.845 15.1818 145.993 15.6128C146.142 16.0438 146.374 16.4413 146.677 16.7823C146.95 17.0876 147.285 17.3307 147.66 17.4951C148.035 17.6594 148.441 17.7413 148.851 17.7351Z" fill="#5F6368"/>
</svg>
