<svg width="508" height="243" viewBox="0 0 508 243" fill="none" xmlns="http://www.w3.org/2000/svg">
<g clip-path="url(#clip0_7_3251)">
<path fill-rule="evenodd" clip-rule="evenodd" d="M270.012 169.315L281.155 151.715C261.656 141.079 248.487 130.442 242.409 124.997C254.818 116.767 267.86 106.764 280.775 96.5073L268.113 77.8937C259.503 86.2509 244.941 98.1531 234.432 106.384C234.684 91.4418 235.318 79.5395 235.318 69.6625L215.818 69.4098C215.818 94.2279 215.058 126.39 215.058 169.569L234.558 169.062C234.558 161.971 234.178 153.36 234.305 142.598C240.509 148.549 259.123 162.478 270.012 169.315ZM144.909 172.734C140.35 148.296 133.513 106.384 128.574 70.0427C120.217 69.5365 107.935 69.7899 99.5776 70.4228C95.7791 100.812 88.1815 140.318 81.977 169.822L102.236 169.949L105.782 151.461L120.85 150.575L124.142 172.987L144.909 172.734ZM399.801 169.062C417.402 169.062 425.507 154.754 425.507 122.212C425.507 94.3546 419.934 71.8152 399.295 71.8152C383.467 71.8152 373.464 84.8578 373.464 119.299C373.464 150.955 380.681 169.062 399.801 169.062ZM479.701 171.088L460.201 119.299L479.954 73.8418L467.165 72.9549L453.49 108.157L441.587 72.1953L428.545 72.7021L446.019 119.426L427.405 168.302L439.941 169.062L452.856 130.442L466.279 171.595L479.701 171.088ZM210.752 162.731C202.269 151.208 196.571 142.092 189.48 127.657C197.964 122.465 202.775 113.348 202.775 101.952C202.775 88.4035 196.824 72.322 168.334 72.322C161.243 72.322 154.532 72.7021 149.593 73.335C150.606 104.104 151.367 136.647 151.367 169.315L170.613 169.062C170.613 156.653 169.98 144.244 169.727 132.215H172.512C178.464 146.65 186.821 162.605 192.139 171.341L210.752 162.731ZM80.8373 141.838C80.8373 129.809 75.0129 122.212 67.0352 118.539C74.126 114.235 78.1785 106.257 78.1785 97.647C78.1785 82.325 68.6817 72.5754 48.2955 72.5754C42.9766 72.5754 31.5805 73.335 26.5156 73.9678C28.1621 102.332 29.3017 139.939 29.6819 169.569C32.8468 169.695 37.0255 169.822 43.6101 169.822C66.529 169.822 80.8373 162.985 80.8373 141.838ZM366.246 144.118C366.246 134.114 360.928 126.01 350.545 121.958C359.535 117.4 363.714 108.79 363.714 98.0264C363.714 77.8937 347.759 72.1953 319.902 73.9678C320.029 105.624 319.775 137.66 318.51 169.822C349.405 172.987 366.246 165.39 366.246 144.118ZM400.182 158.553C390.557 158.553 385.62 144.624 385.62 118.666C385.62 95.4943 390.431 82.1983 398.915 82.1983C408.792 82.1983 413.477 97.5203 413.477 122.845C413.477 146.27 409.298 158.553 400.182 158.553ZM351.558 98.9127C351.558 110.435 345.86 116.387 331.425 116.893C331.678 105.877 332.058 94.8608 332.311 83.9715C345.607 83.8448 351.558 88.783 351.558 98.9127ZM48.675 88.783C56.0192 88.783 59.4376 93.215 59.4376 99.4195C59.4376 107.397 54.1199 111.322 46.0162 111.955C45.7628 103.852 45.5094 96.0005 45.256 89.0364C46.3956 88.9097 47.5353 88.783 48.675 88.783ZM184.162 101.572C184.162 110.309 179.35 115.121 170.613 115.121H169.6C169.474 105.751 169.6 97.0134 169.727 89.4158C170.486 89.2891 171.373 89.2891 172.26 89.2891C179.73 89.2891 184.162 93.8478 184.162 101.572ZM111.607 93.3417H114.772L121.484 133.102L105.402 134.621L111.607 93.3417ZM277.357 125.124C287.36 119.932 297.869 114.235 307.494 108.79C306.48 106.637 304.201 102.205 302.808 99.9263C292.931 105.877 283.054 111.448 272.925 116.893C273.938 119.299 276.217 123.478 277.357 125.124ZM354.09 144.118C354.09 155.894 347.633 160.705 330.665 159.945C330.792 149.056 331.046 138.039 331.298 127.023C346.493 127.529 354.09 133.354 354.09 144.118ZM51.2071 127.529C59.4376 127.529 62.097 133.988 62.097 140.065C62.097 148.929 56.652 152.981 47.7887 153.108C47.4086 145.51 47.0291 137.027 46.649 128.29C48.2955 127.783 49.8147 127.529 51.2071 127.529ZM282.548 137.28C289.386 139.432 296.983 141.585 304.454 143.358C305.087 140.952 306.1 136.647 306.607 133.988C299.643 132.341 291.918 130.442 285.08 128.416C284.448 130.189 282.928 135.38 282.548 137.28Z" fill="black"/>
</g>
<defs>
<clipPath id="clip0_7_3251">
<rect width="455" height="103.577" fill="white" transform="translate(26.5156 69.4098)"/>
</clipPath>
</defs>
</svg>
