<svg width="435" height="132" viewBox="0 0 435 132" fill="none" xmlns="http://www.w3.org/2000/svg">
<g clip-path="url(#clip0_504_8)">
<path d="M269.403 102.652C244.204 121.227 207.678 131.137 176.231 131.137C132.136 131.137 92.4397 114.828 62.4078 87.7026C60.0483 85.5696 62.1624 82.6627 64.9938 84.3237C97.4041 103.181 137.478 114.526 178.873 114.526C206.791 114.526 237.503 108.749 265.741 96.7631C270.007 94.951 273.575 99.5568 269.403 102.652Z" fill="white"/>
<path d="M279.88 90.6661C276.671 86.5511 258.588 88.7219 250.471 89.6846C247.998 89.9866 247.621 87.8347 249.848 86.2869C264.25 76.1504 287.883 79.0762 290.639 82.4739C293.395 85.8905 289.922 109.58 276.388 120.887C274.311 122.623 272.329 121.699 273.254 119.396C276.293 111.807 283.108 94.8 279.88 90.6661Z" fill="white"/>
<path d="M251.038 14.7276V4.87421C251.038 3.383 252.17 2.38257 253.53 2.38257H297.643C299.059 2.38257 300.191 3.40188 300.191 4.87421V13.3118C300.172 14.7276 298.983 16.5774 296.869 19.5032L274.01 52.14C282.504 51.9324 291.471 53.1971 299.172 57.5386C300.909 58.5202 301.381 59.9548 301.513 61.3705V71.8845C301.513 73.3191 299.927 74.999 298.266 74.1307C284.694 67.0144 266.667 66.2405 251.661 74.2062C250.132 75.0368 248.527 73.3757 248.527 71.9411V61.9556C248.527 60.3512 248.546 57.6141 250.151 55.1791L276.634 17.2003H253.586C252.17 17.2003 251.038 16.1999 251.038 14.7276Z" fill="white"/>
<path d="M90.117 76.2072H76.6961C75.4125 76.1128 74.3932 75.1501 74.2988 73.9231V5.04417C74.2988 3.66621 75.4503 2.57138 76.8849 2.57138H89.3997C90.7022 2.62798 91.7404 3.62844 91.8348 4.87427V13.8782H92.0802C95.3457 5.17629 101.48 1.11792 109.748 1.11792C118.148 1.11792 123.396 5.17629 127.171 13.8782C130.418 5.17629 137.798 1.11792 145.707 1.11792C151.332 1.11792 157.486 3.43968 161.242 8.64949C165.489 14.4445 164.621 22.8632 164.621 30.2438L164.602 73.7155C164.602 75.0935 163.451 76.2072 162.016 76.2072H148.614C147.274 76.1128 146.198 75.0368 146.198 73.7155V37.2091C146.198 34.3022 146.462 27.0537 145.82 24.2978C144.82 19.6732 141.819 18.3707 137.93 18.3707C134.684 18.3707 131.286 20.5415 129.908 24.0147C128.53 27.4879 128.662 33.3017 128.662 37.2091V73.7155C128.662 75.0935 127.511 76.2072 126.076 76.2072H112.674C111.315 76.1128 110.258 75.0368 110.258 73.7155L110.239 37.2091C110.239 29.5265 111.504 18.2197 101.971 18.2197C92.3255 18.2197 92.7031 29.2433 92.7031 37.2091V73.7155C92.7031 75.0935 91.5516 76.2072 90.117 76.2072Z" fill="white"/>
<path d="M338.171 1.11792C358.085 1.11792 368.863 18.2197 368.863 39.965C368.863 60.9741 356.952 77.6417 338.171 77.6417C318.615 77.6417 307.969 60.54 307.969 39.2288C307.969 17.7855 318.747 1.11792 338.171 1.11792ZM338.284 15.1806C328.393 15.1806 327.77 28.6582 327.77 37.0581C327.77 45.4768 327.638 63.4469 338.171 63.4469C348.571 63.4469 349.062 48.95 349.062 40.116C349.062 34.3022 348.817 27.3557 347.061 21.8439C345.551 17.0494 342.55 15.1806 338.284 15.1806Z" fill="white"/>
<path d="M394.686 76.2072H381.322C379.982 76.1128 378.906 75.0368 378.906 73.7155L378.887 4.81764C379 3.55294 380.114 2.57138 381.473 2.57138H393.912C395.082 2.62798 396.045 3.42081 396.309 4.49675V15.0296H396.555C400.311 5.61044 405.578 1.11792 414.846 1.11792C420.867 1.11792 426.738 3.28868 430.513 9.23465C434.024 14.7465 434.024 24.0147 434.024 30.6779V74.0364C433.873 75.2445 432.759 76.2072 431.438 76.2072H417.979C416.752 76.1128 415.733 75.2067 415.601 74.0364V36.6239C415.601 29.0924 416.469 18.0687 407.201 18.0687C403.935 18.0687 400.934 20.2583 399.443 23.5805C397.555 27.7899 397.31 31.9804 397.31 36.6239V73.7155C397.291 75.0935 396.121 76.2072 394.686 76.2072Z" fill="white"/>
<path d="M215.87 43.3061V40.3992C206.167 40.3992 195.918 42.4755 195.918 53.9145C195.918 59.7094 198.919 63.6357 204.072 63.6357C207.847 63.6357 211.226 61.3139 213.359 57.5387C216.002 52.8952 215.87 48.5348 215.87 43.3061ZM229.404 76.0184C228.517 76.8112 227.233 76.8678 226.233 76.3393C221.778 72.6396 220.985 70.9219 218.531 67.392C211.17 74.9047 205.96 77.151 196.408 77.151C185.12 77.151 176.324 70.1857 176.324 56.2362C176.324 45.3447 182.232 37.9264 190.632 34.3022C197.919 31.0932 208.093 30.527 215.87 29.6398V27.9032C215.87 24.7131 216.115 20.9379 214.246 18.182C212.604 15.7092 209.471 14.6899 206.715 14.6899C201.599 14.6899 197.031 17.3137 195.918 22.75C195.691 23.9581 194.804 25.1473 193.596 25.2039L180.571 23.807C179.477 23.5617 178.268 22.6745 178.57 20.9945C181.572 5.21407 195.823 0.457275 208.584 0.457275C215.115 0.457275 223.647 2.19388 228.8 7.13942C235.331 13.2364 234.708 21.372 234.708 30.2249V51.1397C234.708 57.4254 237.313 60.1813 239.767 63.5791C240.635 64.7871 240.824 66.2406 239.729 67.1466C236.992 69.4307 232.122 73.6778 229.442 76.0562L229.404 76.0184Z" fill="white"/>
<path d="M39.9263 43.3061V40.3992C30.224 40.3992 19.9743 42.4755 19.9743 53.9145C19.9743 59.7094 22.9756 63.6357 28.1288 63.6357C31.904 63.6357 35.2828 61.3139 37.4158 57.5387C40.0585 52.8952 39.9263 48.5348 39.9263 43.3061ZM53.4605 76.0184C52.5734 76.8112 51.2898 76.8678 50.2893 76.3393C45.8346 72.6396 45.0418 70.9219 42.5879 67.392C35.2262 74.9047 30.0164 77.151 20.4651 77.151C9.17712 77.151 0.380859 70.1857 0.380859 56.2362C0.380859 45.3447 6.28909 37.9264 14.689 34.3022C21.9751 31.0932 32.1494 30.527 39.9263 29.6398V27.9032C39.9263 24.7131 40.1717 20.9379 38.303 18.182C36.6608 15.7092 33.5273 14.6899 30.7714 14.6899C25.656 14.6899 21.088 17.3137 19.9743 22.75C19.7478 23.9581 18.8606 25.1473 17.6525 25.2039L4.62799 23.807C3.53317 23.5617 2.3251 22.6745 2.62712 20.9945C5.62842 5.21407 19.8799 0.457275 32.6402 0.457275C39.1713 0.457275 47.7033 2.19388 52.8565 7.13942C59.3876 13.2364 58.7647 21.372 58.7647 30.2249V51.1397C58.7647 57.4254 61.3696 60.1813 63.8235 63.5791C64.6918 64.7871 64.8806 66.2406 63.7858 67.1466C61.0487 69.4307 56.1787 73.6778 53.4983 76.0562L53.4605 76.0184Z" fill="white"/>
</g>
<defs>
<clipPath id="clip0_504_8">
<rect width="434.16" height="131.04" fill="white" transform="translate(0.119141 0.280029)"/>
</clipPath>
</defs>
</svg>
