<svg width="48" height="49" viewBox="0 0 48 49" fill="none" xmlns="http://www.w3.org/2000/svg">
<path fill-rule="evenodd" clip-rule="evenodd" d="M16.5 21.0801C18.9853 21.0801 21 19.0654 21 16.5801C21 14.0948 18.9853 12.0801 16.5 12.0801C14.0147 12.0801 12 14.0948 12 16.5801C12 19.0654 14.0147 21.0801 16.5 21.0801ZM28.7888 23.3491C29.3494 22.3399 30.7923 22.3159 31.3862 23.3059L37.7137 33.8518C38.14 34.5622 39.0614 34.7925 39.7717 34.3663C40.4821 33.9401 40.7125 33.0187 40.2862 32.3083L33.9587 21.7624C32.1768 18.7925 27.8483 18.8646 26.1663 21.8922L23.3605 26.9427C22.8425 27.8751 21.5442 27.9841 20.8779 27.1512L19.9666 26.012C18.1881 23.789 14.8182 23.7552 12.9957 25.9423L7.84771 32.1198C7.31736 32.7562 7.40334 33.7021 8.03976 34.2324C8.67617 34.7628 9.62202 34.6768 10.1524 34.0404L15.3003 27.8629C15.9078 27.1338 17.0311 27.1451 17.6239 27.8861L18.5353 29.0253C20.5342 31.524 24.4289 31.1968 25.9829 28.3996L28.7888 23.3491Z" fill="#F59E0B"/>
</svg>
