<svg width="363" height="232" viewBox="0 0 363 232" fill="none" xmlns="http://www.w3.org/2000/svg">
<rect width="362.731" height="231.498" fill="#CEB8FF"/>
<path fill-rule="evenodd" clip-rule="evenodd" d="M149.381 126.409H160.042V131.74H149.381C147.968 131.74 146.612 131.178 145.612 130.179C144.612 129.179 144.051 127.823 144.051 126.409V83.7651C144.051 82.3514 144.612 80.9955 145.612 79.9958C146.612 78.9962 147.968 78.4346 149.381 78.4346H192.026C193.439 78.4346 194.795 78.9962 195.795 79.9958C196.795 80.9955 197.356 82.3514 197.356 83.7651V94.4262H192.026V83.7651H149.381V126.409ZM168.038 118.414H173.369V99.7567H181.365V94.4262H160.042V99.7567H168.038V118.414ZM217.444 109.778L208.657 100.991C207.864 100.2 206.791 99.7567 205.672 99.7567C204.553 99.7567 203.479 100.2 202.687 100.991L165.373 138.316V153.062H180.119L217.444 115.748C218.235 114.956 218.678 113.882 218.678 112.763C218.678 111.644 218.235 110.571 217.444 109.778ZM177.911 147.732H170.703V140.524L195.866 115.362L203.073 122.569L177.911 147.732ZM206.842 118.8L199.635 111.593L205.678 105.55L212.885 112.758L206.842 118.8Z" fill="black" fill-opacity="0.3"/>
</svg>
