<svg width="12" height="12" viewBox="0 0 12 12" fill="none" xmlns="http://www.w3.org/2000/svg">
<path fill-rule="evenodd" clip-rule="evenodd" d="M2.25 9.75H9.75V2.25H2.25V9.75ZM2.25 1.5H9.75C9.94891 1.5 10.1397 1.57902 10.2803 1.71967C10.421 1.86032 10.5 2.05109 10.5 2.25V9.75C10.5 9.94891 10.421 10.1397 10.2803 10.2803C10.1397 10.421 9.94891 10.5 9.75 10.5H2.25C2.05109 10.5 1.86032 10.421 1.71967 10.2803C1.57902 10.1397 1.5 9.94891 1.5 9.75V2.25C1.5 2.05109 1.57902 1.86032 1.71967 1.71967C1.86032 1.57902 2.05109 1.5 2.25 1.5ZM8.25 5.25V6H6.375V6.75H8.25V7.5H6.375V8.25H7.5V9H4.5V8.25H5.625V7.5H3.75V6.75H5.625V6H3.75V5.25H5.625V4.5H4.5V3.75H5.625V3H6.375V3.75H7.5V4.5H6.375V5.25H8.25Z" fill="#C2410C"/>
</svg>
