<svg width="86" height="30" viewBox="0 0 86 30" fill="none" xmlns="http://www.w3.org/2000/svg">
<path d="M36.8655 15.7426C36.8655 19.8125 33.6905 22.8115 29.7941 22.8115C25.8976 22.8115 22.7227 19.8125 22.7227 15.7426C22.7227 11.6441 25.8976 8.67383 29.7941 8.67383C33.6905 8.67383 36.8655 11.6441 36.8655 15.7426ZM33.77 15.7426C33.77 13.1994 31.9298 11.4593 29.7941 11.4593C27.6583 11.4593 25.8182 13.1994 25.8182 15.7426C25.8182 18.2604 27.6583 20.026 29.7941 20.026C31.9298 20.026 33.77 18.2572 33.77 15.7426Z" fill="#FAFAFA"/>
<path d="M52.1209 15.7426C52.1209 19.8125 48.9459 22.8115 45.0494 22.8115C41.153 22.8115 37.978 19.8125 37.978 15.7426C37.978 11.6473 41.153 8.67383 45.0494 8.67383C48.9459 8.67383 52.1209 11.6441 52.1209 15.7426ZM49.0253 15.7426C49.0253 13.1994 47.1852 11.4593 45.0494 11.4593C42.9137 11.4593 41.0736 13.1994 41.0736 15.7426C41.0736 18.2604 42.9137 20.026 45.0494 20.026C47.1852 20.026 49.0253 18.2572 49.0253 15.7426Z" fill="#FAFAFA"/>
<path d="M66.7406 9.10089V21.7916C66.7406 27.012 63.6705 29.1441 60.041 29.1441C56.6245 29.1441 54.5682 26.8526 53.7928 24.9786L56.4879 23.8536C56.9678 25.0041 58.1437 26.3618 60.0379 26.3618C62.3611 26.3618 63.8008 24.9245 63.8008 22.2187V21.202H63.6928C62.9999 22.0593 61.6651 22.8083 59.9807 22.8083C56.4561 22.8083 53.2271 19.7296 53.2271 15.7681C53.2271 11.778 56.4561 8.67383 59.9807 8.67383C61.6619 8.67383 62.9967 9.42278 63.6928 10.2546H63.8008V9.10408H66.7406V9.10089ZM64.0201 15.7681C64.0201 13.2791 62.3643 11.4593 60.2572 11.4593C58.1214 11.4593 56.3321 13.2791 56.3321 15.7681C56.3321 18.2317 58.1214 20.026 60.2572 20.026C62.3643 20.026 64.0201 18.2317 64.0201 15.7681Z" fill="#FAFAFA"/>
<path d="M71.5873 1.66284V22.3785H68.568V1.66284H71.5873Z" fill="#FAFAFA"/>
<path d="M83.3529 18.0694L85.7556 19.6756C84.9801 20.8261 83.1114 22.8085 79.8824 22.8085C75.8779 22.8085 72.8872 19.7043 72.8872 15.7397C72.8872 11.536 75.9033 8.67084 79.5359 8.67084C83.194 8.67084 84.9833 11.5901 85.5681 13.1677L85.8891 13.9709L76.4658 17.8845C77.1873 19.3027 78.3092 20.0262 79.8824 20.0262C81.4587 20.0262 82.552 19.2486 83.3529 18.0694ZM75.9573 15.5261L82.2564 12.9032C81.91 12.0204 80.8676 11.4053 79.6408 11.4053C78.0676 11.4053 75.8779 12.798 75.9573 15.5261Z" fill="#FAFAFA"/>
<path d="M11.2942 13.9037V10.9047H21.3722C21.4707 11.4274 21.5215 12.0457 21.5215 12.7149C21.5215 14.965 20.9082 17.7472 18.9313 19.7296C17.0085 21.7374 14.5518 22.8082 11.2974 22.8082C5.26522 22.8082 0.192871 17.8811 0.192871 11.8321C0.192871 5.78315 5.26522 0.856018 11.2974 0.856018C14.6345 0.856018 17.0117 2.16907 18.7979 3.8805L16.6876 5.99669C15.4068 4.79199 13.6715 3.85501 11.2942 3.85501C6.88927 3.85501 3.44414 7.41491 3.44414 11.8321C3.44414 16.2493 6.88927 19.8092 11.2942 19.8092C14.1514 19.8092 15.7786 18.6587 16.821 17.6134C17.6664 16.7656 18.2226 15.5546 18.4419 13.9005L11.2942 13.9037Z" fill="#FAFAFA"/>
</svg>
