<svg width="4967" height="753" viewBox="0 0 4967 753" fill="none" xmlns="http://www.w3.org/2000/svg">
<path d="M386.858 529.27C378.444 521.73 367.669 524.028 345.662 535.033C320.861 547.425 277.013 563.822 240.253 563.822C215.443 563.822 198.164 564.264 171.595 554.957C55.1122 514.208 0.622559 424.285 0.622559 286.976C0.622559 162.952 87.7794 49.9947 172.479 17.6518C196.838 8.35282 216.769 6.143 242.454 6.143C292.957 6.143 347.429 31.83 359.839 38.9191C372.23 46.0082 388.184 46.8833 394.821 43.7895C401.468 40.6869 403.678 42.0217 411.208 27.8434H420.073C421.841 46.4413 421.399 178.889 420.073 195.728H408.548C393.938 146.997 378.567 105.744 346.537 69.4853C306.224 23.8569 263.454 17.3424 220.755 26.9595C189.308 34.0398 165.841 61.0615 152.99 99.6096C141.695 133.491 128.622 215.227 128.622 283.882C128.622 346.774 131.132 415.791 143.683 459.74C156.084 503.141 170.057 524.222 210.122 540.345C244.222 554.09 293.788 548.716 338.564 503.141C387.724 453.084 406.329 371.586 406.329 371.586H418.297C420.073 391.527 416.529 532.814 414.31 552.738H402.352C398.808 543.89 394.565 536.155 386.858 529.27ZM657.936 521.244C648.046 532.947 634.231 539.841 617.623 539.841C582.641 539.841 567.58 508.541 567.58 473.396C567.58 460.111 567.535 432.7 568.923 422.014C572.609 393.268 590.171 376.916 623.395 373.283C642.884 371.144 662.806 370.622 675.215 371.073V353.792C607.892 355.56 563.735 363.551 537.025 371.515C490.958 385.251 464.345 416.083 458.185 448.585C451.538 483.579 461.72 514.588 480.767 530.092C510.986 554.691 541.886 562.426 580.422 562.426C627.823 562.426 660.588 539.833 678.309 524.337C678.309 524.337 694.139 542.944 699.566 547.355C711.515 557.105 733.665 565.078 751.828 565.078C770.424 565.078 792.406 557.396 802.764 547.355C816.941 533.627 829.784 513.695 834.654 493.32L823.579 490.218C820.477 500.401 813.83 516.355 804.09 522.994C796.542 528.138 788.225 526.061 781.95 513.695C778.838 507.605 778.838 495.972 778.838 485.338V300.208C778.838 282.494 768.612 263.472 763.786 256.357C755.363 243.955 737.059 225.083 691.593 212.514C649.955 200.987 603.455 201.871 572.008 209.411C542.743 216.403 488.289 239.527 488.289 290.909C488.289 320.159 513.992 339.632 538.351 339.632C562.701 339.632 588.836 320.159 588.836 291.802C588.836 263.446 564.486 251.053 553.853 247.058C543.229 243.071 552.581 234.771 554.295 233.781C564.928 227.585 578.654 219.17 611.436 219.17C652.615 219.17 675.215 228.469 675.215 282.954V353.827V371.108V476.057C675.215 488.803 668.648 508.568 657.936 521.244ZM974.241 342.275C974.241 285.571 998.609 248.728 1021.62 239.5C1023.84 238.625 1026.05 240.826 1025.62 243.036C1024.64 247.906 1017.65 252.361 1017.65 273.169C1017.65 301.508 1042.45 327.204 1073.45 327.204C1102.24 327.204 1128.38 300.191 1128.38 271.834C1128.38 237.29 1107.1 209.376 1065.03 209.376C1014.1 209.376 990.186 243.937 981.763 253.67C978.687 257.241 975.116 259 975.116 251.902V200.077C968.098 207.184 948.98 219.568 929.933 219.568H823.632V232.853H872.359V541.6H820.981V554.886H1029.15V541.6H974.241V342.275V342.275ZM1300.39 286.667C1312.77 261.899 1338.28 237.061 1369.04 237.061C1397.39 237.061 1411.11 259.194 1411.11 279.136V541.353H1366.83V554.859H1557.28V541.353H1516.97V308.376C1516.97 281.911 1507.67 257.32 1489.95 240.163C1473.6 224.314 1439.89 209.597 1410.23 209.597C1384.53 209.597 1358.98 218.595 1336.26 232.614C1319.25 243.115 1304.29 256.878 1293.74 269.837C1289.76 274.707 1286.21 273.593 1286.21 267.397V200.059C1279.17 207.166 1260.06 219.55 1241.02 219.55H1141.81V232.835H1181.68V541.565H1139.16V554.868H1330.5V541.565H1286.21V342.239C1286.22 323.88 1292.86 301.729 1300.39 286.667ZM1675.66 354.764C1676.11 338.818 1676.55 310.471 1676.99 285.226C1677.24 271.021 1678.45 250.249 1684.52 240.49C1691.68 229.008 1704.45 221.892 1721.29 221.892C1737.24 221.892 1747.29 228.354 1754.07 240.941C1759.26 250.585 1762.06 268.387 1762.03 283.467C1761.97 310.93 1762.92 340.162 1762.92 354.773H1675.66L1673.44 372.045H1882.5C1883.39 363.188 1883.5 343.715 1876.29 321.113C1868.77 297.486 1846.05 262.261 1825.81 244.477C1800.12 221.892 1762.91 207.263 1722.16 207.263C1686.72 207.263 1652.96 220.425 1619.41 248.03C1579.56 280.797 1556.52 336.167 1556.52 391.536C1556.52 438.039 1571.89 483.8 1607 519.538C1632.71 545.684 1684.79 564.282 1731.03 564.282C1777.53 564.282 1819.99 546.586 1849.29 510.247C1867.95 487.062 1878.96 461.075 1886.49 430.95L1871.87 426.964C1860.36 461.516 1846.91 485.294 1829.34 504.926C1810.75 525.734 1776.64 542.131 1748.74 542.131C1722.6 542.131 1704 531.948 1691.15 512.015C1679.31 493.621 1676.98 473.909 1675.21 452.66C1673.43 431.401 1673.43 405.696 1673.43 372.036L1675.66 354.764ZM2549.2 351.901C2549.66 335.946 2550.11 307.607 2550.54 282.362C2550.78 268.148 2552 247.385 2558.07 237.609C2565.2 226.135 2578.01 219.02 2594.83 219.02C2610.79 219.02 2620.83 225.481 2627.6 238.05C2632.8 247.712 2635.6 265.514 2635.58 280.585C2635.51 308.049 2636.45 337.28 2636.45 351.892H2549.2L2547 369.164H2756.05C2756.93 360.307 2757.05 340.834 2749.84 318.232C2742.32 294.604 2719.6 259.389 2699.36 241.604C2673.67 219.011 2636.45 204.391 2595.72 204.391C2560.27 204.391 2526.51 217.543 2492.94 245.14C2453.09 277.916 2430.07 333.285 2430.07 388.654C2430.07 435.167 2445.42 480.928 2480.55 516.665C2506.27 542.811 2558.35 561.409 2604.57 561.409C2651.08 561.409 2693.53 543.713 2722.82 507.375C2741.49 484.198 2752.49 458.202 2760.04 428.086L2745.41 424.1C2733.91 458.644 2720.46 482.421 2702.89 502.045C2684.3 522.87 2650.19 539.258 2622.28 539.258C2596.16 539.258 2577.54 529.084 2564.7 509.143C2552.86 490.757 2550.53 471.045 2548.75 449.787C2546.99 428.519 2546.99 402.832 2546.99 369.164L2549.2 351.901ZM1943.2 575.888C1931.25 581.651 1915.49 592.347 1906.45 600.709C1894.01 612.164 1882.08 632.159 1882.08 651.641C1882.08 675.56 1893.6 700.372 1916.63 718.094C1947.35 741.713 1988.54 752.196 2034.47 752.196C2070.11 752.196 2108.98 741.907 2134.56 724.291C2162.49 705.065 2181.22 681.632 2193.92 650.315C2200.35 634.457 2205.87 603.802 2205.87 582.102C2205.87 562.611 2200.13 540.018 2192.15 524.514C2184.54 509.726 2171.87 498.535 2155.82 491.729C2141.22 485.542 2122.61 482.43 2100.9 482.43H1971.13C1954.28 482.43 1939.97 478.24 1933.92 470.029C1927.72 461.614 1928.6 451.864 1935.69 443.891C1944.06 434.486 1963.08 425.081 1978.67 423.516C1987.53 422.624 1995.06 422.624 2001.69 423.516C2012.31 424.94 2020.73 429.713 2045.53 429.713C2070.34 429.713 2104.81 421.156 2125.71 408.905C2158.92 389.414 2177.98 355.754 2177.98 321.184C2177.98 294.622 2164.24 264.056 2146.53 245.007C2151.69 238.245 2167.71 221.38 2176.19 217.985C2180.62 216.209 2182.84 219.762 2180.18 222.856C2173.65 230.475 2169.87 245.511 2176.64 259.176C2183.43 272.851 2195.52 281.77 2213.4 281.77C2232.89 281.77 2248.4 265.832 2248.4 246.333C2248.4 231.713 2240.84 219.241 2227.59 210.012C2219.8 204.594 2209.87 201.597 2199.24 201.597C2187.27 201.597 2175.31 206.477 2166.9 210.896C2158.48 215.334 2146.53 226.4 2136.77 236.592C2113.31 219.771 2084.08 207.352 2048.19 207.352L2049.53 217.985C2069.9 217.985 2078.76 227.735 2084.08 239.686C2089.61 252.158 2089.83 263.861 2089.83 284.863V351.317C2089.83 369.915 2087.87 381.238 2082.3 394.285C2076.36 408.198 2063.26 416.878 2044.66 416.878C2026.05 416.878 2013.2 407.561 2007.01 391.624C2001.39 377.207 2002.58 352.201 2002.58 352.201V285.332C2002.58 285.332 2001.25 257.417 2009.67 239.695C2013.72 231.174 2025.26 217.994 2049.53 217.994L2048.19 207.361C2010.11 207.361 1981.32 218.887 1956.49 237.043C1933.5 253.908 1913.54 285.774 1913.54 318.09C1913.54 350.442 1929.65 387.231 1964.48 407.128C1967.59 408.905 1969.35 412.883 1964.93 414.226C1921.05 427.388 1898.47 459.404 1898.47 498.818C1898.47 529.738 1917.38 556.945 1943.2 575.888L1961.82 582.093C1961.82 582.093 2103.55 582.093 2113.31 582.093C2131.91 582.093 2143.32 583.525 2154.94 590.066C2170.77 598.985 2176.19 612.209 2176.19 628.155C2176.19 651.19 2162.47 679.537 2145.2 697.26C2122.46 720.578 2084.51 738.451 2042 738.451C2002.14 738.451 1970.99 725.767 1949.41 704.34C1934.5 689.517 1929.03 669.797 1929.03 646.753C1929.03 618.856 1942.34 597.155 1961.82 582.093L1943.2 575.888ZM2394.77 200.077C2387.75 207.184 2368.64 219.568 2349.6 219.568H2249.49V232.853H2292.01V541.6H2247.72V554.886H2434.64V541.6H2394.77V200.077ZM2340.29 140.924C2373.5 140.924 2400.43 114 2400.43 80.7819C2400.43 47.5639 2373.51 20.6394 2340.29 20.6394C2307.07 20.6394 2280.16 47.5639 2280.16 80.7819C2280.16 114 2307.08 140.924 2340.29 140.924ZM3472.66 538.595H3419.09V36.6032H3473.49V20.7101H3294.56L3167.64 385.79L3035.07 20.7013H2843.74V36.6562H2900.96V478.868C2900.96 509.425 2891.79 517.752 2886.24 524.134C2879.64 531.692 2871.27 537.596 2852.2 537.596H2841.57V554.47H2988.27V538.206H2978.87C2961.16 538.206 2946.98 535.767 2936.29 524.311C2928.13 515.551 2920.98 490.713 2920.98 473.441V53.0884L3102.99 554.488H3127.34L3299.05 56.7214L3299.02 538.595H3240.88V554.488L3472.68 554.479V538.595H3472.66ZM3583.25 369.119H3792.3C3793.21 360.262 3793.31 340.79 3786.1 318.179C3778.57 294.551 3755.84 259.336 3735.6 241.542C3709.93 218.949 3672.72 204.329 3631.95 204.329C3596.52 204.329 3562.76 217.49 3529.2 245.095C3489.34 277.871 3466.32 333.25 3466.32 388.61C3466.32 435.114 3481.67 480.875 3516.8 516.612C3542.52 542.758 3594.58 561.365 3640.81 561.365C3687.34 561.365 3729.79 543.66 3759.09 507.322C3777.75 484.154 3788.76 458.149 3796.28 428.024L3781.68 424.047C3770.15 458.582 3756.71 482.368 3739.16 502C3720.54 522.817 3686.44 539.205 3658.54 539.205C3632.4 539.205 3613.81 529.022 3600.95 509.09C3589.1 490.704 3586.77 470.992 3585.01 449.725C3583.25 428.475 3583.25 402.771 3583.25 369.119L3585.46 351.847C3585.9 335.893 3586.33 307.545 3586.78 282.309C3587.04 268.095 3588.23 247.323 3594.33 237.556C3601.46 226.073 3614.25 218.949 3631.09 218.949C3647.02 218.949 3657.08 225.41 3663.86 238.006C3669.04 247.65 3671.85 265.461 3671.83 280.523C3671.77 307.987 3672.72 337.227 3672.72 351.847H3585.46L3583.25 369.119ZM3795.72 34.3492L3833.39 34.3315V540.177L3788.27 540.195L3788.29 554.585H3980.44V540.301H3936.61V0.0527344C3929.62 7.19488 3910.59 19.6848 3891.55 19.782L3795.74 19.7643L3795.72 34.3492ZM4006.1 34.3492L4043.77 34.3315V540.177L3998.63 540.195L3998.67 554.585H4190.82V540.301H4146.99V0.0527344C4140.02 7.19488 4120.96 19.6848 4101.92 19.782L4006.13 19.7643L4006.1 34.3492ZM4369.04 220.947C4403.67 220.947 4431.75 234.188 4431.75 324.826V439.993C4431.75 530.649 4403.67 546.542 4369.04 546.542C4334.41 546.542 4306.34 530.649 4306.34 439.993V324.826C4306.34 234.179 4334.41 220.947 4369.04 220.947L4367.75 207.882C4272.54 207.882 4188.78 290.273 4188.78 382.423C4188.78 481.652 4263.08 561.365 4367.75 561.365C4470.02 561.365 4545.52 479.611 4545.52 380.381C4545.52 283.502 4465.27 207.882 4367.75 207.882L4369.04 220.947ZM4709.5 286.605C4721.9 261.819 4747.41 236.99 4778.16 236.99C4806.53 236.99 4820.24 259.132 4820.24 279.074V541.291H4775.95V554.806H4966.42V541.291H4926.09V308.305C4926.09 281.831 4916.8 257.249 4899.07 240.084C4882.73 224.252 4849.03 209.526 4819.36 209.526C4793.65 209.526 4768.11 218.525 4745.36 232.552C4728.38 243.036 4713.4 256.807 4702.85 269.757C4698.87 274.636 4695.31 273.531 4695.31 267.326V199.997C4688.29 207.095 4669.18 219.488 4650.14 219.488H4550.92V232.773H4590.8V541.512H4548.26V554.815H4739.59V541.512H4695.3V342.177C4695.33 323.8 4701.98 301.658 4709.5 286.605Z" fill="#C41230"/>
</svg>
