<svg width="2337" height="491" viewBox="0 0 2337 491" fill="none" xmlns="http://www.w3.org/2000/svg">
<path d="M1277.57 51.6262C1296.51 18.8254 1334.66 1.5342 1371.62 1.20561C1405.34 -0.974051 1443.49 4.63757 1467.11 31.2973C1455.1 47.1391 1443.62 63.3059 1431.61 79.144C1418.21 63.7695 1407.19 42.1226 1385.54 37.7633C1364.22 31.1659 1337.43 42.2541 1331.89 65.0876C1322.91 101.32 1328.32 139.2 1327 176.159H1396.23V217.408H1326.93C1326.93 279.578 1326.93 341.744 1326.87 403.913C1326.61 421.533 1329.44 438.956 1332.74 456.247C1348.58 463.571 1365.68 467.335 1383.16 467.664C1383.1 471.954 1383.03 480.6 1382.97 484.955C1326.34 481.26 1269.65 480.136 1213.09 484.889C1213.09 481.26 1213.22 473.998 1213.22 470.369C1231.11 467.2 1253.28 458.887 1254.01 437.371C1260.94 364.314 1256.25 290.728 1257.64 217.408C1243.84 217.408 1230.05 217.408 1216.26 217.343C1216.32 211.136 1216.45 204.871 1216.52 198.668C1230.51 192.198 1244.17 185.005 1257.63 177.612C1257.63 135.242 1255.13 89.4399 1277.57 51.6262H1277.57ZM2298.32 1.13989C2261.7 9.58471 2224.6 16.7115 2186.99 18.3618C2186.59 21.7937 2185.86 28.6577 2185.53 32.0896C2199.52 36.3102 2222.36 35.193 2223.35 54.726C2228.96 94.3286 2225 134.512 2226.12 174.37C2172.2 165.133 2111.95 165.728 2066.08 199.321C2015.86 234.495 1998.64 300.1 2003.65 358.575C2006.49 403.913 2029.19 450.442 2070.3 472.549C2119.27 499.475 2181.91 493.929 2227.77 462.91C2228.1 472.085 2228.3 481.257 2228.36 490.432C2263.87 481.392 2300.17 476.31 2336.67 474.196V458.354C2284.94 449.544 2299.25 425.608 2295.62 384.906C2295.68 257.007 2293.7 129.039 2298.32 1.14719V1.13989ZM2164.14 207.39C2185.98 207.156 2208.2 214.133 2226.13 226.309C2226.19 295.142 2225.99 363.975 2226.25 432.811C2187.85 450.431 2135.91 449.175 2105.81 416.575C2080.01 388.988 2075.65 348.6 2077.96 312.565C2080.54 279.764 2087.41 242.279 2116.04 221.946C2130.39 212.103 2147.16 207.561 2164.14 207.383L2164.14 207.39ZM121.239 43.1778C164.73 40.5381 208.353 43.3749 251.384 49.4466C248.81 80.0677 249.073 110.89 251.45 141.511C247.287 141.511 238.974 141.576 234.819 141.576C231.519 122.438 228.087 99.2064 207.692 90.6922C177.465 77.9538 142.09 76.7015 110.743 85.8071C69.7601 97.9504 63.0276 158.269 93.5173 184.604C131.663 218 178.389 239.844 217.459 272.247C278.635 320.951 270.654 434.334 198.057 468.453C136.946 496.701 65.2073 489.574 2.11394 471.819C2.50825 441.479 1.38739 411.139 0 380.835C4.55282 380.77 13.7278 380.572 18.3464 380.507C21.5812 399.58 24.5531 423.005 43.8889 432.84C78.4678 452.242 123.08 453.827 158.987 437.13C203.8 412.38 195.549 340.842 153.639 316.753C117.274 288.749 75.4995 268.048 41.9064 236.43C4.68426 201.848 0.0657189 141.262 24.0237 98.0344C43.6224 63.5833 83.1557 46.3615 121.236 43.1924L121.239 43.1778ZM379.341 108.053C382.773 108.25 389.703 108.579 393.135 108.776C393.069 131.81 393.069 154.779 393.069 177.809H498.664V217.408H393.069C393.467 272.845 392.211 328.348 393.664 383.851C395.117 404.972 395.709 431.303 415.443 444.239C440.324 459.026 470.087 449.785 494.969 440.084C502.625 458.825 483.158 469.318 469.627 477.105C437.882 492.484 399.144 494.134 366.344 481.333C338.296 470.837 324.766 440.15 323.313 412.037C319.946 347.228 323.313 282.291 323.842 217.416H282.589L282.388 204.48C327.205 187.583 357.428 148.973 379.341 108.056V108.053ZM661.93 167.338C614.354 166.852 566.368 190.486 551.082 238.263C555.236 240.636 563.685 245.32 567.909 247.697C586.19 215.422 628.889 198.861 662.544 217.474C688.941 229.486 691.19 261.754 690.664 287.033C649.152 300.363 606.187 310.86 566.985 330.396C519.997 355.212 513.925 425.56 547.584 463.64C587.249 500.005 653.442 494.127 692.639 459.745C704.585 483.367 732.833 492.414 757.445 485.485C778.894 481.322 793.082 463.443 807.142 448.328C804.696 445.553 799.753 439.945 797.31 437.105C788.467 439.35 778.5 446.342 769.855 439.551C758.635 431.825 760.019 416.316 759.23 404.373C760.019 353.161 762.856 301.816 760.15 250.541C758.832 224.009 746.952 196.882 723.457 182.957C705.104 172.771 683.559 167.564 661.93 167.342V167.338ZM689.934 327.027C690.197 361.54 689.934 396.056 690.2 430.57C668.09 440.405 641.824 449.515 618.527 438.229C590.016 423.048 591.206 377.648 614.766 358.575C637.403 343 664.26 335.672 689.934 327.027V327.027Z" fill="#8C1515"/>
<path d="M1571.51 168.638C1536.73 169.033 1500.83 177.678 1473.64 200.314C1433.18 233.05 1415.63 287.165 1417.41 337.98C1417.21 381.471 1430.74 427.868 1464.99 456.777C1505.45 492.02 1564.25 495.514 1614.61 485.021C1667.73 473.338 1707.66 426.813 1718.95 374.676C1731.09 320.561 1726.01 257.668 1688.78 213.98C1660.14 180.457 1614.28 167.78 1571.51 168.638H1571.51ZM1571.97 205.576C1590.67 205.941 1609.16 213.615 1621.14 228.497C1642.85 255.091 1648.66 290.863 1650.24 324.256C1650.51 360.62 1645.89 399.883 1622.99 429.58C1600.48 458.683 1551.98 461.918 1526.04 435.714C1506.18 417.306 1498.78 389.919 1494.29 364.18C1489.61 329.995 1490.8 294.42 1501.56 261.487C1509.08 239.446 1523.73 217.138 1546.96 209.614C1554.98 206.758 1563.46 205.387 1571.98 205.568L1571.97 205.576ZM831.958 189.624C868.856 189.029 906.275 185.203 940.328 169.956C941.515 178.733 942.438 187.51 943.165 196.419C982.3 170.814 1032.85 160.847 1077.66 176.689C1109.74 187.445 1132.17 218.858 1135.02 252.119C1141.61 315.413 1132.04 379.561 1140.49 442.72C1141.42 462.582 1162.8 467.073 1178.31 470.308C1178.37 474.002 1178.37 481.392 1178.44 485.091C1126.04 480.928 1021.11 484.89 1021.11 484.89L1020.91 469.928C1020.91 469.928 1058.76 459.285 1061.17 448.394C1069.81 401.405 1067.77 352.832 1067.3 305.117C1065.59 276.606 1066.31 240.969 1039.06 223.612C1009.82 206.78 973.987 214.572 944.092 225.459C944.289 287.234 944.092 349.068 944.092 410.843C944.95 427.346 943.764 446.152 954.52 459.877C963.559 466.149 974.91 467.27 985.272 470.172C985.338 473.871 985.404 481.326 985.404 485.087C933.727 481.724 881.923 479.545 830.312 485.021C830.312 481.326 830.443 474.002 830.443 470.37C846.15 466.741 866.873 461.79 869.841 442.786C877.034 397.251 871.492 350.722 873.208 304.788C872.55 278.585 875.453 252.057 870.834 226.182C867.202 208.496 845.62 209.486 832.024 205.992C832.024 201.899 831.958 193.713 831.958 189.621V189.624ZM1754.17 188.237C1791.13 187.708 1828.09 182.691 1863.2 170.88L1864.19 198.069C1899.7 169.493 1953.22 162.234 1991.03 190.548L1951.6 250.728C1933.19 222.352 1895.84 215.488 1866.34 229.939C1866.34 229.939 1866.14 354.87 1866.53 417.302C1868.05 431.227 1865.88 449.311 1878.94 458.416C1891.55 465.81 1906.86 465.412 1920.91 467.653C1920.91 471.947 1920.85 480.658 1920.85 484.948C1864.16 481.118 1807.34 480.326 1750.64 484.817L1750.63 467.657C1768.91 464.539 1787.93 458.219 1790.7 447.328C1798.56 420.467 1794.73 392.022 1795.52 364.369C1794.73 320.349 1797.11 276.263 1794.46 232.312C1794.27 210.932 1770.04 209.019 1754.34 205.915C1754.37 199.854 1754.23 193.629 1754.21 188.23L1754.17 188.237Z" fill="#8C1515"/>
</svg>
