<svg width="181" height="39" viewBox="0 0 181 39" fill="none" xmlns="http://www.w3.org/2000/svg">
<g clip-path="url(#clip0_48_331)">
<path d="M17.4837 19.0846C17.4837 18.2972 16.8369 17.6504 16.0495 17.6504H1.94659C1.15919 17.6504 0.51239 18.2972 0.51239 19.0846C0.51239 19.872 1.15919 20.5188 1.94659 20.5188H16.0495C16.8369 20.5188 17.4837 19.872 17.4837 19.0846Z" fill="black"/>
<path d="M10.1018 10.1286H16.0355C16.8229 10.1286 17.4697 9.48185 17.4697 8.69445C17.4697 7.90705 16.8229 7.26025 16.0355 7.26025H10.1018C9.31443 7.26025 8.66763 7.90705 8.66763 8.69445C8.66763 9.48185 9.31443 10.1286 10.1018 10.1286Z" fill="black"/>
<path d="M17.4697 29.4474C17.4697 28.66 16.8229 28.0132 16.0355 28.0132H10.1018C9.31443 28.0132 8.66763 28.66 8.66763 29.4474C8.66763 30.2348 9.31443 30.8816 10.1018 30.8816H16.0355C16.8229 30.8816 17.4697 30.2348 17.4697 29.4474Z" fill="black"/>
<path d="M38.1952 20.9548C38.0968 19.5206 37.436 18.241 36.4376 17.3271C37.0141 16.7928 37.4781 16.146 37.7875 15.3867C38.6311 13.3479 38.1671 11.0138 36.6064 9.43899C36.3955 9.24214 36.1705 9.07341 35.9315 8.90468C35.819 8.75001 35.6784 8.6094 35.4956 8.51098C35.2003 8.34225 34.8769 8.20164 34.5535 8.08915C33.7942 5.54416 32.0929 3.3788 29.7588 2.05709C26.3561 0.130762 22.0675 0.313552 18.8476 2.50703L18.8195 2.53515C18.8195 2.53515 18.7914 2.56327 18.7773 2.56327C18.0743 2.31018 17.3291 2.14145 16.5417 2.14145H15.0934C14.306 2.14145 13.6592 2.78825 13.6592 3.57565C13.6592 4.36305 14.306 5.00985 15.0934 5.00985H16.5417C18.5945 5.00985 20.2537 6.66902 20.2537 8.72189C20.2537 10.7748 18.5945 12.4339 16.5417 12.4339H5.03996C4.25255 12.4339 3.60576 13.0807 3.60576 13.8681C3.60576 14.6555 4.25255 15.3023 5.03996 15.3023H16.5417C16.7807 15.3023 17.0619 15.3586 17.3572 15.4289C19.0304 15.8085 20.2537 17.3271 20.2537 19.0565C20.2537 21.1094 18.5945 22.7686 16.5417 22.7686H5.03996C4.25255 22.7686 3.60576 23.4154 3.60576 24.2028C3.60576 24.9902 4.25255 25.637 5.03996 25.637H16.5417C18.5945 25.637 20.2537 27.2962 20.2537 29.349C20.2537 31.4019 18.5945 33.0611 16.5417 33.0611H15.0934C14.306 33.0611 13.6592 33.7079 13.6592 34.4953C13.6592 35.2827 14.306 35.9295 15.0934 35.9295H16.5417C17.7228 35.9295 18.8195 35.592 19.7897 35.0436C20.8161 36.52 22.5034 37.3777 24.247 37.3777C24.9078 37.3777 25.5687 37.2652 26.2155 37.0121C27.7621 36.4216 28.887 35.1842 29.4073 33.7219C30.4618 34.1578 31.6289 34.2703 32.7818 33.9891C35.0175 33.4407 36.6767 31.5425 36.9157 29.2506C37.0423 27.9851 36.7189 26.7197 36.0299 25.6792C37.4641 24.5965 38.3218 22.8389 38.1952 20.9548ZM28.3527 4.5599C29.7307 5.34731 30.8133 6.54247 31.4601 7.94855C30.9821 8.07509 30.504 8.25788 30.0541 8.51098C29.5619 8.79219 29.126 9.14371 28.7605 9.55147C28.2965 9.04529 27.7481 8.62346 27.1154 8.32819C25.8358 7.70951 24.3735 7.63921 23.0518 8.07509C22.9112 6.64089 22.3206 5.36137 21.4067 4.34899C23.5861 3.29443 26.2155 3.35068 28.3527 4.5599ZM32.1069 31.205C31.0664 31.4581 29.9556 31.0363 29.351 30.1364C29.2948 30.0521 29.2385 29.9677 29.1682 29.8974C29.0276 29.7427 28.8448 29.6302 28.662 29.5599C28.4652 29.4896 28.2683 29.4475 28.0434 29.4615C27.8746 29.4615 27.72 29.5178 27.5653 29.5881C27.4106 29.6584 27.27 29.7568 27.1575 29.8693C27.0029 30.0099 26.8904 30.1927 26.8201 30.3895C26.7498 30.5864 26.7076 30.7973 26.7357 31.0082C26.7357 31.1066 26.7638 31.205 26.792 31.3035C27.1154 32.5689 26.4404 33.8766 25.2172 34.3547C23.9798 34.8327 22.6018 34.2984 21.9972 33.1314C22.7284 32.0628 23.1643 30.7832 23.1643 29.3912C23.1643 27.3102 22.1941 25.4542 20.6755 24.245C21.6598 23.4576 22.405 22.403 22.8128 21.1938C22.9534 21.1375 23.094 21.0672 23.2205 20.9548C23.3611 20.8282 23.5017 20.7298 23.6564 20.6314C24.3735 20.2236 25.2593 20.1814 26.0186 20.5329C26.7779 20.8844 27.3122 21.5734 27.4669 22.3889C27.4669 22.3889 27.4669 22.403 27.4669 22.4171C27.959 24.7652 29.9556 26.5228 32.346 26.7197C32.3881 26.7197 32.4303 26.7197 32.4866 26.7337C32.5991 26.7337 32.6975 26.7337 32.81 26.7337C32.9084 26.7337 33.0068 26.7056 33.1052 26.7056C33.7942 27.2399 34.1879 28.0976 34.1036 28.9834C33.9911 30.0661 33.2037 30.966 32.1491 31.2332L32.1069 31.205ZM33.5271 23.781C33.5271 23.781 33.4146 23.781 33.3583 23.781C33.1474 23.8231 32.9365 23.8513 32.7397 23.8372C32.7115 23.8372 32.6834 23.8372 32.6412 23.8372C31.4883 23.7669 30.5181 22.9373 30.265 21.7984C29.9275 20.083 28.7886 18.6207 27.1997 17.8895C25.8639 17.2708 24.3594 17.2708 23.0096 17.777C22.7003 16.2163 21.8566 14.8524 20.6474 13.8962C21.4489 13.2495 22.0957 12.4339 22.5315 11.4778C22.7565 11.4356 22.9674 11.3653 23.1502 11.2106C23.9236 10.592 24.9922 10.4795 25.878 10.9013C26.7638 11.3231 27.3403 12.2371 27.3403 13.2213C27.3403 14.0087 27.9871 14.6555 28.7745 14.6555C29.5619 14.6555 30.2087 14.0087 30.2087 13.2213C30.2087 12.3074 30.7008 11.4497 31.5023 10.9857C31.9241 10.7326 32.4163 10.6342 32.8803 10.6482C32.9084 10.6482 32.9224 10.6763 32.9365 10.6904C33.0209 10.7185 33.1193 10.7466 33.2037 10.7607C33.738 10.8451 34.216 11.0982 34.5816 11.4637C35.3268 12.209 35.5377 13.3057 35.144 14.2759C34.7503 15.2461 33.8083 15.8648 32.7537 15.8648C31.9663 15.8648 31.3195 16.5116 31.3195 17.299C31.3195 18.0864 31.9663 18.7332 32.7537 18.7332C34.1036 18.7332 35.2284 19.7877 35.3268 21.1375C35.4112 22.3327 34.6379 23.4154 33.513 23.7669L33.5271 23.781Z" fill="black"/>
<path d="M53.3105 13.4321H49.486V30.6003H53.3105V13.4321Z" fill="black"/>
<path d="M53.3105 7.31641H49.486V10.8316H53.3105V7.31641Z" fill="black"/>
<path d="M67.7931 14.2763C67.7931 14.2763 67.6807 14.1779 67.6244 14.1357C66.5136 13.3483 65.1497 12.9546 63.5187 12.9546C61.8876 12.9546 60.4956 13.3483 59.2864 14.1357C58.0912 14.9231 57.1632 16.0058 56.5164 17.3556C55.8696 18.7195 55.5462 20.2662 55.5462 22.0098C55.5462 23.7533 55.8696 25.2719 56.5164 26.6357C57.1632 27.9996 58.0772 29.0823 59.2442 29.8838C60.4253 30.6852 61.8033 31.0789 63.3781 31.0789C65.0513 31.0789 66.4574 30.6852 67.5963 29.8838C67.8353 29.7151 68.0603 29.5182 68.2853 29.3214V30.5868H71.6739V7.70996H67.8072V14.2763H67.7931ZM67.8353 24.9485C67.5401 25.7921 67.076 26.453 66.4574 26.931C65.8246 27.395 64.9951 27.6341 63.9686 27.6341C62.9422 27.6341 62.1548 27.381 61.508 26.8888C60.8612 26.3967 60.3831 25.7218 60.0738 24.8641C59.7644 24.0064 59.6098 23.0643 59.6098 22.0098C59.6098 20.9552 59.7644 20.0272 60.0878 19.1695C60.4112 18.3118 60.9034 17.6369 61.5642 17.1307C62.2251 16.6245 63.0828 16.3714 64.1092 16.3714C65.0794 16.3714 65.8809 16.6104 66.4996 17.0744C67.1182 17.5384 67.5682 18.1993 67.8635 19.0429C68.1587 19.8866 68.2993 20.8708 68.2993 21.9957C68.2993 23.1206 68.1587 24.0907 67.8635 24.9344L67.8353 24.9485Z" fill="black"/>
<path d="M86.6346 14.206C85.3832 13.3764 83.8787 12.9546 82.0929 12.9546C80.4056 12.9546 78.9293 13.3342 77.6357 14.0935C76.3421 14.8528 75.3578 15.9355 74.6267 17.3134C73.9096 18.6914 73.544 20.3224 73.544 22.2066C73.544 23.9501 73.9096 25.4827 74.6548 26.8185C75.386 28.1543 76.4124 29.1948 77.7341 29.9541C79.0417 30.6993 80.5744 31.0789 82.3179 31.0789C84.0614 31.0789 85.4816 30.643 86.8595 29.7853C88.2375 28.9276 89.2499 27.7184 89.8967 26.1717L86.1143 25.0328C85.7487 25.8202 85.2144 26.4389 84.5395 26.8466C83.8505 27.2684 83.0491 27.4794 82.107 27.4794C80.6447 27.4794 79.5339 27.0013 78.7746 26.0452C78.17 25.2999 77.8185 24.3016 77.6919 23.0783H90.1076C90.2622 21.0255 90.0232 19.2398 89.4186 17.7212C88.814 16.2026 87.886 15.0356 86.6486 14.206H86.6346ZM82.2476 16.3011C83.6396 16.3011 84.652 16.7369 85.2988 17.5946C85.7628 18.1993 86.044 19.071 86.1846 20.1818H77.7763C77.9591 19.1976 78.2684 18.382 78.7465 17.7634C79.5058 16.7932 80.6728 16.3151 82.2476 16.3151V16.3011Z" fill="black"/>
<path d="M104.154 14.1077C102.875 13.3344 101.37 12.9407 99.6408 12.9407C97.9113 12.9407 96.4771 13.3203 95.1835 14.0796C93.8899 14.8389 92.9057 15.9075 92.1745 17.2573C91.4574 18.6072 91.0918 20.196 91.0918 21.9958C91.0918 23.7956 91.4433 25.3282 92.1464 26.6921C92.8494 28.056 93.8477 29.1246 95.1273 29.898C96.4068 30.6713 97.9113 31.0509 99.6267 31.0509C101.342 31.0509 102.847 30.6713 104.126 29.898C105.406 29.1246 106.404 28.0701 107.121 26.7062C107.838 25.3423 108.19 23.7675 108.19 21.9958C108.19 20.2241 107.838 18.6634 107.121 17.2995C106.418 15.9356 105.42 14.867 104.14 14.0937L104.154 14.1077ZM103.043 25.9469C102.298 26.9593 101.173 27.4654 99.6408 27.4654C98.1082 27.4654 97.0536 26.9733 96.2943 25.975C95.535 24.9767 95.1554 23.655 95.1554 21.9958C95.1554 20.9131 95.3101 19.9711 95.6335 19.1415C95.9569 18.3119 96.4349 17.6792 97.1098 17.2151C97.7707 16.7511 98.6143 16.5262 99.6408 16.5262C101.145 16.5262 102.27 17.0183 103.029 18.0166C103.775 19.0149 104.154 20.3366 104.154 21.9958C104.154 23.655 103.789 24.9204 103.043 25.9328V25.9469Z" fill="black"/>
<path d="M121.885 14.67C121.674 14.4872 121.463 14.3044 121.238 14.1357C120.127 13.3483 118.763 12.9546 117.132 12.9546C115.501 12.9546 114.109 13.3483 112.9 14.1357C111.705 14.9231 110.777 16.0058 110.13 17.3556C109.483 18.7195 109.16 20.2662 109.16 22.0097C109.16 23.7533 109.483 25.2718 110.13 26.6357C110.777 27.9996 111.691 29.0823 112.858 29.8837C114.039 30.6852 115.417 31.0789 116.992 31.0789C118.665 31.0789 120.071 30.6852 121.21 29.8837C121.28 29.8275 121.351 29.7713 121.421 29.715V31.3601C121.449 32.1757 121.28 32.8506 120.943 33.3989C120.591 33.9473 120.113 34.3551 119.495 34.6363C118.876 34.9175 118.159 35.0581 117.371 35.0581C116.696 35.0581 116.05 34.9034 115.459 34.6082C114.855 34.3129 114.391 33.8489 114.067 33.2162L110.538 34.9597C110.988 35.7471 111.55 36.4079 112.253 36.9704C112.956 37.5328 113.744 37.9546 114.615 38.2499C115.487 38.5452 116.401 38.6998 117.357 38.6998C118.651 38.6998 119.832 38.5311 120.887 38.1796C121.955 37.8281 122.841 37.2938 123.558 36.5767C124.275 35.8596 124.767 34.9456 125.02 33.8348C125.105 33.4552 125.161 33.0615 125.203 32.6678C125.245 32.2741 125.259 31.8523 125.259 31.4164V13.4327H121.913V14.67H121.885ZM120.071 26.931C119.438 27.395 118.609 27.634 117.582 27.634C116.556 27.634 115.768 27.3809 115.122 26.8888C114.475 26.3967 113.997 25.7218 113.687 24.8641C113.378 24.0064 113.223 23.0643 113.223 22.0097C113.223 20.9552 113.378 20.0272 113.702 19.1694C114.025 18.3117 114.517 17.6368 115.178 17.1306C115.839 16.6244 116.696 16.3714 117.723 16.3714C118.693 16.3714 119.495 16.6104 120.113 17.0744C120.732 17.5384 121.182 18.1993 121.477 19.0429C121.772 19.8865 121.913 20.8708 121.913 21.9957C121.913 23.1205 121.772 24.0907 121.477 24.9344C121.182 25.778 120.718 26.4389 120.099 26.9169L120.071 26.931Z" fill="black"/>
<path d="M136.185 13.3624C135.65 13.4046 135.116 13.503 134.61 13.6577C134.09 13.8264 133.626 14.0514 133.204 14.3326C132.712 14.642 132.276 15.0357 131.924 15.4997C131.756 15.7106 131.615 15.9496 131.488 16.1746V13.4187H128.1V30.5869H131.938V21.8551C131.938 21.1943 132.023 20.5897 132.177 20.0132C132.332 19.4508 132.585 18.9446 132.923 18.4946C133.26 18.0447 133.682 17.6791 134.216 17.3979C134.751 17.0745 135.341 16.8917 136.002 16.8355C136.663 16.7792 137.253 16.8355 137.76 16.9761V13.4046C137.253 13.3203 136.733 13.2921 136.185 13.3343V13.3624Z" fill="black"/>
<path d="M152.312 16.1464C151.75 15.0075 150.892 14.1919 149.725 13.6998C148.558 13.2077 147.222 12.9546 145.69 12.9546C143.665 12.9546 142.062 13.3905 140.867 14.2763C139.672 15.1621 138.87 16.3151 138.448 17.7774L141.95 18.8742C142.231 17.9883 142.737 17.3697 143.454 17.0182C144.171 16.6526 144.916 16.4838 145.69 16.4838C146.969 16.4838 147.883 16.7651 148.418 17.3275C148.868 17.7915 149.107 18.4805 149.177 19.3804C148.502 19.4788 147.799 19.5913 147.166 19.6756C146.083 19.8303 145.071 19.999 144.143 20.1818C143.215 20.3646 142.414 20.5615 141.725 20.7864C140.811 21.0958 140.065 21.4895 139.503 21.9675C138.927 22.4456 138.505 23.0221 138.238 23.683C137.956 24.3438 137.83 25.089 137.83 25.9186C137.83 26.8607 138.055 27.7184 138.491 28.5058C138.927 29.2932 139.573 29.9119 140.431 30.3899C141.289 30.868 142.343 31.093 143.581 31.093C145.127 31.093 146.421 30.7977 147.447 30.2212C148.249 29.7713 148.966 29.1245 149.599 28.2949V30.6149H152.945V20.0834C152.945 19.3382 152.917 18.6492 152.847 18.0305C152.776 17.3978 152.594 16.7791 152.284 16.1745L152.312 16.1464ZM148.783 25.1734C148.657 25.5671 148.403 25.9889 148.038 26.4248C147.672 26.8747 147.18 27.2403 146.562 27.5497C145.943 27.859 145.212 28.0137 144.34 28.0137C143.735 28.0137 143.229 27.9152 142.821 27.7325C142.414 27.5356 142.104 27.2825 141.893 26.9591C141.682 26.6357 141.57 26.2561 141.57 25.8342C141.57 25.4687 141.654 25.1453 141.823 24.8641C141.992 24.5828 142.217 24.3438 142.526 24.1329C142.835 23.922 143.215 23.7392 143.651 23.5705C144.101 23.4158 144.635 23.2893 145.226 23.1627C145.816 23.0362 146.533 22.9096 147.349 22.769C147.869 22.6846 148.488 22.5862 149.135 22.4737C149.135 22.769 149.121 23.0924 149.107 23.472C149.078 24.1048 148.966 24.6672 148.769 25.1453L148.783 25.1734Z" fill="black"/>
<path d="M178.437 14.7121C177.425 13.5732 175.977 13.0107 174.078 13.0107C172.94 13.0107 171.899 13.2638 170.957 13.77C170.071 14.2481 169.382 14.923 168.834 15.7667C168.412 14.9652 167.821 14.3184 167.048 13.8263C166.19 13.2779 165.108 13.0107 163.828 13.0107C162.661 13.0107 161.607 13.2638 160.679 13.7841C159.933 14.1918 159.357 14.7402 158.865 15.387V13.4466H155.476V30.6148H159.343V20.0411C159.343 18.9725 159.638 18.1007 160.229 17.4399C160.819 16.779 161.592 16.4416 162.577 16.4416C163.561 16.4416 164.377 16.779 164.967 17.4399C165.544 18.1007 165.839 19.0428 165.839 20.238V30.6148H169.649V20.0411C169.649 19.2959 169.79 18.635 170.085 18.1007C170.38 17.5664 170.76 17.1446 171.252 16.8634C171.744 16.5822 172.293 16.4416 172.911 16.4416C173.91 16.4416 174.697 16.779 175.274 17.4399C175.85 18.1007 176.145 19.0147 176.145 20.1958V30.6148H179.97V19.2256C179.97 17.3696 179.464 15.8791 178.451 14.7402L178.437 14.7121Z" fill="black"/>
</g>
<defs>
<clipPath id="clip0_48_331">
<rect width="180" height="38.4002" fill="white" transform="translate(0.51239 0.299805)"/>
</clipPath>
</defs>
</svg>
