<svg width="242" height="37" viewBox="0 0 242 37" fill="none" xmlns="http://www.w3.org/2000/svg">
<g clip-path="url(#clip0_318_203849)">
<path d="M39.2745 36.9953C38.8205 36.824 28.1051 32.8378 22.8337 23.1776C17.7436 13.85 19.6077 3.95338 19.6077 3.95338C19.8199 2.83609 19.9556 1.85061 19.9112 1.77054C19.8668 1.69047 19.3585 2.43574 18.7824 3.42245L10.5626 17.5136L8.46537 21.1019L0.246804 35.1931C-0.328076 36.1785 0.135776 36.9903 1.2806 36.9953C1.2806 36.9953 39.3017 37.0051 39.2745 36.9953Z" fill="#002B49"/>
<path d="M22.2341 0.0598491C22.0463 -0.0256763 21.8294 -0.019245 21.647 0.0772557C21.4645 0.173756 21.3374 0.349381 21.3027 0.552589C21.1942 1.01946 18.6825 12.2047 23.8095 21.9424C25.28 24.7338 27.2057 27.0743 29.2154 28.9997C31.0843 30.9214 33.4098 32.8024 36.2385 34.2277C37.4622 34.9466 38.7338 35.5808 40.0443 36.1259C40.2321 36.2099 40.4482 36.2027 40.63 36.1065C40.8117 36.0102 40.9389 35.8355 40.9745 35.6332L22.2341 0.0598491Z" fill="#5594FF"/>
<path d="M67.2346 9.9502L58.8828 27.8859H62.4974L63.7483 25.198C64.1343 25.3816 64.5325 25.5385 64.94 25.6674C65.6953 25.9077 66.4827 26.0323 67.2753 26.0369C68.4119 26.0344 69.5322 25.767 70.547 25.2559L71.7362 27.8872H75.3372L67.2346 9.9502ZM66.0602 22.6924C65.7287 22.5936 65.4066 22.4654 65.0979 22.3093L67.1951 17.8168L69.243 22.3463C68.2781 22.908 67.1197 23.0338 66.0565 22.6924H66.0602Z" fill="#002B49"/>
<path d="M58.21 26.5804C57.4027 27.1071 56.5189 27.5064 55.5898 27.7642C53.3374 28.4089 50.9382 28.3226 48.7381 27.5178C47.6241 27.0985 46.6044 26.4629 45.7378 25.6479C44.8977 24.8467 44.2357 23.878 43.7948 22.8048C42.8783 20.5111 42.8783 17.9537 43.7948 15.6601C44.2355 14.586 44.8975 13.6165 45.7378 12.8145C46.6048 11.9999 47.6244 11.3644 48.7381 10.9445C49.9769 10.4809 51.2914 10.252 52.6142 10.2695C53.5897 10.2647 54.5605 10.4046 55.4948 10.6846C56.3841 10.9521 57.2394 11.3217 58.0435 11.7859L56.8098 15.1944C56.1684 14.8343 55.488 14.5483 54.7817 14.342C54.0927 14.1391 53.3782 14.0354 52.6598 14.034C51.9139 14.0239 51.1719 14.1444 50.4676 14.39C49.8444 14.6059 49.2772 14.9577 48.8071 15.4198C48.3455 15.887 47.99 16.4478 47.7647 17.0644C47.51 17.7619 47.3846 18.4999 47.3946 19.2423C47.3837 19.9811 47.5091 20.7157 47.7647 21.4091C48.2182 22.6603 49.2105 23.6421 50.4676 24.0834C51.1702 24.3373 51.9128 24.4625 52.6598 24.453C53.4072 24.4477 54.15 24.3357 54.8656 24.1204C55.6152 23.9022 56.3315 23.5831 56.9949 23.1719L58.21 26.5804Z" fill="#002B49"/>
<path d="M89.8609 16.6133C89.8706 17.459 89.7178 18.2987 89.4106 19.0868C89.1175 19.8272 88.6593 20.4911 88.0708 21.0282C87.4301 21.6008 86.6786 22.036 85.8626 22.3069C84.8802 22.6313 83.85 22.7874 82.8155 22.7688C82.5318 22.7688 82.2789 22.7647 82.0568 22.7565C81.8348 22.7483 81.588 22.7364 81.3166 22.7208V27.9056H77.2949V10.7201C78.9012 10.5407 80.5158 10.4457 82.1321 10.4355C83.397 10.4355 84.5072 10.5932 85.4629 10.9086C86.3448 11.1844 87.1655 11.6264 87.8809 12.2106C88.518 12.7398 89.0245 13.4083 89.3612 14.1644C89.6982 14.9366 89.8685 15.771 89.8609 16.6133ZM85.7355 16.6847C85.7541 16.0199 85.4965 15.3769 85.0237 14.9084C84.55 14.4354 83.8152 14.1988 82.8192 14.1988C82.5503 14.1988 82.3134 14.2062 82.1086 14.2223C81.9038 14.2383 81.6423 14.2617 81.3253 14.2937V19.2408C81.6102 19.2568 81.836 19.2691 82.0013 19.2765C82.1666 19.2839 82.3455 19.2888 82.5355 19.2888C83.6104 19.2888 84.4123 19.0679 84.9411 18.6261C85.4699 18.1843 85.736 17.5372 85.7392 16.6847H85.7355Z" fill="#002B49"/>
<path d="M92.6104 27.9058V10.5527H103.612V14.2483H96.6419V17.3476H102.995V20.851H96.6419V24.2361H103.612V27.9058H92.6104Z" fill="#002B49"/>
<path d="M105.043 10.9728H104.448V10.5527H106.149V10.9728H105.545V12.7639H105.043V10.9728Z" fill="#002B49"/>
<path d="M108.276 11.9179C108.266 11.6518 108.256 11.3303 108.256 11.0088H108.246C108.177 11.2909 108.084 11.6062 107.999 11.8711L107.73 12.7334H107.339L107.102 11.8785C107.031 11.6186 106.954 11.3044 106.902 11.0162H106.895C106.883 11.3155 106.873 11.6555 106.856 11.9314L106.816 12.7716H106.354L106.495 10.5542H107.162L107.379 11.2933C107.448 11.5496 107.517 11.8255 107.566 12.0842H107.575C107.637 11.828 107.712 11.536 107.785 11.2909L108.021 10.5518H108.675L108.799 12.7691H108.305L108.276 11.9179Z" fill="#002B49"/>
<path d="M119.331 27.7471L118.027 24.5985H112.028L110.724 27.7471H106.623L114.802 10.2549H115.346L123.525 27.7471H119.331ZM115.039 17.354L113.312 21.5214H116.75L115.039 17.354Z" fill="#5594FF"/>
<path d="M139.696 28.0783L129.217 18.6793V27.7469H125.186V10.1574L125.732 10.0625L136.071 19.3901V10.3976H140.102V28.013L139.696 28.0783Z" fill="#5594FF"/>
<path d="M154.467 27.7471L153.163 24.5985H147.165L145.861 27.7471H141.759L149.938 10.2549H150.484L158.663 27.7471H154.467ZM150.176 17.354L148.449 21.5214H151.886L150.176 17.354Z" fill="#5594FF"/>
<path d="M160.322 27.7467V10.3936H164.353V24.077H171.323V27.7467H160.322Z" fill="#5594FF"/>
<path d="M182.134 20.8816V27.7467H178.104V20.857L171.986 10.3936H176.61L180.167 17.0456L183.723 10.3936H188.254L182.134 20.8816Z" fill="#5594FF"/>
<path d="M198.327 14.0871V27.7471H194.299V14.0871H189.081V10.3916H203.543V14.0871H198.327Z" fill="#5594FF"/>
<path d="M206.151 27.7467V10.3936H210.182V27.7467H206.151Z" fill="#5594FF"/>
<path d="M228.604 26.4213C227.797 26.9482 226.913 27.3475 225.984 27.6051C223.731 28.2498 221.332 28.1635 219.132 27.3588C218.019 26.9384 217 26.302 216.135 25.4864C215.295 24.6857 214.632 23.7175 214.191 22.6445C213.276 20.3505 213.276 17.7937 214.191 15.4997C214.632 14.4255 215.294 13.456 216.135 12.6542C217.001 11.8391 218.021 11.2035 219.134 10.7842C220.372 10.3193 221.686 10.0887 223.008 10.1042C223.983 10.099 224.954 10.2384 225.889 10.5181C226.778 10.7867 227.633 11.1562 228.438 11.6194L227.205 15.0292C226.564 14.6686 225.884 14.3826 225.178 14.1767C224.489 13.9733 223.774 13.8696 223.056 13.8688C222.31 13.859 221.568 13.979 220.863 14.2236C220.24 14.4396 219.673 14.7914 219.203 15.2534C218.742 15.7212 218.386 16.2824 218.16 16.8991C217.905 17.5966 217.779 18.3346 217.79 19.077C217.779 19.8155 217.904 20.5496 218.16 21.2426C218.388 21.855 218.744 22.4121 219.203 22.8773C219.674 23.3403 220.241 23.6955 220.863 23.9182C221.566 24.1719 222.309 24.2971 223.056 24.2878C223.803 24.2829 224.545 24.1713 225.261 23.9564C226.012 23.7394 226.73 23.4207 227.395 23.0091L228.604 26.4213Z" fill="#5594FF"/>
<path d="M242 22.6331C242.001 23.3215 241.872 24.0039 241.62 24.6447C241.364 25.2946 240.972 25.8826 240.47 26.3693C239.916 26.8999 239.258 27.3109 238.538 27.5765C237.665 27.8939 236.74 28.0468 235.81 28.0273C235.298 28.025 234.786 27.9772 234.282 27.8844C233.753 27.79 233.231 27.6637 232.718 27.5063C232.213 27.3515 231.719 27.1656 231.237 26.9495C230.792 26.7522 230.364 26.5186 229.958 26.251L231.068 22.606C231.79 23.117 232.579 23.5269 233.412 23.8243C234.217 24.1234 235.068 24.2797 235.926 24.2862C236.637 24.2862 237.143 24.14 237.444 23.8477C237.739 23.568 237.902 23.1772 237.894 22.771C237.895 22.5574 237.859 22.3451 237.787 22.144C237.689 21.9088 237.534 21.7014 237.336 21.5404C237.047 21.2942 236.729 21.0833 236.389 20.9122C235.986 20.6986 235.451 20.458 234.785 20.1903C234.106 19.9174 233.458 19.5722 232.853 19.1605C232.367 18.8312 231.935 18.428 231.573 17.9656C231.259 17.5604 231.022 17.1011 230.873 16.6105C230.73 16.122 230.658 15.6155 230.66 15.1065C230.661 14.4702 230.794 13.841 231.051 13.2587C231.317 12.65 231.709 12.1043 232.201 11.6573C232.758 11.1614 233.406 10.7793 234.11 10.5326C234.969 10.2318 235.874 10.0866 236.784 10.1039C237.256 10.1054 237.728 10.1466 238.194 10.2271C238.646 10.3031 239.094 10.406 239.534 10.5351C239.937 10.6533 240.333 10.7957 240.719 10.9613C241.042 11.096 241.352 11.261 241.644 11.454L240.624 15.0523C240.35 14.8658 240.065 14.6959 239.77 14.5435C239.45 14.3755 239.12 14.225 238.784 14.0926C238.45 13.9619 238.11 13.8512 237.763 13.7613C237.441 13.6793 237.109 13.6379 236.776 13.6381C236.036 13.6381 235.507 13.7802 235.187 14.0643C234.893 14.3016 234.719 14.6571 234.712 15.035C234.705 15.2915 234.762 15.5457 234.879 15.7741C235.013 16.0044 235.2 16.1995 235.424 16.3432C235.728 16.5452 236.05 16.7192 236.385 16.8631C236.771 17.038 237.233 17.2433 237.772 17.479C238.48 17.7741 239.158 18.135 239.799 18.5569C240.293 18.8808 240.733 19.2803 241.103 19.7407C241.418 20.1432 241.652 20.6035 241.79 21.0957C241.929 21.5963 242 22.1135 242 22.6331Z" fill="#5594FF"/>
</g>
<defs>
<clipPath id="clip0_318_203849">
<rect width="242" height="37" fill="white"/>
</clipPath>
</defs>
</svg>
