<svg width="104" height="35" viewBox="0 0 104 35" fill="none" xmlns="http://www.w3.org/2000/svg">
<path d="M44.4439 18.3927C44.4439 23.2843 40.6278 26.8888 35.9446 26.8888C31.2614 26.8888 27.4453 23.2843 27.4453 18.3927C27.4453 13.4666 31.2614 9.89648 35.9446 9.89648C40.6278 9.89648 44.4439 13.4666 44.4439 18.3927ZM40.7233 18.3927C40.7233 15.3359 38.5116 13.2444 35.9446 13.2444C33.3776 13.2444 31.1659 15.3359 31.1659 18.3927C31.1659 21.4188 33.3776 23.5409 35.9446 23.5409C38.5116 23.5409 40.7233 21.415 40.7233 18.3927Z" fill="#FDFBFB"/>
<path d="M62.7799 18.3927C62.7799 23.2843 58.9638 26.8888 54.2806 26.8888C49.5973 26.8888 45.7812 23.2843 45.7812 18.3927C45.7812 13.4704 49.5973 9.89648 54.2806 9.89648C58.9638 9.89648 62.7799 13.4666 62.7799 18.3927ZM59.0593 18.3927C59.0593 15.3359 56.8475 13.2444 54.2806 13.2444C51.7136 13.2444 49.5018 15.3359 49.5018 18.3927C49.5018 21.4188 51.7136 23.5409 54.2806 23.5409C56.8475 23.5409 59.0593 21.415 59.0593 18.3927Z" fill="#FDFBFB"/>
<path d="M80.3516 10.4098V25.663C80.3516 31.9375 76.6616 34.5001 72.2993 34.5001C68.1929 34.5001 65.7214 31.746 64.7893 29.4936L68.0286 28.1414C68.6054 29.5242 70.0188 31.1561 72.2954 31.1561C75.0878 31.1561 76.8182 29.4285 76.8182 26.1763V24.9544H76.6883C75.8556 25.9848 74.2512 26.885 72.2267 26.885C67.9904 26.885 64.1094 23.1847 64.1094 18.4233C64.1094 13.6274 67.9904 9.89648 72.2267 9.89648C74.2474 9.89648 75.8518 10.7967 76.6883 11.7964H76.8182V10.4136H80.3516V10.4098ZM77.0818 18.4233C77.0818 15.4316 75.0916 13.2444 72.559 13.2444C69.992 13.2444 67.8414 15.4316 67.8414 18.4233C67.8414 21.3843 69.992 23.5409 72.559 23.5409C75.0916 23.5409 77.0818 21.3843 77.0818 18.4233Z" fill="#FDFBFB"/>
<path d="M86.1758 1.46875V26.3673H82.5469V1.46875H86.1758Z" fill="#FDFBFB"/>
<path d="M100.317 21.1889L103.205 23.1195C102.273 24.5023 100.027 26.8849 96.1459 26.8849C91.3328 26.8849 87.7383 23.154 87.7383 18.3887C87.7383 13.3362 91.3634 9.89258 95.7295 9.89258C100.126 9.89258 102.277 13.4014 102.98 15.2975L103.366 16.2628L92.0395 20.9667C92.9066 22.6713 94.2551 23.5408 96.1459 23.5408C98.0406 23.5408 99.3546 22.6062 100.317 21.1889ZM91.4283 18.1321L98.9994 14.9796C98.583 13.9185 97.3301 13.1792 95.8556 13.1792C93.9647 13.1792 91.3328 14.8531 91.4283 18.1321Z" fill="#FDFBFB"/>
<path d="M13.7101 16.1823V12.5777H25.8231C25.9415 13.2059 26.0026 13.9491 26.0026 14.7535C26.0026 17.4579 25.2654 20.8019 22.8894 23.1845C20.5783 25.5978 17.6255 26.8848 13.714 26.8848C6.46377 26.8848 0.367188 20.9628 0.367188 13.6924C0.367188 6.42203 6.46377 0.5 13.714 0.5C17.7249 0.5 20.5822 2.07819 22.729 4.13519L20.1925 6.67868C18.6531 5.23073 16.5674 4.10455 13.7101 4.10455C8.41574 4.10455 4.27496 8.38328 4.27496 13.6924C4.27496 19.0016 8.41574 23.2803 13.7101 23.2803C17.1442 23.2803 19.1 21.8975 20.353 20.641C21.3691 19.6221 22.0375 18.1665 22.3011 16.1785L13.7101 16.1823Z" fill="#FDFBFB"/>
</svg>
