<svg width="103" height="47" viewBox="0 0 103 47" fill="none" xmlns="http://www.w3.org/2000/svg">
<path fill-rule="evenodd" clip-rule="evenodd" d="M24.9267 11.918L51.2686 0.921875L77.6105 11.918H94.0415V16.4024H102.267V46.5484H0.261719V16.4024H8.49152V11.918H24.9267ZM75.5946 24.8105V19.9366H79.5034L78.8302 24.8145L75.5946 24.8105ZM93.4904 23.8961C93.4904 24.1426 93.3027 24.1585 93.0947 24.1585H92.7968V23.6655H93.1355C93.3068 23.6655 93.4904 23.7013 93.4904 23.8961ZM92.5479 25.053H92.7968V24.3573H93.0824L93.5149 25.049H93.7924L93.3272 24.3493C93.5639 24.3215 93.7475 24.1983 93.7475 23.912C93.7475 23.598 93.5557 23.4588 93.1722 23.4588H92.5479V25.053ZM94.2412 24.2539C94.2412 24.9218 93.7353 25.4108 93.0947 25.4108C92.4459 25.4108 91.94 24.9218 91.94 24.2539C91.94 23.598 92.4459 23.105 93.0947 23.105C93.7353 23.105 94.2412 23.6019 94.2412 24.2539ZM93.0947 22.8744C92.3153 22.8744 91.6543 23.4628 91.6543 24.2539C91.6543 25.053 92.3153 25.6414 93.0947 25.6414C93.8699 25.6414 94.5309 25.053 94.5309 24.2539C94.5309 23.4588 93.8658 22.8744 93.0947 22.8744ZM16.5334 19.9366V36.5421H23.7472V40.5017H11.8697V19.9366H16.5334ZM74.5664 40.4977H63.4682V23.594V23.5741H74.5664V27.5496H68.1523V30.1456H74.5664V33.958H68.1523V36.5381H74.5664V40.4977ZM30.3001 27.5496H34.4048L34.4007 36.5222H30.3001V27.5496ZM36.8529 40.5017C38.081 40.5017 39.0725 39.5317 39.0725 38.339V25.7368V25.7328C39.0725 24.5401 38.077 23.5741 36.8529 23.5741H27.8478C26.6238 23.5741 25.6323 24.5441 25.6323 25.7368V38.339C25.6323 39.5317 26.6238 40.5017 27.8478 40.5017H36.8529ZM56.1319 36.5421V23.5741H60.7956V38.339C60.7956 39.5317 59.8041 40.5017 58.5801 40.5017H53.0595C52.1292 40.5017 51.2642 39.8775 51.2642 38.9711C51.2642 39.8735 50.3992 40.5017 49.4689 40.5017H43.9484C42.7202 40.5017 41.7288 39.5356 41.7288 38.339V23.5741H46.4006V36.5461H49.216V23.5741H53.3166V36.5421H56.1319ZM90.9077 34.0455L90.9362 34.1051C91.2749 34.8088 91.4381 35.5164 91.4258 36.2002C91.3402 38.7087 89.4592 40.1836 89.4388 40.1956C88.6187 40.8475 87.3497 41.1775 85.6687 41.1775C82.5881 41.1775 79.1199 40.0604 79.0873 40.0485L79.0301 40.0286V35.9776L79.1444 36.0173C79.177 36.0332 82.7635 37.3332 84.5303 37.5717L84.5752 37.5797C84.6976 37.5956 84.8241 37.6035 84.9505 37.6035C85.8686 37.6035 86.599 37.1861 86.7622 36.566C86.9213 35.9696 86.5378 35.2978 85.787 34.8565L85.7788 34.8525C85.1137 34.4709 84.4038 34.1568 83.7183 33.8547L83.7137 33.8527C82.0504 33.1218 80.3307 32.3662 79.2586 30.5511C78.4263 28.9489 78.5324 26.7982 79.5157 25.4386C80.6826 23.7848 82.4779 22.946 84.8485 22.946C85.1382 22.946 85.4279 22.9579 85.7176 22.9818C88.2922 23.3396 90.8383 24.9059 90.8628 24.9218L90.9036 24.9456V28.6389L90.7853 28.5912C90.773 28.5832 89.5898 28.0982 88.2433 27.5536C87.6027 27.2952 86.3664 26.8618 85.281 26.8618C84.5996 26.8618 84.0855 27.0328 83.751 27.3667C83.4327 27.6331 83.3185 28.0704 83.3674 28.3487C83.5459 29.3368 85.1321 29.9477 85.6676 30.154L85.6768 30.1575L85.7707 30.1933C88.431 31.2348 90.0875 32.4394 90.8261 33.8825L90.8546 33.9382L90.9077 34.0455Z" fill="#171717"/>
</svg>
