<svg width="24" height="25" viewBox="0 0 24 25" fill="none" xmlns="http://www.w3.org/2000/svg">
<path fill-rule="evenodd" clip-rule="evenodd" d="M19.4832 7.49987C20.4722 8.97991 21 10.72 21 12.5H19.5C19.5 11.0166 19.0601 9.5666 18.236 8.33323C17.4119 7.09986 16.2406 6.13856 14.8701 5.57091C13.4997 5.00325 11.9917 4.85473 10.5368 5.14411C9.08197 5.4335 7.7456 6.14781 6.6967 7.1967C5.64781 8.2456 4.9335 9.58197 4.64411 11.0368C4.35473 12.4917 4.50325 13.9997 5.07091 15.3701C5.63856 16.7406 6.59986 17.9119 7.83323 18.736C9.0666 19.5601 10.5166 20 12 20V21.5C10.22 21.5 8.47991 20.9722 6.99987 19.9832C5.51983 18.9943 4.36628 17.5887 3.68509 15.9442C3.0039 14.2996 2.82567 12.49 3.17294 10.7442C3.5202 8.99836 4.37737 7.39472 5.63604 6.13604C6.89472 4.87737 8.49836 4.0202 10.2442 3.67294C11.99 3.32567 13.7996 3.5039 15.4442 4.18509C17.0887 4.86628 18.4943 6.01983 19.4832 7.49987ZM12 17C11.11 17 10.24 16.7361 9.49994 16.2416C8.75991 15.7471 8.18314 15.0443 7.84254 14.2221C7.50195 13.3998 7.41283 12.495 7.58647 11.6221C7.7601 10.7492 8.18868 9.94736 8.81802 9.31802C9.44736 8.68868 10.2492 8.2601 11.1221 8.08647C11.995 7.91283 12.8998 8.00195 13.7221 8.34254C14.5443 8.68314 15.2471 9.25991 15.7416 9.99994C16.2361 10.74 16.5 11.61 16.5 12.5C16.4987 13.6931 16.0242 14.8369 15.1805 15.6805C14.3369 16.5242 13.1931 16.9987 12 17ZM12 9.5C11.4067 9.5 10.8266 9.67595 10.3333 10.0056C9.83994 10.3352 9.45543 10.8038 9.22836 11.352C9.0013 11.9001 8.94189 12.5033 9.05765 13.0853C9.1734 13.6672 9.45912 14.2018 9.87868 14.6213C10.2982 15.0409 10.8328 15.3266 11.4147 15.4424C11.9967 15.5581 12.5999 15.4987 13.1481 15.2716C13.6962 15.0446 14.1648 14.6601 14.4944 14.1667C14.8241 13.6734 15 13.0933 15 12.5C14.9991 11.7046 14.6828 10.9421 14.1203 10.3797C13.5579 9.81725 12.7954 9.5009 12 9.5ZM13.5 12.5C13.5 13.3284 12.8284 14 12 14C11.1716 14 10.5 13.3284 10.5 12.5C10.5 11.6716 11.1716 11 12 11C12.8284 11 13.5 11.6716 13.5 12.5ZM14.5575 18.5L16.5 20.4425L21.4425 15.5L22.5 16.5575L16.5 22.5575L13.5 19.5575L14.5575 18.5Z" fill="black"/>
</svg>
