<svg width="24" height="25" viewBox="0 0 24 25" fill="none" xmlns="http://www.w3.org/2000/svg">
<path fill-rule="evenodd" clip-rule="evenodd" d="M16.3333 7.49441C16.8266 7.82405 17.4067 8 18 8C18.7954 7.99917 19.558 7.68283 20.1204 7.1204C20.6828 6.55797 20.9992 5.79539 21 5C21 4.40666 20.8241 3.82664 20.4944 3.33329C20.1648 2.83994 19.6962 2.45543 19.1481 2.22836C18.5999 2.0013 17.9967 1.94189 17.4147 2.05765C16.8328 2.1734 16.2982 2.45912 15.8787 2.87868C15.4591 3.29824 15.1734 3.83279 15.0576 4.41473C14.9419 4.99667 15.0013 5.59987 15.2284 6.14805C15.4554 6.69623 15.8399 7.16477 16.3333 7.49441ZM17.1666 3.7528C17.4133 3.58797 17.7033 3.5 18 3.5C18.3977 3.50046 18.779 3.65864 19.0602 3.93985C19.3414 4.22105 19.4995 4.60232 19.5 5C19.5 5.29667 19.412 5.58668 19.2472 5.83336C19.0824 6.08003 18.8481 6.27229 18.574 6.38582C18.2999 6.49935 17.9983 6.52906 17.7074 6.47118C17.4164 6.4133 17.1491 6.27044 16.9393 6.06066C16.7296 5.85088 16.5867 5.58361 16.5288 5.29264C16.4709 5.00167 16.5007 4.70007 16.6142 4.42598C16.7277 4.15189 16.92 3.91762 17.1666 3.7528ZM13.5 12.5H15V11C15.0002 10.8011 15.0793 10.6105 15.2199 10.4699C15.3605 10.3293 15.5511 10.2502 15.75 10.25H20.25C20.4489 10.2502 20.6395 10.3293 20.7801 10.4699C20.9207 10.6105 20.9998 10.8011 21 11V12.5H22.5V11C22.4993 10.4035 22.2621 9.83155 21.8403 9.40973C21.4185 8.98792 20.8465 8.75066 20.25 8.75H15.75C15.1535 8.75066 14.5815 8.98792 14.1597 9.40973C13.7379 9.83155 13.5007 10.4035 13.5 11V12.5ZM16.3333 18.7444C16.8266 19.0741 17.4067 19.25 18 19.25C18.7954 19.2492 19.558 18.9329 20.1205 18.3705C20.6829 17.808 20.9992 17.0454 21 16.25C21 15.6567 20.8241 15.0766 20.4944 14.5833C20.1648 14.0899 19.6962 13.7054 19.1481 13.4784C18.5999 13.2513 17.9967 13.1919 17.4147 13.3076C16.8328 13.4234 16.2982 13.7091 15.8787 14.1287C15.4591 14.5482 15.1734 15.0828 15.0576 15.6647C14.9419 16.2467 15.0013 16.8499 15.2284 17.3981C15.4554 17.9462 15.8399 18.4148 16.3333 18.7444ZM17.1666 15.0028C17.4133 14.838 17.7033 14.75 18 14.75C18.3977 14.7505 18.7789 14.9087 19.0601 15.1899C19.3413 15.4711 19.4995 15.8523 19.5 16.25C19.5 16.5467 19.412 16.8367 19.2472 17.0834C19.0824 17.33 18.8481 17.5223 18.574 17.6358C18.2999 17.7494 17.9983 17.7791 17.7074 17.7212C17.4164 17.6633 17.1491 17.5204 16.9393 17.3107C16.7296 17.1009 16.5867 16.8336 16.5288 16.5426C16.4709 16.2517 16.5007 15.9501 16.6142 15.676C16.7277 15.4019 16.92 15.1676 17.1666 15.0028ZM15 23.75H13.5V22.25C13.5007 21.6535 13.7379 21.0815 14.1597 20.6597C14.5815 20.2379 15.1535 20.0007 15.75 20H20.25C20.8465 20.0007 21.4185 20.2379 21.8403 20.6597C22.2621 21.0815 22.4993 21.6535 22.5 22.25V23.75H21V22.25C20.9999 22.0511 20.9208 21.8604 20.7802 21.7198C20.6396 21.5792 20.4489 21.5001 20.25 21.5H15.75C15.5511 21.5001 15.3604 21.5792 15.2198 21.7198C15.0792 21.8604 15.0001 22.0511 15 22.25V23.75ZM1.5 23.75H3V22.25C3.00018 22.0511 3.07925 21.8605 3.21987 21.7199C3.36048 21.5793 3.55114 21.5002 3.75 21.5H8.25C8.44886 21.5002 8.63952 21.5793 8.78013 21.7199C8.92075 21.8605 8.99982 22.0511 9 22.25V23.75H10.5V22.25C10.4993 21.6535 10.2621 21.0815 9.84027 20.6597C9.41845 20.2379 8.84654 20.0007 8.25 20H3.75C3.15346 20.0007 2.58155 20.2379 2.15973 20.6597C1.73792 21.0815 1.50066 21.6535 1.5 22.25V23.75ZM4.33329 18.7444C4.82664 19.0741 5.40666 19.25 6 19.25C6.79539 19.2492 7.55797 18.9328 8.1204 18.3704C8.68283 17.808 8.99917 17.0454 9 16.25C9 15.6567 8.82405 15.0766 8.49441 14.5833C8.16477 14.0899 7.69623 13.7054 7.14805 13.4784C6.59987 13.2513 5.99667 13.1919 5.41473 13.3076C4.83279 13.4234 4.29824 13.7091 3.87868 14.1287C3.45912 14.5482 3.1734 15.0828 3.05765 15.6647C2.94189 16.2467 3.0013 16.8499 3.22836 17.3981C3.45543 17.9462 3.83994 18.4148 4.33329 18.7444ZM5.16665 15.0028C5.41332 14.838 5.70333 14.75 6 14.75C6.39769 14.7505 6.77895 14.9086 7.06016 15.1898C7.34136 15.4711 7.49955 15.8523 7.5 16.25C7.5 16.5467 7.41203 16.8367 7.24721 17.0834C7.08238 17.33 6.84812 17.5223 6.57403 17.6358C6.29994 17.7494 5.99834 17.7791 5.70737 17.7212C5.41639 17.6633 5.14912 17.5204 4.93934 17.3107C4.72956 17.1009 4.5867 16.8336 4.52882 16.5426C4.47095 16.2517 4.50065 15.9501 4.61418 15.676C4.72771 15.4019 4.91997 15.1676 5.16665 15.0028ZM1.5 12.5H3V11C3.00026 10.8012 3.07936 10.6106 3.21995 10.47C3.36055 10.3294 3.55117 10.2503 3.75 10.25H8.25C8.44883 10.2503 8.63945 10.3294 8.78005 10.47C8.92064 10.6106 8.99974 10.8012 9 11V12.5H10.5V11C10.4993 10.4035 10.2621 9.83155 9.84027 9.40973C9.41845 8.98792 8.84654 8.75066 8.25 8.75H3.75C3.15346 8.75066 2.58155 8.98792 2.15973 9.40973C1.73792 9.83155 1.50066 10.4035 1.5 11V12.5ZM4.33329 7.49441C4.82664 7.82405 5.40666 8 6 8C6.79538 7.99911 7.55792 7.68275 8.12033 7.12033C8.68275 6.55792 8.99911 5.79538 9 5C9 4.40666 8.82405 3.82664 8.49441 3.33329C8.16477 2.83994 7.69623 2.45543 7.14805 2.22836C6.59987 2.0013 5.99667 1.94189 5.41473 2.05765C4.83279 2.1734 4.29824 2.45912 3.87868 2.87868C3.45912 3.29824 3.1734 3.83279 3.05765 4.41473C2.94189 4.99667 3.0013 5.59987 3.22836 6.14805C3.45543 6.69623 3.83994 7.16477 4.33329 7.49441ZM5.16665 3.7528C5.41332 3.58797 5.70333 3.5 6 3.5C6.3977 3.5004 6.779 3.65856 7.06022 3.93978C7.34144 4.221 7.4996 4.6023 7.5 5C7.5 5.29667 7.41203 5.58668 7.24721 5.83336C7.08238 6.08003 6.84812 6.27229 6.57403 6.38582C6.29994 6.49935 5.99834 6.52906 5.70737 6.47118C5.41639 6.4133 5.14912 6.27044 4.93934 6.06066C4.72956 5.85088 4.5867 5.58361 4.52882 5.29264C4.47095 5.00167 4.50065 4.70007 4.61418 4.42598C4.72771 4.15189 4.91997 3.91762 5.16665 3.7528Z" fill="black"/>
</svg>
