<svg width="24" height="25" viewBox="0 0 24 25" fill="none" xmlns="http://www.w3.org/2000/svg">
<path fill-rule="evenodd" clip-rule="evenodd" d="M4.5 3.5H9C9.39782 3.5 9.77936 3.65804 10.0607 3.93934C10.342 4.22064 10.5 4.60218 10.5 5V9.5C10.5 9.89782 10.342 10.2794 10.0607 10.5607C9.77936 10.842 9.39782 11 9 11H4.5C4.10218 11 3.72064 10.842 3.43934 10.5607C3.15804 10.2794 3 9.89782 3 9.5V5C3 4.60218 3.15804 4.22064 3.43934 3.93934C3.72064 3.65804 4.10218 3.5 4.5 3.5ZM4.5 9.5H9V5H4.5V9.5ZM15 3.5H19.5C19.8978 3.5 20.2794 3.65804 20.5607 3.93934C20.842 4.22064 21 4.60218 21 5V9.5C21 9.89782 20.842 10.2794 20.5607 10.5607C20.2794 10.842 19.8978 11 19.5 11H15C14.6022 11 14.2206 10.842 13.9393 10.5607C13.658 10.2794 13.5 9.89782 13.5 9.5V5C13.5 4.60218 13.658 4.22064 13.9393 3.93934C14.2206 3.65804 14.6022 3.5 15 3.5ZM15 9.5H19.5V5H15V9.5ZM9 14H4.5C4.10218 14 3.72064 14.158 3.43934 14.4393C3.15804 14.7206 3 15.1022 3 15.5V20C3 20.3978 3.15804 20.7794 3.43934 21.0607C3.72064 21.342 4.10218 21.5 4.5 21.5H9C9.39782 21.5 9.77936 21.342 10.0607 21.0607C10.342 20.7794 10.5 20.3978 10.5 20V15.5C10.5 15.1022 10.342 14.7206 10.0607 14.4393C9.77936 14.158 9.39782 14 9 14ZM9 20H4.5V15.5H9V20ZM15 14H19.5C19.8978 14 20.2794 14.158 20.5607 14.4393C20.842 14.7206 21 15.1022 21 15.5V20C21 20.3978 20.842 20.7794 20.5607 21.0607C20.2794 21.342 19.8978 21.5 19.5 21.5H15C14.6022 21.5 14.2206 21.342 13.9393 21.0607C13.658 20.7794 13.5 20.3978 13.5 20V15.5C13.5 15.1022 13.658 14.7206 13.9393 14.4393C14.2206 14.158 14.6022 14 15 14ZM15 20H19.5V15.5H15V20Z" fill="black"/>
</svg>
