<svg width="146" height="31" viewBox="0 0 146 31" fill="none" xmlns="http://www.w3.org/2000/svg">
<path d="M98.8261 8.4953C97.4031 8.4953 96.2309 9.58354 96.2309 10.9227V25.2367H78.6521L76.4756 21.3025L72.7092 14.7739V3.64061C72.7092 2.3015 71.537 1.21326 70.114 1.21326H57.3908C55.9677 1.21326 54.7956 2.3015 54.7956 3.64061V25.3206H52.3682L46.4253 14.8569V3.64061C46.4253 2.3015 45.2532 1.21326 43.8301 1.21326H31.1069C29.6839 1.21326 28.5117 2.3015 28.5117 3.64061V25.3206H24.4935L18.8854 3.0541C18.6337 1.96586 17.5463 1.21326 16.3741 1.21326H9.426C8.25471 1.21326 7.24952 1.96586 6.91474 3.0541L0.803987 27.581C0.46921 28.9201 1.30658 30.2592 2.7296 30.5101C2.81351 30.5101 2.89742 30.5101 2.98047 30.5101C3.06438 30.5101 3.23219 30.5101 3.31524 30.5101C3.48306 30.5101 3.65002 30.5101 3.73393 30.5101C4.73826 30.3432 5.57563 29.6736 5.8265 28.6693L11.5186 5.98405H14.4485L19.9736 28.3345C20.2245 29.4227 21.3127 30.2592 22.4849 30.2592H31.1069C32.5299 30.2592 33.7012 29.171 33.7012 27.8319V6.06795H41.4028V15.4434C41.4028 15.8621 41.4858 16.2799 41.7376 16.6147L48.6848 28.9201C49.1035 29.6736 50.024 30.1753 50.9452 30.1753H57.4747C58.8977 30.1753 60.069 29.0871 60.069 27.748V6.06795H67.7706V15.4434C67.7706 15.8621 67.8545 16.2799 68.1053 16.6147L75.0526 28.9201C75.3874 29.5058 75.9739 29.9245 76.6435 30.0923C76.8943 30.1753 77.0621 30.1753 77.313 30.1753H98.9931C100.416 30.1753 101.588 29.0871 101.588 27.748V11.0066C101.42 9.58354 100.249 8.4953 98.8261 8.4953Z" fill="#121619"/>
<path d="M143.86 0.794588C142.437 0.542863 141.098 1.38023 140.847 2.71934L136.243 25.3207H134.904L130.467 3.13803C130.216 1.96588 129.212 1.12937 127.956 1.12937H123.101C121.845 1.12937 120.841 1.96588 120.59 3.13803L116.069 25.2368H114.73L110.21 3.13803C109.958 1.96588 108.954 1.12937 107.699 1.12937H105.606H83.2559C81.8329 1.12937 80.6616 2.21761 80.6616 3.55671V20.2981C80.6616 21.6373 81.8329 22.7255 83.2559 22.7255C84.6789 22.7255 85.8511 21.6373 85.8511 20.2981V6.06797H105.606V6.15188L110.042 28.2506C110.294 29.4228 111.298 30.2593 112.554 30.2593H118.162C119.418 30.2593 120.422 29.4228 120.673 28.2506L125.194 6.15188H125.863L130.383 28.2506C130.635 29.4228 131.639 30.2593 132.895 30.2593H138.503C139.759 30.2593 140.763 29.4228 141.014 28.2506L145.535 5.31451V1.88283C145.2 1.29633 144.613 0.878496 143.86 0.794588Z" fill="#121619"/>
</svg>
