<svg width="107" height="40" viewBox="0 0 107 40" fill="none" xmlns="http://www.w3.org/2000/svg">
<path d="M11.4021 32.7607L10.1175 29.1408H3.59096L2.28428 32.7607H0.566406L6.02759 18.0391H7.83382L13.2933 32.7607H11.4021ZM7.53307 22.0065C7.26243 21.3041 7.04378 20.5828 6.87888 19.8482H6.8364C6.65533 20.5726 6.43409 21.2863 6.17372 21.9861L4.04634 27.8086H9.65365L7.53307 22.0065Z" fill="#171717"/>
<path d="M19.9884 23.3384C17.5959 22.9449 16.4643 24.7779 16.4643 28.42V32.7605H14.8398V21.9194H16.4507C16.4375 22.8326 16.3575 23.7436 16.2111 24.645L16.2332 24.6655C16.6682 23.0744 17.7981 21.4612 20.0631 21.7235L19.9884 23.3384Z" fill="#171717"/>
<path d="M24.6139 38.4549C21.8731 38.4549 20.1094 37.3425 20.1094 35.2693C20.1094 33.9167 20.959 32.9134 21.9785 32.3887C21.2988 32.0855 20.8893 31.5182 20.8893 30.8198C20.8945 30.441 21.0098 30.072 21.2211 29.7579C21.4323 29.4438 21.7304 29.1983 22.0787 29.0516C20.9896 28.4196 20.4696 27.3072 20.4696 25.9103C20.4696 23.6429 22.2317 21.7248 25.1679 21.7248C25.5327 21.722 25.8971 21.7505 26.257 21.81C26.4269 21.8389 27.873 21.919 28.1261 21.919H30.4897V23.2068H29.1983C29.0913 23.2068 28.466 23.1677 28.466 23.1677C28.466 23.1677 28.4575 23.1472 28.5305 23.2068C29.1541 23.7179 29.5738 24.5594 29.5738 25.5917C29.5738 27.9034 27.9868 29.6716 24.8756 29.6716C24.3784 29.6689 23.8826 29.617 23.3956 29.5166C22.8502 29.7125 22.5902 30.106 22.5902 30.4995C22.5902 31.1315 23.2002 31.416 24.5493 31.416H26.6597C29.0097 31.416 30.2943 32.5727 30.2943 34.4687C30.2943 36.7582 27.9443 38.4617 24.6139 38.4617V38.4549ZM26.2027 32.8401H23.9835C23.7643 32.8401 23.484 32.8401 23.2869 32.818C22.3523 33.2984 21.7423 34.0837 21.7423 35.0002C21.7423 36.3953 23.0914 37.1364 24.8977 37.1364C27.2765 37.1364 28.6614 36.1347 28.6614 34.6935C28.6614 33.5369 27.8577 32.8401 26.2027 32.8401ZM25.0931 22.9973C23.224 22.9973 22.1127 24.154 22.1127 25.7451C22.1127 27.5116 23.1781 28.4502 25.0013 28.4502C26.7855 28.4502 27.9392 27.4911 27.9392 25.7451C27.9392 23.999 26.8755 22.9973 25.0931 22.9973Z" fill="#171717"/>
<path d="M36.0937 32.9572C33.205 32.9572 31.3359 31.189 31.3359 27.3936C31.3359 24.2966 33.2492 21.7227 36.4913 21.7227C39.125 21.7227 41.2796 23.186 41.2796 27.1551C41.2796 30.3815 39.3 32.9572 36.1005 32.9572H36.0937ZM36.34 23.0769C34.6409 23.0769 33.0317 24.3631 33.0317 27.2641C33.0317 30.034 34.2296 31.5621 36.34 31.5621C38.0392 31.5621 39.5804 30.2521 39.5804 27.2641C39.5804 24.6476 38.4946 23.0769 36.34 23.0769Z" fill="#171717"/>
<path d="M50.2172 32.7603V25.7368C50.2172 24.0333 49.7601 23.0555 48.1934 23.0555C46.2564 23.0555 44.8851 24.9736 44.8851 27.5476V32.7603H43.2539V21.9192H44.8647C44.8639 22.7223 44.8071 23.5243 44.6948 24.3195L44.739 24.3416C45.3473 22.771 46.7185 21.7012 48.6114 21.7012C51.0922 21.7012 51.8535 23.2718 51.8535 25.1916V32.7603H50.2172Z" fill="#171717"/>
<path d="M61.528 32.7603V25.7368C61.528 24.0333 61.0709 23.0555 59.5042 23.0555C57.5689 23.0555 56.1993 24.9736 56.1993 27.5476V32.7603H54.5664V21.9192H56.1755C56.1746 22.7223 56.1179 23.5243 56.0056 24.3195L56.0481 24.3416C56.6581 22.771 58.031 21.7012 59.9222 21.7012C62.403 21.7012 63.1643 23.2718 63.1643 25.1916V32.7603H61.528Z" fill="#171717"/>
<path d="M74.0831 27.0016H66.8599C66.7528 30.2518 68.0374 31.601 70.4519 31.601C71.5349 31.6041 72.6051 31.3661 73.5852 30.9043L73.7364 32.2994C72.6009 32.7487 71.3888 32.9715 70.1682 32.9553C66.9057 32.9553 65.1641 31.1871 65.1641 27.3934C65.1641 24.1431 66.9057 21.7207 69.9082 21.7207C72.9106 21.7207 74.129 23.7939 74.129 26.1924C74.1331 26.4623 74.1178 26.7322 74.0831 26.9999V27.0016ZM69.8198 22.9643C68.2906 22.9643 67.2099 24.0766 66.9482 25.7784H72.4315C72.4757 24.0988 71.4731 22.9643 69.8198 22.9643Z" fill="#171717"/>
<path d="M36.0122 39.9423L34.9604 38.1281C34.8178 37.8773 34.6885 37.6191 34.573 37.3547C34.5951 37.6647 34.6036 38.2269 34.6036 38.6579V39.9423H33.9375V36.3496H34.833L35.8304 38.0633C36.0003 38.3393 36.1396 38.6374 36.2722 38.9151C36.245 38.5522 36.2348 37.9151 36.2348 37.4722V36.3547H36.9043V39.9474L36.0122 39.9423Z" fill="#171717"/>
<path d="M40.498 39.9423L40.2465 39.2081H38.8957L38.6442 39.9423H37.9492L39.2015 36.3496H39.9882L41.2677 39.9423H40.498ZM39.7334 37.7175C39.6635 37.5298 39.6067 37.3374 39.5634 37.1417C39.521 37.3291 39.4615 37.5369 39.3935 37.7431L39.069 38.6579H40.0681L39.7334 37.7175Z" fill="#171717"/>
<path d="M43.2929 36.939V39.9423H42.6013V36.939H41.6719V36.3496H44.2207V36.939H43.2929Z" fill="#171717"/>
<path d="M46.0431 36.3496H45.3516V39.9423H46.0431V36.3496Z" fill="#171717"/>
<path d="M48.9554 39.9993C47.8612 39.9993 47.3242 39.3026 47.3242 38.1885C47.3242 36.996 48.116 36.2891 49.0761 36.2891C50.0361 36.2891 50.7056 36.8648 50.7056 38.0931C50.7056 39.2855 49.9257 39.9993 48.9554 39.9993ZM49.0132 36.9125C48.5204 36.9125 48.0634 37.3043 48.0634 38.1152C48.0634 38.8767 48.3607 39.3707 49.003 39.3707C49.4703 39.3707 49.9682 39.0096 49.9682 38.1476C49.9682 37.3486 49.6283 36.9125 49.0132 36.9125Z" fill="#171717"/>
<path d="M53.9748 39.9423L52.923 38.1281C52.7811 37.8769 52.6518 37.6188 52.5356 37.3547C52.5577 37.6647 52.5679 38.2269 52.5679 38.6579V39.9423H51.8984V36.3496H52.7973L53.7947 38.0633C53.9646 38.3393 54.1023 38.6374 54.2348 38.9151C54.2093 38.5522 54.1974 37.9151 54.1974 37.4722V36.3547H54.8669V39.9474L53.9748 39.9423Z" fill="#171717"/>
<path d="M58.4729 39.9423L58.2231 39.2081H56.8637L56.6157 39.9423H55.9258L57.1781 36.3496H57.958L59.2375 39.9423H58.4729ZM57.7082 37.7175C57.64 37.5292 57.5832 37.337 57.5383 37.1417C57.4958 37.3291 57.4364 37.5369 57.3684 37.7431L57.0456 38.6579H58.043L57.7082 37.7175Z" fill="#171717"/>
<path d="M60.3125 39.9423V36.3496H61.0024V39.3358H62.1646V39.9423H60.3125Z" fill="#171717"/>
<path d="M65.0625 39.9423V36.3496H65.7524V39.3358H66.9146V39.9423H65.0625Z" fill="#171717"/>
<path d="M70.248 39.9423L69.9982 39.2081H68.6389L68.3891 39.9423H67.6992L68.9532 36.3496H69.7314L71.0109 39.9423H70.248ZM69.4817 37.7175C69.4134 37.5292 69.3566 37.337 69.3117 37.1417C69.2669 37.3453 69.2101 37.5461 69.1418 37.7431L68.8173 38.6579H69.8164L69.4817 37.7175Z" fill="#171717"/>
<path d="M73.1014 39.9515C72.8839 39.9515 72.5067 39.9395 72.0547 39.9395V36.3537C72.3588 36.3366 72.8261 36.3281 73.2662 36.3281C74.0393 36.3281 74.4709 36.6416 74.4709 37.2156C74.4689 37.3916 74.4135 37.5627 74.3121 37.7063C74.2107 37.8499 74.0682 37.9592 73.9034 38.0197V38.0299C74.0873 38.0666 74.2521 38.1676 74.3685 38.3149C74.4849 38.4622 74.5453 38.6462 74.5389 38.834C74.5389 39.3552 74.1855 39.9515 73.1014 39.9515ZM73.149 36.8852C73.0062 36.8852 72.8686 36.8852 72.7463 36.8954V37.8306C72.8312 37.8306 72.9162 37.8306 73.0283 37.8306C73.5007 37.8306 73.7454 37.6398 73.7454 37.3196C73.7454 37.0538 73.5755 36.8801 73.149 36.8801V36.8852ZM73.0487 38.3468C72.996 38.3468 72.8193 38.3468 72.7463 38.3468V39.3535C72.8714 39.3693 72.9974 39.3767 73.1235 39.3757C73.5738 39.3757 73.8032 39.161 73.8032 38.8391C73.8032 38.4848 73.5024 38.3417 73.0504 38.3417" fill="#171717"/>
<path d="M77.2172 39.9993C76.1246 39.9993 75.5859 39.3026 75.5859 38.1885C75.5859 36.996 76.3778 36.2891 77.3395 36.2891C78.3012 36.2891 78.9673 36.8648 78.9673 38.0931C78.9673 39.2855 78.1874 39.9993 77.2172 39.9993ZM77.2749 36.9125C76.7805 36.9125 76.3234 37.3043 76.3234 38.1152C76.3234 38.8767 76.6224 39.3707 77.2647 39.3707C77.7303 39.3707 78.2316 39.0096 78.2316 38.1476C78.2316 37.3486 77.8917 36.9125 77.2749 36.9125Z" fill="#171717"/>
<path d="M81.8981 39.943L80.9007 38.4592H80.8735V39.943H80.1836V36.3503C80.464 36.3332 80.7987 36.3281 81.2133 36.3281C82.0051 36.3281 82.5149 36.6058 82.5149 37.34C82.5149 37.8715 82.1411 38.2548 81.6007 38.34C81.701 38.4728 81.8029 38.6108 81.893 38.7352L82.7545 39.943H81.8981ZM81.1453 36.892C81.0545 36.8919 80.9637 36.897 80.8735 36.9073V37.9465C80.921 37.9465 81.0162 37.9584 81.1249 37.9584C81.5379 37.9584 81.7927 37.7437 81.7927 37.4098C81.7927 37.076 81.5803 36.8988 81.1453 36.8988" fill="#171717"/>
<path d="M92.4342 39.9993C91.3416 39.9993 90.8047 39.3026 90.8047 38.1885C90.8047 36.996 91.5948 36.2891 92.5548 36.2891C93.5149 36.2891 94.1844 36.8648 94.1844 38.0931C94.1844 39.2855 93.4062 39.9993 92.4342 39.9993ZM92.4937 36.9125C91.9992 36.9125 91.5421 37.3043 91.5421 38.1152C91.5421 38.8767 91.8395 39.3707 92.4818 39.3707C92.9491 39.3707 93.4486 39.0096 93.4486 38.1476C93.4486 37.3486 93.1088 36.9125 92.4937 36.9125Z" fill="#171717"/>
<path d="M97.0565 39.943L96.0608 38.4592H96.0336V39.943H95.3438V36.3503C95.6241 36.3332 95.9606 36.3281 96.3735 36.3281C97.1653 36.3281 97.6767 36.6058 97.6767 37.34C97.6767 37.8715 97.3029 38.2548 96.7609 38.34C96.8628 38.4728 96.9631 38.6108 97.0531 38.7352L97.9146 39.943H97.0565ZM96.3021 36.892C96.2112 36.8919 96.1205 36.897 96.0302 36.9073V37.9465C96.0778 37.9465 96.1729 37.9584 96.2817 37.9584C96.6946 37.9584 96.9495 37.7437 96.9495 37.4098C96.9495 37.076 96.7371 36.8988 96.3021 36.8988" fill="#171717"/>
<path d="M86.1638 39.9423L85.9157 39.2081H84.5563L84.3082 39.9423H83.6133L84.8639 36.3496H85.6455L86.925 39.9423H86.1638ZM85.4008 37.7175C85.3318 37.5295 85.275 37.3372 85.2309 37.1417C85.1852 37.3451 85.1285 37.5459 85.061 37.7431L84.7398 38.6579H85.7373L85.4008 37.7175Z" fill="#171717"/>
<path d="M89.1293 36.939V39.9423H88.4378V36.939H87.5117V36.3496H90.0588V36.939H89.1293Z" fill="#171717"/>
<path d="M100.199 38.6688V39.9413H99.5104V38.6688L98.3906 36.3418H99.1434L99.6157 37.3758C99.7109 37.5871 99.7856 37.7847 99.8587 37.9703H99.8706C99.9454 37.7625 100.051 37.5325 100.156 37.3043L100.608 36.3418H101.34L100.199 38.6688Z" fill="#171717"/>
<path d="M85.8003 18H75.4336L80.6178 27.0013L85.8003 18Z" fill="#404040"/>
<path d="M96.1664 18H85.7997L80.6172 27.0013H90.9839H101.351L96.1664 18Z" fill="#171717"/>
<path d="M106.533 18.002H96.168L101.352 27.0032L106.533 18.002Z" fill="#404040"/>
<path d="M96.1636 0H85.7969L90.9794 9.0013L96.1636 0Z" fill="#404040"/>
<path d="M96.1647 0L90.9805 9.0013L96.1647 18.0009H106.53L96.1647 0Z" fill="#171717"/>
<path d="M85.8003 18.0009L90.9828 9.0013L85.8003 0L75.4336 18.0009H85.8003Z" fill="#171717"/>
</svg>
