<svg width="672" height="512" viewBox="0 0 672 512" fill="none" xmlns="http://www.w3.org/2000/svg">
<g clip-path="url(#clip0_27_86541)">
<rect width="672" height="512" rx="16" fill="white"/>
<rect x="50" y="368.294" width="117.697" height="101.755" stroke="#171717" stroke-width="0.919505" stroke-linejoin="bevel"/>
<path d="M94.2026 396.238L107.076 396.245L108.915 399.916H123.627V421.984H94.2026V396.238Z" stroke="#171717" stroke-width="0.919505" stroke-linejoin="bevel"/>
<path d="M77.7077 441.981V438.914H79.3518C80.8083 438.914 81.6138 438.031 81.6138 436.597C81.6138 435.162 80.8083 434.28 79.3518 434.28H76.4719V441.981H77.7077ZM77.7077 435.306H79.1642C79.9366 435.306 80.3117 435.648 80.3117 436.354V436.829C80.3117 437.535 79.9366 437.888 79.1642 437.888H77.7077V435.306ZM85.1955 438.87H86.2217L87.8547 441.981H89.2229L87.4465 438.76C88.5168 438.583 89.1126 437.766 89.1126 436.597C89.1126 435.162 88.3071 434.28 86.8506 434.28H83.9707V441.981H85.1955V438.87ZM85.1955 437.877V435.306H86.6741C87.4465 435.306 87.8216 435.648 87.8216 436.354V436.829C87.8216 437.535 87.4465 437.877 86.6741 437.877H85.1955ZM93.8529 442.114C95.806 442.114 96.6777 440.646 96.6777 438.131C96.6777 435.615 95.806 434.147 93.8529 434.147C91.8999 434.147 91.0282 435.615 91.0282 438.131C91.0282 440.646 91.8999 442.114 93.8529 442.114ZM93.8529 441.088C92.7495 441.088 92.3413 440.194 92.3413 438.782V437.48C92.3413 436.067 92.7495 435.173 93.8529 435.173C94.9563 435.173 95.3646 436.067 95.3646 437.48V438.771C95.3646 440.194 94.9563 441.088 93.8529 441.088ZM99.5643 434.28V435.317H102.246V439.753C102.246 440.646 101.815 441.077 101.098 441.077C100.315 441.077 99.9946 440.591 99.8622 439.962L98.6926 440.205C98.9243 441.386 99.7408 442.114 101.087 442.114C102.521 442.114 103.481 441.253 103.481 439.918V434.28H99.5643ZM111.311 441.981V440.944H107.725V438.594H111.179V437.557H107.725V435.317H111.311V434.28H106.489V441.981H111.311ZM116.57 442.114C118.06 442.114 118.744 441.253 119.097 440.205L117.983 439.83C117.751 440.536 117.431 441.088 116.559 441.088C115.467 441.088 114.992 440.194 114.992 438.782V437.48C114.992 436.067 115.467 435.173 116.559 435.173C117.431 435.173 117.751 435.725 117.983 436.431L119.097 436.056C118.744 435.008 118.06 434.147 116.57 434.147C114.617 434.147 113.679 435.582 113.679 438.131C113.679 440.679 114.617 442.114 116.57 442.114ZM126.883 435.317V434.28H120.814V435.317H123.23V441.981H124.466V435.317H126.883ZM141.77 441.981V440.955H139.905V434.28H137.996L136.032 436.409L136.794 437.093L138.581 435.184H138.669V440.955H136.507V441.981H141.77Z" fill="#171717"/>
<rect x="167.697" y="368.294" width="117.697" height="101.755" stroke="#171717" stroke-width="0.919505" stroke-linejoin="bevel"/>
<path d="M211.899 396.238L224.772 396.245L226.611 399.916H241.324V421.984H211.899V396.238Z" stroke="#171717" stroke-width="0.919505" stroke-linejoin="bevel"/>
<path d="M195.404 441.981V438.914H197.049C198.505 438.914 199.311 438.031 199.311 436.597C199.311 435.162 198.505 434.28 197.049 434.28H194.169V441.981H195.404ZM195.404 435.306H196.861C197.633 435.306 198.009 435.648 198.009 436.354V436.829C198.009 437.535 197.633 437.888 196.861 437.888H195.404V435.306ZM202.892 438.87H203.918L205.551 441.981H206.92L205.143 438.76C206.214 438.583 206.809 437.766 206.809 436.597C206.809 435.162 206.004 434.28 204.547 434.28H201.668V441.981H202.892V438.87ZM202.892 437.877V435.306H204.371C205.143 435.306 205.518 435.648 205.518 436.354V436.829C205.518 437.535 205.143 437.877 204.371 437.877H202.892ZM211.55 442.114C213.503 442.114 214.374 440.646 214.374 438.131C214.374 435.615 213.503 434.147 211.55 434.147C209.597 434.147 208.725 435.615 208.725 438.131C208.725 440.646 209.597 442.114 211.55 442.114ZM211.55 441.088C210.446 441.088 210.038 440.194 210.038 438.782V437.48C210.038 436.067 210.446 435.173 211.55 435.173C212.653 435.173 213.061 436.067 213.061 437.48V438.771C213.061 440.194 212.653 441.088 211.55 441.088ZM217.261 434.28V435.317H219.942V439.753C219.942 440.646 219.512 441.077 218.795 441.077C218.011 441.077 217.691 440.591 217.559 439.962L216.389 440.205C216.621 441.386 217.438 442.114 218.784 442.114C220.218 442.114 221.178 441.253 221.178 439.918V434.28H217.261ZM229.008 441.981V440.944H225.422V438.594H228.876V437.557H225.422V435.317H229.008V434.28H224.186V441.981H229.008ZM234.267 442.114C235.757 442.114 236.441 441.253 236.794 440.205L235.679 439.83C235.448 440.536 235.128 441.088 234.256 441.088C233.164 441.088 232.689 440.194 232.689 438.782V437.48C232.689 436.067 233.164 435.173 234.256 435.173C235.128 435.173 235.448 435.725 235.679 436.431L236.794 436.056C236.441 435.008 235.757 434.147 234.267 434.147C232.314 434.147 231.376 435.582 231.376 438.131C231.376 440.679 232.314 442.114 234.267 442.114ZM244.579 435.317V434.28H238.511V435.317H240.927V441.981H242.163V435.317H244.579ZM259.246 440.933H255.263L257.128 439.366C258.209 438.473 258.992 437.634 258.992 436.409C258.992 435.096 258.088 434.147 256.488 434.147C254.921 434.147 254.137 435.052 253.828 436.023L254.91 436.431C255.119 435.725 255.55 435.218 256.399 435.218C257.227 435.218 257.69 435.67 257.69 436.475V436.597C257.69 437.292 257.227 437.91 256.443 438.605L253.928 440.801V441.981H259.246V440.933Z" fill="#171717"/>
<rect x="285.393" y="368.294" width="117.697" height="101.755" stroke="#171717" stroke-width="0.919505" stroke-linejoin="bevel"/>
<path d="M329.596 396.238L342.469 396.245L344.308 399.916H359.02V421.984H329.596V396.238Z" stroke="#171717" stroke-width="0.919505" stroke-linejoin="bevel"/>
<path d="M313.101 441.981V438.914H314.745C316.201 438.914 317.007 438.031 317.007 436.597C317.007 435.162 316.201 434.28 314.745 434.28H311.865V441.981H313.101ZM313.101 435.306H314.557C315.33 435.306 315.705 435.648 315.705 436.354V436.829C315.705 437.535 315.33 437.888 314.557 437.888H313.101V435.306ZM320.589 438.87H321.615L323.248 441.981H324.616L322.84 438.76C323.91 438.583 324.506 437.766 324.506 436.597C324.506 435.162 323.7 434.28 322.244 434.28H319.364V441.981H320.589V438.87ZM320.589 437.877V435.306H322.067C322.84 435.306 323.215 435.648 323.215 436.354V436.829C323.215 437.535 322.84 437.877 322.067 437.877H320.589ZM329.246 442.114C331.199 442.114 332.071 440.646 332.071 438.131C332.071 435.615 331.199 434.147 329.246 434.147C327.293 434.147 326.421 435.615 326.421 438.131C326.421 440.646 327.293 442.114 329.246 442.114ZM329.246 441.088C328.143 441.088 327.734 440.194 327.734 438.782V437.48C327.734 436.067 328.143 435.173 329.246 435.173C330.349 435.173 330.758 436.067 330.758 437.48V438.771C330.758 440.194 330.349 441.088 329.246 441.088ZM334.957 434.28V435.317H337.639V439.753C337.639 440.646 337.208 441.077 336.491 441.077C335.708 441.077 335.388 440.591 335.255 439.962L334.086 440.205C334.317 441.386 335.134 442.114 336.48 442.114C337.914 442.114 338.874 441.253 338.874 439.918V434.28H334.957ZM346.704 441.981V440.944H343.118V438.594H346.572V437.557H343.118V435.317H346.704V434.28H341.882V441.981H346.704ZM351.963 442.114C353.453 442.114 354.137 441.253 354.49 440.205L353.376 439.83C353.144 440.536 352.824 441.088 351.952 441.088C350.86 441.088 350.385 440.194 350.385 438.782V437.48C350.385 436.067 350.86 435.173 351.952 435.173C352.824 435.173 353.144 435.725 353.376 436.431L354.49 436.056C354.137 435.008 353.453 434.147 351.963 434.147C350.01 434.147 349.072 435.582 349.072 438.131C349.072 440.679 350.01 442.114 351.963 442.114ZM362.276 435.317V434.28H356.207V435.317H358.623V441.981H359.859V435.317H362.276ZM373.125 437.457V438.495H373.952C374.967 438.495 375.519 438.936 375.519 439.719V439.808C375.519 440.602 374.978 441.077 374.018 441.077C373.103 441.077 372.65 440.646 372.264 440.028L371.348 440.735C371.834 441.441 372.573 442.114 374.007 442.114C375.707 442.114 376.821 441.209 376.821 439.863C376.821 438.748 376.049 438.12 375.166 437.954V437.899C375.993 437.722 376.667 437.115 376.667 436.133C376.667 434.887 375.596 434.147 374.14 434.147C372.838 434.147 372.132 434.743 371.646 435.416L372.485 436.133C372.838 435.549 373.356 435.184 374.096 435.184C374.868 435.184 375.376 435.571 375.376 436.277V436.354C375.376 436.983 374.901 437.457 373.919 437.457H373.125Z" fill="#171717"/>
<rect x="101.492" y="344.997" width="14.7121" height="3.67802" fill="#F5F5F5" stroke="#171717" stroke-width="0.919505" stroke-linejoin="bevel"/>
<rect x="219.189" y="344.997" width="14.7121" height="3.67802" fill="#F5F5F5" stroke="#171717" stroke-width="0.919505" stroke-linejoin="bevel"/>
<rect x="403.09" y="411.201" width="3.67802" height="14.7121" fill="#F5F5F5" stroke="#171717" stroke-width="0.919505" stroke-linejoin="bevel"/>
<path d="M108.848 348.675V368.904" stroke="#171717" stroke-width="0.919505" stroke-linejoin="bevel"/>
<path d="M226.545 348.675V368.904" stroke="#171717" stroke-width="0.919505" stroke-linejoin="bevel"/>
<path d="M432.514 418.557H406.768" stroke="#171717" stroke-width="0.919505" stroke-linejoin="bevel"/>
<path d="M171.375 135.35V109.604H112.526V50.7554H230.223V109.604H200.799V80.1795H141.951" stroke="#171717" stroke-width="0.919505" stroke-linejoin="bevel"/>
<rect x="164.019" y="135.35" width="14.7121" height="3.67802" fill="#F5F5F5" stroke="#171717" stroke-width="0.919505" stroke-linejoin="bevel"/>
<circle cx="171.374" cy="80.1796" r="11.0341" fill="#F5F5F5" stroke="#171717" stroke-width="0.919505" stroke-linejoin="bevel"/>
<circle cx="171.374" cy="50.7555" r="11.0341" fill="#F5F5F5" stroke="#171717" stroke-width="0.919505" stroke-linejoin="bevel"/>
<circle cx="200.799" cy="80.1796" r="11.0341" fill="#F5F5F5" stroke="#171717" stroke-width="0.919505" stroke-linejoin="bevel"/>
<circle cx="200.799" cy="50.7555" r="11.0341" fill="#F5F5F5" stroke="#171717" stroke-width="0.919505" stroke-linejoin="bevel"/>
<circle cx="230.223" cy="80.1796" r="11.0341" fill="#F5F5F5" stroke="#171717" stroke-width="0.919505" stroke-linejoin="bevel"/>
<circle cx="230.223" cy="50.7555" r="11.0341" fill="#F5F5F5" stroke="#171717" stroke-width="0.919505" stroke-linejoin="bevel"/>
<circle cx="230.223" cy="109.604" r="11.0341" fill="#F5F5F5" stroke="#171717" stroke-width="0.919505" stroke-linejoin="bevel"/>
<circle cx="200.799" cy="109.604" r="11.0341" fill="#F5F5F5" stroke="#171717" stroke-width="0.919505" stroke-linejoin="bevel"/>
<circle cx="171.374" cy="109.604" r="11.0341" fill="#F5F5F5" stroke="#171717" stroke-width="0.919505" stroke-linejoin="bevel"/>
<circle cx="141.951" cy="80.1796" r="11.0341" fill="#F5F5F5" stroke="#171717" stroke-width="0.919505" stroke-linejoin="bevel"/>
<circle cx="141.951" cy="50.7555" r="11.0341" fill="#F5F5F5" stroke="#171717" stroke-width="0.919505" stroke-linejoin="bevel"/>
<circle cx="141.951" cy="109.604" r="11.0341" fill="#F5F5F5" stroke="#171717" stroke-width="0.919505" stroke-linejoin="bevel"/>
<circle cx="112.526" cy="80.1796" r="11.0341" fill="#F5F5F5" stroke="#171717" stroke-width="0.919505" stroke-linejoin="bevel"/>
<circle cx="112.526" cy="50.7555" r="11.0341" fill="#F5F5F5" stroke="#171717" stroke-width="0.919505" stroke-linejoin="bevel"/>
<circle cx="112.526" cy="109.604" r="11.0341" fill="#F5F5F5" stroke="#171717" stroke-width="0.919505" stroke-linejoin="bevel"/>
<path d="M117.124 87.5355L116.695 86.6773C116.394 86.0762 115.78 85.6965 115.108 85.6965V85.6965C114.055 85.6965 113.056 85.2287 112.382 84.4197L110.202 81.8037C109.379 80.817 109.219 79.4372 109.794 78.2885L109.865 78.1463C110.369 77.1382 111.399 76.5015 112.526 76.5015V76.5015C113.653 76.5015 114.684 77.1382 115.188 78.1463L115.285 78.3405C115.848 79.4675 115.727 80.8163 114.971 81.8243L114.825 82.0185L114.135 82.938M107.929 87.5355L108.34 86.7131C108.651 86.0901 109.288 85.6965 109.985 85.6965H111.147" stroke="#171717" stroke-width="0.919505" stroke-linejoin="bevel"/>
<path d="M117.124 58.1114L116.695 57.2532C116.394 56.6521 115.78 56.2724 115.108 56.2724V56.2724C114.055 56.2724 113.056 55.8047 112.382 54.9957L110.202 52.3796C109.379 51.3929 109.219 50.0131 109.794 48.8644L109.865 48.7223C110.369 47.7142 111.399 47.0774 112.526 47.0774V47.0774C113.653 47.0774 114.684 47.7142 115.188 48.7223L115.285 48.9164C115.848 50.0435 115.727 51.3922 114.971 52.4003L114.825 52.5944L114.135 53.5139M107.929 58.1114L108.34 57.289C108.651 56.666 109.288 56.2724 109.985 56.2724H111.147" stroke="#171717" stroke-width="0.919505" stroke-linejoin="bevel"/>
<path d="M117.124 116.96L116.695 116.102C116.394 115.501 115.78 115.121 115.108 115.121V115.121C114.055 115.121 113.056 114.653 112.382 113.844L110.202 111.228C109.379 110.241 109.219 108.862 109.794 107.713L109.865 107.571C110.369 106.563 111.399 105.926 112.526 105.926V105.926C113.653 105.926 114.684 106.563 115.188 107.571L115.285 107.765C115.848 108.892 115.727 110.241 114.971 111.249L114.825 111.443L114.135 112.362M107.929 116.96L108.34 116.137C108.651 115.514 109.288 115.121 109.985 115.121H111.147" stroke="#171717" stroke-width="0.919505" stroke-linejoin="bevel"/>
<path d="M146.548 87.5355L146.119 86.6773C145.818 86.0762 145.204 85.6965 144.532 85.6965V85.6965C143.479 85.6965 142.48 85.2287 141.806 84.4197L139.626 81.8037C138.804 80.817 138.644 79.4372 139.218 78.2885L139.289 78.1463C139.793 77.1382 140.823 76.5015 141.951 76.5015V76.5015C143.078 76.5015 144.108 77.1382 144.612 78.1463L144.709 78.3405C145.273 79.4675 145.151 80.8163 144.395 81.8243L144.249 82.0185L143.56 82.938M137.353 87.5355L137.764 86.7131C138.076 86.0901 138.713 85.6965 139.409 85.6965H140.571" stroke="#171717" stroke-width="0.919505" stroke-linejoin="bevel"/>
<path d="M146.548 58.1114L146.119 57.2532C145.818 56.6521 145.204 56.2724 144.532 56.2724V56.2724C143.479 56.2724 142.48 55.8047 141.806 54.9957L139.626 52.3796C138.804 51.3929 138.644 50.0131 139.218 48.8644L139.289 48.7223C139.793 47.7142 140.823 47.0774 141.951 47.0774V47.0774C143.078 47.0774 144.108 47.7142 144.612 48.7223L144.709 48.9164C145.273 50.0435 145.151 51.3922 144.395 52.4003L144.249 52.5944L143.56 53.5139M137.353 58.1114L137.764 57.289C138.076 56.666 138.713 56.2724 139.409 56.2724H140.571" stroke="#171717" stroke-width="0.919505" stroke-linejoin="bevel"/>
<path d="M146.548 116.96L146.119 116.102C145.818 115.501 145.204 115.121 144.532 115.121V115.121C143.479 115.121 142.48 114.653 141.806 113.844L139.626 111.228C138.804 110.241 138.644 108.862 139.218 107.713L139.289 107.571C139.793 106.563 140.823 105.926 141.951 105.926V105.926C143.078 105.926 144.108 106.563 144.612 107.571L144.709 107.765C145.273 108.892 145.151 110.241 144.395 111.249L144.249 111.443L143.56 112.362M137.353 116.96L137.764 116.137C138.076 115.514 138.713 115.121 139.409 115.121H140.571" stroke="#171717" stroke-width="0.919505" stroke-linejoin="bevel"/>
<path d="M175.972 87.5355L175.543 86.6773C175.242 86.0762 174.628 85.6965 173.956 85.6965V85.6965C172.903 85.6965 171.904 85.2287 171.23 84.4197L169.05 81.8037C168.228 80.817 168.067 79.4372 168.642 78.2885L168.713 78.1463C169.217 77.1382 170.247 76.5015 171.374 76.5015V76.5015C172.501 76.5015 173.532 77.1382 174.036 78.1463L174.133 78.3405C174.696 79.4675 174.575 80.8163 173.819 81.8243L173.673 82.0185L172.984 82.938M166.777 87.5355L167.188 86.7131C167.5 86.0901 168.136 85.6965 168.833 85.6965H169.995" stroke="#171717" stroke-width="0.919505" stroke-linejoin="bevel"/>
<path d="M175.972 58.1114L175.543 57.2532C175.242 56.6521 174.628 56.2724 173.956 56.2724V56.2724C172.903 56.2724 171.904 55.8047 171.23 54.9957L169.05 52.3796C168.228 51.3929 168.067 50.0131 168.642 48.8644L168.713 48.7223C169.217 47.7142 170.247 47.0774 171.374 47.0774V47.0774C172.501 47.0774 173.532 47.7142 174.036 48.7223L174.133 48.9164C174.696 50.0435 174.575 51.3922 173.819 52.4003L173.673 52.5944L172.984 53.5139M166.777 58.1114L167.188 57.289C167.5 56.666 168.136 56.2724 168.833 56.2724H169.995" stroke="#171717" stroke-width="0.919505" stroke-linejoin="bevel"/>
<path d="M205.396 87.5355L204.967 86.6773C204.667 86.0762 204.052 85.6965 203.38 85.6965V85.6965C202.327 85.6965 201.328 85.2287 200.654 84.4197L198.474 81.8037C197.652 80.817 197.492 79.4372 198.066 78.2885L198.137 78.1463C198.641 77.1382 199.672 76.5015 200.799 76.5015V76.5015C201.926 76.5015 202.956 77.1382 203.46 78.1463L203.557 78.3405C204.121 79.4675 203.999 80.8163 203.243 81.8243L203.097 82.0185L202.408 82.938M196.201 87.5355L196.612 86.7131C196.924 86.0901 197.561 85.6965 198.257 85.6965H199.419" stroke="#171717" stroke-width="0.919505" stroke-linejoin="bevel"/>
<path d="M205.396 58.1114L204.967 57.2532C204.667 56.6521 204.052 56.2724 203.38 56.2724V56.2724C202.327 56.2724 201.328 55.8047 200.654 54.9957L198.474 52.3796C197.652 51.3929 197.492 50.0131 198.066 48.8644L198.137 48.7223C198.641 47.7142 199.672 47.0774 200.799 47.0774V47.0774C201.926 47.0774 202.956 47.7142 203.46 48.7223L203.557 48.9164C204.121 50.0435 203.999 51.3922 203.243 52.4003L203.097 52.5944L202.408 53.5139M196.201 58.1114L196.612 57.289C196.924 56.666 197.561 56.2724 198.257 56.2724H199.419" stroke="#171717" stroke-width="0.919505" stroke-linejoin="bevel"/>
<path d="M234.821 87.5355L234.391 86.6773C234.091 86.0762 233.477 85.6965 232.805 85.6965V85.6965C231.751 85.6965 230.753 85.2287 230.079 84.4197L227.898 81.8037C227.076 80.817 226.916 79.4372 227.491 78.2885L227.562 78.1463C228.066 77.1382 229.096 76.5015 230.223 76.5015V76.5015C231.35 76.5015 232.38 77.1382 232.884 78.1463L232.982 78.3405C233.545 79.4675 233.423 80.8163 232.667 81.8243L232.522 82.0185L231.832 82.938M225.625 87.5355L226.037 86.7131C226.348 86.0901 226.985 85.6965 227.682 85.6965H228.844" stroke="#171717" stroke-width="0.919505" stroke-linejoin="bevel"/>
<path d="M234.821 58.1114L234.391 57.2532C234.091 56.6521 233.477 56.2724 232.805 56.2724V56.2724C231.751 56.2724 230.753 55.8047 230.079 54.9957L227.898 52.3796C227.076 51.3929 226.916 50.0131 227.491 48.8644L227.562 48.7223C228.066 47.7142 229.096 47.0774 230.223 47.0774V47.0774C231.35 47.0774 232.38 47.7142 232.884 48.7223L232.982 48.9164C233.545 50.0435 233.423 51.3922 232.667 52.4003L232.522 52.5944L231.832 53.5139M225.625 58.1114L226.037 57.289C226.348 56.666 226.985 56.2724 227.682 56.2724H228.844" stroke="#171717" stroke-width="0.919505" stroke-linejoin="bevel"/>
<path d="M234.821 116.96L234.391 116.102C234.091 115.501 233.477 115.121 232.805 115.121V115.121C231.751 115.121 230.753 114.653 230.079 113.844L227.898 111.228C227.076 110.241 226.916 108.862 227.491 107.713L227.562 107.571C228.066 106.563 229.096 105.926 230.223 105.926V105.926C231.35 105.926 232.38 106.563 232.884 107.571L232.982 107.765C233.545 108.892 233.423 110.241 232.667 111.249L232.522 111.443L231.832 112.362M225.625 116.96L226.037 116.137C226.348 115.514 226.985 115.121 227.682 115.121H228.844" stroke="#171717" stroke-width="0.919505" stroke-linejoin="bevel"/>
<path d="M205.396 116.96L204.967 116.102C204.667 115.501 204.052 115.121 203.38 115.121V115.121C202.327 115.121 201.328 114.653 200.654 113.844L198.474 111.228C197.652 110.241 197.492 108.862 198.066 107.713L198.137 107.571C198.641 106.563 199.672 105.926 200.799 105.926V105.926C201.926 105.926 202.956 106.563 203.46 107.571L203.557 107.765C204.121 108.892 203.999 110.241 203.243 111.249L203.097 111.443L202.408 112.362M196.201 116.96L196.612 116.137C196.924 115.514 197.561 115.121 198.257 115.121H199.419" stroke="#171717" stroke-width="0.919505" stroke-linejoin="bevel"/>
<path d="M175.972 116.96L175.543 116.102C175.242 115.501 174.628 115.121 173.956 115.121V115.121C172.903 115.121 171.904 114.653 171.23 113.844L169.05 111.228C168.228 110.241 168.067 108.862 168.642 107.713L168.713 107.571C169.217 106.563 170.247 105.926 171.374 105.926V105.926C172.501 105.926 173.532 106.563 174.036 107.571L174.133 107.765C174.696 108.892 174.575 110.241 173.819 111.249L173.673 111.443L172.984 112.362M166.777 116.96L167.188 116.137C167.5 115.514 168.136 115.121 168.833 115.121H169.995" stroke="#171717" stroke-width="0.919505" stroke-linejoin="bevel"/>
<rect x="316.656" y="43.3994" width="44.1362" height="14.7121" fill="#7DD3FC" stroke="#7DD3FC" stroke-width="0.919505" stroke-linejoin="bevel"/>
<rect x="346.081" y="43.3994" width="14.7121" height="14.7121" fill="#7DD3FC" stroke="#7DD3FC" stroke-width="0.919505" stroke-linejoin="bevel"/>
<rect x="316.656" y="102.248" width="161.833" height="14.7121" fill="#7DD3FC" stroke="#7DD3FC" stroke-width="0.919505" stroke-linejoin="bevel"/>
<rect x="375.504" y="102.248" width="14.7121" height="14.7121" fill="#7DD3FC" stroke="#7DD3FC" stroke-width="0.919505" stroke-linejoin="bevel"/>
<rect x="434.353" y="102.248" width="14.7121" height="14.7121" fill="#7DD3FC" stroke="#7DD3FC" stroke-width="0.919505" stroke-linejoin="bevel"/>
<rect x="346.081" y="102.248" width="14.7121" height="14.7121" fill="#7DD3FC" stroke="#7DD3FC" stroke-width="0.919505" stroke-linejoin="bevel"/>
<rect x="404.929" y="102.248" width="14.7121" height="14.7121" fill="#7DD3FC" stroke="#7DD3FC" stroke-width="0.919505" stroke-linejoin="bevel"/>
<rect x="463.777" y="102.248" width="14.7121" height="14.7121" fill="#7DD3FC" stroke="#7DD3FC" stroke-width="0.919505" stroke-linejoin="bevel"/>
<rect x="316.656" y="72.8235" width="102.985" height="14.7121" fill="#7DD3FC" stroke="#7DD3FC" stroke-width="0.919505" stroke-linejoin="bevel"/>
<rect x="375.504" y="72.8235" width="14.7121" height="14.7121" fill="#7DD3FC" stroke="#7DD3FC" stroke-width="0.919505" stroke-linejoin="bevel"/>
<rect x="346.081" y="72.8235" width="14.7121" height="14.7121" fill="#7DD3FC" stroke="#7DD3FC" stroke-width="0.919505" stroke-linejoin="bevel"/>
<rect x="404.929" y="72.8235" width="14.7121" height="14.7121" fill="#7DD3FC" stroke="#7DD3FC" stroke-width="0.919505" stroke-linejoin="bevel"/>
<rect x="318.495" y="45.2383" width="11.0341" height="11.0341" stroke="#171717" stroke-width="0.919505" stroke-linejoin="bevel"/>
<rect x="318.495" y="74.6626" width="11.0341" height="11.0341" stroke="#171717" stroke-width="0.919505" stroke-linejoin="bevel"/>
<rect x="318.495" y="104.087" width="11.0341" height="11.0341" stroke="#171717" stroke-width="0.919505" stroke-linejoin="bevel"/>
<rect x="347.919" y="104.087" width="11.0341" height="11.0341" stroke="#171717" stroke-width="0.919505" stroke-linejoin="bevel"/>
<rect x="377.344" y="104.087" width="11.0341" height="11.0341" stroke="#171717" stroke-width="0.919505" stroke-linejoin="bevel"/>
<rect x="406.768" y="104.087" width="11.0341" height="11.0341" stroke="#171717" stroke-width="0.919505" stroke-linejoin="bevel"/>
<rect x="436.192" y="104.087" width="11.0341" height="11.0341" stroke="#171717" stroke-width="0.919505" stroke-linejoin="bevel"/>
<rect x="465.616" y="104.087" width="11.0341" height="11.0341" stroke="#171717" stroke-width="0.919505" stroke-linejoin="bevel"/>
<rect x="406.768" y="74.6626" width="11.0341" height="11.0341" stroke="#171717" stroke-width="0.919505" stroke-linejoin="bevel"/>
<rect x="377.344" y="74.6626" width="11.0341" height="11.0341" stroke="#171717" stroke-width="0.919505" stroke-linejoin="bevel"/>
<rect x="347.919" y="74.6626" width="11.0341" height="11.0341" stroke="#171717" stroke-width="0.919505" stroke-linejoin="bevel"/>
<rect x="377.344" y="45.2383" width="11.0341" height="11.0341" stroke="#171717" stroke-width="0.919505" stroke-linejoin="bevel"/>
<rect x="347.919" y="45.2383" width="11.0341" height="11.0341" stroke="#171717" stroke-width="0.919505" stroke-linejoin="bevel"/>
<rect x="436.192" y="45.2383" width="11.0341" height="11.0341" stroke="#171717" stroke-width="0.919505" stroke-linejoin="bevel"/>
<rect x="495.04" y="45.2383" width="11.0341" height="11.0341" stroke="#171717" stroke-width="0.919505" stroke-linejoin="bevel"/>
<rect x="553.889" y="45.2383" width="11.0341" height="11.0341" stroke="#171717" stroke-width="0.919505" stroke-linejoin="bevel"/>
<rect x="406.768" y="45.2383" width="11.0341" height="11.0341" stroke="#171717" stroke-width="0.919505" stroke-linejoin="bevel"/>
<rect x="465.616" y="45.2383" width="11.0341" height="11.0341" stroke="#171717" stroke-width="0.919505" stroke-linejoin="bevel"/>
<rect x="524.464" y="45.2383" width="11.0341" height="11.0341" stroke="#171717" stroke-width="0.919505" stroke-linejoin="bevel"/>
<rect x="583.312" y="45.2383" width="11.0341" height="11.0341" stroke="#171717" stroke-width="0.919505" stroke-linejoin="bevel"/>
<rect x="553.889" y="104.087" width="11.0341" height="11.0341" stroke="#171717" stroke-width="0.919505" stroke-linejoin="bevel"/>
<rect x="524.464" y="104.087" width="11.0341" height="11.0341" stroke="#171717" stroke-width="0.919505" stroke-linejoin="bevel"/>
<rect x="495.04" y="104.087" width="11.0341" height="11.0341" stroke="#171717" stroke-width="0.919505" stroke-linejoin="bevel"/>
<rect x="583.312" y="104.087" width="11.0341" height="11.0341" stroke="#171717" stroke-width="0.919505" stroke-linejoin="bevel"/>
<rect x="436.192" y="74.6626" width="11.0341" height="11.0341" stroke="#171717" stroke-width="0.919505" stroke-linejoin="bevel"/>
<rect x="495.04" y="74.6626" width="11.0341" height="11.0341" stroke="#171717" stroke-width="0.919505" stroke-linejoin="bevel"/>
<rect x="465.616" y="74.6626" width="11.0341" height="11.0341" stroke="#171717" stroke-width="0.919505" stroke-linejoin="bevel"/>
<rect x="553.889" y="74.6626" width="11.0341" height="11.0341" stroke="#171717" stroke-width="0.919505" stroke-linejoin="bevel"/>
<rect x="524.464" y="74.6626" width="11.0341" height="11.0341" stroke="#171717" stroke-width="0.919505" stroke-linejoin="bevel"/>
<rect x="583.312" y="74.6626" width="11.0341" height="11.0341" stroke="#171717" stroke-width="0.919505" stroke-linejoin="bevel"/>
<rect x="50" y="139.028" width="573.771" height="205.969" stroke="#171717" stroke-width="0.919505" stroke-linejoin="bevel"/>
<path d="M270.681 251.208L290.91 271.437L270.681 291.666L250.452 271.437L270.681 251.208Z" fill="#FBBF24" stroke="#FBBF24" stroke-width="0.919505" stroke-linejoin="bevel"/>
<circle cx="579.635" cy="242.013" r="20.2291" fill="#7DD3FC" stroke="#7DD3FC" stroke-width="0.919505" stroke-linejoin="bevel"/>
<rect x="154.824" y="258.563" width="69.8824" height="25.7461" rx="12.8731" fill="#EA580C" stroke="#EA580C" stroke-width="0.919505" stroke-linejoin="round"/>
<path d="M73.9072 225.461H98.7339L115.285 242.013L98.7339 258.564H73.9072V225.461Z" fill="#FBBF24" stroke="#FBBF24" stroke-width="0.919505" stroke-linejoin="bevel"/>
<path d="M346.081 242.013C346.081 220.684 363.371 203.393 384.7 203.393V203.393C406.029 203.393 423.319 220.684 423.319 242.013V242.013H346.081V242.013Z" fill="#FBBF24" stroke="#FBBF24" stroke-width="0.919505" stroke-linejoin="bevel"/>
<rect x="463.777" y="199.715" width="69.8824" height="25.7461" rx="12.8731" fill="#F97316" stroke="#EA580C" stroke-width="0.919505" stroke-linejoin="round"/>
<path d="M75.7461 227.301H97.8142L112.526 242.013L97.8142 256.725H75.7461V227.301Z" stroke="#171717" stroke-width="0.919505" stroke-linejoin="bevel"/>
<path d="M270.681 253.047L289.071 271.437L270.681 289.827L252.291 271.437L270.681 253.047Z" stroke="#171717" stroke-width="0.919505" stroke-linejoin="bevel"/>
<path d="M270.681 194.198L289.071 212.588L270.681 230.978L252.291 212.588L270.681 194.198Z" stroke="#171717" stroke-width="0.919505" stroke-linejoin="bevel"/>
<rect x="156.663" y="201.554" width="66.2043" height="22.0681" rx="11.0341" stroke="#171717" stroke-width="0.919505" stroke-linejoin="bevel"/>
<rect x="465.616" y="260.403" width="66.2043" height="22.0681" rx="11.0341" stroke="#171717" stroke-width="0.919505" stroke-linejoin="bevel"/>
<rect x="156.663" y="260.403" width="66.2043" height="22.0681" rx="11.0341" stroke="#171717" stroke-width="0.919505" stroke-linejoin="round"/>
<rect x="465.616" y="201.554" width="66.2043" height="22.0681" rx="11.0341" stroke="#171717" stroke-width="0.919505" stroke-linejoin="bevel"/>
<path d="M112.526 242.013H127.238M127.238 242.013V271.437H156.663M127.238 242.013V212.588H156.663" stroke="#171717" stroke-width="0.919505" stroke-linejoin="bevel"/>
<path d="M421.48 242.013H450.904M450.904 242.013V271.437H465.616M450.904 242.013V212.588H465.616" stroke="#171717" stroke-width="0.919505" stroke-linejoin="bevel"/>
<path d="M347.92 242.013H318.495M318.495 242.013V271.437H289.071M318.495 242.013V212.588H289.071" stroke="#171717" stroke-width="0.919505" stroke-linejoin="bevel"/>
<path d="M561.244 242.013H546.532M546.532 242.013V271.437H531.82M546.532 242.013V212.588H531.82" stroke="#171717" stroke-width="0.919505" stroke-linejoin="bevel"/>
<path d="M252.291 271.437H222.867M222.867 212.588H252.291" stroke="#171717" stroke-width="0.919505" stroke-linejoin="bevel"/>
<circle cx="384.7" cy="242.013" r="36.7802" stroke="#171717" stroke-width="0.919505" stroke-linejoin="bevel"/>
<circle cx="579.635" cy="242.012" r="18.3901" stroke="#171717" stroke-width="0.919505" stroke-linejoin="bevel"/>
<g filter="url(#filter0_dd_27_86541)">
<rect x="425.158" y="321.09" width="218.842" height="169.189" rx="14.7121" fill="white"/>
</g>
<rect x="442" y="352" width="32.5372" height="32.5372" rx="9.76116" fill="#93C5FD"/>
<path fill-rule="evenodd" clip-rule="evenodd" d="M457.173 363.886H454.982V361.695H453.887V363.886H451.696V364.982H453.887V367.173H454.982V364.982H457.173V363.886ZM457.173 369.912H451.695V371.008H457.173V369.912ZM451.695 372.651H457.173V373.747H451.695V372.651ZM464.842 363.886H459.364V364.982H464.842V363.886ZM464.842 369.589L462.876 371.555L464.842 373.522L464.07 374.294L462.103 372.328L460.137 374.294L459.364 373.522L461.331 371.555L459.364 369.589L460.137 368.816L462.103 370.783L464.07 368.816L464.842 369.589Z" fill="#171717"/>
<rect x="480.537" y="352" width="32.5372" height="32.5372" rx="9.76116" fill="#FB923C"/>
<path d="M502.958 372.442L498.997 366.995V361.695H500.093V360.6H493.519V361.695H494.615V366.995L490.653 372.442C490.415 372.77 490.271 373.158 490.239 373.563C490.207 373.968 490.288 374.374 490.472 374.736C490.656 375.097 490.937 375.401 491.283 375.613C491.63 375.826 492.028 375.938 492.434 375.938H501.178C501.584 375.938 501.982 375.826 502.329 375.613C502.675 375.401 502.956 375.097 503.14 374.736C503.324 374.374 503.405 373.968 503.373 373.563C503.341 373.158 503.197 372.77 502.958 372.442V372.442ZM495.71 367.351V361.695H497.902V367.351L499.366 369.364H494.246L495.71 367.351ZM501.178 374.842H492.434C492.23 374.842 492.03 374.786 491.856 374.679C491.682 374.573 491.541 374.42 491.448 374.238C491.356 374.056 491.315 373.853 491.331 373.649C491.347 373.446 491.419 373.251 491.539 373.086L493.449 370.46H500.163L502.073 373.086C502.192 373.251 502.264 373.446 502.28 373.649C502.296 373.853 502.256 374.056 502.163 374.238C502.071 374.42 501.93 374.573 501.756 374.679C501.582 374.786 501.382 374.842 501.178 374.842V374.842Z" fill="#171717"/>
<rect x="519.074" y="352" width="32.5372" height="32.5372" rx="9.76116" fill="#4ADE80"/>
<path fill-rule="evenodd" clip-rule="evenodd" d="M533.381 373.464L536.241 362.791L537.299 363.075L534.439 373.747L533.381 373.464ZM527.126 368.269L530.961 364.434L531.733 365.206L528.676 368.269L531.733 371.331L530.961 372.103L527.126 368.269ZM543.56 368.269L539.725 372.103L538.953 371.331L542.009 368.269L538.953 365.206L539.725 364.434L543.56 368.269Z" fill="#171717"/>
<rect x="557.612" y="352" width="32.5372" height="32.5372" rx="9.76116" fill="#FB923C"/>
<path fill-rule="evenodd" clip-rule="evenodd" d="M574.428 363.339H574.976C575.266 363.338 575.545 363.223 575.75 363.017C575.956 362.812 576.071 362.534 576.072 362.243V361.695H575.524C575.233 361.696 574.955 361.811 574.749 362.017C574.544 362.222 574.429 362.5 574.428 362.791V363.339ZM575.373 364.179C575.915 364.007 576.478 363.908 577.046 363.887C579.562 363.887 580.454 366.247 580.454 368.269C580.454 372.383 578.225 374.842 576.072 374.843C575.602 374.818 575.14 374.708 574.708 374.519C574.446 374.402 574.167 374.326 573.881 374.295C573.595 374.326 573.317 374.402 573.055 374.519C572.623 374.708 572.161 374.818 571.691 374.843H571.69C569.536 374.842 567.307 372.383 567.307 368.269C567.307 365.566 568.573 363.887 570.611 363.887C571.201 363.911 571.786 364.01 572.352 364.18C572.659 364.259 572.954 364.332 573.238 364.38C573.108 363.923 572.833 363.522 572.455 363.235C572.077 362.949 571.616 362.793 571.142 362.791V361.696C571.913 361.697 572.659 361.969 573.25 362.464C573.84 362.959 574.239 363.646 574.375 364.405C574.712 364.351 575.045 364.276 575.373 364.179ZM575.091 373.493C575.401 373.632 575.733 373.718 576.072 373.747C577.687 373.746 579.359 371.697 579.359 368.269C579.359 367.72 579.247 364.982 577.046 364.982C576.575 365.006 576.109 365.092 575.66 365.236C575.128 365.405 574.577 365.503 574.019 365.53H573.75C573.184 365.501 572.623 365.404 572.08 365.241C571.603 365.096 571.109 365.009 570.611 364.982C568.618 364.982 568.403 367.281 568.403 368.269C568.403 371.697 570.074 373.746 571.689 373.747C572.029 373.718 572.361 373.632 572.672 373.493C573.054 373.324 573.464 373.224 573.881 373.199C574.298 373.224 574.708 373.324 575.091 373.493Z" fill="#171717"/>
<rect x="596.149" y="352" width="32.5372" height="32.5372" rx="9.76116" fill="#FBBF24"/>
<path fill-rule="evenodd" clip-rule="evenodd" d="M606.94 372.654H617.896C618.186 372.653 618.464 372.538 618.67 372.332C618.875 372.127 618.991 371.849 618.991 371.558V363.889C618.991 363.599 618.875 363.32 618.67 363.115C618.465 362.909 618.186 362.794 617.896 362.793H606.94C606.649 362.794 606.371 362.909 606.165 363.115C605.96 363.32 605.844 363.599 605.844 363.889V371.558C605.844 371.849 605.96 372.127 606.165 372.332C606.371 372.538 606.649 372.653 606.94 372.654ZM606.94 371.558V363.889H617.896V371.558H606.94ZM604.749 373.749H620.087V374.845H604.749V373.749Z" fill="#171717"/>
<rect x="442" y="390.537" width="32.5372" height="32.5372" rx="9.76116" fill="#93C5FD"/>
<path d="M460.46 406.806C460.46 407.532 460.748 408.229 461.262 408.743C461.776 409.256 462.472 409.545 463.199 409.545C463.925 409.545 464.622 409.256 465.136 408.743C465.649 408.229 465.938 407.532 465.938 406.806C465.938 406.721 465.918 406.637 465.88 406.561L463.69 402.18C463.682 402.165 463.674 402.15 463.665 402.136C463.616 402.056 463.547 401.991 463.466 401.945C463.384 401.9 463.292 401.876 463.199 401.876H459.814C459.732 401.647 459.599 401.439 459.427 401.267C459.254 401.095 459.046 400.963 458.817 400.881V399.137H457.721V400.881C457.492 400.963 457.283 401.095 457.111 401.267C456.938 401.439 456.806 401.647 456.723 401.876H453.339C453.237 401.876 453.137 401.904 453.051 401.957C452.964 402.011 452.894 402.087 452.849 402.178L450.657 406.561C450.619 406.637 450.6 406.721 450.6 406.806C450.6 407.532 450.888 408.229 451.402 408.743C451.915 409.256 452.612 409.545 453.339 409.545C454.065 409.545 454.762 409.256 455.275 408.743C455.789 408.229 456.078 407.532 456.078 406.806C456.078 406.721 456.058 406.637 456.02 406.561L454.225 402.971H456.723C456.806 403.2 456.938 403.408 457.111 403.58C457.283 403.752 457.492 403.884 457.721 403.966V413.379H452.791V414.475H463.747V413.379H458.817V403.966C459.046 403.884 459.254 403.752 459.427 403.58C459.599 403.408 459.732 403.2 459.814 402.971H462.312L460.518 406.561C460.48 406.637 460.46 406.721 460.46 406.806ZM453.339 408.449C453 408.448 452.67 408.342 452.394 408.146C452.118 407.95 451.909 407.673 451.796 407.354H454.881C454.768 407.673 454.559 407.95 454.283 408.146C454.007 408.342 453.677 408.448 453.339 408.449V408.449ZM454.643 406.258H452.034L453.339 403.649L454.643 406.258ZM458.269 402.971C458.16 402.971 458.054 402.939 457.964 402.879C457.874 402.819 457.804 402.733 457.763 402.633C457.721 402.533 457.71 402.423 457.731 402.317C457.753 402.21 457.805 402.113 457.881 402.036C457.958 401.96 458.056 401.907 458.162 401.886C458.268 401.865 458.378 401.876 458.478 401.917C458.578 401.959 458.664 402.029 458.724 402.119C458.784 402.209 458.817 402.315 458.817 402.423C458.816 402.569 458.759 402.708 458.656 402.811C458.553 402.913 458.414 402.971 458.269 402.971V402.971ZM463.199 408.449C462.86 408.448 462.53 408.342 462.254 408.146C461.978 407.95 461.769 407.673 461.657 407.354H464.741C464.628 407.673 464.42 407.95 464.144 408.146C463.868 408.342 463.538 408.448 463.199 408.449V408.449ZM463.199 403.649L464.504 406.258H461.894L463.199 403.649Z" fill="#171717"/>
<rect x="480.537" y="390.537" width="32.5372" height="32.5372" rx="9.76116" fill="#93C5FD"/>
<path d="M498.997 406.806C498.997 407.532 499.286 408.229 499.799 408.743C500.313 409.256 501.01 409.545 501.736 409.545C502.462 409.545 503.159 409.256 503.673 408.743C504.186 408.229 504.475 407.532 504.475 406.806C504.475 406.721 504.455 406.637 504.417 406.561L502.227 402.18C502.219 402.165 502.211 402.15 502.202 402.136C502.153 402.056 502.084 401.991 502.003 401.945C501.921 401.9 501.829 401.876 501.736 401.876H498.352C498.269 401.647 498.137 401.439 497.964 401.267C497.791 401.095 497.583 400.963 497.354 400.881V399.137H496.258V400.881C496.029 400.963 495.82 401.095 495.648 401.267C495.475 401.439 495.343 401.647 495.26 401.876H491.876C491.774 401.876 491.674 401.904 491.588 401.957C491.501 402.011 491.431 402.087 491.386 402.178L489.195 406.561C489.156 406.637 489.137 406.721 489.137 406.806C489.137 407.532 489.425 408.229 489.939 408.743C490.453 409.256 491.149 409.545 491.876 409.545C492.602 409.545 493.299 409.256 493.812 408.743C494.326 408.229 494.615 407.532 494.615 406.806C494.615 406.721 494.595 406.637 494.557 406.561L492.762 402.971H495.26C495.343 403.2 495.475 403.408 495.648 403.58C495.82 403.752 496.029 403.884 496.258 403.966V413.379H491.328V414.475H502.284V413.379H497.354V403.966C497.583 403.884 497.791 403.752 497.964 403.58C498.137 403.408 498.269 403.2 498.352 402.971H500.85L499.055 406.561C499.017 406.637 498.997 406.721 498.997 406.806ZM491.876 408.449C491.537 408.448 491.207 408.342 490.931 408.146C490.655 407.95 490.446 407.673 490.334 407.354H493.418C493.305 407.673 493.096 407.95 492.82 408.146C492.544 408.342 492.214 408.448 491.876 408.449V408.449ZM493.181 406.258H490.571L491.876 403.649L493.181 406.258ZM496.806 402.971C496.697 402.971 496.592 402.939 496.502 402.879C496.411 402.819 496.341 402.733 496.3 402.633C496.258 402.533 496.247 402.423 496.269 402.317C496.29 402.21 496.342 402.113 496.418 402.036C496.495 401.96 496.593 401.907 496.699 401.886C496.805 401.865 496.915 401.876 497.015 401.917C497.116 401.959 497.201 402.029 497.261 402.119C497.322 402.209 497.354 402.315 497.354 402.423C497.354 402.569 497.296 402.708 497.193 402.811C497.09 402.913 496.951 402.971 496.806 402.971V402.971ZM501.736 408.449C501.397 408.448 501.067 408.342 500.791 408.146C500.515 407.95 500.306 407.673 500.194 407.354H503.278C503.165 407.673 502.957 407.95 502.681 408.146C502.405 408.342 502.075 408.448 501.736 408.449V408.449ZM501.736 403.649L503.041 406.258H500.431L501.736 403.649Z" fill="#171717"/>
<rect x="519.074" y="390.537" width="32.5372" height="32.5372" rx="9.76116" fill="#4ADE80"/>
<path fill-rule="evenodd" clip-rule="evenodd" d="M538.082 399.137H538.63C539.066 399.12 539.501 399.193 539.907 399.352C540.314 399.512 540.683 399.753 540.992 400.062C541.3 400.37 541.542 400.739 541.701 401.146C541.86 401.552 541.934 401.987 541.917 402.423V407.901C541.917 408.192 541.801 408.471 541.596 408.676C541.39 408.882 541.112 408.997 540.821 408.997H539.178V414.475H538.082V399.137ZM539.178 407.901H540.821V402.423C540.821 402.221 540.755 400.588 539.178 400.282V407.901ZM534.247 404.067C534.247 404.648 534.017 405.206 533.606 405.616C533.195 406.027 532.637 406.258 532.056 406.258C531.475 406.258 530.918 406.027 530.507 405.616C530.096 405.206 529.865 404.648 529.865 404.067V399.137H528.77V404.067C528.77 404.843 529.046 405.594 529.547 406.187C530.048 406.779 530.743 407.175 531.509 407.305V414.475H532.604V407.305C533.369 407.175 534.064 406.779 534.566 406.187C535.067 405.594 535.342 404.843 535.343 404.067V399.137H534.247V404.067ZM532.604 399.137H531.509V404.615H532.604V399.137Z" fill="#171717"/>
<rect x="557.612" y="390.537" width="32.5372" height="32.5372" rx="9.76116" fill="#FBBF24"/>
<path fill-rule="evenodd" clip-rule="evenodd" d="M568.403 411.191H579.358C579.649 411.19 579.927 411.075 580.133 410.87C580.338 410.664 580.454 410.386 580.454 410.095V402.426C580.454 402.136 580.338 401.857 580.133 401.652C579.927 401.446 579.649 401.331 579.358 401.331H568.403C568.112 401.331 567.834 401.446 567.628 401.652C567.423 401.857 567.307 402.136 567.307 402.426V410.095C567.307 410.386 567.423 410.664 567.628 410.87C567.834 411.075 568.112 411.191 568.403 411.191ZM568.403 410.095V402.426H579.358V410.095H568.403ZM566.211 412.286H581.55V413.382H566.211V412.286Z" fill="#171717"/>
<rect x="596.149" y="390.537" width="32.5372" height="32.5372" rx="9.76116" fill="#FB923C"/>
<path fill-rule="evenodd" clip-rule="evenodd" d="M605.625 410.367C605.077 409.271 604.749 408.066 604.749 406.806C604.749 402.588 608.2 399.137 612.418 399.137V400.232C608.802 400.232 605.844 403.19 605.844 406.806C605.844 407.901 606.118 408.887 606.611 409.819L605.625 410.367ZM618.991 406.806C618.991 410.421 616.033 413.379 612.417 413.379C610.829 413.379 609.35 412.831 608.199 411.845L611.322 408.723L610.555 407.901L606.994 411.462C606.775 411.681 606.775 412.01 606.994 412.229C608.419 413.653 610.391 414.475 612.417 414.475C616.635 414.475 620.087 411.024 620.087 406.806H618.991ZM613.294 411.681C613.349 411.736 613.458 411.736 613.513 411.736C613.623 411.736 613.732 411.681 613.842 411.626L616.033 409.983C616.197 409.873 616.252 409.709 616.252 409.545V406.477L617.896 404.834C618.608 404.122 618.991 403.19 618.991 402.149V401.328C618.991 400.725 618.498 400.232 617.896 400.232H617.074C616.088 400.232 615.102 400.616 614.39 401.328L612.746 402.971H609.679C609.514 402.971 609.35 403.026 609.186 403.136L607.542 405.327C607.433 405.491 607.433 405.71 607.488 405.874C607.542 406.039 607.707 406.203 607.926 406.203L610.665 406.587L610.829 405.491L609.021 405.272L609.953 404.067H612.965C613.13 404.067 613.239 404.012 613.349 403.902L615.102 402.149C615.595 401.602 616.307 401.328 617.019 401.328H617.841V402.204C617.841 402.916 617.512 403.629 617.019 404.122L615.266 405.874C615.157 405.984 615.102 406.094 615.102 406.258V409.216L613.897 410.147L613.678 408.34L612.582 408.504L612.965 411.243C612.965 411.462 613.13 411.626 613.294 411.681Z" fill="#171717"/>
<rect x="442" y="429.074" width="32.5372" height="32.5372" rx="9.76116" fill="#93C5FD"/>
<path fill-rule="evenodd" clip-rule="evenodd" d="M459.364 439.317V440.413H457.611C457.25 441.961 456.513 443.397 455.464 444.592C456.256 445.401 457.213 446.03 458.269 446.439L457.88 447.446C456.694 446.97 455.62 446.254 454.725 445.343C453.812 446.242 452.738 446.959 451.558 447.457L451.147 446.439C452.197 445.994 453.156 445.359 453.974 444.565C453.234 443.662 452.675 442.624 452.331 441.508H453.481C453.76 442.34 454.185 443.115 454.735 443.798C455.58 442.826 456.179 441.665 456.483 440.413H450.6V439.317H454.434V437.674H455.53V439.317H459.364ZM465.938 452.464H464.76L463.884 450.273H460.131L459.255 452.464H458.077L461.364 444.247H462.651L465.938 452.464ZM462.005 445.584L460.57 449.177H463.445L462.005 445.584Z" fill="#171717"/>
<rect x="480.537" y="429.074" width="32.5372" height="32.5372" rx="9.76116" fill="#4ADE80"/>
<g clip-path="url(#clip1_27_86541)">
<path fill-rule="evenodd" clip-rule="evenodd" d="M494.844 450.538L497.704 439.865L498.762 440.149L495.902 450.821L494.844 450.538ZM488.589 445.343L492.423 441.508L493.196 442.281L490.139 445.343L493.196 448.405L492.423 449.177L488.589 445.343ZM505.023 445.343L501.188 449.177L500.416 448.405L503.472 445.343L500.416 442.281L501.188 441.508L505.023 445.343Z" fill="#171717"/>
</g>
<rect x="519.074" y="429.074" width="32.5372" height="32.5372" rx="9.76116" fill="#FBBF24"/>
<path fill-rule="evenodd" clip-rule="evenodd" d="M529.865 449.728H540.821C541.111 449.728 541.39 449.612 541.595 449.407C541.801 449.201 541.916 448.923 541.916 448.632V440.963C541.916 440.673 541.801 440.394 541.595 440.189C541.39 439.984 541.111 439.868 540.821 439.868H529.865C529.575 439.868 529.296 439.983 529.091 440.189C528.885 440.394 528.77 440.673 528.769 440.963V448.632C528.77 448.923 528.885 449.201 529.091 449.407C529.296 449.612 529.575 449.728 529.865 449.728ZM529.865 448.632V440.963H540.821V448.632H529.865ZM527.674 450.824H543.012V451.919H527.674V450.824Z" fill="#171717"/>
<rect x="557.612" y="429.074" width="32.5372" height="32.5372" rx="9.76116" fill="#FBBF24"/>
<path fill-rule="evenodd" clip-rule="evenodd" d="M581.55 438.448L580.075 439.924L580.673 440.522C580.777 440.621 580.86 440.74 580.916 440.872C580.973 441.004 581.002 441.146 581.002 441.289C581.002 441.433 580.973 441.575 580.916 441.706C580.86 441.838 580.777 441.957 580.673 442.056L570.813 451.916H567.307V448.411L577.167 438.55C577.266 438.446 577.385 438.364 577.517 438.307C577.649 438.251 577.791 438.221 577.934 438.221C578.078 438.221 578.22 438.251 578.352 438.307C578.483 438.364 578.602 438.446 578.701 438.55L579.3 439.149L580.775 437.674L581.55 438.448ZM568.403 450.821H570.375L579.906 441.289L577.934 439.317L568.403 448.849V450.821ZM570.046 442.925L574.201 438.769L574.976 439.544L570.82 443.699L570.046 442.925Z" fill="#171717"/>
<rect x="596.149" y="429.074" width="32.5372" height="32.5372" rx="9.76116" fill="#4ADE80"/>
<path fill-rule="evenodd" clip-rule="evenodd" d="M615.157 437.673H615.705C616.141 437.656 616.576 437.73 616.982 437.889C617.389 438.048 617.758 438.29 618.066 438.598C618.375 438.907 618.616 439.276 618.776 439.682C618.935 440.089 619.008 440.524 618.991 440.96V446.438C618.991 446.729 618.876 447.007 618.67 447.213C618.465 447.418 618.186 447.534 617.896 447.534H616.252V453.012H615.157V437.673ZM616.252 446.438H617.896V440.96C617.896 440.757 617.83 439.125 616.252 438.818V446.438ZM611.322 442.604C611.322 443.185 611.091 443.742 610.68 444.153C610.269 444.564 609.712 444.795 609.131 444.795C608.55 444.795 607.993 444.564 607.582 444.153C607.171 443.742 606.94 443.185 606.94 442.604V437.674H605.844V442.604C605.845 443.38 606.12 444.131 606.622 444.723C607.123 445.316 607.818 445.712 608.583 445.841V453.012H609.679V445.841C610.444 445.712 611.139 445.316 611.64 444.723C612.142 444.131 612.417 443.38 612.418 442.604V437.674H611.322V442.604ZM609.679 437.674H608.583V443.152H609.679V437.674Z" fill="#171717"/>
</g>
<defs>
<filter id="filter0_dd_27_86541" x="401.251" y="315.573" width="266.657" height="217.003" filterUnits="userSpaceOnUse" color-interpolation-filters="sRGB">
<feFlood flood-opacity="0" result="BackgroundImageFix"/>
<feColorMatrix in="SourceAlpha" type="matrix" values="0 0 0 0 0 0 0 0 0 0 0 0 0 0 0 0 0 0 127 0" result="hardAlpha"/>
<feOffset dy="7.35604"/>
<feGaussianBlur stdDeviation="4.59752"/>
<feComposite in2="hardAlpha" operator="out"/>
<feColorMatrix type="matrix" values="0 0 0 0 0 0 0 0 0 0 0 0 0 0 0 0 0 0 0.08 0"/>
<feBlend mode="normal" in2="BackgroundImageFix" result="effect1_dropShadow_27_86541"/>
<feColorMatrix in="SourceAlpha" type="matrix" values="0 0 0 0 0 0 0 0 0 0 0 0 0 0 0 0 0 0 127 0" result="hardAlpha"/>
<feOffset dy="18.3901"/>
<feGaussianBlur stdDeviation="11.9536"/>
<feComposite in2="hardAlpha" operator="out"/>
<feColorMatrix type="matrix" values="0 0 0 0 0 0 0 0 0 0 0 0 0 0 0 0 0 0 0.03 0"/>
<feBlend mode="normal" in2="effect1_dropShadow_27_86541" result="effect2_dropShadow_27_86541"/>
<feBlend mode="normal" in="SourceGraphic" in2="effect2_dropShadow_27_86541" result="shape"/>
</filter>
<clipPath id="clip0_27_86541">
<rect width="672" height="512" rx="16" fill="white"/>
</clipPath>
<clipPath id="clip1_27_86541">
<rect width="17.5294" height="17.5294" fill="white" transform="translate(488.041 436.578)"/>
</clipPath>
</defs>
</svg>
