<svg width="760" height="520" viewBox="0 0 760 520" fill="none" xmlns="http://www.w3.org/2000/svg">
<g clip-path="url(#clip0_78_48897)">
<path d="M190.123 -190L170.123 -170L150.123 -150L130.123 -130L110.123 -110L90.123 -90L70.123 -70L50.123 -50L30.123 -30L10.123 -10L-9.87695 10L-29.877 30L-49.877 50L-69.877 70L-89.877 90L-109.877 110L-129.877 130" stroke="black"/>
<path d="M195.123 -185L175.123 -165L155.123 -145L135.123 -125L115.123 -105L95.123 -85L75.123 -65L55.123 -45L35.123 -25L15.123 -5L-4.87695 15L-24.877 35L-44.877 55L-64.877 75L-84.877 95L-104.877 115L-124.877 135" stroke="black"/>
<path d="M200.123 -180L180.123 -160L160.123 -140L140.123 -120L120.123 -100L100.123 -80L80.123 -60L60.123 -40L40.123 -20L20.123 0L0.123047 20L-19.877 40L-39.877 60L-59.877 80L-79.877 100L-99.877 120L-119.877 140" stroke="black"/>
<path d="M205.123 -175L185.123 -155L165.123 -135L145.123 -115L125.123 -95L105.123 -75L85.123 -55L65.123 -35L45.123 -15L25.123 5L5.12305 25L-14.877 45L-34.877 65L-54.877 85L-74.877 105L-94.877 125L-114.877 145" stroke="black"/>
<path d="M210.123 -170L190.123 -150L170.123 -130L150.123 -110L130.123 -90L110.123 -70L90.123 -50L70.123 -30L50.123 -10L30.123 10L10.123 30L-9.87695 50L-29.877 70L-49.877 90L-69.877 110L-89.877 130L-109.877 150" stroke="black"/>
<path d="M215.123 -165L195.123 -145L175.123 -125L155.123 -105L135.123 -85L115.123 -65L95.123 -45L75.123 -25L55.123 -5L35.123 15L15.123 35L-4.87695 55L-24.877 75L-44.877 95L-64.877 115L-84.877 135L-104.877 155" stroke="black"/>
<path d="M220.123 -160L200.123 -140L180.123 -120L160.123 -100L140.123 -80L120.123 -60L100.123 -40L80.123 -20L60.123 0L40.123 20L20.123 40L0.123047 60L-19.877 80L-39.877 100L-59.877 120L-79.877 140L-99.877 160" stroke="black"/>
<path d="M225.123 -155L205.123 -135L185.123 -115L165.123 -95L145.123 -75L125.123 -55L105.123 -35L85.123 -15L65.123 5L45.123 25L25.123 45L5.12305 65L-14.877 85L-34.877 105L-54.877 125L-74.877 145L-94.877 165" stroke="black"/>
<path d="M230.123 -150L210.123 -130L190.123 -110L170.123 -90L150.123 -70L130.123 -50L110.123 -30L90.123 -10L70.123 10L50.123 30L30.123 50L10.123 70L-9.87695 90L-29.877 110L-49.877 130L-69.877 150L-89.877 170" stroke="black"/>
<path d="M235.123 -145L215.123 -125L195.123 -105L175.123 -85L155.123 -65L135.123 -45L115.123 -25L95.123 -5L75.123 15L55.123 35L35.123 55L15.123 75L-4.87695 95L-24.877 115L-44.877 135L-64.877 155L-84.877 175" stroke="black"/>
<path d="M240.123 -140L220.123 -120L200.123 -100L180.123 -80L160.123 -60L140.123 -40L120.123 -20L100.123 0L80.123 20L60.123 40L40.123 60L20.123 80L0.123047 100L-19.877 120L-39.877 140L-59.877 160L-79.877 180" stroke="black"/>
<path d="M245.123 -135L225.123 -115L205.123 -95L185.123 -75L165.123 -55L145.123 -35L125.123 -15L105.123 5L85.123 25L65.123 45L45.123 65L25.123 85L5.12305 105L-14.877 125L-34.877 145L-54.877 165L-74.877 185" stroke="black"/>
<path d="M250.123 -130L230.123 -110L210.123 -90L190.123 -70L170.123 -50L150.123 -30L130.123 -10L110.123 10L90.123 30L70.123 50L50.123 70L30.123 90L10.123 110L-9.87695 130L-29.877 150L-49.877 170L-69.877 190" stroke="black"/>
<path d="M255.123 -125L235.123 -105L215.123 -85L195.123 -65L175.123 -45L155.123 -25L135.123 -5L115.123 15L95.123 35L75.123 55L55.123 75L35.123 95L15.123 115L-4.87695 135L-24.877 155L-44.877 175L-64.877 195" stroke="black"/>
<path d="M260.123 -120L240.123 -100L220.123 -80L200.123 -60L180.123 -40L160.123 -20L140.123 0L120.123 20L100.123 40L80.123 60L60.123 80L40.123 100L20.123 120L0.123047 140L-19.877 160L-39.877 180L-59.877 200" stroke="black"/>
<path d="M265.123 -115L245.123 -95L225.123 -75L205.123 -55L185.123 -35L165.123 -15L145.123 5L125.123 25L105.123 45L85.123 65L65.123 85L45.123 105L25.123 125L5.12305 145L-14.877 165L-34.877 185L-54.877 205" stroke="black"/>
<path d="M270.123 -110L250.123 -90L230.123 -70L210.123 -50L190.123 -30L170.123 -10L150.123 10L130.123 30L110.123 50L90.123 70L70.123 90L50.123 110L30.123 130L10.123 150L-9.87695 170L-29.877 190L-49.877 210" stroke="black"/>
<path d="M275.123 -105L255.123 -85L235.123 -65L215.123 -45L195.123 -25L175.123 -5L155.123 15L135.123 35L115.123 55L95.123 75L75.123 95L55.123 115L35.123 135L15.123 155L-4.87695 175L-24.877 195L-44.877 215" stroke="black"/>
<path d="M280.123 -100L260.123 -80L240.123 -60L220.123 -40L200.123 -20L180.123 0L160.123 20L140.123 40L120.123 60L100.123 80L80.123 100L60.123 120L40.123 140L20.123 160L0.123047 180L-19.877 200L-39.877 220" stroke="black"/>
<path d="M285.123 -95L265.123 -75L245.123 -55L225.123 -35L205.123 -15L185.123 5L165.123 25L145.123 45L125.123 65L105.123 85L85.123 105L65.123 125L45.123 145L25.123 165L5.12305 185L-14.877 205L-34.877 225" stroke="black"/>
<path d="M290.123 -90L270.123 -70L250.123 -50L230.123 -30L210.123 -10L190.123 10L170.123 30L150.123 50L130.123 70L110.123 90L90.123 110L70.123 130L50.123 150L30.123 170L10.123 190L-9.87695 210L-29.877 230" stroke="black"/>
<path d="M295.123 -85L275.123 -65L255.123 -45L235.123 -25L215.123 -5L195.123 15L175.123 35L155.123 55L135.123 75L115.123 95L95.123 115L75.123 135L55.123 155L35.123 175L15.123 195L-4.87695 215L-24.877 235" stroke="black"/>
<path d="M300.123 -80L280.123 -60L260.123 -40L240.123 -20L220.123 0L200.123 20L180.123 40L160.123 60L140.123 80L120.123 100L100.123 120L80.123 140L60.123 160L40.123 180L20.123 200L0.123047 220L-19.877 240" stroke="black"/>
<path d="M305.123 -75L285.123 -55L265.123 -35L245.123 -15L225.123 5L205.123 25L185.123 45L165.123 65L145.123 85L125.123 105L105.123 125L85.123 145L65.123 165L45.123 185L25.123 205L5.12305 225L-14.877 245" stroke="black"/>
<path d="M310.123 -70L290.123 -50L270.123 -30L250.123 -10L230.123 10L210.123 30L190.123 50L170.123 70L150.123 90L130.123 110L110.123 130L90.123 150L70.123 170L50.123 190L30.123 210L10.123 230L-9.87695 250" stroke="black"/>
<path d="M315.123 -65L295.123 -45L275.123 -25L255.123 -5L235.123 15L215.123 35L195.123 55L175.123 75L155.123 95L135.123 115L115.123 135L95.123 155L75.123 175L55.123 195L35.123 215L15.123 235L-4.87695 255" stroke="black"/>
<path d="M320.123 -60L300.123 -40L280.123 -20L260.123 0L240.123 20L220.123 40L200.123 60L180.123 80L160.123 100L140.123 120L120.123 140L100.123 160L80.123 180L60.123 200L40.123 220L20.123 240L0.123047 260" stroke="black"/>
<path d="M325.123 -55L305.123 -35L285.123 -15L265.123 5L245.123 25L225.123 45L205.123 65L185.123 85L165.123 105L145.123 125L125.123 145L105.123 165L85.123 185L65.123 205L45.123 225L25.123 245L5.12305 265" stroke="black"/>
<path d="M330.123 -50L310.123 -30L290.123 -10L270.123 10L250.123 30L230.123 50L210.123 70L190.123 90L170.123 110L150.123 130L130.123 150L110.123 170L90.123 190L70.123 210L50.123 230L30.123 250L10.123 270" stroke="black"/>
<path d="M335.123 -45L315.123 -25L295.123 -5L275.123 15L255.123 35L235.123 55L215.123 75L195.123 95L175.123 115L155.123 135L135.123 155L115.123 175L95.123 195L75.123 215L55.123 235L35.123 255L15.123 275" stroke="black"/>
<path d="M340.123 -40L320.123 -20L300.123 0L280.123 20L260.123 40L240.123 60L220.123 80L200.123 100L180.123 120L160.123 140L140.123 160L120.123 180L100.123 200L80.123 220L60.123 240L40.123 260L20.123 280" stroke="black"/>
<path d="M345.123 -35L325.123 -15L305.123 5L285.123 25L265.123 45L245.123 65L225.123 85L205.123 105L185.123 125L165.123 145L145.123 165L125.123 185L105.123 205L85.123 225L65.123 245L45.123 265L25.123 285" stroke="black"/>
<path d="M350.123 -30L330.123 -10L310.123 10L290.123 30L270.123 50L250.123 70L230.123 90L210.123 110L190.123 130L170.123 150L150.123 170L130.123 190L110.123 210L90.123 230L70.123 250L50.123 270L30.123 290" stroke="black"/>
<path d="M355.123 -25L335.123 -5L315.123 15L295.123 35L275.123 55L255.123 75L235.123 95L215.123 115L195.123 135L175.123 155L155.123 175L135.123 195L115.123 215L95.123 235L75.123 255L55.123 275L35.123 295" stroke="black"/>
<path d="M360.123 -20L340.123 0L320.123 20L300.123 40L280.123 60L260.123 80L240.123 100L220.123 120L200.123 140L180.123 160L160.123 180L140.123 200L120.123 220L100.123 240L80.123 260L60.123 280L40.123 300" stroke="black"/>
<path d="M365.123 -15L345.123 5L325.123 25L305.123 45L285.123 65L265.123 85L245.123 105L225.123 125L205.123 145L185.123 165L165.123 185L145.123 205L125.123 225L105.123 245L85.123 265L65.123 285L45.123 305" stroke="black"/>
<path d="M370.123 -10L350.123 10L330.123 30L310.123 50L290.123 70L270.123 90L250.123 110L230.123 130L210.123 150L190.123 170L170.123 190L150.123 210L130.123 230L110.123 250L90.123 270L70.123 290L50.123 310" stroke="black"/>
<path d="M375.123 -5L355.123 15L335.123 35L315.123 55L295.123 75L275.123 95L255.123 115L235.123 135L215.123 155L195.123 175L175.123 195L155.123 215L135.123 235L115.123 255L95.123 275L75.123 295L55.123 315" stroke="black"/>
<path d="M380.123 0L360.123 20L340.123 40L320.123 60L300.123 80L280.123 100L260.123 120L240.123 140L220.123 160L200.123 180L180.123 200L160.123 220L140.123 240L120.123 260L100.123 280L80.123 300L60.123 320" stroke="black"/>
<path d="M385.123 5L365.123 25L345.123 45L325.123 65L305.123 85L285.123 105L265.123 125L245.123 145L225.123 165L205.123 185L185.123 205L165.123 225L145.123 245L125.123 265L105.123 285L85.123 305L65.123 325" stroke="black"/>
<path d="M390.123 10L370.123 30L350.123 50L330.123 70L310.123 90L290.123 110L270.123 130L250.123 150L230.123 170L210.123 190L190.123 210L170.123 230L150.123 250L130.123 270L110.123 290L90.123 310L70.123 330" stroke="black"/>
<path d="M395.123 15L375.123 35L355.123 55L335.123 75L315.123 95L295.123 115L275.123 135L255.123 155L235.123 175L215.123 195L195.123 215L175.123 235L155.123 255L135.123 275L115.123 295L95.123 315L75.123 335" stroke="black"/>
<path d="M400.123 20L380.123 40L360.123 60L340.123 80L320.123 100L300.123 120L280.123 140L260.123 160L240.123 180L220.123 200L200.123 220L180.123 240L160.123 260L140.123 280L120.123 300L100.123 320L80.123 340" stroke="black"/>
<path d="M405.123 25L385.123 45L365.123 65L345.123 85L325.123 105L305.123 125L285.123 145L265.123 165L245.123 185L225.123 205L205.123 225L185.123 245L165.123 265L145.123 285L125.123 305L105.123 325L85.123 345" stroke="black"/>
<path d="M410.123 30L390.123 50L370.123 70L350.123 90L330.123 110L310.123 130L290.123 150L270.123 170L250.123 190L230.123 210L210.123 230L190.123 250L170.123 270L150.123 290L130.123 310L110.123 330L90.123 350" stroke="black"/>
<path d="M415.123 35L395.123 55L375.123 75L355.123 95L335.123 115L315.123 135L295.123 155L275.123 175L255.123 195L235.123 215L215.123 235L195.123 255L175.123 275L155.123 295L135.123 315L115.123 335L95.123 355" stroke="black"/>
<path d="M420.123 40L400.123 60L380.123 80L360.123 100L340.123 120L320.123 140L300.123 160L280.123 180L260.123 200L240.123 220L220.123 240L200.123 260L180.123 280L160.123 300L140.123 320L120.123 340L100.123 360" stroke="black"/>
<path d="M425.123 45L405.123 65L385.123 85L365.123 105L345.123 125L325.123 145L305.123 165L285.123 185L265.123 205L245.123 225L225.123 245L205.123 265L185.123 285L165.123 305L145.123 325L125.123 345L105.123 365" stroke="black"/>
<path d="M430.123 50L410.123 70L390.123 90L370.123 110L350.123 130L330.123 150L310.123 170L290.123 190L270.123 210L250.123 230L230.123 250L210.123 270L190.123 290L170.123 310L150.123 330L130.123 350L110.123 370" stroke="black"/>
<path d="M435.123 55L415.123 75L395.123 95L375.123 115L355.123 135L335.123 155L315.123 175L295.123 195L275.123 215L255.123 235L235.123 255L215.123 275L195.123 295L175.123 315L155.123 335L135.123 355L115.123 375" stroke="black"/>
<path d="M440.123 60L420.123 80L400.123 100L380.123 120L360.123 140L340.123 160L320.123 180L300.123 200L280.123 220L260.123 240L240.123 260L220.123 280L200.123 300L180.123 320L160.123 340L140.123 360L120.123 380" stroke="black"/>
<path d="M445.123 65L425.123 85L405.123 105L385.123 125L365.123 145L345.123 165L325.123 185L305.123 205L285.123 225L265.123 245L245.123 265L225.123 285L205.123 305L185.123 325L165.123 345L145.123 365L125.123 385" stroke="black"/>
<path d="M450.123 70L430.123 90L410.123 110L390.123 130L370.123 150L350.123 170L330.123 190L310.123 210L290.123 230L270.123 250L250.123 270L230.123 290L210.123 310L190.123 330L170.123 350L150.123 370L130.123 390" stroke="black"/>
<path d="M455.123 75L435.123 95L415.123 115L395.123 135L375.123 155L355.123 175L335.123 195L315.123 215L295.123 235L275.123 255L255.123 275L235.123 295L215.123 315L195.123 335L175.123 355L155.123 375L135.123 395" stroke="black"/>
<path d="M460.123 80L440.123 100L420.123 120L400.123 140L380.123 160L360.123 180L340.123 200L320.123 220L300.123 240L280.123 260L260.123 280L240.123 300L220.123 320L200.123 340L180.123 360L160.123 380L140.123 400" stroke="black"/>
<path d="M465.123 85L445.123 105L425.123 125L405.123 145L385.123 165L365.123 185L345.123 205L325.123 225L305.123 245L285.123 265L265.123 285L245.123 305L225.123 325L205.123 345L185.123 365L165.123 385L145.123 405" stroke="black"/>
<path d="M470.123 90L450.123 110L430.123 130L410.123 150L390.123 170L370.123 190L350.123 210L330.123 230L310.123 250L290.123 270L270.123 290L250.123 310L230.123 330L210.123 350L190.123 370L170.123 390L150.123 410" stroke="black"/>
<path d="M475.123 95L455.123 115L435.123 135L415.123 155L395.123 175L375.123 195L355.123 215L335.123 235L315.123 255L295.123 275L275.123 295L255.123 315L235.123 335L215.123 355L195.123 375L175.123 395L155.123 415" stroke="black"/>
<path d="M480.123 100L460.123 120L440.123 140L420.123 160L400.123 180L380.123 200L360.123 220L340.123 240L320.123 260L300.123 280L280.123 300L260.123 320L240.123 340L220.123 360L200.123 380L180.123 400L160.123 420" stroke="black"/>
<path d="M485.123 105L465.123 125L445.123 145L425.123 165L405.123 185L385.123 205L365.123 225L345.123 245L325.123 265L305.123 285L285.123 305L265.123 325L245.123 345L225.123 365L205.123 385L185.123 405L165.123 425" stroke="black"/>
<path d="M490.123 110L470.123 130L450.123 150L430.123 170L410.123 190L390.123 210L370.123 230L350.123 250L330.123 270L310.123 290L290.123 310L270.123 330L250.123 350L230.123 370L210.123 390L190.123 410L170.123 430" stroke="black"/>
<path d="M495.123 115L475.123 135L455.123 155L435.123 175L415.123 195L395.123 215L375.123 235L355.123 255L335.123 275L315.123 295L295.123 315L275.123 335L255.123 355L235.123 375L215.123 395L195.123 415L175.123 435" stroke="black"/>
<path d="M500.123 120L480.123 140L460.123 160L440.123 180L420.123 200L400.123 220L380.123 240L360.123 260L340.123 280L320.123 300L300.123 320L280.123 340L260.123 360L240.123 380L220.123 400L200.123 420L180.123 440" stroke="black"/>
<path d="M505.123 125L485.123 145L465.123 165L445.123 185L425.123 205L405.123 225L385.123 245L365.123 265L345.123 285L325.123 305L305.123 325L285.123 345L265.123 365L245.123 385L225.123 405L205.123 425L185.123 445" stroke="black"/>
<path d="M510.123 130L490.123 150L470.123 170L450.123 190L430.123 210L410.123 230L390.123 250L370.123 270L350.123 290L330.123 310L310.123 330L290.123 350L270.123 370L250.123 390L230.123 410L210.123 430L190.123 450" stroke="black"/>
</g>
<g clip-path="url(#clip1_78_48897)">
<path d="M190.123 70L170.123 90L150.123 110L130.123 130L110.123 150L90.123 170L70.123 190L50.123 210L30.123 230L10.123 250L-9.87695 270L-29.877 290L-49.877 310L-69.877 330L-89.877 350L-109.877 370L-129.877 390" stroke="black"/>
<path d="M195.123 75L175.123 95L155.123 115L135.123 135L115.123 155L95.123 175L75.123 195L55.123 215L35.123 235L15.123 255L-4.87695 275L-24.877 295L-44.877 315L-64.877 335L-84.877 355L-104.877 375L-124.877 395" stroke="black"/>
<path d="M200.123 80L180.123 100L160.123 120L140.123 140L120.123 160L100.123 180L80.123 200L60.123 220L40.123 240L20.123 260L0.123047 280L-19.877 300L-39.877 320L-59.877 340L-79.877 360L-99.877 380L-119.877 400" stroke="black"/>
<path d="M205.123 85L185.123 105L165.123 125L145.123 145L125.123 165L105.123 185L85.123 205L65.123 225L45.123 245L25.123 265L5.12305 285L-14.877 305L-34.877 325L-54.877 345L-74.877 365L-94.877 385L-114.877 405" stroke="black"/>
<path d="M210.123 90L190.123 110L170.123 130L150.123 150L130.123 170L110.123 190L90.123 210L70.123 230L50.123 250L30.123 270L10.123 290L-9.87695 310L-29.877 330L-49.877 350L-69.877 370L-89.877 390L-109.877 410" stroke="black"/>
<path d="M215.123 95L195.123 115L175.123 135L155.123 155L135.123 175L115.123 195L95.123 215L75.123 235L55.123 255L35.123 275L15.123 295L-4.87695 315L-24.877 335L-44.877 355L-64.877 375L-84.877 395L-104.877 415" stroke="black"/>
<path d="M220.123 100L200.123 120L180.123 140L160.123 160L140.123 180L120.123 200L100.123 220L80.123 240L60.123 260L40.123 280L20.123 300L0.123047 320L-19.877 340L-39.877 360L-59.877 380L-79.877 400L-99.877 420" stroke="black"/>
<path d="M225.123 105L205.123 125L185.123 145L165.123 165L145.123 185L125.123 205L105.123 225L85.123 245L65.123 265L45.123 285L25.123 305L5.12305 325L-14.877 345L-34.877 365L-54.877 385L-74.877 405L-94.877 425" stroke="black"/>
<path d="M230.123 110L210.123 130L190.123 150L170.123 170L150.123 190L130.123 210L110.123 230L90.123 250L70.123 270L50.123 290L30.123 310L10.123 330L-9.87695 350L-29.877 370L-49.877 390L-69.877 410L-89.877 430" stroke="black"/>
<path d="M235.123 115L215.123 135L195.123 155L175.123 175L155.123 195L135.123 215L115.123 235L95.123 255L75.123 275L55.123 295L35.123 315L15.123 335L-4.87695 355L-24.877 375L-44.877 395L-64.877 415L-84.877 435" stroke="black"/>
<path d="M240.123 120L220.123 140L200.123 160L180.123 180L160.123 200L140.123 220L120.123 240L100.123 260L80.123 280L60.123 300L40.123 320L20.123 340L0.123047 360L-19.877 380L-39.877 400L-59.877 420L-79.877 440" stroke="black"/>
<path d="M245.123 125L225.123 145L205.123 165L185.123 185L165.123 205L145.123 225L125.123 245L105.123 265L85.123 285L65.123 305L45.123 325L25.123 345L5.12305 365L-14.877 385L-34.877 405L-54.877 425L-74.877 445" stroke="black"/>
<path d="M250.123 130L230.123 150L210.123 170L190.123 190L170.123 210L150.123 230L130.123 250L110.123 270L90.123 290L70.123 310L50.123 330L30.123 350L10.123 370L-9.87695 390L-29.877 410L-49.877 430L-69.877 450" stroke="black"/>
<path d="M255.123 135L235.123 155L215.123 175L195.123 195L175.123 215L155.123 235L135.123 255L115.123 275L95.123 295L75.123 315L55.123 335L35.123 355L15.123 375L-4.87695 395L-24.877 415L-44.877 435L-64.877 455" stroke="black"/>
<path d="M260.123 140L240.123 160L220.123 180L200.123 200L180.123 220L160.123 240L140.123 260L120.123 280L100.123 300L80.123 320L60.123 340L40.123 360L20.123 380L0.123047 400L-19.877 420L-39.877 440L-59.877 460" stroke="black"/>
<path d="M265.123 145L245.123 165L225.123 185L205.123 205L185.123 225L165.123 245L145.123 265L125.123 285L105.123 305L85.123 325L65.123 345L45.123 365L25.123 385L5.12305 405L-14.877 425L-34.877 445L-54.877 465" stroke="black"/>
<path d="M270.123 150L250.123 170L230.123 190L210.123 210L190.123 230L170.123 250L150.123 270L130.123 290L110.123 310L90.123 330L70.123 350L50.123 370L30.123 390L10.123 410L-9.87695 430L-29.877 450L-49.877 470" stroke="black"/>
<path d="M275.123 155L255.123 175L235.123 195L215.123 215L195.123 235L175.123 255L155.123 275L135.123 295L115.123 315L95.123 335L75.123 355L55.123 375L35.123 395L15.123 415L-4.87695 435L-24.877 455L-44.877 475" stroke="black"/>
<path d="M280.123 160L260.123 180L240.123 200L220.123 220L200.123 240L180.123 260L160.123 280L140.123 300L120.123 320L100.123 340L80.123 360L60.123 380L40.123 400L20.123 420L0.123047 440L-19.877 460L-39.877 480" stroke="black"/>
<path d="M285.123 165L265.123 185L245.123 205L225.123 225L205.123 245L185.123 265L165.123 285L145.123 305L125.123 325L105.123 345L85.123 365L65.123 385L45.123 405L25.123 425L5.12305 445L-14.877 465L-34.877 485" stroke="black"/>
<path d="M290.123 170L270.123 190L250.123 210L230.123 230L210.123 250L190.123 270L170.123 290L150.123 310L130.123 330L110.123 350L90.123 370L70.123 390L50.123 410L30.123 430L10.123 450L-9.87695 470L-29.877 490" stroke="black"/>
<path d="M295.123 175L275.123 195L255.123 215L235.123 235L215.123 255L195.123 275L175.123 295L155.123 315L135.123 335L115.123 355L95.123 375L75.123 395L55.123 415L35.123 435L15.123 455L-4.87695 475L-24.877 495" stroke="black"/>
<path d="M300.123 180L280.123 200L260.123 220L240.123 240L220.123 260L200.123 280L180.123 300L160.123 320L140.123 340L120.123 360L100.123 380L80.123 400L60.123 420L40.123 440L20.123 460L0.123047 480L-19.877 500" stroke="black"/>
<path d="M305.123 185L285.123 205L265.123 225L245.123 245L225.123 265L205.123 285L185.123 305L165.123 325L145.123 345L125.123 365L105.123 385L85.123 405L65.123 425L45.123 445L25.123 465L5.12305 485L-14.877 505" stroke="black"/>
<path d="M310.123 190L290.123 210L270.123 230L250.123 250L230.123 270L210.123 290L190.123 310L170.123 330L150.123 350L130.123 370L110.123 390L90.123 410L70.123 430L50.123 450L30.123 470L10.123 490L-9.87695 510" stroke="black"/>
<path d="M315.123 195L295.123 215L275.123 235L255.123 255L235.123 275L215.123 295L195.123 315L175.123 335L155.123 355L135.123 375L115.123 395L95.123 415L75.123 435L55.123 455L35.123 475L15.123 495L-4.87695 515" stroke="black"/>
<path d="M320.123 200L300.123 220L280.123 240L260.123 260L240.123 280L220.123 300L200.123 320L180.123 340L160.123 360L140.123 380L120.123 400L100.123 420L80.123 440L60.123 460L40.123 480L20.123 500L0.123047 520" stroke="black"/>
<path d="M325.123 205L305.123 225L285.123 245L265.123 265L245.123 285L225.123 305L205.123 325L185.123 345L165.123 365L145.123 385L125.123 405L105.123 425L85.123 445L65.123 465L45.123 485L25.123 505L5.12305 525" stroke="black"/>
<path d="M330.123 210L310.123 230L290.123 250L270.123 270L250.123 290L230.123 310L210.123 330L190.123 350L170.123 370L150.123 390L130.123 410L110.123 430L90.123 450L70.123 470L50.123 490L30.123 510L10.123 530" stroke="black"/>
<path d="M335.123 215L315.123 235L295.123 255L275.123 275L255.123 295L235.123 315L215.123 335L195.123 355L175.123 375L155.123 395L135.123 415L115.123 435L95.123 455L75.123 475L55.123 495L35.123 515L15.123 535" stroke="black"/>
<path d="M340.123 220L320.123 240L300.123 260L280.123 280L260.123 300L240.123 320L220.123 340L200.123 360L180.123 380L160.123 400L140.123 420L120.123 440L100.123 460L80.123 480L60.123 500L40.123 520L20.123 540" stroke="black"/>
<path d="M345.123 225L325.123 245L305.123 265L285.123 285L265.123 305L245.123 325L225.123 345L205.123 365L185.123 385L165.123 405L145.123 425L125.123 445L105.123 465L85.123 485L65.123 505L45.123 525L25.123 545" stroke="black"/>
<path d="M350.123 230L330.123 250L310.123 270L290.123 290L270.123 310L250.123 330L230.123 350L210.123 370L190.123 390L170.123 410L150.123 430L130.123 450L110.123 470L90.123 490L70.123 510L50.123 530L30.123 550" stroke="black"/>
<path d="M355.123 235L335.123 255L315.123 275L295.123 295L275.123 315L255.123 335L235.123 355L215.123 375L195.123 395L175.123 415L155.123 435L135.123 455L115.123 475L95.123 495L75.123 515L55.123 535L35.123 555" stroke="black"/>
<path d="M360.123 240L340.123 260L320.123 280L300.123 300L280.123 320L260.123 340L240.123 360L220.123 380L200.123 400L180.123 420L160.123 440L140.123 460L120.123 480L100.123 500L80.123 520L60.123 540L40.123 560" stroke="black"/>
<path d="M365.123 245L345.123 265L325.123 285L305.123 305L285.123 325L265.123 345L245.123 365L225.123 385L205.123 405L185.123 425L165.123 445L145.123 465L125.123 485L105.123 505L85.123 525L65.123 545L45.123 565" stroke="black"/>
<path d="M370.123 250L350.123 270L330.123 290L310.123 310L290.123 330L270.123 350L250.123 370L230.123 390L210.123 410L190.123 430L170.123 450L150.123 470L130.123 490L110.123 510L90.123 530L70.123 550L50.123 570" stroke="black"/>
<path d="M375.123 255L355.123 275L335.123 295L315.123 315L295.123 335L275.123 355L255.123 375L235.123 395L215.123 415L195.123 435L175.123 455L155.123 475L135.123 495L115.123 515L95.123 535L75.123 555L55.123 575" stroke="black"/>
<path d="M380.123 260L360.123 280L340.123 300L320.123 320L300.123 340L280.123 360L260.123 380L240.123 400L220.123 420L200.123 440L180.123 460L160.123 480L140.123 500L120.123 520L100.123 540L80.123 560L60.123 580" stroke="black"/>
<path d="M385.123 265L365.123 285L345.123 305L325.123 325L305.123 345L285.123 365L265.123 385L245.123 405L225.123 425L205.123 445L185.123 465L165.123 485L145.123 505L125.123 525L105.123 545L85.123 565L65.123 585" stroke="black"/>
<path d="M390.123 270L370.123 290L350.123 310L330.123 330L310.123 350L290.123 370L270.123 390L250.123 410L230.123 430L210.123 450L190.123 470L170.123 490L150.123 510L130.123 530L110.123 550L90.123 570L70.123 590" stroke="black"/>
<path d="M395.123 275L375.123 295L355.123 315L335.123 335L315.123 355L295.123 375L275.123 395L255.123 415L235.123 435L215.123 455L195.123 475L175.123 495L155.123 515L135.123 535L115.123 555L95.123 575L75.123 595" stroke="black"/>
<path d="M400.123 280L380.123 300L360.123 320L340.123 340L320.123 360L300.123 380L280.123 400L260.123 420L240.123 440L220.123 460L200.123 480L180.123 500L160.123 520L140.123 540L120.123 560L100.123 580L80.123 600" stroke="black"/>
<path d="M405.123 285L385.123 305L365.123 325L345.123 345L325.123 365L305.123 385L285.123 405L265.123 425L245.123 445L225.123 465L205.123 485L185.123 505L165.123 525L145.123 545L125.123 565L105.123 585L85.123 605" stroke="black"/>
<path d="M410.123 290L390.123 310L370.123 330L350.123 350L330.123 370L310.123 390L290.123 410L270.123 430L250.123 450L230.123 470L210.123 490L190.123 510L170.123 530L150.123 550L130.123 570L110.123 590L90.123 610" stroke="black"/>
<path d="M415.123 295L395.123 315L375.123 335L355.123 355L335.123 375L315.123 395L295.123 415L275.123 435L255.123 455L235.123 475L215.123 495L195.123 515L175.123 535L155.123 555L135.123 575L115.123 595L95.123 615" stroke="black"/>
<path d="M420.123 300L400.123 320L380.123 340L360.123 360L340.123 380L320.123 400L300.123 420L280.123 440L260.123 460L240.123 480L220.123 500L200.123 520L180.123 540L160.123 560L140.123 580L120.123 600L100.123 620" stroke="black"/>
<path d="M425.123 305L405.123 325L385.123 345L365.123 365L345.123 385L325.123 405L305.123 425L285.123 445L265.123 465L245.123 485L225.123 505L205.123 525L185.123 545L165.123 565L145.123 585L125.123 605L105.123 625" stroke="black"/>
<path d="M430.123 310L410.123 330L390.123 350L370.123 370L350.123 390L330.123 410L310.123 430L290.123 450L270.123 470L250.123 490L230.123 510L210.123 530L190.123 550L170.123 570L150.123 590L130.123 610L110.123 630" stroke="black"/>
<path d="M435.123 315L415.123 335L395.123 355L375.123 375L355.123 395L335.123 415L315.123 435L295.123 455L275.123 475L255.123 495L235.123 515L215.123 535L195.123 555L175.123 575L155.123 595L135.123 615L115.123 635" stroke="black"/>
<path d="M440.123 320L420.123 340L400.123 360L380.123 380L360.123 400L340.123 420L320.123 440L300.123 460L280.123 480L260.123 500L240.123 520L220.123 540L200.123 560L180.123 580L160.123 600L140.123 620L120.123 640" stroke="black"/>
<path d="M445.123 325L425.123 345L405.123 365L385.123 385L365.123 405L345.123 425L325.123 445L305.123 465L285.123 485L265.123 505L245.123 525L225.123 545L205.123 565L185.123 585L165.123 605L145.123 625L125.123 645" stroke="black"/>
<path d="M450.123 330L430.123 350L410.123 370L390.123 390L370.123 410L350.123 430L330.123 450L310.123 470L290.123 490L270.123 510L250.123 530L230.123 550L210.123 570L190.123 590L170.123 610L150.123 630L130.123 650" stroke="black"/>
<path d="M455.123 335L435.123 355L415.123 375L395.123 395L375.123 415L355.123 435L335.123 455L315.123 475L295.123 495L275.123 515L255.123 535L235.123 555L215.123 575L195.123 595L175.123 615L155.123 635L135.123 655" stroke="black"/>
<path d="M460.123 340L440.123 360L420.123 380L400.123 400L380.123 420L360.123 440L340.123 460L320.123 480L300.123 500L280.123 520L260.123 540L240.123 560L220.123 580L200.123 600L180.123 620L160.123 640L140.123 660" stroke="black"/>
<path d="M465.123 345L445.123 365L425.123 385L405.123 405L385.123 425L365.123 445L345.123 465L325.123 485L305.123 505L285.123 525L265.123 545L245.123 565L225.123 585L205.123 605L185.123 625L165.123 645L145.123 665" stroke="black"/>
<path d="M470.123 350L450.123 370L430.123 390L410.123 410L390.123 430L370.123 450L350.123 470L330.123 490L310.123 510L290.123 530L270.123 550L250.123 570L230.123 590L210.123 610L190.123 630L170.123 650L150.123 670" stroke="black"/>
<path d="M475.123 355L455.123 375L435.123 395L415.123 415L395.123 435L375.123 455L355.123 475L335.123 495L315.123 515L295.123 535L275.123 555L255.123 575L235.123 595L215.123 615L195.123 635L175.123 655L155.123 675" stroke="black"/>
<path d="M480.123 360L460.123 380L440.123 400L420.123 420L400.123 440L380.123 460L360.123 480L340.123 500L320.123 520L300.123 540L280.123 560L260.123 580L240.123 600L220.123 620L200.123 640L180.123 660L160.123 680" stroke="black"/>
<path d="M485.123 365L465.123 385L445.123 405L425.123 425L405.123 445L385.123 465L365.123 485L345.123 505L325.123 525L305.123 545L285.123 565L265.123 585L245.123 605L225.123 625L205.123 645L185.123 665L165.123 685" stroke="black"/>
<path d="M490.123 370L470.123 390L450.123 410L430.123 430L410.123 450L390.123 470L370.123 490L350.123 510L330.123 530L310.123 550L290.123 570L270.123 590L250.123 610L230.123 630L210.123 650L190.123 670L170.123 690" stroke="black"/>
<path d="M495.123 375L475.123 395L455.123 415L435.123 435L415.123 455L395.123 475L375.123 495L355.123 515L335.123 535L315.123 555L295.123 575L275.123 595L255.123 615L235.123 635L215.123 655L195.123 675L175.123 695" stroke="black"/>
<path d="M500.123 380L480.123 400L460.123 420L440.123 440L420.123 460L400.123 480L380.123 500L360.123 520L340.123 540L320.123 560L300.123 580L280.123 600L260.123 620L240.123 640L220.123 660L200.123 680L180.123 700" stroke="black"/>
<path d="M505.123 385L485.123 405L465.123 425L445.123 445L425.123 465L405.123 485L385.123 505L365.123 525L345.123 545L325.123 565L305.123 585L285.123 605L265.123 625L245.123 645L225.123 665L205.123 685L185.123 705" stroke="black"/>
<path d="M510.123 390L490.123 410L470.123 430L450.123 450L430.123 470L410.123 490L390.123 510L370.123 530L350.123 550L330.123 570L310.123 590L290.123 610L270.123 630L250.123 650L230.123 670L210.123 690L190.123 710" stroke="black"/>
</g>
<g clip-path="url(#clip2_78_48897)">
<path d="M570.123 -190L550.123 -170L530.123 -150L510.123 -130L490.123 -110L470.123 -90L450.123 -70L430.123 -50L410.123 -30L390.123 -10L370.123 10L350.123 30L330.123 50L310.123 70L290.123 90L270.123 110L250.123 130" stroke="black"/>
<path d="M575.123 -185L555.123 -165L535.123 -145L515.123 -125L495.123 -105L475.123 -85L455.123 -65L435.123 -45L415.123 -25L395.123 -5L375.123 15L355.123 35L335.123 55L315.123 75L295.123 95L275.123 115L255.123 135" stroke="black"/>
<path d="M580.123 -180L560.123 -160L540.123 -140L520.123 -120L500.123 -100L480.123 -80L460.123 -60L440.123 -40L420.123 -20L400.123 0L380.123 20L360.123 40L340.123 60L320.123 80L300.123 100L280.123 120L260.123 140" stroke="black"/>
<path d="M585.123 -175L565.123 -155L545.123 -135L525.123 -115L505.123 -95L485.123 -75L465.123 -55L445.123 -35L425.123 -15L405.123 5L385.123 25L365.123 45L345.123 65L325.123 85L305.123 105L285.123 125L265.123 145" stroke="black"/>
<path d="M590.123 -170L570.123 -150L550.123 -130L530.123 -110L510.123 -90L490.123 -70L470.123 -50L450.123 -30L430.123 -10L410.123 10L390.123 30L370.123 50L350.123 70L330.123 90L310.123 110L290.123 130L270.123 150" stroke="black"/>
<path d="M595.123 -165L575.123 -145L555.123 -125L535.123 -105L515.123 -85L495.123 -65L475.123 -45L455.123 -25L435.123 -5L415.123 15L395.123 35L375.123 55L355.123 75L335.123 95L315.123 115L295.123 135L275.123 155" stroke="black"/>
<path d="M600.123 -160L580.123 -140L560.123 -120L540.123 -100L520.123 -80L500.123 -60L480.123 -40L460.123 -20L440.123 0L420.123 20L400.123 40L380.123 60L360.123 80L340.123 100L320.123 120L300.123 140L280.123 160" stroke="black"/>
<path d="M605.123 -155L585.123 -135L565.123 -115L545.123 -95L525.123 -75L505.123 -55L485.123 -35L465.123 -15L445.123 5L425.123 25L405.123 45L385.123 65L365.123 85L345.123 105L325.123 125L305.123 145L285.123 165" stroke="black"/>
<path d="M610.123 -150L590.123 -130L570.123 -110L550.123 -90L530.123 -70L510.123 -50L490.123 -30L470.123 -10L450.123 10L430.123 30L410.123 50L390.123 70L370.123 90L350.123 110L330.123 130L310.123 150L290.123 170" stroke="black"/>
<path d="M615.123 -145L595.123 -125L575.123 -105L555.123 -85L535.123 -65L515.123 -45L495.123 -25L475.123 -5L455.123 15L435.123 35L415.123 55L395.123 75L375.123 95L355.123 115L335.123 135L315.123 155L295.123 175" stroke="black"/>
<path d="M620.123 -140L600.123 -120L580.123 -100L560.123 -80L540.123 -60L520.123 -40L500.123 -20L480.123 0L460.123 20L440.123 40L420.123 60L400.123 80L380.123 100L360.123 120L340.123 140L320.123 160L300.123 180" stroke="black"/>
<path d="M625.123 -135L605.123 -115L585.123 -95L565.123 -75L545.123 -55L525.123 -35L505.123 -15L485.123 5L465.123 25L445.123 45L425.123 65L405.123 85L385.123 105L365.123 125L345.123 145L325.123 165L305.123 185" stroke="black"/>
<path d="M630.123 -130L610.123 -110L590.123 -90L570.123 -70L550.123 -50L530.123 -30L510.123 -10L490.123 10L470.123 30L450.123 50L430.123 70L410.123 90L390.123 110L370.123 130L350.123 150L330.123 170L310.123 190" stroke="black"/>
<path d="M635.123 -125L615.123 -105L595.123 -85L575.123 -65L555.123 -45L535.123 -25L515.123 -5L495.123 15L475.123 35L455.123 55L435.123 75L415.123 95L395.123 115L375.123 135L355.123 155L335.123 175L315.123 195" stroke="black"/>
<path d="M640.123 -120L620.123 -100L600.123 -80L580.123 -60L560.123 -40L540.123 -20L520.123 0L500.123 20L480.123 40L460.123 60L440.123 80L420.123 100L400.123 120L380.123 140L360.123 160L340.123 180L320.123 200" stroke="black"/>
<path d="M645.123 -115L625.123 -95L605.123 -75L585.123 -55L565.123 -35L545.123 -15L525.123 5L505.123 25L485.123 45L465.123 65L445.123 85L425.123 105L405.123 125L385.123 145L365.123 165L345.123 185L325.123 205" stroke="black"/>
<path d="M650.123 -110L630.123 -90L610.123 -70L590.123 -50L570.123 -30L550.123 -10L530.123 10L510.123 30L490.123 50L470.123 70L450.123 90L430.123 110L410.123 130L390.123 150L370.123 170L350.123 190L330.123 210" stroke="black"/>
<path d="M655.123 -105L635.123 -85L615.123 -65L595.123 -45L575.123 -25L555.123 -5L535.123 15L515.123 35L495.123 55L475.123 75L455.123 95L435.123 115L415.123 135L395.123 155L375.123 175L355.123 195L335.123 215" stroke="black"/>
<path d="M660.123 -100L640.123 -80L620.123 -60L600.123 -40L580.123 -20L560.123 0L540.123 20L520.123 40L500.123 60L480.123 80L460.123 100L440.123 120L420.123 140L400.123 160L380.123 180L360.123 200L340.123 220" stroke="black"/>
<path d="M665.123 -95L645.123 -75L625.123 -55L605.123 -35L585.123 -15L565.123 5L545.123 25L525.123 45L505.123 65L485.123 85L465.123 105L445.123 125L425.123 145L405.123 165L385.123 185L365.123 205L345.123 225" stroke="black"/>
<path d="M670.123 -90L650.123 -70L630.123 -50L610.123 -30L590.123 -10L570.123 10L550.123 30L530.123 50L510.123 70L490.123 90L470.123 110L450.123 130L430.123 150L410.123 170L390.123 190L370.123 210L350.123 230" stroke="black"/>
<path d="M675.123 -85L655.123 -65L635.123 -45L615.123 -25L595.123 -5L575.123 15L555.123 35L535.123 55L515.123 75L495.123 95L475.123 115L455.123 135L435.123 155L415.123 175L395.123 195L375.123 215L355.123 235" stroke="black"/>
<path d="M680.123 -80L660.123 -60L640.123 -40L620.123 -20L600.123 0L580.123 20L560.123 40L540.123 60L520.123 80L500.123 100L480.123 120L460.123 140L440.123 160L420.123 180L400.123 200L380.123 220L360.123 240" stroke="black"/>
<path d="M685.123 -75L665.123 -55L645.123 -35L625.123 -15L605.123 5L585.123 25L565.123 45L545.123 65L525.123 85L505.123 105L485.123 125L465.123 145L445.123 165L425.123 185L405.123 205L385.123 225L365.123 245" stroke="black"/>
<path d="M690.123 -70L670.123 -50L650.123 -30L630.123 -10L610.123 10L590.123 30L570.123 50L550.123 70L530.123 90L510.123 110L490.123 130L470.123 150L450.123 170L430.123 190L410.123 210L390.123 230L370.123 250" stroke="black"/>
<path d="M695.123 -65L675.123 -45L655.123 -25L635.123 -5L615.123 15L595.123 35L575.123 55L555.123 75L535.123 95L515.123 115L495.123 135L475.123 155L455.123 175L435.123 195L415.123 215L395.123 235L375.123 255" stroke="black"/>
<path d="M700.123 -60L680.123 -40L660.123 -20L640.123 0L620.123 20L600.123 40L580.123 60L560.123 80L540.123 100L520.123 120L500.123 140L480.123 160L460.123 180L440.123 200L420.123 220L400.123 240L380.123 260" stroke="black"/>
<path d="M705.123 -55L685.123 -35L665.123 -15L645.123 5L625.123 25L605.123 45L585.123 65L565.123 85L545.123 105L525.123 125L505.123 145L485.123 165L465.123 185L445.123 205L425.123 225L405.123 245L385.123 265" stroke="black"/>
<path d="M710.123 -50L690.123 -30L670.123 -10L650.123 10L630.123 30L610.123 50L590.123 70L570.123 90L550.123 110L530.123 130L510.123 150L490.123 170L470.123 190L450.123 210L430.123 230L410.123 250L390.123 270" stroke="black"/>
<path d="M715.123 -45L695.123 -25L675.123 -5L655.123 15L635.123 35L615.123 55L595.123 75L575.123 95L555.123 115L535.123 135L515.123 155L495.123 175L475.123 195L455.123 215L435.123 235L415.123 255L395.123 275" stroke="black"/>
<path d="M720.123 -40L700.123 -20L680.123 0L660.123 20L640.123 40L620.123 60L600.123 80L580.123 100L560.123 120L540.123 140L520.123 160L500.123 180L480.123 200L460.123 220L440.123 240L420.123 260L400.123 280" stroke="black"/>
<path d="M725.123 -35L705.123 -15L685.123 5L665.123 25L645.123 45L625.123 65L605.123 85L585.123 105L565.123 125L545.123 145L525.123 165L505.123 185L485.123 205L465.123 225L445.123 245L425.123 265L405.123 285" stroke="black"/>
<path d="M730.123 -30L710.123 -10L690.123 10L670.123 30L650.123 50L630.123 70L610.123 90L590.123 110L570.123 130L550.123 150L530.123 170L510.123 190L490.123 210L470.123 230L450.123 250L430.123 270L410.123 290" stroke="black"/>
<path d="M735.123 -25L715.123 -5L695.123 15L675.123 35L655.123 55L635.123 75L615.123 95L595.123 115L575.123 135L555.123 155L535.123 175L515.123 195L495.123 215L475.123 235L455.123 255L435.123 275L415.123 295" stroke="black"/>
<path d="M740.123 -20L720.123 0L700.123 20L680.123 40L660.123 60L640.123 80L620.123 100L600.123 120L580.123 140L560.123 160L540.123 180L520.123 200L500.123 220L480.123 240L460.123 260L440.123 280L420.123 300" stroke="black"/>
<path d="M745.123 -15L725.123 5L705.123 25L685.123 45L665.123 65L645.123 85L625.123 105L605.123 125L585.123 145L565.123 165L545.123 185L525.123 205L505.123 225L485.123 245L465.123 265L445.123 285L425.123 305" stroke="black"/>
<path d="M750.123 -10L730.123 10L710.123 30L690.123 50L670.123 70L650.123 90L630.123 110L610.123 130L590.123 150L570.123 170L550.123 190L530.123 210L510.123 230L490.123 250L470.123 270L450.123 290L430.123 310" stroke="black"/>
<path d="M755.123 -5L735.123 15L715.123 35L695.123 55L675.123 75L655.123 95L635.123 115L615.123 135L595.123 155L575.123 175L555.123 195L535.123 215L515.123 235L495.123 255L475.123 275L455.123 295L435.123 315" stroke="black"/>
<path d="M760.123 0L740.123 20L720.123 40L700.123 60L680.123 80L660.123 100L640.123 120L620.123 140L600.123 160L580.123 180L560.123 200L540.123 220L520.123 240L500.123 260L480.123 280L460.123 300L440.123 320" stroke="black"/>
<path d="M765.123 5L745.123 25L725.123 45L705.123 65L685.123 85L665.123 105L645.123 125L625.123 145L605.123 165L585.123 185L565.123 205L545.123 225L525.123 245L505.123 265L485.123 285L465.123 305L445.123 325" stroke="black"/>
<path d="M770.123 10L750.123 30L730.123 50L710.123 70L690.123 90L670.123 110L650.123 130L630.123 150L610.123 170L590.123 190L570.123 210L550.123 230L530.123 250L510.123 270L490.123 290L470.123 310L450.123 330" stroke="black"/>
<path d="M775.123 15L755.123 35L735.123 55L715.123 75L695.123 95L675.123 115L655.123 135L635.123 155L615.123 175L595.123 195L575.123 215L555.123 235L535.123 255L515.123 275L495.123 295L475.123 315L455.123 335" stroke="black"/>
<path d="M780.123 20L760.123 40L740.123 60L720.123 80L700.123 100L680.123 120L660.123 140L640.123 160L620.123 180L600.123 200L580.123 220L560.123 240L540.123 260L520.123 280L500.123 300L480.123 320L460.123 340" stroke="black"/>
<path d="M785.123 25L765.123 45L745.123 65L725.123 85L705.123 105L685.123 125L665.123 145L645.123 165L625.123 185L605.123 205L585.123 225L565.123 245L545.123 265L525.123 285L505.123 305L485.123 325L465.123 345" stroke="black"/>
<path d="M790.123 30L770.123 50L750.123 70L730.123 90L710.123 110L690.123 130L670.123 150L650.123 170L630.123 190L610.123 210L590.123 230L570.123 250L550.123 270L530.123 290L510.123 310L490.123 330L470.123 350" stroke="black"/>
<path d="M795.123 35L775.123 55L755.123 75L735.123 95L715.123 115L695.123 135L675.123 155L655.123 175L635.123 195L615.123 215L595.123 235L575.123 255L555.123 275L535.123 295L515.123 315L495.123 335L475.123 355" stroke="black"/>
<path d="M800.123 40L780.123 60L760.123 80L740.123 100L720.123 120L700.123 140L680.123 160L660.123 180L640.123 200L620.123 220L600.123 240L580.123 260L560.123 280L540.123 300L520.123 320L500.123 340L480.123 360" stroke="black"/>
<path d="M805.123 45L785.123 65L765.123 85L745.123 105L725.123 125L705.123 145L685.123 165L665.123 185L645.123 205L625.123 225L605.123 245L585.123 265L565.123 285L545.123 305L525.123 325L505.123 345L485.123 365" stroke="black"/>
<path d="M810.123 50L790.123 70L770.123 90L750.123 110L730.123 130L710.123 150L690.123 170L670.123 190L650.123 210L630.123 230L610.123 250L590.123 270L570.123 290L550.123 310L530.123 330L510.123 350L490.123 370" stroke="black"/>
<path d="M815.123 55L795.123 75L775.123 95L755.123 115L735.123 135L715.123 155L695.123 175L675.123 195L655.123 215L635.123 235L615.123 255L595.123 275L575.123 295L555.123 315L535.123 335L515.123 355L495.123 375" stroke="black"/>
<path d="M820.123 60L800.123 80L780.123 100L760.123 120L740.123 140L720.123 160L700.123 180L680.123 200L660.123 220L640.123 240L620.123 260L600.123 280L580.123 300L560.123 320L540.123 340L520.123 360L500.123 380" stroke="black"/>
<path d="M825.123 65L805.123 85L785.123 105L765.123 125L745.123 145L725.123 165L705.123 185L685.123 205L665.123 225L645.123 245L625.123 265L605.123 285L585.123 305L565.123 325L545.123 345L525.123 365L505.123 385" stroke="black"/>
<path d="M830.123 70L810.123 90L790.123 110L770.123 130L750.123 150L730.123 170L710.123 190L690.123 210L670.123 230L650.123 250L630.123 270L610.123 290L590.123 310L570.123 330L550.123 350L530.123 370L510.123 390" stroke="black"/>
<path d="M835.123 75L815.123 95L795.123 115L775.123 135L755.123 155L735.123 175L715.123 195L695.123 215L675.123 235L655.123 255L635.123 275L615.123 295L595.123 315L575.123 335L555.123 355L535.123 375L515.123 395" stroke="black"/>
<path d="M840.123 80L820.123 100L800.123 120L780.123 140L760.123 160L740.123 180L720.123 200L700.123 220L680.123 240L660.123 260L640.123 280L620.123 300L600.123 320L580.123 340L560.123 360L540.123 380L520.123 400" stroke="black"/>
<path d="M845.123 85L825.123 105L805.123 125L785.123 145L765.123 165L745.123 185L725.123 205L705.123 225L685.123 245L665.123 265L645.123 285L625.123 305L605.123 325L585.123 345L565.123 365L545.123 385L525.123 405" stroke="black"/>
<path d="M850.123 90L830.123 110L810.123 130L790.123 150L770.123 170L750.123 190L730.123 210L710.123 230L690.123 250L670.123 270L650.123 290L630.123 310L610.123 330L590.123 350L570.123 370L550.123 390L530.123 410" stroke="black"/>
<path d="M855.123 95L835.123 115L815.123 135L795.123 155L775.123 175L755.123 195L735.123 215L715.123 235L695.123 255L675.123 275L655.123 295L635.123 315L615.123 335L595.123 355L575.123 375L555.123 395L535.123 415" stroke="black"/>
<path d="M860.123 100L840.123 120L820.123 140L800.123 160L780.123 180L760.123 200L740.123 220L720.123 240L700.123 260L680.123 280L660.123 300L640.123 320L620.123 340L600.123 360L580.123 380L560.123 400L540.123 420" stroke="black"/>
<path d="M865.123 105L845.123 125L825.123 145L805.123 165L785.123 185L765.123 205L745.123 225L725.123 245L705.123 265L685.123 285L665.123 305L645.123 325L625.123 345L605.123 365L585.123 385L565.123 405L545.123 425" stroke="black"/>
<path d="M870.123 110L850.123 130L830.123 150L810.123 170L790.123 190L770.123 210L750.123 230L730.123 250L710.123 270L690.123 290L670.123 310L650.123 330L630.123 350L610.123 370L590.123 390L570.123 410L550.123 430" stroke="black"/>
<path d="M875.123 115L855.123 135L835.123 155L815.123 175L795.123 195L775.123 215L755.123 235L735.123 255L715.123 275L695.123 295L675.123 315L655.123 335L635.123 355L615.123 375L595.123 395L575.123 415L555.123 435" stroke="black"/>
<path d="M880.123 120L860.123 140L840.123 160L820.123 180L800.123 200L780.123 220L760.123 240L740.123 260L720.123 280L700.123 300L680.123 320L660.123 340L640.123 360L620.123 380L600.123 400L580.123 420L560.123 440" stroke="black"/>
<path d="M885.123 125L865.123 145L845.123 165L825.123 185L805.123 205L785.123 225L765.123 245L745.123 265L725.123 285L705.123 305L685.123 325L665.123 345L645.123 365L625.123 385L605.123 405L585.123 425L565.123 445" stroke="black"/>
<path d="M890.123 130L870.123 150L850.123 170L830.123 190L810.123 210L790.123 230L770.123 250L750.123 270L730.123 290L710.123 310L690.123 330L670.123 350L650.123 370L630.123 390L610.123 410L590.123 430L570.123 450" stroke="black"/>
</g>
<g clip-path="url(#clip3_78_48897)">
<path d="M570.123 70L550.123 90L530.123 110L510.123 130L490.123 150L470.123 170L450.123 190L430.123 210L410.123 230L390.123 250L370.123 270L350.123 290L330.123 310L310.123 330L290.123 350L270.123 370L250.123 390" stroke="black"/>
<path d="M575.123 75L555.123 95L535.123 115L515.123 135L495.123 155L475.123 175L455.123 195L435.123 215L415.123 235L395.123 255L375.123 275L355.123 295L335.123 315L315.123 335L295.123 355L275.123 375L255.123 395" stroke="black"/>
<path d="M580.123 80L560.123 100L540.123 120L520.123 140L500.123 160L480.123 180L460.123 200L440.123 220L420.123 240L400.123 260L380.123 280L360.123 300L340.123 320L320.123 340L300.123 360L280.123 380L260.123 400" stroke="black"/>
<path d="M585.123 85L565.123 105L545.123 125L525.123 145L505.123 165L485.123 185L465.123 205L445.123 225L425.123 245L405.123 265L385.123 285L365.123 305L345.123 325L325.123 345L305.123 365L285.123 385L265.123 405" stroke="black"/>
<path d="M590.123 90L570.123 110L550.123 130L530.123 150L510.123 170L490.123 190L470.123 210L450.123 230L430.123 250L410.123 270L390.123 290L370.123 310L350.123 330L330.123 350L310.123 370L290.123 390L270.123 410" stroke="black"/>
<path d="M595.123 95L575.123 115L555.123 135L535.123 155L515.123 175L495.123 195L475.123 215L455.123 235L435.123 255L415.123 275L395.123 295L375.123 315L355.123 335L335.123 355L315.123 375L295.123 395L275.123 415" stroke="black"/>
<path d="M600.123 100L580.123 120L560.123 140L540.123 160L520.123 180L500.123 200L480.123 220L460.123 240L440.123 260L420.123 280L400.123 300L380.123 320L360.123 340L340.123 360L320.123 380L300.123 400L280.123 420" stroke="black"/>
<path d="M605.123 105L585.123 125L565.123 145L545.123 165L525.123 185L505.123 205L485.123 225L465.123 245L445.123 265L425.123 285L405.123 305L385.123 325L365.123 345L345.123 365L325.123 385L305.123 405L285.123 425" stroke="black"/>
<path d="M610.123 110L590.123 130L570.123 150L550.123 170L530.123 190L510.123 210L490.123 230L470.123 250L450.123 270L430.123 290L410.123 310L390.123 330L370.123 350L350.123 370L330.123 390L310.123 410L290.123 430" stroke="black"/>
<path d="M615.123 115L595.123 135L575.123 155L555.123 175L535.123 195L515.123 215L495.123 235L475.123 255L455.123 275L435.123 295L415.123 315L395.123 335L375.123 355L355.123 375L335.123 395L315.123 415L295.123 435" stroke="black"/>
<path d="M620.123 120L600.123 140L580.123 160L560.123 180L540.123 200L520.123 220L500.123 240L480.123 260L460.123 280L440.123 300L420.123 320L400.123 340L380.123 360L360.123 380L340.123 400L320.123 420L300.123 440" stroke="black"/>
<path d="M625.123 125L605.123 145L585.123 165L565.123 185L545.123 205L525.123 225L505.123 245L485.123 265L465.123 285L445.123 305L425.123 325L405.123 345L385.123 365L365.123 385L345.123 405L325.123 425L305.123 445" stroke="black"/>
<path d="M630.123 130L610.123 150L590.123 170L570.123 190L550.123 210L530.123 230L510.123 250L490.123 270L470.123 290L450.123 310L430.123 330L410.123 350L390.123 370L370.123 390L350.123 410L330.123 430L310.123 450" stroke="black"/>
<path d="M635.123 135L615.123 155L595.123 175L575.123 195L555.123 215L535.123 235L515.123 255L495.123 275L475.123 295L455.123 315L435.123 335L415.123 355L395.123 375L375.123 395L355.123 415L335.123 435L315.123 455" stroke="black"/>
<path d="M640.123 140L620.123 160L600.123 180L580.123 200L560.123 220L540.123 240L520.123 260L500.123 280L480.123 300L460.123 320L440.123 340L420.123 360L400.123 380L380.123 400L360.123 420L340.123 440L320.123 460" stroke="black"/>
<path d="M645.123 145L625.123 165L605.123 185L585.123 205L565.123 225L545.123 245L525.123 265L505.123 285L485.123 305L465.123 325L445.123 345L425.123 365L405.123 385L385.123 405L365.123 425L345.123 445L325.123 465" stroke="black"/>
<path d="M650.123 150L630.123 170L610.123 190L590.123 210L570.123 230L550.123 250L530.123 270L510.123 290L490.123 310L470.123 330L450.123 350L430.123 370L410.123 390L390.123 410L370.123 430L350.123 450L330.123 470" stroke="black"/>
<path d="M655.123 155L635.123 175L615.123 195L595.123 215L575.123 235L555.123 255L535.123 275L515.123 295L495.123 315L475.123 335L455.123 355L435.123 375L415.123 395L395.123 415L375.123 435L355.123 455L335.123 475" stroke="black"/>
<path d="M660.123 160L640.123 180L620.123 200L600.123 220L580.123 240L560.123 260L540.123 280L520.123 300L500.123 320L480.123 340L460.123 360L440.123 380L420.123 400L400.123 420L380.123 440L360.123 460L340.123 480" stroke="black"/>
<path d="M665.123 165L645.123 185L625.123 205L605.123 225L585.123 245L565.123 265L545.123 285L525.123 305L505.123 325L485.123 345L465.123 365L445.123 385L425.123 405L405.123 425L385.123 445L365.123 465L345.123 485" stroke="black"/>
<path d="M670.123 170L650.123 190L630.123 210L610.123 230L590.123 250L570.123 270L550.123 290L530.123 310L510.123 330L490.123 350L470.123 370L450.123 390L430.123 410L410.123 430L390.123 450L370.123 470L350.123 490" stroke="black"/>
<path d="M675.123 175L655.123 195L635.123 215L615.123 235L595.123 255L575.123 275L555.123 295L535.123 315L515.123 335L495.123 355L475.123 375L455.123 395L435.123 415L415.123 435L395.123 455L375.123 475L355.123 495" stroke="black"/>
<path d="M680.123 180L660.123 200L640.123 220L620.123 240L600.123 260L580.123 280L560.123 300L540.123 320L520.123 340L500.123 360L480.123 380L460.123 400L440.123 420L420.123 440L400.123 460L380.123 480L360.123 500" stroke="black"/>
<path d="M685.123 185L665.123 205L645.123 225L625.123 245L605.123 265L585.123 285L565.123 305L545.123 325L525.123 345L505.123 365L485.123 385L465.123 405L445.123 425L425.123 445L405.123 465L385.123 485L365.123 505" stroke="black"/>
<path d="M690.123 190L670.123 210L650.123 230L630.123 250L610.123 270L590.123 290L570.123 310L550.123 330L530.123 350L510.123 370L490.123 390L470.123 410L450.123 430L430.123 450L410.123 470L390.123 490L370.123 510" stroke="black"/>
<path d="M695.123 195L675.123 215L655.123 235L635.123 255L615.123 275L595.123 295L575.123 315L555.123 335L535.123 355L515.123 375L495.123 395L475.123 415L455.123 435L435.123 455L415.123 475L395.123 495L375.123 515" stroke="black"/>
<path d="M700.123 200L680.123 220L660.123 240L640.123 260L620.123 280L600.123 300L580.123 320L560.123 340L540.123 360L520.123 380L500.123 400L480.123 420L460.123 440L440.123 460L420.123 480L400.123 500L380.123 520" stroke="black"/>
<path d="M705.123 205L685.123 225L665.123 245L645.123 265L625.123 285L605.123 305L585.123 325L565.123 345L545.123 365L525.123 385L505.123 405L485.123 425L465.123 445L445.123 465L425.123 485L405.123 505L385.123 525" stroke="black"/>
<path d="M710.123 210L690.123 230L670.123 250L650.123 270L630.123 290L610.123 310L590.123 330L570.123 350L550.123 370L530.123 390L510.123 410L490.123 430L470.123 450L450.123 470L430.123 490L410.123 510L390.123 530" stroke="black"/>
<path d="M715.123 215L695.123 235L675.123 255L655.123 275L635.123 295L615.123 315L595.123 335L575.123 355L555.123 375L535.123 395L515.123 415L495.123 435L475.123 455L455.123 475L435.123 495L415.123 515L395.123 535" stroke="black"/>
<path d="M720.123 220L700.123 240L680.123 260L660.123 280L640.123 300L620.123 320L600.123 340L580.123 360L560.123 380L540.123 400L520.123 420L500.123 440L480.123 460L460.123 480L440.123 500L420.123 520L400.123 540" stroke="black"/>
<path d="M725.123 225L705.123 245L685.123 265L665.123 285L645.123 305L625.123 325L605.123 345L585.123 365L565.123 385L545.123 405L525.123 425L505.123 445L485.123 465L465.123 485L445.123 505L425.123 525L405.123 545" stroke="black"/>
<path d="M730.123 230L710.123 250L690.123 270L670.123 290L650.123 310L630.123 330L610.123 350L590.123 370L570.123 390L550.123 410L530.123 430L510.123 450L490.123 470L470.123 490L450.123 510L430.123 530L410.123 550" stroke="black"/>
<path d="M735.123 235L715.123 255L695.123 275L675.123 295L655.123 315L635.123 335L615.123 355L595.123 375L575.123 395L555.123 415L535.123 435L515.123 455L495.123 475L475.123 495L455.123 515L435.123 535L415.123 555" stroke="black"/>
<path d="M740.123 240L720.123 260L700.123 280L680.123 300L660.123 320L640.123 340L620.123 360L600.123 380L580.123 400L560.123 420L540.123 440L520.123 460L500.123 480L480.123 500L460.123 520L440.123 540L420.123 560" stroke="black"/>
<path d="M745.123 245L725.123 265L705.123 285L685.123 305L665.123 325L645.123 345L625.123 365L605.123 385L585.123 405L565.123 425L545.123 445L525.123 465L505.123 485L485.123 505L465.123 525L445.123 545L425.123 565" stroke="black"/>
<path d="M750.123 250L730.123 270L710.123 290L690.123 310L670.123 330L650.123 350L630.123 370L610.123 390L590.123 410L570.123 430L550.123 450L530.123 470L510.123 490L490.123 510L470.123 530L450.123 550L430.123 570" stroke="black"/>
<path d="M755.123 255L735.123 275L715.123 295L695.123 315L675.123 335L655.123 355L635.123 375L615.123 395L595.123 415L575.123 435L555.123 455L535.123 475L515.123 495L495.123 515L475.123 535L455.123 555L435.123 575" stroke="black"/>
<path d="M760.123 260L740.123 280L720.123 300L700.123 320L680.123 340L660.123 360L640.123 380L620.123 400L600.123 420L580.123 440L560.123 460L540.123 480L520.123 500L500.123 520L480.123 540L460.123 560L440.123 580" stroke="black"/>
<path d="M765.123 265L745.123 285L725.123 305L705.123 325L685.123 345L665.123 365L645.123 385L625.123 405L605.123 425L585.123 445L565.123 465L545.123 485L525.123 505L505.123 525L485.123 545L465.123 565L445.123 585" stroke="black"/>
<path d="M770.123 270L750.123 290L730.123 310L710.123 330L690.123 350L670.123 370L650.123 390L630.123 410L610.123 430L590.123 450L570.123 470L550.123 490L530.123 510L510.123 530L490.123 550L470.123 570L450.123 590" stroke="black"/>
<path d="M775.123 275L755.123 295L735.123 315L715.123 335L695.123 355L675.123 375L655.123 395L635.123 415L615.123 435L595.123 455L575.123 475L555.123 495L535.123 515L515.123 535L495.123 555L475.123 575L455.123 595" stroke="black"/>
<path d="M780.123 280L760.123 300L740.123 320L720.123 340L700.123 360L680.123 380L660.123 400L640.123 420L620.123 440L600.123 460L580.123 480L560.123 500L540.123 520L520.123 540L500.123 560L480.123 580L460.123 600" stroke="black"/>
<path d="M785.123 285L765.123 305L745.123 325L725.123 345L705.123 365L685.123 385L665.123 405L645.123 425L625.123 445L605.123 465L585.123 485L565.123 505L545.123 525L525.123 545L505.123 565L485.123 585L465.123 605" stroke="black"/>
<path d="M790.123 290L770.123 310L750.123 330L730.123 350L710.123 370L690.123 390L670.123 410L650.123 430L630.123 450L610.123 470L590.123 490L570.123 510L550.123 530L530.123 550L510.123 570L490.123 590L470.123 610" stroke="black"/>
<path d="M795.123 295L775.123 315L755.123 335L735.123 355L715.123 375L695.123 395L675.123 415L655.123 435L635.123 455L615.123 475L595.123 495L575.123 515L555.123 535L535.123 555L515.123 575L495.123 595L475.123 615" stroke="black"/>
<path d="M800.123 300L780.123 320L760.123 340L740.123 360L720.123 380L700.123 400L680.123 420L660.123 440L640.123 460L620.123 480L600.123 500L580.123 520L560.123 540L540.123 560L520.123 580L500.123 600L480.123 620" stroke="black"/>
<path d="M805.123 305L785.123 325L765.123 345L745.123 365L725.123 385L705.123 405L685.123 425L665.123 445L645.123 465L625.123 485L605.123 505L585.123 525L565.123 545L545.123 565L525.123 585L505.123 605L485.123 625" stroke="black"/>
<path d="M810.123 310L790.123 330L770.123 350L750.123 370L730.123 390L710.123 410L690.123 430L670.123 450L650.123 470L630.123 490L610.123 510L590.123 530L570.123 550L550.123 570L530.123 590L510.123 610L490.123 630" stroke="black"/>
<path d="M815.123 315L795.123 335L775.123 355L755.123 375L735.123 395L715.123 415L695.123 435L675.123 455L655.123 475L635.123 495L615.123 515L595.123 535L575.123 555L555.123 575L535.123 595L515.123 615L495.123 635" stroke="black"/>
<path d="M820.123 320L800.123 340L780.123 360L760.123 380L740.123 400L720.123 420L700.123 440L680.123 460L660.123 480L640.123 500L620.123 520L600.123 540L580.123 560L560.123 580L540.123 600L520.123 620L500.123 640" stroke="black"/>
<path d="M825.123 325L805.123 345L785.123 365L765.123 385L745.123 405L725.123 425L705.123 445L685.123 465L665.123 485L645.123 505L625.123 525L605.123 545L585.123 565L565.123 585L545.123 605L525.123 625L505.123 645" stroke="black"/>
<path d="M830.123 330L810.123 350L790.123 370L770.123 390L750.123 410L730.123 430L710.123 450L690.123 470L670.123 490L650.123 510L630.123 530L610.123 550L590.123 570L570.123 590L550.123 610L530.123 630L510.123 650" stroke="black"/>
<path d="M835.123 335L815.123 355L795.123 375L775.123 395L755.123 415L735.123 435L715.123 455L695.123 475L675.123 495L655.123 515L635.123 535L615.123 555L595.123 575L575.123 595L555.123 615L535.123 635L515.123 655" stroke="black"/>
<path d="M840.123 340L820.123 360L800.123 380L780.123 400L760.123 420L740.123 440L720.123 460L700.123 480L680.123 500L660.123 520L640.123 540L620.123 560L600.123 580L580.123 600L560.123 620L540.123 640L520.123 660" stroke="black"/>
<path d="M845.123 345L825.123 365L805.123 385L785.123 405L765.123 425L745.123 445L725.123 465L705.123 485L685.123 505L665.123 525L645.123 545L625.123 565L605.123 585L585.123 605L565.123 625L545.123 645L525.123 665" stroke="black"/>
<path d="M850.123 350L830.123 370L810.123 390L790.123 410L770.123 430L750.123 450L730.123 470L710.123 490L690.123 510L670.123 530L650.123 550L630.123 570L610.123 590L590.123 610L570.123 630L550.123 650L530.123 670" stroke="black"/>
<path d="M855.123 355L835.123 375L815.123 395L795.123 415L775.123 435L755.123 455L735.123 475L715.123 495L695.123 515L675.123 535L655.123 555L635.123 575L615.123 595L595.123 615L575.123 635L555.123 655L535.123 675" stroke="black"/>
<path d="M860.123 360L840.123 380L820.123 400L800.123 420L780.123 440L760.123 460L740.123 480L720.123 500L700.123 520L680.123 540L660.123 560L640.123 580L620.123 600L600.123 620L580.123 640L560.123 660L540.123 680" stroke="black"/>
<path d="M865.123 365L845.123 385L825.123 405L805.123 425L785.123 445L765.123 465L745.123 485L725.123 505L705.123 525L685.123 545L665.123 565L645.123 585L625.123 605L605.123 625L585.123 645L565.123 665L545.123 685" stroke="black"/>
<path d="M870.123 370L850.123 390L830.123 410L810.123 430L790.123 450L770.123 470L750.123 490L730.123 510L710.123 530L690.123 550L670.123 570L650.123 590L630.123 610L610.123 630L590.123 650L570.123 670L550.123 690" stroke="black"/>
<path d="M875.123 375L855.123 395L835.123 415L815.123 435L795.123 455L775.123 475L755.123 495L735.123 515L715.123 535L695.123 555L675.123 575L655.123 595L635.123 615L615.123 635L595.123 655L575.123 675L555.123 695" stroke="black"/>
<path d="M880.123 380L860.123 400L840.123 420L820.123 440L800.123 460L780.123 480L760.123 500L740.123 520L720.123 540L700.123 560L680.123 580L660.123 600L640.123 620L620.123 640L600.123 660L580.123 680L560.123 700" stroke="black"/>
<path d="M885.123 385L865.123 405L845.123 425L825.123 445L805.123 465L785.123 485L765.123 505L745.123 525L725.123 545L705.123 565L685.123 585L665.123 605L645.123 625L625.123 645L605.123 665L585.123 685L565.123 705" stroke="black"/>
<path d="M890.123 390L870.123 410L850.123 430L830.123 450L810.123 470L790.123 490L770.123 510L750.123 530L730.123 550L710.123 570L690.123 590L670.123 610L650.123 630L630.123 650L610.123 670L590.123 690L570.123 710" stroke="black"/>
</g>
<defs>
<clipPath id="clip0_78_48897">
<rect width="380" height="260" fill="white"/>
</clipPath>
<clipPath id="clip1_78_48897">
<rect width="380" height="260" fill="white" transform="translate(0 260)"/>
</clipPath>
<clipPath id="clip2_78_48897">
<rect width="380" height="260" fill="white" transform="translate(380)"/>
</clipPath>
<clipPath id="clip3_78_48897">
<rect width="380" height="260" fill="white" transform="translate(380 260)"/>
</clipPath>
</defs>
</svg>
