<svg width="96" height="57" viewBox="0 0 96 57" fill="none" xmlns="http://www.w3.org/2000/svg">
<g clip-path="url(#clip0)">
<path d="M41.2187 12.9636L35.0782 6.8244C35.6238 6.21064 36.1701 5.59656 36.7838 5.05064L42.9237 11.1902L41.2187 12.9636ZM37.2613 4.64136C38.0117 3.95912 38.8302 3.4132 39.7173 2.8676L45.5157 8.66632L43.4011 10.7809L37.2613 4.64136ZM45.9253 8.25672L40.2629 2.59528C41.0129 2.18568 41.8321 1.84456 42.6504 1.5716L47.6302 6.55144L45.9253 8.25672ZM50.6321 8.66632L56.4299 2.8676C57.3176 3.4132 58.1355 3.95912 58.8862 4.64136L52.7464 10.7809L50.6321 8.66632ZM54.9291 21.5585L61.0689 27.6983C60.7288 28.1082 60.1137 28.7223 59.7733 29.1313C59.5681 29.3364 59.5006 29.4724 59.4321 29.4724L53.2929 23.3332L54.9291 21.5585ZM52.8149 23.6743L58.9547 29.8135C58.204 30.4964 57.3857 31.0414 56.4987 31.5866L50.7006 25.7886L52.8149 23.6743ZM50.2229 26.266L55.8846 31.9278C55.1345 32.337 53.7016 32.883 53.4961 32.9518L48.5169 27.9716L50.2229 26.266ZM48.1073 28.3802L52.8837 33.1556C49.7451 34.1111 46.4027 34.1111 43.3329 33.1556L48.1073 28.3802ZM45.5157 25.7886L39.7173 31.5866C38.8305 31.0414 38.0117 30.4964 37.2613 29.8135L43.4011 23.6743L45.5157 25.7886ZM51.0408 13.3729L52.7464 11.6676L54.4517 13.3729L52.7464 15.0785L51.0408 13.3729ZM45.1064 21.081L43.4011 22.7866L41.6955 21.081L43.4011 19.3754L45.1064 21.081ZM41.4229 17.057C41.2865 17.1934 41.2865 17.3297 41.4229 17.466L42.9233 18.9674L41.2184 20.673L37.8072 17.1934L41.2184 13.7825L42.9233 15.4881L41.4229 17.057ZM41.6273 13.3729L43.4011 11.5994L45.1064 13.3047L43.4011 15.0103L41.6273 13.3729ZM43.8104 11.2583L45.9246 9.14344L47.6299 10.849L45.5157 12.9639L43.8104 11.2583ZM50.6321 12.9636L48.5176 10.8487L50.2232 9.14312L52.3374 11.258L50.6321 12.9636ZM52.3374 23.2638L50.2232 25.3796L48.5176 23.674L50.6321 21.5582L52.3374 23.2638ZM45.5157 21.5585L47.6299 23.6743L45.9246 25.4478L43.8104 23.3332L45.5157 21.5585ZM45.3112 17.466C45.4478 17.3297 45.4478 17.1934 45.3112 17.057L43.8107 15.5559L45.516 13.8503L47.6302 15.9652L46.5397 17.057C46.4027 17.1934 46.4027 17.3297 46.5397 17.466L47.6302 18.5578L45.516 20.673L43.8107 18.9674L45.3112 17.466ZM47.2213 17.2615L48.1073 16.3748L48.9947 17.2615L48.1073 18.1476L47.2213 17.2615ZM48.1073 18.9674L50.2229 21.0807L48.1073 23.1959L45.9934 21.0807L48.1073 18.9674ZM50.8366 17.057C50.7003 17.1934 50.7003 17.3297 50.8366 17.466L52.3371 18.9674L50.6318 20.673L48.5173 18.5578L49.6088 17.466C49.7451 17.3297 49.7451 17.1934 49.6088 17.057L48.5173 15.9652L50.6318 13.8503L52.4059 15.5559L50.8366 17.057ZM45.9931 13.3729L48.107 11.2583L50.2225 13.3729L48.107 15.4878L45.9931 13.3729ZM51.5182 17.2615L52.8149 15.9655L54.1118 17.2615L52.8149 18.5578L51.5182 17.2615ZM44.6971 17.2615L43.4011 18.5578L42.1048 17.2615L43.4011 15.9655L44.6971 17.2615ZM49.8126 25.7886L48.1073 27.4942L46.4027 25.7886L48.1073 24.083L49.8126 25.7886ZM54.5205 21.081L52.8149 22.7866L51.1096 21.081L52.8149 19.3754L54.5205 21.081ZM54.7246 17.466C54.8619 17.3297 54.8619 17.1934 54.7246 17.057L53.2241 15.5559L54.9294 13.8503L58.3406 17.2612L54.9294 20.6727L53.2241 18.9671L54.7246 17.466ZM46.3345 8.66632L48.0401 6.96104L49.7451 8.66632L48.0401 10.3719L46.3345 8.66632ZM55.3397 21.081L58.9547 17.466C59.091 17.3297 59.091 17.1934 58.9547 17.057L55.3397 13.4417L61.4104 7.36968C65.7755 13.2366 65.7755 21.3546 61.4104 27.2206L55.3397 21.081ZM37.1249 17.057C36.9886 17.1934 36.9886 17.3297 37.1249 17.466L40.7406 21.081L34.6696 27.153C30.3032 21.2858 30.3032 13.1684 34.6696 7.30152L40.7406 13.3729L37.1249 17.057ZM42.9921 23.2638L36.852 29.4033C36.2382 28.8583 35.6929 28.2442 35.147 27.6302L41.2869 21.4903L42.9921 23.2638ZM45.9253 26.266L47.6302 27.9719L42.6504 32.9521C41.8321 32.6785 41.0129 32.3374 40.2629 31.9281L45.9253 26.266ZM54.9291 12.9636L53.2238 11.258L59.3637 5.11848C59.9784 5.6644 60.524 6.27848 61.0689 6.89192L54.9291 12.9636ZM48.5173 6.55112L53.4965 1.57128C54.3157 1.84424 55.1349 2.18504 55.8849 2.59496L50.2232 8.25672L48.5173 6.55112ZM43.2648 1.29832C46.4027 0.343757 49.7451 0.343757 52.8149 1.29832L48.0401 6.07336L43.2648 1.29832Z" fill="#121619"/>
<path d="M5.26768 49.4026H5.13104C3.42576 48.9251 2.67568 48.5827 2.67568 47.2874C2.67568 46.1955 3.35696 45.5143 4.51728 45.5143C4.51728 45.5143 6.90448 45.5143 7.58704 47.4922V47.56H8.33744V44.6266H7.58704L7.3144 45.7191C6.63152 45.0368 5.6088 44.6266 4.65392 44.6266C2.67568 44.6266 1.31152 45.8544 1.31152 47.6288C1.31152 49.6071 3.01584 50.2211 4.85872 50.6986C6.70064 51.176 7.51888 51.5165 7.51888 52.8816C7.51888 54.1098 6.56368 54.6547 5.60912 54.6547C4.17616 54.7245 2.81232 53.9722 2.06192 52.7443V52.6765H1.31152V55.6778H2.06192L2.40208 54.3821C3.22128 55.1997 4.38128 55.6778 5.54096 55.6778C7.5192 55.6778 8.95184 54.3143 8.95184 52.4714C8.88272 50.3568 7.24592 49.9482 5.26768 49.4026Z" fill="#121619"/>
<path d="M10.4517 46.8782H11.2021V46.6734C11.4072 45.4453 11.4757 45.4453 12.3624 45.4453H14.2718V54.724H13.2491V55.6097H16.8642V54.724H15.8411V45.4453H17.683C18.5698 45.4453 18.6386 45.4453 18.8437 46.6043V46.8097H19.5938V44.4913H10.3842V46.8782H10.4517Z" fill="#121619"/>
<path d="M27.5736 46.8782H28.324V46.6734C28.5288 45.4453 28.5973 45.4453 29.4843 45.4453H31.3947V54.724H30.3723V55.6097H33.9867V54.724H32.9634V45.4453H34.8063C35.6927 45.4453 35.7615 45.4453 35.9656 46.6043V46.8097H36.7157V44.4913H27.5061V46.8782H27.5736Z" fill="#121619"/>
<path d="M21.7764 45.4452H22.7991V54.7239H21.7764V55.6097H25.3917V54.7239H24.3684V45.4452H25.3917V44.5585H21.7764V45.4452Z" fill="#121619"/>
<path d="M56.3624 45.4452H57.453V49.9482H52.269V45.4452H53.2239V44.5585H49.6075V45.4452H50.6997V54.7239H49.6763V55.6097H53.2914V54.7239H52.269V50.8353H57.453V54.7239H56.3624V55.6097H59.9775V54.7239H59.0223V45.4452H59.9775V44.5585H56.3624V45.4452Z" fill="#121619"/>
<path d="M78.8732 45.4452H79.8975V54.7239H78.8732V55.6097H82.4882V54.7239H81.4652V45.4452H82.4882V44.5585H78.8732V45.4452Z" fill="#121619"/>
<path d="M94.7681 45.4452V44.5585H91.1531V45.4452H92.0385L89.6516 48.7879L87.4001 45.4452H88.2872V44.5585H84.6715V45.4452H85.6945L88.8331 50.153L85.6945 54.7239H84.6036V55.6097H88.22V54.7239H87.06L89.4475 51.1082L91.9032 54.7239H90.9483V55.6097H94.5633V54.7239H93.6088L90.3332 49.8103L93.3355 45.4452H94.7681Z" fill="#121619"/>
<path d="M68.5039 45.4452H69.5967V54.7239H68.5039V55.6097H72.1199V54.7239H71.1651V50.8353H72.8706C73.4844 50.8353 73.5532 50.9031 73.7577 51.5159V51.586V51.6538H74.5084V48.8564H73.7577V48.9252L73.6892 49.0606C73.4841 49.6068 73.4156 49.8106 72.8025 49.8106H71.0972V45.3095H74.8486C75.5986 45.3095 75.7356 45.5146 76.1449 46.5377V46.6049H76.9641V44.354H68.3689L68.5039 45.4452Z" fill="#121619"/>
<path d="M46.3346 51.2433C45.9931 53.3585 44.8341 54.5863 43.06 54.5863C40.9451 54.5863 39.6488 52.8132 39.6488 49.9479C39.6488 47.2193 40.9451 45.4452 42.9237 45.4452C44.8341 45.4452 45.8568 46.6734 46.3346 47.6967V47.7646H47.0846V44.4913H46.2654L45.9928 45.6503C45.1739 44.8314 44.1509 44.4222 42.9905 44.4913C40.1259 44.4913 38.0114 46.8782 38.0114 50.0154C38.0114 51.6538 38.4888 53.0186 39.4446 54.0417C40.3301 54.9969 41.6264 55.6097 42.9234 55.5422C45.4466 55.5422 47.0158 53.9719 47.3569 51.1754V51.0401H46.4014L46.3346 51.2433Z" fill="#121619"/>
</g>
<defs>
<clipPath id="clip0">
<rect width="94.4" height="56" fill="white" transform="translate(0.839966 0.130005)"/>
</clipPath>
</defs>
</svg>
