<svg width="123" height="58" viewBox="0 0 123 58" fill="none" xmlns="http://www.w3.org/2000/svg">
<g clip-path="url(#clip0_1162_34766)">
<path d="M25.1096 31.2695C24.4138 31.4186 23.6743 31.8436 23.6743 31.8436H23.6738V32.4492C24.0092 32.55 24.3792 32.9215 24.6149 33.2233L25.1467 33.0885L24.9187 32.7195C24.9187 32.7195 25.249 32.5698 25.6587 32.5495C26.1193 32.5286 26.5458 32.6182 26.7707 32.8182L27.9281 32.5444L28.0823 32.3006C27.2751 31.667 26.1366 31.0496 25.1101 31.2695H25.1096Z" fill="#262626"/>
<path d="M31.5831 28.4445C31.2803 28.1396 29.2949 26.9304 28.7544 26.6602L28.1172 28.3086C28.5523 28.4445 30.0008 29.1514 30.7418 29.6278L31.5831 28.4445Z" fill="#262626"/>
<path d="M43.2441 24.1096C43.1047 23.9259 42.7606 24.077 42.7606 24.077L37.2579 26.1174C36.8462 25.101 36.352 24.1203 35.7795 23.1854L37.5613 18.3229C37.5613 18.3229 37.7837 17.8399 37.577 17.7198C37.3724 17.5982 37.0376 17.9214 37.0376 17.9214L33.8007 20.576C32.5385 19.2243 31.057 18.1336 29.3546 17.3615C28.7113 17.0765 28.0481 16.8378 27.3702 16.648L26.3655 12.8009C26.3655 12.8009 26.279 12.4151 26.021 12.4151C25.763 12.4151 25.6932 12.7795 25.6932 12.7795L25.0494 16.1782C24.3267 16.0856 23.5984 16.0388 22.8696 16.0383C20.4552 16.0383 18.3105 16.4963 16.4335 17.3386C15.6386 17.6944 14.8797 18.126 14.1667 18.6268C14.0491 18.7092 13.9377 18.7993 13.8227 18.8848C13.1549 17.1651 12.6292 15.7619 12.5305 15.34C12.9015 15.0036 13.6807 13.7771 13.871 12.949C14.1352 11.7912 14.0542 11.2435 13.7753 10.3677C13.5738 9.7269 13.1687 9.12787 13.1951 8.72326C13.2155 8.42095 13.3763 8.20465 13.5127 8.06571C13.4389 7.64074 13.1621 7.45549 12.8333 7.41274C12.5305 7.37202 12.2943 7.46109 12.0246 7.4733C11.9569 7.34861 11.8215 7.37202 11.9233 6.93382C12.0775 6.26965 13.3509 5.95818 14.3942 5.55408C15.7144 5.04209 16.4513 4.09087 16.4961 2.56456C16.5277 1.45456 15.9093 0.633124 15.1342 0.263123C14.9785 0.710992 14.3352 1.31358 13.8878 1.55889C13.4476 1.80216 12.8368 1.89479 12.3951 1.79198C12.4918 0.975641 12.1152 0.280427 11.5192 0C11.3283 0.348116 10.6112 0.827539 9.5338 0.794458C8.45637 0.75985 8.38665 0.50487 6.87254 0.50996C4.71717 0.514031 2.93231 1.81387 2.71245 3.7224C2.57147 4.96218 3.04784 6.00246 3.40715 6.54143C3.13843 6.74297 2.50887 7.34963 2.39639 7.53132C2.24066 7.34963 1.81315 7.10788 1.29759 7.44429C1.40905 7.71556 1.42991 8.04484 1.34237 8.3609C1.25331 8.67339 0.466993 10.2012 0.377419 11.4344C0.224736 13.5216 1.43042 14.9349 2.44169 15.3385C2.21826 15.6754 2.17195 16.0337 2.32972 16.3274C2.43355 16.5213 2.64272 16.7091 3.07074 16.7091C2.82391 16.9783 2.73026 17.3849 2.89058 17.7855C3.07074 18.2339 3.58528 18.8858 4.03519 18.8858C4.01279 19.267 4.19245 20.1633 4.28253 20.5236C4.12578 20.8157 3.9675 21.0361 3.99091 21.5746C4.0133 22.1359 4.37262 22.5889 4.82049 22.6784C4.93296 22.9487 5.01796 23.2444 5.17369 23.424C5.33096 23.6042 5.47092 23.8225 5.80885 24.0465C6.14475 24.2709 6.52646 24.4516 6.97637 24.4516C7.42627 24.4516 7.82019 24.4735 8.02224 24.4063C8.03191 24.5351 8.07365 25.7224 8.12607 27.0416C6.99774 30.1828 6.43434 33.8253 6.43434 37.7319V37.734C6.43485 44.7365 8.43194 50.9746 12.2444 54.9952C12.2444 54.9952 12.4638 55.2655 13.076 55.6614C13.076 55.6614 14.2695 53.6221 16.0844 51.3023C16.5643 50.6972 17.088 50.1272 17.6509 49.5979C18.4881 48.8681 19.3564 48.1744 20.2526 47.5189C22.5989 45.9208 25.3141 44.7029 27.8232 44.1853C24.9456 45.6684 23.3144 46.4633 20.6089 48.7831C18.8968 50.2519 16.1679 52.8434 14.3026 56.3943C14.6909 56.7022 15.2136 57.0183 15.8299 57.0809C16.2244 56.6177 18.2525 52.8984 21.3667 49.9084C27.6664 44.0097 35.0868 42.6458 38.9715 42.7201C39.1899 41.121 39.3024 39.4532 39.3024 37.7319C39.3024 34.9119 39.0087 32.2333 38.4219 29.7792L43.0604 24.617C43.0604 24.617 43.381 24.2954 43.2436 24.1101L43.2441 24.1096ZM30.5129 25.245L36.4915 19.3306L32.9243 26.9357C32.5874 26.666 31.1786 25.4822 30.5124 25.2455L30.5129 25.245ZM26.1304 14.4219L27.8328 24.0607C27.2954 23.791 25.6184 23.6378 24.8779 23.7711L26.1304 14.4219ZM16.3959 19.3688L22.3047 24.7295C21.7342 25.0501 20.8781 25.9133 20.6435 26.6187L16.3959 19.3688ZM19.5406 31.7799L17.7268 30.5294C17.7492 30.1044 17.6377 29.4117 17.6092 29.0499C17.6061 29.0102 17.5934 28.9466 17.5832 28.8926L19.8536 29.9868C19.6521 30.3019 19.5793 30.4907 19.5121 30.8714C19.4439 31.2546 19.4943 31.4663 19.5406 31.7804V31.7799ZM4.38636 4.14024C4.44031 3.19768 5.19863 2.03322 6.83743 1.9467C7.58404 1.90548 8.54696 2.10651 9.04064 2.10651C9.53431 2.10651 10.798 1.98436 11.0896 1.7589C11.2474 2.11822 11.1843 2.49178 10.9929 2.82005C11.3746 3.02159 12.4521 3.22007 12.902 3.19819C13.7982 3.1534 14.7189 2.66126 15.0512 2.19507C15.1897 2.68416 15.0904 3.41093 14.6522 3.80383C13.7763 4.58913 11.7111 5.01511 11.1054 5.46502C10.6046 5.83553 10.4107 6.04826 10.2758 6.36126C10.0738 6.16023 9.95928 5.99432 9.62897 6.02892C9.24269 6.07015 9.04115 6.45185 8.65944 6.42793C8.16526 6.39994 7.78355 5.57597 7.2003 5.55306C6.30405 5.51744 5.94525 6.24777 5.56303 6.27169C5.29431 6.28696 4.93144 5.89304 4.77824 5.68895C4.508 5.32964 4.35328 4.72196 4.38687 4.13973L4.38636 4.14024ZM2.0839 12.3322C1.94852 11.951 1.77548 11.7118 1.81365 11.1926C1.85946 10.6048 2.24422 10.1106 2.42388 9.63885C2.56587 9.26732 2.48699 8.62911 2.33023 8.47184C2.53279 8.42706 2.94249 8.67797 3.22851 8.60519C3.58681 8.51561 3.69521 8.39601 3.82958 8.10235C3.96445 7.81124 4.14919 7.57305 4.45456 7.55168C4.73142 7.53081 5.29737 7.81226 5.76458 7.70792C6.37022 7.57254 6.61654 6.96792 7.11276 6.96792C7.60898 6.96792 8.00901 7.61682 8.47978 7.68502C8.95208 7.75169 9.69107 7.18931 10.1634 7.37049C10.6357 7.55066 10.3863 8.27081 10.7466 8.55938C11.0835 8.82861 11.8688 8.51409 12.0928 8.46981C12.0256 8.78433 11.9355 9.00776 11.9579 9.34468C11.9818 9.6816 12.5238 10.6924 12.5411 11.0496C12.5635 11.4985 12.5875 11.8792 12.4078 12.2843C12.362 10.9377 10.7614 9.29989 7.21455 9.2322C4.11764 9.17317 1.99382 10.4216 2.08441 12.3311L2.0839 12.3322ZM4.75432 13.0711C4.66526 12.4874 4.73295 12.0919 5.14417 11.7423C5.59357 11.3621 6.31525 11.1514 7.03337 11.1514C8.10978 11.1514 8.8106 11.4374 9.20961 11.7616C9.68903 12.1505 9.77097 12.6055 9.72618 13.121C9.3684 12.7846 8.64519 12.1505 7.11887 12.1469C5.86178 12.1418 4.88767 12.6452 4.75382 13.0711H4.75432ZM5.15944 17.0887C5.00065 17.2017 4.679 17.6888 4.61437 17.9804C4.32834 17.8074 4.03722 17.1753 3.96445 16.9035C4.21586 16.4826 4.73244 16.078 4.97826 16.0327C4.68613 16.0108 4.21535 16.0327 3.81176 16.1014C3.67689 15.8327 3.63211 15.3588 3.69929 15.052L4.14919 15.0703L3.90083 14.4626C4.21485 14.1934 5.40424 13.5877 6.07859 13.5664C6.14017 13.8738 6.14526 14.1267 6.12389 14.2387C6.10099 14.3511 6.05518 14.486 5.92184 14.5517L5.33401 14.8524C5.69434 14.8341 6.05569 14.8387 6.41551 14.8662C6.61604 14.8881 6.70714 14.9329 6.70714 15.1359C6.70714 15.339 6.65319 15.5405 6.54173 15.6963C6.42722 15.8546 6.09488 15.8276 5.91675 15.849C6.00632 16.0505 6.03279 16.1462 6.03279 16.3457C6.03279 16.5452 5.96612 16.6399 5.78646 16.7304C5.6068 16.819 5.38338 16.9284 5.16046 17.0882L5.15944 17.0887ZM8.74749 21.7791C8.47877 21.6219 7.73775 21.261 7.1545 21.2855C6.54936 21.3094 6.03889 21.432 5.56151 21.7338C5.35997 21.5985 5.29686 21.3292 5.42664 21.0152C5.55489 20.7022 5.74167 20.6569 5.74167 20.6569L5.57067 17.7158C5.57067 17.7158 6.39719 17.1279 6.62011 17.0613C6.84404 16.9946 6.94583 16.819 6.94583 16.5951C7.31176 16.8439 7.85175 17.3946 8.14134 17.8074C8.41158 18.1891 8.56885 18.614 8.59124 19.0858C8.61364 19.5566 8.61822 20.1185 8.52304 20.7017C8.70779 20.8595 8.88185 20.9933 8.90475 21.2392C8.92714 21.488 8.83808 21.5761 8.74749 21.7786V21.7791ZM12.6969 39.2847C12.648 38.9259 11.2316 34.5454 10.4219 32.1107C10.1191 31.2012 9.90075 30.563 9.86971 30.508C9.84273 30.4591 9.79184 29.7858 9.73026 28.7873C9.53635 25.6517 9.23556 19.3062 9.21877 19.0181L9.80202 18.5901V18.4807C9.48342 18.4634 9.12614 18.3713 8.90119 18.2216C8.82586 18.1718 8.7653 18.1153 8.72611 18.0527L8.56834 14.711C8.56376 14.711 8.55918 14.7099 8.5546 14.7094C8.08433 14.6713 7.60491 14.543 7.32245 14.3781C7.25629 14.3394 7.20081 14.2992 7.15857 14.257C6.87916 13.9766 6.66133 13.6325 6.97586 13.0259C7.13516 13.1373 7.46241 13.2615 7.84768 13.3511C8.16627 13.4254 8.52457 13.4758 8.85945 13.4758C9.01621 13.4758 9.34753 13.8274 9.53329 13.9007C9.73636 13.9816 10.0702 14.1638 10.2484 14.2473C10.2585 14.2519 10.2687 14.2565 10.2779 14.2605C10.3043 14.2723 10.3293 14.2931 10.3522 14.3196C10.3934 14.3669 10.429 14.4331 10.4596 14.5038C10.5105 14.6219 10.5471 14.7512 10.5705 14.8209C10.5914 14.8845 11.8128 18.0593 13.103 21.403C14.5398 25.1249 16.0615 29.056 16.1093 29.1384C16.1139 29.1466 16.1195 29.1613 16.1251 29.1812C16.2315 29.5354 16.5155 31.6608 16.5348 31.8318C16.5587 32.0109 17.3664 33.895 17.5227 34.0757C16.8051 34.0543 15.6289 34.465 14.6639 35.4096C13.7209 36.3303 12.8872 38.3539 12.6974 39.2873C12.6974 39.2862 12.6969 39.2837 12.6964 39.2827C12.6964 39.2832 12.6964 39.2842 12.6964 39.2847H12.6969ZM16.7369 43.9268C16.5022 46.0826 15.9775 47.953 15.1887 49.289C14.6818 50.1491 13.2567 51.8927 12.758 52.5508C13.2979 51.4749 13.7148 48.8757 13.6796 46.8552C13.6573 45.5437 13.2593 42.6493 13.6064 40.7306C13.9799 38.6719 14.5652 37.5146 15.9429 36.2463C16.6453 35.5995 18.0845 34.7729 20.1376 35.3307L21.7993 38.4556C20.9102 38.2857 19.735 38.4383 18.9513 39.0409C17.4779 40.1728 16.9817 41.6991 16.7369 43.9268ZM16.8992 48.1764C17.3033 47.2664 17.8341 44.6744 17.9833 43.8067C18.1756 42.6941 18.3538 41.0691 19.6796 39.9764C20.331 39.4389 21.4013 39.3687 21.8268 39.4929L23.7068 43.3206C23.8748 43.7257 24.427 43.8687 24.7965 43.8469C23.0355 44.4189 18.5955 46.5264 16.8997 48.1764H16.8992ZM25.936 43.5176L25.2632 41.2075L26.8032 39.047C26.8032 39.047 25.2006 39.6267 24.7084 39.6695C24.6097 39.6766 23.8356 39.8308 23.6702 39.0725C23.6702 39.0725 23.5399 38.5671 23.5399 38.3635C23.5399 38.1706 23.7073 37.936 23.8753 37.9691C24.1807 38.0302 24.3471 37.9029 24.3471 37.9029L24.6698 37.4703C24.4005 37.4367 24.089 37.3573 23.9557 37.3573C23.8224 37.3573 23.5781 37.479 23.3434 37.5451C23.2081 37.4444 22.9989 37.2632 23.0666 37.0286H24.8504L24.8835 36.825C24.8835 36.825 23.9649 36.4133 23.6086 36.3975C23.2529 36.3817 23.0997 36.5904 23.0997 36.5904V36.2519L24.1094 35.4045L23.0666 34.9735L22.4945 35.0752L22.865 32.7194L22.6686 32.3142L21.6502 32.9214L21.6186 31.5839C21.6502 31.3376 22.1235 30.8668 22.5073 30.6464L22.4406 29.8372C22.035 30.082 21.5871 30.2266 21.3163 30.5976C21.0751 30.9314 20.7774 31.4384 20.8115 31.8771C20.5071 31.5844 20.444 31.1086 20.5071 30.7772C20.5982 30.3172 20.7774 29.9919 21.2481 29.5883C21.1133 29.2066 21.0807 28.5119 21.2156 27.8702C21.439 26.8085 22.662 24.7748 25.624 24.7575C27.3794 24.7478 29.5123 25.8369 30.9654 26.9424C32.8301 28.3547 33.9233 29.6581 34.0063 30.0942C34.0414 30.2805 34.1061 30.5426 34.0419 30.7029C33.8394 30.4306 32.3914 29.0514 32.3914 29.0514L31.4825 30.2021L33.1996 31.7106C32.7976 31.9473 32.3904 32.132 31.7181 32.047C30.9216 31.9473 29.1602 30.8363 29.1271 29.9624C28.4084 29.6565 26.7712 29.1639 25.4235 29.1868C24.5456 29.199 23.5715 29.4214 23.2691 29.5227C22.9653 29.623 22.7429 29.4357 22.5078 29.3344L22.4014 29.4005L23.0676 30.4306C23.2696 30.5319 23.6483 30.2958 24.1791 30.2021C25.0881 30.0382 26.3218 30.1736 27.2425 30.7029C27.8832 31.0699 29.665 32.5514 30.0355 32.9229C30.406 33.2919 30.9791 33.3917 31.2489 33.1565C31.5176 32.9229 31.9008 32.9275 31.8672 33.2298C31.8336 33.5337 31.6845 33.866 31.9894 33.9988C32.2693 34.1245 32.4265 33.866 32.6281 33.7301C32.8312 33.5932 33.0317 33.5617 33.2668 33.695C33.0989 34.0319 32.6617 34.5709 32.2907 34.8747C31.9207 35.177 31.3491 35.4473 30.9791 35.3124L30.744 35.8845L32.4265 39.755C32.8688 40.6456 32.9273 40.8843 33.2872 41.4818C29.9897 42.0218 26.9534 43.1018 25.9365 43.5196L25.936 43.5176ZM34.9046 41.1795C34.6053 40.6426 34.3605 40.2232 34.047 39.3901C34.047 39.3901 33.0525 37.5528 32.8617 37.1965C32.6942 36.8805 32.5863 36.4275 32.8887 35.9552C33.191 35.4844 33.9396 34.833 34.3768 34.5688L34.4847 36.8637C34.4847 36.8637 35.9856 39.7081 36.6426 41.1795C36.0268 41.1652 35.4436 41.1795 34.9046 41.1795ZM35.5464 30.935C35.5138 30.3619 34.8486 28.8137 34.445 28.4768L41.4262 25.3804L35.5459 30.935H35.5464Z" fill="#262626"/>
<path d="M22.7958 26.7959C22.4274 27.1649 21.6181 28.1695 21.921 29.1854C22.2579 28.8571 22.9327 28.3436 23.3674 28.1074L22.7953 26.7959H22.7958Z" fill="#262626"/>
<path d="M27.24 28.04L27.5413 26.2893C27.0038 26.0216 26.2302 25.8511 25.5228 25.8511C24.8154 25.8511 24.0428 26.0526 23.6377 26.3549L24.1767 27.9052C24.9177 27.7357 26.701 27.669 27.24 28.04Z" fill="#262626"/>
<path d="M52.5427 29.6684C52.5427 30.8385 53.0318 31.2044 54.7871 31.2044C56.5425 31.2044 57.3466 30.6685 58.4943 28.3014H58.908L58.4943 32.0106H47.5922V31.5958C49.2264 31.1815 49.3964 30.814 49.3964 29.2775V20.1548C49.3964 18.886 49.0804 18.5216 47.5922 18.1541V17.7393H54.3484V18.1541C52.9336 18.5211 52.5437 18.8132 52.5437 20.0576V29.6689H52.5432L52.5427 29.6684ZM63.4946 30.0328C63.4946 30.9596 63.9583 31.4731 64.9828 31.5953V32.0101H59.2012V31.5953C60.4445 31.3505 60.7387 31.009 60.7387 29.8389V24.9353C60.7387 23.813 60.4206 23.496 59.079 23.2272V22.8125L63.0809 22.472H63.4956V30.0328H63.4951H63.4946ZM62.1286 16.7398C63.002 16.7382 63.7114 17.4447 63.7135 18.318C63.7135 18.32 63.7135 18.3221 63.7135 18.3246C63.7135 19.2041 63.0066 19.9359 62.1286 19.9359C61.2507 19.9359 60.5183 19.2036 60.5183 18.3246C60.5183 17.4457 61.2492 16.7398 62.1286 16.7398ZM69.4951 24.7887C70.4218 23.9342 70.9089 23.6909 71.6408 23.6909C73.2735 23.6909 74.3717 25.2523 74.3717 27.4968C74.3717 30.4965 73.0068 31.7159 70.9593 31.7159C69.8595 31.7159 69.4946 31.2273 69.4946 30.1799V24.7892L69.4951 24.7887ZM69.4951 16.7398H69.0793L65.3487 17.008V17.4228C66.2027 17.5693 66.7391 18.0075 66.7391 18.7877V32.0085C68.1291 32.2757 69.4956 32.3724 71.2275 32.3724C75.7164 32.3724 77.4213 30.0308 77.4213 27.2011C77.4213 24.5174 75.5204 22.4455 73.0327 22.4455C71.7151 22.4455 70.5913 22.9819 69.4956 24.1296V16.7393H69.4951V16.7398ZM81.47 26.033C81.5433 24.2767 82.2985 23.1066 83.4218 23.1066C84.545 23.1066 85.372 24.3261 85.4697 26.033H81.47ZM88.4455 26.5934C88.1051 24.0583 86.2281 22.447 83.6162 22.447C80.7147 22.447 78.4942 24.6172 78.4942 27.4718C78.4942 30.3265 80.6399 32.3734 83.518 32.3734C85.7369 32.3734 87.6144 31.1545 88.4445 29.1783H88.0313C87.1518 30.5199 86.0795 31.1795 84.7379 31.1795C83.0304 31.1795 81.3234 29.6165 81.469 26.5929H88.4455V26.5934ZM97.2752 26.0081C96.469 25.2284 95.8349 24.8136 95.2007 24.8136C94.3722 24.8136 93.8592 25.1546 93.1527 26.1297V29.8862C93.1527 30.985 93.3711 31.3245 94.7121 31.5948V32.0095H88.8593V31.5948C90.0808 31.3011 90.3953 30.9352 90.3953 29.8862V25.0325C90.3953 23.8619 89.8848 23.325 88.7153 23.2278V22.813L92.7364 22.4486H93.1527V25.376H93.2006C94.1034 23.3743 95.1035 22.4486 96.2512 22.4486C96.8589 22.4486 97.4452 22.7178 97.8834 23.2283L97.2757 26.0086L97.2752 26.0081ZM112.809 22.812V23.2267C113.98 23.47 114.247 24.2024 113.419 26.1552L112.149 29.106L110.199 25.0828C109.636 23.9108 109.636 23.3743 110.686 23.2278V22.813H102.537V19.2529H102.073C100.78 20.9116 99.2677 22.3758 98.1216 23.0827V23.5464H99.7797V29.4496C99.7797 31.5464 101.171 32.3745 102.902 32.3745C104.268 32.3745 105.171 31.8864 105.853 30.7387L105.561 30.4715C105.122 30.9856 104.706 31.2044 104.221 31.2044C102.927 31.2044 102.538 30.327 102.538 28.8373V23.5464H105.004C106.345 23.5464 106.736 24.0344 107.322 25.2783L110.687 32.375C109.564 35.4001 108.59 36.6195 106.883 36.6195C106.516 36.6195 106.223 36.5951 105.638 36.4002L105.077 39.1805C105.42 39.2294 105.614 39.2294 105.857 39.2294C107.76 39.2294 108.81 38.4232 109.786 36.1803L114.419 25.5943C115.176 23.8868 115.468 23.5469 116.638 23.2283V22.8135H112.809L112.809 22.812ZM65.6088 48.5563C65.7793 49.7991 66.3905 50.506 67.7799 50.7732V51.188H60.7295V50.7732C62.291 50.3844 62.5597 49.4841 62.291 47.631L61.1209 39.4808H61.071L56.4376 51.188H55.9241L51.3385 39.4808H51.2907L50.0474 47.8717C49.8026 49.5309 50.1191 50.6516 51.7294 50.7727V51.1875H46.5596V50.7727C48.0956 50.7035 48.7531 49.822 49.0941 47.6305L50.5095 38.3113C49.9481 37.726 49.1679 37.3606 48.4366 37.3356V36.9208H53.582L57.3135 46.3363L61.094 36.9208H65.9253V37.3356C64.4606 37.6059 64.1191 38.3352 64.314 39.6533L65.6073 48.5557L65.6088 48.5563ZM68.8996 43.9956C68.8996 42.9706 68.5581 42.6052 67.4593 42.4098V41.995L71.2407 41.628H71.655V48.4092C71.655 49.508 72.3624 50.0195 73.3646 50.0195C74.2898 50.0195 74.8507 49.6301 75.6568 48.3603V43.7758C75.6568 43.0195 75.1672 42.5818 74.2165 42.4103V41.9955L77.9969 41.6285H78.4117V48.9471C78.4117 50.166 78.6565 50.4587 79.8775 50.7747V51.1895L75.6563 51.5554V49.3141H75.6075C74.584 50.8735 73.4363 51.5554 71.9482 51.5554C70.0473 51.5554 68.8996 50.5075 68.8996 48.7512V43.9956ZM81.9977 42.7258H80.3386V42.2627C81.4842 41.5558 82.9978 40.0915 84.2885 38.4334H84.7542V41.994H87.7773V42.7248H84.7542V48.0178C84.7542 49.5059 85.143 50.3839 86.4362 50.3839C86.9228 50.3839 87.3391 50.164 87.7773 49.6525L88.0699 49.9217C87.388 51.0684 86.4851 51.5539 85.1176 51.5539C83.3867 51.5539 81.9977 50.7269 81.9977 48.627V42.7258ZM89.5581 43.9956C89.5581 42.9706 89.2166 42.6052 88.1178 42.4098V41.995L91.8992 41.628H92.3155V48.4092C92.3155 49.508 93.0209 50.0195 94.02 50.0195C94.9483 50.0195 95.5091 49.6301 96.3133 48.3603V43.7758C96.3133 43.0195 95.8247 42.5818 94.8745 42.4103V41.9955L98.6549 41.6285H99.0697V48.9471C99.0697 50.166 99.3145 50.4587 100.533 50.7747V51.1895L96.3128 51.5554V49.3141H96.2649C95.2399 50.8735 94.0938 51.5554 92.6046 51.5554C90.7037 51.5554 89.5576 50.5075 89.5576 48.7512V43.9956H89.5586H89.5581ZM106.827 49.6057C106.191 50.2398 105.655 50.5564 105.094 50.5564C104.338 50.5564 103.825 49.8968 103.825 48.8983C103.825 47.6554 104.531 47.093 106.827 46.1169V49.6057ZM109.605 45.0669C109.605 42.5299 107.533 41.627 105.557 41.627C103.411 41.627 101.923 42.7747 101.435 44.7509H101.802C102.385 43.7254 103.312 43.2149 104.557 43.2149C106.216 43.2149 106.85 43.9956 106.85 45.6298C104.605 46.4579 100.948 46.6528 100.948 49.1415C100.948 50.4826 102.191 51.5544 103.705 51.5544C104.825 51.5544 105.679 51.2872 106.606 50.4572L106.827 50.2632C107.288 51.188 107.924 51.5539 109.044 51.5539C110.387 51.5539 111.192 50.9208 111.288 49.7752H110.899C110.8 50.3365 110.558 50.6271 110.167 50.6271C109.753 50.6271 109.605 50.2632 109.605 49.4092V45.0664L109.605 45.0669ZM113.192 38.4339C113.192 37.1412 112.776 36.6765 111.459 36.6043V36.1905L115.533 35.9202H115.948V48.9461C115.948 50.165 116.217 50.4577 117.58 50.7737V51.1885H111.459V50.7737C112.802 50.5564 113.192 50.1177 113.192 48.9461V38.4339H113.192ZM117.92 49.4383H118.637V51.303H118.923V49.4383H119.64V49.1843H117.92V49.4383ZM121.872 51.3025V50.0515C121.872 49.9889 121.876 49.7207 121.876 49.5222H121.872L121.275 51.3025H120.99L120.395 49.5258H120.389C120.389 49.7217 120.395 49.9894 120.395 50.052V51.303H120.118V49.1843H120.528L121.133 50.9753H121.138L121.741 49.1843H122.148V51.303H121.871L121.872 51.3025Z" fill="#262626"/>
</g>
<defs>
<clipPath id="clip0_1162_34766">
<rect width="121.783" height="57.0804" fill="white" transform="translate(0.364258)"/>
</clipPath>
</defs>
</svg>
