<svg width="48" height="48" viewBox="0 0 48 48" fill="none" xmlns="http://www.w3.org/2000/svg">
<path d="M34.28 0H13.72C6.14265 0 0 6.14265 0 13.72V34.28C0 41.8573 6.14265 48 13.72 48H34.28C41.8573 48 48 41.8573 48 34.28V13.72C48 6.14265 41.8573 0 34.28 0Z" fill="#4ADE80"/>
<path d="M36 31.9999L36 24.9999L30 21.5L30.0311 27.9192L24 31.3653L30.0311 35.5L36 31.9999Z" stroke="black" stroke-width="2" stroke-linejoin="round"/>
<path d="M12 32L12 25L18.0156 21.5L18.0156 27.9192L24 31.5L18.0156 35.5L12 32Z" stroke="black" stroke-width="2" stroke-linejoin="round"/>
<path d="M24 11L30 14.4981L30 21.5L24 18L18 21.5L18 14.4981L24 11Z" stroke="black" stroke-width="2" stroke-linejoin="round"/>
</svg>
