<svg width="10" height="10" viewBox="0 0 10 10" fill="none" xmlns="http://www.w3.org/2000/svg">
<g clip-path="url(#clip0_16_443)">
<path fill-rule="evenodd" clip-rule="evenodd" d="M4.74112 1.875L3.49112 0.625H0.625V9.375H9.375V1.875H4.74112ZM3.75 0L5 1.25H10V10H0V0H3.75Z" fill="#2563EB"/>
<path fill-rule="evenodd" clip-rule="evenodd" d="M6.49778 3.81472C5.67058 2.98752 4.32942 2.98752 3.50222 3.81472C2.67502 4.64192 2.67502 5.98308 3.50222 6.81028L5 8.30806L6.49778 6.81028C7.32498 5.98308 7.32498 4.64192 6.49778 3.81472ZM3.06028 3.37278C4.13156 2.3015 5.86844 2.3015 6.93972 3.37278C8.011 4.44406 8.011 6.18094 6.93972 7.25222L5 9.19194L3.06028 7.25222C1.989 6.18094 1.989 4.44406 3.06028 3.37278Z" fill="#2563EB"/>
</g>
<defs>
<clipPath id="clip0_16_443">
<rect width="10" height="10" fill="white"/>
</clipPath>
</defs>
</svg>
