<svg width="672" height="512" viewBox="0 0 672 512" fill="none" xmlns="http://www.w3.org/2000/svg">
<rect x="0.5" y="0.5" width="156" height="160" rx="13.5" fill="#F5F5F5"/>
<rect x="0.5" y="0.5" width="156" height="160" rx="13.5" stroke="#171717"/>
<rect x="25.2002" y="29.1125" width="46.7749" height="46.7749" rx="14.0325" fill="#4ADE80"/>
<path fill-rule="evenodd" clip-rule="evenodd" d="M45.767 59.9684L49.8781 44.6257L51.3994 45.0334L47.2884 60.376L45.767 59.9684ZM36.7754 52.4998L42.2879 46.9873L43.3983 48.0977L39.004 52.4998L43.3983 56.9019L42.2879 58.0123L36.7754 52.4998ZM60.4003 52.4998L54.8878 58.0123L53.7774 56.9019L58.1716 52.4998L53.7774 48.0977L54.8878 46.9873L60.4003 52.4998Z" fill="#171717"/>
<path d="M30.7682 117.079C27.8562 117.079 26.0802 115.047 26.0802 111.303C26.0802 107.559 27.8562 105.527 30.7682 105.527C32.7042 105.527 34.0002 106.391 34.7522 108.055L33.2322 108.887C32.8482 107.831 32.0642 107.143 30.7682 107.143C29.0562 107.143 28.0002 108.391 28.0002 110.455V112.151C28.0002 114.215 29.0562 115.463 30.7682 115.463C32.0962 115.463 32.9442 114.695 33.3442 113.607L34.8002 114.487C34.0482 116.103 32.7042 117.079 30.7682 117.079ZM39.8528 117.079C37.5328 117.079 36.0288 115.383 36.0288 112.727C36.0288 110.071 37.5328 108.375 39.8528 108.375C42.1728 108.375 43.6768 110.071 43.6768 112.727C43.6768 115.383 42.1728 117.079 39.8528 117.079ZM39.8528 115.639C41.0368 115.639 41.8368 114.903 41.8368 113.431V112.023C41.8368 110.551 41.0368 109.815 39.8528 109.815C38.6688 109.815 37.8688 110.551 37.8688 112.023V113.431C37.8688 114.903 38.6688 115.639 39.8528 115.639ZM50.8521 116.887V115.511H50.7721C50.4201 116.487 49.5401 117.079 48.4361 117.079C46.3401 117.079 45.1241 115.463 45.1241 112.727C45.1241 109.991 46.3401 108.375 48.4361 108.375C49.5401 108.375 50.4201 108.951 50.7721 109.943H50.8521V105.047H52.5961V116.887H50.8521ZM48.9641 115.575C50.0201 115.575 50.8521 114.999 50.8521 114.151V111.303C50.8521 110.455 50.0201 109.879 48.9641 109.879C47.7641 109.879 46.9641 110.727 46.9641 112.007V113.447C46.9641 114.727 47.7641 115.575 48.9641 115.575ZM55.9688 107.079C55.2488 107.079 54.9288 106.695 54.9288 106.167V105.895C54.9288 105.367 55.2488 104.983 55.9688 104.983C56.6888 104.983 56.9928 105.367 56.9928 105.895V106.167C56.9928 106.695 56.6888 107.079 55.9688 107.079ZM55.0888 116.887V108.567H56.8328V116.887H55.0888ZM61.0672 116.887H59.3232V108.567H61.0672V109.943H61.1472C61.4992 109.047 62.2032 108.375 63.4832 108.375C65.1792 108.375 66.1872 109.559 66.1872 111.607V116.887H64.4432V111.831C64.4432 110.535 63.9472 109.879 62.8752 109.879C61.9632 109.879 61.0672 110.343 61.0672 111.319V116.887ZM75.9004 117.671C75.9004 119.399 74.6684 120.279 71.6764 120.279C68.9564 120.279 67.9004 119.543 67.9004 118.279C67.9004 117.367 68.4444 116.871 69.3244 116.679V116.503C68.7164 116.311 68.3804 115.847 68.3804 115.223C68.3804 114.359 69.0524 113.943 69.8524 113.751V113.687C68.8764 113.223 68.3324 112.343 68.3324 111.223C68.3324 109.527 69.5324 108.375 71.6444 108.375C72.2044 108.375 72.7164 108.455 73.1484 108.631V108.407C73.1484 107.671 73.5004 107.223 74.2364 107.223H75.5164V108.631H73.8204V108.967C74.5724 109.463 74.9884 110.263 74.9884 111.223C74.9884 112.903 73.7724 114.039 71.6604 114.039C71.2604 114.039 70.8764 113.991 70.5724 113.911C70.1564 114.055 69.7724 114.327 69.7724 114.743C69.7724 115.191 70.2044 115.367 70.9404 115.367H72.9884C75.0364 115.367 75.9004 116.231 75.9004 117.671ZM74.2684 117.863C74.2684 117.287 73.8844 116.919 72.7484 116.919H69.9324C69.5484 117.143 69.3564 117.479 69.3564 117.879C69.3564 118.551 69.8524 119.015 71.1484 119.015H72.2364C73.5964 119.015 74.2684 118.631 74.2684 117.863ZM71.6604 112.775C72.6844 112.775 73.2764 112.311 73.2764 111.367V111.047C73.2764 110.103 72.6844 109.639 71.6604 109.639C70.6364 109.639 70.0444 110.103 70.0444 111.047V111.367C70.0444 112.311 70.6364 112.775 71.6604 112.775Z" fill="#171717"/>
<rect x="171.5" y="0.5" width="157" height="160" rx="13.5" fill="#F5F5F5"/>
<rect x="171.5" y="0.5" width="157" height="160" rx="13.5" stroke="#171717"/>
<rect x="196.2" y="29.1125" width="46.7749" height="46.7749" rx="14.0325" fill="#FB923C"/>
<path d="M228.432 58.4992L222.738 50.6688V43.0499H224.313V41.4749H214.863V43.0499H216.438V50.6688L210.743 58.4992C210.4 58.9713 210.194 59.5291 210.148 60.1111C210.102 60.693 210.217 61.2763 210.482 61.7965C210.747 62.3166 211.151 62.7534 211.649 63.0584C212.146 63.3635 212.719 63.5249 213.302 63.5249H225.873C226.457 63.5249 227.029 63.3635 227.527 63.0584C228.025 62.7534 228.428 62.3166 228.693 61.7965C228.958 61.2763 229.074 60.693 229.028 60.1111C228.982 59.5291 228.776 58.9713 228.432 58.4992ZM218.013 51.1809V43.0499H221.163V51.1809L223.268 54.0749H215.908L218.013 51.1809ZM225.873 61.9499H213.302C213.009 61.9498 212.722 61.8686 212.472 61.7153C212.222 61.5621 212.019 61.3427 211.886 61.0814C211.753 60.8201 211.695 60.5271 211.718 60.2348C211.741 59.9425 211.844 59.6623 212.016 59.4251L214.762 55.6499H224.413L227.159 59.4251C227.331 59.6623 227.435 59.9425 227.458 60.2348C227.481 60.5271 227.423 60.8201 227.289 61.0814C227.156 61.3427 226.954 61.5621 226.704 61.7153C226.454 61.8686 226.166 61.9498 225.873 61.9499Z" fill="#171717"/>
<path d="M201.768 117.079C198.856 117.079 197.08 115.047 197.08 111.303C197.08 107.559 198.856 105.527 201.768 105.527C203.704 105.527 205 106.391 205.752 108.055L204.232 108.887C203.848 107.831 203.064 107.143 201.768 107.143C200.056 107.143 199 108.391 199 110.455V112.151C199 114.215 200.056 115.463 201.768 115.463C203.096 115.463 203.944 114.695 204.344 113.607L205.8 114.487C205.048 116.103 203.704 117.079 201.768 117.079ZM207.589 116.887V105.047H209.333V109.943H209.413C209.765 109.047 210.469 108.375 211.749 108.375C213.445 108.375 214.453 109.559 214.453 111.607V116.887H212.709V111.815C212.709 110.535 212.213 109.879 211.141 109.879C210.229 109.879 209.333 110.343 209.333 111.303V116.887H207.589ZM220.134 117.079C217.766 117.079 216.31 115.383 216.31 112.727C216.31 110.071 217.766 108.375 220.134 108.375C222.582 108.375 223.83 110.215 223.83 112.519V113.175H218.118V113.447C218.118 114.727 218.902 115.639 220.31 115.639C221.334 115.639 222.022 115.159 222.502 114.391L223.526 115.399C222.902 116.407 221.686 117.079 220.134 117.079ZM220.134 109.735C218.934 109.735 218.118 110.631 218.118 111.911V112.023H221.99V111.863C221.99 110.583 221.286 109.735 220.134 109.735ZM227.505 116.887H225.761V108.567H227.505V109.943H227.585C227.921 109.079 228.545 108.375 229.809 108.375C230.929 108.375 231.873 108.919 232.273 110.071H232.321C232.625 109.143 233.489 108.375 234.833 108.375C236.481 108.375 237.457 109.559 237.457 111.607V116.887H235.713V111.815C235.713 110.535 235.233 109.879 234.177 109.879C233.297 109.879 232.481 110.343 232.481 111.303V116.887H230.737V111.815C230.737 110.519 230.241 109.879 229.217 109.879C228.353 109.879 227.505 110.343 227.505 111.303V116.887ZM240.75 107.079C240.03 107.079 239.71 106.695 239.71 106.167V105.895C239.71 105.367 240.03 104.983 240.75 104.983C241.47 104.983 241.774 105.367 241.774 105.895V106.167C241.774 106.695 241.47 107.079 240.75 107.079ZM239.87 116.887V108.567H241.614V116.887H239.87ZM246.744 117.079C245.176 117.079 244.152 116.487 243.368 115.511L244.488 114.487C245.096 115.223 245.848 115.671 246.84 115.671C247.848 115.671 248.36 115.255 248.36 114.551C248.36 114.023 248.04 113.623 247.176 113.511L246.408 113.415C244.712 113.207 243.672 112.471 243.672 110.935C243.672 109.319 244.936 108.375 246.76 108.375C248.264 108.375 249.112 108.871 249.864 109.703L248.792 110.727C248.36 110.215 247.656 109.783 246.76 109.783C245.8 109.783 245.352 110.199 245.352 110.823C245.352 111.463 245.752 111.751 246.632 111.895L247.4 111.991C249.224 112.263 250.04 113.063 250.04 114.407C250.04 116.007 248.744 117.079 246.744 117.079ZM255.725 116.887H254.205C253.005 116.887 252.365 116.215 252.365 115.079V109.991H251.069V108.567H251.773C252.349 108.567 252.541 108.327 252.541 107.751V106.295H254.109V108.567H255.853V109.991H254.109V115.463H255.725V116.887ZM259.489 116.887H257.745V108.567H259.489V110.167H259.569C259.809 109.319 260.529 108.567 261.857 108.567H262.321V110.247H261.633C260.257 110.247 259.489 110.711 259.489 111.575V116.887ZM267.451 113.463L269.115 108.567H270.795L267.291 118.535C266.891 119.655 266.395 120.087 265.099 120.087H264.091V118.663H265.499L265.979 117.255L262.955 108.567H264.699L266.363 113.463L266.843 115.271H266.923L267.451 113.463Z" fill="#171717"/>
<rect x="343.5" y="0.5" width="156" height="160" rx="13.5" fill="#F5F5F5"/>
<rect x="343.5" y="0.5" width="156" height="160" rx="13.5" stroke="#171717"/>
<rect x="368.2" y="29.1125" width="46.7749" height="46.7749" rx="14.0325" fill="#FBBF24"/>
<path d="M397.887 41.4749H385.287C384.869 41.4749 384.469 41.6408 384.173 41.9362C383.878 42.2315 383.712 42.6321 383.712 43.0499V46.1999C383.712 46.6176 383.878 47.0182 384.173 47.3135C384.469 47.6089 384.869 47.7749 385.287 47.7749V61.9499C385.287 62.3676 385.453 62.7682 385.748 63.0635C386.044 63.3589 386.444 63.5249 386.862 63.5249H396.312C396.73 63.5249 397.13 63.3589 397.426 63.0635C397.721 62.7682 397.887 62.3676 397.887 61.9499V47.7749C398.305 47.7749 398.705 47.6089 399.001 47.3135C399.296 47.0182 399.462 46.6176 399.462 46.1999V43.0499C399.462 42.6321 399.296 42.2315 399.001 41.9362C398.705 41.6408 398.305 41.4749 397.887 41.4749ZM386.862 50.9249H389.224V58.7999H386.862V50.9249ZM396.312 61.9499H386.862V60.3749H390.799V49.3499H386.862V47.7749H396.312V61.9499ZM385.287 46.1999V43.0499H397.887V46.1999H385.287Z" fill="#171717"/>
<path d="M369.576 116.887V105.719H371.72L374.712 111.399H374.808L377.8 105.719H379.848V116.887H378.12V108.343H378.04L377.16 110.151L374.712 114.615L372.264 110.151L371.384 108.343H371.304V116.887H369.576ZM385.743 117.079C383.375 117.079 381.919 115.383 381.919 112.727C381.919 110.071 383.375 108.375 385.743 108.375C388.191 108.375 389.439 110.215 389.439 112.519V113.175H383.727V113.447C383.727 114.727 384.511 115.639 385.919 115.639C386.943 115.639 387.631 115.159 388.111 114.391L389.135 115.399C388.511 116.407 387.295 117.079 385.743 117.079ZM385.743 109.735C384.543 109.735 383.727 110.631 383.727 111.911V112.023H387.599V111.863C387.599 110.583 386.895 109.735 385.743 109.735ZM396.602 116.887V115.511H396.522C396.17 116.487 395.29 117.079 394.186 117.079C392.09 117.079 390.874 115.463 390.874 112.727C390.874 109.991 392.09 108.375 394.186 108.375C395.29 108.375 396.17 108.951 396.522 109.943H396.602V105.047H398.346V116.887H396.602ZM394.714 115.575C395.77 115.575 396.602 114.999 396.602 114.151V111.303C396.602 110.455 395.77 109.879 394.714 109.879C393.514 109.879 392.714 110.727 392.714 112.007V113.447C392.714 114.727 393.514 115.575 394.714 115.575ZM401.719 107.079C400.999 107.079 400.679 106.695 400.679 106.167V105.895C400.679 105.367 400.999 104.983 401.719 104.983C402.439 104.983 402.743 105.367 402.743 105.895V106.167C402.743 106.695 402.439 107.079 401.719 107.079ZM400.839 116.887V108.567H402.583V116.887H400.839ZM408.289 117.079C405.889 117.079 404.513 115.383 404.513 112.727C404.513 110.071 405.889 108.375 408.289 108.375C409.953 108.375 411.009 109.191 411.505 110.423L410.065 111.095C409.825 110.327 409.233 109.831 408.289 109.831C407.009 109.831 406.353 110.711 406.353 111.991V113.479C406.353 114.759 407.009 115.639 408.289 115.639C409.297 115.639 409.889 115.095 410.241 114.263L411.569 114.967C411.025 116.327 409.889 117.079 408.289 117.079ZM414.109 107.079C413.389 107.079 413.069 106.695 413.069 106.167V105.895C413.069 105.367 413.389 104.983 414.109 104.983C414.829 104.983 415.133 105.367 415.133 105.895V106.167C415.133 106.695 414.829 107.079 414.109 107.079ZM413.229 116.887V108.567H414.973V116.887H413.229ZM419.208 116.887H417.464V108.567H419.208V109.943H419.288C419.64 109.047 420.344 108.375 421.624 108.375C423.32 108.375 424.328 109.559 424.328 111.607V116.887H422.584V111.831C422.584 110.535 422.088 109.879 421.016 109.879C420.104 109.879 419.208 110.343 419.208 111.319V116.887ZM430.009 117.079C427.641 117.079 426.185 115.383 426.185 112.727C426.185 110.071 427.641 108.375 430.009 108.375C432.457 108.375 433.705 110.215 433.705 112.519V113.175H427.993V113.447C427.993 114.727 428.777 115.639 430.185 115.639C431.209 115.639 431.897 115.159 432.377 114.391L433.401 115.399C432.777 116.407 431.561 117.079 430.009 117.079ZM430.009 109.735C428.809 109.735 427.993 110.631 427.993 111.911V112.023H431.865V111.863C431.865 110.583 431.161 109.735 430.009 109.735Z" fill="#171717"/>
<rect x="514.5" y="0.5" width="157" height="160" rx="13.5" fill="#F5F5F5"/>
<rect x="514.5" y="0.5" width="157" height="160" rx="13.5" stroke="#171717"/>
<rect x="539.2" y="29.0637" width="46.7749" height="46.7749" rx="14.0325" fill="#C084FC"/>
<path fill-rule="evenodd" clip-rule="evenodd" d="M554.713 58.7548H570.463C570.88 58.7543 571.28 58.5882 571.576 58.2929C571.871 57.9977 572.037 57.5974 572.038 57.1798V46.1548C572.037 45.7373 571.871 45.3369 571.576 45.0417C571.28 44.7464 570.88 44.5803 570.463 44.5798H554.713C554.295 44.5803 553.895 44.7463 553.599 45.0416C553.304 45.3369 553.138 45.7372 553.138 46.1548V57.1798C553.138 57.5974 553.304 57.9977 553.599 58.293C553.895 58.5883 554.295 58.7544 554.713 58.7548ZM554.713 57.1798V46.1548H570.463V57.1798H554.713ZM551.562 60.3298H573.613V61.9048H551.562V60.3298Z" fill="#171717"/>
<path d="M544.768 107.031C541.856 107.031 540.08 104.999 540.08 101.255C540.08 97.5106 541.856 95.4786 544.768 95.4786C546.704 95.4786 548 96.3426 548.752 98.0066L547.232 98.8386C546.848 97.7826 546.064 97.0946 544.768 97.0946C543.056 97.0946 542 98.3426 542 100.407V102.103C542 104.167 543.056 105.415 544.768 105.415C546.096 105.415 546.944 104.647 547.344 103.559L548.8 104.439C548.048 106.055 546.704 107.031 544.768 107.031ZM553.853 107.031C551.533 107.031 550.029 105.335 550.029 102.679C550.029 100.023 551.533 98.3266 553.853 98.3266C556.173 98.3266 557.677 100.023 557.677 102.679C557.677 105.335 556.173 107.031 553.853 107.031ZM553.853 105.591C555.037 105.591 555.837 104.855 555.837 103.383V101.975C555.837 100.503 555.037 99.7666 553.853 99.7666C552.669 99.7666 551.869 100.503 551.869 101.975V103.383C551.869 104.855 552.669 105.591 553.853 105.591ZM561.364 106.839H559.62V98.5186H561.364V99.8946H561.444C561.78 99.0306 562.404 98.3266 563.668 98.3266C564.788 98.3266 565.732 98.8706 566.132 100.023H566.18C566.484 99.0946 567.348 98.3266 568.692 98.3266C570.34 98.3266 571.316 99.5106 571.316 101.559V106.839H569.572V101.767C569.572 100.487 569.092 99.8306 568.036 99.8306C567.156 99.8306 566.34 100.295 566.34 101.255V106.839H564.596V101.767C564.596 100.471 564.1 99.8306 563.076 99.8306C562.212 99.8306 561.364 100.295 561.364 101.255V106.839ZM573.729 110.039V98.5186H575.473V99.8946H575.553C575.905 98.9026 576.785 98.3266 577.889 98.3266C579.985 98.3266 581.201 99.9426 581.201 102.679C581.201 105.415 579.985 107.031 577.889 107.031C576.785 107.031 575.905 106.439 575.553 105.463H575.473V110.039H573.729ZM577.361 105.527C578.561 105.527 579.361 104.679 579.361 103.399V101.959C579.361 100.679 578.561 99.8306 577.361 99.8306C576.305 99.8306 575.473 100.407 575.473 101.255V104.103C575.473 104.951 576.305 105.527 577.361 105.527ZM588.238 106.839V105.463H588.174C587.87 106.279 587.214 107.031 585.838 107.031C584.126 107.031 583.118 105.863 583.118 103.815V98.5186H584.862V103.591C584.862 104.855 585.39 105.527 586.462 105.527C587.358 105.527 588.238 105.063 588.238 104.087V98.5186H589.982V106.839H588.238ZM596.303 106.839H594.783C593.583 106.839 592.943 106.167 592.943 105.031V99.9426H591.647V98.5186H592.351C592.927 98.5186 593.119 98.2786 593.119 97.7026V96.2466H594.687V98.5186H596.431V99.9426H594.687V105.415H596.303V106.839ZM601.525 107.031C599.157 107.031 597.701 105.335 597.701 102.679C597.701 100.023 599.157 98.3266 601.525 98.3266C603.973 98.3266 605.221 100.167 605.221 102.471V103.127H599.509V103.399C599.509 104.679 600.293 105.591 601.701 105.591C602.725 105.591 603.413 105.111 603.893 104.343L604.917 105.351C604.293 106.359 603.077 107.031 601.525 107.031ZM601.525 99.6866C600.325 99.6866 599.509 100.583 599.509 101.863V101.975H603.381V101.815C603.381 100.535 602.677 99.6866 601.525 99.6866ZM608.895 106.839H607.151V98.5186H608.895V100.119H608.975C609.215 99.2706 609.935 98.5186 611.263 98.5186H611.727V100.199H611.039C609.663 100.199 608.895 100.663 608.895 101.527V106.839ZM543.92 127.031C542.048 127.031 540.768 126.295 539.84 125.143L541.088 123.975C541.872 124.935 542.8 125.431 544.016 125.431C545.44 125.431 546.176 124.727 546.176 123.655C546.176 122.791 545.728 122.295 544.432 122.039L543.44 121.863C541.28 121.463 540.176 120.455 540.176 118.679C540.176 116.695 541.712 115.479 544.08 115.479C545.76 115.479 546.992 116.087 547.856 117.191L546.592 118.311C546.016 117.559 545.216 117.079 543.984 117.079C542.704 117.079 541.968 117.607 541.968 118.583C541.968 119.511 542.544 119.911 543.744 120.151L544.736 120.359C546.96 120.791 547.968 121.783 547.968 123.559C547.968 125.639 546.48 127.031 543.92 127.031ZM553.227 127.031C550.827 127.031 549.451 125.335 549.451 122.679C549.451 120.023 550.827 118.327 553.227 118.327C554.891 118.327 555.947 119.143 556.443 120.375L555.003 121.047C554.763 120.279 554.171 119.783 553.227 119.783C551.947 119.783 551.291 120.663 551.291 121.943V123.431C551.291 124.711 551.947 125.591 553.227 125.591C554.235 125.591 554.827 125.047 555.179 124.215L556.507 124.919C555.963 126.279 554.827 127.031 553.227 127.031ZM559.047 117.031C558.327 117.031 558.007 116.647 558.007 116.119V115.847C558.007 115.319 558.327 114.935 559.047 114.935C559.767 114.935 560.071 115.319 560.071 115.847V116.119C560.071 116.647 559.767 117.031 559.047 117.031ZM558.167 126.839V118.519H559.911V126.839H558.167ZM565.665 127.031C563.297 127.031 561.841 125.335 561.841 122.679C561.841 120.023 563.297 118.327 565.665 118.327C568.113 118.327 569.361 120.167 569.361 122.471V123.127H563.649V123.399C563.649 124.679 564.433 125.591 565.841 125.591C566.865 125.591 567.553 125.111 568.033 124.343L569.057 125.351C568.433 126.359 567.217 127.031 565.665 127.031ZM565.665 119.687C564.465 119.687 563.649 120.583 563.649 121.863V121.975H567.521V121.815C567.521 120.535 566.817 119.687 565.665 119.687ZM573.036 126.839H571.292V118.519H573.036V119.895H573.116C573.468 118.999 574.172 118.327 575.452 118.327C577.148 118.327 578.156 119.511 578.156 121.559V126.839H576.412V121.783C576.412 120.487 575.916 119.831 574.844 119.831C573.932 119.831 573.036 120.295 573.036 121.271V126.839ZM583.789 127.031C581.389 127.031 580.013 125.335 580.013 122.679C580.013 120.023 581.389 118.327 583.789 118.327C585.453 118.327 586.509 119.143 587.005 120.375L585.565 121.047C585.325 120.279 584.733 119.783 583.789 119.783C582.509 119.783 581.853 120.663 581.853 121.943V123.431C581.853 124.711 582.509 125.591 583.789 125.591C584.797 125.591 585.389 125.047 585.741 124.215L587.069 124.919C586.525 126.279 585.389 127.031 583.789 127.031ZM591.9 127.031C589.532 127.031 588.076 125.335 588.076 122.679C588.076 120.023 589.532 118.327 591.9 118.327C594.348 118.327 595.596 120.167 595.596 122.471V123.127H589.884V123.399C589.884 124.679 590.668 125.591 592.076 125.591C593.1 125.591 593.788 125.111 594.268 124.343L595.292 125.351C594.668 126.359 593.452 127.031 591.9 127.031ZM591.9 119.687C590.7 119.687 589.884 120.583 589.884 121.863V121.975H593.756V121.815C593.756 120.535 593.052 119.687 591.9 119.687Z" fill="#171717"/>
<rect x="0.5" y="175.5" width="156" height="160" rx="13.5" fill="#F5F5F5"/>
<rect x="0.5" y="175.5" width="156" height="160" rx="13.5" stroke="#171717"/>
<rect x="25.2002" y="204.064" width="46.7749" height="46.7749" rx="14.0325" fill="#F87171"/>
<path fill-rule="evenodd" clip-rule="evenodd" d="M50.7319 221.572C51.5111 221.324 52.3203 221.182 53.1375 221.151C56.7536 221.151 58.0367 224.545 58.0367 227.451C58.0367 233.365 54.8321 236.9 51.7367 236.901C51.0608 236.865 50.3969 236.708 49.7768 236.437C49.3994 236.267 48.9978 236.159 48.5867 236.114C48.1764 236.159 47.7757 236.268 47.3992 236.437C46.7788 236.708 46.1145 236.865 45.4383 236.901H45.4371C42.3402 236.9 39.1367 233.365 39.1367 227.451C39.1367 223.565 40.9566 221.151 43.8867 221.151C44.7352 221.186 45.5759 221.328 46.3892 221.573C46.8304 221.686 47.2547 221.791 47.6627 221.86C47.476 221.204 47.0811 220.627 46.5375 220.215C45.994 219.803 45.3312 219.579 44.6492 219.576V218.001C45.7576 218.003 46.8301 218.394 47.6796 219.106C48.529 219.818 49.1014 220.806 49.2967 221.897C49.7816 221.819 50.261 221.711 50.7319 221.572ZM50.3267 234.961C50.7727 235.161 51.2495 235.285 51.7367 235.326C54.0584 235.325 56.4617 232.38 56.4617 227.451C56.4617 226.662 56.3014 222.726 53.1375 222.726C52.4603 222.76 51.7906 222.883 51.1453 223.092C50.3805 223.334 49.5875 223.475 48.7863 223.514H48.3987C47.5847 223.471 46.7786 223.332 45.9977 223.098C45.3117 222.889 44.6028 222.764 43.8867 222.726C41.0213 222.726 40.7117 226.031 40.7117 227.451C40.7117 232.379 43.1138 235.324 45.4367 235.326C45.9248 235.285 46.4024 235.161 46.8494 234.961C47.3988 234.718 47.9871 234.575 48.5867 234.539C49.1872 234.575 49.7765 234.718 50.3267 234.961ZM49.3742 220.364H50.1617C50.5793 220.363 50.9797 220.197 51.2749 219.902C51.5702 219.607 51.7363 219.206 51.7367 218.789V218.001H50.9492C50.5316 218.002 50.1313 218.168 49.836 218.463C49.5407 218.758 49.3747 219.159 49.3742 219.576V220.364Z" fill="#171717"/>
<path d="M33.7282 291.839H26.5762V280.671H33.7282V282.271H28.3842V285.375H33.2322V286.975H28.3842V290.239H33.7282V291.839ZM41.0083 291.839V290.463H40.9283C40.5763 291.439 39.6963 292.031 38.5923 292.031C36.4963 292.031 35.2803 290.415 35.2803 287.679C35.2803 284.943 36.4963 283.327 38.5923 283.327C39.6963 283.327 40.5763 283.903 40.9283 284.895H41.0083V279.999H42.7523V291.839H41.0083ZM39.1203 290.527C40.1763 290.527 41.0083 289.951 41.0083 289.103V286.255C41.0083 285.407 40.1763 284.831 39.1203 284.831C37.9203 284.831 37.1203 285.679 37.1203 286.959V288.399C37.1203 289.679 37.9203 290.527 39.1203 290.527ZM50.2851 291.839V290.463H50.2211C49.9171 291.279 49.2611 292.031 47.8851 292.031C46.1731 292.031 45.1651 290.863 45.1651 288.815V283.519H46.9091V288.591C46.9091 289.855 47.4371 290.527 48.5091 290.527C49.4051 290.527 50.2851 290.063 50.2851 289.087V283.519H52.0291V291.839H50.2851ZM57.7423 292.031C55.3423 292.031 53.9663 290.335 53.9663 287.679C53.9663 285.023 55.3423 283.327 57.7423 283.327C59.4063 283.327 60.4623 284.143 60.9583 285.375L59.5183 286.047C59.2783 285.279 58.6863 284.783 57.7423 284.783C56.4623 284.783 55.8063 285.663 55.8063 286.943V288.431C55.8063 289.711 56.4623 290.591 57.7423 290.591C58.7503 290.591 59.3423 290.047 59.6943 289.215L61.0223 289.919C60.4783 291.279 59.3423 292.031 57.7423 292.031ZM69.7546 291.839H68.7786C67.8666 291.839 67.3866 291.263 67.2746 290.447H67.1946C66.8746 291.487 65.9786 292.031 64.7626 292.031C63.0506 292.031 62.0746 291.055 62.0746 289.551C62.0746 287.903 63.3066 287.055 65.6266 287.055H67.1306V286.351C67.1306 285.343 66.5866 284.751 65.4186 284.751C64.4426 284.751 63.8506 285.231 63.4346 285.887L62.3946 284.943C62.9386 284.015 63.9146 283.327 65.5306 283.327C67.6746 283.327 68.8746 284.383 68.8746 286.239V290.415H69.7546V291.839ZM65.2586 290.703C66.3306 290.703 67.1306 290.191 67.1306 289.375V288.175H65.6586C64.4426 288.175 63.8506 288.575 63.8506 289.295V289.583C63.8506 290.319 64.3946 290.703 65.2586 290.703ZM75.2409 291.839H73.7209C72.5209 291.839 71.8809 291.167 71.8809 290.031V284.943H70.5849V283.519H71.2889C71.8649 283.519 72.0569 283.279 72.0569 282.703V281.247H73.6249V283.519H75.3689V284.943H73.6249V290.415H75.2409V291.839ZM78.1407 282.031C77.4207 282.031 77.1007 281.647 77.1007 281.119V280.847C77.1007 280.319 77.4207 279.935 78.1407 279.935C78.8607 279.935 79.1647 280.319 79.1647 280.847V281.119C79.1647 281.647 78.8607 282.031 78.1407 282.031ZM77.2607 291.839V283.519H79.0047V291.839H77.2607ZM84.7591 292.031C82.4391 292.031 80.9351 290.335 80.9351 287.679C80.9351 285.023 82.4391 283.327 84.7591 283.327C87.0791 283.327 88.5831 285.023 88.5831 287.679C88.5831 290.335 87.0791 292.031 84.7591 292.031ZM84.7591 290.591C85.9431 290.591 86.7431 289.855 86.7431 288.383V286.975C86.7431 285.503 85.9431 284.767 84.7591 284.767C83.5751 284.767 82.7751 285.503 82.7751 286.975V288.383C82.7751 289.855 83.5751 290.591 84.7591 290.591ZM92.2703 291.839H90.5263V283.519H92.2703V284.895H92.3503C92.7023 283.999 93.4063 283.327 94.6863 283.327C96.3823 283.327 97.3903 284.511 97.3903 286.559V291.839H95.6463V286.783C95.6463 285.487 95.1503 284.831 94.0783 284.831C93.1663 284.831 92.2703 285.295 92.2703 286.271V291.839Z" fill="#171717"/>
<rect x="171.5" y="175.5" width="157" height="160" rx="13.5" fill="#F5F5F5"/>
<rect x="171.5" y="175.5" width="157" height="160" rx="13.5" stroke="#171717"/>
<rect x="196.2" y="204.064" width="46.7749" height="46.7749" rx="14.0325" fill="#C084FC"/>
<path d="M222.738 227.451C222.738 228.495 223.152 229.497 223.891 230.235C224.629 230.974 225.631 231.389 226.675 231.389C227.719 231.389 228.721 230.974 229.459 230.235C230.198 229.497 230.613 228.495 230.613 227.451C230.613 227.329 230.584 227.208 230.529 227.099L227.381 220.802C227.37 220.78 227.358 220.758 227.345 220.737C227.274 220.623 227.176 220.529 227.059 220.463C226.941 220.398 226.809 220.364 226.675 220.364H221.81C221.691 220.034 221.5 219.735 221.252 219.488C221.004 219.241 220.705 219.051 220.375 218.934V216.426H218.8V218.934C218.47 219.051 218.171 219.241 217.923 219.488C217.675 219.735 217.484 220.034 217.365 220.364H212.5C212.354 220.364 212.21 220.404 212.086 220.481C211.962 220.558 211.861 220.668 211.796 220.799L208.646 227.099C208.591 227.208 208.562 227.329 208.563 227.451C208.563 228.495 208.977 229.497 209.716 230.235C210.454 230.974 211.456 231.389 212.5 231.389C213.544 231.389 214.546 230.974 215.284 230.235C216.023 229.497 216.438 228.495 216.438 227.451C216.438 227.329 216.409 227.208 216.354 227.099L213.774 221.939H217.365C217.484 222.268 217.675 222.567 217.923 222.814C218.171 223.061 218.47 223.25 218.8 223.368V236.901H211.713V238.476H227.463V236.901H220.375V223.369C220.705 223.251 221.004 223.061 221.252 222.814C221.5 222.567 221.691 222.268 221.81 221.939H225.401L222.821 227.099C222.766 227.208 222.737 227.329 222.738 227.451ZM212.5 229.814C212.013 229.812 211.539 229.66 211.142 229.378C210.745 229.096 210.445 228.698 210.283 228.239H214.717C214.555 228.698 214.255 229.096 213.858 229.378C213.461 229.66 212.987 229.812 212.5 229.814ZM214.376 226.664H210.624L212.5 222.912L214.376 226.664ZM219.588 221.939C219.432 221.939 219.279 221.892 219.15 221.806C219.02 221.719 218.92 221.596 218.86 221.452C218.8 221.308 218.785 221.15 218.815 220.997C218.846 220.845 218.921 220.704 219.031 220.594C219.141 220.484 219.281 220.409 219.434 220.379C219.587 220.348 219.745 220.364 219.889 220.423C220.033 220.483 220.156 220.584 220.242 220.714C220.329 220.843 220.375 220.995 220.375 221.151C220.375 221.36 220.292 221.56 220.144 221.708C219.996 221.855 219.796 221.938 219.588 221.939ZM226.675 229.814C226.188 229.812 225.714 229.66 225.317 229.378C224.92 229.096 224.62 228.698 224.458 228.239H228.892C228.73 228.698 228.43 229.096 228.033 229.378C227.636 229.66 227.162 229.812 226.675 229.814ZM226.675 222.912L228.551 226.664H224.799L226.675 222.912Z" fill="#171717"/>
<path d="M203.928 291.839H197.576V280.671H199.384V290.239H203.928V291.839ZM212.739 291.839H211.763C210.851 291.839 210.371 291.263 210.259 290.447H210.179C209.859 291.487 208.963 292.031 207.747 292.031C206.035 292.031 205.059 291.055 205.059 289.551C205.059 287.903 206.291 287.055 208.611 287.055H210.115V286.351C210.115 285.343 209.571 284.751 208.403 284.751C207.427 284.751 206.835 285.231 206.419 285.887L205.379 284.943C205.923 284.015 206.899 283.327 208.515 283.327C210.659 283.327 211.859 284.383 211.859 286.239V290.415H212.739V291.839ZM208.243 290.703C209.315 290.703 210.115 290.191 210.115 289.375V288.175H208.643C207.427 288.175 206.835 288.575 206.835 289.295V289.583C206.835 290.319 207.379 290.703 208.243 290.703ZM215.826 291.839L213.554 283.519H215.25L216.098 287.007L216.85 290.159H216.898L217.762 287.007L218.77 283.519H220.338L221.362 287.007L222.242 290.159H222.29L223.026 287.007L223.89 283.519H225.506L223.266 291.839H221.298L220.21 288.047L219.538 285.711H219.506L218.85 288.047L217.746 291.839H215.826Z" fill="#171717"/>
<rect x="343.5" y="175.5" width="156" height="159" rx="13.5" fill="#F5F5F5"/>
<rect x="343.5" y="175.5" width="156" height="159" rx="13.5" stroke="#171717"/>
<rect x="368.2" y="203.613" width="46.7749" height="46.7749" rx="14.0325" fill="#7DD3FC"/>
<path fill-rule="evenodd" clip-rule="evenodd" d="M390.012 220.7H386.862V217.55H385.287V220.7H382.137V222.275H385.287V225.425H386.862V222.275H390.012V220.7ZM390.012 229.363H382.137V230.938H390.012V229.363ZM382.137 233.3H390.012V234.875H382.137V233.3ZM401.037 220.7H393.162V222.275H401.037V220.7ZM401.037 228.898L398.21 231.725L401.037 234.552L399.926 235.663L397.099 232.835L394.272 235.663L393.162 234.552L395.989 231.725L393.162 228.898L394.272 227.788L397.099 230.615L399.926 227.788L401.037 228.898Z" fill="#171717"/>
<path d="M369.576 291.387V280.219H371.72L374.712 285.899H374.808L377.8 280.219H379.848V291.387H378.12V282.843H378.04L377.16 284.651L374.712 289.115L372.264 284.651L371.384 282.843H371.304V291.387H369.576ZM389.551 291.387H388.575C387.663 291.387 387.183 290.811 387.071 289.995H386.991C386.671 291.035 385.775 291.579 384.559 291.579C382.847 291.579 381.871 290.603 381.871 289.099C381.871 287.451 383.103 286.603 385.423 286.603H386.927V285.899C386.927 284.891 386.383 284.299 385.215 284.299C384.239 284.299 383.647 284.779 383.231 285.435L382.191 284.491C382.735 283.563 383.711 282.875 385.327 282.875C387.471 282.875 388.671 283.931 388.671 285.787V289.963H389.551V291.387ZM385.055 290.251C386.127 290.251 386.927 289.739 386.927 288.923V287.723H385.455C384.239 287.723 383.647 288.123 383.647 288.843V289.131C383.647 289.867 384.191 290.251 385.055 290.251ZM395.038 291.387H393.518C392.318 291.387 391.678 290.715 391.678 289.579V284.491H390.382V283.067H391.086C391.662 283.067 391.854 282.827 391.854 282.251V280.795H393.422V283.067H395.166V284.491H393.422V289.963H395.038V291.387ZM397.058 291.387V279.547H398.802V284.443H398.882C399.234 283.547 399.938 282.875 401.218 282.875C402.914 282.875 403.922 284.059 403.922 286.107V291.387H402.178V286.315C402.178 285.035 401.682 284.379 400.61 284.379C399.698 284.379 398.802 284.843 398.802 285.803V291.387H397.058Z" fill="#171717"/>
<rect x="514.5" y="175.5" width="157" height="159" rx="13.5" fill="#F5F5F5"/>
<rect x="514.5" y="175.5" width="157" height="159" rx="13.5" stroke="#171717"/>
<rect x="539.2" y="203.613" width="46.7749" height="46.7749" rx="14.0325" fill="#4ADE80"/>
<path fill-rule="evenodd" clip-rule="evenodd" d="M564.163 218.337V219.912H561.643C561.124 222.139 560.063 224.203 558.556 225.921C559.695 227.083 561.07 227.988 562.588 228.575L562.028 230.024C560.324 229.339 558.78 228.31 557.492 227C556.181 228.292 554.637 229.324 552.941 230.04L552.35 228.575C553.859 227.936 555.237 227.023 556.413 225.882C555.349 224.584 554.547 223.091 554.051 221.487H555.705C556.106 222.683 556.717 223.797 557.508 224.779C558.722 223.381 559.584 221.712 560.02 219.912H551.562V218.337H557.075V215.975H558.65V218.337H564.163ZM573.613 237.237H571.919L570.659 234.087H565.265L564.005 237.237H562.312L567.037 225.425H568.888L573.613 237.237ZM567.958 227.346L565.895 232.512H570.029L567.958 227.346Z" fill="#171717"/>
<path d="M546.928 291.387H540.576V280.219H542.384V289.787H546.928V291.387ZM555.739 291.387H554.763C553.851 291.387 553.371 290.811 553.259 289.995H553.179C552.859 291.035 551.963 291.579 550.747 291.579C549.035 291.579 548.059 290.603 548.059 289.099C548.059 287.451 549.291 286.603 551.611 286.603H553.115V285.899C553.115 284.891 552.571 284.299 551.403 284.299C550.427 284.299 549.835 284.779 549.419 285.435L548.379 284.491C548.923 283.563 549.899 282.875 551.515 282.875C553.659 282.875 554.859 283.931 554.859 285.787V289.963H555.739V291.387ZM551.243 290.251C552.315 290.251 553.115 289.739 553.115 288.923V287.723H551.643C550.427 287.723 549.835 288.123 549.835 288.843V289.131C549.835 289.867 550.379 290.251 551.243 290.251ZM559.192 291.387H557.448V283.067H559.192V284.443H559.272C559.624 283.547 560.328 282.875 561.608 282.875C563.304 282.875 564.312 284.059 564.312 286.107V291.387H562.568V286.331C562.568 285.035 562.072 284.379 561 284.379C560.088 284.379 559.192 284.843 559.192 285.819V291.387ZM574.025 292.171C574.025 293.899 572.793 294.779 569.801 294.779C567.081 294.779 566.025 294.043 566.025 292.779C566.025 291.867 566.569 291.371 567.449 291.179V291.003C566.841 290.811 566.505 290.347 566.505 289.723C566.505 288.859 567.177 288.443 567.977 288.251V288.187C567.001 287.723 566.457 286.843 566.457 285.723C566.457 284.027 567.657 282.875 569.769 282.875C570.329 282.875 570.841 282.955 571.273 283.131V282.907C571.273 282.171 571.625 281.723 572.361 281.723H573.641V283.131H571.945V283.467C572.697 283.963 573.113 284.763 573.113 285.723C573.113 287.403 571.897 288.539 569.785 288.539C569.385 288.539 569.001 288.491 568.697 288.411C568.281 288.555 567.897 288.827 567.897 289.243C567.897 289.691 568.329 289.867 569.065 289.867H571.113C573.161 289.867 574.025 290.731 574.025 292.171ZM572.393 292.363C572.393 291.787 572.009 291.419 570.873 291.419H568.057C567.673 291.643 567.481 291.979 567.481 292.379C567.481 293.051 567.977 293.515 569.273 293.515H570.361C571.721 293.515 572.393 293.131 572.393 292.363ZM569.785 287.275C570.809 287.275 571.401 286.811 571.401 285.867V285.547C571.401 284.603 570.809 284.139 569.785 284.139C568.761 284.139 568.169 284.603 568.169 285.547V285.867C568.169 286.811 568.761 287.275 569.785 287.275ZM580.301 291.387V290.011H580.237C579.933 290.827 579.277 291.579 577.901 291.579C576.189 291.579 575.181 290.411 575.181 288.363V283.067H576.925V288.139C576.925 289.403 577.453 290.075 578.525 290.075C579.421 290.075 580.301 289.611 580.301 288.635V283.067H582.045V291.387H580.301ZM591.614 291.387H590.638C589.726 291.387 589.246 290.811 589.134 289.995H589.054C588.734 291.035 587.838 291.579 586.622 291.579C584.91 291.579 583.934 290.603 583.934 289.099C583.934 287.451 585.166 286.603 587.486 286.603H588.99V285.899C588.99 284.891 588.446 284.299 587.278 284.299C586.302 284.299 585.71 284.779 585.294 285.435L584.254 284.491C584.798 283.563 585.774 282.875 587.39 282.875C589.534 282.875 590.734 283.931 590.734 285.787V289.963H591.614V291.387ZM587.118 290.251C588.19 290.251 588.99 289.739 588.99 288.923V287.723H587.518C586.302 287.723 585.71 288.123 585.71 288.843V289.131C585.71 289.867 586.254 290.251 587.118 290.251ZM600.619 292.171C600.619 293.899 599.387 294.779 596.395 294.779C593.675 294.779 592.619 294.043 592.619 292.779C592.619 291.867 593.163 291.371 594.043 291.179V291.003C593.435 290.811 593.099 290.347 593.099 289.723C593.099 288.859 593.771 288.443 594.571 288.251V288.187C593.595 287.723 593.051 286.843 593.051 285.723C593.051 284.027 594.251 282.875 596.363 282.875C596.923 282.875 597.435 282.955 597.867 283.131V282.907C597.867 282.171 598.219 281.723 598.955 281.723H600.235V283.131H598.539V283.467C599.291 283.963 599.707 284.763 599.707 285.723C599.707 287.403 598.491 288.539 596.379 288.539C595.979 288.539 595.595 288.491 595.291 288.411C594.875 288.555 594.491 288.827 594.491 289.243C594.491 289.691 594.923 289.867 595.659 289.867H597.707C599.755 289.867 600.619 290.731 600.619 292.171ZM598.987 292.363C598.987 291.787 598.603 291.419 597.467 291.419H594.651C594.267 291.643 594.075 291.979 594.075 292.379C594.075 293.051 594.571 293.515 595.867 293.515H596.955C598.315 293.515 598.987 293.131 598.987 292.363ZM596.379 287.275C597.403 287.275 597.995 286.811 597.995 285.867V285.547C597.995 284.603 597.403 284.139 596.379 284.139C595.355 284.139 594.763 284.603 594.763 285.547V285.867C594.763 286.811 595.355 287.275 596.379 287.275ZM605.087 291.579C602.719 291.579 601.263 289.883 601.263 287.227C601.263 284.571 602.719 282.875 605.087 282.875C607.535 282.875 608.783 284.715 608.783 287.019V287.675H603.071V287.947C603.071 289.227 603.855 290.139 605.263 290.139C606.287 290.139 606.975 289.659 607.455 288.891L608.479 289.899C607.855 290.907 606.639 291.579 605.087 291.579ZM605.087 284.235C603.887 284.235 603.071 285.131 603.071 286.411V286.523H606.943V286.363C606.943 285.083 606.239 284.235 605.087 284.235ZM613.354 291.579C611.786 291.579 610.762 290.987 609.978 290.011L611.098 288.987C611.706 289.723 612.458 290.171 613.45 290.171C614.458 290.171 614.97 289.755 614.97 289.051C614.97 288.523 614.65 288.123 613.786 288.011L613.018 287.915C611.322 287.707 610.282 286.971 610.282 285.435C610.282 283.819 611.546 282.875 613.37 282.875C614.874 282.875 615.722 283.371 616.474 284.203L615.402 285.227C614.97 284.715 614.266 284.283 613.37 284.283C612.41 284.283 611.962 284.699 611.962 285.323C611.962 285.963 612.362 286.251 613.242 286.395L614.01 286.491C615.834 286.763 616.65 287.563 616.65 288.907C616.65 290.507 615.354 291.579 613.354 291.579Z" fill="#171717"/>
<rect x="0.5" y="350.5" width="156" height="160" rx="13.5" fill="#F5F5F5"/>
<rect x="0.5" y="350.5" width="156" height="160" rx="13.5" stroke="#171717"/>
<rect x="25.2002" y="379.113" width="46.7749" height="46.7749" rx="14.0325" fill="#FB923C"/>
<path fill-rule="evenodd" clip-rule="evenodd" d="M38.8225 407.619C38.035 406.044 37.5625 404.311 37.5625 402.5C37.5625 396.436 42.5238 391.475 48.5875 391.475V393.05C43.39 393.05 39.1375 397.302 39.1375 402.5C39.1375 404.075 39.5313 405.492 40.24 406.831L38.8225 407.619ZM58.0364 402.5C58.0364 407.697 53.7839 411.95 48.5864 411.95C46.3026 411.95 44.1764 411.162 42.5226 409.745L47.0114 405.256L45.9089 404.075L40.7901 409.193C40.4751 409.508 40.4751 409.981 40.7901 410.296C42.8376 412.343 45.6726 413.525 48.5864 413.525C54.6501 413.525 59.6114 408.563 59.6114 402.5H58.0364ZM49.8483 409.508C49.927 409.587 50.0845 409.587 50.1633 409.587C50.3208 409.587 50.4783 409.508 50.6358 409.43L53.7858 407.067C54.022 406.91 54.1008 406.673 54.1008 406.437V402.027L56.4633 399.665C57.487 398.641 58.0383 397.302 58.0383 395.806V394.625C58.0383 393.758 57.3295 393.05 56.4633 393.05H55.282C53.8645 393.05 52.447 393.601 51.4233 394.625L49.0608 396.987H44.6508C44.4145 396.987 44.1783 397.066 43.942 397.223L41.5795 400.373C41.422 400.61 41.422 400.925 41.5008 401.161C41.5795 401.397 41.8158 401.633 42.1308 401.633L46.0683 402.185L46.3045 400.61L43.7058 400.295L45.0445 398.562H49.3758C49.612 398.562 49.7695 398.483 49.927 398.326L52.447 395.806C53.1558 395.018 54.1795 394.625 55.2033 394.625H56.3845V395.885C56.3845 396.908 55.912 397.932 55.2033 398.641L52.6833 401.161C52.5258 401.318 52.447 401.476 52.447 401.712V405.965L50.7145 407.303L50.3995 404.705L48.8245 404.941L49.3758 408.878C49.3758 409.193 49.612 409.43 49.8483 409.508Z" fill="#171717"/>
<path d="M28.3842 466.888H26.5762V455.72H31.3762C33.4242 455.72 34.6242 457.048 34.6242 459.08C34.6242 461.112 33.4242 462.44 31.3762 462.44H28.3842V466.888ZM28.3842 457.304V460.856H31.2642C32.1762 460.856 32.7202 460.36 32.7202 459.464V458.696C32.7202 457.8 32.1762 457.304 31.2642 457.304H28.3842ZM36.4794 466.888V455.048H38.2234V459.944H38.3034C38.6554 459.048 39.3594 458.376 40.6394 458.376C42.3354 458.376 43.3434 459.56 43.3434 461.608V466.888H41.5994V461.816C41.5994 460.536 41.1034 459.88 40.0314 459.88C39.1194 459.88 38.2234 460.344 38.2234 461.304V466.888H36.4794ZM49.0757 463.464L50.7397 458.568H52.4197L48.9157 468.536C48.5157 469.656 48.0197 470.088 46.7237 470.088H45.7157V468.664H47.1237L47.6037 467.256L44.5797 458.568H46.3237L47.9877 463.464L48.4677 465.272H48.5477L49.0757 463.464ZM56.4007 467.08C54.8327 467.08 53.8087 466.488 53.0247 465.512L54.1447 464.488C54.7527 465.224 55.5047 465.672 56.4967 465.672C57.5047 465.672 58.0167 465.256 58.0167 464.552C58.0167 464.024 57.6967 463.624 56.8327 463.512L56.0647 463.416C54.3687 463.208 53.3287 462.472 53.3287 460.936C53.3287 459.32 54.5927 458.376 56.4167 458.376C57.9207 458.376 58.7687 458.872 59.5207 459.704L58.4487 460.728C58.0167 460.216 57.3127 459.784 56.4167 459.784C55.4567 459.784 55.0087 460.2 55.0087 460.824C55.0087 461.464 55.4087 461.752 56.2887 461.896L57.0567 461.992C58.8807 462.264 59.6967 463.064 59.6967 464.408C59.6967 466.008 58.4007 467.08 56.4007 467.08ZM62.5469 457.08C61.8269 457.08 61.5069 456.696 61.5069 456.168V455.896C61.5069 455.368 61.8269 454.984 62.5469 454.984C63.2669 454.984 63.5709 455.368 63.5709 455.896V456.168C63.5709 456.696 63.2669 457.08 62.5469 457.08ZM61.6669 466.888V458.568H63.4109V466.888H61.6669ZM69.1173 467.08C66.7173 467.08 65.3413 465.384 65.3413 462.728C65.3413 460.072 66.7173 458.376 69.1173 458.376C70.7813 458.376 71.8373 459.192 72.3333 460.424L70.8933 461.096C70.6533 460.328 70.0613 459.832 69.1173 459.832C67.8373 459.832 67.1813 460.712 67.1813 461.992V463.48C67.1813 464.76 67.8373 465.64 69.1173 465.64C70.1253 465.64 70.7173 465.096 71.0693 464.264L72.3973 464.968C71.8533 466.328 70.7173 467.08 69.1173 467.08ZM76.6976 467.08C75.1296 467.08 74.1056 466.488 73.3216 465.512L74.4416 464.488C75.0496 465.224 75.8016 465.672 76.7936 465.672C77.8016 465.672 78.3136 465.256 78.3136 464.552C78.3136 464.024 77.9936 463.624 77.1296 463.512L76.3616 463.416C74.6656 463.208 73.6256 462.472 73.6256 460.936C73.6256 459.32 74.8896 458.376 76.7136 458.376C78.2176 458.376 79.0656 458.872 79.8176 459.704L78.7456 460.728C78.3136 460.216 77.6096 459.784 76.7136 459.784C75.7536 459.784 75.3056 460.2 75.3056 460.824C75.3056 461.464 75.7056 461.752 76.5856 461.896L77.3536 461.992C79.1776 462.264 79.9936 463.064 79.9936 464.408C79.9936 466.008 78.6976 467.08 76.6976 467.08Z" fill="#171717"/>
<rect x="171.5" y="350.5" width="157" height="160" rx="13.5" fill="#F5F5F5"/>
<rect x="171.5" y="350.5" width="157" height="160" rx="13.5" stroke="#171717"/>
<rect x="196.2" y="379.113" width="46.7749" height="46.7749" rx="14.0325" fill="#7DD3FC"/>
<path d="M230.613 400.137C230.613 399 230.388 397.873 229.953 396.822C229.518 395.771 228.88 394.816 228.075 394.012C227.271 393.208 226.316 392.57 225.265 392.134C224.214 391.699 223.088 391.475 221.95 391.475H215.65C213.77 391.475 211.968 392.222 210.638 393.551C209.309 394.88 208.562 396.683 208.562 398.562V400.925C208.562 401.969 208.977 402.971 209.716 403.709C210.454 404.448 211.456 404.862 212.5 404.862H213.366C213.548 405.752 214.031 406.551 214.734 407.125C215.437 407.699 216.317 408.013 217.225 408.012H218.312L221.462 413.525L222.824 412.737L219.674 407.311C219.547 407.056 219.354 406.84 219.114 406.686C218.874 406.532 218.597 406.446 218.312 406.437H217.225C216.598 406.437 215.998 406.188 215.554 405.745C215.111 405.302 214.863 404.701 214.863 404.075C214.863 403.448 215.111 402.847 215.554 402.404C215.998 401.961 216.598 401.712 217.225 401.712H218.013V400.137H217.225C216.317 400.137 215.437 400.451 214.734 401.025C214.031 401.599 213.548 402.398 213.366 403.287H212.5C211.873 403.287 211.273 403.038 210.829 402.595C210.386 402.152 210.138 401.551 210.138 400.925V399.35H211.713C212.339 399.35 212.94 399.101 213.383 398.658C213.826 398.215 214.075 397.614 214.075 396.987V396.2H212.5V396.987C212.5 397.196 212.417 397.397 212.269 397.544C212.122 397.692 211.921 397.775 211.713 397.775H210.201C210.39 396.464 211.045 395.265 212.045 394.397C213.046 393.53 214.326 393.051 215.65 393.05H220.375V394.625C220.375 394.834 220.292 395.034 220.144 395.182C219.997 395.329 219.796 395.412 219.588 395.412H218.013V396.987H219.588C220.214 396.987 220.815 396.738 221.258 396.295C221.701 395.852 221.95 395.251 221.95 394.625V393.05C223.268 393.052 224.56 393.421 225.68 394.117C226.8 394.812 227.703 395.806 228.289 396.987H227.463C226.836 396.987 226.235 397.236 225.792 397.679C225.349 398.122 225.1 398.723 225.1 399.35V400.137H226.675V399.35C226.675 399.141 226.758 398.941 226.906 398.793C227.053 398.645 227.254 398.562 227.463 398.562H228.856C228.977 399.079 229.038 399.607 229.038 400.137V400.925C229.038 401.969 228.623 402.971 227.884 403.709C227.146 404.448 226.144 404.862 225.1 404.862H222.738V406.437H225.1C225.917 406.436 226.724 406.253 227.463 405.902V406.437C227.462 407.064 227.214 407.665 226.771 408.108C226.327 408.551 225.727 408.8 225.1 408.8H224.312V410.375H225.1C226.144 410.375 227.146 409.96 227.884 409.222C228.623 408.483 229.038 407.482 229.038 406.437V404.776C230.045 403.747 230.611 402.365 230.613 400.925V400.137Z" fill="#171717"/>
<path d="M199.384 466.888H197.576V455.72H202.376C204.424 455.72 205.624 457.048 205.624 459.08C205.624 461.112 204.424 462.44 202.376 462.44H199.384V466.888ZM199.384 457.304V460.856H202.264C203.176 460.856 203.72 460.36 203.72 459.464V458.696C203.72 457.8 203.176 457.304 202.264 457.304H199.384ZM209.932 467.08C208.364 467.08 207.34 466.488 206.556 465.512L207.676 464.488C208.284 465.224 209.036 465.672 210.028 465.672C211.036 465.672 211.548 465.256 211.548 464.552C211.548 464.024 211.228 463.624 210.364 463.512L209.596 463.416C207.9 463.208 206.86 462.472 206.86 460.936C206.86 459.32 208.124 458.376 209.948 458.376C211.452 458.376 212.3 458.872 213.052 459.704L211.98 460.728C211.548 460.216 210.844 459.784 209.948 459.784C208.988 459.784 208.54 460.2 208.54 460.824C208.54 461.464 208.94 461.752 209.82 461.896L210.588 461.992C212.412 462.264 213.228 463.064 213.228 464.408C213.228 466.008 211.932 467.08 209.932 467.08ZM218.419 463.464L220.083 458.568H221.763L218.259 468.536C217.859 469.656 217.363 470.088 216.067 470.088H215.059V468.664H216.467L216.947 467.256L213.923 458.568H215.667L217.331 463.464L217.811 465.272H217.891L218.419 463.464ZM226.32 467.08C223.92 467.08 222.544 465.384 222.544 462.728C222.544 460.072 223.92 458.376 226.32 458.376C227.984 458.376 229.04 459.192 229.536 460.424L228.096 461.096C227.856 460.328 227.264 459.832 226.32 459.832C225.04 459.832 224.384 460.712 224.384 461.992V463.48C224.384 464.76 225.04 465.64 226.32 465.64C227.328 465.64 227.92 465.096 228.272 464.264L229.6 464.968C229.056 466.328 227.92 467.08 226.32 467.08ZM231.261 466.888V455.048H233.005V459.944H233.085C233.437 459.048 234.141 458.376 235.421 458.376C237.117 458.376 238.125 459.56 238.125 461.608V466.888H236.381V461.816C236.381 460.536 235.885 459.88 234.813 459.88C233.901 459.88 233.005 460.344 233.005 461.304V466.888H231.261ZM243.806 467.08C241.486 467.08 239.982 465.384 239.982 462.728C239.982 460.072 241.486 458.376 243.806 458.376C246.126 458.376 247.63 460.072 247.63 462.728C247.63 465.384 246.126 467.08 243.806 467.08ZM243.806 465.64C244.99 465.64 245.79 464.904 245.79 463.432V462.024C245.79 460.552 244.99 459.816 243.806 459.816C242.622 459.816 241.822 460.552 241.822 462.024V463.432C241.822 464.904 242.622 465.64 243.806 465.64ZM252.469 466.888H251.349C250.165 466.888 249.573 466.232 249.573 465.16V455.048H251.317V465.464H252.469V466.888ZM257.4 467.08C255.08 467.08 253.576 465.384 253.576 462.728C253.576 460.072 255.08 458.376 257.4 458.376C259.72 458.376 261.224 460.072 261.224 462.728C261.224 465.384 259.72 467.08 257.4 467.08ZM257.4 465.64C258.584 465.64 259.384 464.904 259.384 463.432V462.024C259.384 460.552 258.584 459.816 257.4 459.816C256.216 459.816 255.416 460.552 255.416 462.024V463.432C255.416 464.904 256.216 465.64 257.4 465.64ZM270.463 467.672C270.463 469.4 269.231 470.28 266.239 470.28C263.519 470.28 262.463 469.544 262.463 468.28C262.463 467.368 263.007 466.872 263.887 466.68V466.504C263.279 466.312 262.943 465.848 262.943 465.224C262.943 464.36 263.615 463.944 264.415 463.752V463.688C263.439 463.224 262.895 462.344 262.895 461.224C262.895 459.528 264.095 458.376 266.207 458.376C266.767 458.376 267.279 458.456 267.711 458.632V458.408C267.711 457.672 268.063 457.224 268.799 457.224H270.079V458.632H268.383V458.968C269.135 459.464 269.551 460.264 269.551 461.224C269.551 462.904 268.335 464.04 266.223 464.04C265.823 464.04 265.439 463.992 265.135 463.912C264.719 464.056 264.335 464.328 264.335 464.744C264.335 465.192 264.767 465.368 265.503 465.368H267.551C269.599 465.368 270.463 466.232 270.463 467.672ZM268.831 467.864C268.831 467.288 268.447 466.92 267.311 466.92H264.495C264.111 467.144 263.919 467.48 263.919 467.88C263.919 468.552 264.415 469.016 265.711 469.016H266.799C268.159 469.016 268.831 468.632 268.831 467.864ZM266.223 462.776C267.247 462.776 267.839 462.312 267.839 461.368V461.048C267.839 460.104 267.247 459.64 266.223 459.64C265.199 459.64 264.607 460.104 264.607 461.048V461.368C264.607 462.312 265.199 462.776 266.223 462.776ZM275.279 463.464L276.943 458.568H278.623L275.119 468.536C274.719 469.656 274.223 470.088 272.927 470.088H271.919V468.664H273.327L273.807 467.256L270.783 458.568H272.527L274.191 463.464L274.671 465.272H274.751L275.279 463.464Z" fill="#171717"/>
<rect x="343.5" y="350.5" width="156" height="160" rx="13.5" fill="#F5F5F5"/>
<rect x="343.5" y="350.5" width="156" height="160" rx="13.5" stroke="#171717"/>
<rect x="368.2" y="379.113" width="46.7749" height="46.7749" rx="14.0325" fill="#F87171"/>
<path fill-rule="evenodd" clip-rule="evenodd" d="M402.612 392.588L400.491 394.709L401.352 395.57C401.501 395.712 401.62 395.883 401.701 396.073C401.782 396.262 401.824 396.466 401.824 396.672C401.824 396.879 401.782 397.083 401.701 397.272C401.62 397.462 401.501 397.633 401.352 397.775L387.177 411.95H382.137V406.91L396.312 392.735C396.454 392.585 396.625 392.467 396.814 392.385C397.004 392.304 397.208 392.262 397.414 392.262C397.62 392.262 397.824 392.304 398.014 392.385C398.204 392.467 398.375 392.585 398.517 392.735L399.378 393.596L401.498 391.475L402.612 392.588ZM383.712 410.375H386.547L400.249 396.672L397.414 393.837L383.712 407.54V410.375ZM386.074 399.024L392.048 393.05L393.162 394.163L387.188 400.137L386.074 399.024Z" fill="#171717"/>
<path d="M373.256 466.888H371.224L368.584 455.72H370.424L371.56 461.096L372.344 464.808H372.392L373.288 461.096L374.616 455.72H376.632L377.944 461.096L378.824 464.792H378.872L379.688 461.096L380.856 455.72H382.632L379.88 466.888H377.848L376.424 461.112L375.592 457.72H375.56L374.712 461.112L373.256 466.888ZM385.848 466.888H384.104V458.568H385.848V460.168H385.928C386.168 459.32 386.888 458.568 388.216 458.568H388.68V460.248H387.992C386.616 460.248 385.848 460.712 385.848 461.576V466.888ZM391.109 457.08C390.389 457.08 390.069 456.696 390.069 456.168V455.896C390.069 455.368 390.389 454.984 391.109 454.984C391.829 454.984 392.133 455.368 392.133 455.896V456.168C392.133 456.696 391.829 457.08 391.109 457.08ZM390.229 466.888V458.568H391.973V466.888H390.229ZM398.288 466.888H396.768C395.568 466.888 394.928 466.216 394.928 465.08V459.992H393.632V458.568H394.336C394.912 458.568 395.104 458.328 395.104 457.752V456.296H396.672V458.568H398.416V459.992H396.672V465.464H398.288V466.888ZM401.188 457.08C400.468 457.08 400.148 456.696 400.148 456.168V455.896C400.148 455.368 400.468 454.984 401.188 454.984C401.908 454.984 402.212 455.368 402.212 455.896V456.168C402.212 456.696 401.908 457.08 401.188 457.08ZM400.308 466.888V458.568H402.052V466.888H400.308ZM406.286 466.888H404.542V458.568H406.286V459.944H406.366C406.718 459.048 407.422 458.376 408.702 458.376C410.398 458.376 411.406 459.56 411.406 461.608V466.888H409.662V461.832C409.662 460.536 409.166 459.88 408.094 459.88C407.182 459.88 406.286 460.344 406.286 461.32V466.888ZM421.119 467.672C421.119 469.4 419.887 470.28 416.895 470.28C414.175 470.28 413.119 469.544 413.119 468.28C413.119 467.368 413.663 466.872 414.543 466.68V466.504C413.935 466.312 413.599 465.848 413.599 465.224C413.599 464.36 414.271 463.944 415.071 463.752V463.688C414.095 463.224 413.551 462.344 413.551 461.224C413.551 459.528 414.751 458.376 416.863 458.376C417.423 458.376 417.935 458.456 418.367 458.632V458.408C418.367 457.672 418.719 457.224 419.455 457.224H420.735V458.632H419.039V458.968C419.791 459.464 420.207 460.264 420.207 461.224C420.207 462.904 418.991 464.04 416.879 464.04C416.479 464.04 416.095 463.992 415.791 463.912C415.375 464.056 414.991 464.328 414.991 464.744C414.991 465.192 415.423 465.368 416.159 465.368H418.207C420.255 465.368 421.119 466.232 421.119 467.672ZM419.487 467.864C419.487 467.288 419.103 466.92 417.967 466.92H415.151C414.767 467.144 414.575 467.48 414.575 467.88C414.575 468.552 415.071 469.016 416.367 469.016H417.455C418.815 469.016 419.487 468.632 419.487 467.864ZM416.879 462.776C417.903 462.776 418.495 462.312 418.495 461.368V461.048C418.495 460.104 417.903 459.64 416.879 459.64C415.855 459.64 415.263 460.104 415.263 461.048V461.368C415.263 462.312 415.855 462.776 416.879 462.776Z" fill="#171717"/>
<rect x="514.5" y="350.5" width="157" height="160" rx="13.5" fill="#F5F5F5"/>
<rect x="514.5" y="350.5" width="157" height="160" rx="13.5" stroke="#171717"/>
<rect x="539.2" y="379.113" width="46.7749" height="46.7749" rx="14.0325" fill="#FBBF24"/>
<path fill-rule="evenodd" clip-rule="evenodd" d="M566.524 391.475H567.312C567.939 391.451 568.564 391.556 569.148 391.785C569.733 392.014 570.263 392.361 570.707 392.805C571.151 393.248 571.498 393.779 571.727 394.363C571.956 394.948 572.061 395.573 572.037 396.2V404.075C572.037 404.493 571.871 404.893 571.575 405.189C571.28 405.484 570.879 405.65 570.462 405.65H568.099V413.525H566.524V391.475ZM568.099 404.075H570.462V396.2C570.462 395.908 570.367 393.562 568.099 393.121V404.075ZM561.012 398.562C561.012 399.398 560.68 400.199 560.089 400.79C559.498 401.381 558.697 401.712 557.862 401.712C557.026 401.712 556.225 401.381 555.634 400.79C555.044 400.199 554.712 399.398 554.712 398.562V391.475H553.137V398.562C553.138 399.678 553.534 400.758 554.254 401.609C554.975 402.461 555.974 403.031 557.074 403.217V413.525H558.649V403.217C559.749 403.031 560.748 402.461 561.469 401.609C562.19 400.758 562.586 399.678 562.587 398.562V391.475H561.012V398.562ZM558.649 391.475H557.074V399.35H558.649V391.475Z" fill="#171717"/>
<path d="M547.232 466.888L543.584 460.712L542.352 458.344H542.304V466.888H540.576V455.72H542.592L546.24 461.896L547.472 464.264H547.52V455.72H549.248V466.888H547.232ZM556.91 466.888V465.512H556.846C556.542 466.328 555.886 467.08 554.51 467.08C552.798 467.08 551.79 465.912 551.79 463.864V458.568H553.534V463.64C553.534 464.904 554.062 465.576 555.134 465.576C556.03 465.576 556.91 465.112 556.91 464.136V458.568H558.654V466.888H556.91ZM564.975 466.888H563.455C562.255 466.888 561.615 466.216 561.615 465.08V459.992H560.319V458.568H561.023C561.599 458.568 561.791 458.328 561.791 457.752V456.296H563.359V458.568H565.103V459.992H563.359V465.464H564.975V466.888ZM568.739 466.888H566.995V458.568H568.739V460.168H568.819C569.059 459.32 569.779 458.568 571.107 458.568H571.571V460.248H570.883C569.507 460.248 568.739 460.712 568.739 461.576V466.888ZM574 457.08C573.28 457.08 572.96 456.696 572.96 456.168V455.896C572.96 455.368 573.28 454.984 574 454.984C574.72 454.984 575.024 455.368 575.024 455.896V456.168C575.024 456.696 574.72 457.08 574 457.08ZM573.12 466.888V458.568H574.864V466.888H573.12ZM581.178 466.888H579.658C578.458 466.888 577.818 466.216 577.818 465.08V459.992H576.522V458.568H577.226C577.802 458.568 577.994 458.328 577.994 457.752V456.296H579.562V458.568H581.306V459.992H579.562V465.464H581.178V466.888ZM584.078 457.08C583.358 457.08 583.038 456.696 583.038 456.168V455.896C583.038 455.368 583.358 454.984 584.078 454.984C584.798 454.984 585.102 455.368 585.102 455.896V456.168C585.102 456.696 584.798 457.08 584.078 457.08ZM583.198 466.888V458.568H584.942V466.888H583.198ZM590.697 467.08C588.377 467.08 586.873 465.384 586.873 462.728C586.873 460.072 588.377 458.376 590.697 458.376C593.017 458.376 594.521 460.072 594.521 462.728C594.521 465.384 593.017 467.08 590.697 467.08ZM590.697 465.64C591.881 465.64 592.681 464.904 592.681 463.432V462.024C592.681 460.552 591.881 459.816 590.697 459.816C589.513 459.816 588.713 460.552 588.713 462.024V463.432C588.713 464.904 589.513 465.64 590.697 465.64ZM598.208 466.888H596.464V458.568H598.208V459.944H598.288C598.64 459.048 599.344 458.376 600.624 458.376C602.32 458.376 603.328 459.56 603.328 461.608V466.888H601.584V461.832C601.584 460.536 601.088 459.88 600.016 459.88C599.104 459.88 598.208 460.344 598.208 461.32V466.888Z" fill="#171717"/>
</svg>
