<svg width="92" height="32" viewBox="0 0 92 32" fill="none" xmlns="http://www.w3.org/2000/svg">
<g clip-path="url(#clip0)">
<path d="M35.2513 9.04253C33.9441 7.83692 32.062 7.15599 29.6362 7.34349C28.3547 7.44284 27.119 8.10372 26.6222 8.64065V0.630005L21.6178 1.49961V24.8819H26.6266V16.2316C26.5295 12.7822 27.8267 11.9516 29.778 11.9516C31.688 11.9516 32.7429 13.2388 32.7429 15.9994V24.8662H37.543V15.17C37.5442 12.3245 36.7136 10.391 35.2513 9.04253ZM13.4151 20.5482C14.7803 20.4857 16.1032 20.0545 17.2429 19.3003L18.0924 18.7421L20.2871 22.5041L19.547 23.0132C17.5312 24.3983 15.142 25.138 12.6962 25.1341C10.7957 25.1328 8.9221 24.6853 7.22616 23.8277C5.53022 22.9701 4.05931 21.7263 2.93184 20.1964C1.80437 18.6665 1.05184 16.8932 0.734805 15.0194C0.417774 13.1456 0.545105 11.2235 1.10655 9.40785C1.66799 7.59217 2.64787 5.93372 3.9673 4.56592C5.28673 3.19812 6.90885 2.1592 8.70312 1.53278C10.4974 0.906361 12.4136 0.709942 14.2977 0.959334C16.1817 1.20873 17.9809 1.89696 19.5504 2.96864L20.2871 3.47545L18.0924 7.24415L17.2429 6.68595C16.1032 5.93178 14.7803 5.50049 13.4151 5.43802C12.0498 5.37554 10.6931 5.68417 9.48926 6.33115C8.28534 6.97808 7.2793 7.93918 6.57797 9.11223C5.87664 10.2853 5.50634 11.6264 5.50634 12.9931C5.50634 14.3598 5.87664 15.701 6.57797 16.8741C7.2793 18.0471 8.28534 19.0082 9.48926 19.6551C10.6931 20.3021 12.0498 20.6107 13.4151 20.5482ZM87.3773 8.58373L87.3506 8.70657L87.2547 8.62616C86.1383 7.70188 84.6817 7.25311 82.8028 7.25311C78.0986 7.25311 74.272 11.1981 74.272 16.0474C74.272 20.8967 78.0986 24.8417 82.8028 24.8417C83.9721 24.8461 85.1283 24.5998 86.1944 24.1195L86.3538 24.048L86.2981 24.2133C85.7033 25.9659 84.1078 27.0967 82.131 27.1603H81.8898C80.7554 27.1893 79.6525 26.7854 78.8053 26.0306L78.582 25.8386L75.854 28.9352L76.0502 29.1295C77.7862 30.8475 80.4163 31.6289 82.1252 31.6289C87.4756 31.6289 91.3593 27.7564 91.3593 22.4204V7.29777H87.65L87.3773 8.58373ZM83.1923 20.2492C81.0121 20.2492 79.2398 18.3626 79.2398 16.0441C79.2398 13.7255 81.0121 11.8389 83.1923 11.8389C85.3725 11.8389 87.1462 13.7255 87.1462 16.0441C87.1462 18.3626 85.3739 20.2492 83.1923 20.2492ZM69.3547 8.58378L69.3266 8.71214L69.2253 8.62844C68.1089 7.70522 66.6577 7.2565 64.7768 7.2565C60.0736 7.2565 56.248 11.2004 56.248 16.0474C56.248 20.8945 60.0736 24.8384 64.7768 24.8384C65.9447 24.8426 67.1004 24.5967 68.1655 24.1173L68.3331 24.0413L68.275 24.2144C67.6836 25.9714 66.0885 27.1034 64.1123 27.1681H63.8725C62.7366 27.1977 61.6328 26.7933 60.7846 26.0373L60.5671 25.8475L57.843 28.9397L58.0372 29.1317C59.7723 30.8486 62.401 31.6301 64.1103 31.6301C69.4583 31.6301 73.3401 27.7587 73.3401 22.4249V7.30111H69.6283L69.3547 8.58378ZM65.1716 20.2526C62.9895 20.2526 61.2143 18.3649 61.2143 16.0441C61.2143 13.7233 62.9895 11.8356 65.1716 11.8356C67.3542 11.8356 69.1289 13.7233 69.1289 16.0441C69.1289 18.3649 67.3542 20.2526 65.1716 20.2526ZM38.4976 16.2159C38.4976 11.1591 42.1914 7.19837 46.9067 7.19837C51.6033 7.19837 55.2802 11.1591 55.2802 16.2148C55.2782 16.8592 55.2346 17.5027 55.1509 18.1416H43.5299L43.5801 18.3113C43.8155 19.0845 44.3148 19.7507 44.9911 20.1934C45.6514 20.6338 46.4178 20.889 47.2103 20.9324C49.0041 21.0306 50.3575 20.5215 51.4522 19.3282L54.4228 21.3767C54.0242 21.9962 51.6992 25.2335 47.2148 25.2335C42.4046 25.2335 38.4976 21.188 38.4976 16.2159ZM43.1023 14.738L43.0878 14.8831H51.0584L51.0506 14.7435C50.9164 12.2999 48.8748 10.9816 47.0228 10.9816C46.0637 10.9913 45.143 11.3596 44.4419 12.0142C43.6734 12.7248 43.196 13.6954 43.1023 14.738Z" fill="black"/>
</g>
<defs>
<clipPath id="clip0">
<rect width="90.5781" height="31" fill="white" transform="translate(0.564697 0.630005)"/>
</clipPath>
</defs>
</svg>
