<svg width="90" height="10" viewBox="0 0 90 10" fill="none" xmlns="http://www.w3.org/2000/svg">
<path d="M3.8592 5.96591H5.42738L6.21573 6.98011L6.9913 7.88352L8.45295 9.71591H6.73136L5.72567 8.48011L5.21005 7.74716L3.8592 5.96591ZM8.58505 4.63636C8.58505 5.58807 8.40465 6.39773 8.04386 7.06534C7.6859 7.73295 7.19727 8.2429 6.57795 8.59517C5.96147 8.9446 5.26829 9.11932 4.4984 9.11932C3.72283 9.11932 3.02681 8.94318 2.41033 8.59091C1.79386 8.23864 1.30664 7.72869 0.948686 7.06108C0.590732 6.39347 0.411754 5.58523 0.411754 4.63636C0.411754 3.68466 0.590732 2.875 0.948686 2.20739C1.30664 1.53977 1.79386 1.03125 2.41033 0.681818C3.02681 0.329545 3.72283 0.153409 4.4984 0.153409C5.26829 0.153409 5.96147 0.329545 6.57795 0.681818C7.19727 1.03125 7.6859 1.53977 8.04386 2.20739C8.40465 2.875 8.58505 3.68466 8.58505 4.63636ZM6.71431 4.63636C6.71431 4.01989 6.62198 3.5 6.43732 3.0767C6.2555 2.65341 5.9984 2.33239 5.66602 2.11364C5.33363 1.89489 4.94442 1.78551 4.4984 1.78551C4.05238 1.78551 3.66317 1.89489 3.33079 2.11364C2.9984 2.33239 2.73988 2.65341 2.55522 3.0767C2.3734 3.5 2.28249 4.01989 2.28249 4.63636C2.28249 5.25284 2.3734 5.77273 2.55522 6.19602C2.73988 6.61932 2.9984 6.94034 3.33079 7.15909C3.66317 7.37784 4.05238 7.48722 4.4984 7.48722C4.94442 7.48722 5.33363 7.37784 5.66602 7.15909C5.9984 6.94034 6.2555 6.61932 6.43732 6.19602C6.62198 5.77273 6.71431 5.25284 6.71431 4.63636ZM14.1152 6.21307V2.45455H15.9306V9H14.1877V7.81108H14.1195C13.9718 8.1946 13.726 8.50284 13.3823 8.7358C13.0414 8.96875 12.6252 9.08523 12.1337 9.08523C11.6962 9.08523 11.3113 8.9858 10.9789 8.78693C10.6465 8.58807 10.3865 8.3054 10.199 7.93892C10.0144 7.57244 9.92063 7.13352 9.91779 6.62216V2.45455H11.7331V6.2983C11.736 6.68466 11.8397 6.99006 12.0442 7.21449C12.2488 7.43892 12.5229 7.55114 12.8667 7.55114C13.0854 7.55114 13.29 7.50142 13.4803 7.40199C13.6706 7.29972 13.824 7.14915 13.9405 6.95028C14.0598 6.75142 14.1181 6.50568 14.1152 6.21307ZM19.2491 9.12358C18.8315 9.12358 18.4593 9.05114 18.1326 8.90625C17.8059 8.75852 17.5474 8.54119 17.3571 8.25426C17.1696 7.96449 17.0758 7.60369 17.0758 7.17188C17.0758 6.80824 17.1426 6.50284 17.2761 6.25568C17.4096 6.00852 17.5914 5.80966 17.8216 5.65909C18.0517 5.50852 18.313 5.39489 18.6056 5.31818C18.9011 5.24148 19.2108 5.1875 19.5346 5.15625C19.9153 5.11648 20.2221 5.07955 20.4551 5.04545C20.688 5.00852 20.8571 4.95455 20.9622 4.88352C21.0673 4.8125 21.1199 4.70739 21.1199 4.56818V4.54261C21.1199 4.27273 21.0346 4.06392 20.8642 3.91619C20.6966 3.76847 20.4579 3.6946 20.1483 3.6946C19.8216 3.6946 19.5616 3.76705 19.3684 3.91193C19.1752 4.05398 19.0474 4.23295 18.9849 4.44886L17.3059 4.3125C17.3912 3.91477 17.5588 3.57102 17.8088 3.28125C18.0588 2.98864 18.3812 2.7642 18.7761 2.60795C19.1738 2.44886 19.6341 2.36932 20.1568 2.36932C20.5204 2.36932 20.8684 2.41193 21.2008 2.49716C21.536 2.58239 21.8329 2.71449 22.0914 2.89347C22.3528 3.07244 22.5588 3.30256 22.7093 3.58381C22.8599 3.86222 22.9352 4.19602 22.9352 4.58523V9H21.2136V8.09233H21.1625C21.0574 8.29688 20.9167 8.47727 20.7406 8.63352C20.5645 8.78693 20.3528 8.90767 20.1056 8.99574C19.8585 9.08097 19.573 9.12358 19.2491 9.12358ZM19.769 7.87074C20.036 7.87074 20.2718 7.81818 20.4764 7.71307C20.6809 7.60511 20.8414 7.46023 20.9579 7.27841C21.0744 7.09659 21.1326 6.89062 21.1326 6.66051V5.96591C21.0758 6.00284 20.9977 6.03693 20.8983 6.06818C20.8017 6.09659 20.6923 6.12358 20.5701 6.14915C20.448 6.17187 20.3258 6.19318 20.2037 6.21307C20.0815 6.23011 19.9707 6.24574 19.8713 6.25994C19.6582 6.29119 19.4721 6.34091 19.313 6.40909C19.1539 6.47727 19.0304 6.5696 18.9423 6.68608C18.8542 6.79972 18.8102 6.94176 18.8102 7.11222C18.8102 7.35938 18.8997 7.5483 19.0787 7.67898C19.2605 7.80682 19.4906 7.87074 19.769 7.87074ZM26.1589 5.21591V9H24.3436V2.45455H26.0737V3.60938H26.1504C26.2953 3.22869 26.5382 2.92756 26.8791 2.70597C27.22 2.48153 27.6333 2.36932 28.1191 2.36932C28.5737 2.36932 28.97 2.46875 29.3081 2.66761C29.6461 2.86648 29.9089 3.15057 30.0964 3.51989C30.2839 3.88636 30.3777 4.32386 30.3777 4.83239V9H28.5623V5.15625C28.5652 4.75568 28.4629 4.44318 28.2555 4.21875C28.0481 3.99148 27.7626 3.87784 27.399 3.87784C27.1547 3.87784 26.9387 3.9304 26.7512 4.03551C26.5666 4.14062 26.4217 4.29403 26.3166 4.49574C26.2143 4.6946 26.1618 4.93466 26.1589 5.21591ZM35.29 2.45455V3.81818H31.3482V2.45455H35.29ZM32.2431 0.886364H34.0584V6.98864C34.0584 7.15625 34.084 7.28693 34.1351 7.38068C34.1863 7.47159 34.2573 7.53551 34.3482 7.57244C34.4419 7.60937 34.5499 7.62784 34.6721 7.62784C34.7573 7.62784 34.8425 7.62074 34.9277 7.60653C35.013 7.58949 35.0783 7.5767 35.1238 7.56818L35.4093 8.91903C35.3184 8.94744 35.1905 8.98011 35.0257 9.01705C34.861 9.05682 34.6607 9.08097 34.4249 9.08949C33.9874 9.10653 33.6039 9.0483 33.2743 8.91477C32.9476 8.78125 32.6934 8.57386 32.5115 8.29261C32.3297 8.01136 32.2402 7.65625 32.2431 7.22727V0.886364ZM40.6699 6.21307V2.45455H42.4853V9H40.7424V7.81108H40.6742C40.5265 8.1946 40.2807 8.50284 39.937 8.7358C39.5961 8.96875 39.1799 9.08523 38.6884 9.08523C38.2509 9.08523 37.8659 8.9858 37.5336 8.78693C37.2012 8.58807 36.9412 8.3054 36.7537 7.93892C36.5691 7.57244 36.4753 7.13352 36.4725 6.62216V2.45455H38.2878V6.2983C38.2907 6.68466 38.3944 6.99006 38.5989 7.21449C38.8034 7.43892 39.0776 7.55114 39.4213 7.55114C39.6401 7.55114 39.8446 7.50142 40.035 7.40199C40.2253 7.29972 40.3787 7.14915 40.4952 6.95028C40.6145 6.75142 40.6728 6.50568 40.6699 6.21307ZM43.9373 9V2.45455H45.6674V3.60938H45.7441C45.8805 3.22585 46.1078 2.9233 46.426 2.7017C46.7441 2.48011 47.1248 2.36932 47.568 2.36932C48.0169 2.36932 48.399 2.48153 48.7143 2.70597C49.0297 2.92756 49.2399 3.22869 49.345 3.60938H49.4132C49.5467 3.23438 49.7882 2.93466 50.1376 2.71023C50.4899 2.48295 50.9061 2.36932 51.3862 2.36932C51.997 2.36932 52.4927 2.56392 52.8734 2.95312C53.2569 3.33949 53.4487 3.88778 53.4487 4.59801V9H51.6376V4.95597C51.6376 4.59233 51.541 4.3196 51.3478 4.13778C51.1547 3.95597 50.9132 3.86506 50.6234 3.86506C50.2939 3.86506 50.0368 3.97017 49.8521 4.1804C49.6674 4.38778 49.5751 4.66193 49.5751 5.00284V9H47.8152V4.91761C47.8152 4.59659 47.7228 4.34091 47.5382 4.15057C47.3564 3.96023 47.1163 3.86506 46.818 3.86506C46.6163 3.86506 46.4345 3.91619 46.2725 4.01847C46.1135 4.1179 45.987 4.25852 45.8933 4.44034C45.7995 4.61932 45.7527 4.82955 45.7527 5.07102V9H43.9373ZM56.1738 9L54.3926 2.45455H56.2292L57.2434 6.85227H57.3031L58.3599 2.45455H60.1625L61.2363 6.8267H61.2917L62.2889 2.45455H64.1213L62.3443 9H60.4224L59.2974 4.88352H59.2164L58.0914 9H56.1738ZM67.883 9.12784C67.2211 9.12784 66.6486 8.98722 66.1657 8.70597C65.6855 8.42187 65.3148 8.02699 65.0534 7.52131C64.7921 7.01278 64.6614 6.4233 64.6614 5.75284C64.6614 5.0767 64.7921 4.4858 65.0534 3.98011C65.3148 3.47159 65.6855 3.0767 66.1657 2.79545C66.6486 2.51136 67.2211 2.36932 67.883 2.36932C68.5449 2.36932 69.1159 2.51136 69.5961 2.79545C70.079 3.0767 70.4512 3.47159 70.7125 3.98011C70.9739 4.4858 71.1046 5.0767 71.1046 5.75284C71.1046 6.4233 70.9739 7.01278 70.7125 7.52131C70.4512 8.02699 70.079 8.42187 69.5961 8.70597C69.1159 8.98722 68.5449 9.12784 67.883 9.12784ZM67.8915 7.72159C68.1926 7.72159 68.4441 7.63636 68.6458 7.46591C68.8475 7.29261 68.9995 7.05682 69.1017 6.75852C69.2069 6.46023 69.2594 6.12074 69.2594 5.74006C69.2594 5.35938 69.2069 5.01989 69.1017 4.72159C68.9995 4.4233 68.8475 4.1875 68.6458 4.0142C68.4441 3.84091 68.1926 3.75426 67.8915 3.75426C67.5875 3.75426 67.3319 3.84091 67.1245 4.0142C66.9199 4.1875 66.7651 4.4233 66.66 4.72159C66.5577 5.01989 66.5066 5.35938 66.5066 5.74006C66.5066 6.12074 66.5577 6.46023 66.66 6.75852C66.7651 7.05682 66.9199 7.29261 67.1245 7.46591C67.3319 7.63636 67.5875 7.72159 67.8915 7.72159ZM72.285 9V2.45455H74.0449V3.59659H74.1131C74.2324 3.19034 74.4327 2.88352 74.714 2.67614C74.9952 2.46591 75.3191 2.3608 75.6855 2.3608C75.7765 2.3608 75.8745 2.36648 75.9796 2.37784C76.0847 2.3892 76.177 2.40483 76.2566 2.42472V4.03551C76.1713 4.00994 76.0534 3.98722 75.9029 3.96733C75.7523 3.94744 75.6145 3.9375 75.4895 3.9375C75.2225 3.9375 74.9838 3.99574 74.7736 4.11222C74.5662 4.22585 74.4015 4.38494 74.2793 4.58949C74.16 4.79403 74.1003 5.02983 74.1003 5.29688V9H72.285ZM78.84 7.11648L78.8443 4.93892H79.1085L81.2051 2.45455H83.2889L80.4721 5.74432H80.0417L78.84 7.11648ZM77.1951 9V0.272727H79.0105V9H77.1951ZM81.286 9L79.3599 6.14915L80.5701 4.86648L83.4125 9H81.286ZM89.6255 4.32102L87.9636 4.4233C87.9352 4.28125 87.8741 4.15341 87.7804 4.03977C87.6866 3.9233 87.563 3.83097 87.4096 3.76278C87.2591 3.69176 87.0787 3.65625 86.8684 3.65625C86.5872 3.65625 86.35 3.71591 86.1568 3.83523C85.9636 3.9517 85.867 4.10795 85.867 4.30398C85.867 4.46023 85.9295 4.59233 86.0545 4.70028C86.1795 4.80824 86.394 4.89489 86.698 4.96023L87.8826 5.19886C88.519 5.32955 88.9934 5.53977 89.3059 5.82955C89.6184 6.11932 89.7747 6.5 89.7747 6.97159C89.7747 7.40057 89.6483 7.77699 89.3954 8.10085C89.1454 8.42472 88.8017 8.67756 88.3642 8.85938C87.9295 9.03835 87.4281 9.12784 86.8599 9.12784C85.9934 9.12784 85.3031 8.94744 84.7889 8.58665C84.2775 8.22301 83.9778 7.72869 83.8897 7.10369L85.6752 7.00994C85.7292 7.27415 85.8599 7.47585 86.0673 7.61506C86.2747 7.75142 86.5403 7.8196 86.8642 7.8196C87.1824 7.8196 87.438 7.75852 87.6312 7.63636C87.8272 7.51136 87.9267 7.35085 87.9295 7.15483C87.9267 6.99006 87.8571 6.85511 87.7207 6.75C87.5843 6.64205 87.3741 6.55966 87.09 6.50284L85.9565 6.27699C85.3173 6.14915 84.8414 5.92756 84.5289 5.61222C84.2193 5.29687 84.0645 4.89489 84.0645 4.40625C84.0645 3.9858 84.1781 3.62358 84.4054 3.3196C84.6355 3.01562 84.9579 2.78125 85.3727 2.61648C85.7903 2.4517 86.2789 2.36932 86.8386 2.36932C87.6653 2.36932 88.3159 2.54403 88.7903 2.89347C89.2676 3.2429 89.546 3.71875 89.6255 4.32102Z" fill="white"/>
</svg>
