<svg xmlns="http://www.w3.org/2000/svg" fill="none" viewBox="0 0 251 56">
  <defs/>
  <path fill="#fff" d="M31.417 51.879v-25.2L9.53 14 29 2.721l21.75 12.6V40.68l-19.333 11.2z"/>
  <path fill="#fff" d="M7.25 40.679V18.121l7.25 4.2v14l12.083 7v8.558L7.25 40.679z"/>
  <path fill="#fff" fill-rule="evenodd" d="M83.145 11.667v25.569h10.026v4.762H78V11.667h5.145zm27.992 9.153h4.991v21.178h-4.991V39.78c-2.047 1.884-4.248 2.827-6.603 2.827-2.974 0-5.433-1.059-7.376-3.175-1.929-2.16-2.893-4.856-2.893-8.088 0-3.175.964-5.82 2.893-7.937 1.929-2.116 4.343-3.174 7.243-3.174 2.503 0 4.748 1.014 6.736 3.044V20.82zM99.344 31.344c0 2.029.552 3.681 1.656 4.957 1.134 1.29 2.562 1.935 4.285 1.935 1.84 0 3.327-.623 4.461-1.87 1.133-1.29 1.7-2.928 1.7-4.914 0-1.986-.567-3.624-1.7-4.914-1.134-1.26-2.606-1.891-4.417-1.891-1.708 0-3.136.637-4.284 1.913-1.134 1.29-1.7 2.885-1.7 4.784zm26.203-22.01v13.943c1.987-2.03 4.24-3.044 6.757-3.044 2.901 0 5.315 1.065 7.244 3.196 1.929 2.116 2.893 4.755 2.893 7.915 0 3.261-.972 5.957-2.915 8.088-1.929 2.116-4.365 3.175-7.31 3.175-2.488 0-4.711-.943-6.669-2.827v2.218h-4.969V9.333h4.969zm11.815 22.227c0-2.03-.56-3.682-1.679-4.957-1.133-1.305-2.554-1.957-4.262-1.957-1.825 0-3.312.63-4.461 1.891-1.133 1.247-1.7 2.87-1.7 4.87 0 2.06.559 3.704 1.678 4.937 1.119 1.26 2.591 1.891 4.417 1.891 1.722 0 3.15-.63 4.284-1.891 1.148-1.276 1.723-2.87 1.723-4.784zm28.101 1h-15.414c.133 1.74.707 3.124 1.723 4.153 1.015 1.015 2.318 1.522 3.908 1.522 1.237 0 2.26-.29 3.07-.87.795-.58 1.7-1.652 2.716-3.218l4.196 2.305c-.648 1.087-1.332 2.019-2.054 2.794a10.88 10.88 0 01-2.318 1.914c-.825.5-1.716.866-2.672 1.098-.957.232-1.995.348-3.114.348-3.21 0-5.786-1.015-7.73-3.044-1.943-2.044-2.915-4.755-2.915-8.132 0-3.349.943-6.06 2.827-8.132 1.899-2.044 4.417-3.066 7.553-3.066 3.165 0 5.668.993 7.508 2.979 1.826 1.971 2.739 4.703 2.739 8.197l-.023 1.152zm-5.101-4c-.692-2.61-2.363-3.914-5.013-3.914-.604 0-1.17.09-1.7.271a4.886 4.886 0 00-1.447.783 4.99 4.99 0 00-1.115 1.229 5.67 5.67 0 00-.707 1.63h9.982zm13.681-19.228v32.665h-4.969V9.333h4.969zm9.441 0v13.944c1.988-2.03 4.24-3.044 6.758-3.044 2.9 0 5.315 1.065 7.243 3.196 1.929 2.116 2.893 4.755 2.893 7.915 0 3.261-.971 5.957-2.915 8.088-1.928 2.116-4.365 3.175-7.309 3.175-2.489 0-4.712-.943-6.67-2.827v2.218h-4.969V9.333h4.969zm11.815 22.228c0-2.03-.559-3.682-1.678-4.957-1.134-1.305-2.555-1.957-4.262-1.957-1.826 0-3.313.63-4.461 1.891-1.134 1.247-1.701 2.87-1.701 4.87 0 2.06.56 3.704 1.679 4.937 1.118 1.26 2.591 1.891 4.416 1.891 1.723 0 3.151-.63 4.285-1.891 1.148-1.276 1.722-2.87 1.722-4.784zm7.498-.304c0-3.059 1.111-5.66 3.334-7.806 2.224-2.146 4.932-3.218 8.127-3.218 3.21 0 5.933 1.08 8.171 3.24 2.209 2.16 3.313 4.812 3.313 7.958 0 3.174-1.112 5.834-3.335 7.98-2.238 2.13-4.983 3.196-8.237 3.196-3.224 0-5.926-1.087-8.105-3.262-2.179-2.145-3.268-4.841-3.268-8.088zm5.079.087c0 2.116.574 3.79 1.723 5.022 1.177 1.247 2.731 1.87 4.659 1.87 1.944 0 3.497-.616 4.66-1.848 1.163-1.232 1.745-2.877 1.745-4.936 0-2.058-.582-3.703-1.745-4.935-1.178-1.247-2.731-1.87-4.66-1.87-1.899 0-3.437.623-4.615 1.87-1.178 1.246-1.767 2.855-1.767 4.827zm26.887-.805l-7.729-9.72h5.918l4.793 6.176 4.88-6.175h6.095l-7.95 9.72 9.209 11.458h-5.918l-6.316-7.915-6.471 7.915h-6.073l9.562-11.459z" clip-rule="evenodd"/>
</svg>
