<svg width="48" height="49" viewBox="0 0 48 49" fill="none" xmlns="http://www.w3.org/2000/svg">
<path fill-rule="evenodd" clip-rule="evenodd" d="M31.05 3.53011L41.55 14.0301C41.6965 14.1622 41.8125 14.3244 41.8902 14.5057C41.9679 14.687 42.0054 14.883 42 15.0801V42.0801C41.9977 42.875 41.6809 43.6368 41.1188 44.1989C40.5567 44.761 39.7949 45.0778 39 45.0801H15C14.2051 45.0778 13.4433 44.761 12.8812 44.1989C12.3191 43.6368 12.0023 42.875 12 42.0801V36.0801H9C8.20463 36.0792 7.4421 35.7628 6.87969 35.2004C6.31728 34.638 6.00091 33.8755 6 33.0801V24.0801C6.00091 23.2847 6.31728 22.5222 6.87969 21.9598C7.4421 21.3974 8.20463 21.081 9 21.0801H12V6.08011C12.0023 5.28516 12.3191 4.52343 12.8812 3.96132C13.4433 3.39921 14.2051 3.0824 15 3.08011H30C30.1972 3.07468 30.3931 3.11211 30.5744 3.1898C30.7557 3.26749 30.918 3.3836 31.05 3.53011ZM38.4 15.0801L30 6.68011V15.0801H38.4ZM23.3958 24.0801H9V33.0801H23.4111L28.5 28.5801L23.3958 24.0801ZM15 42.0801H39V18.0801H30C29.2051 18.0778 28.4433 17.761 27.8812 17.1989C27.3191 16.6368 27.0023 15.875 27 15.0801V6.08011H15V21.0801H23.4133C24.1311 21.0801 24.825 21.338 25.3686 21.8067L30.4736 26.3192C30.7973 26.6021 31.0565 26.9512 31.2336 27.3429C31.4107 27.7346 31.5016 28.1598 31.5002 28.5898C31.4988 29.0197 31.4051 29.4443 31.2253 29.8348C31.0456 30.2254 30.7841 30.5728 30.4585 30.8535L25.3836 35.3411C24.8371 35.8163 24.1376 36.0787 23.4133 36.0801H15V42.0801ZM24 28.5801C24 29.4085 23.3284 30.0801 22.5 30.0801C21.6716 30.0801 21 29.4085 21 28.5801C21 27.7517 21.6716 27.0801 22.5 27.0801C23.3284 27.0801 24 27.7517 24 28.5801Z" fill="#D946EF"/>
</svg>
