<svg width="550" height="320" viewBox="0 0 550 320" fill="none" xmlns="http://www.w3.org/2000/svg">
<g clip-path="url(#clip0_3110_481604)">
<rect width="550" height="320" rx="16" fill="#F5F5F5"/>
<g opacity="0.1">
<g clip-path="url(#clip1_3110_481604)">
<rect x="-28" y="-42.588" width="228" height="217" fill="#F5F5F5"/>
<path d="M-28 -43.0001L200 -43.0001L200 170L-28 170L-28 -43.0001Z" fill="#F5F5F5"/>
<mask id="path-5-inside-1_3110_481604" fill="white">
<path d="M-19.5796 -14.088L253.943 -14.088V3.00713L-19.5796 3.00713L-19.5796 -14.088Z"/>
</mask>
<path d="M-18.5796 3.00713L-18.5796 -14.088H-20.5796L-20.5796 3.00713H-18.5796Z" fill="#171717" mask="url(#path-5-inside-1_3110_481604)"/>
<rect x="-0.559814" y="-13.588" width="87.6427" height="16.0951" rx="2.34919" stroke="#171717"/>
<rect x="90.9321" y="-13.588" width="70.6427" height="16.0951" rx="2.34919" stroke="#171717"/>
<rect x="-19.5796" y="9.4845" width="67.3699" height="48.5795" rx="7.77273" fill="#D4D4D4"/>
<rect x="52.3518" y="9.9845" width="66.3699" height="47.5795" rx="7.27273" stroke="#171717"/>
<rect x="123.283" y="9.4845" width="67.3699" height="48.5795" rx="7.77273" fill="#D4D4D4"/>
<rect x="-19.5796" y="64.0641" width="67.3699" height="48.5795" rx="7.77273" fill="#D4D4D4"/>
<rect x="52.3516" y="64.5641" width="66.3699" height="47.5795" rx="7.27273" stroke="#171717"/>
<rect x="123.283" y="64.0641" width="67.3699" height="48.5795" rx="7.77273" fill="#D4D4D4"/>
<rect x="-19.0796" y="119.144" width="66.3699" height="47.5795" rx="7.27273" stroke="#171717"/>
<rect x="51.8516" y="118.644" width="67.3699" height="48.5795" rx="7.77273" fill="#D4D4D4"/>
<rect x="123.283" y="118.644" width="67.3699" height="48.5795" rx="7.77273" fill="#D4D4D4"/>
</g>
<rect x="-27.5" y="-42.088" width="227" height="216" stroke="#171717"/>
</g>
<g opacity="0.1">
<g clip-path="url(#clip2_3110_481604)">
<rect x="568" y="450" width="228" height="217" transform="rotate(-180 568 450)" fill="#F5F5F5"/>
<path d="M568 450.412L340 450.412L340 237.412L568 237.412L568 450.412Z" fill="#F5F5F5"/>
<rect x="559.58" y="343.348" width="67.3699" height="48.5795" rx="7.77273" transform="rotate(-180 559.58 343.348)" fill="#D4D4D4"/>
<rect x="487.648" y="342.848" width="66.3699" height="47.5795" rx="7.27273" transform="rotate(-180 487.648 342.848)" stroke="#171717"/>
<rect x="416.717" y="343.348" width="67.3699" height="48.5795" rx="7.77273" transform="rotate(-180 416.717 343.348)" fill="#D4D4D4"/>
<rect x="559.08" y="288.269" width="66.3699" height="47.5795" rx="7.27273" transform="rotate(-180 559.08 288.269)" stroke="#171717"/>
<rect x="488.148" y="288.769" width="67.3699" height="48.5795" rx="7.77273" transform="rotate(-180 488.148 288.769)" fill="#D4D4D4"/>
<rect x="416.717" y="288.769" width="67.3699" height="48.5795" rx="7.77273" transform="rotate(-180 416.717 288.769)" fill="#D4D4D4"/>
</g>
<rect x="567.5" y="449.5" width="227" height="216" transform="rotate(-180 567.5 449.5)" stroke="#171717"/>
</g>
<rect x="275" y="20" width="108.726" height="20.4119" fill="#FB923C"/>
<rect x="275" y="20" width="108.726" height="20.4119" stroke="#171717" stroke-width="1.05666"/>
<path d="M289.045 32.7059H288.09V26.8055H291.775V27.6509H289.045V29.2908H291.471V30.1361H289.045V32.7059ZM294.373 30.3221V32.7059H293.418V26.8055H295.962C297.019 26.8055 297.67 27.4903 297.67 28.5807C297.67 29.4176 297.273 30.0009 296.52 30.2207L297.797 32.7059H296.732L295.548 30.3221H294.373ZM294.373 29.519H295.895C296.377 29.519 296.664 29.257 296.664 28.7836V28.3778C296.664 27.9045 296.377 27.6424 295.895 27.6424H294.373V29.519ZM301.664 32.8074C300.126 32.8074 299.12 31.7423 299.12 29.7557C299.12 27.7692 300.126 26.7041 301.664 26.7041C303.203 26.7041 304.209 27.7692 304.209 29.7557C304.209 31.7423 303.203 32.8074 301.664 32.8074ZM301.664 31.9536C302.577 31.9536 303.186 31.2942 303.186 30.2207V29.2908C303.186 28.2172 302.577 27.5579 301.664 27.5579C300.751 27.5579 300.143 28.2172 300.143 29.2908V30.2207C300.143 31.2942 300.751 31.9536 301.664 31.9536ZM309.424 32.7059L307.496 29.443L306.845 28.1919H306.82V32.7059H305.907V26.8055H306.972L308.9 30.0685L309.55 31.3196H309.576V26.8055H310.489V32.7059H309.424ZM313.683 32.7059V27.6509H311.925V26.8055H316.396V27.6509H314.638V32.7059H313.683ZM320.101 32.7059H317.532V31.9282H318.335V27.5832H317.532V26.8055H320.101V27.5832H319.29V31.9282H320.101V32.7059ZM325.588 32.7059H321.809V26.8055H325.588V27.6509H322.764V29.2908H325.326V30.1361H322.764V31.8606H325.588V32.7059ZM328.282 30.3221V32.7059H327.327V26.8055H329.872C330.928 26.8055 331.579 27.4903 331.579 28.5807C331.579 29.4176 331.182 30.0009 330.43 30.2207L331.706 32.7059H330.641L329.457 30.3221H328.282ZM328.282 29.519H329.804C330.286 29.519 330.573 29.257 330.573 28.7836V28.3778C330.573 27.9045 330.286 27.6424 329.804 27.6424H328.282V29.519ZM335.879 32.7059V26.8055H337.011L338.592 29.8065H338.643L340.224 26.8055H341.306V32.7059H340.393V28.1919H340.35L339.885 29.1471L338.592 31.5056L337.299 29.1471L336.834 28.1919H336.792V32.7059H335.879ZM345.553 32.8074C344.015 32.8074 343.009 31.7423 343.009 29.7557C343.009 27.7692 344.015 26.7041 345.553 26.7041C347.092 26.7041 348.097 27.7692 348.097 29.7557C348.097 31.7423 347.092 32.8074 345.553 32.8074ZM345.553 31.9536C346.466 31.9536 347.075 31.2942 347.075 30.2207V29.2908C347.075 28.2172 346.466 27.5579 345.553 27.5579C344.64 27.5579 344.031 28.2172 344.031 29.2908V30.2207C344.031 31.2942 344.64 31.9536 345.553 31.9536ZM349.796 32.7059V26.8055H351.884C353.388 26.8055 354.378 27.7861 354.378 29.7557C354.378 31.7254 353.388 32.7059 351.884 32.7059H349.796ZM350.751 31.8606H351.884C352.763 31.8606 353.355 31.2942 353.355 30.2291V29.2823C353.355 28.2172 352.763 27.6509 351.884 27.6509H350.751V31.8606ZM359.852 32.7059H356.073V26.8055H359.852V27.6509H357.029V29.2908H359.59V30.1361H357.029V31.8606H359.852V32.7059ZM364.947 32.7059H361.591V26.8055H362.547V31.8606H364.947V32.7059ZM368.199 32.8074C367.21 32.8074 366.534 32.4185 366.044 31.8099L366.703 31.1928C367.117 31.7 367.608 31.962 368.25 31.962C369.002 31.962 369.391 31.5901 369.391 31.0237C369.391 30.5672 369.155 30.3052 368.47 30.1699L367.946 30.077C366.805 29.8656 366.221 29.3331 366.221 28.3948C366.221 27.3465 367.033 26.7041 368.284 26.7041C369.172 26.7041 369.822 27.0253 370.279 27.6086L369.611 28.2003C369.307 27.803 368.884 27.5494 368.233 27.5494C367.557 27.5494 367.168 27.8284 367.168 28.344C367.168 28.8343 367.472 29.0457 368.106 29.1725L368.631 29.2823C369.806 29.5106 370.338 30.0347 370.338 30.973C370.338 32.0719 369.552 32.8074 368.199 32.8074Z" fill="#171717"/>
<g clip-path="url(#clip3_3110_481604)">
<rect x="275" y="46.9999" width="188" height="213" fill="#F5F5F5"/>
<mask id="path-30-inside-2_3110_481604" fill="white">
<path d="M275 46.9999H463V160H275V46.9999Z"/>
</mask>
<path d="M275 46.9999H463V160H275V46.9999Z" fill="#F5F5F5"/>
<path d="M463 159H275V161H463V159Z" fill="#171717" mask="url(#path-30-inside-2_3110_481604)"/>
<path d="M288.373 60.8728H289.312V64.5077C289.312 65.5052 289.658 66.0209 290.58 66.0209C291.501 66.0209 291.848 65.5052 291.848 64.5077V60.8728H292.786V64.3556C292.786 66.08 292.194 66.8746 290.58 66.8746C288.965 66.8746 288.373 66.08 288.373 64.3556V60.8728ZM296.476 66.8746C295.487 66.8746 294.811 66.4858 294.321 65.8771L294.98 65.2601C295.394 65.7673 295.884 66.0293 296.527 66.0293C297.279 66.0293 297.668 65.6574 297.668 65.091C297.668 64.6345 297.431 64.3725 296.747 64.2372L296.223 64.1442C295.081 63.9329 294.498 63.4003 294.498 62.462C294.498 61.4138 295.31 60.7714 296.561 60.7714C297.448 60.7714 298.099 61.0926 298.556 61.6759L297.888 62.2676C297.584 61.8703 297.161 61.6167 296.51 61.6167C295.834 61.6167 295.445 61.8956 295.445 62.4113C295.445 62.9016 295.749 63.1129 296.383 63.2397L296.907 63.3496C298.082 63.5778 298.615 64.102 298.615 65.0403C298.615 66.1392 297.829 66.8746 296.476 66.8746ZM304.047 66.7732H300.269V60.8728H304.047V61.7181H301.224V63.3581H303.785V64.2034H301.224V65.9279H304.047V66.7732ZM306.742 64.3894V66.7732H305.787V60.8728H308.331C309.388 60.8728 310.039 61.5575 310.039 62.648C310.039 63.4849 309.642 64.0681 308.889 64.2879L310.166 66.7732H309.101L307.917 64.3894H306.742ZM306.742 63.5863H308.264C308.746 63.5863 309.033 63.3242 309.033 62.8509V62.4451C309.033 61.9717 308.746 61.7097 308.264 61.7097H306.742V63.5863Z" fill="#171717"/>
<path d="M292.127 75.096H287.934V74.0562H292.127V75.096ZM295.894 75.096H291.701V74.0562H295.894V75.096ZM299.661 75.096H295.468V74.0562H299.661V75.096ZM303.429 75.096H299.236V74.0562H303.429V75.096ZM307.196 75.096H303.003V74.0562H307.196V75.096ZM310.963 75.096H306.77V74.0562H310.963V75.096ZM314.731 75.096H310.538V74.0562H314.731V75.096ZM318.498 75.096H314.305V74.0562H318.498V75.096ZM322.265 75.096H318.072V74.0562H322.265V75.096ZM326.033 75.096H321.84V74.0562H326.033V75.096ZM329.8 75.096H325.607V74.0562H329.8V75.096ZM333.567 75.096H329.374V74.0562H333.567V75.096ZM337.335 75.096H333.142V74.0562H337.335V75.096ZM341.102 75.096H336.909V74.0562H341.102V75.096ZM344.869 75.096H340.676V74.0562H344.869V75.096ZM348.637 75.096H344.444V74.0562H348.637V75.096ZM352.404 75.096H348.211V74.0562H352.404V75.096ZM356.171 75.096H351.978V74.0562H356.171V75.096ZM359.939 75.096H355.746V74.0562H359.939V75.096ZM363.706 75.096H359.513V74.0562H363.706V75.096ZM367.473 75.096H363.28V74.0562H367.473V75.096ZM371.241 75.096H367.048V74.0562H371.241V75.096ZM375.008 75.096H370.815V74.0562H375.008V75.096ZM378.775 75.096H374.582V74.0562H378.775V75.096ZM382.543 75.096H378.35V74.0562H382.543V75.096ZM386.31 75.096H382.117V74.0562H386.31V75.096ZM390.077 75.096H385.884V74.0562H390.077V75.096ZM393.844 75.096H389.652V74.0562H393.844V75.096ZM397.612 75.096H393.419V74.0562H397.612V75.096ZM401.379 75.096H397.186V74.0562H401.379V75.096ZM405.146 75.096H400.954V74.0562H405.146V75.096ZM408.914 75.096H404.721V74.0562H408.914V75.096ZM412.681 75.096H408.488V74.0562H412.681V75.096ZM416.448 75.096H412.256V74.0562H416.448V75.096ZM420.216 75.096H416.023V74.0562H420.216V75.096ZM423.983 75.096H419.79V74.0562H423.983V75.096ZM427.75 75.096H423.558V74.0562H427.75V75.096ZM431.518 75.096H427.325V74.0562H431.518V75.096ZM435.285 75.096H431.092V74.0562H435.285V75.096ZM439.052 75.096H434.86V74.0562H439.052V75.096ZM442.82 75.096H438.627V74.0562H442.82V75.096ZM446.587 75.096H442.394V74.0562H446.587V75.096ZM292.127 87.096H287.934V86.0562H292.127V87.096ZM295.894 87.096H291.701V86.0562H295.894V87.096ZM299.661 87.096H295.468V86.0562H299.661V87.096ZM303.429 87.096H299.236V86.0562H303.429V87.096ZM307.196 87.096H303.003V86.0562H307.196V87.096ZM310.963 87.096H306.77V86.0562H310.963V87.096ZM314.731 87.096H310.538V86.0562H314.731V87.096ZM318.498 87.096H314.305V86.0562H318.498V87.096ZM322.265 87.096H318.072V86.0562H322.265V87.096ZM326.033 87.096H321.84V86.0562H326.033V87.096ZM329.8 87.096H325.607V86.0562H329.8V87.096ZM333.567 87.096H329.374V86.0562H333.567V87.096ZM337.335 87.096H333.142V86.0562H337.335V87.096ZM341.102 87.096H336.909V86.0562H341.102V87.096ZM344.869 87.096H340.676V86.0562H344.869V87.096ZM348.637 87.096H344.444V86.0562H348.637V87.096ZM352.404 87.096H348.211V86.0562H352.404V87.096ZM356.171 87.096H351.978V86.0562H356.171V87.096ZM359.939 87.096H355.746V86.0562H359.939V87.096ZM363.706 87.096H359.513V86.0562H363.706V87.096ZM367.473 87.096H363.28V86.0562H367.473V87.096ZM371.241 87.096H367.048V86.0562H371.241V87.096ZM375.008 87.096H370.815V86.0562H375.008V87.096ZM378.775 87.096H374.582V86.0562H378.775V87.096ZM382.543 87.096H378.35V86.0562H382.543V87.096ZM386.31 87.096H382.117V86.0562H386.31V87.096ZM390.077 87.096H385.884V86.0562H390.077V87.096ZM393.844 87.096H389.652V86.0562H393.844V87.096ZM397.612 87.096H393.419V86.0562H397.612V87.096ZM401.379 87.096H397.186V86.0562H401.379V87.096ZM405.146 87.096H400.954V86.0562H405.146V87.096ZM408.914 87.096H404.721V86.0562H408.914V87.096ZM412.681 87.096H408.488V86.0562H412.681V87.096ZM416.448 87.096H412.256V86.0562H416.448V87.096ZM420.216 87.096H416.023V86.0562H420.216V87.096ZM423.983 87.096H419.79V86.0562H423.983V87.096ZM427.75 87.096H423.558V86.0562H427.75V87.096ZM431.518 87.096H427.325V86.0562H431.518V87.096ZM435.285 87.096H431.092V86.0562H435.285V87.096ZM439.052 87.096H434.86V86.0562H439.052V87.096ZM442.82 87.096H438.627V86.0562H442.82V87.096ZM292.127 100.096H287.934V99.0562H292.127V100.096ZM295.894 100.096H291.701V99.0562H295.894V100.096ZM299.661 100.096H295.468V99.0562H299.661V100.096Z" fill="#171717"/>
<rect x="288.209" y="111.472" width="160.613" height="35.2266" rx="4.75498" stroke="#171717" stroke-width="1.05666"/>
<rect x="295.68" y="118.684" width="21.1332" height="21.1332" rx="4.16199" transform="rotate(-0.130627 295.68 118.684)" fill="#FB923C"/>
<g style="mix-blend-mode:multiply">
<path fill-rule="evenodd" clip-rule="evenodd" d="M304.039 128.34C304.778 128.338 305.375 127.738 305.374 126.999C305.372 126.26 304.772 125.663 304.033 125.664C303.294 125.666 302.697 126.266 302.698 127.005C302.7 127.744 303.3 128.342 304.039 128.34ZM307.694 129.006C307.86 128.706 308.289 128.698 308.466 128.991L310.354 132.122C310.481 132.333 310.756 132.401 310.966 132.274C311.177 132.147 311.245 131.873 311.118 131.662L309.23 128.531C308.698 127.649 307.411 127.674 306.913 128.575L306.083 130.078C305.929 130.356 305.543 130.389 305.345 130.142L305.073 129.804C304.543 129.144 303.541 129.136 303.001 129.788L301.474 131.628C301.317 131.817 301.343 132.098 301.533 132.256C301.722 132.413 302.004 132.387 302.161 132.197L303.687 130.357C303.867 130.14 304.201 130.143 304.378 130.362L304.65 130.7C305.245 131.442 306.403 131.342 306.863 130.509L307.694 129.006Z" fill="#171717"/>
</g>
<path d="M324.503 126.328C323.235 126.328 322.509 125.432 322.509 124.029C322.509 122.625 323.235 121.729 324.503 121.729C325.383 121.729 325.941 122.161 326.203 122.811L325.442 123.166C325.315 122.761 325.002 122.499 324.503 122.499C323.827 122.499 323.481 122.964 323.481 123.64V124.426C323.481 125.102 323.827 125.567 324.503 125.567C325.036 125.567 325.349 125.28 325.535 124.84L326.236 125.212C325.949 125.931 325.349 126.328 324.503 126.328ZM328.789 126.328C327.563 126.328 326.768 125.432 326.768 124.029C326.768 122.625 327.563 121.729 328.789 121.729C330.014 121.729 330.809 122.625 330.809 124.029C330.809 125.432 330.014 126.328 328.789 126.328ZM328.789 125.567C329.414 125.567 329.837 125.178 329.837 124.401V123.657C329.837 122.879 329.414 122.49 328.789 122.49C328.163 122.49 327.74 122.879 327.74 123.657V124.401C327.74 125.178 328.163 125.567 328.789 125.567ZM333.807 126.227H332.725L331.228 121.831H332.141L332.809 123.834L333.257 125.373H333.308L333.756 123.834L334.441 121.831H335.32L333.807 126.227ZM337.754 126.328C336.503 126.328 335.733 125.432 335.733 124.029C335.733 122.625 336.503 121.729 337.754 121.729C339.047 121.729 339.706 122.702 339.706 123.919V124.265H336.689V124.409C336.689 125.085 337.103 125.567 337.847 125.567C338.388 125.567 338.751 125.314 339.005 124.908L339.546 125.44C339.216 125.973 338.574 126.328 337.754 126.328ZM337.754 122.448C337.12 122.448 336.689 122.921 336.689 123.598V123.657H338.734V123.572C338.734 122.896 338.362 122.448 337.754 122.448ZM341.648 126.227H340.726V121.831H341.648V122.676H341.69C341.817 122.228 342.197 121.831 342.899 121.831H343.144V122.718H342.78C342.054 122.718 341.648 122.964 341.648 123.42V126.227ZM346.078 124.122H343.736V123.183H346.078V124.122ZM347.729 121.045C347.349 121.045 347.18 120.842 347.18 120.563V120.419C347.18 120.14 347.349 119.937 347.729 119.937C348.11 119.937 348.27 120.14 348.27 120.419V120.563C348.27 120.842 348.11 121.045 347.729 121.045ZM347.264 126.227V121.831H348.186V126.227H347.264ZM350.423 126.227H349.502V121.831H350.423V122.558H350.465C350.643 122.101 350.972 121.729 351.64 121.729C352.232 121.729 352.731 122.017 352.942 122.625H352.967C353.128 122.135 353.585 121.729 354.295 121.729C355.165 121.729 355.681 122.355 355.681 123.437V126.227H354.76V123.547C354.76 122.871 354.506 122.524 353.948 122.524C353.483 122.524 353.052 122.769 353.052 123.276V126.227H352.131V123.547C352.131 122.862 351.869 122.524 351.328 122.524C350.871 122.524 350.423 122.769 350.423 123.276V126.227ZM360.692 126.227H360.177C359.695 126.227 359.441 125.922 359.382 125.491H359.34C359.171 126.041 358.697 126.328 358.055 126.328C357.15 126.328 356.635 125.812 356.635 125.018C356.635 124.147 357.286 123.699 358.511 123.699H359.306V123.327C359.306 122.795 359.019 122.482 358.402 122.482C357.886 122.482 357.573 122.735 357.353 123.082L356.804 122.583C357.091 122.093 357.607 121.729 358.461 121.729C359.593 121.729 360.227 122.287 360.227 123.268V125.474H360.692V126.227ZM358.317 125.626C358.883 125.626 359.306 125.356 359.306 124.925V124.291H358.528C357.886 124.291 357.573 124.502 357.573 124.882V125.035C357.573 125.423 357.861 125.626 358.317 125.626ZM365.45 126.641C365.45 127.554 364.799 128.019 363.218 128.019C361.781 128.019 361.223 127.63 361.223 126.962C361.223 126.48 361.511 126.218 361.976 126.117V126.024C361.655 125.922 361.477 125.677 361.477 125.347C361.477 124.891 361.832 124.671 362.255 124.57V124.536C361.739 124.291 361.452 123.826 361.452 123.234C361.452 122.338 362.086 121.729 363.202 121.729C363.497 121.729 363.768 121.772 363.996 121.865V121.746C363.996 121.357 364.182 121.121 364.571 121.121H365.247V121.865H364.351V122.042C364.748 122.304 364.968 122.727 364.968 123.234C364.968 124.122 364.326 124.722 363.21 124.722C362.999 124.722 362.796 124.697 362.635 124.654C362.415 124.73 362.213 124.874 362.213 125.094C362.213 125.331 362.441 125.423 362.83 125.423H363.912C364.994 125.423 365.45 125.88 365.45 126.641ZM364.588 126.742C364.588 126.438 364.385 126.243 363.785 126.243H362.297C362.094 126.362 361.993 126.539 361.993 126.751C361.993 127.106 362.255 127.351 362.939 127.351H363.514C364.233 127.351 364.588 127.148 364.588 126.742ZM363.21 124.054C363.751 124.054 364.064 123.809 364.064 123.31V123.141C364.064 122.642 363.751 122.397 363.21 122.397C362.669 122.397 362.356 122.642 362.356 123.141V123.31C362.356 123.809 362.669 124.054 363.21 124.054ZM367.811 126.328C366.56 126.328 365.79 125.432 365.79 124.029C365.79 122.625 366.56 121.729 367.811 121.729C369.104 121.729 369.763 122.702 369.763 123.919V124.265H366.746V124.409C366.746 125.085 367.16 125.567 367.904 125.567C368.445 125.567 368.808 125.314 369.062 124.908L369.603 125.44C369.273 125.973 368.631 126.328 367.811 126.328ZM367.811 122.448C367.177 122.448 366.746 122.921 366.746 123.598V123.657H368.791V123.572C368.791 122.896 368.419 122.448 367.811 122.448ZM371.201 126.328C370.787 126.328 370.584 126.083 370.584 125.753V125.626C370.584 125.297 370.787 125.052 371.201 125.052C371.615 125.052 371.818 125.297 371.818 125.626V125.753C371.818 126.083 371.615 126.328 371.201 126.328ZM373.087 127.165V121.831H374.008V126.818C374.008 127.495 373.678 127.917 372.934 127.917H372.402V127.165H373.087ZM373.552 121.045C373.171 121.045 373.002 120.842 373.002 120.563V120.419C373.002 120.14 373.171 119.937 373.552 119.937C373.932 119.937 374.093 120.14 374.093 120.419V120.563C374.093 120.842 373.932 121.045 373.552 121.045ZM375.324 127.917V121.831H376.245V122.558H376.287C376.473 122.034 376.938 121.729 377.522 121.729C378.629 121.729 379.271 122.583 379.271 124.029C379.271 125.474 378.629 126.328 377.522 126.328C376.938 126.328 376.473 126.015 376.287 125.5H376.245V127.917H375.324ZM377.243 125.533C377.877 125.533 378.299 125.085 378.299 124.409V123.648C378.299 122.972 377.877 122.524 377.243 122.524C376.685 122.524 376.245 122.828 376.245 123.276V124.781C376.245 125.229 376.685 125.533 377.243 125.533ZM384.181 126.641C384.181 127.554 383.53 128.019 381.949 128.019C380.512 128.019 379.954 127.63 379.954 126.962C379.954 126.48 380.242 126.218 380.707 126.117V126.024C380.386 125.922 380.208 125.677 380.208 125.347C380.208 124.891 380.563 124.671 380.986 124.57V124.536C380.47 124.291 380.183 123.826 380.183 123.234C380.183 122.338 380.817 121.729 381.933 121.729C382.228 121.729 382.499 121.772 382.727 121.865V121.746C382.727 121.357 382.913 121.121 383.302 121.121H383.978V121.865H383.082V122.042C383.479 122.304 383.699 122.727 383.699 123.234C383.699 124.122 383.057 124.722 381.941 124.722C381.73 124.722 381.527 124.697 381.366 124.654C381.146 124.73 380.943 124.874 380.943 125.094C380.943 125.331 381.172 125.423 381.561 125.423H382.643C383.725 125.423 384.181 125.88 384.181 126.641ZM383.319 126.742C383.319 126.438 383.116 126.243 382.516 126.243H381.028C380.825 126.362 380.724 126.539 380.724 126.751C380.724 127.106 380.986 127.351 381.67 127.351H382.245C382.964 127.351 383.319 127.148 383.319 126.742ZM381.941 124.054C382.482 124.054 382.795 123.809 382.795 123.31V123.141C382.795 122.642 382.482 122.397 381.941 122.397C381.4 122.397 381.087 122.642 381.087 123.141V123.31C381.087 123.809 381.4 124.054 381.941 124.054Z" fill="#171717"/>
<path d="M325.188 139.227H322.618V138.449H323.421V134.104H322.618V133.326H325.188V134.104H324.377V138.449H325.188V139.227ZM326.389 139.227V133.326H327.521L329.102 136.327H329.153L330.734 133.326H331.816V139.227H330.903V134.713H330.86L330.396 135.668L329.102 138.026L327.809 135.668L327.344 134.713H327.302V139.227H326.389ZM337.957 139.227H336.959L336.427 137.629H334.22L333.705 139.227H332.733L334.744 133.326H335.945L337.957 139.227ZM336.19 136.809L335.345 134.205H335.302L334.449 136.809H336.19ZM342.484 139.227V138.331H342.451C342.332 138.897 341.757 139.328 340.861 139.328C339.458 139.328 338.427 138.254 338.427 136.276C338.427 134.307 339.458 133.225 341.005 133.225C342.062 133.225 342.797 133.723 343.203 134.552L342.425 135.008C342.197 134.459 341.724 134.079 341.005 134.079C340.075 134.079 339.45 134.713 339.45 135.795V136.758C339.45 137.84 340.075 138.474 341.005 138.474C341.749 138.474 342.4 138.094 342.4 137.358V136.902H341.183V136.082H343.321V139.227H342.484ZM348.428 139.227H344.649V133.326H348.428V134.171H345.604V135.811H348.166V136.657H345.604V138.381H348.428V139.227Z" fill="#737373"/>
<path d="M295.727 182.453V176.553H296.86L298.44 179.554H298.491L300.072 176.553H301.154V182.453H300.241V177.939H300.199L299.734 178.894L298.44 181.253L297.147 178.894L296.682 177.939H296.64V182.453H295.727ZM304.269 182.555C303.043 182.555 302.248 181.659 302.248 180.255C302.248 178.852 303.043 177.956 304.269 177.956C305.494 177.956 306.289 178.852 306.289 180.255C306.289 181.659 305.494 182.555 304.269 182.555ZM304.269 181.794C304.894 181.794 305.317 181.405 305.317 180.627V179.883C305.317 179.106 304.894 178.717 304.269 178.717C303.643 178.717 303.22 179.106 303.22 179.883V180.627C303.22 181.405 303.643 181.794 304.269 181.794ZM310.08 182.453V181.726H310.038C309.852 182.242 309.387 182.555 308.803 182.555C307.696 182.555 307.054 181.701 307.054 180.255C307.054 178.81 307.696 177.956 308.803 177.956C309.387 177.956 309.852 178.26 310.038 178.784H310.08V176.198H311.001V182.453H310.08ZM309.082 181.76C309.64 181.76 310.08 181.456 310.08 181.008V179.503C310.08 179.055 309.64 178.751 309.082 178.751C308.448 178.751 308.026 179.199 308.026 179.875V180.636C308.026 181.312 308.448 181.76 309.082 181.76ZM314.043 182.555C312.792 182.555 312.022 181.659 312.022 180.255C312.022 178.852 312.792 177.956 314.043 177.956C315.336 177.956 315.995 178.928 315.995 180.145V180.492H312.978V180.636C312.978 181.312 313.392 181.794 314.136 181.794C314.677 181.794 315.04 181.54 315.294 181.134L315.835 181.667C315.505 182.2 314.863 182.555 314.043 182.555ZM314.043 178.675C313.409 178.675 312.978 179.148 312.978 179.824V179.883H315.023V179.799C315.023 179.123 314.651 178.675 314.043 178.675ZM318.546 182.453H317.954C317.328 182.453 317.015 182.107 317.015 181.54V176.198H317.937V181.701H318.546V182.453ZM323.63 180.348H321.288V179.41H323.63V180.348ZM330.238 182.453H326.882V176.553H327.837V181.608H330.238V182.453ZM334.572 182.453H331.216V176.553H332.171V181.608H334.572V182.453ZM340.382 182.453H339.384L338.852 180.855H336.645L336.13 182.453H335.157L337.169 176.553H338.37L340.382 182.453ZM338.615 180.035L337.77 177.432H337.727L336.874 180.035H338.615ZM341.296 182.453V176.553H342.428L344.009 179.554H344.06L345.641 176.553H346.723V182.453H345.81V177.939H345.767L345.302 178.894L344.009 181.253L342.716 178.894L342.251 177.939H342.208V182.453H341.296ZM352.863 182.453H351.866L351.333 180.855H349.127L348.611 182.453H347.639L349.651 176.553H350.852L352.863 182.453ZM351.097 180.035L350.251 177.432H350.209L349.355 180.035H351.097ZM356.663 178.979H357.263C357.99 178.979 358.336 178.632 358.336 178.15V178.091C358.336 177.559 357.964 177.254 357.398 177.254C356.84 177.254 356.451 177.525 356.181 177.973L355.547 177.423C355.902 176.908 356.443 176.451 357.423 176.451C358.539 176.451 359.342 177.018 359.342 177.973C359.342 178.725 358.827 179.19 358.21 179.325V179.368C358.877 179.494 359.444 179.976 359.444 180.83C359.444 181.861 358.598 182.555 357.339 182.555C356.24 182.555 355.691 182.039 355.319 181.498L356.02 180.948C356.308 181.422 356.654 181.752 357.339 181.752C358.057 181.752 358.455 181.388 358.455 180.779V180.72C358.455 180.12 358.032 179.79 357.288 179.79H356.663V178.979Z" fill="#171717"/>
<path d="M299.446 197.059H295.254V196.019H299.446V197.059ZM303.214 197.059H299.021V196.019H303.214V197.059ZM306.981 197.059H302.788V196.019H306.981V197.059ZM310.748 197.059H306.556V196.019H310.748V197.059ZM314.516 197.059H310.323V196.019H314.516V197.059ZM318.283 197.059H314.09V196.019H318.283V197.059ZM322.05 197.059H317.858V196.019H322.05V197.059ZM325.818 197.059H321.625V196.019H325.818V197.059ZM329.585 197.059H325.392V196.019H329.585V197.059ZM333.352 197.059H329.16V196.019H333.352V197.059ZM337.12 197.059H332.927V196.019H337.12V197.059ZM340.887 197.059H336.694V196.019H340.887V197.059ZM344.654 197.059H340.462V196.019H344.654V197.059ZM348.422 197.059H344.229V196.019H348.422V197.059ZM352.189 197.059H347.996V196.019H352.189V197.059ZM355.956 197.059H351.764V196.019H355.956V197.059ZM359.724 197.059H355.531V196.019H359.724V197.059ZM363.491 197.059H359.298V196.019H363.491V197.059ZM367.258 197.059H363.066V196.019H367.258V197.059ZM371.026 197.059H366.833V196.019H371.026V197.059ZM374.793 197.059H370.6V196.019H374.793V197.059ZM378.56 197.059H374.368V196.019H378.56V197.059ZM382.328 197.059H378.135V196.019H382.328V197.059ZM386.095 197.059H381.902V196.019H386.095V197.059ZM389.862 197.059H385.669V196.019H389.862V197.059ZM393.63 197.059H389.437V196.019H393.63V197.059ZM397.397 197.059H393.204V196.019H397.397V197.059ZM401.164 197.059H396.971V196.019H401.164V197.059ZM404.932 197.059H400.739V196.019H404.932V197.059ZM408.699 197.059H404.506V196.019H408.699V197.059ZM412.466 197.059H408.273V196.019H412.466V197.059ZM416.234 197.059H412.041V196.019H416.234V197.059ZM420.001 197.059H415.808V196.019H420.001V197.059ZM423.768 197.059H419.575V196.019H423.768V197.059ZM427.536 197.059H423.343V196.019H427.536V197.059ZM431.303 197.059H427.11V196.019H431.303V197.059ZM435.07 197.059H430.877V196.019H435.07V197.059ZM299.446 209.059H295.254V208.019H299.446V209.059ZM303.214 209.059H299.021V208.019H303.214V209.059ZM306.981 209.059H302.788V208.019H306.981V209.059ZM310.748 209.059H306.556V208.019H310.748V209.059ZM314.516 209.059H310.323V208.019H314.516V209.059ZM318.283 209.059H314.09V208.019H318.283V209.059ZM322.05 209.059H317.858V208.019H322.05V209.059ZM325.818 209.059H321.625V208.019H325.818V209.059ZM329.585 209.059H325.392V208.019H329.585V209.059ZM333.352 209.059H329.16V208.019H333.352V209.059ZM337.12 209.059H332.927V208.019H337.12V209.059ZM340.887 209.059H336.694V208.019H340.887V209.059ZM344.654 209.059H340.462V208.019H344.654V209.059ZM348.422 209.059H344.229V208.019H348.422V209.059ZM352.189 209.059H347.996V208.019H352.189V209.059ZM355.956 209.059H351.764V208.019H355.956V209.059ZM359.724 209.059H355.531V208.019H359.724V209.059ZM363.491 209.059H359.298V208.019H363.491V209.059ZM367.258 209.059H363.066V208.019H367.258V209.059ZM371.026 209.059H366.833V208.019H371.026V209.059ZM374.793 209.059H370.6V208.019H374.793V209.059ZM378.56 209.059H374.368V208.019H378.56V209.059ZM382.328 209.059H378.135V208.019H382.328V209.059ZM386.095 209.059H381.902V208.019H386.095V209.059ZM389.862 209.059H385.669V208.019H389.862V209.059ZM393.63 209.059H389.437V208.019H393.63V209.059ZM397.397 209.059H393.204V208.019H397.397V209.059ZM401.164 209.059H396.971V208.019H401.164V209.059ZM404.932 209.059H400.739V208.019H404.932V209.059ZM408.699 209.059H404.506V208.019H408.699V209.059ZM412.466 209.059H408.273V208.019H412.466V209.059ZM416.234 209.059H412.041V208.019H416.234V209.059ZM420.001 209.059H415.808V208.019H420.001V209.059ZM423.768 209.059H419.575V208.019H423.768V209.059ZM427.536 209.059H423.343V208.019H427.536V209.059ZM431.303 209.059H427.11V208.019H431.303V209.059ZM435.07 209.059H430.877V208.019H435.07V209.059ZM438.838 209.059H434.645V208.019H438.838V209.059ZM442.605 209.059H438.412V208.019H442.605V209.059ZM299.446 222.059H295.254V221.019H299.446V222.059ZM303.214 222.059H299.021V221.019H303.214V222.059ZM306.981 222.059H302.788V221.019H306.981V222.059ZM310.748 222.059H306.556V221.019H310.748V222.059ZM314.516 222.059H310.323V221.019H314.516V222.059ZM318.283 222.059H314.09V221.019H318.283V222.059ZM322.05 222.059H317.858V221.019H322.05V222.059ZM325.818 222.059H321.625V221.019H325.818V222.059ZM329.585 222.059H325.392V221.019H329.585V222.059ZM333.352 222.059H329.16V221.019H333.352V222.059ZM337.12 222.059H332.927V221.019H337.12V222.059ZM340.887 222.059H336.694V221.019H340.887V222.059ZM344.654 222.059H340.462V221.019H344.654V222.059ZM348.422 222.059H344.229V221.019H348.422V222.059ZM352.189 222.059H347.996V221.019H352.189V222.059ZM355.956 222.059H351.764V221.019H355.956V222.059ZM359.724 222.059H355.531V221.019H359.724V222.059ZM363.491 222.059H359.298V221.019H363.491V222.059ZM367.258 222.059H363.066V221.019H367.258V222.059ZM371.026 222.059H366.833V221.019H371.026V222.059ZM374.793 222.059H370.6V221.019H374.793V222.059ZM378.56 222.059H374.368V221.019H378.56V222.059ZM382.328 222.059H378.135V221.019H382.328V222.059ZM386.095 222.059H381.902V221.019H386.095V222.059ZM389.862 222.059H385.669V221.019H389.862V222.059ZM393.63 222.059H389.437V221.019H393.63V222.059ZM397.397 222.059H393.204V221.019H397.397V222.059ZM401.164 222.059H396.971V221.019H401.164V222.059ZM404.932 222.059H400.739V221.019H404.932V222.059ZM408.699 222.059H404.506V221.019H408.699V222.059Z" fill="#171717"/>
<rect x="295" y="230.121" width="94.0203" height="21.1332" rx="4.16199" transform="rotate(-0.130627 295 230.121)" fill="#FB923C"/>
<path d="M304.626 240.824L304.626 243.08L303.722 243.08L303.722 237.496L306.13 237.496C307.13 237.496 307.746 238.144 307.746 239.176C307.746 239.968 307.37 240.52 306.658 240.728L307.866 243.08L306.858 243.08L305.738 240.824L304.626 240.824ZM304.626 240.064L306.066 240.064C306.522 240.064 306.794 239.816 306.794 239.368L306.794 238.984C306.794 238.536 306.522 238.288 306.066 238.288L304.626 238.288L304.626 240.064ZM310.415 243.176C309.231 243.176 308.503 242.328 308.503 241C308.503 239.672 309.231 238.824 310.415 238.824C311.639 238.824 312.263 239.744 312.263 240.896L312.263 241.224L309.407 241.224L309.407 241.36C309.407 242 309.799 242.456 310.503 242.456C311.015 242.456 311.359 242.216 311.599 241.832L312.111 242.336C311.799 242.84 311.191 243.176 310.415 243.176ZM310.415 239.504C309.815 239.504 309.407 239.952 309.407 240.592L309.407 240.648L311.343 240.648L311.343 240.568C311.343 239.928 310.991 239.504 310.415 239.504ZM313.909 243.08L312.773 238.92L313.621 238.92L314.045 240.664L314.421 242.24L314.445 242.24L314.877 240.664L315.381 238.92L316.165 238.92L316.677 240.664L317.117 242.24L317.141 242.24L317.509 240.664L317.941 238.92L318.749 238.92L317.629 243.08L316.645 243.08L316.101 241.184L315.765 240.016L315.749 240.016L315.421 241.184L314.869 243.08L313.909 243.08ZM320.452 243.08L319.58 243.08L319.58 238.92L320.452 238.92L320.452 239.72L320.492 239.72C320.612 239.296 320.972 238.92 321.636 238.92L321.868 238.92L321.868 239.76L321.524 239.76C320.836 239.76 320.452 239.992 320.452 240.424L320.452 243.08ZM323.083 238.176C322.723 238.176 322.563 237.984 322.563 237.72L322.563 237.584C322.563 237.32 322.723 237.128 323.083 237.128C323.443 237.128 323.595 237.32 323.595 237.584L323.595 237.72C323.595 237.984 323.443 238.176 323.083 238.176ZM322.643 243.08L322.643 238.92L323.515 238.92L323.515 243.08L322.643 243.08ZM326.672 243.08L325.912 243.08C325.312 243.08 324.992 242.744 324.992 242.176L324.992 239.632L324.344 239.632L324.344 238.92L324.696 238.92C324.984 238.92 325.08 238.8 325.08 238.512L325.08 237.784L325.864 237.784L325.864 238.92L326.736 238.92L326.736 239.632L325.864 239.632L325.864 242.368L326.672 242.368L326.672 243.08ZM329.282 243.176C328.098 243.176 327.37 242.328 327.37 241C327.37 239.672 328.098 238.824 329.282 238.824C330.506 238.824 331.13 239.744 331.13 240.896L331.13 241.224L328.274 241.224L328.274 241.36C328.274 242 328.666 242.456 329.37 242.456C329.882 242.456 330.226 242.216 330.466 241.832L330.978 242.336C330.666 242.84 330.058 243.176 329.282 243.176ZM329.282 239.504C328.682 239.504 328.274 239.952 328.274 240.592L328.274 240.648L330.21 240.648L330.21 240.568C330.21 239.928 329.858 239.504 329.282 239.504ZM335.898 243.08L335.138 243.08C334.538 243.08 334.218 242.744 334.218 242.176L334.218 239.632L333.57 239.632L333.57 238.92L333.922 238.92C334.21 238.92 334.306 238.8 334.306 238.512L334.306 237.784L335.09 237.784L335.09 238.92L335.962 238.92L335.962 239.632L335.09 239.632L335.09 242.368L335.898 242.368L335.898 243.08ZM336.908 243.08L336.908 237.16L337.78 237.16L337.78 239.608L337.82 239.608C337.996 239.16 338.348 238.824 338.988 238.824C339.836 238.824 340.34 239.416 340.34 240.44L340.34 243.08L339.468 243.08L339.468 240.544C339.468 239.904 339.22 239.576 338.684 239.576C338.228 239.576 337.78 239.808 337.78 240.288L337.78 243.08L336.908 243.08ZM343.181 243.176C341.997 243.176 341.269 242.328 341.269 241C341.269 239.672 341.997 238.824 343.181 238.824C344.405 238.824 345.029 239.744 345.029 240.896L345.029 241.224L342.173 241.224L342.173 241.36C342.173 242 342.565 242.456 343.269 242.456C343.781 242.456 344.125 242.216 344.365 241.832L344.877 242.336C344.565 242.84 343.957 243.176 343.181 243.176ZM343.181 239.504C342.581 239.504 342.173 239.952 342.173 240.592L342.173 240.648L344.109 240.648L344.109 240.568C344.109 239.928 343.757 239.504 343.181 239.504ZM348.757 243.08L347.885 243.08L347.885 238.92L348.757 238.92L348.757 239.72L348.797 239.72C348.917 239.296 349.277 238.92 349.941 238.92L350.173 238.92L350.173 239.76L349.829 239.76C349.141 239.76 348.757 239.992 348.757 240.424L348.757 243.08ZM352.54 243.176C351.356 243.176 350.628 242.328 350.628 241C350.628 239.672 351.356 238.824 352.54 238.824C353.764 238.824 354.388 239.744 354.388 240.896L354.388 241.224L351.532 241.224L351.532 241.36C351.532 242 351.924 242.456 352.628 242.456C353.14 242.456 353.484 242.216 353.724 241.832L354.236 242.336C353.924 242.84 353.316 243.176 352.54 243.176ZM352.54 239.504C351.94 239.504 351.532 239.952 351.532 240.592L351.532 240.648L353.468 240.648L353.468 240.568C353.468 239.928 353.116 239.504 352.54 239.504ZM356.673 243.176C355.889 243.176 355.377 242.88 354.985 242.392L355.545 241.88C355.849 242.248 356.225 242.472 356.721 242.472C357.225 242.472 357.481 242.264 357.481 241.912C357.481 241.648 357.321 241.448 356.889 241.392L356.505 241.344C355.657 241.24 355.137 240.872 355.137 240.104C355.137 239.296 355.769 238.824 356.681 238.824C357.433 238.824 357.857 239.072 358.233 239.488L357.697 240C357.481 239.744 357.129 239.528 356.681 239.528C356.201 239.528 355.977 239.736 355.977 240.048C355.977 240.368 356.177 240.512 356.617 240.584L357.001 240.632C357.913 240.768 358.321 241.168 358.321 241.84C358.321 242.64 357.673 243.176 356.673 243.176ZM359.307 244.68L359.307 238.92L360.179 238.92L360.179 239.608L360.219 239.608C360.395 239.112 360.835 238.824 361.387 238.824C362.435 238.824 363.043 239.632 363.043 241C363.043 242.368 362.435 243.176 361.387 243.176C360.835 243.176 360.395 242.88 360.219 242.392L360.179 242.392L360.179 244.68L359.307 244.68ZM361.123 242.424C361.723 242.424 362.123 242 362.123 241.36L362.123 240.64C362.123 240 361.723 239.576 361.123 239.576C360.595 239.576 360.179 239.864 360.179 240.288L360.179 241.712C360.179 242.136 360.595 242.424 361.123 242.424ZM365.673 243.176C364.513 243.176 363.761 242.328 363.761 241C363.761 239.672 364.513 238.824 365.673 238.824C366.833 238.824 367.585 239.672 367.585 241C367.585 242.328 366.833 243.176 365.673 243.176ZM365.673 242.456C366.265 242.456 366.665 242.088 366.665 241.352L366.665 240.648C366.665 239.912 366.265 239.544 365.673 239.544C365.081 239.544 364.681 239.912 364.681 240.648L364.681 241.352C364.681 242.088 365.081 242.456 365.673 242.456ZM369.429 243.08L368.557 243.08L368.557 238.92L369.429 238.92L369.429 239.608L369.469 239.608C369.645 239.16 369.997 238.824 370.637 238.824C371.485 238.824 371.989 239.416 371.989 240.44L371.989 243.08L371.117 243.08L371.117 240.552C371.117 239.904 370.869 239.576 370.333 239.576C369.877 239.576 369.429 239.808 369.429 240.296L369.429 243.08ZM374.517 243.176C373.733 243.176 373.221 242.88 372.829 242.392L373.389 241.88C373.693 242.248 374.069 242.472 374.565 242.472C375.069 242.472 375.325 242.264 375.325 241.912C375.325 241.648 375.165 241.448 374.733 241.392L374.349 241.344C373.501 241.24 372.981 240.872 372.981 240.104C372.981 239.296 373.613 238.824 374.525 238.824C375.277 238.824 375.701 239.072 376.077 239.488L375.541 240C375.325 239.744 374.973 239.528 374.525 239.528C374.045 239.528 373.821 239.736 373.821 240.048C373.821 240.368 374.021 240.512 374.461 240.584L374.845 240.632C375.757 240.768 376.165 241.168 376.165 241.84C376.165 242.64 375.517 243.176 374.517 243.176ZM378.782 243.176C377.598 243.176 376.87 242.328 376.87 241C376.87 239.672 377.598 238.824 378.782 238.824C380.006 238.824 380.63 239.744 380.63 240.896L380.63 241.224L377.774 241.224L377.774 241.36C377.774 242 378.166 242.456 378.87 242.456C379.382 242.456 379.726 242.216 379.966 241.832L380.478 242.336C380.166 242.84 379.558 243.176 378.782 243.176ZM378.782 239.504C378.182 239.504 377.774 239.952 377.774 240.592L377.774 240.648L379.71 240.648L379.71 240.568C379.71 239.928 379.358 239.504 378.782 239.504Z" fill="#171717"/>
</g>
<rect x="275" y="46.9999" width="188" height="213" stroke="#171717" stroke-width="1.05666"/>
<rect x="453.047" y="63.7337" width="71.3728" height="30.6913" rx="4.75498" fill="#F5F5F5"/>
<rect x="453.047" y="63.7337" width="71.3728" height="30.6913" rx="4.75498" stroke="#171717" stroke-width="1.05666"/>
<rect x="460.444" y="68.5367" width="21.1332" height="21.1332" rx="4.16199" transform="rotate(-0.130627 460.444 68.5367)" fill="#FBBF24"/>
<g style="mix-blend-mode:multiply">
<path fill-rule="evenodd" clip-rule="evenodd" d="M475.353 76.0817L472.225 72.9673C472.135 72.8783 472.046 72.8339 471.912 72.8342L467.453 72.8444C466.962 72.8455 466.562 73.2478 466.563 73.7383L466.587 84.4405C466.589 84.931 466.991 85.3314 467.481 85.3303L474.616 85.3141C475.107 85.3129 475.507 84.9107 475.506 84.4202L475.488 76.3935C475.487 76.2597 475.443 76.1706 475.353 76.0817ZM471.915 73.9045L474.417 76.3959L471.92 76.4016L471.915 73.9045ZM467.479 84.4385L467.455 73.7363L471.022 73.7281L471.028 76.4037C471.03 76.8942 471.432 77.2946 471.922 77.2935L474.598 77.2874L474.614 84.4222L467.479 84.4385ZM473.716 81.7487L468.365 81.7609L468.367 82.6527L473.718 82.6405L473.716 81.7487ZM468.359 79.0853L473.71 79.0731L473.712 79.9649L468.361 79.9771L468.359 79.0853Z" fill="#171717"/>
</g>
<path d="M488.591 82.5793H487.636V76.6789H490.172C491.254 76.6789 491.888 77.3806 491.888 78.4541C491.888 79.5277 491.254 80.2293 490.172 80.2293H488.591V82.5793ZM488.591 77.5158V79.3925H490.112C490.594 79.3925 490.882 79.1304 490.882 78.657V78.2513C490.882 77.7779 490.594 77.5158 490.112 77.5158H488.591ZM492.935 82.5793V76.6789H495.023C496.528 76.6789 497.517 77.6595 497.517 79.6291C497.517 81.5988 496.528 82.5793 495.023 82.5793H492.935ZM493.891 81.734H495.023C495.903 81.734 496.494 81.1676 496.494 80.1025V79.1558C496.494 78.0906 495.903 77.5243 495.023 77.5243H493.891V81.734ZM499.661 82.5793H498.706V76.6789H502.391V77.5243H499.661V79.1642H502.087V80.0095H499.661V82.5793Z" fill="#737373"/>
<rect x="453.047" y="102.878" width="71.3728" height="30.6913" rx="4.75498" fill="#F5F5F5"/>
<rect x="453.047" y="102.878" width="71.3728" height="30.6913" rx="4.75498" stroke="#171717" stroke-width="1.05666"/>
<rect x="460.444" y="107.681" width="21.1332" height="21.1332" rx="4.16199" transform="rotate(-0.130627 460.444 107.681)" fill="#FB923C"/>
<g style="mix-blend-mode:multiply">
<path fill-rule="evenodd" clip-rule="evenodd" d="M468.803 117.337C469.542 117.335 470.139 116.735 470.137 115.996C470.136 115.258 469.535 114.66 468.797 114.662C468.058 114.663 467.46 115.264 467.462 116.002C467.464 116.741 468.064 117.339 468.803 117.337ZM472.458 118.003C472.624 117.703 473.052 117.695 473.23 117.989L475.118 121.12C475.245 121.331 475.519 121.398 475.73 121.271C475.941 121.144 476.009 120.87 475.882 120.659L473.993 117.528C473.462 116.646 472.175 116.671 471.677 117.572L470.846 119.075C470.693 119.353 470.307 119.386 470.108 119.139L469.837 118.801C469.306 118.141 468.305 118.134 467.764 118.785L466.238 120.625C466.081 120.815 466.107 121.096 466.297 121.253C466.486 121.41 466.767 121.384 466.924 121.194L468.451 119.354C468.631 119.137 468.965 119.14 469.141 119.36L469.413 119.698C470.009 120.439 471.167 120.339 471.627 119.507L472.458 118.003Z" fill="#171717"/>
</g>
<path d="M489.952 121.724H487.382V120.946H488.185V116.601H487.382V115.823H489.952V116.601H489.14V120.946H489.952V121.724ZM492.006 121.724H491.085V117.328H492.006V118.055H492.048C492.226 117.599 492.556 117.227 493.223 117.227C493.815 117.227 494.314 117.514 494.525 118.123H494.551C494.711 117.632 495.168 117.227 495.878 117.227C496.748 117.227 497.264 117.852 497.264 118.934V121.724H496.343V119.044C496.343 118.368 496.089 118.021 495.531 118.021C495.066 118.021 494.635 118.266 494.635 118.774V121.724H493.714V119.044C493.714 118.359 493.452 118.021 492.911 118.021C492.454 118.021 492.006 118.266 492.006 118.774V121.724ZM502.276 121.724H501.76C501.278 121.724 501.024 121.42 500.965 120.988H500.923C500.754 121.538 500.281 121.825 499.638 121.825C498.734 121.825 498.218 121.31 498.218 120.515C498.218 119.644 498.869 119.196 500.095 119.196H500.889V118.824C500.889 118.292 500.602 117.979 499.985 117.979C499.469 117.979 499.156 118.233 498.936 118.579L498.387 118.081C498.674 117.59 499.19 117.227 500.044 117.227C501.177 117.227 501.811 117.785 501.811 118.765V120.972H502.276V121.724ZM499.9 121.124C500.467 121.124 500.889 120.853 500.889 120.422V119.788H500.111C499.469 119.788 499.156 119.999 499.156 120.38V120.532C499.156 120.921 499.444 121.124 499.9 121.124ZM507.033 122.138C507.033 123.051 506.382 123.516 504.802 123.516C503.365 123.516 502.807 123.127 502.807 122.459C502.807 121.977 503.094 121.715 503.559 121.614V121.521C503.238 121.42 503.06 121.174 503.06 120.845C503.06 120.388 503.415 120.168 503.838 120.067V120.033C503.322 119.788 503.035 119.323 503.035 118.731C503.035 117.835 503.669 117.227 504.785 117.227C505.081 117.227 505.351 117.269 505.579 117.362V117.244C505.579 116.855 505.765 116.618 506.154 116.618H506.83V117.362H505.934V117.539C506.332 117.802 506.551 118.224 506.551 118.731C506.551 119.619 505.909 120.219 504.793 120.219C504.582 120.219 504.379 120.194 504.218 120.152C503.999 120.228 503.796 120.371 503.796 120.591C503.796 120.828 504.024 120.921 504.413 120.921H505.495C506.577 120.921 507.033 121.377 507.033 122.138ZM506.171 122.24C506.171 121.935 505.968 121.741 505.368 121.741H503.88C503.677 121.859 503.576 122.037 503.576 122.248C503.576 122.603 503.838 122.848 504.523 122.848H505.097C505.816 122.848 506.171 122.645 506.171 122.24ZM504.793 119.551C505.334 119.551 505.647 119.306 505.647 118.807V118.638C505.647 118.14 505.334 117.895 504.793 117.895C504.252 117.895 503.939 118.14 503.939 118.638V118.807C503.939 119.306 504.252 119.551 504.793 119.551ZM509.394 121.825C508.143 121.825 507.374 120.929 507.374 119.526C507.374 118.123 508.143 117.227 509.394 117.227C510.687 117.227 511.347 118.199 511.347 119.416V119.763H508.329V119.906C508.329 120.583 508.743 121.065 509.487 121.065C510.028 121.065 510.391 120.811 510.645 120.405L511.186 120.938C510.856 121.47 510.214 121.825 509.394 121.825ZM509.394 117.945C508.76 117.945 508.329 118.419 508.329 119.095V119.154H510.374V119.07C510.374 118.393 510.002 117.945 509.394 117.945Z" fill="#737373"/>
<rect x="453.047" y="142.023" width="71.3728" height="30.6913" rx="4.75498" fill="#F5F5F5"/>
<rect x="453.047" y="142.023" width="71.3728" height="30.6913" rx="4.75498" stroke="#171717" stroke-width="1.05666"/>
<rect x="460.444" y="146.826" width="21.1332" height="21.1332" rx="4.16199" transform="rotate(-0.130627 460.444 146.826)" fill="#93C5FD"/>
<g style="mix-blend-mode:multiply">
<path fill-rule="evenodd" clip-rule="evenodd" d="M468.35 153.477L475.041 157.36L468.368 161.273L468.35 153.477ZM469.245 155.028L469.256 159.718L473.271 157.364L469.245 155.028Z" fill="#171717"/>
</g>
<path d="M490.104 160.869H488.997L487.061 154.968H488.05L488.988 157.885L489.555 159.939H489.588L490.163 157.885L491.102 154.968H492.065L490.104 160.869ZM493.341 155.687C492.961 155.687 492.792 155.484 492.792 155.205V155.061C492.792 154.782 492.961 154.579 493.341 154.579C493.721 154.579 493.882 154.782 493.882 155.061V155.205C493.882 155.484 493.721 155.687 493.341 155.687ZM492.876 160.869V156.473H493.798V160.869H492.876ZM497.877 160.869V160.142H497.835C497.649 160.657 497.184 160.97 496.601 160.97C495.494 160.97 494.851 160.116 494.851 158.671C494.851 157.225 495.494 156.371 496.601 156.371C497.184 156.371 497.649 156.676 497.835 157.2H497.877V154.613H498.799V160.869H497.877ZM496.88 160.175C497.438 160.175 497.877 159.871 497.877 159.423V157.918C497.877 157.47 497.438 157.166 496.88 157.166C496.246 157.166 495.823 157.614 495.823 158.29V159.051C495.823 159.727 496.246 160.175 496.88 160.175ZM501.84 160.97C500.589 160.97 499.82 160.074 499.82 158.671C499.82 157.267 500.589 156.371 501.84 156.371C503.134 156.371 503.793 157.344 503.793 158.561V158.907H500.775V159.051C500.775 159.727 501.189 160.209 501.933 160.209C502.474 160.209 502.838 159.956 503.091 159.55L503.632 160.082C503.303 160.615 502.66 160.97 501.84 160.97ZM501.84 157.09C501.206 157.09 500.775 157.563 500.775 158.24V158.299H502.821V158.214C502.821 157.538 502.449 157.09 501.84 157.09ZM506.538 160.97C505.312 160.97 504.517 160.074 504.517 158.671C504.517 157.267 505.312 156.371 506.538 156.371C507.763 156.371 508.558 157.267 508.558 158.671C508.558 160.074 507.763 160.97 506.538 160.97ZM506.538 160.209C507.163 160.209 507.586 159.82 507.586 159.043V158.299C507.586 157.521 507.163 157.132 506.538 157.132C505.912 157.132 505.489 157.521 505.489 158.299V159.043C505.489 159.82 505.912 160.209 506.538 160.209Z" fill="#737373"/>
<rect x="453.047" y="181.167" width="71.3728" height="30.6913" rx="4.75498" fill="#F5F5F5"/>
<rect x="453.047" y="181.167" width="71.3728" height="30.6913" rx="4.75498" stroke="#171717" stroke-width="1.05666"/>
<rect x="460.444" y="185.971" width="21.1332" height="21.1332" rx="4.16199" transform="rotate(-0.130627 460.444 185.971)" fill="#4ADE80"/>
<g style="mix-blend-mode:multiply">
<path fill-rule="evenodd" clip-rule="evenodd" d="M466.573 195.632C466.819 195.631 467.02 195.83 467.02 196.076L467.022 196.968C467.023 197.215 466.823 197.415 466.577 197.415C466.331 197.416 466.131 197.217 466.13 196.97L466.128 196.079C466.128 195.832 466.327 195.632 466.573 195.632Z" fill="#171717"/>
<path fill-rule="evenodd" clip-rule="evenodd" d="M468.8 194.289C469.046 194.288 469.246 194.487 469.247 194.734L469.255 198.301C469.255 198.547 469.056 198.747 468.81 198.748C468.564 198.749 468.363 198.549 468.363 198.303L468.355 194.736C468.354 194.489 468.553 194.289 468.8 194.289Z" fill="#171717"/>
<path fill-rule="evenodd" clip-rule="evenodd" d="M471.026 192.946C471.273 192.945 471.473 193.144 471.473 193.391L471.487 199.634C471.488 199.88 471.289 200.08 471.043 200.081C470.796 200.081 470.596 199.882 470.596 199.636L470.581 193.393C470.581 193.147 470.78 192.946 471.026 192.946Z" fill="#171717"/>
<path fill-rule="evenodd" clip-rule="evenodd" d="M473.259 194.279C473.505 194.278 473.705 194.477 473.706 194.723L473.714 198.291C473.715 198.537 473.515 198.737 473.269 198.738C473.023 198.738 472.823 198.539 472.822 198.293L472.814 194.725C472.813 194.479 473.013 194.279 473.259 194.279Z" fill="#171717"/>
<path fill-rule="evenodd" clip-rule="evenodd" d="M475.492 195.611C475.738 195.611 475.938 195.81 475.939 196.056L475.941 196.948C475.941 197.194 475.742 197.394 475.496 197.395C475.249 197.396 475.049 197.196 475.049 196.95L475.047 196.058C475.046 195.812 475.245 195.612 475.492 195.611Z" fill="#171717"/>
</g>
<path d="M492.319 200.013H491.321L490.789 198.416H488.582L488.067 200.013H487.095L489.107 194.113H490.307L492.319 200.013ZM490.552 197.596L489.707 194.992H489.664L488.811 197.596H490.552ZM495.828 200.013V199.286H495.794C495.633 199.717 495.287 200.115 494.56 200.115C493.655 200.115 493.123 199.498 493.123 198.416V195.617H494.044V198.297C494.044 198.965 494.323 199.32 494.89 199.32C495.363 199.32 495.828 199.075 495.828 198.559V195.617H496.749V200.013H495.828ZM500.833 200.013V199.286H500.791C500.605 199.802 500.14 200.115 499.556 200.115C498.449 200.115 497.807 199.261 497.807 197.815C497.807 196.37 498.449 195.516 499.556 195.516C500.14 195.516 500.605 195.82 500.791 196.344H500.833V193.758H501.754V200.013H500.833ZM499.835 199.32C500.393 199.32 500.833 199.016 500.833 198.568V197.063C500.833 196.615 500.393 196.311 499.835 196.311C499.201 196.311 498.779 196.759 498.779 197.435V198.196C498.779 198.872 499.201 199.32 499.835 199.32ZM503.536 194.831C503.156 194.831 502.987 194.628 502.987 194.349V194.206C502.987 193.927 503.156 193.724 503.536 193.724C503.917 193.724 504.077 193.927 504.077 194.206V194.349C504.077 194.628 503.917 194.831 503.536 194.831ZM503.071 200.013V195.617H503.993V200.013H503.071ZM507.033 200.115C505.807 200.115 505.013 199.219 505.013 197.815C505.013 196.412 505.807 195.516 507.033 195.516C508.259 195.516 509.053 196.412 509.053 197.815C509.053 199.219 508.259 200.115 507.033 200.115ZM507.033 199.354C507.658 199.354 508.081 198.965 508.081 198.187V197.443C508.081 196.666 507.658 196.277 507.033 196.277C506.407 196.277 505.985 196.666 505.985 197.443V198.187C505.985 198.965 506.407 199.354 507.033 199.354Z" fill="#737373"/>
<rect x="167.274" y="70" width="94.7259" height="20.4119" fill="#93C5FD"/>
<rect x="167.274" y="70" width="94.7259" height="20.4119" stroke="#171717" stroke-width="1.05666"/>
<path d="M180.364 82.7061V76.8057H182.452C183.957 76.8057 184.946 77.7862 184.946 79.7559C184.946 81.7255 183.957 82.7061 182.452 82.7061H180.364ZM181.319 81.8607H182.452C183.331 81.8607 183.923 81.2944 183.923 80.2292V79.2825C183.923 78.2174 183.331 77.651 182.452 77.651H181.319V81.8607ZM191.127 82.7061H190.129L189.597 81.1084H187.39L186.875 82.7061H185.903L187.914 76.8057H189.115L191.127 82.7061ZM189.36 80.2884L188.515 77.6848H188.472L187.619 80.2884H189.36ZM193.229 82.7061V77.651H191.471V76.8057H195.942V77.651H194.184V82.7061H193.229ZM201.511 82.7061H200.513L199.981 81.1084H197.774L197.259 82.7061H196.287L198.299 76.8057H199.499L201.511 82.7061ZM199.744 80.2884L198.899 77.6848H198.856L198.003 80.2884H199.744ZM208.793 82.7061H205.437V76.8057H206.392V81.8607H208.793V82.7061ZM215.11 82.7061H214.112L213.58 81.1084H211.373L210.858 82.7061H209.886L211.897 76.8057H213.098L215.11 82.7061ZM213.343 80.2884L212.498 77.6848H212.455L211.602 80.2884H213.343ZM216.531 82.7061V76.8057H219.143C220.115 76.8057 220.715 77.4058 220.715 78.3272C220.715 79.2148 220.174 79.5361 219.692 79.5783V79.6291C220.174 79.646 220.926 80.0179 220.926 81.0069C220.926 81.9622 220.276 82.7061 219.405 82.7061H216.531ZM217.486 80.094V81.8861H219.126C219.616 81.8861 219.921 81.6156 219.921 81.1337V80.8463C219.921 80.3645 219.616 80.094 219.126 80.094H217.486ZM217.486 77.6256V79.2994H218.965C219.43 79.2994 219.709 79.0458 219.709 78.5978V78.3272C219.709 77.8792 219.43 77.6256 218.965 77.6256H217.486ZM226.389 82.7061H222.61V76.8057H226.389V77.651H223.565V79.2909H226.127V80.1363H223.565V81.8607H226.389V82.7061ZM231.484 82.7061H228.128V76.8057H229.083V81.8607H231.484V82.7061ZM235.286 82.7061H232.716V81.9284H233.519V77.5834H232.716V76.8057H235.286V77.5834H234.474V81.9284H235.286V82.7061ZM240.51 82.7061L238.583 79.4431L237.932 78.192H237.906V82.7061H236.993V76.8057H238.058L239.986 80.0686L240.637 81.3197H240.662V76.8057H241.575V82.7061H240.51ZM247.331 82.7061V81.81H247.297C247.178 82.3764 246.604 82.8075 245.708 82.8075C244.304 82.8075 243.273 81.7339 243.273 79.7559C243.273 77.7862 244.304 76.7042 245.851 76.7042C246.908 76.7042 247.643 77.203 248.049 78.0314L247.271 78.4879C247.043 77.9384 246.57 77.558 245.851 77.558C244.921 77.558 244.296 78.192 244.296 79.274V80.2377C244.296 81.3197 244.921 81.9537 245.851 81.9537C246.595 81.9537 247.246 81.5733 247.246 80.8379V80.3814H246.029V79.5614H248.167V82.7061H247.331Z" fill="#171717"/>
<rect x="71.5" y="98.912" width="190" height="194" fill="#F5F5F5"/>
<rect x="71.5" y="98.912" width="190" height="194" stroke="#171717"/>
<rect x="86.5" y="113.5" width="160" height="83" rx="11.7541" fill="#F5F5F5" stroke="#171717"/>
<path d="M151.773 139.727L180.648 156.398L151.773 173.069L151.773 139.727Z" stroke="#171717"/>
<rect width="91" height="32" transform="translate(156 206.412)" fill="#F5F5F5"/>
<rect x="171.278" y="207.748" width="75.7221" height="2" rx="0.8" fill="#171717"/>
<g clip-path="url(#clip4_3110_481604)">
<path d="M171.165 207.548C171.165 207.106 171.523 206.748 171.965 206.748H183.791C184.233 206.748 184.591 207.106 184.591 207.548V209.948C184.591 210.39 184.233 210.748 183.791 210.748H171.965C171.523 210.748 171.165 210.39 171.165 209.948V207.548Z" fill="#93C5FD"/>
</g>
<path d="M177.225 228.048C177.125 228.048 177.03 228.008 176.959 227.938C176.889 227.868 176.85 227.772 176.85 227.673V219.423C176.85 219.357 176.867 219.292 176.9 219.235C176.933 219.178 176.98 219.131 177.037 219.098C177.094 219.065 177.159 219.048 177.225 219.048C177.291 219.048 177.355 219.065 177.412 219.098L184.537 223.223C184.594 223.256 184.641 223.304 184.674 223.361C184.707 223.417 184.724 223.482 184.724 223.548C184.724 223.613 184.707 223.678 184.674 223.735C184.641 223.792 184.594 223.839 184.537 223.872L177.412 227.997C177.355 228.03 177.291 228.048 177.225 228.048Z" fill="#171717"/>
<path d="M194.387 226.144C193.027 226.144 192.419 225.08 192.419 223.256C192.419 221.432 193.027 220.368 194.387 220.368C195.747 220.368 196.355 221.432 196.355 223.256C196.355 225.08 195.747 226.144 194.387 226.144ZM194.387 225.464C195.219 225.464 195.539 224.76 195.539 223.728V222.784C195.539 221.752 195.219 221.048 194.387 221.048C193.555 221.048 193.235 221.752 193.235 222.784V223.728C193.235 224.76 193.555 225.464 194.387 225.464ZM199.184 226.144C197.824 226.144 197.216 225.08 197.216 223.256C197.216 221.432 197.824 220.368 199.184 220.368C200.544 220.368 201.152 221.432 201.152 223.256C201.152 225.08 200.544 226.144 199.184 226.144ZM199.184 225.464C200.016 225.464 200.336 224.76 200.336 223.728V222.784C200.336 221.752 200.016 221.048 199.184 221.048C198.352 221.048 198.032 221.752 198.032 222.784V223.728C198.032 224.76 198.352 225.464 199.184 225.464ZM202.773 222.92C202.405 222.92 202.245 222.712 202.245 222.424V222.304C202.245 222.016 202.405 221.808 202.773 221.808C203.141 221.808 203.301 222.016 203.301 222.304V222.424C203.301 222.712 203.141 222.92 202.773 222.92ZM202.773 226.144C202.405 226.144 202.245 225.936 202.245 225.648V225.528C202.245 225.24 202.405 225.032 202.773 225.032C203.141 225.032 203.301 225.24 203.301 225.528V225.648C203.301 225.936 203.141 226.144 202.773 226.144ZM206.363 226.144C205.003 226.144 204.395 225.08 204.395 223.256C204.395 221.432 205.003 220.368 206.363 220.368C207.723 220.368 208.331 221.432 208.331 223.256C208.331 225.08 207.723 226.144 206.363 226.144ZM206.363 225.464C207.195 225.464 207.515 224.76 207.515 223.728V222.784C207.515 221.752 207.195 221.048 206.363 221.048C205.531 221.048 205.211 221.752 205.211 222.784V223.728C205.211 224.76 205.531 225.464 206.363 225.464ZM213.152 226.048H209.448V225.36H210.976V221.032H210.92L209.568 222.376L209.104 221.92L210.552 220.464H211.752V225.36H213.152V226.048ZM214.285 227.256H213.629L215.781 220.128H216.437L214.285 227.256ZM221.043 226.144C219.683 226.144 219.075 225.08 219.075 223.256C219.075 221.432 219.683 220.368 221.043 220.368C222.403 220.368 223.011 221.432 223.011 223.256C223.011 225.08 222.403 226.144 221.043 226.144ZM221.043 225.464C221.875 225.464 222.195 224.76 222.195 223.728V222.784C222.195 221.752 221.875 221.048 221.043 221.048C220.211 221.048 219.891 221.752 219.891 222.784V223.728C219.891 224.76 220.211 225.464 221.043 225.464ZM227.832 226.048H224.128V225.36H225.656V221.032H225.6L224.248 222.376L223.784 221.92L225.232 220.464H226.432V225.36H227.832V226.048ZM229.429 222.92C229.061 222.92 228.901 222.712 228.901 222.424V222.304C228.901 222.016 229.061 221.808 229.429 221.808C229.797 221.808 229.957 222.016 229.957 222.304V222.424C229.957 222.712 229.797 222.92 229.429 222.92ZM229.429 226.144C229.061 226.144 228.901 225.936 228.901 225.648V225.528C228.901 225.24 229.061 225.032 229.429 225.032C229.797 225.032 229.957 225.24 229.957 225.528V225.648C229.957 225.936 229.797 226.144 229.429 226.144ZM234.908 225.36V226.048H231.196V225.28L232.996 223.64C233.54 223.152 233.9 222.64 233.9 222.112V222.016C233.9 221.44 233.548 221.064 232.924 221.064C232.268 221.064 231.964 221.456 231.82 221.968L231.132 221.704C231.356 221.024 231.876 220.368 232.972 220.368C234.084 220.368 234.732 221.048 234.732 222C234.732 222.888 234.18 223.488 233.444 224.128L232.06 225.36H234.908ZM239.809 226.048H236.105V225.36H237.633V221.032H237.577L236.225 222.376L235.761 221.92L237.209 220.464H238.409V225.36H239.809V226.048Z" fill="#171717"/>
<path d="M172 236.348V280.848" stroke="#D4D4D4"/>
<path d="M181.375 236.348V280.848" stroke="#D4D4D4"/>
<path d="M190.75 236.348V280.848" stroke="#D4D4D4"/>
<path d="M200.125 236.348V280.848" stroke="#D4D4D4"/>
<path d="M209.5 236.348V280.848" stroke="#D4D4D4"/>
<path d="M218.875 236.348V280.848" stroke="#93C5FD" stroke-width="2"/>
<path d="M228.25 236.348V280.848" stroke="#D4D4D4"/>
<path d="M237.625 236.348V280.848" stroke="#D4D4D4"/>
<path d="M247 236.348V280.848" stroke="#D4D4D4"/>
<path d="M91.12 247.412H90.176L89.672 245.9H87.584L87.096 247.412H86.176L88.08 241.828H89.216L91.12 247.412ZM89.448 245.124L88.648 242.66H88.608L87.8 245.124H89.448ZM95.7929 247.412L93.9689 244.324L93.3529 243.14H93.3289V247.412H92.4649V241.828H93.4729L95.2969 244.916L95.9129 246.1H95.9369V241.828H96.8009V247.412H95.7929ZM101.984 247.412L100.16 244.324L99.5438 243.14H99.5198V247.412H98.6558V241.828H99.6638L101.488 244.916L102.104 246.1H102.128V241.828H102.992V247.412H101.984ZM107.007 247.508C105.551 247.508 104.599 246.5 104.599 244.62C104.599 242.74 105.551 241.732 107.007 241.732C108.463 241.732 109.415 242.74 109.415 244.62C109.415 246.5 108.463 247.508 107.007 247.508ZM107.007 246.7C107.871 246.7 108.447 246.076 108.447 245.06V244.18C108.447 243.164 107.871 242.54 107.007 242.54C106.143 242.54 105.567 243.164 105.567 244.18V245.06C105.567 246.076 106.143 246.7 107.007 246.7ZM112.01 247.412V242.628H110.346V241.828H114.578V242.628H112.914V247.412H112.01ZM119.848 247.412H118.904L118.4 245.9H116.312L115.824 247.412H114.904L116.808 241.828H117.944L119.848 247.412ZM118.176 245.124L117.376 242.66H117.336L116.528 245.124H118.176ZM121.838 247.412V242.628H120.174V241.828H124.406V242.628H122.742V247.412H121.838ZM127.912 247.412H125.48V246.676H126.24V242.564H125.48V241.828H127.912V242.564H127.144V246.676H127.912V247.412ZM131.688 247.508C130.232 247.508 129.28 246.5 129.28 244.62C129.28 242.74 130.232 241.732 131.688 241.732C133.144 241.732 134.096 242.74 134.096 244.62C134.096 246.5 133.144 247.508 131.688 247.508ZM131.688 246.7C132.552 246.7 133.128 246.076 133.128 245.06V244.18C133.128 243.164 132.552 242.54 131.688 242.54C130.824 242.54 130.248 243.164 130.248 244.18V245.06C130.248 246.076 130.824 246.7 131.688 246.7ZM139.031 247.412L137.207 244.324L136.591 243.14H136.567V247.412H135.703V241.828H136.711L138.535 244.916L139.151 246.1H139.175V241.828H140.039V247.412H139.031ZM143.566 247.508C142.63 247.508 141.99 247.14 141.526 246.564L142.15 245.98C142.542 246.46 143.006 246.708 143.614 246.708C144.326 246.708 144.694 246.356 144.694 245.82C144.694 245.388 144.47 245.14 143.822 245.012L143.326 244.924C142.246 244.724 141.694 244.22 141.694 243.332C141.694 242.34 142.462 241.732 143.646 241.732C144.486 241.732 145.102 242.036 145.534 242.588L144.902 243.148C144.614 242.772 144.214 242.532 143.598 242.532C142.958 242.532 142.59 242.796 142.59 243.284C142.59 243.748 142.878 243.948 143.478 244.068L143.974 244.172C145.086 244.388 145.59 244.884 145.59 245.772C145.59 246.812 144.846 247.508 143.566 247.508Z" fill="#171717"/>
<rect x="86.5" y="257.912" width="72.556" height="14.8634" rx="1.43169" fill="#93C5FD"/>
<rect x="86.5" y="257.912" width="72.556" height="14.8634" rx="1.43169" stroke="#171717"/>
<path fill-rule="evenodd" clip-rule="evenodd" d="M97.3291 262.844L92.3291 262.844L92.3291 267.844H97.3291V262.844ZM92.3291 262.344C92.053 262.344 91.8291 262.567 91.8291 262.844V267.844C91.8291 268.12 92.053 268.344 92.3291 268.344H97.3291C97.6052 268.344 97.8291 268.12 97.8291 267.844V262.844C97.8291 262.567 97.6052 262.344 97.3291 262.344H92.3291Z" fill="black"/>
<path d="M102.266 267.344V262.962H103.817C104.935 262.962 105.669 263.69 105.669 265.153C105.669 266.615 104.935 267.344 103.817 267.344H102.266ZM102.976 266.716H103.817C104.47 266.716 104.91 266.295 104.91 265.504V264.801C104.91 264.01 104.47 263.589 103.817 263.589H102.976V266.716ZM107.098 263.495C106.816 263.495 106.69 263.345 106.69 263.137V263.031C106.69 262.823 106.816 262.673 107.098 262.673C107.381 262.673 107.5 262.823 107.5 263.031V263.137C107.5 263.345 107.381 263.495 107.098 263.495ZM106.753 267.344V264.079H107.437V267.344H106.753ZM109.701 267.419C109.086 267.419 108.684 267.187 108.377 266.804L108.816 266.402C109.055 266.691 109.35 266.867 109.739 266.867C110.134 266.867 110.335 266.703 110.335 266.427C110.335 266.22 110.21 266.063 109.871 266.019L109.569 265.981C108.904 265.9 108.496 265.611 108.496 265.008C108.496 264.374 108.992 264.004 109.708 264.004C110.298 264.004 110.63 264.198 110.925 264.525L110.505 264.927C110.335 264.726 110.059 264.556 109.708 264.556C109.331 264.556 109.155 264.719 109.155 264.964C109.155 265.215 109.312 265.328 109.657 265.385L109.959 265.423C110.674 265.529 110.995 265.843 110.995 266.371C110.995 266.998 110.486 267.419 109.701 267.419ZM113.476 267.344H112.88C112.409 267.344 112.158 267.08 112.158 266.634V264.638H111.649V264.079H111.926C112.152 264.079 112.227 263.985 112.227 263.759V263.188H112.842V264.079H113.526V264.638H112.842V266.785H113.476V267.344ZM115.204 267.344H114.52V264.079H115.204V264.707H115.236C115.33 264.374 115.612 264.079 116.133 264.079H116.315V264.738H116.045C115.506 264.738 115.204 264.92 115.204 265.259V267.344ZM119.9 267.344H119.517C119.159 267.344 118.971 267.118 118.927 266.797H118.896C118.77 267.206 118.419 267.419 117.941 267.419C117.27 267.419 116.887 267.036 116.887 266.446C116.887 265.799 117.37 265.467 118.28 265.467H118.871V265.19C118.871 264.795 118.657 264.562 118.199 264.562C117.816 264.562 117.584 264.751 117.42 265.008L117.012 264.638C117.226 264.274 117.609 264.004 118.243 264.004C119.084 264.004 119.555 264.418 119.555 265.146V266.785H119.9V267.344ZM118.136 266.898C118.557 266.898 118.871 266.697 118.871 266.377V265.906H118.293C117.816 265.906 117.584 266.063 117.584 266.345V266.458C117.584 266.747 117.797 266.898 118.136 266.898ZM122.084 267.419C121.142 267.419 120.602 266.753 120.602 265.711C120.602 264.669 121.142 264.004 122.084 264.004C122.737 264.004 123.151 264.324 123.346 264.807L122.781 265.071C122.686 264.77 122.454 264.575 122.084 264.575C121.582 264.575 121.324 264.92 121.324 265.423V266.006C121.324 266.509 121.582 266.854 122.084 266.854C122.479 266.854 122.712 266.64 122.85 266.314L123.371 266.59C123.157 267.124 122.712 267.419 122.084 267.419ZM125.774 267.344H125.177C124.707 267.344 124.455 267.08 124.455 266.634V264.638H123.947V264.079H124.223C124.449 264.079 124.524 263.985 124.524 263.759V263.188H125.14V264.079H125.824V264.638H125.14V266.785H125.774V267.344ZM128.074 267.419C127.144 267.419 126.573 266.753 126.573 265.711C126.573 264.669 127.144 264.004 128.074 264.004C129.034 264.004 129.524 264.726 129.524 265.63V265.887H127.283V265.994C127.283 266.496 127.59 266.854 128.143 266.854C128.544 266.854 128.814 266.666 129.003 266.364L129.404 266.76C129.16 267.155 128.683 267.419 128.074 267.419ZM128.074 264.537C127.603 264.537 127.283 264.889 127.283 265.391V265.435H128.802V265.372C128.802 264.87 128.526 264.537 128.074 264.537ZM132.585 267.344V266.804H132.554C132.416 267.187 132.071 267.419 131.637 267.419C130.815 267.419 130.338 266.785 130.338 265.711C130.338 264.638 130.815 264.004 131.637 264.004C132.071 264.004 132.416 264.23 132.554 264.619H132.585V262.698H133.27V267.344H132.585ZM131.845 266.829C132.259 266.829 132.585 266.603 132.585 266.27V265.153C132.585 264.82 132.259 264.594 131.845 264.594C131.374 264.594 131.06 264.927 131.06 265.429V265.994C131.06 266.496 131.374 266.829 131.845 266.829ZM138.287 267.344V266.804H138.255C138.117 267.187 137.772 267.419 137.339 267.419C136.516 267.419 136.039 266.785 136.039 265.711C136.039 264.638 136.516 264.004 137.339 264.004C137.772 264.004 138.117 264.23 138.255 264.619H138.287V262.698H138.971V267.344H138.287ZM137.546 266.829C137.96 266.829 138.287 266.603 138.287 266.27V265.153C138.287 264.82 137.96 264.594 137.546 264.594C137.075 264.594 136.761 264.927 136.761 265.429V265.994C136.761 266.496 137.075 266.829 137.546 266.829ZM140.884 267.344H140.2V264.079H140.884V264.707H140.916C141.01 264.374 141.292 264.079 141.813 264.079H141.996V264.738H141.726C141.186 264.738 140.884 264.92 140.884 265.259V267.344ZM143.2 263.495C142.917 263.495 142.792 263.345 142.792 263.137V263.031C142.792 262.823 142.917 262.673 143.2 262.673C143.482 262.673 143.602 262.823 143.602 263.031V263.137C143.602 263.345 143.482 263.495 143.2 263.495ZM142.854 267.344V264.079H143.539V267.344H142.854ZM146.28 267.344H145.476L144.365 264.079H145.043L145.539 265.567L145.872 266.71H145.91L146.242 265.567L146.751 264.079H147.404L146.28 267.344ZM149.462 267.419C148.533 267.419 147.962 266.753 147.962 265.711C147.962 264.669 148.533 264.004 149.462 264.004C150.423 264.004 150.913 264.726 150.913 265.63V265.887H148.671V265.994C148.671 266.496 148.979 266.854 149.531 266.854C149.933 266.854 150.203 266.666 150.392 266.364L150.793 266.76C150.548 267.155 150.071 267.419 149.462 267.419ZM149.462 264.537C148.992 264.537 148.671 264.889 148.671 265.391V265.435H150.191V265.372C150.191 264.87 149.914 264.537 149.462 264.537ZM152.606 267.344H151.921V264.079H152.606V264.707H152.637C152.731 264.374 153.014 264.079 153.535 264.079H153.717V264.738H153.447C152.907 264.738 152.606 264.92 152.606 265.259V267.344Z" fill="#171717"/>
<path d="M189.834 260.58L237.834 260.58" stroke="#171717" stroke-linecap="round"/>
<circle cx="189.834" cy="260.844" r="5.5" fill="#93C5FD" stroke="#171717"/>
<circle cx="237.834" cy="260.844" r="5.5" fill="#93C5FD" stroke="#171717"/>
</g>
<defs>
<clipPath id="clip0_3110_481604">
<rect width="550" height="320" rx="16" fill="white"/>
</clipPath>
<clipPath id="clip1_3110_481604">
<rect x="-28" y="-42.588" width="228" height="217" fill="white"/>
</clipPath>
<clipPath id="clip2_3110_481604">
<rect x="568" y="450" width="228" height="217" transform="rotate(-180 568 450)" fill="white"/>
</clipPath>
<clipPath id="clip3_3110_481604">
<rect x="275" y="46.9999" width="188" height="213" fill="white"/>
</clipPath>
<clipPath id="clip4_3110_481604">
<rect x="171.165" y="206.748" width="13.4262" height="4" rx="2" fill="white"/>
</clipPath>
</defs>
</svg>
