<svg width="49" height="48" viewBox="0 0 49 48" fill="none" xmlns="http://www.w3.org/2000/svg">
<g opacity="0.8">
<path fill-rule="evenodd" clip-rule="evenodd" d="M6.5 30H12.5V33H6.5C5.70435 33 4.94129 32.6839 4.37868 32.1213C3.81607 31.5587 3.5 30.7956 3.5 30V6C3.5 5.20435 3.81607 4.44129 4.37868 3.87868C4.94129 3.31607 5.70435 3 6.5 3H30.5C31.2956 3 32.0587 3.31607 32.6213 3.87868C33.1839 4.44129 33.5 5.20435 33.5 6V12H30.5V6H6.5V30ZM20 25.5V15H24.5V12H12.5V15H17V25.5H20ZM44.8055 20.64L39.86 15.6945C39.414 15.2497 38.8098 15 38.18 15C37.5502 15 36.946 15.2497 36.5 15.6945L15.5 36.7011V45H23.7989L44.8055 24C45.2502 23.554 45.5 22.9498 45.5 22.32C45.5 21.6901 45.2502 21.086 44.8055 20.64ZM22.5563 42H18.5V37.9437L32.6614 23.7823L36.7177 27.8386L22.5563 42ZM38.8386 25.7175L34.7825 21.6613L38.1833 18.2605L42.2396 22.3168L38.8386 25.7175Z" fill="#F97316"/>
</g>
</svg>
