<svg width="30" height="32" viewBox="0 0 30 32" fill="none" xmlns="http://www.w3.org/2000/svg">
<path d="M21.5625 9.00491H27.1875C27.6848 9.00491 28.1617 8.7942 28.5133 8.41913C28.865 8.04405 29.0625 7.53535 29.0625 7.00491V3.00491C29.0625 2.47448 28.865 1.96577 28.5133 1.5907C28.1617 1.21563 27.6848 1.00491 27.1875 1.00491H21.5625C21.0652 1.00491 20.5883 1.21563 20.2367 1.5907C19.885 1.96577 19.6875 2.47448 19.6875 3.00491V4.00491H10.3125V3.00491C10.3125 2.47448 10.115 1.96577 9.76332 1.5907C9.41169 1.21563 8.93478 1.00491 8.4375 1.00491H2.8125C2.31522 1.00491 1.83831 1.21563 1.48667 1.5907C1.13504 1.96577 0.9375 2.47448 0.9375 3.00491V7.00491C0.9375 7.53535 1.13504 8.04405 1.48667 8.41913C1.83831 8.7942 2.31522 9.00491 2.8125 9.00491H8.4375C8.93478 9.00491 9.41169 8.7942 9.76332 8.41913C10.115 8.04405 10.3125 7.53535 10.3125 7.00491V6.00491H14.0625V26.0049C14.0631 26.5352 14.2608 27.0435 14.6123 27.4185C14.9638 27.7934 15.4404 28.0043 15.9375 28.0049H19.6875V29.0049C19.6875 29.5353 19.885 30.0441 20.2367 30.4191C20.5883 30.7942 21.0652 31.0049 21.5625 31.0049H27.1875C27.6848 31.0049 28.1617 30.7942 28.5133 30.4191C28.865 30.0441 29.0625 29.5353 29.0625 29.0049V25.0049C29.0625 24.4745 28.865 23.9658 28.5133 23.5907C28.1617 23.2156 27.6848 23.0049 27.1875 23.0049H21.5625C21.0652 23.0049 20.5883 23.2156 20.2367 23.5907C19.885 23.9658 19.6875 24.4745 19.6875 25.0049V26.0049H15.9375V17.0049H19.6875V18.0049C19.6875 18.5353 19.885 19.0441 20.2367 19.4191C20.5883 19.7942 21.0652 20.0049 21.5625 20.0049H27.1875C27.6848 20.0049 28.1617 19.7942 28.5133 19.4191C28.865 19.0441 29.0625 18.5353 29.0625 18.0049V14.0049C29.0625 13.4745 28.865 12.9658 28.5133 12.5907C28.1617 12.2156 27.6848 12.0049 27.1875 12.0049H21.5625C21.0652 12.0049 20.5883 12.2156 20.2367 12.5907C19.885 12.9658 19.6875 13.4745 19.6875 14.0049V15.0049H15.9375V6.00491H19.6875V7.00491C19.6875 7.53535 19.885 8.04405 20.2367 8.41913C20.5883 8.7942 21.0652 9.00491 21.5625 9.00491ZM21.5625 3.00491H27.1875V7.00491H21.5625V3.00491ZM8.4375 7.00491H2.8125V3.00491H8.4375V7.00491ZM21.5625 25.0049H27.1875V29.0049H21.5625V25.0049ZM21.5625 14.0049H27.1875V18.0049H21.5625V14.0049Z" fill="#0EA5E9"/>
</svg>
