<svg width="16" height="16" viewBox="0 0 16 16" fill="none" xmlns="http://www.w3.org/2000/svg">
<path fill-rule="evenodd" clip-rule="evenodd" d="M8.42632 2.5C5.89074 2.5 3.68862 3.94714 1.9351 7.04159C1.79896 7.28184 1.49383 7.36623 1.25358 7.23009C1.01333 7.09395 0.928934 6.78883 1.06508 6.54858C2.93451 3.24958 5.42091 1.5 8.42632 1.5C9.16312 1.5 9.78272 1.71692 10.2184 2.15259C10.6531 2.58725 10.8443 3.17945 10.8443 3.81148C10.8443 4.53782 10.5178 5.101 10.091 5.55084C9.6836 5.98031 9.15267 6.339 8.67716 6.66024L8.65297 6.67659C8.14893 7.01716 7.70537 7.31958 7.38049 7.66201C7.06803 7.99137 6.90173 8.32061 6.90173 8.71312C6.90173 8.97311 6.99591 9.24901 7.18388 9.45487C7.36286 9.6509 7.65192 9.81148 8.10664 9.81148C8.66851 9.81148 9.05568 9.62387 9.4789 9.39302C9.51065 9.3757 9.54305 9.35782 9.57613 9.33956C9.9694 9.12247 10.4586 8.85246 11.0903 8.85246C11.5572 8.85246 11.9747 8.98672 12.2835 9.25433C12.5962 9.52536 12.7624 9.90458 12.7624 10.3115C12.7624 10.8959 12.5302 11.2468 12.3223 11.4893C12.2706 11.5497 12.2356 11.588 12.2087 11.6175C12.1802 11.6487 12.1609 11.6699 12.1404 11.6966C12.1448 11.7035 12.1499 11.7113 12.156 11.7199C12.2051 11.7899 12.2879 11.8813 12.4086 11.9908C12.6487 12.2087 12.9822 12.448 13.3335 12.6757C13.6814 12.9012 14.0312 13.1054 14.2954 13.2537C14.4271 13.3277 14.5367 13.3874 14.613 13.4284C14.6512 13.4488 14.6809 13.4646 14.7009 13.4752L14.7235 13.487L14.7289 13.4898L14.7301 13.4905C14.7301 13.4905 14.7301 13.4905 14.7301 13.4905C14.9752 13.6176 15.0711 13.9195 14.944 14.1646C14.8169 14.4097 14.5151 14.5054 14.2699 14.3783L14.5001 13.9344C14.2699 14.3783 14.27 14.3783 14.2699 14.3783L14.2671 14.3768L14.2602 14.3732L14.2346 14.3598C14.2125 14.3481 14.1804 14.3311 14.1399 14.3094C14.0589 14.2658 13.9437 14.2031 13.8057 14.1256C13.5304 13.971 13.161 13.7556 12.7896 13.5149C12.4217 13.2764 12.0359 13.0029 11.7366 12.7313C11.5875 12.5961 11.4455 12.4485 11.3373 12.2941C11.2357 12.1493 11.123 11.9414 11.123 11.6967C11.123 11.4496 11.2208 11.2621 11.3172 11.1282C11.3731 11.0505 11.4591 10.9548 11.5168 10.8907C11.5361 10.8691 11.5523 10.8511 11.5631 10.8385C11.6749 10.7081 11.7624 10.5796 11.7624 10.3115C11.7624 10.1856 11.7154 10.0853 11.6286 10.01C11.5378 9.93131 11.3692 9.85246 11.0903 9.85246C10.724 9.85246 10.4492 10.0025 10.0106 10.2421C9.99321 10.2516 9.97562 10.2612 9.95775 10.2709C9.50187 10.5196 8.93003 10.8115 8.10664 10.8115C7.38924 10.8115 6.82584 10.5458 6.44539 10.1291C6.07393 9.7223 5.90173 9.19902 5.90173 8.71312C5.90173 7.98677 6.22826 7.42359 6.65503 6.97375C7.06248 6.54428 7.59341 6.18559 8.06892 5.86434L8.09311 5.848C8.59715 5.50743 9.04071 5.20501 9.36558 4.86258C9.67805 4.53322 9.84435 4.20398 9.84435 3.81148C9.84435 3.37793 9.71597 3.06439 9.51129 2.8597C9.30762 2.65603 8.96821 2.5 8.42632 2.5Z" fill="#5CAAFF"/>
</svg>
