<svg width="16" height="16" viewBox="0 0 16 16" fill="none" xmlns="http://www.w3.org/2000/svg">
<path d="M13.5 11.071V4.92899C13.8412 4.84151 14.1531 4.66533 14.4041 4.41834C14.6551 4.17135 14.8363 3.86233 14.9293 3.52267C15.0223 3.183 15.0237 2.82479 14.9335 2.48438C14.8432 2.14398 14.6646 1.83351 14.4155 1.5845C14.1665 1.33548 13.8561 1.15679 13.5157 1.06656C13.1752 0.976331 12.817 0.977778 12.4774 1.07075C12.1377 1.16373 11.8287 1.34493 11.5817 1.59594C11.3347 1.84696 11.1585 2.15887 11.071 2.49999H4.92905C4.84157 2.15887 4.66539 1.84696 4.4184 1.59594C4.17141 1.34493 3.86239 1.16373 3.52273 1.07075C3.18306 0.977778 2.82485 0.976331 2.48444 1.06656C2.14404 1.15679 1.83357 1.33548 1.58456 1.5845C1.33554 1.83351 1.15685 2.14398 1.06662 2.48438C0.976392 2.82479 0.977839 3.183 1.07082 3.52267C1.16379 3.86233 1.34499 4.17135 1.59601 4.41834C1.84702 4.66533 2.15893 4.84151 2.50005 4.92899V11.071C2.15893 11.1585 1.84702 11.3346 1.59601 11.5816C1.34499 11.8286 1.16379 12.1376 1.07082 12.4773C0.977839 12.817 0.976392 13.1752 1.06662 13.5156C1.15685 13.856 1.33554 14.1665 1.58456 14.4155C1.83357 14.6645 2.14404 14.8432 2.48444 14.9334C2.82485 15.0236 3.18306 15.0222 3.52273 14.9292C3.86239 14.8362 4.17141 14.655 4.4184 14.404C4.66539 14.153 4.84157 13.8411 4.92905 13.5H11.071C11.1585 13.8411 11.3347 14.153 11.5817 14.404C11.8287 14.655 12.1377 14.8362 12.4774 14.9292C12.817 15.0222 13.1752 15.0236 13.5157 14.9334C13.8561 14.8432 14.1665 14.6645 14.4155 14.4155C14.6646 14.1665 14.8432 13.856 14.9335 13.5156C15.0237 13.1752 15.0223 12.817 14.9293 12.4773C14.8363 12.1376 14.6551 11.8286 14.4041 11.5816C14.1531 11.3346 13.8412 11.1585 13.5 11.071ZM13 1.99999C13.1978 1.99999 13.3912 2.05864 13.5556 2.16852C13.7201 2.2784 13.8482 2.43458 13.9239 2.6173C13.9996 2.80003 14.0194 3.0011 13.9808 3.19508C13.9422 3.38906 13.847 3.56724 13.7072 3.70709C13.5673 3.84695 13.3891 3.94219 13.1951 3.98077C13.0012 4.01936 12.8001 3.99955 12.6174 3.92387C12.4346 3.84818 12.2785 3.72001 12.1686 3.55556C12.0587 3.39111 12 3.19777 12 2.99999C12.0004 2.73486 12.1058 2.48069 12.2933 2.29322C12.4807 2.10575 12.7349 2.00029 13 1.99999ZM2.00005 2.99999C2.00005 2.80221 2.0587 2.60887 2.16858 2.44442C2.27846 2.27997 2.43464 2.15179 2.61736 2.07611C2.80009 2.00042 3.00116 1.98062 3.19514 2.0192C3.38912 2.05779 3.5673 2.15303 3.70715 2.29288C3.84701 2.43273 3.94225 2.61092 3.98083 2.8049C4.01942 2.99888 3.99961 3.19994 3.92393 3.38267C3.84824 3.5654 3.72007 3.72158 3.55562 3.83146C3.39117 3.94134 3.19783 3.99999 3.00005 3.99999C2.73491 3.99972 2.48071 3.89428 2.29323 3.7068C2.10575 3.51932 2.00031 3.26512 2.00005 2.99999ZM3.00005 14C2.80227 14 2.60893 13.9413 2.44448 13.8315C2.28003 13.7216 2.15186 13.5654 2.07617 13.3827C2.00048 13.1999 1.98068 12.9989 2.01926 12.8049C2.05785 12.6109 2.15309 12.4327 2.29294 12.2929C2.43279 12.153 2.61098 12.0578 2.80496 12.0192C2.99894 11.9806 3.20001 12.0004 3.38273 12.0761C3.56546 12.1518 3.72164 12.28 3.83152 12.4444C3.9414 12.6089 4.00005 12.8022 4.00005 13C3.99974 13.2651 3.89429 13.5193 3.70682 13.7068C3.51935 13.8942 3.26517 13.9997 3.00005 14ZM11.071 12.5H4.92905C4.8395 12.1562 4.65986 11.8426 4.40867 11.5914C4.15748 11.3402 3.84382 11.1605 3.50005 11.071V4.92899C3.84379 4.83939 4.15743 4.65974 4.40861 4.40855C4.6598 4.15737 4.83945 3.84373 4.92905 3.49999H11.071C11.1606 3.84376 11.3402 4.15741 11.5914 4.40861C11.8426 4.6598 12.1563 4.83944 12.5 4.92899V11.071C12.1563 11.1605 11.8426 11.3401 11.5914 11.5913C11.3402 11.8425 11.1606 12.1562 11.071 12.5ZM13 14C12.8023 14 12.6089 13.9413 12.4445 13.8315C12.28 13.7216 12.1519 13.5654 12.0762 13.3827C12.0005 13.1999 11.9807 12.9989 12.0193 12.8049C12.0578 12.6109 12.1531 12.4327 12.2929 12.2929C12.4328 12.153 12.611 12.0578 12.805 12.0192C12.9989 11.9806 13.2 12.0004 13.3827 12.0761C13.5655 12.1518 13.7216 12.28 13.8315 12.4444C13.9414 12.6089 14 12.8022 14 13C13.9997 13.2651 13.8942 13.5192 13.7068 13.7067C13.5193 13.8942 13.2652 13.9996 13 14Z" fill="#F68C00"/>
</svg>
