<svg width="32" height="32" viewBox="0 0 32 32" fill="none" xmlns="http://www.w3.org/2000/svg">
<path fill-rule="evenodd" clip-rule="evenodd" d="M16.8525 5C11.7813 5 7.37708 7.89428 3.87004 14.0832C3.59776 14.5637 2.98751 14.7325 2.50701 14.4602C2.02651 14.1879 1.85772 13.5777 2.13 13.0972C5.86886 6.49916 10.8417 3 16.8525 3C18.3261 3 19.5653 3.43384 20.4366 4.30519C21.306 5.17451 21.6885 6.3589 21.6885 7.62295C21.6885 9.07565 21.0355 10.202 20.1819 11.1017C19.3671 11.9606 18.3052 12.678 17.3542 13.3205L17.3058 13.3532C16.2977 14.0343 15.4106 14.6392 14.7608 15.324C14.1359 15.9827 13.8033 16.6412 13.8033 17.4262C13.8033 17.9462 13.9917 18.498 14.3676 18.9097C14.7256 19.3018 15.3037 19.623 16.2131 19.623C17.3369 19.623 18.1112 19.2477 18.9576 18.786C19.0211 18.7514 19.0859 18.7156 19.1521 18.6791C19.9387 18.2449 20.917 17.7049 22.1803 17.7049C23.1143 17.7049 23.9493 17.9734 24.5668 18.5087C25.1923 19.0507 25.5246 19.8092 25.5246 20.623C25.5246 21.7917 25.0602 22.4937 24.6445 22.9787C24.5411 23.0993 24.4711 23.176 24.4173 23.2349C24.3603 23.2973 24.3216 23.3398 24.2807 23.3933C24.2894 23.407 24.2997 23.4225 24.3119 23.4399C24.4101 23.5799 24.5757 23.7626 24.817 23.9815C25.2973 24.4174 25.9642 24.896 26.6669 25.3514C27.3626 25.8023 28.0623 26.2107 28.5907 26.5075C28.8541 26.6555 29.0733 26.7748 29.2259 26.8567C29.3022 26.8977 29.3617 26.9293 29.4017 26.9504L29.4468 26.974L29.4576 26.9797L29.46 26.9809C29.46 26.9809 29.46 26.9809 29.46 26.9809C29.9502 27.2352 30.142 27.8389 29.8878 28.3292C29.6335 28.8195 29.03 29.0108 28.5397 28.7566L29 27.8689C28.5397 28.7566 28.5398 28.7567 28.5397 28.7566L28.5341 28.7537L28.5203 28.7465L28.4691 28.7196C28.4248 28.6963 28.3607 28.6623 28.2796 28.6187C28.1176 28.5317 27.8872 28.4063 27.6112 28.2512C27.0606 27.942 26.3219 27.5112 25.5791 27.0297C24.8432 26.5528 24.0716 26.0058 23.473 25.4626C23.1749 25.1921 22.8909 24.8969 22.6744 24.5882C22.4713 24.2986 22.2459 23.8828 22.2459 23.3934C22.2459 22.8993 22.4414 22.5242 22.6342 22.2564C22.7461 22.101 22.918 21.9097 23.0334 21.7813C23.0721 21.7382 23.1044 21.7023 23.126 21.6771C23.3496 21.4162 23.5246 21.1591 23.5246 20.623C23.5246 20.3712 23.4307 20.1706 23.257 20.02C23.0754 19.8626 22.7383 19.7049 22.1803 19.7049C21.4478 19.7049 20.8983 20.005 20.021 20.4842C19.9863 20.5031 19.9511 20.5223 19.9153 20.5418C19.0036 21.0392 17.8599 21.623 16.2131 21.623C14.7783 21.623 13.6515 21.0916 12.8906 20.2583C12.1477 19.4446 11.8033 18.398 11.8033 17.4262C11.8033 15.9735 12.4564 14.8472 13.3099 13.9475C14.1248 13.0886 15.1867 12.3712 16.1377 11.7287L16.1861 11.696C17.1941 11.0149 18.0813 10.41 18.731 9.72516C19.356 9.06645 19.6885 8.40796 19.6885 7.62295C19.6885 6.75586 19.4318 6.12877 19.0224 5.7194C18.6151 5.31206 17.9363 5 16.8525 5Z" fill="#F97316"/>
</svg>
