<svg width="183" height="32" viewBox="0 0 183 32" fill="none" xmlns="http://www.w3.org/2000/svg">
<g clip-path="url(#clip0_1162_30528)">
<path d="M51.7509 31.1048C56.2401 31.1048 60.1692 28.8602 61.7224 24.3281C62.024 23.4206 61.5914 22.8176 60.7296 22.8176H59.0453C58.2686 22.8176 57.7509 23.1617 57.4037 23.8956C56.0666 26.5303 54.2088 27.4775 51.8789 27.4775C47.7336 27.4775 45.1875 24.584 45.1875 19.7505C45.1875 14.917 47.822 12.0237 51.7905 12.0237C54.2087 12.0237 56.1946 13.0592 57.4464 15.5201C57.8362 16.2541 58.3082 16.5983 59.088 16.5983H60.7722C61.6341 16.5983 62.0666 16.0378 61.7651 15.2155C59.9528 10.2937 55.8929 8.39626 51.7509 8.39626C45.492 8.39626 40.8291 13.0165 40.8291 19.7505C40.8291 26.4846 45.2759 31.1048 51.7509 31.1048ZM164.718 17.7647C165.278 14.0947 167.782 11.8074 171.193 11.8074C174.604 11.8074 177.15 14.1373 177.452 17.7647H164.718ZM171.367 31.1048C175.338 31.1048 179.31 29.2499 181.253 25.0622C181.728 24.0693 181.296 23.3779 180.434 23.3779H178.837C178.061 23.3779 177.586 23.7221 177.196 24.4135C175.902 26.7008 173.657 27.651 171.37 27.651C167.441 27.651 164.895 24.9738 164.593 20.6154H180.437C181.299 20.6154 181.863 20.1404 181.863 19.2328C181.689 12.4561 177.287 8.3993 171.199 8.3993C165.111 8.3993 160.278 12.8034 160.278 19.7536C160.278 26.7038 164.983 31.1079 171.373 31.1079L171.367 31.1048ZM146.243 20.3139H147.668C148.53 20.3139 149.005 19.8389 149.136 18.9312C149.959 13.0988 153.373 12.3252 157.003 12.4988C157.78 12.5353 158.417 11.9384 158.417 11.1587V9.82163C158.417 8.95971 157.984 8.43889 157.122 8.39626C153.909 8.27443 151.043 9.37696 149.386 12.4988C149.295 12.6693 149.039 12.6237 149.018 12.4318L148.75 10.0775C148.664 9.21555 148.189 8.78305 147.324 8.78305H140.806C140.045 8.78305 139.424 9.40133 139.424 10.1658V10.8998C139.424 11.6612 140.042 12.2825 140.806 12.2825H143.484C144.245 12.2825 144.866 12.9008 144.866 13.6653V18.9312C144.866 19.6926 145.485 20.3139 146.249 20.3139H146.243ZM140.417 30.6753H153.927C154.789 30.6753 155.31 30.1576 155.31 29.2926V28.5585C155.31 27.6967 154.792 27.176 153.927 27.176H150.473C149.612 27.176 149.091 26.6581 149.091 25.7932V23.4176C149.091 22.5555 148.573 22.0348 147.708 22.0348H146.24C145.378 22.0348 144.857 22.5525 144.857 23.4176V25.7932C144.857 26.6551 144.339 27.176 143.474 27.176H140.411C139.549 27.176 139.028 27.6936 139.028 28.5585V29.2926C139.028 30.1546 139.546 30.6753 140.411 30.6753H140.417ZM119.566 17.7678C120.126 14.0978 122.63 11.8105 126.041 11.8105C129.452 11.8105 131.998 14.1404 132.3 17.7678H119.566ZM126.215 31.1079C130.186 31.1079 134.158 29.2531 136.101 25.0652C136.576 24.0723 136.143 23.3809 135.282 23.3809H133.686C132.909 23.3809 132.434 23.7251 132.044 24.4165C130.75 26.7038 128.505 27.654 126.218 27.654C122.289 27.654 119.743 24.9768 119.441 20.6186H135.285C136.146 20.6186 136.71 20.1434 136.71 19.2359C136.536 12.4592 132.135 8.40234 126.047 8.40234C119.959 8.40234 115.125 12.8064 115.125 19.7566C115.125 26.7068 119.831 31.1109 126.221 31.1109L126.215 31.1079ZM76.2716 31.1079C82.7468 31.1079 87.3671 26.3169 87.3671 19.7536C87.3671 13.1901 82.7468 8.3993 76.2716 8.3993C69.7966 8.3993 65.1763 13.2785 65.1763 19.7536C65.1763 21.2643 65.4352 22.9484 66.2117 24.8033C66.6016 25.7109 67.3356 25.8389 68.1123 25.2784L69.3641 24.3708C70.0128 23.8956 70.1833 23.3352 69.9671 22.516C69.6229 21.4378 69.5345 20.4876 69.5345 19.6682C69.5345 15.1363 72.2544 12.0267 76.2686 12.0267C80.2828 12.0267 83.0026 15.0906 83.0026 19.7536C83.0026 24.4165 80.3255 27.4805 76.3539 27.4805C74.9712 27.4805 73.6768 27.2216 72.1233 26.0551C71.4746 25.5374 70.8716 25.452 70.1802 25.9697L69.23 26.6611C68.4533 27.2216 68.3681 27.9982 69.099 28.6042C71.3438 30.4165 73.9326 31.1079 76.2656 31.1079H76.2716ZM92.8462 30.6753H94.2716C95.033 30.6753 95.6544 30.057 95.6544 29.2926V18.9768C95.6544 14.6186 97.9842 12.0267 101.612 12.0267C104.892 12.0267 106.792 14.1861 106.792 18.1576V29.2956C106.792 30.057 107.411 30.6784 108.175 30.6784H109.643C110.404 30.6784 111.026 30.06 111.026 29.2956V17.4663C111.026 11.6399 108.047 8.40234 102.997 8.40234C99.5589 8.40234 97.5274 9.80945 96.0106 11.7678C95.8949 11.9171 95.6604 11.8348 95.6604 11.649V2.27141C95.6512 1.50694 95.033 0.888672 94.2716 0.888672H92.8462C92.0848 0.888672 91.4634 1.50694 91.4634 2.27141V29.2926C91.4634 30.054 92.0818 30.6753 92.8462 30.6753Z" fill="#262626"/>
<mask id="mask0_1162_30528" style="mask-type:luminance" maskUnits="userSpaceOnUse" x="0" y="0" width="31" height="32">
<path d="M30.94 0.888672H0.717773V31.1109H30.94V0.888672Z" fill="white"/>
</mask>
<g mask="url(#mask0_1162_30528)">
<path fill-rule="evenodd" clip-rule="evenodd" d="M10.5093 18.8832C11.3228 18.8832 12.9409 18.8385 15.1776 17.9177C17.784 16.8445 22.9695 14.8965 26.7103 12.8956C29.3265 11.4961 30.4733 9.64517 30.4733 7.15257C30.4733 3.69313 27.6689 0.888672 24.2095 0.888672H9.71502C4.74597 0.888672 0.717773 4.91687 0.717773 9.88592C0.717773 14.855 4.48935 18.8832 10.5093 18.8832Z" fill="#262626"/>
<path fill-rule="evenodd" clip-rule="evenodd" d="M12.9609 25.0789C12.9609 22.6432 14.4273 20.4471 16.677 19.5134L21.2416 17.619C25.8587 15.7028 30.9406 19.0958 30.9406 24.0949C30.9406 27.9678 27.8004 31.1072 23.9273 31.1061L18.9853 31.1049C15.6578 31.104 12.9609 28.4064 12.9609 25.0789Z" fill="#262626"/>
<path d="M5.90442 20.0693C3.03996 20.0693 0.717773 22.3913 0.717773 25.2558V25.9276C0.717773 28.792 3.03987 31.1141 5.90434 31.1141C8.7688 31.1141 11.091 28.792 11.091 25.9276V25.2558C11.091 22.3913 8.76889 20.0693 5.90442 20.0693Z" fill="#262626"/>
</g>
</g>
<defs>
<clipPath id="clip0_1162_30528">
<rect width="181.333" height="32" fill="white" transform="translate(0.717773)"/>
</clipPath>
</defs>
</svg>
