<svg width="83" height="37" viewBox="0 0 83 37" fill="none" xmlns="http://www.w3.org/2000/svg">
<g clip-path="url(#clip0_1162_34762)">
<path fill-rule="evenodd" clip-rule="evenodd" d="M23.0674 3.92C24.7236 3.92 29.3 4.13826 26.3507 12.825C23.249 21.9338 16.3844 20.064 16.3844 20.064L21.4329 3.92H23.0674ZM35.351 13.4071C39.2228 3.83998 31.995 1.24268 27.266 1.24268L11.6482 1.25723C12.9484 2.14482 12.7305 3.33798 12.4763 4.05824L3.3816 33.196C3.0184 34.3455 1.65274 35.5605 0.933594 35.7497H13.5732C12.8758 35.626 11.8879 34.6293 12.2438 33.276L15.549 22.7413C15.549 22.7413 30.7601 24.8003 35.351 13.4071Z" fill="#262626"/>
<path fill-rule="evenodd" clip-rule="evenodd" d="M40.4725 31.268C39.9713 31.5735 37.9954 32.5775 36.1431 32.7521C34.4288 32.9122 31.574 32.2429 31.574 28.8089C31.574 25.8624 34.7702 23.7234 36.4918 22.9595C37.2109 25.8187 38.7872 29.0271 40.4652 31.268M45.4484 12.7085C45.0126 15.4804 41.4241 18.2887 40.5524 18.6671C40.3999 17.1101 40.4652 14.6438 41.7728 12.6285C42.63 11.2898 43.7704 10.7078 44.7002 11.0279C45.4339 11.2826 45.5283 11.9665 45.4557 12.7013M45.4702 35.735H53.962C51.2379 34.8474 47.2209 32.2865 45.6155 30.4458C46.9158 29.0271 48.5139 27.252 48.8045 23.6216H44.3879C44.3879 23.6216 45.245 24.109 45.245 25.1494C45.245 26.1097 44.86 27.4266 44.1191 28.3724C42.8261 26.459 41.4386 24.2691 40.9665 21.0534C42.6881 20.1876 45.1215 19.2564 47.0611 17.5612C48.8844 15.9461 49.3057 14.4401 49.342 13.4433V13.3197C49.342 12.2866 48.9352 11.3189 48.187 10.5769C46.9158 9.2964 44.8964 8.78713 42.7898 9.17999C41.0827 9.50011 39.6371 10.4095 38.918 11.0789C36.3392 13.4797 36.0123 17.4666 36.0123 19.2636C36.0123 19.6929 36.0269 20.0348 36.0487 20.224C35.9034 20.2749 35.6419 20.384 35.6419 20.384C33.7677 21.0679 28.7555 22.4139 26.9613 26.539C26.7361 27.0628 26.4092 28.1832 26.4092 29.5073C26.4092 30.635 26.6562 31.9009 27.3753 33.0577C28.6393 35.0293 30.7894 36.2807 34.2108 36.2152C37.9446 36.1497 41.6057 33.6106 42.2667 33.145C42.9133 33.7416 44.584 35.3131 45.4702 35.7277" fill="#262626"/>
<path fill-rule="evenodd" clip-rule="evenodd" d="M71.316 3.94929C76.3719 2.73431 80.5342 6.69938 80.9265 6.96856L82.372 2.37054C80.3599 1.77396 65.8607 -3.14417 55.6183 8.58369C49.313 15.7863 47.7658 30.5625 55.7636 34.5203C64.3207 38.7546 73.7713 33.8655 74.4541 33.5236L78.3767 21.0609C78.7908 19.5549 79.7497 18.5727 81.4277 17.9471H67.8438C69.8341 18.7837 69.6889 20.2752 69.5218 20.8863L65.621 33.349C65.1052 33.4581 54.1872 36.1718 60.3036 17.0449C61.6184 12.9344 65.3013 5.39709 71.316 3.94929Z" fill="#262626"/>
</g>
<defs>
<clipPath id="clip0_1162_34762">
<rect width="81.4307" height="35.3946" fill="white" transform="translate(0.933594 0.842773)"/>
</clipPath>
</defs>
</svg>
