<svg width="36" height="36" viewBox="0 0 36 36" fill="none" xmlns="http://www.w3.org/2000/svg">
<path fill-rule="evenodd" clip-rule="evenodd" d="M33 15H3C2.20435 15 1.44129 14.6839 0.87868 14.1213C0.31607 13.5587 0 12.7956 0 12V3C0 2.20435 0.31607 1.44129 0.87868 0.87868C1.44129 0.31607 2.20435 0 3 0H33C33.7957 0 34.5587 0.31607 35.1213 0.87868C35.6839 1.44129 36 2.20435 36 3V12C36 12.7956 35.6839 13.5587 35.1213 14.1213C34.5587 14.6839 33.7957 15 33 15ZM3 3V12H33V3H3ZM0 21H15V24H0V21ZM0 30H15V33H0V30ZM24 36H33C33.7957 36 34.5587 35.6839 35.1213 35.1213C35.6839 34.5587 36 33.7957 36 33V24C36 23.2044 35.6839 22.4413 35.1213 21.8787C34.5587 21.3161 33.7957 21 33 21H24C23.2044 21 22.4413 21.3161 21.8787 21.8787C21.3161 22.4413 21 23.2044 21 24V33C21 33.7957 21.3161 34.5587 21.8787 35.1213C22.4413 35.6839 23.2044 36 24 36ZM24 33V24H33V33H24Z" fill="#171717"/>
</svg>
