<svg width="726" height="516" viewBox="0 0 726 516" fill="none" xmlns="http://www.w3.org/2000/svg">
<rect x="27.5" y="18.5" width="671" height="478" rx="26.5" fill="#F5F5F5"/>
<rect x="27.5" y="18.5" width="671" height="478" rx="26.5" stroke="#171717"/>
<rect x="76.8605" y="0.5" width="572.556" height="147.547" rx="23.5" fill="#F5F5F5"/>
<rect x="76.8605" y="0.5" width="572.556" height="147.547" rx="23.5" stroke="#171717"/>
<rect x="118.802" y="29.4735" width="45.9788" height="45.9788" rx="13.7936" fill="#FBBF24"/>
<path d="M149.533 41.6256C149.943 41.6256 150.337 41.7886 150.627 42.0787C150.918 42.369 151.081 42.763 151.082 43.1735V47.818C151.082 48.2286 150.918 48.6224 150.627 48.9127C150.337 49.2031 149.943 49.3668 149.533 49.3668H142.566V52.4625H148.759C149.17 52.4627 149.564 52.6264 149.854 52.9166C150.144 53.2069 150.307 53.6009 150.307 54.0114V57.1071H152.629V63.3004H146.436V57.1071H148.759V54.0114H142.566V57.1071H144.888V63.3004H138.696V57.1071H141.018V54.0114H134.825V57.1071H137.147V63.3004H130.955V57.1071H133.277V54.0114C133.277 53.6009 133.44 53.2069 133.73 52.9166C134.02 52.6264 134.414 52.4626 134.825 52.4625H141.018V49.3668H134.051C133.641 49.3668 133.247 49.2031 132.957 48.9127C132.666 48.6224 132.502 48.2286 132.502 47.818V43.1735C132.503 42.763 132.666 42.369 132.957 42.0787C133.247 41.7886 133.641 41.6256 134.051 41.6256H149.533ZM132.502 58.6559V61.7526H135.599V58.6559H132.502ZM140.244 58.6559V61.7526H143.34V58.6559H140.244ZM147.985 58.6559V61.7526H151.082V58.6559H147.985ZM134.051 43.1735V47.818H149.533V43.1735H134.051ZM136.374 44.7223C136.801 44.7225 137.147 45.0685 137.147 45.4957C137.147 45.9231 136.801 46.27 136.374 46.2701C135.946 46.2701 135.599 45.9232 135.599 45.4957C135.599 45.0684 135.946 44.7223 136.374 44.7223Z" fill="#171717"/>
<rect x="207.341" y="29.4735" width="45.9788" height="45.9788" rx="13.7936" fill="#FBBF24"/>
<path fill-rule="evenodd" clip-rule="evenodd" d="M220.62 54.4051V62.1736H228.388V54.4051H220.62Z" fill="#262626"/>
<path fill-rule="evenodd" clip-rule="evenodd" d="M226.446 44.6943H222.562V48.5786H226.446V44.6943ZM220.62 42.7522V50.5208H228.388V42.7522H220.62Z" fill="#262626"/>
<path fill-rule="evenodd" clip-rule="evenodd" d="M238.099 44.6943H234.215V60.2315H238.099V44.6943ZM232.272 42.7522V62.1736H240.041V42.7522H232.272Z" fill="#262626"/>
<rect x="295.88" y="29.4735" width="45.9788" height="45.9788" rx="13.7936" fill="#FBBF24"/>
<path d="M319.643 41.6256V51.6891H329.707V53.2369H319.643V63.3004H318.095V53.2369H308.032V51.6891H318.095V41.6256H319.643ZM315.773 56.6432L313.76 58.6559L315.773 60.6686L314.689 61.7526L312.676 59.7399L310.664 61.7526L309.58 60.6686L311.592 58.6559L309.58 56.6432L310.664 55.5592L312.676 57.5719L314.689 55.5592L315.773 56.6432ZM315.773 44.2574L313.76 46.2701L315.773 48.2828L314.689 49.3668L312.676 47.3541L310.664 49.3668L309.58 48.2828L311.592 46.2701L309.58 44.2574L310.664 43.1735L312.676 45.1862L314.689 43.1735L315.773 44.2574ZM329.707 43.9479L324.288 49.3658L321.191 46.2701L322.275 45.1862L324.288 47.1989L328.623 42.8639L329.707 43.9479Z" fill="#171717"/>
<rect x="384.418" y="29.4735" width="45.9788" height="45.9788" rx="13.7936" fill="#FBBF24"/>
<path fill-rule="evenodd" clip-rule="evenodd" d="M398.119 50.605C398.632 50.605 399.048 51.0209 399.048 51.5339V53.3917C399.048 53.9048 398.632 54.3206 398.119 54.3206C397.606 54.3206 397.19 53.9048 397.19 53.3917V51.5339C397.19 51.0209 397.606 50.605 398.119 50.605Z" fill="#171717"/>
<path fill-rule="evenodd" clip-rule="evenodd" d="M402.763 47.8182C403.276 47.8182 403.692 48.2341 403.692 48.7472V56.1785C403.692 56.6915 403.276 57.1074 402.763 57.1074C402.25 57.1074 401.834 56.6915 401.834 56.1785V48.7472C401.834 48.2341 402.25 47.8182 402.763 47.8182Z" fill="#171717"/>
<path fill-rule="evenodd" clip-rule="evenodd" d="M407.408 45.0315C407.921 45.0315 408.337 45.4474 408.337 45.9604V58.9652C408.337 59.4782 407.921 59.8941 407.408 59.8941C406.895 59.8941 406.479 59.4782 406.479 58.9652V45.9604C406.479 45.4474 406.895 45.0315 407.408 45.0315Z" fill="#171717"/>
<path fill-rule="evenodd" clip-rule="evenodd" d="M412.052 47.8182C412.565 47.8182 412.981 48.2341 412.981 48.7472V56.1785C412.981 56.6915 412.565 57.1074 412.052 57.1074C411.539 57.1074 411.123 56.6915 411.123 56.1785V48.7472C411.123 48.2341 411.539 47.8182 412.052 47.8182Z" fill="#171717"/>
<path fill-rule="evenodd" clip-rule="evenodd" d="M416.697 50.605C417.21 50.605 417.626 51.0209 417.626 51.5339V53.3917C417.626 53.9048 417.21 54.3206 416.697 54.3206C416.184 54.3206 415.768 53.9048 415.768 53.3917V51.5339C415.768 51.0209 416.184 50.605 416.697 50.605Z" fill="#171717"/>
<rect x="472.957" y="29.4735" width="45.9788" height="45.9788" rx="13.7936" fill="#FBBF24"/>
<path fill-rule="evenodd" clip-rule="evenodd" d="M490.373 44.3433L504.292 52.4629L490.373 60.5826V44.3433ZM492.231 47.5778V57.3481L500.605 52.4629L492.231 47.5778Z" fill="#171717"/>
<rect x="561.496" y="29.4735" width="45.9788" height="45.9788" rx="13.7936" fill="#FBBF24"/>
<g clip-path="url(#clip0_4_606)">
<path d="M587.249 45.1232L583.208 60.2052L581.712 59.8038L585.753 44.7228L587.249 45.1232ZM579.383 48.1359L575.064 52.463L579.383 56.7902L578.292 57.882L572.874 52.463L578.292 47.0441L579.383 48.1359ZM596.096 52.463L590.677 57.882L589.586 56.7902L593.906 52.463L589.586 48.1359L590.677 47.0441L596.096 52.463Z" fill="#171717"/>
</g>
<path d="M114.741 109.907V112.445H113.724V106.163H116.433C117.558 106.163 118.251 106.892 118.251 108.053C118.251 108.944 117.828 109.565 117.027 109.799L118.386 112.445H117.252L115.992 109.907H114.741ZM114.741 109.052H116.361C116.874 109.052 117.18 108.773 117.18 108.269V107.837C117.18 107.333 116.874 107.054 116.361 107.054H114.741V109.052ZM124.184 112.445H120.161V106.163H124.184V107.063H121.178V108.809H123.905V109.709H121.178V111.545H124.184V112.445ZM131.022 112.445H129.96L129.393 110.744H127.044L126.495 112.445H125.46L127.602 106.163H128.88L131.022 112.445ZM129.141 109.871L128.241 107.099H128.196L127.287 109.871H129.141ZM134.416 112.553C133.363 112.553 132.643 112.139 132.121 111.491L132.823 110.834C133.264 111.374 133.786 111.653 134.47 111.653C135.271 111.653 135.685 111.257 135.685 110.654C135.685 110.168 135.433 109.889 134.704 109.745L134.146 109.646C132.931 109.421 132.31 108.854 132.31 107.855C132.31 106.739 133.174 106.055 134.506 106.055C135.451 106.055 136.144 106.397 136.63 107.018L135.919 107.648C135.595 107.225 135.145 106.955 134.452 106.955C133.732 106.955 133.318 107.252 133.318 107.801C133.318 108.323 133.642 108.548 134.317 108.683L134.875 108.8C136.126 109.043 136.693 109.601 136.693 110.6C136.693 111.77 135.856 112.553 134.416 112.553ZM140.884 112.553C139.246 112.553 138.175 111.419 138.175 109.304C138.175 107.189 139.246 106.055 140.884 106.055C142.522 106.055 143.593 107.189 143.593 109.304C143.593 111.419 142.522 112.553 140.884 112.553ZM140.884 111.644C141.856 111.644 142.504 110.942 142.504 109.799V108.809C142.504 107.666 141.856 106.964 140.884 106.964C139.912 106.964 139.264 107.666 139.264 108.809V109.799C139.264 110.942 139.912 111.644 140.884 111.644ZM149.145 112.445L147.093 108.971L146.4 107.639H146.373V112.445H145.401V106.163H146.535L148.587 109.637L149.28 110.969H149.307V106.163H150.279V112.445H149.145ZM154.832 112.445H152.096V111.617H152.951V106.991H152.096V106.163H154.832V106.991H153.968V111.617H154.832V112.445ZM160.394 112.445L158.342 108.971L157.649 107.639H157.622V112.445H156.65V106.163H157.784L159.836 109.637L160.529 110.969H160.556V106.163H161.528V112.445H160.394ZM167.656 112.445V111.491H167.62C167.494 112.094 166.882 112.553 165.928 112.553C164.434 112.553 163.336 111.41 163.336 109.304C163.336 107.207 164.434 106.055 166.081 106.055C167.206 106.055 167.989 106.586 168.421 107.468L167.593 107.954C167.35 107.369 166.846 106.964 166.081 106.964C165.091 106.964 164.425 107.639 164.425 108.791V109.817C164.425 110.969 165.091 111.644 166.081 111.644C166.873 111.644 167.566 111.239 167.566 110.456V109.97H166.27V109.097H168.547V112.445H167.656Z" fill="#171717"/>
<path d="M199.944 107.445V101.163H201.15L202.833 104.358H202.887L204.57 101.163H205.722V107.445H204.75V102.639H204.705L204.21 103.656L202.833 106.167L201.456 103.656L200.961 102.639H200.916V107.445H199.944ZM207.778 101.163H208.777V105.033C208.777 106.095 209.146 106.644 210.127 106.644C211.108 106.644 211.477 106.095 211.477 105.033V101.163H212.476V104.871C212.476 106.707 211.846 107.553 210.127 107.553C208.408 107.553 207.778 106.707 207.778 104.871V101.163ZM218.097 107.445H214.524V101.163H215.541V106.545H218.097V107.445ZM220.342 107.445V102.063H218.47V101.163H223.231V102.063H221.359V107.445H220.342ZM227.175 107.445H224.439V106.617H225.294V101.991H224.439V101.163H227.175V101.991H226.311V106.617H227.175V107.445ZM228.994 107.445V101.163H230.2L231.883 104.358H231.937L233.62 101.163H234.772V107.445H233.8V102.639H233.755L233.26 103.656L231.883 106.167L230.506 103.656L230.011 102.639H229.966V107.445H228.994ZM239.294 107.553C237.656 107.553 236.585 106.419 236.585 104.304C236.585 102.189 237.656 101.055 239.294 101.055C240.932 101.055 242.003 102.189 242.003 104.304C242.003 106.419 240.932 107.553 239.294 107.553ZM239.294 106.644C240.266 106.644 240.914 105.942 240.914 104.799V103.809C240.914 102.666 240.266 101.964 239.294 101.964C238.322 101.964 237.674 102.666 237.674 103.809V104.799C237.674 105.942 238.322 106.644 239.294 106.644ZM243.811 107.445V101.163H246.034C247.636 101.163 248.689 102.207 248.689 104.304C248.689 106.401 247.636 107.445 246.034 107.445H243.811ZM244.828 106.545H246.034C246.97 106.545 247.6 105.942 247.6 104.808V103.8C247.6 102.666 246.97 102.063 246.034 102.063H244.828V106.545ZM255.27 107.445H254.208L253.641 105.744H251.292L250.743 107.445H249.708L251.85 101.163H253.128L255.27 107.445ZM253.389 104.871L252.489 102.099H252.444L251.535 104.871H253.389ZM260.355 107.445H256.782V101.163H257.799V106.545H260.355V107.445ZM196.683 114.646C196.683 112.9 197.385 111.379 198.285 110.605H199.212C198.231 111.505 197.61 112.918 197.61 114.286V115.006C197.61 116.374 198.231 117.787 199.212 118.687H198.285C197.385 117.913 196.683 116.392 196.683 114.646ZM202.335 117.553C201.282 117.553 200.562 117.139 200.04 116.491L200.742 115.834C201.183 116.374 201.705 116.653 202.389 116.653C203.19 116.653 203.604 116.257 203.604 115.654C203.604 115.168 203.352 114.889 202.623 114.745L202.065 114.646C200.85 114.421 200.229 113.854 200.229 112.855C200.229 111.739 201.093 111.055 202.425 111.055C203.37 111.055 204.063 111.397 204.549 112.018L203.838 112.648C203.514 112.225 203.064 111.955 202.371 111.955C201.651 111.955 201.237 112.252 201.237 112.801C201.237 113.323 201.561 113.548 202.236 113.683L202.794 113.8C204.045 114.043 204.612 114.601 204.612 115.6C204.612 116.77 203.775 117.553 202.335 117.553ZM210.234 117.445V114.709H207.39V117.445H206.373V111.163H207.39V113.809H210.234V111.163H211.251V117.445H210.234ZM215.767 117.553C214.129 117.553 213.058 116.419 213.058 114.304C213.058 112.189 214.129 111.055 215.767 111.055C217.405 111.055 218.476 112.189 218.476 114.304C218.476 116.419 217.405 117.553 215.767 117.553ZM215.767 116.644C216.739 116.644 217.387 115.942 217.387 114.799V113.809C217.387 112.666 216.739 111.964 215.767 111.964C214.795 111.964 214.147 112.666 214.147 113.809V114.799C214.147 115.942 214.795 116.644 215.767 116.644ZM221.302 114.907V117.445H220.285V111.163H222.994C224.119 111.163 224.812 111.892 224.812 113.053C224.812 113.944 224.389 114.565 223.588 114.799L224.947 117.445H223.813L222.553 114.907H221.302ZM221.302 114.052H222.922C223.435 114.052 223.741 113.773 223.741 113.269V112.837C223.741 112.333 223.435 112.054 222.922 112.054H221.302V114.052ZM227.816 117.445V112.063H225.944V111.163H230.705V112.063H228.833V117.445H227.816ZM231.625 118.804H230.779L233.272 110.785H234.118L231.625 118.804ZM239.356 117.445H235.783V111.163H236.8V116.545H239.356V117.445ZM243.059 117.553C241.421 117.553 240.35 116.419 240.35 114.304C240.35 112.189 241.421 111.055 243.059 111.055C244.697 111.055 245.768 112.189 245.768 114.304C245.768 116.419 244.697 117.553 243.059 117.553ZM243.059 116.644C244.031 116.644 244.679 115.942 244.679 114.799V113.809C244.679 112.666 244.031 111.964 243.059 111.964C242.087 111.964 241.439 112.666 241.439 113.809V114.799C241.439 115.942 242.087 116.644 243.059 116.644ZM251.32 117.445L249.268 113.971L248.575 112.639H248.548V117.445H247.576V111.163H248.71L250.762 114.637L251.455 115.969H251.482V111.163H252.454V117.445H251.32ZM258.582 117.445V116.491H258.546C258.42 117.094 257.808 117.553 256.854 117.553C255.36 117.553 254.262 116.41 254.262 114.304C254.262 112.207 255.36 111.055 257.007 111.055C258.132 111.055 258.915 111.586 259.347 112.468L258.519 112.954C258.276 112.369 257.772 111.964 257.007 111.964C256.017 111.964 255.351 112.639 255.351 113.791V114.817C255.351 115.969 256.017 116.644 257.007 116.644C257.799 116.644 258.492 116.239 258.492 115.456V114.97H257.196V114.097H259.473V117.445H258.582ZM263.11 114.646C263.11 116.392 262.408 117.913 261.508 118.687H260.581C261.562 117.787 262.183 116.374 262.183 115.006V114.286C262.183 112.918 261.562 111.505 260.581 110.605H261.508C262.408 111.379 263.11 112.9 263.11 114.646Z" fill="#171717"/>
<path d="M293.76 107.445V102.063H291.888V101.163H296.649V102.063H294.777V107.445H293.76ZM302.203 107.445H298.18V101.163H302.203V102.063H299.197V103.809H301.924V104.709H299.197V106.545H302.203V107.445ZM305.936 107.553C304.883 107.553 304.163 107.139 303.641 106.491L304.343 105.834C304.784 106.374 305.306 106.653 305.99 106.653C306.791 106.653 307.205 106.257 307.205 105.654C307.205 105.168 306.953 104.889 306.224 104.745L305.666 104.646C304.451 104.421 303.83 103.854 303.83 102.855C303.83 101.739 304.694 101.055 306.026 101.055C306.971 101.055 307.664 101.397 308.15 102.018L307.439 102.648C307.115 102.225 306.665 101.955 305.972 101.955C305.252 101.955 304.838 102.252 304.838 102.801C304.838 103.323 305.162 103.548 305.837 103.683L306.395 103.8C307.646 104.043 308.213 104.601 308.213 105.6C308.213 106.77 307.376 107.553 305.936 107.553ZM311.139 107.445V102.063H309.267V101.163H314.028V102.063H312.156V107.445H311.139ZM317.972 107.445H315.236V106.617H316.091V101.991H315.236V101.163H317.972V101.991H317.108V106.617H317.972V107.445ZM323.534 107.445L321.482 103.971L320.789 102.639H320.762V107.445H319.79V101.163H320.924L322.976 104.637L323.669 105.969H323.696V101.163H324.668V107.445H323.534ZM330.796 107.445V106.491H330.76C330.634 107.094 330.022 107.553 329.068 107.553C327.574 107.553 326.476 106.41 326.476 104.304C326.476 102.207 327.574 101.055 329.221 101.055C330.346 101.055 331.129 101.586 331.561 102.468L330.733 102.954C330.49 102.369 329.986 101.964 329.221 101.964C328.231 101.964 327.565 102.639 327.565 103.791V104.817C327.565 105.969 328.231 106.644 329.221 106.644C330.013 106.644 330.706 106.239 330.706 105.456V104.97H329.41V104.097H331.687V107.445H330.796ZM341.294 107.445H340.232L339.665 105.744H337.316L336.767 107.445H335.732L337.874 101.163H339.152L341.294 107.445ZM339.413 104.871L338.513 102.099H338.468L337.559 104.871H339.413ZM345.273 107.445H342.537V106.617H343.392V101.991H342.537V101.163H345.273V101.991H344.409V106.617H345.273V107.445ZM305.961 117.445H304.899L304.332 115.744H301.983L301.434 117.445H300.399L302.541 111.163H303.819L305.961 117.445ZM304.08 114.871L303.18 112.099H303.135L302.226 114.871H304.08ZM311.321 117.445V116.491H311.285C311.159 117.094 310.547 117.553 309.593 117.553C308.099 117.553 307.001 116.41 307.001 114.304C307.001 112.207 308.099 111.055 309.746 111.055C310.871 111.055 311.654 111.586 312.086 112.468L311.258 112.954C311.015 112.369 310.511 111.964 309.746 111.964C308.756 111.964 308.09 112.639 308.09 113.791V114.817C308.09 115.969 308.756 116.644 309.746 116.644C310.538 116.644 311.231 116.239 311.231 115.456V114.97H309.935V114.097H312.212V117.445H311.321ZM318.189 117.445H314.166V111.163H318.189V112.063H315.183V113.809H317.91V114.709H315.183V116.545H318.189V117.445ZM323.785 117.445L321.733 113.971L321.04 112.639H321.013V117.445H320.041V111.163H321.175L323.227 114.637L323.92 115.969H323.947V111.163H324.919V117.445H323.785ZM328.32 117.445V112.063H326.448V111.163H331.209V112.063H329.337V117.445H328.32ZM334.524 117.553C333.471 117.553 332.751 117.139 332.229 116.491L332.931 115.834C333.372 116.374 333.894 116.653 334.578 116.653C335.379 116.653 335.793 116.257 335.793 115.654C335.793 115.168 335.541 114.889 334.812 114.745L334.254 114.646C333.039 114.421 332.418 113.854 332.418 112.855C332.418 111.739 333.282 111.055 334.614 111.055C335.559 111.055 336.252 111.397 336.738 112.018L336.027 112.648C335.703 112.225 335.253 111.955 334.56 111.955C333.84 111.955 333.426 112.252 333.426 112.801C333.426 113.323 333.75 113.548 334.425 113.683L334.983 113.8C336.234 114.043 336.801 114.601 336.801 115.6C336.801 116.77 335.964 117.553 334.524 117.553Z" fill="#171717"/>
<path d="M398.1 107.445H397.038L396.471 105.744H394.122L393.573 107.445H392.538L394.68 101.163H395.958L398.1 107.445ZM396.219 104.871L395.319 102.099H395.274L394.365 104.871H396.219ZM399.418 101.163H400.417V105.033C400.417 106.095 400.786 106.644 401.767 106.644C402.748 106.644 403.117 106.095 403.117 105.033V101.163H404.116V104.871C404.116 106.707 403.486 107.553 401.767 107.553C400.048 107.553 399.418 106.707 399.418 104.871V101.163ZM406.164 107.445V101.163H408.387C409.989 101.163 411.042 102.207 411.042 104.304C411.042 106.401 409.989 107.445 408.387 107.445H406.164ZM407.181 106.545H408.387C409.323 106.545 409.953 105.942 409.953 104.808V103.8C409.953 102.666 409.323 102.063 408.387 102.063H407.181V106.545ZM415.314 107.445H412.578V106.617H413.433V101.991H412.578V101.163H415.314V101.991H414.45V106.617H415.314V107.445ZM419.562 107.553C417.924 107.553 416.853 106.419 416.853 104.304C416.853 102.189 417.924 101.055 419.562 101.055C421.2 101.055 422.271 102.189 422.271 104.304C422.271 106.419 421.2 107.553 419.562 107.553ZM419.562 106.644C420.534 106.644 421.182 105.942 421.182 104.799V103.809C421.182 102.666 420.534 101.964 419.562 101.964C418.59 101.964 417.942 102.666 417.942 103.809V104.799C417.942 105.942 418.59 106.644 419.562 106.644ZM370.62 117.445V112.063H368.748V111.163H373.509V112.063H371.637V117.445H370.62ZM376.058 114.907V117.445H375.041V111.163H377.75C378.875 111.163 379.568 111.892 379.568 113.053C379.568 113.944 379.145 114.565 378.344 114.799L379.703 117.445H378.569L377.309 114.907H376.058ZM376.058 114.052H377.678C378.191 114.052 378.497 113.773 378.497 113.269V112.837C378.497 112.333 378.191 112.054 377.678 112.054H376.058V114.052ZM386.464 117.445H385.402L384.835 115.744H382.486L381.937 117.445H380.902L383.044 111.163H384.322L386.464 117.445ZM384.583 114.871L383.683 112.099H383.638L382.729 114.871H384.583ZM391.721 117.445L389.669 113.971L388.976 112.639H388.949V117.445H387.977V111.163H389.111L391.163 114.637L391.856 115.969H391.883V111.163H392.855V117.445H391.721ZM396.823 117.553C395.77 117.553 395.05 117.139 394.528 116.491L395.23 115.834C395.671 116.374 396.193 116.653 396.877 116.653C397.678 116.653 398.092 116.257 398.092 115.654C398.092 115.168 397.84 114.889 397.111 114.745L396.553 114.646C395.338 114.421 394.717 113.854 394.717 112.855C394.717 111.739 395.581 111.055 396.913 111.055C397.858 111.055 398.551 111.397 399.037 112.018L398.326 112.648C398.002 112.225 397.552 111.955 396.859 111.955C396.139 111.955 395.725 112.252 395.725 112.801C395.725 113.323 396.049 113.548 396.724 113.683L397.282 113.8C398.533 114.043 399.1 114.601 399.1 115.6C399.1 116.77 398.263 117.553 396.823 117.553ZM403.219 117.553C401.581 117.553 400.582 116.41 400.582 114.304C400.582 112.198 401.581 111.055 403.219 111.055C404.308 111.055 405.037 111.541 405.46 112.477L404.605 112.945C404.389 112.351 403.948 111.964 403.219 111.964C402.256 111.964 401.662 112.666 401.662 113.827V114.781C401.662 115.942 402.256 116.644 403.219 116.644C403.966 116.644 404.443 116.212 404.668 115.6L405.487 116.095C405.064 117.004 404.308 117.553 403.219 117.553ZM408.122 114.907V117.445H407.105V111.163H409.814C410.939 111.163 411.632 111.892 411.632 113.053C411.632 113.944 411.209 114.565 410.408 114.799L411.767 117.445H410.633L409.373 114.907H408.122ZM408.122 114.052H409.742C410.255 114.052 410.561 113.773 410.561 113.269V112.837C410.561 112.333 410.255 112.054 409.742 112.054H408.122V114.052ZM416.008 117.445H413.272V116.617H414.127V111.991H413.272V111.163H416.008V111.991H415.144V116.617H416.008V117.445ZM418.843 117.445H417.826V111.163H420.526C421.678 111.163 422.353 111.91 422.353 113.053C422.353 114.196 421.678 114.943 420.526 114.943H418.843V117.445ZM418.843 112.054V114.052H420.463C420.976 114.052 421.282 113.773 421.282 113.269V112.837C421.282 112.333 420.976 112.054 420.463 112.054H418.843ZM425.323 117.445V112.063H423.451V111.163H428.212V112.063H426.34V117.445H425.323ZM432.157 117.445H429.421V116.617H430.276V111.991H429.421V111.163H432.157V111.991H431.293V116.617H432.157V117.445ZM436.405 117.553C434.767 117.553 433.696 116.419 433.696 114.304C433.696 112.189 434.767 111.055 436.405 111.055C438.043 111.055 439.114 112.189 439.114 114.304C439.114 116.419 438.043 117.553 436.405 117.553ZM436.405 116.644C437.377 116.644 438.025 115.942 438.025 114.799V113.809C438.025 112.666 437.377 111.964 436.405 111.964C435.433 111.964 434.785 112.666 434.785 113.809V114.799C434.785 115.942 435.433 116.644 436.405 116.644ZM444.666 117.445L442.614 113.971L441.921 112.639H441.894V117.445H440.922V111.163H442.056L444.108 114.637L444.801 115.969H444.828V111.163H445.8V117.445H444.666Z" fill="#171717"/>
<path d="M479.037 107.445V102.063H477.165V101.163H481.926V102.063H480.054V107.445H479.037ZM487.481 107.445H483.458V101.163H487.481V102.063H484.475V103.809H487.202V104.709H484.475V106.545H487.481V107.445ZM488.748 107.445L490.782 104.232L488.82 101.163H490.017L491.448 103.503H491.466L492.915 101.163H494.04L492.06 104.223L494.121 107.445H492.924L491.403 104.943H491.376L489.873 107.445H488.748ZM496.935 107.445V102.063H495.063V101.163H499.824V102.063H497.952V107.445H496.935ZM503.201 105.204H500.708V104.205H503.201V105.204ZM505.96 107.445V102.063H504.088V101.163H508.849V102.063H506.977V107.445H505.96ZM512.608 107.553C510.97 107.553 509.899 106.419 509.899 104.304C509.899 102.189 510.97 101.055 512.608 101.055C514.246 101.055 515.317 102.189 515.317 104.304C515.317 106.419 514.246 107.553 512.608 107.553ZM512.608 106.644C513.58 106.644 514.228 105.942 514.228 104.799V103.809C514.228 102.666 513.58 101.964 512.608 101.964C511.636 101.964 510.988 102.666 510.988 103.809V104.799C510.988 105.942 511.636 106.644 512.608 106.644ZM482.749 115.204H480.256V114.205H482.749V115.204ZM487.024 117.445H485.845L483.784 111.163H484.837L485.836 114.268L486.439 116.455H486.475L487.087 114.268L488.086 111.163H489.112L487.024 117.445ZM493.053 117.445H490.317V116.617H491.172V111.991H490.317V111.163H493.053V111.991H492.189V116.617H493.053V117.445ZM494.871 117.445V111.163H497.094C498.696 111.163 499.749 112.207 499.749 114.304C499.749 116.401 498.696 117.445 497.094 117.445H494.871ZM495.888 116.545H497.094C498.03 116.545 498.66 115.942 498.66 114.808V113.8C498.66 112.666 498.03 112.063 497.094 112.063H495.888V116.545ZM505.578 117.445H501.555V111.163H505.578V112.063H502.572V113.809H505.299V114.709H502.572V116.545H505.578V117.445ZM509.86 117.553C508.222 117.553 507.151 116.419 507.151 114.304C507.151 112.189 508.222 111.055 509.86 111.055C511.498 111.055 512.569 112.189 512.569 114.304C512.569 116.419 511.498 117.553 509.86 117.553ZM509.86 116.644C510.832 116.644 511.48 115.942 511.48 114.799V113.809C511.48 112.666 510.832 111.964 509.86 111.964C508.888 111.964 508.24 112.666 508.24 113.809V114.799C508.24 115.942 508.888 116.644 509.86 116.644Z" fill="#171717"/>
<path d="M569.663 107.553C568.025 107.553 567.026 106.41 567.026 104.304C567.026 102.198 568.025 101.055 569.663 101.055C570.752 101.055 571.481 101.541 571.904 102.477L571.049 102.945C570.833 102.351 570.392 101.964 569.663 101.964C568.7 101.964 568.106 102.666 568.106 103.827V104.781C568.106 105.942 568.7 106.644 569.663 106.644C570.41 106.644 570.887 106.212 571.112 105.6L571.931 106.095C571.508 107.004 570.752 107.553 569.663 107.553ZM575.864 107.553C574.226 107.553 573.155 106.419 573.155 104.304C573.155 102.189 574.226 101.055 575.864 101.055C577.502 101.055 578.573 102.189 578.573 104.304C578.573 106.419 577.502 107.553 575.864 107.553ZM575.864 106.644C576.836 106.644 577.484 105.942 577.484 104.799V103.809C577.484 102.666 576.836 101.964 575.864 101.964C574.892 101.964 574.244 102.666 574.244 103.809V104.799C574.244 105.942 574.892 106.644 575.864 106.644ZM580.382 107.445V101.163H582.605C584.207 101.163 585.26 102.207 585.26 104.304C585.26 106.401 584.207 107.445 582.605 107.445H580.382ZM581.399 106.545H582.605C583.541 106.545 584.171 105.942 584.171 104.808V103.8C584.171 102.666 583.541 102.063 582.605 102.063H581.399V106.545ZM589.531 107.445H586.795V106.617H587.65V101.991H586.795V101.163H589.531V101.991H588.667V106.617H589.531V107.445ZM595.093 107.445L593.041 103.971L592.348 102.639H592.321V107.445H591.349V101.163H592.483L594.535 104.637L595.228 105.969H595.255V101.163H596.227V107.445H595.093ZM602.355 107.445V106.491H602.319C602.193 107.094 601.581 107.553 600.627 107.553C599.133 107.553 598.035 106.41 598.035 104.304C598.035 102.207 599.133 101.055 600.78 101.055C601.905 101.055 602.688 101.586 603.12 102.468L602.292 102.954C602.049 102.369 601.545 101.964 600.78 101.964C599.79 101.964 599.124 102.639 599.124 103.791V104.817C599.124 105.969 599.79 106.644 600.78 106.644C601.572 106.644 602.265 106.239 602.265 105.456V104.97H600.969V104.097H603.246V107.445H602.355ZM572.615 117.445V112.063H570.743V111.163H575.504V112.063H573.632V117.445H572.615ZM581.433 117.445H580.371L579.804 115.744H577.455L576.906 117.445H575.871L578.013 111.163H579.291L581.433 117.445ZM579.552 114.871L578.652 112.099H578.607L577.698 114.871H579.552ZM584.827 117.553C583.774 117.553 583.054 117.139 582.532 116.491L583.234 115.834C583.675 116.374 584.197 116.653 584.881 116.653C585.682 116.653 586.096 116.257 586.096 115.654C586.096 115.168 585.844 114.889 585.115 114.745L584.557 114.646C583.342 114.421 582.721 113.854 582.721 112.855C582.721 111.739 583.585 111.055 584.917 111.055C585.862 111.055 586.555 111.397 587.041 112.018L586.33 112.648C586.006 112.225 585.556 111.955 584.863 111.955C584.143 111.955 583.729 112.252 583.729 112.801C583.729 113.323 584.053 113.548 584.728 113.683L585.286 113.8C586.537 114.043 587.104 114.601 587.104 115.6C587.104 116.77 586.267 117.553 584.827 117.553ZM592.654 117.445L590.746 114.511L589.882 115.501V117.445H588.865V111.163H589.882V114.349H589.918L590.818 113.206L592.51 111.163H593.698L591.457 113.809L593.878 117.445H592.654ZM597.165 117.553C596.112 117.553 595.392 117.139 594.87 116.491L595.572 115.834C596.013 116.374 596.535 116.653 597.219 116.653C598.02 116.653 598.434 116.257 598.434 115.654C598.434 115.168 598.182 114.889 597.453 114.745L596.895 114.646C595.68 114.421 595.059 113.854 595.059 112.855C595.059 111.739 595.923 111.055 597.255 111.055C598.2 111.055 598.893 111.397 599.379 112.018L598.668 112.648C598.344 112.225 597.894 111.955 597.201 111.955C596.481 111.955 596.067 112.252 596.067 112.801C596.067 113.323 596.391 113.548 597.066 113.683L597.624 113.8C598.875 114.043 599.442 114.601 599.442 115.6C599.442 116.77 598.605 117.553 597.165 117.553Z" fill="#171717"/>
<path d="M361.82 198.223C362.016 198.418 362.332 198.418 362.527 198.223L365.709 195.041C365.905 194.845 365.905 194.529 365.709 194.334C365.514 194.138 365.197 194.138 365.002 194.334L362.174 197.162L359.345 194.334C359.15 194.138 358.834 194.138 358.638 194.334C358.443 194.529 358.443 194.845 358.638 195.041L361.82 198.223ZM200.138 156.485H199.638V172.717H200.138H200.638V156.485H200.138ZM200.785 173.364V173.864H362.174V173.364V172.864H200.785V173.364ZM362.174 173.364H361.674V197.869H362.174H362.674V173.364H362.174ZM362.174 173.364V173.864H525.492V173.364V172.864H362.174V173.364ZM526.138 172.717H526.638V156.485H526.138H525.638V172.717H526.138ZM525.492 173.364V173.864C526.125 173.864 526.638 173.35 526.638 172.717H526.138H525.638C525.638 172.798 525.573 172.864 525.492 172.864V173.364ZM200.138 172.717H199.638C199.638 173.35 200.152 173.864 200.785 173.864V173.364V172.864C200.704 172.864 200.638 172.798 200.638 172.717H200.138Z" fill="#171717"/>
<g clip-path="url(#clip1_4_606)">
<rect x="8.13879" y="237.267" width="205.587" height="246.869" rx="17.3475" transform="rotate(-0.0480135 8.13879 237.267)" fill="#F5F5F5"/>
<g clip-path="url(#clip2_4_606)">
<mask id="path-25-inside-1_4_606" fill="white">
<path d="M8.13867 237.267L213.719 237.094L213.829 368.297L8.24862 368.47L8.13867 237.267Z"/>
</mask>
<path d="M8.13867 237.267L213.719 237.094L213.829 368.297L8.24862 368.47L8.13867 237.267Z" fill="#FB923C"/>
<path d="M213.829 368.297L213.828 367.297L8.24778 367.47L8.24862 368.47L8.24946 369.47L213.83 369.297L213.829 368.297Z" fill="#171717" mask="url(#path-25-inside-1_4_606)"/>
<path d="M90.2942 326.782V323.472C90.2942 321.644 91.7763 320.161 93.6045 320.161H103.536C105.364 320.161 106.846 321.644 106.846 323.472V326.782" stroke="#171717" stroke-width="2"/>
<path d="M115.122 326.782V323.472C115.122 321.644 116.604 320.161 118.432 320.161H128.363C130.191 320.161 131.673 321.644 131.673 323.472V326.782" stroke="#171717" stroke-width="2"/>
<path d="M90.2942 301.955V298.644C90.2942 296.816 91.7763 295.334 93.6045 295.334H103.536C105.364 295.334 106.846 296.816 106.846 298.644V301.955" stroke="#171717" stroke-width="2"/>
<path d="M115.122 301.955V298.644C115.122 296.816 116.604 295.334 118.432 295.334H128.363C130.191 295.334 131.673 296.816 131.673 298.644V301.955" stroke="#171717" stroke-width="2"/>
<circle cx="98.57" cy="310.23" r="5.62069" stroke="#171717" stroke-width="2"/>
<circle cx="123.398" cy="310.23" r="5.62069" stroke="#171717" stroke-width="2"/>
<circle cx="98.57" cy="285.403" r="5.62069" stroke="#171717" stroke-width="2"/>
<circle cx="123.398" cy="285.403" r="5.62069" stroke="#171717" stroke-width="2"/>
</g>
<path d="M24.6653 392.016L24.668 395.267L23.0729 395.268L23.0658 386.833L26.8724 386.83C28.4071 386.829 29.3627 387.843 29.364 389.438C29.365 390.598 28.834 391.481 27.795 391.832L29.526 395.263L27.7496 395.264L26.1759 392.015L24.6653 392.016ZM24.6642 390.675L26.7185 390.673C27.3348 390.672 27.7092 390.334 27.7087 389.717L27.7082 389.161C27.7077 388.545 27.3328 388.219 26.7165 388.22L24.6621 388.221L24.6642 390.675ZM36.0161 395.257L31.0977 395.261L31.0906 386.826L32.6858 386.825L32.6917 393.846L36.0149 393.843L36.0161 395.257ZM42.5113 395.252L42.5083 391.687L38.9917 391.69L38.9947 395.255L37.3996 395.256L37.3925 386.821L38.9877 386.82L38.9906 390.276L42.5071 390.273L42.5043 386.817L44.0994 386.815L44.1065 395.25L42.5113 395.252ZM47.6805 395.247L46.0853 395.249L46.0782 386.814L51.5042 386.809L51.5054 388.223L47.6746 388.226L47.6763 390.269L51.0116 390.266L51.0128 391.68L47.6775 391.682L47.6805 395.247Z" fill="#171717"/>
<rect width="42.2388" height="8.89238" rx="4.44619" transform="matrix(1 -0.000837994 -0.000837994 -1 22.026 459.599)" fill="#E5E5E5"/>
<rect width="137.832" height="8.89238" rx="4.44619" transform="matrix(1 -0.000837994 -0.000837994 -1 22.0093 439.591)" fill="#E5E5E5"/>
<rect width="137.832" height="8.89238" rx="4.44619" transform="matrix(1 -0.000837994 -0.000837994 -1 21.9926 419.583)" fill="#E5E5E5"/>
</g>
<rect x="8.63921" y="237.766" width="204.587" height="245.869" rx="16.8475" transform="rotate(-0.0480135 8.63921 237.766)" stroke="#171717"/>
<g clip-path="url(#clip3_4_606)">
<rect x="234.517" y="206.218" width="256.984" height="308.586" rx="20.817" transform="rotate(-0.0480135 234.517 206.218)" fill="#F5F5F5"/>
<g clip-path="url(#clip4_4_606)">
<mask id="path-41-inside-2_4_606" fill="white">
<path d="M234.517 206.219L491.493 206.003L491.63 370.007L234.655 370.222L234.517 206.219Z"/>
</mask>
<path d="M234.517 206.219L491.493 206.003L491.63 370.007L234.655 370.222L234.517 206.219Z" fill="#93C5FD"/>
<path d="M491.63 370.007L491.629 369.007L234.654 369.222L234.655 370.222L234.656 371.222L491.631 371.007L491.63 370.007Z" fill="#171717" mask="url(#path-41-inside-2_4_606)"/>
<path d="M369.532 291.988L363.074 303.613L350.157 295.863L337.24 303.613L363.074 319.113L388.907 303.613L369.532 291.988Z" stroke="#171717" stroke-width="2"/>
<path d="M369.532 291.988L382.449 268.738L369.79 261.246L356.615 284.238L343.699 276.488L337.24 288.113L350.157 295.863L363.074 288.113L369.532 291.988Z" stroke="#171717" stroke-width="2"/>
</g>
<path d="M260.133 403.464L253.185 403.47L253.176 392.926L260.124 392.92L260.126 394.688L255.171 394.692L255.173 397.245L259.554 397.241L259.556 399.009L255.175 399.012L255.177 401.701L260.132 401.697L260.133 403.464ZM266.109 403.459L263.813 403.461L261.178 395.578L263.081 395.577L264.187 398.974L264.96 401.783L265.065 401.783L265.834 398.973L266.903 395.573L268.746 395.572L266.109 403.459ZM271.859 403.636C270.258 403.637 269.351 402.716 269.349 401.311C269.348 399.695 270.571 398.894 272.716 398.892L274.06 398.891L274.06 398.317C274.059 397.44 273.621 396.927 272.593 396.928C271.687 396.929 271.174 397.382 270.797 397.927L269.648 396.9C270.221 395.994 271.142 395.389 272.728 395.387C274.858 395.385 275.992 396.397 275.993 398.194L275.996 401.91L276.782 401.909L276.783 403.45L275.711 403.451C274.88 403.452 274.366 402.908 274.244 402.093L274.154 402.093C273.898 403.105 273.037 403.635 271.859 403.636ZM272.507 402.23C273.368 402.23 274.063 401.836 274.062 401.096L274.061 400.054L272.823 400.055C271.811 400.056 271.312 400.404 271.313 401.023L271.313 401.28C271.314 401.914 271.752 402.231 272.507 402.23ZM281.324 403.446L280.282 403.447C278.967 403.448 278.347 402.754 278.346 401.546L278.339 392.271L280.272 392.269L280.28 401.907L281.323 401.906L281.324 403.446ZM287.501 403.441L287.5 402.127L287.425 402.127C287.153 402.913 286.519 403.623 285.22 403.624C283.604 403.626 282.697 402.509 282.695 400.545L282.691 395.56L284.625 395.559L284.629 400.347C284.629 401.435 285.038 402.023 285.959 402.023C286.73 402.022 287.5 401.613 287.499 400.768L287.495 395.556L289.428 395.555L289.435 403.44L287.501 403.441ZM293.617 403.617C292.016 403.619 291.109 402.698 291.108 401.293C291.107 399.677 292.329 398.875 294.474 398.874L295.819 398.872L295.818 398.298C295.818 397.422 295.379 396.909 294.352 396.91C293.446 396.911 292.932 397.364 292.555 397.908L291.406 396.882C291.98 395.975 292.901 395.37 294.487 395.369C296.617 395.367 297.75 396.378 297.752 398.176L297.755 401.892L298.54 401.891L298.542 403.432L297.469 403.433C296.638 403.434 296.124 402.89 296.003 402.075L295.912 402.075C295.656 403.087 294.796 403.616 293.617 403.617ZM294.266 402.212C295.127 402.211 295.821 401.818 295.821 401.078L295.82 400.036L294.581 400.037C293.569 400.037 293.071 400.385 293.071 401.005L293.072 401.261C293.072 401.896 293.511 402.213 294.266 402.212ZM302.51 403.429C301.18 403.43 300.47 402.705 300.469 401.421L300.465 397.086L299.302 397.087L299.301 395.546L299.905 395.546C300.479 395.545 300.66 395.273 300.66 394.729L300.658 393.385L302.396 393.384L302.397 395.544L304.014 395.542L304.015 397.083L302.399 397.084L302.403 401.888L303.898 401.887L303.899 403.428L302.51 403.429ZM306.657 394.392C305.856 394.393 305.523 393.985 305.523 393.426L305.523 393.124C305.522 392.565 305.854 392.157 306.655 392.156C307.44 392.156 307.788 392.563 307.788 393.122L307.789 393.424C307.789 393.983 307.442 394.391 306.657 394.392ZM305.697 403.426L305.691 395.541L307.624 395.539L307.631 403.424L305.697 403.426ZM312.999 403.601C310.748 403.603 309.342 402.003 309.34 399.465C309.338 396.943 310.741 395.355 312.992 395.354C315.258 395.352 316.664 396.937 316.666 399.459C316.668 401.997 315.265 403.599 312.999 403.601ZM312.998 402.045C314.01 402.044 314.644 401.394 314.643 400.201L314.642 398.736C314.641 397.558 314.006 396.909 312.994 396.909C311.997 396.91 311.363 397.56 311.364 398.739L311.365 400.204C311.366 401.397 312.001 402.046 312.998 402.045ZM320.317 403.414L318.384 403.415L318.377 395.53L320.311 395.529L320.312 396.843L320.387 396.843C320.704 395.997 321.368 395.346 322.591 395.345C324.208 395.344 325.115 396.461 325.117 398.425L325.121 403.41L323.187 403.411L323.183 398.623C323.182 397.505 322.804 396.931 321.883 396.932C321.082 396.933 320.312 397.356 320.313 398.202L320.317 403.414ZM329.847 403.587C328.352 403.588 327.37 403.045 326.583 402.14L327.761 400.991C328.335 401.655 329.03 402.062 329.922 402.061C330.843 402.061 331.236 401.713 331.235 401.154C331.235 400.701 330.963 400.414 330.268 400.324L329.482 400.219C327.79 400.009 326.853 399.269 326.852 397.834C326.85 396.309 328.043 395.341 329.84 395.339C331.381 395.338 332.167 395.791 332.923 396.575L331.791 397.709C331.338 397.226 330.673 396.864 329.902 396.865C329.071 396.866 328.709 397.198 328.71 397.682C328.71 398.21 328.997 398.452 329.737 398.572L330.538 398.677C332.26 398.917 333.092 399.687 333.093 401.001C333.094 402.527 331.811 403.585 329.847 403.587Z" fill="#171717"/>
<rect width="52.7985" height="11.1155" rx="5.55774" transform="matrix(1 -0.000837994 -0.000837994 -1 251.877 483.634)" fill="#E5E5E5"/>
<rect width="172.29" height="11.1155" rx="5.55774" transform="matrix(1 -0.000837994 -0.000837994 -1 251.856 458.624)" fill="#E5E5E5"/>
<rect width="172.29" height="11.1155" rx="5.55774" transform="matrix(1 -0.000837994 -0.000837994 -1 251.835 433.615)" fill="#E5E5E5"/>
</g>
<rect x="234.517" y="206.218" width="256.984" height="308.586" rx="20.817" transform="rotate(-0.0480135 234.517 206.218)" stroke="#171717"/>
<g clip-path="url(#clip5_4_606)">
<rect x="512.344" y="236.844" width="205.587" height="246.869" rx="17.3475" transform="rotate(-0.0480135 512.344 236.844)" fill="#F5F5F5"/>
<g clip-path="url(#clip6_4_606)">
<mask id="path-52-inside-3_4_606" fill="white">
<path d="M512.344 236.844L717.924 236.672L718.034 367.875L512.454 368.047L512.344 236.844Z"/>
</mask>
<path d="M512.344 236.844L717.924 236.672L718.034 367.875L512.454 368.047L512.344 236.844Z" fill="#C084FC"/>
<path d="M718.034 367.875L718.033 366.875L512.453 367.047L512.454 368.047L512.455 369.047L718.035 368.875L718.034 367.875Z" fill="#171717" mask="url(#path-52-inside-3_4_606)"/>
<rect x="591.963" y="279.134" width="19.6281" height="19.6281" stroke="#171717" stroke-width="1.54839"/>
<rect x="618.787" y="279.134" width="19.6281" height="19.6281" stroke="#171717" stroke-width="1.54839"/>
<rect x="591.963" y="305.957" width="19.6281" height="19.6281" stroke="#171717" stroke-width="1.54839"/>
<rect x="618.787" y="305.957" width="19.6281" height="19.6281" stroke="#171717" stroke-width="1.54839"/>
</g>
<path d="M529.9 394.988C528.462 394.989 527.471 394.422 526.757 393.589L527.832 392.549C528.413 393.225 529.126 393.587 529.996 393.586C530.975 393.586 531.482 393.114 531.481 392.401C531.481 391.833 531.215 391.483 530.332 391.326L529.535 391.206C527.831 390.942 527.008 390.133 527.007 388.755C527.006 387.245 528.177 386.265 530.062 386.263C531.331 386.262 532.274 386.696 532.952 387.505L531.865 388.534C531.454 388.014 530.873 387.664 529.979 387.665C529.073 387.666 528.602 388.029 528.602 388.657C528.603 389.298 528.965 389.563 529.775 389.707L530.561 389.852C532.265 390.153 533.063 390.913 533.064 392.303C533.066 393.898 531.919 394.987 529.9 394.988ZM536.261 394.838L534.666 394.839L534.659 386.404L540.084 386.4L540.086 387.814L536.255 387.817L536.257 389.859L539.592 389.856L539.593 391.27L536.258 391.273L536.261 394.838ZM547.338 387.808L544.945 387.81L544.951 394.831L543.356 394.832L543.35 387.811L540.958 387.813L540.956 386.399L547.337 386.394L547.338 387.808Z" fill="#171717"/>
<rect width="42.2388" height="8.89238" rx="4.44619" transform="matrix(1 -0.000837994 -0.000837994 -1 526.231 459.177)" fill="#E5E5E5"/>
<rect width="137.832" height="8.89238" rx="4.44619" transform="matrix(1 -0.000837994 -0.000837994 -1 526.214 439.169)" fill="#E5E5E5"/>
<rect width="137.832" height="8.89238" rx="4.44619" transform="matrix(1 -0.000837994 -0.000837994 -1 526.198 419.161)" fill="#E5E5E5"/>
</g>
<rect x="512.844" y="237.344" width="204.587" height="245.869" rx="16.8475" transform="rotate(-0.0480135 512.844 237.344)" stroke="#171717"/>
<defs>
<clipPath id="clip0_4_606">
<rect width="24.7711" height="24.7711" fill="white" transform="translate(572.099 40.0774)"/>
</clipPath>
<clipPath id="clip1_4_606">
<rect x="8.13879" y="237.267" width="205.587" height="246.869" rx="17.3475" transform="rotate(-0.0480135 8.13879 237.267)" fill="white"/>
</clipPath>
<clipPath id="clip2_4_606">
<path d="M8.14458 244.172C8.14138 240.358 11.2305 237.264 15.0442 237.261L206.821 237.1C210.634 237.097 213.729 240.186 213.732 244L213.836 368.297L8.24874 368.47L8.14458 244.172Z" fill="white"/>
</clipPath>
<clipPath id="clip3_4_606">
<rect x="234.517" y="206.218" width="256.984" height="308.586" rx="20.817" transform="rotate(-0.0480135 234.517 206.218)" fill="white"/>
</clipPath>
<clipPath id="clip4_4_606">
<path d="M234.524 214.85C234.52 210.083 238.382 206.215 243.149 206.211L482.869 206.01C487.637 206.006 491.504 209.868 491.508 214.635L491.639 370.007L234.655 370.222L234.524 214.85Z" fill="white"/>
</clipPath>
<clipPath id="clip5_4_606">
<rect x="512.344" y="236.844" width="205.587" height="246.869" rx="17.3475" transform="rotate(-0.0480135 512.344 236.844)" fill="white"/>
</clipPath>
<clipPath id="clip6_4_606">
<path d="M512.35 243.75C512.346 239.936 515.436 236.842 519.249 236.838L711.026 236.678C714.839 236.675 717.934 239.764 717.937 243.577L718.041 367.875L512.454 368.047L512.35 243.75Z" fill="white"/>
</clipPath>
</defs>
</svg>
