<svg width="16" height="16" viewBox="0 0 16 16" fill="none" xmlns="http://www.w3.org/2000/svg">
<path fill-rule="evenodd" clip-rule="evenodd" d="M9.47434 5.15825C9.56167 4.89628 9.42009 4.61312 9.15811 4.52579C8.89614 4.43847 8.61298 4.58005 8.52566 4.84202L6.52566 10.842C6.43834 11.104 6.57992 11.3872 6.84189 11.4745C7.10386 11.5618 7.38702 11.4202 7.47434 11.1582L9.47434 5.15825ZM4.85355 6.85371C5.04882 6.65844 5.04882 6.34186 4.85355 6.1466C4.65829 5.95134 4.34171 5.95134 4.14645 6.1466L2.64645 7.6466C2.45118 7.84186 2.45118 8.15844 2.64645 8.35371L4.14645 9.85371C4.34171 10.049 4.65829 10.049 4.85355 9.85371C5.04882 9.65844 5.04882 9.34186 4.85355 9.1466L3.70711 8.00015L4.85355 6.85371ZM11.8536 6.1466C11.6583 5.95134 11.3417 5.95134 11.1464 6.1466C10.9512 6.34186 10.9512 6.65844 11.1464 6.85371L12.2929 8.00015L11.1464 9.1466C10.9512 9.34186 10.9512 9.65844 11.1464 9.85371C11.3417 10.049 11.6583 10.049 11.8536 9.85371L13.3536 8.35371C13.5488 8.15844 13.5488 7.84186 13.3536 7.6466L11.8536 6.1466Z" fill="#C026D3"/>
</svg>
