<svg width="672" height="512" viewBox="0 0 672 512" fill="none" xmlns="http://www.w3.org/2000/svg">
<rect width="672" height="512" rx="16" fill="white"/>
<rect x="304" y="360" width="64" height="64" fill="white"/>
<path fill-rule="evenodd" clip-rule="evenodd" d="M338.333 390.679V415.879L357 404.679V379.321L336 366.721L317.202 378L338.333 390.679ZM315 382.121V404.679L333.667 415.879V407.321L322 400.321V386.321L315 382.121Z" fill="black"/>
<rect x="304" y="360" width="64" height="64" stroke="white" stroke-width="8"/>
<rect x="64" y="298" width="104" height="104" rx="52" fill="#F5F5F5"/>
<path d="M114.304 334C110.756 334 107.604 336.254 106.505 339.581C105.378 339.81 104.312 340.274 103.381 340.941C102.449 341.608 101.672 342.463 101.101 343.449C99.3215 346.484 99.7278 350.298 102.112 352.899C101.376 355.077 101.628 357.461 102.804 359.433C104.572 362.478 108.131 364.039 111.613 363.312C112.375 364.161 113.313 364.84 114.362 365.304C115.411 365.767 116.549 366.004 117.698 366C121.246 366 124.398 363.746 125.497 360.419C127.782 359.953 129.748 358.544 130.89 356.551C132.681 353.516 132.274 349.702 129.891 347.101V347.091C130.254 346.014 130.381 344.873 130.261 343.744C130.142 342.615 129.78 341.525 129.199 340.545C127.43 337.511 123.871 335.95 120.4 336.676C119.634 335.83 118.695 335.153 117.644 334.692C116.593 334.23 115.454 333.995 114.304 334ZM114.304 336.081L114.293 336.092C115.721 336.092 117.094 336.579 118.192 337.479C118.149 337.5 118.061 337.555 117.995 337.587L111.536 341.261C111.207 341.445 111.009 341.792 111.009 342.171V350.797L108.23 349.215V342.084C108.229 340.494 108.869 338.968 110.008 337.842C111.147 336.717 112.692 336.083 114.304 336.081ZM122.084 338.592C123.154 338.59 124.206 338.867 125.133 339.394C126.06 339.922 126.83 340.682 127.364 341.597C128.067 342.81 128.33 344.23 128.089 345.606C128.045 345.574 127.957 345.531 127.902 345.498L121.444 341.813C121.281 341.723 121.098 341.675 120.911 341.675C120.724 341.675 120.541 341.723 120.378 341.813L112.81 346.126V342.962L119.06 339.396C119.979 338.871 121.022 338.594 122.084 338.592ZM106.11 341.867V349.442C106.11 349.821 106.308 350.157 106.637 350.353L114.194 354.655L111.404 356.247L105.165 352.693C103.771 351.896 102.754 350.585 102.338 349.049C101.922 347.513 102.141 345.877 102.947 344.5C103.657 343.285 104.776 342.354 106.11 341.867ZM120.587 343.742L126.837 347.296C129.748 348.954 130.736 352.617 129.055 355.489L129.066 355.5C128.352 356.713 127.232 357.645 125.903 358.122V350.547C125.903 350.168 125.705 349.821 125.375 349.637L117.808 345.324L120.587 343.742ZM115.995 346.354L119.181 348.174V351.804L115.995 353.625L112.81 351.804V348.174L115.995 346.354ZM121.004 349.215L123.783 350.797V357.916C123.783 361.232 121.059 363.92 117.709 363.92V363.909C116.292 363.909 114.908 363.422 113.821 362.522C113.865 362.501 113.963 362.446 114.018 362.414L120.477 358.74C120.806 358.556 121.015 358.209 121.004 357.83L121.004 349.215ZM119.192 353.874V357.038L112.942 360.593C110.031 362.24 106.318 361.265 104.638 358.404H104.649C103.935 357.201 103.682 355.77 103.923 354.394C103.967 354.427 104.055 354.47 104.11 354.503L110.569 358.187C110.731 358.278 110.915 358.325 111.101 358.325C111.288 358.325 111.472 358.278 111.634 358.187L119.192 353.874Z" fill="black"/>
<rect x="284" y="78" width="104" height="104" rx="52" fill="#F5F5F5"/>
<path d="M349.266 127.192L336.014 134.652L321.824 126.681L321.141 127.05V132.837L336.014 141.177L349.266 133.744V136.809L336.014 144.269L321.824 136.298L321.141 136.666V137.659L336.014 146L350.859 137.659V131.872L350.176 131.504L336.014 139.446L322.734 132.014V128.95L336.014 136.383L350.859 128.042V122.341L350.119 121.915L336.014 129.829L323.417 122.795L336.014 115.73L346.366 121.545L347.275 121.035V120.326L336.014 114L321.141 122.341V123.248L336.014 131.587L349.266 124.127V127.192Z" fill="black"/>
<rect x="439.437" y="142.437" width="104" height="104" rx="52" fill="#F5F5F5"/>
<path fill-rule="evenodd" clip-rule="evenodd" d="M485.805 197.509C486.658 197.509 488.365 197.466 490.754 196.485C493.527 195.333 498.989 193.285 502.957 191.151C505.73 189.658 506.925 187.695 506.925 185.05C506.925 181.423 503.981 178.437 500.311 178.437H484.951C479.703 178.437 475.437 182.703 475.437 187.951C475.437 193.199 479.447 197.509 485.805 197.509Z" fill="black"/>
<path fill-rule="evenodd" clip-rule="evenodd" d="M488.407 204.037C488.407 201.477 489.943 199.13 492.332 198.149L497.154 196.143C502.06 194.138 507.436 197.722 507.436 203.013C507.436 207.109 504.108 210.437 500.012 210.437H494.764C491.266 210.437 488.407 207.578 488.407 204.037Z" fill="black"/>
<path d="M480.941 198.746C477.911 198.746 475.437 201.221 475.437 204.25V204.975C475.437 207.962 477.911 210.437 480.941 210.437C483.97 210.437 486.445 207.962 486.445 204.933V204.207C486.402 201.221 483.97 198.746 480.941 198.746Z" fill="black"/>
<rect x="232.437" y="246.437" width="104" height="104" rx="52" transform="rotate(-180 232.437 246.437)" fill="#F5F5F5"/>
<path d="M181.074 197.456V193.085H195.764C195.908 193.847 195.982 194.748 195.982 195.723C195.982 199.003 195.088 203.059 192.206 205.949C189.403 208.876 185.822 210.437 181.078 210.437C172.285 210.437 164.891 203.254 164.891 194.437C164.891 185.619 172.285 178.437 181.078 178.437C185.943 178.437 189.408 180.351 192.012 182.845L188.936 185.93C187.068 184.174 184.539 182.808 181.074 182.808C174.652 182.808 169.63 187.997 169.63 194.437C169.63 200.876 174.652 206.065 181.074 206.065C185.238 206.065 187.611 204.388 189.13 202.864C190.362 201.628 191.173 199.863 191.493 197.452L181.074 197.456Z" fill="black"/>
<g filter="url(#filter0_dd_750_7870)">
<rect x="282" y="286" width="109" height="48" rx="8" fill="#2563EB" shape-rendering="crispEdges"/>
<path d="M306.985 316H305.29V305.53H311.83V307.03H306.985V309.94H311.29V311.44H306.985V316ZM315.15 306.805C314.475 306.805 314.175 306.445 314.175 305.95V305.695C314.175 305.2 314.475 304.84 315.15 304.84C315.825 304.84 316.11 305.2 316.11 305.695V305.95C316.11 306.445 315.825 306.805 315.15 306.805ZM314.325 316V308.2H315.96V316H314.325ZM320.529 316H318.894V308.2H320.529V309.49H320.604C320.934 308.65 321.594 308.02 322.794 308.02C324.384 308.02 325.329 309.13 325.329 311.05V316H323.694V311.26C323.694 310.045 323.229 309.43 322.224 309.43C321.369 309.43 320.529 309.865 320.529 310.78V316ZM331.256 316.18C329.036 316.18 327.671 314.59 327.671 312.1C327.671 309.61 329.036 308.02 331.256 308.02C333.551 308.02 334.721 309.745 334.721 311.905V312.52H329.366V312.775C329.366 313.975 330.101 314.83 331.421 314.83C332.381 314.83 333.026 314.38 333.476 313.66L334.436 314.605C333.851 315.55 332.711 316.18 331.256 316.18ZM331.256 309.295C330.131 309.295 329.366 310.135 329.366 311.335V311.44H332.996V311.29C332.996 310.09 332.336 309.295 331.256 309.295ZM340.716 316H339.291C338.166 316 337.566 315.37 337.566 314.305V309.535H336.351V308.2H337.011C337.551 308.2 337.731 307.975 337.731 307.435V306.07H339.201V308.2H340.836V309.535H339.201V314.665H340.716V316ZM347.934 316V314.71H347.874C347.589 315.475 346.974 316.18 345.684 316.18C344.079 316.18 343.134 315.085 343.134 313.165V308.2H344.769V312.955C344.769 314.14 345.264 314.77 346.269 314.77C347.109 314.77 347.934 314.335 347.934 313.42V308.2H349.569V316H347.934ZM354.145 316H352.51V308.2H354.145V309.49H354.22C354.55 308.65 355.21 308.02 356.41 308.02C358 308.02 358.945 309.13 358.945 311.05V316H357.31V311.26C357.31 310.045 356.845 309.43 355.84 309.43C354.985 309.43 354.145 309.865 354.145 310.78V316ZM364.871 316.18C362.651 316.18 361.286 314.59 361.286 312.1C361.286 309.61 362.651 308.02 364.871 308.02C367.166 308.02 368.336 309.745 368.336 311.905V312.52H362.981V312.775C362.981 313.975 363.716 314.83 365.036 314.83C365.996 314.83 366.641 314.38 367.091 313.66L368.051 314.605C367.466 315.55 366.326 316.18 364.871 316.18ZM364.871 309.295C363.746 309.295 362.981 310.135 362.981 311.335V311.44H366.611V311.29C366.611 310.09 365.951 309.295 364.871 309.295Z" fill="white"/>
</g>
<path d="M255.5 255.5V257H246.057L258.5 269.443L257.443 270.5L245 258.057V267.5H243.5V255.5H255.5Z" fill="black" fill-opacity="0.54"/>
<path d="M415.5 255.5V257H424.943L412.5 269.443L413.557 270.5L426 258.057V267.5H427.5V255.5H415.5Z" fill="black" fill-opacity="0.54"/>
<path d="M336 231L328.5 238.5L329.557 239.557L335.25 233.872V249H336.75V233.872L342.443 239.557L343.5 238.5L336 231Z" fill="black" fill-opacity="0.54"/>
<g clip-path="url(#clip0_750_7870)">
<path d="M231.539 344.745L232.289 343.446L224.112 338.725L241.109 334.171L240.722 332.726L223.725 337.28L228.446 329.103L227.147 328.353L221.147 338.745L231.539 344.745Z" fill="black" fill-opacity="0.54"/>
</g>
<g clip-path="url(#clip1_750_7870)">
<path d="M441.03 344.745L440.28 343.446L448.457 338.725L431.461 334.171L431.848 332.726L448.844 337.28L444.123 329.103L445.422 328.353L451.422 338.745L441.03 344.745Z" fill="black" fill-opacity="0.54"/>
</g>
<rect x="608" y="298" width="104" height="104" rx="52" transform="rotate(90 608 298)" fill="#F5F5F5"/>
<path d="M578.47 359.778C578.353 359.334 578.162 358.914 577.907 358.533C577.962 358.332 578.004 358.128 578.031 357.922C578.213 356.615 577.759 355.418 576.905 354.492C576.443 353.986 575.947 353.652 575.422 353.447C575.766 351.972 575.941 350.463 575.942 348.948C575.942 348.256 575.902 347.579 575.837 346.911C575.803 346.578 575.761 346.245 575.713 345.914C575.563 344.935 575.339 343.969 575.045 343.024C574.853 342.403 574.63 341.791 574.377 341.192C573.999 340.304 573.557 339.445 573.056 338.621C572.727 338.072 572.369 337.542 571.982 337.032C571.793 336.775 571.596 336.523 571.391 336.278C570.783 335.54 570.123 334.846 569.415 334.203C569.18 333.987 568.938 333.778 568.69 333.577C568.445 333.374 568.196 333.176 567.941 332.986C567.428 332.604 566.898 332.246 566.352 331.912C563.338 330.081 559.802 329.031 556.024 329.031C545.023 329.031 536.106 337.948 536.106 348.949C536.106 350.483 536.284 352.011 536.636 353.504C536.163 353.709 535.71 354.029 535.29 354.492C534.437 355.417 533.983 356.61 534.165 357.917C534.192 358.125 534.233 358.33 534.289 358.532C534.033 358.914 533.843 359.334 533.726 359.778C533.463 360.776 533.55 361.675 533.883 362.464C533.521 363.494 533.611 364.591 534.083 365.545C534.427 366.242 534.918 366.781 535.524 367.263C536.245 367.835 537.146 368.322 538.234 368.789C539.532 369.342 541.116 369.862 541.836 370.053C543.697 370.534 545.481 370.84 547.289 370.855C549.865 370.879 552.084 370.273 553.672 368.723C554.452 368.818 555.238 368.866 556.024 368.866C556.855 368.864 557.684 368.812 558.509 368.709C560.093 370.269 562.32 370.881 564.906 370.856C566.714 370.842 568.498 370.536 570.354 370.054C571.079 369.863 572.662 369.343 573.961 368.79C575.048 368.322 575.95 367.836 576.675 367.264C577.276 366.782 577.768 366.243 578.111 365.547C578.588 364.592 578.674 363.495 578.316 362.465C578.647 361.676 578.733 360.775 578.47 359.778ZM576.624 362.397C576.99 363.091 577.013 363.874 576.691 364.604C576.201 365.711 574.987 366.582 572.627 367.518C571.16 368.1 569.816 368.472 569.804 368.475C567.863 368.978 566.108 369.234 564.589 369.234C562.073 369.234 560.2 368.54 559.013 367.169C557.005 367.511 554.955 367.522 552.943 367.203C551.754 368.552 549.893 369.234 547.398 369.234C545.878 369.234 544.123 368.978 542.182 368.475C542.171 368.472 540.827 368.1 539.36 367.518C537 366.582 535.785 365.711 535.296 364.604C534.973 363.874 534.997 363.091 535.362 362.397C535.396 362.332 535.432 362.27 535.471 362.209C535.252 361.88 535.105 361.508 535.04 361.118C534.975 360.728 534.993 360.329 535.093 359.947C535.238 359.395 535.538 358.936 535.946 358.606C535.749 358.284 535.621 357.925 535.567 357.551C535.45 356.739 535.72 355.928 536.326 355.266C536.799 354.752 537.467 354.468 538.206 354.468H538.226C537.668 352.681 537.385 350.82 537.387 348.948C537.387 338.739 545.664 330.462 555.875 330.462C566.085 330.462 574.362 338.738 574.362 348.948C574.364 350.825 574.079 352.691 573.518 354.482C573.607 354.474 573.695 354.469 573.781 354.469C574.52 354.469 575.188 354.752 575.66 355.267C576.267 355.928 576.537 356.74 576.419 357.552C576.366 357.926 576.237 358.284 576.041 358.607C576.448 358.937 576.748 359.396 576.893 359.947C576.994 360.33 577.012 360.729 576.947 361.119C576.882 361.509 576.735 361.881 576.515 362.21C576.554 362.27 576.591 362.332 576.624 362.397Z" fill="#F5F5F5"/>
<path d="M576.515 362.21C576.734 361.881 576.881 361.509 576.947 361.119C577.012 360.729 576.993 360.33 576.893 359.948C576.748 359.396 576.448 358.937 576.041 358.607C576.237 358.285 576.366 357.926 576.419 357.552C576.536 356.74 576.267 355.929 575.66 355.267C575.188 354.753 574.52 354.469 573.78 354.469C573.694 354.469 573.607 354.474 573.518 354.483C574.078 352.692 574.362 350.826 574.36 348.949C574.36 338.739 566.084 330.462 555.874 330.462C545.664 330.462 537.387 338.739 537.387 348.949C537.385 350.821 537.667 352.682 538.225 354.469H538.205C537.466 354.469 536.798 354.752 536.326 355.267C535.719 355.928 535.449 356.74 535.567 357.552C535.62 357.926 535.749 358.285 535.945 358.607C535.538 358.936 535.238 359.395 535.092 359.947C534.992 360.33 534.974 360.729 535.039 361.119C535.105 361.509 535.252 361.881 535.471 362.21C535.432 362.271 535.396 362.333 535.362 362.398C534.997 363.092 534.973 363.875 535.296 364.605C535.785 365.712 537 366.583 539.359 367.519C540.827 368.101 542.17 368.473 542.182 368.476C544.123 368.979 545.878 369.235 547.398 369.235C549.893 369.235 551.754 368.552 552.943 367.204C554.955 367.523 557.005 367.511 559.013 367.17C560.2 368.541 562.073 369.235 564.589 369.235C566.108 369.235 567.863 368.979 569.804 368.476C569.816 368.473 571.159 368.101 572.627 367.519C574.986 366.583 576.202 365.712 576.69 364.605C577.013 363.875 576.99 363.092 576.624 362.398C576.591 362.333 576.554 362.27 576.515 362.21ZM552.092 365.093C551.99 365.272 551.881 365.447 551.764 365.617C551.457 366.067 551.052 366.411 550.583 366.666C549.686 367.155 548.551 367.326 547.398 367.326C545.576 367.326 543.708 366.9 542.661 366.628C542.61 366.615 536.244 364.817 537.05 363.287C537.186 363.029 537.409 362.926 537.69 362.926C538.825 362.926 540.891 364.616 541.779 364.616C541.977 364.616 542.117 364.532 542.174 364.326C542.553 362.968 536.423 362.398 536.939 360.433C537.03 360.085 537.277 359.944 537.625 359.944C539.125 359.943 542.492 362.582 543.196 362.582C543.25 362.582 543.289 362.566 543.31 362.532C543.313 362.527 543.316 362.523 543.319 362.517C543.649 361.972 543.459 361.575 541.195 360.188L540.978 360.056C538.486 358.547 536.737 357.64 537.732 356.557C537.846 356.432 538.008 356.377 538.206 356.377C538.439 356.377 538.722 356.455 539.034 356.586C540.35 357.141 542.173 358.655 542.935 359.315C543.055 359.419 543.174 359.524 543.293 359.63C543.293 359.63 544.257 360.633 544.84 360.633C544.975 360.633 545.089 360.58 545.166 360.449C545.58 359.752 541.324 356.527 541.084 355.196C540.921 354.295 541.198 353.838 541.71 353.838C541.954 353.838 542.251 353.942 542.579 354.15C543.596 354.795 545.56 358.17 546.279 359.483C546.52 359.923 546.931 360.109 547.302 360.109C548.038 360.109 548.613 359.378 547.369 358.449C545.501 357.05 546.156 354.765 547.048 354.624C547.086 354.618 547.125 354.615 547.163 354.615C547.974 354.615 548.332 356.013 548.332 356.013C548.332 356.013 549.381 358.646 551.182 360.446C552.817 362.08 553.045 363.421 552.092 365.093ZM557.918 365.402L557.824 365.413L557.665 365.431C557.581 365.44 557.497 365.448 557.413 365.456L557.331 365.463L557.256 365.469L557.15 365.478L557.032 365.486L556.915 365.494L556.889 365.496C556.858 365.498 556.828 365.5 556.796 365.501L556.757 365.503C556.721 365.505 556.685 365.507 556.648 365.509L556.521 365.514L556.406 365.518L556.329 365.52H556.289C556.265 365.52 556.242 365.521 556.217 365.522H556.179C556.155 365.522 556.131 365.522 556.107 365.523L556.009 365.524H555.873C555.765 365.524 555.658 365.523 555.551 365.521L555.465 365.519C555.44 365.519 555.415 365.518 555.391 365.517L555.299 365.514L555.185 365.51L555.082 365.505L555.056 365.504L554.958 365.499C554.931 365.498 554.904 365.496 554.877 365.494L554.814 365.491C554.734 365.486 554.655 365.48 554.575 365.474L554.492 365.467C554.457 365.465 554.422 365.461 554.387 365.458C554.346 365.455 554.306 365.451 554.265 365.447C554.196 365.441 554.128 365.434 554.059 365.426H554.056C555.056 363.196 554.55 361.113 552.53 359.095C551.205 357.771 550.324 355.817 550.141 355.389C549.771 354.119 548.791 352.707 547.164 352.707C547.027 352.707 546.889 352.718 546.753 352.739C546.041 352.852 545.418 353.262 544.973 353.879C544.493 353.282 544.026 352.807 543.604 352.539C542.967 352.135 542.332 351.93 541.713 351.93C540.941 351.93 540.25 352.247 539.769 352.823L539.757 352.837C539.748 352.8 539.739 352.762 539.73 352.724L539.729 352.719C539.637 352.327 539.56 351.932 539.498 351.535C539.498 351.532 539.498 351.53 539.497 351.527C539.492 351.497 539.488 351.467 539.483 351.437C539.47 351.348 539.457 351.259 539.445 351.17C539.44 351.129 539.434 351.089 539.429 351.049L539.415 350.927C539.41 350.887 539.406 350.85 539.401 350.811L539.4 350.802C539.383 350.644 539.367 350.487 539.354 350.329L539.349 350.268L539.342 350.165C539.34 350.137 539.337 350.108 539.336 350.08C539.336 350.073 539.335 350.067 539.335 350.06C539.329 349.981 539.324 349.902 539.32 349.822C539.318 349.781 539.316 349.74 539.314 349.698L539.31 349.59L539.309 349.557L539.305 349.457L539.303 349.372C539.303 349.338 539.301 349.304 539.301 349.27C539.3 349.236 539.299 349.199 539.299 349.163C539.299 349.127 539.299 349.092 539.298 349.056C539.297 349.02 539.298 348.985 539.298 348.949C539.298 339.794 546.72 332.371 555.877 332.371C565.033 332.371 572.455 339.793 572.455 348.949V349.163C572.455 349.199 572.454 349.235 572.453 349.27C572.453 349.3 572.452 349.329 572.451 349.359C572.451 349.385 572.45 349.411 572.449 349.437C572.449 349.47 572.447 349.504 572.446 349.537V349.54L572.441 349.656C572.44 349.69 572.438 349.724 572.437 349.758L572.436 349.782L572.43 349.89C572.417 350.123 572.399 350.355 572.377 350.587V350.59C572.373 350.628 572.37 350.666 572.365 350.704L572.356 350.794L572.336 350.97L572.325 351.059L572.311 351.164C572.306 351.202 572.301 351.24 572.295 351.278C572.29 351.32 572.283 351.363 572.277 351.405L572.262 351.506L572.244 351.619C572.238 351.657 572.231 351.695 572.224 351.733C572.217 351.77 572.211 351.808 572.205 351.846C572.192 351.921 572.178 351.996 572.163 352.071C572.141 352.183 572.119 352.295 572.096 352.407L572.072 352.518C572.064 352.555 572.055 352.592 572.047 352.629C571.58 352.176 570.962 351.929 570.281 351.929C569.662 351.929 569.027 352.134 568.39 352.537C567.968 352.805 567.501 353.28 567.021 353.878C566.576 353.26 565.953 352.85 565.24 352.738C565.105 352.716 564.967 352.706 564.83 352.706C563.202 352.706 562.223 354.117 561.853 355.387C561.669 355.816 560.788 357.77 559.462 359.095C557.443 361.107 556.934 363.181 557.918 365.402ZM575.033 360.937L575.026 360.957C575.01 361.001 574.99 361.043 574.969 361.085C574.952 361.116 574.935 361.145 574.915 361.174C574.879 361.229 574.839 361.281 574.795 361.33C574.785 361.341 574.776 361.353 574.764 361.364C574.748 361.381 574.732 361.397 574.716 361.413C574.422 361.705 573.973 361.961 573.465 362.196C573.408 362.222 573.349 362.248 573.29 362.274L573.232 362.3C573.193 362.317 573.154 362.334 573.112 362.351C573.073 362.368 573.033 362.385 572.992 362.402L572.87 362.452C572.584 362.57 572.292 362.682 572.007 362.792L571.885 362.84L571.764 362.887C571.684 362.918 571.605 362.95 571.527 362.981L571.411 363.028L571.296 363.074L571.24 363.098C571.203 363.113 571.166 363.129 571.13 363.145C570.291 363.505 569.687 363.871 569.813 364.326C569.817 364.339 569.821 364.351 569.825 364.363C569.837 364.397 569.852 364.428 569.872 364.458C569.883 364.476 569.896 364.493 569.911 364.508C570.06 364.663 570.331 364.639 570.674 364.516C570.722 364.498 570.77 364.48 570.817 364.46L570.847 364.448C570.925 364.415 571.008 364.378 571.093 364.337C571.114 364.327 571.136 364.318 571.157 364.307C571.576 364.102 572.05 363.826 572.521 363.575C572.709 363.474 572.9 363.377 573.094 363.285C573.539 363.076 573.959 362.927 574.295 362.927C574.454 362.927 574.593 362.959 574.709 363.034L574.729 363.047C574.802 363.098 574.863 363.164 574.909 363.241C574.918 363.255 574.927 363.271 574.935 363.287C575.102 363.603 574.962 363.93 574.636 364.251C574.323 364.559 573.836 364.861 573.283 365.141C573.242 365.162 573.201 365.182 573.159 365.203C571.512 366.012 569.354 366.621 569.325 366.629C568.75 366.778 567.928 366.973 567.001 367.119L566.864 367.141L566.842 367.144C566.738 367.16 566.634 367.175 566.53 367.188C566.425 367.202 566.318 367.215 566.21 367.227L566.191 367.229C565.801 367.274 565.41 367.304 565.019 367.318H565.013C564.871 367.323 564.73 367.326 564.588 367.326H564.425C564.208 367.323 563.993 367.313 563.777 367.297C563.772 367.297 563.767 367.297 563.762 367.295C563.684 367.289 563.607 367.282 563.53 367.274C563.451 367.265 563.371 367.255 563.292 367.245C563.239 367.238 563.187 367.23 563.135 367.221C563.082 367.213 563.029 367.204 562.977 367.195L562.905 367.181L562.899 367.18C562.823 367.166 562.748 367.15 562.673 367.132C562.629 367.122 562.585 367.113 562.542 367.101L562.516 367.094C562.495 367.089 562.474 367.084 562.453 367.078L562.441 367.075L562.374 367.055C562.349 367.048 562.325 367.041 562.3 367.034L562.292 367.031L562.228 367.012C562.204 367.004 562.18 366.996 562.156 366.989L562.097 366.969L562.054 366.954C562.013 366.939 561.971 366.924 561.931 366.909L561.892 366.893L561.859 366.881C561.797 366.856 561.736 366.83 561.675 366.802L561.634 366.783L561.627 366.779C561.613 366.773 561.599 366.766 561.584 366.76C561.556 366.746 561.528 366.732 561.5 366.718L561.492 366.714L561.451 366.693C561.38 366.655 561.31 366.616 561.241 366.573L561.204 366.55C561.185 366.539 561.166 366.527 561.148 366.514L561.099 366.482L561.046 366.446L561.014 366.423C560.981 366.4 560.949 366.375 560.917 366.35L560.866 366.311C560.845 366.294 560.825 366.278 560.805 366.261C560.788 366.247 560.772 366.233 560.756 366.218L560.754 366.217C560.737 366.202 560.719 366.186 560.702 366.17C560.685 366.155 560.668 366.139 560.651 366.123L560.649 366.121C560.632 366.104 560.615 366.087 560.598 366.07C560.581 366.053 560.564 366.036 560.547 366.018C560.531 366.001 560.514 365.983 560.498 365.965C560.482 365.947 560.467 365.931 560.452 365.913L560.447 365.907C560.432 365.89 560.417 365.873 560.403 365.855C560.371 365.818 560.341 365.78 560.312 365.74C560.282 365.701 560.253 365.661 560.225 365.62L560.198 365.58C560.162 365.527 560.127 365.474 560.093 365.42C560.068 365.382 560.043 365.343 560.019 365.303C560.004 365.278 559.989 365.253 559.974 365.229L559.968 365.219C559.953 365.195 559.939 365.171 559.926 365.147C559.918 365.134 559.911 365.122 559.904 365.108C559.896 365.095 559.888 365.081 559.88 365.067L559.868 365.045L559.86 365.031C559.846 365.005 559.831 364.979 559.817 364.952C559.811 364.94 559.804 364.928 559.798 364.917L559.778 364.879L559.758 364.842C559.709 364.743 559.663 364.644 559.619 364.543L559.603 364.506C559.593 364.481 559.584 364.456 559.574 364.432C559.569 364.42 559.564 364.409 559.56 364.397C559.537 364.336 559.515 364.275 559.495 364.213C559.487 364.191 559.48 364.17 559.474 364.148C559.458 364.098 559.444 364.048 559.431 363.997C559.416 363.939 559.402 363.879 559.39 363.82C559.388 363.808 559.385 363.796 559.383 363.784C559.372 363.726 559.363 363.667 559.356 363.608C559.354 363.596 559.353 363.584 559.351 363.573L559.348 363.537C559.343 363.491 559.339 363.444 559.337 363.398C559.337 363.386 559.336 363.374 559.335 363.363C559.334 363.34 559.334 363.316 559.334 363.293C559.321 362.359 559.794 361.46 560.806 360.449C562.607 358.649 563.656 356.016 563.656 356.016C563.656 356.016 563.684 355.905 563.742 355.746C563.751 355.724 563.759 355.702 563.769 355.678C563.803 355.589 563.841 355.501 563.884 355.416L563.893 355.399C563.929 355.327 563.969 355.256 564.012 355.187C564.022 355.171 564.031 355.155 564.042 355.139C564.075 355.092 564.108 355.046 564.144 355.001C564.164 354.976 564.185 354.952 564.206 354.929C564.215 354.92 564.223 354.911 564.232 354.902C564.336 354.794 564.455 354.706 564.59 354.659L564.607 354.654C564.619 354.65 564.63 354.646 564.642 354.643C564.655 354.64 564.668 354.636 564.682 354.634L564.689 354.632C564.717 354.627 564.746 354.623 564.775 354.621H564.777C564.792 354.621 564.808 354.619 564.823 354.619C564.843 354.619 564.861 354.619 564.88 354.621C564.9 354.623 564.919 354.625 564.939 354.628C565.101 354.654 565.256 354.751 565.389 354.9C565.439 354.957 565.485 355.018 565.524 355.083C565.551 355.125 565.575 355.169 565.599 355.216C565.608 355.236 565.617 355.254 565.626 355.273C565.649 355.322 565.669 355.373 565.687 355.424C565.73 355.544 565.762 355.668 565.783 355.794C565.802 355.905 565.812 356.016 565.816 356.128C565.818 356.188 565.818 356.248 565.816 356.309C565.804 356.593 565.746 356.873 565.644 357.139C565.635 357.163 565.624 357.188 565.615 357.212C565.594 357.261 565.572 357.31 565.548 357.357C565.531 357.394 565.512 357.43 565.492 357.466C565.479 357.49 565.465 357.514 565.451 357.538C565.416 357.598 565.378 357.658 565.337 357.717L565.312 357.752C565.216 357.887 565.108 358.014 564.99 358.13C564.874 358.246 564.75 358.354 564.619 358.452C564.487 358.549 564.363 358.658 564.249 358.775C563.921 359.12 563.844 359.424 563.918 359.655C563.93 359.692 563.945 359.727 563.964 359.76C563.986 359.798 564.012 359.833 564.042 359.865L564.054 359.877L564.066 359.889C564.077 359.9 564.09 359.911 564.103 359.922L564.116 359.933C564.148 359.957 564.182 359.979 564.217 359.998C564.227 360.004 564.236 360.009 564.248 360.015C564.286 360.033 564.325 360.049 564.365 360.062C564.377 360.066 564.388 360.069 564.399 360.073L564.413 360.076L564.433 360.082L564.45 360.086L564.468 360.09L564.486 360.093L564.504 360.096C564.516 360.098 564.53 360.101 564.543 360.102L564.555 360.104L564.578 360.106L564.592 360.108L564.615 360.109H564.628L564.652 360.111H564.728L564.75 360.109L564.775 360.108L564.805 360.105L564.834 360.102C564.84 360.102 564.847 360.1 564.853 360.099C564.941 360.086 565.027 360.063 565.109 360.03L565.143 360.015C565.163 360.006 565.182 359.997 565.2 359.988C565.239 359.968 565.276 359.947 565.312 359.923C565.362 359.89 565.41 359.853 565.454 359.813C565.464 359.803 565.475 359.793 565.485 359.784C565.49 359.779 565.494 359.774 565.499 359.769C565.509 359.759 565.519 359.75 565.528 359.739C565.598 359.662 565.659 359.577 565.709 359.486C566.137 358.707 566.586 357.94 567.054 357.186L567.119 357.083L567.184 356.98C567.216 356.927 567.249 356.876 567.281 356.825L567.314 356.774C567.423 356.603 567.534 356.433 567.646 356.265L567.713 356.166C567.847 355.967 567.981 355.774 568.113 355.591L568.179 355.5C568.323 355.302 568.472 355.107 568.628 354.918L568.69 354.844C568.7 354.832 568.709 354.82 568.721 354.808C568.741 354.784 568.761 354.76 568.781 354.738C568.791 354.726 568.801 354.715 568.811 354.703L568.87 354.637L568.899 354.605C568.929 354.573 568.958 354.543 568.986 354.514C569.006 354.494 569.024 354.475 569.043 354.456C569.154 354.343 569.276 354.241 569.408 354.153L569.438 354.133C569.468 354.114 569.498 354.095 569.529 354.079C570.046 353.785 570.474 353.763 570.721 354.01C570.87 354.159 570.953 354.407 570.948 354.751C570.948 354.766 570.948 354.781 570.947 354.797V354.814C570.947 354.83 570.946 354.845 570.945 354.861C570.945 354.881 570.942 354.9 570.94 354.92C570.938 354.94 570.937 354.955 570.935 354.972C570.935 354.977 570.935 354.982 570.934 354.987C570.932 355.002 570.93 355.018 570.928 355.033C570.928 355.038 570.928 355.043 570.926 355.047C570.924 355.068 570.921 355.089 570.917 355.109C570.915 355.129 570.912 355.147 570.908 355.167L570.903 355.199C570.897 355.23 570.89 355.261 570.881 355.291C570.864 355.348 570.843 355.403 570.819 355.457C570.785 355.531 570.747 355.603 570.706 355.673C570.684 355.712 570.66 355.75 570.636 355.788C570.611 355.827 570.585 355.867 570.558 355.907C570.488 356.006 570.417 356.103 570.342 356.197L570.308 356.24C570.186 356.392 570.061 356.54 569.931 356.685L569.89 356.731C569.835 356.793 569.779 356.855 569.722 356.917L569.679 356.964C569.65 356.995 569.62 357.026 569.591 357.058C569.563 357.089 569.533 357.121 569.503 357.153L569.413 357.247L569.321 357.343L569.23 357.438C569.168 357.502 569.106 357.566 569.044 357.63C568.157 358.539 567.222 359.446 566.906 360.011C566.885 360.048 566.866 360.086 566.848 360.125C566.803 360.228 566.785 360.316 566.798 360.387C566.802 360.41 566.81 360.432 566.822 360.453C566.84 360.484 566.861 360.512 566.886 360.538C566.898 360.549 566.91 360.56 566.923 360.569C566.988 360.616 567.067 360.639 567.147 360.637H567.172L567.197 360.635L567.223 360.632L567.244 360.629C567.247 360.629 567.25 360.628 567.253 360.628L567.272 360.624L567.277 360.623L567.299 360.618L567.307 360.616C567.314 360.614 567.322 360.612 567.33 360.61C567.337 360.608 567.348 360.605 567.357 360.602C567.395 360.59 567.433 360.577 567.47 360.561C567.489 360.553 567.508 360.544 567.527 360.535C567.537 360.531 567.547 360.526 567.556 360.521L567.585 360.507C567.655 360.471 567.724 360.431 567.79 360.389L567.819 360.369C567.829 360.363 567.839 360.357 567.848 360.35L567.877 360.33L567.893 360.319L567.935 360.29C567.974 360.263 568.011 360.235 568.048 360.207L568.051 360.204L568.11 360.159C568.19 360.095 568.266 360.031 568.335 359.971L568.381 359.931L568.385 359.927L568.409 359.906C568.466 359.855 568.516 359.808 568.558 359.769L568.575 359.752C568.59 359.738 568.604 359.725 568.617 359.713L568.641 359.689L568.65 359.68L568.652 359.678L568.678 359.652L568.694 359.636L568.696 359.634L568.704 359.627L568.713 359.618L568.716 359.615L568.724 359.608L568.769 359.569L568.794 359.547C568.807 359.535 568.82 359.523 568.833 359.511L568.863 359.485C568.868 359.48 568.874 359.475 568.879 359.471L568.91 359.443L568.956 359.403L568.981 359.382C569.076 359.299 569.192 359.199 569.325 359.086L569.379 359.04L569.469 358.965L569.561 358.888C569.682 358.788 569.811 358.682 569.948 358.572L570.038 358.5C570.114 358.439 570.193 358.376 570.273 358.314C570.305 358.289 570.337 358.264 570.371 358.239C570.452 358.175 570.534 358.113 570.616 358.051C570.804 357.909 570.998 357.767 571.194 357.629L571.278 357.57C571.336 357.53 571.395 357.489 571.454 357.449L571.507 357.413C571.612 357.342 571.718 357.273 571.825 357.205L571.878 357.172L571.931 357.139C571.984 357.106 572.036 357.074 572.089 357.043L572.141 357.012L572.245 356.951L572.348 356.892L572.369 356.881L572.45 356.836C572.484 356.818 572.518 356.8 572.551 356.783L572.601 356.757L572.65 356.732C572.667 356.724 572.684 356.716 572.701 356.708C572.811 356.653 572.923 356.603 573.036 356.558C573.067 356.545 573.098 356.533 573.128 356.523L573.218 356.491C573.245 356.482 573.271 356.474 573.296 356.466L573.305 356.463C573.318 356.459 573.332 356.455 573.345 356.452L573.349 356.451C573.377 356.442 573.405 356.435 573.432 356.429H573.434C573.512 356.41 573.591 356.397 573.67 356.389C573.707 356.385 573.743 356.383 573.78 356.383H573.798C573.823 356.383 573.846 356.385 573.87 356.387C573.88 356.387 573.891 356.39 573.902 356.391H573.906C573.917 356.392 573.927 356.394 573.938 356.396C573.948 356.398 573.958 356.4 573.968 356.402H573.972C573.982 356.404 573.991 356.407 574.002 356.41C574.057 356.426 574.11 356.45 574.159 356.481C574.183 356.497 574.205 356.514 574.226 356.534L574.232 356.539C574.235 356.543 574.239 356.547 574.243 356.55L574.253 356.562C574.341 356.654 574.414 356.76 574.469 356.875L574.477 356.894C574.496 356.938 574.51 356.983 574.521 357.03C574.552 357.171 574.54 357.318 574.486 357.453C574.466 357.507 574.441 357.559 574.412 357.609C574.344 357.724 574.263 357.83 574.172 357.927L574.152 357.948C574.123 357.978 574.093 358.009 574.061 358.04C574.047 358.053 574.032 358.067 574.018 358.081L573.973 358.122L573.95 358.143C573.893 358.193 573.835 358.242 573.776 358.289C573.741 358.318 573.705 358.346 573.668 358.374C573.54 358.472 573.41 358.567 573.277 358.658C573.196 358.713 573.115 358.767 573.034 358.82C572.833 358.952 572.63 359.081 572.424 359.206C571.994 359.471 571.517 359.754 571.008 360.061L570.877 360.141C570.732 360.229 570.596 360.313 570.468 360.393L570.404 360.434L570.282 360.512C570.201 360.564 570.12 360.616 570.039 360.668L569.974 360.711C569.942 360.732 569.911 360.753 569.879 360.774L569.849 360.794L569.754 360.857L569.704 360.892L569.645 360.932L569.591 360.97C569.5 361.035 569.415 361.096 569.337 361.155L569.307 361.177C569.262 361.212 569.216 361.247 569.171 361.283C569.104 361.338 569.042 361.39 568.987 361.44L568.959 361.465C568.944 361.479 568.929 361.493 568.914 361.507C568.904 361.517 568.894 361.527 568.884 361.536L568.87 361.55C568.839 361.582 568.808 361.614 568.779 361.647L568.764 361.663C568.732 361.701 568.704 361.736 568.679 361.771L568.668 361.787C568.649 361.815 568.632 361.843 568.616 361.873C568.611 361.881 568.608 361.888 568.604 361.895L568.593 361.918L568.586 361.934L568.581 361.945L568.578 361.955L568.573 361.968C568.559 362.005 568.55 362.044 568.544 362.082L568.542 362.096L568.541 362.109V362.178C568.541 362.183 568.541 362.189 568.543 362.195L568.544 362.206C568.544 362.211 568.545 362.217 568.546 362.223C568.547 362.229 568.548 362.239 568.55 362.247V362.248C568.552 362.256 568.553 362.263 568.555 362.271C568.557 362.278 568.559 362.287 568.562 362.295C568.566 362.311 568.571 362.326 568.576 362.341C568.58 362.35 568.583 362.359 568.587 362.368C568.587 362.37 568.588 362.372 568.589 362.374L568.597 362.392L568.608 362.416C568.62 362.441 568.633 362.466 568.647 362.489L568.661 362.514L568.676 362.539C568.679 362.543 568.682 362.547 568.685 362.551L568.69 362.556L568.695 362.561L568.701 362.565C568.709 362.571 568.718 362.576 568.728 362.579C568.733 362.581 568.738 362.582 568.743 362.584C568.869 362.612 569.129 362.508 569.473 362.326C569.493 362.315 569.514 362.304 569.535 362.293L569.64 362.236L569.691 362.207C569.728 362.188 569.765 362.166 569.803 362.144L569.872 362.105C570.328 361.843 570.872 361.506 571.435 361.177C571.488 361.146 571.541 361.115 571.594 361.085L571.7 361.017C571.823 360.946 571.947 360.876 572.072 360.807C572.229 360.721 572.387 360.637 572.546 360.556L572.65 360.503C572.719 360.469 572.788 360.436 572.855 360.403C572.986 360.341 573.119 360.282 573.252 360.226L573.326 360.196L573.334 360.193C573.723 360.039 574.075 359.944 574.359 359.944C574.421 359.944 574.483 359.949 574.543 359.959H574.545C574.565 359.963 574.582 359.967 574.601 359.971H574.604C574.65 359.983 574.696 360 574.739 360.021C574.799 360.052 574.853 360.094 574.898 360.144C574.919 360.167 574.938 360.192 574.954 360.219C574.985 360.266 575.009 360.317 575.026 360.37C575.033 360.391 575.04 360.411 575.046 360.433C575.092 360.598 575.087 360.774 575.033 360.937Z" fill="black"/>
<path fill-rule="evenodd" clip-rule="evenodd" d="M572.452 349.056V348.949C572.452 339.793 565.033 332.371 555.876 332.371C546.72 332.371 539.298 339.794 539.298 348.949V348.985C539.298 349.008 539.297 349.032 539.298 349.056C539.299 349.092 539.299 349.127 539.299 349.163L539.3 349.242L539.301 349.27C539.301 349.283 539.301 349.296 539.302 349.309C539.302 349.33 539.303 349.351 539.303 349.372L539.305 349.457L539.309 349.557L539.31 349.59L539.314 349.693V349.698C539.316 349.739 539.318 349.779 539.32 349.819L539.32 349.822C539.322 349.863 539.325 349.905 539.327 349.946C539.329 349.984 539.332 350.022 539.334 350.06L539.335 350.067C539.337 350.099 539.339 350.132 539.341 350.165L539.342 350.174L539.349 350.268L539.35 350.274C539.351 350.293 539.353 350.311 539.354 350.329C539.367 350.486 539.383 350.644 539.4 350.801L539.401 350.811L539.415 350.927L539.429 351.048L539.44 351.131L539.445 351.17C539.457 351.259 539.47 351.348 539.483 351.437L539.484 351.443L539.497 351.527C539.559 351.927 539.637 352.324 539.729 352.719L539.73 352.724L539.737 352.753L539.757 352.837L539.769 352.823C540.25 352.247 540.941 351.93 541.713 351.93C542.332 351.93 542.967 352.135 543.604 352.539C544.026 352.807 544.493 353.282 544.973 353.879C545.418 353.262 546.041 352.851 546.753 352.739C546.889 352.718 547.027 352.707 547.164 352.707C548.791 352.707 549.771 354.119 550.141 355.388C550.324 355.817 551.205 357.771 552.534 359.093C554.554 361.111 555.06 363.194 554.06 365.424H554.064C554.132 365.432 554.2 365.439 554.269 365.445C554.31 365.449 554.351 365.453 554.392 365.457L554.406 365.458L554.496 365.466L554.58 365.472C554.659 365.478 554.738 365.484 554.818 365.489L554.881 365.493L554.931 365.496L554.962 365.497L555.06 365.503L555.087 365.504L555.189 365.508L555.303 365.513L555.395 365.515L555.41 365.516C555.43 365.517 555.449 365.517 555.469 365.517L555.49 365.518C555.619 365.521 555.748 365.522 555.877 365.522H556.014L556.112 365.521C556.136 365.52 556.159 365.52 556.184 365.52H556.222L556.255 365.519C556.268 365.519 556.281 365.518 556.294 365.518H556.333L556.41 365.516L556.525 365.512L556.652 365.507C556.689 365.505 556.725 365.503 556.762 365.502L556.801 365.499L556.859 365.496L556.893 365.494L556.919 365.492L557.036 365.485L557.154 365.476L557.26 365.468L557.335 365.461L557.417 365.454C557.555 365.442 557.692 365.427 557.828 365.411L557.922 365.4C556.938 363.179 557.447 361.105 559.459 359.095C560.785 357.77 561.667 355.816 561.85 355.387C562.221 354.117 563.2 352.705 564.827 352.705C564.965 352.705 565.102 352.716 565.238 352.738C565.95 352.85 566.573 353.26 567.018 353.878C567.499 353.28 567.965 352.805 568.388 352.537C569.024 352.133 569.66 351.929 570.278 351.929C570.96 351.929 571.578 352.176 572.044 352.629C572.053 352.592 572.061 352.555 572.069 352.518L572.093 352.408C572.101 352.367 572.11 352.327 572.118 352.286C572.133 352.215 572.147 352.143 572.161 352.071C572.175 351.996 572.189 351.921 572.202 351.846L572.209 351.805C572.213 351.781 572.217 351.757 572.222 351.732C572.229 351.695 572.235 351.657 572.241 351.619L572.244 351.605L572.259 351.506L572.275 351.405V351.404C572.286 351.33 572.296 351.256 572.306 351.182L572.308 351.163L572.322 351.059L572.333 350.97L572.353 350.794L572.361 350.723L572.363 350.704C572.367 350.666 572.371 350.628 572.374 350.59V350.587C572.377 350.556 572.38 350.526 572.383 350.496C572.398 350.323 572.411 350.15 572.422 349.976C572.424 349.948 572.425 349.919 572.427 349.89V349.889L572.433 349.782L572.434 349.758C572.438 349.685 572.441 349.612 572.443 349.54V349.537L572.444 349.509C572.445 349.485 572.446 349.461 572.446 349.437L572.447 349.427C572.448 349.405 572.448 349.381 572.448 349.358L572.449 349.339C572.45 349.316 572.45 349.293 572.45 349.27L572.451 349.25C572.451 349.221 572.452 349.192 572.452 349.163V349.056ZM551.765 365.617C553.077 363.692 552.984 362.246 551.183 360.446C549.381 358.646 548.333 356.013 548.333 356.013C548.333 356.013 547.942 354.483 547.049 354.624C546.157 354.764 545.502 357.05 547.371 358.448C549.239 359.847 546.999 360.796 546.28 359.483C545.56 358.17 543.597 354.796 542.579 354.15C541.56 353.505 540.845 353.866 541.084 355.197C541.204 355.857 542.312 356.984 543.348 358.037C544.399 359.106 545.375 360.098 545.166 360.449C544.752 361.146 543.294 359.63 543.294 359.63C543.294 359.63 538.727 355.474 537.733 356.557C536.816 357.555 538.23 358.404 540.408 359.712C540.593 359.823 540.784 359.938 540.979 360.056C543.471 361.564 543.664 361.962 543.311 362.533C543.18 362.744 542.346 362.243 541.32 361.627C539.571 360.577 537.265 359.192 536.939 360.432C536.658 361.504 538.354 362.161 539.893 362.757C541.175 363.254 542.347 363.708 542.175 364.325C541.996 364.964 541.027 364.431 539.968 363.848C538.779 363.194 537.477 362.477 537.05 363.286C536.245 364.815 542.609 366.615 542.661 366.628C544.718 367.162 549.939 368.292 551.765 365.617ZM560.222 365.617C558.91 363.692 559.003 362.246 560.804 360.446C562.606 358.646 563.654 356.013 563.654 356.013C563.654 356.013 564.045 354.483 564.938 354.624C565.83 354.764 566.485 357.05 564.617 358.448C562.748 359.847 564.988 360.796 565.707 359.483C566.427 358.17 568.389 354.796 569.407 354.15C570.425 353.505 571.142 353.866 570.902 355.197C570.783 355.857 569.674 356.984 568.638 358.038C567.587 359.106 566.611 360.098 566.82 360.449C567.234 361.146 568.693 359.629 568.693 359.629C568.693 359.629 573.26 355.474 574.254 356.557C575.171 357.554 573.757 358.403 571.579 359.711C571.389 359.826 571.198 359.94 571.008 360.055C568.516 361.564 568.323 361.961 568.676 362.532C568.807 362.743 569.641 362.242 570.667 361.626C572.416 360.576 574.722 359.192 575.048 360.431C575.33 361.504 573.633 362.161 572.094 362.757C570.812 363.253 569.64 363.707 569.812 364.324C569.991 364.963 570.959 364.43 572.018 363.847C573.207 363.193 574.51 362.476 574.936 363.285C575.742 364.815 569.377 366.613 569.325 366.626C567.269 367.162 562.047 368.292 560.222 365.617Z" fill="#F5F5F5"/>
<path fill-rule="evenodd" clip-rule="evenodd" d="M561.26 344.436C561.519 344.528 561.711 344.806 561.894 345.071C562.141 345.429 562.371 345.762 562.724 345.574C563.141 345.353 563.482 345.013 563.705 344.597C563.929 344.182 564.024 343.709 563.979 343.24C563.945 342.888 563.834 342.549 563.653 342.246C563.473 341.943 563.227 341.684 562.934 341.487C562.641 341.291 562.309 341.162 561.96 341.109C561.611 341.057 561.255 341.082 560.917 341.184C560.579 341.286 560.268 341.461 560.007 341.697C559.745 341.934 559.538 342.225 559.403 342.551C559.267 342.876 559.205 343.228 559.222 343.58C559.238 343.932 559.333 344.276 559.498 344.588C559.662 344.896 560.025 344.75 560.408 344.597C560.709 344.477 561.022 344.352 561.26 344.436ZM550.022 344.436C549.763 344.528 549.571 344.806 549.388 345.071C549.141 345.429 548.911 345.762 548.558 345.574C548.034 345.297 547.632 344.834 547.431 344.277C547.23 343.719 547.243 343.107 547.469 342.559C547.695 342.011 548.116 341.566 548.652 341.312C549.187 341.058 549.798 341.013 550.365 341.184C550.817 341.32 551.218 341.587 551.518 341.951C551.819 342.315 552.004 342.76 552.051 343.229C552.099 343.699 552.006 344.171 551.784 344.588C551.62 344.896 551.257 344.75 550.874 344.597C550.573 344.477 550.261 344.352 550.022 344.436ZM559.522 354.663C561.303 353.26 561.957 350.969 561.957 349.557C561.957 348.442 561.207 348.793 560.005 349.388L559.937 349.421C558.834 349.967 557.366 350.695 555.754 350.695C554.142 350.695 552.674 349.967 551.571 349.421C550.331 348.807 549.553 348.421 549.553 349.558C549.553 351.014 550.249 353.404 552.159 354.793C552.412 354.281 552.767 353.827 553.202 353.459C553.638 353.091 554.145 352.816 554.691 352.652C554.882 352.596 555.079 352.924 555.28 353.26C555.474 353.584 555.672 353.916 555.874 353.916C556.089 353.916 556.3 353.589 556.506 353.27C556.722 352.937 556.932 352.612 557.135 352.677C558.158 353.005 559.013 353.717 559.522 354.663Z" fill="black"/>
<path d="M559.521 354.663C558.594 355.394 557.36 355.884 555.755 355.884C554.246 355.884 553.066 355.451 552.159 354.793C552.412 354.281 552.767 353.827 553.202 353.459C553.638 353.09 554.145 352.816 554.691 352.652C555.066 352.54 555.463 353.915 555.874 353.915C556.313 353.915 556.737 352.549 557.135 352.676C558.158 353.005 559.013 353.717 559.521 354.663Z" fill="black"/>
<path fill-rule="evenodd" clip-rule="evenodd" d="M545.762 346.422C545.551 346.563 545.307 346.651 545.053 346.676C544.799 346.701 544.543 346.663 544.308 346.565C544.12 346.487 543.948 346.373 543.804 346.229C543.66 346.085 543.546 345.914 543.468 345.725C543.371 345.49 543.333 345.234 543.358 344.98C543.383 344.726 543.47 344.483 543.612 344.271C543.783 344.016 544.025 343.817 544.308 343.7C544.591 343.582 544.903 343.551 545.204 343.611C545.505 343.671 545.781 343.819 545.998 344.036C546.215 344.253 546.362 344.529 546.422 344.83C546.482 345.131 546.451 345.443 546.334 345.726C546.216 346.009 546.017 346.251 545.762 346.422ZM567.947 346.422C567.735 346.563 567.491 346.651 567.237 346.676C566.983 346.701 566.727 346.663 566.492 346.565C566.303 346.487 566.132 346.373 565.988 346.229C565.844 346.085 565.73 345.914 565.652 345.725C565.555 345.49 565.517 345.234 565.542 344.98C565.567 344.726 565.655 344.483 565.796 344.271C565.923 344.08 566.092 343.92 566.288 343.802C566.485 343.684 566.705 343.612 566.933 343.589C567.162 343.567 567.392 343.595 567.608 343.672C567.824 343.75 568.02 343.874 568.182 344.036C568.399 344.253 568.546 344.529 568.606 344.83C568.666 345.131 568.635 345.443 568.518 345.726C568.4 346.009 568.202 346.251 567.947 346.422Z" fill="black"/>
<defs>
<filter id="filter0_dd_750_7870" x="279" y="284" width="115" height="54" filterUnits="userSpaceOnUse" color-interpolation-filters="sRGB">
<feFlood flood-opacity="0" result="BackgroundImageFix"/>
<feColorMatrix in="SourceAlpha" type="matrix" values="0 0 0 0 0 0 0 0 0 0 0 0 0 0 0 0 0 0 127 0" result="hardAlpha"/>
<feMorphology radius="1" operator="erode" in="SourceAlpha" result="effect1_dropShadow_750_7870"/>
<feOffset dy="1"/>
<feGaussianBlur stdDeviation="1"/>
<feComposite in2="hardAlpha" operator="out"/>
<feColorMatrix type="matrix" values="0 0 0 0 0 0 0 0 0 0 0 0 0 0 0 0 0 0 0.1 0"/>
<feBlend mode="normal" in2="BackgroundImageFix" result="effect1_dropShadow_750_7870"/>
<feColorMatrix in="SourceAlpha" type="matrix" values="0 0 0 0 0 0 0 0 0 0 0 0 0 0 0 0 0 0 127 0" result="hardAlpha"/>
<feOffset dy="1"/>
<feGaussianBlur stdDeviation="1.5"/>
<feComposite in2="hardAlpha" operator="out"/>
<feColorMatrix type="matrix" values="0 0 0 0 0 0 0 0 0 0 0 0 0 0 0 0 0 0 0.1 0"/>
<feBlend mode="normal" in2="effect1_dropShadow_750_7870" result="effect2_dropShadow_750_7870"/>
<feBlend mode="normal" in="SourceGraphic" in2="effect2_dropShadow_750_7870" result="shape"/>
</filter>
<clipPath id="clip0_750_7870">
<rect width="24" height="24" fill="white" transform="translate(227 319.608) rotate(30)"/>
</clipPath>
<clipPath id="clip1_750_7870">
<rect width="24" height="24" fill="white" transform="translate(424.785 331.608) rotate(-30)"/>
</clipPath>
</defs>
</svg>
