<svg width="3467" height="576" viewBox="0 0 3467 576" fill="none" xmlns="http://www.w3.org/2000/svg">
<path d="M1262.04 218.625H1136.44L1180.12 0H113.422L0.5625 564.781H426.516L455.641 419.031H202.617L217.18 346.156H468.383L493.867 218.625H244.484L259.047 145.75H659.516L575.781 564.781H748.711L832.445 145.75H978.07L894.336 564.781H1069.09L1112.77 346.156H1238.37L1194.69 564.781H1369.44L1482.3 0H1307.55L1262.04 218.625ZM2006.55 72.875H2064.8L2079.36 0H2021.11L2006.55 72.875ZM2155.81 72.875H2214.06L2228.62 0H2170.37L2155.81 72.875ZM2698.27 72.875H2756.52L2771.08 0H2712.83L2698.27 72.875ZM2989.52 180.366C2887.58 180.366 2816.59 251.419 2794.74 377.128C2791.1 397.169 2789.28 417.209 2789.28 437.25C2789.28 522.878 2840.25 575.713 2923.98 575.713C2971.31 575.713 3018.64 555.672 3051.41 521.056L3018.64 480.975C2996.8 508.303 2962.21 524.7 2927.62 524.7C2887.58 524.7 2845.71 501.016 2845.71 433.606C2845.71 413.566 2847.53 395.347 2851.17 375.306C2856.63 335.225 2874.84 296.966 2900.32 265.994C2922.16 242.309 2953.11 229.556 2984.05 229.556C3015 227.734 3044.12 244.131 3058.69 271.459L3100.55 236.844C3076.89 200.406 3033.2 178.544 2989.52 180.366ZM3359.04 173.078C3317.17 171.256 3277.12 187.653 3249.82 216.803L3293.51 0H3237.08L3124.22 564.781H3180.65L3227.98 327.938C3248 227.734 3326.27 222.269 3340.84 222.269C3375.42 218.625 3406.37 244.131 3410.01 278.747C3410.01 282.391 3410.01 286.034 3410.01 289.678C3410.01 302.431 3408.19 313.362 3406.37 326.116L3357.22 564.781H3413.65L3462.8 320.65C3464.62 307.897 3466.44 295.144 3466.44 282.391C3470.08 225.913 3428.21 176.722 3371.78 173.078C3368.14 173.078 3364.5 171.256 3359.04 173.078ZM2603.61 562.959L2658.22 564.781L2732.85 182.188H2678.24L2603.61 562.959ZM1587.87 235.022L1775.37 236.844L1527.8 519.234L1518.7 564.781H1786.29L1797.21 510.125H1596.98L1844.54 227.734L1853.64 182.188H1598.8L1587.87 235.022ZM2510.77 176.722C2470.73 174.9 2430.68 193.119 2407.02 225.912L2416.12 182.188H2361.51L2286.87 562.959V564.781H2341.48L2386.99 329.759C2397.91 269.638 2445.24 225.912 2496.21 225.912C2518.05 225.912 2538.08 235.022 2549 253.241L2594.51 213.159C2572.66 189.475 2541.72 176.722 2510.77 176.722ZM2175.84 182.188H2232.27V184.009L2157.63 566.603H2103.02V564.781L2110.3 524.7C2081.18 555.672 2041.13 572.069 1999.27 570.247C1942.84 572.069 1895.51 530.166 1893.69 473.688C1893.69 470.044 1893.69 466.4 1893.69 462.756C1893.69 451.825 1895.51 439.072 1897.33 428.141V424.497L1944.66 184.009H1999.27V185.831L1951.94 420.853C1950.12 431.784 1948.3 444.537 1948.3 455.469C1946.48 490.084 1971.96 519.234 2004.73 522.878C2008.37 522.878 2012.01 522.878 2015.65 522.878C2030.21 522.878 2106.66 517.413 2126.69 419.031L2175.84 182.188Z" fill="#00000F" fill-opacity="0.9412"/>
</svg>
