<svg width="284" height="152" viewBox="0 0 284 152" fill="none" xmlns="http://www.w3.org/2000/svg">
<rect width="284" height="152" fill="#F8DE57"/>
<path fill-rule="evenodd" clip-rule="evenodd" d="M163 51.5H152.5C151.572 51.5011 150.682 51.8702 150.026 52.5263C149.37 53.1824 149.001 54.0721 149 55V65.5H145.5C144.572 65.5011 143.682 65.8702 143.026 66.5263C142.37 67.1824 142.001 68.0721 142 69V72.5C142.001 73.4279 142.37 74.3176 143.026 74.9737C143.682 75.6298 144.572 75.9989 145.5 76H149C149.928 75.9989 150.818 75.6298 151.474 74.9737C152.13 74.3176 152.499 73.4279 152.5 72.5V69H163C163.928 68.9989 164.818 68.6298 165.474 67.9737C166.13 67.3176 166.499 66.4279 166.5 65.5V55C166.499 54.0721 166.13 53.1824 165.474 52.5263C164.818 51.8702 163.928 51.5011 163 51.5ZM145.5 72.5V69H149V72.5H145.5ZM152.5 65.5V55H163V65.5H152.5ZM138.5 58.5H142V62H138.5V58.5ZM166.5 76H163V79.5H166.5V76ZM152.5 79.5H149V83H152.5V79.5ZM135 86.5V76C134.999 75.0721 134.63 74.1824 133.974 73.5263C133.318 72.8702 132.428 72.5011 131.5 72.5H121C120.072 72.5011 119.182 72.8702 118.526 73.5263C117.87 74.1824 117.501 75.0721 117.5 76V86.5C117.501 87.4279 117.87 88.3176 118.526 88.9737C119.182 89.6298 120.072 89.9989 121 90H131.5V97C131.501 97.9279 131.87 98.8176 132.526 99.4737C133.182 100.13 134.072 100.499 135 100.5H142C142.928 100.499 143.818 100.13 144.474 99.4737C145.13 98.8176 145.499 97.9279 145.5 97V90C145.499 89.0721 145.13 88.1824 144.474 87.5263C143.818 86.8702 142.928 86.5011 142 86.5H135ZM121 86.5V76H131.5V86.5H121ZM135 97V90H142V97H135ZM156 100.5H163C163.928 100.499 164.818 100.13 165.474 99.4738C166.13 98.8176 166.499 97.928 166.5 97V90C166.499 89.072 166.13 88.1824 165.474 87.5262C164.818 86.87 163.928 86.501 163 86.5H156C155.072 86.501 154.182 86.87 153.526 87.5262C152.87 88.1824 152.501 89.072 152.5 90V97C152.501 97.928 152.87 98.8176 153.526 99.4738C154.182 100.13 155.072 100.499 156 100.5ZM156 97V90H163V97H156ZM121 65.5H128C128.928 65.499 129.818 65.13 130.474 64.4738C131.13 63.8176 131.499 62.928 131.5 62V55C131.499 54.072 131.13 53.1824 130.474 52.5262C129.818 51.87 128.928 51.501 128 51.5H121C120.072 51.501 119.182 51.87 118.526 52.5262C117.87 53.1824 117.501 54.072 117.5 55V62C117.501 62.928 117.87 63.8176 118.526 64.4738C119.182 65.13 120.072 65.499 121 65.5ZM121 62V55H128V62H121Z" fill="black" fill-opacity="0.3"/>
</svg>
