<svg width="33" height="32" viewBox="0 0 33 32" fill="none" xmlns="http://www.w3.org/2000/svg">
<rect x="0.5" y="0.5" width="17" height="17" rx="2.5" stroke="black"/>
<path d="M9 20.5H15C16.3807 20.5 17.5 21.6193 17.5 23V29C17.5 30.3807 16.3807 31.5 15 31.5H9C7.61929 31.5 6.5 30.3807 6.5 29V23C6.5 21.6193 7.61929 20.5 9 20.5Z" stroke="black"/>
<path d="M24 20.5H30C31.3807 20.5 32.5 21.6193 32.5 23V29C32.5 30.3807 31.3807 31.5 30 31.5H24C22.6193 31.5 21.5 30.3807 21.5 29V23C21.5 21.6193 22.6193 20.5 24 20.5Z" stroke="black"/>
<path d="M24 6.5H30C31.3807 6.5 32.5 7.61929 32.5 9V15C32.5 16.3807 31.3807 17.5 30 17.5H24C22.6193 17.5 21.5 16.3807 21.5 15V9C21.5 7.61929 22.6193 6.5 24 6.5Z" stroke="black"/>
</svg>
