<svg width="16" height="17" viewBox="0 0 16 17" fill="none" xmlns="http://www.w3.org/2000/svg">
<path d="M13 6.51172H10V3.51172C9.99956 3.11403 9.84139 2.73275 9.56018 2.45154C9.27897 2.17033 8.89769 2.01216 8.5 2.01172H7.4336C7.19314 2.01268 6.96099 2.09986 6.77934 2.25742C6.59768 2.41497 6.47855 2.63246 6.4436 2.87037L6.02095 5.82862L4.2324 8.51172H1V15.5117H11.5C12.4279 15.5107 13.3176 15.1416 13.9737 14.4855C14.6299 13.8293 14.999 12.9397 15 12.0117V8.51172C14.9994 7.98147 14.7885 7.47311 14.4136 7.09816C14.0386 6.72322 13.5303 6.51231 13 6.51172ZM4 14.5117H2V9.51172H4V14.5117ZM14 12.0117C13.9992 12.6745 13.7356 13.31 13.2669 13.7787C12.7983 14.2473 12.1628 14.511 11.5 14.5117H5V9.16307L6.9789 6.19482L7.4336 3.01172H8.5C8.63258 3.01182 8.75969 3.06454 8.85344 3.15828C8.94718 3.25203 8.99989 3.37914 9 3.51172V7.51172H13C13.2651 7.51205 13.5193 7.61751 13.7067 7.80498C13.8942 7.99244 13.9997 8.2466 14 8.51172V12.0117Z" fill="black" fill-opacity="0.54"/>
</svg>
