<svg width="674" height="514" viewBox="0 0 674 514" fill="none" xmlns="http://www.w3.org/2000/svg">
<rect x="1" y="1" width="195" height="235" rx="14" fill="#F5F5F5"/>
<rect x="1" y="1" width="195" height="235" rx="14" stroke="#171717"/>
<rect x="75.5" y="52.5" width="46" height="46" rx="13.8" fill="#7DD3FC"/>
<g clip-path="url(#clip0_3097_599630)">
<path d="M101.472 74.8908L99.5482 72.9674L98.501 74.0146L101.472 76.9854L105.928 72.5292L104.881 71.4819L101.472 74.8908Z" fill="#171717"/>
<path d="M94.045 76.9849H92.5596V78.4703H94.045V76.9849Z" fill="#171717"/>
<path d="M95.5299 70.3013H91.8164V71.7867H94.7872V73.2721H92.5591V75.5002H94.0445V74.7575H95.5299C95.9401 74.7575 96.2727 74.4249 96.2727 74.0148V71.044C96.2727 70.6339 95.9401 70.3013 95.5299 70.3013Z" fill="#171717"/>
<path d="M99.7906 85.8978L98.5014 85.1551L101.472 79.9562H105.929C106.751 79.9562 107.414 79.2932 107.414 78.4707V69.5582C107.414 68.7358 106.751 68.0728 105.929 68.0728H91.0743C90.2521 68.0728 89.5889 68.7358 89.5889 69.5582V78.4707C89.5889 79.2932 90.2521 79.9562 91.0743 79.9562H97.7587V81.4416H91.0743C89.4335 81.4416 88.1035 80.1121 88.1035 78.4707V69.5582C88.1035 67.9162 89.4335 66.5874 91.0743 66.5874H105.929C107.569 66.5874 108.899 67.9162 108.899 69.5582V78.4707C108.899 80.1121 107.569 81.4416 105.929 81.4416H102.337L99.7906 85.8978Z" fill="#171717"/>
</g>
<path d="M59.8072 135.5V124.332H63.6312C66.4632 124.332 68.2872 126.188 68.2872 129.916C68.2872 133.644 66.4632 135.5 63.6312 135.5H59.8072ZM61.3592 134.124H63.6312C65.4072 134.124 66.6232 132.94 66.6232 130.812V129.02C66.6232 126.892 65.4072 125.708 63.6312 125.708H61.3592V134.124ZM73.6597 135.692C71.3557 135.692 69.8997 133.98 69.8997 131.356C69.8997 128.732 71.3557 127.02 73.6597 127.02C75.9797 127.02 77.2917 128.78 77.2917 131.1V131.724H71.4517V132.06C71.4517 133.436 72.2997 134.428 73.7877 134.428C74.8277 134.428 75.5797 133.932 76.0277 133.084L76.9877 133.9C76.4117 134.972 75.2117 135.692 73.6597 135.692ZM73.6597 128.22C72.3637 128.22 71.4517 129.212 71.4517 130.572V130.684H75.7077V130.524C75.7077 129.148 74.9077 128.22 73.6597 128.22ZM81.8638 135.692C80.3278 135.692 79.3198 135.068 78.5518 134.092L79.5598 133.228C80.1838 134.012 80.9518 134.46 81.9598 134.46C83.0158 134.46 83.5918 133.996 83.5918 133.228C83.5918 132.62 83.2718 132.188 82.2638 132.044L81.5598 131.932C79.9758 131.708 78.8718 131.052 78.8718 129.516C78.8718 127.884 80.1358 127.02 81.8798 127.02C83.2878 127.02 84.1678 127.516 84.8718 128.348L83.9278 129.244C83.5278 128.716 82.8238 128.252 81.8318 128.252C80.8238 128.252 80.3118 128.716 80.3118 129.42C80.3118 130.156 80.7918 130.46 81.7518 130.604L82.4558 130.716C84.2798 130.988 85.0318 131.788 85.0318 133.068C85.0318 134.684 83.8158 135.692 81.8638 135.692ZM87.9156 125.484C87.2916 125.484 87.0196 125.148 87.0196 124.668V124.444C87.0196 123.964 87.2916 123.628 87.9156 123.628C88.5396 123.628 88.8116 123.964 88.8116 124.444V124.668C88.8116 125.148 88.5396 125.484 87.9156 125.484ZM87.1636 135.5V127.212H88.6516V135.5H87.1636ZM98.3929 136.348C98.3929 138.06 97.0809 138.892 94.2809 138.892C91.6409 138.892 90.5849 138.156 90.5849 136.876C90.5849 135.98 91.0969 135.484 91.9449 135.276V135.1C91.4169 134.892 91.1289 134.476 91.1289 133.884C91.1289 133.052 91.7529 132.636 92.5689 132.444V132.38C91.5929 131.916 91.0329 131.004 91.0329 129.868C91.0329 128.188 92.2489 127.02 94.2329 127.02C94.8089 127.02 95.3209 127.132 95.7689 127.308V127.132C95.7689 126.444 96.0729 125.996 96.7769 125.996H98.0409V127.244H96.4089V127.692C97.0809 128.188 97.4489 128.956 97.4489 129.868C97.4489 131.548 96.2329 132.7 94.2329 132.7C93.9129 132.7 93.5769 132.668 93.3049 132.604C92.8249 132.748 92.3609 133.02 92.3609 133.484C92.3609 133.964 92.8249 134.108 93.5769 134.108H95.4649C97.5129 134.108 98.3929 134.956 98.3929 136.348ZM97.0009 136.492C97.0009 135.868 96.5849 135.468 95.3689 135.468H92.5849C92.1209 135.708 91.9129 136.06 91.9129 136.524C91.9129 137.212 92.4089 137.756 93.7049 137.756H94.8249C96.2329 137.756 97.0009 137.34 97.0009 136.492ZM94.2489 131.58C95.3049 131.58 95.9609 131.084 95.9609 130.076V129.66C95.9609 128.652 95.3049 128.156 94.2489 128.156C93.1929 128.156 92.5369 128.652 92.5369 129.66V130.076C92.5369 131.084 93.1929 131.58 94.2489 131.58ZM101.292 135.5H99.8042V127.212H101.292V128.572H101.372C101.756 127.66 102.46 127.02 103.708 127.02C105.404 127.02 106.444 128.188 106.444 130.204V135.5H104.956V130.428C104.956 129.036 104.38 128.316 103.212 128.316C102.236 128.316 101.292 128.812 101.292 129.82V135.5ZM119.637 135.5H118.789C117.877 135.5 117.445 134.924 117.333 134.124H117.253C116.917 135.148 116.037 135.692 114.853 135.692C113.125 135.692 112.117 134.732 112.117 133.212C112.117 131.612 113.285 130.748 115.653 130.748H117.221V129.996C117.221 128.892 116.629 128.268 115.381 128.268C114.405 128.268 113.781 128.748 113.349 129.452L112.453 128.636C112.949 127.74 113.925 127.02 115.461 127.02C117.525 127.02 118.709 128.076 118.709 129.868V134.236H119.637V135.5ZM115.189 134.492C116.357 134.492 117.221 133.9 117.221 133.068V131.788H115.637C114.277 131.788 113.669 132.204 113.669 132.972V133.292C113.669 134.06 114.261 134.492 115.189 134.492ZM122.902 135.5H121.414V127.212H122.902V128.572H122.982C123.366 127.66 124.07 127.02 125.318 127.02C127.014 127.02 128.054 128.188 128.054 130.204V135.5H126.566V130.428C126.566 129.036 125.99 128.316 124.822 128.316C123.846 128.316 122.902 128.812 122.902 129.82V135.5ZM135.833 135.5V134.14H135.769C135.385 135.164 134.521 135.692 133.385 135.692C131.305 135.692 130.057 134.044 130.057 131.356C130.057 128.668 131.305 127.02 133.385 127.02C134.521 127.02 135.385 127.548 135.769 128.572H135.833V123.66H137.321V135.5H135.833ZM133.817 134.396C134.937 134.396 135.833 133.756 135.833 132.876V129.836C135.833 128.956 134.937 128.316 133.817 128.316C132.489 128.316 131.641 129.26 131.641 130.652V132.06C131.641 133.452 132.489 134.396 133.817 134.396ZM47.0776 160.7V149.212H48.5656V150.572H48.6296C49.0136 149.548 49.8776 149.02 51.0136 149.02C53.0936 149.02 54.3416 150.668 54.3416 153.356C54.3416 156.044 53.0936 157.692 51.0136 157.692C49.8776 157.692 49.0136 157.164 48.6296 156.14H48.5656V160.7H47.0776ZM50.5816 156.396C51.9096 156.396 52.7576 155.452 52.7576 154.06V152.652C52.7576 151.26 51.9096 150.316 50.5816 150.316C49.4616 150.316 48.5656 150.956 48.5656 151.836V154.876C48.5656 155.756 49.4616 156.396 50.5816 156.396ZM57.925 157.5H56.437V149.212H57.925V150.796H58.005C58.277 149.98 59.013 149.212 60.341 149.212H60.837V150.7H60.101C58.725 150.7 57.925 151.244 57.925 152.06V157.5ZM65.5269 157.692C63.2229 157.692 61.7669 155.98 61.7669 153.356C61.7669 150.732 63.2229 149.02 65.5269 149.02C67.8469 149.02 69.1589 150.78 69.1589 153.1V153.724H63.3189V154.06C63.3189 155.436 64.1669 156.428 65.6549 156.428C66.6949 156.428 67.4469 155.932 67.8949 155.084L68.8549 155.9C68.2789 156.972 67.0789 157.692 65.5269 157.692ZM65.5269 150.22C64.2309 150.22 63.3189 151.212 63.3189 152.572V152.684H67.5749V152.524C67.5749 151.148 66.7749 150.22 65.5269 150.22ZM71.187 160.7V149.212H72.675V150.572H72.739C73.123 149.548 73.987 149.02 75.123 149.02C77.203 149.02 78.451 150.668 78.451 153.356C78.451 156.044 77.203 157.692 75.123 157.692C73.987 157.692 73.123 157.164 72.739 156.14H72.675V160.7H71.187ZM74.691 156.396C76.019 156.396 76.867 155.452 76.867 154.06V152.652C76.867 151.26 76.019 150.316 74.691 150.316C73.571 150.316 72.675 150.956 72.675 151.836V154.876C72.675 155.756 73.571 156.396 74.691 156.396ZM87.4264 157.5H86.5784C85.6664 157.5 85.2344 156.924 85.1224 156.124H85.0424C84.7064 157.148 83.8264 157.692 82.6424 157.692C80.9144 157.692 79.9064 156.732 79.9064 155.212C79.9064 153.612 81.0744 152.748 83.4424 152.748H85.0104V151.996C85.0104 150.892 84.4184 150.268 83.1704 150.268C82.1944 150.268 81.5704 150.748 81.1384 151.452L80.2424 150.636C80.7384 149.74 81.7144 149.02 83.2504 149.02C85.3144 149.02 86.4984 150.076 86.4984 151.868V156.236H87.4264V157.5ZM82.9784 156.492C84.1464 156.492 85.0104 155.9 85.0104 155.068V153.788H83.4264C82.0664 153.788 81.4584 154.204 81.4584 154.972V155.292C81.4584 156.06 82.0504 156.492 82.9784 156.492ZM90.6906 157.5H89.2026V149.212H90.6906V150.796H90.7706C91.0426 149.98 91.7786 149.212 93.1066 149.212H93.6026V150.7H92.8666C91.4906 150.7 90.6906 151.244 90.6906 152.06V157.5ZM98.2925 157.692C95.9885 157.692 94.5325 155.98 94.5325 153.356C94.5325 150.732 95.9885 149.02 98.2925 149.02C100.613 149.02 101.925 150.78 101.925 153.1V153.724H96.0845V154.06C96.0845 155.436 96.9325 156.428 98.4205 156.428C99.4605 156.428 100.213 155.932 100.661 155.084L101.621 155.9C101.045 156.972 99.8445 157.692 98.2925 157.692ZM98.2925 150.22C96.9965 150.22 96.0845 151.212 96.0845 152.572V152.684H100.341V152.524C100.341 151.148 99.5405 150.22 98.2925 150.22ZM114.614 157.5H113.766C112.854 157.5 112.422 156.924 112.31 156.124H112.23C111.894 157.148 111.014 157.692 109.83 157.692C108.102 157.692 107.094 156.732 107.094 155.212C107.094 153.612 108.262 152.748 110.63 152.748H112.198V151.996C112.198 150.892 111.606 150.268 110.358 150.268C109.382 150.268 108.758 150.748 108.326 151.452L107.43 150.636C107.926 149.74 108.902 149.02 110.438 149.02C112.502 149.02 113.686 150.076 113.686 151.868V156.236H114.614V157.5ZM110.166 156.492C111.334 156.492 112.198 155.9 112.198 155.068V153.788H110.614C109.254 153.788 108.646 154.204 108.646 154.972V155.292C108.646 156.06 109.238 156.492 110.166 156.492ZM125.419 157.5V156.14H125.355C124.971 157.164 124.107 157.692 122.971 157.692C120.891 157.692 119.643 156.044 119.643 153.356C119.643 150.668 120.891 149.02 122.971 149.02C124.107 149.02 124.971 149.548 125.355 150.572H125.419V145.66H126.907V157.5H125.419ZM123.403 156.396C124.523 156.396 125.419 155.756 125.419 154.876V151.836C125.419 150.956 124.523 150.316 123.403 150.316C122.075 150.316 121.227 151.26 121.227 152.652V154.06C121.227 155.452 122.075 156.396 123.403 156.396ZM136.411 157.5H135.563C134.651 157.5 134.219 156.924 134.107 156.124H134.027C133.691 157.148 132.811 157.692 131.627 157.692C129.899 157.692 128.891 156.732 128.891 155.212C128.891 153.612 130.059 152.748 132.427 152.748H133.995V151.996C133.995 150.892 133.403 150.268 132.155 150.268C131.179 150.268 130.555 150.748 130.123 151.452L129.227 150.636C129.723 149.74 130.699 149.02 132.235 149.02C134.299 149.02 135.483 150.076 135.483 151.868V156.236H136.411V157.5ZM131.963 156.492C133.131 156.492 133.995 155.9 133.995 155.068V153.788H132.411C131.051 153.788 130.443 154.204 130.443 154.972V155.292C130.443 156.06 131.035 156.492 131.963 156.492ZM141.771 157.5H140.203C139.179 157.5 138.635 156.892 138.635 155.932V150.476H137.307V149.212H138.043C138.603 149.212 138.779 149.004 138.779 148.444V146.924H140.123V149.212H141.899V150.476H140.123V156.236H141.771V157.5ZM150.77 157.5H149.922C149.01 157.5 148.578 156.924 148.466 156.124H148.386C148.05 157.148 147.17 157.692 145.986 157.692C144.258 157.692 143.25 156.732 143.25 155.212C143.25 153.612 144.418 152.748 146.786 152.748H148.354V151.996C148.354 150.892 147.762 150.268 146.514 150.268C145.538 150.268 144.914 150.748 144.482 151.452L143.586 150.636C144.082 149.74 145.058 149.02 146.594 149.02C148.658 149.02 149.842 150.076 149.842 151.868V156.236H150.77V157.5ZM146.322 156.492C147.49 156.492 148.354 155.9 148.354 155.068V153.788H146.77C145.41 153.788 144.802 154.204 144.802 154.972V155.292C144.802 156.06 145.394 156.492 146.322 156.492ZM46.3121 179.5H45.1921C44.1681 179.5 43.6401 178.892 43.6401 177.98V167.66H45.1281V178.236H46.3121V179.5ZM54.9733 179.5H54.1253C53.2133 179.5 52.7813 178.924 52.6693 178.124H52.5893C52.2533 179.148 51.3733 179.692 50.1893 179.692C48.4613 179.692 47.4533 178.732 47.4533 177.212C47.4533 175.612 48.6213 174.748 50.9893 174.748H52.5573V173.996C52.5573 172.892 51.9653 172.268 50.7173 172.268C49.7413 172.268 49.1173 172.748 48.6853 173.452L47.7893 172.636C48.2853 171.74 49.2613 171.02 50.7973 171.02C52.8613 171.02 54.0453 172.076 54.0453 173.868V178.236H54.9733V179.5ZM50.5253 178.492C51.6933 178.492 52.5573 177.9 52.5573 177.068V175.788H50.9733C49.6133 175.788 49.0053 176.204 49.0053 176.972V177.292C49.0053 178.06 49.5973 178.492 50.5253 178.492ZM56.7495 179.5V167.66H58.2375V172.572H58.3015C58.6855 171.548 59.5495 171.02 60.6855 171.02C62.7655 171.02 64.0135 172.668 64.0135 175.356C64.0135 178.044 62.7655 179.692 60.6855 179.692C59.5495 179.692 58.6855 179.164 58.3015 178.14H58.2375V179.5H56.7495ZM60.2535 178.396C61.5815 178.396 62.4295 177.452 62.4295 176.06V174.652C62.4295 173.26 61.5815 172.316 60.2535 172.316C59.1335 172.316 58.2375 172.956 58.2375 173.836V176.876C58.2375 177.756 59.1335 178.396 60.2535 178.396ZM69.2769 179.692C66.9729 179.692 65.5169 177.98 65.5169 175.356C65.5169 172.732 66.9729 171.02 69.2769 171.02C71.5969 171.02 72.9089 172.78 72.9089 175.1V175.724H67.0689V176.06C67.0689 177.436 67.9169 178.428 69.4049 178.428C70.4449 178.428 71.1969 177.932 71.6449 177.084L72.6049 177.9C72.0289 178.972 70.8289 179.692 69.2769 179.692ZM69.2769 172.22C67.9809 172.22 67.0689 173.212 67.0689 174.572V174.684H71.3249V174.524C71.3249 173.148 70.5249 172.22 69.2769 172.22ZM77.609 179.5H76.489C75.465 179.5 74.937 178.892 74.937 177.98V167.66H76.425V178.236H77.609V179.5ZM80.1421 169.484C79.5181 169.484 79.2461 169.148 79.2461 168.668V168.444C79.2461 167.964 79.5181 167.628 80.1421 167.628C80.7661 167.628 81.0381 167.964 81.0381 168.444V168.668C81.0381 169.148 80.7661 169.484 80.1421 169.484ZM79.3901 179.5V171.212H80.8781V179.5H79.3901ZM84.9875 179.5H83.4995V171.212H84.9875V172.572H85.0675C85.4515 171.66 86.1555 171.02 87.4035 171.02C89.0995 171.02 90.1395 172.188 90.1395 174.204V179.5H88.6515V174.428C88.6515 173.036 88.0755 172.316 86.9075 172.316C85.9315 172.316 84.9875 172.812 84.9875 173.82V179.5ZM99.7914 180.348C99.7914 182.06 98.4794 182.892 95.6794 182.892C93.0394 182.892 91.9834 182.156 91.9834 180.876C91.9834 179.98 92.4954 179.484 93.3434 179.276V179.1C92.8154 178.892 92.5274 178.476 92.5274 177.884C92.5274 177.052 93.1514 176.636 93.9674 176.444V176.38C92.9914 175.916 92.4314 175.004 92.4314 173.868C92.4314 172.188 93.6474 171.02 95.6314 171.02C96.2074 171.02 96.7194 171.132 97.1674 171.308V171.132C97.1674 170.444 97.4714 169.996 98.1754 169.996H99.4394V171.244H97.8074V171.692C98.4794 172.188 98.8474 172.956 98.8474 173.868C98.8474 175.548 97.6314 176.7 95.6314 176.7C95.3114 176.7 94.9754 176.668 94.7034 176.604C94.2234 176.748 93.7594 177.02 93.7594 177.484C93.7594 177.964 94.2234 178.108 94.9754 178.108H96.8634C98.9114 178.108 99.7914 178.956 99.7914 180.348ZM98.3994 180.492C98.3994 179.868 97.9834 179.468 96.7674 179.468H93.9834C93.5194 179.708 93.3114 180.06 93.3114 180.524C93.3114 181.212 93.8074 181.756 95.1034 181.756H96.2234C97.6314 181.756 98.3994 181.34 98.3994 180.492ZM95.6474 175.58C96.7034 175.58 97.3594 175.084 97.3594 174.076V173.66C97.3594 172.652 96.7034 172.156 95.6474 172.156C94.5914 172.156 93.9354 172.652 93.9354 173.66V174.076C93.9354 175.084 94.5914 175.58 95.6474 175.58ZM104.984 182.7V171.212H106.472V172.572H106.536C106.92 171.548 107.784 171.02 108.92 171.02C111 171.02 112.248 172.668 112.248 175.356C112.248 178.044 111 179.692 108.92 179.692C107.784 179.692 106.92 179.164 106.536 178.14H106.472V182.7H104.984ZM108.488 178.396C109.816 178.396 110.664 177.452 110.664 176.06V174.652C110.664 173.26 109.816 172.316 108.488 172.316C107.368 172.316 106.472 172.956 106.472 173.836V176.876C106.472 177.756 107.368 178.396 108.488 178.396ZM115.831 179.5H114.343V171.212H115.831V172.796H115.911C116.183 171.98 116.919 171.212 118.247 171.212H118.743V172.7H118.007C116.631 172.7 115.831 173.244 115.831 174.06V179.5ZM123.449 179.692C121.193 179.692 119.673 177.996 119.673 175.356C119.673 172.716 121.193 171.02 123.449 171.02C125.705 171.02 127.225 172.716 127.225 175.356C127.225 177.996 125.705 179.692 123.449 179.692ZM123.449 178.412C124.745 178.412 125.641 177.596 125.641 175.98V174.732C125.641 173.116 124.745 172.3 123.449 172.3C122.153 172.3 121.257 173.116 121.257 174.732V175.98C121.257 177.596 122.153 178.412 123.449 178.412ZM129.25 181.436V171.212H130.738V180.7C130.738 181.916 130.146 182.7 128.834 182.7H127.921V181.436H129.25ZM130.002 169.484C129.378 169.484 129.106 169.148 129.106 168.668V168.444C129.106 167.964 129.378 167.628 130.002 167.628C130.626 167.628 130.898 167.964 130.898 168.444V168.668C130.898 169.148 130.626 169.484 130.002 169.484ZM136.527 179.692C134.223 179.692 132.767 177.98 132.767 175.356C132.767 172.732 134.223 171.02 136.527 171.02C138.847 171.02 140.159 172.78 140.159 175.1V175.724H134.319V176.06C134.319 177.436 135.167 178.428 136.655 178.428C137.695 178.428 138.447 177.932 138.895 177.084L139.855 177.9C139.279 178.972 138.079 179.692 136.527 179.692ZM136.527 172.22C135.231 172.22 134.319 173.212 134.319 174.572V174.684H138.575V174.524C138.575 173.148 137.775 172.22 136.527 172.22ZM145.323 179.692C142.955 179.692 141.595 178.012 141.595 175.356C141.595 172.7 142.955 171.02 145.323 171.02C146.955 171.02 147.979 171.82 148.459 173.004L147.227 173.612C146.955 172.796 146.283 172.3 145.323 172.3C143.899 172.3 143.179 173.276 143.179 174.636V176.076C143.179 177.436 143.899 178.412 145.323 178.412C146.331 178.412 147.019 177.9 147.435 177.004L148.523 177.676C147.995 178.924 146.907 179.692 145.323 179.692ZM153.865 179.5H152.297C151.273 179.5 150.729 178.892 150.729 177.932V172.476H149.401V171.212H150.137C150.697 171.212 150.873 171.004 150.873 170.444V168.924H152.217V171.212H153.993V172.476H152.217V178.236H153.865V179.5Z" fill="#171717"/>
<path d="M235.77 109.35C235.964 109.157 235.964 108.843 235.77 108.65L232.622 105.502C232.429 105.309 232.116 105.309 231.922 105.502C231.729 105.695 231.729 106.008 231.922 106.202L234.721 109L231.922 111.798C231.729 111.992 231.729 112.305 231.922 112.498C232.116 112.691 232.429 112.691 232.622 112.498L235.77 109.35ZM200 109.495H235.421V108.505H200V109.495Z" fill="#171717"/>
<rect x="239" y="1" width="196" height="235" rx="14" fill="#F5F5F5"/>
<rect x="239" y="1" width="196" height="235" rx="14" stroke="#171717"/>
<rect x="314" y="52.5" width="46" height="46" rx="13.8" fill="#FBBF24"/>
<path d="M331.058 85.8977H328.087C327.693 85.8977 327.315 85.7412 327.037 85.4627C326.758 85.1841 326.602 84.8063 326.602 84.4123V81.4415C326.602 81.0475 326.758 80.6697 327.037 80.3911C327.315 80.1126 327.693 79.9561 328.087 79.9561H331.058C331.452 79.9561 331.83 80.1126 332.108 80.3911C332.387 80.6697 332.543 81.0475 332.543 81.4415V84.4123C332.543 84.8063 332.387 85.1841 332.108 85.4627C331.83 85.7412 331.452 85.8977 331.058 85.8977ZM328.087 81.4415V84.4123H331.058V81.4415H328.087Z" fill="#171717"/>
<path d="M338.485 85.8977H335.514C335.12 85.8977 334.742 85.7412 334.463 85.4627C334.185 85.1841 334.028 84.8063 334.028 84.4123V81.4415C334.028 81.0475 334.185 80.6697 334.463 80.3911C334.742 80.1126 335.12 79.9561 335.514 79.9561H338.485C338.879 79.9561 339.256 80.1126 339.535 80.3911C339.813 80.6697 339.97 81.0475 339.97 81.4415V84.4123C339.97 84.8063 339.813 85.1841 339.535 85.4627C339.256 85.7412 338.879 85.8977 338.485 85.8977ZM335.514 81.4415V84.4123H338.485V81.4415H335.514Z" fill="#171717"/>
<path d="M345.912 85.8977H342.941C342.548 85.8977 342.17 85.7412 341.891 85.4627C341.613 85.1841 341.456 84.8063 341.456 84.4123V81.4415C341.456 81.0475 341.613 80.6697 341.891 80.3911C342.17 80.1126 342.548 79.9561 342.941 79.9561H345.912C346.306 79.9561 346.684 80.1126 346.963 80.3911C347.241 80.6697 347.398 81.0475 347.398 81.4415V84.4123C347.398 84.8063 347.241 85.1841 346.963 85.4627C346.684 85.7412 346.306 85.8977 345.912 85.8977ZM342.941 81.4415V84.4123H345.912V81.4415H342.941Z" fill="#171717"/>
<path d="M331.058 78.471H328.087C327.693 78.471 327.315 78.3145 327.037 78.0359C326.758 77.7573 326.602 77.3795 326.602 76.9855V74.0147C326.602 73.6208 326.758 73.2429 327.037 72.9644C327.315 72.6858 327.693 72.5293 328.087 72.5293H331.058C331.452 72.5293 331.83 72.6858 332.108 72.9644C332.387 73.2429 332.543 73.6208 332.543 74.0147V76.9855C332.543 77.3795 332.387 77.7573 332.108 78.0359C331.83 78.3145 331.452 78.471 331.058 78.471ZM328.087 74.0147V76.9855H331.058V74.0147H328.087Z" fill="#171717"/>
<path d="M338.485 78.471H335.514C335.12 78.471 334.742 78.3145 334.463 78.0359C334.185 77.7573 334.028 77.3795 334.028 76.9855V74.0147C334.028 73.6208 334.185 73.2429 334.463 72.9644C334.742 72.6858 335.12 72.5293 335.514 72.5293H338.485C338.879 72.5293 339.256 72.6858 339.535 72.9644C339.813 73.2429 339.97 73.6208 339.97 74.0147V76.9855C339.97 77.3795 339.813 77.7573 339.535 78.0359C339.256 78.3145 338.879 78.471 338.485 78.471ZM335.514 74.0147V76.9855H338.485V74.0147H335.514Z" fill="#171717"/>
<path d="M345.912 78.471H342.941C342.548 78.471 342.17 78.3145 341.891 78.0359C341.613 77.7573 341.456 77.3795 341.456 76.9855V74.0147C341.456 73.6208 341.613 73.2429 341.891 72.9644C342.17 72.6858 342.548 72.5293 342.941 72.5293H345.912C346.306 72.5293 346.684 72.6858 346.963 72.9644C347.241 73.2429 347.398 73.6208 347.398 74.0147V76.9855C347.398 77.3795 347.241 77.7573 346.963 78.0359C346.684 78.3145 346.306 78.471 345.912 78.471ZM342.941 74.0147V76.9855H345.912V74.0147H342.941Z" fill="#171717"/>
<path d="M331.058 71.0437H328.087C327.693 71.0437 327.315 70.8872 327.037 70.6086C326.758 70.3301 326.602 69.9523 326.602 69.5583V66.5875C326.602 66.1935 326.758 65.8157 327.037 65.5371C327.315 65.2585 327.693 65.1021 328.087 65.1021H331.058C331.452 65.1021 331.83 65.2585 332.108 65.5371C332.387 65.8157 332.543 66.1935 332.543 66.5875V69.5583C332.543 69.9523 332.387 70.3301 332.108 70.6086C331.83 70.8872 331.452 71.0437 331.058 71.0437ZM328.087 66.5875V69.5583H331.058V66.5875H328.087Z" fill="#171717"/>
<path d="M338.485 71.0437H335.514C335.12 71.0437 334.742 70.8872 334.463 70.6086C334.185 70.3301 334.028 69.9523 334.028 69.5583V66.5875C334.028 66.1935 334.185 65.8157 334.463 65.5371C334.742 65.2585 335.12 65.1021 335.514 65.1021H338.485C338.879 65.1021 339.256 65.2585 339.535 65.5371C339.813 65.8157 339.97 66.1935 339.97 66.5875V69.5583C339.97 69.9523 339.813 70.3301 339.535 70.6086C339.256 70.8872 338.879 71.0437 338.485 71.0437ZM335.514 66.5875V69.5583H338.485V66.5875H335.514Z" fill="#171717"/>
<path d="M345.912 71.0437H342.941C342.548 71.0437 342.17 70.8872 341.891 70.6086C341.613 70.3301 341.456 69.9523 341.456 69.5583V66.5875C341.456 66.1935 341.613 65.8157 341.891 65.5371C342.17 65.2585 342.548 65.1021 342.941 65.1021H345.912C346.306 65.1021 346.684 65.2585 346.963 65.5371C347.241 65.8157 347.398 66.1935 347.398 66.5875V69.5583C347.398 69.9523 347.241 70.3301 346.963 70.6086C346.684 70.8872 346.306 71.0437 345.912 71.0437ZM342.941 66.5875V69.5583H345.912V66.5875H342.941Z" fill="#171717"/>
<path d="M280.855 135.692C278.007 135.692 276.263 133.644 276.263 129.916C276.263 126.188 278.007 124.14 280.855 124.14C282.743 124.14 284.039 125.02 284.759 126.62L283.479 127.356C283.063 126.252 282.199 125.532 280.855 125.532C279.031 125.532 277.927 126.892 277.927 129.068V130.764C277.927 132.94 279.031 134.3 280.855 134.3C282.231 134.3 283.159 133.516 283.575 132.364L284.823 133.116C284.103 134.716 282.743 135.692 280.855 135.692ZM289.894 135.692C287.638 135.692 286.118 133.996 286.118 131.356C286.118 128.716 287.638 127.02 289.894 127.02C292.15 127.02 293.67 128.716 293.67 131.356C293.67 133.996 292.15 135.692 289.894 135.692ZM289.894 134.412C291.19 134.412 292.086 133.596 292.086 131.98V130.732C292.086 129.116 291.19 128.3 289.894 128.3C288.598 128.3 287.702 129.116 287.702 130.732V131.98C287.702 133.596 288.598 134.412 289.894 134.412ZM297.183 135.5H295.695V127.212H297.183V128.572H297.263C297.647 127.66 298.351 127.02 299.599 127.02C301.295 127.02 302.335 128.188 302.335 130.204V135.5H300.847V130.428C300.847 129.036 300.271 128.316 299.103 128.316C298.127 128.316 297.183 128.812 297.183 129.82V135.5ZM305.315 135.5V128.476H303.987V127.212H305.315V125.676C305.315 124.46 305.955 123.66 307.251 123.66H308.547V124.924H306.803V127.212H311.555V135.5H310.067V128.476H306.803V135.5H305.315ZM310.819 125.484C310.195 125.484 309.923 125.148 309.923 124.668V124.444C309.923 123.964 310.195 123.628 310.819 123.628C311.443 123.628 311.715 123.964 311.715 124.444V124.668C311.715 125.148 311.443 125.484 310.819 125.484ZM321.299 136.348C321.299 138.06 319.987 138.892 317.187 138.892C314.547 138.892 313.491 138.156 313.491 136.876C313.491 135.98 314.003 135.484 314.851 135.276V135.1C314.323 134.892 314.035 134.476 314.035 133.884C314.035 133.052 314.659 132.636 315.475 132.444V132.38C314.499 131.916 313.939 131.004 313.939 129.868C313.939 128.188 315.155 127.02 317.139 127.02C317.715 127.02 318.227 127.132 318.675 127.308V127.132C318.675 126.444 318.979 125.996 319.683 125.996H320.947V127.244H319.315V127.692C319.987 128.188 320.355 128.956 320.355 129.868C320.355 131.548 319.139 132.7 317.139 132.7C316.819 132.7 316.483 132.668 316.211 132.604C315.731 132.748 315.267 133.02 315.267 133.484C315.267 133.964 315.731 134.108 316.483 134.108H318.371C320.419 134.108 321.299 134.956 321.299 136.348ZM319.907 136.492C319.907 135.868 319.491 135.468 318.275 135.468H315.491C315.027 135.708 314.819 136.06 314.819 136.524C314.819 137.212 315.315 137.756 316.611 137.756H317.731C319.139 137.756 319.907 137.34 319.907 136.492ZM317.155 131.58C318.211 131.58 318.867 131.084 318.867 130.076V129.66C318.867 128.652 318.211 128.156 317.155 128.156C316.099 128.156 315.443 128.652 315.443 129.66V130.076C315.443 131.084 316.099 131.58 317.155 131.58ZM327.72 135.5V134.14H327.64C327.336 134.94 326.696 135.692 325.32 135.692C323.624 135.692 322.568 134.524 322.568 132.508V127.212H324.056V132.284C324.056 133.676 324.648 134.396 325.816 134.396C326.76 134.396 327.72 133.916 327.72 132.876V127.212H329.208V135.5H327.72ZM333.323 135.5H331.835V127.212H333.323V128.796H333.403C333.675 127.98 334.411 127.212 335.739 127.212H336.235V128.7H335.499C334.123 128.7 333.323 129.244 333.323 130.06V135.5ZM340.925 135.692C338.621 135.692 337.165 133.98 337.165 131.356C337.165 128.732 338.621 127.02 340.925 127.02C343.245 127.02 344.557 128.78 344.557 131.1V131.724H338.717V132.06C338.717 133.436 339.565 134.428 341.053 134.428C342.093 134.428 342.845 133.932 343.293 133.084L344.253 133.9C343.677 134.972 342.477 135.692 340.925 135.692ZM340.925 128.22C339.629 128.22 338.717 129.212 338.717 130.572V130.684H342.973V130.524C342.973 129.148 342.173 128.22 340.925 128.22ZM355.615 138.7V134.14H355.551C355.167 135.164 354.303 135.692 353.167 135.692C351.087 135.692 349.839 134.044 349.839 131.356C349.839 128.668 351.087 127.02 353.167 127.02C354.303 127.02 355.167 127.548 355.551 128.572H355.615V127.212H357.103V138.7H355.615ZM353.599 134.396C354.719 134.396 355.615 133.756 355.615 132.876V129.836C355.615 128.956 354.719 128.316 353.599 128.316C352.271 128.316 351.423 129.26 351.423 130.652V132.06C351.423 133.452 352.271 134.396 353.599 134.396ZM364.798 135.5V134.14H364.718C364.414 134.94 363.774 135.692 362.398 135.692C360.702 135.692 359.646 134.524 359.646 132.508V127.212H361.134V132.284C361.134 133.676 361.726 134.396 362.894 134.396C363.838 134.396 364.798 133.916 364.798 132.876V127.212H366.286V135.5H364.798ZM375.794 135.5H374.946C374.034 135.5 373.602 134.924 373.49 134.124H373.41C373.074 135.148 372.194 135.692 371.01 135.692C369.282 135.692 368.274 134.732 368.274 133.212C368.274 131.612 369.442 130.748 371.81 130.748H373.378V129.996C373.378 128.892 372.786 128.268 371.538 128.268C370.562 128.268 369.938 128.748 369.506 129.452L368.61 128.636C369.106 127.74 370.082 127.02 371.618 127.02C373.682 127.02 374.866 128.076 374.866 129.868V134.236H375.794V135.5ZM371.346 134.492C372.514 134.492 373.378 133.9 373.378 133.068V131.788H371.794C370.434 131.788 369.826 132.204 369.826 132.972V133.292C369.826 134.06 370.418 134.492 371.346 134.492ZM380.242 135.5H379.122C378.098 135.5 377.57 134.892 377.57 133.98V123.66H379.058V134.236H380.242V135.5ZM382.775 125.484C382.151 125.484 381.879 125.148 381.879 124.668V124.444C381.879 123.964 382.151 123.628 382.775 123.628C383.399 123.628 383.671 123.964 383.671 124.444V124.668C383.671 125.148 383.399 125.484 382.775 125.484ZM382.023 135.5V127.212H383.511V135.5H382.023ZM389.732 135.5H388.164C387.14 135.5 386.596 134.892 386.596 133.932V128.476H385.268V127.212H386.004C386.564 127.212 386.74 127.004 386.74 126.444V124.924H388.084V127.212H389.86V128.476H388.084V134.236H389.732V135.5ZM395.099 132.508L396.955 127.212H398.395L394.795 137.308C394.411 138.348 394.011 138.7 392.747 138.7H391.931V137.436H393.291L393.851 135.836L390.779 127.212H392.267L394.107 132.508L394.539 134.06H394.619L395.099 132.508ZM300.354 157.692C297.986 157.692 296.626 156.012 296.626 153.356C296.626 150.7 297.986 149.02 300.354 149.02C301.986 149.02 303.01 149.82 303.49 151.004L302.258 151.612C301.986 150.796 301.314 150.3 300.354 150.3C298.93 150.3 298.21 151.276 298.21 152.636V154.076C298.21 155.436 298.93 156.412 300.354 156.412C301.362 156.412 302.05 155.9 302.466 155.004L303.554 155.676C303.026 156.924 301.938 157.692 300.354 157.692ZM308.387 157.692C306.131 157.692 304.611 155.996 304.611 153.356C304.611 150.716 306.131 149.02 308.387 149.02C310.643 149.02 312.163 150.716 312.163 153.356C312.163 155.996 310.643 157.692 308.387 157.692ZM308.387 156.412C309.683 156.412 310.579 155.596 310.579 153.98V152.732C310.579 151.116 309.683 150.3 308.387 150.3C307.091 150.3 306.195 151.116 306.195 152.732V153.98C306.195 155.596 307.091 156.412 308.387 156.412ZM315.675 157.5H314.187V149.212H315.675V150.572H315.755C316.139 149.66 316.843 149.02 318.091 149.02C319.787 149.02 320.827 150.188 320.827 152.204V157.5H319.339V152.428C319.339 151.036 318.763 150.316 317.595 150.316C316.619 150.316 315.675 150.812 315.675 151.82V157.5ZM326.959 157.5H325.391C324.367 157.5 323.823 156.892 323.823 155.932V150.476H322.495V149.212H323.231C323.791 149.212 323.967 149.004 323.967 148.444V146.924H325.311V149.212H327.087V150.476H325.311V156.236H326.959V157.5ZM330.566 157.5H329.078V149.212H330.566V150.796H330.646C330.918 149.98 331.654 149.212 332.982 149.212H333.478V150.7H332.742C331.366 150.7 330.566 151.244 330.566 152.06V157.5ZM338.184 157.692C335.928 157.692 334.408 155.996 334.408 153.356C334.408 150.716 335.928 149.02 338.184 149.02C340.44 149.02 341.96 150.716 341.96 153.356C341.96 155.996 340.44 157.692 338.184 157.692ZM338.184 156.412C339.48 156.412 340.376 155.596 340.376 153.98V152.732C340.376 151.116 339.48 150.3 338.184 150.3C336.888 150.3 335.992 151.116 335.992 152.732V153.98C335.992 155.596 336.888 156.412 338.184 156.412ZM346.656 157.5H345.536C344.512 157.5 343.984 156.892 343.984 155.98V145.66H345.472V156.236H346.656V157.5ZM359.098 157.5H358.25C357.338 157.5 356.906 156.924 356.794 156.124H356.714C356.378 157.148 355.498 157.692 354.314 157.692C352.586 157.692 351.578 156.732 351.578 155.212C351.578 153.612 352.746 152.748 355.114 152.748H356.682V151.996C356.682 150.892 356.09 150.268 354.842 150.268C353.866 150.268 353.242 150.748 352.81 151.452L351.914 150.636C352.41 149.74 353.386 149.02 354.922 149.02C356.986 149.02 358.17 150.076 358.17 151.868V156.236H359.098V157.5ZM354.65 156.492C355.818 156.492 356.682 155.9 356.682 155.068V153.788H355.098C353.738 153.788 353.13 154.204 353.13 154.972V155.292C353.13 156.06 353.722 156.492 354.65 156.492ZM362.363 157.5H360.875V149.212H362.363V150.572H362.443C362.827 149.66 363.531 149.02 364.779 149.02C366.475 149.02 367.515 150.188 367.515 152.204V157.5H366.027V152.428C366.027 151.036 365.451 150.316 364.283 150.316C363.307 150.316 362.363 150.812 362.363 151.82V157.5ZM375.294 157.5V156.14H375.23C374.846 157.164 373.982 157.692 372.846 157.692C370.766 157.692 369.518 156.044 369.518 153.356C369.518 150.668 370.766 149.02 372.846 149.02C373.982 149.02 374.846 149.548 375.23 150.572H375.294V145.66H376.782V157.5H375.294ZM373.278 156.396C374.398 156.396 375.294 155.756 375.294 154.876V151.836C375.294 150.956 374.398 150.316 373.278 150.316C371.95 150.316 371.102 151.26 371.102 152.652V154.06C371.102 155.452 371.95 156.396 373.278 156.396ZM302.204 179.5L299.98 171.212H301.42L302.284 174.748L303.116 178.156H303.148L304.092 174.748L305.116 171.212H306.444L307.5 174.748L308.46 178.156H308.508L309.292 174.748L310.172 171.212H311.564L309.356 179.5H307.596L306.476 175.612L305.772 173.18H305.74L305.052 175.612L303.932 179.5H302.204ZM316.434 179.692C314.178 179.692 312.658 177.996 312.658 175.356C312.658 172.716 314.178 171.02 316.434 171.02C318.69 171.02 320.21 172.716 320.21 175.356C320.21 177.996 318.69 179.692 316.434 179.692ZM316.434 178.412C317.73 178.412 318.626 177.596 318.626 175.98V174.732C318.626 173.116 317.73 172.3 316.434 172.3C315.138 172.3 314.242 173.116 314.242 174.732V175.98C314.242 177.596 315.138 178.412 316.434 178.412ZM323.722 179.5H322.234V171.212H323.722V172.796H323.802C324.074 171.98 324.81 171.212 326.138 171.212H326.634V172.7H325.898C324.522 172.7 323.722 173.244 323.722 174.06V179.5ZM328.234 179.5V167.66H329.722V175.036H329.802L330.986 173.58L333.146 171.212H334.906L331.962 174.412L335.29 179.5H333.498L330.906 175.372L329.722 176.636V179.5H328.234ZM337.276 179.5V172.476H335.948V171.212H337.276V169.676C337.276 168.46 337.916 167.66 339.212 167.66H340.508V168.924H338.764V171.212H340.508V172.476H338.764V179.5H337.276ZM344.797 179.5H343.677C342.653 179.5 342.125 178.892 342.125 177.98V167.66H343.613V178.236H344.797V179.5ZM349.762 179.692C347.506 179.692 345.986 177.996 345.986 175.356C345.986 172.716 347.506 171.02 349.762 171.02C352.018 171.02 353.538 172.716 353.538 175.356C353.538 177.996 352.018 179.692 349.762 179.692ZM349.762 178.412C351.058 178.412 351.954 177.596 351.954 175.98V174.732C351.954 173.116 351.058 172.3 349.762 172.3C348.466 172.3 347.57 173.116 347.57 174.732V175.98C347.57 177.596 348.466 178.412 349.762 178.412ZM356.844 179.5L354.62 171.212H356.06L356.924 174.748L357.756 178.156H357.788L358.732 174.748L359.756 171.212H361.084L362.14 174.748L363.1 178.156H363.148L363.932 174.748L364.812 171.212H366.204L363.996 179.5H362.236L361.116 175.612L360.412 173.18H360.38L359.692 175.612L358.572 179.5H356.844ZM370.497 179.692C368.961 179.692 367.953 179.068 367.185 178.092L368.193 177.228C368.817 178.012 369.585 178.46 370.593 178.46C371.649 178.46 372.225 177.996 372.225 177.228C372.225 176.62 371.905 176.188 370.897 176.044L370.193 175.932C368.609 175.708 367.505 175.052 367.505 173.516C367.505 171.884 368.769 171.02 370.513 171.02C371.921 171.02 372.801 171.516 373.505 172.348L372.561 173.244C372.161 172.716 371.457 172.252 370.465 172.252C369.457 172.252 368.945 172.716 368.945 173.42C368.945 174.156 369.425 174.46 370.385 174.604L371.089 174.716C372.913 174.988 373.665 175.788 373.665 177.068C373.665 178.684 372.449 179.692 370.497 179.692Z" fill="#171717"/>
<path d="M474.769 109.35C474.963 109.157 474.963 108.843 474.769 108.65L471.621 105.502C471.428 105.309 471.115 105.309 470.921 105.502C470.728 105.695 470.728 106.008 470.921 106.202L473.72 109L470.921 111.798C470.728 111.992 470.728 112.305 470.921 112.498C471.115 112.691 471.428 112.691 471.621 112.498L474.769 109.35ZM438.999 109.495H474.42V108.505H438.999V109.495Z" fill="#171717"/>
<path d="M574.65 271.35C574.843 271.543 575.157 271.543 575.35 271.35L578.498 268.202C578.691 268.008 578.691 267.695 578.498 267.502C578.305 267.309 577.992 267.309 577.798 267.502L575 270.3L572.202 267.502C572.008 267.309 571.695 267.309 571.502 267.502C571.309 267.695 571.309 268.008 571.502 268.202L574.65 271.35ZM574.505 242L574.505 271L575.495 271L575.495 242L574.505 242Z" fill="#171717"/>
<rect x="478" y="1" width="195" height="235" rx="14" fill="#F5F5F5"/>
<rect x="478" y="1" width="195" height="235" rx="14" stroke="#171717"/>
<rect x="552.5" y="52.5" width="46" height="46" rx="13.8" fill="#4ADE80"/>
<path fill-rule="evenodd" clip-rule="evenodd" d="M579.791 70.543C580.279 70.8695 580.854 71.0437 581.441 71.0437C582.229 71.0429 582.984 70.7296 583.541 70.1727C584.098 69.6157 584.411 68.8605 584.412 68.0729C584.412 67.4853 584.238 66.9109 583.911 66.4224C583.585 65.9338 583.121 65.553 582.578 65.3282C582.035 65.1033 581.438 65.0445 580.862 65.1591C580.285 65.2738 579.756 65.5567 579.34 65.9722C578.925 66.3877 578.642 66.917 578.527 67.4933C578.413 68.0696 578.472 68.6669 578.696 69.2098C578.921 69.7526 579.302 70.2166 579.791 70.543ZM580.616 66.8378C580.86 66.6746 581.147 66.5875 581.441 66.5875C581.835 66.5879 582.213 66.7446 582.491 67.023C582.769 67.3015 582.926 67.6791 582.927 68.0729C582.927 68.3667 582.839 68.6539 582.676 68.8981C582.513 69.1424 582.281 69.3328 582.01 69.4452C581.738 69.5577 581.439 69.5871 581.151 69.5298C580.863 69.4724 580.599 69.331 580.391 69.1232C580.183 68.9155 580.042 68.6508 579.984 68.3627C579.927 68.0745 579.956 67.7759 580.069 67.5044C580.181 67.233 580.372 67.001 580.616 66.8378ZM576.985 75.5H578.47V74.0146C578.47 73.8176 578.549 73.6288 578.688 73.4896C578.827 73.3503 579.016 73.272 579.213 73.2718H583.669C583.866 73.272 584.055 73.3503 584.194 73.4896C584.333 73.6288 584.412 73.8176 584.412 74.0146V75.5H585.897V74.0146C585.897 73.4238 585.662 72.8575 585.244 72.4397C584.826 72.022 584.26 71.7871 583.669 71.7864H579.213C578.622 71.7871 578.056 72.022 577.638 72.4397C577.22 72.8575 576.986 73.4238 576.985 74.0146V75.5ZM579.791 81.6837C580.279 82.0101 580.854 82.1843 581.441 82.1843C582.229 82.1836 582.984 81.8703 583.541 81.3134C584.098 80.7564 584.411 80.0012 584.412 79.2135C584.412 78.6259 584.238 78.0516 583.911 77.563C583.585 77.0745 583.121 76.6937 582.578 76.4688C582.035 76.244 581.438 76.1851 580.862 76.2998C580.285 76.4144 579.756 76.6973 579.34 77.1128C578.925 77.5283 578.642 78.0576 578.527 78.6339C578.413 79.2102 578.472 79.8075 578.696 80.3504C578.921 80.8932 579.302 81.3572 579.791 81.6837ZM580.616 77.9784C580.86 77.8152 581.147 77.7281 581.441 77.7281C581.835 77.7286 582.212 77.8853 582.491 78.1637C582.769 78.4422 582.926 78.8197 582.927 79.2135C582.927 79.5073 582.839 79.7945 582.676 80.0388C582.513 80.283 582.281 80.4734 582.01 80.5859C581.738 80.6983 581.439 80.7277 581.151 80.6704C580.863 80.6131 580.599 80.4716 580.391 80.2639C580.183 80.0561 580.042 79.7914 579.984 79.5033C579.927 79.2152 579.956 78.9165 580.069 78.6451C580.181 78.3736 580.372 78.1417 580.616 77.9784ZM578.47 86.6406H576.985V85.1552C576.986 84.5644 577.22 83.9981 577.638 83.5804C578.056 83.1627 578.622 82.9277 579.213 82.927H583.669C584.26 82.9277 584.826 83.1627 585.244 83.5804C585.662 83.9981 585.897 84.5644 585.897 85.1552V86.6406H584.412V85.1552C584.412 84.9582 584.334 84.7694 584.194 84.6301C584.055 84.4909 583.866 84.4126 583.669 84.4125H579.213C579.016 84.4126 578.827 84.4909 578.688 84.6301C578.549 84.7694 578.47 84.9582 578.47 85.1552V86.6406ZM565.102 86.6406H566.587V85.1552C566.587 84.9582 566.665 84.7694 566.805 84.6302C566.944 84.4909 567.133 84.4126 567.33 84.4125H571.786C571.983 84.4126 572.172 84.4909 572.311 84.6302C572.45 84.7694 572.528 84.9582 572.529 85.1552V86.6406H574.014V85.1552C574.013 84.5644 573.778 83.9981 573.361 83.5804C572.943 83.1627 572.377 82.9277 571.786 82.927H567.33C566.739 82.9277 566.173 83.1627 565.755 83.5804C565.337 83.9981 565.102 84.5644 565.102 85.1552V86.6406ZM567.907 81.6837C568.396 82.0101 568.97 82.1843 569.558 82.1843C570.345 82.1835 571.101 81.8703 571.658 81.3133C572.215 80.7563 572.528 80.0012 572.529 79.2135C572.529 78.6259 572.354 78.0516 572.028 77.563C571.702 77.0745 571.238 76.6937 570.695 76.4688C570.152 76.244 569.555 76.1851 568.978 76.2998C568.402 76.4144 567.873 76.6973 567.457 77.1128C567.042 77.5283 566.759 78.0576 566.644 78.6339C566.529 79.2102 566.588 79.8075 566.813 80.3504C567.038 80.8932 567.419 81.3572 567.907 81.6837ZM568.733 77.9784C568.977 77.8152 569.264 77.7281 569.558 77.7281C569.952 77.7285 570.329 77.8852 570.608 78.1637C570.886 78.4421 571.043 78.8197 571.043 79.2135C571.043 79.5073 570.956 79.7945 570.793 80.0388C570.63 80.283 570.398 80.4734 570.126 80.5859C569.855 80.6983 569.556 80.7277 569.268 80.6704C568.98 80.6131 568.715 80.4716 568.507 80.2639C568.3 80.0561 568.158 79.7914 568.101 79.5033C568.044 79.2152 568.073 78.9165 568.185 78.6451C568.298 78.3736 568.488 78.1417 568.733 77.9784ZM565.102 75.5H566.587V74.0146C566.587 73.8176 566.666 73.6289 566.805 73.4897C566.944 73.3504 567.133 73.2721 567.33 73.2718H571.786C571.983 73.2721 572.172 73.3504 572.311 73.4897C572.45 73.6289 572.528 73.8176 572.529 74.0146V75.5H574.014V74.0146C574.013 73.4238 573.778 72.8575 573.361 72.4397C572.943 72.022 572.377 71.7871 571.786 71.7864H567.33C566.739 71.7871 566.173 72.022 565.755 72.4397C565.337 72.8575 565.102 73.4238 565.102 74.0146V75.5ZM567.907 70.543C568.396 70.8695 568.97 71.0437 569.558 71.0437C570.345 71.0428 571.101 70.7296 571.658 70.1726C572.214 69.6157 572.528 68.8605 572.529 68.0729C572.529 67.4853 572.354 66.9109 572.028 66.4224C571.702 65.9338 571.238 65.553 570.695 65.3282C570.152 65.1033 569.555 65.0445 568.978 65.1591C568.402 65.2738 567.873 65.5567 567.457 65.9722C567.042 66.3877 566.759 66.917 566.644 67.4933C566.529 68.0696 566.588 68.6669 566.813 69.2098C567.038 69.7526 567.419 70.2166 567.907 70.543ZM568.733 66.8378C568.977 66.6746 569.264 66.5875 569.558 66.5875C569.952 66.5879 570.329 66.7445 570.608 67.023C570.886 67.3015 571.043 67.679 571.043 68.0729C571.043 68.3667 570.956 68.6539 570.793 68.8981C570.63 69.1424 570.398 69.3328 570.126 69.4452C569.855 69.5577 569.556 69.5871 569.268 69.5298C568.98 69.4724 568.715 69.331 568.507 69.1232C568.3 68.9155 568.158 68.6508 568.101 68.3627C568.044 68.0745 568.073 67.7759 568.185 67.5044C568.298 67.233 568.488 67.001 568.733 66.8378Z" fill="#171717"/>
<path d="M512.644 135.692C509.796 135.692 508.052 133.644 508.052 129.916C508.052 126.188 509.796 124.14 512.644 124.14C514.532 124.14 515.828 125.02 516.548 126.62L515.268 127.356C514.852 126.252 513.988 125.532 512.644 125.532C510.82 125.532 509.716 126.892 509.716 129.068V130.764C509.716 132.94 510.82 134.3 512.644 134.3C514.02 134.3 514.948 133.516 515.364 132.364L516.612 133.116C515.892 134.716 514.532 135.692 512.644 135.692ZM523.572 135.5V134.14H523.492C523.188 134.94 522.548 135.692 521.172 135.692C519.476 135.692 518.42 134.524 518.42 132.508V127.212H519.908V132.284C519.908 133.676 520.5 134.396 521.668 134.396C522.612 134.396 523.572 133.916 523.572 132.876V127.212H525.06V135.5H523.572ZM529.175 135.5H527.687V127.212H529.175V128.796H529.255C529.527 127.98 530.263 127.212 531.591 127.212H532.087V128.7H531.351C529.975 128.7 529.175 129.244 529.175 130.06V135.5ZM540.473 135.5H539.625C538.713 135.5 538.281 134.924 538.169 134.124H538.089C537.753 135.148 536.873 135.692 535.689 135.692C533.961 135.692 532.953 134.732 532.953 133.212C532.953 131.612 534.121 130.748 536.489 130.748H538.057V129.996C538.057 128.892 537.465 128.268 536.217 128.268C535.241 128.268 534.617 128.748 534.185 129.452L533.289 128.636C533.785 127.74 534.761 127.02 536.297 127.02C538.361 127.02 539.545 128.076 539.545 129.868V134.236H540.473V135.5ZM536.025 134.492C537.193 134.492 538.057 133.9 538.057 133.068V131.788H536.473C535.113 131.788 534.505 132.204 534.505 132.972V133.292C534.505 134.06 535.097 134.492 536.025 134.492ZM545.834 135.5H544.266C543.242 135.5 542.698 134.892 542.698 133.932V128.476H541.37V127.212H542.106C542.666 127.212 542.842 127.004 542.842 126.444V124.924H544.186V127.212H545.962V128.476H544.186V134.236H545.834V135.5ZM551.058 135.692C548.754 135.692 547.298 133.98 547.298 131.356C547.298 128.732 548.754 127.02 551.058 127.02C553.378 127.02 554.69 128.78 554.69 131.1V131.724H548.85V132.06C548.85 133.436 549.698 134.428 551.186 134.428C552.226 134.428 552.978 133.932 553.426 133.084L554.386 133.9C553.81 134.972 552.61 135.692 551.058 135.692ZM551.058 128.22C549.762 128.22 548.85 129.212 548.85 130.572V130.684H553.106V130.524C553.106 129.148 552.306 128.22 551.058 128.22ZM567.38 135.5H566.532C565.62 135.5 565.188 134.924 565.076 134.124H564.996C564.66 135.148 563.78 135.692 562.596 135.692C560.868 135.692 559.86 134.732 559.86 133.212C559.86 131.612 561.028 130.748 563.396 130.748H564.964V129.996C564.964 128.892 564.372 128.268 563.124 128.268C562.148 128.268 561.524 128.748 561.092 129.452L560.196 128.636C560.692 127.74 561.668 127.02 563.204 127.02C565.268 127.02 566.452 128.076 566.452 129.868V134.236H567.38V135.5ZM562.932 134.492C564.1 134.492 564.964 133.9 564.964 133.068V131.788H563.38C562.02 131.788 561.412 132.204 561.412 132.972V133.292C561.412 134.06 562.004 134.492 562.932 134.492ZM578.185 135.5V134.14H578.121C577.737 135.164 576.873 135.692 575.737 135.692C573.657 135.692 572.409 134.044 572.409 131.356C572.409 128.668 573.657 127.02 575.737 127.02C576.873 127.02 577.737 127.548 578.121 128.572H578.185V123.66H579.673V135.5H578.185ZM576.169 134.396C577.289 134.396 578.185 133.756 578.185 132.876V129.836C578.185 128.956 577.289 128.316 576.169 128.316C574.841 128.316 573.993 129.26 573.993 130.652V132.06C573.993 133.452 574.841 134.396 576.169 134.396ZM585.464 135.692C583.16 135.692 581.704 133.98 581.704 131.356C581.704 128.732 583.16 127.02 585.464 127.02C587.784 127.02 589.096 128.78 589.096 131.1V131.724H583.256V132.06C583.256 133.436 584.104 134.428 585.592 134.428C586.632 134.428 587.384 133.932 587.832 133.084L588.792 133.9C588.216 134.972 587.016 135.692 585.464 135.692ZM585.464 128.22C584.168 128.22 583.256 129.212 583.256 130.572V130.684H587.512V130.524C587.512 129.148 586.712 128.22 585.464 128.22ZM596.373 135.5V134.14H596.309C595.925 135.164 595.061 135.692 593.924 135.692C591.845 135.692 590.597 134.044 590.597 131.356C590.597 128.668 591.845 127.02 593.924 127.02C595.061 127.02 595.925 127.548 596.309 128.572H596.373V123.66H597.861V135.5H596.373ZM594.357 134.396C595.477 134.396 596.373 133.756 596.373 132.876V129.836C596.373 128.956 595.477 128.316 594.357 128.316C593.029 128.316 592.181 129.26 592.181 130.652V132.06C592.181 133.452 593.029 134.396 594.357 134.396ZM601.236 125.484C600.612 125.484 600.34 125.148 600.34 124.668V124.444C600.34 123.964 600.612 123.628 601.236 123.628C601.86 123.628 602.132 123.964 602.132 124.444V124.668C602.132 125.148 601.86 125.484 601.236 125.484ZM600.484 135.5V127.212H601.972V135.5H600.484ZM607.729 135.692C605.361 135.692 604.001 134.012 604.001 131.356C604.001 128.7 605.361 127.02 607.729 127.02C609.361 127.02 610.385 127.82 610.865 129.004L609.633 129.612C609.361 128.796 608.689 128.3 607.729 128.3C606.305 128.3 605.585 129.276 605.585 130.636V132.076C605.585 133.436 606.305 134.412 607.729 134.412C608.737 134.412 609.425 133.9 609.841 133.004L610.929 133.676C610.401 134.924 609.313 135.692 607.729 135.692ZM619.551 135.5H618.703C617.791 135.5 617.359 134.924 617.247 134.124H617.167C616.831 135.148 615.951 135.692 614.767 135.692C613.039 135.692 612.031 134.732 612.031 133.212C612.031 131.612 613.199 130.748 615.567 130.748H617.135V129.996C617.135 128.892 616.543 128.268 615.295 128.268C614.319 128.268 613.695 128.748 613.263 129.452L612.367 128.636C612.863 127.74 613.839 127.02 615.375 127.02C617.439 127.02 618.623 128.076 618.623 129.868V134.236H619.551V135.5ZM615.103 134.492C616.271 134.492 617.135 133.9 617.135 133.068V131.788H615.551C614.191 131.788 613.583 132.204 613.583 132.972V133.292C613.583 134.06 614.175 134.492 615.103 134.492ZM624.912 135.5H623.344C622.32 135.5 621.776 134.892 621.776 133.932V128.476H620.448V127.212H621.184C621.744 127.212 621.92 127.004 621.92 126.444V124.924H623.264V127.212H625.04V128.476H623.264V134.236H624.912V135.5ZM630.136 135.692C627.832 135.692 626.376 133.98 626.376 131.356C626.376 128.732 627.832 127.02 630.136 127.02C632.456 127.02 633.768 128.78 633.768 131.1V131.724H627.928V132.06C627.928 133.436 628.776 134.428 630.264 134.428C631.304 134.428 632.056 133.932 632.504 133.084L633.464 133.9C632.888 134.972 631.688 135.692 630.136 135.692ZM630.136 128.22C628.84 128.22 627.928 129.212 627.928 130.572V130.684H632.184V130.524C632.184 129.148 631.384 128.22 630.136 128.22ZM641.044 135.5V134.14H640.98C640.596 135.164 639.732 135.692 638.596 135.692C636.516 135.692 635.268 134.044 635.268 131.356C635.268 128.668 636.516 127.02 638.596 127.02C639.732 127.02 640.596 127.548 640.98 128.572H641.044V123.66H642.532V135.5H641.044ZM639.028 134.396C640.148 134.396 641.044 133.756 641.044 132.876V129.836C641.044 128.956 640.148 128.316 639.028 128.316C637.7 128.316 636.852 129.26 636.852 130.652V132.06C636.852 133.452 637.7 134.396 639.028 134.396ZM512.007 157.5H510.887C509.863 157.5 509.335 156.892 509.335 155.98V145.66H510.823V156.236H512.007V157.5ZM520.669 157.5H519.821C518.909 157.5 518.477 156.924 518.365 156.124H518.285C517.949 157.148 517.069 157.692 515.885 157.692C514.157 157.692 513.149 156.732 513.149 155.212C513.149 153.612 514.317 152.748 516.685 152.748H518.253V151.996C518.253 150.892 517.661 150.268 516.413 150.268C515.437 150.268 514.813 150.748 514.381 151.452L513.485 150.636C513.981 149.74 514.957 149.02 516.493 149.02C518.557 149.02 519.741 150.076 519.741 151.868V156.236H520.669V157.5ZM516.221 156.492C517.389 156.492 518.253 155.9 518.253 155.068V153.788H516.669C515.309 153.788 514.701 154.204 514.701 154.972V155.292C514.701 156.06 515.293 156.492 516.221 156.492ZM522.445 157.5V145.66H523.933V150.572H523.997C524.381 149.548 525.245 149.02 526.381 149.02C528.461 149.02 529.709 150.668 529.709 153.356C529.709 156.044 528.461 157.692 526.381 157.692C525.245 157.692 524.381 157.164 523.997 156.14H523.933V157.5H522.445ZM525.949 156.396C527.277 156.396 528.125 155.452 528.125 154.06V152.652C528.125 151.26 527.277 150.316 525.949 150.316C524.829 150.316 523.933 150.956 523.933 151.836V154.876C523.933 155.756 524.829 156.396 525.949 156.396ZM534.972 157.692C532.668 157.692 531.212 155.98 531.212 153.356C531.212 150.732 532.668 149.02 534.972 149.02C537.292 149.02 538.604 150.78 538.604 153.1V153.724H532.764V154.06C532.764 155.436 533.612 156.428 535.1 156.428C536.14 156.428 536.892 155.932 537.34 155.084L538.3 155.9C537.724 156.972 536.524 157.692 534.972 157.692ZM534.972 150.22C533.676 150.22 532.764 151.212 532.764 152.572V152.684H537.02V152.524C537.02 151.148 536.22 150.22 534.972 150.22ZM543.304 157.5H542.184C541.16 157.5 540.632 156.892 540.632 155.98V145.66H542.12V156.236H543.304V157.5ZM545.837 147.484C545.213 147.484 544.941 147.148 544.941 146.668V146.444C544.941 145.964 545.213 145.628 545.837 145.628C546.461 145.628 546.733 145.964 546.733 146.444V146.668C546.733 147.148 546.461 147.484 545.837 147.484ZM545.085 157.5V149.212H546.573V157.5H545.085ZM550.683 157.5H549.195V149.212H550.683V150.572H550.763C551.147 149.66 551.851 149.02 553.099 149.02C554.795 149.02 555.835 150.188 555.835 152.204V157.5H554.347V152.428C554.347 151.036 553.771 150.316 552.603 150.316C551.627 150.316 550.683 150.812 550.683 151.82V157.5ZM565.487 158.348C565.487 160.06 564.175 160.892 561.375 160.892C558.735 160.892 557.679 160.156 557.679 158.876C557.679 157.98 558.191 157.484 559.039 157.276V157.1C558.511 156.892 558.223 156.476 558.223 155.884C558.223 155.052 558.847 154.636 559.663 154.444V154.38C558.687 153.916 558.127 153.004 558.127 151.868C558.127 150.188 559.343 149.02 561.327 149.02C561.903 149.02 562.415 149.132 562.863 149.308V149.132C562.863 148.444 563.167 147.996 563.871 147.996H565.135V149.244H563.503V149.692C564.175 150.188 564.543 150.956 564.543 151.868C564.543 153.548 563.327 154.7 561.327 154.7C561.007 154.7 560.671 154.668 560.399 154.604C559.919 154.748 559.455 155.02 559.455 155.484C559.455 155.964 559.919 156.108 560.671 156.108H562.559C564.607 156.108 565.487 156.956 565.487 158.348ZM564.095 158.492C564.095 157.868 563.679 157.468 562.463 157.468H559.679C559.215 157.708 559.007 158.06 559.007 158.524C559.007 159.212 559.503 159.756 560.799 159.756H561.919C563.327 159.756 564.095 159.34 564.095 158.492ZM561.343 153.58C562.399 153.58 563.055 153.084 563.055 152.076V151.66C563.055 150.652 562.399 150.156 561.343 150.156C560.287 150.156 559.631 150.652 559.631 151.66V152.076C559.631 153.084 560.287 153.58 561.343 153.58ZM574.279 157.5H572.711C571.687 157.5 571.143 156.892 571.143 155.932V150.476H569.815V149.212H570.551C571.111 149.212 571.287 149.004 571.287 148.444V146.924H572.631V149.212H574.407V150.476H572.631V156.236H574.279V157.5ZM579.503 157.692C577.199 157.692 575.743 155.98 575.743 153.356C575.743 150.732 577.199 149.02 579.503 149.02C581.823 149.02 583.135 150.78 583.135 153.1V153.724H577.295V154.06C577.295 155.436 578.143 156.428 579.631 156.428C580.671 156.428 581.423 155.932 581.871 155.084L582.831 155.9C582.255 156.972 581.055 157.692 579.503 157.692ZM579.503 150.22C578.207 150.22 577.295 151.212 577.295 152.572V152.684H581.551V152.524C581.551 151.148 580.751 150.22 579.503 150.22ZM592.044 157.5H591.196C590.284 157.5 589.852 156.924 589.74 156.124H589.66C589.324 157.148 588.444 157.692 587.26 157.692C585.532 157.692 584.524 156.732 584.524 155.212C584.524 153.612 585.692 152.748 588.06 152.748H589.628V151.996C589.628 150.892 589.036 150.268 587.788 150.268C586.812 150.268 586.188 150.748 585.756 151.452L584.86 150.636C585.356 149.74 586.332 149.02 587.868 149.02C589.932 149.02 591.116 150.076 591.116 151.868V156.236H592.044V157.5ZM587.596 156.492C588.764 156.492 589.628 155.9 589.628 155.068V153.788H588.044C586.684 153.788 586.076 154.204 586.076 154.972V155.292C586.076 156.06 586.668 156.492 587.596 156.492ZM595.308 157.5H593.82V149.212H595.308V150.572H595.388C595.74 149.724 596.492 149.02 597.596 149.02C598.7 149.02 599.676 149.532 600.108 150.7H600.14C600.444 149.804 601.276 149.02 602.668 149.02C604.332 149.02 605.324 150.188 605.324 152.204V157.5H603.836V152.428C603.836 151.036 603.308 150.316 602.156 150.316C601.196 150.316 600.316 150.812 600.316 151.82V157.5H598.828V152.428C598.828 151.036 598.3 150.316 597.164 150.316C596.22 150.316 595.308 150.812 595.308 151.82V157.5ZM612.08 157.5V150.476H610.752V149.212H612.08V147.676C612.08 146.46 612.72 145.66 614.016 145.66H615.312V146.924H613.568V149.212H615.312V150.476H613.568V157.5H612.08ZM620.051 157.692C617.795 157.692 616.275 155.996 616.275 153.356C616.275 150.716 617.795 149.02 620.051 149.02C622.307 149.02 623.827 150.716 623.827 153.356C623.827 155.996 622.307 157.692 620.051 157.692ZM620.051 156.412C621.347 156.412 622.243 155.596 622.243 153.98V152.732C622.243 151.116 621.347 150.3 620.051 150.3C618.755 150.3 617.859 151.116 617.859 152.732V153.98C617.859 155.596 618.755 156.412 620.051 156.412ZM627.339 157.5H625.851V149.212H627.339V150.796H627.419C627.691 149.98 628.427 149.212 629.755 149.212H630.251V150.7H629.515C628.139 150.7 627.339 151.244 627.339 152.06V157.5ZM642.512 157.5H641.664C640.752 157.5 640.32 156.924 640.208 156.124H640.128C639.792 157.148 638.912 157.692 637.728 157.692C636 157.692 634.992 156.732 634.992 155.212C634.992 153.612 636.16 152.748 638.528 152.748H640.096V151.996C640.096 150.892 639.504 150.268 638.256 150.268C637.28 150.268 636.656 150.748 636.224 151.452L635.328 150.636C635.824 149.74 636.8 149.02 638.336 149.02C640.4 149.02 641.584 150.076 641.584 151.868V156.236H642.512V157.5ZM638.064 156.492C639.232 156.492 640.096 155.9 640.096 155.068V153.788H638.512C637.152 153.788 636.544 154.204 636.544 154.972V155.292C636.544 156.06 637.136 156.492 638.064 156.492ZM534.254 179.692C532.718 179.692 531.71 179.068 530.942 178.092L531.95 177.228C532.574 178.012 533.342 178.46 534.35 178.46C535.406 178.46 535.982 177.996 535.982 177.228C535.982 176.62 535.662 176.188 534.654 176.044L533.95 175.932C532.366 175.708 531.262 175.052 531.262 173.516C531.262 171.884 532.526 171.02 534.27 171.02C535.678 171.02 536.558 171.516 537.262 172.348L536.318 173.244C535.918 172.716 535.214 172.252 534.222 172.252C533.214 172.252 532.702 172.716 532.702 173.42C532.702 174.156 533.182 174.46 534.142 174.604L534.846 174.716C536.67 174.988 537.422 175.788 537.422 177.068C537.422 178.684 536.206 179.692 534.254 179.692ZM539.554 182.7V171.212H541.042V172.572H541.106C541.49 171.548 542.354 171.02 543.49 171.02C545.57 171.02 546.818 172.668 546.818 175.356C546.818 178.044 545.57 179.692 543.49 179.692C542.354 179.692 541.49 179.164 541.106 178.14H541.042V182.7H539.554ZM543.058 178.396C544.386 178.396 545.234 177.452 545.234 176.06V174.652C545.234 173.26 544.386 172.316 543.058 172.316C541.938 172.316 541.042 172.956 541.042 173.836V176.876C541.042 177.756 541.938 178.396 543.058 178.396ZM552.082 179.692C549.778 179.692 548.322 177.98 548.322 175.356C548.322 172.732 549.778 171.02 552.082 171.02C554.402 171.02 555.714 172.78 555.714 175.1V175.724H549.874V176.06C549.874 177.436 550.722 178.428 552.21 178.428C553.25 178.428 554.002 177.932 554.45 177.084L555.41 177.9C554.834 178.972 553.634 179.692 552.082 179.692ZM552.082 172.22C550.786 172.22 549.874 173.212 549.874 174.572V174.684H554.13V174.524C554.13 173.148 553.33 172.22 552.082 172.22ZM560.878 179.692C558.51 179.692 557.15 178.012 557.15 175.356C557.15 172.7 558.51 171.02 560.878 171.02C562.51 171.02 563.534 171.82 564.014 173.004L562.782 173.612C562.51 172.796 561.838 172.3 560.878 172.3C559.454 172.3 558.734 173.276 558.734 174.636V176.076C558.734 177.436 559.454 178.412 560.878 178.412C561.886 178.412 562.574 177.9 562.99 177.004L564.078 177.676C563.55 178.924 562.462 179.692 560.878 179.692ZM566.572 169.484C565.948 169.484 565.676 169.148 565.676 168.668V168.444C565.676 167.964 565.948 167.628 566.572 167.628C567.196 167.628 567.468 167.964 567.468 168.444V168.668C567.468 169.148 567.196 169.484 566.572 169.484ZM565.82 179.5V171.212H567.308V179.5H565.82ZM570.377 179.5V172.476H569.049V171.212H570.377V169.676C570.377 168.46 571.017 167.66 572.313 167.66H573.609V168.924H571.865V171.212H576.617V179.5H575.129V172.476H571.865V179.5H570.377ZM575.881 169.484C575.257 169.484 574.985 169.148 574.985 168.668V168.444C574.985 167.964 575.257 167.628 575.881 167.628C576.505 167.628 576.777 167.964 576.777 168.444V168.668C576.777 169.148 576.505 169.484 575.881 169.484ZM582.378 179.692C580.01 179.692 578.65 178.012 578.65 175.356C578.65 172.7 580.01 171.02 582.378 171.02C584.01 171.02 585.034 171.82 585.514 173.004L584.282 173.612C584.01 172.796 583.338 172.3 582.378 172.3C580.954 172.3 580.234 173.276 580.234 174.636V176.076C580.234 177.436 580.954 178.412 582.378 178.412C583.386 178.412 584.074 177.9 584.49 177.004L585.578 177.676C585.05 178.924 583.962 179.692 582.378 179.692ZM594.701 179.5H593.133C592.109 179.5 591.565 178.892 591.565 177.932V172.476H590.237V171.212H590.973C591.533 171.212 591.709 171.004 591.709 170.444V168.924H593.053V171.212H594.829V172.476H593.053V178.236H594.701V179.5ZM603.7 179.5H602.852C601.94 179.5 601.508 178.924 601.396 178.124H601.316C600.98 179.148 600.1 179.692 598.916 179.692C597.188 179.692 596.18 178.732 596.18 177.212C596.18 175.612 597.348 174.748 599.716 174.748H601.284V173.996C601.284 172.892 600.692 172.268 599.444 172.268C598.468 172.268 597.844 172.748 597.412 173.452L596.516 172.636C597.012 171.74 597.988 171.02 599.524 171.02C601.588 171.02 602.772 172.076 602.772 173.868V178.236H603.7V179.5ZM599.252 178.492C600.42 178.492 601.284 177.9 601.284 177.068V175.788H599.7C598.34 175.788 597.732 176.204 597.732 176.972V177.292C597.732 178.06 598.324 178.492 599.252 178.492ZM608.02 179.692C606.484 179.692 605.476 179.068 604.708 178.092L605.716 177.228C606.34 178.012 607.108 178.46 608.116 178.46C609.172 178.46 609.748 177.996 609.748 177.228C609.748 176.62 609.428 176.188 608.42 176.044L607.716 175.932C606.132 175.708 605.028 175.052 605.028 173.516C605.028 171.884 606.292 171.02 608.036 171.02C609.444 171.02 610.324 171.516 611.028 172.348L610.084 173.244C609.684 172.716 608.98 172.252 607.988 172.252C606.98 172.252 606.468 172.716 606.468 173.42C606.468 174.156 606.948 174.46 607.908 174.604L608.612 174.716C610.436 174.988 611.188 175.788 611.188 177.068C611.188 178.684 609.972 179.692 608.02 179.692ZM613.32 179.5V167.66H614.808V175.036H614.888L616.072 173.58L618.232 171.212H619.992L617.048 174.412L620.376 179.5H618.584L615.992 175.372L614.808 176.636V179.5H613.32Z" fill="#171717"/>
<rect x="478" y="278" width="195" height="235" rx="14" fill="#F5F5F5"/>
<rect x="478" y="278" width="195" height="235" rx="14" stroke="#171717"/>
<rect x="552.5" y="329.5" width="46" height="46" rx="13.8" fill="#FB923C"/>
<path d="M585.029 356.34L582.184 353.518L582.682 353.02C582.82 352.881 582.898 352.693 582.898 352.496C582.898 352.3 582.82 352.112 582.682 351.973L578.226 347.516C578.086 347.378 577.898 347.3 577.702 347.3C577.506 347.3 577.317 347.378 577.178 347.516V347.516L576.592 348.103L571.571 343.06C571.432 342.922 571.243 342.844 571.047 342.844C570.851 342.844 570.663 342.922 570.524 343.06L567.553 346.031L567.464 346.142L564.493 350.599C564.398 350.741 564.354 350.912 564.371 351.083C564.387 351.253 564.461 351.413 564.582 351.535L566.81 353.763C566.879 353.832 566.961 353.888 567.052 353.925C567.142 353.963 567.239 353.982 567.337 353.982C567.435 353.982 567.533 353.963 567.623 353.925C567.714 353.888 567.796 353.832 567.865 353.763L571.044 350.576L572.596 352.129L569.031 355.686C568.892 355.825 568.815 356.014 568.815 356.21C568.815 356.406 568.892 356.594 569.031 356.733L570.516 358.219C570.585 358.289 570.667 358.345 570.758 358.383C570.848 358.421 570.945 358.441 571.044 358.442C571.18 358.441 571.314 358.402 571.43 358.33L574.646 356.399L576.458 358.219C576.597 358.357 576.785 358.435 576.982 358.435C577.178 358.435 577.366 358.357 577.505 358.219V358.219L578.003 357.699L580.818 360.544C581.375 361.101 582.131 361.414 582.919 361.414C583.708 361.414 584.464 361.101 585.021 360.544C585.579 359.986 585.892 359.23 585.892 358.442C585.892 357.653 585.579 356.897 585.021 356.34H585.029ZM571.044 348.475L567.33 352.188L566.06 350.918L568.652 347.026L571.044 344.635L575.567 349.158L573.643 351.074L571.044 348.475ZM576.985 356.644L574.876 354.535L571.162 356.763L570.613 356.214L577.728 349.091L581.137 352.5L576.985 356.644ZM583.982 359.489C583.844 359.627 583.68 359.737 583.499 359.811C583.319 359.886 583.126 359.925 582.931 359.925C582.735 359.925 582.542 359.886 582.362 359.811C582.181 359.737 582.018 359.627 581.88 359.489L579.057 356.674L581.159 354.572L583.982 357.387C584.12 357.525 584.229 357.689 584.304 357.869C584.379 358.049 584.417 358.243 584.417 358.438C584.417 358.633 584.379 358.826 584.304 359.007C584.229 359.187 584.12 359.351 583.982 359.489V359.489Z" fill="#171717"/>
<path d="M550.254 412.5V402.708H546.798V401.332H555.262V402.708H551.806V412.5H550.254ZM557.714 412.5H556.226V404.212H557.714V405.796H557.794C558.066 404.98 558.802 404.212 560.13 404.212H560.626V405.7H559.89C558.514 405.7 557.714 406.244 557.714 407.06V412.5ZM569.012 412.5H568.164C567.252 412.5 566.82 411.924 566.708 411.124H566.628C566.292 412.148 565.412 412.692 564.228 412.692C562.5 412.692 561.492 411.732 561.492 410.212C561.492 408.612 562.66 407.748 565.028 407.748H566.596V406.996C566.596 405.892 566.004 405.268 564.756 405.268C563.78 405.268 563.156 405.748 562.724 406.452L561.828 405.636C562.324 404.74 563.3 404.02 564.836 404.02C566.9 404.02 568.084 405.076 568.084 406.868V411.236H569.012V412.5ZM564.564 411.492C565.732 411.492 566.596 410.9 566.596 410.068V408.788H565.012C563.652 408.788 563.044 409.204 563.044 409.972V410.292C563.044 411.06 563.636 411.492 564.564 411.492ZM571.541 402.484C570.917 402.484 570.645 402.148 570.645 401.668V401.444C570.645 400.964 570.917 400.628 571.541 400.628C572.165 400.628 572.437 400.964 572.437 401.444V401.668C572.437 402.148 572.165 402.484 571.541 402.484ZM570.789 412.5V404.212H572.277V412.5H570.789ZM576.386 412.5H574.898V404.212H576.386V405.572H576.466C576.85 404.66 577.554 404.02 578.802 404.02C580.498 404.02 581.538 405.188 581.538 407.204V412.5H580.05V407.428C580.05 406.036 579.474 405.316 578.306 405.316C577.33 405.316 576.386 405.812 576.386 406.82V412.5ZM584.822 402.484C584.198 402.484 583.926 402.148 583.926 401.668V401.444C583.926 400.964 584.198 400.628 584.822 400.628C585.446 400.628 585.718 400.964 585.718 401.444V401.668C585.718 402.148 585.446 402.484 584.822 402.484ZM584.07 412.5V404.212H585.558V412.5H584.07ZM589.667 412.5H588.179V404.212H589.667V405.572H589.747C590.131 404.66 590.835 404.02 592.083 404.02C593.779 404.02 594.819 405.188 594.819 407.204V412.5H593.331V407.428C593.331 406.036 592.755 405.316 591.587 405.316C590.611 405.316 589.667 405.812 589.667 406.82V412.5ZM604.471 413.348C604.471 415.06 603.159 415.892 600.359 415.892C597.719 415.892 596.663 415.156 596.663 413.876C596.663 412.98 597.175 412.484 598.023 412.276V412.1C597.495 411.892 597.207 411.476 597.207 410.884C597.207 410.052 597.831 409.636 598.647 409.444V409.38C597.671 408.916 597.111 408.004 597.111 406.868C597.111 405.188 598.327 404.02 600.311 404.02C600.887 404.02 601.399 404.132 601.847 404.308V404.132C601.847 403.444 602.151 402.996 602.855 402.996H604.119V404.244H602.487V404.692C603.159 405.188 603.527 405.956 603.527 406.868C603.527 408.548 602.311 409.7 600.311 409.7C599.991 409.7 599.655 409.668 599.383 409.604C598.903 409.748 598.439 410.02 598.439 410.484C598.439 410.964 598.903 411.108 599.655 411.108H601.543C603.591 411.108 604.471 411.956 604.471 413.348ZM603.079 413.492C603.079 412.868 602.663 412.468 601.447 412.468H598.663C598.199 412.708 597.991 413.06 597.991 413.524C597.991 414.212 598.487 414.756 599.783 414.756H600.903C602.311 414.756 603.079 414.34 603.079 413.492ZM600.327 408.58C601.383 408.58 602.039 408.084 602.039 407.076V406.66C602.039 405.652 601.383 405.156 600.327 405.156C599.271 405.156 598.615 405.652 598.615 406.66V407.076C598.615 408.084 599.271 408.58 600.327 408.58ZM514.473 429.508C514.473 426.404 515.769 423.684 517.353 422.34H518.793C517.065 423.876 515.865 426.516 515.865 428.852V430.164C515.865 432.5 517.065 435.14 518.793 436.676H517.353C515.769 435.332 514.473 432.612 514.473 429.508ZM523.191 434.692C520.935 434.692 519.415 432.996 519.415 430.356C519.415 427.716 520.935 426.02 523.191 426.02C525.447 426.02 526.967 427.716 526.967 430.356C526.967 432.996 525.447 434.692 523.191 434.692ZM523.191 433.412C524.487 433.412 525.383 432.596 525.383 430.98V429.732C525.383 428.116 524.487 427.3 523.191 427.3C521.895 427.3 520.999 428.116 520.999 429.732V430.98C520.999 432.596 521.895 433.412 523.191 433.412ZM530.48 434.5H528.992V426.212H530.48V427.572H530.56C530.944 426.66 531.648 426.02 532.896 426.02C534.592 426.02 535.632 427.188 535.632 429.204V434.5H534.144V429.428C534.144 428.036 533.568 427.316 532.4 427.316C531.424 427.316 530.48 427.812 530.48 428.82V434.5ZM538.164 434.5V422.66H539.652V427.572H539.716C540.1 426.548 540.964 426.02 542.1 426.02C544.18 426.02 545.428 427.668 545.428 430.356C545.428 433.044 544.18 434.692 542.1 434.692C540.964 434.692 540.1 434.164 539.716 433.14H539.652V434.5H538.164ZM541.668 433.396C542.996 433.396 543.844 432.452 543.844 431.06V429.652C543.844 428.26 542.996 427.316 541.668 427.316C540.548 427.316 539.652 427.956 539.652 428.836V431.876C539.652 432.756 540.548 433.396 541.668 433.396ZM550.707 434.692C548.451 434.692 546.931 432.996 546.931 430.356C546.931 427.716 548.451 426.02 550.707 426.02C552.963 426.02 554.483 427.716 554.483 430.356C554.483 432.996 552.963 434.692 550.707 434.692ZM550.707 433.412C552.003 433.412 552.899 432.596 552.899 430.98V429.732C552.899 428.116 552.003 427.3 550.707 427.3C549.411 427.3 548.515 428.116 548.515 429.732V430.98C548.515 432.596 549.411 433.412 550.707 433.412ZM563.387 434.5H562.539C561.627 434.5 561.195 433.924 561.083 433.124H561.003C560.667 434.148 559.787 434.692 558.603 434.692C556.875 434.692 555.867 433.732 555.867 432.212C555.867 430.612 557.035 429.748 559.403 429.748H560.971V428.996C560.971 427.892 560.379 427.268 559.131 427.268C558.155 427.268 557.531 427.748 557.099 428.452L556.203 427.636C556.699 426.74 557.675 426.02 559.211 426.02C561.275 426.02 562.459 427.076 562.459 428.868V433.236H563.387V434.5ZM558.939 433.492C560.107 433.492 560.971 432.9 560.971 432.068V430.788H559.387C558.027 430.788 557.419 431.204 557.419 431.972V432.292C557.419 433.06 558.011 433.492 558.939 433.492ZM566.652 434.5H565.164V426.212H566.652V427.796H566.732C567.004 426.98 567.74 426.212 569.068 426.212H569.564V427.7H568.828C567.452 427.7 566.652 428.244 566.652 429.06V434.5ZM576.318 434.5V433.14H576.254C575.87 434.164 575.006 434.692 573.87 434.692C571.79 434.692 570.542 433.044 570.542 430.356C570.542 427.668 571.79 426.02 573.87 426.02C575.006 426.02 575.87 426.548 576.254 427.572H576.318V422.66H577.806V434.5H576.318ZM574.302 433.396C575.422 433.396 576.318 432.756 576.318 431.876V428.836C576.318 427.956 575.422 427.316 574.302 427.316C572.974 427.316 572.126 428.26 572.126 429.652V431.06C572.126 432.452 572.974 433.396 574.302 433.396ZM581.181 424.484C580.557 424.484 580.285 424.148 580.285 423.668V423.444C580.285 422.964 580.557 422.628 581.181 422.628C581.805 422.628 582.077 422.964 582.077 423.444V423.668C582.077 424.148 581.805 424.484 581.181 424.484ZM580.429 434.5V426.212H581.917V434.5H580.429ZM586.027 434.5H584.539V426.212H586.027V427.572H586.107C586.491 426.66 587.195 426.02 588.443 426.02C590.139 426.02 591.179 427.188 591.179 429.204V434.5H589.691V429.428C589.691 428.036 589.115 427.316 587.947 427.316C586.971 427.316 586.027 427.812 586.027 428.82V434.5ZM600.83 435.348C600.83 437.06 599.518 437.892 596.718 437.892C594.078 437.892 593.022 437.156 593.022 435.876C593.022 434.98 593.534 434.484 594.382 434.276V434.1C593.854 433.892 593.566 433.476 593.566 432.884C593.566 432.052 594.19 431.636 595.006 431.444V431.38C594.03 430.916 593.47 430.004 593.47 428.868C593.47 427.188 594.686 426.02 596.67 426.02C597.246 426.02 597.758 426.132 598.206 426.308V426.132C598.206 425.444 598.51 424.996 599.214 424.996H600.478V426.244H598.846V426.692C599.518 427.188 599.886 427.956 599.886 428.868C599.886 430.548 598.67 431.7 596.67 431.7C596.35 431.7 596.014 431.668 595.742 431.604C595.262 431.748 594.798 432.02 594.798 432.484C594.798 432.964 595.262 433.108 596.014 433.108H597.902C599.95 433.108 600.83 433.956 600.83 435.348ZM599.438 435.492C599.438 434.868 599.022 434.468 597.806 434.468H595.022C594.558 434.708 594.35 435.06 594.35 435.524C594.35 436.212 594.846 436.756 596.142 436.756H597.262C598.67 436.756 599.438 436.34 599.438 435.492ZM596.686 430.58C597.742 430.58 598.398 430.084 598.398 429.076V428.66C598.398 427.652 597.742 427.156 596.686 427.156C595.63 427.156 594.974 427.652 594.974 428.66V429.076C594.974 430.084 595.63 430.58 596.686 430.58ZM605.56 429.508C605.56 432.612 604.264 435.332 602.68 436.676H601.24C602.968 435.14 604.168 432.5 604.168 430.164V428.852C604.168 426.516 602.968 423.876 601.24 422.34H602.68C604.264 423.684 605.56 426.404 605.56 429.508ZM618.715 434.5H617.867C616.955 434.5 616.523 433.924 616.411 433.124H616.331C615.995 434.148 615.115 434.692 613.931 434.692C612.203 434.692 611.195 433.732 611.195 432.212C611.195 430.612 612.363 429.748 614.731 429.748H616.299V428.996C616.299 427.892 615.707 427.268 614.459 427.268C613.483 427.268 612.859 427.748 612.427 428.452L611.531 427.636C612.027 426.74 613.003 426.02 614.539 426.02C616.603 426.02 617.787 427.076 617.787 428.868V433.236H618.715V434.5ZM614.267 433.492C615.435 433.492 616.299 432.9 616.299 432.068V430.788H614.715C613.355 430.788 612.747 431.204 612.747 431.972V432.292C612.747 433.06 613.339 433.492 614.267 433.492ZM621.98 434.5H620.492V426.212H621.98V427.572H622.06C622.444 426.66 623.148 426.02 624.396 426.02C626.092 426.02 627.132 427.188 627.132 429.204V434.5H625.644V429.428C625.644 428.036 625.068 427.316 623.9 427.316C622.924 427.316 621.98 427.812 621.98 428.82V434.5ZM634.912 434.5V433.14H634.848C634.464 434.164 633.6 434.692 632.464 434.692C630.384 434.692 629.136 433.044 629.136 430.356C629.136 427.668 630.384 426.02 632.464 426.02C633.6 426.02 634.464 426.548 634.848 427.572H634.912V422.66H636.4V434.5H634.912ZM632.896 433.396C634.016 433.396 634.912 432.756 634.912 431.876V428.836C634.912 427.956 634.016 427.316 632.896 427.316C631.568 427.316 630.72 428.26 630.72 429.652V431.06C630.72 432.452 631.568 433.396 632.896 433.396ZM517.534 456.692C515.166 456.692 513.806 455.012 513.806 452.356C513.806 449.7 515.166 448.02 517.534 448.02C519.166 448.02 520.19 448.82 520.67 450.004L519.438 450.612C519.166 449.796 518.494 449.3 517.534 449.3C516.11 449.3 515.39 450.276 515.39 451.636V453.076C515.39 454.436 516.11 455.412 517.534 455.412C518.542 455.412 519.23 454.9 519.646 454.004L520.734 454.676C520.206 455.924 519.118 456.692 517.534 456.692ZM529.356 456.5H528.508C527.596 456.5 527.164 455.924 527.052 455.124H526.972C526.636 456.148 525.756 456.692 524.572 456.692C522.844 456.692 521.836 455.732 521.836 454.212C521.836 452.612 523.004 451.748 525.372 451.748H526.94V450.996C526.94 449.892 526.348 449.268 525.1 449.268C524.124 449.268 523.5 449.748 523.068 450.452L522.172 449.636C522.668 448.74 523.644 448.02 525.18 448.02C527.244 448.02 528.428 449.076 528.428 450.868V455.236H529.356V456.5ZM524.908 455.492C526.076 455.492 526.94 454.9 526.94 454.068V452.788H525.356C523.996 452.788 523.388 453.204 523.388 453.972V454.292C523.388 455.06 523.98 455.492 524.908 455.492ZM533.804 456.5H532.684C531.66 456.5 531.132 455.892 531.132 454.98V444.66H532.62V455.236H533.804V456.5ZM536.337 446.484C535.713 446.484 535.441 446.148 535.441 445.668V445.444C535.441 444.964 535.713 444.628 536.337 444.628C536.961 444.628 537.233 444.964 537.233 445.444V445.668C537.233 446.148 536.961 446.484 536.337 446.484ZM535.585 456.5V448.212H537.073V456.5H535.585ZM539.695 456.5V444.66H541.183V449.572H541.247C541.631 448.548 542.495 448.02 543.631 448.02C545.711 448.02 546.959 449.668 546.959 452.356C546.959 455.044 545.711 456.692 543.631 456.692C542.495 456.692 541.631 456.164 541.247 455.14H541.183V456.5H539.695ZM543.199 455.396C544.527 455.396 545.375 454.452 545.375 453.06V451.652C545.375 450.26 544.527 449.316 543.199 449.316C542.079 449.316 541.183 449.956 541.183 450.836V453.876C541.183 454.756 542.079 455.396 543.199 455.396ZM550.542 456.5H549.054V448.212H550.542V449.796H550.622C550.894 448.98 551.63 448.212 552.958 448.212H553.454V449.7H552.718C551.342 449.7 550.542 450.244 550.542 451.06V456.5ZM561.84 456.5H560.992C560.08 456.5 559.648 455.924 559.536 455.124H559.456C559.12 456.148 558.24 456.692 557.056 456.692C555.328 456.692 554.32 455.732 554.32 454.212C554.32 452.612 555.488 451.748 557.856 451.748H559.424V450.996C559.424 449.892 558.832 449.268 557.584 449.268C556.608 449.268 555.984 449.748 555.552 450.452L554.656 449.636C555.152 448.74 556.128 448.02 557.664 448.02C559.728 448.02 560.912 449.076 560.912 450.868V455.236H561.84V456.5ZM557.392 455.492C558.56 455.492 559.424 454.9 559.424 454.068V452.788H557.84C556.48 452.788 555.872 453.204 555.872 453.972V454.292C555.872 455.06 556.464 455.492 557.392 455.492ZM567.201 456.5H565.633C564.609 456.5 564.065 455.892 564.065 454.932V449.476H562.737V448.212H563.473C564.033 448.212 564.209 448.004 564.209 447.444V445.924H565.553V448.212H567.329V449.476H565.553V455.236H567.201V456.5ZM570.072 446.484C569.448 446.484 569.176 446.148 569.176 445.668V445.444C569.176 444.964 569.448 444.628 570.072 444.628C570.696 444.628 570.968 444.964 570.968 445.444V445.668C570.968 446.148 570.696 446.484 570.072 446.484ZM569.32 456.5V448.212H570.808V456.5H569.32ZM576.613 456.692C574.357 456.692 572.837 454.996 572.837 452.356C572.837 449.716 574.357 448.02 576.613 448.02C578.869 448.02 580.389 449.716 580.389 452.356C580.389 454.996 578.869 456.692 576.613 456.692ZM576.613 455.412C577.909 455.412 578.805 454.596 578.805 452.98V451.732C578.805 450.116 577.909 449.3 576.613 449.3C575.317 449.3 574.421 450.116 574.421 451.732V452.98C574.421 454.596 575.317 455.412 576.613 455.412ZM583.902 456.5H582.414V448.212H583.902V449.572H583.982C584.366 448.66 585.07 448.02 586.318 448.02C588.014 448.02 589.054 449.188 589.054 451.204V456.5H587.566V451.428C587.566 450.036 586.99 449.316 585.822 449.316C584.846 449.316 583.902 449.812 583.902 450.82V456.5ZM595.367 459.7V448.212H596.855V449.572H596.919C597.303 448.548 598.167 448.02 599.303 448.02C601.383 448.02 602.631 449.668 602.631 452.356C602.631 455.044 601.383 456.692 599.303 456.692C598.167 456.692 597.303 456.164 596.919 455.14H596.855V459.7H595.367ZM598.871 455.396C600.199 455.396 601.047 454.452 601.047 453.06V451.652C601.047 450.26 600.199 449.316 598.871 449.316C597.751 449.316 596.855 449.956 596.855 450.836V453.876C596.855 454.756 597.751 455.396 598.871 455.396ZM604.726 456.5V444.66H606.214V449.572H606.294C606.678 448.66 607.382 448.02 608.63 448.02C610.326 448.02 611.366 449.188 611.366 451.204V456.5H609.878V451.428C609.878 450.036 609.302 449.316 608.134 449.316C607.158 449.316 606.214 449.812 606.214 450.82V456.5H604.726ZM620.778 456.5H619.93C619.018 456.5 618.586 455.924 618.474 455.124H618.394C618.058 456.148 617.178 456.692 615.994 456.692C614.266 456.692 613.258 455.732 613.258 454.212C613.258 452.612 614.426 451.748 616.794 451.748H618.362V450.996C618.362 449.892 617.77 449.268 616.522 449.268C615.546 449.268 614.922 449.748 614.49 450.452L613.594 449.636C614.09 448.74 615.066 448.02 616.602 448.02C618.666 448.02 619.85 449.076 619.85 450.868V455.236H620.778V456.5ZM616.33 455.492C617.498 455.492 618.362 454.9 618.362 454.068V452.788H616.778C615.418 452.788 614.81 453.204 614.81 453.972V454.292C614.81 455.06 615.402 455.492 616.33 455.492ZM625.098 456.692C623.562 456.692 622.554 456.068 621.786 455.092L622.794 454.228C623.418 455.012 624.186 455.46 625.194 455.46C626.25 455.46 626.826 454.996 626.826 454.228C626.826 453.62 626.506 453.188 625.498 453.044L624.794 452.932C623.21 452.708 622.106 452.052 622.106 450.516C622.106 448.884 623.37 448.02 625.114 448.02C626.522 448.02 627.402 448.516 628.106 449.348L627.162 450.244C626.762 449.716 626.058 449.252 625.066 449.252C624.058 449.252 623.546 449.716 623.546 450.42C623.546 451.156 624.026 451.46 624.986 451.604L625.69 451.716C627.514 451.988 628.266 452.788 628.266 454.068C628.266 455.684 627.05 456.692 625.098 456.692ZM633.566 456.692C631.262 456.692 629.806 454.98 629.806 452.356C629.806 449.732 631.262 448.02 633.566 448.02C635.886 448.02 637.198 449.78 637.198 452.1V452.724H631.358V453.06C631.358 454.436 632.206 455.428 633.694 455.428C634.734 455.428 635.486 454.932 635.934 454.084L636.894 454.9C636.318 455.972 635.118 456.692 633.566 456.692ZM633.566 449.22C632.27 449.22 631.358 450.212 631.358 451.572V451.684H635.614V451.524C635.614 450.148 634.814 449.22 633.566 449.22Z" fill="#171717"/>
<path d="M438.23 394.35C438.036 394.157 438.036 393.843 438.23 393.65L441.378 390.502C441.571 390.309 441.884 390.309 442.078 390.502C442.271 390.695 442.271 391.008 442.078 391.202L439.279 394L442.078 396.798C442.271 396.992 442.271 397.305 442.078 397.498C441.884 397.691 441.571 397.691 441.378 397.498L438.23 394.35ZM474 394.495H438.579V393.505H474V394.495Z" fill="#171717"/>
<path d="M213.609 359.22C213.776 359.006 213.737 358.697 213.522 358.53L210.025 355.818C209.81 355.651 209.501 355.69 209.335 355.905C209.168 356.119 209.207 356.428 209.422 356.595L212.531 359.006L210.119 362.115C209.953 362.33 209.992 362.639 210.206 362.805C210.421 362.971 210.73 362.932 210.896 362.718L213.609 359.22ZM198.824 424.728C182.212 414.295 177.202 392.371 187.634 375.759L186.801 375.236C176.08 392.308 181.228 414.839 198.3 425.561L198.824 424.728ZM213.718 429.95C208.583 429.373 203.494 427.661 198.824 424.728L198.3 425.561C203.099 428.574 208.329 430.334 213.608 430.927L213.718 429.95ZM187.634 375.759C193.527 366.377 203.084 360.695 213.282 359.407L213.159 358.431C202.681 359.755 192.857 365.593 186.801 375.236L187.634 375.759Z" fill="#171717"/>
<path d="M220.802 429.436C220.635 429.65 220.674 429.959 220.889 430.126L224.386 432.839C224.601 433.005 224.91 432.966 225.076 432.752C225.243 432.537 225.204 432.228 224.989 432.062L221.881 429.65L224.292 426.541C224.458 426.327 224.419 426.018 224.205 425.851C223.99 425.685 223.681 425.724 223.515 425.938L220.802 429.436ZM235.588 363.929C252.2 374.361 257.209 396.285 246.777 412.897L247.61 413.42C258.331 396.348 253.183 373.817 236.111 363.096L235.588 363.929ZM220.693 358.706C225.828 359.284 230.917 360.996 235.588 363.929L236.111 363.096C231.312 360.082 226.082 358.322 220.803 357.729L220.693 358.706ZM246.777 412.897C240.885 422.28 231.327 427.961 221.129 429.249L221.252 430.225C231.73 428.902 241.554 423.063 247.61 413.42L246.777 412.897Z" fill="#171717"/>
<rect x="1" y="278" width="195" height="235" rx="14" fill="#F5F5F5"/>
<rect x="1" y="278" width="195" height="235" rx="14" stroke="#171717"/>
<rect x="75.5" y="340.5" width="46" height="46" rx="13.8" fill="#A78BFA"/>
<g clip-path="url(#clip1_3097_599630)">
<path d="M105.928 365.728C104.29 365.728 102.957 367.061 102.957 368.699C102.957 369.207 103.097 369.677 103.322 370.096C101.929 371.115 100.243 371.67 98.5009 371.67C93.9961 371.67 90.3311 368.005 90.3311 363.5H88.8457C88.8457 368.824 93.177 373.155 98.5009 373.155C100.614 373.155 102.654 372.46 104.326 371.193C104.789 371.492 105.337 371.67 105.928 371.67C107.566 371.67 108.899 370.337 108.899 368.699C108.899 367.061 107.566 365.728 105.928 365.728ZM105.928 370.184C105.109 370.184 104.443 369.518 104.443 368.699C104.443 367.88 105.109 367.214 105.928 367.214C106.747 367.214 107.413 367.88 107.413 368.699C107.413 369.518 106.747 370.184 105.928 370.184Z" fill="black"/>
<path d="M98.5005 353.845C96.3871 353.845 94.347 354.54 92.6752 355.807C92.2121 355.508 91.6641 355.33 91.0734 355.33C89.4353 355.33 88.1025 356.663 88.1025 358.301C88.1025 359.939 89.4353 361.272 91.0734 361.272C92.7115 361.272 94.0442 359.939 94.0442 358.301C94.0442 357.793 93.9044 357.323 93.679 356.904C95.0725 355.885 96.7583 355.33 98.5005 355.33C103.005 355.33 106.67 358.995 106.67 363.5H108.156C108.156 358.176 103.824 353.845 98.5005 353.845ZM91.0734 359.786C90.2543 359.786 89.588 359.12 89.588 358.301C89.588 357.482 90.2543 356.816 91.0734 356.816C91.8924 356.816 92.5588 357.482 92.5588 358.301C92.5588 359.12 91.8924 359.786 91.0734 359.786Z" fill="black"/>
</g>
<path d="M56.834 423.5H52.178V422.188H53.73V413.644H52.178V412.332H56.834V413.644H55.282V422.188H56.834V423.5ZM62.6776 423.5H61.1096C60.0856 423.5 59.5416 422.892 59.5416 421.932V416.476H58.2136V415.212H58.9496C59.5096 415.212 59.6856 415.004 59.6856 414.444V412.924H61.0296V415.212H62.8056V416.476H61.0296V422.236H62.6776V423.5ZM67.9019 423.692C65.5979 423.692 64.1419 421.98 64.1419 419.356C64.1419 416.732 65.5979 415.02 67.9019 415.02C70.2219 415.02 71.5339 416.78 71.5339 419.1V419.724H65.6939V420.06C65.6939 421.436 66.5419 422.428 68.0299 422.428C69.0699 422.428 69.8219 421.932 70.2699 421.084L71.2299 421.9C70.6539 422.972 69.4539 423.692 67.9019 423.692ZM67.9019 416.22C66.6059 416.22 65.6939 417.212 65.6939 418.572V418.684H69.9499V418.524C69.9499 417.148 69.1499 416.22 67.9019 416.22ZM75.05 423.5H73.562V415.212H75.05V416.796H75.13C75.402 415.98 76.138 415.212 77.466 415.212H77.962V416.7H77.226C75.85 416.7 75.05 417.244 75.05 418.06V423.5ZM86.3483 423.5H85.5003C84.5883 423.5 84.1563 422.924 84.0443 422.124H83.9643C83.6283 423.148 82.7483 423.692 81.5643 423.692C79.8363 423.692 78.8283 422.732 78.8283 421.212C78.8283 419.612 79.9963 418.748 82.3643 418.748H83.9323V417.996C83.9323 416.892 83.3403 416.268 82.0923 416.268C81.1163 416.268 80.4923 416.748 80.0603 417.452L79.1643 416.636C79.6603 415.74 80.6363 415.02 82.1723 415.02C84.2363 415.02 85.4203 416.076 85.4203 417.868V422.236H86.3483V423.5ZM81.9003 422.492C83.0683 422.492 83.9323 421.9 83.9323 421.068V419.788H82.3483C80.9883 419.788 80.3803 420.204 80.3803 420.972V421.292C80.3803 422.06 80.9723 422.492 81.9003 422.492ZM91.7089 423.5H90.1409C89.1169 423.5 88.5729 422.892 88.5729 421.932V416.476H87.2449V415.212H87.9809C88.5409 415.212 88.7169 415.004 88.7169 414.444V412.924H90.0609V415.212H91.8369V416.476H90.0609V422.236H91.7089V423.5ZM94.5796 413.484C93.9556 413.484 93.6836 413.148 93.6836 412.668V412.444C93.6836 411.964 93.9556 411.628 94.5796 411.628C95.2036 411.628 95.4756 411.964 95.4756 412.444V412.668C95.4756 413.148 95.2036 413.484 94.5796 413.484ZM93.8276 423.5V415.212H95.3156V423.5H93.8276ZM101.121 423.692C98.865 423.692 97.345 421.996 97.345 419.356C97.345 416.716 98.865 415.02 101.121 415.02C103.377 415.02 104.897 416.716 104.897 419.356C104.897 421.996 103.377 423.692 101.121 423.692ZM101.121 422.412C102.417 422.412 103.313 421.596 103.313 419.98V418.732C103.313 417.116 102.417 416.3 101.121 416.3C99.825 416.3 98.929 417.116 98.929 418.732V419.98C98.929 421.596 99.825 422.412 101.121 422.412ZM108.409 423.5H106.921V415.212H108.409V416.572H108.489C108.873 415.66 109.577 415.02 110.825 415.02C112.521 415.02 113.561 416.188 113.561 418.204V423.5H112.073V418.428C112.073 417.036 111.497 416.316 110.329 416.316C109.353 416.316 108.409 416.812 108.409 417.82V423.5ZM126.755 423.5H125.907C124.995 423.5 124.563 422.924 124.451 422.124H124.371C124.035 423.148 123.155 423.692 121.971 423.692C120.243 423.692 119.235 422.732 119.235 421.212C119.235 419.612 120.403 418.748 122.771 418.748H124.339V417.996C124.339 416.892 123.747 416.268 122.499 416.268C121.523 416.268 120.899 416.748 120.467 417.452L119.571 416.636C120.067 415.74 121.043 415.02 122.579 415.02C124.643 415.02 125.827 416.076 125.827 417.868V422.236H126.755V423.5ZM122.307 422.492C123.475 422.492 124.339 421.9 124.339 421.068V419.788H122.755C121.395 419.788 120.787 420.204 120.787 420.972V421.292C120.787 422.06 121.379 422.492 122.307 422.492ZM130.019 423.5H128.531V415.212H130.019V416.572H130.099C130.483 415.66 131.187 415.02 132.435 415.02C134.131 415.02 135.171 416.188 135.171 418.204V423.5H133.683V418.428C133.683 417.036 133.107 416.316 131.939 416.316C130.963 416.316 130.019 416.812 130.019 417.82V423.5ZM142.951 423.5V422.14H142.887C142.503 423.164 141.639 423.692 140.503 423.692C138.423 423.692 137.175 422.044 137.175 419.356C137.175 416.668 138.423 415.02 140.503 415.02C141.639 415.02 142.503 415.548 142.887 416.572H142.951V411.66H144.439V423.5H142.951ZM140.935 422.396C142.055 422.396 142.951 421.756 142.951 420.876V417.836C142.951 416.956 142.055 416.316 140.935 416.316C139.607 416.316 138.759 417.26 138.759 418.652V420.06C138.759 421.452 139.607 422.396 140.935 422.396ZM61.3938 445.5H59.9058V437.212H61.3938V438.796H61.4738C61.7458 437.98 62.4818 437.212 63.8098 437.212H64.3058V438.7H63.5698C62.1938 438.7 61.3938 439.244 61.3938 440.06V445.5ZM68.9956 445.692C66.6916 445.692 65.2356 443.98 65.2356 441.356C65.2356 438.732 66.6916 437.02 68.9956 437.02C71.3156 437.02 72.6276 438.78 72.6276 441.1V441.724H66.7876V442.06C66.7876 443.436 67.6356 444.428 69.1236 444.428C70.1636 444.428 70.9156 443.932 71.3636 443.084L72.3236 443.9C71.7476 444.972 70.5476 445.692 68.9956 445.692ZM68.9956 438.22C67.6996 438.22 66.7876 439.212 66.7876 440.572V440.684H71.0436V440.524C71.0436 439.148 70.2436 438.22 68.9956 438.22ZM75.1038 445.5V438.476H73.7758V437.212H75.1038V435.676C75.1038 434.46 75.7438 433.66 77.0398 433.66H78.3358V434.924H76.5918V437.212H81.3438V445.5H79.8558V438.476H76.5918V445.5H75.1038ZM80.6078 435.484C79.9838 435.484 79.7118 435.148 79.7118 434.668V434.444C79.7118 433.964 79.9838 433.628 80.6078 433.628C81.2318 433.628 81.5038 433.964 81.5038 434.444V434.668C81.5038 435.148 81.2318 435.484 80.6078 435.484ZM85.4563 445.5H83.9683V437.212H85.4563V438.572H85.5363C85.9203 437.66 86.6243 437.02 87.8723 437.02C89.5683 437.02 90.6083 438.188 90.6083 440.204V445.5H89.1203V440.428C89.1203 439.036 88.5443 438.316 87.3763 438.316C86.4003 438.316 85.4563 438.812 85.4563 439.82V445.5ZM96.3081 445.692C94.0041 445.692 92.5481 443.98 92.5481 441.356C92.5481 438.732 94.0041 437.02 96.3081 437.02C98.6281 437.02 99.9401 438.78 99.9401 441.1V441.724H94.1001V442.06C94.1001 443.436 94.9481 444.428 96.4361 444.428C97.4761 444.428 98.2281 443.932 98.6761 443.084L99.6361 443.9C99.0601 444.972 97.8601 445.692 96.3081 445.692ZM96.3081 438.22C95.0121 438.22 94.1001 439.212 94.1001 440.572V440.684H98.3561V440.524C98.3561 439.148 97.5561 438.22 96.3081 438.22ZM103.456 445.5H101.968V437.212H103.456V438.572H103.536C103.888 437.724 104.64 437.02 105.744 437.02C106.848 437.02 107.824 437.532 108.256 438.7H108.288C108.592 437.804 109.424 437.02 110.816 437.02C112.48 437.02 113.472 438.188 113.472 440.204V445.5H111.984V440.428C111.984 439.036 111.456 438.316 110.304 438.316C109.344 438.316 108.464 438.812 108.464 439.82V445.5H106.976V440.428C106.976 439.036 106.448 438.316 105.312 438.316C104.368 438.316 103.456 438.812 103.456 439.82V445.5ZM119.168 445.692C116.864 445.692 115.408 443.98 115.408 441.356C115.408 438.732 116.864 437.02 119.168 437.02C121.488 437.02 122.8 438.78 122.8 441.1V441.724H116.96V442.06C116.96 443.436 117.808 444.428 119.296 444.428C120.336 444.428 121.088 443.932 121.536 443.084L122.496 443.9C121.92 444.972 120.72 445.692 119.168 445.692ZM119.168 438.22C117.872 438.22 116.96 439.212 116.96 440.572V440.684H121.216V440.524C121.216 439.148 120.416 438.22 119.168 438.22ZM126.316 445.5H124.828V437.212H126.316V438.572H126.396C126.78 437.66 127.484 437.02 128.732 437.02C130.428 437.02 131.468 438.188 131.468 440.204V445.5H129.98V440.428C129.98 439.036 129.404 438.316 128.236 438.316C127.26 438.316 126.316 438.812 126.316 439.82V445.5ZM137.6 445.5H136.032C135.008 445.5 134.464 444.892 134.464 443.932V438.476H133.136V437.212H133.872C134.432 437.212 134.608 437.004 134.608 436.444V434.924H135.952V437.212H137.728V438.476H135.952V444.236H137.6V445.5Z" fill="#171717"/>
<rect x="239" y="278" width="196" height="235" rx="14" fill="#BFDBFE"/>
<rect x="239" y="278" width="196" height="235" rx="14" stroke="#171717"/>
<rect x="314" y="340.5" width="46" height="46" rx="13.8" fill="#60A5FA"/>
<path fill-rule="evenodd" clip-rule="evenodd" d="M337.467 373.846C337.554 373.881 337.647 373.898 337.742 373.898C337.909 373.897 338.071 373.839 338.202 373.735L341.916 370.764C342.003 370.695 342.074 370.607 342.123 370.506C342.172 370.406 342.197 370.296 342.198 370.184V364.547L345.005 361.747C345.766 360.99 346.37 360.09 346.78 359.098C347.191 358.106 347.4 357.042 347.397 355.969V354.588C347.397 354.194 347.24 353.816 346.962 353.537C346.683 353.259 346.305 353.102 345.911 353.102H344.53C343.456 353.098 342.393 353.308 341.401 353.719C340.409 354.129 339.509 354.732 338.752 355.494L335.952 358.301H330.314C330.202 358.302 330.092 358.329 329.992 358.379C329.891 358.43 329.804 358.502 329.735 358.591L326.764 362.304C326.681 362.407 326.627 362.53 326.608 362.66C326.588 362.791 326.604 362.924 326.653 363.047C326.701 363.169 326.781 363.275 326.884 363.356C326.987 363.437 327.11 363.489 327.24 363.507L332.439 364.25L332.647 362.765L328.732 362.208L330.671 359.786H336.256C336.354 359.787 336.451 359.768 336.541 359.731C336.632 359.694 336.714 359.64 336.783 359.571L339.806 356.548C340.425 355.925 341.161 355.431 341.972 355.095C342.783 354.758 343.652 354.586 344.53 354.588H345.911V355.969C345.913 356.847 345.741 357.716 345.404 358.527C345.067 359.338 344.573 360.074 343.951 360.693L340.928 363.715C340.859 363.785 340.804 363.867 340.768 363.958C340.731 364.048 340.712 364.145 340.712 364.243V369.828L338.306 371.766L337.749 367.852L336.264 368.06L337.006 373.259C337.024 373.389 337.077 373.512 337.158 373.615C337.238 373.718 337.345 373.797 337.467 373.846ZM330.528 368.916L336.468 362.976L337.518 364.026L331.578 369.966L330.528 368.916Z" fill="#171717"/>
<path d="M316.57 423.5H310.362V412.332H311.914V422.124H316.57V423.5ZM325.223 423.5H324.375C323.463 423.5 323.031 422.924 322.919 422.124H322.839C322.503 423.148 321.623 423.692 320.439 423.692C318.711 423.692 317.703 422.732 317.703 421.212C317.703 419.612 318.871 418.748 321.239 418.748H322.807V417.996C322.807 416.892 322.215 416.268 320.967 416.268C319.991 416.268 319.367 416.748 318.935 417.452L318.039 416.636C318.535 415.74 319.511 415.02 321.047 415.02C323.111 415.02 324.295 416.076 324.295 417.868V422.236H325.223V423.5ZM320.775 422.492C321.943 422.492 322.807 421.9 322.807 421.068V419.788H321.223C319.863 419.788 319.255 420.204 319.255 420.972V421.292C319.255 422.06 319.847 422.492 320.775 422.492ZM332.072 423.5V422.14H331.992C331.688 422.94 331.048 423.692 329.672 423.692C327.976 423.692 326.92 422.524 326.92 420.508V415.212H328.408V420.284C328.408 421.676 329 422.396 330.168 422.396C331.112 422.396 332.072 421.916 332.072 420.876V415.212H333.56V423.5H332.072ZM337.675 423.5H336.187V415.212H337.675V416.572H337.755C338.139 415.66 338.843 415.02 340.091 415.02C341.787 415.02 342.827 416.188 342.827 418.204V423.5H341.339V418.428C341.339 417.036 340.763 416.316 339.595 416.316C338.619 416.316 337.675 416.812 337.675 417.82V423.5ZM348.495 423.692C346.127 423.692 344.767 422.012 344.767 419.356C344.767 416.7 346.127 415.02 348.495 415.02C350.127 415.02 351.151 415.82 351.631 417.004L350.399 417.612C350.127 416.796 349.455 416.3 348.495 416.3C347.071 416.3 346.351 417.276 346.351 418.636V420.076C346.351 421.436 347.071 422.412 348.495 422.412C349.503 422.412 350.191 421.9 350.607 421.004L351.695 421.676C351.167 422.924 350.079 423.692 348.495 423.692ZM353.437 423.5V411.66H354.925V416.572H355.005C355.389 415.66 356.093 415.02 357.341 415.02C359.037 415.02 360.077 416.188 360.077 418.204V423.5H358.589V418.428C358.589 417.036 358.013 416.316 356.845 416.316C355.869 416.316 354.925 416.812 354.925 417.82V423.5H353.437ZM281.835 448.7V437.212H283.323V438.572H283.387C283.771 437.548 284.635 437.02 285.771 437.02C287.851 437.02 289.099 438.668 289.099 441.356C289.099 444.044 287.851 445.692 285.771 445.692C284.635 445.692 283.771 445.164 283.387 444.14H283.323V448.7H281.835ZM285.339 444.396C286.667 444.396 287.515 443.452 287.515 442.06V440.652C287.515 439.26 286.667 438.316 285.339 438.316C284.219 438.316 283.323 438.956 283.323 439.836V442.876C283.323 443.756 284.219 444.396 285.339 444.396ZM292.683 445.5H291.195V437.212H292.683V438.796H292.763C293.035 437.98 293.771 437.212 295.099 437.212H295.595V438.7H294.859C293.483 438.7 292.683 439.244 292.683 440.06V445.5ZM300.301 445.692C298.045 445.692 296.525 443.996 296.525 441.356C296.525 438.716 298.045 437.02 300.301 437.02C302.557 437.02 304.077 438.716 304.077 441.356C304.077 443.996 302.557 445.692 300.301 445.692ZM300.301 444.412C301.597 444.412 302.493 443.596 302.493 441.98V440.732C302.493 439.116 301.597 438.3 300.301 438.3C299.005 438.3 298.109 439.116 298.109 440.732V441.98C298.109 443.596 299.005 444.412 300.301 444.412ZM311.349 445.5V444.14H311.285C310.901 445.164 310.037 445.692 308.901 445.692C306.821 445.692 305.573 444.044 305.573 441.356C305.573 438.668 306.821 437.02 308.901 437.02C310.037 437.02 310.901 437.548 311.285 438.572H311.349V433.66H312.837V445.5H311.349ZM309.333 444.396C310.453 444.396 311.349 443.756 311.349 442.876V439.836C311.349 438.956 310.453 438.316 309.333 438.316C308.005 438.316 307.157 439.26 307.157 440.652V442.06C307.157 443.452 308.005 444.396 309.333 444.396ZM320.532 445.5V444.14H320.452C320.148 444.94 319.508 445.692 318.132 445.692C316.436 445.692 315.38 444.524 315.38 442.508V437.212H316.868V442.284C316.868 443.676 317.46 444.396 318.628 444.396C319.572 444.396 320.532 443.916 320.532 442.876V437.212H322.02V445.5H320.532ZM327.784 445.692C325.416 445.692 324.056 444.012 324.056 441.356C324.056 438.7 325.416 437.02 327.784 437.02C329.416 437.02 330.44 437.82 330.92 439.004L329.688 439.612C329.416 438.796 328.744 438.3 327.784 438.3C326.36 438.3 325.64 439.276 325.64 440.636V442.076C325.64 443.436 326.36 444.412 327.784 444.412C328.792 444.412 329.48 443.9 329.896 443.004L330.984 443.676C330.456 444.924 329.368 445.692 327.784 445.692ZM336.326 445.5H334.758C333.734 445.5 333.19 444.892 333.19 443.932V438.476H331.862V437.212H332.598C333.158 437.212 333.334 437.004 333.334 436.444V434.924H334.678V437.212H336.454V438.476H334.678V444.236H336.326V445.5ZM339.197 435.484C338.573 435.484 338.301 435.148 338.301 434.668V434.444C338.301 433.964 338.573 433.628 339.197 433.628C339.821 433.628 340.093 433.964 340.093 434.444V434.668C340.093 435.148 339.821 435.484 339.197 435.484ZM338.445 445.5V437.212H339.933V445.5H338.445ZM345.738 445.692C343.482 445.692 341.962 443.996 341.962 441.356C341.962 438.716 343.482 437.02 345.738 437.02C347.994 437.02 349.514 438.716 349.514 441.356C349.514 443.996 347.994 445.692 345.738 445.692ZM345.738 444.412C347.034 444.412 347.93 443.596 347.93 441.98V440.732C347.93 439.116 347.034 438.3 345.738 438.3C344.442 438.3 343.546 439.116 343.546 440.732V441.98C343.546 443.596 344.442 444.412 345.738 444.412ZM353.027 445.5H351.539V437.212H353.027V438.572H353.107C353.491 437.66 354.195 437.02 355.443 437.02C357.139 437.02 358.179 438.188 358.179 440.204V445.5H356.691V440.428C356.691 439.036 356.115 438.316 354.947 438.316C353.971 438.316 353.027 438.812 353.027 439.82V445.5ZM364.492 447.436V437.212H365.98V446.7C365.98 447.916 365.388 448.7 364.076 448.7H363.164V447.436H364.492ZM365.244 435.484C364.62 435.484 364.348 435.148 364.348 434.668V434.444C364.348 433.964 364.62 433.628 365.244 433.628C365.868 433.628 366.14 433.964 366.14 434.444V434.668C366.14 435.148 365.868 435.484 365.244 435.484ZM371.785 445.692C369.529 445.692 368.009 443.996 368.009 441.356C368.009 438.716 369.529 437.02 371.785 437.02C374.041 437.02 375.561 438.716 375.561 441.356C375.561 443.996 374.041 445.692 371.785 445.692ZM371.785 444.412C373.081 444.412 373.977 443.596 373.977 441.98V440.732C373.977 439.116 373.081 438.3 371.785 438.3C370.489 438.3 369.593 439.116 369.593 440.732V441.98C369.593 443.596 370.489 444.412 371.785 444.412ZM377.585 445.5V433.66H379.073V438.572H379.137C379.521 437.548 380.385 437.02 381.521 437.02C383.601 437.02 384.849 438.668 384.849 441.356C384.849 444.044 383.601 445.692 381.521 445.692C380.385 445.692 379.521 445.164 379.137 444.14H379.073V445.5H377.585ZM381.089 444.396C382.417 444.396 383.265 443.452 383.265 442.06V440.652C383.265 439.26 382.417 438.316 381.089 438.316C379.969 438.316 379.073 438.956 379.073 439.836V442.876C379.073 443.756 379.969 444.396 381.089 444.396ZM389.489 445.692C387.953 445.692 386.945 445.068 386.177 444.092L387.185 443.228C387.809 444.012 388.577 444.46 389.585 444.46C390.641 444.46 391.217 443.996 391.217 443.228C391.217 442.62 390.897 442.188 389.889 442.044L389.185 441.932C387.601 441.708 386.497 441.052 386.497 439.516C386.497 437.884 387.761 437.02 389.505 437.02C390.913 437.02 391.793 437.516 392.497 438.348L391.553 439.244C391.153 438.716 390.449 438.252 389.457 438.252C388.449 438.252 387.937 438.716 387.937 439.42C387.937 440.156 388.417 440.46 389.377 440.604L390.081 440.716C391.905 440.988 392.657 441.788 392.657 443.068C392.657 444.684 391.441 445.692 389.489 445.692Z" fill="#171717"/>
<defs>
<clipPath id="clip0_3097_599630">
<rect width="23.7667" height="23.7667" fill="white" transform="translate(86.6172 63.6167)"/>
</clipPath>
<clipPath id="clip1_3097_599630">
<rect width="23.7667" height="23.7667" fill="white" transform="translate(86.6172 351.617)"/>
</clipPath>
</defs>
</svg>
