<svg width="595" height="362" viewBox="0 0 595 362" fill="none" xmlns="http://www.w3.org/2000/svg">
<rect x="0.614563" y="361" width="360" height="56.5337" rx="11.3104" transform="rotate(-90 0.614563 361)" fill="#E5E5E5"/>
<rect x="0.614563" y="361" width="360" height="56.5337" rx="11.3104" transform="rotate(-90 0.614563 361)" stroke="#171717"/>
<path d="M33.3813 227.953L33.3813 229.397L24.4633 229.397L24.4633 225.564C24.4633 223.929 25.5238 222.97 27.1464 222.97C28.769 222.97 29.8295 223.929 29.8295 225.564L29.8295 227.953L33.3813 227.953ZM25.7282 227.953L28.5646 227.953L28.5646 225.653C28.5646 224.925 28.1685 224.491 27.453 224.491L26.8397 224.491C26.1243 224.491 25.7282 224.925 25.7282 225.653L25.7282 227.953ZM29.7784 219.176L33.3813 219.176L33.3813 220.62L24.4633 220.62L24.4633 216.774C24.4633 215.177 25.4982 214.193 27.1464 214.193C28.4113 214.193 29.2928 214.794 29.625 215.931L33.3813 214.002L33.3813 215.612L29.7784 217.4L29.7784 219.176ZM28.5646 219.176L28.5646 216.877C28.5646 216.148 28.1685 215.714 27.453 215.714L26.8397 215.714C26.1243 215.714 25.7282 216.148 25.7282 216.877L25.7282 219.176L28.5646 219.176ZM33.3813 205.77L33.3813 211.481L24.4633 211.481L24.4633 205.77L25.741 205.77L25.741 210.038L28.2196 210.038L28.2196 206.166L29.4973 206.166L29.4973 210.038L32.1037 210.038L32.1037 205.77L33.3813 205.77ZM30.2 199.909L30.2 203.448L28.7818 203.448L28.7818 199.909L30.2 199.909ZM33.3813 195.992L25.741 195.992L25.741 198.65L24.4633 198.65L24.4633 191.891L25.741 191.891L25.741 194.549L33.3813 194.549L33.3813 195.992ZM29.7784 188.273L33.3813 188.273L33.3813 189.717L24.4633 189.717L24.4633 185.871C24.4633 184.274 25.4982 183.291 27.1464 183.291C28.4113 183.291 29.2928 183.891 29.625 185.028L33.3813 183.099L33.3813 184.709L29.7784 186.498L29.7784 188.273ZM28.5646 188.273L28.5646 185.974C28.5646 185.245 28.1685 184.811 27.453 184.811L26.8397 184.811C26.1243 184.811 25.7282 185.245 25.7282 185.974L25.7282 188.273L28.5646 188.273ZM33.3813 173.5L33.3813 175.008L30.9666 175.813L30.9666 179.147L33.3813 179.927L33.3813 181.396L24.4633 178.355L24.4633 176.541L33.3813 173.5ZM29.7272 176.171L25.7921 177.448L25.7921 177.512L29.7272 178.803L29.7272 176.171ZM33.3813 167.852L33.3813 171.736L32.2059 171.736L32.2059 170.522L25.6387 170.522L25.6387 171.736L24.4633 171.736L24.4633 167.852L25.6387 167.852L25.6387 169.078L32.2059 169.078L32.2059 167.852L33.3813 167.852ZM33.3813 159.955L28.4496 162.869L26.5587 163.852L26.5587 163.891L33.3813 163.891L33.3813 165.271L24.4633 165.271L24.4633 163.661L29.3951 160.748L31.286 159.764L31.286 159.725L24.4633 159.725L24.4633 158.346L33.3813 158.346L33.3813 159.955ZM33.3813 151.882L33.3813 155.766L32.2059 155.766L32.2059 154.553L25.6387 154.553L25.6387 155.766L24.4633 155.766L24.4633 151.882L25.6387 151.882L25.6387 153.109L32.2059 153.109L32.2059 151.882L33.3813 151.882ZM33.3813 143.986L28.4496 146.899L26.5587 147.883L26.5587 147.921L33.3813 147.921L33.3813 149.301L24.4633 149.301L24.4633 147.691L29.3951 144.778L31.286 143.795L31.286 143.756L24.4633 143.756L24.4633 142.376L33.3813 142.376L33.3813 143.986ZM33.3813 133.677L32.027 133.677L32.027 133.728C32.8831 133.907 33.5347 134.776 33.5347 136.13C33.5347 138.251 31.912 139.81 28.9223 139.81C25.9454 139.81 24.31 138.251 24.31 135.913C24.31 134.316 25.0638 133.205 26.3159 132.591L27.0058 133.767C26.1754 134.112 25.6004 134.827 25.6004 135.913C25.6004 137.319 26.5587 138.264 28.1941 138.264L29.6506 138.264C31.286 138.264 32.2442 137.319 32.2442 135.913C32.2442 134.789 31.6693 133.805 30.5577 133.805L29.8678 133.805L29.8678 135.645L28.6285 135.645L28.6285 132.412L33.3813 132.412L33.3813 133.677Z" fill="#171717"/>
<path d="M83.7823 180.718C83.9382 180.874 83.9382 181.126 83.7823 181.282L81.2414 183.823C81.0855 183.979 80.8327 183.979 80.6767 183.823C80.5208 183.667 80.5208 183.415 80.6767 183.259L82.9353 181L80.6767 178.741C80.5208 178.585 80.5208 178.333 80.6767 178.177C80.8327 178.021 81.0855 178.021 81.2414 178.177L83.7823 180.718ZM66.7307 180.601L83.5 180.601L83.5 181.399L66.7307 181.399L66.7307 180.601Z" fill="black"/>
<rect x="91" y="1.5" width="413" height="359" rx="19.5" fill="#F5F5F5"/>
<rect x="91" y="1.5" width="413" height="359" rx="19.5" stroke="#171717"/>
<path d="M246.508 34H245.064L245.064 25.0819H248.897C250.532 25.0819 251.491 26.1424 251.491 27.765C251.491 29.3877 250.532 30.4481 248.897 30.4481H246.508L246.508 34ZM246.508 26.3468L246.508 29.1832H248.807C249.536 29.1832 249.97 28.7872 249.97 28.0717L249.97 27.4584C249.97 26.7429 249.536 26.3468 248.807 26.3468H246.508ZM257.291 34.1533C254.965 34.1533 253.445 32.5435 253.445 29.541C253.445 26.5385 254.965 24.9286 257.291 24.9286C259.616 24.9286 261.136 26.5385 261.136 29.541C261.136 32.5435 259.616 34.1533 257.291 34.1533ZM257.291 32.8629C258.67 32.8629 259.59 31.8663 259.59 30.2437L259.59 28.8383C259.59 27.2156 258.67 26.2191 257.291 26.2191C255.911 26.2191 254.991 27.2156 254.991 28.8383L254.991 30.2437C254.991 31.8663 255.911 32.8629 257.291 32.8629ZM266.349 34.1533C264.854 34.1533 263.832 33.5656 263.091 32.6457L264.087 31.713C264.713 32.4796 265.454 32.8757 266.425 32.8757C267.562 32.8757 268.15 32.3135 268.15 31.4575C268.15 30.7675 267.792 30.3715 266.757 30.167L265.965 30.0265C264.24 29.7071 263.359 28.9021 263.359 27.4839C263.359 25.8996 264.585 24.9286 266.476 24.9286C267.818 24.9286 268.802 25.4141 269.492 26.2957L268.482 27.1901C268.022 26.5896 267.384 26.2063 266.4 26.2063C265.378 26.2063 264.79 26.6279 264.79 27.4073C264.79 28.1483 265.25 28.4677 266.208 28.6594L267 28.8255C268.776 29.1705 269.581 29.9626 269.581 31.3808C269.581 33.0418 268.393 34.1533 266.349 34.1533ZM273.734 34L273.734 26.3596H271.077L271.077 25.0819H277.835L277.835 26.3596H275.178L275.178 34H273.734ZM282.63 30.8186H279.091L279.091 29.4004H282.63L282.63 30.8186ZM286.547 34L286.547 26.3596H283.889L283.889 25.0819H290.648L290.648 26.3596H287.99L287.99 34H286.547ZM294.266 30.397L294.266 34H292.822L292.822 25.0819H296.668C298.265 25.0819 299.248 26.1169 299.248 27.765C299.248 29.0299 298.648 29.9115 297.511 30.2437L299.44 34H297.83L296.042 30.397H294.266ZM294.266 29.1832H296.565C297.294 29.1832 297.728 28.7872 297.728 28.0717L297.728 27.4584C297.728 26.7429 297.294 26.3468 296.565 26.3468H294.266L294.266 29.1832ZM309.039 34H307.531L306.726 31.5852H303.392L302.612 34H301.143L304.184 25.0819H305.998L309.039 34ZM306.369 30.3459L305.091 26.4107H305.027L303.737 30.3459H306.369ZM314.687 34H310.803L310.803 32.8246H312.017L312.017 26.2574H310.803L310.803 25.0819H314.687L314.687 26.2574H313.461L313.461 32.8246H314.687L314.687 34ZM322.584 34L319.671 29.0682L318.687 27.1773H318.648L318.648 34H317.269L317.269 25.0819H318.878L321.791 30.0137L322.775 31.9046H322.814L322.814 25.0819L324.193 25.0819L324.193 34H322.584ZM330.657 34H326.773L326.773 32.8246H327.986L327.986 26.2574H326.773L326.773 25.0819H330.657L330.657 26.2574H329.43L329.43 32.8246H330.657L330.657 34ZM338.553 34L335.64 29.0682L334.656 27.1773H334.618L334.618 34H333.238L333.238 25.0819H334.848L337.761 30.0137L338.744 31.9046H338.783L338.783 25.0819H340.163L340.163 34H338.553ZM348.862 34L348.862 32.6457H348.811C348.632 33.5017 347.763 34.1533 346.409 34.1533C344.288 34.1533 342.729 32.5307 342.729 29.541C342.729 26.564 344.288 24.9286 346.626 24.9286C348.223 24.9286 349.335 25.6824 349.948 26.9346L348.772 27.6245C348.427 26.794 347.712 26.2191 346.626 26.2191C345.221 26.2191 344.275 27.1773 344.275 28.8127L344.275 30.2692C344.275 31.9046 345.221 32.8629 346.626 32.8629C347.75 32.8629 348.734 32.2879 348.734 31.1764L348.734 30.4864H346.894L346.894 29.2471H350.127L350.127 34H348.862Z" fill="#171717"/>
<rect x="114.231" y="53.5" width="111" height="287" rx="11.3104" fill="#F5F5F5"/>
<rect x="114.231" y="53.5" width="111" height="287" rx="11.3104" stroke="#A3A3A3" stroke-dasharray="6 3"/>
<rect x="144.178" y="145.364" width="51.1063" height="51.1063" rx="15.3319" fill="#FB923C"/>
<path d="M182.025 175.872L178.355 172.23L178.997 171.588C179.175 171.409 179.276 171.166 179.276 170.913C179.276 170.66 179.175 170.417 178.997 170.237L173.247 164.488C173.068 164.309 172.825 164.209 172.572 164.209C172.319 164.209 172.076 164.309 171.896 164.488L171.139 165.245L164.662 158.738C164.482 158.56 164.239 158.46 163.986 158.46C163.733 158.46 163.49 158.56 163.31 158.738L159.477 162.571L159.362 162.715L155.53 168.465C155.406 168.648 155.351 168.869 155.372 169.089C155.393 169.309 155.489 169.515 155.645 169.672L158.519 172.547C158.608 172.636 158.714 172.708 158.831 172.756C158.948 172.805 159.073 172.83 159.2 172.83C159.326 172.83 159.451 172.805 159.568 172.756C159.685 172.708 159.791 172.636 159.88 172.547L163.981 168.436L165.984 170.439L161.384 175.029C161.206 175.208 161.106 175.451 161.106 175.704C161.106 175.957 161.206 176.2 161.384 176.38L163.301 178.296C163.39 178.387 163.495 178.459 163.612 178.508C163.729 178.557 163.854 178.583 163.981 178.584C164.157 178.582 164.33 178.533 164.48 178.44L168.629 175.948L170.967 178.296C171.146 178.475 171.389 178.575 171.642 178.575C171.896 178.575 172.138 178.475 172.318 178.296L172.96 177.625L176.592 181.295C177.311 182.015 178.286 182.419 179.304 182.419C180.321 182.419 181.296 182.015 182.015 181.295C182.735 180.576 183.139 179.601 183.139 178.584C183.139 177.566 182.735 176.591 182.015 175.872H182.025ZM163.981 165.724L159.19 170.515L157.551 168.877L160.896 163.855L163.981 160.77L169.817 166.606L167.335 169.078L163.981 165.724ZM171.647 176.265L168.926 173.543L164.135 176.418L163.425 175.709L172.605 166.519L177.004 170.918L171.647 176.265ZM180.674 179.935C180.496 180.113 180.284 180.254 180.052 180.351C179.819 180.447 179.57 180.497 179.318 180.497C179.066 180.497 178.817 180.447 178.584 180.351C178.351 180.254 178.14 180.113 177.962 179.935L174.321 176.303L177.033 173.591L180.674 177.223C180.852 177.401 180.993 177.612 181.09 177.845C181.186 178.078 181.236 178.327 181.236 178.579C181.236 178.831 181.186 179.08 181.09 179.313C180.993 179.545 180.852 179.757 180.674 179.935Z" fill="black"/>
<path d="M151.061 228.635V218.863H153.147L155.653 223.637H155.709L158.187 218.863H160.189V228.635H158.439V221.621H158.383L157.627 223.175L155.625 226.871L153.623 223.175L152.867 221.621H152.811V228.635H151.061ZM165.277 228.803C163.191 228.803 161.889 227.319 161.889 224.967C161.889 222.629 163.191 221.159 165.277 221.159C167.377 221.159 168.679 222.629 168.679 224.967C168.679 227.319 167.377 228.803 165.277 228.803ZM165.277 227.361C166.215 227.361 166.803 226.759 166.803 225.653V224.295C166.803 223.203 166.215 222.601 165.277 222.601C164.353 222.601 163.765 223.203 163.765 224.295V225.653C163.765 226.759 164.353 227.361 165.277 227.361ZM174.804 228.635V227.417H174.734C174.468 228.243 173.684 228.803 172.718 228.803C170.884 228.803 169.862 227.417 169.862 224.967C169.862 222.531 170.884 221.159 172.718 221.159C173.684 221.159 174.482 221.691 174.734 222.531H174.804V218.275H176.596V228.635H174.804ZM173.292 227.319C174.146 227.319 174.804 226.885 174.804 226.129V223.805C174.804 223.091 174.146 222.629 173.292 222.629C172.368 222.629 171.738 223.315 171.738 224.351V225.611C171.738 226.647 172.368 227.319 173.292 227.319ZM181.616 228.803C179.46 228.803 178.172 227.305 178.172 224.967C178.172 222.657 179.418 221.159 181.56 221.159C183.842 221.159 184.892 222.839 184.892 224.841V225.429H180.034V225.611C180.034 226.661 180.636 227.375 181.812 227.375C182.694 227.375 183.226 226.955 183.674 226.381L184.64 227.459C184.038 228.285 182.974 228.803 181.616 228.803ZM181.588 222.503C180.65 222.503 180.034 223.203 180.034 224.211V224.323H183.03V224.197C183.03 223.189 182.512 222.503 181.588 222.503ZM189.227 228.635H188.261C187.043 228.635 186.469 227.991 186.469 226.871V218.275H188.261V227.207H189.227V228.635ZM139.691 245.803C137.535 245.803 136.247 244.305 136.247 241.967C136.247 239.657 137.493 238.159 139.635 238.159C141.917 238.159 142.967 239.839 142.967 241.841V242.429H138.109V242.611C138.109 243.661 138.711 244.375 139.887 244.375C140.769 244.375 141.301 243.955 141.749 243.381L142.715 244.459C142.113 245.285 141.049 245.803 139.691 245.803ZM139.663 239.503C138.725 239.503 138.109 240.203 138.109 241.211V241.323H141.105V241.197C141.105 240.189 140.587 239.503 139.663 239.503ZM148.117 245.635H145.989L143.553 238.327H145.317L146.339 241.477L147.053 244.081H147.151L147.865 241.477L148.859 238.327H150.567L148.117 245.635ZM153.446 245.803C151.962 245.803 151.122 244.949 151.122 243.647C151.122 242.149 152.256 241.407 154.244 241.407H155.49V240.875C155.49 240.063 155.084 239.587 154.132 239.587C153.292 239.587 152.816 240.007 152.466 240.511L151.402 239.559C151.934 238.719 152.788 238.159 154.258 238.159C156.232 238.159 157.282 239.097 157.282 240.763V244.207H158.01V245.635H157.016C156.246 245.635 155.77 245.131 155.658 244.375H155.574C155.336 245.313 154.538 245.803 153.446 245.803ZM154.048 244.501C154.846 244.501 155.49 244.137 155.49 243.451V242.485H154.342C153.404 242.485 152.942 242.807 152.942 243.381V243.619C152.942 244.207 153.348 244.501 154.048 244.501ZM162.218 245.635H161.252C160.034 245.635 159.46 244.991 159.46 243.871V235.275H161.252V244.207H162.218V245.635ZM167.943 245.635V244.417H167.873C167.621 245.145 167.033 245.803 165.829 245.803C164.331 245.803 163.491 244.767 163.491 242.947V238.327H165.283V242.765C165.283 243.773 165.661 244.319 166.515 244.319C167.229 244.319 167.943 243.941 167.943 243.157V238.327H169.735V245.635H167.943ZM173.612 245.803C172.128 245.803 171.288 244.949 171.288 243.647C171.288 242.149 172.422 241.407 174.41 241.407H175.656V240.875C175.656 240.063 175.25 239.587 174.298 239.587C173.458 239.587 172.982 240.007 172.632 240.511L171.568 239.559C172.1 238.719 172.954 238.159 174.424 238.159C176.398 238.159 177.448 239.097 177.448 240.763V244.207H178.176V245.635H177.182C176.412 245.635 175.936 245.131 175.824 244.375H175.74C175.502 245.313 174.704 245.803 173.612 245.803ZM174.214 244.501C175.012 244.501 175.656 244.137 175.656 243.451V242.485H174.508C173.57 242.485 173.108 242.807 173.108 243.381V243.619C173.108 244.207 173.514 244.501 174.214 244.501ZM181.853 245.635C180.621 245.635 179.963 244.963 179.963 243.773V239.755H178.885V238.327H179.445C179.977 238.327 180.145 238.075 180.145 237.571V236.325H181.755V238.327H183.253V239.755H181.755V244.207H183.141V245.635H181.853ZM185.704 237.263C184.962 237.263 184.654 236.885 184.654 236.367V236.087C184.654 235.569 184.962 235.191 185.704 235.191C186.432 235.191 186.754 235.569 186.754 236.087V236.367C186.754 236.885 186.432 237.263 185.704 237.263ZM184.808 245.635V238.327H186.6V245.635H184.808ZM191.575 245.803C189.489 245.803 188.187 244.319 188.187 241.967C188.187 239.629 189.489 238.159 191.575 238.159C193.675 238.159 194.977 239.629 194.977 241.967C194.977 244.319 193.675 245.803 191.575 245.803ZM191.575 244.361C192.513 244.361 193.101 243.759 193.101 242.653V241.295C193.101 240.203 192.513 239.601 191.575 239.601C190.651 239.601 190.063 240.203 190.063 241.295V242.653C190.063 243.759 190.651 244.361 191.575 244.361ZM198.358 245.635H196.566V238.327H198.358V239.545H198.428C198.722 238.761 199.338 238.159 200.472 238.159C201.97 238.159 202.81 239.195 202.81 241.015V245.635H201.018V241.197C201.018 240.161 200.668 239.629 199.814 239.629C199.072 239.629 198.358 240.021 198.358 240.805V245.635Z" fill="#171717"/>
<rect x="241" y="54.5" width="240" height="85" rx="11.3104" fill="#FBBF24"/>
<path d="M302.253 71.4469H280.362C272.295 71.4469 265.755 77.9871 265.755 86.0548V107.945C265.755 116.013 272.295 122.553 280.362 122.553H302.253C310.321 122.553 316.861 116.013 316.861 107.945V86.0548C316.861 77.9871 310.321 71.4469 302.253 71.4469Z" fill="#FBBF24"/>
<rect x="276.988" y="83.278" width="11.2408" height="11.2408" stroke="#171717" stroke-width="2.04555"/>
<rect x="294.366" y="83.2781" width="11.2408" height="11.2408" stroke="#171717" stroke-width="2.04555"/>
<rect x="276.989" y="100.655" width="11.2408" height="11.2408" stroke="#171717" stroke-width="2.04555"/>
<rect x="294.366" y="100.655" width="11.2408" height="11.2408" stroke="#171717" stroke-width="2.04555"/>
<path d="M339.506 85.12C337.686 85.12 336.576 83.85 336.576 81.51C336.576 79.17 337.686 77.9 339.506 77.9C340.716 77.9 341.526 78.44 341.996 79.48L341.046 80C340.806 79.34 340.316 78.91 339.506 78.91C338.436 78.91 337.776 79.69 337.776 80.98V82.04C337.776 83.33 338.436 84.11 339.506 84.11C340.336 84.11 340.866 83.63 341.116 82.95L342.026 83.5C341.556 84.51 340.716 85.12 339.506 85.12ZM349.334 85H348.154L347.524 83.11H344.914L344.304 85H343.154L345.534 78.02H346.954L349.334 85ZM347.244 82.14L346.244 79.06H346.194L345.184 82.14H347.244ZM352.145 85H351.015V78.02H354.015C355.295 78.02 356.045 78.85 356.045 80.12C356.045 81.39 355.295 82.22 354.015 82.22H352.145V85ZM352.145 79.01V81.23H353.945C354.515 81.23 354.855 80.92 354.855 80.36V79.88C354.855 79.32 354.515 79.01 353.945 79.01H352.145ZM362.859 85H361.679L361.049 83.11H358.439L357.829 85H356.679L359.059 78.02H360.479L362.859 85ZM360.769 82.14L359.769 79.06H359.719L358.709 82.14H360.769ZM364.54 85V78.02H367.63C368.78 78.02 369.49 78.73 369.49 79.82C369.49 80.87 368.85 81.25 368.28 81.3V81.36C368.85 81.38 369.74 81.82 369.74 82.99C369.74 84.12 368.97 85 367.94 85H364.54ZM365.67 81.91V84.03H367.61C368.19 84.03 368.55 83.71 368.55 83.14V82.8C368.55 82.23 368.19 81.91 367.61 81.91H365.67ZM365.67 78.99V80.97H367.42C367.97 80.97 368.3 80.67 368.3 80.14V79.82C368.3 79.29 367.97 78.99 367.42 78.99H365.67ZM374.471 85H371.431V84.08H372.381V78.94H371.431V78.02H374.471V78.94H373.511V84.08H374.471V85ZM380.462 85H376.492V78.02H377.622V84H380.462V85ZM384.959 85H381.919V84.08H382.869V78.94H381.919V78.02H384.959V78.94H383.999V84.08H384.959V85ZM388.38 85V79.02H386.3V78.02H391.59V79.02H389.51V85H388.38ZM396.111 85H394.981V82.25L392.581 78.02H393.871L395.571 81.13H395.601L397.291 78.02H398.531L396.111 82.23V85ZM407.536 85H403.066V78.02H407.536V79.02H404.196V80.96H407.226V81.96H404.196V84H407.536V85ZM408.944 85L411.204 81.43L409.024 78.02H410.354L411.944 80.62H411.964L413.574 78.02H414.824L412.624 81.42L414.914 85H413.584L411.894 82.22H411.864L410.194 85H408.944ZM417.71 85H416.58V78.02H419.58C420.86 78.02 421.61 78.85 421.61 80.12C421.61 81.39 420.86 82.22 419.58 82.22H417.71V85ZM417.71 79.01V81.23H419.51C420.08 81.23 420.42 80.92 420.42 80.36V79.88C420.42 79.32 420.08 79.01 419.51 79.01H417.71ZM428.423 85H427.243L426.613 83.11H424.003L423.393 85H422.243L424.623 78.02H426.043L428.423 85ZM426.333 82.14L425.333 79.06H425.283L424.273 82.14H426.333ZM434.265 85L431.985 81.14L431.215 79.66H431.185V85H430.105V78.02H431.365L433.645 81.88L434.415 83.36H434.445V78.02H435.525V85H434.265ZM439.933 85.12C438.763 85.12 437.963 84.66 437.383 83.94L438.163 83.21C438.653 83.81 439.233 84.12 439.993 84.12C440.883 84.12 441.343 83.68 441.343 83.01C441.343 82.47 441.063 82.16 440.253 82L439.633 81.89C438.283 81.64 437.593 81.01 437.593 79.9C437.593 78.66 438.553 77.9 440.033 77.9C441.083 77.9 441.853 78.28 442.393 78.97L441.603 79.67C441.243 79.2 440.743 78.9 439.973 78.9C439.173 78.9 438.713 79.23 438.713 79.84C438.713 80.42 439.073 80.67 439.823 80.82L440.443 80.95C441.833 81.22 442.463 81.84 442.463 82.95C442.463 84.25 441.533 85.12 439.933 85.12ZM447.16 85H444.12V84.08H445.07V78.94H444.12V78.02H447.16V78.94H446.2V84.08H447.16V85ZM451.88 85.12C450.06 85.12 448.87 83.86 448.87 81.51C448.87 79.16 450.06 77.9 451.88 77.9C453.7 77.9 454.89 79.16 454.89 81.51C454.89 83.86 453.7 85.12 451.88 85.12ZM451.88 84.11C452.96 84.11 453.68 83.33 453.68 82.06V80.96C453.68 79.69 452.96 78.91 451.88 78.91C450.8 78.91 450.08 79.69 450.08 80.96V82.06C450.08 83.33 450.8 84.11 451.88 84.11ZM461.059 85L458.779 81.14L458.009 79.66H457.979V85H456.899V78.02H458.159L460.439 81.88L461.209 83.36H461.239V78.02H462.319V85H461.059ZM340.212 101.168C338.546 101.168 337.398 100.51 336.572 99.544L337.818 98.34C338.49 99.124 339.316 99.544 340.324 99.544C341.458 99.544 342.046 98.998 342.046 98.172C342.046 97.514 341.738 97.108 340.716 96.926L339.792 96.786C337.818 96.478 336.866 95.54 336.866 93.944C336.866 92.194 338.224 91.06 340.408 91.06C341.878 91.06 342.97 91.564 343.754 92.502L342.494 93.692C342.018 93.09 341.346 92.684 340.31 92.684C339.26 92.684 338.714 93.104 338.714 93.832C338.714 94.574 339.134 94.882 340.072 95.05L340.982 95.218C342.956 95.568 343.88 96.45 343.88 98.06C343.88 99.908 342.55 101.168 340.212 101.168ZM349.988 101V99.782H349.918C349.666 100.51 349.078 101.168 347.874 101.168C346.376 101.168 345.536 100.132 345.536 98.312V93.692H347.328V98.13C347.328 99.138 347.706 99.684 348.56 99.684C349.274 99.684 349.988 99.306 349.988 98.522V93.692H351.78V101H349.988ZM353.851 103.8V93.692H355.643V94.896H355.699C355.965 94.056 356.749 93.524 357.715 93.524C359.563 93.524 360.585 94.896 360.585 97.332C360.585 99.782 359.563 101.168 357.715 101.168C356.749 101.168 355.979 100.608 355.699 99.782H355.643V103.8H353.851ZM357.141 99.684C358.065 99.684 358.709 99.012 358.709 97.976V96.716C358.709 95.68 358.065 94.994 357.141 94.994C356.287 94.994 355.643 95.456 355.643 96.17V98.494C355.643 99.25 356.287 99.684 357.141 99.684ZM365.199 101.168C363.043 101.168 361.755 99.67 361.755 97.332C361.755 95.022 363.001 93.524 365.143 93.524C367.425 93.524 368.475 95.204 368.475 97.206V97.794H363.617V97.976C363.617 99.026 364.219 99.74 365.395 99.74C366.277 99.74 366.809 99.32 367.257 98.746L368.223 99.824C367.621 100.65 366.557 101.168 365.199 101.168ZM365.171 94.868C364.233 94.868 363.617 95.568 363.617 96.576V96.688H366.613V96.562C366.613 95.554 366.095 94.868 365.171 94.868ZM371.844 101H370.052V93.692H371.844V95.204H371.914C372.096 94.434 372.684 93.692 373.846 93.692H374.238V95.386H373.678C372.474 95.386 371.844 95.722 371.844 96.52V101ZM379.353 101H377.225L374.789 93.692H376.553L377.575 96.842L378.289 99.446H378.387L379.101 96.842L380.095 93.692H381.803L379.353 101ZM383.895 92.628C383.153 92.628 382.845 92.25 382.845 91.732V91.452C382.845 90.934 383.153 90.556 383.895 90.556C384.623 90.556 384.945 90.934 384.945 91.452V91.732C384.945 92.25 384.623 92.628 383.895 92.628ZM382.999 101V93.692H384.791V101H382.999ZM389.262 101.168C387.876 101.168 386.966 100.664 386.238 99.824L387.33 98.76C387.862 99.376 388.506 99.754 389.332 99.754C390.186 99.754 390.55 99.432 390.55 98.914C390.55 98.494 390.298 98.228 389.654 98.144L388.926 98.046C387.358 97.85 386.49 97.164 386.49 95.834C386.49 94.42 387.596 93.524 389.262 93.524C390.69 93.524 391.418 93.944 392.118 94.672L391.068 95.722C390.648 95.274 390.032 94.938 389.318 94.938C388.548 94.938 388.212 95.246 388.212 95.694C388.212 96.184 388.478 96.408 389.164 96.52L389.906 96.618C391.502 96.842 392.272 97.556 392.272 98.774C392.272 100.188 391.082 101.168 389.262 101.168ZM396.809 101.168C394.653 101.168 393.365 99.67 393.365 97.332C393.365 95.022 394.611 93.524 396.753 93.524C399.035 93.524 400.085 95.204 400.085 97.206V97.794H395.227V97.976C395.227 99.026 395.829 99.74 397.005 99.74C397.887 99.74 398.419 99.32 398.867 98.746L399.833 99.824C399.231 100.65 398.167 101.168 396.809 101.168ZM396.781 94.868C395.843 94.868 395.227 95.568 395.227 96.576V96.688H398.223V96.562C398.223 95.554 397.705 94.868 396.781 94.868ZM406.197 101V99.782H406.127C405.861 100.608 405.077 101.168 404.111 101.168C402.277 101.168 401.255 99.782 401.255 97.332C401.255 94.896 402.277 93.524 404.111 93.524C405.077 93.524 405.875 94.056 406.127 94.896H406.197V90.64H407.989V101H406.197ZM404.685 99.684C405.539 99.684 406.197 99.25 406.197 98.494V96.17C406.197 95.456 405.539 94.994 404.685 94.994C403.761 94.994 403.131 95.68 403.131 96.716V97.976C403.131 99.012 403.761 99.684 404.685 99.684ZM339.022 118H337.174V108.228H343.46V109.866H339.022V112.232H342.886V113.87H339.022V118ZM346.038 109.628C345.296 109.628 344.988 109.25 344.988 108.732V108.452C344.988 107.934 345.296 107.556 346.038 107.556C346.766 107.556 347.088 107.934 347.088 108.452V108.732C347.088 109.25 346.766 109.628 346.038 109.628ZM345.142 118V110.692H346.934V118H345.142ZM350.803 118H349.011V110.692H350.803V111.91H350.873C351.167 111.126 351.783 110.524 352.917 110.524C354.415 110.524 355.255 111.56 355.255 113.38V118H353.463V113.562C353.463 112.526 353.113 111.994 352.259 111.994C351.517 111.994 350.803 112.386 350.803 113.17V118ZM360.195 118.168C358.039 118.168 356.751 116.67 356.751 114.332C356.751 112.022 357.997 110.524 360.139 110.524C362.421 110.524 363.471 112.204 363.471 114.206V114.794H358.613V114.976C358.613 116.026 359.215 116.74 360.391 116.74C361.273 116.74 361.805 116.32 362.253 115.746L363.219 116.824C362.617 117.65 361.553 118.168 360.195 118.168ZM360.167 111.868C359.229 111.868 358.613 112.568 358.613 113.576V113.688H361.609V113.562C361.609 112.554 361.091 111.868 360.167 111.868ZM368.965 114.626H364.961V112.848H368.965V114.626ZM376.895 109.866H374.123V118H372.275V109.866H369.503V108.228H376.895V109.866ZM382.022 118V116.782H381.952C381.7 117.51 381.112 118.168 379.908 118.168C378.41 118.168 377.57 117.132 377.57 115.312V110.692H379.362V115.13C379.362 116.138 379.74 116.684 380.594 116.684C381.308 116.684 382.022 116.306 382.022 115.522V110.692H383.814V118H382.022ZM387.676 118H385.884V110.692H387.676V111.91H387.746C388.04 111.126 388.656 110.524 389.79 110.524C391.288 110.524 392.128 111.56 392.128 113.38V118H390.336V113.562C390.336 112.526 389.986 111.994 389.132 111.994C388.39 111.994 387.676 112.386 387.676 113.17V118ZM395.011 109.628C394.269 109.628 393.961 109.25 393.961 108.732V108.452C393.961 107.934 394.269 107.556 395.011 107.556C395.739 107.556 396.061 107.934 396.061 108.452V108.732C396.061 109.25 395.739 109.628 395.011 109.628ZM394.115 118V110.692H395.907V118H394.115ZM399.776 118H397.984V110.692H399.776V111.91H399.846C400.14 111.126 400.756 110.524 401.89 110.524C403.388 110.524 404.228 111.56 404.228 113.38V118H402.436V113.562C402.436 112.526 402.086 111.994 401.232 111.994C400.49 111.994 399.776 112.386 399.776 113.17V118ZM412.808 118.616C412.808 120.142 411.772 120.968 408.972 120.968C406.508 120.968 405.57 120.324 405.57 119.246C405.57 118.434 406.06 117.972 406.872 117.846V117.692C406.27 117.538 405.934 117.062 405.934 116.474C405.934 115.718 406.578 115.34 407.278 115.186V115.13C406.396 114.724 405.948 113.968 405.948 113.002C405.948 111.518 406.998 110.524 408.972 110.524C409.42 110.524 409.882 110.58 410.246 110.706V110.468C410.246 109.754 410.61 109.404 411.282 109.404H412.416V110.776H410.862V110.972C411.618 111.392 411.996 112.106 411.996 113.002C411.996 114.472 410.96 115.452 408.972 115.452C408.552 115.452 408.174 115.41 407.852 115.326C407.572 115.452 407.334 115.662 407.334 115.984C407.334 116.348 407.642 116.53 408.286 116.53H410.246C412.038 116.53 412.808 117.3 412.808 118.616ZM411.128 118.826C411.128 118.364 410.792 118.084 409.882 118.084H407.39C407.124 118.28 407.012 118.546 407.012 118.84C407.012 119.4 407.432 119.736 408.552 119.736H409.448C410.61 119.736 411.128 119.442 411.128 118.826ZM408.972 114.234C409.826 114.234 410.288 113.842 410.288 113.114V112.876C410.288 112.134 409.826 111.756 408.972 111.756C408.118 111.756 407.656 112.134 407.656 112.876V113.114C407.656 113.842 408.118 114.234 408.972 114.234ZM416.816 113.632C416.816 110.93 417.88 108.578 419.28 107.36H420.974C419.462 108.76 418.496 110.86 418.496 113.128V114.164C418.496 116.488 419.476 118.574 420.974 119.932H419.28C417.908 118.756 416.816 116.362 416.816 113.632ZM425.018 118.168C423.352 118.168 422.204 117.51 421.378 116.544L422.624 115.34C423.296 116.124 424.122 116.544 425.13 116.544C426.264 116.544 426.852 115.998 426.852 115.172C426.852 114.514 426.544 114.108 425.522 113.926L424.598 113.786C422.624 113.478 421.672 112.54 421.672 110.944C421.672 109.194 423.03 108.06 425.214 108.06C426.684 108.06 427.776 108.564 428.56 109.502L427.3 110.692C426.824 110.09 426.152 109.684 425.116 109.684C424.066 109.684 423.52 110.104 423.52 110.832C423.52 111.574 423.94 111.882 424.878 112.05L425.788 112.218C427.762 112.568 428.686 113.45 428.686 115.06C428.686 116.908 427.356 118.168 425.018 118.168ZM432.387 118H430.539V108.228H436.825V109.866H432.387V112.232H436.251V113.87H432.387V118ZM445.227 109.866H442.455V118H440.607V109.866H437.835V108.228H445.227V109.866ZM449.884 113.632C449.884 116.362 448.792 118.756 447.42 119.932H445.726C447.224 118.574 448.204 116.488 448.204 114.164V113.128C448.204 110.86 447.238 108.76 445.726 107.36H447.42C448.82 108.578 449.884 110.93 449.884 113.632Z" fill="#171717"/>
<path d="M241 173.597C241 167.262 241 164.095 242.233 161.676C243.317 159.547 245.047 157.817 247.176 156.733C249.595 155.5 252.762 155.5 259.097 155.5H462.903C469.238 155.5 472.405 155.5 474.824 156.733C476.953 157.817 478.683 159.547 479.767 161.676C481 164.095 481 167.262 481 173.597V221.403C481 227.738 481 230.905 479.767 233.324C478.683 235.453 476.953 237.183 474.824 238.267C472.405 239.5 469.238 239.5 462.903 239.5H259.097C252.762 239.5 249.595 239.5 247.176 238.267C245.047 237.183 243.317 235.453 242.233 233.324C241 230.905 241 227.738 241 221.403V173.597Z" fill="#F5F5F5"/>
<path d="M241 173.597C241 167.262 241 164.095 242.233 161.676C243.317 159.547 245.047 157.817 247.176 156.733C249.595 155.5 252.762 155.5 259.097 155.5H462.903C469.238 155.5 472.405 155.5 474.824 156.733C476.953 157.817 478.683 159.547 479.767 161.676C481 164.095 481 167.262 481 173.597V221.403C481 227.738 481 230.905 479.767 233.324C478.683 235.453 476.953 237.183 474.824 238.267C472.405 239.5 469.238 239.5 462.903 239.5H259.097C252.762 239.5 249.595 239.5 247.176 238.267C245.047 237.183 243.317 235.453 242.233 233.324C241 230.905 241 227.738 241 221.403V173.597Z" stroke="#A3A3A3" stroke-dasharray="6 3"/>
<rect x="265.755" y="171.947" width="51.1063" height="51.1063" rx="15.3319" fill="#4ADE80"/>
<path fill-rule="evenodd" clip-rule="evenodd" d="M296.844 191.105C297.475 191.526 298.216 191.751 298.974 191.751C299.99 191.75 300.964 191.345 301.683 190.627C302.401 189.908 302.806 188.934 302.807 187.918C302.807 187.16 302.582 186.419 302.161 185.788C301.74 185.158 301.141 184.667 300.441 184.376C299.74 184.086 298.969 184.01 298.226 184.158C297.482 184.306 296.799 184.671 296.263 185.207C295.727 185.743 295.362 186.426 295.214 187.17C295.066 187.913 295.142 188.684 295.432 189.385C295.723 190.085 296.214 190.684 296.844 191.105ZM297.909 186.324C298.224 186.114 298.595 186.001 298.974 186.001C299.482 186.002 299.969 186.204 300.328 186.563C300.687 186.922 300.89 187.41 300.89 187.918C300.89 188.297 300.778 188.667 300.567 188.982C300.357 189.298 300.057 189.543 299.707 189.688C299.357 189.833 298.972 189.871 298.6 189.797C298.228 189.723 297.887 189.541 297.619 189.273C297.351 189.005 297.168 188.663 297.094 188.292C297.02 187.92 297.058 187.534 297.203 187.184C297.348 186.834 297.594 186.535 297.909 186.324ZM293.224 197.5H295.141V195.584C295.141 195.33 295.242 195.086 295.422 194.906C295.601 194.727 295.845 194.626 296.099 194.625H301.848C302.102 194.626 302.346 194.727 302.526 194.906C302.705 195.086 302.806 195.33 302.807 195.584V197.5H304.723V195.584C304.722 194.821 304.419 194.091 303.88 193.552C303.341 193.013 302.611 192.71 301.848 192.709H296.099C295.337 192.71 294.606 193.013 294.067 193.552C293.528 194.091 293.225 194.821 293.224 195.584V197.5ZM296.844 205.478C297.475 205.9 298.216 206.124 298.974 206.124C299.99 206.123 300.964 205.719 301.683 205.001C302.402 204.282 302.806 203.308 302.807 202.291C302.807 201.533 302.582 200.792 302.161 200.162C301.74 199.532 301.141 199.04 300.441 198.75C299.74 198.46 298.969 198.384 298.226 198.532C297.482 198.68 296.799 199.045 296.263 199.581C295.727 200.117 295.362 200.8 295.214 201.544C295.066 202.287 295.142 203.058 295.432 203.758C295.723 204.459 296.214 205.057 296.844 205.478ZM297.909 200.698C298.224 200.487 298.595 200.375 298.974 200.375C299.482 200.376 299.969 200.578 300.328 200.937C300.687 201.296 300.889 201.783 300.89 202.291C300.89 202.67 300.778 203.041 300.567 203.356C300.357 203.671 300.057 203.917 299.707 204.062C299.357 204.207 298.972 204.245 298.6 204.171C298.228 204.097 297.887 203.915 297.619 203.647C297.351 203.378 297.168 203.037 297.094 202.665C297.02 202.293 297.058 201.908 297.203 201.558C297.348 201.208 297.594 200.908 297.909 200.698ZM295.141 211.874H293.224V209.957C293.225 209.195 293.528 208.464 294.067 207.925C294.606 207.387 295.337 207.083 296.099 207.083H301.848C302.611 207.083 303.341 207.387 303.88 207.925C304.419 208.464 304.722 209.195 304.723 209.957V211.874H302.807V209.957C302.807 209.703 302.706 209.46 302.526 209.28C302.346 209.1 302.103 208.999 301.848 208.999H296.099C295.845 208.999 295.601 209.1 295.422 209.28C295.242 209.46 295.141 209.703 295.141 209.957V211.874ZM277.892 211.874H279.809V209.957C279.809 209.703 279.91 209.46 280.09 209.28C280.269 209.1 280.513 208.999 280.767 208.999H286.517C286.771 208.999 287.014 209.1 287.194 209.28C287.374 209.46 287.475 209.703 287.475 209.957V211.874H289.391V209.957C289.39 209.195 289.087 208.464 288.548 207.925C288.009 207.387 287.279 207.083 286.517 207.083H280.767C280.005 207.083 279.274 207.387 278.735 207.925C278.196 208.464 277.893 209.195 277.892 209.957V211.874ZM281.512 205.478C282.143 205.9 282.884 206.124 283.642 206.124C284.658 206.123 285.632 205.719 286.351 205C287.07 204.282 287.474 203.308 287.475 202.291C287.475 201.533 287.25 200.792 286.829 200.162C286.408 199.532 285.809 199.04 285.109 198.75C284.408 198.46 283.638 198.384 282.894 198.532C282.15 198.68 281.468 199.045 280.931 199.581C280.395 200.117 280.03 200.8 279.882 201.544C279.735 202.287 279.81 203.058 280.101 203.758C280.391 204.459 280.882 205.057 281.512 205.478ZM282.577 200.698C282.892 200.487 283.263 200.375 283.642 200.375C284.15 200.375 284.637 200.578 284.996 200.937C285.356 201.296 285.558 201.783 285.558 202.291C285.558 202.67 285.446 203.041 285.235 203.356C285.025 203.671 284.725 203.917 284.375 204.062C284.025 204.207 283.64 204.245 283.268 204.171C282.896 204.097 282.555 203.915 282.287 203.647C282.019 203.378 281.836 203.037 281.762 202.665C281.688 202.293 281.726 201.908 281.871 201.558C282.016 201.208 282.262 200.908 282.577 200.698ZM277.892 197.5H279.809V195.584C279.809 195.33 279.91 195.086 280.09 194.906C280.269 194.727 280.513 194.626 280.767 194.625H286.517C286.771 194.626 287.014 194.727 287.194 194.906C287.373 195.086 287.474 195.33 287.475 195.584V197.5H289.391V195.584C289.39 194.821 289.087 194.091 288.548 193.552C288.009 193.013 287.279 192.71 286.517 192.709H280.767C280.005 192.71 279.274 193.013 278.735 193.552C278.196 194.091 277.893 194.821 277.892 195.584V197.5ZM281.512 191.105C282.143 191.526 282.884 191.751 283.642 191.751C284.658 191.75 285.632 191.345 286.351 190.627C287.069 189.908 287.474 188.934 287.475 187.918C287.475 187.16 287.25 186.419 286.829 185.788C286.408 185.158 285.809 184.667 285.109 184.376C284.408 184.086 283.638 184.01 282.894 184.158C282.15 184.306 281.468 184.671 280.931 185.207C280.395 185.743 280.03 186.426 279.882 187.17C279.735 187.913 279.81 188.684 280.101 189.385C280.391 190.085 280.882 190.684 281.512 191.105ZM282.577 186.324C282.892 186.114 283.263 186.001 283.642 186.001C284.15 186.002 284.637 186.204 284.996 186.563C285.356 186.922 285.558 187.41 285.558 187.918C285.558 188.297 285.446 188.667 285.235 188.982C285.025 189.298 284.725 189.543 284.375 189.688C284.025 189.833 283.64 189.871 283.268 189.797C282.896 189.723 282.555 189.541 282.287 189.273C282.019 189.005 281.836 188.663 281.762 188.292C281.688 187.92 281.726 187.534 281.871 187.184C282.016 186.834 282.262 186.535 282.577 186.324Z" fill="black"/>
<path d="M341.176 193.5V190.46H338.016V193.5H336.886V186.52H338.016V189.46H341.176V186.52H342.306V193.5H341.176ZM344.584 186.52H345.694V190.82C345.694 192 346.104 192.61 347.194 192.61C348.284 192.61 348.694 192 348.694 190.82V186.52H349.804V190.64C349.804 192.68 349.104 193.62 347.194 193.62C345.284 193.62 344.584 192.68 344.584 190.64V186.52ZM352.08 193.5V186.52H353.42L355.29 190.07H355.35L357.22 186.52H358.5V193.5H357.42V188.16H357.37L356.82 189.29L355.29 192.08L353.76 189.29L353.21 188.16H353.16V193.5H352.08ZM366.364 193.5H365.184L364.554 191.61H361.944L361.334 193.5H360.184L362.564 186.52H363.984L366.364 193.5ZM364.274 190.64L363.274 187.56H363.224L362.214 190.64H364.274ZM372.206 193.5L369.926 189.64L369.156 188.16H369.126V193.5H368.046V186.52H369.306L371.586 190.38L372.356 191.86H372.386V186.52H373.466V193.5H372.206ZM384.288 193.5H383.108L382.478 191.61H379.868L379.258 193.5H378.108L380.488 186.52H381.908L384.288 193.5ZM382.198 190.64L381.198 187.56H381.148L380.138 190.64H382.198ZM389.939 193.5H385.969V186.52H387.099V192.5H389.939V193.5ZM394.436 193.5H391.396V192.58H392.346V187.44H391.396V186.52H394.436V187.44H393.476V192.58H394.436V193.5ZM400.946 193.5V192.44H400.906C400.766 193.11 400.086 193.62 399.026 193.62C397.366 193.62 396.146 192.35 396.146 190.01C396.146 187.68 397.366 186.4 399.196 186.4C400.446 186.4 401.316 186.99 401.796 187.97L400.876 188.51C400.606 187.86 400.046 187.41 399.196 187.41C398.096 187.41 397.356 188.16 397.356 189.44V190.58C397.356 191.86 398.096 192.61 399.196 192.61C400.076 192.61 400.846 192.16 400.846 191.29V190.75H399.406V189.78H401.936V193.5H400.946ZM408.266 193.5L405.986 189.64L405.216 188.16H405.186V193.5H404.106V186.52H405.366L407.646 190.38L408.416 191.86H408.446V186.52H409.526V193.5H408.266ZM411.845 193.5V186.52H413.185L415.055 190.07H415.115L416.985 186.52H418.265V193.5H417.185V188.16H417.135L416.585 189.29L415.055 192.08L413.525 189.29L412.975 188.16H412.925V193.5H411.845ZM425.06 193.5H420.59V186.52H425.06V187.52H421.72V189.46H424.75V190.46H421.72V192.5H425.06V193.5ZM431.277 193.5L428.997 189.64L428.227 188.16H428.197V193.5H427.117V186.52H428.377L430.657 190.38L431.427 191.86H431.457V186.52H432.537V193.5H431.277ZM436.316 193.5V187.52H434.236V186.52H439.526V187.52H437.446V193.5H436.316ZM339.022 205.734V209.5H337.174V199.728H341.584C343.362 199.728 344.468 200.904 344.468 202.752C344.468 204.096 343.852 205.118 342.648 205.524L344.65 209.5H342.592L340.772 205.734H339.022ZM339.022 204.18H341.402C342.116 204.18 342.55 203.788 342.55 203.074V202.43C342.55 201.716 342.116 201.338 341.402 201.338H339.022V204.18ZM352.169 209.5H346.471V199.728H348.319V207.862H352.169V209.5ZM359.693 209.5V205.37H355.619V209.5H353.771V199.728H355.619V203.732H359.693V199.728H361.541V209.5H359.693ZM365.682 209.5H363.834V199.728H370.12V201.366H365.682V203.732H369.546V205.37H365.682V209.5ZM376.917 209.668C375.433 209.668 374.593 208.814 374.593 207.512C374.593 206.014 375.727 205.272 377.715 205.272H378.961V204.74C378.961 203.928 378.555 203.452 377.603 203.452C376.763 203.452 376.287 203.872 375.937 204.376L374.873 203.424C375.405 202.584 376.259 202.024 377.729 202.024C379.703 202.024 380.753 202.962 380.753 204.628V208.072H381.481V209.5H380.487C379.717 209.5 379.241 208.996 379.129 208.24H379.045C378.807 209.178 378.009 209.668 376.917 209.668ZM377.519 208.366C378.317 208.366 378.961 208.002 378.961 207.316V206.35H377.813C376.875 206.35 376.413 206.672 376.413 207.246V207.484C376.413 208.072 376.819 208.366 377.519 208.366ZM384.723 209.5H382.931V202.192H384.723V203.41H384.793C385.087 202.626 385.703 202.024 386.837 202.024C388.335 202.024 389.175 203.06 389.175 204.88V209.5H387.383V205.062C387.383 204.026 387.033 203.494 386.179 203.494C385.437 203.494 384.723 203.886 384.723 204.67V209.5ZM395.697 209.5V208.282H395.627C395.361 209.108 394.577 209.668 393.611 209.668C391.777 209.668 390.755 208.282 390.755 205.832C390.755 203.396 391.777 202.024 393.611 202.024C394.577 202.024 395.375 202.556 395.627 203.396H395.697V199.14H397.489V209.5H395.697ZM394.185 208.184C395.039 208.184 395.697 207.75 395.697 206.994V204.67C395.697 203.956 395.039 203.494 394.185 203.494C393.261 203.494 392.631 204.18 392.631 205.216V206.476C392.631 207.512 393.261 208.184 394.185 208.184ZM402.977 209.5V199.728H406.533C409.081 199.728 410.747 201.366 410.747 204.614C410.747 207.862 409.081 209.5 406.533 209.5H402.977ZM404.825 207.862H406.533C407.905 207.862 408.787 207.05 408.787 205.384V203.844C408.787 202.178 407.905 201.366 406.533 201.366H404.825V207.862ZM414.477 209.5H412.629V199.728H417.025C418.831 199.728 419.923 200.946 419.923 202.752C419.923 204.572 418.831 205.776 417.025 205.776H414.477V209.5ZM414.477 201.338V204.18H416.857C417.571 204.18 418.005 203.788 418.005 203.074V202.43C418.005 201.716 417.571 201.338 416.857 201.338H414.477ZM425.434 209.668C422.872 209.668 421.178 207.918 421.178 204.614C421.178 201.31 422.872 199.56 425.434 199.56C428.01 199.56 429.69 201.31 429.69 204.614C429.69 207.918 428.01 209.668 425.434 209.668ZM425.434 208.03C426.834 208.03 427.73 207.036 427.73 205.37V203.858C427.73 202.192 426.834 201.198 425.434 201.198C424.034 201.198 423.138 202.192 423.138 203.858V205.37C423.138 207.036 424.034 208.03 425.434 208.03Z" fill="#171717"/>
<path d="M241 273.597C241 267.262 241 264.095 242.233 261.676C243.317 259.547 245.047 257.817 247.176 256.733C249.595 255.5 252.762 255.5 259.097 255.5H462.903C469.238 255.5 472.405 255.5 474.824 256.733C476.953 257.817 478.683 259.547 479.767 261.676C481 264.095 481 267.262 481 273.597V322.403C481 328.738 481 331.905 479.767 334.324C478.683 336.453 476.953 338.183 474.824 339.267C472.405 340.5 469.238 340.5 462.903 340.5H259.097C252.762 340.5 249.595 340.5 247.176 339.267C245.047 338.183 243.317 336.453 242.233 334.324C241 331.905 241 328.738 241 322.403V273.597Z" fill="#F5F5F5"/>
<path d="M241 273.597C241 267.262 241 264.095 242.233 261.676C243.317 259.547 245.047 257.817 247.176 256.733C249.595 255.5 252.762 255.5 259.097 255.5H462.903C469.238 255.5 472.405 255.5 474.824 256.733C476.953 257.817 478.683 259.547 479.767 261.676C481 264.095 481 267.262 481 273.597V322.403C481 328.738 481 331.905 479.767 334.324C478.683 336.453 476.953 338.183 474.824 339.267C472.405 340.5 469.238 340.5 462.903 340.5H259.097C252.762 340.5 249.595 340.5 247.176 339.267C245.047 338.183 243.317 336.453 242.233 334.324C241 331.905 241 328.738 241 322.403V273.597Z" stroke="#A3A3A3" stroke-dasharray="6 3"/>
<rect x="265.755" y="272.447" width="51.1063" height="51.1063" rx="15.3319" fill="#93C5FD"/>
<path fill-rule="evenodd" clip-rule="evenodd" d="M301.931 290.902C303.335 293.003 304.084 295.473 304.084 298H301.955C301.955 295.894 301.33 293.836 300.161 292.085C298.991 290.334 297.328 288.969 295.382 288.163C293.437 287.358 291.296 287.147 289.231 287.558C287.165 287.968 285.268 288.982 283.779 290.471C282.29 291.96 281.276 293.858 280.865 295.923C280.454 297.988 280.665 300.129 281.471 302.075C282.277 304.02 283.642 305.683 285.393 306.853C287.143 308.023 289.202 308.647 291.308 308.647V310.777C288.781 310.777 286.311 310.027 284.209 308.623C282.108 307.22 280.471 305.224 279.504 302.889C278.537 300.555 278.284 297.986 278.777 295.508C279.27 293.029 280.487 290.753 282.273 288.966C284.06 287.179 286.337 285.962 288.815 285.469C291.294 284.976 293.863 285.229 296.197 286.196C298.532 287.163 300.527 288.801 301.931 290.902ZM291.308 304.388C290.044 304.388 288.809 304.014 287.759 303.312C286.708 302.61 285.889 301.612 285.406 300.445C284.922 299.277 284.796 297.993 285.042 296.754C285.289 295.515 285.897 294.376 286.791 293.483C287.684 292.589 288.822 291.981 290.061 291.734C291.301 291.488 292.585 291.615 293.752 292.098C294.92 292.582 295.917 293.4 296.619 294.451C297.321 295.501 297.696 296.737 297.696 298C297.694 299.694 297.021 301.318 295.823 302.515C294.625 303.713 293.001 304.386 291.308 304.388ZM291.308 293.741C290.465 293.741 289.642 293.991 288.942 294.459C288.241 294.927 287.695 295.592 287.373 296.37C287.051 297.148 286.966 298.005 287.131 298.831C287.295 299.657 287.701 300.416 288.296 301.012C288.892 301.607 289.651 302.013 290.477 302.177C291.303 302.341 292.159 302.257 292.938 301.935C293.716 301.612 294.381 301.066 294.849 300.366C295.317 299.666 295.567 298.842 295.567 298C295.565 296.871 295.116 295.788 294.318 294.99C293.519 294.192 292.437 293.742 291.308 293.741ZM293.437 298C293.437 299.176 292.484 300.129 291.308 300.129C290.132 300.129 289.178 299.176 289.178 298C289.178 296.824 290.132 295.871 291.308 295.871C292.484 295.871 293.437 296.824 293.437 298ZM294.938 306.518L297.696 309.275L304.713 302.259L306.214 303.76L297.696 312.278L293.437 308.019L294.938 306.518Z" fill="black"/>
<path d="M338.976 294.12C337.806 294.12 337.006 293.66 336.426 292.94L337.206 292.21C337.696 292.81 338.276 293.12 339.036 293.12C339.926 293.12 340.386 292.68 340.386 292.01C340.386 291.47 340.106 291.16 339.296 291L338.676 290.89C337.326 290.64 336.636 290.01 336.636 288.9C336.636 287.66 337.596 286.9 339.076 286.9C340.126 286.9 340.896 287.28 341.436 287.97L340.646 288.67C340.286 288.2 339.786 287.9 339.016 287.9C338.216 287.9 337.756 288.23 337.756 288.84C337.756 289.42 338.116 289.67 338.866 289.82L339.486 289.95C340.876 290.22 341.506 290.84 341.506 291.95C341.506 293.25 340.576 294.12 338.976 294.12ZM349.002 294H347.822L347.192 292.11H344.582L343.972 294H342.822L345.202 287.02H346.622L349.002 294ZM346.912 291.14L345.912 288.06H345.862L344.852 291.14H346.912ZM351.813 294H350.683V287.02H355.043V288.02H351.813V289.96H354.683V290.96H351.813V294ZM361.457 294H356.987V287.02H361.457V288.02H358.117V289.96H361.147V290.96H358.117V293H361.457V294ZM364.974 294V288.02H362.894V287.02H368.184V288.02H366.104V294H364.974ZM372.705 294H371.575V291.25L369.175 287.02H370.465L372.165 290.13H372.195L373.885 287.02H375.125L372.705 291.23V294ZM384.34 294L383.69 293.29C383.34 293.64 382.73 294.12 381.67 294.12C380.22 294.12 379.43 293.27 379.43 292.18C379.43 291.18 380.09 290.65 380.85 290.22C380.41 289.75 380.06 289.2 380.06 288.58C380.06 287.64 380.82 286.9 381.97 286.9C383.05 286.9 383.82 287.51 383.82 288.44C383.82 289.35 383.13 289.87 382.3 290.35L383.66 291.82C383.85 291.34 383.95 290.79 383.98 290.25H385.47V291.17H384.79C384.69 291.68 384.53 292.14 384.33 292.52L385.7 294H384.34ZM381.97 287.77C381.49 287.77 381.11 288.08 381.11 288.55V288.63C381.11 288.97 381.34 289.3 381.75 289.75C382.31 289.44 382.77 289.07 382.77 288.58V288.5C382.77 288.03 382.45 287.77 381.97 287.77ZM381.8 293.19C382.36 293.19 382.78 292.99 383.1 292.66L381.4 290.83C380.9 291.11 380.55 291.41 380.55 292.01V292.14C380.55 292.77 381.02 293.19 381.8 293.19ZM392.384 294.12C391.214 294.12 390.414 293.66 389.834 292.94L390.614 292.21C391.104 292.81 391.684 293.12 392.444 293.12C393.334 293.12 393.794 292.68 393.794 292.01C393.794 291.47 393.514 291.16 392.704 291L392.084 290.89C390.734 290.64 390.044 290.01 390.044 288.9C390.044 287.66 391.004 286.9 392.484 286.9C393.534 286.9 394.304 287.28 394.844 287.97L394.054 288.67C393.694 288.2 393.194 287.9 392.424 287.9C391.624 287.9 391.164 288.23 391.164 288.84C391.164 289.42 391.524 289.67 392.274 289.82L392.894 289.95C394.284 290.22 394.914 290.84 394.914 291.95C394.914 293.25 393.984 294.12 392.384 294.12ZM401.34 294H396.87V287.02H401.34V288.02H398V289.96H401.03V290.96H398V293H401.34V294ZM406.018 294.12C404.198 294.12 403.088 292.85 403.088 290.51C403.088 288.17 404.198 286.9 406.018 286.9C407.228 286.9 408.038 287.44 408.508 288.48L407.558 289C407.318 288.34 406.828 287.91 406.018 287.91C404.948 287.91 404.288 288.69 404.288 289.98V291.04C404.288 292.33 404.948 293.11 406.018 293.11C406.848 293.11 407.378 292.63 407.628 291.95L408.538 292.5C408.068 293.51 407.228 294.12 406.018 294.12ZM410.296 287.02H411.406V291.32C411.406 292.5 411.816 293.11 412.906 293.11C413.996 293.11 414.406 292.5 414.406 291.32V287.02H415.516V291.14C415.516 293.18 414.816 294.12 412.906 294.12C410.996 294.12 410.296 293.18 410.296 291.14V287.02ZM418.921 291.18V294H417.791V287.02H420.801C422.051 287.02 422.821 287.83 422.821 289.12C422.821 290.11 422.351 290.8 421.461 291.06L422.971 294H421.711L420.311 291.18H418.921ZM418.921 290.23H420.721C421.291 290.23 421.631 289.92 421.631 289.36V288.88C421.631 288.32 421.291 288.01 420.721 288.01H418.921V290.23ZM427.684 294H424.644V293.08H425.594V287.94H424.644V287.02H427.684V287.94H426.724V293.08H427.684V294ZM431.106 294V288.02H429.026V287.02H434.316V288.02H432.236V294H431.106ZM438.836 294H437.706V291.25L435.306 287.02H436.596L438.296 290.13H438.326L440.016 287.02H441.256L438.836 291.23V294ZM339.022 306.234V310H337.174V300.228H341.584C343.362 300.228 344.468 301.404 344.468 303.252C344.468 304.596 343.852 305.618 342.648 306.024L344.65 310H342.592L340.772 306.234H339.022ZM339.022 304.68H341.402C342.116 304.68 342.55 304.288 342.55 303.574V302.93C342.55 302.216 342.116 301.838 341.402 301.838H339.022V304.68ZM349.108 310.168C346.952 310.168 345.664 308.67 345.664 306.332C345.664 304.022 346.91 302.524 349.052 302.524C351.334 302.524 352.384 304.204 352.384 306.206V306.794H347.526V306.976C347.526 308.026 348.128 308.74 349.304 308.74C350.186 308.74 350.718 308.32 351.166 307.746L352.132 308.824C351.53 309.65 350.466 310.168 349.108 310.168ZM349.08 303.868C348.142 303.868 347.526 304.568 347.526 305.576V305.688H350.522V305.562C350.522 304.554 350.004 303.868 349.08 303.868ZM358.496 310V308.782H358.426C358.16 309.608 357.376 310.168 356.41 310.168C354.576 310.168 353.554 308.782 353.554 306.332C353.554 303.896 354.576 302.524 356.41 302.524C357.376 302.524 358.174 303.056 358.426 303.896H358.496V299.64H360.288V310H358.496ZM356.984 308.684C357.838 308.684 358.496 308.25 358.496 307.494V305.17C358.496 304.456 357.838 303.994 356.984 303.994C356.06 303.994 355.43 304.68 355.43 305.716V306.976C355.43 308.012 356.06 308.684 356.984 308.684ZM372.383 301.866H369.611V310H367.763V301.866H364.991V300.228H372.383V301.866ZM375.822 310.168C373.666 310.168 372.378 308.67 372.378 306.332C372.378 304.022 373.624 302.524 375.766 302.524C378.048 302.524 379.098 304.204 379.098 306.206V306.794H374.24V306.976C374.24 308.026 374.842 308.74 376.018 308.74C376.9 308.74 377.432 308.32 377.88 307.746L378.846 308.824C378.244 309.65 377.18 310.168 375.822 310.168ZM375.794 303.868C374.856 303.868 374.24 304.568 374.24 305.576V305.688H377.236V305.562C377.236 304.554 376.718 303.868 375.794 303.868ZM382.481 310.168C380.997 310.168 380.157 309.314 380.157 308.012C380.157 306.514 381.291 305.772 383.279 305.772H384.525V305.24C384.525 304.428 384.119 303.952 383.167 303.952C382.327 303.952 381.851 304.372 381.501 304.876L380.437 303.924C380.969 303.084 381.823 302.524 383.293 302.524C385.267 302.524 386.317 303.462 386.317 305.128V308.572H387.045V310H386.051C385.281 310 384.805 309.496 384.693 308.74H384.609C384.371 309.678 383.573 310.168 382.481 310.168ZM383.083 308.866C383.881 308.866 384.525 308.502 384.525 307.816V306.85H383.377C382.439 306.85 381.977 307.172 381.977 307.746V307.984C381.977 308.572 382.383 308.866 383.083 308.866ZM390.287 310H388.495V302.692H390.287V303.91H390.357C390.637 303.14 391.225 302.524 392.317 302.524C393.311 302.524 394.081 303.014 394.431 303.994H394.459C394.725 303.182 395.537 302.524 396.699 302.524C398.127 302.524 398.939 303.56 398.939 305.38V310H397.147V305.562C397.147 304.512 396.769 303.994 395.971 303.994C395.271 303.994 394.613 304.386 394.613 305.17V310H392.821V305.562C392.821 304.512 392.443 303.994 391.645 303.994C390.959 303.994 390.287 304.386 390.287 305.17V310ZM401.819 301.628C401.077 301.628 400.769 301.25 400.769 300.732V300.452C400.769 299.934 401.077 299.556 401.819 299.556C402.547 299.556 402.869 299.934 402.869 300.452V300.732C402.869 301.25 402.547 301.628 401.819 301.628ZM400.923 310V302.692H402.715V310H400.923ZM406.584 310H404.792V302.692H406.584V303.91H406.654C406.948 303.126 407.564 302.524 408.698 302.524C410.196 302.524 411.036 303.56 411.036 305.38V310H409.244V305.562C409.244 304.526 408.894 303.994 408.04 303.994C407.298 303.994 406.584 304.386 406.584 305.17V310ZM419.617 310.616C419.617 312.142 418.581 312.968 415.781 312.968C413.317 312.968 412.379 312.324 412.379 311.246C412.379 310.434 412.869 309.972 413.681 309.846V309.692C413.079 309.538 412.743 309.062 412.743 308.474C412.743 307.718 413.387 307.34 414.087 307.186V307.13C413.205 306.724 412.757 305.968 412.757 305.002C412.757 303.518 413.807 302.524 415.781 302.524C416.229 302.524 416.691 302.58 417.055 302.706V302.468C417.055 301.754 417.419 301.404 418.091 301.404H419.225V302.776H417.671V302.972C418.427 303.392 418.805 304.106 418.805 305.002C418.805 306.472 417.769 307.452 415.781 307.452C415.361 307.452 414.983 307.41 414.661 307.326C414.381 307.452 414.143 307.662 414.143 307.984C414.143 308.348 414.451 308.53 415.095 308.53H417.055C418.847 308.53 419.617 309.3 419.617 310.616ZM417.937 310.826C417.937 310.364 417.601 310.084 416.691 310.084H414.199C413.933 310.28 413.821 310.546 413.821 310.84C413.821 311.4 414.241 311.736 415.361 311.736H416.257C417.419 311.736 417.937 311.442 417.937 310.826ZM415.781 306.234C416.635 306.234 417.097 305.842 417.097 305.114V304.876C417.097 304.134 416.635 303.756 415.781 303.756C414.927 303.756 414.465 304.134 414.465 304.876V305.114C414.465 305.842 414.927 306.234 415.781 306.234Z" fill="#171717"/>
<path d="M528.552 181.282C528.708 181.126 528.708 180.874 528.552 180.718L526.011 178.177C525.855 178.021 525.602 178.021 525.446 178.177C525.29 178.333 525.29 178.585 525.446 178.741L527.705 181L525.446 183.259C525.29 183.415 525.29 183.667 525.446 183.823C525.602 183.979 525.855 183.979 526.011 183.823L528.552 181.282ZM511.5 181.399L528.269 181.399L528.269 180.601L511.5 180.601L511.5 181.399Z" fill="black"/>
<rect x="537.852" y="361" width="360" height="56.5337" rx="11.3104" transform="rotate(-90 537.852 361)" fill="#E5E5E5"/>
<rect x="537.852" y="361" width="360" height="56.5337" rx="11.3104" transform="rotate(-90 537.852 361)" stroke="#171717"/>
<path d="M570.619 224.039L561.701 224.039L561.701 220.883C561.701 218.609 563.183 217.114 566.16 217.114C569.136 217.114 570.619 218.609 570.619 220.883L570.619 224.039ZM569.341 222.595L569.341 220.883C569.341 219.554 568.485 218.66 566.875 218.66L565.444 218.66C563.834 218.66 562.978 219.554 562.978 220.883L562.978 222.595L569.341 222.595ZM570.619 208.84L570.619 214.551L561.701 214.551L561.701 208.84L562.978 208.84L562.978 213.107L565.457 213.107L565.457 209.236L566.734 209.236L566.734 213.107L569.341 213.107L569.341 208.84L570.619 208.84ZM570.619 204.767L570.619 206.21L561.701 206.21L561.701 202.378C561.701 200.742 562.761 199.784 564.384 199.784C566.006 199.784 567.067 200.742 567.067 202.378L567.067 204.767L570.619 204.767ZM562.965 204.767L565.802 204.767L565.802 202.467C565.802 201.739 565.406 201.304 564.69 201.304L564.077 201.304C563.361 201.304 562.965 201.739 562.965 202.467L562.965 204.767ZM570.619 192.361L570.619 197.434L561.701 197.434L561.701 195.99L569.341 195.99L569.341 192.361L570.619 192.361ZM570.772 187.104C570.772 189.429 569.162 190.949 566.16 190.949C563.157 190.949 561.547 189.429 561.547 187.104C561.547 184.778 563.157 183.258 566.16 183.258C569.162 183.258 570.772 184.778 570.772 187.104ZM569.481 187.104C569.481 185.724 568.485 184.804 566.862 184.804L565.457 184.804C563.834 184.804 562.838 185.724 562.838 187.104C562.838 188.483 563.834 189.403 565.457 189.403L566.862 189.403C568.485 189.403 569.481 188.483 569.481 187.104ZM570.619 177.638L570.619 179.082L567.105 179.082L561.701 182.148L561.701 180.5L565.674 178.328L565.674 178.29L561.701 176.13L561.701 174.546L567.079 177.638L570.619 177.638ZM570.619 172.538L561.701 172.538L561.701 170.826L566.236 168.436L566.236 168.36L561.701 165.971L561.701 164.335L570.619 164.335L570.619 165.715L563.796 165.715L563.796 165.779L565.24 166.482L568.804 168.436L565.24 170.391L563.796 171.094L563.796 171.158L570.619 171.158L570.619 172.538ZM570.619 155.654L570.619 161.365L561.701 161.365L561.701 155.654L562.978 155.654L562.978 159.921L565.457 159.921L565.457 156.05L566.734 156.05L566.734 159.921L569.341 159.921L569.341 155.654L570.619 155.654ZM570.619 147.71L565.687 150.623L563.796 151.607L563.796 151.645L570.619 151.645L570.619 153.025L561.701 153.025L561.701 151.415L566.632 148.502L568.523 147.518L568.523 147.48L561.701 147.48L561.701 146.1L570.619 146.1L570.619 147.71ZM570.619 141.272L562.978 141.272L562.978 143.93L561.701 143.93L561.701 137.171L562.978 137.171L562.978 139.828L570.619 139.828L570.619 141.272Z" fill="#171717"/>
</svg>
