<svg width="48" height="48" viewBox="0 0 48 48" fill="none" xmlns="http://www.w3.org/2000/svg">
<path fill-rule="evenodd" clip-rule="evenodd" d="M24 43.5L26.6037 45L31.7469 36H39C39.788 36.0001 40.5682 35.845 41.2963 35.5436C42.0243 35.2421 42.6858 34.8001 43.2429 34.2429C43.8001 33.6858 44.2421 33.0243 44.5436 32.2963C44.845 31.5682 45.0001 30.788 45 30V12C45.0002 11.212 44.8452 10.4317 44.5438 9.70362C44.2423 8.97556 43.8004 8.31403 43.2432 7.75683C42.686 7.19963 42.0244 6.75769 41.2964 6.45624C40.5683 6.1548 39.788 5.99976 39 6H9C8.212 5.99976 7.43168 6.1548 6.70362 6.45624C5.97556 6.75769 5.31403 7.19963 4.75683 7.75683C4.19963 8.31403 3.75769 8.97556 3.45624 9.70362C3.1548 10.4317 2.99976 11.212 3 12V30C2.99986 30.788 3.15496 31.5682 3.45644 32.2963C3.75792 33.0243 4.19987 33.6858 4.75705 34.2429C5.31423 34.8001 5.97572 35.2421 6.70374 35.5436C7.43175 35.845 8.21203 36.0001 9 36H22.5V33H9C8.60585 33.0007 8.21544 32.9235 7.85116 32.773C7.48688 32.6225 7.15589 32.4015 6.87718 32.1228C6.59847 31.8441 6.37752 31.5131 6.22699 31.1488C6.07647 30.7846 5.99933 30.3942 6 30V12C5.99933 11.6058 6.07647 11.2154 6.22699 10.8512C6.37752 10.4869 6.59847 10.1559 6.87718 9.87718C7.15589 9.59847 7.48688 9.37752 7.85116 9.22699C8.21544 9.07647 8.60585 8.99933 9 9H39C39.3942 8.99933 39.7846 9.07647 40.1488 9.22699C40.5131 9.37752 40.8441 9.59847 41.1228 9.87718C41.4015 10.1559 41.6225 10.4869 41.773 10.8512C41.9235 11.2154 42.0007 11.6058 42 12V30C42.0007 30.3942 41.9235 30.7846 41.773 31.1488C41.6225 31.5131 41.4015 31.8441 41.1228 32.1228C40.8441 32.4015 40.5131 32.6225 40.1488 32.773C39.7846 32.9235 39.3942 33.0007 39 33H30L24 43.5ZM25.9012 15.3146C26.3928 15.107 26.9209 15 27.4545 15C27.9881 15 28.5162 15.107 29.0078 15.3146C29.4993 15.5222 29.9442 15.8262 30.3162 16.2087C31.0755 16.992 31.5 18.0401 31.5 19.131C31.5 20.2219 31.0755 21.27 30.3162 22.0533L24.0029 28.5L17.6838 22.0533C16.9246 21.27 16.5 20.2219 16.5 19.131C16.5 18.0401 16.9246 16.992 17.6838 16.2087C18.0559 15.8262 18.5008 15.5222 18.9923 15.3146C19.4839 15.107 20.012 15 20.5456 15C21.0792 15 21.6073 15.107 22.0989 15.3146C22.5904 15.5222 23.0353 15.8262 23.4074 16.2087L24.0029 16.8168L24.5927 16.2087C24.9647 15.8262 25.4097 15.5222 25.9012 15.3146Z" fill="#10B981"/>
</svg>
