<svg width="12" height="12" viewBox="0 0 12 12" fill="none" xmlns="http://www.w3.org/2000/svg">
<path d="M2.625 10.5C2.52554 10.5 2.43016 10.4605 2.35984 10.3902C2.28951 10.3199 2.25 10.2245 2.25 10.125V1.87503C2.25 1.80986 2.26697 1.74582 2.29926 1.68921C2.33155 1.6326 2.37803 1.58538 2.43412 1.55221C2.49022 1.51904 2.55399 1.50106 2.61915 1.50005C2.68431 1.49903 2.74861 1.51501 2.80571 1.54642L10.3057 5.67142C10.3646 5.70377 10.4136 5.75134 10.4478 5.80914C10.482 5.86694 10.5 5.93286 10.5 6.00001C10.5 6.06716 10.482 6.13308 10.4478 6.19088C10.4136 6.24868 10.3646 6.29625 10.3057 6.3286L2.80571 10.4536C2.75035 10.484 2.68819 10.5 2.625 10.5ZM3 2.50912V9.49083L9.3468 6.00003L3 2.50912Z" fill="#B91C1C"/>
</svg>
