<svg width="140" height="27" viewBox="0 0 140 27" fill="none" xmlns="http://www.w3.org/2000/svg">
<g clip-path="url(#clip0)">
<path d="M37.1567 5.25026H44.9541C47.6174 5.25026 49.5917 5.86993 50.8778 7.10753C52.1639 8.346 52.8061 10.2674 52.8061 12.8717V14.027C52.8061 16.6322 52.1639 18.5536 50.8778 19.7912C49.5917 21.0297 47.6174 21.6485 44.9541 21.6485H37.1567V5.252V5.25026ZM44.9541 17.7823C46.3685 17.7823 47.3548 17.4477 47.9155 16.7787C48.4763 16.1096 48.7562 15.0679 48.7562 13.6561V12.8717C48.7562 11.6428 48.4763 10.712 47.9155 10.0793C47.3557 9.44666 46.3685 9.13033 44.9541 9.13033H41.2067V17.797L44.9541 17.7831V17.7823ZM58.8953 13.6153C58.8953 10.8264 59.5982 8.66233 61.0039 7.1214C62.4079 5.58133 64.3467 4.81 66.8175 4.81C69.2962 4.81 71.2349 5.58133 72.6311 7.1214C74.0265 8.66233 74.7293 10.8264 74.7389 13.6145V13.2981C74.7389 16.1685 74.0369 18.3508 72.6311 19.8467C71.2254 21.3417 69.2875 22.0887 66.8175 22.0887C64.3371 22.0887 62.3993 21.3417 61.0039 19.8467C59.6077 18.3517 58.9049 16.1685 58.8953 13.2981V13.6145V13.6153ZM66.8167 18.4019C67.451 18.422 68.0818 18.2997 68.6627 18.044C69.1428 17.8187 69.5553 17.472 69.8621 17.0404C70.1828 16.5776 70.4038 16.0524 70.5095 15.4995C70.6352 14.8512 70.6959 14.1925 70.6881 13.5321V13.3536C70.6907 12.7096 70.6168 12.0675 70.4679 11.4409C70.344 10.8889 70.1148 10.366 69.7928 9.9008C69.4815 9.46589 69.0705 9.11193 68.5942 8.8686C68.0338 8.61433 67.4255 8.48279 66.8102 8.48279C66.1948 8.48279 65.5865 8.61433 65.0261 8.8686C64.5495 9.11126 64.1387 9.46573 63.8275 9.89993C63.5052 10.3652 63.2759 10.8885 63.1524 11.4409C63.0034 12.0675 62.9295 12.7095 62.9323 13.3536V13.5321C62.9253 14.1925 62.9851 14.8512 63.1117 15.4995C63.2165 16.0524 63.4375 16.5776 63.7591 17.0404C64.065 17.4729 64.4784 17.8187 64.9577 18.044C65.5428 18.3017 66.1785 18.4241 66.8175 18.4019H66.8167ZM84.6579 5.25026L88.2805 11.4816H89.0111L92.6338 5.25026H97.0295L92.6069 13.1473V13.6968L97.0295 21.6615H92.6347L89.012 15.3617H88.2814L84.6579 21.6623H80.2639L84.6856 13.6977V13.1473L80.263 5.25026H84.6579ZM103.504 5.25026H117.446V9.13033H107.554V11.4963H116.702V15.3755H107.554V17.797H117.446V21.6762H103.504V5.25026ZM124.679 5.25026H128.729V17.7823H139.93V21.6623H124.679V5.25026Z" fill="#121619"/>
<path d="M7.37893 0.130005L2.53426 1.5418L1.86086 2.21001L0.45166 7.04947L19.5521 26.13L24.3968 24.7225L25.0693 24.0535L26.4785 19.2105L7.37893 0.130005Z" fill="#121619"/>
<path d="M25.0693 2.21001L24.3968 1.5418L19.5521 0.130005L0.45166 19.2105L1.86086 24.0535L2.53339 24.7225L7.37806 26.13L26.4794 7.04947L25.0693 2.21001Z" fill="#121619"/>
</g>
<defs>
<clipPath id="clip0">
<rect width="139.533" height="26" fill="white" transform="translate(0.45166 0.130005)"/>
</clipPath>
</defs>
</svg>
