<svg width="672" height="512" viewBox="0 0 672 512" fill="none" xmlns="http://www.w3.org/2000/svg">
<g clip-path="url(#clip0_3108_20436)">
<rect width="672" height="512" rx="16" fill="#F5F5F5"/>
<g opacity="0.9" filter="url(#filter0_f_3108_20436)">
<ellipse cx="506.374" cy="256.286" rx="43" ry="42.5" fill="#4ADE80"/>
</g>
<g opacity="0.9" filter="url(#filter1_f_3108_20436)">
<ellipse cx="339.374" cy="153.286" rx="51" ry="50.5" fill="#FB923C"/>
</g>
<path d="M339.374 30L237 91.3521L339.374 152.768L441.748 91.4158L339.374 30Z" stroke="#171717" stroke-miterlimit="10" stroke-linecap="round" stroke-linejoin="round"/>
<path d="M339.37 152.767V276.459L441.744 215.033V91.415L339.37 152.767Z" stroke="#171717" stroke-miterlimit="10" stroke-linecap="round" stroke-linejoin="round"/>
<path d="M339.374 152.768V276.46L237 215.033V91.3518L339.374 152.768Z" stroke="#171717" stroke-miterlimit="10" stroke-linecap="round" stroke-linejoin="round"/>
<g opacity="0.9" filter="url(#filter2_f_3108_20436)">
<ellipse cx="172.374" cy="257.286" rx="47" ry="46.5" fill="#FCD34D"/>
</g>
<path d="M169.374 136L67 197.352L169.374 258.768L271.748 197.416L169.374 136Z" fill="url(#paint0_linear_3108_20436)" stroke="#171717" stroke-miterlimit="10" stroke-linecap="round" stroke-linejoin="round"/>
<path d="M169.37 258.767V382.459L271.744 321.033V197.415L169.37 258.767Z" fill="url(#paint1_linear_3108_20436)" stroke="#171717" stroke-miterlimit="10" stroke-linecap="round" stroke-linejoin="round"/>
<path d="M169.374 258.768V382.46L67 321.033V197.352L169.374 258.768Z" stroke="#171717" stroke-miterlimit="10" stroke-linecap="round" stroke-linejoin="round"/>
<g opacity="0.9" filter="url(#filter3_f_3108_20436)">
<ellipse cx="339.374" cy="356.786" rx="51" ry="50" fill="#60A5FA"/>
</g>
<path d="M503.365 134L400.991 195.352L503.365 256.768L605.738 195.416L503.365 134Z" fill="url(#paint2_linear_3108_20436)" stroke="#171717" stroke-miterlimit="10" stroke-linecap="round" stroke-linejoin="round"/>
<path d="M503.374 256.767V380.459L605.748 319.032V195.415L503.374 256.767Z" stroke="#171717" stroke-miterlimit="10" stroke-linecap="round" stroke-linejoin="round"/>
<path d="M503.365 256.767V380.459L400.991 319.033V195.352L503.365 256.767Z" fill="url(#paint3_linear_3108_20436)" stroke="#171717" stroke-miterlimit="10" stroke-linecap="round" stroke-linejoin="round"/>
<path d="M338.366 235L235.992 296.352L338.366 357.768L440.74 296.416L338.366 235Z" fill="url(#paint4_radial_3108_20436)" stroke="#171717" stroke-miterlimit="10" stroke-linecap="round" stroke-linejoin="round"/>
<path d="M338.363 357.767V481.459L440.737 420.033V296.415L338.363 357.767Z" fill="url(#paint5_linear_3108_20436)" stroke="#171717" stroke-miterlimit="10" stroke-linecap="round" stroke-linejoin="round"/>
<path d="M338.366 357.879V481.571L235.992 420.145V296.463L338.366 357.879Z" fill="url(#paint6_linear_3108_20436)" stroke="#171717" stroke-miterlimit="10" stroke-linecap="round" stroke-linejoin="round"/>
<path d="M320.356 103.422L318.925 104.248L315.869 103.366L312.705 105.193L314.257 106.943L312.863 107.748L307.285 101.196L309.007 100.202L320.356 103.422ZM314.354 102.883L309.407 101.427L309.347 101.462L311.856 104.325L314.354 102.883ZM325.716 100.327L322.03 102.455L320.915 101.811L322.066 101.146L315.834 97.5479L314.683 98.2129L313.567 97.5689L317.253 95.4409L318.368 96.0849L317.205 96.7569L323.436 100.355L324.6 99.6829L325.716 100.327ZM335.08 95.0885C332.873 96.3625 329.988 96.2505 327.151 94.6125C324.314 92.9745 324.12 91.3085 326.326 90.0345C327.793 89.1875 329.43 88.9985 331.261 89.3975L330.739 90.4265C329.648 90.1325 328.533 90.1745 327.551 90.7415C326.253 91.4905 326.399 92.4985 327.963 93.4015L329.248 94.1435C330.812 95.0465 332.558 95.1305 333.855 94.3815C334.862 93.8005 334.922 93.0935 334.401 92.4425L336.171 92.1905C336.826 93.2265 336.547 94.2415 335.08 95.0885ZM338.121 89.217L341.54 91.191L340.17 91.982L331.707 87.096L335.356 84.989C336.872 84.114 338.787 84.142 340.352 85.045C341.552 85.738 341.819 86.55 341.055 87.355L346.45 88.356L344.922 89.238L339.806 88.244L338.121 89.217ZM336.969 88.552L339.151 87.292C339.842 86.893 339.879 86.438 339.2 86.046L338.618 85.71C337.939 85.318 337.151 85.339 336.46 85.738L334.277 86.998L336.969 88.552ZM352.164 85.0571L348.478 87.1851L347.363 86.5411L348.515 85.8761L342.283 82.2781L341.131 82.9431L340.015 82.2991L343.701 80.1711L344.817 80.8151L343.653 81.4871L349.885 85.0851L351.049 84.4131L352.164 85.0571ZM356.312 82.662L349.062 78.476L346.54 79.932L345.328 79.232L351.741 75.529L352.954 76.229L350.432 77.685L357.682 81.871L356.312 82.662ZM365.518 77.347L361.832 79.475L360.717 78.831L361.869 78.166L355.637 74.568L354.485 75.233L353.37 74.589L357.055 72.461L358.171 73.105L357.007 73.777L363.239 77.375L364.403 76.703L365.518 77.347ZM371.29 74.1828C369.083 75.4568 366.197 75.3448 363.36 73.7068C360.523 72.0688 360.329 70.4028 362.536 69.1288C364.003 68.2818 365.64 68.0928 367.47 68.4918L366.949 69.5208C365.858 69.2268 364.742 69.2688 363.76 69.8358C362.463 70.5848 362.609 71.5928 364.173 72.4958L365.458 73.2378C367.022 74.1408 368.768 74.2248 370.065 73.4758C371.071 72.8948 371.132 72.1878 370.611 71.5368L372.381 71.2848C373.036 72.3208 372.757 73.3358 371.29 74.1828Z" fill="#171717"/>
<path d="M147.809 212.511L146.379 213.337L143.323 212.455L140.159 214.282L141.711 216.032L140.316 216.837L134.739 210.285L136.461 209.291L147.809 212.511ZM141.808 211.972L136.861 210.516L136.8 210.551L139.31 213.414L141.808 211.972ZM153.17 209.416L149.484 211.544L148.368 210.9L149.52 210.235L143.288 206.637L142.136 207.302L141.021 206.658L144.707 204.53L145.822 205.174L144.658 205.846L150.89 209.444L152.054 208.772L153.17 209.416ZM161.891 204.548C160.473 205.367 158.945 205.605 157.369 205.507L157.429 204.45C158.751 204.527 159.83 204.338 160.751 203.806C161.831 203.183 161.855 202.553 161.042 202.084C160.388 201.706 159.672 201.685 158.496 202.14L157.611 202.497C155.671 203.267 154.071 203.309 152.725 202.532C151.222 201.664 151.464 200.46 153.259 199.424C154.532 198.689 155.926 198.416 157.417 198.521L157.308 199.564C156.302 199.487 155.332 199.627 154.398 200.166C153.428 200.726 153.271 201.279 154.01 201.706C154.714 202.112 155.453 202.035 156.544 201.615L157.454 201.272C159.466 200.488 160.982 200.481 162.328 201.258C163.904 202.168 163.831 203.428 161.891 204.548ZM172.605 198.195L167.185 201.324L158.723 196.438L164.142 193.309L165.355 194.009L161.305 196.347L163.657 197.705L167.331 195.584L168.543 196.284L164.87 198.405L167.343 199.833L171.392 197.495L172.605 198.195ZM181.817 192.876L180.386 193.702L177.331 192.82L174.166 194.647L175.718 196.397L174.324 197.202L168.747 190.65L170.468 189.656L181.817 192.876ZM175.815 192.337L170.868 190.881L170.808 190.916L173.318 193.779L175.815 192.337ZM181.806 188.935L185.225 190.909L183.855 191.7L175.392 186.814L179.042 184.707C180.557 183.832 182.473 183.86 184.037 184.763C185.237 185.456 185.504 186.268 184.74 187.073L190.135 188.074L188.608 188.956L183.491 187.962L181.806 188.935ZM180.654 188.27L182.836 187.01C183.528 186.611 183.564 186.156 182.885 185.764L182.303 185.428C181.624 185.036 180.836 185.057 180.145 185.456L177.962 186.716L180.654 188.27ZM195.731 185.011C193.524 186.285 190.639 186.173 187.801 184.535C184.964 182.897 184.77 181.231 186.977 179.957C188.444 179.11 190.081 178.921 191.912 179.32L191.39 180.349C190.299 180.055 189.184 180.097 188.202 180.664C186.904 181.413 187.05 182.421 188.614 183.324L189.899 184.066C191.463 184.969 193.209 185.053 194.506 184.304C195.513 183.723 195.573 183.016 195.052 182.365L196.822 182.113C197.477 183.149 197.198 184.164 195.731 185.011ZM206.022 178.902L202.336 176.774L198.505 178.986L202.191 181.114L200.82 181.905L192.358 177.019L193.728 176.228L197.292 178.286L201.124 176.074L197.559 174.016L198.929 173.225L207.392 178.111L206.022 178.902Z" fill="#171717"/>
<path d="M314.266 317.175L312.835 318.001L309.78 317.119L306.615 318.946L308.167 320.696L306.773 321.501L301.196 314.949L302.917 313.955L314.266 317.175ZM308.264 316.636L303.318 315.18L303.257 315.215L305.767 318.078L308.264 316.636ZM307.58 311.263L308.925 310.486L314.139 313.496C315.57 314.322 316.806 314.462 318.128 313.699C319.449 312.936 319.207 312.222 317.776 311.396L312.563 308.386L313.909 307.609L318.904 310.493C321.377 311.921 321.668 313.069 319.352 314.406C317.037 315.743 315.048 315.575 312.575 314.147L307.58 311.263ZM326.9 309.881L319.65 305.695L317.128 307.151L315.916 306.451L322.33 302.748L323.542 303.448L321.02 304.904L328.27 309.09L326.9 309.881ZM336.002 304.794C333.795 306.068 330.825 306.019 327.976 304.374C325.126 302.729 325.042 301.014 327.248 299.74C329.455 298.466 332.425 298.515 335.275 300.16C338.124 301.805 338.209 303.52 336.002 304.794ZM334.777 304.087C336.087 303.331 336.014 302.281 334.474 301.392L333.141 300.622C331.601 299.733 329.782 299.691 328.473 300.447C327.163 301.203 327.236 302.253 328.776 303.142L330.11 303.912C331.649 304.801 333.468 304.843 334.777 304.087ZM350.348 296.343L345.535 299.122L337.072 294.236L338.442 293.445L345.692 297.631L349.136 295.643L350.348 296.343ZM359.408 291.112L357.978 291.938L354.922 291.056L351.758 292.883L353.31 294.633L351.915 295.438L346.338 288.886L348.06 287.892L359.408 291.112ZM353.407 290.573L348.46 289.117L348.399 289.152L350.909 292.015L353.407 290.573ZM361.446 289.935L352.984 285.049L356.73 282.886C358.124 282.081 359.846 282.081 361.168 282.844C362.441 283.579 362.125 284.293 361.495 284.727L361.568 284.769C362.283 284.384 363.896 284.069 365.314 284.888C366.684 285.679 366.818 286.834 365.569 287.555L361.446 289.935ZM359.07 286.981L361.64 288.465L363.993 287.107C364.696 286.701 364.744 286.225 364.053 285.826L363.641 285.588C362.95 285.189 362.125 285.217 361.422 285.623L359.07 286.981ZM355.53 284.937L357.93 286.323L360.052 285.098C360.719 284.713 360.755 284.272 360.113 283.901L359.725 283.677C359.082 283.306 358.318 283.327 357.652 283.712L355.53 284.937ZM375.586 281.772L370.166 284.901L361.703 280.015L367.123 276.886L368.335 277.586L364.286 279.924L366.638 281.282L370.312 279.161L371.524 279.861L367.85 281.982L370.324 283.41L374.373 281.072L375.586 281.772ZM382.894 277.553L378.081 280.332L369.618 275.446L370.988 274.655L378.238 278.841L381.681 276.853L382.894 277.553Z" fill="#171717"/>
<path d="M468.49 210.355L464.804 212.483L463.688 211.839L464.84 211.174L458.608 207.576L457.456 208.241L456.341 207.597L460.027 205.469L461.142 206.113L459.978 206.785L466.21 210.383L467.374 209.711L468.49 210.355ZM475.983 206.029L468.538 204.923L465.81 204.426L465.774 204.447L472.248 208.185L470.939 208.941L462.476 204.055L464.004 203.173L471.448 204.279L474.176 204.776L474.213 204.755L467.738 201.017L469.048 200.261L477.51 205.147L475.983 206.029ZM480.37 200.01L477.012 201.949L475.666 201.172L479.024 199.233L480.37 200.01ZM491.335 197.166L485.915 200.295L477.453 195.409L482.872 192.28L484.085 192.98L480.035 195.318L482.387 196.676L486.061 194.555L487.273 195.255L483.6 197.376L486.073 198.804L490.123 196.466L491.335 197.166ZM493.83 195.725L485.367 190.839L488.362 189.11C490.52 187.864 493.345 187.857 496.17 189.488C498.995 191.119 498.983 192.75 496.825 193.996L493.83 195.725ZM493.987 194.234L495.612 193.296C496.873 192.568 496.909 191.609 495.382 190.727L494.024 189.943C492.496 189.061 490.835 189.082 489.574 189.81L487.95 190.748L493.987 194.234ZM506.156 188.609L502.47 190.737L501.354 190.093L502.506 189.428L496.274 185.83L495.122 186.495L494.007 185.851L497.693 183.723L498.808 184.367L497.644 185.039L503.876 188.637L505.04 187.965L506.156 188.609ZM510.304 186.214L503.054 182.028L500.532 183.484L499.319 182.784L505.733 179.081L506.946 179.781L504.424 181.237L511.674 185.423L510.304 186.214ZM519.406 181.127C517.199 182.401 514.229 182.352 511.379 180.707C508.53 179.062 508.445 177.347 510.652 176.073C512.859 174.799 515.829 174.848 518.678 176.493C521.527 178.138 521.612 179.853 519.406 181.127ZM518.181 180.42C519.491 179.664 519.418 178.614 517.878 177.725L516.544 176.955C515.005 176.066 513.186 176.024 511.876 176.78C510.567 177.536 510.64 178.586 512.18 179.475L513.513 180.245C515.053 181.134 516.872 181.176 518.181 180.42ZM523.297 174.765L526.716 176.739L525.346 177.53L516.883 172.644L520.532 170.537C522.048 169.662 523.963 169.69 525.527 170.593C526.728 171.286 526.994 172.098 526.231 172.903L531.626 173.904L530.098 174.786L524.982 173.792L523.297 174.765ZM522.145 174.1L524.327 172.84C525.018 172.441 525.055 171.986 524.376 171.594L523.794 171.258C523.115 170.866 522.327 170.887 521.636 171.286L519.453 172.546L522.145 174.1ZM481.646 219.76L480.215 220.586L477.16 219.704L473.995 221.531L475.547 223.281L474.153 224.086L468.576 217.534L470.297 216.54L481.646 219.76ZM475.644 219.221L470.698 217.765L470.637 217.8L473.147 220.663L475.644 219.221ZM486.364 217.204C484.945 218.023 483.417 218.261 481.841 218.163L481.902 217.106C483.223 217.183 484.302 216.994 485.224 216.462C486.303 215.839 486.327 215.209 485.515 214.74C484.86 214.362 484.145 214.341 482.969 214.796L482.084 215.153C480.144 215.923 478.543 215.965 477.198 215.188C475.694 214.32 475.937 213.116 477.731 212.08C479.004 211.345 480.398 211.072 481.89 211.177L481.781 212.22C480.774 212.143 479.804 212.283 478.871 212.822C477.901 213.382 477.743 213.935 478.483 214.362C479.186 214.768 479.926 214.691 481.017 214.271L481.926 213.928C483.939 213.144 485.454 213.137 486.8 213.914C488.376 214.824 488.303 216.084 486.364 217.204ZM494.195 212.682C492.777 213.501 491.249 213.739 489.673 213.641L489.733 212.584C491.055 212.661 492.134 212.472 493.055 211.94C494.134 211.317 494.159 210.687 493.346 210.218C492.692 209.84 491.976 209.819 490.8 210.274L489.915 210.631C487.975 211.401 486.375 211.443 485.029 210.666C483.526 209.798 483.768 208.594 485.563 207.558C486.836 206.823 488.23 206.55 489.721 206.655L489.612 207.698C488.606 207.621 487.636 207.761 486.702 208.3C485.732 208.86 485.575 209.413 486.314 209.84C487.018 210.246 487.757 210.169 488.848 209.749L489.758 209.406C491.77 208.622 493.286 208.615 494.632 209.392C496.208 210.302 496.135 211.562 494.195 212.682ZM502.811 207.54L499.126 209.668L498.01 209.024L499.162 208.359L492.93 204.761L491.778 205.426L490.663 204.782L494.349 202.654L495.464 203.298L494.3 203.97L500.532 207.568L501.696 206.896L502.811 207.54ZM507.94 204.747C506.522 205.566 504.994 205.804 503.418 205.706L503.478 204.649C504.8 204.726 505.879 204.537 506.8 204.005C507.88 203.382 507.904 202.752 507.091 202.283C506.437 201.905 505.721 201.884 504.545 202.339L503.66 202.696C501.72 203.466 500.12 203.508 498.774 202.731C497.271 201.863 497.513 200.659 499.308 199.623C500.581 198.888 501.975 198.615 503.466 198.72L503.357 199.763C502.351 199.686 501.381 199.826 500.447 200.365C499.477 200.925 499.32 201.478 500.059 201.905C500.763 202.311 501.502 202.234 502.593 201.814L503.503 201.471C505.515 200.687 507.031 200.68 508.377 201.457C509.953 202.367 509.88 203.627 507.94 204.747ZM514.803 200.616L507.553 196.43L505.031 197.886L503.819 197.186L510.232 193.483L511.445 194.183L508.923 195.639L516.173 199.825L514.803 200.616ZM526.682 193.758L525.251 194.584L522.196 193.702L519.031 195.529L520.583 197.279L519.189 198.084L513.612 191.532L515.333 190.538L526.682 193.758ZM520.68 193.219L515.733 191.763L515.673 191.798L518.182 194.661L520.68 193.219ZM533.764 189.669L526.319 188.563L523.591 188.066L523.555 188.087L530.029 191.825L528.72 192.581L520.257 187.695L521.785 186.813L529.229 187.919L531.957 188.416L531.993 188.395L525.519 184.657L526.828 183.901L535.291 188.787L533.764 189.669ZM541.425 185.414C539.218 186.688 536.332 186.576 533.495 184.938C530.658 183.3 530.464 181.634 532.671 180.36C534.138 179.513 535.775 179.324 537.605 179.723L537.084 180.752C535.993 180.458 534.877 180.5 533.895 181.067C532.598 181.816 532.744 182.824 534.308 183.727L535.593 184.469C537.157 185.372 538.903 185.456 540.2 184.707C541.206 184.126 541.267 183.419 540.746 182.768L542.516 182.516C543.171 183.552 542.892 184.567 541.425 185.414ZM551.934 179.179L546.514 182.308L538.051 177.422L543.471 174.293L544.683 174.993L540.634 177.331L542.986 178.689L546.66 176.568L547.872 177.268L544.199 179.389L546.672 180.817L550.721 178.479L551.934 179.179Z" fill="#171717"/>
</g>
<rect x="0.5" y="0.5" width="671" height="511" rx="15.5" stroke="#171717"/>
<defs>
<filter id="filter0_f_3108_20436" x="396.927" y="147.338" width="218.895" height="217.895" filterUnits="userSpaceOnUse" color-interpolation-filters="sRGB">
<feFlood flood-opacity="0" result="BackgroundImageFix"/>
<feBlend mode="normal" in="SourceGraphic" in2="BackgroundImageFix" result="shape"/>
<feGaussianBlur stdDeviation="33.2237" result="effect1_foregroundBlur_3108_20436"/>
</filter>
<filter id="filter1_f_3108_20436" x="221.927" y="36.3383" width="234.895" height="233.895" filterUnits="userSpaceOnUse" color-interpolation-filters="sRGB">
<feFlood flood-opacity="0" result="BackgroundImageFix"/>
<feBlend mode="normal" in="SourceGraphic" in2="BackgroundImageFix" result="shape"/>
<feGaussianBlur stdDeviation="33.2237" result="effect1_foregroundBlur_3108_20436"/>
</filter>
<filter id="filter2_f_3108_20436" x="58.9267" y="144.338" width="226.895" height="225.895" filterUnits="userSpaceOnUse" color-interpolation-filters="sRGB">
<feFlood flood-opacity="0" result="BackgroundImageFix"/>
<feBlend mode="normal" in="SourceGraphic" in2="BackgroundImageFix" result="shape"/>
<feGaussianBlur stdDeviation="33.2237" result="effect1_foregroundBlur_3108_20436"/>
</filter>
<filter id="filter3_f_3108_20436" x="221.927" y="240.338" width="234.895" height="232.895" filterUnits="userSpaceOnUse" color-interpolation-filters="sRGB">
<feFlood flood-opacity="0" result="BackgroundImageFix"/>
<feBlend mode="normal" in="SourceGraphic" in2="BackgroundImageFix" result="shape"/>
<feGaussianBlur stdDeviation="33.2237" result="effect1_foregroundBlur_3108_20436"/>
</filter>
<linearGradient id="paint0_linear_3108_20436" x1="244" y1="197" x2="203" y2="205" gradientUnits="userSpaceOnUse">
<stop stop-color="#F5F5F5"/>
<stop offset="1" stop-color="#F5F5F5" stop-opacity="0"/>
</linearGradient>
<linearGradient id="paint1_linear_3108_20436" x1="260" y1="213.5" x2="228.5" y2="264.5" gradientUnits="userSpaceOnUse">
<stop stop-color="#F5F5F5"/>
<stop offset="1" stop-color="#F5F5F5" stop-opacity="0"/>
</linearGradient>
<linearGradient id="paint2_linear_3108_20436" x1="419.874" y1="195.786" x2="503.365" y2="256.768" gradientUnits="userSpaceOnUse">
<stop stop-color="#F5F5F5"/>
<stop offset="1" stop-color="#F5F5F5" stop-opacity="0"/>
</linearGradient>
<linearGradient id="paint3_linear_3108_20436" x1="364.374" y1="222.786" x2="460.374" y2="305.786" gradientUnits="userSpaceOnUse">
<stop stop-color="#F5F5F5"/>
<stop offset="1" stop-color="#F5F5F5" stop-opacity="0"/>
</linearGradient>
<radialGradient id="paint4_radial_3108_20436" cx="0" cy="0" r="1" gradientUnits="userSpaceOnUse" gradientTransform="translate(343 328) rotate(-93.764) scale(76.1643 127.024)">
<stop stop-color="#F5F5F5" stop-opacity="0"/>
<stop offset="1" stop-color="#F5F5F5"/>
</radialGradient>
<linearGradient id="paint5_linear_3108_20436" x1="426" y1="323.5" x2="399.5" y2="377" gradientUnits="userSpaceOnUse">
<stop stop-color="#F5F5F5"/>
<stop offset="1" stop-color="#F5F5F5" stop-opacity="0"/>
</linearGradient>
<linearGradient id="paint6_linear_3108_20436" x1="249.5" y1="318" x2="272" y2="369.5" gradientUnits="userSpaceOnUse">
<stop stop-color="#F5F5F5"/>
<stop offset="1" stop-color="#F5F5F5" stop-opacity="0"/>
</linearGradient>
<clipPath id="clip0_3108_20436">
<rect width="672" height="512" rx="16" fill="white"/>
</clipPath>
</defs>
</svg>
