<svg width="338" height="71" viewBox="0 0 338 71" fill="none" xmlns="http://www.w3.org/2000/svg">
<path d="M94.068 49.0195V21.854H101.201V31.9679H109.246V21.854H116.379V49.0195H109.246V38.237H101.201V49.0195H94.068ZM128.059 49.521C125.792 49.521 124.147 48.7548 123.124 47.2224C122.101 45.6621 121.589 43.5864 121.589 40.9952V28.1232H128.722V40.0759C128.722 41.4134 128.888 42.3046 129.22 42.7504C129.579 43.1962 130.105 43.4192 130.796 43.4192C131.459 43.4192 132.012 43.2799 132.455 43.0014C132.897 42.7228 133.339 42.249 133.782 41.5802V28.1232H140.915V49.0195H135.109L134.611 46.2614H134.445C133.616 47.2643 132.69 48.0585 131.667 48.6435C130.671 49.2286 129.469 49.521 128.059 49.521ZM153.278 57.629C151.702 57.629 150.25 57.4479 148.923 57.0857C147.597 56.7512 146.532 56.2079 145.73 55.4555C144.956 54.7035 144.569 53.7003 144.569 52.4464C144.569 50.8028 145.537 49.4653 147.472 48.4344V48.2672C146.942 47.8722 146.48 47.3921 146.103 46.8465C145.744 46.2614 145.564 45.5366 145.564 44.673C145.564 43.9486 145.772 43.2381 146.186 42.5417C146.629 41.845 147.196 41.2461 147.887 40.7446V40.5774C147.14 40.0759 146.477 39.3654 145.896 38.4457C145.343 37.4984 145.067 36.4257 145.067 35.2279C145.067 33.5002 145.481 32.0795 146.311 30.965C147.168 29.8224 148.274 28.9868 149.628 28.4574C150.983 27.9003 152.421 27.6213 153.941 27.6213C155.158 27.6213 156.264 27.7886 157.259 28.1232H164.973V33.3054H161.987C162.069 33.5563 162.139 33.8766 162.194 34.2664C162.277 34.6566 162.318 35.0606 162.318 35.4784C162.318 37.1224 161.945 38.4599 161.199 39.4908C160.452 40.4937 159.443 41.2323 158.171 41.7057C156.899 42.1795 155.49 42.4163 153.941 42.4163C153.25 42.4163 152.476 42.3188 151.619 42.1235C151.287 42.4301 151.121 42.8341 151.121 43.3355C151.121 43.7813 151.343 44.1017 151.785 44.297C152.255 44.4919 153.001 44.5893 154.024 44.5893H157.135C159.733 44.5893 161.738 45.0213 163.148 45.885C164.585 46.721 165.304 48.0999 165.304 50.0224C165.304 51.5272 164.807 52.8504 163.811 53.993C162.844 55.1352 161.461 56.0268 159.664 56.6675C157.867 57.3086 155.738 57.629 153.278 57.629ZM153.941 38.1533C154.605 38.1533 155.144 37.9166 155.559 37.4428C155.973 36.9694 156.181 36.2308 156.181 35.2279C156.181 34.2526 155.973 33.5421 155.559 33.0963C155.144 32.6228 154.605 32.3861 153.941 32.3861C153.278 32.3861 152.739 32.6228 152.324 33.0963C151.909 33.5421 151.702 34.2526 151.702 35.2279C151.702 36.2308 151.909 36.9694 152.324 37.4428C152.739 37.9166 153.278 38.1533 153.941 38.1533ZM154.439 53.1988C155.6 53.1988 156.568 53.0177 157.342 52.6555C158.116 52.321 158.503 51.8613 158.503 51.2762C158.503 50.7192 158.254 50.3708 157.757 50.2315C157.287 50.0923 156.609 50.0224 155.725 50.0224H154.107C153.278 50.0224 152.642 49.9948 152.2 49.9388C151.785 49.9112 151.426 49.8555 151.121 49.7719C150.624 50.2733 150.375 50.7748 150.375 51.2762C150.375 51.945 150.748 52.4326 151.495 52.7392C152.269 53.0457 153.25 53.1988 154.439 53.1988ZM175.917 57.629C174.34 57.629 172.889 57.4479 171.562 57.0857C170.235 56.7512 169.17 56.2079 168.369 55.4555C167.595 54.7035 167.208 53.7003 167.208 52.4464C167.208 50.8028 168.175 49.4653 170.11 48.4344V48.2672C169.58 47.8722 169.118 47.3921 168.742 46.8465C168.382 46.2614 168.203 45.5366 168.203 44.673C168.203 43.9486 168.41 43.2381 168.825 42.5417C169.267 41.845 169.834 41.2461 170.525 40.7446V40.5774C169.779 40.0759 169.115 39.3654 168.535 38.4457C167.982 37.4984 167.705 36.4257 167.705 35.2279C167.705 33.5002 168.12 32.0795 168.949 30.965C169.806 29.8224 170.912 28.9868 172.267 28.4574C173.622 27.9003 175.059 27.6213 176.58 27.6213C177.796 27.6213 178.902 27.7886 179.898 28.1232H187.611V33.3054H184.625C184.708 33.5563 184.777 33.8766 184.833 34.2664C184.915 34.6566 184.957 35.0606 184.957 35.4784C184.957 37.1224 184.584 38.4599 183.837 39.4908C183.091 40.4937 182.082 41.2323 180.81 41.7057C179.538 42.1795 178.128 42.4163 176.58 42.4163C175.889 42.4163 175.115 42.3188 174.257 42.1235C173.926 42.4301 173.76 42.8341 173.76 43.3355C173.76 43.7813 173.981 44.1017 174.423 44.297C174.894 44.4919 175.64 44.5893 176.663 44.5893H179.773C182.372 44.5893 184.376 45.0213 185.786 45.885C187.224 46.721 187.943 48.0999 187.943 50.0224C187.943 51.5272 187.445 52.8504 186.45 53.993C185.482 55.1352 184.1 56.0268 182.303 56.6675C180.506 57.3086 178.377 57.629 175.917 57.629ZM176.58 38.1533C177.243 38.1533 177.782 37.9166 178.197 37.4428C178.612 36.9694 178.819 36.2308 178.819 35.2279C178.819 34.2526 178.612 33.5421 178.197 33.0963C177.782 32.6228 177.243 32.3861 176.58 32.3861C175.917 32.3861 175.377 32.6228 174.962 33.0963C174.548 33.5421 174.34 34.2526 174.34 35.2279C174.34 36.2308 174.548 36.9694 174.962 37.4428C175.377 37.9166 175.917 38.1533 176.58 38.1533ZM177.078 53.1988C178.239 53.1988 179.206 53.0177 179.981 52.6555C180.754 52.321 181.142 51.8613 181.142 51.2762C181.142 50.7192 180.893 50.3708 180.395 50.2315C179.925 50.0923 179.248 50.0224 178.363 50.0224H176.746C175.917 50.0224 175.28 49.9948 174.838 49.9388C174.423 49.9112 174.064 49.8555 173.76 49.7719C173.262 50.2733 173.013 50.7748 173.013 51.2762C173.013 51.945 173.387 52.4326 174.133 52.7392C174.907 53.0457 175.889 53.1988 177.078 53.1988ZM191.007 49.0195V28.1232H198.14V49.0195H191.007ZM194.574 25.5319C193.413 25.5319 192.472 25.2115 191.754 24.5708C191.035 23.9021 190.676 23.0242 190.676 21.9377C190.676 20.8511 191.035 19.9871 191.754 19.3464C192.472 18.6777 193.413 18.3435 194.574 18.3435C195.735 18.3435 196.675 18.6777 197.394 19.3464C198.113 19.9871 198.472 20.8511 198.472 21.9377C198.472 23.0242 198.113 23.9021 197.394 24.5708C196.675 25.2115 195.735 25.5319 194.574 25.5319ZM202.954 49.0195V28.1232H208.76L209.258 30.6304H209.424C210.253 29.8224 211.193 29.1261 212.244 28.541C213.322 27.9279 214.566 27.6213 215.976 27.6213C218.271 27.6213 219.916 28.4017 220.911 29.9621C221.934 31.4945 222.445 33.5563 222.445 36.1472V49.0195H215.312V37.0668C215.312 35.7293 215.146 34.8377 214.815 34.3919C214.483 33.9461 213.958 33.7232 213.239 33.7232C212.576 33.7232 212.022 33.8624 211.58 34.1414C211.138 34.4199 210.64 34.8101 210.087 35.3115V49.0195H202.954ZM234.639 57.629C233.063 57.629 231.612 57.4479 230.284 57.0857C228.958 56.7512 227.893 56.2079 227.091 55.4555C226.317 54.7035 225.93 53.7003 225.93 52.4464C225.93 50.8028 226.898 49.4653 228.833 48.4344V48.2672C228.303 47.8722 227.841 47.3921 227.465 46.8465C227.105 46.2614 226.925 45.5366 226.925 44.673C226.925 43.9486 227.133 43.2381 227.548 42.5417C227.99 41.845 228.557 41.2461 229.248 40.7446V40.5774C228.501 40.0759 227.838 39.3654 227.257 38.4457C226.704 37.4984 226.428 36.4257 226.428 35.2279C226.428 33.5002 226.842 32.0795 227.672 30.965C228.529 29.8224 229.635 28.9868 230.989 28.4574C232.344 27.9003 233.782 27.6213 235.302 27.6213C236.519 27.6213 237.625 27.7886 238.62 28.1232H246.333V33.3054H243.347C243.43 33.5563 243.5 33.8766 243.555 34.2664C243.638 34.6566 243.679 35.0606 243.679 35.4784C243.679 37.1224 243.306 38.4599 242.56 39.4908C241.813 40.4937 240.804 41.2323 239.532 41.7057C238.261 42.1795 236.851 42.4163 235.302 42.4163C234.611 42.4163 233.837 42.3188 232.98 42.1235C232.648 42.4301 232.483 42.8341 232.483 43.3355C232.483 43.7813 232.704 44.1017 233.146 44.297C233.616 44.4919 234.362 44.5893 235.385 44.5893H238.496C241.094 44.5893 243.099 45.0213 244.509 45.885C245.947 46.721 246.665 48.0999 246.665 50.0224C246.665 51.5272 246.168 52.8504 245.172 53.993C244.205 55.1352 242.822 56.0268 241.025 56.6675C239.228 57.3086 237.099 57.629 234.639 57.629ZM235.302 38.1533C235.966 38.1533 236.505 37.9166 236.92 37.4428C237.335 36.9694 237.542 36.2308 237.542 35.2279C237.542 34.2526 237.335 33.5421 236.92 33.0963C236.505 32.6228 235.966 32.3861 235.302 32.3861C234.639 32.3861 234.1 32.6228 233.685 33.0963C233.27 33.5421 233.063 34.2526 233.063 35.2279C233.063 36.2308 233.27 36.9694 233.685 37.4428C234.1 37.9166 234.639 38.1533 235.302 38.1533ZM235.8 53.1988C236.961 53.1988 237.929 53.0177 238.703 52.6555C239.477 52.321 239.864 51.8613 239.864 51.2762C239.864 50.7192 239.615 50.3708 239.118 50.2315C238.648 50.0923 237.97 50.0224 237.086 50.0224H235.468C234.639 50.0224 234.003 49.9948 233.561 49.9388C233.146 49.9112 232.786 49.8555 232.483 49.7719C231.985 50.2733 231.736 50.7748 231.736 51.2762C231.736 51.945 232.109 52.4326 232.856 52.7392C233.63 53.0457 234.611 53.1988 235.8 53.1988ZM258.613 49.0195V21.854H276.196V27.8723H265.746V33.0544H274.703V39.0726H265.746V49.0195H258.613ZM283.996 49.521C282.697 49.521 281.577 49.2286 280.637 48.6435C279.74 48.047 279.011 47.2264 278.522 46.2614C278.024 45.2861 277.776 44.2272 277.776 43.085C277.776 40.9115 278.661 39.2123 280.43 37.9861C282.199 36.7322 285.075 35.8966 289.056 35.4784C288.89 34.0297 287.922 33.3054 286.153 33.3054C285.406 33.3054 284.618 33.4584 283.789 33.765C282.959 34.0435 282.006 34.4755 280.927 35.0606L278.439 30.3799C279.905 29.4883 281.384 28.8057 282.876 28.3319C284.394 27.8588 285.974 27.6194 287.563 27.6213C290.272 27.6213 292.387 28.4017 293.908 29.9621C295.428 31.4945 296.189 33.9741 296.189 37.401V49.0195H290.383L289.885 47.0133H289.719C288.89 47.7657 288.005 48.3788 287.065 48.8523C286.153 49.2981 285.13 49.521 283.996 49.521ZM286.484 44.0042C287.065 44.0042 287.549 43.8788 287.936 43.6283C288.323 43.3497 288.696 43.0013 289.056 42.5835V39.7413C287.369 39.9923 286.194 40.3683 285.531 40.8697C284.895 41.3715 284.577 41.9148 284.577 42.4999C284.577 43.5028 285.213 44.0042 286.484 44.0042ZM310.211 49.521C308.248 49.521 306.479 49.089 304.903 48.2253C303.327 47.3617 302.069 46.1217 301.129 44.5057C300.217 42.8621 299.76 40.8839 299.76 38.5712C299.76 36.2588 300.272 34.2944 301.295 32.6784C302.345 31.0344 303.714 29.781 305.401 28.917C307.087 28.0534 308.911 27.6213 310.874 27.6213C312.118 27.6213 313.238 27.8166 314.234 28.2064C315.257 28.5966 316.155 29.1261 316.929 29.7948L313.612 34.3919C313.169 34.0021 312.768 33.7374 312.409 33.5981C312.052 33.4588 311.672 33.3882 311.289 33.389C309.962 33.389 308.926 33.8624 308.179 34.8101C307.432 35.7294 307.059 36.9832 307.059 38.5712C307.059 40.1595 307.446 41.4272 308.22 42.3744C308.994 43.2937 309.934 43.7537 311.04 43.7537C311.621 43.7537 312.188 43.6283 312.741 43.3773C313.307 43.1071 313.849 42.7851 314.358 42.4163L317.095 47.097C316.072 48.0166 314.939 48.6574 313.695 49.0195C312.45 49.3537 311.289 49.521 310.211 49.521ZM328.765 49.521C326.747 49.521 324.922 49.089 323.291 48.2253C321.688 47.3617 320.416 46.1217 319.476 44.5057C318.536 42.8621 318.066 40.8839 318.066 38.5712C318.066 36.3144 318.536 34.3781 319.476 32.7621C320.443 31.1181 321.688 29.8504 323.208 28.9588C324.729 28.0672 326.332 27.6213 328.019 27.6213C330.065 27.6213 331.751 28.0814 333.078 29.0006C334.433 29.8923 335.428 31.1043 336.064 32.6366C336.727 34.169 337.059 35.8686 337.059 37.7355C337.059 38.3483 337.018 38.9475 336.935 39.5326C336.88 40.0897 336.824 40.4937 336.769 40.7446H324.95C325.281 41.9985 325.876 42.8759 326.733 43.3773C327.59 43.8512 328.599 44.0879 329.76 44.0879C331.087 44.0879 332.497 43.6701 333.99 42.8341L336.313 47.097C335.207 47.877 333.963 48.4763 332.58 48.8941C331.198 49.3119 329.926 49.521 328.765 49.521ZM324.867 36.0635H331.004C331.004 35.2555 330.797 34.5592 330.382 33.9741C329.995 33.361 329.263 33.0544 328.185 33.0544C327.41 33.0544 326.719 33.2915 326.111 33.765C325.503 34.2388 325.088 35.005 324.867 36.0635Z" fill="white"/>
<path d="M75.2379 57.3863C75.6298 56.7925 75.8925 56.1222 76.0092 55.4192C76.1258 54.7157 76.0933 53.9957 75.9144 53.3061C75.6545 52.3111 75.1174 51.4833 74.3884 50.8888C74.7392 50.3072 74.9698 49.6602 75.0657 48.9863C75.2755 47.5211 74.7932 46.0577 73.7072 44.8651C72.862 43.9367 71.6664 43.4258 70.3432 43.4258C70.1893 43.4258 70.0331 43.4337 69.8734 43.4499C70.876 40.2195 71.3846 36.8537 71.3814 33.469C71.3814 15.0558 56.5688 0.127197 38.297 0.127197C20.0253 0.127197 5.21105 15.0542 5.21105 33.469C5.20785 36.845 5.71385 40.2021 6.71155 43.425H6.67635C5.35315 43.425 4.15795 43.9359 3.31275 44.8643C2.22755 46.0562 1.74445 47.5203 1.95425 48.9856C2.05005 49.6594 2.28045 50.3064 2.63155 50.888C1.90255 51.4825 1.36545 52.3103 1.10595 53.3057C0.926655 53.9953 0.894355 54.7157 1.01105 55.4192C1.12785 56.1222 1.39095 56.7929 1.78315 57.3863C1.71315 57.4956 1.64885 57.6092 1.58865 57.7252C0.934853 58.9763 0.892553 60.3899 1.46995 61.7064C2.34495 63.7016 4.51965 65.2738 8.74265 66.9608C11.3683 68.0106 13.7732 68.6813 13.7944 68.6877C17.2676 69.5955 20.4085 70.0567 23.1278 70.0567C27.593 70.0567 30.9246 68.8257 33.0523 66.3935C36.6524 66.9691 40.3218 66.9482 43.9152 66.3315C46.0398 68.8044 49.3905 70.0567 53.8934 70.0567C56.6127 70.0567 59.7539 69.5955 63.2272 68.6877C63.2483 68.6813 65.652 68.0106 68.2789 66.9608C72.5019 65.2738 74.6766 63.7016 75.5515 61.7064C76.129 60.3899 76.0871 58.9763 75.4329 57.7252C75.373 57.608 75.3072 57.4948 75.2379 57.3863ZM31.5298 62.5862C31.3466 62.9093 31.1505 63.2246 30.9414 63.5311C30.3914 64.3427 29.6679 64.9625 28.8286 65.4237C27.2231 66.3055 25.1917 66.614 23.1274 66.614C19.8671 66.614 16.5246 65.8451 14.6509 65.355C14.5589 65.331 3.16705 62.0883 4.60935 59.3282C4.85205 58.8642 5.25175 58.6788 5.75445 58.6788C7.78505 58.6788 11.4827 61.7262 13.0721 61.7262C13.4268 61.7262 13.6773 61.5735 13.7795 61.2022C14.4568 58.7541 3.48615 57.7252 4.41005 54.1807C4.57325 53.5534 5.01525 53.299 5.63735 53.299C8.32175 53.2986 14.3475 58.0566 15.6077 58.0566C15.7044 58.0566 15.7737 58.0282 15.8113 57.9682L15.8277 57.941C16.4189 56.9567 16.0799 56.241 12.0272 53.7397L11.6381 53.501C7.17905 50.7807 4.04875 49.1442 5.82915 47.1912C6.03395 46.9656 6.32405 46.8657 6.67675 46.8657C7.09525 46.8657 7.60145 47.007 8.15895 47.2433C10.5141 48.2442 13.7783 50.974 15.1419 52.1647C15.5439 52.5174 15.7808 52.7328 15.7808 52.7328C15.7808 52.7328 17.5072 54.5421 18.5513 54.5421C18.7917 54.5421 18.9953 54.4471 19.1334 54.2107C19.8741 52.953 12.2578 47.1368 11.8283 44.7372C11.5375 43.111 12.0327 42.2876 12.9492 42.2876C13.3845 42.2876 13.9161 42.4742 14.503 42.8494C16.3234 44.0141 19.8381 50.1009 21.1249 52.4685C21.5564 53.2623 22.2927 53.5976 22.9563 53.5976C24.2729 53.5976 25.3021 52.2787 23.0769 50.6027C19.7324 48.0805 20.9061 43.9584 22.5022 43.7048C22.5703 43.6941 22.6392 43.6886 22.7077 43.6882C24.1593 43.6882 24.7998 46.2092 24.7998 46.2092C24.7998 46.2092 26.6762 50.9586 29.9001 54.2048C32.8256 57.1516 33.234 59.57 31.5298 62.5862ZM41.9547 63.1425L41.7875 63.1626L41.5021 63.1958C41.3522 63.2112 41.2022 63.2262 41.0515 63.2404L40.9043 63.2538L40.7704 63.2652L40.5798 63.2806C40.5097 63.2857 40.4396 63.2913 40.3696 63.2956L40.1597 63.3098L40.1135 63.3126L39.9483 63.3224L39.8782 63.326L39.6825 63.3358L39.455 63.3453L39.2483 63.3524L39.1105 63.3564H39.0409C38.9978 63.3564 38.9551 63.3587 38.9121 63.3591H38.8435C38.8005 63.3591 38.7578 63.3591 38.7147 63.3615L38.5398 63.3635H38.2947C38.1025 63.3635 37.911 63.3615 37.7196 63.3579L37.5646 63.3544C37.5207 63.3544 37.4765 63.352 37.4326 63.3508L37.2686 63.3457L37.0642 63.3378L36.8806 63.3299L36.8329 63.3279L36.6579 63.3185C36.6093 63.3157 36.5608 63.3134 36.5126 63.3102L36.3995 63.3035C36.2574 63.2944 36.1153 63.2842 35.9732 63.2731L35.8244 63.2613L35.6365 63.2451L35.4169 63.2246C35.2943 63.2131 35.1718 63.2005 35.0493 63.1867H35.0434C36.8325 59.1645 35.9278 55.4081 32.3124 51.7674C29.9416 49.3813 28.3639 45.8569 28.037 45.0832C27.3746 42.793 25.6211 40.2471 22.7097 40.2471C22.4634 40.2475 22.218 40.2672 21.9748 40.3059C20.699 40.5079 19.584 41.248 18.7886 42.3614C17.9292 41.2839 17.0934 40.4274 16.3379 39.9433C15.1986 39.2158 14.0622 38.8465 12.9543 38.8465C11.5723 38.8465 10.3364 39.4186 9.47505 40.4562L9.45355 40.4826L9.40495 40.2771L9.40305 40.2684C9.23925 39.5622 9.10165 38.8497 8.99045 38.1332C8.99045 38.1281 8.99045 38.1233 8.98805 38.1186L8.96375 37.9564C8.95065 37.8688 8.93786 37.7809 8.92546 37.6933C8.91526 37.6203 8.90505 37.5473 8.89565 37.4747C8.88625 37.4021 8.87615 37.3291 8.86745 37.2561C8.85805 37.1828 8.84945 37.1098 8.84085 37.0368C8.83265 36.9673 8.82465 36.8979 8.81695 36.8285L8.81465 36.8107C8.77935 36.4904 8.74915 36.1696 8.72385 35.8485L8.71015 35.6626C8.70615 35.6117 8.70265 35.5604 8.69955 35.5088C8.69955 35.4969 8.69795 35.4847 8.69715 35.4736L8.68435 35.2677C8.67965 35.1931 8.67605 35.1186 8.67215 35.044C8.66825 34.9698 8.66435 34.8953 8.66115 34.8203L8.65335 34.625L8.65095 34.5658L8.64515 34.3851L8.64085 34.2321C8.64085 34.1709 8.63805 34.1094 8.63695 34.0482L8.63375 33.8553C8.63295 33.791 8.63375 33.7271 8.63225 33.6627C8.63025 33.598 8.63225 33.5337 8.63225 33.469C8.63225 16.9571 21.9157 3.5702 38.3017 3.5702C54.6877 3.5702 67.9708 16.9563 67.9708 33.469V33.8553C67.9708 33.9196 67.9692 33.9843 67.9677 34.0482C67.9677 34.1019 67.9657 34.1543 67.9642 34.208C67.9642 34.2557 67.9622 34.3031 67.9602 34.3492C67.9602 34.4096 67.9567 34.4696 67.9548 34.5299V34.5351C67.9497 34.666 67.9442 34.797 67.9387 34.928L67.9364 34.9714L67.9262 35.1671L67.9168 35.3221C67.8949 35.6895 67.8663 36.0568 67.8314 36.4233V36.4284C67.8252 36.4971 67.8181 36.5661 67.8107 36.6348C67.7935 36.7945 67.7758 36.9543 67.7582 37.1141L67.7383 37.2747L67.7136 37.4633C67.705 37.5323 67.6956 37.601 67.6858 37.6696C67.6752 37.7465 67.6639 37.8231 67.6529 37.8996L67.6255 38.0803L67.5934 38.2855C67.5825 38.3537 67.5715 38.4216 67.5586 38.4898C67.5453 38.5577 67.5351 38.6256 67.5233 38.6938C67.4998 38.8295 67.4756 38.9649 67.4493 39.1002C67.3973 39.3696 67.3429 39.6383 67.2853 39.9066C67.2708 39.9733 67.256 40.0403 67.2407 40.107C66.4057 39.2892 65.3001 38.8437 64.0802 38.8437C62.9735 38.8437 61.8358 39.2126 60.697 39.9405C59.9411 40.4242 59.106 41.2811 58.2459 42.3586C57.4493 41.2449 56.3343 40.5051 55.06 40.3027C54.8169 40.2644 54.5711 40.2447 54.3248 40.2443C51.4126 40.2443 49.6603 42.7902 48.9975 45.0805C48.669 45.8542 47.0913 49.3781 44.7178 51.7682C41.1052 55.3971 40.1934 59.1368 41.9547 63.1425ZM72.5845 55.0909L72.5727 55.126C72.5645 55.1485 72.5563 55.171 72.5473 55.1931C72.5332 55.2266 72.5183 55.2594 72.5026 55.2921C72.4647 55.3703 72.4216 55.446 72.3742 55.5186C72.3089 55.6168 72.2372 55.7107 72.1593 55.7991C72.1413 55.8196 72.1241 55.8397 72.1037 55.8599C72.0763 55.8902 72.0469 55.9198 72.018 55.9494C71.4906 56.4761 70.6873 56.9373 69.7791 57.3611C69.6761 57.408 69.572 57.455 69.4663 57.5019L69.3614 57.5489C69.2913 57.58 69.2216 57.6112 69.148 57.6416C69.0764 57.6723 69.0043 57.7027 68.9323 57.7327L68.7138 57.8238C68.203 58.0357 67.6795 58.2373 67.1687 58.4369L66.9506 58.5222L66.7345 58.6074C66.5912 58.6638 66.4495 58.7202 66.3097 58.7766L66.1019 58.8611L65.8979 58.9455L65.7973 58.9877C65.7307 59.0161 65.665 59.0437 65.6 59.0721C64.0975 59.7215 63.017 60.3824 63.244 61.2026C63.2503 61.2259 63.2573 61.248 63.2652 61.2693C63.2855 61.33 63.3133 61.3876 63.3478 61.4413C63.3681 61.4737 63.3916 61.504 63.4178 61.5316C63.6848 61.811 64.1707 61.7668 64.7833 61.5451C64.8331 61.5269 64.8839 61.5076 64.9352 61.4871C64.9705 61.4737 65.0053 61.4594 65.0405 61.4452L65.0934 61.4228C65.2335 61.3628 65.3819 61.2961 65.5338 61.2231C65.5718 61.2054 65.6102 61.188 65.6485 61.1675C66.3974 60.7986 67.2466 60.3011 68.089 59.8486C68.2182 59.778 68.3478 59.7105 68.4766 59.6434C68.6872 59.5333 68.8998 59.4272 69.1143 59.3258C69.9122 58.9479 70.6619 58.6796 71.2652 58.6796C71.5478 58.6796 71.798 58.738 72.0058 58.8721L72.0407 58.8954C72.146 58.9703 72.2376 59.0623 72.3124 59.168C72.3296 59.1929 72.3476 59.2185 72.3629 59.2449C72.3793 59.2722 72.395 59.3002 72.4099 59.3286C72.7078 59.8983 72.4584 60.4889 71.8751 61.0677C71.3149 61.6232 70.4434 62.168 69.4526 62.6726C69.3794 62.7101 69.3054 62.7476 69.231 62.7839C66.2827 64.2429 62.4227 65.3416 62.3687 65.3554C61.3398 65.6241 59.8686 65.9772 58.2115 66.2412L57.966 66.2794L57.9261 66.2854C57.5503 66.3422 57.1733 66.3923 56.7955 66.4357L56.7606 66.4392C56.0736 66.5181 55.3689 66.5753 54.6631 66.5994H54.6525C54.3988 66.6089 54.1455 66.6132 53.8918 66.6132H53.5998C53.213 66.6077 52.8266 66.5903 52.441 66.5603C52.432 66.5603 52.4226 66.5603 52.4132 66.5584C52.2754 66.5477 52.1372 66.5347 51.9998 66.5193C51.7633 66.4937 51.5273 66.4621 51.292 66.425C51.2004 66.4096 51.1025 66.3935 51.0082 66.3769C50.9651 66.369 50.9224 66.3611 50.8797 66.3524L50.8696 66.3504C50.7337 66.3244 50.5987 66.2956 50.464 66.2644C50.3861 66.2467 50.3078 66.2289 50.2307 66.208L50.1845 66.1958C50.1461 66.1863 50.1085 66.1761 50.0709 66.1658L50.0502 66.1603L49.9292 66.1252C49.8854 66.1125 49.8419 66.0995 49.7981 66.0865L49.7824 66.0818L49.6685 66.0467C49.6254 66.0333 49.5828 66.019 49.5401 66.0052C49.5049 65.9934 49.47 65.9812 49.4348 65.9697L49.3577 65.9425C49.2833 65.9165 49.2097 65.8889 49.1361 65.8604L49.0664 65.8332L49.0088 65.8099C48.8981 65.765 48.7877 65.718 48.6784 65.6687L48.6056 65.6336L48.5935 65.6281C48.5676 65.6158 48.5422 65.6036 48.5164 65.5926C48.4659 65.5681 48.4157 65.5428 48.366 65.5172L48.3511 65.5097L48.2791 65.4714C48.1511 65.4044 48.0254 65.3326 47.9025 65.256L47.8352 65.2146C47.8003 65.1933 47.7686 65.1716 47.7353 65.1499L47.6477 65.0911C47.6159 65.0698 47.5842 65.0481 47.5533 65.0256L47.4969 64.9854C47.4374 64.9424 47.3791 64.8986 47.3215 64.8532C47.291 64.8295 47.2609 64.8051 47.2307 64.7826C47.1638 64.7285 47.0984 64.6729 47.0338 64.6157L47.0311 64.6133C46.968 64.5585 46.9066 64.5017 46.8467 64.4437L46.8435 64.4397C46.8122 64.4098 46.7817 64.3798 46.7511 64.3486C46.721 64.3174 46.6905 64.2867 46.6611 64.2555C46.6314 64.2239 46.6016 64.192 46.5726 64.1592C46.5444 64.1284 46.517 64.0973 46.4896 64.0657L46.4802 64.0551C46.3389 63.8898 46.2066 63.7166 46.0841 63.5363L46.0355 63.4641C46.0034 63.4163 45.9717 63.3682 45.9404 63.3201L45.848 63.1768C45.8026 63.107 45.7583 63.0364 45.7153 62.9654C45.6844 62.9149 45.6538 62.8644 45.6237 62.8135C45.5982 62.7701 45.5728 62.7271 45.5485 62.6845C45.5348 62.6612 45.5219 62.6375 45.509 62.6138C45.4961 62.5894 45.4808 62.5645 45.4671 62.5397L45.4452 62.5006C45.4377 62.4876 45.4354 62.4836 45.4315 62.475C45.4048 62.428 45.379 62.3803 45.3539 62.3318C45.3426 62.3108 45.3312 62.2895 45.3191 62.2686L45.2839 62.2008L45.249 62.1333L45.1817 61.9964C45.1707 61.9739 45.1602 61.9514 45.1496 61.9289C45.1265 61.8804 45.1046 61.8327 45.0826 61.7849C45.074 61.7656 45.065 61.7463 45.0572 61.7269C45.027 61.6611 44.9985 61.5944 44.9715 61.5269C44.9531 61.4823 44.9362 61.4381 44.9182 61.394C44.8677 61.2638 44.8203 61.1324 44.7769 60.9994C44.764 60.96 44.7511 60.9209 44.7397 60.8815C44.7115 60.7919 44.6861 60.7016 44.6634 60.6104C44.6356 60.5043 44.6109 60.397 44.5902 60.2893C44.5768 60.2258 44.5651 60.1618 44.5553 60.0975C44.5447 60.034 44.5357 59.9705 44.5283 59.9074C44.5122 59.7815 44.5009 59.6553 44.4942 59.5286C44.4942 59.5077 44.4923 59.4864 44.4919 59.4655C44.4899 59.4237 44.4888 59.3818 44.4884 59.34C44.4664 57.6546 45.3132 56.0335 47.1231 54.2103C50.3465 50.9645 52.2233 46.2148 52.2233 46.2148C52.2233 46.2148 52.2738 46.0155 52.3791 45.7291C52.4144 45.634 52.4512 45.5393 52.4899 45.4458C52.5342 45.3401 52.5815 45.2355 52.6324 45.133L52.6473 45.103C52.7127 44.972 52.7835 44.8446 52.8607 44.7203C52.8783 44.6915 52.8955 44.6627 52.9159 44.6343C52.973 44.5483 53.0337 44.465 53.0975 44.3841C53.1468 44.3222 53.1993 44.2622 53.2545 44.2054C53.4416 44.0113 53.655 43.8527 53.8965 43.7679L53.9271 43.758C53.9474 43.7513 53.9674 43.745 53.9881 43.7391C54.0124 43.7328 54.0367 43.7268 54.061 43.7217L54.0719 43.7197C54.1232 43.7095 54.1745 43.7024 54.2266 43.6988H54.2313C54.2583 43.6988 54.2853 43.6961 54.3131 43.6961C54.3824 43.6965 54.4513 43.702 54.5198 43.7126C54.8103 43.7588 55.087 43.9332 55.3251 44.2023L55.3572 44.2401C55.4347 44.3317 55.5051 44.4295 55.5678 44.5321C55.6148 44.6082 55.659 44.6883 55.7009 44.7724C55.7177 44.8079 55.7338 44.8402 55.7498 44.8749C55.7577 44.8927 55.7655 44.91 55.7729 44.9282C55.7886 44.9633 55.8031 44.9988 55.8175 45.0359C55.8994 45.2474 55.9628 45.4655 56.0074 45.6881C56.0548 45.9283 56.0822 46.1722 56.09 46.4172C56.0928 46.5249 56.0928 46.6338 56.09 46.7442C56.0881 46.786 56.0861 46.8283 56.083 46.8705C56.0509 47.3396 55.9495 47.8012 55.7819 48.2403C55.7651 48.2837 55.7467 48.3279 55.7295 48.3721C55.6453 48.5748 55.5474 48.7713 55.437 48.9607C55.374 49.0688 55.3059 49.1761 55.2331 49.2826L55.1884 49.3465C55.0158 49.5896 54.8232 49.8176 54.6126 50.0283C54.4051 50.2378 54.1827 50.4315 53.9474 50.6087C53.7114 50.7842 53.4902 50.9791 53.2858 51.191C52.6974 51.8136 52.5604 52.3623 52.6927 52.7786C52.7084 52.8255 52.7268 52.8717 52.7479 52.9163C52.7968 53.0129 52.8603 53.1017 52.9362 53.179L52.957 53.1999C52.9785 53.2208 53.0012 53.241 53.0243 53.2603L53.0478 53.2796C53.1049 53.3238 53.1652 53.3633 53.2283 53.3976C53.2463 53.4075 53.2631 53.4173 53.2839 53.4268C53.3704 53.4702 53.4608 53.5049 53.554 53.5313L53.5798 53.5381L53.6147 53.5475L53.6452 53.555L53.6777 53.5621L53.7102 53.5688L53.7411 53.574C53.7642 53.5783 53.7877 53.5818 53.8108 53.585L53.8335 53.5882L53.8738 53.5925L53.8989 53.5949L53.9404 53.598H53.9643L54.0073 53.6H54.1432L54.1819 53.598L54.2266 53.5953L54.281 53.5901L54.3319 53.5838C54.3432 53.5838 54.355 53.5807 54.3667 53.5787C54.546 53.5523 54.7206 53.5014 54.8858 53.4272C54.921 53.4122 54.9559 53.3956 54.988 53.3783C55.0569 53.3435 55.1238 53.3045 55.188 53.2615C55.2777 53.2023 55.3622 53.1356 55.4417 53.063L55.4969 53.0102C55.5055 53.0015 55.5145 52.9932 55.5228 52.9841C55.5768 52.9297 55.6277 52.8721 55.675 52.8117C55.7588 52.7052 55.8332 52.592 55.8978 52.4728C56.6639 51.0691 57.4669 49.6858 58.3058 48.3251L58.4209 48.1393L58.5372 47.9531C58.5955 47.8592 58.6539 47.7661 58.7122 47.6741L58.7713 47.5814L58.8891 47.3964C59.0473 47.1498 59.2058 46.906 59.3656 46.6645L59.485 46.4846C59.7246 46.1272 59.9638 45.7792 60.2002 45.4482L60.3184 45.2848C60.5757 44.9266 60.8438 44.5767 61.1222 44.235L61.233 44.1017C61.251 44.0792 61.2678 44.0575 61.2878 44.0358L61.3962 43.9091C61.4142 43.8882 61.4314 43.8677 61.4502 43.8476L61.5551 43.728L61.608 43.6704C61.6589 43.6148 61.7106 43.56 61.763 43.5055C61.7983 43.4704 61.8308 43.4349 61.8648 43.4021C62.0633 43.1974 62.2821 43.0139 62.5182 42.8549L62.5726 42.8198L62.6278 42.7843C62.6631 42.7622 62.6987 42.7409 62.7351 42.7208C63.6606 42.1917 64.4271 42.1527 64.8679 42.5969C65.1353 42.8664 65.2829 43.3126 65.275 43.9332C65.275 43.9608 65.275 43.988 65.2727 44.0164V44.0472C65.2727 44.0752 65.2703 44.104 65.2684 44.1328C65.2684 44.1679 65.2641 44.2034 65.2606 44.2386C65.257 44.2741 65.2555 44.3009 65.2519 44.3321C65.2519 44.3411 65.25 44.3502 65.2488 44.3593C65.2461 44.3869 65.2425 44.4149 65.239 44.4425C65.239 44.4512 65.239 44.4595 65.2355 44.4682C65.2316 44.5057 65.2261 44.5431 65.2194 44.5802C65.2151 44.6145 65.2097 44.6489 65.203 44.6832C65.2003 44.7029 65.1964 44.7223 65.1932 44.742C65.183 44.798 65.1697 44.8536 65.1537 44.9081C65.1235 45.0099 65.0867 45.1097 65.0433 45.2067C65.0245 45.2489 65.0045 45.2912 64.9842 45.3326C64.9419 45.4182 64.8941 45.5058 64.8417 45.5965C64.8154 45.6411 64.7884 45.6873 64.7595 45.7334L64.7156 45.8037C64.671 45.8743 64.6244 45.9457 64.5758 46.0179C64.5273 46.0901 64.4752 46.1639 64.4193 46.2384C64.3468 46.3379 64.2705 46.4392 64.1898 46.5418L64.1288 46.6196C63.9561 46.8362 63.7792 47.0492 63.5983 47.2587L63.4546 47.4224L63.3814 47.5053C63.2816 47.6177 63.1814 47.7294 63.0804 47.8402L63.0029 47.9247C62.9516 47.9807 62.8979 48.0375 62.8467 48.0939C62.7942 48.1511 62.741 48.2079 62.6877 48.2647L62.5264 48.436L62.3632 48.6076C62.3088 48.6648 62.2539 48.7228 62.1987 48.78L61.8664 49.1252C60.2789 50.7661 58.6061 52.4014 58.04 53.4209C58.0024 53.4876 57.9684 53.5558 57.9374 53.6256C57.8572 53.8111 57.8235 53.9697 57.8462 54.0979C57.8537 54.1401 57.8685 54.1807 57.8901 54.2174C57.9222 54.2731 57.9609 54.3243 58.0056 54.3701C58.0263 54.3906 58.0478 54.41 58.0713 54.4273C58.1876 54.511 58.3285 54.554 58.4714 54.5496H58.5161L58.5619 54.5465L58.6081 54.5409L58.646 54.5354C58.6511 54.535 58.6562 54.5338 58.6613 54.5327L58.6961 54.526L58.7055 54.5236L58.7439 54.5153L58.7576 54.5118L58.7987 54.5011L58.8476 54.4865C58.8797 54.4766 58.9118 54.4656 58.9447 54.4534C59.0156 54.4281 59.0849 54.3989 59.1526 54.3662C59.1698 54.3579 59.1874 54.35 59.2043 54.3409L59.2564 54.3149C59.3245 54.2802 59.3922 54.2427 59.4603 54.202C59.5147 54.1697 59.5688 54.1366 59.6228 54.1014L59.6752 54.0663C59.6925 54.0553 59.7101 54.0438 59.7273 54.0308L59.7794 53.9957L59.8068 53.9764L59.8819 53.9235C59.952 53.8746 60.0174 53.8245 60.084 53.7736L60.0898 53.7692L60.1947 53.6872C60.3384 53.5728 60.475 53.4576 60.5984 53.3491L60.6806 53.2761L60.6884 53.269L60.7311 53.2307C60.8321 53.1396 60.9221 53.0544 60.9973 52.9837L61.0278 52.9537L61.1018 52.8831L61.146 52.8397L61.1613 52.824L61.1656 52.8196C61.2032 52.7817 61.2032 52.7817 61.2408 52.7435L61.2439 52.7403L61.258 52.7277C61.2623 52.7229 61.2682 52.7182 61.2748 52.7123L61.2803 52.7072L61.2952 52.6938L61.3747 52.6231L61.4193 52.5825C61.4412 52.5636 61.4651 52.5419 61.4894 52.5186L61.543 52.4712C61.5524 52.4633 61.5618 52.4543 61.5716 52.4456L61.6276 52.3963L61.7102 52.3237L61.7536 52.2854C61.9239 52.1359 62.1314 51.9556 62.3691 51.7524L62.4665 51.6695L62.6278 51.5334L62.7922 51.3946C63.0076 51.2147 63.2393 51.0233 63.4844 50.8245L63.6453 50.6943C63.7823 50.5846 63.9232 50.4721 64.0657 50.3593C64.1229 50.3139 64.1812 50.2686 64.2407 50.2236C64.3868 50.11 64.5336 49.9967 64.6808 49.8851C65.0167 49.6294 65.3631 49.3734 65.7135 49.1236L65.8642 49.0183C65.9691 48.9449 66.0741 48.8719 66.1794 48.8005L66.2745 48.7354C66.4628 48.6076 66.6527 48.4825 66.8441 48.3602L66.9392 48.2999L67.0336 48.2407C67.1279 48.1819 67.2223 48.1235 67.3155 48.0671L67.409 48.0111L67.5965 47.901C67.658 47.8651 67.7191 47.83 67.7802 47.7953L67.8169 47.7743L67.9626 47.6943C68.0229 47.6611 68.0836 47.6292 68.1435 47.598L68.2335 47.5514L68.3204 47.5069C68.5193 47.4062 68.7217 47.3131 68.9276 47.2279C68.9558 47.2161 68.9836 47.2046 69.0114 47.1924C69.0666 47.1691 69.1214 47.1478 69.1758 47.1289C69.2302 47.1103 69.2838 47.091 69.3367 47.0721C69.3848 47.0559 69.4314 47.0409 69.4768 47.0267L69.4921 47.022C69.5164 47.0145 69.5407 47.0074 69.5649 47.0011L69.572 46.9991C69.6213 46.9849 69.6706 46.9719 69.7204 46.96H69.7243C69.7975 46.9423 69.8687 46.9273 69.9384 46.9155C69.9623 46.9115 69.9858 46.9076 70.0085 46.9044C70.0762 46.8941 70.1443 46.887 70.2124 46.8823C70.2555 46.8791 70.299 46.878 70.342 46.878H70.3749C70.4188 46.878 70.461 46.8807 70.5029 46.8851C70.5221 46.8851 70.5413 46.8886 70.5601 46.8914H70.5679C70.5867 46.8934 70.6059 46.8965 70.6243 46.9005C70.6427 46.9044 70.6615 46.9072 70.6795 46.9115H70.6858C70.7038 46.9154 70.7206 46.9206 70.7394 46.9257C70.8889 46.9663 71.0263 47.0429 71.1403 47.1486L71.1504 47.1589L71.1704 47.1786L71.19 47.1995C71.347 47.366 71.4769 47.5566 71.5748 47.7641L71.5901 47.7992C71.6234 47.8781 71.6496 47.9598 71.668 48.0434C71.7189 48.2766 71.7052 48.5196 71.6281 48.7453C71.5948 48.8435 71.5541 48.939 71.5059 49.0305L71.4738 49.0889C71.3517 49.2953 71.2076 49.4874 71.0436 49.6618L71.0083 49.6993C70.9312 49.7817 70.851 49.8618 70.7684 49.9387C70.7421 49.9636 70.7151 49.9885 70.6877 50.0133L70.6462 50.0512C70.5601 50.1281 70.472 50.2031 70.3827 50.2765C70.3671 50.2891 70.351 50.3017 70.3358 50.3151C70.2735 50.3656 70.2093 50.4169 70.1428 50.4682C69.9134 50.645 69.6796 50.8154 69.4416 50.9799C69.3015 51.0766 69.1566 51.174 69.0071 51.273C68.7283 51.4573 68.4476 51.6376 68.1642 51.8143C68.0824 51.8652 68.0002 51.9169 67.9164 51.9682C67.1463 52.4456 66.2925 52.9561 65.3819 53.5112L65.1462 53.6556C64.8883 53.8142 64.6448 53.9657 64.4157 54.1097L64.3002 54.1831L64.0818 54.3244C63.9953 54.3796 63.9111 54.434 63.8293 54.4877C63.7674 54.5275 63.7071 54.567 63.648 54.606L63.5314 54.6834C63.4746 54.7209 63.4182 54.7583 63.3619 54.7966L63.307 54.8317C63.2491 54.8708 63.1927 54.909 63.1379 54.9469L63.0483 55.0085L62.943 55.0822L62.8459 55.1505C62.6924 55.259 62.5409 55.3699 62.3906 55.4827L62.3381 55.5229C62.279 55.5679 62.2218 55.6129 62.1666 55.6567L62.0946 55.7147C61.9733 55.8129 61.8632 55.9072 61.7638 55.9972L61.7153 56.0421C61.6875 56.0678 61.6601 56.0934 61.6342 56.1187C61.6158 56.136 61.599 56.1538 61.5806 56.1712L61.5551 56.1964C61.4992 56.2528 61.4448 56.3108 61.3919 56.3704L61.3661 56.4004C61.3085 56.4674 61.2584 56.5318 61.2142 56.5945L61.1946 56.6229C61.1437 56.6979 61.0987 56.7771 61.0603 56.8596L61.047 56.8884L61.0388 56.9085L61.0321 56.9259L61.0231 56.95C61.0204 56.9582 61.0149 56.9728 61.0118 56.9855C60.9957 57.0324 60.984 57.0809 60.9761 57.1303L60.9722 57.1567L60.9691 57.1808L60.9671 57.204V57.3279C60.9671 57.3382 60.9671 57.3488 60.9695 57.3595C60.9699 57.3658 60.9707 57.3721 60.9714 57.3784C60.9714 57.3887 60.9742 57.3989 60.9754 57.4096L60.9828 57.453V57.455C60.9855 57.4688 60.9883 57.4826 60.9918 57.4964C60.9953 57.5102 60.9988 57.5256 61.0032 57.5402C61.0157 57.5848 61.031 57.6289 61.0486 57.6719C61.0486 57.6751 61.0513 57.6787 61.0525 57.6818C61.0572 57.6925 61.0615 57.7035 61.0666 57.7142C61.0858 57.7591 61.1073 57.8029 61.1308 57.8459L61.1554 57.8905L61.1813 57.9355L61.2083 57.9805C61.213 57.988 61.2181 57.9947 61.224 58.0014L61.233 58.0108L61.2424 58.0195L61.2529 58.0278C61.26 58.0329 61.2674 58.0373 61.2752 58.0416C61.2831 58.0452 61.2917 58.0491 61.3003 58.0523C61.3097 58.0554 61.3191 58.0582 61.3285 58.0606C61.5544 58.1119 62.0187 57.9233 62.6353 57.595L62.746 57.5358L62.9336 57.4329L63.0256 57.3816C63.0906 57.3461 63.1575 57.3066 63.2252 57.2676L63.3493 57.1969C64.1648 56.7239 65.1392 56.1159 66.1461 55.5225C66.2401 55.4669 66.3348 55.4117 66.4295 55.3564L66.6198 55.2341C66.7149 55.1789 66.8097 55.1245 66.9048 55.0708C67.3096 54.8388 67.7199 54.6159 68.1344 54.4025L68.3204 54.3074C68.4441 54.2458 68.5666 54.1859 68.6876 54.1275C68.9221 54.0154 69.159 53.9093 69.3982 53.8087L69.5293 53.755L69.5454 53.7487C70.2399 53.4714 70.8698 53.2998 71.3795 53.2998C71.4899 53.299 71.5999 53.308 71.7087 53.327H71.7118C71.7471 53.3333 71.7788 53.3404 71.8109 53.3487H71.8168C71.8637 53.3601 71.9099 53.3747 71.9546 53.3929C71.9902 53.4059 72.0246 53.4213 72.0579 53.4394C72.2039 53.514 72.3288 53.6241 72.422 53.7598C72.4298 53.7712 72.4373 53.7831 72.4443 53.7953C72.4788 53.8481 72.5085 53.9038 72.5328 53.9622C72.5473 53.9957 72.5606 54.0304 72.5731 54.0679C72.5856 54.1058 72.5966 54.1421 72.6079 54.1811C72.6909 54.4802 72.6827 54.7966 72.5845 55.0909Z" fill="white"/>
<path fill-rule="evenodd" clip-rule="evenodd" d="M47.9369 25.3308C48.3993 25.4957 48.7434 25.9979 49.0707 26.4753C49.513 27.1212 49.9249 27.7217 50.5567 27.3831C51.3025 26.9839 51.9136 26.3708 52.3133 25.6212C52.713 24.8718 52.883 24.0196 52.8019 23.1727C52.7416 22.5394 52.5427 21.9275 52.2194 21.3811C51.896 20.8346 51.4564 20.3672 50.9326 20.0126C50.4084 19.658 49.8125 19.425 49.1885 19.3303C48.5641 19.2357 47.9267 19.2818 47.3223 19.4653C46.5139 19.7107 45.7959 20.1919 45.2588 20.8484C44.7221 21.5048 44.3901 22.3069 44.3051 23.1534C44.2206 24 44.3869 24.8529 44.7831 25.6042C45.076 26.1593 45.7258 25.8977 46.4117 25.6212C46.9496 25.4046 47.5094 25.1789 47.9369 25.3308ZM27.824 25.3312C27.3617 25.4961 27.0171 25.9983 26.6899 26.4757C26.2475 27.1212 25.8356 27.722 25.2038 27.3835C24.6467 27.0849 24.1624 26.6651 23.7854 26.155C23.4084 25.6448 23.1485 25.057 23.024 24.4333C22.8995 23.8098 22.9136 23.1662 23.0655 22.5489C23.2178 21.9316 23.5036 21.3558 23.9025 20.8631C24.3022 20.3707 24.8049 19.9737 25.3749 19.7005C25.9449 19.4274 26.5681 19.285 27.1992 19.2836C27.8303 19.2822 28.4539 19.4219 29.0251 19.6924C29.5963 19.963 30.1009 20.3579 30.5025 20.8485C31.0397 21.5049 31.3716 22.3072 31.4566 23.1538C31.5411 24.0005 31.3748 24.8534 30.9782 25.6046C30.6846 26.1597 30.0347 25.8977 29.3488 25.6212C28.8113 25.4046 28.2515 25.1789 27.824 25.3312ZM44.8254 43.7759C48.0133 41.2446 49.1842 37.1127 49.1842 34.5672C49.1842 32.5551 47.8406 33.1883 45.6902 34.261L45.5692 34.3218C43.595 35.3069 40.9673 36.6183 38.0829 36.6183C35.198 36.6183 32.5704 35.3065 30.5969 34.3214C28.3768 33.2131 26.9843 32.518 26.9843 34.5676C26.9843 37.1932 28.23 41.505 31.6496 44.0103C32.1006 43.0871 32.7356 42.2676 33.5154 41.6032C34.2949 40.9388 35.2023 40.4441 36.1806 40.1494C36.522 40.0468 36.8736 40.639 37.2337 41.245C37.581 41.8301 37.9357 42.4282 38.297 42.4282C38.6814 42.4282 39.0596 41.8388 39.4288 41.2631C39.8144 40.6619 40.1902 40.0756 40.5539 40.1928C42.3845 40.785 43.9156 42.0692 44.8254 43.7759Z" fill="white"/>
<path fill-rule="evenodd" clip-rule="evenodd" d="M20.2014 28.9107C19.8985 29.1162 19.5583 29.2594 19.2004 29.332C18.8424 29.4046 18.4737 29.4054 18.1155 29.3344C17.7572 29.263 17.4165 29.1213 17.1127 28.9174C16.8089 28.713 16.5481 28.4506 16.3452 28.1445C16.1423 27.8387 16.0013 27.4951 15.9303 27.1345C15.8593 26.7735 15.8597 26.4018 15.9315 26.0408C16.0032 25.6802 16.145 25.3374 16.3485 25.0316C16.5521 24.7262 16.8135 24.4642 17.1177 24.2607C17.7296 23.8514 18.4775 23.7033 19.1976 23.8487C19.9177 23.9942 20.5512 24.4214 20.9593 25.0368C21.3672 25.6522 21.5168 26.4054 21.3747 27.1313C21.2326 27.8577 20.8106 28.4976 20.2014 28.9107ZM59.9027 28.9107C59.5997 29.1162 59.2595 29.2594 58.9016 29.332C58.5438 29.4046 58.1751 29.4054 57.8168 29.3344C57.4586 29.263 57.1177 29.1213 56.8139 28.9174C56.5101 28.713 56.2493 28.4506 56.0465 28.1445C55.8434 27.8387 55.7024 27.4951 55.6316 27.1345C55.5607 26.7735 55.5611 26.4018 55.6328 26.0408C55.7044 25.6802 55.8461 25.3374 56.0497 25.0316C56.2533 24.7262 56.5148 24.4642 56.819 24.2607C57.4308 23.8514 58.179 23.7033 58.8989 23.8487C59.6188 23.9942 60.2523 24.4214 60.6606 25.0368C61.0685 25.6522 61.2181 26.4054 61.076 27.1313C60.9338 27.8577 60.5118 28.4976 59.9027 28.9107Z" fill="white"/>
<path d="M44.7407 43.4074C39.646 47.5148 34.5515 45.8034 31.8344 43.7497L32.174 38.9578L41.0047 38.6155L44.7407 43.4074Z" fill="white" stroke="white"/>
</svg>
