<svg width="72" height="72" viewBox="0 0 72 72" fill="none" xmlns="http://www.w3.org/2000/svg">
<path d="M38.25 18H33.75V31.5H38.25V18Z" fill="#262626"/>
<path d="M38.25 40.5H33.75V54H38.25V40.5Z" fill="#262626"/>
<path d="M54 33.75H40.5V38.25H54V33.75Z" fill="#262626"/>
<path d="M31.5 33.75H18V38.25H31.5V33.75Z" fill="#262626"/>
<path d="M9 22.5H4.5V9C4.50125 7.80691 4.97576 6.66304 5.8194 5.8194C6.66304 4.97576 7.80691 4.50125 9 4.5H22.5V9H9V22.5Z" fill="#262626"/>
<path d="M22.5 67.5H9C7.80691 67.4987 6.66304 67.0242 5.8194 66.1806C4.97576 65.337 4.50125 64.1931 4.5 63V49.5H9V63H22.5V67.5Z" fill="#262626"/>
<path d="M63 67.5H49.5V63H63V49.5H67.5V63C67.4987 64.1931 67.0242 65.337 66.1806 66.1806C65.337 67.0242 64.1931 67.4987 63 67.5Z" fill="#262626"/>
<path d="M67.5 22.5H63V9H49.5V4.5H63C64.1931 4.50125 65.337 4.97576 66.1806 5.8194C67.0242 6.66304 67.4987 7.80691 67.5 9V22.5Z" fill="#262626"/>
</svg>
