<svg width="49" height="48" viewBox="0 0 49 48" fill="none" xmlns="http://www.w3.org/2000/svg">
<path d="M39.5 18H30.5V9C30.4987 7.80693 30.0242 6.6631 29.1805 5.81947C28.3369 4.97584 27.1931 4.50131 26 4.5H22.8008C22.0794 4.50289 21.383 4.76442 20.838 5.23709C20.293 5.70976 19.9357 6.36222 19.8308 7.07595L18.5628 15.9507L13.1972 24H3.5V45H35C37.7838 44.9969 40.4527 43.8897 42.4212 41.9212C44.3897 39.9527 45.4969 37.2838 45.5 34.5V24C45.4982 22.4092 44.8655 20.8842 43.7407 19.7593C42.6158 18.6345 41.0908 18.0018 39.5 18V18ZM12.5 42H6.5V27H12.5V42ZM42.5 34.5C42.4977 36.4884 41.7068 38.3948 40.3008 39.8008C38.8948 41.2068 36.9884 41.9977 35 42H15.5V25.9541L21.4367 17.0493L22.8008 7.5H26C26.3977 7.50032 26.7791 7.65845 27.0603 7.93969C27.3415 8.22093 27.4997 8.60227 27.5 9V21H39.5C40.2953 21.001 41.0578 21.3174 41.6202 21.8798C42.1826 22.4422 42.499 23.2047 42.5 24V34.5Z" fill="#8B5CF6"/>
</svg>
