<svg width="650" height="569" viewBox="0 0 650 569" fill="none" xmlns="http://www.w3.org/2000/svg">
<rect width="650" height="569" fill="#93C5FD"/>
<g filter="url(#filter0_dd_217_7020)">
<g clip-path="url(#clip0_217_7020)">
<rect width="376" height="198" transform="translate(137 67)" fill="#F5F5F5"/>
<path d="M155.984 82.9668H157.316V88.1268C157.316 89.5428 157.808 90.2748 159.116 90.2748C160.424 90.2748 160.916 89.5428 160.916 88.1268V82.9668H162.248V87.9108C162.248 90.3588 161.408 91.4868 159.116 91.4868C156.824 91.4868 155.984 90.3588 155.984 87.9108V82.9668ZM166.767 91.4868C165.363 91.4868 164.403 90.9348 163.707 90.0708L164.643 89.1948C165.231 89.9148 165.927 90.2868 166.839 90.2868C167.907 90.2868 168.459 89.7588 168.459 88.9548C168.459 88.3068 168.123 87.9348 167.151 87.7428L166.407 87.6108C164.787 87.3108 163.959 86.5548 163.959 85.2228C163.959 83.7348 165.111 82.8228 166.887 82.8228C168.147 82.8228 169.071 83.2788 169.719 84.1068L168.771 84.9468C168.339 84.3828 167.739 84.0228 166.815 84.0228C165.855 84.0228 165.303 84.4188 165.303 85.1508C165.303 85.8468 165.735 86.1468 166.635 86.3268L167.379 86.4828C169.047 86.8068 169.803 87.5508 169.803 88.8828C169.803 90.4428 168.687 91.4868 166.767 91.4868ZM176.794 91.3428H171.43V82.9668H176.794V84.1668H172.786V86.4948H176.422V87.6948H172.786V90.1428H176.794V91.3428ZM179.9 87.9588V91.3428H178.544V82.9668H182.156C183.656 82.9668 184.58 83.9388 184.58 85.4868C184.58 86.6748 184.016 87.5028 182.948 87.8148L184.76 91.3428H183.248L181.568 87.9588H179.9ZM179.9 86.8188H182.06C182.744 86.8188 183.152 86.4468 183.152 85.7748V85.1988C183.152 84.5268 182.744 84.1548 182.06 84.1548H179.9V86.8188Z" fill="#525252"/>
<path d="M160.094 125.049H158.42L155.36 112.485H156.962L158.312 118.533L159.356 123.231H159.392L160.562 118.533L162.146 112.485H163.874L165.404 118.533L166.574 123.213H166.628L167.708 118.533L169.13 112.485H170.678L167.456 125.049H165.782L164.144 118.785L162.992 114.177H162.956L161.768 118.785L160.094 125.049ZM172.741 125.049V111.729H174.181V117.273H174.253C174.703 116.229 175.495 115.545 176.881 115.545C178.789 115.545 179.995 116.841 179.995 119.091V125.049H178.555V119.343C178.555 117.687 177.835 116.841 176.449 116.841C175.297 116.841 174.181 117.417 174.181 118.605V125.049H172.741ZM183.872 113.583C183.26 113.583 182.99 113.259 182.99 112.773V112.539C182.99 112.053 183.26 111.729 183.872 111.729C184.484 111.729 184.754 112.053 184.754 112.539V112.773C184.754 113.259 184.484 113.583 183.872 113.583ZM183.152 125.049V115.761H184.592V125.049H183.152ZM191.288 125.265C188.678 125.265 187.148 123.375 187.148 120.405C187.148 117.435 188.678 115.545 191.288 115.545C193.124 115.545 194.222 116.445 194.762 117.723L193.556 118.335C193.214 117.381 192.422 116.823 191.288 116.823C189.578 116.823 188.696 117.993 188.696 119.613V121.197C188.696 122.817 189.578 123.987 191.288 123.987C192.458 123.987 193.304 123.429 193.808 122.367L194.852 123.069C194.258 124.401 193.052 125.265 191.288 125.265ZM197.064 125.049V111.729H198.504V117.273H198.576C199.026 116.229 199.818 115.545 201.204 115.545C203.112 115.545 204.318 116.841 204.318 119.091V125.049H202.878V119.343C202.878 117.687 202.158 116.841 200.772 116.841C199.62 116.841 198.504 117.417 198.504 118.605V125.049H197.064ZM213.349 125.049H211.909V115.761H213.349V117.471H213.439C213.763 116.589 214.609 115.761 216.121 115.761H216.679V117.201H215.833C214.285 117.201 213.349 117.867 213.349 118.749V125.049ZM222.102 125.265C219.582 125.265 217.926 123.357 217.926 120.405C217.926 117.453 219.582 115.545 222.102 115.545C224.586 115.545 226.116 117.453 226.116 120.081V120.765H219.438V121.197C219.438 122.799 220.464 124.005 222.192 124.005C223.362 124.005 224.262 123.429 224.748 122.403L225.774 123.141C225.18 124.401 223.848 125.265 222.102 125.265ZM222.102 116.751C220.536 116.751 219.438 117.939 219.438 119.559V119.685H224.568V119.487C224.568 117.849 223.578 116.751 222.102 116.751ZM231.459 125.265C229.749 125.265 228.615 124.545 227.787 123.447L228.813 122.619C229.533 123.519 230.397 124.041 231.567 124.041C232.791 124.041 233.511 123.483 233.511 122.529C233.511 121.809 233.115 121.251 231.891 121.071L231.153 120.963C229.443 120.711 228.165 120.009 228.165 118.281C228.165 116.445 229.587 115.545 231.477 115.545C232.971 115.545 233.961 116.103 234.717 117.039L233.763 117.903C233.349 117.327 232.557 116.769 231.369 116.769C230.181 116.769 229.551 117.327 229.551 118.209C229.551 119.109 230.181 119.469 231.333 119.649L232.053 119.757C234.105 120.063 234.897 120.963 234.897 122.367C234.897 124.167 233.583 125.265 231.459 125.265ZM237.621 128.649V115.761H239.061V117.273H239.133C239.619 116.103 240.573 115.545 241.851 115.545C244.173 115.545 245.631 117.435 245.631 120.405C245.631 123.375 244.173 125.265 241.851 125.265C240.573 125.265 239.691 124.689 239.133 123.537H239.061V128.649H237.621ZM241.455 123.969C243.075 123.969 244.083 122.853 244.083 121.197V119.613C244.083 117.957 243.075 116.841 241.455 116.841C240.141 116.841 239.061 117.597 239.061 118.623V122.079C239.061 123.285 240.141 123.969 241.455 123.969ZM251.752 125.265C249.268 125.265 247.558 123.357 247.558 120.405C247.558 117.453 249.268 115.545 251.752 115.545C254.236 115.545 255.946 117.453 255.946 120.405C255.946 123.357 254.236 125.265 251.752 125.265ZM251.752 123.987C253.3 123.987 254.398 123.033 254.398 121.071V119.739C254.398 117.777 253.3 116.823 251.752 116.823C250.204 116.823 249.106 117.777 249.106 119.739V121.071C249.106 123.033 250.204 123.987 251.752 123.987ZM259.934 125.049H258.494V115.761H259.934V117.273H260.006C260.456 116.229 261.248 115.545 262.634 115.545C264.542 115.545 265.748 116.841 265.748 119.091V125.049H264.308V119.343C264.308 117.687 263.588 116.841 262.202 116.841C261.05 116.841 259.934 117.417 259.934 118.605V125.049ZM271.695 125.265C269.985 125.265 268.851 124.545 268.023 123.447L269.049 122.619C269.769 123.519 270.633 124.041 271.803 124.041C273.027 124.041 273.747 123.483 273.747 122.529C273.747 121.809 273.351 121.251 272.127 121.071L271.389 120.963C269.679 120.711 268.401 120.009 268.401 118.281C268.401 116.445 269.823 115.545 271.713 115.545C273.207 115.545 274.197 116.103 274.953 117.039L273.999 117.903C273.585 117.327 272.793 116.769 271.605 116.769C270.417 116.769 269.787 117.327 269.787 118.209C269.787 119.109 270.417 119.469 271.569 119.649L272.289 119.757C274.341 120.063 275.133 120.963 275.133 122.367C275.133 124.167 273.819 125.265 271.695 125.265ZM281.348 125.265C278.828 125.265 277.172 123.357 277.172 120.405C277.172 117.453 278.828 115.545 281.348 115.545C283.832 115.545 285.362 117.453 285.362 120.081V120.765H278.684V121.197C278.684 122.799 279.71 124.005 281.438 124.005C282.608 124.005 283.508 123.429 283.994 122.403L285.02 123.141C284.426 124.401 283.094 125.265 281.348 125.265ZM281.348 116.751C279.782 116.751 278.684 117.939 278.684 119.559V119.685H283.814V119.487C283.814 117.849 282.824 116.751 281.348 116.751ZM292.349 125.049V111.729H293.789V117.273H293.861C294.347 116.103 295.301 115.545 296.579 115.545C298.901 115.545 300.359 117.435 300.359 120.405C300.359 123.375 298.901 125.265 296.579 125.265C295.301 125.265 294.419 124.689 293.861 123.537H293.789V125.049H292.349ZM296.183 123.969C297.803 123.969 298.811 122.853 298.811 121.197V119.613C298.811 117.957 297.803 116.841 296.183 116.841C294.869 116.841 293.789 117.597 293.789 118.623V122.079C293.789 123.285 294.869 123.969 296.183 123.969ZM306.463 125.265C303.943 125.265 302.287 123.357 302.287 120.405C302.287 117.453 303.943 115.545 306.463 115.545C308.947 115.545 310.477 117.453 310.477 120.081V120.765H303.799V121.197C303.799 122.799 304.825 124.005 306.553 124.005C307.723 124.005 308.623 123.429 309.109 122.403L310.135 123.141C309.541 124.401 308.209 125.265 306.463 125.265ZM306.463 116.751C304.897 116.751 303.799 117.939 303.799 119.559V119.685H308.929V119.487C308.929 117.849 307.939 116.751 306.463 116.751ZM315.819 125.265C314.109 125.265 312.975 124.545 312.147 123.447L313.173 122.619C313.893 123.519 314.757 124.041 315.927 124.041C317.151 124.041 317.871 123.483 317.871 122.529C317.871 121.809 317.475 121.251 316.251 121.071L315.513 120.963C313.803 120.711 312.525 120.009 312.525 118.281C312.525 116.445 313.947 115.545 315.837 115.545C317.331 115.545 318.321 116.103 319.077 117.039L318.123 117.903C317.709 117.327 316.917 116.769 315.729 116.769C314.541 116.769 313.911 117.327 313.911 118.209C313.911 119.109 314.541 119.469 315.693 119.649L316.413 119.757C318.465 120.063 319.257 120.963 319.257 122.367C319.257 124.167 317.943 125.265 315.819 125.265ZM325.71 125.049H323.91C322.92 125.049 322.38 124.419 322.38 123.519V117.021H320.85V115.761H321.714C322.326 115.761 322.524 115.545 322.524 114.915V113.187H323.82V115.761H325.854V117.021H323.82V123.789H325.71V125.049ZM335.572 125.265C333.862 125.265 332.728 124.545 331.9 123.447L332.926 122.619C333.646 123.519 334.51 124.041 335.68 124.041C336.904 124.041 337.624 123.483 337.624 122.529C337.624 121.809 337.228 121.251 336.004 121.071L335.266 120.963C333.556 120.711 332.278 120.009 332.278 118.281C332.278 116.445 333.7 115.545 335.59 115.545C337.084 115.545 338.074 116.103 338.83 117.039L337.876 117.903C337.462 117.327 336.67 116.769 335.482 116.769C334.294 116.769 333.664 117.327 333.664 118.209C333.664 119.109 334.294 119.469 335.446 119.649L336.166 119.757C338.218 120.063 339.01 120.963 339.01 122.367C339.01 124.167 337.696 125.265 335.572 125.265ZM347.458 125.049V123.537H347.386C347.026 124.419 346.324 125.265 344.776 125.265C342.868 125.265 341.644 123.969 341.644 121.719V115.761H343.084V121.467C343.084 123.123 343.822 123.969 345.208 123.969C346.342 123.969 347.458 123.411 347.458 122.187V115.761H348.898V125.049H347.458ZM353.584 125.049H352.144V115.761H353.584V117.273H353.656C354.07 116.319 354.718 115.545 356.158 115.545C357.382 115.545 358.498 116.103 359.002 117.435H359.038C359.38 116.427 360.28 115.545 361.864 115.545C363.754 115.545 364.888 116.841 364.888 119.091V125.049H363.448V119.343C363.448 117.705 362.818 116.841 361.414 116.841C360.28 116.841 359.236 117.417 359.236 118.605V125.049H357.796V119.343C357.796 117.687 357.166 116.841 355.798 116.841C354.664 116.841 353.584 117.417 353.584 118.605V125.049ZM369.479 125.049H368.039V115.761H369.479V117.273H369.551C369.965 116.319 370.613 115.545 372.053 115.545C373.277 115.545 374.393 116.103 374.897 117.435H374.933C375.275 116.427 376.175 115.545 377.759 115.545C379.649 115.545 380.783 116.841 380.783 119.091V125.049H379.343V119.343C379.343 117.705 378.713 116.841 377.309 116.841C376.175 116.841 375.131 117.417 375.131 118.605V125.049H373.691V119.343C373.691 117.687 373.061 116.841 371.693 116.841C370.559 116.841 369.479 117.417 369.479 118.605V125.049ZM391.494 125.049H390.684C389.622 125.049 389.19 124.401 389.082 123.537H388.992C388.596 124.671 387.606 125.265 386.31 125.265C384.348 125.265 383.196 124.185 383.196 122.457C383.196 120.711 384.456 119.739 387.156 119.739H388.992V118.821C388.992 117.507 388.272 116.787 386.796 116.787C385.68 116.787 384.942 117.327 384.438 118.173L383.574 117.363C384.078 116.373 385.194 115.545 386.868 115.545C389.1 115.545 390.432 116.715 390.432 118.677V123.789H391.494V125.049ZM386.544 124.041C387.966 124.041 388.992 123.303 388.992 122.349V120.819H387.084C385.446 120.819 384.708 121.323 384.708 122.223V122.601C384.708 123.519 385.428 124.041 386.544 124.041ZM395.169 125.049H393.729V115.761H395.169V117.471H395.259C395.583 116.589 396.429 115.761 397.941 115.761H398.499V117.201H397.653C396.105 117.201 395.169 117.867 395.169 118.749V125.049ZM401.239 113.583C400.627 113.583 400.357 113.259 400.357 112.773V112.539C400.357 112.053 400.627 111.729 401.239 111.729C401.851 111.729 402.121 112.053 402.121 112.539V112.773C402.121 113.259 401.851 113.583 401.239 113.583ZM400.519 125.049V115.761H401.959V125.049H400.519ZM411.427 125.049H404.263V123.843L409.537 117.021H404.425V115.761H411.283V116.841L405.901 123.789H411.427V125.049ZM417.044 125.265C414.524 125.265 412.868 123.357 412.868 120.405C412.868 117.453 414.524 115.545 417.044 115.545C419.528 115.545 421.058 117.453 421.058 120.081V120.765H414.38V121.197C414.38 122.799 415.406 124.005 417.134 124.005C418.304 124.005 419.204 123.429 419.69 122.403L420.716 123.141C420.122 124.401 418.79 125.265 417.044 125.265ZM417.044 116.751C415.478 116.751 414.38 117.939 414.38 119.559V119.685H419.51V119.487C419.51 117.849 418.52 116.751 417.044 116.751ZM426.401 125.265C424.691 125.265 423.557 124.545 422.729 123.447L423.755 122.619C424.475 123.519 425.339 124.041 426.509 124.041C427.733 124.041 428.453 123.483 428.453 122.529C428.453 121.809 428.057 121.251 426.833 121.071L426.095 120.963C424.385 120.711 423.107 120.009 423.107 118.281C423.107 116.445 424.529 115.545 426.419 115.545C427.913 115.545 428.903 116.103 429.659 117.039L428.705 117.903C428.291 117.327 427.499 116.769 426.311 116.769C425.123 116.769 424.493 117.327 424.493 118.209C424.493 119.109 425.123 119.469 426.275 119.649L426.995 119.757C429.047 120.063 429.839 120.963 429.839 122.367C429.839 124.167 428.525 125.265 426.401 125.265ZM160.382 148.049H158.582C157.592 148.049 157.052 147.419 157.052 146.519V140.021H155.522V138.761H156.386C156.998 138.761 157.196 138.545 157.196 137.915V136.187H158.492V138.761H160.526V140.021H158.492V146.789H160.382V148.049ZM163.021 148.049V134.729H164.461V140.273H164.533C164.983 139.229 165.775 138.545 167.161 138.545C169.069 138.545 170.275 139.841 170.275 142.091V148.049H168.835V142.343C168.835 140.687 168.115 139.841 166.729 139.841C165.577 139.841 164.461 140.417 164.461 141.605V148.049H163.021ZM176.923 148.265C174.403 148.265 172.747 146.357 172.747 143.405C172.747 140.453 174.403 138.545 176.923 138.545C179.407 138.545 180.937 140.453 180.937 143.081V143.765H174.259V144.197C174.259 145.799 175.285 147.005 177.013 147.005C178.183 147.005 179.083 146.429 179.569 145.403L180.595 146.141C180.001 147.401 178.669 148.265 176.923 148.265ZM176.923 139.751C175.357 139.751 174.259 140.939 174.259 142.559V142.685H179.389V142.487C179.389 140.849 178.399 139.751 176.923 139.751ZM195.484 148.049H194.674C193.612 148.049 193.18 147.401 193.072 146.537H192.982C192.586 147.671 191.596 148.265 190.3 148.265C188.338 148.265 187.186 147.185 187.186 145.457C187.186 143.711 188.446 142.739 191.146 142.739H192.982V141.821C192.982 140.507 192.262 139.787 190.786 139.787C189.67 139.787 188.932 140.327 188.428 141.173L187.564 140.363C188.068 139.373 189.184 138.545 190.858 138.545C193.09 138.545 194.422 139.715 194.422 141.677V146.789H195.484V148.049ZM190.534 147.041C191.956 147.041 192.982 146.303 192.982 145.349V143.819H191.074C189.436 143.819 188.698 144.323 188.698 145.223V145.601C188.698 146.519 189.418 147.041 190.534 147.041ZM201.571 148.049H199.771C198.781 148.049 198.241 147.419 198.241 146.519V140.021H196.711V138.761H197.575C198.187 138.761 198.385 138.545 198.385 137.915V136.187H199.681V138.761H201.715V140.021H199.681V146.789H201.571V148.049ZM207.903 148.049H206.103C205.113 148.049 204.573 147.419 204.573 146.519V140.021H203.043V138.761H203.907C204.519 138.761 204.717 138.545 204.717 137.915V136.187H206.013V138.761H208.047V140.021H206.013V146.789H207.903V148.049ZM218.102 148.049H217.292C216.23 148.049 215.798 147.401 215.69 146.537H215.6C215.204 147.671 214.214 148.265 212.918 148.265C210.956 148.265 209.804 147.185 209.804 145.457C209.804 143.711 211.064 142.739 213.764 142.739H215.6V141.821C215.6 140.507 214.88 139.787 213.404 139.787C212.288 139.787 211.55 140.327 211.046 141.173L210.182 140.363C210.686 139.373 211.802 138.545 213.476 138.545C215.708 138.545 217.04 139.715 217.04 141.677V146.789H218.102V148.049ZM213.152 147.041C214.574 147.041 215.6 146.303 215.6 145.349V143.819H213.692C212.054 143.819 211.316 144.323 211.316 145.223V145.601C211.316 146.519 212.036 147.041 213.152 147.041ZM223.793 148.265C221.183 148.265 219.653 146.375 219.653 143.405C219.653 140.435 221.183 138.545 223.793 138.545C225.629 138.545 226.727 139.445 227.267 140.723L226.061 141.335C225.719 140.381 224.927 139.823 223.793 139.823C222.083 139.823 221.201 140.993 221.201 142.613V144.197C221.201 145.817 222.083 146.987 223.793 146.987C224.963 146.987 225.809 146.429 226.313 145.367L227.357 146.069C226.763 147.401 225.557 148.265 223.793 148.265ZM229.57 148.049V134.729H231.01V140.273H231.082C231.532 139.229 232.324 138.545 233.71 138.545C235.618 138.545 236.824 139.841 236.824 142.091V148.049H235.384V142.343C235.384 140.687 234.664 139.841 233.278 139.841C232.126 139.841 231.01 140.417 231.01 141.605V148.049H229.57ZM243.472 148.265C240.952 148.265 239.296 146.357 239.296 143.405C239.296 140.453 240.952 138.545 243.472 138.545C245.956 138.545 247.486 140.453 247.486 143.081V143.765H240.808V144.197C240.808 145.799 241.834 147.005 243.562 147.005C244.732 147.005 245.632 146.429 246.118 145.403L247.144 146.141C246.55 147.401 245.218 148.265 243.472 148.265ZM243.472 139.751C241.906 139.751 240.808 140.939 240.808 142.559V142.685H245.938V142.487C245.938 140.849 244.948 139.751 243.472 139.751ZM255.979 148.049V146.537H255.907C255.349 147.689 254.467 148.265 253.189 148.265C250.867 148.265 249.409 146.375 249.409 143.405C249.409 140.435 250.867 138.545 253.189 138.545C254.467 138.545 255.421 139.103 255.907 140.273H255.979V134.729H257.419V148.049H255.979ZM253.585 146.969C254.899 146.969 255.979 146.285 255.979 145.079V141.623C255.979 140.597 254.899 139.841 253.585 139.841C251.965 139.841 250.957 140.957 250.957 142.613V144.197C250.957 145.853 251.965 146.969 253.585 146.969ZM265.095 151.649V138.761H266.535V140.273H266.607C267.093 139.103 268.047 138.545 269.325 138.545C271.647 138.545 273.105 140.435 273.105 143.405C273.105 146.375 271.647 148.265 269.325 148.265C268.047 148.265 267.165 147.689 266.607 146.537H266.535V151.649H265.095ZM268.929 146.969C270.549 146.969 271.557 145.853 271.557 144.197V142.613C271.557 140.957 270.549 139.841 268.929 139.841C267.615 139.841 266.535 140.597 266.535 141.623V145.079C266.535 146.285 267.615 146.969 268.929 146.969ZM281.656 148.049V146.537H281.584C281.026 147.689 280.144 148.265 278.866 148.265C276.544 148.265 275.086 146.375 275.086 143.405C275.086 140.435 276.544 138.545 278.866 138.545C280.144 138.545 281.098 139.103 281.584 140.273H281.656V134.729H283.096V148.049H281.656ZM279.262 146.969C280.576 146.969 281.656 146.285 281.656 145.079V141.623C281.656 140.597 280.576 139.841 279.262 139.841C277.642 139.841 276.634 140.957 276.634 142.613V144.197C276.634 145.853 277.642 146.969 279.262 146.969ZM286.841 148.049V140.021H285.329V138.761H286.841V136.889C286.841 135.611 287.507 134.729 288.875 134.729H290.279V135.989H288.281V138.761H290.279V140.021H288.281V148.049H286.841ZM295.976 144.305H294.59V141.353C296.552 141.263 297.74 140.363 297.74 138.851V138.599C297.74 137.375 296.894 136.583 295.616 136.583C294.23 136.583 293.402 137.483 293.114 138.689L291.782 138.185C292.232 136.637 293.42 135.269 295.67 135.269C297.884 135.269 299.288 136.601 299.288 138.671C299.288 140.975 297.56 142.055 295.976 142.361V144.305ZM295.292 148.265C294.536 148.265 294.194 147.851 294.194 147.221V146.987C294.194 146.357 294.536 145.943 295.292 145.943C296.048 145.943 296.39 146.357 296.39 146.987V147.221C296.39 147.851 296.048 148.265 295.292 148.265Z" fill="#171717"/>
<rect x="155.926" y="165.268" width="335.149" height="76.8059" rx="13.439" stroke="#D4D4D4" stroke-width="1.85143"/>
<rect x="173.126" y="179.785" width="47.8823" height="47.8823" rx="9.42995" transform="rotate(-0.130627 173.126 179.785)" fill="#93C5FD"/>
<g style="mix-blend-mode:multiply">
<path fill-rule="evenodd" clip-rule="evenodd" d="M206.905 196.88L199.817 189.824C199.614 189.622 199.412 189.521 199.109 189.522L189.005 189.545C187.894 189.548 186.986 190.459 186.989 191.57L187.044 215.819C187.047 216.93 187.958 217.837 189.07 217.835L205.235 217.798C206.347 217.795 207.254 216.884 207.251 215.773L207.21 197.586C207.209 197.283 207.108 197.081 206.905 196.88ZM199.114 191.947L204.785 197.592L199.127 197.605L199.114 191.947ZM205.231 215.777L189.065 215.814L189.01 191.566L197.092 191.547L197.106 197.609C197.109 198.721 198.02 199.628 199.132 199.626L205.194 199.612L205.231 215.777ZM203.195 209.72L191.071 209.747L191.076 211.768L203.2 211.74L203.195 209.72ZM191.057 203.685L203.182 203.658L203.186 205.678L191.062 205.706L191.057 203.685Z" fill="#171717"/>
</g>
<path d="M237.756 195.887C235.65 195.887 234.21 195.059 233.166 193.763L234.57 192.449C235.452 193.529 236.496 194.087 237.864 194.087C239.466 194.087 240.294 193.295 240.294 192.089C240.294 191.117 239.79 190.559 238.332 190.271L237.216 190.073C234.786 189.623 233.544 188.489 233.544 186.491C233.544 184.259 235.272 182.891 237.936 182.891C239.826 182.891 241.212 183.575 242.184 184.817L240.762 186.077C240.114 185.231 239.214 184.691 237.828 184.691C236.388 184.691 235.56 185.285 235.56 186.383C235.56 187.427 236.208 187.877 237.558 188.147L238.674 188.381C241.176 188.867 242.31 189.983 242.31 191.981C242.31 194.321 240.636 195.887 237.756 195.887ZM252.564 195.671H251.466C250.44 195.671 249.9 195.023 249.774 194.105H249.684C249.324 195.275 248.316 195.887 246.948 195.887C245.022 195.887 243.924 194.789 243.924 193.097C243.924 191.243 245.31 190.289 247.92 190.289H249.612V189.497C249.612 188.363 249 187.697 247.686 187.697C246.588 187.697 245.922 188.237 245.454 188.975L244.284 187.913C244.896 186.869 245.994 186.095 247.812 186.095C250.224 186.095 251.574 187.283 251.574 189.371V194.069H252.564V195.671ZM247.506 194.393C248.712 194.393 249.612 193.817 249.612 192.899V191.549H247.956C246.588 191.549 245.922 191.999 245.922 192.809V193.133C245.922 193.961 246.534 194.393 247.506 194.393ZM256.449 195.671H254.487V186.311H256.449V187.859H256.539C256.935 186.851 257.727 186.095 259.167 186.095C261.075 186.095 262.209 187.427 262.209 189.731V195.671H260.247V189.983C260.247 188.525 259.689 187.787 258.483 187.787C257.457 187.787 256.449 188.309 256.449 189.407V195.671ZM267.106 195.671H265.072V183.107H272.92V184.907H267.106V188.399H272.272V190.199H267.106V195.671ZM276.717 195.671H274.755V186.311H276.717V188.111H276.807C277.077 187.157 277.887 186.311 279.381 186.311H279.903V188.201H279.129C277.581 188.201 276.717 188.723 276.717 189.695V195.671ZM289.461 195.671H288.363C287.337 195.671 286.797 195.023 286.671 194.105H286.581C286.221 195.275 285.213 195.887 283.845 195.887C281.919 195.887 280.821 194.789 280.821 193.097C280.821 191.243 282.207 190.289 284.817 190.289H286.509V189.497C286.509 188.363 285.897 187.697 284.583 187.697C283.485 187.697 282.819 188.237 282.351 188.975L281.181 187.913C281.793 186.869 282.891 186.095 284.709 186.095C287.121 186.095 288.471 187.283 288.471 189.371V194.069H289.461V195.671ZM284.403 194.393C285.609 194.393 286.509 193.817 286.509 192.899V191.549H284.853C283.485 191.549 282.819 191.999 282.819 192.809V193.133C282.819 193.961 283.431 194.393 284.403 194.393ZM293.345 195.671H291.383V186.311H293.345V187.859H293.435C293.831 186.851 294.623 186.095 296.063 186.095C297.971 186.095 299.105 187.427 299.105 189.731V195.671H297.143V189.983C297.143 188.525 296.585 187.787 295.379 187.787C294.353 187.787 293.345 188.309 293.345 189.407V195.671ZM305.443 195.887C302.743 195.887 301.195 193.979 301.195 190.991C301.195 188.003 302.743 186.095 305.443 186.095C307.315 186.095 308.503 187.013 309.061 188.399L307.441 189.155C307.171 188.291 306.505 187.733 305.443 187.733C304.003 187.733 303.265 188.723 303.265 190.163V191.837C303.265 193.277 304.003 194.267 305.443 194.267C306.577 194.267 307.243 193.655 307.639 192.719L309.133 193.511C308.521 195.041 307.243 195.887 305.443 195.887ZM311.991 184.637C311.181 184.637 310.821 184.205 310.821 183.611V183.305C310.821 182.711 311.181 182.279 311.991 182.279C312.801 182.279 313.143 182.711 313.143 183.305V183.611C313.143 184.205 312.801 184.637 311.991 184.637ZM311.001 195.671V186.311H312.963V195.671H311.001ZM318.734 195.887C316.97 195.887 315.818 195.221 314.936 194.123L316.196 192.971C316.88 193.799 317.726 194.303 318.842 194.303C319.976 194.303 320.552 193.835 320.552 193.043C320.552 192.449 320.192 191.999 319.22 191.873L318.356 191.765C316.448 191.531 315.278 190.703 315.278 188.975C315.278 187.157 316.7 186.095 318.752 186.095C320.444 186.095 321.398 186.653 322.244 187.589L321.038 188.741C320.552 188.165 319.76 187.679 318.752 187.679C317.672 187.679 317.168 188.147 317.168 188.849C317.168 189.569 317.618 189.893 318.608 190.055L319.472 190.163C321.524 190.469 322.442 191.369 322.442 192.881C322.442 194.681 320.984 195.887 318.734 195.887ZM328.277 195.887C325.577 195.887 324.029 193.979 324.029 190.991C324.029 188.003 325.577 186.095 328.277 186.095C330.149 186.095 331.337 187.013 331.895 188.399L330.275 189.155C330.005 188.291 329.339 187.733 328.277 187.733C326.837 187.733 326.099 188.723 326.099 190.163V191.837C326.099 193.277 326.837 194.267 328.277 194.267C329.411 194.267 330.077 193.655 330.473 192.719L331.967 193.511C331.355 195.041 330.077 195.887 328.277 195.887ZM337.401 195.887C334.791 195.887 333.099 193.979 333.099 190.991C333.099 188.003 334.791 186.095 337.401 186.095C340.011 186.095 341.703 188.003 341.703 190.991C341.703 193.979 340.011 195.887 337.401 195.887ZM337.401 194.267C338.733 194.267 339.633 193.439 339.633 191.783V190.199C339.633 188.543 338.733 187.715 337.401 187.715C336.069 187.715 335.169 188.543 335.169 190.199V191.783C335.169 193.439 336.069 194.267 337.401 194.267ZM352.223 193.943V195.671H343.691V193.727L347.705 190.145C348.965 189.011 349.685 188.003 349.685 186.851V186.617C349.685 185.411 348.893 184.655 347.651 184.655C346.265 184.655 345.599 185.537 345.293 186.635L343.511 185.951C344.033 184.367 345.293 182.891 347.813 182.891C350.369 182.891 351.845 184.439 351.845 186.617C351.845 188.651 350.495 189.983 348.839 191.405L345.887 193.943H352.223ZM358.678 195.887C355.546 195.887 354.124 193.493 354.124 189.389C354.124 185.285 355.546 182.891 358.678 182.891C361.81 182.891 363.232 185.285 363.232 189.389C363.232 193.493 361.81 195.887 358.678 195.887ZM358.678 194.159C360.424 194.159 361.072 192.683 361.072 190.487V188.291C361.072 186.095 360.424 184.619 358.678 184.619C356.932 184.619 356.284 186.095 356.284 188.291V190.487C356.284 192.683 356.932 194.159 358.678 194.159ZM370.623 195.671H368.589V190.721L364.269 183.107H366.591L369.651 188.705H369.705L372.747 183.107H374.979L370.623 190.685V195.671ZM379.29 195.887C376.626 195.887 374.988 193.979 374.988 190.991C374.988 188.003 376.626 186.095 379.29 186.095C382.044 186.095 383.448 188.165 383.448 190.757V191.495H377.022V191.801C377.022 193.241 377.904 194.267 379.488 194.267C380.64 194.267 381.414 193.727 381.954 192.863L383.106 193.997C382.404 195.131 381.036 195.887 379.29 195.887ZM379.29 187.625C377.94 187.625 377.022 188.633 377.022 190.073V190.199H381.378V190.019C381.378 188.579 380.586 187.625 379.29 187.625ZM393.576 195.671H392.478C391.452 195.671 390.912 195.023 390.786 194.105H390.696C390.336 195.275 389.328 195.887 387.96 195.887C386.034 195.887 384.936 194.789 384.936 193.097C384.936 191.243 386.322 190.289 388.932 190.289H390.624V189.497C390.624 188.363 390.012 187.697 388.698 187.697C387.6 187.697 386.934 188.237 386.466 188.975L385.296 187.913C385.908 186.869 387.006 186.095 388.824 186.095C391.236 186.095 392.586 187.283 392.586 189.371V194.069H393.576V195.671ZM388.518 194.393C389.724 194.393 390.624 193.817 390.624 192.899V191.549H388.968C387.6 191.549 386.934 191.999 386.934 192.809V193.133C386.934 193.961 387.546 194.393 388.518 194.393ZM397.461 195.671H395.499V186.311H397.461V188.111H397.551C397.821 187.157 398.631 186.311 400.125 186.311H400.647V188.201H399.873C398.325 188.201 397.461 188.723 397.461 189.695V195.671ZM404.567 195.671H402.533V183.107H407.933C410.237 183.107 411.587 184.601 411.587 186.887C411.587 189.173 410.237 190.667 407.933 190.667H404.567V195.671ZM404.567 184.889V188.885H407.807C408.833 188.885 409.445 188.327 409.445 187.319V186.455C409.445 185.447 408.833 184.889 407.807 184.889H404.567ZM413.088 195.887C412.206 195.887 411.774 195.365 411.774 194.663V194.393C411.774 193.691 412.206 193.169 413.088 193.169C413.97 193.169 414.402 193.691 414.402 194.393V194.663C414.402 195.365 413.97 195.887 413.088 195.887ZM418.308 195.887C417.426 195.887 416.994 195.365 416.994 194.663V194.393C416.994 193.691 417.426 193.169 418.308 193.169C419.19 193.169 419.622 193.691 419.622 194.393V194.663C419.622 195.365 419.19 195.887 418.308 195.887ZM423.529 195.887C422.647 195.887 422.215 195.365 422.215 194.663V194.393C422.215 193.691 422.647 193.169 423.529 193.169C424.411 193.169 424.843 193.691 424.843 194.393V194.663C424.843 195.365 424.411 195.887 423.529 195.887Z" fill="#171717"/>
<path d="M236.028 223.671H233.994V211.107H239.394C241.698 211.107 243.048 212.601 243.048 214.887C243.048 217.173 241.698 218.667 239.394 218.667H236.028V223.671ZM236.028 212.889V216.885H239.268C240.294 216.885 240.906 216.327 240.906 215.319V214.455C240.906 213.447 240.294 212.889 239.268 212.889H236.028ZM245.279 223.671V211.107H249.725C252.929 211.107 255.035 213.195 255.035 217.389C255.035 221.583 252.929 223.671 249.725 223.671H245.279ZM247.313 221.871H249.725C251.597 221.871 252.857 220.665 252.857 218.397V216.381C252.857 214.113 251.597 212.907 249.725 212.907H247.313V221.871ZM259.601 223.671H257.567V211.107H265.415V212.907H259.601V216.399H264.767V218.199H259.601V223.671Z" fill="#737373"/>
<rect width="376" height="237" transform="translate(137 265)" fill="white"/>
<rect x="155.126" y="281" width="339.748" height="93.334" rx="14.3647" fill="#93C5FD"/>
<path d="M176.438 307.929V313.329H174.926V300.765H179.93C182.126 300.765 183.44 302.043 183.44 304.329C183.44 306.165 182.558 307.407 180.92 307.785L183.8 313.329H182.09L179.372 307.929H176.438ZM176.438 306.633H179.93C181.118 306.633 181.82 305.985 181.82 304.833V303.897C181.82 302.745 181.118 302.097 179.93 302.097H176.438V306.633ZM189.524 313.545C187.004 313.545 185.348 311.637 185.348 308.685C185.348 305.733 187.004 303.825 189.524 303.825C192.008 303.825 193.538 305.733 193.538 308.361V309.045H186.86V309.477C186.86 311.079 187.886 312.285 189.614 312.285C190.784 312.285 191.684 311.709 192.17 310.683L193.196 311.421C192.602 312.681 191.27 313.545 189.524 313.545ZM189.524 305.031C187.958 305.031 186.86 306.219 186.86 307.839V307.965H191.99V307.767C191.99 306.129 191 305.031 189.524 305.031ZM198.701 313.545C196.991 313.545 195.857 312.825 195.029 311.727L196.055 310.899C196.775 311.799 197.639 312.321 198.809 312.321C200.033 312.321 200.753 311.763 200.753 310.809C200.753 310.089 200.357 309.531 199.133 309.351L198.395 309.243C196.685 308.991 195.407 308.289 195.407 306.561C195.407 304.725 196.829 303.825 198.719 303.825C200.213 303.825 201.203 304.383 201.959 305.319L201.005 306.183C200.591 305.607 199.799 305.049 198.611 305.049C197.423 305.049 196.793 305.607 196.793 306.489C196.793 307.389 197.423 307.749 198.575 307.929L199.295 308.037C201.347 308.343 202.139 309.243 202.139 310.647C202.139 312.447 200.825 313.545 198.701 313.545ZM204.682 316.929V304.041H206.122V305.553H206.194C206.68 304.383 207.634 303.825 208.912 303.825C211.234 303.825 212.692 305.715 212.692 308.685C212.692 311.655 211.234 313.545 208.912 313.545C207.634 313.545 206.752 312.969 206.194 311.817H206.122V316.929H204.682ZM208.516 312.249C210.136 312.249 211.144 311.133 211.144 309.477V307.893C211.144 306.237 210.136 305.121 208.516 305.121C207.202 305.121 206.122 305.877 206.122 306.903V310.359C206.122 311.565 207.202 312.249 208.516 312.249ZM218.634 313.545C216.15 313.545 214.44 311.637 214.44 308.685C214.44 305.733 216.15 303.825 218.634 303.825C221.118 303.825 222.828 305.733 222.828 308.685C222.828 311.637 221.118 313.545 218.634 313.545ZM218.634 312.267C220.182 312.267 221.28 311.313 221.28 309.351V308.019C221.28 306.057 220.182 305.103 218.634 305.103C217.086 305.103 215.988 306.057 215.988 308.019V309.351C215.988 311.313 217.086 312.267 218.634 312.267ZM226.636 313.329H225.196V304.041H226.636V305.553H226.708C227.158 304.509 227.95 303.825 229.336 303.825C231.244 303.825 232.45 305.121 232.45 307.371V313.329H231.01V307.623C231.01 305.967 230.29 305.121 228.904 305.121C227.752 305.121 226.636 305.697 226.636 306.885V313.329ZM238.216 313.545C236.506 313.545 235.372 312.825 234.544 311.727L235.57 310.899C236.29 311.799 237.154 312.321 238.324 312.321C239.548 312.321 240.268 311.763 240.268 310.809C240.268 310.089 239.872 309.531 238.648 309.351L237.91 309.243C236.2 308.991 234.922 308.289 234.922 306.561C234.922 304.725 236.344 303.825 238.234 303.825C239.728 303.825 240.718 304.383 241.474 305.319L240.52 306.183C240.106 305.607 239.314 305.049 238.126 305.049C236.938 305.049 236.308 305.607 236.308 306.489C236.308 307.389 236.938 307.749 238.09 307.929L238.81 308.037C240.862 308.343 241.654 309.243 241.654 310.647C241.654 312.447 240.34 313.545 238.216 313.545ZM247.69 313.545C245.17 313.545 243.514 311.637 243.514 308.685C243.514 305.733 245.17 303.825 247.69 303.825C250.174 303.825 251.704 305.733 251.704 308.361V309.045H245.026V309.477C245.026 311.079 246.052 312.285 247.78 312.285C248.95 312.285 249.85 311.709 250.336 310.683L251.362 311.421C250.768 312.681 249.436 313.545 247.69 313.545ZM247.69 305.031C246.124 305.031 245.026 306.219 245.026 307.839V307.965H250.156V307.767C250.156 306.129 249.166 305.031 247.69 305.031ZM267.925 313.329H266.341L265.081 309.621H260.005L258.745 313.329H257.215L261.607 300.765H263.533L267.925 313.329ZM264.703 308.289L262.579 302.169H262.489L260.365 308.289H264.703Z" fill="#171717"/>
<path d="M179.745 337.236H174.439V335.11H179.745V337.236ZM183.602 337.236H178.296V335.11H183.602V337.236ZM187.458 337.236H182.153V335.11H187.458V337.236ZM191.315 337.236H186.01V335.11H191.315V337.236ZM195.172 337.236H189.867V335.11H195.172V337.236ZM199.029 337.236H193.723V335.11H199.029V337.236ZM202.885 337.236H197.58V335.11H202.885V337.236ZM206.742 337.236H201.437V335.11H206.742V337.236ZM210.599 337.236H205.294V335.11H210.599V337.236ZM214.456 337.236H209.15V335.11H214.456V337.236ZM218.312 337.236H213.007V335.11H218.312V337.236ZM222.169 337.236H216.864V335.11H222.169V337.236ZM226.026 337.236H220.721V335.11H226.026V337.236ZM229.883 337.236H224.577V335.11H229.883V337.236ZM233.74 337.236H228.434V335.11H233.74V337.236ZM237.596 337.236H232.291V335.11H237.596V337.236ZM241.453 337.236H236.148V335.11H241.453V337.236ZM245.31 337.236H240.005V335.11H245.31V337.236ZM249.167 337.236H243.861V335.11H249.167V337.236ZM253.023 337.236H247.718V335.11H253.023V337.236ZM256.88 337.236H251.575V335.11H256.88V337.236ZM260.737 337.236H255.432V335.11H260.737V337.236ZM264.594 337.236H259.288V335.11H264.594V337.236ZM268.45 337.236H263.145V335.11H268.45V337.236ZM272.307 337.236H267.002V335.11H272.307V337.236ZM276.164 337.236H270.859V335.11H276.164V337.236ZM280.021 337.236H274.715V335.11H280.021V337.236ZM283.878 337.236H278.572V335.11H283.878V337.236ZM287.734 337.236H282.429V335.11H287.734V337.236ZM291.591 337.236H286.286V335.11H291.591V337.236ZM295.448 337.236H290.143V335.11H295.448V337.236ZM299.305 337.236H293.999V335.11H299.305V337.236ZM303.161 337.236H297.856V335.11H303.161V337.236ZM307.018 337.236H301.713V335.11H307.018V337.236ZM310.875 337.236H305.57V335.11H310.875V337.236ZM314.732 337.236H309.426V335.11H314.732V337.236ZM318.588 337.236H313.283V335.11H318.588V337.236ZM322.445 337.236H317.14V335.11H322.445V337.236ZM326.302 337.236H320.997V335.11H326.302V337.236ZM330.159 337.236H324.853V335.11H330.159V337.236ZM334.016 337.236H328.71V335.11H334.016V337.236ZM337.872 337.236H332.567V335.11H337.872V337.236ZM341.729 337.236H336.424V335.11H341.729V337.236ZM345.586 337.236H340.28V335.11H345.586V337.236ZM349.443 337.236H344.137V335.11H349.443V337.236ZM353.299 337.236H347.994V335.11H353.299V337.236ZM357.156 337.236H351.851V335.11H357.156V337.236ZM361.013 337.236H355.708V335.11H361.013V337.236ZM364.87 337.236H359.564V335.11H364.87V337.236ZM368.726 337.236H363.421V335.11H368.726V337.236ZM372.583 337.236H367.278V335.11H372.583V337.236ZM376.44 337.236H371.135V335.11H376.44V337.236ZM380.297 337.236H374.991V335.11H380.297V337.236ZM384.154 337.236H378.848V335.11H384.154V337.236ZM388.01 337.236H382.705V335.11H388.01V337.236ZM391.867 337.236H386.562V335.11H391.867V337.236ZM395.724 337.236H390.418V335.11H395.724V337.236ZM399.581 337.236H394.275V335.11H399.581V337.236ZM403.437 337.236H398.132V335.11H403.437V337.236ZM407.294 337.236H401.989V335.11H407.294V337.236ZM411.151 337.236H405.846V335.11H411.151V337.236ZM415.008 337.236H409.702V335.11H415.008V337.236ZM418.864 337.236H413.559V335.11H418.864V337.236ZM422.721 337.236H417.416V335.11H422.721V337.236ZM426.578 337.236H421.273V335.11H426.578V337.236ZM430.435 337.236H425.129V335.11H430.435V337.236ZM434.292 337.236H428.986V335.11H434.292V337.236ZM438.148 337.236H432.843V335.11H438.148V337.236ZM442.005 337.236H436.7V335.11H442.005V337.236ZM445.862 337.236H440.556V335.11H445.862V337.236ZM449.719 337.236H444.413V335.11H449.719V337.236ZM453.575 337.236H448.27V335.11H453.575V337.236ZM457.432 337.236H452.127V335.11H457.432V337.236ZM461.289 337.236H455.984V335.11H461.289V337.236ZM465.146 337.236H459.84V335.11H465.146V337.236ZM469.002 337.236H463.697V335.11H469.002V337.236ZM472.859 337.236H467.554V335.11H472.859V337.236ZM179.745 355.236H174.439V353.11H179.745V355.236ZM183.602 355.236H178.296V353.11H183.602V355.236ZM187.458 355.236H182.153V353.11H187.458V355.236ZM191.315 355.236H186.01V353.11H191.315V355.236ZM195.172 355.236H189.867V353.11H195.172V355.236ZM199.029 355.236H193.723V353.11H199.029V355.236ZM202.885 355.236H197.58V353.11H202.885V355.236ZM206.742 355.236H201.437V353.11H206.742V355.236ZM210.599 355.236H205.294V353.11H210.599V355.236ZM214.456 355.236H209.15V353.11H214.456V355.236ZM218.312 355.236H213.007V353.11H218.312V355.236ZM222.169 355.236H216.864V353.11H222.169V355.236ZM226.026 355.236H220.721V353.11H226.026V355.236ZM229.883 355.236H224.577V353.11H229.883V355.236ZM233.74 355.236H228.434V353.11H233.74V355.236ZM237.596 355.236H232.291V353.11H237.596V355.236ZM241.453 355.236H236.148V353.11H241.453V355.236ZM245.31 355.236H240.005V353.11H245.31V355.236ZM249.167 355.236H243.861V353.11H249.167V355.236ZM253.023 355.236H247.718V353.11H253.023V355.236ZM256.88 355.236H251.575V353.11H256.88V355.236ZM260.737 355.236H255.432V353.11H260.737V355.236ZM264.594 355.236H259.288V353.11H264.594V355.236ZM268.45 355.236H263.145V353.11H268.45V355.236ZM272.307 355.236H267.002V353.11H272.307V355.236Z" fill="#171717"/>
<rect x="155.126" y="389.041" width="339.748" height="93.334" rx="14.3647" fill="#F5F5F5"/>
<path d="M176.438 415.969V421.369H174.926V408.805H179.93C182.126 408.805 183.44 410.083 183.44 412.369C183.44 414.205 182.558 415.447 180.92 415.825L183.8 421.369H182.09L179.372 415.969H176.438ZM176.438 414.673H179.93C181.118 414.673 181.82 414.025 181.82 412.873V411.937C181.82 410.785 181.118 410.137 179.93 410.137H176.438V414.673ZM189.524 421.585C187.004 421.585 185.348 419.677 185.348 416.725C185.348 413.773 187.004 411.865 189.524 411.865C192.008 411.865 193.538 413.773 193.538 416.401V417.085H186.86V417.517C186.86 419.119 187.886 420.325 189.614 420.325C190.784 420.325 191.684 419.749 192.17 418.723L193.196 419.461C192.602 420.721 191.27 421.585 189.524 421.585ZM189.524 413.071C187.958 413.071 186.86 414.259 186.86 415.879V416.005H191.99V415.807C191.99 414.169 191 413.071 189.524 413.071ZM198.701 421.585C196.991 421.585 195.857 420.865 195.029 419.767L196.055 418.939C196.775 419.839 197.639 420.361 198.809 420.361C200.033 420.361 200.753 419.803 200.753 418.849C200.753 418.129 200.357 417.571 199.133 417.391L198.395 417.283C196.685 417.031 195.407 416.329 195.407 414.601C195.407 412.765 196.829 411.865 198.719 411.865C200.213 411.865 201.203 412.423 201.959 413.359L201.005 414.223C200.591 413.647 199.799 413.089 198.611 413.089C197.423 413.089 196.793 413.647 196.793 414.529C196.793 415.429 197.423 415.789 198.575 415.969L199.295 416.077C201.347 416.383 202.139 417.283 202.139 418.687C202.139 420.487 200.825 421.585 198.701 421.585ZM204.682 424.969V412.081H206.122V413.593H206.194C206.68 412.423 207.634 411.865 208.912 411.865C211.234 411.865 212.692 413.755 212.692 416.725C212.692 419.695 211.234 421.585 208.912 421.585C207.634 421.585 206.752 421.009 206.194 419.857H206.122V424.969H204.682ZM208.516 420.289C210.136 420.289 211.144 419.173 211.144 417.517V415.933C211.144 414.277 210.136 413.161 208.516 413.161C207.202 413.161 206.122 413.917 206.122 414.943V418.399C206.122 419.605 207.202 420.289 208.516 420.289ZM218.634 421.585C216.15 421.585 214.44 419.677 214.44 416.725C214.44 413.773 216.15 411.865 218.634 411.865C221.118 411.865 222.828 413.773 222.828 416.725C222.828 419.677 221.118 421.585 218.634 421.585ZM218.634 420.307C220.182 420.307 221.28 419.353 221.28 417.391V416.059C221.28 414.097 220.182 413.143 218.634 413.143C217.086 413.143 215.988 414.097 215.988 416.059V417.391C215.988 419.353 217.086 420.307 218.634 420.307ZM226.636 421.369H225.196V412.081H226.636V413.593H226.708C227.158 412.549 227.95 411.865 229.336 411.865C231.244 411.865 232.45 413.161 232.45 415.411V421.369H231.01V415.663C231.01 414.007 230.29 413.161 228.904 413.161C227.752 413.161 226.636 413.737 226.636 414.925V421.369ZM238.216 421.585C236.506 421.585 235.372 420.865 234.544 419.767L235.57 418.939C236.29 419.839 237.154 420.361 238.324 420.361C239.548 420.361 240.268 419.803 240.268 418.849C240.268 418.129 239.872 417.571 238.648 417.391L237.91 417.283C236.2 417.031 234.922 416.329 234.922 414.601C234.922 412.765 236.344 411.865 238.234 411.865C239.728 411.865 240.718 412.423 241.474 413.359L240.52 414.223C240.106 413.647 239.314 413.089 238.126 413.089C236.938 413.089 236.308 413.647 236.308 414.529C236.308 415.429 236.938 415.789 238.09 415.969L238.81 416.077C240.862 416.383 241.654 417.283 241.654 418.687C241.654 420.487 240.34 421.585 238.216 421.585ZM247.69 421.585C245.17 421.585 243.514 419.677 243.514 416.725C243.514 413.773 245.17 411.865 247.69 411.865C250.174 411.865 251.704 413.773 251.704 416.401V417.085H245.026V417.517C245.026 419.119 246.052 420.325 247.78 420.325C248.95 420.325 249.85 419.749 250.336 418.723L251.362 419.461C250.768 420.721 249.436 421.585 247.69 421.585ZM247.69 413.071C246.124 413.071 245.026 414.259 245.026 415.879V416.005H250.156V415.807C250.156 414.169 249.166 413.071 247.69 413.071ZM258.475 421.369V408.805H263.641C265.711 408.805 266.989 410.083 266.989 412.045C266.989 413.917 265.783 414.583 264.955 414.709V414.817C265.855 414.871 267.421 415.645 267.421 417.733C267.421 419.803 266.035 421.369 264.181 421.369H258.475ZM259.987 415.537V420.037H263.713C265.009 420.037 265.801 419.353 265.801 418.093V417.481C265.801 416.221 265.009 415.537 263.713 415.537H259.987ZM259.987 410.137V414.241H263.461C264.649 414.241 265.369 413.611 265.369 412.495V411.883C265.369 410.767 264.649 410.137 263.461 410.137H259.987Z" fill="#171717"/>
<path d="M179.745 445.277H174.439V443.151H179.745V445.277ZM183.602 445.277H178.296V443.151H183.602V445.277ZM187.458 445.277H182.153V443.151H187.458V445.277ZM191.315 445.277H186.01V443.151H191.315V445.277ZM195.172 445.277H189.867V443.151H195.172V445.277ZM199.029 445.277H193.723V443.151H199.029V445.277ZM202.885 445.277H197.58V443.151H202.885V445.277ZM206.742 445.277H201.437V443.151H206.742V445.277ZM210.599 445.277H205.294V443.151H210.599V445.277ZM214.456 445.277H209.15V443.151H214.456V445.277ZM218.312 445.277H213.007V443.151H218.312V445.277ZM222.169 445.277H216.864V443.151H222.169V445.277ZM226.026 445.277H220.721V443.151H226.026V445.277ZM229.883 445.277H224.577V443.151H229.883V445.277ZM233.74 445.277H228.434V443.151H233.74V445.277ZM237.596 445.277H232.291V443.151H237.596V445.277ZM241.453 445.277H236.148V443.151H241.453V445.277ZM245.31 445.277H240.005V443.151H245.31V445.277ZM249.167 445.277H243.861V443.151H249.167V445.277ZM253.023 445.277H247.718V443.151H253.023V445.277ZM256.88 445.277H251.575V443.151H256.88V445.277ZM260.737 445.277H255.432V443.151H260.737V445.277ZM264.594 445.277H259.288V443.151H264.594V445.277ZM268.45 445.277H263.145V443.151H268.45V445.277ZM272.307 445.277H267.002V443.151H272.307V445.277ZM276.164 445.277H270.859V443.151H276.164V445.277ZM280.021 445.277H274.715V443.151H280.021V445.277ZM283.878 445.277H278.572V443.151H283.878V445.277ZM287.734 445.277H282.429V443.151H287.734V445.277ZM291.591 445.277H286.286V443.151H291.591V445.277ZM295.448 445.277H290.143V443.151H295.448V445.277ZM299.305 445.277H293.999V443.151H299.305V445.277ZM303.161 445.277H297.856V443.151H303.161V445.277ZM307.018 445.277H301.713V443.151H307.018V445.277ZM310.875 445.277H305.57V443.151H310.875V445.277ZM314.732 445.277H309.426V443.151H314.732V445.277ZM318.588 445.277H313.283V443.151H318.588V445.277ZM322.445 445.277H317.14V443.151H322.445V445.277ZM326.302 445.277H320.997V443.151H326.302V445.277ZM330.159 445.277H324.853V443.151H330.159V445.277ZM334.016 445.277H328.71V443.151H334.016V445.277ZM337.872 445.277H332.567V443.151H337.872V445.277ZM341.729 445.277H336.424V443.151H341.729V445.277ZM345.586 445.277H340.28V443.151H345.586V445.277ZM349.443 445.277H344.137V443.151H349.443V445.277ZM353.299 445.277H347.994V443.151H353.299V445.277ZM357.156 445.277H351.851V443.151H357.156V445.277ZM361.013 445.277H355.708V443.151H361.013V445.277ZM364.87 445.277H359.564V443.151H364.87V445.277ZM368.726 445.277H363.421V443.151H368.726V445.277ZM372.583 445.277H367.278V443.151H372.583V445.277ZM376.44 445.277H371.135V443.151H376.44V445.277ZM380.297 445.277H374.991V443.151H380.297V445.277ZM384.154 445.277H378.848V443.151H384.154V445.277ZM388.01 445.277H382.705V443.151H388.01V445.277ZM391.867 445.277H386.562V443.151H391.867V445.277ZM395.724 445.277H390.418V443.151H395.724V445.277ZM399.581 445.277H394.275V443.151H399.581V445.277ZM403.437 445.277H398.132V443.151H403.437V445.277ZM407.294 445.277H401.989V443.151H407.294V445.277ZM411.151 445.277H405.846V443.151H411.151V445.277ZM415.008 445.277H409.702V443.151H415.008V445.277ZM418.864 445.277H413.559V443.151H418.864V445.277ZM422.721 445.277H417.416V443.151H422.721V445.277ZM426.578 445.277H421.273V443.151H426.578V445.277ZM430.435 445.277H425.129V443.151H430.435V445.277ZM434.292 445.277H428.986V443.151H434.292V445.277ZM438.148 445.277H432.843V443.151H438.148V445.277ZM442.005 445.277H436.7V443.151H442.005V445.277ZM445.862 445.277H440.556V443.151H445.862V445.277ZM449.719 445.277H444.413V443.151H449.719V445.277ZM453.575 445.277H448.27V443.151H453.575V445.277ZM457.432 445.277H452.127V443.151H457.432V445.277ZM461.289 445.277H455.984V443.151H461.289V445.277ZM465.146 445.277H459.84V443.151H465.146V445.277ZM469.002 445.277H463.697V443.151H469.002V445.277ZM472.859 445.277H467.554V443.151H472.859V445.277ZM179.745 463.277H174.439V461.151H179.745V463.277ZM183.602 463.277H178.296V461.151H183.602V463.277ZM187.458 463.277H182.153V461.151H187.458V463.277ZM191.315 463.277H186.01V461.151H191.315V463.277ZM195.172 463.277H189.867V461.151H195.172V463.277ZM199.029 463.277H193.723V461.151H199.029V463.277ZM202.885 463.277H197.58V461.151H202.885V463.277ZM206.742 463.277H201.437V461.151H206.742V463.277ZM210.599 463.277H205.294V461.151H210.599V463.277ZM214.456 463.277H209.15V461.151H214.456V463.277ZM218.312 463.277H213.007V461.151H218.312V463.277Z" fill="#171717"/>
</g>
</g>
<defs>
<filter id="filter0_dd_217_7020" x="107.545" y="60.2028" width="434.909" height="493.909" filterUnits="userSpaceOnUse" color-interpolation-filters="sRGB">
<feFlood flood-opacity="0" result="BackgroundImageFix"/>
<feColorMatrix in="SourceAlpha" type="matrix" values="0 0 0 0 0 0 0 0 0 0 0 0 0 0 0 0 0 0 127 0" result="hardAlpha"/>
<feOffset dy="9.06294"/>
<feGaussianBlur stdDeviation="5.66434"/>
<feComposite in2="hardAlpha" operator="out"/>
<feColorMatrix type="matrix" values="0 0 0 0 0 0 0 0 0 0 0 0 0 0 0 0 0 0 0.08 0"/>
<feBlend mode="normal" in2="BackgroundImageFix" result="effect1_dropShadow_217_7020"/>
<feColorMatrix in="SourceAlpha" type="matrix" values="0 0 0 0 0 0 0 0 0 0 0 0 0 0 0 0 0 0 127 0" result="hardAlpha"/>
<feOffset dy="22.6573"/>
<feGaussianBlur stdDeviation="14.7273"/>
<feComposite in2="hardAlpha" operator="out"/>
<feColorMatrix type="matrix" values="0 0 0 0 0 0 0 0 0 0 0 0 0 0 0 0 0 0 0.03 0"/>
<feBlend mode="normal" in2="effect1_dropShadow_217_7020" result="effect2_dropShadow_217_7020"/>
<feBlend mode="normal" in="SourceGraphic" in2="effect2_dropShadow_217_7020" result="shape"/>
</filter>
<clipPath id="clip0_217_7020">
<rect x="137" y="67" width="376" height="435" rx="24" fill="white"/>
</clipPath>
</defs>
</svg>
