<svg width="130" height="35" viewBox="0 0 130 35" fill="none" xmlns="http://www.w3.org/2000/svg">
<g clip-path="url(#clip0_2231_392707)">
<path d="M32.3383 7.99184C31.484 6.71684 30.5443 5.52684 29.4337 4.50684C21.8304 2.46684 13.629 2.46684 6.02573 4.59184C4.91513 5.61184 3.9754 6.71684 3.12109 7.99184C12.433 5.69684 23.0264 5.69684 32.3383 7.99184Z" fill="black"/>
<path d="M19.8656 10.4568C20.9762 8.92679 21.6596 7.82179 22.0868 7.31179C15.4232 6.80179 8.67417 7.39679 2.52318 9.09679C2.09602 9.94679 1.66887 10.8818 1.32715 11.7318C7.13642 10.7968 13.5437 10.2868 19.8656 10.4568Z" fill="black"/>
<path d="M17.2178 23.7169C16.5343 24.7369 15.68 25.8419 14.9111 26.9469C21.0621 27.2019 27.2986 26.6069 33.0224 25.0769C33.4495 24.2269 33.8767 23.3769 34.2184 22.4419C29.0926 23.3769 23.4542 23.8019 17.8158 23.8019C17.5595 23.8019 17.3886 23.7169 17.2178 23.7169Z" fill="black"/>
<path d="M19.2674 11.3069C13.031 11.2219 6.79455 11.6469 1.07071 12.7519C0.899846 13.5169 0.728985 14.2819 0.643555 15.1319C5.76938 14.7919 11.4078 14.6219 17.1316 14.6219C17.9005 13.3469 18.584 12.2419 19.2674 11.3069Z" fill="black"/>
<path d="M14.2275 27.7967C13.2878 29.0717 12.4335 30.2617 11.9209 30.7717C17.7302 31.5367 23.7103 31.1117 29.3487 29.5817C30.4593 28.5617 31.4845 27.3717 32.2533 26.0967C27.6401 27.2867 22.6851 27.8817 17.7302 27.8817C16.5341 27.8817 15.4235 27.8817 14.2275 27.7967Z" fill="black"/>
<path d="M27.7251 3.23191C24.9059 1.27691 21.4887 0.0869141 17.7297 0.0869141C13.9708 0.0869141 10.5536 1.27691 7.73438 3.23191C14.3125 1.70191 21.147 1.70191 27.7251 3.23191Z" fill="black"/>
<path d="M20.5488 18.7021C25.5038 18.6171 30.3733 18.5321 34.9011 18.1921C34.9011 17.8521 34.9011 17.4271 34.9011 17.0871C34.9011 16.7471 34.9011 16.3221 34.9011 15.9821C30.9713 15.7271 26.8707 15.5571 22.5992 15.5571C21.9157 16.5771 21.3177 17.5121 20.5488 18.7021Z" fill="black"/>
<path d="M23.1973 14.622C27.2125 14.707 31.1423 14.877 34.9012 15.047C34.8158 14.282 34.6449 13.432 34.4741 12.667C31.484 12.157 28.4085 11.732 25.2476 11.562C24.3933 12.752 23.7098 13.772 23.1973 14.622Z" fill="black"/>
<path d="M16.4485 15.4717C13.1167 15.4717 9.87038 15.5567 6.62402 15.6417C6.96575 16.3217 7.56376 17.5117 8.16177 18.5317C10.2121 18.6167 12.2624 18.6167 14.3128 18.7017C14.9962 17.7667 15.6797 16.6617 16.4485 15.4717Z" fill="black"/>
<path d="M8.75977 19.4668C8.75977 19.5518 8.8452 19.6368 8.8452 19.6368C9.35778 20.4868 9.95579 21.3368 10.3829 22.0168C10.5538 22.1868 10.6392 22.4418 10.7247 22.6118C10.981 23.0368 11.2372 23.2918 11.2372 23.2918C11.2372 23.2918 11.4081 23.0368 11.6644 22.6118C11.7498 22.4418 11.9207 22.2718 12.0916 22.0168C12.5187 21.4218 13.0313 20.5718 13.7147 19.5518C12.0916 19.5518 10.3829 19.5518 8.75977 19.4668Z" fill="black"/>
<path d="M17.8154 22.867C23.5393 22.867 29.1777 22.357 34.3889 21.422C34.5598 20.657 34.7307 19.892 34.8161 19.042C30.1174 19.297 25.077 19.467 19.9512 19.552C19.4386 20.487 18.6697 21.592 17.8154 22.867Z" fill="black"/>
<path d="M3.71952 19.297C2.69436 19.212 1.58376 19.212 0.558594 19.127C0.644024 19.892 0.814885 20.742 0.985746 21.507C2.35263 21.762 3.71952 21.932 5.17184 22.187C4.57383 21.082 4.14667 20.062 3.71952 19.297Z" fill="black"/>
<path d="M7.99123 26.1819C7.13693 25.0769 6.62434 24.3969 5.85547 23.1219C4.31772 22.9519 2.8654 22.6969 1.41309 22.4419C1.75481 23.3769 2.09653 24.2269 2.60911 25.0769C4.40315 25.5869 6.28262 25.9269 8.16209 26.2669C8.07666 26.1819 7.99123 26.1819 7.99123 26.1819Z" fill="black"/>
<path d="M8.84494 27.2871C6.88003 27.0321 5.00056 26.6071 3.12109 26.1821C3.9754 27.4571 4.91513 28.6471 6.02573 29.6671C7.81977 30.1771 9.69924 30.6021 11.5787 30.8571C10.4681 29.4121 9.61381 28.3071 8.84494 27.2871Z" fill="black"/>
<path d="M7.73438 30.9419C10.5536 32.8969 13.9708 34.0869 17.7297 34.0869C21.4887 34.0869 24.9059 32.8969 27.7251 30.9419C24.4787 31.7069 21.0615 32.0469 17.7297 32.0469C14.398 32.0469 10.9807 31.7069 7.73438 30.9419Z" fill="black"/>
<path d="M61.8982 22.1022C61.8982 25.6722 64.4611 28.5622 68.2201 28.5622C71.0393 28.5622 72.8333 26.8622 74.1147 24.5672L76.934 26.1822C75.0545 29.6672 71.979 31.6222 67.9638 31.6222C62.2399 31.5372 58.5664 27.2022 58.5664 21.5922C58.5664 15.8972 61.8982 11.1372 67.9638 11.1372C74.2002 11.1372 77.532 16.2372 77.1902 22.0172H61.8982V22.1022ZM73.6876 19.2972C73.2604 16.4922 70.8684 14.2822 67.9638 14.2822C65.1446 14.2822 62.4962 16.5772 62.0691 19.2972H73.6876Z" fill="black"/>
<path d="M82.9143 13.8572C84.1104 12.3272 85.1355 11.2222 87.2713 11.2222C88.3819 11.2222 89.3216 11.5622 90.2614 12.1572L88.7236 15.1322C88.0402 14.7072 87.613 14.2822 86.7587 14.2822C83.1706 14.2822 82.9998 18.9572 82.9998 21.4222V31.0272H79.668V11.7322H82.9998V13.8572H82.9143Z" fill="black"/>
<path d="M95.8993 5.35705C95.8993 6.63205 94.7887 7.73705 93.5073 7.73705C92.2258 7.73705 91.1152 6.71705 91.1152 5.35705C91.1152 4.08205 92.2258 2.97705 93.5073 2.97705C94.8742 2.97705 95.8993 4.08205 95.8993 5.35705ZM95.2159 31.0271H91.8841V11.732H95.2159V31.0271Z" fill="black"/>
<path d="M106.664 16.2371C106.237 15.2171 105.212 14.2821 104.016 14.2821C102.82 14.2821 101.624 15.2171 101.624 16.4071C101.624 18.1921 103.845 18.7871 106.151 19.8071C108.458 20.7421 110.679 22.1021 110.679 25.3321C110.679 28.9871 107.689 31.6221 104.101 31.6221C100.855 31.6221 98.2918 29.7521 97.2666 26.7771L100.171 25.5871C101.026 27.3721 101.965 28.6471 104.101 28.6471C105.895 28.6471 107.262 27.4571 107.262 25.6721C107.262 21.3371 98.5481 22.8671 98.5481 16.7471C98.5481 13.5171 101.196 11.3071 104.357 11.3071C106.579 11.3071 108.629 12.8371 109.483 14.8771L106.664 16.2371Z" fill="black"/>
<path d="M127.509 11.732H123.067L116.061 18.8721V2.97705H112.729V31.0271H116.061V23.1221L116.916 22.2721L124.69 31.0271H129.047L119.222 19.9771L127.509 11.732Z" fill="black"/>
<path d="M58.6517 2.97705L51.3047 22.6971L43.8722 2.97705H40.1133L51.1338 31.622L51.3047 31.877L62.4106 2.97705H58.6517Z" fill="black"/>
</g>
<defs>
<clipPath id="clip0_2231_392707">
<rect width="129" height="34" fill="white" transform="translate(0.473633 0.0869141)"/>
</clipPath>
</defs>
</svg>
