<svg width="673" height="516" viewBox="0 0 673 516" fill="none" xmlns="http://www.w3.org/2000/svg">
<rect x="0.5" y="0.5" width="210" height="247" rx="16" stroke="#171717"/>
<rect x="27.9065" y="36.5" width="48" height="48" rx="14.4" fill="#93C5FD"/>
<path fill-rule="evenodd" clip-rule="evenodd" d="M60.7959 62.1163V65.3488H63.2203V71.8138H56.7553V65.3488H59.1797V62.1163H52.7147V65.3488H55.139V71.8138H48.674V65.3488H51.0984V62.1163H44.6334V65.3488H47.0578V71.8138H40.5928V65.3488H43.0171V62.1163C43.0171 61.6876 43.1874 61.2765 43.4905 60.9734C43.7936 60.6703 44.2047 60.5 44.6334 60.5H51.0984V57.2675H43.8253C43.3966 57.2675 42.9855 57.0972 42.6824 56.7941C42.3793 56.491 42.209 56.0799 42.209 55.6513V50.8025C42.209 50.3739 42.3793 49.9628 42.6824 49.6597C42.9855 49.3566 43.3966 49.1863 43.8253 49.1863H59.9878C60.4164 49.1863 60.8275 49.3566 61.1306 49.6597C61.4337 49.9628 61.604 50.3739 61.604 50.8025V55.6513C61.604 56.0799 61.4337 56.491 61.1306 56.7941C60.8275 57.0972 60.4164 57.2675 59.9878 57.2675H52.7147V60.5H59.1797C59.6083 60.5 60.0194 60.6703 60.3225 60.9734C60.6256 61.2765 60.7959 61.6876 60.7959 62.1163ZM42.209 66.965V70.1975H45.4415V66.965H42.209ZM53.5228 70.1975V66.965H50.2903V70.1975H53.5228ZM43.8253 50.8025V55.6513H59.9878V50.8025H43.8253ZM58.3715 66.965V70.1975H61.604V66.965H58.3715ZM47.0578 53.2269C47.0578 53.6732 46.696 54.035 46.2497 54.035C45.8034 54.035 45.4416 53.6732 45.4416 53.2269C45.4416 52.7806 45.8034 52.4188 46.2497 52.4188C46.696 52.4188 47.0578 52.7806 47.0578 53.2269Z" fill="#171717"/>
<path d="M31.9304 197.602V188.034H28.6024V186.434H37.0664V188.034H33.7384V197.602H31.9304ZM43.7494 197.794C40.8374 197.794 38.9334 195.778 38.9334 192.018C38.9334 188.258 40.8374 186.242 43.7494 186.242C46.6614 186.242 48.5654 188.258 48.5654 192.018C48.5654 195.778 46.6614 197.794 43.7494 197.794ZM43.7494 196.178C45.4774 196.178 46.6294 194.93 46.6294 192.898V191.138C46.6294 189.106 45.4774 187.858 43.7494 187.858C42.0214 187.858 40.8694 189.106 40.8694 191.138V192.898C40.8694 194.93 42.0214 196.178 43.7494 196.178ZM56.1 197.794C53.188 197.794 51.284 195.778 51.284 192.018C51.284 188.258 53.188 186.242 56.1 186.242C59.012 186.242 60.916 188.258 60.916 192.018C60.916 195.778 59.012 197.794 56.1 197.794ZM56.1 196.178C57.828 196.178 58.98 194.93 58.98 192.898V191.138C58.98 189.106 57.828 187.858 56.1 187.858C54.372 187.858 53.22 189.106 53.22 191.138V192.898C53.22 194.93 54.372 196.178 56.1 196.178ZM70.4826 197.602H64.1306V186.434H65.9386V196.002H70.4826V197.602ZM77.971 186.434H79.747V193.314C79.747 195.202 80.403 196.178 82.147 196.178C83.891 196.178 84.547 195.202 84.547 193.314V186.434H86.323V193.026C86.323 196.29 85.203 197.794 82.147 197.794C79.091 197.794 77.971 196.29 77.971 193.026V186.434ZM93.3077 197.794C91.4357 197.794 90.1557 197.058 89.2277 195.906L90.4757 194.738C91.2597 195.698 92.1877 196.194 93.4037 196.194C94.8277 196.194 95.5637 195.49 95.5637 194.418C95.5637 193.554 95.1157 193.058 93.8197 192.802L92.8277 192.626C90.6677 192.226 89.5637 191.218 89.5637 189.442C89.5637 187.458 91.0997 186.242 93.4677 186.242C95.1477 186.242 96.3797 186.85 97.2437 187.954L95.9797 189.074C95.4037 188.322 94.6037 187.842 93.3717 187.842C92.0917 187.842 91.3557 188.37 91.3557 189.346C91.3557 190.274 91.9317 190.674 93.1317 190.914L94.1237 191.122C96.3477 191.554 97.3557 192.546 97.3557 194.322C97.3557 196.402 95.8677 197.794 93.3077 197.794ZM107.638 197.602H100.486V186.434H107.638V188.034H102.294V191.138H107.142V192.738H102.294V196.002H107.638V197.602Z" fill="#171717"/>
<rect x="230.5" y="0.5" width="210" height="247" rx="16" stroke="#171717"/>
<rect x="257.906" y="36.5" width="48" height="48" rx="14.4" fill="#FBBF24"/>
<path fill-rule="evenodd" clip-rule="evenodd" d="M271.769 62.5276V70.6377H279.879V62.5276H271.769Z" fill="#262626"/>
<path fill-rule="evenodd" clip-rule="evenodd" d="M277.851 52.39H273.796V56.445H277.851V52.39ZM271.769 50.3625V58.4726H279.879V50.3625H271.769Z" fill="#262626"/>
<path fill-rule="evenodd" clip-rule="evenodd" d="M290.016 52.39H285.961V68.6102H290.016V52.39ZM283.934 50.3625V70.6377H292.044V50.3625H283.934Z" fill="#262626"/>
<path d="M259.658 197.602V186.434H261.802L264.794 192.114H264.89L267.882 186.434H269.93V197.602H268.202V189.058H268.122L267.242 190.866L264.794 195.33L262.346 190.866L261.466 189.058H261.386V197.602H259.658ZM273.585 186.434H275.361V193.314C275.361 195.202 276.017 196.178 277.761 196.178C279.505 196.178 280.161 195.202 280.161 193.314V186.434H281.937V193.026C281.937 196.29 280.817 197.794 277.761 197.794C274.705 197.794 273.585 196.29 273.585 193.026V186.434ZM291.93 197.602H285.578V186.434H287.386V196.002H291.93V197.602ZM295.921 197.602V188.034H292.593V186.434H301.057V188.034H297.729V197.602H295.921ZM308.069 197.602H303.205V196.13H304.725V187.906H303.205V186.434H308.069V187.906H306.533V196.13H308.069V197.602ZM311.302 197.602V186.434H313.446L316.438 192.114H316.534L319.526 186.434H321.574V197.602H319.846V189.058H319.766L318.886 190.866L316.438 195.33L313.99 190.866L313.11 189.058H313.03V197.602H311.302ZM329.613 197.794C326.701 197.794 324.797 195.778 324.797 192.018C324.797 188.258 326.701 186.242 329.613 186.242C332.525 186.242 334.429 188.258 334.429 192.018C334.429 195.778 332.525 197.794 329.613 197.794ZM329.613 196.178C331.341 196.178 332.493 194.93 332.493 192.898V191.138C332.493 189.106 331.341 187.858 329.613 187.858C327.885 187.858 326.733 189.106 326.733 191.138V192.898C326.733 194.93 327.885 196.178 329.613 196.178ZM337.643 197.602V186.434H341.595C344.443 186.434 346.315 188.29 346.315 192.018C346.315 195.746 344.443 197.602 341.595 197.602H337.643ZM339.451 196.002H341.595C343.259 196.002 344.379 194.93 344.379 192.914V191.122C344.379 189.106 343.259 188.034 341.595 188.034H339.451V196.002ZM358.014 197.602H356.126L355.118 194.578H350.942L349.966 197.602H348.126L351.934 186.434H354.206L358.014 197.602ZM354.67 193.026L353.07 188.098H352.99L351.374 193.026H354.67ZM367.056 197.602H360.704V186.434H362.512V196.002H367.056V197.602Z" fill="#171717"/>
<rect x="460.5" y="0.5" width="210" height="247" rx="16" stroke="#171717"/>
<rect x="487.906" y="36.5" width="48" height="48" rx="14.4" fill="#FB923C"/>
<path d="M518.32 58.8968H516.716V54.0871C516.716 52.8115 516.21 51.5881 515.308 50.6861C514.406 49.7841 513.182 49.2773 511.907 49.2773C510.631 49.2773 509.408 49.7841 508.506 50.6861C507.604 51.5881 507.097 52.8115 507.097 54.0871V58.8968H505.494C505.068 58.8968 504.661 59.0657 504.36 59.3664C504.059 59.6671 503.89 60.0748 503.89 60.5V70.1195C503.89 70.5447 504.059 70.9525 504.36 71.2532C504.661 71.5538 505.068 71.7228 505.494 71.7228H518.32C518.745 71.7228 519.153 71.5538 519.453 71.2532C519.754 70.9525 519.923 70.5447 519.923 70.1195V60.5C519.923 60.0748 519.754 59.6671 519.453 59.3664C519.153 59.0657 518.745 58.8968 518.32 58.8968ZM508.7 54.0871C508.7 53.2367 509.038 52.4211 509.639 51.8197C510.241 51.2184 511.056 50.8806 511.907 50.8806C512.757 50.8806 513.573 51.2184 514.174 51.8197C514.775 52.4211 515.113 53.2367 515.113 54.0871V58.8968H508.7V54.0871ZM518.32 70.1195H505.494V60.5H518.32V70.1195Z" fill="black"/>
<path d="M498.146 185.5H496.258L495.25 182.476H491.074L490.098 185.5H488.258L492.066 174.332H494.338L498.146 185.5ZM494.802 180.924L493.202 175.996H493.122L491.506 180.924H494.802ZM500.836 185.5V174.332H504.788C507.636 174.332 509.508 176.188 509.508 179.916C509.508 183.644 507.636 185.5 504.788 185.5H500.836ZM502.644 183.9H504.788C506.452 183.9 507.572 182.828 507.572 180.812V179.02C507.572 177.004 506.452 175.932 504.788 175.932H502.644V183.9ZM517.078 185.5H514.982L511.318 174.332H513.19L514.966 179.852L516.038 183.74H516.102L517.19 179.852L518.966 174.332H520.79L517.078 185.5ZM530.564 185.5H523.412V174.332H530.564V175.932H525.22V179.036H530.068V180.636H525.22V183.9H530.564V185.5ZM535.665 180.988V185.5H533.857V174.332H538.673C540.673 174.332 541.905 175.628 541.905 177.692C541.905 179.276 541.153 180.38 539.729 180.796L542.145 185.5H540.129L537.889 180.988H535.665ZM535.665 179.468H538.545C539.457 179.468 540.001 178.972 540.001 178.076V177.308C540.001 176.412 539.457 175.916 538.545 175.916H535.665V179.468ZM548.645 185.692C546.773 185.692 545.493 184.956 544.565 183.804L545.813 182.636C546.597 183.596 547.525 184.092 548.741 184.092C550.165 184.092 550.901 183.388 550.901 182.316C550.901 181.452 550.453 180.956 549.157 180.7L548.165 180.524C546.005 180.124 544.901 179.116 544.901 177.34C544.901 175.356 546.437 174.14 548.805 174.14C550.485 174.14 551.717 174.748 552.581 175.852L551.317 176.972C550.741 176.22 549.941 175.74 548.709 175.74C547.429 175.74 546.693 176.268 546.693 177.244C546.693 178.172 547.269 178.572 548.469 178.812L549.461 179.02C551.685 179.452 552.693 180.444 552.693 182.22C552.693 184.3 551.205 185.692 548.645 185.692ZM564.688 185.5H562.8L561.792 182.476H557.616L556.64 185.5H554.8L558.608 174.332H560.88L564.688 185.5ZM561.344 180.924L559.744 175.996H559.664L558.048 180.924H561.344ZM569.185 180.988V185.5H567.377V174.332H572.193C574.193 174.332 575.425 175.628 575.425 177.692C575.425 179.276 574.673 180.38 573.249 180.796L575.665 185.5H573.649L571.409 180.988H569.185ZM569.185 179.468H572.065C572.977 179.468 573.521 178.972 573.521 178.076V177.308C573.521 176.412 572.977 175.916 572.065 175.916H569.185V179.468ZM583.206 185.5H578.342V184.028H579.862V175.804H578.342V174.332H583.206V175.804H581.67V184.028H583.206V185.5ZM595.302 185.5H593.414L592.406 182.476H588.23L587.254 185.5H585.414L589.222 174.332H591.494L595.302 185.5ZM591.958 180.924L590.358 175.996H590.278L588.662 180.924H591.958ZM604.344 185.5H597.992V174.332H599.8V183.9H604.344V185.5ZM491.09 206.5H489.282V195.332H494.082C496.13 195.332 497.33 196.66 497.33 198.692C497.33 200.724 496.13 202.052 494.082 202.052H491.09V206.5ZM491.09 196.916V200.468H493.97C494.882 200.468 495.426 199.972 495.426 199.076V198.308C495.426 197.412 494.882 196.916 493.97 196.916H491.09ZM502.082 201.988V206.5H500.274V195.332H505.09C507.09 195.332 508.322 196.628 508.322 198.692C508.322 200.276 507.57 201.38 506.146 201.796L508.562 206.5H506.546L504.306 201.988H502.082ZM502.082 200.468H504.962C505.874 200.468 506.418 199.972 506.418 199.076V198.308C506.418 197.412 505.874 196.916 504.962 196.916H502.082V200.468ZM515.882 206.692C512.97 206.692 511.066 204.676 511.066 200.916C511.066 197.156 512.97 195.14 515.882 195.14C518.794 195.14 520.698 197.156 520.698 200.916C520.698 204.676 518.794 206.692 515.882 206.692ZM515.882 205.076C517.61 205.076 518.762 203.828 518.762 201.796V200.036C518.762 198.004 517.61 196.756 515.882 196.756C514.154 196.756 513.002 198.004 513.002 200.036V201.796C513.002 203.828 514.154 205.076 515.882 205.076ZM523.912 206.5V195.332H526.056L529.048 201.012H529.144L532.136 195.332H534.184V206.5H532.456V197.956H532.376L531.496 199.764L529.048 204.228L526.6 199.764L525.72 197.956H525.64V206.5H523.912ZM539.712 206.5H537.904V195.332H542.704C544.752 195.332 545.952 196.66 545.952 198.692C545.952 200.724 544.752 202.052 542.704 202.052H539.712V206.5ZM539.712 196.916V200.468H542.592C543.504 200.468 544.048 199.972 544.048 199.076V198.308C544.048 197.412 543.504 196.916 542.592 196.916H539.712ZM551.231 206.5V196.932H547.903V195.332H556.367V196.932H553.039V206.5H551.231ZM562.261 206.692C560.389 206.692 559.109 205.956 558.181 204.804L559.429 203.636C560.213 204.596 561.141 205.092 562.357 205.092C563.781 205.092 564.517 204.388 564.517 203.316C564.517 202.452 564.069 201.956 562.773 201.7L561.781 201.524C559.621 201.124 558.517 200.116 558.517 198.34C558.517 196.356 560.053 195.14 562.421 195.14C564.101 195.14 565.333 195.748 566.197 196.852L564.933 197.972C564.357 197.22 563.557 196.74 562.325 196.74C561.045 196.74 560.309 197.268 560.309 198.244C560.309 199.172 560.885 199.572 562.085 199.812L563.077 200.02C565.301 200.452 566.309 201.444 566.309 203.22C566.309 205.3 564.821 206.692 562.261 206.692Z" fill="#171717"/>
<rect x="0.5" y="268.5" width="210" height="247" rx="16" stroke="#171717"/>
<rect x="27.9065" y="304.5" width="48" height="48" rx="14.4" fill="#FBBF24"/>
<path fill-rule="evenodd" clip-rule="evenodd" d="M42.2088 326.561C42.7443 326.561 43.1785 326.995 43.1785 327.53V329.47C43.1785 330.005 42.7443 330.44 42.2088 330.44C41.6732 330.44 41.239 330.005 41.239 329.47V327.53C41.239 326.995 41.6732 326.561 42.2088 326.561Z" fill="#171717"/>
<path fill-rule="evenodd" clip-rule="evenodd" d="M47.0575 323.651C47.5931 323.651 48.0273 324.085 48.0273 324.621V332.379C48.0273 332.915 47.5931 333.349 47.0575 333.349C46.5219 333.349 46.0878 332.915 46.0878 332.379V324.621C46.0878 324.085 46.5219 323.651 47.0575 323.651Z" fill="#171717"/>
<path fill-rule="evenodd" clip-rule="evenodd" d="M51.9063 320.742C52.4418 320.742 52.876 321.176 52.876 321.712V335.288C52.876 335.824 52.4418 336.258 51.9063 336.258C51.3707 336.258 50.9365 335.824 50.9365 335.288V321.712C50.9365 321.176 51.3707 320.742 51.9063 320.742Z" fill="#171717"/>
<path fill-rule="evenodd" clip-rule="evenodd" d="M56.755 323.651C57.2906 323.651 57.7248 324.085 57.7248 324.621V332.379C57.7248 332.915 57.2906 333.349 56.755 333.349C56.2194 333.349 55.7853 332.915 55.7853 332.379V324.621C55.7853 324.085 56.2194 323.651 56.755 323.651Z" fill="#171717"/>
<path fill-rule="evenodd" clip-rule="evenodd" d="M61.6038 326.561C62.1393 326.561 62.5735 326.995 62.5735 327.53V329.47C62.5735 330.005 62.1393 330.44 61.6038 330.44C61.0682 330.44 60.634 330.005 60.634 329.47V327.53C60.634 326.995 61.0682 326.561 61.6038 326.561Z" fill="#171717"/>
<path d="M38.6015 465.602H36.7135L35.7055 462.578H31.5295L30.5535 465.602H28.7135L32.5215 454.434H34.7935L38.6015 465.602ZM35.2575 461.026L33.6575 456.098H33.5775L31.9615 461.026H35.2575ZM40.946 454.434H42.722V461.314C42.722 463.202 43.378 464.178 45.122 464.178C46.866 464.178 47.522 463.202 47.522 461.314V454.434H49.298V461.026C49.298 464.29 48.178 465.794 45.122 465.794C42.066 465.794 40.946 464.29 40.946 461.026V454.434ZM52.9387 465.602V454.434H56.8907C59.7387 454.434 61.6107 456.29 61.6107 460.018C61.6107 463.746 59.7387 465.602 56.8907 465.602H52.9387ZM54.7467 464.002H56.8907C58.5547 464.002 59.6747 462.93 59.6747 460.914V459.122C59.6747 457.106 58.5547 456.034 56.8907 456.034H54.7467V464.002ZM69.2046 465.602H64.3406V464.13H65.8606V455.906H64.3406V454.434H69.2046V455.906H67.6686V464.13H69.2046V465.602ZM76.7569 465.794C73.8449 465.794 71.9409 463.778 71.9409 460.018C71.9409 456.258 73.8449 454.242 76.7569 454.242C79.6689 454.242 81.5729 456.258 81.5729 460.018C81.5729 463.778 79.6689 465.794 76.7569 465.794ZM76.7569 464.178C78.4849 464.178 79.6369 462.93 79.6369 460.898V459.138C79.6369 457.106 78.4849 455.858 76.7569 455.858C75.0289 455.858 73.8769 457.106 73.8769 459.138V460.898C73.8769 462.93 75.0289 464.178 76.7569 464.178Z" fill="#171717"/>
<rect x="231.5" y="268.5" width="210" height="247" rx="16" stroke="#171717"/>
<rect x="258.906" y="304.5" width="48" height="48" rx="14.4" fill="#93C5FD"/>
<path fill-rule="evenodd" clip-rule="evenodd" d="M284.523 319.611V321.227H281.937C281.404 323.512 280.316 325.63 278.769 327.393C279.938 328.586 281.349 329.514 282.907 330.116L282.333 331.603C280.584 330.901 278.999 329.844 277.678 328.5C276.332 329.826 274.747 330.885 273.007 331.619L272.401 330.116C273.95 329.461 275.364 328.524 276.571 327.352C275.478 326.02 274.655 324.489 274.146 322.843H275.844C276.255 324.07 276.882 325.214 277.694 326.221C278.94 324.786 279.824 323.074 280.272 321.227H271.593V319.611H277.25V317.186H278.866V319.611H284.523ZM294.22 339.006H292.483L291.19 335.773H285.654L284.361 339.006H282.624L287.472 326.884H289.371L294.22 339.006ZM288.418 328.856L286.301 334.157H290.543L288.418 328.856Z" fill="#171717"/>
<path d="M266.771 465.602H260.419V454.434H262.227V464.002H266.771V465.602ZM278.727 465.602H276.839L275.831 462.578H271.655L270.679 465.602H268.839L272.647 454.434H274.919L278.727 465.602ZM275.383 461.026L273.783 456.098H273.703L272.087 461.026H275.383ZM288.073 465.602L284.425 459.426L283.193 457.058H283.145V465.602H281.417V454.434H283.433L287.081 460.61L288.313 462.978H288.361V454.434H290.089V465.602H288.073ZM300.983 465.602V463.906H300.919C300.695 464.978 299.607 465.794 297.911 465.794C295.255 465.794 293.303 463.762 293.303 460.018C293.303 456.29 295.255 454.242 298.183 454.242C300.183 454.242 301.575 455.186 302.343 456.754L300.871 457.618C300.439 456.578 299.543 455.858 298.183 455.858C296.423 455.858 295.239 457.058 295.239 459.106V460.93C295.239 462.978 296.423 464.178 298.183 464.178C299.591 464.178 300.823 463.458 300.823 462.066V461.202H298.519V459.65H302.567V465.602H300.983ZM305.976 454.434H307.752V461.314C307.752 463.202 308.408 464.178 310.152 464.178C311.896 464.178 312.552 463.202 312.552 461.314V454.434H314.328V461.026C314.328 464.29 313.208 465.794 310.152 465.794C307.096 465.794 305.976 464.29 305.976 461.026V454.434ZM326.552 465.602H324.664L323.656 462.578H319.48L318.504 465.602H316.664L320.472 454.434H322.744L326.552 465.602ZM323.208 461.026L321.608 456.098H321.528L319.912 461.026H323.208ZM336.082 465.602V463.906H336.018C335.794 464.978 334.706 465.794 333.01 465.794C330.354 465.794 328.402 463.762 328.402 460.018C328.402 456.29 330.354 454.242 333.282 454.242C335.282 454.242 336.674 455.186 337.442 456.754L335.97 457.618C335.538 456.578 334.642 455.858 333.282 455.858C331.522 455.858 330.338 457.058 330.338 459.106V460.93C330.338 462.978 331.522 464.178 333.282 464.178C334.69 464.178 335.922 463.458 335.922 462.066V461.202H333.618V459.65H337.666V465.602H336.082ZM348.291 465.602H341.139V454.434H348.291V456.034H342.947V459.138H347.795V460.738H342.947V464.002H348.291V465.602ZM354.927 465.794C353.055 465.794 351.775 465.058 350.847 463.906L352.095 462.738C352.879 463.698 353.807 464.194 355.023 464.194C356.447 464.194 357.183 463.49 357.183 462.418C357.183 461.554 356.735 461.058 355.439 460.802L354.447 460.626C352.287 460.226 351.183 459.218 351.183 457.442C351.183 455.458 352.719 454.242 355.087 454.242C356.767 454.242 357.999 454.85 358.863 455.954L357.599 457.074C357.023 456.322 356.223 455.842 354.991 455.842C353.711 455.842 352.975 456.37 352.975 457.346C352.975 458.274 353.551 458.674 354.751 458.914L355.743 459.122C357.967 459.554 358.975 460.546 358.975 462.322C358.975 464.402 357.487 465.794 354.927 465.794Z" fill="#171717"/>
<rect x="462.5" y="268.5" width="210" height="247" rx="16" stroke="#171717"/>
<rect x="486.5" y="304.5" width="48" height="48" rx="14.4" fill="#4ADE80"/>
<path fill-rule="evenodd" clip-rule="evenodd" d="M507.606 336.164L511.824 320.42L513.386 320.838L509.167 336.582L507.606 336.164ZM498.378 328.5L504.035 322.843L505.175 323.983L500.665 328.5L505.175 333.017L504.035 334.157L498.378 328.5ZM522.622 328.5L516.965 334.157L515.825 333.017L520.335 328.5L515.825 323.983L516.965 322.843L522.622 328.5Z" fill="#171717"/>
<path d="M492.363 465.794C489.451 465.794 487.675 463.762 487.675 460.018C487.675 456.274 489.451 454.242 492.363 454.242C494.299 454.242 495.595 455.106 496.347 456.77L494.827 457.602C494.443 456.546 493.659 455.858 492.363 455.858C490.651 455.858 489.595 457.106 489.595 459.17V460.866C489.595 462.93 490.651 464.178 492.363 464.178C493.691 464.178 494.539 463.41 494.939 462.322L496.395 463.202C495.643 464.818 494.299 465.794 492.363 465.794ZM503.389 465.794C500.477 465.794 498.573 463.778 498.573 460.018C498.573 456.258 500.477 454.242 503.389 454.242C506.301 454.242 508.205 456.258 508.205 460.018C508.205 463.778 506.301 465.794 503.389 465.794ZM503.389 464.178C505.117 464.178 506.269 462.93 506.269 460.898V459.138C506.269 457.106 505.117 455.858 503.389 455.858C501.661 455.858 500.509 457.106 500.509 459.138V460.898C500.509 462.93 501.661 464.178 503.389 464.178ZM511.419 465.602V454.434H515.371C518.219 454.434 520.091 456.29 520.091 460.018C520.091 463.746 518.219 465.602 515.371 465.602H511.419ZM513.227 464.002H515.371C517.035 464.002 518.155 462.93 518.155 460.914V459.122C518.155 457.106 517.035 456.034 515.371 456.034H513.227V464.002ZM527.685 465.602H522.821V464.13H524.341V455.906H522.821V454.434H527.685V455.906H526.149V464.13H527.685V465.602ZM537.574 465.602L533.926 459.426L532.694 457.058H532.646V465.602H530.918V454.434H532.934L536.582 460.61L537.814 462.978H537.862V454.434H539.59V465.602H537.574ZM550.483 465.602V463.906H550.419C550.195 464.978 549.107 465.794 547.411 465.794C544.755 465.794 542.803 463.762 542.803 460.018C542.803 456.29 544.755 454.242 547.683 454.242C549.683 454.242 551.075 455.186 551.843 456.754L550.371 457.618C549.939 456.578 549.043 455.858 547.683 455.858C545.923 455.858 544.739 457.058 544.739 459.106V460.93C544.739 462.978 545.923 464.178 547.683 464.178C549.091 464.178 550.323 463.458 550.323 462.066V461.202H548.019V459.65H552.067V465.602H550.483Z" fill="#171717"/>
</svg>
