<svg width="672" height="514" viewBox="0 0 672 514" fill="none" xmlns="http://www.w3.org/2000/svg">
<path d="M222 95.5L272.5 66L355.5 113.5" stroke="black" stroke-dasharray="8 8"/>
<mask id="path-2-inside-1_12_4158" fill="white">
<path d="M202.446 126.945L226.214 91.8419L202.324 84.2603L202.169 29.1972C202.135 17.0491 193.503 12.137 182.933 18.2348L29.5876 106.768C19.0181 112.872 10.4473 127.717 10.4811 139.865L10.9148 292.683C10.9486 304.824 19.5804 309.75 30.1499 303.645L183.496 215.112C194.065 209.007 202.643 194.156 202.602 182.015L202.446 126.952"/>
</mask>
<path d="M203.083 181.737L203.583 181.735V181.735L203.083 181.737ZM183.496 215.668L183.746 216.101L183.746 216.101L183.496 215.668ZM30.1499 304.194L30.3999 304.627L30.3999 304.627L30.1499 304.194ZM10.4337 292.961L10.9337 292.959L10.9337 292.959L10.4337 292.961ZM10.0001 140.143L9.5001 140.145L9.5001 140.145L10.0001 140.143ZM29.5876 106.212L29.3376 105.779L29.3374 105.779L29.5876 106.212ZM182.933 17.686L182.683 17.2529L182.683 17.253L182.933 17.686ZM202.427 126.939L202.583 181.738L203.583 181.735L203.427 126.937L202.427 126.939ZM202.583 181.738C202.6 187.855 200.447 194.687 196.932 200.774C193.417 206.862 188.569 212.159 183.246 215.235L183.746 216.101C189.257 212.916 194.219 207.474 197.798 201.274C201.377 195.075 203.6 188.071 203.583 181.735L202.583 181.738ZM183.246 215.235L29.8999 303.761L30.3999 304.627L183.746 216.101L183.246 215.235ZM29.8999 303.761C24.5744 306.835 19.8518 307.073 16.4893 305.158C13.1281 303.244 10.9504 299.078 10.9337 292.959L9.93372 292.962C9.95095 299.296 12.2144 303.874 15.9944 306.027C19.7731 308.179 24.8917 307.807 30.3999 304.627L29.8999 303.761ZM10.9337 292.959L10.5001 140.142L9.5001 140.145L9.93372 292.962L10.9337 292.959ZM10.5001 140.142C10.4835 134.025 12.6368 127.193 16.1515 121.105C19.6661 115.018 24.5146 109.721 29.8377 106.645L29.3374 105.779C23.8268 108.964 18.8646 114.406 15.2855 120.605C11.7064 126.805 9.48286 133.809 9.5001 140.145L10.5001 140.142ZM29.8375 106.645L183.183 18.119L182.683 17.253L29.3376 105.779L29.8375 106.645ZM183.183 18.119C188.509 15.045 193.231 14.8089 196.594 16.7247C199.955 18.6398 202.133 22.8052 202.15 28.9208L203.15 28.9181C203.132 22.5874 200.869 18.0093 197.089 15.8558C193.31 13.703 188.192 14.0733 182.683 17.2529L183.183 18.119ZM226.214 91.8419L227.042 92.4025L227.793 91.2938L226.517 90.8887L226.214 91.8419ZM202.324 84.2603L201.324 84.2631L201.326 84.9927L202.022 85.2134L202.324 84.2603ZM202.169 29.1972L201.169 29.2V29.2001L202.169 29.1972ZM182.933 18.2348L182.434 17.3686L182.433 17.3687L182.933 18.2348ZM29.5876 106.768L29.0876 105.902L29.0874 105.902L29.5876 106.768ZM10.4811 139.865L9.48115 139.868L9.48115 139.868L10.4811 139.865ZM10.9148 292.683L11.9148 292.68L11.9148 292.68L10.9148 292.683ZM30.1499 303.645L29.6499 302.779L29.6498 302.779L30.1499 303.645ZM183.496 215.112L183.996 215.978L183.996 215.978L183.496 215.112ZM202.602 182.015L201.602 182.017V182.018L202.602 182.015ZM203.274 127.505L227.042 92.4025L225.386 91.2812L201.618 126.384L203.274 127.505ZM226.517 90.8887L202.627 83.3071L202.022 85.2134L225.912 92.795L226.517 90.8887ZM203.324 84.2575L203.169 29.1944L201.169 29.2001L201.324 84.2631L203.324 84.2575ZM203.169 29.1945C203.151 22.9055 200.899 18.2277 196.997 16.0049C193.097 13.7836 187.901 14.2143 182.434 17.3686L183.433 19.101C188.535 16.1575 192.94 15.9954 196.007 17.7427C199.072 19.4885 201.152 23.3408 201.169 29.2L203.169 29.1945ZM182.433 17.3687L29.0876 105.902L30.0875 107.634L183.433 19.1008L182.433 17.3687ZM29.0874 105.902C23.615 109.063 18.7162 114.446 15.192 120.55C11.668 126.655 9.4636 133.575 9.48115 139.868L11.4811 139.863C11.4648 134.007 13.5289 127.432 16.9241 121.55C20.3192 115.669 24.9906 110.578 30.0877 107.634L29.0874 105.902ZM9.48115 139.868L9.91477 292.686L11.9148 292.68L11.4811 139.863L9.48115 139.868ZM9.91477 292.686C9.93231 298.971 12.1845 303.65 16.0862 305.875C19.9856 308.098 25.1821 307.669 30.65 304.511L29.6498 302.779C24.5482 305.726 20.144 305.886 17.0768 304.137C14.0117 302.39 11.9311 298.536 11.9148 292.68L9.91477 292.686ZM30.6499 304.511L183.996 215.978L182.996 214.246L29.6499 302.779L30.6499 304.511ZM183.996 215.978C189.468 212.817 194.369 207.433 197.894 201.327C201.419 195.222 203.623 188.301 203.602 182.011L201.602 182.018C201.622 187.869 199.558 194.445 196.162 200.327C192.766 206.209 188.093 211.302 182.996 214.246L183.996 215.978ZM203.602 182.012L203.446 126.949L201.446 126.954L201.602 182.017L203.602 182.012Z" fill="#171717" mask="url(#path-2-inside-1_12_4158)"/>
<mask id="path-4-inside-2_12_4158" fill="white">
<path d="M225.446 133.945L249.214 98.8419L225.324 91.2603L225.169 36.1972C225.135 24.0491 216.503 19.137 205.933 25.2348L52.5876 113.768C42.0181 119.872 33.4473 134.717 33.4811 146.865L33.9148 299.683C33.9486 311.824 42.5804 316.75 53.1499 310.645L206.496 222.112C217.065 216.007 225.643 201.156 225.602 189.015L225.446 133.952"/>
</mask>
<path d="M225.446 133.945L249.214 98.8419L225.324 91.2603L225.169 36.1972C225.135 24.0491 216.503 19.137 205.933 25.2348L52.5876 113.768C42.0181 119.872 33.4473 134.717 33.4811 146.865L33.9148 299.683C33.9486 311.824 42.5804 316.75 53.1499 310.645L206.496 222.112C217.065 216.007 225.643 201.156 225.602 189.015L225.446 133.952" fill="#F5F5F5"/>
<path d="M226.083 188.737L226.583 188.735V188.735L226.083 188.737ZM206.496 222.668L206.746 223.101L206.746 223.101L206.496 222.668ZM53.1499 311.194L53.3999 311.627L53.3999 311.627L53.1499 311.194ZM33.4337 299.961L33.9337 299.959L33.9337 299.959L33.4337 299.961ZM33.0001 147.143L32.5001 147.145L32.5001 147.145L33.0001 147.143ZM52.5876 113.212L52.3376 112.779L52.3374 112.779L52.5876 113.212ZM205.933 24.686L205.683 24.2529L205.683 24.253L205.933 24.686ZM225.427 133.939L225.583 188.738L226.583 188.735L226.427 133.937L225.427 133.939ZM225.583 188.738C225.6 194.855 223.447 201.687 219.932 207.774C216.417 213.862 211.569 219.159 206.246 222.235L206.746 223.101C212.257 219.916 217.219 214.474 220.798 208.274C224.377 202.075 226.6 195.071 226.583 188.735L225.583 188.738ZM206.246 222.235L52.8999 310.761L53.3999 311.627L206.746 223.101L206.246 222.235ZM52.8999 310.761C47.5744 313.835 42.8518 314.073 39.4893 312.158C36.1281 310.244 33.9504 306.078 33.9337 299.959L32.9337 299.962C32.951 306.296 35.2144 310.874 38.9944 313.027C42.7731 315.179 47.8917 314.807 53.3999 311.627L52.8999 310.761ZM33.9337 299.959L33.5001 147.142L32.5001 147.145L32.9337 299.962L33.9337 299.959ZM33.5001 147.142C33.4835 141.025 35.6368 134.193 39.1515 128.105C42.6661 122.018 47.5146 116.721 52.8377 113.645L52.3374 112.779C46.8268 115.964 41.8646 121.406 38.2855 127.605C34.7064 133.805 32.4829 140.809 32.5001 147.145L33.5001 147.142ZM52.8375 113.645L206.183 25.119L205.683 24.253L52.3376 112.779L52.8375 113.645ZM206.183 25.119C211.509 22.045 216.231 21.8089 219.594 23.7247C222.955 25.6398 225.133 29.8052 225.15 35.9208L226.15 35.9181C226.132 29.5874 223.869 25.0093 220.089 22.8558C216.31 20.703 211.192 21.0733 205.683 24.2529L206.183 25.119ZM249.214 98.8419L250.042 99.4025L250.793 98.2938L249.517 97.8887L249.214 98.8419ZM225.324 91.2603L224.324 91.2631L224.326 91.9927L225.022 92.2134L225.324 91.2603ZM225.169 36.1972L224.169 36.2V36.2001L225.169 36.1972ZM205.933 25.2348L205.434 24.3686L205.433 24.3687L205.933 25.2348ZM52.5876 113.768L52.0876 112.902L52.0874 112.902L52.5876 113.768ZM33.4811 146.865L32.4811 146.868L32.4811 146.868L33.4811 146.865ZM33.9148 299.683L34.9148 299.68L34.9148 299.68L33.9148 299.683ZM53.1499 310.645L52.6499 309.779L52.6498 309.779L53.1499 310.645ZM206.496 222.112L206.996 222.978L206.996 222.978L206.496 222.112ZM225.602 189.015L224.602 189.017V189.018L225.602 189.015ZM226.274 134.505L250.042 99.4025L248.386 98.2812L224.618 133.384L226.274 134.505ZM249.517 97.8887L225.627 90.3071L225.022 92.2134L248.912 99.795L249.517 97.8887ZM226.324 91.2575L226.169 36.1944L224.169 36.2001L224.324 91.2631L226.324 91.2575ZM226.169 36.1945C226.151 29.9055 223.899 25.2277 219.997 23.0049C216.097 20.7836 210.901 21.2143 205.434 24.3686L206.433 26.101C211.535 23.1575 215.94 22.9954 219.007 24.7427C222.072 26.4885 224.152 30.3408 224.169 36.2L226.169 36.1945ZM205.433 24.3687L52.0876 112.902L53.0875 114.634L206.433 26.1008L205.433 24.3687ZM52.0874 112.902C46.615 116.063 41.7162 121.446 38.192 127.55C34.668 133.655 32.4636 140.575 32.4811 146.868L34.4811 146.863C34.4648 141.007 36.5289 134.432 39.9241 128.55C43.3192 122.669 47.9906 117.578 53.0877 114.634L52.0874 112.902ZM32.4811 146.868L32.9148 299.686L34.9148 299.68L34.4811 146.863L32.4811 146.868ZM32.9148 299.686C32.9323 305.971 35.1845 310.65 39.0862 312.875C42.9856 315.098 48.1821 314.669 53.65 311.511L52.6498 309.779C47.5482 312.726 43.144 312.886 40.0768 311.137C37.0117 309.39 34.9311 305.536 34.9148 299.68L32.9148 299.686ZM53.6499 311.511L206.996 222.978L205.996 221.246L52.6499 309.779L53.6499 311.511ZM206.996 222.978C212.468 219.817 217.369 214.433 220.894 208.327C224.419 202.222 226.623 195.301 226.602 189.011L224.602 189.018C224.622 194.869 222.558 201.445 219.162 207.327C215.766 213.209 211.093 218.302 205.996 221.246L206.996 222.978ZM226.602 189.012L226.446 133.949L224.446 133.954L224.602 189.017L226.602 189.012Z" fill="#171717" mask="url(#path-4-inside-2_12_4158)"/>
<path d="M124.541 149.482L124.568 157.111L117.928 160.946L117.901 153.317L124.541 149.482Z" fill="black"/>
<path d="M141.086 120.829L141.106 128.458L134.473 132.293L134.453 124.657L141.086 120.829Z" fill="black"/>
<path d="M174.285 101.661L174.312 109.291L167.672 113.125L167.645 105.496L174.285 101.661Z" fill="black"/>
<path d="M190.945 111.147L190.966 118.776L184.326 122.611L184.306 114.982L190.945 111.147Z" fill="black"/>
<path d="M191 130.226L191.02 137.849L184.38 141.683L184.36 134.061L191 130.226Z" fill="black"/>
<path d="M157.855 168.466L157.875 176.095L151.235 179.93L151.215 172.301L157.855 168.466Z" fill="black"/>
<path d="M157.909 187.539L157.929 195.168L151.29 199.003L151.269 191.374L157.909 187.539Z" fill="black"/>
<mask id="path-13-inside-3_12_4158" fill="white">
<path d="M250.446 139.949L250.324 97.2642L250.169 42.2011C250.135 30.053 241.503 25.1409 230.933 31.2387L77.5876 119.772C67.0181 125.876 58.4473 140.721 58.4811 152.869L58.9148 305.687C58.9486 317.828 67.5804 322.754 78.1499 316.649L231.496 228.116C242.065 222.011 250.643 207.16 250.602 195.019L250.446 139.955"/>
</mask>
<path d="M250.446 139.949L250.324 97.2642L250.169 42.2011C250.135 30.053 241.503 25.1409 230.933 31.2387L77.5876 119.772C67.0181 125.876 58.4473 140.721 58.4811 152.869L58.9148 305.687C58.9486 317.828 67.5804 322.754 78.1499 316.649L231.496 228.116C242.065 222.011 250.643 207.16 250.602 195.019L250.446 139.955" fill="#4ADE80"/>
<path d="M251.083 194.741L251.583 194.739V194.739L251.083 194.741ZM231.496 228.672L231.746 229.105L231.746 229.104L231.496 228.672ZM78.1499 317.198L78.3999 317.631L78.3999 317.631L78.1499 317.198ZM58.4337 305.964L58.9337 305.963L58.9337 305.963L58.4337 305.964ZM58.0001 153.147L57.5001 153.148L57.5001 153.148L58.0001 153.147ZM77.5876 119.216L77.3376 118.783L77.3374 118.783L77.5876 119.216ZM230.933 30.6899L230.683 30.2568L230.683 30.2569L230.933 30.6899ZM250.427 139.943L250.583 194.742L251.583 194.739L251.427 139.941L250.427 139.943ZM250.583 194.742C250.6 200.859 248.447 207.691 244.932 213.778C241.417 219.866 236.569 225.163 231.246 228.239L231.746 229.104C237.257 225.92 242.219 220.478 245.798 214.278C249.377 208.079 251.6 201.075 251.583 194.739L250.583 194.742ZM231.246 228.239L77.8999 316.765L78.3999 317.631L231.746 229.105L231.246 228.239ZM77.8999 316.765C72.5744 319.839 67.8518 320.077 64.4893 318.162C61.1281 316.247 58.9504 312.082 58.9337 305.963L57.9337 305.966C57.951 312.3 60.2144 316.878 63.9944 319.031C67.7731 321.183 72.8917 320.81 78.3999 317.631L77.8999 316.765ZM58.9337 305.963L58.5001 153.146L57.5001 153.148L57.9337 305.966L58.9337 305.963ZM58.5001 153.146C58.4835 147.029 60.6368 140.197 64.1515 134.109C67.6661 128.022 72.5146 122.725 77.8377 119.649L77.3374 118.783C71.8268 121.968 66.8646 127.41 63.2855 133.609C59.7064 139.809 57.4829 146.813 57.5001 153.148L58.5001 153.146ZM77.8375 119.649L231.183 31.1229L230.683 30.2569L77.3376 118.783L77.8375 119.649ZM231.183 31.1229C236.509 28.0489 241.231 27.8128 244.594 29.7286C247.955 31.6437 250.133 35.8091 250.15 41.9247L251.15 41.922C251.132 35.5913 248.869 31.0132 245.089 28.8597C241.31 26.7069 236.192 27.0772 230.683 30.2568L231.183 31.1229ZM250.324 97.2642L249.324 97.267V97.2671L250.324 97.2642ZM250.169 42.2011L249.169 42.2039V42.204L250.169 42.2011ZM230.933 31.2387L230.434 30.3725L230.433 30.3727L230.933 31.2387ZM77.5876 119.772L77.0876 118.906L77.0874 118.906L77.5876 119.772ZM58.4811 152.869L57.4811 152.872L57.4811 152.872L58.4811 152.869ZM58.9148 305.687L59.9148 305.684L59.9148 305.684L58.9148 305.687ZM78.1499 316.649L77.6499 315.783L77.6498 315.783L78.1499 316.649ZM231.496 228.116L231.996 228.982L231.996 228.982L231.496 228.116ZM250.602 195.019L249.602 195.021V195.022L250.602 195.019ZM251.446 139.946L251.324 97.2613L249.324 97.2671L249.446 139.952L251.446 139.946ZM251.324 97.2614L251.169 42.1983L249.169 42.204L249.324 97.267L251.324 97.2614ZM251.169 42.1984C251.151 35.9094 248.899 31.2316 244.997 29.0088C241.097 26.7875 235.901 27.2182 230.434 30.3725L231.433 32.1049C236.535 29.1614 240.94 28.9993 244.007 30.7466C247.072 32.4924 249.152 36.3447 249.169 42.2039L251.169 42.1984ZM230.433 30.3727L77.0876 118.906L78.0875 120.638L231.433 32.1047L230.433 30.3727ZM77.0874 118.906C71.615 122.067 66.7162 127.45 63.192 133.554C59.668 139.659 57.4636 146.579 57.4811 152.872L59.4811 152.866C59.4648 147.011 61.5289 140.435 64.9241 134.554C68.3192 128.673 72.9906 123.582 78.0877 120.638L77.0874 118.906ZM57.4811 152.872L57.9148 305.689L59.9148 305.684L59.4811 152.866L57.4811 152.872ZM57.9148 305.689C57.9323 311.975 60.1845 316.654 64.0862 318.879C67.9856 321.102 73.1821 320.673 78.65 317.515L77.6498 315.783C72.5482 318.73 68.144 318.89 65.0768 317.141C62.0117 315.394 59.9311 311.54 59.9148 305.684L57.9148 305.689ZM78.6499 317.515L231.996 228.982L230.996 227.25L77.6499 315.783L78.6499 317.515ZM231.996 228.982C237.468 225.821 242.369 220.436 245.894 214.331C249.419 208.226 251.623 201.305 251.602 195.015L249.602 195.022C249.622 200.873 247.558 207.449 244.162 213.331C240.766 219.213 236.093 224.306 230.996 227.25L231.996 228.982ZM251.602 195.016L251.446 139.953L249.446 139.958L249.602 195.021L251.602 195.016Z" fill="#171717" mask="url(#path-13-inside-3_12_4158)"/>
<path d="M374.96 439.319L425.686 468.553C431.533 471.929 431.533 477.446 425.686 480.823L374.219 510.468C368.372 513.844 358.82 513.844 352.973 510.468L214.711 430.92C210.182 428.285 210.182 424.003 214.711 421.368L268.567 390.405C274.414 387.028 283.966 387.028 289.813 390.405L374.96 439.319Z" fill="#FAFAFA"/>
<path d="M370.431 495.645C386.654 495.645 399.829 488.069 399.829 478.681C399.829 469.294 386.654 461.718 370.431 461.718C354.209 461.718 341.033 469.294 341.033 478.681C340.951 488.069 354.126 495.645 370.431 495.645Z" fill="#262626"/>
<path d="M177.984 228.921V288.706C177.984 290.435 179.137 292.246 181.443 293.564L222.452 317.198C227.063 319.915 234.722 319.915 239.333 317.198L281.495 292.905C283.307 291.835 284.213 290.517 284.213 289.117V229.333L177.984 228.921Z" fill="#FAFAFA" stroke="#262626" stroke-width="0.985565" stroke-miterlimit="10"/>
<path d="M222.452 257.249C227.063 259.884 234.721 259.884 239.333 257.249L281.495 233.203C285.118 231.144 285.118 227.768 281.495 225.709L238.674 201.252C234.063 198.617 226.404 198.617 221.793 201.252L181.525 224.227C176.913 226.862 176.913 231.227 181.525 233.862L222.452 257.249Z" fill="#FAFAFA" stroke="#262626" stroke-width="0.985565" stroke-miterlimit="10"/>
<path d="M225.828 220.439C230.933 217.474 239.333 217.474 244.521 220.439L246.991 221.839C252.097 224.803 252.097 229.579 246.991 232.462L238.674 237.238C233.569 240.202 225.169 240.202 219.981 237.238L217.511 235.838C212.405 232.873 212.405 228.097 217.511 225.215L225.828 220.439Z" fill="#FAFAFA" stroke="#262626" stroke-width="0.985565" stroke-miterlimit="10"/>
<path d="M215.946 211.792V230.403C215.946 232.05 217.017 233.697 219.24 234.932L221.381 236.167C225.746 238.638 232.91 238.638 237.274 236.167L245.344 231.556C247.568 230.321 248.638 228.674 248.638 227.027V208.416L215.946 211.792Z" fill="#FAFAFA" stroke="#262626" stroke-width="0.604393" stroke-miterlimit="10"/>
<path d="M230.687 210.228V237.897C233.075 237.732 235.381 237.156 237.193 236.085L245.263 231.474C247.486 230.238 248.557 228.591 248.557 226.944V208.416L230.687 210.228Z" fill="#D4D4D4"/>
<path d="M193.054 225.544L191.242 224.474C190.748 224.227 190.007 224.227 189.513 224.474L185.56 226.78C184.984 227.109 184.737 227.933 184.737 228.756V229.085C184.737 229.25 184.819 229.415 185.066 229.58L187.372 230.897C187.866 231.144 188.607 231.144 189.101 230.897L193.466 228.344C193.713 228.18 193.795 228.015 193.795 227.85V227.768C193.96 226.615 193.631 225.874 193.054 225.544Z" fill="#93C5FD"/>
<path d="M189.348 228.921L193.136 226.615" stroke="#262626" stroke-width="0.985565" stroke-miterlimit="10" stroke-linecap="round"/>
<path d="M191.242 224.557C190.748 224.31 190.007 224.31 189.513 224.557L185.56 226.862C184.984 227.192 184.737 228.015 184.737 228.839V229.168C184.737 229.333 184.819 229.497 185.066 229.662L187.372 230.98C187.866 231.227 188.607 231.227 189.101 230.98L193.466 228.427C193.713 228.262 193.795 228.098 193.795 227.933V227.851C193.795 226.615 193.795 226.204 193.219 225.874L191.242 224.557Z" stroke="#262626" stroke-width="0.985565" stroke-miterlimit="10" stroke-linecap="round"/>
<path d="M205.118 291V275.836L194 261.248L203.977 260L215 274.204V289.848L205.118 291Z" fill="#262626"/>
<path d="M202 284.819V290L192.098 277.754L192 264L195.725 268.71V276.906L202 284.819Z" fill="#262626"/>
<path d="M230.357 259.389V319.174H233.651L239.416 317.115L281.495 292.823L282.73 291.999L284.295 290.352V289.117V230.403L282.813 232.215L280.919 233.45L245.921 253.872L243.286 255.354L239.416 257.413L236.039 258.813L233.075 259.307L230.357 259.389Z" fill="#262626"/>
<path d="M368.29 71.4721L600.263 205.37L587.088 176.383L355.114 42.4857L368.29 71.4721Z" fill="#D4D4D4" stroke="#262626" stroke-width="0.985565" stroke-miterlimit="10"/>
<path d="M312.541 254.037L544.515 387.934L600.182 205.369L368.29 71.4719L312.541 254.037Z" fill="#FAFAFA" stroke="#262626" stroke-width="0.985565" stroke-miterlimit="10"/>
<path d="M245.757 304.186H255.721C257.038 303.198 258.356 302.292 259.92 301.386L312.541 253.46L545.256 388.346V405.392L492.635 435.778C475.342 445.742 449.073 446.895 434.086 438.166L255.721 335.231C249.709 331.773 246.415 327.244 245.757 322.385V304.186Z" fill="#FAFAFA" stroke="#262626" stroke-width="0.985565" stroke-miterlimit="10"/>
<path d="M511.822 357.96L358.326 269.189C354.95 267.212 351.738 264.742 348.938 261.86C337.739 250.413 333.704 233.862 338.398 218.545L370.267 113.881C372.243 107.293 377.101 102.105 383.442 99.5523C389.865 96.9996 396.947 97.576 402.876 101.035L556.455 189.806C571.936 198.781 580.5 216.733 577.701 234.438C577.371 236.661 576.877 238.638 576.383 240.449L544.432 345.113C542.456 351.701 537.597 356.889 531.256 359.442C528.621 360.513 525.822 361.007 523.022 361.007C519.151 361.007 515.281 359.936 511.822 357.96Z" fill="#FAFAFA" stroke="#262626" stroke-width="0.655808" stroke-miterlimit="10"/>
<path d="M412.511 152.832C402.959 135.127 394.806 116.681 385.254 98.9762C384.595 99.1409 384.019 99.3879 383.442 99.635C377.019 102.188 372.243 107.376 370.266 113.963L338.398 218.628C333.704 233.944 337.821 250.496 348.938 261.942C351.738 264.825 354.867 267.295 358.326 269.271L511.905 358.042C515.363 360.019 519.234 361.089 523.104 361.089C525.821 361.007 422.31 171.195 412.511 152.832Z" fill="#D4D4D4"/>
<path d="M555.137 196.228L404.523 109.352C401.641 107.705 398.429 106.881 395.3 106.881C392.994 106.881 390.689 107.293 388.465 108.199C383.195 110.257 379.16 114.622 377.513 120.057L346.221 222.58C342.021 236.332 345.645 251.319 355.773 261.613C358.326 264.248 361.126 266.389 364.255 268.2L514.869 355.16C519.81 357.96 525.657 358.454 530.927 356.313C536.197 354.254 540.232 349.889 541.879 344.454L573.171 241.931C573.666 240.285 574.077 238.555 574.407 236.497C576.877 220.521 569.136 204.381 555.137 196.228Z" fill="#262626" stroke="#262626" stroke-width="0.419717" stroke-miterlimit="10"/>
<path d="M451.873 333.832V443.437C465.707 445.248 481.847 442.613 493.788 435.696L545.255 405.31V388.099L451.873 333.832Z" fill="#262626"/>
<path d="M255.72 318.268L434.086 421.202C449.073 429.849 475.342 428.778 492.635 418.732L545.255 388.346L312.54 253.46L259.92 284.423C242.627 294.469 240.733 309.539 255.72 318.268Z" fill="#FAFAFA" stroke="#262626" stroke-width="0.985565" stroke-miterlimit="10"/>
<path d="M388.466 108.117C383.195 110.176 379.16 114.54 377.513 119.975L346.221 222.498C342.021 236.25 345.645 251.237 355.773 261.531C358.326 264.166 361.126 266.307 364.255 268.119L514.869 355.078C519.81 357.878 525.657 358.372 530.927 356.231C536.198 354.172 540.233 349.808 541.88 344.373L573.172 241.85C573.666 240.203 574.077 238.473 574.407 236.415C576.877 220.439 569.219 204.299 555.22 196.147L404.523 109.352C401.641 107.705 398.43 106.882 395.3 106.882C392.995 106.799 390.689 107.293 388.466 108.117Z" stroke="#262626" stroke-width="0.655808" stroke-miterlimit="10"/>
<path d="M432.274 466.906C436.721 469.459 444.049 469.459 448.496 466.906C451.955 464.93 451.955 461.636 448.496 459.659L229.204 333.173C225.745 331.197 220.063 331.197 216.605 333.173C212.158 335.726 212.158 339.926 216.605 342.478L432.274 466.906Z" fill="#262626"/>
<path d="M269.473 367.265C271.367 368.336 274.414 368.336 276.308 367.265C277.79 366.442 277.79 365.042 276.308 364.218L225.829 335.149C224.346 334.326 221.958 334.326 220.476 335.149C218.582 336.22 218.582 338.032 220.476 339.102L269.473 367.265Z" fill="#D4D4D4"/>
<path d="M237.028 341.491L225.911 334.985C224.429 334.079 222.041 334.079 220.559 334.985C218.253 336.385 218.665 338.032 220.559 339.185L230.687 345.031L237.028 341.491Z" fill="#FB923C"/>
<path d="M433.592 446.154V462.212C433.592 464.271 436.392 465.918 439.768 465.918C443.227 465.918 445.944 464.271 445.944 462.212V446.154H433.592Z" fill="#FAFAFA" stroke="#262626" stroke-width="0.419717" stroke-miterlimit="10"/>
<path d="M433.592 446.154V462.212C433.592 464.271 436.392 465.918 439.768 465.918C443.227 465.918 445.944 464.271 445.944 462.212V446.154H433.592Z" fill="#FAFAFA" stroke="#262626" stroke-width="0.985565" stroke-miterlimit="10" stroke-linecap="round"/>
<path d="M439.768 449.86C443.227 449.86 445.944 448.377 445.944 446.566C445.944 444.754 443.144 443.272 439.768 443.272C436.392 443.272 433.592 444.754 433.592 446.566C433.592 448.377 436.309 449.86 439.768 449.86Z" fill="#FAFAFA" stroke="#262626" stroke-width="0.985565" stroke-miterlimit="10" stroke-linecap="round"/>
<path d="M445.697 447.636C445.862 447.389 445.944 447.06 445.944 446.73C445.944 444.836 442.98 443.272 439.357 443.272V447.636H445.697Z" fill="#262626" stroke="#262626" stroke-width="0.419717" stroke-miterlimit="10" stroke-linecap="round"/>
<path d="M436.475 441.049V445.99C436.475 446.895 437.792 447.637 439.357 447.637C441.004 447.637 442.239 446.895 442.239 445.99V441.049H436.475Z" fill="#FAFAFA" stroke="#262626" stroke-width="0.419717" stroke-miterlimit="10"/>
<path d="M436.475 441.049V445.99C436.475 446.895 437.792 447.637 439.357 447.637C441.004 447.637 442.239 446.895 442.239 445.99V441.049H436.475Z" fill="#FAFAFA" stroke="#262626" stroke-width="0.985565" stroke-miterlimit="10" stroke-linecap="round"/>
<path d="M442.321 441.048C442.321 441.872 441.003 442.531 439.439 442.531C437.792 442.531 436.557 441.872 436.557 441.048C436.557 440.225 437.874 439.566 439.439 439.566C441.003 439.649 442.321 440.225 442.321 441.048Z" fill="#262626" stroke="#262626" stroke-width="0.985565" stroke-miterlimit="10" stroke-linecap="round"/>
<path d="M423.298 456.365C426.098 456.365 428.404 455.048 428.404 453.483C428.404 451.836 426.098 450.601 423.298 450.601C420.498 450.601 418.193 451.918 418.193 453.483C418.193 455.13 420.498 456.365 423.298 456.365Z" stroke="#FAFAFA" stroke-width="0.985565" stroke-miterlimit="10" stroke-linecap="round"/>
<path d="M409.135 448.378C412.181 448.378 414.57 447.06 414.57 445.496C414.57 443.849 412.099 442.613 409.135 442.613C406.088 442.613 403.7 443.931 403.7 445.496C403.617 447.06 406.088 448.378 409.135 448.378Z" stroke="#FAFAFA" stroke-width="0.985565" stroke-miterlimit="10" stroke-linecap="round"/>
<path d="M231.428 344.784L236.534 341.902" stroke="#262626" stroke-width="0.985565" stroke-miterlimit="10" stroke-linecap="round"/>
<path d="M245.345 352.772L250.45 349.89" stroke="#262626" stroke-width="0.985565" stroke-miterlimit="10" stroke-linecap="round"/>
<path d="M259.921 360.842L264.285 357.96" stroke="#262626" stroke-width="0.985565" stroke-miterlimit="10" stroke-linecap="round"/>
<path d="M197.007 419.639C201.124 421.944 207.794 421.944 211.829 419.639L265.355 389.005C271.614 385.382 271.614 379.535 265.355 375.912L214.135 346.514C210.018 344.208 203.347 344.208 199.312 346.514L164.644 366.36L148.339 375.665L146.774 376.571C139.94 380.523 139.94 386.947 146.774 390.899L197.007 419.639Z" fill="#FAFAFA" stroke="#262626" stroke-width="0.985565" stroke-miterlimit="10"/>
<path d="M206.97 397.322C222.452 397.322 234.969 390.158 234.969 381.264C234.969 372.37 222.452 365.206 206.97 365.206C191.489 365.206 178.972 372.37 178.972 381.264C178.89 390.158 191.489 397.322 206.97 397.322Z" fill="#262626" stroke="#262626" stroke-width="0.985565" stroke-miterlimit="10"/>
<path d="M205.9 404.322C226.734 404.322 243.615 394.687 243.615 382.747C243.615 370.806 226.734 361.171 205.9 361.171C185.066 361.171 168.185 370.806 168.185 382.747C168.267 394.687 185.066 404.322 205.9 404.322Z" stroke="#262626" stroke-width="0.985565" stroke-miterlimit="10"/>
<path d="M233.24 366.359V377.723C233.24 386.37 220.97 393.369 205.9 393.369C190.83 393.369 178.561 386.37 178.561 377.723V366.359H233.24Z" fill="#FAFAFA"/>
<path d="M208.865 366.359H233.24V377.723C233.24 385.793 222.535 392.463 208.865 393.287V366.359Z" fill="#D4D4D4"/>
<path d="M233.24 366.359V377.723C233.24 386.37 220.97 393.369 205.9 393.369C190.83 393.369 178.561 386.37 178.561 377.723V366.359H233.24Z" stroke="#262626" stroke-width="0.985565" stroke-miterlimit="10"/>
<path d="M205.9 382.005C220.97 382.005 233.24 375.006 233.24 366.359C233.24 357.713 220.97 350.713 205.9 350.713C190.83 350.713 178.561 357.713 178.561 366.359C178.561 375.006 190.83 382.005 205.9 382.005Z" fill="#FAFAFA" stroke="#262626" stroke-width="0.985565" stroke-miterlimit="10"/>
<path d="M375.207 439.319L425.934 468.553C431.78 471.929 431.78 477.446 425.934 480.823L374.466 510.468C368.62 513.844 359.067 513.844 353.221 510.468L214.959 430.92C210.429 428.285 210.429 424.003 214.959 421.367L268.814 390.405C274.661 387.028 284.213 387.028 290.06 390.405L375.207 439.319Z" stroke="#262626" stroke-width="0.985565" stroke-miterlimit="10"/>
<path d="M440.015 335.396L486.459 362.159C491.812 365.206 491.812 370.312 486.459 373.359L439.356 400.451C434.004 403.498 425.275 403.498 419.922 400.451L293.436 327.656C289.236 325.268 289.236 321.315 293.436 318.927L342.68 290.599C348.033 287.552 356.762 287.552 362.114 290.599L440.015 335.396Z" stroke="#262626" stroke-width="0.985565" stroke-miterlimit="10"/>
<path d="M312.623 423.674V417.086H301.176L279.684 404.734C277.296 403.334 273.343 403.334 270.955 404.734L250.533 416.509L249.462 417.086H236.945V424.332C236.78 425.979 237.769 427.709 239.992 428.944L269.555 445.99C271.943 447.39 275.896 447.39 278.284 445.99L309.905 427.791C311.882 426.721 312.787 425.156 312.623 423.674Z" fill="#FAFAFA" stroke="#262626" stroke-width="0.985565" stroke-miterlimit="10"/>
<path d="M269.473 438.743C271.861 440.143 275.814 440.143 278.202 438.743L309.824 420.544C313.529 418.403 313.529 414.945 309.824 412.804L279.602 395.428C277.214 394.028 273.261 394.028 270.873 395.428L250.451 407.204L240.816 412.721L239.91 413.215C235.875 415.521 235.875 419.391 239.91 421.697L269.473 438.743Z" fill="#4ADE80" stroke="#262626" stroke-width="0.985565" stroke-miterlimit="10"/>
<path d="M278.284 438.743V445.99L309.905 427.791L310.894 427.132L311.635 426.391L312.293 425.321L312.623 424.332V419.062V417.58L311.882 418.568L311.141 419.721L310.235 420.38L278.284 438.743Z" fill="#262626"/>
<path d="M361.29 453.401V446.813H349.844L328.351 434.461C325.963 433.061 322.01 433.061 319.622 434.461L299.2 446.237L298.13 446.813H285.613V454.06C285.448 455.707 286.436 457.436 288.66 458.671L318.222 475.717C320.61 477.117 324.563 477.117 326.951 475.717L358.573 457.518C360.549 456.448 361.455 454.883 361.29 453.401Z" fill="#FAFAFA" stroke="#262626" stroke-width="0.985565" stroke-miterlimit="10"/>
<path d="M318.222 468.47C320.61 469.87 324.563 469.87 326.951 468.47L358.572 450.271C362.278 448.13 362.278 444.672 358.572 442.531L328.351 425.155C325.963 423.755 322.01 423.755 319.622 425.155L299.2 436.931L289.565 442.448L288.659 442.942C284.624 445.248 284.624 449.118 288.659 451.424L318.222 468.47Z" fill="#FAFAFA" stroke="#262626" stroke-width="0.985565" stroke-miterlimit="10"/>
<path d="M326.952 468.47V475.717L358.574 457.518L359.562 456.859L360.303 456.118L360.962 455.047L361.291 454.059V448.871V447.389L360.55 448.377L359.809 449.53L358.903 450.189L326.952 468.47Z" fill="#262626"/>
<path d="M291.295 418.568V420.297H259.097L259.015 409.098H262.062L262.144 418.486H291.295V418.568Z" fill="#262626"/>
<path d="M342.351 445.495V447.554H325.223L325.305 457.436H321.682L321.599 447.554H304.553V445.413H321.682L321.599 435.449H325.223L325.305 445.331L342.351 445.495Z" fill="#262626"/>
<path d="M392.912 359.771C405.511 359.771 415.722 354.336 415.722 347.584C415.722 340.831 405.511 335.396 392.912 335.396C380.313 335.396 370.101 340.831 370.101 347.584C370.101 353.595 380.313 359.771 392.912 359.771Z" fill="#262626" stroke="#262626" stroke-width="0.511662" stroke-miterlimit="10"/>
<path d="M411.523 337.867V346.513C411.523 353.101 402.217 358.371 390.771 358.371C379.325 358.371 370.02 353.019 370.02 346.513V337.867H411.523Z" fill="#FAFAFA"/>
<path d="M393.077 337.867H411.522V346.513C411.522 352.607 403.452 357.63 393.077 358.289V337.867Z" fill="#D4D4D4"/>
<path d="M411.523 337.867V346.513C411.523 353.101 402.217 358.371 390.771 358.371C379.325 358.371 370.02 353.019 370.02 346.513V337.867H411.523Z" stroke="#262626" stroke-width="0.985565" stroke-miterlimit="10"/>
<path d="M390.853 349.725C402.299 349.725 411.605 344.372 411.605 337.867C411.605 331.279 402.299 326.009 390.853 326.009C379.407 326.009 370.101 331.361 370.101 337.867C370.101 344.455 379.407 349.725 390.853 349.725Z" fill="#FAFAFA" stroke="#262626" stroke-width="0.985565" stroke-miterlimit="10"/>
<path d="M434.827 383.24C447.591 383.24 457.966 377.805 457.966 371.053C457.966 364.3 447.591 358.865 434.827 358.865C422.063 358.865 411.687 364.3 411.687 371.053C411.687 377.805 421.981 383.24 434.827 383.24Z" fill="#262626" stroke="#262626" stroke-width="0.511662" stroke-miterlimit="10"/>
<path d="M452.779 360.842V369.489C452.779 376.077 443.473 381.347 432.027 381.347C420.581 381.347 411.275 375.994 411.275 369.489V360.842H452.779Z" fill="#FAFAFA"/>
<path d="M434.333 360.842H452.779V369.489C452.779 375.583 444.709 380.606 434.333 381.265V360.842Z" fill="#D4D4D4"/>
<path d="M452.779 360.842V369.489C452.779 376.077 443.473 381.347 432.027 381.347C420.581 381.347 411.275 375.994 411.275 369.489V360.842H452.779Z" stroke="#262626" stroke-width="0.985565" stroke-miterlimit="10"/>
<path d="M432.11 372.7C443.556 372.7 452.862 367.347 452.862 360.842C452.862 354.336 443.556 348.984 432.11 348.984C420.664 348.984 411.359 354.336 411.359 360.842C411.359 367.347 420.664 372.7 432.11 372.7Z" fill="#FAFAFA" stroke="#262626" stroke-width="0.985565" stroke-miterlimit="10"/>
<path d="M327.116 276.848V282.53C327.116 286.812 321.022 290.353 313.528 290.353C306.035 290.353 299.941 286.894 299.941 282.53V276.848H327.116Z" fill="#FAFAFA"/>
<path d="M315.011 276.848H327.116V282.53C327.116 286.565 321.846 289.858 315.011 290.27V276.848Z" fill="#D4D4D4"/>
<path d="M327.116 276.848V282.53C327.116 286.812 321.022 290.353 313.528 290.353C306.035 290.353 299.941 286.894 299.941 282.53V276.848H327.116Z" stroke="#262626" stroke-width="0.985565" stroke-miterlimit="10"/>
<path d="M313.528 284.671C321.022 284.671 327.116 281.212 327.116 276.848C327.116 272.483 321.022 269.025 313.528 269.025C306.035 269.025 299.941 272.483 299.941 276.848C299.941 281.212 306.035 284.671 313.528 284.671Z" fill="#FAFAFA" stroke="#262626" stroke-width="0.985565" stroke-miterlimit="10"/>
<path d="M669.024 135.456L587.005 176.465L600.181 205.452L544.514 387.44L544.102 406.051L666.965 335.891C669.435 334.491 671 331.773 671 328.891V144.35C671 141.303 670.341 138.338 669.106 135.621L669.024 135.456Z" fill="#262626" stroke="#262626" stroke-width="0.655808" stroke-miterlimit="10"/>
<path d="M668.777 134.88C667.871 132.903 666.306 131.174 664.412 130.103L444.461 2.54671C441.085 0.570359 436.968 0.488012 433.509 2.29966L355.114 42.4854L587.088 176.383L668.859 134.962L668.777 134.88Z" fill="#FAFAFA" stroke="#262626" stroke-width="0.985565" stroke-miterlimit="10"/>
<path d="M616.486 349.066L602.322 341.573C600.511 340.585 597.793 342.314 596.146 345.361C594.499 348.408 594.664 351.619 596.476 352.525L610.639 360.019L616.486 349.066Z" fill="#FAFAFA" stroke="#262626" stroke-width="0.985565" stroke-miterlimit="10" stroke-linecap="round"/>
<path d="M610.31 352.772C608.663 355.819 608.663 358.948 610.31 359.771C611.875 360.595 614.51 358.866 616.157 355.819C617.804 352.772 617.804 349.643 616.157 348.819C614.592 347.996 611.957 349.807 610.31 352.772Z" fill="#FAFAFA" stroke="#262626" stroke-width="0.985565" stroke-miterlimit="10" stroke-linecap="round"/>
<path d="M584.783 351.949C583.136 354.996 583.136 358.125 584.783 358.948C586.347 359.772 588.982 358.043 590.629 354.996C592.276 351.949 592.276 348.82 590.629 347.996C588.982 347.173 586.347 348.902 584.783 351.949Z" fill="#262626" stroke="#FAFAFA" stroke-width="0.985565" stroke-miterlimit="10" stroke-linecap="round"/>
<path d="M572.019 359.277C570.372 362.324 570.372 365.453 572.019 366.277C573.583 367.1 576.218 365.371 577.865 362.324C579.512 359.277 579.512 356.148 577.865 355.325C576.218 354.501 573.583 356.231 572.019 359.277Z" fill="#262626" stroke="#FAFAFA" stroke-width="0.985565" stroke-miterlimit="10" stroke-linecap="round"/>
<path d="M619.616 354.008L615.252 351.702C614.428 351.29 613.193 352.114 612.452 353.513C611.711 354.913 611.711 356.396 612.534 356.89L616.899 359.195L619.616 354.008Z" fill="#FAFAFA" stroke="#262626" stroke-width="0.985565" stroke-miterlimit="10" stroke-linecap="round"/>
<path d="M616.898 359.195C616.157 358.784 616.24 357.384 616.981 355.902C617.722 354.502 618.957 353.596 619.616 354.007C620.275 354.419 620.275 355.819 619.533 357.301C618.792 358.701 617.557 359.525 616.898 359.195Z" fill="#262626" stroke="#262626" stroke-width="0.419717" stroke-miterlimit="10" stroke-linecap="round"/>
<path d="M501.611 452.495C500.046 452.495 498.482 452.331 496.917 451.919C492.059 450.684 488.024 447.637 485.471 443.355L471.883 420.297C467.19 412.392 459.037 411.321 453.52 412.804C448.002 414.286 441.497 419.391 441.497 428.532V439.649C441.497 440.802 440.591 441.79 439.356 441.79C438.203 441.79 437.215 440.884 437.215 439.649V428.532C437.215 418.98 443.144 411.239 452.367 408.686C461.59 406.133 470.648 409.839 475.507 418.074L489.094 441.131C491.07 444.425 494.2 446.813 497.905 447.801C501.611 448.79 505.564 448.213 508.858 446.237L629.579 374.594C631.473 373.441 632.544 371.465 632.297 369.242C632.132 367.018 630.732 365.289 628.674 364.465C628.591 364.465 628.509 364.383 628.426 364.383L618.462 359.113C617.474 358.536 617.062 357.301 617.557 356.231C618.133 355.242 619.368 354.831 620.439 355.325L630.32 360.595C633.779 361.995 636.167 365.124 636.497 368.912C636.826 372.7 635.014 376.324 631.72 378.218L510.999 449.86C508.116 451.672 504.905 452.495 501.611 452.495Z" fill="#262626"/>
<path d="M483.412 439.814L474.93 425.403" stroke="#93C5FD" stroke-width="0.655808" stroke-miterlimit="10" stroke-linecap="round"/>
<path d="M479.048 424.085L487.447 438.331" stroke="#93C5FD" stroke-width="0.655808" stroke-miterlimit="10" stroke-linecap="round"/>
<path d="M215.946 211.792V230.403C215.946 232.05 217.017 233.697 219.24 234.932L221.381 236.167C225.746 238.638 232.91 238.638 237.274 236.167L245.344 231.556C247.568 230.321 248.638 228.674 248.638 227.027V208.416L215.946 211.792Z" stroke="#262626" stroke-width="0.985565" stroke-miterlimit="10"/>
<path d="M227.311 201.911C231.675 199.358 238.839 199.358 243.204 201.911L245.345 203.146C249.709 205.699 249.709 209.816 245.345 212.369L237.275 217.063C232.91 219.616 225.746 219.616 221.382 217.063L219.241 215.828C214.876 213.275 214.876 209.157 219.241 206.605L227.311 201.911Z" fill="#FAFAFA" stroke="#262626" stroke-width="0.985565" stroke-miterlimit="10"/>
<path d="M232.334 208.334V197.135C232.334 189.723 242.874 188.241 244.851 195.405L259.097 246.543C260.414 251.402 266.096 253.625 270.378 250.99L303.482 230.568C314.846 223.568 319.54 209.405 314.599 197.052L304.141 170.783C302.165 165.925 307.353 161.231 312.046 163.702L333.621 175.395" stroke="#262626" stroke-width="3.35774" stroke-miterlimit="10" stroke-linecap="round" stroke-linejoin="round"/>
<path d="M261.155 245.391L261.732 247.532C262.308 249.59 264.614 250.579 266.508 249.59L282.977 240.532" stroke="#93C5FD" stroke-width="0.655808" stroke-linecap="round"/>
<path d="M257.038 249.096C258.273 253.872 263.708 256.26 268.073 253.872L283.389 245.391" stroke="#93C5FD" stroke-width="0.655808" stroke-linecap="round"/>
<path d="M337.657 171.771L333.128 169.136C331.728 168.313 330.246 168.972 329.834 170.454L328.763 174.077C328.434 175.065 329.01 176.383 329.916 176.877L335.022 179.841L337.657 171.771Z" fill="#FAFAFA" stroke="#262626" stroke-width="0.985565" stroke-miterlimit="10" stroke-linecap="round"/>
<path d="M333.127 169.136L332.469 169.383C331.398 169.713 331.398 170.536 332.304 171.03L336.998 173.748L337.657 171.771L333.127 169.136Z" fill="#262626"/>
<path d="M556.702 420.297L568.89 413.051L606.605 390.735L611.875 387.605L626.121 379.123L630.65 376.488C636.25 373.194 635.509 364.877 629.415 362.572L619.451 357.301" stroke="#FAFAFA" stroke-width="2.30845" stroke-miterlimit="10" stroke-linecap="round" stroke-linejoin="round"/>
<path d="M540.808 429.767L549.949 424.332" stroke="#FAFAFA" stroke-width="2.30845" stroke-miterlimit="10" stroke-linecap="round" stroke-linejoin="round"/>
<path d="M360.714 335.314L369.196 330.456C369.937 330.044 370.348 329.468 370.431 328.891V328.644V328.562V322.715C370.266 323.291 369.854 323.786 369.196 324.197L360.714 329.056C359.973 329.468 358.984 329.715 357.914 329.797V336.055C358.984 335.973 359.973 335.726 360.714 335.314Z" fill="#D4D4D4"/>
<path d="M335.269 329.962V336.055C336.175 335.973 337.08 335.726 337.739 335.314L345.974 330.538V324.444L337.739 329.22C337.08 329.632 336.175 329.879 335.269 329.962Z" fill="#D4D4D4"/>
<path d="M322.587 316.951L325.634 318.762L331.069 315.633L322.587 310.775C321.681 310.281 321.269 309.622 321.269 308.963V315.221C321.269 315.798 321.681 316.457 322.587 316.951Z" stroke="#262626" stroke-width="0.655808" stroke-miterlimit="10"/>
<path d="M369.196 310.693L360.715 315.551L366.15 318.68L369.196 316.951C370.102 316.457 370.514 315.716 370.514 315.057V308.881C370.514 309.54 370.02 310.199 369.196 310.693Z" stroke="#262626" stroke-width="0.655808" stroke-miterlimit="10"/>
<path d="M369.196 324.197L360.714 329.056C358.985 330.044 356.102 330.044 354.373 329.056L345.891 324.197L337.41 329.056C335.68 330.044 332.798 330.044 331.069 329.056L322.587 324.197C321.846 323.785 321.434 323.209 321.352 322.632H321.269V328.891H321.352C321.434 329.467 321.846 329.961 322.587 330.455L331.069 335.314C332.798 336.302 335.68 336.302 337.41 335.314L345.891 330.455L354.373 335.314C356.102 336.302 358.985 336.302 360.714 335.314L369.196 330.455C369.937 330.044 370.349 329.467 370.431 328.891V328.644V328.561V322.715C370.349 323.209 369.937 323.785 369.196 324.197Z" stroke="#262626" stroke-width="0.985565" stroke-miterlimit="10"/>
<path d="M369.196 320.492L360.715 315.633L369.196 310.774C370.926 309.786 370.926 308.139 369.196 307.069L360.715 302.21C358.985 301.222 356.103 301.222 354.374 302.21L345.892 307.069L337.41 302.21C335.681 301.222 332.799 301.222 331.069 302.21L322.587 307.069C320.858 308.057 320.858 309.704 322.587 310.774L331.069 315.633L322.587 320.492C320.858 321.48 320.858 323.127 322.587 324.197L331.069 329.056C332.799 330.044 335.681 330.044 337.41 329.056L345.892 324.197L354.374 329.056C356.103 330.044 358.985 330.044 360.715 329.056L369.196 324.197C370.926 323.209 370.926 321.48 369.196 320.492Z" fill="#FAFAFA" stroke="#262626" stroke-width="0.985565" stroke-miterlimit="10"/>
<path d="M345.891 320.657C350.668 320.657 354.62 318.433 354.62 315.633C354.62 312.834 350.75 310.61 345.891 310.61C341.033 310.61 337.162 312.834 337.162 315.633C337.162 318.433 341.115 320.657 345.891 320.657Z" fill="#FAFAFA" stroke="#262626" stroke-width="0.985565" stroke-miterlimit="10"/>
<path d="M369.196 310.693L360.715 315.551L366.15 318.68L369.196 316.951C370.102 316.457 370.514 315.716 370.514 315.057V308.881C370.514 309.54 370.02 310.199 369.196 310.693Z" fill="#D4D4D4" stroke="#262626" stroke-width="0.655808" stroke-miterlimit="10"/>
<mask id="mask0_12_4158" style="mask-type:luminance" maskUnits="userSpaceOnUse" x="342" y="462" width="57" height="33">
<path d="M370.432 494.987C386.078 494.987 398.759 487.658 398.759 478.682C398.759 469.706 386.078 462.377 370.432 462.377C354.786 462.377 342.104 469.706 342.104 478.682C342.104 487.74 354.786 494.987 370.432 494.987Z" fill="white"/>
</mask>
<g mask="url(#mask0_12_4158)">
<path d="M341.034 478.023L369.114 461.718" stroke="#FBBF24" stroke-width="0.655808" stroke-miterlimit="10" stroke-linecap="round"/>
<path d="M343.421 485.434L381.878 463.035" stroke="#FBBF24" stroke-width="0.655808" stroke-miterlimit="10" stroke-linecap="round"/>
<path d="M349.515 490.622L391.018 466.494" stroke="#FBBF24" stroke-width="0.655808" stroke-miterlimit="10" stroke-linecap="round"/>
<path d="M371.255 461.553L399.829 478.023" stroke="#FBBF24" stroke-width="0.655808" stroke-miterlimit="10" stroke-linecap="round"/>
<path d="M358.409 494.245L397.195 471.682" stroke="#FBBF24" stroke-width="0.655808" stroke-miterlimit="10" stroke-linecap="round"/>
<path d="M340.704 478.846L369.937 495.728" stroke="#FBBF24" stroke-width="0.655808" stroke-miterlimit="10" stroke-linecap="round"/>
<path d="M371.091 495.728L399.83 478.929" stroke="#FBBF24" stroke-width="0.655808" stroke-miterlimit="10" stroke-linecap="round"/>
<path d="M343.504 471.682L382.619 494.245" stroke="#FBBF24" stroke-width="0.655808" stroke-miterlimit="10" stroke-linecap="round"/>
<path d="M349.35 466.329L391.513 490.622" stroke="#FBBF24" stroke-width="0.655808" stroke-miterlimit="10" stroke-linecap="round"/>
<path d="M358.655 462.871L397.524 485.352" stroke="#FBBF24" stroke-width="0.655808" stroke-miterlimit="10" stroke-linecap="round"/>
</g>
<path d="M511.822 357.96L358.326 269.189C354.95 267.212 351.738 264.742 348.938 261.86C337.739 250.413 333.704 233.862 338.398 218.545L370.267 113.881C372.243 107.293 377.101 102.105 383.442 99.5523C389.865 96.9996 396.947 97.576 402.876 101.035L556.455 189.806C571.936 198.781 580.5 216.733 577.701 234.438C577.371 236.661 576.877 238.638 576.383 240.449L544.432 345.113C542.456 351.701 537.597 356.889 531.256 359.442C528.621 360.513 525.822 361.007 523.022 361.007C519.151 361.007 515.281 359.936 511.822 357.96Z" stroke="#262626" stroke-width="0.985565" stroke-miterlimit="10"/>
<g clip-path="url(#clip0_12_4158)">
<path d="M489.42 216.873L488.252 220.925L485.032 219.069L486.2 215.017L489.42 216.873Z" fill="#88DC84"/>
<path d="M494.152 231.653L492.984 235.705L489.768 233.845L490.932 229.793L494.152 231.653Z" fill="#88DC84"/>
<path d="M510.232 240.937L509.068 244.989L505.852 243.133L507.02 239.081L510.232 240.937Z" fill="#88DC84"/>
<path d="M521.26 235.445L520.096 239.497L516.88 237.641L518.044 233.585L521.26 235.445Z" fill="#88DC84"/>
<path d="M499.276 246.429L498.108 250.481L494.892 248.625L496.056 244.573L499.276 246.429Z" fill="#88DC84"/>
<path d="M477.356 256.565L476.192 260.617L472.972 258.761L474.14 254.705L477.356 256.565Z" fill="#88DC84"/>
<path d="M509.524 275.985L508.356 280.041L505.14 278.181L506.308 274.129L509.524 275.985Z" fill="#88DC84"/>
<path d="M488.316 251.921L487.148 255.977L483.932 254.117L485.1 250.065L488.316 251.921Z" fill="#88DC84"/>
<path d="M504.4 261.209L503.232 265.261L500.016 263.405L501.184 259.349L504.4 261.209Z" fill="#88DC84"/>
<path d="M408.984 170.445L407.82 174.501L404.6 172.641L405.768 168.589L408.984 170.445Z" fill="#88DC84"/>
<path d="M413.72 185.225L412.552 189.277L409.332 187.421L410.5 183.365L413.72 185.225Z" fill="#88DC84"/>
<path d="M429.8 194.509L428.632 198.561L425.42 196.705L426.584 192.653L429.8 194.509Z" fill="#88DC84"/>
<path d="M440.828 189.017L439.66 193.069L436.444 191.213L437.612 187.161L440.828 189.017Z" fill="#88DC84"/>
<path d="M418.84 200.001L417.676 204.057L414.456 202.197L415.624 198.145L418.84 200.001Z" fill="#88DC84"/>
<path d="M396.924 210.137L395.756 214.189L392.54 212.333L393.708 208.281L396.924 210.137Z" fill="#88DC84"/>
<path d="M429.092 229.561L427.924 233.613L424.708 231.753L425.872 227.701L429.092 229.561Z" fill="#88DC84"/>
<path d="M407.884 205.497L406.716 209.549L403.5 207.689L404.664 203.637L407.884 205.497Z" fill="#88DC84"/>
<path d="M423.964 214.781L422.8 218.833L419.584 216.977L420.748 212.925L423.964 214.781Z" fill="#88DC84"/>
</g>
<path d="M445.397 269.102L444.233 273.144L441.024 271.294L442.188 267.252L445.397 269.102Z" fill="#4ADE80"/>
<path d="M453.409 273.729L452.245 277.771L449.041 275.922L450.205 271.88L453.409 273.729Z" fill="#4ADE80"/>
<path d="M429.369 259.854L428.205 263.892L425 262.038L426.164 258L429.369 259.854Z" fill="#4ADE80"/>
<path d="M437.381 264.478L436.221 268.516L433.012 266.666L434.176 262.628L437.381 264.478Z" fill="#4ADE80"/>
<path d="M461.422 278.358L460.258 282.396L457.057 280.546L458.217 276.508L461.422 278.358Z" fill="#4ADE80"/>
<path d="M175.592 121.521L151.235 226.479" stroke="black" stroke-miterlimit="10"/>
<path d="M187.653 185.14L209.749 146.552L187.512 133.752" stroke="black" stroke-miterlimit="10"/>
<path d="M136.394 163.428L114.204 202.064L136.535 214.817" stroke="black" stroke-miterlimit="10"/>
<defs>
<clipPath id="clip0_12_4158">
<rect width="128.72" height="111.452" fill="white" transform="translate(392.54 168.589)"/>
</clipPath>
</defs>
</svg>
