<svg width="1188" height="994" viewBox="0 0 1188 994" fill="none" xmlns="http://www.w3.org/2000/svg">
<rect x="0.56" y="0.56" width="1186.88" height="992.88" rx="26.32" fill="#F5F5F5"/>
<rect x="0.56" y="0.56" width="1186.88" height="992.88" rx="26.32" stroke="#171717" stroke-width="1.12"/>
<path d="M139.849 314.551C129.684 311.349 119.524 308.135 109.359 304.916L99.4534 301.781C94.2959 300.147 89.1342 298.517 83.9725 296.887C70.4585 292.615 56.481 288.196 42.7498 283.82C36.5817 281.856 34.1762 277.111 36.1474 270.8C41.3759 254.072 44.4412 236.102 45.2555 217.384C46.0197 199.85 43.251 182.21 37.0243 164.947C31.9002 150.74 30.6891 135.821 33.4203 120.598C37.1454 99.8448 47.0304 82.3769 62.8036 68.6876C77.9171 55.5836 95.6531 48.3397 115.536 47.1694C137.485 45.8736 157.418 52.0181 174.791 65.4315C191.717 78.5021 202.784 95.9575 207.682 117.309C209.566 125.522 209.695 133.966 209.662 143.362C209.632 151.601 211.641 159.233 215.634 166.042C220.257 173.934 225.055 182.265 230.3 191.511C232.346 195.122 232.555 199.223 230.872 202.767C229.156 206.374 225.769 208.845 221.576 209.547C220.24 209.773 218.761 209.748 217.2 209.727C216.811 209.723 216.427 209.714 216.039 209.714C214.063 209.714 212.485 210.295 211.324 211.47C210.163 212.644 209.586 214.237 209.616 216.197C209.657 218.989 209.649 221.853 209.641 224.62C209.641 225.69 209.632 226.764 209.632 227.834V231.216C209.632 233.013 209.632 234.81 209.632 236.604C209.603 249.862 200.8 260.158 187.733 262.218C185.373 262.59 182.888 262.54 180.253 262.486C179.305 262.465 178.336 262.448 177.355 262.448C177.05 262.448 176.745 262.448 176.44 262.452C169.679 262.553 165.599 265.562 163.591 271.928C162.53 275.289 161.482 278.65 160.433 282.01C157.694 290.78 154.862 299.846 151.91 308.686C150.164 313.916 145.316 316.273 139.849 314.551Z" fill="#F5F5F5" stroke="#171717" stroke-width="1.5" stroke-miterlimit="10"/>
<rect x="85" y="100" width="70" height="72" rx="20.8" fill="#4ADE80"/>
<path fill-rule="evenodd" clip-rule="evenodd" d="M115.657 147.496L121.985 123.879L124.327 124.507L117.999 148.124L115.657 147.496ZM101.816 136L110.302 127.515L112.011 129.224L105.247 136L112.011 142.776L110.302 144.485L101.816 136ZM138.182 136L129.697 144.485L127.987 142.776L134.751 136L127.987 129.224L129.697 127.515L138.182 136Z" fill="#171717"/>
<path d="M93.8224 216.259C89.9003 216.259 87.5083 213.522 87.5083 208.479C87.5083 203.436 89.9003 200.699 93.8224 200.699C96.43 200.699 98.1755 201.863 99.1884 204.104L97.1411 205.225C96.6239 203.803 95.568 202.876 93.8224 202.876C91.5166 202.876 90.0943 204.557 90.0943 207.337V209.621C90.0943 212.401 91.5166 214.082 93.8224 214.082C95.6111 214.082 96.7532 213.048 97.292 211.582L99.253 212.767C98.2402 214.944 96.43 216.259 93.8224 216.259ZM106.058 216.259C102.934 216.259 100.908 213.974 100.908 210.397C100.908 206.82 102.934 204.535 106.058 204.535C109.183 204.535 111.209 206.82 111.209 210.397C111.209 213.974 109.183 216.259 106.058 216.259ZM106.058 214.319C107.653 214.319 108.731 213.328 108.731 211.345V209.449C108.731 207.466 107.653 206.475 106.058 206.475C104.464 206.475 103.386 207.466 103.386 209.449V211.345C103.386 213.328 104.464 214.319 106.058 214.319ZM120.873 216V214.147H120.765C120.291 215.461 119.106 216.259 117.619 216.259C114.796 216.259 113.158 214.082 113.158 210.397C113.158 206.712 114.796 204.535 117.619 204.535C119.106 204.535 120.291 205.311 120.765 206.647H120.873V200.053H123.222V216H120.873ZM118.33 214.233C119.752 214.233 120.873 213.457 120.873 212.315V208.479C120.873 207.337 119.752 206.561 118.33 206.561C116.714 206.561 115.636 207.703 115.636 209.427V211.367C115.636 213.091 116.714 214.233 118.33 214.233ZM127.765 202.79C126.795 202.79 126.364 202.273 126.364 201.562V201.195C126.364 200.484 126.795 199.967 127.765 199.967C128.734 199.967 129.144 200.484 129.144 201.195V201.562C129.144 202.273 128.734 202.79 127.765 202.79ZM126.579 216V204.794H128.928V216H126.579ZM134.631 216H132.282V204.794H134.631V206.647H134.739C135.213 205.441 136.161 204.535 137.885 204.535C140.17 204.535 141.527 206.13 141.527 208.888V216H139.178V209.19C139.178 207.445 138.51 206.561 137.067 206.561C135.838 206.561 134.631 207.186 134.631 208.501V216ZM154.61 217.056C154.61 219.383 152.951 220.569 148.921 220.569C145.257 220.569 143.835 219.577 143.835 217.875C143.835 216.647 144.568 215.978 145.753 215.72V215.483C144.934 215.224 144.481 214.599 144.481 213.759C144.481 212.595 145.387 212.035 146.464 211.776V211.69C145.149 211.065 144.417 209.88 144.417 208.371C144.417 206.087 146.033 204.535 148.878 204.535C149.632 204.535 150.321 204.643 150.903 204.88V204.578C150.903 203.587 151.377 202.984 152.369 202.984H154.093V204.88H151.808V205.333C152.821 206.001 153.382 207.078 153.382 208.371C153.382 210.634 151.744 212.164 148.899 212.164C148.36 212.164 147.843 212.099 147.434 211.992C146.873 212.186 146.356 212.552 146.356 213.112C146.356 213.716 146.938 213.953 147.929 213.953H150.688C153.446 213.953 154.61 215.116 154.61 217.056ZM152.412 217.315C152.412 216.539 151.895 216.043 150.365 216.043H146.572C146.055 216.345 145.796 216.797 145.796 217.336C145.796 218.241 146.464 218.866 148.21 218.866H149.675C151.507 218.866 152.412 218.349 152.412 217.315ZM148.899 210.462C150.278 210.462 151.076 209.837 151.076 208.565V208.134C151.076 206.863 150.278 206.238 148.899 206.238C147.52 206.238 146.723 206.863 146.723 208.134V208.565C146.723 209.837 147.52 210.462 148.899 210.462Z" fill="#171717"/>
<path d="M370.849 314.551C360.684 311.349 350.524 308.135 340.359 304.916L330.453 301.781C325.296 300.147 320.134 298.517 314.972 296.887C301.458 292.615 287.481 288.196 273.75 283.82C267.582 281.856 265.176 277.111 267.147 270.8C272.376 254.072 275.441 236.102 276.256 217.384C277.02 199.85 274.251 182.21 268.024 164.947C262.9 150.74 261.689 135.821 264.42 120.598C268.145 99.8448 278.03 82.3769 293.804 68.6876C308.917 55.5836 326.653 48.3397 346.536 47.1694C368.485 45.8736 388.418 52.0181 405.791 65.4315C422.717 78.5021 433.784 95.9575 438.682 117.309C440.566 125.522 440.695 133.966 440.662 143.362C440.632 151.601 442.641 159.233 446.634 166.042C451.257 173.934 456.055 182.265 461.3 191.511C463.346 195.122 463.555 199.223 461.872 202.767C460.156 206.374 456.769 208.845 452.576 209.547C451.24 209.773 449.761 209.748 448.2 209.727C447.811 209.723 447.427 209.714 447.039 209.714C445.063 209.714 443.485 210.295 442.324 211.47C441.163 212.644 440.586 214.237 440.616 216.197C440.657 218.989 440.649 221.853 440.641 224.62C440.641 225.69 440.632 226.764 440.632 227.834V231.216C440.632 233.013 440.632 234.81 440.632 236.604C440.603 249.862 431.8 260.158 418.733 262.218C416.373 262.59 413.888 262.54 411.253 262.486C410.305 262.465 409.336 262.448 408.355 262.448C408.05 262.448 407.745 262.448 407.44 262.452C400.679 262.553 396.599 265.562 394.591 271.928C393.53 275.289 392.482 278.65 391.433 282.01C388.694 290.78 385.862 299.846 382.91 308.686C381.164 313.916 376.316 316.273 370.849 314.551Z" fill="#F5F5F5" stroke="#171717" stroke-width="1.5" stroke-miterlimit="10"/>
<rect x="316" y="100" width="72" height="72" rx="20.8" fill="#FB923C"/>
<path d="M365.616 145.235L356.85 133.181V121.454H359.274V119.029H344.728V121.454H347.153V133.181L338.387 145.235C337.858 145.961 337.541 146.82 337.47 147.716C337.399 148.611 337.578 149.509 337.986 150.31C338.393 151.111 339.015 151.783 339.781 152.253C340.547 152.722 341.428 152.971 342.326 152.971H361.676C362.575 152.971 363.456 152.722 364.222 152.253C364.988 151.783 365.609 151.111 366.017 150.31C366.425 149.509 366.603 148.611 366.532 147.716C366.462 146.82 366.144 145.961 365.616 145.235V145.235ZM349.577 133.97V121.454H354.426V133.97L357.666 138.424H346.337L349.577 133.97ZM361.676 150.546H342.326C341.875 150.546 341.433 150.421 341.048 150.185C340.663 149.949 340.351 149.612 340.146 149.209C339.941 148.807 339.852 148.356 339.887 147.906C339.923 147.456 340.082 147.025 340.347 146.66L344.574 140.849H359.429L363.656 146.66C363.921 147.025 364.08 147.456 364.116 147.906C364.151 148.356 364.061 148.807 363.857 149.209C363.652 149.612 363.34 149.949 362.955 150.185C362.57 150.421 362.128 150.546 361.676 150.546V150.546Z" fill="#171717"/>
<path d="M308.639 216.259C304.717 216.259 302.325 213.522 302.325 208.479C302.325 203.436 304.717 200.699 308.639 200.699C311.246 200.699 312.992 201.863 314.005 204.104L311.958 205.225C311.44 203.803 310.384 202.876 308.639 202.876C306.333 202.876 304.911 204.557 304.911 207.337V209.621C304.911 212.401 306.333 214.082 308.639 214.082C310.428 214.082 311.57 213.048 312.108 211.582L314.07 212.767C313.057 214.944 311.246 216.259 308.639 216.259ZM316.479 216V200.053H318.828V206.647H318.935C319.409 205.441 320.358 204.535 322.082 204.535C324.366 204.535 325.724 206.13 325.724 208.888V216H323.375V209.169C323.375 207.445 322.707 206.561 321.263 206.561C320.034 206.561 318.828 207.186 318.828 208.479V216H316.479ZM333.375 216.259C330.186 216.259 328.225 213.974 328.225 210.397C328.225 206.82 330.186 204.535 333.375 204.535C336.673 204.535 338.353 207.014 338.353 210.117V211H330.66V211.367C330.66 213.091 331.716 214.319 333.612 214.319C334.992 214.319 335.918 213.673 336.565 212.638L337.944 213.996C337.104 215.353 335.466 216.259 333.375 216.259ZM333.375 206.367C331.759 206.367 330.66 207.574 330.66 209.298V209.449H335.875V209.233C335.875 207.509 334.927 206.367 333.375 206.367ZM343.303 216H340.954V204.794H343.303V206.647H343.41C343.863 205.484 344.703 204.535 346.406 204.535C347.914 204.535 349.186 205.268 349.725 206.82H349.789C350.199 205.57 351.362 204.535 353.173 204.535C355.392 204.535 356.707 206.13 356.707 208.888V216H354.358V209.169C354.358 207.445 353.711 206.561 352.289 206.561C351.104 206.561 350.005 207.186 350.005 208.479V216H347.656V209.169C347.656 207.423 346.988 206.561 345.609 206.561C344.445 206.561 343.303 207.186 343.303 208.479V216ZM361.143 202.79C360.173 202.79 359.742 202.273 359.742 201.562V201.195C359.742 200.484 360.173 199.967 361.143 199.967C362.112 199.967 362.522 200.484 362.522 201.195V201.562C362.522 202.273 362.112 202.79 361.143 202.79ZM359.957 216V204.794H362.306V216H359.957ZM369.216 216.259C367.104 216.259 365.725 215.461 364.669 214.147L366.178 212.767C366.997 213.759 368.009 214.362 369.346 214.362C370.703 214.362 371.393 213.802 371.393 212.854C371.393 212.143 370.962 211.604 369.798 211.453L368.764 211.324C366.479 211.044 365.079 210.052 365.079 207.983C365.079 205.807 366.781 204.535 369.238 204.535C371.264 204.535 372.406 205.203 373.419 206.324L371.975 207.703C371.393 207.014 370.445 206.432 369.238 206.432C367.945 206.432 367.341 206.992 367.341 207.833C367.341 208.695 367.88 209.082 369.065 209.276L370.1 209.406C372.557 209.772 373.656 210.85 373.656 212.66C373.656 214.815 371.91 216.259 369.216 216.259ZM381.312 216H379.265C377.649 216 376.787 215.095 376.787 213.565V206.712H375.041V204.794H375.99C376.765 204.794 377.024 204.471 377.024 203.695V201.734H379.136V204.794H381.485V206.712H379.136V214.082H381.312V216ZM386.382 216H384.033V204.794H386.382V206.949H386.489C386.813 205.807 387.782 204.794 389.571 204.794H390.196V207.057H389.269C387.416 207.057 386.382 207.682 386.382 208.845V216ZM397.105 211.388L399.346 204.794H401.609L396.89 218.22C396.351 219.728 395.683 220.31 393.937 220.31H392.58V218.392H394.476L395.122 216.496L391.049 204.794H393.398L395.64 211.388L396.286 213.823H396.394L397.105 211.388Z" fill="#171717"/>
<path d="M601.849 314.551C591.684 311.349 581.524 308.135 571.359 304.916L561.453 301.781C556.296 300.147 551.134 298.517 545.972 296.887C532.458 292.615 518.481 288.196 504.75 283.82C498.582 281.856 496.176 277.111 498.147 270.8C503.376 254.072 506.441 236.102 507.256 217.384C508.02 199.85 505.251 182.21 499.024 164.947C493.9 150.74 492.689 135.821 495.42 120.598C499.145 99.8448 509.03 82.3769 524.804 68.6876C539.917 55.5836 557.653 48.3397 577.536 47.1694C599.485 45.8736 619.418 52.0181 636.791 65.4315C653.717 78.5021 664.784 95.9575 669.682 117.309C671.566 125.522 671.695 133.966 671.662 143.362C671.632 151.601 673.641 159.233 677.634 166.042C682.257 173.934 687.055 182.265 692.3 191.511C694.346 195.122 694.555 199.223 692.872 202.767C691.156 206.374 687.769 208.845 683.576 209.547C682.24 209.773 680.761 209.748 679.2 209.727C678.811 209.723 678.427 209.714 678.039 209.714C676.063 209.714 674.485 210.295 673.324 211.47C672.163 212.644 671.586 214.237 671.616 216.197C671.657 218.989 671.649 221.853 671.641 224.62C671.641 225.69 671.632 226.764 671.632 227.834V231.216C671.632 233.013 671.632 234.81 671.632 236.604C671.603 249.862 662.8 260.158 649.733 262.218C647.373 262.59 644.888 262.54 642.253 262.486C641.305 262.465 640.336 262.448 639.355 262.448C639.05 262.448 638.745 262.448 638.44 262.452C631.679 262.553 627.599 265.562 625.591 271.928C624.53 275.289 623.482 278.65 622.433 282.01C619.694 290.78 616.862 299.846 613.91 308.686C612.164 313.916 607.316 316.273 601.849 314.551Z" fill="#F5F5F5" stroke="#171717" stroke-width="1.5" stroke-miterlimit="10"/>
<rect x="547" y="100" width="72" height="72" rx="20.8" fill="#FBBF24"/>
<path d="M592.698 119.029H573.303C572.66 119.029 572.044 119.285 571.589 119.739C571.134 120.194 570.879 120.811 570.879 121.454V126.302C570.879 126.945 571.134 127.562 571.589 128.017C572.044 128.471 572.66 128.727 573.303 128.727V150.546C573.303 151.189 573.559 151.806 574.013 152.26C574.468 152.715 575.085 152.971 575.728 152.971H590.274C590.917 152.971 591.534 152.715 591.988 152.26C592.443 151.806 592.698 151.189 592.698 150.546V128.727C593.341 128.727 593.958 128.471 594.413 128.017C594.867 127.562 595.123 126.945 595.123 126.302V121.454C595.123 120.811 594.867 120.194 594.413 119.739C593.958 119.285 593.341 119.029 592.698 119.029ZM575.728 133.576H579.364V145.697H575.728V133.576ZM590.274 150.546H575.728V148.122H581.789V131.151H575.728V128.727H590.274V150.546ZM573.303 126.302V121.454H592.698V126.302H573.303Z" fill="#171717"/>
<path d="M539.78 216V200.958H542.668L546.698 208.608H546.827L550.857 200.958H553.615V216H551.288V204.492H551.18L549.995 206.927L546.698 212.94L543.401 206.927L542.215 204.492H542.108V216H539.78ZM561.555 216.259C558.366 216.259 556.405 213.974 556.405 210.397C556.405 206.82 558.366 204.535 561.555 204.535C564.853 204.535 566.533 207.014 566.533 210.117V211H558.84V211.367C558.84 213.091 559.896 214.319 561.792 214.319C563.172 214.319 564.098 213.673 564.745 212.638L566.124 213.996C565.284 215.353 563.646 216.259 561.555 216.259ZM561.555 206.367C559.939 206.367 558.84 207.574 558.84 209.298V209.449H564.055V209.233C564.055 207.509 563.107 206.367 561.555 206.367ZM576.181 216V214.147H576.073C575.599 215.461 574.414 216.259 572.927 216.259C570.104 216.259 568.466 214.082 568.466 210.397C568.466 206.712 570.104 204.535 572.927 204.535C574.414 204.535 575.599 205.311 576.073 206.647H576.181V200.053H578.53V216H576.181ZM573.638 214.233C575.06 214.233 576.181 213.457 576.181 212.315V208.479C576.181 207.337 575.06 206.561 573.638 206.561C572.021 206.561 570.944 207.703 570.944 209.427V211.367C570.944 213.091 572.021 214.233 573.638 214.233ZM583.072 202.79C582.103 202.79 581.672 202.273 581.672 201.562V201.195C581.672 200.484 582.103 199.967 583.072 199.967C584.042 199.967 584.451 200.484 584.451 201.195V201.562C584.451 202.273 584.042 202.79 583.072 202.79ZM581.887 216V204.794H584.236V216H581.887ZM591.922 216.259C588.689 216.259 586.836 213.974 586.836 210.397C586.836 206.82 588.689 204.535 591.922 204.535C594.163 204.535 595.585 205.634 596.253 207.294L594.314 208.199C593.991 207.164 593.193 206.496 591.922 206.496C590.198 206.496 589.314 207.682 589.314 209.406V211.41C589.314 213.134 590.198 214.319 591.922 214.319C593.279 214.319 594.077 213.586 594.551 212.466L596.339 213.414C595.607 215.246 594.077 216.259 591.922 216.259ZM599.761 202.79C598.791 202.79 598.36 202.273 598.36 201.562V201.195C598.36 200.484 598.791 199.967 599.761 199.967C600.731 199.967 601.14 200.484 601.14 201.195V201.562C601.14 202.273 600.731 202.79 599.761 202.79ZM598.576 216V204.794H600.925V216H598.576ZM606.628 216H604.279V204.794H606.628V206.647H606.736C607.21 205.441 608.158 204.535 609.882 204.535C612.166 204.535 613.524 206.13 613.524 208.888V216H611.175V209.19C611.175 207.445 610.507 206.561 609.063 206.561C607.835 206.561 606.628 207.186 606.628 208.501V216ZM621.176 216.259C617.986 216.259 616.025 213.974 616.025 210.397C616.025 206.82 617.986 204.535 621.176 204.535C624.473 204.535 626.154 207.014 626.154 210.117V211H618.46V211.367C618.46 213.091 619.516 214.319 621.413 214.319C622.792 214.319 623.719 213.673 624.365 212.638L625.744 213.996C624.904 215.353 623.266 216.259 621.176 216.259ZM621.176 206.367C619.559 206.367 618.46 207.574 618.46 209.298V209.449H623.675V209.233C623.675 207.509 622.727 206.367 621.176 206.367Z" fill="#171717"/>
<path d="M832.849 314.551C822.684 311.349 812.524 308.135 802.359 304.916L792.453 301.781C787.296 300.147 782.134 298.517 776.972 296.887C763.458 292.615 749.481 288.196 735.75 283.82C729.582 281.856 727.176 277.111 729.147 270.8C734.376 254.072 737.441 236.102 738.256 217.384C739.02 199.85 736.251 182.21 730.024 164.947C724.9 150.74 723.689 135.821 726.42 120.598C730.145 99.8448 740.03 82.3769 755.804 68.6876C770.917 55.5836 788.653 48.3397 808.536 47.1694C830.485 45.8736 850.418 52.0181 867.791 65.4315C884.717 78.5021 895.784 95.9575 900.682 117.309C902.566 125.522 902.695 133.966 902.662 143.362C902.632 151.601 904.641 159.233 908.634 166.042C913.257 173.934 918.055 182.265 923.3 191.511C925.346 195.122 925.555 199.223 923.872 202.767C922.156 206.374 918.769 208.845 914.576 209.547C913.24 209.773 911.761 209.748 910.2 209.727C909.811 209.723 909.427 209.714 909.039 209.714C907.063 209.714 905.485 210.295 904.324 211.47C903.163 212.644 902.586 214.237 902.616 216.197C902.657 218.989 902.649 221.853 902.641 224.62C902.641 225.69 902.632 226.764 902.632 227.834V231.216C902.632 233.013 902.632 234.81 902.632 236.604C902.603 249.862 893.8 260.158 880.733 262.218C878.373 262.59 875.888 262.54 873.253 262.486C872.305 262.465 871.336 262.448 870.355 262.448C870.05 262.448 869.745 262.448 869.44 262.452C862.679 262.553 858.599 265.562 856.591 271.928C855.53 275.289 854.482 278.65 853.433 282.01C850.694 290.78 847.862 299.846 844.91 308.686C843.164 313.916 838.316 316.273 832.849 314.551Z" fill="#F5F5F5" stroke="#171717" stroke-width="1.5" stroke-miterlimit="10"/>
<rect x="778" y="100" width="72" height="72" rx="20.8" fill="#93C5FD"/>
<path fill-rule="evenodd" clip-rule="evenodd" d="M801.88 145.703H826.124C826.766 145.703 827.383 145.447 827.837 144.992C828.292 144.538 828.547 143.922 828.548 143.279V126.308C828.547 125.666 828.292 125.049 827.837 124.595C827.383 124.14 826.767 123.885 826.124 123.884H801.88C801.237 123.885 800.621 124.14 800.166 124.595C799.712 125.049 799.456 125.666 799.456 126.308V143.279C799.456 143.922 799.712 144.538 800.167 144.993C800.621 145.447 801.237 145.703 801.88 145.703ZM801.88 143.279V126.308H826.124V143.279H801.88ZM797.031 148.128H830.973V150.552H797.031V148.128Z" fill="#171717"/>
<path d="M771.954 203.259C768.032 203.259 765.64 200.522 765.64 195.479C765.64 190.436 768.032 187.699 771.954 187.699C774.562 187.699 776.307 188.863 777.32 191.104L775.273 192.225C774.756 190.803 773.7 189.876 771.954 189.876C769.648 189.876 768.226 191.557 768.226 194.337V196.621C768.226 199.401 769.648 201.082 771.954 201.082C773.743 201.082 774.885 200.048 775.424 198.582L777.385 199.767C776.372 201.944 774.562 203.259 771.954 203.259ZM784.19 203.259C781.065 203.259 779.04 200.974 779.04 197.397C779.04 193.82 781.065 191.535 784.19 191.535C787.315 191.535 789.341 193.82 789.341 197.397C789.341 200.974 787.315 203.259 784.19 203.259ZM784.19 201.319C785.785 201.319 786.862 200.328 786.862 198.345V196.449C786.862 194.466 785.785 193.475 784.19 193.475C782.595 193.475 781.518 194.466 781.518 196.449V198.345C781.518 200.328 782.595 201.319 784.19 201.319ZM794.307 203H791.958V191.794H794.307V193.647H794.415C794.867 192.484 795.708 191.535 797.41 191.535C798.918 191.535 800.19 192.268 800.729 193.82H800.793C801.203 192.57 802.366 191.535 804.177 191.535C806.396 191.535 807.711 193.13 807.711 195.888V203H805.362V196.169C805.362 194.445 804.715 193.561 803.293 193.561C802.108 193.561 801.009 194.186 801.009 195.479V203H798.66V196.169C798.66 194.423 797.992 193.561 796.613 193.561C795.449 193.561 794.307 194.186 794.307 195.479V203ZM810.961 207.31V191.794H813.31V193.647H813.418C813.892 192.311 815.077 191.535 816.564 191.535C819.387 191.535 821.025 193.712 821.025 197.397C821.025 201.082 819.387 203.259 816.564 203.259C815.077 203.259 813.892 202.461 813.418 201.147H813.31V207.31H810.961ZM815.853 201.233C817.469 201.233 818.547 200.091 818.547 198.367V196.427C818.547 194.703 817.469 193.561 815.853 193.561C814.431 193.561 813.31 194.337 813.31 195.479V199.315C813.31 200.457 814.431 201.233 815.853 201.233ZM830.503 203V201.147H830.417C830.007 202.246 829.124 203.259 827.27 203.259C824.965 203.259 823.607 201.685 823.607 198.927V191.794H825.956V198.625C825.956 200.328 826.667 201.233 828.111 201.233C829.318 201.233 830.503 200.608 830.503 199.293V191.794H832.852V203H830.503ZM841.366 203H839.319C837.702 203 836.84 202.095 836.84 200.565V193.712H835.095V191.794H836.043C836.819 191.794 837.077 191.471 837.077 190.695V188.734H839.189V191.794H841.538V193.712H839.189V201.082H841.366V203ZM848.398 203.259C845.209 203.259 843.248 200.974 843.248 197.397C843.248 193.82 845.209 191.535 848.398 191.535C851.695 191.535 853.376 194.014 853.376 197.117V198H845.683V198.367C845.683 200.091 846.739 201.319 848.635 201.319C850.014 201.319 850.941 200.673 851.588 199.638L852.967 200.996C852.126 202.353 850.488 203.259 848.398 203.259ZM848.398 193.367C846.782 193.367 845.683 194.574 845.683 196.298V196.449H850.898V196.233C850.898 194.509 849.95 193.367 848.398 193.367ZM858.325 203H855.976V191.794H858.325V193.949H858.433C858.756 192.807 859.726 191.794 861.515 191.794H862.14V194.057H861.213C859.36 194.057 858.325 194.682 858.325 195.845V203ZM781.419 230.259C778.897 230.259 777.173 229.267 775.923 227.716L777.604 226.143C778.66 227.436 779.91 228.104 781.548 228.104C783.466 228.104 784.457 227.155 784.457 225.712C784.457 224.548 783.854 223.88 782.108 223.535L780.772 223.298C777.863 222.759 776.376 221.402 776.376 219.009C776.376 216.337 778.445 214.699 781.634 214.699C783.897 214.699 785.556 215.518 786.72 217.005L785.018 218.514C784.242 217.501 783.164 216.855 781.505 216.855C779.781 216.855 778.79 217.566 778.79 218.88C778.79 220.13 779.565 220.669 781.182 220.992L782.518 221.272C785.513 221.854 786.871 223.19 786.871 225.582C786.871 228.384 784.867 230.259 781.419 230.259ZM793.953 230.259C790.721 230.259 788.868 227.974 788.868 224.397C788.868 220.82 790.721 218.535 793.953 218.535C796.195 218.535 797.617 219.634 798.285 221.294L796.345 222.199C796.022 221.164 795.225 220.496 793.953 220.496C792.229 220.496 791.346 221.682 791.346 223.406V225.41C791.346 227.134 792.229 228.319 793.953 228.319C795.311 228.319 796.108 227.586 796.582 226.466L798.371 227.414C797.638 229.246 796.108 230.259 793.953 230.259ZM801.793 216.79C800.823 216.79 800.392 216.273 800.392 215.562V215.195C800.392 214.484 800.823 213.967 801.793 213.967C802.762 213.967 803.172 214.484 803.172 215.195V215.562C803.172 216.273 802.762 216.79 801.793 216.79ZM800.607 230V218.794H802.956V230H800.607ZM810.707 230.259C807.517 230.259 805.556 227.974 805.556 224.397C805.556 220.82 807.517 218.535 810.707 218.535C814.004 218.535 815.685 221.014 815.685 224.117V225H807.991V225.367C807.991 227.091 809.047 228.319 810.944 228.319C812.323 228.319 813.25 227.673 813.896 226.638L815.275 227.996C814.435 229.353 812.797 230.259 810.707 230.259ZM810.707 220.367C809.09 220.367 807.991 221.574 807.991 223.298V223.449H813.206V223.233C813.206 221.509 812.258 220.367 810.707 220.367ZM820.634 230H818.285V218.794H820.634V220.647H820.742C821.216 219.441 822.164 218.535 823.888 218.535C826.172 218.535 827.53 220.13 827.53 222.888V230H825.181V223.19C825.181 221.445 824.513 220.561 823.069 220.561C821.841 220.561 820.634 221.186 820.634 222.501V230ZM835.117 230.259C831.885 230.259 830.031 227.974 830.031 224.397C830.031 220.82 831.885 218.535 835.117 218.535C837.358 218.535 838.781 219.634 839.449 221.294L837.509 222.199C837.186 221.164 836.389 220.496 835.117 220.496C833.393 220.496 832.51 221.682 832.51 223.406V225.41C832.51 227.134 833.393 228.319 835.117 228.319C836.475 228.319 837.272 227.586 837.746 226.466L839.535 227.414C838.802 229.246 837.272 230.259 835.117 230.259ZM846.041 230.259C842.852 230.259 840.891 227.974 840.891 224.397C840.891 220.82 842.852 218.535 846.041 218.535C849.338 218.535 851.019 221.014 851.019 224.117V225H843.326V225.367C843.326 227.091 844.382 228.319 846.278 228.319C847.657 228.319 848.584 227.673 849.23 226.638L850.61 227.996C849.769 229.353 848.131 230.259 846.041 230.259ZM846.041 220.367C844.425 220.367 843.326 221.574 843.326 223.298V223.449H848.541V223.233C848.541 221.509 847.593 220.367 846.041 220.367Z" fill="#171717"/>
<path d="M1063.85 314.551C1053.68 311.349 1043.52 308.135 1033.36 304.916L1023.45 301.781C1018.3 300.147 1013.13 298.517 1007.97 296.887C994.458 292.615 980.481 288.196 966.75 283.82C960.582 281.856 958.176 277.111 960.147 270.8C965.376 254.072 968.441 236.102 969.256 217.384C970.02 199.85 967.251 182.21 961.024 164.947C955.9 150.74 954.689 135.821 957.42 120.598C961.145 99.8448 971.03 82.3769 986.804 68.6876C1001.92 55.5836 1019.65 48.3397 1039.54 47.1694C1061.49 45.8736 1081.42 52.0181 1098.79 65.4315C1115.72 78.5021 1126.78 95.9575 1131.68 117.309C1133.57 125.522 1133.7 133.966 1133.66 143.362C1133.63 151.601 1135.64 159.233 1139.63 166.042C1144.26 173.934 1149.05 182.265 1154.3 191.511C1156.35 195.122 1156.56 199.223 1154.87 202.767C1153.16 206.374 1149.77 208.845 1145.58 209.547C1144.24 209.773 1142.76 209.748 1141.2 209.727C1140.81 209.723 1140.43 209.714 1140.04 209.714C1138.06 209.714 1136.48 210.295 1135.32 211.47C1134.16 212.644 1133.59 214.237 1133.62 216.197C1133.66 218.989 1133.65 221.853 1133.64 224.62C1133.64 225.69 1133.63 226.764 1133.63 227.834V231.216C1133.63 233.013 1133.63 234.81 1133.63 236.604C1133.6 249.862 1124.8 260.158 1111.73 262.218C1109.37 262.59 1106.89 262.54 1104.25 262.486C1103.31 262.465 1102.34 262.448 1101.36 262.448C1101.05 262.448 1100.75 262.448 1100.44 262.452C1093.68 262.553 1089.6 265.562 1087.59 271.928C1086.53 275.289 1085.48 278.65 1084.43 282.01C1081.69 290.78 1078.86 299.846 1075.91 308.686C1074.16 313.916 1069.32 316.273 1063.85 314.551Z" fill="#F5F5F5" stroke="#171717" stroke-width="1.5" stroke-miterlimit="10"/>
<rect x="1009" y="100" width="72" height="72" rx="20.8" fill="#FB923C"/>
<path d="M1055.91 121.454H1037.73C1037.08 121.454 1036.47 121.71 1036.01 122.164C1035.56 122.619 1035.3 123.235 1035.3 123.878V141.523C1034.57 141.086 1033.73 140.854 1032.88 140.849C1031.92 140.849 1030.98 141.133 1030.18 141.666C1029.39 142.199 1028.77 142.956 1028.4 143.842C1028.03 144.728 1027.94 145.703 1028.12 146.643C1028.31 147.584 1028.77 148.448 1029.45 149.126C1030.13 149.804 1030.99 150.266 1031.93 150.453C1032.87 150.64 1033.85 150.544 1034.73 150.177C1035.62 149.81 1036.38 149.189 1036.91 148.391C1037.44 147.594 1037.73 146.656 1037.73 145.697V131.151H1055.91V141.523C1055.18 141.086 1054.34 140.853 1053.49 140.849C1052.53 140.849 1051.59 141.133 1050.79 141.666C1049.99 142.199 1049.37 142.956 1049.01 143.842C1048.64 144.728 1048.54 145.703 1048.73 146.643C1048.92 147.584 1049.38 148.448 1050.06 149.126C1050.73 149.804 1051.6 150.266 1052.54 150.453C1053.48 150.64 1054.45 150.544 1055.34 150.177C1056.23 149.81 1056.98 149.189 1057.52 148.391C1058.05 147.594 1058.33 146.656 1058.33 145.697V123.878C1058.33 123.235 1058.08 122.619 1057.62 122.165C1057.17 121.71 1056.55 121.454 1055.91 121.454ZM1032.88 148.122C1032.4 148.122 1031.93 147.98 1031.53 147.713C1031.13 147.447 1030.82 147.068 1030.64 146.625C1030.45 146.182 1030.41 145.695 1030.5 145.224C1030.59 144.754 1030.82 144.322 1031.16 143.983C1031.5 143.644 1031.93 143.413 1032.41 143.32C1032.88 143.226 1033.36 143.274 1033.81 143.458C1034.25 143.641 1034.63 143.952 1034.89 144.35C1035.16 144.749 1035.3 145.218 1035.3 145.697C1035.3 146.34 1035.05 146.956 1034.59 147.411C1034.14 147.865 1033.52 148.121 1032.88 148.122ZM1053.49 148.122C1053.01 148.122 1052.54 147.98 1052.14 147.713C1051.74 147.447 1051.43 147.068 1051.25 146.625C1051.06 146.182 1051.01 145.695 1051.11 145.224C1051.2 144.754 1051.43 144.322 1051.77 143.983C1052.11 143.644 1052.54 143.413 1053.01 143.32C1053.48 143.226 1053.97 143.274 1054.41 143.458C1054.86 143.641 1055.23 143.952 1055.5 144.35C1055.77 144.749 1055.91 145.218 1055.91 145.697C1055.91 146.34 1055.65 146.956 1055.2 147.411C1054.74 147.865 1054.13 148.121 1053.49 148.122ZM1037.73 123.878H1055.91V128.727H1037.73V123.878Z" fill="#171717"/>
<path d="M1017.66 203V187.958H1020.55L1024.58 195.608H1024.71L1028.74 187.958H1031.49V203H1029.17V191.492H1029.06L1027.87 193.927L1024.58 199.94L1021.28 193.927L1020.09 191.492H1019.99V203H1017.66ZM1041.83 203V201.147H1041.74C1041.33 202.246 1040.45 203.259 1038.59 203.259C1036.29 203.259 1034.93 201.685 1034.93 198.927V191.794H1037.28V198.625C1037.28 200.328 1037.99 201.233 1039.43 201.233C1040.64 201.233 1041.83 200.608 1041.83 199.293V191.794H1044.17V203H1041.83ZM1051.09 203.259C1048.98 203.259 1047.6 202.461 1046.55 201.147L1048.06 199.767C1048.87 200.759 1049.89 201.362 1051.22 201.362C1052.58 201.362 1053.27 200.802 1053.27 199.854C1053.27 199.143 1052.84 198.604 1051.68 198.453L1050.64 198.324C1048.36 198.044 1046.96 197.052 1046.96 194.983C1046.96 192.807 1048.66 191.535 1051.12 191.535C1053.14 191.535 1054.28 192.203 1055.3 193.324L1053.85 194.703C1053.27 194.014 1052.32 193.432 1051.12 193.432C1049.82 193.432 1049.22 193.992 1049.22 194.833C1049.22 195.695 1049.76 196.082 1050.94 196.276L1051.98 196.406C1054.43 196.772 1055.53 197.85 1055.53 199.66C1055.53 201.815 1053.79 203.259 1051.09 203.259ZM1059.37 189.79C1058.4 189.79 1057.97 189.273 1057.97 188.562V188.195C1057.97 187.484 1058.4 186.967 1059.37 186.967C1060.34 186.967 1060.75 187.484 1060.75 188.195V188.562C1060.75 189.273 1060.34 189.79 1059.37 189.79ZM1058.19 203V191.794H1060.54V203H1058.19ZM1068.22 203.259C1064.99 203.259 1063.14 200.974 1063.14 197.397C1063.14 193.82 1064.99 191.535 1068.22 191.535C1070.46 191.535 1071.89 192.634 1072.55 194.294L1070.61 195.199C1070.29 194.164 1069.49 193.496 1068.22 193.496C1066.5 193.496 1065.61 194.682 1065.61 196.406V198.41C1065.61 200.134 1066.5 201.319 1068.22 201.319C1069.58 201.319 1070.38 200.586 1070.85 199.466L1072.64 200.414C1071.91 202.246 1070.38 203.259 1068.22 203.259ZM1015.21 230V217.113H1010.72V214.958H1022.12V217.113H1017.64V230H1015.21ZM1024.33 230V214.053H1026.67V220.647H1026.78C1027.26 219.441 1028.2 218.535 1029.93 218.535C1032.21 218.535 1033.57 220.13 1033.57 222.888V230H1031.22V223.169C1031.22 221.445 1030.55 220.561 1029.11 220.561C1027.88 220.561 1026.67 221.186 1026.67 222.479V230H1024.33ZM1041.22 230.259C1038.03 230.259 1036.07 227.974 1036.07 224.397C1036.07 220.82 1038.03 218.535 1041.22 218.535C1044.52 218.535 1046.2 221.014 1046.2 224.117V225H1038.51V225.367C1038.51 227.091 1039.56 228.319 1041.46 228.319C1042.84 228.319 1043.77 227.673 1044.41 226.638L1045.79 227.996C1044.95 229.353 1043.31 230.259 1041.22 230.259ZM1041.22 220.367C1039.61 220.367 1038.51 221.574 1038.51 223.298V223.449H1043.72V223.233C1043.72 221.509 1042.77 220.367 1041.22 220.367ZM1053.2 230.259C1050.07 230.259 1048.05 227.974 1048.05 224.397C1048.05 220.82 1050.07 218.535 1053.2 218.535C1056.32 218.535 1058.35 220.82 1058.35 224.397C1058.35 227.974 1056.32 230.259 1053.2 230.259ZM1053.2 228.319C1054.79 228.319 1055.87 227.328 1055.87 225.345V223.449C1055.87 221.466 1054.79 220.475 1053.2 220.475C1051.6 220.475 1050.52 221.466 1050.52 223.449V225.345C1050.52 227.328 1051.6 228.319 1053.2 228.319ZM1063.31 230H1060.96V218.794H1063.31V220.949H1063.42C1063.74 219.807 1064.71 218.794 1066.5 218.794H1067.13V221.057H1066.2C1064.35 221.057 1063.31 221.682 1063.31 222.845V230ZM1074.04 225.388L1076.28 218.794H1078.54L1073.82 232.22C1073.28 233.728 1072.61 234.31 1070.87 234.31H1069.51V232.392H1071.41L1072.05 230.496L1067.98 218.794H1070.33L1072.57 225.388L1073.22 227.823H1073.33L1074.04 225.388Z" fill="#171717"/>
<path d="M139.849 630.659C129.684 627.457 119.524 624.243 109.359 621.024L99.4534 617.889C94.2959 616.255 89.1342 614.625 83.9725 612.995C70.4585 608.723 56.481 604.305 42.7498 599.928C36.5817 597.964 34.1762 593.219 36.1474 586.908C41.3759 570.18 44.4412 552.21 45.2555 533.492C46.0197 515.958 43.251 498.318 37.0243 481.055C31.9002 466.848 30.6891 451.93 33.4203 436.706C37.1454 415.953 47.0304 398.485 62.8036 384.796C77.9171 371.692 95.6531 364.448 115.536 363.278C137.485 361.982 157.418 368.126 174.791 381.54C191.717 394.61 202.784 412.066 207.682 433.417C209.566 441.63 209.695 450.074 209.662 459.47C209.632 467.709 211.641 475.341 215.634 482.15C220.257 490.042 225.055 498.373 230.3 507.619C232.346 511.23 232.555 515.331 230.872 518.875C229.156 522.483 225.769 524.953 221.576 525.655C220.24 525.881 218.761 525.856 217.2 525.835C216.811 525.831 216.427 525.822 216.039 525.822C214.063 525.822 212.485 526.403 211.324 527.578C210.163 528.752 209.586 530.345 209.616 532.305C209.657 535.098 209.649 537.961 209.641 540.728C209.641 541.798 209.632 542.872 209.632 543.942V547.324C209.632 549.121 209.632 550.919 209.632 552.712C209.603 565.971 200.8 576.266 187.733 578.326C185.373 578.698 182.888 578.648 180.253 578.594C179.305 578.573 178.336 578.556 177.355 578.556C177.05 578.556 176.745 578.556 176.44 578.56C169.679 578.661 165.599 581.67 163.591 588.036C162.53 591.397 161.482 594.758 160.433 598.118C157.694 606.888 154.862 615.954 151.91 624.795C150.164 630.024 145.316 632.381 139.849 630.659Z" fill="#F5F5F5" stroke="#171717" stroke-width="1.5" stroke-miterlimit="10"/>
<rect x="85" y="416.108" width="72" height="72" rx="20.8" fill="#93C5FD"/>
<path fill-rule="evenodd" clip-rule="evenodd" d="M124.301 443.058C125.501 442.676 126.746 442.458 128.004 442.411C133.57 442.411 135.546 447.635 135.546 452.108C135.546 461.212 130.613 466.653 125.848 466.655C124.808 466.599 123.786 466.357 122.831 465.939C122.25 465.679 121.632 465.511 120.999 465.442C120.368 465.511 119.751 465.679 119.171 465.939C118.216 466.357 117.194 466.599 116.153 466.655H116.151C111.384 466.653 106.453 461.212 106.453 452.108C106.453 446.126 109.254 442.411 113.765 442.411C115.071 442.465 116.365 442.683 117.617 443.06C118.296 443.234 118.949 443.395 119.577 443.502C119.29 442.492 118.682 441.603 117.845 440.969C117.008 440.335 115.988 439.99 114.938 439.986V437.562C116.645 437.565 118.295 438.167 119.603 439.263C120.911 440.359 121.792 441.879 122.092 443.558C122.839 443.439 123.577 443.272 124.301 443.058ZM123.678 463.668C124.364 463.976 125.098 464.166 125.848 464.23C129.422 464.229 133.121 459.695 133.121 452.108C133.121 450.893 132.874 444.835 128.004 444.835C126.962 444.888 125.931 445.077 124.938 445.397C123.761 445.77 122.54 445.988 121.307 446.047H120.71C119.457 445.982 118.216 445.768 117.014 445.408C115.958 445.086 114.867 444.894 113.765 444.835C109.354 444.835 108.878 449.922 108.878 452.108C108.878 459.694 112.575 464.227 116.151 464.23C116.902 464.166 117.637 463.976 118.325 463.668C119.171 463.294 120.076 463.074 120.999 463.018C121.924 463.073 122.831 463.293 123.678 463.668ZM122.212 441.199H123.424C124.067 441.198 124.683 440.942 125.137 440.488C125.592 440.033 125.847 439.417 125.848 438.774V437.562H124.636C123.993 437.563 123.377 437.818 122.922 438.273C122.468 438.727 122.212 439.344 122.212 439.986V441.199Z" fill="#171717"/>
<path d="M87.4021 532.108H84.967V517.066H91.432C94.1904 517.066 95.8066 518.855 95.8066 521.592C95.8066 524.329 94.1904 526.117 91.432 526.117H87.4021V532.108ZM87.4021 519.2V523.984H91.2811C92.5095 523.984 93.2422 523.316 93.2422 522.109V521.075C93.2422 519.868 92.5095 519.2 91.2811 519.2H87.4021ZM98.3054 532.108V516.161H100.654V522.755H100.762C101.236 521.549 102.184 520.644 103.908 520.644C106.193 520.644 107.55 522.238 107.55 524.997V532.108H105.201V525.277C105.201 523.553 104.533 522.669 103.09 522.669C101.861 522.669 100.654 523.294 100.654 524.587V532.108H98.3054ZM115.271 527.496L117.512 520.902H119.775L115.056 534.328C114.517 535.836 113.849 536.418 112.103 536.418H110.746V534.5H112.642L113.288 532.604L109.215 520.902H111.564L113.806 527.496L114.452 529.932H114.56L115.271 527.496ZM125.137 532.367C123.025 532.367 121.646 531.569 120.59 530.255L122.098 528.876C122.917 529.867 123.93 530.47 125.266 530.47C126.624 530.47 127.313 529.91 127.313 528.962C127.313 528.251 126.882 527.712 125.719 527.561L124.684 527.432C122.4 527.152 120.999 526.16 120.999 524.092C120.999 521.915 122.702 520.644 125.158 520.644C127.184 520.644 128.326 521.312 129.339 522.432L127.895 523.811C127.313 523.122 126.365 522.54 125.158 522.54C123.865 522.54 123.262 523.1 123.262 523.941C123.262 524.803 123.801 525.191 124.986 525.385L126.02 525.514C128.477 525.88 129.576 526.958 129.576 528.768C129.576 530.923 127.831 532.367 125.137 532.367ZM133.415 518.898C132.445 518.898 132.014 518.381 132.014 517.67V517.303C132.014 516.592 132.445 516.075 133.415 516.075C134.385 516.075 134.794 516.592 134.794 517.303V517.67C134.794 518.381 134.385 518.898 133.415 518.898ZM132.23 532.108V520.902H134.579V532.108H132.23ZM142.265 532.367C139.032 532.367 137.179 530.082 137.179 526.505C137.179 522.928 139.032 520.644 142.265 520.644C144.506 520.644 145.928 521.743 146.596 523.402L144.657 524.307C144.333 523.273 143.536 522.605 142.265 522.605C140.541 522.605 139.657 523.79 139.657 525.514V527.518C139.657 529.242 140.541 530.427 142.265 530.427C143.622 530.427 144.42 529.695 144.894 528.574L146.682 529.522C145.95 531.354 144.42 532.367 142.265 532.367ZM152.474 532.367C150.362 532.367 148.983 531.569 147.927 530.255L149.436 528.876C150.255 529.867 151.267 530.47 152.604 530.47C153.961 530.47 154.651 529.91 154.651 528.962C154.651 528.251 154.22 527.712 153.056 527.561L152.022 527.432C149.737 527.152 148.337 526.16 148.337 524.092C148.337 521.915 150.039 520.644 152.496 520.644C154.521 520.644 155.664 521.312 156.676 522.432L155.233 523.811C154.651 523.122 153.703 522.54 152.496 522.54C151.203 522.54 150.599 523.1 150.599 523.941C150.599 524.803 151.138 525.191 152.323 525.385L153.358 525.514C155.814 525.88 156.914 526.958 156.914 528.768C156.914 530.923 155.168 532.367 152.474 532.367Z" fill="#171717"/>
<path d="M370.849 630.659C360.684 627.457 350.524 624.243 340.359 621.024L330.453 617.889C325.296 616.255 320.134 614.625 314.972 612.995C301.458 608.723 287.481 604.305 273.75 599.928C267.582 597.964 265.176 593.219 267.147 586.908C272.376 570.18 275.441 552.21 276.256 533.492C277.02 515.958 274.251 498.318 268.024 481.055C262.9 466.848 261.689 451.93 264.42 436.706C268.145 415.953 278.03 398.485 293.804 384.796C308.917 371.692 326.653 364.448 346.536 363.278C368.485 361.982 388.418 368.126 405.791 381.54C422.717 394.61 433.784 412.066 438.682 433.417C440.566 441.63 440.695 450.074 440.662 459.47C440.632 467.709 442.641 475.341 446.634 482.15C451.257 490.042 456.055 498.373 461.3 507.619C463.346 511.23 463.555 515.331 461.872 518.875C460.156 522.483 456.769 524.953 452.576 525.655C451.24 525.881 449.761 525.856 448.2 525.835C447.811 525.831 447.427 525.822 447.039 525.822C445.063 525.822 443.485 526.403 442.324 527.578C441.163 528.752 440.586 530.345 440.616 532.305C440.657 535.098 440.649 537.961 440.641 540.728C440.641 541.798 440.632 542.872 440.632 543.942V547.324C440.632 549.121 440.632 550.919 440.632 552.712C440.603 565.971 431.8 576.266 418.733 578.326C416.373 578.698 413.888 578.648 411.253 578.594C410.305 578.573 409.336 578.556 408.355 578.556C408.05 578.556 407.745 578.556 407.44 578.56C400.679 578.661 396.599 581.67 394.591 588.036C393.53 591.397 392.482 594.758 391.433 598.118C388.694 606.888 385.862 615.954 382.91 624.795C381.164 630.024 376.316 632.381 370.849 630.659Z" fill="#F5F5F5" stroke="#171717" stroke-width="1.5" stroke-miterlimit="10"/>
<rect x="316" y="416.108" width="72" height="72" rx="20.8" fill="#FBBF24"/>
<path fill-rule="evenodd" clip-rule="evenodd" d="M337.456 456.957H366.548C367.191 456.956 367.807 456.7 368.261 456.246C368.716 455.792 368.972 455.175 368.973 454.533V439.986C368.971 439.344 368.715 438.728 368.261 438.274C367.806 437.82 367.191 437.564 366.548 437.562H337.456C336.813 437.564 336.197 437.82 335.743 438.274C335.289 438.728 335.033 439.344 335.031 439.986V454.533C335.033 455.175 335.289 455.791 335.743 456.245C336.197 456.699 336.813 456.955 337.456 456.957ZM337.456 439.986H366.548V454.533H337.456V439.986ZM349.308 451.291C350.105 451.824 351.043 452.108 352.002 452.108C353.287 452.107 354.52 451.596 355.429 450.687C356.338 449.778 356.849 448.545 356.851 447.26C356.851 446.301 356.566 445.363 356.033 444.566C355.501 443.768 354.743 443.147 353.857 442.78C352.971 442.413 351.997 442.317 351.056 442.504C350.115 442.691 349.251 443.153 348.573 443.831C347.895 444.509 347.433 445.373 347.246 446.314C347.059 447.254 347.155 448.229 347.522 449.115C347.889 450.001 348.511 450.758 349.308 451.291ZM350.655 445.244C351.054 444.977 351.522 444.835 352.002 444.835C352.645 444.836 353.261 445.091 353.715 445.546C354.17 446 354.426 446.617 354.426 447.26C354.426 447.739 354.284 448.208 354.018 448.606C353.751 449.005 353.373 449.316 352.93 449.499C352.487 449.683 351.999 449.731 351.529 449.637C351.059 449.544 350.627 449.313 350.288 448.974C349.949 448.635 349.718 448.203 349.624 447.732C349.531 447.262 349.579 446.775 349.762 446.332C349.946 445.889 350.256 445.51 350.655 445.244ZM361.699 444.835C361.22 444.835 360.751 444.977 360.352 445.244C359.954 445.51 359.643 445.889 359.46 446.332C359.276 446.775 359.228 447.262 359.322 447.732C359.415 448.203 359.646 448.635 359.985 448.974C360.324 449.313 360.756 449.544 361.226 449.637C361.697 449.731 362.184 449.683 362.627 449.499C363.07 449.316 363.449 449.005 363.715 448.606C363.982 448.208 364.124 447.739 364.124 447.26C364.124 446.617 363.868 446 363.414 445.545C362.959 445.091 362.342 444.835 361.699 444.835ZM335.031 459.381H368.973V461.806H335.031V459.381ZM335.031 464.23H368.973V466.655H335.031V464.23ZM342.304 444.835C341.825 444.835 341.356 444.977 340.957 445.244C340.559 445.51 340.248 445.889 340.065 446.332C339.881 446.775 339.833 447.262 339.927 447.732C340.02 448.203 340.251 448.635 340.59 448.974C340.929 449.313 341.361 449.544 341.831 449.637C342.302 449.731 342.789 449.683 343.232 449.499C343.675 449.316 344.054 449.005 344.32 448.606C344.587 448.208 344.729 447.739 344.729 447.26C344.729 446.617 344.473 446 344.019 445.545C343.564 445.091 342.947 444.835 342.304 444.835Z" fill="#171717"/>
<path d="M316.961 532.108H314.525V517.066H323.921V519.221H316.961V523.402H323.145V525.557H316.961V532.108ZM327.829 518.898C326.859 518.898 326.428 518.381 326.428 517.67V517.303C326.428 516.592 326.859 516.075 327.829 516.075C328.798 516.075 329.208 516.592 329.208 517.303V517.67C329.208 518.381 328.798 518.898 327.829 518.898ZM326.643 532.108V520.902H328.992V532.108H326.643ZM334.695 532.108H332.346V520.902H334.695V522.755H334.803C335.277 521.549 336.225 520.644 337.949 520.644C340.234 520.644 341.591 522.238 341.591 524.997V532.108H339.242V525.298C339.242 523.553 338.574 522.669 337.131 522.669C335.902 522.669 334.695 523.294 334.695 524.609V532.108ZM354.372 532.108H353.058C351.829 532.108 351.183 531.332 351.032 530.233H350.924C350.493 531.634 349.286 532.367 347.649 532.367C345.343 532.367 344.028 531.052 344.028 529.027C344.028 526.807 345.688 525.665 348.812 525.665H350.838V524.717C350.838 523.359 350.105 522.562 348.532 522.562C347.218 522.562 346.42 523.208 345.86 524.092L344.459 522.82C345.192 521.57 346.506 520.644 348.683 520.644C351.571 520.644 353.187 522.066 353.187 524.566V530.19H354.372V532.108ZM348.317 530.578C349.761 530.578 350.838 529.889 350.838 528.789V527.173H348.855C347.218 527.173 346.42 527.712 346.42 528.682V529.07C346.42 530.061 347.153 530.578 348.317 530.578ZM359.023 532.108H356.674V520.902H359.023V522.755H359.131C359.605 521.549 360.553 520.644 362.277 520.644C364.562 520.644 365.919 522.238 365.919 524.997V532.108H363.57V525.298C363.57 523.553 362.902 522.669 361.458 522.669C360.23 522.669 359.023 523.294 359.023 524.609V532.108ZM373.507 532.367C370.274 532.367 368.421 530.082 368.421 526.505C368.421 522.928 370.274 520.644 373.507 520.644C375.748 520.644 377.17 521.743 377.838 523.402L375.899 524.307C375.575 523.273 374.778 522.605 373.507 522.605C371.783 522.605 370.899 523.79 370.899 525.514V527.518C370.899 529.242 371.783 530.427 373.507 530.427C374.864 530.427 375.662 529.695 376.136 528.574L377.924 529.522C377.192 531.354 375.662 532.367 373.507 532.367ZM384.43 532.367C381.241 532.367 379.28 530.082 379.28 526.505C379.28 522.928 381.241 520.644 384.43 520.644C387.728 520.644 389.408 523.122 389.408 526.225V527.109H381.715V527.475C381.715 529.199 382.771 530.427 384.667 530.427C386.047 530.427 386.973 529.781 387.62 528.746L388.999 530.104C388.159 531.462 386.521 532.367 384.43 532.367ZM384.43 522.475C382.814 522.475 381.715 523.682 381.715 525.406V525.557H386.93V525.341C386.93 523.617 385.982 522.475 384.43 522.475Z" fill="#171717"/>
<path d="M601.849 630.659C591.684 627.457 581.524 624.243 571.359 621.024L561.453 617.889C556.296 616.255 551.134 614.625 545.972 612.995C532.458 608.723 518.481 604.305 504.75 599.928C498.582 597.964 496.176 593.219 498.147 586.908C503.376 570.18 506.441 552.21 507.256 533.492C508.02 515.958 505.251 498.318 499.024 481.055C493.9 466.848 492.689 451.93 495.42 436.706C499.145 415.953 509.03 398.485 524.804 384.796C539.917 371.692 557.653 364.448 577.536 363.278C599.485 361.982 619.418 368.126 636.791 381.54C653.717 394.61 664.784 412.066 669.682 433.417C671.566 441.63 671.695 450.074 671.662 459.47C671.632 467.709 673.641 475.341 677.634 482.15C682.257 490.042 687.055 498.373 692.3 507.619C694.346 511.23 694.555 515.331 692.872 518.875C691.156 522.483 687.769 524.953 683.576 525.655C682.24 525.881 680.761 525.856 679.2 525.835C678.811 525.831 678.427 525.822 678.039 525.822C676.063 525.822 674.485 526.403 673.324 527.578C672.163 528.752 671.586 530.345 671.616 532.305C671.657 535.098 671.649 537.961 671.641 540.728C671.641 541.798 671.632 542.872 671.632 543.942V547.324C671.632 549.121 671.632 550.919 671.632 552.712C671.603 565.971 662.8 576.266 649.733 578.326C647.373 578.698 644.888 578.648 642.253 578.594C641.305 578.573 640.336 578.556 639.355 578.556C639.05 578.556 638.745 578.556 638.44 578.56C631.679 578.661 627.599 581.67 625.591 588.036C624.53 591.397 623.482 594.758 622.433 598.118C619.694 606.888 616.862 615.954 613.91 624.795C612.164 630.024 607.316 632.381 601.849 630.659Z" fill="#F5F5F5" stroke="#171717" stroke-width="1.5" stroke-miterlimit="10"/>
<rect x="547" y="416.108" width="72" height="72" rx="20.8" fill="#FB923C"/>
<path fill-rule="evenodd" clip-rule="evenodd" d="M580.575 442.411H575.726V437.562H573.302V442.411H568.453V444.835H573.302V449.684H575.726V444.835H580.575V442.411ZM580.575 455.745H568.453V458.169H580.575V455.745ZM568.453 461.806H580.575V464.23H568.453V461.806ZM597.546 442.411H585.424V444.835H597.546V442.411ZM597.546 455.03L593.194 459.381L597.546 463.733L595.836 465.442L591.485 461.091L587.133 465.442L585.424 463.733L589.776 459.381L585.424 455.03L587.133 453.32L591.485 457.672L595.836 453.32L597.546 455.03Z" fill="#171717"/>
<path d="M561.267 532.108V517.066H566.59C570.426 517.066 572.947 519.566 572.947 524.587C572.947 529.608 570.426 532.108 566.59 532.108H561.267ZM563.702 529.953H566.59C568.831 529.953 570.34 528.509 570.34 525.794V523.38C570.34 520.665 568.831 519.221 566.59 519.221H563.702V529.953ZM585.33 532.108H584.016C582.787 532.108 582.141 531.332 581.99 530.233H581.882C581.451 531.634 580.244 532.367 578.607 532.367C576.301 532.367 574.986 531.052 574.986 529.027C574.986 526.807 576.645 525.665 579.77 525.665H581.796V524.717C581.796 523.359 581.063 522.562 579.49 522.562C578.176 522.562 577.378 523.208 576.818 524.092L575.417 522.82C576.15 521.57 577.464 520.644 579.641 520.644C582.529 520.644 584.145 522.066 584.145 524.566V530.19H585.33V532.108ZM579.275 530.578C580.718 530.578 581.796 529.889 581.796 528.789V527.173H579.813C578.176 527.173 577.378 527.712 577.378 528.682V529.07C577.378 530.061 578.111 530.578 579.275 530.578ZM592.72 532.108H590.672C589.056 532.108 588.194 531.203 588.194 529.673V522.82H586.449V520.902H587.397C588.173 520.902 588.431 520.579 588.431 519.803V517.842H590.543V520.902H592.892V522.82H590.543V530.19H592.72V532.108ZM604.965 532.108H603.65C602.422 532.108 601.776 531.332 601.625 530.233H601.517C601.086 531.634 599.879 532.367 598.241 532.367C595.936 532.367 594.621 531.052 594.621 529.027C594.621 526.807 596.28 525.665 599.405 525.665H601.431V524.717C601.431 523.359 600.698 522.562 599.125 522.562C597.81 522.562 597.013 523.208 596.453 524.092L595.052 522.82C595.785 521.57 597.099 520.644 599.276 520.644C602.164 520.644 603.78 522.066 603.78 524.566V530.19H604.965V532.108ZM598.909 530.578C600.353 530.578 601.431 529.889 601.431 528.789V527.173H599.448C597.81 527.173 597.013 527.712 597.013 528.682V529.07C597.013 530.061 597.746 530.578 598.909 530.578Z" fill="#171717"/>
<path d="M832.849 630.659C822.684 627.457 812.524 624.243 802.359 621.024L792.453 617.889C787.296 616.255 782.134 614.625 776.972 612.995C763.458 608.723 749.481 604.305 735.75 599.928C729.582 597.964 727.176 593.219 729.147 586.908C734.376 570.18 737.441 552.21 738.256 533.492C739.02 515.958 736.251 498.318 730.024 481.055C724.9 466.848 723.689 451.93 726.42 436.706C730.145 415.953 740.03 398.485 755.804 384.796C770.917 371.692 788.653 364.448 808.536 363.278C830.485 361.982 850.418 368.126 867.791 381.54C884.717 394.61 895.784 412.066 900.682 433.417C902.566 441.63 902.695 450.074 902.662 459.47C902.632 467.709 904.641 475.341 908.634 482.15C913.257 490.042 918.055 498.373 923.3 507.619C925.346 511.23 925.555 515.331 923.872 518.875C922.156 522.483 918.769 524.953 914.576 525.655C913.24 525.881 911.761 525.856 910.2 525.835C909.811 525.831 909.427 525.822 909.039 525.822C907.063 525.822 905.485 526.403 904.324 527.578C903.163 528.752 902.586 530.345 902.616 532.305C902.657 535.098 902.649 537.961 902.641 540.728C902.641 541.798 902.632 542.872 902.632 543.942V547.324C902.632 549.121 902.632 550.919 902.632 552.712C902.603 565.971 893.8 576.266 880.733 578.326C878.373 578.698 875.888 578.648 873.253 578.594C872.305 578.573 871.336 578.556 870.355 578.556C870.05 578.556 869.745 578.556 869.44 578.56C862.679 578.661 858.599 581.67 856.591 588.036C855.53 591.397 854.482 594.758 853.433 598.118C850.694 606.888 847.862 615.954 844.91 624.795C843.164 630.024 838.316 632.381 832.849 630.659Z" fill="#F5F5F5" stroke="#171717" stroke-width="1.5" stroke-miterlimit="10"/>
<rect x="778" y="416.108" width="72" height="72" rx="20.8" fill="#4ADE80"/>
<path fill-rule="evenodd" clip-rule="evenodd" d="M816.426 438.774V441.198H812.547C811.748 444.625 810.116 447.802 807.795 450.447C809.549 452.236 811.665 453.629 814.002 454.532L813.141 456.763C810.518 455.709 808.141 454.124 806.159 452.108C804.141 454.097 801.763 455.685 799.153 456.787L798.243 454.532C800.567 453.549 802.687 452.143 804.498 450.387C802.86 448.389 801.625 446.092 800.862 443.623H803.407C804.025 445.463 804.965 447.179 806.183 448.69C808.052 446.538 809.379 443.969 810.05 441.198H797.031V438.774H805.517V435.137H807.941V438.774H816.426ZM830.971 467.867H828.364L826.425 463.018H818.121L816.182 467.867H813.576L820.849 449.684H823.697L830.971 467.867ZM822.267 452.641L819.091 460.593H825.455L822.267 452.641Z" fill="#171717"/>
<path d="M771.265 532.108H762.709V517.066H765.145V529.953H771.265V532.108ZM783.132 532.108H781.817C780.589 532.108 779.942 531.332 779.792 530.233H779.684C779.253 531.634 778.046 532.367 776.408 532.367C774.102 532.367 772.788 531.052 772.788 529.027C772.788 526.807 774.447 525.665 777.572 525.665H779.598V524.717C779.598 523.359 778.865 522.562 777.292 522.562C775.977 522.562 775.18 523.208 774.62 524.092L773.219 522.82C773.951 521.57 775.266 520.644 777.443 520.644C780.33 520.644 781.947 522.066 781.947 524.566V530.19H783.132V532.108ZM777.076 530.578C778.52 530.578 779.598 529.889 779.598 528.789V527.173H777.615C775.977 527.173 775.18 527.712 775.18 528.682V529.07C775.18 530.061 775.913 530.578 777.076 530.578ZM787.783 532.108H785.434V520.902H787.783V522.755H787.891C788.365 521.549 789.313 520.644 791.037 520.644C793.321 520.644 794.679 522.238 794.679 524.997V532.108H792.33V525.298C792.33 523.553 791.662 522.669 790.218 522.669C788.99 522.669 787.783 523.294 787.783 524.609V532.108ZM807.761 533.164C807.761 535.492 806.102 536.677 802.072 536.677C798.409 536.677 796.986 535.685 796.986 533.983C796.986 532.755 797.719 532.087 798.904 531.828V531.591C798.085 531.332 797.633 530.707 797.633 529.867C797.633 528.703 798.538 528.143 799.615 527.884V527.798C798.301 527.173 797.568 525.988 797.568 524.479C797.568 522.195 799.184 520.644 802.029 520.644C802.783 520.644 803.473 520.751 804.055 520.988V520.687C804.055 519.695 804.529 519.092 805.52 519.092H807.244V520.988H804.96V521.441C805.973 522.109 806.533 523.186 806.533 524.479C806.533 526.742 804.895 528.272 802.051 528.272C801.512 528.272 800.995 528.208 800.585 528.1C800.025 528.294 799.508 528.66 799.508 529.22C799.508 529.824 800.09 530.061 801.081 530.061H803.839C806.598 530.061 807.761 531.225 807.761 533.164ZM805.563 533.423C805.563 532.647 805.046 532.151 803.516 532.151H799.723C799.206 532.453 798.947 532.906 798.947 533.444C798.947 534.349 799.615 534.974 801.361 534.974H802.826C804.658 534.974 805.563 534.457 805.563 533.423ZM802.051 526.57C803.43 526.57 804.227 525.945 804.227 524.673V524.242C804.227 522.971 803.43 522.346 802.051 522.346C800.671 522.346 799.874 522.971 799.874 524.242V524.673C799.874 525.945 800.671 526.57 802.051 526.57ZM816.213 532.108V530.255H816.127C815.718 531.354 814.834 532.367 812.981 532.367C810.675 532.367 809.317 530.794 809.317 528.035V520.902H811.666V527.734C811.666 529.436 812.377 530.341 813.821 530.341C815.028 530.341 816.213 529.716 816.213 528.402V520.902H818.562V532.108H816.213ZM831.451 532.108H830.136C828.908 532.108 828.261 531.332 828.111 530.233H828.003C827.572 531.634 826.365 532.367 824.727 532.367C822.421 532.367 821.107 531.052 821.107 529.027C821.107 526.807 822.766 525.665 825.891 525.665H827.917V524.717C827.917 523.359 827.184 522.562 825.611 522.562C824.296 522.562 823.499 523.208 822.939 524.092L821.538 522.82C822.271 521.57 823.585 520.644 825.762 520.644C828.649 520.644 830.266 522.066 830.266 524.566V530.19H831.451V532.108ZM825.395 530.578C826.839 530.578 827.917 529.889 827.917 528.789V527.173H825.934C824.296 527.173 823.499 527.712 823.499 528.682V529.07C823.499 530.061 824.232 530.578 825.395 530.578ZM843.58 533.164C843.58 535.492 841.92 536.677 837.891 536.677C834.227 536.677 832.805 535.685 832.805 533.983C832.805 532.755 833.538 532.087 834.723 531.828V531.591C833.904 531.332 833.451 530.707 833.451 529.867C833.451 528.703 834.356 528.143 835.434 527.884V527.798C834.119 527.173 833.387 525.988 833.387 524.479C833.387 522.195 835.003 520.644 837.848 520.644C838.602 520.644 839.291 520.751 839.873 520.988V520.687C839.873 519.695 840.347 519.092 841.339 519.092H843.063V520.988H840.778V521.441C841.791 522.109 842.351 523.186 842.351 524.479C842.351 526.742 840.714 528.272 837.869 528.272C837.33 528.272 836.813 528.208 836.404 528.1C835.843 528.294 835.326 528.66 835.326 529.22C835.326 529.824 835.908 530.061 836.899 530.061H839.658C842.416 530.061 843.58 531.225 843.58 533.164ZM841.382 533.423C841.382 532.647 840.865 532.151 839.334 532.151H835.542C835.024 532.453 834.766 532.906 834.766 533.444C834.766 534.349 835.434 534.974 837.179 534.974H838.645C840.477 534.974 841.382 534.457 841.382 533.423ZM837.869 526.57C839.248 526.57 840.046 525.945 840.046 524.673V524.242C840.046 522.971 839.248 522.346 837.869 522.346C836.49 522.346 835.693 522.971 835.693 524.242V524.673C835.693 525.945 836.49 526.57 837.869 526.57ZM849.598 532.367C846.408 532.367 844.447 530.082 844.447 526.505C844.447 522.928 846.408 520.644 849.598 520.644C852.895 520.644 854.576 523.122 854.576 526.225V527.109H846.882V527.475C846.882 529.199 847.938 530.427 849.835 530.427C851.214 530.427 852.141 529.781 852.787 528.746L854.166 530.104C853.326 531.462 851.688 532.367 849.598 532.367ZM849.598 522.475C847.981 522.475 846.882 523.682 846.882 525.406V525.557H852.097V525.341C852.097 523.617 851.149 522.475 849.598 522.475ZM860.732 532.367C858.62 532.367 857.241 531.569 856.185 530.255L857.693 528.876C858.512 529.867 859.525 530.47 860.861 530.47C862.219 530.47 862.908 529.91 862.908 528.962C862.908 528.251 862.477 527.712 861.314 527.561L860.279 527.432C857.995 527.152 856.594 526.16 856.594 524.092C856.594 521.915 858.297 520.644 860.753 520.644C862.779 520.644 863.921 521.312 864.934 522.432L863.49 523.811C862.908 523.122 861.96 522.54 860.753 522.54C859.46 522.54 858.857 523.1 858.857 523.941C858.857 524.803 859.396 525.191 860.581 525.385L861.615 525.514C864.072 525.88 865.171 526.958 865.171 528.768C865.171 530.923 863.426 532.367 860.732 532.367Z" fill="#171717"/>
<path d="M1063.85 630.659C1053.68 627.457 1043.52 624.243 1033.36 621.024L1023.45 617.889C1018.3 616.255 1013.13 614.625 1007.97 612.995C994.458 608.723 980.481 604.305 966.75 599.928C960.582 597.964 958.176 593.219 960.147 586.908C965.376 570.18 968.441 552.21 969.256 533.492C970.02 515.958 967.251 498.318 961.024 481.055C955.9 466.848 954.689 451.93 957.42 436.706C961.145 415.953 971.03 398.485 986.804 384.796C1001.92 371.692 1019.65 364.448 1039.54 363.278C1061.49 361.982 1081.42 368.126 1098.79 381.54C1115.72 394.61 1126.78 412.066 1131.68 433.417C1133.57 441.63 1133.7 450.074 1133.66 459.47C1133.63 467.709 1135.64 475.341 1139.63 482.15C1144.26 490.042 1149.05 498.373 1154.3 507.619C1156.35 511.23 1156.56 515.331 1154.87 518.875C1153.16 522.483 1149.77 524.953 1145.58 525.655C1144.24 525.881 1142.76 525.856 1141.2 525.835C1140.81 525.831 1140.43 525.822 1140.04 525.822C1138.06 525.822 1136.48 526.403 1135.32 527.578C1134.16 528.752 1133.59 530.345 1133.62 532.305C1133.66 535.098 1133.65 537.961 1133.64 540.728C1133.64 541.798 1133.63 542.872 1133.63 543.942V547.324C1133.63 549.121 1133.63 550.919 1133.63 552.712C1133.6 565.971 1124.8 576.266 1111.73 578.326C1109.37 578.698 1106.89 578.648 1104.25 578.594C1103.31 578.573 1102.34 578.556 1101.36 578.556C1101.05 578.556 1100.75 578.556 1100.44 578.56C1093.68 578.661 1089.6 581.67 1087.59 588.036C1086.53 591.397 1085.48 594.758 1084.43 598.118C1081.69 606.888 1078.86 615.954 1075.91 624.795C1074.16 630.024 1069.32 632.381 1063.85 630.659Z" fill="#F5F5F5" stroke="#171717" stroke-width="1.5" stroke-miterlimit="10"/>
<rect x="1009" y="416.108" width="72" height="72" rx="20.8" fill="#93C5FD"/>
<path fill-rule="evenodd" clip-rule="evenodd" d="M1048.64 437.562V439.986H1042.47L1041.7 448.472H1047.42V450.896H1041.48L1040.25 464.45C1040.19 465.053 1039.92 465.615 1039.47 466.023C1039.02 466.432 1038.44 466.657 1037.83 466.655H1031.67V464.23H1037.83L1039.04 450.896H1034.09V448.472H1039.26L1040.06 439.767C1040.11 439.163 1040.39 438.602 1040.83 438.193C1041.28 437.785 1041.86 437.559 1042.47 437.562H1048.64ZM1054.7 454.533H1057.12L1053.6 460.594L1057.12 466.655H1054.7L1052.27 462.049L1049.85 466.655H1047.42L1050.95 460.594L1047.42 454.533H1049.85L1052.27 459.257L1054.7 454.533Z" fill="#171717"/>
<path d="M1021.51 532.108V517.066H1024.4L1028.43 524.717H1028.56L1032.59 517.066H1035.34V532.108H1033.02V520.6H1032.91L1031.72 523.036L1028.43 529.048L1025.13 523.036L1023.94 520.6H1023.84V532.108H1021.51ZM1048.41 532.108H1047.1C1045.87 532.108 1045.22 531.332 1045.07 530.233H1044.97C1044.53 531.634 1043.33 532.367 1041.69 532.367C1039.38 532.367 1038.07 531.052 1038.07 529.027C1038.07 526.807 1039.73 525.665 1042.85 525.665H1044.88V524.717C1044.88 523.359 1044.15 522.562 1042.57 522.562C1041.26 522.562 1040.46 523.208 1039.9 524.092L1038.5 522.82C1039.23 521.57 1040.55 520.644 1042.72 520.644C1045.61 520.644 1047.23 522.066 1047.23 524.566V530.19H1048.41V532.108ZM1042.36 530.578C1043.8 530.578 1044.88 529.889 1044.88 528.789V527.173H1042.9C1041.26 527.173 1040.46 527.712 1040.46 528.682V529.07C1040.46 530.061 1041.19 530.578 1042.36 530.578ZM1055.8 532.108H1053.76C1052.14 532.108 1051.28 531.203 1051.28 529.673V522.82H1049.53V520.902H1050.48C1051.26 520.902 1051.51 520.579 1051.51 519.803V517.842H1053.63V520.902H1055.98V522.82H1053.63V530.19H1055.8V532.108ZM1058.52 532.108V516.161H1060.87V522.755H1060.98C1061.45 521.549 1062.4 520.644 1064.13 520.644C1066.41 520.644 1067.77 522.238 1067.77 524.997V532.108H1065.42V525.277C1065.42 523.553 1064.75 522.669 1063.31 522.669C1062.08 522.669 1060.87 523.294 1060.87 524.587V532.108H1058.52Z" fill="#171717"/>
<path d="M139.849 946.767C129.684 943.565 119.524 940.351 109.359 937.132L99.4534 933.998C94.2959 932.363 89.1342 930.733 83.9725 929.103C70.4585 924.831 56.481 920.413 42.7498 916.036C36.5817 914.072 34.1762 909.328 36.1474 903.016C41.3759 886.288 44.4412 868.318 45.2555 849.601C46.0197 832.066 43.251 814.427 37.0243 797.163C31.9002 782.956 30.6891 768.038 33.4203 752.814C37.1454 732.061 47.0304 714.593 62.8036 700.904C77.9171 687.8 95.6531 680.556 115.536 679.386C137.485 678.09 157.418 684.234 174.791 697.648C191.717 710.718 202.784 728.174 207.682 749.525C209.566 757.738 209.695 766.182 209.662 775.578C209.632 783.817 211.641 791.45 215.634 798.259C220.257 806.15 225.055 814.481 230.3 823.727C232.346 827.338 232.555 831.439 230.872 834.983C229.156 838.591 225.769 841.061 221.576 841.763C220.24 841.989 218.761 841.964 217.2 841.943C216.811 841.939 216.427 841.93 216.039 841.93C214.063 841.93 212.485 842.511 211.324 843.686C210.163 844.861 209.586 846.453 209.616 848.414C209.657 851.206 209.649 854.069 209.641 856.836C209.641 857.906 209.632 858.98 209.632 860.05V863.432C209.632 865.229 209.632 867.027 209.632 868.82C209.603 882.079 200.8 892.374 187.733 894.435C185.373 894.807 182.888 894.756 180.253 894.702C179.305 894.681 178.336 894.664 177.355 894.664C177.05 894.664 176.745 894.664 176.44 894.669C169.679 894.769 165.599 897.778 163.591 904.145C162.53 907.505 161.482 910.866 160.433 914.227C157.694 922.996 154.862 932.062 151.91 940.903C150.164 946.132 145.316 948.489 139.849 946.767Z" fill="#F5F5F5" stroke="#171717" stroke-width="1.5" stroke-miterlimit="10"/>
<rect x="85" y="732.216" width="72" height="72" rx="20.8" fill="#FB923C"/>
<path fill-rule="evenodd" clip-rule="evenodd" d="M106.453 753.67V751.246H135.546V753.67H129.485V762.155C129.485 764.406 128.591 766.564 126.999 768.155C125.408 769.747 123.25 770.641 120.999 770.641C118.749 770.641 116.591 769.747 114.999 768.155C113.408 766.564 112.514 764.406 112.514 762.155V753.67H106.453ZM127.06 753.67H114.938V757.307H127.06V753.67ZM116.714 766.441C117.85 767.578 119.392 768.216 120.999 768.216C122.607 768.216 124.148 767.578 125.285 766.441C126.422 765.304 127.06 763.763 127.06 762.155V759.731H114.938V762.155C114.938 763.763 115.577 765.304 116.714 766.441ZM107.665 756.094C107.344 756.094 107.035 756.222 106.808 756.449C106.581 756.677 106.453 756.985 106.453 757.307V768.216H108.878V757.307C108.878 756.985 108.75 756.677 108.522 756.449C108.295 756.222 107.987 756.094 107.665 756.094ZM133.121 785.187H130.697V781.55C130.695 779.943 130.056 778.403 128.92 777.267C127.783 776.13 126.243 775.491 124.636 775.489H117.363C115.756 775.491 114.215 776.13 113.079 777.267C111.943 778.403 111.304 779.943 111.302 781.55V785.187H108.878V781.55C108.88 779.301 109.775 777.144 111.366 775.553C112.956 773.962 115.113 773.068 117.363 773.065H124.636C126.886 773.068 129.042 773.962 130.633 775.553C132.224 777.144 133.119 779.301 133.121 781.55V785.187Z" fill="#171717"/>
<path d="M82.5832 848.216H72.9503V833.174H82.5832V835.329H75.3855V839.51H81.9152V841.665H75.3855V846.061H82.5832V848.216ZM92.3886 848.216V846.363H92.2809C91.8068 847.678 90.6215 848.475 89.1346 848.475C86.3115 848.475 84.6737 846.298 84.6737 842.613C84.6737 838.928 86.3115 836.752 89.1346 836.752C90.6215 836.752 91.8068 837.528 92.2809 838.864H92.3886V832.269H94.7376V848.216H92.3886ZM89.8457 846.449C91.268 846.449 92.3886 845.673 92.3886 844.531V840.695C92.3886 839.553 91.268 838.777 89.8457 838.777C88.2295 838.777 87.152 839.92 87.152 841.644V843.583C87.152 845.307 88.2295 846.449 89.8457 846.449ZM104.883 848.216V846.363H104.797C104.388 847.462 103.504 848.475 101.651 848.475C99.3449 848.475 97.9872 846.902 97.9872 844.143V837.01H100.336V843.842C100.336 845.544 101.047 846.449 102.491 846.449C103.698 846.449 104.883 845.824 104.883 844.51V837.01H107.232V848.216H104.883ZM114.927 848.475C111.695 848.475 109.841 846.191 109.841 842.613C109.841 839.036 111.695 836.752 114.927 836.752C117.168 836.752 118.591 837.851 119.259 839.51L117.319 840.415C116.996 839.381 116.199 838.713 114.927 838.713C113.203 838.713 112.32 839.898 112.32 841.622V843.626C112.32 845.35 113.203 846.535 114.927 846.535C116.285 846.535 117.082 845.803 117.556 844.682L119.345 845.63C118.612 847.462 117.082 848.475 114.927 848.475ZM131.106 848.216H129.792C128.563 848.216 127.917 847.441 127.766 846.341H127.658C127.227 847.742 126.02 848.475 124.383 848.475C122.077 848.475 120.762 847.16 120.762 845.135C120.762 842.915 122.422 841.773 125.546 841.773H127.572V840.825C127.572 839.467 126.839 838.67 125.266 838.67C123.952 838.67 123.154 839.316 122.594 840.2L121.193 838.928C121.926 837.678 123.24 836.752 125.417 836.752C128.305 836.752 129.921 838.174 129.921 840.674V846.298H131.106V848.216ZM125.051 846.686C126.495 846.686 127.572 845.997 127.572 844.898V843.281H125.589C123.952 843.281 123.154 843.82 123.154 844.79V845.178C123.154 846.169 123.887 846.686 125.051 846.686ZM138.496 848.216H136.448C134.832 848.216 133.97 847.311 133.97 845.781V838.928H132.225V837.01H133.173C133.949 837.01 134.207 836.687 134.207 835.911V833.95H136.319V837.01H138.668V838.928H136.319V846.298H138.496V848.216ZM142.401 835.006C141.432 835.006 141.001 834.489 141.001 833.778V833.411C141.001 832.7 141.432 832.183 142.401 832.183C143.371 832.183 143.78 832.7 143.78 833.411V833.778C143.78 834.489 143.371 835.006 142.401 835.006ZM141.216 848.216V837.01H143.565V848.216H141.216ZM151.315 848.475C148.191 848.475 146.165 846.191 146.165 842.613C146.165 839.036 148.191 836.752 151.315 836.752C154.44 836.752 156.466 839.036 156.466 842.613C156.466 846.191 154.44 848.475 151.315 848.475ZM151.315 846.535C152.91 846.535 153.988 845.544 153.988 843.562V841.665C153.988 839.683 152.91 838.691 151.315 838.691C149.721 838.691 148.643 839.683 148.643 841.665V843.562C148.643 845.544 149.721 846.535 151.315 846.535ZM161.432 848.216H159.083V837.01H161.432V838.864H161.54C162.014 837.657 162.962 836.752 164.686 836.752C166.97 836.752 168.328 838.346 168.328 841.105V848.216H165.979V841.407C165.979 839.661 165.311 838.777 163.867 838.777C162.639 838.777 161.432 839.402 161.432 840.717V848.216Z" fill="#171717"/>
<path d="M370.849 946.767C360.684 943.565 350.524 940.351 340.359 937.132L330.453 933.998C325.296 932.363 320.134 930.733 314.972 929.103C301.458 924.831 287.481 920.413 273.75 916.036C267.582 914.072 265.176 909.328 267.147 903.016C272.376 886.288 275.441 868.318 276.256 849.601C277.02 832.066 274.251 814.427 268.024 797.163C262.9 782.956 261.689 768.038 264.42 752.814C268.145 732.061 278.03 714.593 293.804 700.904C308.917 687.8 326.653 680.556 346.536 679.386C368.485 678.09 388.418 684.234 405.791 697.648C422.717 710.718 433.784 728.174 438.682 749.525C440.566 757.738 440.695 766.182 440.662 775.578C440.632 783.817 442.641 791.45 446.634 798.259C451.257 806.15 456.055 814.481 461.3 823.727C463.346 827.338 463.555 831.439 461.872 834.983C460.156 838.591 456.769 841.061 452.576 841.763C451.24 841.989 449.761 841.964 448.2 841.943C447.811 841.939 447.427 841.93 447.039 841.93C445.063 841.93 443.485 842.511 442.324 843.686C441.163 844.861 440.586 846.453 440.616 848.414C440.657 851.206 440.649 854.069 440.641 856.836C440.641 857.906 440.632 858.98 440.632 860.05V863.432C440.632 865.229 440.632 867.027 440.632 868.82C440.603 882.079 431.8 892.374 418.733 894.435C416.373 894.807 413.888 894.756 411.253 894.702C410.305 894.681 409.336 894.664 408.355 894.664C408.05 894.664 407.745 894.664 407.44 894.669C400.679 894.769 396.599 897.778 394.591 904.145C393.53 907.505 392.482 910.866 391.433 914.227C388.694 922.996 385.862 932.062 382.91 940.903C381.164 946.132 376.316 948.489 370.849 946.767Z" fill="#F5F5F5" stroke="#171717" stroke-width="1.5" stroke-miterlimit="10"/>
<rect x="316" y="732.216" width="72" height="72" rx="20.8" fill="#4ADE80"/>
<path d="M356.849 768.216C356.849 769.824 357.487 771.365 358.624 772.502C359.761 773.639 361.302 774.277 362.91 774.277C364.517 774.277 366.059 773.639 367.195 772.502C368.332 771.365 368.971 769.824 368.971 768.216C368.971 768.028 368.927 767.842 368.843 767.674L363.996 757.981C363.979 757.947 363.961 757.914 363.941 757.882C363.832 757.706 363.68 757.561 363.5 757.46C363.319 757.359 363.116 757.307 362.91 757.307H355.42C355.237 756.8 354.945 756.339 354.563 755.959C354.181 755.578 353.72 755.287 353.212 755.105V751.246H350.788V755.105C350.28 755.287 349.819 755.578 349.437 755.959C349.055 756.339 348.762 756.8 348.579 757.307H341.09C340.865 757.307 340.644 757.369 340.453 757.488C340.261 757.606 340.107 757.775 340.006 757.977L335.157 767.674C335.073 767.842 335.029 768.028 335.029 768.216C335.029 769.824 335.668 771.365 336.805 772.502C337.941 773.639 339.483 774.277 341.09 774.277C342.698 774.277 344.239 773.639 345.376 772.502C346.513 771.365 347.151 769.824 347.151 768.216C347.151 768.028 347.107 767.842 347.023 767.674L343.052 759.731H348.579C348.762 760.238 349.055 760.698 349.437 761.079C349.819 761.459 350.28 761.75 350.788 761.932V782.762H339.878V785.187H364.122V782.762H353.212V761.932C353.72 761.751 354.181 761.459 354.563 761.079C354.945 760.698 355.237 760.238 355.42 759.731H360.948L356.977 767.674C356.892 767.842 356.849 768.028 356.849 768.216ZM341.09 771.853C340.341 771.85 339.61 771.616 338.999 771.182C338.389 770.748 337.927 770.135 337.678 769.428H344.502C344.253 770.135 343.792 770.748 343.181 771.182C342.57 771.616 341.84 771.85 341.09 771.853V771.853ZM343.978 767.004H338.203L341.09 761.23L343.978 767.004ZM352 759.731C351.76 759.731 351.526 759.66 351.326 759.527C351.127 759.393 350.972 759.204 350.88 758.983C350.788 758.761 350.764 758.517 350.811 758.282C350.858 758.047 350.973 757.831 351.143 757.662C351.312 757.492 351.528 757.377 351.763 757.33C351.999 757.283 352.242 757.307 352.464 757.399C352.685 757.491 352.875 757.646 353.008 757.845C353.141 758.045 353.212 758.279 353.212 758.519C353.212 758.84 353.084 759.148 352.857 759.376C352.629 759.603 352.321 759.731 352 759.731V759.731ZM362.91 771.853C362.16 771.85 361.43 771.616 360.819 771.182C360.208 770.748 359.746 770.135 359.497 769.428H366.322C366.073 770.135 365.611 770.748 365 771.182C364.389 771.616 363.659 771.85 362.91 771.853V771.853ZM362.91 761.23L365.797 767.004H360.022L362.91 761.23Z" fill="#171717"/>
<path d="M341.895 848.216H333.34V833.174H335.775V846.061H341.895V848.216ZM353.762 848.216H352.447C351.219 848.216 350.573 847.441 350.422 846.341H350.314C349.883 847.742 348.676 848.475 347.038 848.475C344.732 848.475 343.418 847.16 343.418 845.135C343.418 842.915 345.077 841.773 348.202 841.773H350.228V840.825C350.228 839.467 349.495 838.67 347.922 838.67C346.607 838.67 345.81 839.316 345.25 840.2L343.849 838.928C344.582 837.678 345.896 836.752 348.073 836.752C350.96 836.752 352.577 838.174 352.577 840.674V846.298H353.762V848.216ZM347.706 846.686C349.15 846.686 350.228 845.997 350.228 844.898V843.281H348.245C346.607 843.281 345.81 843.82 345.81 844.79V845.178C345.81 846.169 346.543 846.686 347.706 846.686ZM357.919 848.216L354.859 837.01H357.144L358.286 841.708L359.299 845.954H359.363L360.527 841.708L361.885 837.01H363.996L365.376 841.708L366.561 845.954H366.626L367.617 841.708L368.781 837.01H370.957L367.94 848.216H365.289L363.824 843.109L362.919 839.963H362.876L361.992 843.109L360.505 848.216H357.919Z" fill="#171717"/>
<path d="M601.849 946.767C591.684 943.565 581.524 940.351 571.359 937.132L561.453 933.998C556.296 932.363 551.134 930.733 545.972 929.103C532.458 924.831 518.481 920.413 504.75 916.036C498.582 914.072 496.176 909.328 498.147 903.016C503.376 886.288 506.441 868.318 507.256 849.601C508.02 832.066 505.251 814.427 499.024 797.163C493.9 782.956 492.689 768.038 495.42 752.814C499.145 732.061 509.03 714.593 524.804 700.904C539.917 687.8 557.653 680.556 577.536 679.386C599.485 678.09 619.418 684.234 636.791 697.648C653.717 710.718 664.784 728.174 669.682 749.525C671.566 757.738 671.695 766.182 671.662 775.578C671.632 783.817 673.641 791.45 677.634 798.259C682.257 806.15 687.055 814.481 692.3 823.727C694.346 827.338 694.555 831.439 692.872 834.983C691.156 838.591 687.769 841.061 683.576 841.763C682.24 841.989 680.761 841.964 679.2 841.943C678.811 841.939 678.427 841.93 678.039 841.93C676.063 841.93 674.485 842.511 673.324 843.686C672.163 844.861 671.586 846.453 671.616 848.414C671.657 851.206 671.649 854.069 671.641 856.836C671.641 857.906 671.632 858.98 671.632 860.05V863.432C671.632 865.229 671.632 867.027 671.632 868.82C671.603 882.079 662.8 892.374 649.733 894.435C647.373 894.807 644.888 894.756 642.253 894.702C641.305 894.681 640.336 894.664 639.355 894.664C639.05 894.664 638.745 894.664 638.44 894.669C631.679 894.769 627.599 897.778 625.591 904.145C624.53 907.505 623.482 910.866 622.433 914.227C619.694 922.996 616.862 932.062 613.91 940.903C612.164 946.132 607.316 948.489 601.849 946.767Z" fill="#F5F5F5" stroke="#171717" stroke-width="1.5" stroke-miterlimit="10"/>
<rect x="547" y="732.216" width="72" height="72" rx="20.8" fill="#93C5FD"/>
<path fill-rule="evenodd" clip-rule="evenodd" d="M599.97 752.96L596.705 756.224L598.031 757.549C598.26 757.768 598.443 758.031 598.568 758.323C598.694 758.615 598.758 758.929 598.758 759.246C598.758 759.563 598.694 759.878 598.568 760.169C598.443 760.461 598.26 760.724 598.031 760.943L576.211 782.762H568.453V775.004L590.273 753.185C590.491 752.955 590.755 752.772 591.046 752.647C591.338 752.522 591.652 752.458 591.97 752.458C592.287 752.458 592.601 752.522 592.893 752.647C593.185 752.772 593.448 752.955 593.667 753.185L594.992 754.51L598.256 751.246L599.97 752.96ZM570.878 780.338H575.241L596.333 759.246L591.97 754.882L570.878 775.974V780.338ZM574.514 762.866L583.71 753.67L585.424 755.384L576.228 764.58L574.514 762.866Z" fill="#171717"/>
<path d="M553.639 848.216H550.902L547.346 833.174H549.824L551.354 840.415L552.41 845.415H552.475L553.682 840.415L555.47 833.174H558.186L559.953 840.415L561.138 845.393H561.203L562.302 840.415L563.875 833.174H566.267L562.56 848.216H559.824L557.906 840.437L556.785 835.868H556.742L555.6 840.437L553.639 848.216ZM570.599 848.216H568.25V837.01H570.599V839.165H570.707C571.03 838.023 572 837.01 573.788 837.01H574.413V839.273H573.487C571.633 839.273 570.599 839.898 570.599 841.062V848.216ZM577.685 835.006C576.715 835.006 576.284 834.489 576.284 833.778V833.411C576.284 832.7 576.715 832.183 577.685 832.183C578.655 832.183 579.064 832.7 579.064 833.411V833.778C579.064 834.489 578.655 835.006 577.685 835.006ZM576.5 848.216V837.01H578.848V848.216H576.5ZM587.353 848.216H585.306C583.69 848.216 582.828 847.311 582.828 845.781V838.928H581.082V837.01H582.03C582.806 837.01 583.065 836.687 583.065 835.911V833.95H585.177V837.01H587.526V838.928H585.177V846.298H587.353V848.216ZM591.259 835.006C590.289 835.006 589.858 834.489 589.858 833.778V833.411C589.858 832.7 590.289 832.183 591.259 832.183C592.228 832.183 592.638 832.7 592.638 833.411V833.778C592.638 834.489 592.228 835.006 591.259 835.006ZM590.073 848.216V837.01H592.422V848.216H590.073ZM598.126 848.216H595.777V837.01H598.126V838.864H598.233C598.707 837.657 599.656 836.752 601.38 836.752C603.664 836.752 605.022 838.346 605.022 841.105V848.216H602.673V841.407C602.673 839.661 602.005 838.777 600.561 838.777C599.332 838.777 598.126 839.402 598.126 840.717V848.216ZM618.104 849.272C618.104 851.6 616.445 852.785 612.415 852.785C608.751 852.785 607.329 851.794 607.329 850.091C607.329 848.863 608.062 848.195 609.247 847.936V847.699C608.428 847.441 607.976 846.816 607.976 845.975C607.976 844.811 608.881 844.251 609.958 843.993V843.906C608.644 843.281 607.911 842.096 607.911 840.588C607.911 838.303 609.527 836.752 612.372 836.752C613.126 836.752 613.816 836.859 614.398 837.097V836.795C614.398 835.804 614.872 835.2 615.863 835.2H617.587V837.097H615.303V837.549C616.315 838.217 616.876 839.295 616.876 840.588C616.876 842.85 615.238 844.38 612.393 844.38C611.855 844.38 611.337 844.316 610.928 844.208C610.368 844.402 609.85 844.768 609.85 845.329C609.85 845.932 610.432 846.169 611.424 846.169H614.182C616.94 846.169 618.104 847.333 618.104 849.272ZM615.906 849.531C615.906 848.755 615.389 848.259 613.859 848.259H610.066C609.549 848.561 609.29 849.014 609.29 849.552C609.29 850.458 609.958 851.082 611.704 851.082H613.169C615.001 851.082 615.906 850.565 615.906 849.531ZM612.393 842.678C613.773 842.678 614.57 842.053 614.57 840.782V840.351C614.57 839.079 613.773 838.454 612.393 838.454C611.014 838.454 610.217 839.079 610.217 840.351V840.782C610.217 842.053 611.014 842.678 612.393 842.678Z" fill="#171717"/>
<path d="M832.849 946.767C822.684 943.565 812.524 940.351 802.359 937.132L792.453 933.998C787.296 932.363 782.134 930.733 776.972 929.103C763.458 924.831 749.481 920.413 735.75 916.036C729.582 914.072 727.176 909.328 729.147 903.016C734.376 886.288 737.441 868.318 738.256 849.601C739.02 832.066 736.251 814.427 730.024 797.163C724.9 782.956 723.689 768.038 726.42 752.814C730.145 732.061 740.03 714.593 755.804 700.904C770.917 687.8 788.653 680.556 808.536 679.386C830.485 678.09 850.418 684.234 867.791 697.648C884.717 710.718 895.784 728.174 900.682 749.525C902.566 757.738 902.695 766.182 902.662 775.578C902.632 783.817 904.641 791.45 908.634 798.259C913.257 806.15 918.055 814.481 923.3 823.727C925.346 827.338 925.555 831.439 923.872 834.983C922.156 838.591 918.769 841.061 914.576 841.763C913.24 841.989 911.761 841.964 910.2 841.943C909.811 841.939 909.427 841.93 909.039 841.93C907.063 841.93 905.485 842.511 904.324 843.686C903.163 844.861 902.586 846.453 902.616 848.414C902.657 851.206 902.649 854.069 902.641 856.836C902.641 857.906 902.632 858.98 902.632 860.05V863.432C902.632 865.229 902.632 867.027 902.632 868.82C902.603 882.079 893.8 892.374 880.733 894.435C878.373 894.807 875.888 894.756 873.253 894.702C872.305 894.681 871.336 894.664 870.355 894.664C870.05 894.664 869.745 894.664 869.44 894.669C862.679 894.769 858.599 897.778 856.591 904.145C855.53 907.505 854.482 910.866 853.433 914.227C850.694 922.996 847.862 932.062 844.91 940.903C843.164 946.132 838.316 948.489 832.849 946.767Z" fill="#F5F5F5" stroke="#171717" stroke-width="1.5" stroke-miterlimit="10"/>
<rect x="778" y="732.216" width="72" height="72" rx="20.8" fill="#FB923C"/>
<path fill-rule="evenodd" clip-rule="evenodd" d="M819.371 758.828C819.985 758.624 820.628 758.52 821.275 758.519C822.882 758.521 824.422 759.16 825.559 760.296C826.695 761.432 827.334 762.973 827.336 764.58H824.912C824.912 763.826 824.678 763.091 824.242 762.477C823.806 761.862 823.19 761.398 822.479 761.148C821.768 760.899 820.997 760.876 820.273 761.084C819.548 761.292 818.907 761.719 818.436 762.307C817.869 763.018 817.149 763.591 816.33 763.985C815.511 764.378 814.613 764.582 813.704 764.58H809.153V762.155H813.704C814.25 762.156 814.789 762.034 815.28 761.798C815.772 761.562 816.204 761.217 816.544 760.791C816.762 760.525 817.001 760.277 817.26 760.051C816.578 759.198 815.714 758.508 814.731 758.033C813.747 757.558 812.67 757.31 811.578 757.307C810.622 757.304 809.675 757.491 808.792 757.856C807.91 758.222 807.108 758.759 806.434 759.437L805.577 760.294L798.243 752.96L799.958 751.246L805.63 756.919C807.329 755.593 809.423 754.876 811.578 754.882C813.094 754.887 814.589 755.246 815.942 755.931C817.295 756.616 818.469 757.608 819.371 758.828ZM798.745 757.307L808.443 767.004H830.973V768.216C830.973 772.717 829.185 777.034 826.002 780.216C822.819 783.399 818.503 785.187 814.002 785.187C809.501 785.187 805.184 783.399 802.002 780.216C798.819 777.034 797.031 772.717 797.031 768.216V767.004H805.015L797.031 759.021L798.745 757.307ZM804.159 778.917C806.843 781.386 810.355 782.758 814.002 782.762C817.649 782.758 821.161 781.386 823.845 778.917C826.529 776.448 828.189 773.062 828.498 769.428H799.506C799.814 773.062 801.475 776.448 804.159 778.917Z" fill="#171717"/>
<path d="M780.345 848.216L775.431 839.898L773.772 836.709H773.707V848.216H771.38V833.174H774.095L779.009 841.493L780.668 844.682H780.733V833.174H783.06V848.216H780.345ZM793.38 848.216V846.363H793.293C792.884 847.462 792 848.475 790.147 848.475C787.841 848.475 786.484 846.902 786.484 844.143V837.01H788.833V843.842C788.833 845.544 789.544 846.449 790.988 846.449C792.194 846.449 793.38 845.824 793.38 844.51V837.01H795.729V848.216H793.38ZM804.243 848.216H802.195C800.579 848.216 799.717 847.311 799.717 845.781V838.928H797.971V837.01H798.92C799.695 837.01 799.954 836.687 799.954 835.911V833.95H802.066V837.01H804.415V838.928H802.066V846.298H804.243V848.216ZM809.312 848.216H806.963V837.01H809.312V839.165H809.42C809.743 838.023 810.713 837.01 812.501 837.01H813.126V839.273H812.2C810.346 839.273 809.312 839.898 809.312 841.062V848.216ZM816.398 835.006C815.428 835.006 814.997 834.489 814.997 833.778V833.411C814.997 832.7 815.428 832.183 816.398 832.183C817.367 832.183 817.777 832.7 817.777 833.411V833.778C817.777 834.489 817.367 835.006 816.398 835.006ZM815.212 848.216V837.01H817.561V848.216H815.212ZM826.066 848.216H824.019C822.403 848.216 821.541 847.311 821.541 845.781V838.928H819.795V837.01H820.743C821.519 837.01 821.778 836.687 821.778 835.911V833.95H823.89V837.01H826.238V838.928H823.89V846.298H826.066V848.216ZM829.972 835.006C829.002 835.006 828.571 834.489 828.571 833.778V833.411C828.571 832.7 829.002 832.183 829.972 832.183C830.941 832.183 831.351 832.7 831.351 833.411V833.778C831.351 834.489 830.941 835.006 829.972 835.006ZM828.786 848.216V837.01H831.135V848.216H828.786ZM838.886 848.475C835.761 848.475 833.735 846.191 833.735 842.613C833.735 839.036 835.761 836.752 838.886 836.752C842.011 836.752 844.036 839.036 844.036 842.613C844.036 846.191 842.011 848.475 838.886 848.475ZM838.886 846.535C840.481 846.535 841.558 845.544 841.558 843.562V841.665C841.558 839.683 840.481 838.691 838.886 838.691C837.291 838.691 836.214 839.683 836.214 841.665V843.562C836.214 845.544 837.291 846.535 838.886 846.535ZM849.003 848.216H846.654V837.01H849.003V838.864H849.11C849.584 837.657 850.533 836.752 852.257 836.752C854.541 836.752 855.899 838.346 855.899 841.105V848.216H853.55V841.407C853.55 839.661 852.882 838.777 851.438 838.777C850.209 838.777 849.003 839.402 849.003 840.717V848.216Z" fill="#171717"/>
<path d="M1063.85 946.767C1053.68 943.565 1043.52 940.351 1033.36 937.132L1023.45 933.998C1018.3 932.363 1013.13 930.733 1007.97 929.103C994.458 924.831 980.481 920.413 966.75 916.036C960.582 914.072 958.176 909.328 960.147 903.016C965.376 886.288 968.441 868.318 969.256 849.601C970.02 832.066 967.251 814.427 961.024 797.163C955.9 782.956 954.689 768.038 957.42 752.814C961.145 732.061 971.03 714.593 986.804 700.904C1001.92 687.8 1019.65 680.556 1039.54 679.386C1061.49 678.09 1081.42 684.234 1098.79 697.648C1115.72 710.718 1126.78 728.174 1131.68 749.525C1133.57 757.738 1133.7 766.182 1133.66 775.578C1133.63 783.817 1135.64 791.45 1139.63 798.259C1144.26 806.15 1149.05 814.481 1154.3 823.727C1156.35 827.338 1156.56 831.439 1154.87 834.983C1153.16 838.591 1149.77 841.061 1145.58 841.763C1144.24 841.989 1142.76 841.964 1141.2 841.943C1140.81 841.939 1140.43 841.93 1140.04 841.93C1138.06 841.93 1136.48 842.511 1135.32 843.686C1134.16 844.861 1133.59 846.453 1133.62 848.414C1133.66 851.206 1133.65 854.069 1133.64 856.836C1133.64 857.906 1133.63 858.98 1133.63 860.05V863.432C1133.63 865.229 1133.63 867.027 1133.63 868.82C1133.6 882.079 1124.8 892.374 1111.73 894.435C1109.37 894.807 1106.89 894.756 1104.25 894.702C1103.31 894.681 1102.34 894.664 1101.36 894.664C1101.05 894.664 1100.75 894.664 1100.44 894.669C1093.68 894.769 1089.6 897.778 1087.59 904.145C1086.53 907.505 1085.48 910.866 1084.43 914.227C1081.69 922.996 1078.86 932.062 1075.91 940.903C1074.16 946.132 1069.32 948.489 1063.85 946.767Z" fill="#F5F5F5" stroke="#171717" stroke-width="1.5" stroke-miterlimit="10"/>
<rect x="1009" y="732.216" width="72" height="72" rx="20.8" fill="#FBBF24"/>
<g clip-path="url(#clip0_3424_237074)">
<path fill-rule="evenodd" clip-rule="evenodd" d="M1046.21 748.821H1043.79V751.246H1046.21V748.821ZM1054.43 754.636L1056.14 752.922L1057.86 754.636L1056.14 756.35L1054.43 754.636ZM1059.55 764.58H1061.97V767.004H1059.55V764.58ZM1033.86 756.376L1032.15 754.662L1033.86 752.948L1035.57 754.662L1033.86 756.376ZM1030.46 764.58H1028.03V767.004H1030.46V764.58ZM1041.37 787.611V785.187H1048.64V787.611H1041.37ZM1051.06 782.763V780.338H1038.94V782.763H1051.06ZM1032.88 765.792C1032.88 759.125 1038.33 753.67 1045 753.67C1051.67 753.67 1057.12 759.125 1057.12 765.792C1057.12 771.126 1054.7 773.429 1052.88 775.005C1051.67 776.096 1051.06 776.823 1051.06 777.914H1048.64C1048.64 775.611 1049.97 774.398 1051.31 773.186C1053 771.732 1054.7 770.035 1054.7 765.792C1054.7 760.458 1050.34 756.094 1045 756.094C1039.67 756.094 1035.3 760.458 1035.3 765.792C1035.3 770.035 1037 771.732 1038.7 773.186C1040.03 774.398 1041.37 775.732 1041.37 777.914H1038.94C1038.94 776.823 1038.33 776.096 1037.12 775.005C1035.3 773.429 1032.88 771.126 1032.88 765.792Z" fill="#171717"/>
</g>
<path d="M997.439 842.139V848.216H995.004V833.174H1001.49C1004.18 833.174 1005.84 834.92 1005.84 837.7C1005.84 839.833 1004.83 841.32 1002.91 841.881L1006.17 848.216H1003.45L1000.43 842.139H997.439ZM997.439 840.092H1001.32C1002.55 840.092 1003.28 839.424 1003.28 838.217V837.183C1003.28 835.976 1002.55 835.308 1001.32 835.308H997.439V840.092ZM1013.03 848.475C1009.84 848.475 1007.88 846.191 1007.88 842.613C1007.88 839.036 1009.84 836.752 1013.03 836.752C1016.33 836.752 1018.01 839.23 1018.01 842.333V843.217H1010.32V843.583C1010.32 845.307 1011.37 846.535 1013.27 846.535C1014.65 846.535 1015.58 845.889 1016.22 844.855L1017.6 846.212C1016.76 847.57 1015.12 848.475 1013.03 848.475ZM1013.03 838.583C1011.42 838.583 1010.32 839.79 1010.32 841.514V841.665H1015.53V841.45C1015.53 839.726 1014.58 838.583 1013.03 838.583ZM1030.14 848.216H1028.82C1027.59 848.216 1026.95 847.441 1026.8 846.341H1026.69C1026.26 847.742 1025.05 848.475 1023.41 848.475C1021.11 848.475 1019.79 847.16 1019.79 845.135C1019.79 842.915 1021.45 841.773 1024.58 841.773H1026.6V840.825C1026.6 839.467 1025.87 838.67 1024.3 838.67C1022.98 838.67 1022.18 839.316 1021.62 840.2L1020.22 838.928C1020.96 837.678 1022.27 836.752 1024.45 836.752C1027.33 836.752 1028.95 838.174 1028.95 840.674V846.298H1030.14V848.216ZM1024.08 846.686C1025.52 846.686 1026.6 845.997 1026.6 844.898V843.281H1024.62C1022.98 843.281 1022.18 843.82 1022.18 844.79V845.178C1022.18 846.169 1022.92 846.686 1024.08 846.686ZM1035.99 848.475C1033.88 848.475 1032.5 847.678 1031.45 846.363L1032.96 844.984C1033.77 845.975 1034.79 846.579 1036.12 846.579C1037.48 846.579 1038.17 846.018 1038.17 845.07C1038.17 844.359 1037.74 843.82 1036.58 843.669L1035.54 843.54C1033.26 843.26 1031.86 842.269 1031.86 840.2C1031.86 838.023 1033.56 836.752 1036.02 836.752C1038.04 836.752 1039.18 837.42 1040.2 838.54L1038.75 839.92C1038.17 839.23 1037.22 838.648 1036.02 838.648C1034.72 838.648 1034.12 839.208 1034.12 840.049C1034.12 840.911 1034.66 841.299 1035.84 841.493L1036.88 841.622C1039.33 841.988 1040.43 843.066 1040.43 844.876C1040.43 847.031 1038.69 848.475 1035.99 848.475ZM1047.48 848.475C1044.36 848.475 1042.33 846.191 1042.33 842.613C1042.33 839.036 1044.36 836.752 1047.48 836.752C1050.61 836.752 1052.63 839.036 1052.63 842.613C1052.63 846.191 1050.61 848.475 1047.48 848.475ZM1047.48 846.535C1049.08 846.535 1050.16 845.544 1050.16 843.562V841.665C1050.16 839.683 1049.08 838.691 1047.48 838.691C1045.89 838.691 1044.81 839.683 1044.81 841.665V843.562C1044.81 845.544 1045.89 846.535 1047.48 846.535ZM1057.6 848.216H1055.25V837.01H1057.6V838.864H1057.71C1058.18 837.657 1059.13 836.752 1060.85 836.752C1063.14 836.752 1064.5 838.346 1064.5 841.105V848.216H1062.15V841.407C1062.15 839.661 1061.48 838.777 1060.04 838.777C1058.81 838.777 1057.6 839.402 1057.6 840.717V848.216ZM1068.94 835.006C1067.97 835.006 1067.54 834.489 1067.54 833.778V833.411C1067.54 832.7 1067.97 832.183 1068.94 832.183C1069.91 832.183 1070.32 832.7 1070.32 833.411V833.778C1070.32 834.489 1069.91 835.006 1068.94 835.006ZM1067.75 848.216V837.01H1070.1V848.216H1067.75ZM1075.8 848.216H1073.46V837.01H1075.8V838.864H1075.91C1076.39 837.657 1077.33 836.752 1079.06 836.752C1081.34 836.752 1082.7 838.346 1082.7 841.105V848.216H1080.35V841.407C1080.35 839.661 1079.68 838.777 1078.24 838.777C1077.01 838.777 1075.8 839.402 1075.8 840.717V848.216ZM1095.78 849.272C1095.78 851.6 1094.12 852.785 1090.09 852.785C1086.43 852.785 1085.01 851.794 1085.01 850.091C1085.01 848.863 1085.74 848.195 1086.93 847.936V847.699C1086.11 847.441 1085.65 846.816 1085.65 845.975C1085.65 844.811 1086.56 844.251 1087.64 843.993V843.906C1086.32 843.281 1085.59 842.096 1085.59 840.588C1085.59 838.303 1087.21 836.752 1090.05 836.752C1090.8 836.752 1091.49 836.859 1092.08 837.097V836.795C1092.08 835.804 1092.55 835.2 1093.54 835.2H1095.27V837.097H1092.98V837.549C1093.99 838.217 1094.55 839.295 1094.55 840.588C1094.55 842.85 1092.92 844.38 1090.07 844.38C1089.53 844.38 1089.02 844.316 1088.61 844.208C1088.05 844.402 1087.53 844.768 1087.53 845.329C1087.53 845.932 1088.11 846.169 1089.1 846.169H1091.86C1094.62 846.169 1095.78 847.333 1095.78 849.272ZM1093.58 849.531C1093.58 848.755 1093.07 848.259 1091.54 848.259H1087.74C1087.23 848.561 1086.97 849.014 1086.97 849.552C1086.97 850.458 1087.64 851.082 1089.38 851.082H1090.85C1092.68 851.082 1093.58 850.565 1093.58 849.531ZM1090.07 842.678C1091.45 842.678 1092.25 842.053 1092.25 840.782V840.351C1092.25 839.079 1091.45 838.454 1090.07 838.454C1088.69 838.454 1087.9 839.079 1087.9 840.351V840.782C1087.9 842.053 1088.69 842.678 1090.07 842.678Z" fill="#171717"/>
<defs>
<clipPath id="clip0_3424_237074">
<rect width="38.79" height="38.79" fill="white" transform="translate(1025.61 748.821)"/>
</clipPath>
</defs>
</svg>
