<svg width="566" height="248" viewBox="0 0 566 248" fill="none" xmlns="http://www.w3.org/2000/svg">
<g clip-path="url(#clip0_7_3371)">
<path fill-rule="evenodd" clip-rule="evenodd" d="M516.384 162.06C515.16 162.06 514.478 161.297 514.478 160.255C514.478 159.214 515.16 158.451 516.384 158.451C519.446 158.451 520.807 157.48 522.778 152.207L524.069 148.876L512.574 118.829C512.507 118.622 512.441 118.277 512.441 117.929C512.441 117.028 513.186 116.194 514.274 116.194C515.093 116.194 515.705 116.61 516.045 117.584L525.906 143.74H525.973L535.564 117.584C535.903 116.61 536.519 116.194 537.334 116.194C538.419 116.194 539.102 117.028 539.102 117.929C539.102 118.277 539.032 118.622 538.965 118.829L526.179 152.763C523.32 160.463 521.007 162.06 516.927 162.06H516.384ZM495.316 112.518C495.316 104.607 497.832 102.388 504.362 102.388H505.317C506.538 102.388 507.22 103.148 507.22 104.189C507.22 105.23 506.538 105.994 505.317 105.994C499.942 105.994 498.99 106.827 498.99 112.03V116.057C498.99 116.335 499.127 116.472 499.4 116.472H505.523C506.675 116.472 507.22 117.165 507.22 118.139C507.22 119.11 506.675 119.803 505.523 119.803H499.4C499.127 119.803 498.99 119.941 498.99 120.218V147.835C498.99 149.154 498.242 149.847 497.156 149.847C496.065 149.847 495.316 149.154 495.316 147.835V112.518ZM484.124 118.206C484.124 116.887 484.87 116.194 485.958 116.194C487.047 116.194 487.795 116.887 487.795 118.206V147.835C487.795 149.154 487.047 149.847 485.958 149.847C484.87 149.847 484.124 149.154 484.124 147.835V118.206ZM485.958 102.11C487.526 102.11 488.817 103.426 488.817 105.026C488.817 106.619 487.526 107.938 485.958 107.938C484.394 107.938 483.103 106.619 483.103 105.026C483.103 103.426 484.394 102.11 485.958 102.11ZM459.998 118.206C459.998 116.887 460.743 116.194 461.832 116.194C462.92 116.194 463.669 116.887 463.669 118.206V121.4H463.738C464.96 118.069 468.022 115.779 472.241 115.779C474.824 115.779 476.525 116.472 477.816 117.235C478.632 117.721 478.904 118.277 478.904 118.899C478.904 119.941 478.156 120.774 477.067 120.774C476.798 120.774 476.458 120.704 476.115 120.567C474.618 119.873 473.19 119.388 471.559 119.388C465.845 119.388 463.669 124.383 463.669 130.56V147.835C463.669 149.154 462.92 149.847 461.832 149.847C460.743 149.847 459.998 149.154 459.998 147.835V118.206ZM427.671 132.987C427.671 128.822 428.011 126.533 428.69 124.383C430.457 118.829 434.88 115.779 440.664 115.779C446.508 115.779 450.931 118.829 452.701 124.383C453.383 126.465 453.723 128.963 453.723 132.294C453.723 133.332 453.041 134.028 452.022 134.028H431.818C431.548 134.028 431.412 134.166 431.412 134.443C431.412 137.149 431.548 138.538 432.091 140.202C433.519 144.574 436.853 146.656 441.273 146.656C444.947 146.656 447.599 145.475 450.049 142.91C450.385 142.562 450.861 142.214 451.407 142.214C452.362 142.214 453.041 142.91 453.041 143.811C453.041 144.296 452.904 144.711 452.631 145.059C450.318 148.046 446.441 150.265 441.07 150.265C434.81 150.265 430.527 147.279 428.69 141.591C428.011 139.509 427.671 137.219 427.671 132.987ZM449.573 130.627C449.846 130.627 449.979 130.489 449.979 130.212C449.979 128.27 449.776 126.81 449.37 125.491C448.075 121.4 444.877 119.248 440.664 119.248C436.444 119.248 433.318 121.4 432.024 125.491C431.615 126.81 431.412 128.27 431.412 130.212C431.412 130.489 431.548 130.627 431.818 130.627H449.573ZM369.171 132.987C369.171 128.822 369.511 126.533 370.193 124.383C371.957 118.829 376.38 115.779 382.164 115.779C388.011 115.779 392.431 118.829 394.202 124.383C394.884 126.465 395.223 128.963 395.223 132.294C395.223 133.332 394.541 134.028 393.523 134.028H373.318C373.049 134.028 372.912 134.166 372.912 134.443C372.912 137.149 373.049 138.538 373.591 140.202C375.019 144.574 378.354 146.656 382.773 146.656C386.447 146.656 389.1 145.475 391.549 142.91C391.886 142.562 392.365 142.214 392.907 142.214C393.862 142.214 394.541 142.91 394.541 143.811C394.541 144.296 394.408 144.711 394.132 145.059C391.819 148.046 387.942 150.265 382.57 150.265C376.31 150.265 372.027 147.279 370.193 141.591C369.511 139.509 369.171 137.219 369.171 132.987ZM391.073 130.627C391.346 130.627 391.479 130.489 391.479 130.212C391.479 128.27 391.276 126.81 390.87 125.491C389.576 121.4 386.381 119.248 382.164 119.248C377.944 119.248 374.816 121.4 373.525 125.491C373.115 126.81 372.912 128.27 372.912 130.212C372.912 130.489 373.049 130.627 373.318 130.627H391.073ZM394.423 104.885C394.353 104.607 394.283 104.259 394.283 103.981C394.283 102.87 395.102 102.11 396.19 102.11C397.009 102.11 397.688 102.665 398.027 103.636L411.289 142.977H411.426L424.485 103.636C424.825 102.665 425.507 102.11 426.322 102.11C427.41 102.11 428.226 102.87 428.226 103.981C428.226 104.259 428.159 104.678 428.092 104.885L413.602 147.697C413.126 149.154 412.514 149.847 411.223 149.847C409.998 149.847 409.389 149.154 408.91 147.697L394.423 104.885ZM362.948 149.847C357.986 149.847 356.215 147.49 356.215 142.076V104.192C356.215 102.873 356.961 102.18 358.052 102.18C359.138 102.18 359.886 102.873 359.886 104.192V141.936C359.886 145.2 360.772 146.238 363.627 146.238C364.852 146.238 365.531 147.001 365.531 148.046C365.531 149.084 364.852 149.847 363.627 149.847H362.948ZM328.124 145.408V147.835C328.124 149.154 327.375 149.847 326.287 149.847C325.198 149.847 324.45 149.154 324.45 147.835V104.122C324.45 102.803 325.198 102.11 326.287 102.11C327.375 102.11 328.124 102.803 328.124 104.122V120.634H328.19C329.754 117.791 332.613 115.779 337.918 115.779C343.426 115.779 347.373 118.762 349.073 123.968C349.886 126.673 350.228 129.241 350.228 132.987C350.228 136.804 349.886 139.371 349.073 142.076C347.373 147.279 343.426 150.265 337.918 150.265C332.613 150.265 329.754 148.253 328.19 145.408H328.124ZM346.488 132.987C346.488 129.723 346.282 127.503 345.603 125.354C344.381 121.608 341.456 119.388 337.306 119.388C333.222 119.388 330.23 121.26 328.939 125.146C328.396 126.951 328.124 129.723 328.124 132.987C328.124 136.318 328.396 139.093 328.939 140.898C330.23 144.782 333.222 146.656 337.306 146.656C341.456 146.656 344.381 144.437 345.603 140.687C346.282 138.538 346.488 136.318 346.488 132.987ZM313.637 145.545H313.57C311.733 148.528 308.674 150.265 304.115 150.265C296.973 150.265 292.893 145.685 292.893 137.637V118.206C292.893 116.887 293.639 116.194 294.73 116.194C295.818 116.194 296.564 116.887 296.564 118.206V136.733C296.564 143.325 299.286 146.656 304.93 146.656C309.826 146.656 313.637 143.118 313.637 137.426V118.206C313.637 116.887 314.385 116.194 315.474 116.194C316.562 116.194 317.311 116.887 317.311 118.206V147.835C317.311 149.154 316.562 149.847 315.474 149.847C314.385 149.847 313.637 149.154 313.637 147.835V145.545ZM261.23 132.987C261.23 129.03 261.636 126.603 262.315 124.383C264.086 118.899 268.505 115.779 274.423 115.779C280.41 115.779 284.829 118.899 286.597 124.383C287.279 126.603 287.685 129.03 287.685 132.987C287.685 137.011 287.279 139.442 286.597 141.661C284.829 147.142 280.41 150.265 274.423 150.265C268.505 150.265 264.086 147.142 262.315 141.661C261.636 139.442 261.23 137.011 261.23 132.987ZM283.944 132.987C283.944 129.448 283.671 127.436 283.059 125.562C281.768 121.608 278.639 119.388 274.423 119.388C270.273 119.388 267.144 121.608 265.853 125.562C265.241 127.436 264.968 129.448 264.968 132.987C264.968 136.596 265.241 138.608 265.853 140.48C267.144 144.437 270.273 146.656 274.423 146.656C278.639 146.656 281.768 144.437 283.059 140.48C283.671 138.608 283.944 136.596 283.944 132.987ZM224.86 104.537C224.86 103.359 225.608 102.665 226.763 102.665H238.937C247.437 102.665 252.472 106.482 254.652 113.349C255.674 116.613 256.01 119.455 256.01 126.258C256.01 133.057 255.674 135.9 254.652 139.164C252.472 146.03 247.437 149.847 238.937 149.847H226.763C225.608 149.847 224.86 149.154 224.86 147.975V104.537ZM238.395 146.101C245.331 146.101 249.005 143.744 250.908 137.845C251.79 134.999 252.133 132.294 252.133 126.258C252.133 120.218 251.79 117.513 250.908 114.668C249.005 108.772 245.331 106.412 238.395 106.412H229.143C228.87 106.412 228.734 106.549 228.734 106.827V145.685C228.734 145.963 228.87 146.101 229.143 146.101H238.395Z" fill="black"/>
<path fill-rule="evenodd" clip-rule="evenodd" d="M32.5186 162.06C29.5266 162.06 27.1015 159.516 27.1015 156.375V91.4449C27.1015 88.3031 29.5266 85.7598 32.5186 85.7598C35.5105 85.7598 37.9387 88.3031 37.9387 91.4449V156.375C37.9387 159.516 35.5105 162.06 32.5186 162.06Z" fill="black"/>
<path fill-rule="evenodd" clip-rule="evenodd" d="M56.4968 162.06H49.0669C45.9112 162.06 43.3558 159.516 43.3558 156.378C43.3558 153.239 45.9112 150.696 49.0669 150.696H56.4968C71.3354 150.696 83.4064 138.678 83.4064 123.91C83.4064 109.141 71.3354 97.1269 56.4968 97.1269H49.0669C45.9112 97.1269 43.3558 94.5806 43.3558 91.4418C43.3558 88.3031 45.9112 85.7598 49.0669 85.7598H56.4968C77.6316 85.7598 94.8256 102.873 94.8256 123.91C94.8256 144.946 77.6316 162.06 56.4968 162.06Z" fill="black"/>
<path fill-rule="evenodd" clip-rule="evenodd" d="M135.334 162.06C133.245 162.06 131.245 160.845 130.305 158.775L100.764 93.8478C99.4696 91.0022 100.673 87.6192 103.45 86.2941C106.227 84.9659 109.525 86.1994 110.819 89.045L140.36 153.972C141.651 156.817 140.451 160.197 137.674 161.525C136.916 161.889 136.119 162.06 135.334 162.06Z" fill="black"/>
<path fill-rule="evenodd" clip-rule="evenodd" d="M145.822 140.26C145.062 140.26 144.289 140.089 143.552 139.725C140.854 138.394 139.687 135.008 140.945 132.157L159.97 89.0481C161.228 86.1995 164.432 84.966 167.127 86.2972C169.825 87.6253 170.989 91.0113 169.731 93.863L150.709 136.971C149.794 139.042 147.853 140.26 145.822 140.26Z" fill="black"/>
<path d="M197.768 69.4098H199.123V178.41H197.768V69.4098Z" fill="black"/>
</g>
<defs>
<clipPath id="clip0_7_3371">
<rect width="512" height="109" fill="white" transform="translate(27.1015 69.4098)"/>
</clipPath>
</defs>
</svg>
