<svg width="115" height="35" viewBox="0 0 115 35" fill="none" xmlns="http://www.w3.org/2000/svg">
<path fill-rule="evenodd" clip-rule="evenodd" d="M112.823 7.65235H65.0016L33.4579 0.0869141H33.4298L33.4018 0.114867L0.473633 9.1139V12.8392L33.4298 3.68215L65.0577 11.2105L112.823 11.154V7.65235ZM64.388 30.1299H65.7395L65.1198 28.613L64.388 30.1299ZM52.5485 28.2782V28.9521H53.8342C54.1157 28.9521 54.7836 29.0469 54.8013 28.6708C54.822 28.2423 54.3333 28.2782 53.8263 28.2782H52.5485Z" fill="black"/>
<path fill-rule="evenodd" clip-rule="evenodd" d="M2.81348 24.4526V33.9171H110.398V24.3955L2.81348 24.4526ZM14.3683 31.5306H11.608V27.0925H14.3683V31.5306ZM25.5698 31.5306H22.8656L20.1619 29.3963L20.1558 31.5306H17.6271V27.0925H20.1619L22.9783 29.5082V27.0925H25.5698V31.5306ZM32.3347 31.4838C29.3495 31.4838 28.8986 30.9223 28.4483 30.0794H31.0392C31.4895 30.3596 31.4895 30.3596 32.2786 30.3596C32.7862 30.3596 33.1238 30.2477 33.1238 30.0794C33.1238 29.6297 28.561 29.9111 28.561 28.2253C28.561 27.3265 30.3074 26.8768 32.1098 26.8768C34.5886 26.8768 35.2077 27.3824 35.6586 28.2812H33.2932C32.3353 27.9439 32.997 28.0296 32.2786 27.9439C31.8795 27.8965 31.3207 27.9998 31.3207 28.1122C31.3207 28.7862 35.8834 28.3936 35.8834 30.0223C35.8834 31.0341 34.1931 31.4838 32.3347 31.4838ZM46.4707 28.8336C46.4707 30.4635 46.3019 31.5306 42.5277 31.5306C39.2043 31.5306 38.4719 30.6877 38.4719 29.0597V27.0931H41.2883V29.0597C41.2883 30.0709 41.5137 30.3511 42.5277 30.3511C43.5416 30.3511 43.7104 30.0709 43.7104 29.0038V27.0925H46.4701V28.8336H46.4707ZM54.924 31.6479L54.7552 30.974C54.6425 30.3 54.4737 30.1311 53.6286 30.1311H52.5586V31.6479H49.855V27.2098H54.3616C56.2201 27.2098 57.4595 27.5471 57.4595 28.4453C57.4595 28.8938 57.0652 29.1751 56.3895 29.5124C57.4028 29.7938 57.4595 29.9621 57.5716 31.6479H54.924ZM66.7488 31.6479L66.4107 31.0852H63.877L63.4822 31.6479H60.7225L63.8204 27.2098H66.5801L69.4531 31.6479H66.7488ZM80.4943 31.6479H77.8461L75.1419 29.3441V31.6479H72.607V27.2098H75.1419L77.9588 29.4V27.2098H80.4937V31.6479H80.4943ZM87.81 31.7062C85.67 31.7062 83.4173 30.9193 83.4173 29.3465C83.4173 27.8297 85.5573 27.0427 87.81 27.0427C90.683 27.0427 91.246 27.7737 91.697 28.9539H89.1621C88.7112 28.3912 88.4864 28.2228 87.81 28.2228C86.9648 28.2228 86.2891 28.7285 86.2891 29.3471C86.2891 30.077 86.8533 30.4714 87.6412 30.4714C88.3169 30.4714 88.7685 30.303 89.4442 29.8527H91.8103C91.3588 31.0317 90.5142 31.7062 87.81 31.7062ZM101.498 28.1621H97.443V28.7248H100.822V29.792H97.443V30.4106H101.498V31.589H94.6815V27.0949H101.498V28.1621ZM83.1351 15.0319V23.3466H85.4451V19.6942L86.7973 23.3466H88.487L90.2333 19.301V23.3466H92.2612V15.0319H89.05L87.473 18.6271L86.3464 15.0319H83.1351ZM11.608 15.03V23.2882H13.7487V20.5347L14.8186 23.2882H16.6217L17.9171 19.2433L17.9293 23.2882H20.2826V15.03H17.2414L15.7765 18.6246L14.6499 15.03H11.608ZM52.8876 15.0319H49.9025L47.2549 23.3466H49.5082L50.0932 21.8297H52.6061L53.0004 23.3466H55.4225L52.8876 15.0319ZM50.7446 19.9245L51.3643 18.4077L51.9279 19.9245H50.7446ZM79.4742 15.0319H76.6573L74.2352 23.3466H76.6012L77.0521 21.8297H79.2488L79.8679 23.3466H82.1779L79.4742 15.0319ZM77.62 19.9245L78.127 18.6319L78.634 19.9245H77.62ZM7.82711 15.03H5.29226L2.81409 23.2882H4.89802L5.34893 21.9956H7.68879L8.16529 23.2882H10.418L7.82711 15.03ZM5.97533 19.865L6.53897 18.4053L7.10199 19.865H5.97533ZM102.961 14.9832L105.665 19.5897V23.2408H107.975V19.5326L110.397 14.9832H108.2L106.676 17.4949L105.215 14.9832H102.961ZM56.5997 15.0319V23.3466H58.7964V19.5824L60.6555 23.3466H63.4724V15.0319H61.2191V19.1886L59.3033 15.0319H56.5997ZM45.6194 17.0519L46.7455 15.535C45.957 14.917 45.3373 14.6362 44.2107 14.6362C42.1828 14.6362 40.3804 16.1531 40.3804 18.9613C40.3804 21.6583 42.1828 23.2876 44.2107 23.2876C45.5628 23.2876 46.1264 22.8379 46.8016 22.0509L45.7876 20.7595C45.1679 21.0968 44.7737 21.2652 44.2667 21.2652C43.3088 21.2652 42.577 20.4223 42.577 19.1297C42.577 17.7811 43.4222 16.7705 44.4922 16.7705C44.831 16.7711 45.1125 16.8276 45.6194 17.0519ZM35.7756 17.7264C35.7756 15.2549 34.142 15.03 32.3389 15.03H29.4665V23.2882H31.8886V20.6471H32.4523L33.4662 23.2882H35.6623L34.705 20.0856C35.4941 19.1874 35.7756 18.6818 35.7756 17.7264ZM31.8795 18.5687V17.0519C32.7807 17.0519 33.4565 17.1692 33.4565 17.7307C33.4565 18.6295 32.4986 18.5687 31.8795 18.5687ZM22.6395 15.03V23.2882H27.9346V21.0403H25.2871V20.2545H27.3149V17.7817H25.2871V17.0519H27.9346V15.03H22.6395ZM69.341 23.3466H71.651V20.1998H74.1285V18.3457H71.651V16.9978H74.3546V15.0319H69.341V23.3466ZM98.7927 14.9832V23.2408H103.862V21.1624H101.214V14.9832H98.7927ZM94.4603 14.9832V23.2408H96.6003V14.9832H94.4603ZM37.5116 15.03V23.2882H39.5961V15.03H37.5116ZM113.035 31.2097C112.251 31.2097 111.588 31.8187 111.588 32.6446C111.588 33.4777 112.251 34.0867 113.035 34.0867C113.225 34.0877 113.413 34.0511 113.588 33.9789C113.764 33.9067 113.923 33.8004 114.057 33.6662C114.191 33.532 114.297 33.3725 114.368 33.1971C114.44 33.0217 114.475 32.8339 114.473 32.6446C114.475 32.4558 114.438 32.2686 114.367 32.094C114.295 31.9193 114.189 31.7606 114.055 31.6271C113.921 31.4936 113.762 31.388 113.587 31.3163C113.412 31.2447 113.224 31.2085 113.035 31.2097ZM113.035 33.8472C112.383 33.8472 111.875 33.3367 111.875 32.6446C111.875 31.9633 112.383 31.4492 113.035 31.4492C113.679 31.4492 114.187 31.9633 114.187 32.6446C114.186 33.3367 113.678 33.8472 113.035 33.8472Z" fill="black"/>
<path fill-rule="evenodd" clip-rule="evenodd" d="M113.265 32.7471C113.505 32.7174 113.689 32.5879 113.689 32.2902C113.689 31.9639 113.498 31.8193 113.11 31.8193H112.485V33.4781H112.734V32.7587H113.02L113.453 33.4781H113.731L113.265 32.7471ZM112.733 32.5454V32.0314H113.071C113.245 32.0314 113.43 32.0691 113.43 32.2756C113.43 32.5296 113.241 32.5448 113.03 32.5448H112.733V32.5454Z" fill="black"/>
</svg>
