<svg width="14" height="14" viewBox="0 0 14 14" fill="none" xmlns="http://www.w3.org/2000/svg">
<g clip-path="url(#clip0_17_495)">
<path fill-rule="evenodd" clip-rule="evenodd" d="M1.75 8.75H3.5V9.625H1.75C1.51794 9.625 1.29538 9.53281 1.13128 9.36872C0.967187 9.20462 0.875 8.98206 0.875 8.75V1.75C0.875 1.51794 0.967187 1.29538 1.13128 1.13128C1.29538 0.967187 1.51794 0.875 1.75 0.875H8.75C8.98206 0.875 9.20462 0.967187 9.36872 1.13128C9.53281 1.29538 9.625 1.51794 9.625 1.75V3.5H8.75V1.75H1.75V8.75ZM5.6875 7.4375V4.375H7V3.5H3.5V4.375H4.8125V7.4375H5.6875ZM12.9224 6.01999L11.48 4.57755C11.3499 4.44784 11.1737 4.375 10.99 4.375C10.8063 4.375 10.6301 4.44784 10.5 4.57755L4.375 10.7045V13.125H6.79551L12.9224 6.99999C13.0522 6.8699 13.125 6.6937 13.125 6.50999C13.125 6.32629 13.0522 6.15008 12.9224 6.01999ZM6.43309 12.25H5.25V11.0669L9.38039 6.93651L10.5635 8.1196L6.43309 12.25ZM11.1821 7.50093L9.99906 6.31788L10.991 5.32598L12.1741 6.50907L11.1821 7.50093Z" fill="#0F766E"/>
</g>
<defs>
<clipPath id="clip0_17_495">
<rect width="14" height="14" fill="white"/>
</clipPath>
</defs>
</svg>
