<svg width="140" height="20" viewBox="0 0 140 20" fill="none" xmlns="http://www.w3.org/2000/svg">
<path d="M19.2311 7.068V5.21867C19.2311 5.21867 19.7218 0 9.99249 0C0.967155 0 0.535156 5.21867 0.535156 5.21867V14.5133C0.535156 14.5133 1.29382 19.6773 9.99382 19.6773C17.3845 19.6773 19.2325 15.9827 19.2325 15.9827V9.34933H9.99382V11.8493H14.3405V15.9827C14.3405 15.9827 14.1231 17.1773 9.99382 17.1773C5.15516 17.1773 5.42582 14.5133 5.42582 14.5133V5.21867C5.42582 5.21867 5.15516 2.39333 9.99382 2.39333C14.7218 2.39333 14.3405 5.21867 14.3405 5.21867V7.068H19.2311Z" fill="black"/>
<path d="M36.2969 6.53628V19.0962H40.2369V9.37762C40.2369 9.37762 40.2369 7.77228 43.4449 7.77228C46.6796 7.77228 46.6796 9.34962 46.6796 9.34962V19.1069H50.6196V8.94162C50.6196 8.94162 50.4569 5.62695 43.4449 5.62695C41.0449 5.62695 39.4503 6.01628 38.3903 6.52695L38.4183 6.52428L36.2969 6.53628Z" fill="black"/>
<path d="M67.6094 6.53628V19.0962H71.5508V9.37762C71.5508 9.37762 71.5508 7.77228 74.7574 7.77228C77.9908 7.77228 77.9908 9.34962 77.9908 9.34962V19.1069H81.9321V8.94162C81.9321 8.94162 81.7694 5.62695 74.7574 5.62695C72.3548 5.62695 70.7628 6.01628 69.7028 6.52695L69.7281 6.52428L67.6094 6.53628Z" fill="black"/>
<path d="M107.446 13.6718H97.0632C97.0632 13.6718 97.0379 15.9971 97.0552 15.9971C97.0712 15.9985 97.0632 17.5851 100.272 17.5851C103.506 17.5851 103.511 15.9891 103.511 15.9891L103.506 14.9478H107.446V15.9811C107.446 15.9811 107.746 19.6758 100.272 19.6758C92.7966 19.6758 93.1232 15.9811 93.1232 15.9811V9.53842C93.1232 9.53842 92.8246 5.84375 100.272 5.84375C107.772 5.84375 107.446 9.56642 107.446 9.56642V13.6718ZM97.0579 9.61975L97.0632 11.0611H103.506C103.506 11.0611 103.516 9.61442 103.518 9.61975C103.518 9.61975 103.524 7.99042 100.272 7.99042C97.0619 7.99042 97.0579 9.61975 97.0579 9.61975Z" fill="black"/>
<path d="M123.157 11.2971V9.56642C123.157 9.56642 123.484 5.84375 115.982 5.84375C108.534 5.84375 108.834 9.53842 108.834 9.53842V15.9811C108.834 15.9811 108.508 19.6758 115.982 19.6758C123.454 19.6758 123.157 15.9811 123.157 15.9811V14.3771H119.217L119.222 15.9891C119.222 15.9891 119.217 17.5851 115.982 17.5851C112.774 17.5851 112.784 15.9811 112.766 15.9785C112.746 15.9785 112.774 9.61842 112.774 9.61842C112.786 9.61842 112.83 7.98909 116.145 7.98909C119.272 7.98909 119.217 9.59175 119.217 9.59175V11.2865L123.157 11.2971Z" fill="black"/>
<path d="M82.8281 6.31447H84.0761V3.2998H88.0188V6.3158H92.3388V8.43713H88.0188V16.1572C88.0188 16.1572 88.2348 18.1132 92.1508 17.5745C92.1508 17.5745 92.1735 19.4905 92.1455 19.4932C88.7495 19.9332 84.0761 19.5799 84.0761 16.1572V8.43713H82.8281V6.31447Z" fill="black"/>
<path d="M124.703 0.16852C124.703 0.16852 128.645 0.203187 128.645 0.163187C128.645 0.135187 128.622 5.92452 128.646 5.92452C129.513 5.73919 130.555 5.62586 131.85 5.62586C138.862 5.62586 139.026 8.94052 139.026 8.94052V19.1059H135.086V9.34986C135.086 9.34986 135.086 7.77252 131.85 7.77252C128.645 7.77252 128.645 9.37786 128.645 9.37786V19.0965H124.703V0.16852Z" fill="black"/>
<path d="M66.2818 13.6718H55.8991C55.8991 13.6718 55.8738 15.9971 55.8911 15.9971C55.9098 15.9985 55.8991 17.5851 59.1085 17.5851C62.3418 17.5851 62.3471 15.9891 62.3471 15.9891L62.3418 14.9478H66.2818V15.9811C66.2818 15.9811 66.5818 19.6758 59.1085 19.6758C51.6338 19.6758 51.9591 15.9811 51.9591 15.9811V9.53842C51.9591 9.53842 51.6605 5.84375 59.1085 5.84375C66.6098 5.84375 66.2818 9.56642 66.2818 9.56642V13.6718ZM55.8938 9.61975L55.8991 11.0611H62.3418C62.3418 11.0611 62.3525 9.61442 62.3538 9.61975C62.3538 9.61975 62.3605 7.99042 59.1085 7.99042C55.8978 7.99042 55.8938 9.61975 55.8938 9.61975Z" fill="black"/>
<path d="M34.9681 13.6718H24.5867C24.5867 13.6718 24.5587 15.9971 24.5761 15.9971C24.5961 15.9985 24.5867 17.5851 27.7907 17.5851C31.0267 17.5851 31.0347 15.9891 31.0347 15.9891L31.0267 14.9478H34.9681V15.9811C34.9681 15.9811 35.2681 19.6758 27.7907 19.6758C20.3187 19.6758 20.6467 15.9811 20.6467 15.9811V9.53842C20.6467 9.53842 20.3454 5.84375 27.7907 5.84375C35.2934 5.84375 34.9681 9.56642 34.9681 9.56642V13.6718ZM24.5801 9.61975L24.5867 11.0611H31.0267C31.0267 11.0611 31.0401 9.61442 31.0401 9.61975C31.0401 9.61975 31.0454 7.99042 27.7907 7.99042C24.5867 7.99042 24.5801 9.61975 24.5801 9.61975Z" fill="black"/>
</svg>
