<svg width="503" height="89" viewBox="0 0 503 89" fill="none" xmlns="http://www.w3.org/2000/svg">
<path d="M103.084 16.7913C96.8953 16.7852 90.916 19.0598 86.2435 23.2021C81.571 27.3383 78.5259 33.0649 77.6629 39.3154L77.6629 3.33485C77.6629 3.25472 77.6382 3.18074 77.5951 3.11293C77.5519 3.04512 77.4903 2.9958 77.4163 2.97115C77.3443 2.94038 77.2643 2.93389 77.1883 2.95265C77.1143 2.97115 77.0465 3.00815 76.991 3.06362L61.975 18.844C58.8175 17.4837 55.4147 16.7851 51.9766 16.7913C37.8051 16.7913 26.3027 28.4787 26.3027 42.8968C26.3027 57.3149 37.7989 69.0084 51.9766 69.0084C58.1655 69.0145 64.1448 66.74 68.8173 62.5976C73.4897 58.4614 76.541 52.741 77.3978 46.4905L77.3978 82.4649C77.3978 82.8162 77.817 82.9888 78.0574 82.7361L93.0796 66.9557C96.2418 68.3118 99.6383 69.0146 103.072 69.0084C117.249 69.0084 128.746 57.3211 128.746 42.8968C128.758 28.4787 117.262 16.7913 103.084 16.7913ZM225.777 5.84987C225.777 7.40325 225.173 8.88882 224.094 9.98605C223.021 11.0833 221.56 11.6997 220.038 11.6997C218.515 11.6997 217.06 11.0833 215.982 9.98605C214.909 8.88882 214.299 7.40325 214.299 5.84987C214.299 4.29648 214.903 2.81091 215.982 1.71368C217.054 0.616454 218.515 3.36075e-05 220.038 3.38737e-05C221.56 3.41399e-05 223.021 0.616455 224.094 1.71369C225.173 2.80475 225.777 4.29649 225.777 5.84987ZM293.281 0.863033L293.281 68.1639C293.281 68.5215 293.565 68.805 293.91 68.805L301.979 68.805C302.145 68.8029 302.304 68.7366 302.422 68.6201C302.539 68.4967 302.605 68.3338 302.607 68.1639L302.607 0.863035C302.608 0.779994 302.592 0.697644 302.561 0.620721C302.53 0.543799 302.484 0.473815 302.425 0.414808C302.367 0.355802 302.297 0.30894 302.221 0.2769C302.144 0.24486 302.062 0.228281 301.979 0.228121L293.91 0.22812C293.743 0.22812 293.583 0.295919 293.466 0.413039C293.349 0.536323 293.287 0.696599 293.281 0.863033ZM195.461 24.472L195.461 0.887678C195.461 0.536318 195.745 0.246594 196.09 0.246595L204.159 0.246596C204.504 0.246596 204.788 0.536319 204.788 0.88768L204.788 68.1824C204.788 68.355 204.72 68.5153 204.603 68.6386C204.485 68.7619 204.325 68.8235 204.159 68.8235L196.09 68.8235C196.007 68.8256 195.925 68.8088 195.849 68.7742C195.774 68.7422 195.705 68.6962 195.646 68.6386C195.529 68.5151 195.463 68.3523 195.461 68.1824L195.461 62.3819C191.59 66.8756 186.104 69.6433 179.372 69.6433C165.484 69.6433 154.192 57.8882 154.192 43.4331C154.192 28.978 165.484 17.2228 179.372 17.2228C186.104 17.2167 191.59 19.9844 195.461 24.472ZM164.43 43.4269C164.43 52.5315 171.149 59.9347 179.89 59.9347C188.637 59.9347 194.555 52.5253 194.555 43.4208C194.555 34.3162 188.637 26.913 179.89 26.913C171.149 26.913 164.43 34.3285 164.43 43.4269ZM322.524 24.4658C326.395 19.9721 331.875 17.2044 338.613 17.2044C352.501 17.2044 363.793 28.9657 363.793 43.4146C363.793 57.8697 352.501 69.631 338.613 69.631C331.881 69.631 326.395 66.8633 322.524 62.3696L322.524 86.5333C322.524 86.7059 322.456 86.8662 322.339 86.9895C322.222 87.1127 322.062 87.1805 321.895 87.1805L313.826 87.1805C313.66 87.1805 313.5 87.1127 313.382 86.9895C313.265 86.8662 313.198 86.7059 313.198 86.5333L313.198 19.2447C313.198 18.8934 313.475 18.6036 313.826 18.6036L321.895 18.6036C322.247 18.6036 322.53 18.8934 322.53 19.2447L322.53 24.4658L322.524 24.4658ZM323.43 43.4146C323.43 52.5192 329.348 59.9286 338.095 59.9286C346.842 59.9286 353.561 52.5192 353.561 43.4146C353.561 34.3101 346.842 26.9007 338.101 26.9007C329.348 26.9068 323.43 34.3162 323.43 43.4146ZM273.377 24.472L273.377 19.2447C273.377 18.8934 273.654 18.6036 274.005 18.6036L282.074 18.6036C282.426 18.6036 282.703 18.8934 282.703 19.2447L282.703 68.1824C282.701 68.3523 282.635 68.5152 282.518 68.6386C282.457 68.7002 282.389 68.7434 282.315 68.7803C282.241 68.8112 282.155 68.8297 282.074 68.8297L274.005 68.8297C273.925 68.8297 273.839 68.8112 273.765 68.7803C273.691 68.7495 273.617 68.7002 273.562 68.6386C273.445 68.5152 273.379 68.3523 273.377 68.1824L273.377 62.3819C269.506 66.8756 264.026 69.6433 257.288 69.6433C243.4 69.6433 232.107 57.882 232.107 43.4331C232.107 28.978 243.4 17.2229 257.288 17.2229C264.019 17.2167 269.499 19.9844 273.377 24.472ZM242.34 43.4269C242.34 52.5315 249.059 59.9409 257.806 59.9409C266.553 59.9409 272.471 52.5315 272.471 43.4269C272.471 34.3224 266.553 26.9192 257.806 26.9192C249.059 26.913 242.346 34.3285 242.34 43.4269ZM410.142 19.2386L410.142 24.472C406.271 19.9783 400.785 17.2105 394.054 17.2105C380.166 17.2105 368.873 28.9657 368.873 43.4208C368.873 57.8759 380.166 69.631 394.054 69.631C400.785 69.631 406.271 66.8633 410.142 62.3696L410.142 68.1701C410.142 68.5215 410.426 68.8112 410.771 68.8112L418.84 68.8112C419.006 68.8112 419.167 68.7434 419.284 68.6263C419.401 68.503 419.469 68.3427 419.469 68.1701L419.469 19.2324C419.469 19.0598 419.401 18.8995 419.284 18.7763C419.167 18.653 419.006 18.5913 418.84 18.5913L410.771 18.5913C410.604 18.5913 410.444 18.6591 410.327 18.7763C410.21 18.9119 410.142 19.0721 410.142 19.2386ZM394.571 59.9347C385.818 59.9347 379.105 52.5253 379.105 43.4269C379.105 34.3224 385.818 26.913 394.571 26.913C403.312 26.913 409.23 34.3224 409.23 43.4208C409.236 52.5315 403.318 59.9347 394.571 59.9347ZM466.964 0.881555L466.964 24.472C463.099 19.9783 457.607 17.2106 450.881 17.2106C436.993 17.2106 425.701 28.9657 425.701 43.4208C425.701 57.8759 436.993 69.631 450.881 69.631C457.607 69.631 463.099 66.8633 466.964 62.3696L466.964 68.1701C466.964 68.5277 467.247 68.8112 467.599 68.8112L475.668 68.8112C475.834 68.8112 476.001 68.7434 476.118 68.6263C476.235 68.503 476.303 68.3427 476.303 68.1701L476.303 0.881557C476.303 0.708959 476.235 0.548695 476.118 0.425411C476.001 0.302127 475.84 0.234322 475.668 0.234322L467.599 0.23432C467.432 0.23432 467.272 0.302125 467.155 0.425409C467.032 0.548694 466.964 0.715121 466.964 0.881555ZM451.393 59.9347C442.646 59.9347 435.927 52.5253 435.927 43.427C435.927 34.3224 442.646 26.913 451.393 26.913C460.14 26.913 466.058 34.3224 466.058 43.4208C466.058 52.5315 460.14 59.9347 451.393 59.9347ZM215.371 68.1639L215.371 19.2385C215.371 18.881 215.655 18.5975 216 18.5975L224.069 18.5975C224.414 18.5975 224.698 18.8872 224.698 19.2385L224.698 68.1577C224.698 68.3303 224.63 68.4906 224.513 68.6139C224.396 68.7372 224.236 68.805 224.069 68.805L216 68.805C215.834 68.805 215.674 68.7372 215.556 68.6201C215.439 68.4968 215.371 68.3304 215.371 68.1639Z" fill="black"/>
</svg>
