<svg width="131" height="31" viewBox="0 0 131 31" fill="none" xmlns="http://www.w3.org/2000/svg">
<g clip-path="url(#clip0_3596_353492)">
<path d="M75.9802 16.4647C75.9802 13.502 74.6524 10.8844 70.1616 10.8844C67.8576 10.8844 66.0273 11.5116 65.035 12.0606L65.7624 14.4374C66.676 13.89 68.1338 13.4392 69.5097 13.4392C71.7832 13.4361 72.1557 14.6644 72.1557 15.4541V15.6443C67.1929 15.6366 64.0557 17.2744 64.0557 20.6097C64.0557 22.6476 65.6484 24.5583 68.4325 24.5583C70.1311 24.5583 71.5665 23.9035 72.4238 22.87H72.5073C72.5073 22.87 73.0726 25.1288 76.1985 24.2654C76.0396 23.3193 75.9802 22.3225 75.9802 21.1111V16.4647ZM72.2778 19.593C72.2778 19.8322 72.2569 20.0806 72.1831 20.2938C71.8972 21.2062 70.9115 21.9698 69.6847 21.9698C68.6492 21.9698 67.8367 21.4101 67.8367 20.237C67.8367 18.4429 69.9111 17.9491 72.2778 17.9614" fill="#262626"/>
<path d="M0 6.85327C0 6.85327 3.24161 19.5197 3.75702 21.5715C4.36391 23.9698 5.45088 24.8562 8.58817 24.2658L10.6144 16.4114C11.1266 14.4654 11.4749 13.07 11.8057 11.0872H11.8619C12.0915 13.0899 12.4223 14.4654 12.8413 16.4175C12.8413 16.4175 13.6681 19.9859 14.0969 21.8552C14.5143 23.7245 15.6895 24.9037 18.7675 24.2658L23.5906 6.85327H19.697L18.0417 14.3857C17.6034 16.5678 17.2052 18.2868 16.8953 20.2865H16.8391C16.5598 18.3083 16.205 16.6598 15.749 14.5221L14.0342 6.85327H9.97217L8.1418 14.3259C7.61997 16.6077 7.1319 18.4371 6.82522 20.3739H6.77226C6.45597 18.5567 6.02729 16.2427 5.57288 14.0468C5.57288 14.0468 4.48591 8.69651 4.10221 6.85327" fill="#262626"/>
<path d="M34.4409 16.4647C34.4409 13.502 33.1098 10.8844 28.6191 10.8844C26.3216 10.8844 24.488 11.5116 23.4958 12.0606L24.2231 14.4374C25.1334 13.89 26.5897 13.4392 27.9705 13.4392C30.2439 13.4361 30.6164 14.6644 30.6164 15.4541V15.6443C25.6537 15.6366 22.5132 17.2744 22.5132 20.6097C22.5132 22.6476 24.1123 24.5583 26.8835 24.5583C28.5982 24.5583 30.0208 23.9035 30.8782 22.87H30.9648C30.9648 22.87 31.5332 25.1288 34.656 24.2654C34.4955 23.3193 34.4409 22.3225 34.4409 21.1111V16.4647ZM30.7353 19.593C30.7353 19.8322 30.7144 20.0806 30.6438 20.2938C30.3547 21.2062 29.3689 21.9698 28.1391 21.9698C27.1099 21.9698 26.2943 21.4101 26.2943 20.237C26.2943 18.4429 28.3686 17.9491 30.7353 17.9614" fill="#262626"/>
<path d="M36.4614 6.85327V24.2597H40.167V20.5686V6.85327H36.4614Z" fill="#262626"/>
<path d="M87.353 6.85327V19.6961C87.353 21.4688 87.7014 22.7047 88.4512 23.4623C89.1095 24.1263 90.1868 24.5587 91.4696 24.5587C92.5711 24.5587 93.6484 24.3563 94.1574 24.1799L94.1124 21.4151C93.7319 21.4994 93.2968 21.5715 92.6995 21.5715C91.4344 21.5715 91.0169 20.8063 91.0169 19.2146V14.2983H94.2441V10.9722H91.0169V6.85327" fill="#262626"/>
<path d="M77.7754 11.1864V24.2653H81.6063V17.5671C81.6063 17.2068 81.6303 16.8955 81.6897 16.6072C81.9755 15.1949 83.0977 14.3009 84.7146 14.3009C85.1658 14.3009 85.4724 14.3484 85.8128 14.399V10.9702C85.527 10.9211 85.3327 10.895 84.9811 10.895C83.5474 10.895 81.9225 11.7645 81.2369 13.6583H81.1422V11.1864" fill="#262626"/>
<path d="M42.3188 11.1864V24.2653H46.0517V16.5888C46.0517 16.2284 46.0935 15.8604 46.2267 15.5276C46.5302 14.7502 47.2832 13.85 48.4922 13.85C49.995 13.85 50.7047 15.0615 50.7047 16.8096V24.2653H54.428V16.4968C54.428 16.1579 54.4778 15.7423 54.5821 15.4418C54.8808 14.56 55.6964 13.85 56.8235 13.85C58.3424 13.85 59.0777 15.0354 59.0777 17.0964V24.2653H62.7977V16.5535C62.7977 12.5021 60.6399 10.895 58.1898 10.895C57.1125 10.895 56.2551 11.148 55.4844 11.6019C54.8325 11.9838 54.261 12.522 53.7488 13.2259H53.6926C53.1034 11.8182 51.7194 10.895 49.9115 10.895C47.5931 10.895 46.5398 12.0129 45.9201 12.9575H45.8639V11.1864" fill="#262626"/>
<path d="M114.292 10.5994C115.025 10.5994 115.641 10.2345 115.721 9.76521L116.447 1.91386C116.447 1.13639 115.489 0.5 114.292 0.5C113.09 0.5 112.138 1.13639 112.138 1.91386L112.87 9.76521C112.947 10.2345 113.56 10.5994 114.292 10.5994Z" fill="#262626"/>
<path d="M109.84 13.0562C110.203 12.4428 110.182 11.762 109.79 11.4584L103.015 6.93309C102.31 6.54053 101.255 7.00823 100.651 7.99885C100.049 8.98794 100.171 10.0982 100.861 10.4831L108.363 13.8046C108.843 13.9763 109.471 13.6573 109.84 13.0501" fill="#262626"/>
<path d="M118.745 13.0497C119.128 13.657 119.756 13.976 120.223 13.8134L127.724 10.4827C128.421 10.0902 128.526 8.99065 127.936 8.00156C127.334 7.01094 126.273 6.54631 125.57 6.9312L118.793 11.4519C118.417 11.7601 118.39 12.444 118.753 13.0559" fill="#262626"/>
<path d="M114.292 20.4067C115.025 20.4067 115.641 20.7717 115.721 21.2409L116.447 29.0923C116.447 29.8698 115.489 30.5 114.292 30.5C113.09 30.5 112.138 29.8698 112.138 29.0923L112.87 21.2409C112.947 20.7717 113.56 20.4067 114.292 20.4067Z" fill="#262626"/>
<path d="M118.745 17.9568C119.128 17.348 119.756 17.0229 120.223 17.1993L127.724 20.5238C128.421 20.9087 128.526 22.0174 127.936 23.008C127.334 23.991 126.273 24.4587 125.57 24.0738L118.793 19.547C118.417 19.2418 118.39 18.561 118.753 17.9568" fill="#262626"/>
<path d="M109.84 17.9501C110.203 18.562 110.182 19.2413 109.79 19.548L103.015 24.0671C102.31 24.4597 101.255 23.9905 100.651 23.0075C100.049 22.0184 100.171 20.9082 100.861 20.5233L108.363 17.1987C108.843 17.0239 109.471 17.346 109.84 17.9501Z" fill="#262626"/>
<path d="M129.919 23.3849H130.012C130.139 23.3849 130.191 23.4232 130.205 23.5198C130.232 23.6272 130.247 23.6992 130.274 23.7299H130.515C130.494 23.7069 130.467 23.6486 130.452 23.5137C130.425 23.3971 130.362 23.3312 130.274 23.3082V23.2867C130.396 23.2607 130.467 23.1825 130.467 23.0859C130.467 22.9984 130.425 22.9356 130.383 22.8957C130.303 22.8589 130.226 22.8298 130.056 22.8298C129.905 22.8298 129.794 22.842 129.706 22.862V23.7299H129.919V23.3849ZM129.926 22.9892L130.035 22.9754C130.163 22.9754 130.232 23.0322 130.232 23.1119C130.232 23.2009 130.139 23.2423 130.021 23.2423H129.926V22.9892ZM130.062 22.4004C129.536 22.4004 129.118 22.793 129.118 23.2745C129.118 23.7682 129.536 24.1608 130.062 24.1608C130.595 24.1608 131 23.7682 131 23.2745C131 22.793 130.595 22.4004 130.062 22.4004ZM130.062 22.5767C130.467 22.5767 130.767 22.8896 130.767 23.2745C130.767 23.6624 130.467 23.9845 130.062 23.9783C129.658 23.9783 129.351 23.6624 129.351 23.2745C129.351 22.8896 129.658 22.5767 130.056 22.5767" fill="#262626"/>
</g>
<defs>
<clipPath id="clip0_3596_353492">
<rect width="131" height="30" fill="white" transform="translate(0 0.5)"/>
</clipPath>
</defs>
</svg>
