<svg width="49" height="48" viewBox="0 0 49 48" fill="none" xmlns="http://www.w3.org/2000/svg">
<path d="M34.78 0H14.22C6.64265 0 0.5 6.14265 0.5 13.72V34.28C0.5 41.8573 6.64265 48 14.22 48H34.78C42.3573 48 48.5 41.8573 48.5 34.28V13.72C48.5 6.14265 42.3573 0 34.78 0Z" fill="#FBBF24"/>
<path fill-rule="evenodd" clip-rule="evenodd" d="M29.5555 18.1601C30.1311 18.5447 30.8078 18.75 31.5 18.75C32.428 18.749 33.3176 18.38 33.9738 17.7238C34.63 17.0676 34.999 16.178 35 15.25C35 14.5578 34.7947 13.8811 34.4101 13.3055C34.0256 12.7299 33.4789 12.2813 32.8394 12.0164C32.1999 11.7515 31.4961 11.6822 30.8172 11.8173C30.1383 11.9523 29.5146 12.2856 29.0251 12.7751C28.5356 13.2646 28.2023 13.8883 28.0673 14.5672C27.9322 15.2461 28.0015 15.9499 28.2664 16.5894C28.5313 17.2289 28.9799 17.7756 29.5555 18.1601ZM30.5278 13.7949C30.8155 13.6026 31.1539 13.5 31.5 13.5C31.964 13.5005 32.4088 13.6851 32.7369 14.0132C33.0649 14.3412 33.2495 14.786 33.25 15.25C33.25 15.5961 33.1474 15.9345 32.9551 16.2222C32.7628 16.51 32.4895 16.7343 32.1697 16.8668C31.8499 16.9992 31.4981 17.0339 31.1586 16.9664C30.8191 16.8989 30.5073 16.7322 30.2626 16.4874C30.0178 16.2427 29.8512 15.9309 29.7836 15.5914C29.7161 15.2519 29.7508 14.9001 29.8832 14.5803C30.0157 14.2605 30.24 13.9872 30.5278 13.7949ZM26.25 24H28V22.25C28.0002 22.018 28.0925 21.7956 28.2565 21.6315C28.4206 21.4675 28.643 21.3752 28.875 21.375H34.125C34.357 21.3752 34.5794 21.4675 34.7435 21.6315C34.9075 21.7956 34.9998 22.018 35 22.25V24H36.75V22.25C36.7492 21.554 36.4724 20.8868 35.9803 20.3947C35.4882 19.9026 34.821 19.6258 34.125 19.625H28.875C28.179 19.6258 27.5118 19.9026 27.0197 20.3947C26.5276 20.8868 26.2508 21.554 26.25 22.25V24ZM29.5555 31.2851C30.1311 31.6697 30.8078 31.875 31.5 31.875C32.428 31.8741 33.3177 31.5051 33.9739 30.8489C34.6301 30.1927 34.9991 29.303 35 28.375C35 27.6828 34.7947 27.0061 34.4101 26.4305C34.0256 25.8549 33.4789 25.4063 32.8394 25.1414C32.1999 24.8765 31.4961 24.8072 30.8172 24.9423C30.1383 25.0773 29.5146 25.4106 29.0251 25.9001C28.5356 26.3896 28.2023 27.0133 28.0673 27.6922C27.9322 28.3711 28.0015 29.0749 28.2664 29.7144C28.5313 30.3539 28.9799 30.9006 29.5555 31.2851ZM30.5278 26.9199C30.8155 26.7276 31.1539 26.625 31.5 26.625C31.9639 26.6256 32.4087 26.8102 32.7367 27.1383C33.0648 27.4663 33.2494 27.9111 33.25 28.375C33.25 28.7211 33.1474 29.0595 32.9551 29.3472C32.7628 29.635 32.4895 29.8593 32.1697 29.9918C31.8499 30.1242 31.4981 30.1589 31.1586 30.0914C30.8191 30.0239 30.5073 29.8572 30.2626 29.6124C30.0178 29.3677 29.8512 29.0559 29.7836 28.7164C29.7161 28.3769 29.7508 28.0251 29.8832 27.7053C30.0157 27.3855 30.24 27.1122 30.5278 26.9199ZM28 37.125H26.25V35.375C26.2508 34.679 26.5276 34.0118 27.0197 33.5197C27.5118 33.0276 28.179 32.7508 28.875 32.75H34.125C34.821 32.7508 35.4882 33.0276 35.9803 33.5197C36.4724 34.0118 36.7492 34.679 36.75 35.375V37.125H35V35.375C34.9999 35.143 34.9076 34.9205 34.7436 34.7564C34.5795 34.5924 34.357 34.5001 34.125 34.5H28.875C28.643 34.5001 28.4205 34.5924 28.2564 34.7564C28.0924 34.9205 28.0001 35.143 28 35.375V37.125ZM12.25 37.125H14V35.375C14.0002 35.143 14.0925 34.9206 14.2565 34.7565C14.4206 34.5925 14.643 34.5002 14.875 34.5H20.125C20.357 34.5002 20.5794 34.5925 20.7435 34.7565C20.9075 34.9206 20.9998 35.143 21 35.375V37.125H22.75V35.375C22.7492 34.679 22.4724 34.0118 21.9803 33.5197C21.4882 33.0276 20.821 32.7508 20.125 32.75H14.875C14.179 32.7508 13.5118 33.0276 13.0197 33.5197C12.5276 34.0118 12.2508 34.679 12.25 35.375V37.125ZM15.5555 31.2851C16.1311 31.6697 16.8078 31.875 17.5 31.875C18.428 31.874 19.3176 31.505 19.9738 30.8488C20.63 30.1926 20.999 29.303 21 28.375C21 27.6828 20.7947 27.0061 20.4101 26.4305C20.0256 25.8549 19.4789 25.4063 18.8394 25.1414C18.1999 24.8765 17.4961 24.8072 16.8172 24.9423C16.1383 25.0773 15.5146 25.4106 15.0251 25.9001C14.5356 26.3896 14.2023 27.0133 14.0673 27.6922C13.9322 28.3711 14.0015 29.0749 14.2664 29.7144C14.5313 30.3539 14.9799 30.9006 15.5555 31.2851ZM16.5278 26.9199C16.8155 26.7276 17.1539 26.625 17.5 26.625C17.964 26.6255 18.4088 26.8101 18.7368 27.1382C19.0649 27.4662 19.2495 27.911 19.25 28.375C19.25 28.7211 19.1474 29.0595 18.9551 29.3472C18.7628 29.635 18.4895 29.8593 18.1697 29.9918C17.8499 30.1242 17.4981 30.1589 17.1586 30.0914C16.8191 30.0239 16.5073 29.8572 16.2626 29.6124C16.0178 29.3677 15.8512 29.0559 15.7836 28.7164C15.7161 28.3769 15.7508 28.0251 15.8832 27.7053C16.0157 27.3855 16.24 27.1122 16.5278 26.9199ZM12.25 24H14V22.25C14.0003 22.018 14.0926 21.7956 14.2566 21.6316C14.4206 21.4676 14.643 21.3753 14.875 21.375H20.125C20.357 21.3753 20.5794 21.4676 20.7434 21.6316C20.9074 21.7956 20.9997 22.018 21 22.25V24H22.75V22.25C22.7492 21.554 22.4724 20.8868 21.9803 20.3947C21.4882 19.9026 20.821 19.6258 20.125 19.625H14.875C14.179 19.6258 13.5118 19.9026 13.0197 20.3947C12.5276 20.8868 12.2508 21.554 12.25 22.25V24ZM15.5555 18.1601C16.1311 18.5447 16.8078 18.75 17.5 18.75C18.4279 18.749 19.3176 18.3799 19.9737 17.7237C20.6299 17.0676 20.999 16.1779 21 15.25C21 14.5578 20.7947 13.8811 20.4101 13.3055C20.0256 12.7299 19.4789 12.2813 18.8394 12.0164C18.1999 11.7515 17.4961 11.6822 16.8172 11.8173C16.1383 11.9523 15.5146 12.2856 15.0251 12.7751C14.5356 13.2646 14.2023 13.8883 14.0673 14.5672C13.9322 15.2461 14.0015 15.9499 14.2664 16.5894C14.5313 17.2289 14.9799 17.7756 15.5555 18.1601ZM16.5278 13.7949C16.8155 13.6026 17.1539 13.5 17.5 13.5C17.964 13.5005 18.4088 13.685 18.7369 14.0131C19.065 14.3412 19.2495 14.786 19.25 15.25C19.25 15.5961 19.1474 15.9345 18.9551 16.2222C18.7628 16.51 18.4895 16.7343 18.1697 16.8668C17.8499 16.9992 17.4981 17.0339 17.1586 16.9664C16.8191 16.8989 16.5073 16.7322 16.2626 16.4874C16.0178 16.2427 15.8512 15.9309 15.7836 15.5914C15.7161 15.2519 15.7508 14.9001 15.8832 14.5803C16.0157 14.2605 16.24 13.9872 16.5278 13.7949Z" fill="black"/>
</svg>
