<svg width="501" height="382" viewBox="0 0 501 382" fill="none" xmlns="http://www.w3.org/2000/svg">
<g clip-path="url(#clip0_3068_343862)">
<mask id="mask0_3068_343862" style="mask-type:luminance" maskUnits="userSpaceOnUse" x="0" y="0" width="501" height="382">
<path d="M483.107 0H17.8929C8.01091 0 0 8.0169 0 17.9062V364.094C0 373.983 8.01091 382 17.8929 382H483.107C492.989 382 501 373.983 501 364.094V17.9062C501 8.0169 492.989 0 483.107 0Z" fill="white"/>
</mask>
<g mask="url(#mask0_3068_343862)">
<path d="M17.8928 232.781L17.8921 196.969" stroke="#0EA5E9" stroke-width="6" stroke-linejoin="bevel"/>
<path d="M196.821 53.7188L171.58 78.98" stroke="#FBBF24" stroke-width="6" stroke-linejoin="bevel"/>
<path d="M161.036 196.969L135.793 222.23" stroke="#FBBF24" stroke-width="6" stroke-linejoin="bevel"/>
<path d="M161.036 125.344L186.277 150.605" stroke="#FBBF24" stroke-width="6" stroke-linejoin="bevel"/>
<path d="M161.036 268.594L186.278 293.855" stroke="#0EA5E9" stroke-width="6" stroke-linejoin="bevel"/>
<path d="M375.749 196.969L400.992 222.23" stroke="#EA580C" stroke-width="6" stroke-linejoin="bevel"/>
<path d="M89.4642 125.344L64.1248 150.615" stroke="#0EA5E9" stroke-width="6" stroke-linejoin="bevel"/>
<path d="M304.178 125.344L278.936 150.605" stroke="#FBBF24" stroke-width="6" stroke-linejoin="bevel"/>
<path d="M101.393 86.5469V65.6562H53.6787V41.7812H101.393" stroke="#171717" stroke-linejoin="bevel"/>
<path d="M107.357 86.5469H95.4287V89.5312H107.357V86.5469Z" fill="#F5F5F5" stroke="#171717" stroke-linejoin="bevel"/>
<path d="M101.393 50.7344C106.334 50.7344 110.339 46.7259 110.339 41.7812C110.339 36.8366 106.334 32.8281 101.393 32.8281C96.452 32.8281 92.4465 36.8366 92.4465 41.7812C92.4465 46.7259 96.452 50.7344 101.393 50.7344Z" fill="#F5F5F5" stroke="#171717" stroke-linejoin="bevel"/>
<path d="M101.393 74.6094C106.334 74.6094 110.339 70.6009 110.339 65.6562C110.339 60.7116 106.334 56.7031 101.393 56.7031C96.452 56.7031 92.4465 60.7116 92.4465 65.6562C92.4465 70.6009 96.452 74.6094 101.393 74.6094Z" fill="#F5F5F5" stroke="#171717" stroke-linejoin="bevel"/>
<path d="M77.5358 50.7344C82.4768 50.7344 86.4822 46.7259 86.4822 41.7812C86.4822 36.8366 82.4768 32.8281 77.5358 32.8281C72.5948 32.8281 68.5894 36.8366 68.5894 41.7812C68.5894 46.7259 72.5948 50.7344 77.5358 50.7344Z" fill="#F5F5F5" stroke="#171717" stroke-linejoin="bevel"/>
<path d="M77.5358 74.6094C82.4768 74.6094 86.4822 70.6009 86.4822 65.6562C86.4822 60.7116 82.4768 56.7031 77.5358 56.7031C72.5948 56.7031 68.5894 60.7116 68.5894 65.6562C68.5894 70.6009 72.5948 74.6094 77.5358 74.6094Z" fill="#F5F5F5" stroke="#171717" stroke-linejoin="bevel"/>
<path d="M53.6786 50.7344C58.6196 50.7344 62.625 46.7259 62.625 41.7812C62.625 36.8366 58.6196 32.8281 53.6786 32.8281C48.7376 32.8281 44.7322 36.8366 44.7322 41.7812C44.7322 46.7259 48.7376 50.7344 53.6786 50.7344Z" fill="#F5F5F5" stroke="#171717" stroke-linejoin="bevel"/>
<path d="M53.6786 74.6094C58.6196 74.6094 62.625 70.6009 62.625 65.6562C62.625 60.7116 58.6196 56.7031 53.6786 56.7031C48.7376 56.7031 44.7322 60.7116 44.7322 65.6562C44.7322 70.6009 48.7376 74.6094 53.6786 74.6094Z" fill="#F5F5F5" stroke="#171717" stroke-linejoin="bevel"/>
<path d="M57.4063 47.75L57.0583 47.0536C56.8147 46.5659 56.3165 46.2578 55.7717 46.2578C54.9178 46.2578 54.1081 45.8783 53.5615 45.2219L51.7939 43.0991C51.1272 42.2985 50.9974 41.1789 51.4631 40.2468L51.5207 40.1316C51.9294 39.3135 52.7648 38.7969 53.6786 38.7969C54.5924 38.7969 55.4279 39.3135 55.8365 40.1316L55.9152 40.2891C56.3722 41.2035 56.2735 42.2979 55.6605 43.1159L55.5424 43.2734L54.9833 44.0195M49.9509 47.75L50.2843 47.0827C50.5369 46.5771 51.0532 46.2578 51.618 46.2578H52.5603" stroke="#171717" stroke-linejoin="bevel"/>
<path d="M57.4063 71.625L57.0583 70.9286C56.8147 70.4409 56.3165 70.1328 55.7717 70.1328C54.9178 70.1328 54.1081 69.7533 53.5615 69.0969L51.7939 66.9742C51.1272 66.1735 50.9974 65.0539 51.4631 64.1218L51.5207 64.0066C51.9294 63.1885 52.7648 62.6719 53.6786 62.6719C54.5924 62.6719 55.4279 63.1885 55.8365 64.0066L55.9152 64.1641C56.3722 65.0785 56.2735 66.1729 55.6605 66.9909L55.5424 67.1484L54.9833 67.8945M49.9509 71.625L50.2843 70.9577C50.5369 70.4521 51.0532 70.1328 51.618 70.1328H52.5603" stroke="#171717" stroke-linejoin="bevel"/>
<path d="M81.2635 47.75L80.9153 47.0536C80.6715 46.5659 80.1735 46.2578 79.6285 46.2578C78.7749 46.2578 77.9652 45.8783 77.4187 45.2219L75.6511 43.0991C74.9846 42.2985 74.8548 41.1789 75.3201 40.2468L75.3782 40.1316C75.7868 39.3135 76.6218 38.7969 77.5358 38.7969C78.4498 38.7969 79.2848 39.3135 79.6934 40.1316L79.7724 40.2891C80.2294 41.2035 80.131 42.2979 79.5174 43.1159L79.3996 43.2734L78.8405 44.0195M73.8081 47.75L74.1415 47.0827C74.3941 46.5771 74.9108 46.2578 75.4751 46.2578H76.4175" stroke="#171717" stroke-linejoin="bevel"/>
<path d="M81.2635 71.625L80.9153 70.9286C80.6715 70.4409 80.1735 70.1328 79.6285 70.1328C78.7749 70.1328 77.9652 69.7533 77.4187 69.0969L75.6511 66.9742C74.9846 66.1735 74.8548 65.0539 75.3201 64.1218L75.3782 64.0066C75.7868 63.1885 76.6218 62.6719 77.5358 62.6719C78.4498 62.6719 79.2848 63.1885 79.6934 64.0066L79.7724 64.1641C80.2294 65.0785 80.131 66.1729 79.5174 66.9909L79.3996 67.1484L78.8405 67.8945M73.8081 71.625L74.1415 70.9577C74.3941 70.4521 74.9108 70.1328 75.4751 70.1328H76.4175" stroke="#171717" stroke-linejoin="bevel"/>
<path d="M105.121 47.75L104.772 47.0536C104.529 46.5659 104.031 46.2578 103.486 46.2578C102.632 46.2578 101.822 45.8783 101.276 45.2219L99.5082 43.0991C98.8417 42.2985 98.712 41.1789 99.1772 40.2468L99.2354 40.1316C99.6439 39.3135 100.479 38.7969 101.393 38.7969C102.307 38.7969 103.142 39.3135 103.551 40.1316L103.63 40.2891C104.087 41.2035 103.988 42.2979 103.375 43.1159L103.257 43.2734L102.698 44.0195M97.6653 47.75L97.9985 47.0827C98.2513 46.5771 98.7679 46.2578 99.3323 46.2578H100.275" stroke="#171717" stroke-linejoin="bevel"/>
<path d="M105.121 71.625L104.772 70.9286C104.529 70.4409 104.031 70.1328 103.486 70.1328C102.632 70.1328 101.822 69.7533 101.276 69.0969L99.5082 66.9742C98.8417 66.1735 98.712 65.0539 99.1772 64.1218L99.2354 64.0066C99.6439 63.1885 100.479 62.6719 101.393 62.6719C102.307 62.6719 103.142 63.1885 103.551 64.0066L103.63 64.1641C104.087 65.0785 103.988 66.1729 103.375 66.9909L103.257 67.1484L102.698 67.8945M97.6653 71.625L97.9985 70.9577C98.2513 70.4521 98.7679 70.1328 99.3323 70.1328H100.275" stroke="#171717" stroke-linejoin="bevel"/>
<path d="M268.393 271.578V286.5H316.107" stroke="#171717" stroke-linejoin="bevel"/>
<path d="M316.107 295.453C321.048 295.453 325.054 291.445 325.054 286.5C325.054 281.555 321.048 277.547 316.107 277.547C311.166 277.547 307.161 281.555 307.161 286.5C307.161 291.445 311.166 295.453 316.107 295.453Z" fill="#F5F5F5" stroke="#171717" stroke-linejoin="bevel"/>
<path d="M292.25 295.453C297.191 295.453 301.197 291.445 301.197 286.5C301.197 281.555 297.191 277.547 292.25 277.547C287.309 277.547 283.304 281.555 283.304 286.5C283.304 291.445 287.309 295.453 292.25 295.453Z" fill="#F5F5F5" stroke="#171717" stroke-linejoin="bevel"/>
<path d="M268.393 295.453C273.334 295.453 277.339 291.445 277.339 286.5C277.339 281.555 273.334 277.547 268.393 277.547C263.452 277.547 259.447 281.555 259.447 286.5C259.447 291.445 263.452 295.453 268.393 295.453Z" fill="#F5F5F5" stroke="#171717" stroke-linejoin="bevel"/>
<path d="M274.357 268.594H262.429V271.578H274.357V268.594Z" fill="#F5F5F5" stroke="#171717" stroke-linejoin="bevel"/>
<path d="M319.835 292.469L319.487 291.773C319.243 291.285 318.745 290.977 318.2 290.977C317.346 290.977 316.536 290.597 315.99 289.94L314.222 287.818C313.556 287.017 313.426 285.898 313.891 284.965L313.949 284.85C314.358 284.033 315.193 283.516 316.107 283.516C317.021 283.516 317.856 284.033 318.265 284.85L318.344 285.008C318.801 285.923 318.702 287.017 318.089 287.835L317.971 287.992L317.412 288.738M312.379 292.469L312.713 291.802C312.965 291.296 313.482 290.977 314.046 290.977H314.989" stroke="#171717" stroke-linejoin="bevel"/>
<path d="M295.978 292.469L295.63 291.773C295.386 291.285 294.888 290.977 294.343 290.977C293.489 290.977 292.68 290.597 292.133 289.94L290.365 287.818C289.699 287.017 289.569 285.898 290.034 284.965L290.093 284.85C290.501 284.033 291.336 283.516 292.25 283.516C293.164 283.516 293.999 284.033 294.408 284.85L294.487 285.008C294.944 285.923 294.845 287.017 294.232 287.835L294.114 287.992L293.555 288.738M288.522 292.469L288.856 291.802C289.108 291.296 289.625 290.977 290.189 290.977H291.132" stroke="#171717" stroke-linejoin="bevel"/>
<path d="M272.121 292.469L271.772 291.773C271.529 291.285 271.031 290.977 270.486 290.977C269.632 290.977 268.822 290.597 268.276 289.94L266.508 287.818C265.842 287.017 265.712 285.898 266.177 284.965L266.235 284.85C266.644 284.033 267.479 283.516 268.393 283.516C269.307 283.516 270.142 284.033 270.551 284.85L270.63 285.008C271.087 285.923 270.988 287.017 270.375 287.835L270.257 287.992L269.698 288.738M264.665 292.469L264.999 291.802C265.251 291.296 265.768 290.977 266.332 290.977H267.275" stroke="#171717" stroke-linejoin="bevel"/>
<path d="M357.857 158.172H345.929V161.156H357.857V158.172Z" fill="#F5F5F5" stroke="#171717" stroke-linejoin="bevel"/>
<path d="M351.893 158.172V143.25H423.464" stroke="#171717" stroke-linejoin="bevel"/>
<path d="M423.464 152.203C428.405 152.203 432.411 148.195 432.411 143.25C432.411 138.305 428.405 134.297 423.464 134.297C418.523 134.297 414.518 138.305 414.518 143.25C414.518 148.195 418.523 152.203 423.464 152.203Z" fill="#F5F5F5" stroke="#171717" stroke-linejoin="bevel"/>
<path d="M399.607 152.203C404.548 152.203 408.554 148.195 408.554 143.25C408.554 138.305 404.548 134.297 399.607 134.297C394.666 134.297 390.661 138.305 390.661 143.25C390.661 148.195 394.666 152.203 399.607 152.203Z" fill="#F5F5F5" stroke="#171717" stroke-linejoin="bevel"/>
<path d="M375.75 152.203C380.691 152.203 384.697 148.195 384.697 143.25C384.697 138.305 380.691 134.297 375.75 134.297C370.809 134.297 366.804 138.305 366.804 143.25C366.804 148.195 370.809 152.203 375.75 152.203Z" fill="#F5F5F5" stroke="#171717" stroke-linejoin="bevel"/>
<path d="M427.192 149.219L426.844 148.523C426.6 148.035 426.102 147.727 425.557 147.727C424.703 147.727 423.894 147.347 423.347 146.69L421.58 144.568C420.913 143.767 420.783 142.648 421.249 141.715L421.307 141.6C421.715 140.783 422.55 140.266 423.464 140.266C424.378 140.266 425.213 140.783 425.622 141.6L425.701 141.758C426.158 142.673 426.059 143.767 425.446 144.585L425.328 144.742L424.769 145.488M419.737 149.219L420.07 148.552C420.323 148.046 420.839 147.727 421.404 147.727H422.346" stroke="#171717" stroke-linejoin="bevel"/>
<path d="M403.335 149.219L402.987 148.523C402.743 148.035 402.245 147.727 401.7 147.727C400.846 147.727 400.037 147.347 399.49 146.69L397.722 144.568C397.056 143.767 396.926 142.648 397.391 141.715L397.45 141.6C397.858 140.783 398.693 140.266 399.607 140.266C400.521 140.266 401.356 140.783 401.765 141.6L401.844 141.758C402.301 142.673 402.202 143.767 401.589 144.585L401.471 144.742L400.912 145.488M395.879 149.219L396.213 148.552C396.465 148.046 396.982 147.727 397.546 147.727H398.489" stroke="#171717" stroke-linejoin="bevel"/>
<path d="M379.478 149.219L379.13 148.523C378.886 148.035 378.388 147.727 377.843 147.727C376.989 147.727 376.18 147.347 375.633 146.69L373.865 144.568C373.199 143.767 373.069 142.648 373.534 141.715L373.593 141.6C374.001 140.783 374.836 140.266 375.75 140.266C376.664 140.266 377.499 140.783 377.908 141.6L377.987 141.758C378.444 142.673 378.345 143.767 377.732 144.585L377.614 144.742L377.055 145.488M372.022 149.219L372.356 148.552C372.608 148.046 373.125 147.727 373.689 147.727H374.632" stroke="#171717" stroke-linejoin="bevel"/>
<path d="M378.732 113.406V101.469H375.75V113.406H378.732Z" fill="#F5F5F5" stroke="#171717" stroke-linejoin="bevel"/>
<path d="M378.732 107.438H399.607H423.464V83.5625" stroke="#171717" stroke-linejoin="bevel"/>
<path d="M423.464 116.391C428.405 116.391 432.411 112.382 432.411 107.437C432.411 102.493 428.405 98.4844 423.464 98.4844C418.523 98.4844 414.518 102.493 414.518 107.437C414.518 112.382 418.523 116.391 423.464 116.391Z" fill="#F5F5F5" stroke="#171717" stroke-linejoin="bevel"/>
<path d="M423.464 92.5156C428.405 92.5156 432.411 88.5072 432.411 83.5625C432.411 78.6178 428.405 74.6094 423.464 74.6094C418.523 74.6094 414.518 78.6178 414.518 83.5625C414.518 88.5072 418.523 92.5156 423.464 92.5156Z" fill="#F5F5F5" stroke="#171717" stroke-linejoin="bevel"/>
<path d="M399.607 116.391C404.548 116.391 408.554 112.382 408.554 107.437C408.554 102.493 404.548 98.4844 399.607 98.4844C394.666 98.4844 390.661 102.493 390.661 107.437C390.661 112.382 394.666 116.391 399.607 116.391Z" fill="#F5F5F5" stroke="#171717" stroke-linejoin="bevel"/>
<path d="M427.192 89.5312L426.844 88.8351C426.6 88.3472 426.102 88.0391 425.557 88.0391C424.703 88.0391 423.894 87.6593 423.347 87.0027L421.58 84.8801C420.913 84.0795 420.783 82.9604 421.249 82.0278L421.307 81.9129C421.715 81.0952 422.55 80.5781 423.464 80.5781C424.378 80.5781 425.213 81.0952 425.622 81.9129L425.701 82.0703C426.158 82.985 426.059 84.0795 425.446 84.8973L425.328 85.0547L424.769 85.8008M419.737 89.5312L420.07 88.8642C420.323 88.3584 420.839 88.0391 421.404 88.0391H422.346" stroke="#171717" stroke-linejoin="bevel"/>
<path d="M427.192 113.406L426.844 112.71C426.6 112.222 426.102 111.914 425.557 111.914C424.703 111.914 423.894 111.534 423.347 110.878L421.58 108.755C420.913 107.955 420.783 106.835 421.249 105.903L421.307 105.788C421.715 104.97 422.55 104.453 423.464 104.453C424.378 104.453 425.213 104.97 425.622 105.788L425.701 105.945C426.158 106.86 426.059 107.955 425.446 108.772L425.328 108.93L424.769 109.676M419.737 113.406L420.07 112.739C420.323 112.233 420.839 111.914 421.404 111.914H422.346" stroke="#171717" stroke-linejoin="bevel"/>
<path d="M403.335 113.406L402.987 112.71C402.743 112.222 402.245 111.914 401.7 111.914C400.846 111.914 400.037 111.534 399.49 110.878L397.722 108.755C397.056 107.955 396.926 106.835 397.391 105.903L397.45 105.788C397.858 104.97 398.693 104.453 399.607 104.453C400.521 104.453 401.356 104.97 401.765 105.788L401.844 105.945C402.301 106.86 402.202 107.955 401.589 108.772L401.471 108.93L400.912 109.676M395.879 113.406L396.213 112.739C396.465 112.233 396.982 111.914 397.546 111.914H398.489" stroke="#171717" stroke-linejoin="bevel"/>
<path d="M161.036 53.7188L125.25 17.9062H17.8928V196.881M483.106 17.9062H375.749L339.964 53.7188H196.821L171.579 78.98M483.106 340.219V53.7188M125.25 196.969H89.4643V161.156H196.821L192.347 156.68M375.749 232.781H125.25L129.723 228.305M89.4643 89.5312H125.25L120.777 85.0547M232.606 89.5312H161.036L165.509 85.0547M232.606 89.5312V125.344M232.606 89.5312H339.964L335.49 85.0547M232.606 125.344H196.821M232.606 125.344H268.392M447.321 268.594V53.7188H411.535L375.749 89.5312V125.344H304.178L278.936 150.605M375.749 161.156H268.392L272.865 156.68M64.1248 150.615L89.4643 125.344H161.036L186.277 150.605M196.821 268.594H339.964L411.535 340.219H447.321M192.348 299.93L196.821 304.406H125.25L129.722 299.93M186.278 293.855L161.036 268.594H89.4643L53.6786 232.781L49.2053 228.305M135.793 222.23L161.036 196.969H375.749L400.992 222.23M237.08 299.93L232.606 304.406H339.964V340.219H17.8928V304.406V238.75M17.8928 232.781L17.8921 196.969" stroke="#171717" stroke-linejoin="bevel"/>
<path d="M465.214 340.219H456.267H451.794M465.214 340.219H474.16H478.633M465.214 340.219V358.125" stroke="#EA580C" stroke-width="3" stroke-linejoin="bevel"/>
<path d="M483.106 35.8125V26.8594V22.3828V35.8125ZM483.106 35.8125V44.7656V49.2422V35.8125ZM483.106 35.8125H518.893" stroke="#EA580C" stroke-width="3" stroke-linejoin="bevel"/>
<path d="M196.821 55.584C197.851 55.584 198.685 54.7489 198.685 53.7188C198.685 52.6886 197.851 51.8535 196.821 51.8535C195.792 51.8535 194.958 52.6886 194.958 53.7188C194.958 54.7489 195.792 55.584 196.821 55.584Z" fill="#171717" stroke="#171717"/>
<path d="M89.4644 127.209C90.4938 127.209 91.3283 126.374 91.3283 125.344C91.3283 124.314 90.4938 123.479 89.4644 123.479C88.4351 123.479 87.6006 124.314 87.6006 125.344C87.6006 126.374 88.4351 127.209 89.4644 127.209Z" fill="#171717" stroke="#171717"/>
<path d="M161.036 127.209C162.065 127.209 162.9 126.374 162.9 125.344C162.9 124.314 162.065 123.479 161.036 123.479C160.006 123.479 159.172 124.314 159.172 125.344C159.172 126.374 160.006 127.209 161.036 127.209Z" fill="#171717" stroke="#171717"/>
<path d="M17.8929 198.834C18.9223 198.834 19.7567 197.999 19.7567 196.969C19.7567 195.939 18.9223 195.104 17.8929 195.104C16.8635 195.104 16.0291 195.939 16.0291 196.969C16.0291 197.999 16.8635 198.834 17.8929 198.834Z" fill="#171717" stroke="#171717"/>
<path d="M161.036 270.459C162.065 270.459 162.9 269.624 162.9 268.594C162.9 267.564 162.065 266.729 161.036 266.729C160.006 266.729 159.172 267.564 159.172 268.594C159.172 269.624 160.006 270.459 161.036 270.459Z" fill="#171717" stroke="#171717"/>
<path d="M375.75 198.834C376.779 198.834 377.614 197.999 377.614 196.969C377.614 195.939 376.779 195.104 375.75 195.104C374.721 195.104 373.886 195.939 373.886 196.969C373.886 197.999 374.721 198.834 375.75 198.834Z" fill="#171717" stroke="#171717"/>
<path d="M161.036 198.834C162.065 198.834 162.9 197.999 162.9 196.969C162.9 195.939 162.065 195.104 161.036 195.104C160.006 195.104 159.172 195.939 159.172 196.969C159.172 197.999 160.006 198.834 161.036 198.834Z" fill="#171717" stroke="#171717"/>
<path d="M167.001 57.2152L158.566 65.6562L167.001 74.0973L175.435 65.6562L167.001 57.2152Z" fill="#FBBF24" stroke="#FBBF24" stroke-linejoin="bevel"/>
<path d="M155.072 21.4027L146.637 29.8438L155.072 38.2848L163.507 29.8438L155.072 21.4027Z" fill="#FBBF24" stroke="#FBBF24" stroke-linejoin="bevel"/>
<path d="M147.36 82.2217L135.838 85.3113L138.925 96.8421L150.448 93.7524L147.36 82.2217Z" fill="#FBBF24" stroke="#FBBF24" stroke-linejoin="bevel"/>
<path d="M187.077 39.5954L176.746 33.6267L170.782 43.9648L181.112 49.9336L187.077 39.5954Z" fill="#FBBF24" stroke="#FBBF24" stroke-linejoin="bevel"/>
<path d="M208.75 35.8125H196.822V47.75H208.75V35.8125Z" fill="#FBBF24" stroke="#FBBF24" stroke-linejoin="bevel"/>
<path d="M69.8246 112.065L58.3025 115.155L61.3898 126.686L72.9119 123.596L69.8246 112.065Z" fill="#0EA5E9" stroke="#0EA5E9" stroke-linejoin="bevel"/>
<path d="M196.821 17.9062H184.893V29.8438H196.821V17.9062Z" fill="#FBBF24" stroke="#FBBF24" stroke-linejoin="bevel"/>
<path d="M232.607 35.8125H220.679V47.75H232.607V35.8125Z" fill="#FBBF24" stroke="#FBBF24" stroke-linejoin="bevel"/>
<path d="M220.679 17.9062H208.75V29.8438H220.679V17.9062Z" fill="#FBBF24" stroke="#FBBF24" stroke-linejoin="bevel"/>
<path d="M256.464 35.8125H244.536V47.75H256.464V35.8125Z" fill="#FBBF24" stroke="#FBBF24" stroke-linejoin="bevel"/>
<path d="M246.719 21.6892L236.388 15.7204L230.424 26.0586L240.755 32.0273L246.719 21.6892Z" fill="#FBBF24" stroke="#FBBF24" stroke-linejoin="bevel"/>
<path d="M79.7191 302.22L69.3887 296.251L63.4244 306.59L73.7548 312.558L79.7191 302.22Z" fill="#0EA5E9" stroke="#0EA5E9" stroke-linejoin="bevel"/>
<path d="M49.8978 296.251L39.5674 302.22L45.5317 312.558L55.8621 306.59L49.8978 296.251Z" fill="#0EA5E9" stroke="#0EA5E9" stroke-linejoin="bevel"/>
<path d="M408.043 202.937L399.608 194.496L391.173 202.937L399.608 211.378L408.043 202.937Z" fill="#EA580C" stroke="#EA580C" stroke-linejoin="bevel"/>
<path d="M280.321 35.8125H268.393V47.75H280.321V35.8125Z" fill="#FBBF24" stroke="#FBBF24" stroke-linejoin="bevel"/>
<path d="M304.179 35.8125H292.25V47.75H304.179V35.8125Z" fill="#FBBF24" stroke="#FBBF24" stroke-linejoin="bevel"/>
<path d="M328.036 35.8125H316.107V47.75H328.036V35.8125Z" fill="#FBBF24" stroke="#FBBF24" stroke-linejoin="bevel"/>
<path d="M366.292 268.595L357.857 260.154L349.422 268.595L357.857 277.036L366.292 268.595Z" fill="#EA580C" stroke="#EA580C" stroke-linejoin="bevel"/>
<path d="M435.393 29.8438H423.464V41.7812H435.393V29.8438Z" fill="#EA580C" stroke="#EA580C" stroke-linejoin="bevel"/>
<path d="M250.501 152.715L242.066 161.156L250.501 169.597L258.935 161.156L250.501 152.715Z" fill="#FBBF24" stroke="#FBBF24" stroke-linejoin="bevel"/>
<path d="M196.822 134.809L188.387 143.25L196.822 151.691L205.257 143.25L196.822 134.809Z" fill="#FBBF24" stroke="#FBBF24" stroke-linejoin="bevel"/>
<path d="M360.04 81.3779L349.709 87.3467L355.674 97.6849L366.004 91.7161L360.04 81.3779Z" fill="#EA580C" stroke="#EA580C" stroke-linejoin="bevel"/>
<path d="M471.179 143.25H459.25V155.188H471.179V143.25Z" fill="#EA580C" stroke="#EA580C" stroke-linejoin="bevel"/>
<path d="M328.036 173.094H316.107V185.031H328.036V173.094Z" fill="#FBBF24" stroke="#FBBF24" stroke-linejoin="bevel"/>
<path d="M328.036 316.344H316.107V328.281H328.036V316.344Z" fill="#0EA5E9" stroke="#0EA5E9" stroke-linejoin="bevel"/>
<path d="M304.179 316.344H292.25V328.281H304.179V316.344Z" fill="#0EA5E9" stroke="#0EA5E9" stroke-linejoin="bevel"/>
<path d="M280.321 316.344H268.393V328.281H280.321V316.344Z" fill="#0EA5E9" stroke="#0EA5E9" stroke-linejoin="bevel"/>
<path d="M217.185 298.439L208.75 289.998L200.315 298.439L208.75 306.88L217.185 298.439Z" fill="#0EA5E9" stroke="#0EA5E9" stroke-linejoin="bevel"/>
<path d="M161.036 316.344H149.107V328.281H161.036V316.344Z" fill="#0EA5E9" stroke="#0EA5E9" stroke-linejoin="bevel"/>
<path d="M137.179 316.344H125.25V328.281H137.179V316.344Z" fill="#0EA5E9" stroke="#0EA5E9" stroke-linejoin="bevel"/>
<path d="M113.321 316.344H101.393V328.281H113.321V316.344Z" fill="#0EA5E9" stroke="#0EA5E9" stroke-linejoin="bevel"/>
<path d="M89.4642 316.344H77.5356V328.281H89.4642V316.344Z" fill="#0EA5E9" stroke="#0EA5E9" stroke-linejoin="bevel"/>
<path d="M65.6073 316.344H53.6787V328.281H65.6073V316.344Z" fill="#0EA5E9" stroke="#0EA5E9" stroke-linejoin="bevel"/>
<path d="M41.7501 316.344H29.8215V328.281H41.7501V316.344Z" fill="#0EA5E9" stroke="#0EA5E9" stroke-linejoin="bevel"/>
<path d="M17.8928 352.156V364.094H125.25V352.156H17.8928Z" fill="#0EA5E9" stroke="#0EA5E9" stroke-linejoin="bevel"/>
<path d="M23.8572 352.156V364.094" stroke="#0EA5E9" stroke-linejoin="bevel"/>
<path d="M29.8215 352.156V364.094" stroke="#0EA5E9" stroke-linejoin="bevel"/>
<path d="M35.7856 352.156V364.094" stroke="#0EA5E9" stroke-linejoin="bevel"/>
<path d="M41.75 352.156V364.094" stroke="#0EA5E9" stroke-linejoin="bevel"/>
<path d="M47.7144 352.156V364.094" stroke="#0EA5E9" stroke-linejoin="bevel"/>
<path d="M53.6787 352.156V364.094" stroke="#0EA5E9" stroke-linejoin="bevel"/>
<path d="M59.6428 352.156V364.094" stroke="#0EA5E9" stroke-linejoin="bevel"/>
<path d="M65.6072 352.156V364.094" stroke="#0EA5E9" stroke-linejoin="bevel"/>
<path d="M71.5715 352.156V364.094" stroke="#0EA5E9" stroke-linejoin="bevel"/>
<path d="M77.5356 352.156V364.094" stroke="#0EA5E9" stroke-linejoin="bevel"/>
<path d="M83.5 352.156V364.094" stroke="#0EA5E9" stroke-linejoin="bevel"/>
<path d="M89.4644 352.156V364.094" stroke="#0EA5E9" stroke-linejoin="bevel"/>
<path d="M95.4287 352.156V364.094" stroke="#0EA5E9" stroke-linejoin="bevel"/>
<path d="M101.393 352.156V364.094" stroke="#0EA5E9" stroke-linejoin="bevel"/>
<path d="M107.357 352.156V364.094" stroke="#0EA5E9" stroke-linejoin="bevel"/>
<path d="M113.322 352.156V364.094" stroke="#0EA5E9" stroke-linejoin="bevel"/>
<path d="M119.286 352.156V364.094" stroke="#0EA5E9" stroke-linejoin="bevel"/>
<path d="M339.964 351.783V364.467" stroke="#171717" stroke-linejoin="bevel"/>
<path d="M17.8928 351.783V364.467" stroke="#171717" stroke-linejoin="bevel"/>
<path d="M131.215 200.465L122.78 208.906L131.215 217.347L139.65 208.906L131.215 200.465Z" fill="#FBBF24" stroke="#FBBF24" stroke-linejoin="bevel"/>
<path d="M354.363 29.8447L345.929 21.4036L337.494 29.8447L345.929 38.2857L354.363 29.8447Z" fill="#FBBF24" stroke="#FBBF24" stroke-linejoin="bevel"/>
<path d="M268.393 17.9062H256.464V29.8438H268.393V17.9062Z" fill="#FBBF24" stroke="#FBBF24" stroke-linejoin="bevel"/>
<path d="M288.467 15.7233L278.137 21.6921L284.101 32.0303L294.432 26.0615L288.467 15.7233Z" fill="#FBBF24" stroke="#FBBF24" stroke-linejoin="bevel"/>
<path d="M316.107 17.9062H304.179V29.8438H316.107V17.9062Z" fill="#FBBF24" stroke="#FBBF24" stroke-linejoin="bevel"/>
<path d="M204.41 326.043V318.752H206.581C208.429 318.752 209.326 320.026 209.326 322.398C209.326 324.769 208.429 326.043 206.581 326.043H204.41ZM205.569 325.082H206.508C207.573 325.082 208.095 324.33 208.095 323.003V321.792C208.095 320.465 207.573 319.713 206.508 319.713H205.569V325.082ZM213.779 326.168C211.931 326.168 211.107 324.779 211.107 322.398C211.107 320.016 211.931 318.627 213.779 318.627C215.626 318.627 216.451 320.016 216.451 322.398C216.451 324.779 215.626 326.168 213.779 326.168ZM213.779 325.197C214.822 325.197 215.209 324.351 215.209 323.003V321.781C215.209 320.444 214.822 319.598 213.779 319.598C212.735 319.598 212.349 320.444 212.349 321.781V323.014C212.349 324.351 212.735 325.197 213.779 325.197ZM221.749 326.043L219.609 320.434H219.515V326.043H218.493V318.752H219.996L222.135 324.361H222.229V318.752H223.252V326.043H221.749ZM230.294 326.043H225.732V318.752H230.294V319.734H226.901V321.854H230.168V322.836H226.901V325.061H230.294V326.043Z" fill="#171717"/>
<path d="M188.58 252.218V255.164H187.422V247.873H190.146C191.524 247.873 192.285 248.709 192.285 250.067C192.285 251.174 191.722 251.947 190.709 252.114L192.39 255.164H191.096L189.551 252.218H188.58ZM188.58 251.278H189.979C190.709 251.278 191.064 250.955 191.064 250.286V249.837C191.064 249.168 190.709 248.845 189.979 248.845H188.58V251.278ZM199.097 255.164H194.536V247.873H199.097V248.855H195.705V250.975H198.971V251.957H195.705V254.182H199.097V255.164ZM204.677 255.164H203.049L200.993 247.873H202.256L203.216 251.55L203.852 254.026H203.915L204.552 251.55L205.522 247.873H206.733L204.677 255.164ZM213.252 255.164H208.66V254.276H210.371V248.761H208.66V247.873H213.252V248.761H211.54V254.276H213.252V255.164ZM220.377 255.164H215.816V247.873H220.377V248.855H216.985V250.975H220.252V251.957H216.985V254.182H220.377V255.164ZM224.36 255.164H222.794L222.272 247.873H223.295L223.556 252.114L223.671 253.984H223.755L224.579 249.638H225.738L226.562 253.984H226.646L226.761 252.114L227.032 247.873H228.013L227.491 255.164H225.926L225.185 250.944H225.101L224.36 255.164ZM242.2 248.855H239.914V255.164H238.745V248.855H236.459V247.873H242.2V248.855ZM249.356 255.164H248.114L247.561 253.221H245.244L244.691 255.164H243.501L245.63 247.873H247.227L249.356 255.164ZM247.342 252.25L246.444 249.054H246.361L245.463 252.25H247.342ZM253.454 255.289C252.191 255.289 251.345 254.798 250.792 254.067L251.544 253.347C252.097 254.005 252.713 254.318 253.495 254.318C254.414 254.318 254.925 253.879 254.925 253.106C254.925 252.48 254.602 252.156 253.725 252.01L252.932 251.884C251.554 251.654 251.064 250.829 251.064 249.858C251.064 248.49 252.024 247.748 253.569 247.748C254.717 247.748 255.531 248.145 256.032 248.803L255.301 249.534C254.905 249.043 254.372 248.719 253.569 248.719C252.713 248.719 252.243 249.095 252.243 249.806C252.243 250.401 252.556 250.735 253.454 250.881L254.226 251.017C255.541 251.258 256.105 252.01 256.105 253.044C256.105 254.391 255.165 255.289 253.454 255.289ZM262.291 255.164L260.339 251.811L259.462 252.908V255.164H258.293V247.873H259.462V251.362H259.514L260.401 250.15L262.186 247.873H263.533L261.132 250.944L263.627 255.164H262.291ZM277.354 254.172V255.164H272.323V254.046L274.703 251.968C275.444 251.31 275.882 250.725 275.882 250.067V249.952C275.882 249.189 275.444 248.761 274.661 248.761C273.858 248.761 273.45 249.242 273.252 249.91L272.229 249.524C272.522 248.604 273.263 247.748 274.745 247.748C276.258 247.748 277.114 248.646 277.114 249.889C277.114 251.049 276.373 251.842 275.35 252.689L273.586 254.172H277.354Z" fill="#171717"/>
<path d="M187.835 180.593V183.539H186.676V176.248H189.4C190.778 176.248 191.54 177.084 191.54 178.442C191.54 179.549 190.977 180.322 189.964 180.489L191.645 183.539H190.35L188.806 180.593H187.835ZM187.835 179.653H189.233C189.964 179.653 190.319 179.33 190.319 178.661V178.212C190.319 177.543 189.964 177.22 189.233 177.22H187.835V179.653ZM198.351 183.539H193.79V176.248H198.351V177.23H194.959V179.35H198.226V180.332H194.959V182.557H198.351V183.539ZM203.932 183.539H202.303L200.247 176.248H201.51L202.47 179.925L203.107 182.401H203.17L203.806 179.925L204.777 176.248H205.988L203.932 183.539ZM212.507 183.539H207.914V182.651H209.626V177.136H207.914V176.248H212.507V177.136H210.795V182.651H212.507V183.539ZM219.632 183.539H215.071V176.248H219.632V177.23H216.24V179.35H219.507V180.332H216.24V182.557H219.632V183.539ZM223.615 183.539H222.049L221.527 176.248H222.55L222.811 180.489L222.926 182.359H223.009L223.834 178.013H224.992L225.817 182.359H225.9L226.015 180.489L226.287 176.248H227.268L226.746 183.539H225.18L224.439 179.319H224.356L223.615 183.539ZM241.455 177.23H239.169V183.539H238V177.23H235.714V176.248H241.455V177.23ZM248.611 183.539H247.369L246.816 181.596H244.499L243.945 183.539H242.755L244.885 176.248H246.482L248.611 183.539ZM246.596 180.625L245.699 177.429H245.615L244.718 180.625H246.596ZM252.708 183.664C251.445 183.664 250.6 183.173 250.047 182.442L250.798 181.722C251.351 182.38 251.967 182.693 252.75 182.693C253.669 182.693 254.18 182.254 254.18 181.481C254.18 180.855 253.856 180.531 252.98 180.385L252.186 180.259C250.809 180.029 250.318 179.204 250.318 178.233C250.318 176.864 251.278 176.123 252.823 176.123C253.971 176.123 254.785 176.52 255.286 177.178L254.556 177.909C254.159 177.418 253.627 177.094 252.823 177.094C251.967 177.094 251.498 177.47 251.498 178.181C251.498 178.776 251.811 179.11 252.708 179.256L253.481 179.392C254.796 179.633 255.359 180.385 255.359 181.419C255.359 182.766 254.42 183.664 252.708 183.664ZM261.545 183.539L259.593 180.186L258.717 181.283V183.539H257.548V176.248H258.717V179.737H258.769L259.656 178.525L261.441 176.248H262.787L260.387 179.319L262.881 183.539H261.545ZM276.817 183.539H271.839V182.568H273.885V177.105H273.801L272.11 178.912L271.39 178.264L273.248 176.248H275.054V182.568H276.817V183.539Z" fill="#171717"/>
<path d="M111.642 111.914H107.154V104.623H108.323V110.932H111.642V111.914ZM119.184 111.914H117.942L117.389 109.971H115.072L114.519 111.914H113.329L115.458 104.623H117.055L119.184 111.914ZM117.17 109L116.272 105.804H116.189L115.291 109H117.17ZM121.08 111.914V104.623H123.596C124.911 104.623 125.683 105.365 125.683 106.535C125.683 107.381 125.234 107.872 124.525 108.081V108.133C125.37 108.331 125.934 108.854 125.934 109.856C125.934 111.047 125.109 111.914 123.877 111.914H121.08ZM122.228 111.016H123.523C124.295 111.016 124.733 110.702 124.733 110.003V109.627C124.733 108.916 124.295 108.613 123.523 108.613H122.228V111.016ZM122.228 107.757H123.356C124.086 107.757 124.483 107.485 124.483 106.827V106.451C124.483 105.793 124.086 105.522 123.356 105.522H122.228V107.757ZM132.766 111.914H128.204V104.623H132.766V105.605H129.374V107.725H132.64V108.707H129.374V110.932H132.766V111.914ZM140.016 111.914H135.528V104.623H136.697V110.932H140.016V111.914ZM146.921 111.914H142.329V111.026H144.04V105.511H142.329V104.623H146.921V105.511H145.209V111.026H146.921V111.914ZM152.595 111.914L150.456 106.305H150.362V111.914H149.339V104.623H150.842L152.982 110.232H153.076V104.623H154.098V111.914H152.595ZM160.169 111.914V110.911H160.096C159.855 111.496 159.417 112.039 158.457 112.039C156.943 112.039 156.171 110.682 156.171 108.321C156.171 105.845 157.037 104.498 158.843 104.498C160.273 104.498 160.931 105.323 161.233 106.305L160.179 106.66C159.96 106.023 159.668 105.469 158.853 105.469C157.841 105.469 157.413 106.315 157.413 107.652V108.812C157.413 110.149 157.789 111.078 158.853 111.078C159.699 111.078 160.169 110.514 160.169 109.721V109.062H158.76V108.185H161.233V111.914H160.169ZM175.869 105.605H173.583V111.914H172.414V105.605H170.128V104.623H175.869V105.605ZM183.025 111.914H181.783L181.23 109.971H178.913L178.36 111.914H177.17L179.299 104.623H180.896L183.025 111.914ZM181.011 109L180.113 105.804H180.03L179.132 109H181.011ZM187.123 112.039C185.86 112.039 185.014 111.548 184.461 110.817L185.213 110.097C185.766 110.755 186.382 111.068 187.164 111.068C188.083 111.068 188.594 110.629 188.594 109.856C188.594 109.23 188.271 108.906 187.394 108.76L186.601 108.634C185.223 108.404 184.733 107.579 184.733 106.608C184.733 105.24 185.693 104.498 187.238 104.498C188.386 104.498 189.2 104.895 189.701 105.553L188.97 106.284C188.574 105.793 188.041 105.469 187.238 105.469C186.382 105.469 185.912 105.845 185.912 106.556C185.912 107.151 186.225 107.485 187.123 107.631L187.895 107.767C189.21 108.008 189.774 108.76 189.774 109.794C189.774 111.141 188.834 112.039 187.123 112.039ZM195.96 111.914L194.008 108.561L193.131 109.658V111.914H191.962V104.623H193.131V108.112H193.183L194.07 106.9L195.855 104.623H197.202L194.801 107.694L197.296 111.914H195.96Z" fill="#171717"/>
<path d="M269.854 108.968V111.914H268.696V104.623H271.42C272.797 104.623 273.559 105.459 273.559 106.817C273.559 107.924 272.996 108.697 271.983 108.864L273.664 111.914H272.37L270.825 108.968H269.854ZM269.854 108.028H271.253C271.983 108.028 272.338 107.705 272.338 107.036V106.587C272.338 105.918 271.983 105.595 271.253 105.595H269.854V108.028ZM280.371 111.914H275.81V104.623H280.371V105.605H276.979V107.725H280.246V108.707H276.979V110.932H280.371V111.914ZM284.354 111.914H282.788L282.267 104.623H283.289L283.55 108.864L283.665 110.734H283.749L284.573 106.388H285.732L286.556 110.734H286.64L286.755 108.864L287.026 104.623H288.007L287.485 111.914H285.92L285.179 107.694H285.095L284.354 111.914ZM292.231 112.039C290.383 112.039 289.559 110.65 289.559 108.269C289.559 105.887 290.383 104.498 292.231 104.498C294.078 104.498 294.903 105.887 294.903 108.269C294.903 110.65 294.078 112.039 292.231 112.039ZM292.231 111.068C293.274 111.068 293.661 110.222 293.661 108.874V107.652C293.661 106.315 293.274 105.469 292.231 105.469C291.187 105.469 290.801 106.315 290.801 107.652V108.885C290.801 110.222 291.187 111.068 292.231 111.068ZM298.228 108.968V111.914H297.069V104.623H299.793C301.171 104.623 301.933 105.459 301.933 106.817C301.933 107.924 301.369 108.697 300.357 108.864L302.037 111.914H300.743L299.198 108.968H298.228ZM298.228 108.028H299.626C300.357 108.028 300.712 107.705 300.712 107.036V106.587C300.712 105.918 300.357 105.595 299.626 105.595H298.228V108.028ZM308.098 111.914L306.146 108.561L305.269 109.658V111.914H304.1V104.623H305.269V108.112H305.321L306.209 106.9L307.993 104.623H309.34L306.939 107.694L309.434 111.914H308.098ZM323.475 105.605H321.189V111.914H320.02V105.605H317.734V104.623H323.475V105.605ZM330.63 111.914H329.388L328.835 109.971H326.518L325.965 111.914H324.775L326.904 104.623H328.501L330.63 111.914ZM328.616 109L327.718 105.804H327.635L326.737 109H328.616ZM334.728 112.039C333.465 112.039 332.62 111.548 332.067 110.817L332.818 110.097C333.372 110.755 333.987 111.068 334.77 111.068C335.689 111.068 336.2 110.629 336.2 109.856C336.2 109.23 335.877 108.906 335 108.76L334.207 108.634C332.829 108.404 332.338 107.579 332.338 106.608C332.338 105.24 333.298 104.498 334.843 104.498C335.991 104.498 336.805 104.895 337.306 105.553L336.576 106.284C336.179 105.793 335.647 105.469 334.843 105.469C333.987 105.469 333.518 105.845 333.518 106.556C333.518 107.151 333.831 107.485 334.728 107.631L335.501 107.767C336.816 108.008 337.38 108.76 337.38 109.794C337.38 111.141 336.44 112.039 334.728 112.039ZM343.564 111.914L341.613 108.561L340.736 109.658V111.914H339.567V104.623H340.736V108.112H340.788L341.675 106.9L343.46 104.623H344.807L342.406 107.694L344.9 111.914H343.564Z" fill="#171717"/>
<path d="M465.214 333.877V161.529" stroke="#171717" stroke-linejoin="bevel" stroke-dasharray="4 12"/>
<path d="M476.77 35.8125H441.73" stroke="#171717" stroke-linejoin="bevel" stroke-dasharray="4 12"/>
<path d="M304.179 127.209C305.208 127.209 306.042 126.374 306.042 125.344C306.042 124.314 305.208 123.479 304.179 123.479C303.149 123.479 302.315 124.314 302.315 125.344C302.315 126.374 303.149 127.209 304.179 127.209Z" fill="#171717" stroke="#171717"/>
<path d="M17.52 358.125H339.964" stroke="#171717"/>
</g>
</g>
<defs>
<clipPath id="clip0_3068_343862">
<rect width="501" height="382" fill="white"/>
</clipPath>
</defs>
</svg>
