<svg width="48" height="48" viewBox="0 0 48 48" fill="none" xmlns="http://www.w3.org/2000/svg">
<path d="M34.28 0H13.72C6.14265 0 0 6.14265 0 13.72V34.28C0 41.8573 6.14265 48 13.72 48H34.28C41.8573 48 48 41.8573 48 34.28V13.72C48 6.14265 41.8573 0 34.28 0Z" fill="#FB923C"/>
<path d="M39.6151 23.46L32.8651 11.085C32.768 10.9075 32.6247 10.7594 32.4505 10.6565C32.2763 10.5535 32.0775 10.4995 31.8751 10.5H16.1251C15.9227 10.4995 15.7239 10.5535 15.5497 10.6565C15.3755 10.7594 15.2322 10.9075 15.1351 11.085L8.3851 23.46C8.28636 23.631 8.23438 23.825 8.23438 24.0225C8.23438 24.22 8.28636 24.414 8.3851 24.585L15.1351 36.96C15.238 37.1292 15.3837 37.2682 15.5575 37.363C15.7314 37.4578 15.9272 37.5051 16.1251 37.5H31.8751C32.0775 37.5006 32.2763 37.4465 32.4505 37.3435C32.6247 37.2406 32.768 37.0925 32.8651 36.915L39.6151 24.54C39.7057 24.3744 39.7532 24.1887 39.7532 24C39.7532 23.8113 39.7057 23.6256 39.6151 23.46ZM31.7963 13.875L36.7351 22.875H26.0476L31.7963 13.875ZM24.0001 21.9075L18.1726 12.75H29.8276L24.0001 21.9075ZM16.2038 13.875L21.9526 22.875H11.2651L16.2038 13.875ZM11.2651 25.125H21.9526L16.2038 34.125L11.2651 25.125ZM24.0001 26.0925L29.8276 35.25H18.1726L24.0001 26.0925ZM31.7963 34.125L26.0476 25.125H36.7351L31.7963 34.125Z" fill="black"/>
</svg>
