<svg viewBox="0.4 0.82 145.58 22.38" fill="none" xmlns="http://www.w3.org/2000/svg">
<g clip-path="url(#clip0)">
<path d="M12.3502 1.9645C12.3216 2.15048 12.3073 2.35077 12.2786 2.53675C12.1642 3.18054 12.0497 3.83862 12.0211 4.49671C11.9925 5.1548 11.9639 5.8272 11.9782 6.48529C12.0354 8.71707 12.436 10.8916 13.2515 12.966C14.0955 15.1263 15.3831 17.0004 17.0426 18.6313C18.9883 20.5341 21.2344 22.0076 23.7237 23.0806C23.7666 23.0949 23.7952 23.1235 23.8381 23.1378C23.8381 23.1378 23.8381 23.1521 23.8524 23.1807C23.6951 23.1807 23.5377 23.195 23.3803 23.195C22.851 23.195 22.3217 23.1807 21.7923 23.1807C19.2315 23.1807 16.6707 23.1664 14.1098 23.1664C10.9911 23.1521 7.88661 23.1378 4.76784 23.1235C3.58041 23.1235 2.4073 23.1092 1.21988 23.0949C1.07681 23.0949 0.933751 23.0806 0.804995 23.0377C0.490256 22.9375 0.332887 22.6657 0.418725 22.351C0.447337 22.2222 0.518869 22.0934 0.576094 21.9647C1.67768 20.0763 2.77926 18.1735 3.88085 16.2851C6.12693 12.4367 8.35872 8.58831 10.6048 4.73992C11.0483 3.98169 11.4918 3.22345 11.9353 2.47953C12.0211 2.32216 12.1213 2.1791 12.2214 2.03603C12.25 2.00742 12.2786 1.97881 12.3073 1.9502C12.3216 1.9502 12.3359 1.9502 12.3502 1.9645Z" fill="#95A8BE"></path>
<path d="M13.7672 0.848434C17.5298 7.98727 21.278 15.1261 25.0263 22.2649C24.969 22.5511 24.7688 22.6798 24.5112 22.594C24.454 22.5797 24.3825 22.5511 24.3253 22.5225C23.9104 22.3365 23.4955 22.1505 23.0949 21.9359C22.2222 21.4781 21.3496 21.0346 20.5341 20.4767C19.7472 19.933 19.0033 19.3322 18.3166 18.6598C17.5441 17.9158 16.8002 17.1433 16.1564 16.2992C14.7114 14.4251 13.7529 12.3221 13.2379 10.0188C12.823 8.18756 12.6943 6.31344 12.7801 4.43931C12.823 3.35203 12.9375 2.27906 13.1664 1.2204C13.1807 1.19178 13.1807 1.14887 13.195 1.12025C13.2808 0.86274 13.4668 0.762596 13.7672 0.848434Z" fill="#49535F"></path>
<path d="M75.7129 6.95713C75.8416 6.92852 75.9418 6.91421 76.0419 6.8999C76.7286 7.52938 77.4153 8.14455 78.102 8.75972C78.7887 9.3892 79.4754 10.0044 80.1765 10.6338C80.8632 11.249 81.5356 11.8785 82.2223 12.4794L82.2795 12.4507V12.2361C82.2795 10.6052 82.2795 8.98862 82.2795 7.3577C82.2795 7.28617 82.2795 7.20033 82.2795 7.1288L84.6829 7.10019V7.21464C84.6829 7.21464 84.6829 7.32909 84.6829 7.40062C84.6829 10.734 84.6829 14.0674 84.6829 17.4007C84.6829 17.4866 84.6829 17.5724 84.6829 17.6725C84.5971 17.7011 84.5256 17.7155 84.454 17.7298C82.3653 15.8413 80.2766 13.9672 78.145 12.0645C78.1307 12.1646 78.1307 12.2361 78.1307 12.2934C78.1307 12.7941 78.1307 13.2805 78.1307 13.7812C78.1307 14.94 78.1307 16.1132 78.1307 17.272C78.1307 17.3435 78.1307 17.4293 78.1307 17.5009L75.7272 17.5152V17.3149C75.7272 16.8714 75.7272 16.4279 75.7272 15.9987C75.7272 13.0802 75.7272 10.1617 75.7272 7.22895C75.7129 7.14311 75.7129 7.05727 75.7129 6.95713Z" fill="#95A8BE"></path>
<path d="M56.1275 7.20068C58.3306 7.20068 60.5195 7.20068 62.737 7.20068C62.737 7.94461 62.737 8.67423 62.737 9.41816C62.6511 9.41816 62.5796 9.43247 62.4938 9.43247C61.2634 9.43247 60.0331 9.43247 58.8028 9.43247C58.7312 9.43247 58.6454 9.43247 58.5595 9.44677C58.5595 10.0619 58.5595 10.6628 58.5595 11.278C58.6311 11.278 58.7026 11.2923 58.7741 11.2923C59.89 11.2923 61.0202 11.2923 62.1361 11.2923C62.2077 11.2923 62.2792 11.2923 62.3507 11.3066C62.3507 12.0076 62.3507 12.7086 62.3507 13.4239C61.0775 13.4239 59.8185 13.4239 58.5739 13.4239C58.5739 13.4239 58.5595 15.4697 58.5739 15.4411C59.9473 15.4411 61.335 15.4411 62.737 15.4411C62.737 16.1993 62.737 16.9147 62.737 17.6443L56.1418 17.6586C56.0989 17.5012 56.0846 7.4582 56.1275 7.20068Z" fill="#49535F"></path>
<path d="M49.3315 17.6443C48.5017 17.6443 47.7149 17.6443 46.9137 17.6443C46.8708 17.5012 46.8565 7.45823 46.9137 7.27225C47.0282 7.25794 47.1569 7.24364 47.2857 7.22933C48.2728 7.14349 49.26 7.07196 50.2471 7.11488C51.0482 7.14349 51.8208 7.31517 52.5504 7.70144C53.5375 8.21646 54.1813 8.989 54.3959 10.0906C54.539 10.8631 54.4818 11.6357 54.1813 12.3653C53.8523 13.1807 53.2514 13.753 52.4646 14.1107C51.8637 14.3825 51.2342 14.5112 50.5904 14.5398C50.2471 14.5542 49.8894 14.5398 49.5461 14.5398C49.4889 14.5398 49.4316 14.5398 49.3458 14.5398C49.3315 15.5699 49.3315 16.5999 49.3315 17.6443ZM49.3458 9.4468C49.3029 9.76154 49.3172 12.2651 49.3601 12.4082C49.6891 12.4511 50.0182 12.4654 50.3472 12.4368C50.5904 12.4082 50.8336 12.3653 51.0768 12.2794C51.5347 12.1221 51.8208 11.7787 51.9209 11.3066C51.9352 11.2065 51.9495 11.1063 51.9638 11.0062C52.0068 10.2766 51.6062 9.64709 50.8766 9.47542C50.3615 9.34666 49.8608 9.38958 49.3458 9.4468Z" fill="#49535F"></path>
<path d="M34.6822 14.7828C34.9255 15.4695 35.1687 16.1419 35.4119 16.8429C35.3403 16.8858 35.2831 16.943 35.2116 16.9717C34.5821 17.3579 33.8954 17.5868 33.1658 17.7156C32.0213 17.9159 30.8768 17.8443 29.7752 17.4438C28.0298 16.7857 26.8853 15.5696 26.4561 13.7384C26.1557 12.4795 26.2558 11.2348 26.8138 10.0474C27.4862 8.61678 28.6164 7.71549 30.1042 7.2863C31.8639 6.77127 33.5664 6.97156 35.183 7.85855C35.2259 7.87286 35.2545 7.90147 35.3117 7.94439C35.0685 8.61678 34.8253 9.30349 34.5678 9.99019C34.4963 9.96158 34.439 9.93296 34.3961 9.90435C33.7953 9.60392 33.1801 9.37502 32.5077 9.31779C31.9211 9.26057 31.3489 9.30349 30.7909 9.48947C29.9469 9.77559 29.3746 10.3622 29.1028 11.2062C28.8453 11.9788 28.831 12.7799 29.0742 13.5525C29.4175 14.654 30.1901 15.2692 31.306 15.4838C32.4219 15.6984 33.4805 15.4409 34.4677 14.9116C34.5249 14.8686 34.5964 14.84 34.6822 14.7828Z" fill="#49535F"></path>
<path d="M137.83 7.84425C137.587 8.51664 137.344 9.17473 137.101 9.86143C137.029 9.83282 136.972 9.80421 136.915 9.77559C136.314 9.46086 135.67 9.24626 134.983 9.18904C134.354 9.13181 133.724 9.18904 133.138 9.44655C132.308 9.7899 131.793 10.4194 131.564 11.2634C131.364 11.9931 131.364 12.737 131.593 13.4666C131.922 14.5253 132.666 15.1548 133.739 15.3837C134.583 15.5696 135.413 15.4838 136.214 15.1834C136.5 15.0832 136.757 14.9402 137.044 14.8114C137.086 14.7828 137.144 14.7685 137.187 14.7399C137.272 14.84 137.873 16.4566 137.916 16.7571C137.859 16.8 137.802 16.8286 137.745 16.8715C136.986 17.315 136.171 17.5725 135.298 17.6727C134.325 17.7728 133.352 17.7013 132.423 17.3722C131.192 16.943 130.205 16.1848 129.547 15.0403C129.132 14.3107 128.918 13.5238 128.875 12.6798C128.832 11.8357 128.932 11.0202 129.261 10.2334C129.79 8.96014 130.692 8.04453 131.95 7.47228C132.852 7.0574 133.796 6.92864 134.769 6.94295C135.813 6.97156 136.772 7.27199 137.687 7.75841C137.73 7.77271 137.773 7.80133 137.83 7.84425Z" fill="#95A8BE"></path>
<path d="M138.774 16.6425C139.003 15.9129 139.218 15.2119 139.433 14.4822C139.504 14.5252 139.547 14.5538 139.59 14.5824C140.205 14.983 140.863 15.2691 141.593 15.4121C141.95 15.4837 142.294 15.498 142.651 15.4694C142.88 15.4551 143.095 15.3835 143.281 15.2119C143.61 14.8971 143.653 14.3535 143.367 13.9815C143.238 13.8098 143.066 13.6811 142.88 13.5809C142.508 13.3806 142.122 13.209 141.736 13.023C141.392 12.8513 141.035 12.6939 140.706 12.508C140.348 12.3077 140.048 12.0502 139.79 11.7211C139.418 11.2633 139.232 10.734 139.204 10.1617C139.146 8.85986 139.747 7.92995 140.892 7.3577C141.45 7.07158 142.036 6.97143 142.666 6.95713C143.624 6.92851 144.54 7.14311 145.398 7.54368C145.527 7.60091 145.641 7.67244 145.77 7.74397C145.57 8.45929 145.37 9.16029 145.169 9.88991C145.098 9.847 145.041 9.81838 144.983 9.77546C144.511 9.48934 144.025 9.27474 143.495 9.13168C143.152 9.03154 142.794 9.01723 142.437 9.07446C142.337 9.08876 142.222 9.11738 142.122 9.16029C141.578 9.38919 141.435 10.0902 141.85 10.5194C141.993 10.6625 142.179 10.7769 142.351 10.8627C142.709 11.0487 143.081 11.2061 143.453 11.3635C143.91 11.5637 144.368 11.7927 144.783 12.0931C144.955 12.2218 145.126 12.3792 145.284 12.5366C145.656 12.9228 145.87 13.395 145.942 13.9243C146.013 14.4393 145.985 14.9543 145.827 15.4694C145.584 16.2276 145.112 16.7999 144.425 17.2004C143.882 17.5152 143.295 17.6725 142.666 17.7011C141.335 17.7727 140.105 17.415 138.946 16.7712C138.903 16.7283 138.846 16.6854 138.774 16.6425Z" fill="#95A8BE"></path>
<path d="M67.7726 15.6555C67.5151 16.2707 67.2576 16.9001 67.0001 17.5296C66.1846 17.5296 65.3835 17.5296 64.5537 17.5296C66.1989 14.0103 67.8298 10.5195 69.4608 7.02881C69.5752 7.02881 69.6754 7.02881 69.7898 7.02881C71.4207 10.5195 73.0516 14.0103 74.6825 17.501L72.1933 17.5296C71.9214 16.9288 71.6782 16.285 71.4064 15.6698C71.2634 15.6269 68.0301 15.6126 67.7726 15.6555ZM69.5895 11.3207C69.5037 11.5353 69.4178 11.7356 69.332 11.9359C69.2462 12.1362 69.1603 12.3364 69.0888 12.5367C69.003 12.737 68.9171 12.9516 68.8313 13.1519C68.7454 13.3522 68.6453 13.5525 68.5881 13.7814C69.2891 13.7814 69.9472 13.7814 70.6196 13.7814C70.591 13.624 69.704 11.4495 69.5895 11.3207Z" fill="#95A8BE"></path>
<path d="M90.62 7.02881C90.7202 7.02881 90.8203 7.02881 90.9347 7.02881C92.5657 10.5195 94.1966 14.0103 95.8418 17.5296C94.9977 17.5296 94.1823 17.5296 93.3525 17.5296C93.0807 16.9145 92.8375 16.285 92.5514 15.6412C91.3496 15.6269 90.1479 15.6412 88.9462 15.6412C88.6743 16.285 88.4168 16.9145 88.1593 17.5439C87.3439 17.5439 86.557 17.5439 85.7702 17.5439C85.7559 17.5296 85.7559 17.5296 85.7559 17.5296V17.5153C87.3582 14.0675 88.9605 10.6197 90.5628 7.17187C90.5628 7.11465 90.5914 7.07173 90.62 7.02881ZM90.7631 11.2921C90.6343 11.4924 89.7473 13.6383 89.7473 13.7671C89.9333 13.81 91.6358 13.7957 91.7788 13.7528C91.4355 12.9516 91.1064 12.1362 90.7631 11.2921Z" fill="#95A8BE"></path>
<path d="M40.834 6.7998C42.4649 10.4336 44.0815 14.0102 45.7124 17.5867L43.5379 17.6154C43.309 17.1146 43.0801 16.5996 42.8369 16.056C42.1931 16.3564 41.5207 16.5281 40.8054 16.5138C40.0901 16.4995 39.4177 16.3278 38.7596 16.0274C38.5021 16.5567 38.2589 17.1003 38.0014 17.6154C37.2717 17.6154 36.5564 17.6154 35.8125 17.6154C37.472 14.0102 39.1459 10.4336 40.834 6.7998ZM40.8054 11.5781C40.3762 12.4937 39.9613 13.3664 39.5751 14.2391C40.3333 14.6826 41.3776 14.7255 42.0214 14.2534C41.6208 13.3807 41.2203 12.508 40.8054 11.5781Z" fill="#49535F"></path>
<path d="M109.976 17.5297C109.161 17.5297 108.388 17.5297 107.587 17.5297C107.573 17.4582 107.573 17.3723 107.573 17.3008C107.573 16.0704 107.573 14.8544 107.573 13.6241C107.573 13.4524 107.53 13.3093 107.444 13.1663C106.3 11.2063 105.141 9.23204 103.996 7.27208C103.968 7.22916 103.953 7.17193 103.925 7.12901C104.054 7.0861 106.385 7.07179 106.672 7.11471C107.373 8.41658 108.074 9.74707 108.775 11.0632C108.803 11.0632 108.803 11.0632 108.818 11.0632C108.818 11.0632 108.832 11.0632 108.832 11.0489C108.846 11.0346 108.846 11.0346 108.86 11.0203C108.86 11.0203 108.86 11.006 108.875 11.006C108.889 10.9917 108.889 10.9774 108.903 10.9631C109.576 9.68984 110.262 8.43089 110.935 7.15763C110.935 7.14332 110.949 7.14332 110.949 7.12901L110.963 7.11471C111.107 7.07179 113.453 7.07179 113.639 7.11471C113.61 7.17193 113.596 7.22916 113.567 7.27208C112.523 9.06036 111.493 10.8343 110.448 12.6226C110.334 12.8372 110.205 13.0375 110.077 13.2521C110.005 13.3666 109.991 13.4667 109.991 13.5955C109.991 14.8258 109.991 16.0418 109.991 17.2722C109.976 17.358 109.976 17.4295 109.976 17.5297Z" fill="#95A8BE"></path>
<path d="M122.838 7.12874C122.866 7.32903 122.866 9.13162 122.823 9.28899C122.752 9.28899 122.68 9.30329 122.594 9.30329C121.722 9.30329 120.849 9.30329 119.991 9.30329C119.905 9.30329 119.819 9.3176 119.719 9.3176C119.719 9.41774 119.705 9.50358 119.705 9.60373C119.705 12.1502 119.705 14.7111 119.705 17.2576C119.705 17.3434 119.705 17.4293 119.705 17.5294C119.705 17.5294 119.161 17.5437 118.903 17.5437C118.646 17.5437 118.388 17.5437 118.131 17.5437C117.873 17.5437 117.601 17.5437 117.315 17.5437C117.301 17.1718 117.301 16.8427 117.301 16.4994C117.301 16.156 117.301 15.827 117.301 15.4836C117.301 15.1403 117.301 14.7969 117.301 14.4536C117.301 14.1102 117.301 13.7812 117.301 13.4378C117.301 13.0945 117.301 12.7511 117.301 12.4078C117.301 12.0644 117.301 11.7354 117.301 11.392C117.301 11.0487 117.301 10.7053 117.301 10.362C117.301 10.0186 117.301 9.68956 117.301 9.33191C117.201 9.3176 117.129 9.30329 117.044 9.30329C116.171 9.30329 115.298 9.30329 114.44 9.30329C114.368 9.30329 114.282 9.28899 114.182 9.28899C114.168 8.55937 114.182 7.84405 114.168 7.14304C114.354 7.08582 122.666 7.08582 122.838 7.12874Z" fill="#95A8BE"></path>
<path d="M99.2755 7.10026C99.2755 9.86137 99.2755 12.5939 99.2755 15.3407C99.3757 15.3407 99.4615 15.355 99.5473 15.355C100.763 15.355 101.994 15.355 103.21 15.355C103.281 15.355 103.367 15.355 103.439 15.355C103.496 15.5124 103.496 17.3292 103.453 17.5152C103.324 17.5581 97.1296 17.5725 96.915 17.5295L96.9007 17.5152L96.8864 17.5009C96.8864 17.4723 96.8721 17.4437 96.8721 17.4151C96.8721 14.0102 96.8721 10.6196 96.8721 7.21471C96.8721 7.18609 96.8864 7.17179 96.8864 7.11456C97.0724 7.08595 97.2726 7.10026 97.4729 7.10026C97.6732 7.10026 97.8735 7.10026 98.0738 7.10026C98.2741 7.10026 98.4601 7.10026 98.6604 7.10026C98.8463 7.10026 99.0466 7.10026 99.2755 7.10026Z" fill="#95A8BE"></path>
<path d="M126.843 17.5294C126.042 17.5294 125.27 17.5294 124.468 17.5294C124.468 17.4292 124.454 17.3434 124.454 17.2576C124.454 14.4535 124.454 11.6495 124.454 8.84546C124.454 8.34474 124.454 7.84402 124.454 7.3433C124.454 7.27177 124.454 7.20024 124.468 7.14302C124.626 7.08579 126.686 7.08579 126.858 7.14302C126.843 10.5908 126.843 14.053 126.843 17.5294Z" fill="#95A8BE"></path>
</g>
<defs>
<clipPath id="clip0">
<rect width="145.609" height="22.3607" fill="white" transform="translate(0.390625 0.819824)"></rect>
</clipPath>
</defs>
</svg>