<svg width="672" height="512" viewBox="0 0 672 512" fill="none" xmlns="http://www.w3.org/2000/svg">
<g clip-path="url(#clip0_3097_602419)">
<rect width="672" height="512" rx="16" fill="#F5F5F5"/>
<rect x="50" y="368.294" width="117.697" height="101.755" stroke="#171717" stroke-linejoin="bevel"/>
<path d="M94.2021 396.238L107.075 396.245L108.914 399.916H123.626V421.984H94.2021V396.238Z" stroke="#171717" stroke-linejoin="bevel"/>
<path d="M78.5133 442.981H77.1573V434.605H80.7573C82.2933 434.605 83.1933 435.601 83.1933 437.125C83.1933 438.649 82.2933 439.645 80.7573 439.645H78.5133V442.981ZM78.5133 435.793V438.457H80.6733C81.3573 438.457 81.7653 438.085 81.7653 437.413V436.837C81.7653 436.165 81.3573 435.793 80.6733 435.793H78.5133ZM86.5167 439.597V442.981H85.1607V434.605H88.7727C90.2727 434.605 91.1967 435.577 91.1967 437.125C91.1967 438.313 90.6327 439.141 89.5647 439.453L91.3767 442.981H89.8647L88.1847 439.597H86.5167ZM86.5167 438.457H88.6767C89.3607 438.457 89.7687 438.085 89.7687 437.413V436.837C89.7687 436.165 89.3607 435.793 88.6767 435.793H86.5167V438.457ZM96.6268 443.125C94.4428 443.125 93.0148 441.613 93.0148 438.793C93.0148 435.973 94.4428 434.461 96.6268 434.461C98.8108 434.461 100.239 435.973 100.239 438.793C100.239 441.613 98.8108 443.125 96.6268 443.125ZM96.6268 441.913C97.9228 441.913 98.7868 440.977 98.7868 439.453V438.133C98.7868 436.609 97.9228 435.673 96.6268 435.673C95.3308 435.673 94.4668 436.609 94.4668 438.133V439.453C94.4668 440.977 95.3308 441.913 96.6268 441.913ZM102.416 434.605H106.508V440.701C106.508 442.165 105.512 443.125 103.964 443.125C102.512 443.125 101.672 442.273 101.444 441.025L102.692 440.749C102.836 441.457 103.232 441.913 103.964 441.913C104.684 441.913 105.152 441.469 105.152 440.557V435.733H102.416V434.605ZM114.371 442.981H109.007V434.605H114.371V435.805H110.363V438.133H113.999V439.333H110.363V441.781H114.371V442.981ZM119.744 443.125C117.56 443.125 116.228 441.601 116.228 438.793C116.228 435.985 117.56 434.461 119.744 434.461C121.196 434.461 122.168 435.109 122.732 436.357L121.592 436.981C121.304 436.189 120.716 435.673 119.744 435.673C118.46 435.673 117.668 436.609 117.668 438.157V439.429C117.668 440.977 118.46 441.913 119.744 441.913C120.74 441.913 121.376 441.337 121.676 440.521L122.768 441.181C122.204 442.393 121.196 443.125 119.744 443.125ZM126.438 442.981V435.805H123.942V434.605H130.29V435.805H127.794V442.981H126.438ZM141.155 442.981H135.431V441.853H137.783V435.589H137.687L135.743 437.665L134.915 436.921L137.051 434.605H139.115V441.853H141.155V442.981Z" fill="#171717"/>
<rect x="167.696" y="368.294" width="117.697" height="101.755" stroke="#171717" stroke-linejoin="bevel"/>
<path d="M211.898 396.238L224.772 396.245L226.611 399.916H241.323V421.984H211.898V396.238Z" stroke="#171717" stroke-linejoin="bevel"/>
<path d="M196.21 442.981H194.854V434.605H198.454C199.99 434.605 200.89 435.601 200.89 437.125C200.89 438.649 199.99 439.645 198.454 439.645H196.21V442.981ZM196.21 435.793V438.457H198.37C199.054 438.457 199.462 438.085 199.462 437.413V436.837C199.462 436.165 199.054 435.793 198.37 435.793H196.21ZM204.213 439.597V442.981H202.857V434.605H206.469C207.969 434.605 208.893 435.577 208.893 437.125C208.893 438.313 208.329 439.141 207.261 439.453L209.073 442.981H207.561L205.881 439.597H204.213ZM204.213 438.457H206.373C207.057 438.457 207.465 438.085 207.465 437.413V436.837C207.465 436.165 207.057 435.793 206.373 435.793H204.213V438.457ZM214.323 443.125C212.139 443.125 210.711 441.613 210.711 438.793C210.711 435.973 212.139 434.461 214.323 434.461C216.507 434.461 217.935 435.973 217.935 438.793C217.935 441.613 216.507 443.125 214.323 443.125ZM214.323 441.913C215.619 441.913 216.483 440.977 216.483 439.453V438.133C216.483 436.609 215.619 435.673 214.323 435.673C213.027 435.673 212.163 436.609 212.163 438.133V439.453C212.163 440.977 213.027 441.913 214.323 441.913ZM220.112 434.605H224.204V440.701C224.204 442.165 223.208 443.125 221.66 443.125C220.208 443.125 219.368 442.273 219.14 441.025L220.388 440.749C220.532 441.457 220.928 441.913 221.66 441.913C222.38 441.913 222.848 441.469 222.848 440.557V435.733H220.112V434.605ZM232.067 442.981H226.703V434.605H232.067V435.805H228.059V438.133H231.695V439.333H228.059V441.781H232.067V442.981ZM237.441 443.125C235.257 443.125 233.925 441.601 233.925 438.793C233.925 435.985 235.257 434.461 237.441 434.461C238.893 434.461 239.865 435.109 240.429 436.357L239.289 436.981C239.001 436.189 238.413 435.673 237.441 435.673C236.157 435.673 235.365 436.609 235.365 438.157V439.429C235.365 440.977 236.157 441.913 237.441 441.913C238.437 441.913 239.073 441.337 239.373 440.521L240.465 441.181C239.901 442.393 238.893 443.125 237.441 443.125ZM244.134 442.981V435.805H241.638V434.605H247.986V435.805H245.49V442.981H244.134ZM258.564 441.829V442.981H252.876V441.685L255.552 439.297C256.392 438.541 256.872 437.869 256.872 437.101V436.945C256.872 436.141 256.344 435.637 255.516 435.637C254.592 435.637 254.148 436.225 253.944 436.957L252.756 436.501C253.104 435.445 253.944 434.461 255.624 434.461C257.328 434.461 258.312 435.493 258.312 436.945C258.312 438.301 257.412 439.189 256.308 440.137L254.34 441.829H258.564Z" fill="#171717"/>
<rect x="285.394" y="368.294" width="117.697" height="101.755" stroke="#171717" stroke-linejoin="bevel"/>
<path d="M329.596 396.238L342.469 396.245L344.308 399.916H359.02V421.984H329.596V396.238Z" stroke="#171717" stroke-linejoin="bevel"/>
<path d="M313.907 442.981H312.551V434.605H316.151C317.687 434.605 318.587 435.601 318.587 437.125C318.587 438.649 317.687 439.645 316.151 439.645H313.907V442.981ZM313.907 435.793V438.457H316.067C316.751 438.457 317.159 438.085 317.159 437.413V436.837C317.159 436.165 316.751 435.793 316.067 435.793H313.907ZM321.91 439.597V442.981H320.554V434.605H324.166C325.666 434.605 326.59 435.577 326.59 437.125C326.59 438.313 326.026 439.141 324.958 439.453L326.77 442.981H325.258L323.578 439.597H321.91ZM321.91 438.457H324.07C324.754 438.457 325.162 438.085 325.162 437.413V436.837C325.162 436.165 324.754 435.793 324.07 435.793H321.91V438.457ZM332.02 443.125C329.836 443.125 328.408 441.613 328.408 438.793C328.408 435.973 329.836 434.461 332.02 434.461C334.204 434.461 335.632 435.973 335.632 438.793C335.632 441.613 334.204 443.125 332.02 443.125ZM332.02 441.913C333.316 441.913 334.18 440.977 334.18 439.453V438.133C334.18 436.609 333.316 435.673 332.02 435.673C330.724 435.673 329.86 436.609 329.86 438.133V439.453C329.86 440.977 330.724 441.913 332.02 441.913ZM337.809 434.605H341.901V440.701C341.901 442.165 340.905 443.125 339.357 443.125C337.905 443.125 337.065 442.273 336.837 441.025L338.085 440.749C338.229 441.457 338.625 441.913 339.357 441.913C340.077 441.913 340.545 441.469 340.545 440.557V435.733H337.809V434.605ZM349.764 442.981H344.4V434.605H349.764V435.805H345.756V438.133H349.392V439.333H345.756V441.781H349.764V442.981ZM355.138 443.125C352.954 443.125 351.622 441.601 351.622 438.793C351.622 435.985 352.954 434.461 355.138 434.461C356.59 434.461 357.562 435.109 358.126 436.357L356.986 436.981C356.698 436.189 356.11 435.673 355.138 435.673C353.854 435.673 353.062 436.609 353.062 438.157V439.429C353.062 440.977 353.854 441.913 355.138 441.913C356.134 441.913 356.77 441.337 357.07 440.521L358.162 441.181C357.598 442.393 356.59 443.125 355.138 443.125ZM361.831 442.981V435.805H359.335V434.605H365.683V435.805H363.187V442.981H361.831ZM372.061 438.049H372.913C373.945 438.049 374.437 437.557 374.437 436.873V436.789C374.437 436.033 373.909 435.601 373.105 435.601C372.313 435.601 371.761 435.985 371.377 436.621L370.477 435.841C370.981 435.109 371.749 434.461 373.141 434.461C374.725 434.461 375.865 435.265 375.865 436.621C375.865 437.689 375.133 438.349 374.257 438.541V438.601C375.205 438.781 376.009 439.465 376.009 440.677C376.009 442.141 374.809 443.125 373.021 443.125C371.461 443.125 370.681 442.393 370.153 441.625L371.149 440.845C371.557 441.517 372.049 441.985 373.021 441.985C374.041 441.985 374.605 441.469 374.605 440.605V440.521C374.605 439.669 374.005 439.201 372.949 439.201H372.061V438.049Z" fill="#171717"/>
<rect x="101.492" y="344.997" width="14.7121" height="3.67802" fill="#F5F5F5" stroke="#171717" stroke-linejoin="bevel"/>
<rect x="219.188" y="344.997" width="14.7121" height="3.67802" fill="#F5F5F5" stroke="#171717" stroke-linejoin="bevel"/>
<rect x="403.09" y="411.201" width="3.67802" height="14.7121" fill="#F5F5F5" stroke="#171717" stroke-linejoin="bevel"/>
<path d="M108.849 348.675V368.904" stroke="#171717" stroke-linejoin="bevel"/>
<path d="M226.545 348.675V368.904" stroke="#171717" stroke-linejoin="bevel"/>
<path d="M432.514 418.557H406.768" stroke="#171717" stroke-linejoin="bevel"/>
<path d="M171.375 135.35V109.604H112.526V50.7554H230.223V109.604H200.799V80.1795H141.951" stroke="#171717" stroke-linejoin="bevel"/>
<rect x="164.019" y="135.35" width="14.7121" height="3.67802" fill="#F5F5F5" stroke="#171717" stroke-width="0.919505" stroke-linejoin="bevel"/>
<circle cx="171.375" cy="80.1796" r="11.0341" fill="#F5F5F5" stroke="#171717" stroke-linejoin="bevel"/>
<circle cx="171.375" cy="50.7552" r="11.0341" fill="#F5F5F5" stroke="#171717" stroke-linejoin="bevel"/>
<circle cx="200.799" cy="80.1796" r="11.0341" fill="#F5F5F5" stroke="#171717" stroke-linejoin="bevel"/>
<circle cx="200.799" cy="50.7552" r="11.0341" fill="#F5F5F5" stroke="#171717" stroke-linejoin="bevel"/>
<circle cx="230.223" cy="80.1796" r="11.0341" fill="#F5F5F5" stroke="#171717" stroke-linejoin="bevel"/>
<circle cx="230.223" cy="50.7552" r="11.0341" fill="#F5F5F5" stroke="#171717" stroke-linejoin="bevel"/>
<circle cx="230.223" cy="109.603" r="11.0341" fill="#F5F5F5" stroke="#171717" stroke-linejoin="bevel"/>
<circle cx="200.799" cy="109.603" r="11.0341" fill="#F5F5F5" stroke="#171717" stroke-linejoin="bevel"/>
<circle cx="171.375" cy="109.603" r="11.0341" fill="#F5F5F5" stroke="#171717" stroke-linejoin="bevel"/>
<circle cx="141.95" cy="80.1796" r="11.0341" fill="#F5F5F5" stroke="#171717" stroke-linejoin="bevel"/>
<circle cx="141.95" cy="50.7552" r="11.0341" fill="#F5F5F5" stroke="#171717" stroke-linejoin="bevel"/>
<circle cx="141.95" cy="109.603" r="11.0341" fill="#F5F5F5" stroke="#171717" stroke-linejoin="bevel"/>
<circle cx="112.526" cy="80.1796" r="11.0341" fill="#F5F5F5" stroke="#171717" stroke-linejoin="bevel"/>
<circle cx="112.526" cy="50.7552" r="11.0341" fill="#F5F5F5" stroke="#171717" stroke-linejoin="bevel"/>
<circle cx="112.526" cy="109.603" r="11.0341" fill="#F5F5F5" stroke="#171717" stroke-linejoin="bevel"/>
<path d="M117.124 87.5355L116.695 86.6773C116.394 86.0762 115.78 85.6965 115.108 85.6965V85.6965C114.055 85.6965 113.056 85.2287 112.382 84.4197L110.202 81.8037C109.379 80.817 109.219 79.4372 109.794 78.2885L109.865 78.1463C110.369 77.1382 111.399 76.5015 112.526 76.5015V76.5015C113.653 76.5015 114.684 77.1382 115.188 78.1463L115.285 78.3405C115.848 79.4675 115.727 80.8163 114.971 81.8243L114.825 82.0185L114.135 82.938M107.929 87.5355L108.34 86.7131C108.651 86.0901 109.288 85.6965 109.985 85.6965H111.147" stroke="#171717" stroke-linejoin="bevel"/>
<path d="M117.124 58.1112L116.695 57.253C116.394 56.6519 115.78 56.2722 115.108 56.2722V56.2722C114.055 56.2722 113.056 55.8044 112.382 54.9954L110.202 52.3794C109.379 51.3927 109.219 50.0129 109.794 48.8641L109.865 48.722C110.369 47.7139 111.399 47.0771 112.526 47.0771V47.0771C113.653 47.0771 114.684 47.7139 115.188 48.722L115.285 48.9162C115.848 50.0432 115.727 51.3919 114.971 52.4L114.825 52.5942L114.135 53.5137M107.929 58.1112L108.34 57.2888C108.651 56.6657 109.288 56.2722 109.985 56.2722H111.147" stroke="#171717" stroke-linejoin="bevel"/>
<path d="M117.124 116.959L116.695 116.101C116.394 115.5 115.78 115.12 115.108 115.12V115.12C114.055 115.12 113.056 114.653 112.382 113.844L110.202 111.228C109.379 110.241 109.219 108.861 109.794 107.712L109.865 107.57C110.369 106.562 111.399 105.925 112.526 105.925V105.925C113.653 105.925 114.684 106.562 115.188 107.57L115.285 107.764C115.848 108.891 115.727 110.24 114.971 111.248L114.825 111.442L114.135 112.362M107.929 116.959L108.34 116.137C108.651 115.514 109.288 115.12 109.985 115.12H111.147" stroke="#171717" stroke-linejoin="bevel"/>
<path d="M146.548 87.5355L146.118 86.6773C145.818 86.0762 145.204 85.6965 144.532 85.6965V85.6965C143.478 85.6965 142.48 85.2287 141.806 84.4197L139.626 81.8037C138.803 80.817 138.643 79.4372 139.218 78.2885L139.289 78.1463C139.793 77.1382 140.823 76.5015 141.95 76.5015V76.5015C143.077 76.5015 144.107 77.1382 144.612 78.1463L144.709 78.3405C145.272 79.4675 145.15 80.8163 144.394 81.8243L144.249 82.0185L143.559 82.938M137.353 87.5355L137.764 86.7131C138.075 86.0901 138.712 85.6965 139.409 85.6965H140.571" stroke="#171717" stroke-linejoin="bevel"/>
<path d="M146.548 58.1112L146.118 57.253C145.818 56.6519 145.204 56.2722 144.532 56.2722V56.2722C143.478 56.2722 142.48 55.8044 141.806 54.9954L139.626 52.3794C138.803 51.3927 138.643 50.0129 139.218 48.8641L139.289 48.722C139.793 47.7139 140.823 47.0771 141.95 47.0771V47.0771C143.077 47.0771 144.107 47.7139 144.612 48.722L144.709 48.9162C145.272 50.0432 145.15 51.3919 144.394 52.4L144.249 52.5942L143.559 53.5137M137.353 58.1112L137.764 57.2888C138.075 56.6657 138.712 56.2722 139.409 56.2722H140.571" stroke="#171717" stroke-linejoin="bevel"/>
<path d="M146.548 116.959L146.118 116.101C145.818 115.5 145.204 115.12 144.532 115.12V115.12C143.478 115.12 142.48 114.653 141.806 113.844L139.626 111.228C138.803 110.241 138.643 108.861 139.218 107.712L139.289 107.57C139.793 106.562 140.823 105.925 141.95 105.925V105.925C143.077 105.925 144.107 106.562 144.612 107.57L144.709 107.764C145.272 108.891 145.15 110.24 144.394 111.248L144.249 111.442L143.559 112.362M137.353 116.959L137.764 116.137C138.075 115.514 138.712 115.12 139.409 115.12H140.571" stroke="#171717" stroke-linejoin="bevel"/>
<path d="M175.972 87.5355L175.543 86.6773C175.243 86.0762 174.628 85.6965 173.956 85.6965V85.6965C172.903 85.6965 171.905 85.2287 171.23 84.4197L169.05 81.8037C168.228 80.817 168.068 79.4372 168.642 78.2885L168.713 78.1463C169.217 77.1382 170.248 76.5015 171.375 76.5015V76.5015C172.502 76.5015 173.532 77.1382 174.036 78.1463L174.133 78.3405C174.697 79.4675 174.575 80.8163 173.819 81.8243L173.674 82.0185L172.984 82.938M166.777 87.5355L167.189 86.7131C167.5 86.0901 168.137 85.6965 168.833 85.6965H169.996" stroke="#171717" stroke-linejoin="bevel"/>
<path d="M175.972 58.1112L175.543 57.253C175.243 56.6519 174.628 56.2722 173.956 56.2722V56.2722C172.903 56.2722 171.905 55.8044 171.23 54.9954L169.05 52.3794C168.228 51.3927 168.068 50.0129 168.642 48.8641L168.713 48.722C169.217 47.7139 170.248 47.0771 171.375 47.0771V47.0771C172.502 47.0771 173.532 47.7139 174.036 48.722L174.133 48.9162C174.697 50.0432 174.575 51.3919 173.819 52.4L173.674 52.5942L172.984 53.5137M166.777 58.1112L167.189 57.2888C167.5 56.6657 168.137 56.2722 168.833 56.2722H169.996" stroke="#171717" stroke-linejoin="bevel"/>
<path d="M205.396 87.5355L204.967 86.6773C204.667 86.0762 204.052 85.6965 203.38 85.6965V85.6965C202.327 85.6965 201.328 85.2287 200.654 84.4197L198.474 81.8037C197.652 80.817 197.492 79.4372 198.066 78.2885L198.137 78.1463C198.641 77.1382 199.672 76.5015 200.799 76.5015V76.5015C201.926 76.5015 202.956 77.1382 203.46 78.1463L203.557 78.3405C204.121 79.4675 203.999 80.8163 203.243 81.8243L203.097 82.0185L202.408 82.938M196.201 87.5355L196.612 86.7131C196.924 86.0901 197.561 85.6965 198.257 85.6965H199.419" stroke="#171717" stroke-linejoin="bevel"/>
<path d="M205.396 58.1112L204.967 57.253C204.667 56.6519 204.052 56.2722 203.38 56.2722V56.2722C202.327 56.2722 201.328 55.8044 200.654 54.9954L198.474 52.3794C197.652 51.3927 197.492 50.0129 198.066 48.8641L198.137 48.722C198.641 47.7139 199.672 47.0771 200.799 47.0771V47.0771C201.926 47.0771 202.956 47.7139 203.46 48.722L203.557 48.9162C204.121 50.0432 203.999 51.3919 203.243 52.4L203.097 52.5942L202.408 53.5137M196.201 58.1112L196.612 57.2888C196.924 56.6657 197.561 56.2722 198.257 56.2722H199.419" stroke="#171717" stroke-linejoin="bevel"/>
<path d="M234.82 87.5355L234.391 86.6773C234.09 86.0762 233.476 85.6965 232.804 85.6965V85.6965C231.751 85.6965 230.752 85.2287 230.078 84.4197L227.898 81.8037C227.076 80.817 226.916 79.4372 227.49 78.2885L227.561 78.1463C228.065 77.1382 229.095 76.5015 230.223 76.5015V76.5015C231.35 76.5015 232.38 77.1382 232.884 78.1463L232.981 78.3405C233.545 79.4675 233.423 80.8163 232.667 81.8243L232.521 82.0185L231.832 82.938M225.625 87.5355L226.036 86.7131C226.348 86.0901 226.985 85.6965 227.681 85.6965H228.843" stroke="#171717" stroke-linejoin="bevel"/>
<path d="M234.82 58.1112L234.391 57.253C234.09 56.6519 233.476 56.2722 232.804 56.2722V56.2722C231.751 56.2722 230.752 55.8044 230.078 54.9954L227.898 52.3794C227.076 51.3927 226.916 50.0129 227.49 48.8641L227.561 48.722C228.065 47.7139 229.095 47.0771 230.223 47.0771V47.0771C231.35 47.0771 232.38 47.7139 232.884 48.722L232.981 48.9162C233.545 50.0432 233.423 51.3919 232.667 52.4L232.521 52.5942L231.832 53.5137M225.625 58.1112L226.036 57.2888C226.348 56.6657 226.985 56.2722 227.681 56.2722H228.843" stroke="#171717" stroke-linejoin="bevel"/>
<path d="M234.82 116.959L234.391 116.101C234.09 115.5 233.476 115.12 232.804 115.12V115.12C231.751 115.12 230.752 114.653 230.078 113.844L227.898 111.228C227.076 110.241 226.916 108.861 227.49 107.712L227.561 107.57C228.065 106.562 229.095 105.925 230.223 105.925V105.925C231.35 105.925 232.38 106.562 232.884 107.57L232.981 107.764C233.545 108.891 233.423 110.24 232.667 111.248L232.521 111.442L231.832 112.362M225.625 116.959L226.036 116.137C226.348 115.514 226.985 115.12 227.681 115.12H228.843" stroke="#171717" stroke-linejoin="bevel"/>
<path d="M205.396 116.959L204.967 116.101C204.667 115.5 204.052 115.12 203.38 115.12V115.12C202.327 115.12 201.328 114.653 200.654 113.844L198.474 111.228C197.652 110.241 197.492 108.861 198.066 107.712L198.137 107.57C198.641 106.562 199.672 105.925 200.799 105.925V105.925C201.926 105.925 202.956 106.562 203.46 107.57L203.557 107.764C204.121 108.891 203.999 110.24 203.243 111.248L203.097 111.442L202.408 112.362M196.201 116.959L196.612 116.137C196.924 115.514 197.561 115.12 198.257 115.12H199.419" stroke="#171717" stroke-linejoin="bevel"/>
<path d="M175.972 116.959L175.543 116.101C175.243 115.5 174.628 115.12 173.956 115.12V115.12C172.903 115.12 171.905 114.653 171.23 113.844L169.05 111.228C168.228 110.241 168.068 108.861 168.642 107.712L168.713 107.57C169.217 106.562 170.248 105.925 171.375 105.925V105.925C172.502 105.925 173.532 106.562 174.036 107.57L174.133 107.764C174.697 108.891 174.575 110.24 173.819 111.248L173.674 111.442L172.984 112.362M166.777 116.959L167.189 116.137C167.5 115.514 168.137 115.12 168.833 115.12H169.996" stroke="#171717" stroke-linejoin="bevel"/>
<rect x="317" y="43" width="44.1362" height="14.7121" fill="#93C5FD" stroke="#93C5FD" stroke-width="0.919505" stroke-linejoin="bevel"/>
<rect x="346.424" y="43" width="14.7121" height="14.7121" fill="#93C5FD" stroke="#93C5FD" stroke-linejoin="bevel"/>
<rect x="317" y="101.848" width="161.833" height="14.7121" fill="#93C5FD" stroke="#93C5FD" stroke-width="0.919505" stroke-linejoin="bevel"/>
<rect x="375.849" y="101.848" width="14.7121" height="14.7121" fill="#93C5FD" stroke="#93C5FD" stroke-linejoin="bevel"/>
<rect x="434.696" y="101.848" width="14.7121" height="14.7121" fill="#93C5FD" stroke="#93C5FD" stroke-linejoin="bevel"/>
<rect x="346.424" y="101.848" width="14.7121" height="14.7121" fill="#93C5FD" stroke="#93C5FD" stroke-linejoin="bevel"/>
<rect x="405.272" y="101.848" width="14.7121" height="14.7121" fill="#93C5FD" stroke="#93C5FD" stroke-linejoin="bevel"/>
<rect x="464.121" y="101.848" width="14.7121" height="14.7121" fill="#93C5FD" stroke="#93C5FD" stroke-linejoin="bevel"/>
<rect x="317" y="72.4243" width="102.985" height="14.7121" fill="#93C5FD" stroke="#93C5FD" stroke-width="0.919505" stroke-linejoin="bevel"/>
<rect x="375.849" y="72.4243" width="14.7121" height="14.7121" fill="#93C5FD" stroke="#93C5FD" stroke-linejoin="bevel"/>
<rect x="346.424" y="72.4243" width="14.7121" height="14.7121" fill="#93C5FD" stroke="#93C5FD" stroke-linejoin="bevel"/>
<rect x="405.272" y="72.4243" width="14.7121" height="14.7121" fill="#93C5FD" stroke="#93C5FD" stroke-linejoin="bevel"/>
<rect x="318.839" y="44.8389" width="11.0341" height="11.0341" stroke="#171717" stroke-linejoin="bevel"/>
<rect x="318.839" y="74.2632" width="11.0341" height="11.0341" stroke="#171717" stroke-linejoin="bevel"/>
<rect x="318.839" y="103.688" width="11.0341" height="11.0341" stroke="#171717" stroke-linejoin="bevel"/>
<rect x="348.263" y="103.688" width="11.0341" height="11.0341" stroke="#171717" stroke-linejoin="bevel"/>
<rect x="377.688" y="103.688" width="11.0341" height="11.0341" stroke="#171717" stroke-linejoin="bevel"/>
<rect x="407.111" y="103.688" width="11.0341" height="11.0341" stroke="#171717" stroke-linejoin="bevel"/>
<rect x="436.535" y="103.688" width="11.0341" height="11.0341" stroke="#171717" stroke-linejoin="bevel"/>
<rect x="465.96" y="103.688" width="11.0341" height="11.0341" stroke="#171717" stroke-linejoin="bevel"/>
<rect x="407.111" y="74.2632" width="11.0341" height="11.0341" stroke="#171717" stroke-linejoin="bevel"/>
<rect x="377.688" y="74.2632" width="11.0341" height="11.0341" stroke="#171717" stroke-linejoin="bevel"/>
<rect x="348.263" y="74.2632" width="11.0341" height="11.0341" stroke="#171717" stroke-linejoin="bevel"/>
<rect x="377.688" y="44.8389" width="11.0341" height="11.0341" stroke="#171717" stroke-linejoin="bevel"/>
<rect x="348.263" y="44.8389" width="11.0341" height="11.0341" stroke="#171717" stroke-linejoin="bevel"/>
<rect x="436.535" y="44.8389" width="11.0341" height="11.0341" stroke="#171717" stroke-linejoin="bevel"/>
<rect x="495.384" y="44.8389" width="11.0341" height="11.0341" stroke="#171717" stroke-linejoin="bevel"/>
<rect x="554.232" y="44.8389" width="11.0341" height="11.0341" stroke="#171717" stroke-linejoin="bevel"/>
<rect x="407.111" y="44.8389" width="11.0341" height="11.0341" stroke="#171717" stroke-linejoin="bevel"/>
<rect x="465.96" y="44.8389" width="11.0341" height="11.0341" stroke="#171717" stroke-linejoin="bevel"/>
<rect x="524.808" y="44.8389" width="11.0341" height="11.0341" stroke="#171717" stroke-linejoin="bevel"/>
<rect x="583.656" y="44.8389" width="11.0341" height="11.0341" stroke="#171717" stroke-linejoin="bevel"/>
<rect x="554.232" y="103.688" width="11.0341" height="11.0341" stroke="#171717" stroke-linejoin="bevel"/>
<rect x="524.808" y="103.688" width="11.0341" height="11.0341" stroke="#171717" stroke-linejoin="bevel"/>
<rect x="495.384" y="103.688" width="11.0341" height="11.0341" stroke="#171717" stroke-linejoin="bevel"/>
<rect x="583.656" y="103.688" width="11.0341" height="11.0341" stroke="#171717" stroke-linejoin="bevel"/>
<rect x="436.535" y="74.2632" width="11.0341" height="11.0341" stroke="#171717" stroke-linejoin="bevel"/>
<rect x="495.384" y="74.2632" width="11.0341" height="11.0341" stroke="#171717" stroke-linejoin="bevel"/>
<rect x="465.96" y="74.2632" width="11.0341" height="11.0341" stroke="#171717" stroke-linejoin="bevel"/>
<rect x="554.232" y="74.2632" width="11.0341" height="11.0341" stroke="#171717" stroke-linejoin="bevel"/>
<rect x="524.808" y="74.2632" width="11.0341" height="11.0341" stroke="#171717" stroke-linejoin="bevel"/>
<rect x="583.656" y="74.2632" width="11.0341" height="11.0341" stroke="#171717" stroke-linejoin="bevel"/>
<rect x="50" y="139.028" width="573.771" height="205.969" stroke="#171717" stroke-linejoin="bevel"/>
<path d="M270.681 251.208L290.91 271.437L270.681 291.666L250.452 271.437L270.681 251.208Z" fill="#FBBF24" stroke="#FBBF24" stroke-width="0.919505" stroke-linejoin="bevel"/>
<circle cx="579.634" cy="242.012" r="20.2291" fill="#93C5FD" stroke="#93C5FD" stroke-width="0.919505" stroke-linejoin="bevel"/>
<rect x="154.823" y="258.563" width="69.8824" height="25.7461" rx="12.8731" fill="#FB923C" stroke="#FB923C" stroke-width="0.919505" stroke-linejoin="round"/>
<path d="M73.9072 225.461H98.7339L115.285 242.013L98.7339 258.564H73.9072V225.461Z" fill="#FBBF24" stroke="#FBBF24" stroke-width="0.919505" stroke-linejoin="bevel"/>
<path d="M346.081 242.013C346.081 220.684 363.371 203.394 384.7 203.394V203.394C406.029 203.394 423.319 220.684 423.319 242.013V242.013H346.081V242.013Z" fill="#4ADE80" stroke="#4ADE80" stroke-width="0.919505" stroke-linejoin="bevel"/>
<rect x="463.777" y="199.715" width="69.8824" height="25.7461" rx="12.8731" fill="#FB923C" stroke="#FB923C" stroke-width="0.919505" stroke-linejoin="round"/>
<path d="M75.7461 227.3H97.8142L112.526 242.012L97.8142 256.724H75.7461V227.3Z" stroke="#171717" stroke-linejoin="bevel"/>
<path d="M270.681 253.046L289.071 271.436L270.681 289.827L252.291 271.436L270.681 253.046Z" stroke="#171717" stroke-linejoin="bevel"/>
<path d="M270.681 194.198L289.071 212.588L270.681 230.978L252.291 212.588L270.681 194.198Z" stroke="#171717" stroke-linejoin="bevel"/>
<rect x="156.663" y="201.554" width="66.2043" height="22.0681" rx="11.0341" stroke="#171717" stroke-linejoin="bevel"/>
<rect x="465.616" y="260.403" width="66.2043" height="22.0681" rx="11.0341" stroke="#171717" stroke-linejoin="bevel"/>
<rect x="156.663" y="260.403" width="66.2043" height="22.0681" rx="11.0341" stroke="#171717" stroke-linejoin="round"/>
<rect x="465.616" y="201.554" width="66.2043" height="22.0681" rx="11.0341" stroke="#171717" stroke-linejoin="bevel"/>
<path d="M112.526 242.013H127.238M127.238 242.013V271.437H156.663M127.238 242.013V212.588H156.663" stroke="#171717" stroke-linejoin="bevel"/>
<path d="M421.48 242.013H450.905M450.905 242.013V271.437H465.617M450.905 242.013V212.588H465.617" stroke="#171717" stroke-linejoin="bevel"/>
<path d="M347.92 242.013H318.495M318.495 242.013V271.437H289.071M318.495 242.013V212.588H289.071" stroke="#171717" stroke-linejoin="bevel"/>
<path d="M561.244 242.013H546.532M546.532 242.013V271.437H531.82M546.532 242.013V212.588H531.82" stroke="#171717" stroke-linejoin="bevel"/>
<path d="M252.291 271.437H222.867M222.867 212.588H252.291" stroke="#171717" stroke-linejoin="bevel"/>
<circle cx="384.7" cy="242.013" r="36.7802" stroke="#171717" stroke-linejoin="bevel"/>
<circle cx="579.635" cy="242.013" r="18.3901" stroke="#171717" stroke-width="0.919505" stroke-linejoin="bevel"/>
<g filter="url(#filter0_dd_3097_602419)">
<rect x="425.158" y="321.09" width="218.842" height="169.189" rx="14.7121" fill="#F5F5F5"/>
</g>
<rect x="443" y="337.711" width="40.3985" height="40.3985" rx="12.1196" fill="#FBBF24"/>
<path fill-rule="evenodd" clip-rule="evenodd" d="M456.398 363.355H470.001C470.362 363.354 470.708 363.211 470.963 362.956C471.218 362.701 471.361 362.355 471.362 361.995V352.473C471.361 352.112 471.218 351.766 470.963 351.511C470.708 351.256 470.362 351.113 470.001 351.112H456.398C456.038 351.113 455.692 351.256 455.437 351.511C455.182 351.766 455.038 352.112 455.038 352.473V361.995C455.038 362.355 455.182 362.701 455.437 362.956C455.692 363.211 456.038 363.355 456.398 363.355ZM456.398 361.995V352.473H470.001V361.995H456.398ZM453.678 364.715H472.722V366.076H453.678V364.715Z" fill="#171717"/>
<rect x="490.848" y="337.711" width="40.3985" height="40.3985" rx="12.1196" fill="#4ADE80"/>
<g clip-path="url(#clip1_3097_602419)">
<path fill-rule="evenodd" clip-rule="evenodd" d="M508.612 364.361L512.162 351.11L513.476 351.462L509.926 364.713L508.612 364.361ZM500.846 357.911L505.607 353.15L506.566 354.109L502.771 357.911L506.566 361.713L505.607 362.672L500.846 357.911ZM521.25 357.911L516.489 362.672L515.53 361.713L519.325 357.911L515.53 354.109L516.489 353.15L521.25 357.911Z" fill="#171717"/>
</g>
<rect x="538.696" y="337.711" width="40.3985" height="40.3985" rx="12.1196" fill="#93C5FD"/>
<path fill-rule="evenodd" clip-rule="evenodd" d="M557.536 352.47H554.815V349.749H553.455V352.47H550.734V353.83H553.455V356.55H554.815V353.83H557.536V352.47ZM557.536 359.951H550.734V361.311H557.536V359.951ZM550.734 363.352H557.536V364.712H550.734V363.352ZM567.058 352.469H560.256V353.83H567.058V352.469ZM567.058 359.55L564.616 361.992L567.058 364.433L566.099 365.392L563.657 362.951L561.215 365.392L560.256 364.433L562.698 361.992L560.256 359.55L561.215 358.591L563.657 361.033L566.099 358.591L567.058 359.55Z" fill="#171717"/>
<rect x="586.545" y="337.711" width="40.3985" height="40.3985" rx="12.1196" fill="#FB923C"/>
<path d="M614.384 363.092L609.465 356.329V349.749H610.826V348.389H602.664V349.749H604.024V356.329L599.106 363.092C598.809 363.5 598.631 363.982 598.592 364.484C598.552 364.987 598.652 365.491 598.881 365.94C599.109 366.389 599.458 366.767 599.888 367.03C600.318 367.293 600.812 367.433 601.316 367.433H612.173C612.677 367.433 613.172 367.293 613.602 367.03C614.032 366.767 614.38 366.389 614.609 365.94C614.838 365.491 614.938 364.987 614.898 364.484C614.858 363.982 614.68 363.5 614.384 363.092V363.092ZM605.384 356.772V349.749H608.105V356.772L609.923 359.271H603.567L605.384 356.772ZM612.173 366.073H601.316C601.063 366.072 600.815 366.002 600.599 365.87C600.383 365.738 600.208 365.548 600.093 365.322C599.978 365.097 599.928 364.844 599.948 364.591C599.967 364.339 600.057 364.097 600.206 363.892L602.577 360.631H610.912L613.284 363.892C613.433 364.097 613.522 364.339 613.542 364.591C613.562 364.844 613.512 365.097 613.397 365.322C613.282 365.548 613.107 365.738 612.891 365.87C612.675 366.002 612.427 366.072 612.173 366.073V366.073Z" fill="#171717"/>
<rect x="443" y="384.11" width="40.3985" height="40.3985" rx="12.1196" fill="#4ADE80"/>
<path fill-rule="evenodd" clip-rule="evenodd" d="M466.601 394.787H467.281C467.822 394.766 468.362 394.857 468.867 395.054C469.372 395.252 469.83 395.552 470.213 395.935C470.596 396.318 470.896 396.777 471.094 397.281C471.291 397.786 471.383 398.326 471.362 398.868V405.669C471.362 406.03 471.218 406.376 470.963 406.631C470.708 406.886 470.362 407.029 470.001 407.029H467.961V413.831H466.601V394.787ZM467.961 405.669H470.001V398.868C470.001 398.616 469.92 396.589 467.961 396.208V405.669ZM461.84 400.908C461.84 401.63 461.553 402.322 461.043 402.832C460.533 403.342 459.841 403.629 459.119 403.629C458.397 403.629 457.705 403.342 457.195 402.832C456.685 402.322 456.398 401.63 456.398 400.908V394.787H455.038V400.908C455.039 401.872 455.381 402.804 456.003 403.54C456.626 404.276 457.489 404.767 458.439 404.928V413.831H459.799V404.928C460.749 404.767 461.612 404.276 462.234 403.54C462.857 402.804 463.199 401.872 463.2 400.908V394.787H461.84V400.908ZM459.799 394.787H458.439V401.588H459.799V394.787Z" fill="#171717"/>
<rect x="490.849" y="384.11" width="40.3985" height="40.3985" rx="12.1196" fill="#93C5FD"/>
<path d="M513.769 404.309C513.769 405.211 514.127 406.076 514.765 406.714C515.403 407.352 516.268 407.71 517.17 407.71C518.072 407.71 518.937 407.352 519.574 406.714C520.212 406.076 520.57 405.211 520.57 404.309C520.571 404.204 520.546 404.099 520.499 404.005L517.779 398.566C517.77 398.547 517.76 398.529 517.748 398.511C517.687 398.412 517.602 398.331 517.501 398.274C517.4 398.218 517.286 398.188 517.17 398.188H512.968C512.865 397.903 512.701 397.645 512.486 397.432C512.272 397.218 512.013 397.055 511.729 396.953V394.787H510.368V396.953C510.083 397.055 509.825 397.218 509.61 397.432C509.396 397.645 509.232 397.903 509.129 398.188H504.927C504.801 398.188 504.677 398.223 504.57 398.289C504.462 398.356 504.375 398.451 504.319 398.564L501.598 404.005C501.551 404.099 501.526 404.204 501.526 404.309C501.526 405.211 501.885 406.076 502.522 406.714C503.16 407.352 504.025 407.71 504.927 407.71C505.829 407.71 506.694 407.352 507.332 406.714C507.97 406.076 508.328 405.211 508.328 404.309C508.328 404.204 508.303 404.099 508.256 404.005L506.028 399.548H509.129C509.232 399.833 509.396 400.091 509.61 400.304C509.825 400.518 510.083 400.681 510.368 400.783V412.471H504.247V413.831H517.85V412.471H511.729V400.783C512.013 400.681 512.272 400.518 512.486 400.304C512.701 400.091 512.865 399.833 512.968 399.548H516.069L513.841 404.005C513.794 404.099 513.769 404.204 513.769 404.309ZM504.927 406.35C504.507 406.348 504.097 406.217 503.754 405.973C503.411 405.73 503.152 405.386 503.012 404.989H506.842C506.702 405.386 506.443 405.73 506.1 405.973C505.757 406.217 505.348 406.348 504.927 406.35V406.35ZM506.547 403.629H503.307L504.927 400.389L506.547 403.629ZM511.048 399.548C510.914 399.548 510.782 399.508 510.671 399.434C510.559 399.359 510.472 399.253 510.42 399.128C510.369 399.004 510.355 398.867 510.381 398.735C510.408 398.603 510.472 398.482 510.567 398.387C510.663 398.292 510.784 398.227 510.916 398.201C511.048 398.175 511.184 398.188 511.309 398.24C511.433 398.291 511.539 398.378 511.614 398.49C511.689 398.602 511.729 398.733 511.729 398.868C511.728 399.048 511.657 399.221 511.529 399.349C511.402 399.476 511.229 399.548 511.048 399.548V399.548ZM517.17 406.35C516.749 406.348 516.339 406.217 515.997 405.973C515.654 405.73 515.395 405.386 515.255 404.989H519.084C518.944 405.386 518.685 405.73 518.343 405.973C518 406.217 517.59 406.348 517.17 406.35V406.35ZM517.17 400.389L518.79 403.629H515.55L517.17 400.389Z" fill="#171717"/>
<rect x="538.696" y="384.11" width="40.3985" height="40.3985" rx="12.1196" fill="#FB923C"/>
<path fill-rule="evenodd" clip-rule="evenodd" d="M559.576 398.188H560.256C560.617 398.188 560.963 398.044 561.218 397.789C561.473 397.534 561.616 397.188 561.617 396.828V396.147H560.936C560.576 396.148 560.23 396.291 559.975 396.546C559.72 396.801 559.577 397.147 559.576 397.508V398.188ZM560.749 399.231C561.422 399.017 562.121 398.895 562.827 398.868C565.95 398.868 567.058 401.799 567.058 404.309C567.058 409.417 564.29 412.47 561.617 412.471C561.033 412.44 560.46 412.304 559.924 412.07C559.598 411.924 559.251 411.83 558.896 411.791C558.542 411.83 558.196 411.924 557.87 412.07C557.335 412.304 556.761 412.44 556.177 412.471H556.176C553.501 412.47 550.734 409.417 550.734 404.309C550.734 400.953 552.306 398.868 554.837 398.868C555.57 398.899 556.296 399.021 556.998 399.232C557.379 399.33 557.746 399.421 558.098 399.48C557.937 398.914 557.596 398.415 557.126 398.059C556.657 397.703 556.084 397.51 555.495 397.508V396.148C556.453 396.149 557.379 396.487 558.113 397.102C558.846 397.717 559.341 398.57 559.509 399.512C559.928 399.445 560.342 399.351 560.749 399.231ZM560.399 410.795C560.784 410.968 561.196 411.075 561.617 411.111C563.622 411.11 565.698 408.566 565.698 404.309C565.698 403.628 565.559 400.228 562.827 400.228C562.242 400.258 561.663 400.364 561.106 400.544C560.445 400.753 559.761 400.876 559.068 400.909H558.734C558.031 400.872 557.335 400.752 556.66 400.55C556.068 400.369 555.455 400.261 554.837 400.228C552.362 400.228 552.095 403.083 552.095 404.309C552.095 408.565 554.169 411.109 556.176 411.111C556.597 411.075 557.01 410.968 557.396 410.795C557.87 410.585 558.378 410.462 558.896 410.431C559.415 410.462 559.924 410.585 560.399 410.795Z" fill="#171717"/>
<rect x="586.545" y="384.11" width="40.3985" height="40.3985" rx="12.1196" fill="#FBBF24"/>
<path d="M612.186 394.787H601.304C600.943 394.787 600.597 394.93 600.342 395.186C600.087 395.441 599.943 395.787 599.943 396.147V398.868C599.943 399.229 600.087 399.575 600.342 399.83C600.597 400.085 600.943 400.228 601.304 400.228V412.471C601.304 412.832 601.447 413.178 601.702 413.433C601.957 413.688 602.303 413.831 602.664 413.831H610.826C611.186 413.831 611.532 413.688 611.788 413.433C612.043 413.178 612.186 412.832 612.186 412.471V400.228C612.547 400.228 612.893 400.085 613.148 399.83C613.403 399.575 613.546 399.229 613.546 398.868V396.147C613.546 395.787 613.403 395.441 613.148 395.186C612.893 394.93 612.547 394.787 612.186 394.787ZM602.664 402.949H604.704V409.75H602.664V402.949ZM610.826 412.471H602.664V411.111H606.065V401.589H602.664V400.228H610.826V412.471ZM601.304 398.868V396.147H612.186V398.868H601.304Z" fill="#171717"/>
<rect x="443" y="430.508" width="40.3985" height="40.3985" rx="12.1196" fill="#FB923C"/>
<path fill-rule="evenodd" clip-rule="evenodd" d="M454.766 455.129C454.086 453.768 453.678 452.272 453.678 450.708C453.678 445.47 457.963 441.186 463.2 441.186V442.546C458.711 442.546 455.038 446.219 455.038 450.708C455.038 452.068 455.378 453.292 455.99 454.448L454.766 455.129ZM471.361 450.708C471.361 455.197 467.688 458.869 463.199 458.869C461.227 458.869 459.39 458.189 457.962 456.965L461.839 453.088L460.886 452.068L456.465 456.489C456.193 456.761 456.193 457.169 456.465 457.441C458.234 459.209 460.682 460.23 463.199 460.23C468.436 460.23 472.721 455.945 472.721 450.708H471.361ZM464.289 456.761C464.357 456.829 464.493 456.829 464.561 456.829C464.697 456.829 464.833 456.761 464.969 456.693L467.69 454.652C467.894 454.516 467.962 454.312 467.962 454.108V450.299L470.002 448.259C470.886 447.375 471.362 446.219 471.362 444.926V443.906C471.362 443.158 470.75 442.546 470.002 442.546H468.982C467.758 442.546 466.533 443.022 465.649 443.906L463.609 445.947H459.8C459.596 445.947 459.392 446.015 459.188 446.151L457.147 448.871C457.011 449.075 457.011 449.347 457.079 449.551C457.147 449.755 457.351 449.959 457.623 449.959L461.024 450.435L461.228 449.075L458.984 448.803L460.14 447.307H463.881C464.085 447.307 464.221 447.239 464.357 447.103L466.533 444.926C467.145 444.246 468.03 443.906 468.914 443.906H469.934V444.994C469.934 445.879 469.526 446.763 468.914 447.375L466.737 449.551C466.601 449.687 466.533 449.823 466.533 450.027V453.7L465.037 454.856L464.765 452.612L463.405 452.816L463.881 456.217C463.881 456.489 464.085 456.693 464.289 456.761Z" fill="#171717"/>
<rect x="490.849" y="430.508" width="40.3985" height="40.3985" rx="12.1196" fill="#FBBF24"/>
<path fill-rule="evenodd" clip-rule="evenodd" d="M520.571 442.147L518.739 443.979L519.482 444.722C519.611 444.845 519.714 444.993 519.784 445.157C519.854 445.32 519.891 445.496 519.891 445.675C519.891 445.853 519.854 446.029 519.784 446.193C519.714 446.356 519.611 446.504 519.482 446.627L507.24 458.869H502.887V454.516L515.129 442.274C515.252 442.145 515.4 442.042 515.564 441.972C515.727 441.902 515.903 441.866 516.082 441.866C516.26 441.866 516.436 441.902 516.6 441.972C516.763 442.042 516.911 442.145 517.034 442.274L517.777 443.017L519.609 441.186L520.571 442.147ZM504.247 457.509H506.696L518.53 445.675L516.082 443.226L504.247 455.061V457.509ZM506.287 447.705L511.447 442.546L512.409 443.508L507.249 448.667L506.287 447.705Z" fill="#171717"/>
<rect x="538.696" y="430.508" width="40.3985" height="40.3985" rx="12.1196" fill="#4ADE80"/>
<path d="M568.418 448.667C568.418 447.685 568.225 446.712 567.849 445.804C567.473 444.896 566.922 444.072 566.227 443.377C565.532 442.682 564.707 442.131 563.8 441.755C562.892 441.379 561.919 441.186 560.937 441.186H555.495C553.872 441.186 552.315 441.83 551.167 442.978C550.019 444.126 549.374 445.683 549.374 447.307V449.347C549.374 450.249 549.732 451.114 550.37 451.752C551.008 452.39 551.873 452.748 552.775 452.748H553.523C553.68 453.516 554.097 454.207 554.704 454.702C555.312 455.198 556.072 455.469 556.856 455.469H557.794L560.515 460.23L561.691 459.55L558.971 454.863C558.861 454.643 558.694 454.456 558.487 454.323C558.28 454.19 558.04 454.116 557.794 454.108H556.856C556.314 454.108 555.795 453.893 555.413 453.511C555.03 453.128 554.815 452.609 554.815 452.068C554.815 451.527 555.03 451.008 555.413 450.625C555.795 450.242 556.314 450.027 556.856 450.027H557.536V448.667H556.856C556.072 448.667 555.312 448.938 554.704 449.433C554.097 449.929 553.68 450.62 553.523 451.388H552.775C552.234 451.388 551.715 451.173 551.332 450.79C550.949 450.407 550.734 449.888 550.734 449.347V447.987H552.095C552.636 447.987 553.155 447.772 553.537 447.389C553.92 447.007 554.135 446.488 554.135 445.947V445.266H552.775V445.947C552.775 446.127 552.703 446.3 552.576 446.428C552.448 446.555 552.275 446.627 552.095 446.627H550.789C550.952 445.495 551.518 444.459 552.382 443.71C553.246 442.96 554.351 442.547 555.495 442.546H559.576V443.906C559.576 444.087 559.505 444.26 559.377 444.387C559.249 444.515 559.076 444.586 558.896 444.586H557.536V445.947H558.896C559.437 445.947 559.956 445.732 560.339 445.349C560.722 444.966 560.937 444.447 560.937 443.906V442.546C562.075 442.547 563.191 442.866 564.158 443.467C565.125 444.068 565.906 444.927 566.412 445.947H565.698C565.156 445.947 564.637 446.162 564.255 446.544C563.872 446.927 563.657 447.446 563.657 447.987V448.667H565.017V447.987C565.017 447.807 565.089 447.634 565.217 447.506C565.344 447.379 565.517 447.307 565.698 447.307H566.901C567.006 447.753 567.058 448.209 567.058 448.667V449.347C567.058 450.249 566.7 451.114 566.062 451.752C565.424 452.39 564.559 452.748 563.657 452.748H561.617V454.108H563.657C564.363 454.107 565.06 453.949 565.698 453.646V454.108C565.698 454.65 565.483 455.169 565.1 455.551C564.717 455.934 564.198 456.149 563.657 456.149H562.977V457.509H563.657C564.559 457.509 565.424 457.151 566.062 456.513C566.7 455.875 567.058 455.01 567.058 454.108V452.673C567.928 451.785 568.417 450.591 568.418 449.347V448.667Z" fill="#171717"/>
<rect x="586.545" y="430.508" width="40.3985" height="40.3985" rx="12.1196" fill="#93C5FD"/>
<path fill-rule="evenodd" clip-rule="evenodd" d="M608.105 443.226V444.586H605.929C605.48 446.509 604.565 448.292 603.262 449.776C604.246 450.78 605.434 451.561 606.745 452.068L606.262 453.319C604.79 452.728 603.456 451.839 602.344 450.708C601.212 451.824 599.878 452.715 598.413 453.333L597.903 452.068C599.206 451.516 600.396 450.727 601.412 449.742C600.493 448.621 599.8 447.332 599.372 445.947H600.8C601.147 446.979 601.674 447.942 602.358 448.79C603.407 447.582 604.151 446.141 604.527 444.586H597.223V443.226H601.984V441.186H603.344V443.226H608.105ZM616.267 459.549H614.805L613.716 456.829H609.057L607.969 459.549H606.507L610.588 449.347H612.186L616.267 459.549ZM611.384 451.007L609.602 455.469H613.172L611.384 451.007Z" fill="#171717"/>
</g>
<rect x="0.5" y="0.5" width="671" height="511" rx="15.5" stroke="#171717"/>
<defs>
<filter id="filter0_dd_3097_602419" x="401.251" y="315.573" width="266.656" height="217.003" filterUnits="userSpaceOnUse" color-interpolation-filters="sRGB">
<feFlood flood-opacity="0" result="BackgroundImageFix"/>
<feColorMatrix in="SourceAlpha" type="matrix" values="0 0 0 0 0 0 0 0 0 0 0 0 0 0 0 0 0 0 127 0" result="hardAlpha"/>
<feOffset dy="7.35604"/>
<feGaussianBlur stdDeviation="4.59752"/>
<feComposite in2="hardAlpha" operator="out"/>
<feColorMatrix type="matrix" values="0 0 0 0 0 0 0 0 0 0 0 0 0 0 0 0 0 0 0.08 0"/>
<feBlend mode="normal" in2="BackgroundImageFix" result="effect1_dropShadow_3097_602419"/>
<feColorMatrix in="SourceAlpha" type="matrix" values="0 0 0 0 0 0 0 0 0 0 0 0 0 0 0 0 0 0 127 0" result="hardAlpha"/>
<feOffset dy="18.3901"/>
<feGaussianBlur stdDeviation="11.9536"/>
<feComposite in2="hardAlpha" operator="out"/>
<feColorMatrix type="matrix" values="0 0 0 0 0 0 0 0 0 0 0 0 0 0 0 0 0 0 0.03 0"/>
<feBlend mode="normal" in2="effect1_dropShadow_3097_602419" result="effect2_dropShadow_3097_602419"/>
<feBlend mode="normal" in="SourceGraphic" in2="effect2_dropShadow_3097_602419" result="shape"/>
</filter>
<clipPath id="clip0_3097_602419">
<rect width="672" height="512" rx="16" fill="white"/>
</clipPath>
<clipPath id="clip1_3097_602419">
<rect width="21.7647" height="21.7647" fill="white" transform="translate(500.165 347.028)"/>
</clipPath>
</defs>
</svg>
