<svg width="229" height="33" viewBox="0 0 229 33" fill="none" xmlns="http://www.w3.org/2000/svg">
<path d="M9.45613 31.6841C9.21566 32.1804 8.70457 32.5 8.1542 32.5C7.93422 32.5 7.72221 32.4513 7.52386 32.3543C2.98544 30.1545 0.587891 26.278 0.587891 21.1426V15.3423C0.587891 14.5444 1.23644 13.8958 2.03411 13.8958C2.83149 13.8958 3.48061 14.5444 3.48061 15.3423V21.1423C3.48061 25.148 5.26518 28.0444 8.78624 29.7524C9.50309 30.1007 9.80417 30.9673 9.45613 31.6841ZM5.17639 18.241C5.17639 19.0612 5.84116 19.7254 6.66046 19.7254C7.48032 19.7254 8.14509 19.0612 8.14509 18.241V6.40495C8.14509 5.58452 7.48061 4.9206 6.66046 4.9206C5.84116 4.9206 5.17639 5.58452 5.17639 6.40495V18.241ZM9.7686 17.897C9.7686 18.7166 10.4331 19.381 11.2524 19.381C12.0722 19.381 12.7367 18.7166 12.7367 17.897V1.98321C12.7367 1.16335 12.0722 0.5 11.2524 0.5C10.4331 0.5 9.7686 1.16335 9.7686 1.98321V17.897ZM14.3605 18.992C14.3605 19.8119 15.025 20.4758 15.8443 20.4758C16.6644 20.4758 17.3289 19.8119 17.3289 18.992V4.70632C17.3289 3.88645 16.6644 3.22197 15.8443 3.22197C15.025 3.22197 14.3605 3.88645 14.3605 4.70632V18.992ZM18.9524 20.8828C18.9524 21.6781 19.597 22.3224 20.3918 22.3224C21.1869 22.3224 21.8315 21.6781 21.8315 20.8828V11.2279C21.8315 10.4326 21.1869 9.78799 20.3918 9.78799C19.597 9.78799 18.9524 10.4326 18.9524 11.2279V20.8828Z" fill="#171717"/>
<path d="M37.2006 18.1565L37.2032 18.0675C39.0711 17.4255 40.2291 16.302 40.2291 14.2966V13.9886C40.2291 11.6861 38.3568 9.792 34.539 9.792H29.2578V27.7624H34.9223C38.6329 27.7624 41.1801 25.897 41.1801 22.9107V22.7317C41.1804 20.4019 39.8085 18.6955 37.2006 18.1565ZM31.5686 11.8202H34.2091C36.7262 11.8202 38.0097 12.7732 38.0097 14.4804V14.6608C38.0097 16.7217 36.2282 17.3819 33.8876 17.3819H31.5686V11.8202ZM38.813 22.7046C38.813 24.928 37.0615 25.7596 34.5057 25.7596H31.5686V19.2818H34.5472C37.0632 19.2818 38.813 20.1178 38.813 22.4221V22.7046ZM48.7322 14.1563H49.3995V16.2613H48.8605C46.7035 16.2613 45.2914 17.3392 45.2914 20.1898V27.7621H43.136V14.1563H45.2914V16.5954H45.3944C45.7794 15.3637 46.7811 14.1563 48.7322 14.1563ZM51.3181 14.1563H53.4752V27.7627H51.3181V14.1563ZM53.7117 11.1039C53.7117 12.1548 53.2333 12.6472 52.3961 12.6472C51.5586 12.6472 51.0797 12.1548 51.0797 11.1039C51.0797 10.0532 51.5586 9.53076 52.3961 9.53076C53.2336 9.53076 53.7117 10.053 53.7117 11.1039ZM65.4371 24.0143C65.4371 26.6332 63.4855 28.0188 60.6363 28.0188C57.7609 28.0188 55.8611 26.7866 55.7072 24.0143H57.864C57.9408 25.6833 59.1727 26.2226 60.6363 26.2226C62.0993 26.2226 63.2803 25.5806 63.2803 24.1676C63.2803 20.8566 55.8611 23.142 55.8611 17.7769C55.8611 15.5419 57.5043 13.8993 60.5077 13.8993C63.2553 13.8993 65.078 15.2601 65.2834 17.9044H63.1266C62.9983 16.3125 61.8944 15.6964 60.5077 15.6964C58.9417 15.6964 57.9664 16.4152 57.9664 17.7772C57.9661 20.9852 65.4371 19.0083 65.4371 24.0143ZM70.4121 14.1563H73.3389V16.0561H70.4121V23.5774C70.4121 25.5544 70.9263 25.965 72.2351 25.965C72.5942 25.965 73.0051 25.9135 73.3389 25.8879V27.7371C72.9286 27.8139 72.389 27.8649 72.0043 27.8649C69.3344 27.8649 68.2564 26.8122 68.2564 23.9104V16.0561H65.9712V14.1563H68.2564V9.79229H70.4121V14.1563ZM79.7091 13.8993C76.3455 13.8993 74.5486 16.2103 74.5486 19.9582V21.9608C74.5486 25.7086 76.3452 28.0191 79.7091 28.0191C83.0714 28.0191 84.8682 25.7086 84.8682 21.9608V19.9582C84.8682 16.2103 83.0717 13.8993 79.7091 13.8993ZM82.687 21.8321C82.687 25.0669 81.5572 26.1193 79.7091 26.1193C77.8603 26.1193 76.7316 25.0669 76.7316 21.8321V20.0863C76.7316 16.8515 77.8605 15.7991 79.7091 15.7991C81.5572 15.7991 82.687 16.8515 82.687 20.0863V21.8321ZM87.1477 9.79229H89.3048V27.7618H87.1477V9.79229ZM110.105 9.79229H113.765V27.7627H111.48V12.2829H111.352L106.756 24.7875H103.958L99.4149 12.2829H99.2866V27.7627H97.0276V9.79229H100.866L105.396 22.2746H105.525L110.105 9.79229ZM124.252 14.1563H126.434L120.401 32.1264H118.168L119.683 27.8643L115.266 14.1557H117.551L120.812 24.759H120.914L124.252 14.1563ZM132.227 13.8993C128.865 13.8993 127.068 16.3122 127.068 19.9582V21.9608C127.068 25.7086 128.865 28.0191 132.227 28.0191C134.923 28.0191 136.514 26.5302 137.053 23.9889H134.846C134.461 25.5547 133.588 26.1196 132.227 26.1196C130.38 26.1196 129.25 25.0672 129.25 21.8324V21.6528H137.13V19.9582C137.131 16.3125 135.591 13.8993 132.227 13.8993ZM132.227 15.7994C133.975 15.7994 134.921 16.8279 134.947 19.9582H129.254C129.283 16.8279 130.405 15.7994 132.227 15.7994ZM145.126 14.1563H145.793V16.2613H145.254C143.098 16.2613 141.686 17.3392 141.686 20.1898V27.7621H139.53V14.1563H141.686V16.5954H141.789C142.173 15.3637 143.175 14.1563 145.126 14.1563ZM156.678 24.0143C156.678 26.6332 154.728 28.0188 151.877 28.0188C149.002 28.0188 147.104 26.7866 146.948 24.0143H149.105C149.182 25.6833 150.415 26.2226 151.877 26.2226C153.34 26.2226 154.521 25.5806 154.521 24.1676C154.521 20.8566 147.104 23.142 147.104 17.7769C147.104 15.5419 148.746 13.8993 151.749 13.8993C154.495 13.8993 156.32 15.2601 156.524 17.9044H154.367C154.24 16.3125 153.136 15.6964 151.749 15.6964C150.183 15.6964 149.208 16.4152 149.208 17.7772C149.208 20.9852 156.678 19.0083 156.678 24.0143ZM173.817 23.0126C173.817 26.222 171.61 28.0191 168.22 28.0191C165.037 28.0191 162.419 26.479 162.085 23.039H164.472C164.755 25.0672 166.193 26.0165 168.194 26.0165C170.48 26.0165 171.507 24.656 171.507 23.142C171.507 18.0322 162.368 20.9852 162.368 14.2849C162.368 11.4098 164.653 9.53588 167.836 9.53588C170.916 9.53588 173.484 11.0501 173.639 14.5931H171.25C171.045 12.411 169.659 11.5382 167.811 11.5382C165.628 11.5382 164.678 12.8222 164.678 14.1819C164.678 18.7004 173.817 16.0302 173.817 23.0126ZM183.561 15.7994H183.455C182.873 14.5985 181.766 13.8996 180.352 13.8996C176.988 13.8996 175.448 16.2106 175.448 19.9588V21.9608C175.448 25.7092 176.988 28.0191 180.352 28.0191C181.766 28.0191 182.874 27.3205 183.455 26.1198H183.561V27.7627V32.1269H185.718V14.1563H183.561V15.7994ZM180.608 26.1196C178.761 26.1196 177.63 25.0672 177.63 21.8324V20.0865C177.63 16.8518 178.761 15.7994 180.608 15.7994C182.456 15.7994 183.587 16.8518 183.587 20.0865V21.8324C183.587 25.0672 182.456 26.1196 180.608 26.1196ZM195.621 14.1563H197.778V27.7627H195.621V26.0163H195.519C195.005 27.1201 193.901 28.0188 192.182 28.0188C189.641 28.0188 188.073 26.5806 188.073 23.3717V14.1563H190.256V23.0646C190.256 25.2468 191.155 26.1967 192.773 26.1967C194.338 26.1967 195.621 25.144 195.621 22.5V14.1563ZM200.547 14.1563H202.703V27.7627H200.547V14.1563ZM210.96 13.8993C209.526 13.8993 208.432 14.5982 207.855 15.7991H207.752V14.1563V9.79229H205.596V27.7627H207.752V26.1198H207.855C208.432 27.3205 209.526 28.0191 210.96 28.0191C214.323 28.0191 215.863 25.7092 215.863 21.9608V19.9588C215.864 16.2103 214.324 13.8993 210.96 13.8993ZM213.682 21.8321C213.682 25.0669 212.553 26.1193 210.705 26.1193C208.856 26.1193 207.727 25.0669 207.727 21.8321V20.0863C207.727 16.8515 208.856 15.7991 210.705 15.7991C212.553 15.7991 213.682 16.8515 213.682 20.0863V21.8321ZM223.346 13.8993C221.91 13.8993 220.816 14.5982 220.239 15.7991H220.136V14.1563V9.79229H217.981V27.7627H220.136V26.1198H220.239C220.816 27.3205 221.91 28.0191 223.346 28.0191C226.708 28.0191 228.249 25.7092 228.249 21.9608V19.9588C228.248 16.2103 226.708 13.8993 223.346 13.8993ZM226.067 21.8321C226.067 25.0669 224.937 26.1193 223.088 26.1193C221.241 26.1193 220.11 25.0669 220.11 21.8321V20.0863C220.11 16.8515 221.241 15.7991 223.088 15.7991C224.937 15.7991 226.067 16.8515 226.067 20.0863V21.8321ZM202.941 11.1039C202.941 12.1548 202.462 12.6472 201.625 12.6472C200.789 12.6472 200.31 12.1548 200.31 11.1039C200.31 10.0532 200.789 9.53076 201.625 9.53076C202.462 9.53076 202.941 10.053 202.941 11.1039Z" fill="#171717"/>
</svg>
