<svg width="672" height="512" viewBox="0 0 672 512" fill="none" xmlns="http://www.w3.org/2000/svg">
<g clip-path="url(#clip0_3068_344290)">
<rect width="672" height="512" rx="16" fill="white"/>
<rect x="49" y="368" width="117.697" height="119.755" stroke="#171717" stroke-width="0.919505" stroke-linejoin="bevel"/>
<path d="M93.2027 395.944L106.076 395.952L107.915 399.622H122.627V421.69H93.2027V395.944Z" stroke="#171717" stroke-width="0.919505" stroke-linejoin="bevel"/>
<path d="M92.3452 441.82C91.0101 441.82 90.1163 441.301 89.5315 440.529L90.3259 439.767C90.9108 440.462 91.5618 440.793 92.3893 440.793C93.3603 440.793 93.901 440.33 93.901 439.514C93.901 438.852 93.5589 438.509 92.6321 438.355L91.7935 438.223C90.337 437.98 89.8184 437.108 89.8184 436.082C89.8184 434.636 90.8335 433.853 92.4666 433.853C93.6803 433.853 94.541 434.272 95.0706 434.968L94.2982 435.74C93.8789 435.221 93.3162 434.879 92.4666 434.879C91.5618 434.879 91.0652 435.276 91.0652 436.027C91.0652 436.656 91.3963 437.009 92.3452 437.163L93.1617 437.307C94.552 437.561 95.1478 438.355 95.1478 439.447C95.1478 440.871 94.1548 441.82 92.3452 441.82ZM100.12 441.82C98.4206 441.82 97.4165 440.661 97.4165 438.84C97.4165 437.02 98.4317 435.861 100.109 435.861C101.278 435.861 101.974 436.413 102.327 437.207L101.389 437.715C101.19 437.185 100.771 436.854 100.109 436.854C99.2041 436.854 98.6744 437.461 98.6744 438.366V439.315C98.6744 440.209 99.193 440.827 100.131 440.827C100.837 440.827 101.267 440.474 101.532 439.922L102.415 440.462C102.051 441.257 101.312 441.82 100.12 441.82ZM107.409 441.82C105.732 441.82 104.706 440.661 104.706 438.84C104.706 437.02 105.732 435.861 107.409 435.861C109.086 435.861 110.112 437.02 110.112 438.84C110.112 440.661 109.086 441.82 107.409 441.82ZM107.409 440.871C108.281 440.871 108.855 440.33 108.855 439.271V438.41C108.855 437.351 108.281 436.81 107.409 436.81C106.537 436.81 105.964 437.351 105.964 438.41V439.271C105.964 440.33 106.537 440.871 107.409 440.871ZM112.436 441.687V440.716H113.948V436.965H112.436V435.994H115.151V437.505H115.217C115.438 436.711 115.934 435.994 117.093 435.994H117.777V437.141H116.651C115.669 437.141 115.151 437.792 115.151 438.587V440.716H117.214V441.687H112.436ZM122.528 441.82C120.785 441.82 119.759 440.661 119.759 438.852C119.759 437.02 120.818 435.861 122.44 435.861C124.04 435.861 125.055 437.009 125.055 438.686V439.138H120.972V439.326C120.972 440.22 121.568 440.849 122.55 440.849C123.278 440.849 123.808 440.507 124.128 439.977L124.878 440.639C124.492 441.301 123.698 441.82 122.528 441.82ZM122.44 436.777C121.579 436.777 120.972 437.406 120.972 438.289V438.366H123.83V438.256C123.83 437.362 123.278 436.777 122.44 436.777ZM96.4698 460.687H95.1567L98.0145 454.012H95.0133V455.435H93.943V452.985H99.2503V454.067L96.4698 460.687ZM102.777 462.21H101.707L105.425 452.301H106.495L102.777 462.21ZM114.524 460.687H109.261V459.661H111.423V453.89H111.335L109.548 455.799L108.786 455.115L110.75 452.985H112.659V459.661H114.524V460.687ZM119.099 460.82C117.146 460.82 116.274 459.352 116.274 456.836C116.274 454.321 117.146 452.853 119.099 452.853C121.052 452.853 121.923 454.321 121.923 456.836C121.923 459.352 121.052 460.82 119.099 460.82ZM119.099 459.805C120.224 459.805 120.655 458.911 120.655 457.498V456.174C120.655 454.762 120.224 453.868 119.099 453.868C117.973 453.868 117.543 454.762 117.543 456.174V457.498C117.543 458.911 117.973 459.805 119.099 459.805ZM119.099 457.487C118.591 457.487 118.415 457.256 118.415 456.958V456.715C118.415 456.417 118.591 456.185 119.099 456.185C119.606 456.185 119.783 456.417 119.783 456.715V456.958C119.783 457.256 119.606 457.487 119.099 457.487Z" fill="#171717"/>
<rect x="166.697" y="368" width="117.697" height="119.755" stroke="#171717" stroke-width="0.919505" stroke-linejoin="bevel"/>
<path d="M210.899 395.944L223.772 395.952L225.611 399.622H240.323V421.69H210.899V395.944Z" stroke="#171717" stroke-width="0.919505" stroke-linejoin="bevel"/>
<path d="M210.042 441.82C208.707 441.82 207.813 441.301 207.228 440.529L208.023 439.767C208.607 440.462 209.258 440.793 210.086 440.793C211.057 440.793 211.598 440.33 211.598 439.514C211.598 438.852 211.256 438.509 210.329 438.355L209.49 438.223C208.034 437.98 207.515 437.108 207.515 436.082C207.515 434.636 208.53 433.853 210.163 433.853C211.377 433.853 212.238 434.272 212.767 434.968L211.995 435.74C211.576 435.221 211.013 434.879 210.163 434.879C209.258 434.879 208.762 435.276 208.762 436.027C208.762 436.656 209.093 437.009 210.042 437.163L210.858 437.307C212.249 437.561 212.844 438.355 212.844 439.447C212.844 440.871 211.851 441.82 210.042 441.82ZM217.816 441.82C216.117 441.82 215.113 440.661 215.113 438.84C215.113 437.02 216.128 435.861 217.805 435.861C218.975 435.861 219.67 436.413 220.023 437.207L219.085 437.715C218.887 437.185 218.467 436.854 217.805 436.854C216.901 436.854 216.371 437.461 216.371 438.366V439.315C216.371 440.209 216.89 440.827 217.828 440.827C218.534 440.827 218.964 440.474 219.229 439.922L220.112 440.462C219.747 441.257 219.008 441.82 217.816 441.82ZM225.106 441.82C223.429 441.82 222.402 440.661 222.402 438.84C222.402 437.02 223.429 435.861 225.106 435.861C226.783 435.861 227.809 437.02 227.809 438.84C227.809 440.661 226.783 441.82 225.106 441.82ZM225.106 440.871C225.977 440.871 226.551 440.33 226.551 439.271V438.41C226.551 437.351 225.977 436.81 225.106 436.81C224.234 436.81 223.66 437.351 223.66 438.41V439.271C223.66 440.33 224.234 440.871 225.106 440.871ZM230.133 441.687V440.716H231.645V436.965H230.133V435.994H232.847V437.505H232.913C233.134 436.711 233.631 435.994 234.789 435.994H235.473V437.141H234.348C233.366 437.141 232.847 437.792 232.847 438.587V440.716H234.911V441.687H230.133ZM240.225 441.82C238.481 441.82 237.455 440.661 237.455 438.852C237.455 437.02 238.514 435.861 240.136 435.861C241.736 435.861 242.752 437.009 242.752 438.686V439.138H238.669V439.326C238.669 440.22 239.265 440.849 240.247 440.849C240.975 440.849 241.505 440.507 241.825 439.977L242.575 440.639C242.189 441.301 241.394 441.82 240.225 441.82ZM240.136 436.777C239.276 436.777 238.669 437.406 238.669 438.289V438.366H241.527V438.256C241.527 437.362 240.975 436.777 240.136 436.777ZM214.321 460.82C212.6 460.82 211.573 459.661 211.573 457.818C211.573 455.59 213.085 453.824 214.376 452.985H216.031C214.255 454.243 213.239 455.259 212.853 456.925L212.931 456.947C213.262 456.34 213.78 455.821 214.762 455.821C216.086 455.821 217.057 456.748 217.057 458.216C217.057 459.749 215.976 460.82 214.321 460.82ZM214.31 459.827C215.248 459.827 215.788 459.297 215.788 458.37V458.26C215.788 457.333 215.248 456.803 214.31 456.803C213.383 456.803 212.842 457.333 212.842 458.26V458.37C212.842 459.297 213.383 459.827 214.31 459.827ZM220.474 462.21H219.403L223.122 452.301H224.192L220.474 462.21ZM232.22 460.687H226.957V459.661H229.12V453.89H229.032L227.244 455.799L226.483 455.115L228.447 452.985H230.356V459.661H232.22V460.687ZM236.795 460.82C234.842 460.82 233.971 459.352 233.971 456.836C233.971 454.321 234.842 452.853 236.795 452.853C238.748 452.853 239.62 454.321 239.62 456.836C239.62 459.352 238.748 460.82 236.795 460.82ZM236.795 459.805C237.921 459.805 238.351 458.911 238.351 457.498V456.174C238.351 454.762 237.921 453.868 236.795 453.868C235.67 453.868 235.24 454.762 235.24 456.174V457.498C235.24 458.911 235.67 459.805 236.795 459.805ZM236.795 457.487C236.288 457.487 236.111 457.256 236.111 456.958V456.715C236.111 456.417 236.288 456.185 236.795 456.185C237.303 456.185 237.479 456.417 237.479 456.715V456.958C237.479 457.256 237.303 457.487 236.795 457.487Z" fill="#171717"/>
<rect x="284.393" y="368" width="117.697" height="119.755" stroke="#171717" stroke-width="0.919505" stroke-linejoin="bevel"/>
<path d="M328.596 395.944L341.469 395.952L343.308 399.622H358.02V421.69H328.596V395.944Z" stroke="#171717" stroke-width="0.919505" stroke-linejoin="bevel"/>
<path d="M327.738 441.82C326.403 441.82 325.51 441.301 324.925 440.529L325.719 439.767C326.304 440.462 326.955 440.793 327.783 440.793C328.754 440.793 329.294 440.33 329.294 439.514C329.294 438.852 328.952 438.509 328.025 438.355L327.187 438.223C325.73 437.98 325.212 437.108 325.212 436.082C325.212 434.636 326.227 433.853 327.86 433.853C329.074 433.853 329.934 434.272 330.464 434.968L329.691 435.74C329.272 435.221 328.709 434.879 327.86 434.879C326.955 434.879 326.458 435.276 326.458 436.027C326.458 436.656 326.79 437.009 327.738 437.163L328.555 437.307C329.945 437.561 330.541 438.355 330.541 439.447C330.541 440.871 329.548 441.82 327.738 441.82ZM335.513 441.82C333.814 441.82 332.81 440.661 332.81 438.84C332.81 437.02 333.825 435.861 335.502 435.861C336.672 435.861 337.367 436.413 337.72 437.207L336.782 437.715C336.583 437.185 336.164 436.854 335.502 436.854C334.597 436.854 334.068 437.461 334.068 438.366V439.315C334.068 440.209 334.586 440.827 335.524 440.827C336.23 440.827 336.661 440.474 336.925 439.922L337.808 440.462C337.444 441.257 336.705 441.82 335.513 441.82ZM342.802 441.82C341.125 441.82 340.099 440.661 340.099 438.84C340.099 437.02 341.125 435.861 342.802 435.861C344.48 435.861 345.506 437.02 345.506 438.84C345.506 440.661 344.48 441.82 342.802 441.82ZM342.802 440.871C343.674 440.871 344.248 440.33 344.248 439.271V438.41C344.248 437.351 343.674 436.81 342.802 436.81C341.931 436.81 341.357 437.351 341.357 438.41V439.271C341.357 440.33 341.931 440.871 342.802 440.871ZM347.83 441.687V440.716H349.341V436.965H347.83V435.994H350.544V437.505H350.61C350.831 436.711 351.327 435.994 352.486 435.994H353.17V437.141H352.045C351.063 437.141 350.544 437.792 350.544 438.587V440.716H352.607V441.687H347.83ZM357.921 441.82C356.178 441.82 355.152 440.661 355.152 438.852C355.152 437.02 356.211 435.861 357.833 435.861C359.433 435.861 360.448 437.009 360.448 438.686V439.138H356.366V439.326C356.366 440.22 356.961 440.849 357.943 440.849C358.672 440.849 359.201 440.507 359.521 439.977L360.272 440.639C359.885 441.301 359.091 441.82 357.921 441.82ZM357.833 436.777C356.972 436.777 356.366 437.406 356.366 438.289V438.366H359.223V438.256C359.223 437.362 358.672 436.777 357.833 436.777ZM334.721 455.854C334.721 458.083 333.209 459.849 331.918 460.687H330.263C332.04 459.429 333.055 458.414 333.441 456.748L333.364 456.726C333.033 457.333 332.514 457.852 331.532 457.852C330.208 457.852 329.237 456.925 329.237 455.457C329.237 453.923 330.318 452.853 331.973 452.853C333.695 452.853 334.721 454.012 334.721 455.854ZM331.984 456.869C332.911 456.869 333.452 456.34 333.452 455.413V455.303C333.452 454.376 332.911 453.846 331.984 453.846C331.046 453.846 330.506 454.376 330.506 455.303V455.413C330.506 456.34 331.046 456.869 331.984 456.869ZM338.17 462.21H337.1L340.818 452.301H341.889L338.17 462.21ZM349.917 460.687H344.654V459.661H346.817V453.89H346.728L344.941 455.799L344.179 455.115L346.143 452.985H348.052V459.661H349.917V460.687ZM354.492 460.82C352.539 460.82 351.667 459.352 351.667 456.836C351.667 454.321 352.539 452.853 354.492 452.853C356.445 452.853 357.317 454.321 357.317 456.836C357.317 459.352 356.445 460.82 354.492 460.82ZM354.492 459.805C355.617 459.805 356.048 458.911 356.048 457.498V456.174C356.048 454.762 355.617 453.868 354.492 453.868C353.366 453.868 352.936 454.762 352.936 456.174V457.498C352.936 458.911 353.366 459.805 354.492 459.805ZM354.492 457.487C353.984 457.487 353.808 457.256 353.808 456.958V456.715C353.808 456.417 353.984 456.185 354.492 456.185C355 456.185 355.176 456.417 355.176 456.715V456.958C355.176 457.256 355 457.487 354.492 457.487Z" fill="#171717"/>
<rect x="101.492" y="344.997" width="14.7121" height="3.67802" fill="#F5F5F5" stroke="#171717" stroke-width="0.919505" stroke-linejoin="bevel"/>
<rect x="219.189" y="344.997" width="14.7121" height="3.67802" fill="#F5F5F5" stroke="#171717" stroke-width="0.919505" stroke-linejoin="bevel"/>
<rect x="403" y="420" width="3.67802" height="14.7121" fill="#F5F5F5" stroke="#171717" stroke-width="0.919505" stroke-linejoin="bevel"/>
<path d="M109 349V368" stroke="#171717" stroke-width="0.919505" stroke-linejoin="bevel"/>
<path d="M227 349V368" stroke="#171717" stroke-width="0.919505" stroke-linejoin="bevel"/>
<rect x="336" y="345" width="14.7121" height="3.67802" fill="#F5F5F5" stroke="#171717" stroke-width="0.919505" stroke-linejoin="bevel"/>
<path d="M343 349V368" stroke="#171717" stroke-width="0.919505" stroke-linejoin="bevel"/>
<path d="M432.424 427.356H406.678" stroke="#171717" stroke-width="0.919505" stroke-linejoin="bevel"/>
<path d="M171.375 135.35V109.604H112.526V50.7554H230.223V109.604H200.799V80.1795H141.95" stroke="#171717" stroke-width="0.919505" stroke-linejoin="bevel"/>
<rect x="164.019" y="135.35" width="14.7121" height="3.67802" fill="#F5F5F5" stroke="#171717" stroke-width="0.919505" stroke-linejoin="bevel"/>
<circle cx="171.375" cy="80.1796" r="11.0341" fill="#F5F5F5" stroke="#171717" stroke-width="0.919505" stroke-linejoin="bevel"/>
<circle cx="171.375" cy="50.7555" r="11.0341" fill="#F5F5F5" stroke="#171717" stroke-width="0.919505" stroke-linejoin="bevel"/>
<circle cx="200.799" cy="80.1796" r="11.0341" fill="#F5F5F5" stroke="#171717" stroke-width="0.919505" stroke-linejoin="bevel"/>
<circle cx="200.799" cy="50.7555" r="11.0341" fill="#F5F5F5" stroke="#171717" stroke-width="0.919505" stroke-linejoin="bevel"/>
<circle cx="230.223" cy="80.1796" r="11.0341" fill="#F5F5F5" stroke="#171717" stroke-width="0.919505" stroke-linejoin="bevel"/>
<circle cx="230.223" cy="50.7555" r="11.0341" fill="#F5F5F5" stroke="#171717" stroke-width="0.919505" stroke-linejoin="bevel"/>
<circle cx="230.223" cy="109.604" r="11.0341" fill="#F5F5F5" stroke="#171717" stroke-width="0.919505" stroke-linejoin="bevel"/>
<circle cx="200.799" cy="109.604" r="11.0341" fill="#F5F5F5" stroke="#171717" stroke-width="0.919505" stroke-linejoin="bevel"/>
<circle cx="171.375" cy="109.604" r="11.0341" fill="#F5F5F5" stroke="#171717" stroke-width="0.919505" stroke-linejoin="bevel"/>
<circle cx="141.95" cy="80.1796" r="11.0341" fill="#F5F5F5" stroke="#171717" stroke-width="0.919505" stroke-linejoin="bevel"/>
<circle cx="141.95" cy="50.7555" r="11.0341" fill="#F5F5F5" stroke="#171717" stroke-width="0.919505" stroke-linejoin="bevel"/>
<circle cx="141.95" cy="109.604" r="11.0341" fill="#F5F5F5" stroke="#171717" stroke-width="0.919505" stroke-linejoin="bevel"/>
<circle cx="112.526" cy="80.1796" r="11.0341" fill="#F5F5F5" stroke="#171717" stroke-width="0.919505" stroke-linejoin="bevel"/>
<circle cx="112.526" cy="50.7555" r="11.0341" fill="#F5F5F5" stroke="#171717" stroke-width="0.919505" stroke-linejoin="bevel"/>
<circle cx="112.526" cy="109.604" r="11.0341" fill="#F5F5F5" stroke="#171717" stroke-width="0.919505" stroke-linejoin="bevel"/>
<path d="M117.124 87.5355L116.695 86.6773C116.394 86.0762 115.78 85.6965 115.108 85.6965V85.6965C114.055 85.6965 113.056 85.2287 112.382 84.4197L110.202 81.8037C109.38 80.817 109.219 79.4372 109.794 78.2885L109.865 78.1463C110.369 77.1382 111.399 76.5015 112.526 76.5015V76.5015C113.653 76.5015 114.684 77.1382 115.188 78.1463L115.285 78.3405C115.848 79.4675 115.727 80.8163 114.971 81.8243L114.825 82.0185L114.135 82.938M107.929 87.5355L108.34 86.7131C108.652 86.0901 109.288 85.6965 109.985 85.6965H111.147" stroke="#171717" stroke-width="0.919505" stroke-linejoin="bevel"/>
<path d="M117.124 58.1114L116.695 57.2532C116.394 56.6521 115.78 56.2724 115.108 56.2724V56.2724C114.055 56.2724 113.056 55.8047 112.382 54.9957L110.202 52.3796C109.38 51.3929 109.219 50.0131 109.794 48.8644L109.865 48.7223C110.369 47.7142 111.399 47.0774 112.526 47.0774V47.0774C113.653 47.0774 114.684 47.7142 115.188 48.7223L115.285 48.9164C115.848 50.0435 115.727 51.3922 114.971 52.4003L114.825 52.5944L114.135 53.5139M107.929 58.1114L108.34 57.289C108.652 56.666 109.288 56.2724 109.985 56.2724H111.147" stroke="#171717" stroke-width="0.919505" stroke-linejoin="bevel"/>
<path d="M117.124 116.96L116.695 116.102C116.394 115.501 115.78 115.121 115.108 115.121V115.121C114.055 115.121 113.056 114.653 112.382 113.844L110.202 111.228C109.38 110.241 109.219 108.862 109.794 107.713L109.865 107.571C110.369 106.563 111.399 105.926 112.526 105.926V105.926C113.653 105.926 114.684 106.563 115.188 107.571L115.285 107.765C115.848 108.892 115.727 110.241 114.971 111.249L114.825 111.443L114.135 112.362M107.929 116.96L108.34 116.137C108.652 115.514 109.288 115.121 109.985 115.121H111.147" stroke="#171717" stroke-width="0.919505" stroke-linejoin="bevel"/>
<path d="M146.548 87.5355L146.119 86.6773C145.818 86.0762 145.204 85.6965 144.532 85.6965V85.6965C143.479 85.6965 142.48 85.2287 141.806 84.4197L139.626 81.8037C138.804 80.817 138.644 79.4372 139.218 78.2885L139.289 78.1463C139.793 77.1382 140.823 76.5015 141.95 76.5015V76.5015C143.078 76.5015 144.108 77.1382 144.612 78.1463L144.709 78.3405C145.273 79.4675 145.151 80.8163 144.395 81.8243L144.249 82.0185L143.56 82.938M137.353 87.5355L137.764 86.7131C138.076 86.0901 138.712 85.6965 139.409 85.6965H140.571" stroke="#171717" stroke-width="0.919505" stroke-linejoin="bevel"/>
<path d="M146.548 58.1114L146.119 57.2532C145.818 56.6521 145.204 56.2724 144.532 56.2724V56.2724C143.479 56.2724 142.48 55.8047 141.806 54.9957L139.626 52.3796C138.804 51.3929 138.644 50.0131 139.218 48.8644L139.289 48.7223C139.793 47.7142 140.823 47.0774 141.95 47.0774V47.0774C143.078 47.0774 144.108 47.7142 144.612 48.7223L144.709 48.9164C145.273 50.0435 145.151 51.3922 144.395 52.4003L144.249 52.5944L143.56 53.5139M137.353 58.1114L137.764 57.289C138.076 56.666 138.712 56.2724 139.409 56.2724H140.571" stroke="#171717" stroke-width="0.919505" stroke-linejoin="bevel"/>
<path d="M146.548 116.96L146.119 116.102C145.818 115.501 145.204 115.121 144.532 115.121V115.121C143.479 115.121 142.48 114.653 141.806 113.844L139.626 111.228C138.804 110.241 138.644 108.862 139.218 107.713L139.289 107.571C139.793 106.563 140.823 105.926 141.95 105.926V105.926C143.078 105.926 144.108 106.563 144.612 107.571L144.709 107.765C145.273 108.892 145.151 110.241 144.395 111.249L144.249 111.443L143.56 112.362M137.353 116.96L137.764 116.137C138.076 115.514 138.712 115.121 139.409 115.121H140.571" stroke="#171717" stroke-width="0.919505" stroke-linejoin="bevel"/>
<path d="M175.972 87.5355L175.543 86.6773C175.242 86.0762 174.628 85.6965 173.956 85.6965V85.6965C172.903 85.6965 171.904 85.2287 171.23 84.4197L169.05 81.8037C168.228 80.817 168.068 79.4372 168.642 78.2885L168.713 78.1463C169.217 77.1382 170.248 76.5015 171.375 76.5015V76.5015C172.502 76.5015 173.532 77.1382 174.036 78.1463L174.133 78.3405C174.697 79.4675 174.575 80.8163 173.819 81.8243L173.673 82.0185L172.984 82.938M166.777 87.5355L167.188 86.7131C167.5 86.0901 168.137 85.6965 168.833 85.6965H169.995" stroke="#171717" stroke-width="0.919505" stroke-linejoin="bevel"/>
<path d="M175.972 58.1114L175.543 57.2532C175.242 56.6521 174.628 56.2724 173.956 56.2724V56.2724C172.903 56.2724 171.904 55.8047 171.23 54.9957L169.05 52.3796C168.228 51.3929 168.068 50.0131 168.642 48.8644L168.713 48.7223C169.217 47.7142 170.248 47.0774 171.375 47.0774V47.0774C172.502 47.0774 173.532 47.7142 174.036 48.7223L174.133 48.9164C174.697 50.0435 174.575 51.3922 173.819 52.4003L173.673 52.5944L172.984 53.5139M166.777 58.1114L167.188 57.289C167.5 56.666 168.137 56.2724 168.833 56.2724H169.995" stroke="#171717" stroke-width="0.919505" stroke-linejoin="bevel"/>
<path d="M205.396 87.5355L204.967 86.6773C204.667 86.0762 204.052 85.6965 203.38 85.6965V85.6965C202.327 85.6965 201.328 85.2287 200.654 84.4197L198.474 81.8037C197.652 80.817 197.492 79.4372 198.066 78.2885L198.137 78.1463C198.641 77.1382 199.672 76.5015 200.799 76.5015V76.5015C201.926 76.5015 202.956 77.1382 203.46 78.1463L203.557 78.3405C204.121 79.4675 203.999 80.8163 203.243 81.8243L203.098 82.0185L202.408 82.938M196.201 87.5355L196.612 86.7131C196.924 86.0901 197.561 85.6965 198.257 85.6965H199.419" stroke="#171717" stroke-width="0.919505" stroke-linejoin="bevel"/>
<path d="M205.396 58.1114L204.967 57.2532C204.667 56.6521 204.052 56.2724 203.38 56.2724V56.2724C202.327 56.2724 201.328 55.8047 200.654 54.9957L198.474 52.3796C197.652 51.3929 197.492 50.0131 198.066 48.8644L198.137 48.7223C198.641 47.7142 199.672 47.0774 200.799 47.0774V47.0774C201.926 47.0774 202.956 47.7142 203.46 48.7223L203.557 48.9164C204.121 50.0435 203.999 51.3922 203.243 52.4003L203.098 52.5944L202.408 53.5139M196.201 58.1114L196.612 57.289C196.924 56.666 197.561 56.2724 198.257 56.2724H199.419" stroke="#171717" stroke-width="0.919505" stroke-linejoin="bevel"/>
<path d="M234.82 87.5355L234.391 86.6773C234.091 86.0762 233.476 85.6965 232.804 85.6965V85.6965C231.751 85.6965 230.753 85.2287 230.078 84.4197L227.898 81.8037C227.076 80.817 226.916 79.4372 227.49 78.2885L227.561 78.1463C228.065 77.1382 229.096 76.5015 230.223 76.5015V76.5015C231.35 76.5015 232.38 77.1382 232.884 78.1463L232.981 78.3405C233.545 79.4675 233.423 80.8163 232.667 81.8243L232.522 82.0185L231.832 82.938M225.625 87.5355L226.037 86.7131C226.348 86.0901 226.985 85.6965 227.681 85.6965H228.844" stroke="#171717" stroke-width="0.919505" stroke-linejoin="bevel"/>
<path d="M234.82 58.1114L234.391 57.2532C234.091 56.6521 233.476 56.2724 232.804 56.2724V56.2724C231.751 56.2724 230.753 55.8047 230.078 54.9957L227.898 52.3796C227.076 51.3929 226.916 50.0131 227.49 48.8644L227.561 48.7223C228.065 47.7142 229.096 47.0774 230.223 47.0774V47.0774C231.35 47.0774 232.38 47.7142 232.884 48.7223L232.981 48.9164C233.545 50.0435 233.423 51.3922 232.667 52.4003L232.522 52.5944L231.832 53.5139M225.625 58.1114L226.037 57.289C226.348 56.666 226.985 56.2724 227.681 56.2724H228.844" stroke="#171717" stroke-width="0.919505" stroke-linejoin="bevel"/>
<path d="M234.82 116.96L234.391 116.102C234.091 115.501 233.476 115.121 232.804 115.121V115.121C231.751 115.121 230.753 114.653 230.078 113.844L227.898 111.228C227.076 110.241 226.916 108.862 227.49 107.713L227.561 107.571C228.065 106.563 229.096 105.926 230.223 105.926V105.926C231.35 105.926 232.38 106.563 232.884 107.571L232.981 107.765C233.545 108.892 233.423 110.241 232.667 111.249L232.522 111.443L231.832 112.362M225.625 116.96L226.037 116.137C226.348 115.514 226.985 115.121 227.681 115.121H228.844" stroke="#171717" stroke-width="0.919505" stroke-linejoin="bevel"/>
<path d="M205.396 116.96L204.967 116.102C204.667 115.501 204.052 115.121 203.38 115.121V115.121C202.327 115.121 201.328 114.653 200.654 113.844L198.474 111.228C197.652 110.241 197.492 108.862 198.066 107.713L198.137 107.571C198.641 106.563 199.672 105.926 200.799 105.926V105.926C201.926 105.926 202.956 106.563 203.46 107.571L203.557 107.765C204.121 108.892 203.999 110.241 203.243 111.249L203.098 111.443L202.408 112.362M196.201 116.96L196.612 116.137C196.924 115.514 197.561 115.121 198.257 115.121H199.419" stroke="#171717" stroke-width="0.919505" stroke-linejoin="bevel"/>
<path d="M175.972 116.96L175.543 116.102C175.242 115.501 174.628 115.121 173.956 115.121V115.121C172.903 115.121 171.904 114.653 171.23 113.844L169.05 111.228C168.228 110.241 168.068 108.862 168.642 107.713L168.713 107.571C169.217 106.563 170.248 105.926 171.375 105.926V105.926C172.502 105.926 173.532 106.563 174.036 107.571L174.133 107.765C174.697 108.892 174.575 110.241 173.819 111.249L173.673 111.443L172.984 112.362M166.777 116.96L167.188 116.137C167.5 115.514 168.137 115.121 168.833 115.121H169.995" stroke="#171717" stroke-width="0.919505" stroke-linejoin="bevel"/>
<rect x="50" y="139.028" width="573.771" height="205.969" stroke="#171717" stroke-width="0.919505" stroke-linejoin="bevel"/>
<path d="M270.681 251.208L290.91 271.437L270.681 291.666L250.452 271.437L270.681 251.208Z" fill="#FBBF24" stroke="#FBBF24" stroke-width="0.919505" stroke-linejoin="bevel"/>
<circle cx="579.635" cy="242.013" r="20.2291" fill="#7DD3FC" stroke="#7DD3FC" stroke-width="0.919505" stroke-linejoin="bevel"/>
<rect x="154.824" y="258.563" width="69.8824" height="25.7461" rx="12.8731" fill="#EA580C" stroke="#EA580C" stroke-width="0.919505" stroke-linejoin="round"/>
<path d="M73.9071 225.461H98.7337L115.285 242.013L98.7337 258.564H73.9071V225.461Z" fill="#FBBF24" stroke="#FBBF24" stroke-width="0.919505" stroke-linejoin="bevel"/>
<path d="M346.081 242.013C346.081 220.684 363.371 203.393 384.7 203.393V203.393C406.029 203.393 423.319 220.684 423.319 242.013V242.013H346.081V242.013Z" fill="#FBBF24" stroke="#FBBF24" stroke-width="0.919505" stroke-linejoin="bevel"/>
<rect x="463.777" y="199.715" width="69.8824" height="25.7461" rx="12.8731" fill="#F97316" stroke="#EA580C" stroke-width="0.919505" stroke-linejoin="round"/>
<path d="M75.7462 227.301H97.8143L112.526 242.013L97.8143 256.725H75.7462V227.301Z" stroke="#171717" stroke-width="0.919505" stroke-linejoin="bevel"/>
<path d="M270.681 253.047L289.071 271.437L270.681 289.827L252.291 271.437L270.681 253.047Z" stroke="#171717" stroke-width="0.919505" stroke-linejoin="bevel"/>
<path d="M270.681 194.198L289.071 212.588L270.681 230.978L252.291 212.588L270.681 194.198Z" stroke="#171717" stroke-width="0.919505" stroke-linejoin="bevel"/>
<rect x="156.663" y="201.554" width="66.2043" height="22.0681" rx="11.0341" stroke="#171717" stroke-width="0.919505" stroke-linejoin="bevel"/>
<rect x="465.616" y="260.403" width="66.2043" height="22.0681" rx="11.0341" stroke="#171717" stroke-width="0.919505" stroke-linejoin="bevel"/>
<rect x="156.663" y="260.403" width="66.2043" height="22.0681" rx="11.0341" stroke="#171717" stroke-width="0.919505" stroke-linejoin="round"/>
<rect x="465.616" y="201.554" width="66.2043" height="22.0681" rx="11.0341" stroke="#171717" stroke-width="0.919505" stroke-linejoin="bevel"/>
<path d="M112.526 242.013H127.238M127.238 242.013V271.437H156.663M127.238 242.013V212.588H156.663" stroke="#171717" stroke-width="0.919505" stroke-linejoin="bevel"/>
<path d="M421.48 242.013H450.904M450.904 242.013V271.437H465.616M450.904 242.013V212.588H465.616" stroke="#171717" stroke-width="0.919505" stroke-linejoin="bevel"/>
<path d="M347.92 242.013H318.495M318.495 242.013V271.437H289.071M318.495 242.013V212.588H289.071" stroke="#171717" stroke-width="0.919505" stroke-linejoin="bevel"/>
<path d="M561.245 242.013H546.533M546.533 242.013V271.437H531.82M546.533 242.013V212.588H531.82" stroke="#171717" stroke-width="0.919505" stroke-linejoin="bevel"/>
<path d="M252.291 271.437H222.867M222.867 212.588H252.291" stroke="#171717" stroke-width="0.919505" stroke-linejoin="bevel"/>
<circle cx="384.7" cy="242.013" r="36.7802" stroke="#171717" stroke-width="0.919505" stroke-linejoin="bevel"/>
<circle cx="579.635" cy="242.012" r="18.3901" stroke="#171717" stroke-width="0.919505" stroke-linejoin="bevel"/>
<path d="M169.596 271.888V275H168.372V267.298H171.252C172.708 267.298 173.514 268.181 173.514 269.615C173.514 270.785 172.918 271.602 171.847 271.778L173.624 275H172.256L170.623 271.888H169.596ZM169.596 270.895H171.075C171.847 270.895 172.223 270.553 172.223 269.847V269.373C172.223 268.666 171.847 268.324 171.075 268.324H169.596V270.895ZM178.375 275.132C176.632 275.132 175.606 273.974 175.606 272.164C175.606 270.333 176.665 269.174 178.287 269.174C179.887 269.174 180.902 270.322 180.902 271.999V272.451H176.819V272.639C176.819 273.532 177.415 274.161 178.397 274.161C179.126 274.161 179.655 273.819 179.975 273.29L180.726 273.952C180.339 274.614 179.545 275.132 178.375 275.132ZM178.287 270.09C177.426 270.09 176.819 270.719 176.819 271.602V271.679H179.677V271.568C179.677 270.675 179.126 270.09 178.287 270.09ZM183.524 277.207V276.236H186.04V270.277H183.458V269.306H187.242V275.761C187.242 276.611 186.768 277.207 185.775 277.207H183.524ZM186.646 268.269C186.04 268.269 185.819 267.982 185.819 267.618V267.387C185.819 267.022 186.04 266.735 186.635 266.735C187.242 266.735 187.463 267.022 187.463 267.387V267.618C187.463 267.982 187.242 268.269 186.646 268.269ZM193.373 275.132C191.63 275.132 190.603 273.974 190.603 272.164C190.603 270.333 191.663 269.174 193.285 269.174C194.885 269.174 195.9 270.322 195.9 271.999V272.451H191.817V272.639C191.817 273.532 192.413 274.161 193.395 274.161C194.123 274.161 194.653 273.819 194.973 273.29L195.723 273.952C195.337 274.614 194.543 275.132 193.373 275.132ZM193.285 270.09C192.424 270.09 191.817 270.719 191.817 271.602V271.679H194.675V271.568C194.675 270.675 194.123 270.09 193.285 270.09ZM200.96 275.132C199.261 275.132 198.257 273.974 198.257 272.153C198.257 270.333 199.272 269.174 200.949 269.174C202.119 269.174 202.814 269.726 203.167 270.52L202.229 271.028C202.03 270.498 201.611 270.167 200.949 270.167C200.044 270.167 199.515 270.774 199.515 271.679V272.628C199.515 273.521 200.033 274.139 200.971 274.139C201.677 274.139 202.108 273.786 202.372 273.235L203.255 273.775C202.891 274.57 202.152 275.132 200.96 275.132ZM210.765 275H208.591C207.598 275 207.135 274.404 207.135 273.555V270.277H205.38V269.306H206.627C207.047 269.306 207.212 269.163 207.212 268.722V267.298H208.338V269.306H210.765V270.277H208.338V274.029H210.765V275Z" fill="black"/>
<path d="M478.606 275H477.293L476.708 272.948H474.259L473.674 275H472.416L474.667 267.298H476.355L478.606 275ZM476.477 271.921L475.528 268.545H475.439L474.49 271.921H476.477ZM480.566 277.207V269.306H481.769V270.277H481.835C482.166 269.593 482.718 269.174 483.556 269.174C484.891 269.174 485.752 270.2 485.752 272.153C485.752 274.106 484.891 275.132 483.556 275.132C482.718 275.132 482.166 274.713 481.835 274.029H481.769V277.207H480.566ZM483.06 274.15C483.964 274.15 484.483 273.544 484.483 272.617V271.69C484.483 270.763 483.964 270.156 483.06 270.156C482.364 270.156 481.769 270.509 481.769 271.204V273.102C481.769 273.797 482.364 274.15 483.06 274.15ZM488.065 277.207V269.306H489.267V270.277H489.334C489.665 269.593 490.216 269.174 491.055 269.174C492.39 269.174 493.251 270.2 493.251 272.153C493.251 274.106 492.39 275.132 491.055 275.132C490.216 275.132 489.665 274.713 489.334 274.029H489.267V277.207H488.065ZM490.558 274.15C491.463 274.15 491.982 273.544 491.982 272.617V271.69C491.982 270.763 491.463 270.156 490.558 270.156C489.863 270.156 489.267 270.509 489.267 271.204V273.102C489.267 273.797 489.863 274.15 490.558 274.15ZM495.531 275V274.029H497.042V270.277H495.531V269.306H498.245V270.818H498.311C498.532 270.024 499.028 269.306 500.187 269.306H500.871V270.454H499.746C498.764 270.454 498.245 271.105 498.245 271.899V274.029H500.308V275H495.531ZM505.501 275.132C503.824 275.132 502.798 273.974 502.798 272.153C502.798 270.333 503.824 269.174 505.501 269.174C507.178 269.174 508.204 270.333 508.204 272.153C508.204 273.974 507.178 275.132 505.501 275.132ZM505.501 274.183C506.373 274.183 506.946 273.643 506.946 272.584V271.723C506.946 270.664 506.373 270.123 505.501 270.123C504.629 270.123 504.056 270.664 504.056 271.723V272.584C504.056 273.643 504.629 274.183 505.501 274.183ZM513.739 275H512.261L510.219 269.306H511.466L512.25 271.712L512.989 273.996H513.055L513.794 271.712L514.578 269.306H515.78L513.739 275ZM520.62 275.132C518.877 275.132 517.851 273.974 517.851 272.164C517.851 270.333 518.91 269.174 520.532 269.174C522.132 269.174 523.147 270.322 523.147 271.999V272.451H519.064V272.639C519.064 273.532 519.66 274.161 520.642 274.161C521.37 274.161 521.9 273.819 522.22 273.29L522.97 273.952C522.584 274.614 521.79 275.132 520.62 275.132ZM520.532 270.09C519.671 270.09 519.064 270.719 519.064 271.602V271.679H521.922V271.568C521.922 270.675 521.37 270.09 520.532 270.09Z" fill="black"/>
<path d="M169.606 216H168.293L167.708 213.948H165.259L164.674 216H163.416L165.667 208.298H167.355L169.606 216ZM167.477 212.921L166.528 209.545H166.439L165.49 212.921H167.477ZM171.566 218.207V210.306H172.769V211.277H172.835C173.166 210.593 173.718 210.174 174.556 210.174C175.891 210.174 176.752 211.2 176.752 213.153C176.752 215.106 175.891 216.132 174.556 216.132C173.718 216.132 173.166 215.713 172.835 215.029H172.769V218.207H171.566ZM174.06 215.15C174.964 215.15 175.483 214.544 175.483 213.617V212.69C175.483 211.763 174.964 211.156 174.06 211.156C173.364 211.156 172.769 211.509 172.769 212.204V214.102C172.769 214.797 173.364 215.15 174.06 215.15ZM179.065 218.207V210.306H180.267V211.277H180.334C180.665 210.593 181.216 210.174 182.055 210.174C183.39 210.174 184.251 211.2 184.251 213.153C184.251 215.106 183.39 216.132 182.055 216.132C181.216 216.132 180.665 215.713 180.334 215.029H180.267V218.207H179.065ZM181.558 215.15C182.463 215.15 182.982 214.544 182.982 213.617V212.69C182.982 211.763 182.463 211.156 181.558 211.156C180.863 211.156 180.267 211.509 180.267 212.204V214.102C180.267 214.797 180.863 215.15 181.558 215.15ZM186.531 216V215.029H188.042V211.277H186.531V210.306H189.245V211.818H189.311C189.532 211.024 190.028 210.306 191.187 210.306H191.871V211.454H190.746C189.764 211.454 189.245 212.105 189.245 212.899V215.029H191.308V216H186.531ZM196.501 216.132C194.824 216.132 193.798 214.974 193.798 213.153C193.798 211.333 194.824 210.174 196.501 210.174C198.178 210.174 199.204 211.333 199.204 213.153C199.204 214.974 198.178 216.132 196.501 216.132ZM196.501 215.183C197.373 215.183 197.946 214.643 197.946 213.584V212.723C197.946 211.664 197.373 211.123 196.501 211.123C195.629 211.123 195.056 211.664 195.056 212.723V213.584C195.056 214.643 195.629 215.183 196.501 215.183ZM204.739 216H203.261L201.219 210.306H202.466L203.25 212.712L203.989 214.996H204.055L204.794 212.712L205.578 210.306H206.78L204.739 216ZM211.62 216.132C209.877 216.132 208.851 214.974 208.851 213.164C208.851 211.333 209.91 210.174 211.532 210.174C213.132 210.174 214.147 211.322 214.147 212.999V213.451H210.064V213.639C210.064 214.532 210.66 215.161 211.642 215.161C212.37 215.161 212.9 214.819 213.22 214.29L213.97 214.952C213.584 215.614 212.79 216.132 211.62 216.132ZM211.532 211.09C210.671 211.09 210.064 211.719 210.064 212.602V212.679H212.922V212.568C212.922 211.675 212.37 211.09 211.532 211.09Z" fill="black"/>
<path d="M478.596 212.888V216H477.372V208.298H480.252C481.708 208.298 482.514 209.181 482.514 210.615C482.514 211.785 481.918 212.602 480.847 212.778L482.624 216H481.256L479.623 212.888H478.596ZM478.596 211.895H480.075C480.847 211.895 481.223 211.553 481.223 210.847V210.373C481.223 209.666 480.847 209.324 480.075 209.324H478.596V211.895ZM487.375 216.132C485.632 216.132 484.606 214.974 484.606 213.164C484.606 211.333 485.665 210.174 487.287 210.174C488.887 210.174 489.902 211.322 489.902 212.999V213.451H485.819V213.639C485.819 214.532 486.415 215.161 487.397 215.161C488.126 215.161 488.655 214.819 488.975 214.29L489.726 214.952C489.339 215.614 488.545 216.132 487.375 216.132ZM487.287 211.09C486.426 211.09 485.819 211.719 485.819 212.602V212.679H488.677V212.568C488.677 211.675 488.126 211.09 487.287 211.09ZM492.524 218.207V217.236H495.04V211.277H492.458V210.306H496.242V216.761C496.242 217.611 495.768 218.207 494.775 218.207H492.524ZM495.646 209.269C495.04 209.269 494.819 208.982 494.819 208.618V208.387C494.819 208.022 495.04 207.735 495.635 207.735C496.242 207.735 496.463 208.022 496.463 208.387V208.618C496.463 208.982 496.242 209.269 495.646 209.269ZM502.373 216.132C500.63 216.132 499.603 214.974 499.603 213.164C499.603 211.333 500.663 210.174 502.285 210.174C503.885 210.174 504.9 211.322 504.9 212.999V213.451H500.817V213.639C500.817 214.532 501.413 215.161 502.395 215.161C503.123 215.161 503.653 214.819 503.973 214.29L504.723 214.952C504.337 215.614 503.543 216.132 502.373 216.132ZM502.285 211.09C501.424 211.09 500.817 211.719 500.817 212.602V212.679H503.675V212.568C503.675 211.675 503.123 211.09 502.285 211.09ZM509.96 216.132C508.261 216.132 507.257 214.974 507.257 213.153C507.257 211.333 508.272 210.174 509.949 210.174C511.119 210.174 511.814 210.726 512.167 211.52L511.229 212.028C511.03 211.498 510.611 211.167 509.949 211.167C509.044 211.167 508.515 211.774 508.515 212.679V213.628C508.515 214.521 509.033 215.139 509.971 215.139C510.677 215.139 511.108 214.786 511.372 214.235L512.255 214.775C511.891 215.57 511.152 216.132 509.96 216.132ZM519.765 216H517.591C516.598 216 516.135 215.404 516.135 214.555V211.277H514.38V210.306H515.627C516.047 210.306 516.212 210.163 516.212 209.722V208.298H517.338V210.306H519.765V211.277H517.338V215.029H519.765V216Z" fill="black"/>
<g filter="url(#filter0_dd_3068_344290)">
<rect x="425.158" y="321.09" width="218.842" height="169.189" rx="14.7121" fill="white"/>
</g>
<g clip-path="url(#clip1_3068_344290)">
<path d="M546.778 422.488L517.98 419.458L506.203 392.969L523.223 369.512L552.02 372.543L563.798 399.031L546.778 422.488Z" stroke="#3F3F46" stroke-miterlimit="10"/>
<path d="M544.506 425.297L514.415 418.893L504.908 389.595L525.493 366.702L555.585 373.107L565.092 402.404L544.506 425.297Z" stroke="#3F3F46" stroke-miterlimit="10"/>
<path d="M541.796 428.015L510.71 417.901L503.915 385.886L528.205 363.985L559.292 374.099L566.088 406.114L541.797 428.014L541.796 428.015Z" stroke="#3F3F46" stroke-miterlimit="10"/>
<path d="M538.63 430.585L506.905 416.44L503.274 381.856L531.37 361.416L563.096 375.56L566.726 410.145L538.63 430.585H538.63Z" stroke="#3F3F46" stroke-miterlimit="10"/>
<path d="M535.001 432.949L503.045 414.475V377.526L535.001 359.052L566.956 377.526V414.475L535.001 432.949Z" stroke="#3F3F46" stroke-miterlimit="10"/>
<path d="M548.626 419.635H521.372L507.745 396L521.372 372.366H548.627L562.255 396L548.627 419.635H548.626Z" stroke="#3F3F46" stroke-miterlimit="10"/>
</g>
<path d="M498.584 468H496.05L494.034 462.067H485.912L483.896 468H481.448L488.476 447.898H491.557L498.584 468ZM493.429 459.936L490.031 450.144H489.887L486.488 459.936H493.429ZM509.028 468H500.964V465.984H503.786V449.914H500.964V447.898H509.028V449.914H506.206V465.984H509.028V468ZM525.551 468.346C521.375 468.346 518.927 465.322 518.927 460.57C518.927 455.818 521.375 452.794 525.551 452.794C528.489 452.794 530.245 454.234 531.109 456.278L529.18 457.258C528.633 455.731 527.365 454.838 525.551 454.838C522.815 454.838 521.404 456.71 521.404 459.302V461.837C521.404 464.429 522.815 466.301 525.551 466.301C527.423 466.301 528.777 465.408 529.583 463.709L531.253 464.832C530.303 466.963 528.373 468.346 525.551 468.346ZM536.81 468H534.506V453.139H536.81V455.875H536.954C537.472 454.464 538.826 453.139 541.245 453.139H542.138V455.443H540.784C538.307 455.443 536.81 456.509 536.81 457.92V468ZM546.233 449.654C545.254 449.654 544.822 449.136 544.822 448.358V447.984C544.822 447.206 545.254 446.688 546.233 446.688C547.212 446.688 547.644 447.206 547.644 447.984V448.358C547.644 449.136 547.212 449.654 546.233 449.654ZM545.081 468V453.139H547.385V468H545.081ZM558.444 468H555.564C553.98 468 553.116 466.992 553.116 465.552V455.155H550.668V453.139H552.05C553.03 453.139 553.346 452.794 553.346 451.786V449.021H555.42V453.139H558.674V455.155H555.42V465.984H558.444V468ZM563.53 449.654C562.55 449.654 562.118 449.136 562.118 448.358V447.984C562.118 447.206 562.55 446.688 563.53 446.688C564.509 446.688 564.941 447.206 564.941 447.984V448.358C564.941 449.136 564.509 449.654 563.53 449.654ZM562.378 468V453.139H564.682V468H562.378ZM575.107 468.346C570.931 468.346 568.483 465.322 568.483 460.57C568.483 455.818 570.931 452.794 575.107 452.794C578.045 452.794 579.802 454.234 580.666 456.278L578.736 457.258C578.189 455.731 576.922 454.838 575.107 454.838C572.371 454.838 570.96 456.71 570.96 459.302V461.837C570.96 464.429 572.371 466.301 575.107 466.301C576.979 466.301 578.333 465.408 579.139 463.709L580.81 464.832C579.859 466.963 577.93 468.346 575.107 468.346Z" fill="#525252"/>
<rect x="333" y="44" width="32.5372" height="32.5372" rx="9.76116" fill="#93C5FD"/>
<path fill-rule="evenodd" clip-rule="evenodd" d="M348.173 55.8862H345.982V53.6951H344.886V55.8862H342.695V56.9818H344.886V59.173H345.982V56.9818H348.173V55.8862ZM348.173 61.912H342.695V63.0076H348.173V61.912ZM342.695 64.651H348.173V65.7466H342.695V64.651ZM355.842 55.8863H350.364V56.9818H355.842V55.8863ZM355.842 61.5888L353.876 63.5554L355.842 65.522L355.07 66.2944L353.103 64.3278L351.137 66.2944L350.364 65.522L352.331 63.5554L350.364 61.5888L351.137 60.8164L353.103 62.783L355.07 60.8164L355.842 61.5888Z" fill="#171717"/>
<rect x="371.537" y="44" width="32.5372" height="32.5372" rx="9.76116" fill="#FB923C"/>
<path d="M393.958 64.4419L389.997 58.995V53.6952H391.093V52.5996H384.519V53.6952H385.615V58.995L381.653 64.4419C381.414 64.7703 381.271 65.1584 381.239 65.5632C381.207 65.968 381.288 66.3737 381.472 66.7356C381.656 67.0974 381.937 67.4012 382.283 67.6134C382.629 67.8256 383.028 67.9379 383.434 67.9379H392.178C392.584 67.9379 392.982 67.8256 393.328 67.6134C393.675 67.4012 393.955 67.0974 394.14 66.7356C394.324 66.3737 394.405 65.968 394.373 65.5632C394.341 65.1584 394.197 64.7703 393.958 64.4419V64.4419ZM386.71 59.3513V53.6952H388.901V59.3513L390.366 61.3643H385.246L386.71 59.3513ZM392.178 66.8423H383.434C383.23 66.8422 383.03 66.7857 382.856 66.6791C382.682 66.5725 382.541 66.4199 382.448 66.2381C382.356 66.0564 382.315 65.8526 382.331 65.6493C382.347 65.4459 382.419 65.251 382.539 65.086L384.449 62.4599H391.162L393.072 65.086C393.192 65.251 393.264 65.4459 393.28 65.6493C393.296 65.8526 393.256 66.0564 393.163 66.2381C393.071 66.4199 392.93 66.5725 392.756 66.6791C392.582 66.7857 392.382 66.8422 392.178 66.8423V66.8423Z" fill="#171717"/>
<rect x="410.074" y="44" width="32.5372" height="32.5372" rx="9.76116" fill="#4ADE80"/>
<path fill-rule="evenodd" clip-rule="evenodd" d="M424.381 65.4638L427.241 54.7913L428.299 55.0748L425.439 65.7473L424.381 65.4638ZM418.126 60.2686L421.961 56.434L422.733 57.2064L419.676 60.2686L422.733 63.3307L421.961 64.1031L418.126 60.2686ZM434.56 60.2686L430.726 64.1031L429.953 63.3307L433.01 60.2686L429.953 57.2064L430.726 56.434L434.56 60.2686Z" fill="#171717"/>
<rect x="448.612" y="44" width="32.5372" height="32.5372" rx="9.76116" fill="#FB923C"/>
<path fill-rule="evenodd" clip-rule="evenodd" d="M466.372 56.1789C466.914 56.0061 467.477 55.9077 468.046 55.8862C470.561 55.8862 471.454 58.2469 471.454 60.2686C471.454 64.3825 469.225 66.8416 467.071 66.8421C466.601 66.8172 466.139 66.7077 465.708 66.5189C465.445 66.4013 465.166 66.3255 464.88 66.2943C464.595 66.3256 464.316 66.4013 464.054 66.5189C463.623 66.7077 463.16 66.8172 462.69 66.8421H462.689C460.535 66.8416 458.307 64.3825 458.307 60.2686C458.307 57.5653 459.573 55.8862 461.611 55.8862C462.201 55.9108 462.786 56.0093 463.352 56.1794C463.658 56.2584 463.954 56.3311 464.237 56.3793C464.108 55.923 463.833 55.5213 463.455 55.2347C463.077 54.9482 462.616 54.7923 462.141 54.7907V53.6951C462.912 53.6963 463.658 53.9683 464.249 54.4636C464.84 54.9589 465.238 55.646 465.374 56.4049C465.711 56.351 466.045 56.2755 466.372 56.1789ZM466.091 65.4924C466.401 65.6319 466.732 65.7178 467.071 65.7465C468.686 65.7459 470.358 63.697 470.358 60.2686C470.358 59.7196 470.247 56.9818 468.046 56.9818C467.575 57.0056 467.109 57.091 466.66 57.236C466.128 57.4043 465.576 57.503 465.019 57.5296H464.749C464.183 57.5003 463.622 57.4033 463.079 57.2407C462.602 57.0952 462.109 57.0083 461.611 56.9818C459.618 56.9818 459.402 59.2805 459.402 60.2686C459.402 63.6964 461.073 65.7452 462.689 65.7465C463.029 65.7177 463.361 65.6318 463.672 65.4924C464.054 65.3233 464.463 65.2239 464.88 65.1987C465.298 65.2238 465.708 65.3233 466.091 65.4924ZM465.428 55.3385H465.976C466.266 55.3382 466.545 55.2226 466.75 55.0172C466.956 54.8118 467.071 54.5334 467.071 54.2429V53.6951H466.524C466.233 53.6954 465.955 53.8109 465.749 54.0163C465.544 54.2217 465.428 54.5002 465.428 54.7907V55.3385Z" fill="#171717"/>
<rect x="487.149" y="44" width="32.5372" height="32.5372" rx="9.76116" fill="#FBBF24"/>
<path fill-rule="evenodd" clip-rule="evenodd" d="M497.939 64.6538H508.895C509.186 64.6534 509.464 64.5378 509.67 64.3324C509.875 64.1271 509.991 63.8486 509.991 63.5582V55.889C509.991 55.5986 509.875 55.3201 509.67 55.1147C509.464 54.9093 509.186 54.7938 508.895 54.7935H497.939C497.649 54.7937 497.37 54.9093 497.165 55.1147C496.96 55.3201 496.844 55.5986 496.844 55.889V63.5582C496.844 63.8486 496.96 64.1271 497.165 64.3325C497.371 64.5379 497.649 64.6534 497.939 64.6538ZM497.939 63.5582V55.889H508.895V63.5582H497.939ZM495.748 65.7493H511.087V66.8449H495.748V65.7493Z" fill="#171717"/>
<rect x="525.686" y="44" width="32.5372" height="32.5372" rx="9.76116" fill="#93C5FD"/>
<path d="M544.146 60.2687C544.146 60.9952 544.434 61.6918 544.948 62.2055C545.462 62.7191 546.158 63.0077 546.885 63.0077C547.611 63.0077 548.308 62.7191 548.822 62.2055C549.335 61.6918 549.624 60.9952 549.624 60.2687C549.624 60.1837 549.604 60.0998 549.566 60.0237L547.376 55.6433C547.368 55.6279 547.36 55.613 547.351 55.5986C547.302 55.5191 547.233 55.4535 547.152 55.408C547.07 55.3625 546.978 55.3386 546.885 55.3386H543.5C543.418 55.1094 543.285 54.9014 543.113 54.7295C542.94 54.5575 542.732 54.4258 542.502 54.3438V52.5996H541.407V54.3438C541.177 54.4258 540.969 54.5575 540.796 54.7295C540.624 54.9014 540.492 55.1094 540.409 55.3386H537.024C536.923 55.3386 536.823 55.3669 536.736 55.4204C536.65 55.4738 536.58 55.5504 536.534 55.6413L534.343 60.0237C534.305 60.0998 534.286 60.1837 534.286 60.2687C534.286 60.9952 534.574 61.6918 535.088 62.2055C535.601 62.7191 536.298 63.0077 537.024 63.0077C537.751 63.0077 538.448 62.7191 538.961 62.2055C539.475 61.6918 539.763 60.9952 539.763 60.2687C539.763 60.1837 539.744 60.0998 539.706 60.0237L537.911 56.4342H540.409C540.492 56.6633 540.624 56.8712 540.796 57.0432C540.969 57.2151 541.177 57.3467 541.407 57.4286V66.8423H536.477V67.9379H547.433V66.8423H542.502V57.4289C542.732 57.3469 542.94 57.2153 543.113 57.0433C543.285 56.8713 543.418 56.6633 543.5 56.4342H545.998L544.204 60.0237C544.166 60.0998 544.146 60.1837 544.146 60.2687ZM537.024 61.9121C536.686 61.911 536.356 61.805 536.08 61.6089C535.804 61.4127 535.595 61.136 535.482 60.8165H538.566C538.454 61.1359 538.245 61.4127 537.969 61.6088C537.693 61.805 537.363 61.9109 537.024 61.9121V61.9121ZM538.329 59.7209H535.72L537.024 57.1114L538.329 59.7209ZM541.955 56.4342C541.846 56.4342 541.74 56.402 541.65 56.3418C541.56 56.2817 541.49 56.1961 541.449 56.096C541.407 55.9959 541.396 55.8858 541.417 55.7795C541.439 55.6732 541.491 55.5756 541.567 55.499C541.644 55.4224 541.742 55.3702 541.848 55.3491C541.954 55.328 542.064 55.3388 542.164 55.3803C542.264 55.4217 542.35 55.492 542.41 55.582C542.47 55.6721 542.502 55.778 542.502 55.8864C542.502 56.0316 542.445 56.1709 542.342 56.2736C542.239 56.3763 542.1 56.434 541.955 56.4342V56.4342ZM546.885 61.9121C546.546 61.911 546.216 61.805 545.94 61.6089C545.664 61.4127 545.455 61.136 545.343 60.8165H548.427C548.314 61.1359 548.106 61.4127 547.829 61.6088C547.553 61.805 547.223 61.9109 546.885 61.9121V61.9121ZM546.885 57.1114L548.19 59.7209H545.58L546.885 57.1114Z" fill="#171717"/>
<rect x="564.223" y="44" width="32.5372" height="32.5372" rx="9.76116" fill="#FB923C"/>
<path fill-rule="evenodd" clip-rule="evenodd" d="M573.699 63.8294C573.151 62.7338 572.823 61.5287 572.823 60.2687C572.823 56.0507 576.274 52.5996 580.492 52.5996V53.6952C576.876 53.6952 573.918 56.6533 573.918 60.2687C573.918 61.3643 574.192 62.3503 574.685 63.2816L573.699 63.8294ZM587.065 60.2686C587.065 63.8841 584.107 66.8421 580.492 66.8421C578.903 66.8421 577.424 66.2944 576.274 65.3083L579.396 62.1859L578.629 61.3642L575.068 64.9249C574.849 65.144 574.849 65.4727 575.068 65.6918C576.493 67.116 578.465 67.9377 580.492 67.9377C584.71 67.9377 588.161 64.4866 588.161 60.2686H587.065ZM581.368 65.144C581.423 65.1988 581.533 65.1988 581.587 65.1988C581.697 65.1988 581.807 65.144 581.916 65.0892L584.107 63.4458C584.272 63.3363 584.326 63.1719 584.326 63.0076V59.9399L585.97 58.2966C586.682 57.5844 587.065 56.6532 587.065 55.6124V54.7907C587.065 54.1881 586.572 53.6951 585.97 53.6951H585.148C584.162 53.6951 583.176 54.0785 582.464 54.7907L580.821 56.4341H577.753C577.589 56.4341 577.424 56.4888 577.26 56.5984L575.617 58.7896C575.507 58.9539 575.507 59.173 575.562 59.3374C575.617 59.5017 575.781 59.666 576 59.666L578.739 60.0495L578.903 58.9539L577.096 58.7348L578.027 57.5296H581.04C581.204 57.5296 581.314 57.4749 581.423 57.3653L583.176 55.6124C583.669 55.0646 584.381 54.7907 585.093 54.7907H585.915V55.6671C585.915 56.3793 585.586 57.0914 585.093 57.5844L583.34 59.3374C583.231 59.4469 583.176 59.5565 583.176 59.7208V62.6789L581.971 63.6102L581.752 61.8024L580.656 61.9668L581.04 64.7058C581.04 64.9249 581.204 65.0892 581.368 65.144Z" fill="#171717"/>
<rect x="333" y="82.5371" width="32.5372" height="32.5372" rx="9.76116" fill="#93C5FD"/>
<path fill-rule="evenodd" clip-rule="evenodd" d="M350.364 92.7801V93.8757H348.611C348.25 95.4244 347.513 96.8601 346.464 98.0554C347.256 98.8638 348.213 99.4933 349.269 99.9014L348.88 100.909C347.694 100.433 346.62 99.717 345.724 98.8058C344.812 99.7047 343.738 100.422 342.558 100.92L342.147 99.9014C343.197 99.457 344.156 98.8218 344.974 98.028C344.233 97.125 343.675 96.0869 343.331 94.9713H344.481C344.76 95.8029 345.185 96.5782 345.735 97.2611C346.58 96.2885 347.179 95.1276 347.483 93.8757H341.599V92.7801H345.434V91.1367H346.53V92.7801H350.364ZM356.938 105.927H355.76L354.883 103.736H351.131L350.255 105.927H349.077L352.364 97.7101H353.651L356.938 105.927ZM353.005 99.0468L351.569 102.64H354.445L353.005 99.0468Z" fill="#171717"/>
<rect x="371.537" y="82.5371" width="32.5372" height="32.5372" rx="9.76116" fill="#4ADE80"/>
<g clip-path="url(#clip2_3068_344290)">
<path fill-rule="evenodd" clip-rule="evenodd" d="M385.844 104.001L388.704 93.3284L389.762 93.6119L386.902 104.284L385.844 104.001ZM379.589 98.8057L383.424 94.9711L384.196 95.7435L381.139 98.8057L384.196 101.868L383.424 102.64L379.589 98.8057ZM396.023 98.8057L392.188 102.64L391.416 101.868L394.473 98.8057L391.416 95.7435L392.188 94.9711L396.023 98.8057Z" fill="#171717"/>
</g>
<rect x="410.074" y="82.5371" width="32.5372" height="32.5372" rx="9.76116" fill="#FBBF24"/>
<path fill-rule="evenodd" clip-rule="evenodd" d="M420.865 103.191H431.821C432.111 103.19 432.39 103.075 432.595 102.87C432.801 102.664 432.916 102.386 432.917 102.095V94.4262C432.916 94.1357 432.801 93.8572 432.595 93.6518C432.39 93.4464 432.111 93.3309 431.821 93.3306H420.865C420.575 93.3309 420.296 93.4464 420.091 93.6518C419.885 93.8572 419.77 94.1357 419.77 94.4262V102.095C419.77 102.386 419.885 102.664 420.091 102.87C420.296 103.075 420.575 103.191 420.865 103.191ZM420.865 102.095V94.4262H431.821V102.095H420.865ZM418.674 104.286H434.012V105.382H418.674V104.286Z" fill="#171717"/>
<rect x="448.612" y="82.5371" width="32.5372" height="32.5372" rx="9.76116" fill="#4ADE80"/>
<path fill-rule="evenodd" clip-rule="evenodd" d="M467.619 91.1367H468.167C468.603 91.1197 469.038 91.1931 469.445 91.3523C469.851 91.5115 470.22 91.753 470.529 92.0617C470.837 92.3703 471.079 92.7394 471.238 93.1459C471.397 93.5523 471.471 93.9873 471.454 94.4234V99.9014C471.454 100.192 471.338 100.471 471.133 100.676C470.927 100.882 470.649 100.997 470.358 100.997H468.715V106.475H467.619V91.1367ZM468.715 99.9014H470.358V94.4234C470.358 94.2207 470.292 92.5883 468.715 92.2816V99.9014ZM463.785 96.0667C463.785 96.6478 463.554 97.2052 463.143 97.6161C462.732 98.027 462.175 98.2579 461.593 98.2579C461.012 98.2579 460.455 98.027 460.044 97.6161C459.633 97.2052 459.402 96.6478 459.402 96.0667V91.1366H458.307V96.0667C458.307 96.8429 458.583 97.5937 459.084 98.1862C459.585 98.7788 460.28 99.1748 461.046 99.3042V106.475H462.141V99.3042C462.907 99.1748 463.601 98.7788 464.103 98.1862C464.604 97.5937 464.879 96.8429 464.88 96.0667V91.1366H463.785V96.0667ZM462.141 91.1367H461.046V96.6146H462.141V91.1367Z" fill="#171717"/>
<rect x="487.149" y="82.5371" width="32.5372" height="32.5372" rx="9.76116" fill="#FBBF24"/>
<path d="M507.8 91.1367H499.035C498.744 91.1367 498.466 91.2521 498.26 91.4576C498.055 91.6631 497.939 91.9417 497.939 92.2323V94.4235C497.939 94.7141 498.055 94.9927 498.26 95.1982C498.466 95.4036 498.744 95.5191 499.035 95.5191V105.379C499.035 105.67 499.15 105.949 499.356 106.154C499.561 106.36 499.84 106.475 500.131 106.475H506.704C506.995 106.475 507.273 106.36 507.479 106.154C507.684 105.949 507.8 105.67 507.8 105.379V95.5191C508.09 95.5191 508.369 95.4036 508.574 95.1982C508.78 94.9927 508.895 94.7141 508.895 94.4235V92.2323C508.895 91.9417 508.78 91.6631 508.574 91.4576C508.369 91.2521 508.09 91.1367 507.8 91.1367ZM500.131 97.7103H501.774V103.188H500.131V97.7103ZM506.704 105.379H500.131V104.284H502.87V96.6147H500.131V95.5191H506.704V105.379ZM499.035 94.4235V92.2323H507.8V94.4235H499.035Z" fill="#171717"/>
<rect x="525.686" y="82.5371" width="32.5372" height="32.5372" rx="9.76116" fill="#4ADE80"/>
<path d="M549.624 97.1625C549.624 96.3711 549.468 95.5876 549.165 94.8565C548.862 94.1254 548.418 93.4612 547.859 92.9016C547.299 92.3421 546.635 91.8982 545.904 91.5954C545.173 91.2926 544.389 91.1367 543.598 91.1367H539.216C537.908 91.1367 536.654 91.6561 535.73 92.5807C534.805 93.5053 534.286 94.7593 534.286 96.0669V97.7103C534.286 98.4367 534.574 99.1333 535.088 99.647C535.601 100.161 536.298 100.449 537.024 100.449H537.627C537.753 101.068 538.09 101.624 538.579 102.023C539.068 102.422 539.68 102.641 540.311 102.64H541.067L543.258 106.475L544.206 105.927L542.015 102.153C541.927 101.975 541.792 101.825 541.625 101.718C541.458 101.611 541.265 101.551 541.067 101.545H540.311C539.875 101.545 539.457 101.372 539.149 101.063C538.841 100.755 538.668 100.337 538.668 99.9014C538.668 99.4656 538.841 99.0476 539.149 98.7394C539.457 98.4312 539.875 98.258 540.311 98.258H540.859V97.1625H540.311C539.68 97.1623 539.068 97.3804 538.579 97.7797C538.09 98.1789 537.753 98.735 537.627 99.3536H537.024C536.589 99.3536 536.171 99.1805 535.862 98.8723C535.554 98.5641 535.381 98.1461 535.381 97.7103V96.6147H536.477C536.913 96.6147 537.331 96.4415 537.639 96.1333C537.947 95.8251 538.12 95.4071 538.12 94.9713V94.4235H537.024V94.9713C537.024 95.1166 536.967 95.2559 536.864 95.3586C536.761 95.4614 536.622 95.5191 536.477 95.5191H535.425C535.557 94.6072 536.012 93.7732 536.708 93.1697C537.404 92.5661 538.294 92.2334 539.216 92.2323H542.502V93.3279C542.502 93.4732 542.445 93.6125 542.342 93.7152C542.239 93.818 542.1 93.8757 541.955 93.8757H540.859V94.9713H541.955C542.39 94.9713 542.808 94.7981 543.117 94.4899C543.425 94.1817 543.598 93.7637 543.598 93.3279V92.2323C544.515 92.2336 545.414 92.4906 546.193 92.9744C546.972 93.4583 547.6 94.1498 548.008 94.9713H547.433C546.997 94.9713 546.579 95.1444 546.271 95.4526C545.962 95.7608 545.789 96.1788 545.789 96.6147V97.1625H546.885V96.6147C546.885 96.4694 546.943 96.33 547.045 96.2273C547.148 96.1246 547.287 96.0669 547.433 96.0669H548.402C548.486 96.426 548.528 96.7936 548.528 97.1625V97.7103C548.528 98.4367 548.24 99.1333 547.726 99.647C547.212 100.161 546.516 100.449 545.789 100.449H544.146V101.545H545.789C546.358 101.544 546.919 101.417 547.433 101.172V101.545C547.433 101.981 547.259 102.399 546.951 102.707C546.643 103.015 546.225 103.188 545.789 103.188H545.241V104.284H545.789C546.516 104.284 547.212 103.995 547.726 103.482C548.24 102.968 548.528 102.271 548.528 101.545V100.389C549.229 99.6734 549.622 98.712 549.624 97.7103V97.1625Z" fill="#171717"/>
<rect x="564.223" y="82.5371" width="32.5372" height="32.5372" rx="9.76116" fill="#FBBF24"/>
<path fill-rule="evenodd" clip-rule="evenodd" d="M588.161 91.9114L586.686 93.3865L587.284 93.9852C587.388 94.0841 587.471 94.2031 587.528 94.335C587.584 94.4668 587.613 94.6087 587.613 94.7522C587.613 94.8956 587.584 95.0375 587.528 95.1694C587.471 95.3012 587.388 95.4202 587.284 95.5191L577.424 105.379H573.918V101.873L583.779 92.0132C583.877 91.9093 583.996 91.8266 584.128 91.77C584.26 91.7135 584.402 91.6844 584.545 91.6844C584.689 91.6844 584.831 91.7135 584.963 91.77C585.094 91.8266 585.213 91.9093 585.312 92.0132L585.911 92.6119L587.386 91.1367L588.161 91.9114ZM575.014 104.284H576.986L586.517 94.7522L584.545 92.7801L575.014 102.312V104.284ZM576.657 96.3877L580.813 92.2322L581.587 93.0068L577.432 97.1623L576.657 96.3877Z" fill="#171717"/>
</g>
<defs>
<filter id="filter0_dd_3068_344290" x="401.251" y="315.573" width="266.656" height="217.003" filterUnits="userSpaceOnUse" color-interpolation-filters="sRGB">
<feFlood flood-opacity="0" result="BackgroundImageFix"/>
<feColorMatrix in="SourceAlpha" type="matrix" values="0 0 0 0 0 0 0 0 0 0 0 0 0 0 0 0 0 0 127 0" result="hardAlpha"/>
<feOffset dy="7.35604"/>
<feGaussianBlur stdDeviation="4.59752"/>
<feComposite in2="hardAlpha" operator="out"/>
<feColorMatrix type="matrix" values="0 0 0 0 0 0 0 0 0 0 0 0 0 0 0 0 0 0 0.08 0"/>
<feBlend mode="normal" in2="BackgroundImageFix" result="effect1_dropShadow_3068_344290"/>
<feColorMatrix in="SourceAlpha" type="matrix" values="0 0 0 0 0 0 0 0 0 0 0 0 0 0 0 0 0 0 127 0" result="hardAlpha"/>
<feOffset dy="18.3901"/>
<feGaussianBlur stdDeviation="11.9536"/>
<feComposite in2="hardAlpha" operator="out"/>
<feColorMatrix type="matrix" values="0 0 0 0 0 0 0 0 0 0 0 0 0 0 0 0 0 0 0.03 0"/>
<feBlend mode="normal" in2="effect1_dropShadow_3068_344290" result="effect2_dropShadow_3068_344290"/>
<feBlend mode="normal" in="SourceGraphic" in2="effect2_dropShadow_3068_344290" result="shape"/>
</filter>
<clipPath id="clip0_3068_344290">
<rect width="672" height="512" rx="16" fill="white"/>
</clipPath>
<clipPath id="clip1_3068_344290">
<rect width="64" height="74" fill="white" transform="translate(503 359)"/>
</clipPath>
<clipPath id="clip2_3068_344290">
<rect width="17.5294" height="17.5294" fill="white" transform="translate(379.041 90.041)"/>
</clipPath>
</defs>
</svg>
