<svg width="122" height="38" viewBox="0 0 122 38" fill="none" xmlns="http://www.w3.org/2000/svg">
<path d="M22.3272 9.93035L24.8352 5.5575C25.5661 4.27729 25.1362 2.63747 23.8607 1.90387C22.5852 1.17026 20.9514 1.60179 20.2205 2.882L17.6981 7.25486C12.3381 5.5575 6.33324 7.75831 3.40961 12.8504C1.54652 16.0869 1.31721 19.8124 2.4494 23.0777L7.09281 14.9937C8.15335 13.1381 9.88746 11.8147 11.9512 11.2537C14.0149 10.6927 16.1647 10.9804 18.0134 12.0592C21.8256 14.2744 23.1441 19.1939 20.9371 23.0201C18.73 26.8464 13.843 28.1698 10.0164 25.9546L12.6821 21.3228C13.9576 22.0564 15.5914 21.6249 16.3223 20.3446C17.0532 19.0644 16.6233 17.4246 15.3478 16.691C14.0723 15.9574 12.4385 16.3889 11.7076 17.6692L3.2233 32.4419C2.4924 33.7221 2.92234 35.3619 4.19785 36.0955C5.47335 36.8292 7.10714 36.3976 7.83805 35.1174L10.3604 30.7446C15.7204 32.4419 21.7253 30.2411 24.6489 25.149C27.5725 20.0713 26.469 13.7566 22.3272 9.93035Z" fill="black"/>
<path d="M74.2068 12.9658C70.8245 12.9658 68.1301 15.5262 68.1301 19.0073C68.1301 22.4883 70.8245 25.0487 74.2068 25.0487C77.589 25.0487 80.2831 22.4883 80.2831 19.0073C80.2831 15.5262 77.589 12.9658 74.2068 12.9658ZM100.648 12.9658C97.2662 12.9658 94.5718 15.5262 94.5718 19.0073C94.5718 22.4883 97.2662 25.0487 100.648 25.0487C104.031 25.0487 106.725 22.4883 106.725 19.0073C106.725 15.5262 104.031 12.9658 100.648 12.9658ZM110.594 13.0088V24.8903H112.859V19.9566C112.859 19.1079 112.687 17.8132 112.687 17.8132C112.687 17.8132 113.504 18.8632 114.091 19.4242L119.996 25.0054H120.239V13.124H117.975V18.0577C117.975 18.8632 118.133 20.201 118.133 20.201C118.133 20.201 117.33 19.1223 116.757 18.5901L110.838 13.0088H110.594ZM33.6055 13.1097V24.9049H36.0276V21.0354H37.7331C40.1264 21.0354 42.1042 19.8272 42.1042 17.0654C42.1042 14.3036 40.1264 13.1097 37.7331 13.1097H33.6055ZM45.6439 13.1097V24.8903H53.6553V22.7615H48.066V20.0285H52.7811V17.9428H48.066V15.2384H53.4115V13.1097H45.6439ZM57.711 13.1097V24.8903H65.4357V22.7615H60.1188V13.1097H57.711ZM82.8773 13.1097V15.2384H86.2164V24.8903H88.6385V15.2384H91.9921V13.1097H82.8773ZM74.2068 15.1235C76.3422 15.1235 77.7896 16.8065 77.7896 19.0073C77.7896 21.2081 76.3422 22.891 74.2068 22.891C72.0714 22.891 70.6239 21.2081 70.6239 19.0073C70.6239 16.8065 72.0714 15.1235 74.2068 15.1235ZM100.648 15.1235C102.784 15.1235 104.231 16.8065 104.231 19.0073C104.231 21.2081 102.784 22.891 100.648 22.891C98.513 22.891 97.0655 21.2081 97.0655 19.0073C97.0655 16.8065 98.513 15.1235 100.648 15.1235ZM36.0276 15.2527H37.6614C38.8223 15.2527 39.6104 15.742 39.6104 17.0654C39.6104 18.3743 38.8509 18.9064 37.6614 18.9064H36.0276V15.2527Z" fill="black"/>
</svg>
