<svg width="154" height="29" viewBox="0 0 154 29" fill="none" xmlns="http://www.w3.org/2000/svg">
<path d="M27.8397 19.2631C27.8397 16.0251 29.7723 14.1968 32.5407 14.1968C35.2037 14.1968 37.3983 16.1805 37.3983 19.0022C37.3983 22.2402 35.2037 24.225 32.5407 24.225C29.7723 24.225 27.8397 22.1359 27.8397 19.2631ZM138.935 19.2631C138.935 16.0251 140.867 14.1968 143.636 14.1968C146.3 14.1968 148.493 16.1805 148.493 19.0544C148.493 22.2402 146.3 24.225 143.636 24.225C140.867 24.225 138.935 22.1359 138.935 19.2631ZM92.6062 14.0925C94.4866 14.0925 95.4268 14.9284 95.8442 15.9197L88.166 18.5316C88.2182 15.8153 89.9421 14.0925 92.6062 14.0925ZM64.7674 19.8902V10.3839H59.8045V19.3152C59.8045 22.0315 58.8132 23.9641 55.9926 23.9641C53.172 23.9641 52.1796 22.0315 52.1796 19.3152V10.3839H47.2177V19.8902C47.2177 24.9043 50.1948 28.4553 55.9926 28.4553C61.7903 28.4553 64.7674 24.9043 64.7674 19.8902ZM124.833 27.9858H129.795V10.3839H124.833V27.9858ZM69.5728 18.062V27.9858H74.5347V18.4272C74.5347 15.6599 76.0488 14.5621 80.6455 14.7186V10.1219C72.863 9.548 69.5728 12.473 69.5728 18.062ZM100.702 26.2619L98.6126 22.7108C97.3594 23.65 95.9485 24.2771 93.7029 24.2771C91.6138 24.2771 89.8899 23.5978 88.9497 22.188L101.172 18.3229C100.702 12.9425 97.6724 9.96538 92.6583 9.96538C87.278 9.96538 83.6226 13.674 83.6226 19.1587C83.6226 24.8521 87.6443 28.4553 93.7029 28.4553C96.7322 28.4553 99.0832 27.6727 100.702 26.2619ZM114.595 14.5099C116.319 14.5099 117.311 14.9794 118.408 15.7109L120.549 11.9501C118.931 10.6447 116.894 9.96538 114.178 9.96538C109.006 9.96538 104.723 13.4132 104.723 19.2109C104.723 25.0086 108.902 28.4553 114.438 28.4553C117.207 28.4553 119.139 27.8293 120.759 26.3662L118.566 22.7619C117.52 23.5456 116.528 24.0684 114.753 24.0684C111.88 24.0684 109.737 22.2402 109.737 19.3152C109.737 16.2859 111.88 14.5099 114.595 14.5099ZM37.4505 27.9858H42.0993V10.3839H37.4505V12.0556C36.0929 10.5925 34.2646 9.91321 31.8092 9.91321C26.5865 9.91321 22.7735 13.674 22.7735 19.2109C22.7735 24.7478 26.5343 28.4553 31.8092 28.4553C34.2125 28.4553 36.0929 27.7771 37.4505 26.3141V27.9858ZM148.546 27.9858H153.194V10.3839H148.546V12.2121C147.084 10.6447 145.099 9.91321 142.905 9.91321C137.682 9.91321 133.869 13.674 133.869 19.2109C133.869 24.7478 137.629 28.4553 142.905 28.4553C145.099 28.4553 147.084 27.7238 148.546 26.1054V27.9858ZM124.833 7.19804H129.795V2.39268H124.833V7.19804ZM20.6322 15.1371V10.3839H12.6932V9.44366C12.6932 6.31001 14.6247 4.89916 20.8931 5.63067V1.034C11.9617 -0.114894 7.73132 3.1231 7.73132 9.13061V27.9858H12.6932V15.1371" fill="#121619"/>
<path d="M0 15.136H4.5445V10.3828H0V15.136Z" fill="#6A7888"/>
</svg>
