<svg width="672" height="512" viewBox="0 0 672 512" fill="none" xmlns="http://www.w3.org/2000/svg">
<g clip-path="url(#clip0_3285_338830)">
<path d="M24 312L23.999 264" stroke="#0EA5E9" stroke-width="6" stroke-linejoin="bevel"/>
<path d="M264 72L230.143 105.858" stroke="#FBBF24" stroke-width="6" stroke-linejoin="bevel"/>
<path d="M216 264L182.142 297.858" stroke="#FBBF24" stroke-width="6" stroke-linejoin="bevel"/>
<path d="M216 168L249.857 201.858" stroke="#FBBF24" stroke-width="6" stroke-linejoin="bevel"/>
<path d="M216 360L249.858 393.858" stroke="#0EA5E9" stroke-width="6" stroke-linejoin="bevel"/>
<path d="M503.999 264L537.857 297.858" stroke="#EA580C" stroke-width="6" stroke-linejoin="bevel"/>
<path d="M120 168L86.0117 201.871" stroke="#0EA5E9" stroke-width="6" stroke-linejoin="bevel"/>
<path d="M407.999 168L374.142 201.858" stroke="#FBBF24" stroke-width="6" stroke-linejoin="bevel"/>
<path d="M136 116V88H72V56H136" stroke="#171717" stroke-linejoin="bevel"/>
<rect x="128" y="116" width="16" height="4" fill="#F5F5F5" stroke="#171717" stroke-linejoin="bevel"/>
<circle cx="136" cy="56" r="12" fill="#F5F5F5" stroke="#171717" stroke-linejoin="bevel"/>
<circle cx="136" cy="88" r="12" fill="#F5F5F5" stroke="#171717" stroke-linejoin="bevel"/>
<circle cx="104" cy="56" r="12" fill="#F5F5F5" stroke="#171717" stroke-linejoin="bevel"/>
<circle cx="104" cy="88" r="12" fill="#F5F5F5" stroke="#171717" stroke-linejoin="bevel"/>
<circle cx="72" cy="56" r="12" fill="#F5F5F5" stroke="#171717" stroke-linejoin="bevel"/>
<circle cx="72" cy="88" r="12" fill="#F5F5F5" stroke="#171717" stroke-linejoin="bevel"/>
<path d="M74.8944 53.7889L75.3416 53.5652L75.3416 53.5652L74.8944 53.7889ZM75 54L74.5528 54.2236L74.5528 54.2236L75 54ZM69.0283 53.9434L69.4755 54.167L69.4755 54.167L69.0283 53.9434ZM69.1056 53.7889L68.6584 53.5652L68.6584 53.5652L69.1056 53.7889ZM76.5333 63.0666L76.9805 62.843L76.9805 62.843L76.5333 63.0666ZM67.4472 63.1056L67.8944 63.3292L67.8944 63.3292L67.4472 63.1056ZM71.8429 60.6115L71.4588 60.9315L71.4588 60.9315L71.8429 60.6115ZM69.472 57.7664L69.8561 57.4463L69.472 57.7664ZM74.6584 57.7889L75.0584 58.0889L75.0584 58.0889L74.6584 57.7889ZM74.5 58L74.1 57.7L74.1 57.7L74.5 58ZM74.4472 54.0125L74.5528 54.2236L75.4472 53.7764L75.3416 53.5652L74.4472 54.0125ZM69.4755 54.167L69.5528 54.0125L68.6584 53.5652L68.5811 53.7198L69.4755 54.167ZM76.0861 63.2902L76.5528 64.2236L77.4472 63.7764L76.9805 62.843L76.0861 63.2902ZM67 62.882L66.5528 63.7764L67.4472 64.2236L67.8944 63.3292L67 62.882ZM72.227 60.2914L69.8561 57.4463L69.0879 58.0865L71.4588 60.9315L72.227 60.2914ZM74.2584 57.4889L74.1 57.7L74.9 58.3L75.0584 58.0889L74.2584 57.4889ZM74.1 57.7L73.35 58.7L74.15 59.3L74.9 58.3L74.1 57.7ZM70.5 61.5H69.2361V62.5H70.5V61.5ZM67.8944 63.3292C68.1485 62.821 68.6679 62.5 69.2361 62.5V61.5C68.2891 61.5 67.4235 62.035 67 62.882L67.8944 63.3292ZM74.8075 62.5C75.349 62.5 75.8439 62.8059 76.0861 63.2902L76.9805 62.843C76.569 62.0199 75.7277 61.5 74.8075 61.5V62.5ZM74.8075 61.5C73.8106 61.5 72.8652 61.0572 72.227 60.2914L71.4588 60.9315C72.287 61.9254 73.5138 62.5 74.8075 62.5V61.5ZM68.5811 53.7198C67.8676 55.1468 68.0665 56.8608 69.0879 58.0865L69.8561 57.4463C69.0891 56.5259 68.9397 55.2387 69.4755 54.167L68.5811 53.7198ZM74.5528 54.2236C75.081 55.2799 74.967 56.544 74.2584 57.4889L75.0584 58.0889C75.9942 56.841 76.1448 55.1715 75.4472 53.7764L74.5528 54.2236ZM72 52.5C73.0363 52.5 73.9837 53.0855 74.4472 54.0125L75.3416 53.5652C74.7088 52.2995 73.4151 51.5 72 51.5V52.5ZM72 51.5C70.5849 51.5 69.2912 52.2995 68.6584 53.5652L69.5528 54.0125C70.0163 53.0855 70.9637 52.5 72 52.5V51.5Z" fill="#171717"/>
<path d="M74.8944 85.7889L75.3416 85.5652L75.3416 85.5652L74.8944 85.7889ZM75 86L74.5528 86.2236L74.5528 86.2236L75 86ZM69.0283 85.9434L69.4755 86.167L69.4755 86.167L69.0283 85.9434ZM69.1056 85.7889L68.6584 85.5652L68.6584 85.5652L69.1056 85.7889ZM76.5333 95.0666L76.9805 94.843L76.9805 94.843L76.5333 95.0666ZM67.4472 95.1056L67.8944 95.3292L67.8944 95.3292L67.4472 95.1056ZM71.8429 92.6115L71.4588 92.9315L71.4588 92.9315L71.8429 92.6115ZM69.472 89.7664L69.8561 89.4463L69.472 89.7664ZM74.6584 89.7889L75.0584 90.0889L75.0584 90.0889L74.6584 89.7889ZM74.5 90L74.1 89.7L74.1 89.7L74.5 90ZM74.4472 86.0125L74.5528 86.2236L75.4472 85.7764L75.3416 85.5652L74.4472 86.0125ZM69.4755 86.167L69.5528 86.0125L68.6584 85.5652L68.5811 85.7198L69.4755 86.167ZM76.0861 95.2902L76.5528 96.2236L77.4472 95.7764L76.9805 94.843L76.0861 95.2902ZM67 94.882L66.5528 95.7764L67.4472 96.2236L67.8944 95.3292L67 94.882ZM72.227 92.2914L69.8561 89.4463L69.0879 90.0865L71.4588 92.9315L72.227 92.2914ZM74.2584 89.4889L74.1 89.7L74.9 90.3L75.0584 90.0889L74.2584 89.4889ZM74.1 89.7L73.35 90.7L74.15 91.3L74.9 90.3L74.1 89.7ZM70.5 93.5H69.2361V94.5H70.5V93.5ZM67.8944 95.3292C68.1485 94.821 68.6679 94.5 69.2361 94.5V93.5C68.2891 93.5 67.4235 94.035 67 94.882L67.8944 95.3292ZM74.8075 94.5C75.349 94.5 75.8439 94.8059 76.0861 95.2902L76.9805 94.843C76.569 94.0199 75.7277 93.5 74.8075 93.5V94.5ZM74.8075 93.5C73.8106 93.5 72.8652 93.0572 72.227 92.2914L71.4588 92.9315C72.287 93.9254 73.5138 94.5 74.8075 94.5V93.5ZM68.5811 85.7198C67.8676 87.1468 68.0665 88.8608 69.0879 90.0865L69.8561 89.4463C69.0891 88.5259 68.9397 87.2387 69.4755 86.167L68.5811 85.7198ZM74.5528 86.2236C75.081 87.2799 74.967 88.544 74.2584 89.4889L75.0584 90.0889C75.9942 88.841 76.1448 87.1715 75.4472 85.7764L74.5528 86.2236ZM72 84.5C73.0363 84.5 73.9837 85.0855 74.4472 86.0125L75.3416 85.5652C74.7088 84.2995 73.4151 83.5 72 83.5V84.5ZM72 83.5C70.5849 83.5 69.2912 84.2995 68.6584 85.5652L69.5528 86.0125C70.0163 85.0855 70.9637 84.5 72 84.5V83.5Z" fill="#171717"/>
<path d="M106.894 53.7889L107.342 53.5652L107.342 53.5652L106.894 53.7889ZM107 54L106.553 54.2236L106.553 54.2236L107 54ZM101.028 53.9434L101.476 54.167L101.476 54.167L101.028 53.9434ZM101.106 53.7889L100.658 53.5652L100.658 53.5652L101.106 53.7889ZM108.533 63.0666L108.981 62.843L108.981 62.843L108.533 63.0666ZM99.4472 63.1056L99.8944 63.3292L99.8944 63.3292L99.4472 63.1056ZM103.843 60.6115L103.459 60.9315L103.459 60.9315L103.843 60.6115ZM101.472 57.7664L101.856 57.4463L101.472 57.7664ZM106.658 57.7889L107.058 58.0889L107.058 58.0889L106.658 57.7889ZM106.5 58L106.1 57.7L106.1 57.7L106.5 58ZM106.447 54.0125L106.553 54.2236L107.447 53.7764L107.342 53.5652L106.447 54.0125ZM101.476 54.167L101.553 54.0125L100.658 53.5652L100.581 53.7198L101.476 54.167ZM108.086 63.2902L108.553 64.2236L109.447 63.7764L108.981 62.843L108.086 63.2902ZM99 62.882L98.5528 63.7764L99.4472 64.2236L99.8944 63.3292L99 62.882ZM104.227 60.2914L101.856 57.4463L101.088 58.0865L103.459 60.9315L104.227 60.2914ZM106.258 57.4889L106.1 57.7L106.9 58.3L107.058 58.0889L106.258 57.4889ZM106.1 57.7L105.35 58.7L106.15 59.3L106.9 58.3L106.1 57.7ZM102.5 61.5H101.236V62.5H102.5V61.5ZM99.8944 63.3292C100.149 62.821 100.668 62.5 101.236 62.5V61.5C100.289 61.5 99.4235 62.035 99 62.882L99.8944 63.3292ZM106.807 62.5C107.349 62.5 107.844 62.8059 108.086 63.2902L108.981 62.843C108.569 62.0199 107.728 61.5 106.807 61.5V62.5ZM106.807 61.5C105.811 61.5 104.865 61.0572 104.227 60.2914L103.459 60.9315C104.287 61.9254 105.514 62.5 106.807 62.5V61.5ZM100.581 53.7198C99.8676 55.1468 100.067 56.8608 101.088 58.0865L101.856 57.4463C101.089 56.5259 100.94 55.2387 101.476 54.167L100.581 53.7198ZM106.553 54.2236C107.081 55.2799 106.967 56.544 106.258 57.4889L107.058 58.0889C107.994 56.841 108.145 55.1715 107.447 53.7764L106.553 54.2236ZM104 52.5C105.036 52.5 105.984 53.0855 106.447 54.0125L107.342 53.5652C106.709 52.2995 105.415 51.5 104 51.5V52.5ZM104 51.5C102.585 51.5 101.291 52.2995 100.658 53.5652L101.553 54.0125C102.016 53.0855 102.964 52.5 104 52.5V51.5Z" fill="#171717"/>
<path d="M106.894 85.7889L107.342 85.5652L107.342 85.5652L106.894 85.7889ZM107 86L106.553 86.2236L106.553 86.2236L107 86ZM101.028 85.9434L101.476 86.167L101.476 86.167L101.028 85.9434ZM101.106 85.7889L100.658 85.5652L100.658 85.5652L101.106 85.7889ZM108.533 95.0666L108.981 94.843L108.981 94.843L108.533 95.0666ZM99.4472 95.1056L99.8944 95.3292L99.8944 95.3292L99.4472 95.1056ZM103.843 92.6115L103.459 92.9315L103.459 92.9315L103.843 92.6115ZM101.472 89.7664L101.856 89.4463L101.472 89.7664ZM106.658 89.7889L107.058 90.0889L107.058 90.0889L106.658 89.7889ZM106.5 90L106.1 89.7L106.1 89.7L106.5 90ZM106.447 86.0125L106.553 86.2236L107.447 85.7764L107.342 85.5652L106.447 86.0125ZM101.476 86.167L101.553 86.0125L100.658 85.5652L100.581 85.7198L101.476 86.167ZM108.086 95.2902L108.553 96.2236L109.447 95.7764L108.981 94.843L108.086 95.2902ZM99 94.882L98.5528 95.7764L99.4472 96.2236L99.8944 95.3292L99 94.882ZM104.227 92.2914L101.856 89.4463L101.088 90.0865L103.459 92.9315L104.227 92.2914ZM106.258 89.4889L106.1 89.7L106.9 90.3L107.058 90.0889L106.258 89.4889ZM106.1 89.7L105.35 90.7L106.15 91.3L106.9 90.3L106.1 89.7ZM102.5 93.5H101.236V94.5H102.5V93.5ZM99.8944 95.3292C100.149 94.821 100.668 94.5 101.236 94.5V93.5C100.289 93.5 99.4235 94.035 99 94.882L99.8944 95.3292ZM106.807 94.5C107.349 94.5 107.844 94.8059 108.086 95.2902L108.981 94.843C108.569 94.0199 107.728 93.5 106.807 93.5V94.5ZM106.807 93.5C105.811 93.5 104.865 93.0572 104.227 92.2914L103.459 92.9315C104.287 93.9254 105.514 94.5 106.807 94.5V93.5ZM100.581 85.7198C99.8676 87.1468 100.067 88.8608 101.088 90.0865L101.856 89.4463C101.089 88.5259 100.94 87.2387 101.476 86.167L100.581 85.7198ZM106.553 86.2236C107.081 87.2799 106.967 88.544 106.258 89.4889L107.058 90.0889C107.994 88.841 108.145 87.1715 107.447 85.7764L106.553 86.2236ZM104 84.5C105.036 84.5 105.984 85.0855 106.447 86.0125L107.342 85.5652C106.709 84.2995 105.415 83.5 104 83.5V84.5ZM104 83.5C102.585 83.5 101.291 84.2995 100.658 85.5652L101.553 86.0125C102.016 85.0855 102.964 84.5 104 84.5V83.5Z" fill="#171717"/>
<path d="M138.894 53.7889L139.342 53.5652L139.342 53.5652L138.894 53.7889ZM139 54L138.553 54.2236L138.553 54.2236L139 54ZM133.028 53.9434L133.476 54.167L133.476 54.167L133.028 53.9434ZM133.106 53.7889L132.658 53.5652L132.658 53.5652L133.106 53.7889ZM140.533 63.0666L140.981 62.843L140.981 62.843L140.533 63.0666ZM131.447 63.1056L131.894 63.3292L131.894 63.3292L131.447 63.1056ZM135.843 60.6115L135.459 60.9315L135.459 60.9315L135.843 60.6115ZM133.472 57.7664L133.856 57.4463L133.472 57.7664ZM138.658 57.7889L139.058 58.0889L139.058 58.0889L138.658 57.7889ZM138.5 58L138.1 57.7L138.1 57.7L138.5 58ZM138.447 54.0125L138.553 54.2236L139.447 53.7764L139.342 53.5652L138.447 54.0125ZM133.476 54.167L133.553 54.0125L132.658 53.5652L132.581 53.7198L133.476 54.167ZM140.086 63.2902L140.553 64.2236L141.447 63.7764L140.981 62.843L140.086 63.2902ZM131 62.882L130.553 63.7764L131.447 64.2236L131.894 63.3292L131 62.882ZM136.227 60.2914L133.856 57.4463L133.088 58.0865L135.459 60.9315L136.227 60.2914ZM138.258 57.4889L138.1 57.7L138.9 58.3L139.058 58.0889L138.258 57.4889ZM138.1 57.7L137.35 58.7L138.15 59.3L138.9 58.3L138.1 57.7ZM134.5 61.5H133.236V62.5H134.5V61.5ZM131.894 63.3292C132.149 62.821 132.668 62.5 133.236 62.5V61.5C132.289 61.5 131.423 62.035 131 62.882L131.894 63.3292ZM138.807 62.5C139.349 62.5 139.844 62.8059 140.086 63.2902L140.981 62.843C140.569 62.0199 139.728 61.5 138.807 61.5V62.5ZM138.807 61.5C137.811 61.5 136.865 61.0572 136.227 60.2914L135.459 60.9315C136.287 61.9254 137.514 62.5 138.807 62.5V61.5ZM132.581 53.7198C131.868 55.1468 132.067 56.8608 133.088 58.0865L133.856 57.4463C133.089 56.5259 132.94 55.2387 133.476 54.167L132.581 53.7198ZM138.553 54.2236C139.081 55.2799 138.967 56.544 138.258 57.4889L139.058 58.0889C139.994 56.841 140.145 55.1715 139.447 53.7764L138.553 54.2236ZM136 52.5C137.036 52.5 137.984 53.0855 138.447 54.0125L139.342 53.5652C138.709 52.2995 137.415 51.5 136 51.5V52.5ZM136 51.5C134.585 51.5 133.291 52.2995 132.658 53.5652L133.553 54.0125C134.016 53.0855 134.964 52.5 136 52.5V51.5Z" fill="#171717"/>
<path d="M138.894 85.7889L139.342 85.5652L139.342 85.5652L138.894 85.7889ZM139 86L138.553 86.2236L138.553 86.2236L139 86ZM133.028 85.9434L133.476 86.167L133.476 86.167L133.028 85.9434ZM133.106 85.7889L132.658 85.5652L132.658 85.5652L133.106 85.7889ZM140.533 95.0666L140.981 94.843L140.981 94.843L140.533 95.0666ZM131.447 95.1056L131.894 95.3292L131.894 95.3292L131.447 95.1056ZM135.843 92.6115L135.459 92.9315L135.459 92.9315L135.843 92.6115ZM133.472 89.7664L133.856 89.4463L133.472 89.7664ZM138.658 89.7889L139.058 90.0889L139.058 90.0889L138.658 89.7889ZM138.5 90L138.1 89.7L138.1 89.7L138.5 90ZM138.447 86.0125L138.553 86.2236L139.447 85.7764L139.342 85.5652L138.447 86.0125ZM133.476 86.167L133.553 86.0125L132.658 85.5652L132.581 85.7198L133.476 86.167ZM140.086 95.2902L140.553 96.2236L141.447 95.7764L140.981 94.843L140.086 95.2902ZM131 94.882L130.553 95.7764L131.447 96.2236L131.894 95.3292L131 94.882ZM136.227 92.2914L133.856 89.4463L133.088 90.0865L135.459 92.9315L136.227 92.2914ZM138.258 89.4889L138.1 89.7L138.9 90.3L139.058 90.0889L138.258 89.4889ZM138.1 89.7L137.35 90.7L138.15 91.3L138.9 90.3L138.1 89.7ZM134.5 93.5H133.236V94.5H134.5V93.5ZM131.894 95.3292C132.149 94.821 132.668 94.5 133.236 94.5V93.5C132.289 93.5 131.423 94.035 131 94.882L131.894 95.3292ZM138.807 94.5C139.349 94.5 139.844 94.8059 140.086 95.2902L140.981 94.843C140.569 94.0199 139.728 93.5 138.807 93.5V94.5ZM138.807 93.5C137.811 93.5 136.865 93.0572 136.227 92.2914L135.459 92.9315C136.287 93.9254 137.514 94.5 138.807 94.5V93.5ZM132.581 85.7198C131.868 87.1468 132.067 88.8608 133.088 90.0865L133.856 89.4463C133.089 88.5259 132.94 87.2387 133.476 86.167L132.581 85.7198ZM138.553 86.2236C139.081 87.2799 138.967 88.544 138.258 89.4889L139.058 90.0889C139.994 88.841 140.145 87.1715 139.447 85.7764L138.553 86.2236ZM136 84.5C137.036 84.5 137.984 85.0855 138.447 86.0125L139.342 85.5652C138.709 84.2995 137.415 83.5 136 83.5V84.5ZM136 83.5C134.585 83.5 133.291 84.2995 132.658 85.5652L133.553 86.0125C134.016 85.0855 134.964 84.5 136 84.5V83.5Z" fill="#171717"/>
<path d="M360 364V384H424" stroke="#171717" stroke-linejoin="bevel"/>
<circle cx="424" cy="384" r="12" fill="#F5F5F5" stroke="#171717" stroke-linejoin="bevel"/>
<circle cx="392" cy="384" r="12" fill="#F5F5F5" stroke="#171717" stroke-linejoin="bevel"/>
<circle cx="360" cy="384" r="12" fill="#F5F5F5" stroke="#171717" stroke-linejoin="bevel"/>
<rect x="352" y="360" width="16" height="4" fill="#F5F5F5" stroke="#171717" stroke-linejoin="bevel"/>
<path d="M426.894 381.789L427.342 381.565L427.342 381.565L426.894 381.789ZM427 382L426.553 382.224L426.553 382.224L427 382ZM421.028 381.943L421.476 382.167L421.476 382.167L421.028 381.943ZM421.106 381.789L420.658 381.565L420.658 381.565L421.106 381.789ZM428.533 391.067L428.981 390.843L428.981 390.843L428.533 391.067ZM419.447 391.106L419.894 391.329L419.894 391.329L419.447 391.106ZM423.843 388.611L423.459 388.932L423.459 388.932L423.843 388.611ZM421.472 385.766L421.856 385.446L421.472 385.766ZM426.658 385.789L427.058 386.089L427.058 386.089L426.658 385.789ZM426.5 386L426.1 385.7L426.1 385.7L426.5 386ZM426.447 382.012L426.553 382.224L427.447 381.776L427.342 381.565L426.447 382.012ZM421.476 382.167L421.553 382.012L420.658 381.565L420.581 381.72L421.476 382.167ZM428.086 391.29L428.553 392.224L429.447 391.776L428.981 390.843L428.086 391.29ZM419 390.882L418.553 391.776L419.447 392.224L419.894 391.329L419 390.882ZM424.227 388.291L421.856 385.446L421.088 386.086L423.459 388.932L424.227 388.291ZM426.258 385.489L426.1 385.7L426.9 386.3L427.058 386.089L426.258 385.489ZM426.1 385.7L425.35 386.7L426.15 387.3L426.9 386.3L426.1 385.7ZM422.5 389.5H421.236V390.5H422.5V389.5ZM419.894 391.329C420.149 390.821 420.668 390.5 421.236 390.5V389.5C420.289 389.5 419.423 390.035 419 390.882L419.894 391.329ZM426.807 390.5C427.349 390.5 427.844 390.806 428.086 391.29L428.981 390.843C428.569 390.02 427.728 389.5 426.807 389.5V390.5ZM426.807 389.5C425.811 389.5 424.865 389.057 424.227 388.291L423.459 388.932C424.287 389.925 425.514 390.5 426.807 390.5V389.5ZM420.581 381.72C419.868 383.147 420.067 384.861 421.088 386.086L421.856 385.446C421.089 384.526 420.94 383.239 421.476 382.167L420.581 381.72ZM426.553 382.224C427.081 383.28 426.967 384.544 426.258 385.489L427.058 386.089C427.994 384.841 428.145 383.172 427.447 381.776L426.553 382.224ZM424 380.5C425.036 380.5 425.984 381.086 426.447 382.012L427.342 381.565C426.709 380.3 425.415 379.5 424 379.5V380.5ZM424 379.5C422.585 379.5 421.291 380.3 420.658 381.565L421.553 382.012C422.016 381.086 422.964 380.5 424 380.5V379.5Z" fill="#171717"/>
<path d="M394.894 381.789L395.342 381.565L395.342 381.565L394.894 381.789ZM395 382L394.553 382.224L394.553 382.224L395 382ZM389.028 381.943L389.476 382.167L389.476 382.167L389.028 381.943ZM389.106 381.789L388.658 381.565L388.658 381.565L389.106 381.789ZM396.533 391.067L396.981 390.843L396.981 390.843L396.533 391.067ZM387.447 391.106L387.894 391.329L387.894 391.329L387.447 391.106ZM391.843 388.611L391.459 388.932L391.459 388.932L391.843 388.611ZM389.472 385.766L389.856 385.446L389.472 385.766ZM394.658 385.789L395.058 386.089L395.058 386.089L394.658 385.789ZM394.5 386L394.1 385.7L394.1 385.7L394.5 386ZM394.447 382.012L394.553 382.224L395.447 381.776L395.342 381.565L394.447 382.012ZM389.476 382.167L389.553 382.012L388.658 381.565L388.581 381.72L389.476 382.167ZM396.086 391.29L396.553 392.224L397.447 391.776L396.981 390.843L396.086 391.29ZM387 390.882L386.553 391.776L387.447 392.224L387.894 391.329L387 390.882ZM392.227 388.291L389.856 385.446L389.088 386.086L391.459 388.932L392.227 388.291ZM394.258 385.489L394.1 385.7L394.9 386.3L395.058 386.089L394.258 385.489ZM394.1 385.7L393.35 386.7L394.15 387.3L394.9 386.3L394.1 385.7ZM390.5 389.5H389.236V390.5H390.5V389.5ZM387.894 391.329C388.149 390.821 388.668 390.5 389.236 390.5V389.5C388.289 389.5 387.423 390.035 387 390.882L387.894 391.329ZM394.807 390.5C395.349 390.5 395.844 390.806 396.086 391.29L396.981 390.843C396.569 390.02 395.728 389.5 394.807 389.5V390.5ZM394.807 389.5C393.811 389.5 392.865 389.057 392.227 388.291L391.459 388.932C392.287 389.925 393.514 390.5 394.807 390.5V389.5ZM388.581 381.72C387.868 383.147 388.067 384.861 389.088 386.086L389.856 385.446C389.089 384.526 388.94 383.239 389.476 382.167L388.581 381.72ZM394.553 382.224C395.081 383.28 394.967 384.544 394.258 385.489L395.058 386.089C395.994 384.841 396.145 383.172 395.447 381.776L394.553 382.224ZM392 380.5C393.036 380.5 393.984 381.086 394.447 382.012L395.342 381.565C394.709 380.3 393.415 379.5 392 379.5V380.5ZM392 379.5C390.585 379.5 389.291 380.3 388.658 381.565L389.553 382.012C390.016 381.086 390.964 380.5 392 380.5V379.5Z" fill="#171717"/>
<path d="M362.894 381.789L363.342 381.565L363.342 381.565L362.894 381.789ZM363 382L362.553 382.224L362.553 382.224L363 382ZM357.028 381.943L357.476 382.167L357.476 382.167L357.028 381.943ZM357.106 381.789L356.658 381.565L356.658 381.565L357.106 381.789ZM364.533 391.067L364.981 390.843L364.981 390.843L364.533 391.067ZM355.447 391.106L355.894 391.329L355.894 391.329L355.447 391.106ZM359.843 388.611L359.459 388.932L359.459 388.932L359.843 388.611ZM357.472 385.766L357.856 385.446L357.472 385.766ZM362.658 385.789L363.058 386.089L363.058 386.089L362.658 385.789ZM362.5 386L362.1 385.7L362.1 385.7L362.5 386ZM362.447 382.012L362.553 382.224L363.447 381.776L363.342 381.565L362.447 382.012ZM357.476 382.167L357.553 382.012L356.658 381.565L356.581 381.72L357.476 382.167ZM364.086 391.29L364.553 392.224L365.447 391.776L364.981 390.843L364.086 391.29ZM355 390.882L354.553 391.776L355.447 392.224L355.894 391.329L355 390.882ZM360.227 388.291L357.856 385.446L357.088 386.086L359.459 388.932L360.227 388.291ZM362.258 385.489L362.1 385.7L362.9 386.3L363.058 386.089L362.258 385.489ZM362.1 385.7L361.35 386.7L362.15 387.3L362.9 386.3L362.1 385.7ZM358.5 389.5H357.236V390.5H358.5V389.5ZM355.894 391.329C356.149 390.821 356.668 390.5 357.236 390.5V389.5C356.289 389.5 355.423 390.035 355 390.882L355.894 391.329ZM362.807 390.5C363.349 390.5 363.844 390.806 364.086 391.29L364.981 390.843C364.569 390.02 363.728 389.5 362.807 389.5V390.5ZM362.807 389.5C361.811 389.5 360.865 389.057 360.227 388.291L359.459 388.932C360.287 389.925 361.514 390.5 362.807 390.5V389.5ZM356.581 381.72C355.868 383.147 356.067 384.861 357.088 386.086L357.856 385.446C357.089 384.526 356.94 383.239 357.476 382.167L356.581 381.72ZM362.553 382.224C363.081 383.28 362.967 384.544 362.258 385.489L363.058 386.089C363.994 384.841 364.145 383.172 363.447 381.776L362.553 382.224ZM360 380.5C361.036 380.5 361.984 381.086 362.447 382.012L363.342 381.565C362.709 380.3 361.415 379.5 360 379.5V380.5ZM360 379.5C358.585 379.5 357.291 380.3 356.658 381.565L357.553 382.012C358.016 381.086 358.964 380.5 360 380.5V379.5Z" fill="#171717"/>
<rect x="464" y="212" width="16" height="4" fill="#F5F5F5" stroke="#171717" stroke-linejoin="bevel"/>
<path d="M472 212V192H568" stroke="#171717" stroke-linejoin="bevel"/>
<circle cx="568" cy="192" r="12" fill="#F5F5F5" stroke="#171717" stroke-linejoin="bevel"/>
<circle cx="536" cy="192" r="12" fill="#F5F5F5" stroke="#171717" stroke-linejoin="bevel"/>
<circle cx="504" cy="192" r="12" fill="#F5F5F5" stroke="#171717" stroke-linejoin="bevel"/>
<path d="M570.894 189.789L571.342 189.565L571.342 189.565L570.894 189.789ZM571 190L570.553 190.224L570.553 190.224L571 190ZM565.028 189.943L565.476 190.167L565.476 190.167L565.028 189.943ZM565.106 189.789L564.658 189.565L564.658 189.565L565.106 189.789ZM572.533 199.067L572.981 198.843L572.981 198.843L572.533 199.067ZM563.447 199.106L563.894 199.329L563.894 199.329L563.447 199.106ZM567.843 196.611L567.459 196.932L567.459 196.932L567.843 196.611ZM565.472 193.766L565.856 193.446L565.472 193.766ZM570.658 193.789L571.058 194.089L571.058 194.089L570.658 193.789ZM570.5 194L570.1 193.7L570.1 193.7L570.5 194ZM570.447 190.012L570.553 190.224L571.447 189.776L571.342 189.565L570.447 190.012ZM565.476 190.167L565.553 190.012L564.658 189.565L564.581 189.72L565.476 190.167ZM572.086 199.29L572.553 200.224L573.447 199.776L572.981 198.843L572.086 199.29ZM563 198.882L562.553 199.776L563.447 200.224L563.894 199.329L563 198.882ZM568.227 196.291L565.856 193.446L565.088 194.086L567.459 196.932L568.227 196.291ZM570.258 193.489L570.1 193.7L570.9 194.3L571.058 194.089L570.258 193.489ZM570.1 193.7L569.35 194.7L570.15 195.3L570.9 194.3L570.1 193.7ZM566.5 197.5H565.236V198.5H566.5V197.5ZM563.894 199.329C564.149 198.821 564.668 198.5 565.236 198.5V197.5C564.289 197.5 563.423 198.035 563 198.882L563.894 199.329ZM570.807 198.5C571.349 198.5 571.844 198.806 572.086 199.29L572.981 198.843C572.569 198.02 571.728 197.5 570.807 197.5V198.5ZM570.807 197.5C569.811 197.5 568.865 197.057 568.227 196.291L567.459 196.932C568.287 197.925 569.514 198.5 570.807 198.5V197.5ZM564.581 189.72C563.868 191.147 564.067 192.861 565.088 194.086L565.856 193.446C565.089 192.526 564.94 191.239 565.476 190.167L564.581 189.72ZM570.553 190.224C571.081 191.28 570.967 192.544 570.258 193.489L571.058 194.089C571.994 192.841 572.145 191.172 571.447 189.776L570.553 190.224ZM568 188.5C569.036 188.5 569.984 189.086 570.447 190.012L571.342 189.565C570.709 188.3 569.415 187.5 568 187.5V188.5ZM568 187.5C566.585 187.5 565.291 188.3 564.658 189.565L565.553 190.012C566.016 189.086 566.964 188.5 568 188.5V187.5Z" fill="#171717"/>
<path d="M538.894 189.789L539.342 189.565L539.342 189.565L538.894 189.789ZM539 190L538.553 190.224L538.553 190.224L539 190ZM533.028 189.943L533.476 190.167L533.476 190.167L533.028 189.943ZM533.106 189.789L532.658 189.565L532.658 189.565L533.106 189.789ZM540.533 199.067L540.981 198.843L540.981 198.843L540.533 199.067ZM531.447 199.106L531.894 199.329L531.894 199.329L531.447 199.106ZM535.843 196.611L535.459 196.932L535.459 196.932L535.843 196.611ZM533.472 193.766L533.856 193.446L533.472 193.766ZM538.658 193.789L539.058 194.089L539.058 194.089L538.658 193.789ZM538.5 194L538.1 193.7L538.1 193.7L538.5 194ZM538.447 190.012L538.553 190.224L539.447 189.776L539.342 189.565L538.447 190.012ZM533.476 190.167L533.553 190.012L532.658 189.565L532.581 189.72L533.476 190.167ZM540.086 199.29L540.553 200.224L541.447 199.776L540.981 198.843L540.086 199.29ZM531 198.882L530.553 199.776L531.447 200.224L531.894 199.329L531 198.882ZM536.227 196.291L533.856 193.446L533.088 194.086L535.459 196.932L536.227 196.291ZM538.258 193.489L538.1 193.7L538.9 194.3L539.058 194.089L538.258 193.489ZM538.1 193.7L537.35 194.7L538.15 195.3L538.9 194.3L538.1 193.7ZM534.5 197.5H533.236V198.5H534.5V197.5ZM531.894 199.329C532.149 198.821 532.668 198.5 533.236 198.5V197.5C532.289 197.5 531.423 198.035 531 198.882L531.894 199.329ZM538.807 198.5C539.349 198.5 539.844 198.806 540.086 199.29L540.981 198.843C540.569 198.02 539.728 197.5 538.807 197.5V198.5ZM538.807 197.5C537.811 197.5 536.865 197.057 536.227 196.291L535.459 196.932C536.287 197.925 537.514 198.5 538.807 198.5V197.5ZM532.581 189.72C531.868 191.147 532.067 192.861 533.088 194.086L533.856 193.446C533.089 192.526 532.94 191.239 533.476 190.167L532.581 189.72ZM538.553 190.224C539.081 191.28 538.967 192.544 538.258 193.489L539.058 194.089C539.994 192.841 540.145 191.172 539.447 189.776L538.553 190.224ZM536 188.5C537.036 188.5 537.984 189.086 538.447 190.012L539.342 189.565C538.709 188.3 537.415 187.5 536 187.5V188.5ZM536 187.5C534.585 187.5 533.291 188.3 532.658 189.565L533.553 190.012C534.016 189.086 534.964 188.5 536 188.5V187.5Z" fill="#171717"/>
<path d="M506.894 189.789L507.342 189.565L507.342 189.565L506.894 189.789ZM507 190L506.553 190.224L506.553 190.224L507 190ZM501.028 189.943L501.476 190.167L501.476 190.167L501.028 189.943ZM501.106 189.789L500.658 189.565L500.658 189.565L501.106 189.789ZM508.533 199.067L508.981 198.843L508.981 198.843L508.533 199.067ZM499.447 199.106L499.894 199.329L499.894 199.329L499.447 199.106ZM503.843 196.611L503.459 196.932L503.459 196.932L503.843 196.611ZM501.472 193.766L501.856 193.446L501.472 193.766ZM506.658 193.789L507.058 194.089L507.058 194.089L506.658 193.789ZM506.5 194L506.1 193.7L506.1 193.7L506.5 194ZM506.447 190.012L506.553 190.224L507.447 189.776L507.342 189.565L506.447 190.012ZM501.476 190.167L501.553 190.012L500.658 189.565L500.581 189.72L501.476 190.167ZM508.086 199.29L508.553 200.224L509.447 199.776L508.981 198.843L508.086 199.29ZM499 198.882L498.553 199.776L499.447 200.224L499.894 199.329L499 198.882ZM504.227 196.291L501.856 193.446L501.088 194.086L503.459 196.932L504.227 196.291ZM506.258 193.489L506.1 193.7L506.9 194.3L507.058 194.089L506.258 193.489ZM506.1 193.7L505.35 194.7L506.15 195.3L506.9 194.3L506.1 193.7ZM502.5 197.5H501.236V198.5H502.5V197.5ZM499.894 199.329C500.149 198.821 500.668 198.5 501.236 198.5V197.5C500.289 197.5 499.423 198.035 499 198.882L499.894 199.329ZM506.807 198.5C507.349 198.5 507.844 198.806 508.086 199.29L508.981 198.843C508.569 198.02 507.728 197.5 506.807 197.5V198.5ZM506.807 197.5C505.811 197.5 504.865 197.057 504.227 196.291L503.459 196.932C504.287 197.925 505.514 198.5 506.807 198.5V197.5ZM500.581 189.72C499.868 191.147 500.067 192.861 501.088 194.086L501.856 193.446C501.089 192.526 500.94 191.239 501.476 190.167L500.581 189.72ZM506.553 190.224C507.081 191.28 506.967 192.544 506.258 193.489L507.058 194.089C507.994 192.841 508.145 191.172 507.447 189.776L506.553 190.224ZM504 188.5C505.036 188.5 505.984 189.086 506.447 190.012L507.342 189.565C506.709 188.3 505.415 187.5 504 187.5V188.5ZM504 187.5C502.585 187.5 501.291 188.3 500.658 189.565L501.553 190.012C502.016 189.086 502.964 188.5 504 188.5V187.5Z" fill="#171717"/>
<rect x="508" y="136" width="16" height="4" transform="rotate(90 508 136)" fill="#F5F5F5" stroke="#171717" stroke-linejoin="bevel"/>
<path d="M508 144H536H568V112" stroke="#171717" stroke-linejoin="bevel"/>
<circle cx="568" cy="144" r="12" fill="#F5F5F5" stroke="#171717" stroke-linejoin="bevel"/>
<circle cx="568" cy="112" r="12" fill="#F5F5F5" stroke="#171717" stroke-linejoin="bevel"/>
<circle cx="536" cy="144" r="12" fill="#F5F5F5" stroke="#171717" stroke-linejoin="bevel"/>
<path d="M570.894 109.789L571.342 109.565L571.342 109.565L570.894 109.789ZM571 110L570.553 110.224L570.553 110.224L571 110ZM565.028 109.943L565.476 110.167L565.476 110.167L565.028 109.943ZM565.106 109.789L564.658 109.565L564.658 109.565L565.106 109.789ZM572.533 119.067L572.981 118.843L572.981 118.843L572.533 119.067ZM563.447 119.106L563.894 119.329L563.894 119.329L563.447 119.106ZM567.843 116.611L567.459 116.932L567.459 116.932L567.843 116.611ZM565.472 113.766L565.856 113.446L565.472 113.766ZM570.658 113.789L571.058 114.089L571.058 114.089L570.658 113.789ZM570.5 114L570.1 113.7L570.1 113.7L570.5 114ZM570.447 110.012L570.553 110.224L571.447 109.776L571.342 109.565L570.447 110.012ZM565.476 110.167L565.553 110.012L564.658 109.565L564.581 109.72L565.476 110.167ZM572.086 119.29L572.553 120.224L573.447 119.776L572.981 118.843L572.086 119.29ZM563 118.882L562.553 119.776L563.447 120.224L563.894 119.329L563 118.882ZM568.227 116.291L565.856 113.446L565.088 114.086L567.459 116.932L568.227 116.291ZM570.258 113.489L570.1 113.7L570.9 114.3L571.058 114.089L570.258 113.489ZM570.1 113.7L569.35 114.7L570.15 115.3L570.9 114.3L570.1 113.7ZM566.5 117.5H565.236V118.5H566.5V117.5ZM563.894 119.329C564.149 118.821 564.668 118.5 565.236 118.5V117.5C564.289 117.5 563.423 118.035 563 118.882L563.894 119.329ZM570.807 118.5C571.349 118.5 571.844 118.806 572.086 119.29L572.981 118.843C572.569 118.02 571.728 117.5 570.807 117.5V118.5ZM570.807 117.5C569.811 117.5 568.865 117.057 568.227 116.291L567.459 116.932C568.287 117.925 569.514 118.5 570.807 118.5V117.5ZM564.581 109.72C563.868 111.147 564.067 112.861 565.088 114.086L565.856 113.446C565.089 112.526 564.94 111.239 565.476 110.167L564.581 109.72ZM570.553 110.224C571.081 111.28 570.967 112.544 570.258 113.489L571.058 114.089C571.994 112.841 572.145 111.172 571.447 109.776L570.553 110.224ZM568 108.5C569.036 108.5 569.984 109.086 570.447 110.012L571.342 109.565C570.709 108.3 569.415 107.5 568 107.5V108.5ZM568 107.5C566.585 107.5 565.291 108.3 564.658 109.565L565.553 110.012C566.016 109.086 566.964 108.5 568 108.5V107.5Z" fill="#171717"/>
<path d="M570.894 141.789L571.342 141.565L571.342 141.565L570.894 141.789ZM571 142L570.553 142.224L570.553 142.224L571 142ZM565.028 141.943L565.476 142.167L565.476 142.167L565.028 141.943ZM565.106 141.789L564.658 141.565L564.658 141.565L565.106 141.789ZM572.533 151.067L572.981 150.843L572.981 150.843L572.533 151.067ZM563.447 151.106L563.894 151.329L563.894 151.329L563.447 151.106ZM567.843 148.611L567.459 148.932L567.459 148.932L567.843 148.611ZM565.472 145.766L565.856 145.446L565.472 145.766ZM570.658 145.789L571.058 146.089L571.058 146.089L570.658 145.789ZM570.5 146L570.1 145.7L570.1 145.7L570.5 146ZM570.447 142.012L570.553 142.224L571.447 141.776L571.342 141.565L570.447 142.012ZM565.476 142.167L565.553 142.012L564.658 141.565L564.581 141.72L565.476 142.167ZM572.086 151.29L572.553 152.224L573.447 151.776L572.981 150.843L572.086 151.29ZM563 150.882L562.553 151.776L563.447 152.224L563.894 151.329L563 150.882ZM568.227 148.291L565.856 145.446L565.088 146.086L567.459 148.932L568.227 148.291ZM570.258 145.489L570.1 145.7L570.9 146.3L571.058 146.089L570.258 145.489ZM570.1 145.7L569.35 146.7L570.15 147.3L570.9 146.3L570.1 145.7ZM566.5 149.5H565.236V150.5H566.5V149.5ZM563.894 151.329C564.149 150.821 564.668 150.5 565.236 150.5V149.5C564.289 149.5 563.423 150.035 563 150.882L563.894 151.329ZM570.807 150.5C571.349 150.5 571.844 150.806 572.086 151.29L572.981 150.843C572.569 150.02 571.728 149.5 570.807 149.5V150.5ZM570.807 149.5C569.811 149.5 568.865 149.057 568.227 148.291L567.459 148.932C568.287 149.925 569.514 150.5 570.807 150.5V149.5ZM564.581 141.72C563.868 143.147 564.067 144.861 565.088 146.086L565.856 145.446C565.089 144.526 564.94 143.239 565.476 142.167L564.581 141.72ZM570.553 142.224C571.081 143.28 570.967 144.544 570.258 145.489L571.058 146.089C571.994 144.841 572.145 143.172 571.447 141.776L570.553 142.224ZM568 140.5C569.036 140.5 569.984 141.086 570.447 142.012L571.342 141.565C570.709 140.3 569.415 139.5 568 139.5V140.5ZM568 139.5C566.585 139.5 565.291 140.3 564.658 141.565L565.553 142.012C566.016 141.086 566.964 140.5 568 140.5V139.5Z" fill="#171717"/>
<path d="M538.894 141.789L539.342 141.565L539.342 141.565L538.894 141.789ZM539 142L538.553 142.224L538.553 142.224L539 142ZM533.028 141.943L533.476 142.167L533.476 142.167L533.028 141.943ZM533.106 141.789L532.658 141.565L532.658 141.565L533.106 141.789ZM540.533 151.067L540.981 150.843L540.981 150.843L540.533 151.067ZM531.447 151.106L531.894 151.329L531.894 151.329L531.447 151.106ZM535.843 148.611L535.459 148.932L535.459 148.932L535.843 148.611ZM533.472 145.766L533.856 145.446L533.472 145.766ZM538.658 145.789L539.058 146.089L539.058 146.089L538.658 145.789ZM538.5 146L538.1 145.7L538.1 145.7L538.5 146ZM538.447 142.012L538.553 142.224L539.447 141.776L539.342 141.565L538.447 142.012ZM533.476 142.167L533.553 142.012L532.658 141.565L532.581 141.72L533.476 142.167ZM540.086 151.29L540.553 152.224L541.447 151.776L540.981 150.843L540.086 151.29ZM531 150.882L530.553 151.776L531.447 152.224L531.894 151.329L531 150.882ZM536.227 148.291L533.856 145.446L533.088 146.086L535.459 148.932L536.227 148.291ZM538.258 145.489L538.1 145.7L538.9 146.3L539.058 146.089L538.258 145.489ZM538.1 145.7L537.35 146.7L538.15 147.3L538.9 146.3L538.1 145.7ZM534.5 149.5H533.236V150.5H534.5V149.5ZM531.894 151.329C532.149 150.821 532.668 150.5 533.236 150.5V149.5C532.289 149.5 531.423 150.035 531 150.882L531.894 151.329ZM538.807 150.5C539.349 150.5 539.844 150.806 540.086 151.29L540.981 150.843C540.569 150.02 539.728 149.5 538.807 149.5V150.5ZM538.807 149.5C537.811 149.5 536.865 149.057 536.227 148.291L535.459 148.932C536.287 149.925 537.514 150.5 538.807 150.5V149.5ZM532.581 141.72C531.868 143.147 532.067 144.861 533.088 146.086L533.856 145.446C533.089 144.526 532.94 143.239 533.476 142.167L532.581 141.72ZM538.553 142.224C539.081 143.28 538.967 144.544 538.258 145.489L539.058 146.089C539.994 144.841 540.145 143.172 539.447 141.776L538.553 142.224ZM536 140.5C537.036 140.5 537.984 141.086 538.447 142.012L539.342 141.565C538.709 140.3 537.415 139.5 536 139.5V140.5ZM536 139.5C534.585 139.5 533.291 140.3 532.658 141.565L533.553 142.012C534.016 141.086 534.964 140.5 536 140.5V139.5Z" fill="#171717"/>
<path d="M216 72L168 24H24L24 263.882M647.999 24H503.999L455.999 72H264L230.142 105.858M647.999 456V72M168 264H120V216H264L257.999 210M503.999 312H168L174 306M120 120H168L162 114M311.999 120H216L222 114M311.999 120V168M311.999 120H455.999L449.999 114M311.999 168H264M311.999 168H359.999M599.999 360V72H551.999L503.999 120V168H407.999L374.142 201.858M503.999 216H359.999L365.999 210M86.0117 201.871L120 168H216L249.857 201.858M264 360H455.999L551.999 456H599.999M258 402L264 408H168L173.999 402M249.858 393.858L216 360H120L72 312L66 306M182.142 297.858L216 264H503.999L537.857 297.858M317.999 402L311.999 408H455.999V456H24V408V320M24 312L23.999 264" stroke="#171717" stroke-linejoin="bevel"/>
<path d="M623.999 456H611.999H605.999M623.999 456H635.999H641.999M623.999 456V480" stroke="#EA580C" stroke-width="3" stroke-linejoin="bevel"/>
<path d="M647.999 48V36V30V48ZM647.999 48V60V66V48ZM647.999 48H696" stroke="#EA580C" stroke-width="3" stroke-linejoin="bevel"/>
<circle cx="264" cy="72" r="2.5" fill="#171717" stroke="#171717"/>
<circle cx="120" cy="168" r="2.5" fill="#171717" stroke="#171717"/>
<circle cx="216" cy="168" r="2.5" fill="#171717" stroke="#171717"/>
<circle cx="24" cy="264" r="2.5" fill="#171717" stroke="#171717"/>
<circle cx="216" cy="360" r="2.5" fill="#171717" stroke="#171717"/>
<circle cx="504" cy="264" r="2.5" fill="#171717" stroke="#171717"/>
<circle cx="216" cy="264" r="2.5" fill="#171717" stroke="#171717"/>
<rect x="212.687" y="88" width="16" height="16" transform="rotate(-45 212.687 88)" fill="#FBBF24" stroke="#FBBF24" stroke-linejoin="bevel"/>
<rect x="196.687" y="40" width="16" height="16" transform="rotate(-45 196.687 40)" fill="#FBBF24" stroke="#FBBF24" stroke-linejoin="bevel"/>
<rect x="182.202" y="114.344" width="16" height="16" transform="rotate(-15 182.202 114.344)" fill="#FBBF24" stroke="#FBBF24" stroke-linejoin="bevel"/>
<rect x="237.073" y="45.0703" width="16" height="16" transform="rotate(30 237.073 45.0703)" fill="#FBBF24" stroke="#FBBF24" stroke-linejoin="bevel"/>
<rect x="264" y="48" width="16" height="16" fill="#FBBF24" stroke="#FBBF24" stroke-linejoin="bevel"/>
<rect x="78.2021" y="154.344" width="16" height="16" transform="rotate(-15 78.2021 154.344)" fill="#0EA5E9" stroke="#0EA5E9" stroke-linejoin="bevel"/>
<rect x="248" y="24" width="16" height="16" fill="#FBBF24" stroke="#FBBF24" stroke-linejoin="bevel"/>
<rect x="296" y="48" width="16" height="16" fill="#FBBF24" stroke="#FBBF24" stroke-linejoin="bevel"/>
<rect x="280" y="24" width="16" height="16" fill="#FBBF24" stroke="#FBBF24" stroke-linejoin="bevel"/>
<rect x="328" y="48" width="16" height="16" fill="#FBBF24" stroke="#FBBF24" stroke-linejoin="bevel"/>
<rect x="317.072" y="21.0703" width="16" height="16" transform="rotate(30 317.072 21.0703)" fill="#FBBF24" stroke="#FBBF24" stroke-linejoin="bevel"/>
<rect x="93.0723" y="397.07" width="16" height="16" transform="rotate(30 93.0723 397.07)" fill="#0EA5E9" stroke="#0EA5E9" stroke-linejoin="bevel"/>
<rect x="53.0723" y="405.07" width="16" height="16" transform="rotate(-30 53.0723 405.07)" fill="#0EA5E9" stroke="#0EA5E9" stroke-linejoin="bevel"/>
<rect x="536.001" y="260.688" width="16" height="16" transform="rotate(45 536.001 260.688)" fill="#EA580C" stroke="#EA580C" stroke-linejoin="bevel"/>
<rect x="360" y="48" width="16" height="16" fill="#FBBF24" stroke="#FBBF24" stroke-linejoin="bevel"/>
<rect x="392" y="48" width="16" height="16" fill="#FBBF24" stroke="#FBBF24" stroke-linejoin="bevel"/>
<rect x="424" y="48" width="16" height="16" fill="#FBBF24" stroke="#FBBF24" stroke-linejoin="bevel"/>
<rect x="480" y="348.688" width="16" height="16" transform="rotate(45 480 348.688)" fill="#EA580C" stroke="#EA580C" stroke-linejoin="bevel"/>
<rect x="568" y="40" width="16" height="16" fill="#EA580C" stroke="#EA580C" stroke-linejoin="bevel"/>
<rect x="324.687" y="216" width="16" height="16" transform="rotate(-45 324.687 216)" fill="#FBBF24" stroke="#FBBF24" stroke-linejoin="bevel"/>
<rect x="252.687" y="192" width="16" height="16" transform="rotate(-45 252.687 192)" fill="#FBBF24" stroke="#FBBF24" stroke-linejoin="bevel"/>
<rect x="469.071" y="117.07" width="16" height="16" transform="rotate(-30 469.071 117.07)" fill="#EA580C" stroke="#EA580C" stroke-linejoin="bevel"/>
<rect x="616" y="192" width="16" height="16" fill="#EA580C" stroke="#EA580C" stroke-linejoin="bevel"/>
<rect x="424" y="232" width="16" height="16" fill="#FBBF24" stroke="#FBBF24" stroke-linejoin="bevel"/>
<rect x="424" y="424" width="16" height="16" fill="#0EA5E9" stroke="#0EA5E9" stroke-linejoin="bevel"/>
<rect x="392" y="424" width="16" height="16" fill="#0EA5E9" stroke="#0EA5E9" stroke-linejoin="bevel"/>
<rect x="360" y="424" width="16" height="16" fill="#0EA5E9" stroke="#0EA5E9" stroke-linejoin="bevel"/>
<rect x="280" y="388.688" width="16" height="16" transform="rotate(45 280 388.688)" fill="#0EA5E9" stroke="#0EA5E9" stroke-linejoin="bevel"/>
<rect x="200" y="424" width="16" height="16" fill="#0EA5E9" stroke="#0EA5E9" stroke-linejoin="bevel"/>
<rect x="168" y="424" width="16" height="16" fill="#0EA5E9" stroke="#0EA5E9" stroke-linejoin="bevel"/>
<rect x="136" y="424" width="16" height="16" fill="#0EA5E9" stroke="#0EA5E9" stroke-linejoin="bevel"/>
<rect x="104" y="424" width="16" height="16" fill="#0EA5E9" stroke="#0EA5E9" stroke-linejoin="bevel"/>
<rect x="72" y="424" width="16" height="16" fill="#0EA5E9" stroke="#0EA5E9" stroke-linejoin="bevel"/>
<rect x="40" y="424" width="16" height="16" fill="#0EA5E9" stroke="#0EA5E9" stroke-linejoin="bevel"/>
<path d="M24 472V488H168V472H24Z" fill="#0EA5E9" stroke="#0EA5E9" stroke-linejoin="bevel"/>
<path d="M32 472V488" stroke="#0EA5E9" stroke-linejoin="bevel"/>
<path d="M40 472V488" stroke="#0EA5E9" stroke-linejoin="bevel"/>
<path d="M48 472V488" stroke="#0EA5E9" stroke-linejoin="bevel"/>
<path d="M56 472V488" stroke="#0EA5E9" stroke-linejoin="bevel"/>
<path d="M64 472V488" stroke="#0EA5E9" stroke-linejoin="bevel"/>
<path d="M72 472V488" stroke="#0EA5E9" stroke-linejoin="bevel"/>
<path d="M80 472V488" stroke="#0EA5E9" stroke-linejoin="bevel"/>
<path d="M88 472V488" stroke="#0EA5E9" stroke-linejoin="bevel"/>
<path d="M96 472V488" stroke="#0EA5E9" stroke-linejoin="bevel"/>
<path d="M104 472V488" stroke="#0EA5E9" stroke-linejoin="bevel"/>
<path d="M112 472V488" stroke="#0EA5E9" stroke-linejoin="bevel"/>
<path d="M120 472V488" stroke="#0EA5E9" stroke-linejoin="bevel"/>
<path d="M128 472V488" stroke="#0EA5E9" stroke-linejoin="bevel"/>
<path d="M136 472V488" stroke="#0EA5E9" stroke-linejoin="bevel"/>
<path d="M144 472V488" stroke="#0EA5E9" stroke-linejoin="bevel"/>
<path d="M152 472V488" stroke="#0EA5E9" stroke-linejoin="bevel"/>
<path d="M160 472V488" stroke="#0EA5E9" stroke-linejoin="bevel"/>
<path d="M456 471.5V488.5" stroke="#171717" stroke-linejoin="bevel"/>
<path d="M24 471.5L24 488.5" stroke="#171717" stroke-linejoin="bevel"/>
<rect x="164.687" y="280" width="16" height="16" transform="rotate(-45 164.687 280)" fill="#FBBF24" stroke="#FBBF24" stroke-linejoin="bevel"/>
<rect x="464" y="28.6875" width="16" height="16" transform="rotate(45 464 28.6875)" fill="#FBBF24" stroke="#FBBF24" stroke-linejoin="bevel"/>
<rect x="344" y="24" width="16" height="16" fill="#FBBF24" stroke="#FBBF24" stroke-linejoin="bevel"/>
<rect x="373.07" y="29.0742" width="16" height="16" transform="rotate(-30 373.07 29.0742)" fill="#FBBF24" stroke="#FBBF24" stroke-linejoin="bevel"/>
<rect x="408" y="24" width="16" height="16" fill="#FBBF24" stroke="#FBBF24" stroke-linejoin="bevel"/>
<path d="M274.179 437H277.091C279.569 437 280.773 435.292 280.773 432.114C280.773 428.936 279.569 427.228 277.091 427.228H274.179V437ZM275.733 435.712V428.516H276.993C278.421 428.516 279.121 429.524 279.121 431.302V432.926C279.121 434.704 278.421 435.712 276.993 435.712H275.733ZM286.745 437.168C289.223 437.168 290.329 435.306 290.329 432.114C290.329 428.922 289.223 427.06 286.745 427.06C284.267 427.06 283.161 428.922 283.161 432.114C283.161 435.306 284.267 437.168 286.745 437.168ZM286.745 435.866C285.345 435.866 284.827 434.732 284.827 432.94V431.288C284.827 429.496 285.345 428.362 286.745 428.362C288.145 428.362 288.663 429.496 288.663 431.288V432.926C288.663 434.732 288.145 435.866 286.745 435.866ZM297.436 437H299.452V427.228H298.08V434.746H297.954L295.084 427.228H293.068V437H294.44V429.482H294.566L297.436 437ZM308.897 437V435.684H304.347V432.702H308.729V431.386H304.347V428.544H308.897V427.228H302.779V437H308.897Z" fill="#171717"/>
<path d="M252.946 338.052H254.248L256.32 342H258.056L255.802 337.912C257.16 337.688 257.916 336.652 257.916 335.168C257.916 333.348 256.894 332.228 255.046 332.228H251.392V342H252.946V338.052ZM252.946 336.792V333.53H254.822C255.802 333.53 256.278 333.964 256.278 334.86V335.462C256.278 336.358 255.802 336.792 254.822 336.792H252.946ZM267.052 342V340.684H262.502V337.702H266.884V336.386H262.502V333.544H267.052V332.228H260.934V342H267.052ZM274.537 342L277.295 332.228H275.671L274.369 337.156L273.515 340.474H273.431L272.577 337.156L271.289 332.228H269.595L272.353 342H274.537ZM286.039 342V340.81H283.743V333.418H286.039V332.228H279.879V333.418H282.175V340.81H279.879V342H286.039ZM295.596 342V340.684H291.046V337.702H295.428V336.386H291.046V333.544H295.596V332.228H289.478V342H295.596ZM300.938 342L301.932 336.344H302.044L303.038 342H305.138L305.838 332.228H304.522L304.158 337.912L304.004 340.418H303.892L302.786 334.594H301.232L300.126 340.418H300.014L299.86 337.912L299.51 332.228H298.138L298.838 342H300.938ZM324.867 333.544V332.228H317.167V333.544H320.233V342H321.801V333.544H324.867ZM334.466 342L331.61 332.228H329.468L326.612 342H328.208L328.95 339.396H332.058L332.8 342H334.466ZM331.764 338.094H329.244L330.448 333.81H330.56L331.764 338.094ZM339.962 342.168C342.258 342.168 343.518 340.964 343.518 339.158C343.518 337.772 342.762 336.764 340.998 336.442L339.962 336.26C338.758 336.064 338.338 335.616 338.338 334.818C338.338 333.866 338.968 333.362 340.116 333.362C341.194 333.362 341.908 333.796 342.44 334.454L343.42 333.474C342.748 332.592 341.656 332.06 340.116 332.06C338.044 332.06 336.756 333.054 336.756 334.888C336.756 336.19 337.414 337.296 339.262 337.604L340.326 337.772C341.502 337.968 341.936 338.402 341.936 339.242C341.936 340.278 341.25 340.866 340.018 340.866C338.968 340.866 338.142 340.446 337.4 339.564L336.392 340.53C337.134 341.51 338.268 342.168 339.962 342.168ZM351.815 342H353.607L350.261 336.344L353.481 332.228H351.675L349.281 335.28L348.091 336.904H348.021V332.228H346.453V342H348.021V338.976L349.197 337.506L351.815 342ZM372.02 340.67H366.966L369.332 338.682C370.704 337.548 371.698 336.484 371.698 334.93C371.698 333.264 370.55 332.06 368.52 332.06C366.532 332.06 365.538 333.208 365.146 334.44L366.518 334.958C366.784 334.062 367.33 333.418 368.408 333.418C369.458 333.418 370.046 333.992 370.046 335.014V335.168C370.046 336.05 369.458 336.834 368.464 337.716L365.272 340.502V342H372.02V340.67Z" fill="#171717"/>
<path d="M251.946 242.052H253.248L255.32 246H257.056L254.802 241.912C256.16 241.688 256.916 240.652 256.916 239.168C256.916 237.348 255.894 236.228 254.046 236.228H250.392V246H251.946V242.052ZM251.946 240.792V237.53H253.822C254.802 237.53 255.278 237.964 255.278 238.86V239.462C255.278 240.358 254.802 240.792 253.822 240.792H251.946ZM266.052 246V244.684H261.502V241.702H265.884V240.386H261.502V237.544H266.052V236.228H259.934V246H266.052ZM273.537 246L276.295 236.228H274.671L273.369 241.156L272.515 244.474H272.431L271.577 241.156L270.289 236.228H268.595L271.353 246H273.537ZM285.039 246V244.81H282.743V237.418H285.039V236.228H278.879V237.418H281.175V244.81H278.879V246H285.039ZM294.596 246V244.684H290.046V241.702H294.428V240.386H290.046V237.544H294.596V236.228H288.478V246H294.596ZM299.938 246L300.932 240.344H301.044L302.038 246H304.138L304.838 236.228H303.522L303.158 241.912L303.004 244.418H302.892L301.786 238.594H300.232L299.126 244.418H299.014L298.86 241.912L298.51 236.228H297.138L297.838 246H299.938ZM323.867 237.544V236.228H316.167V237.544H319.233V246H320.801V237.544H323.867ZM333.466 246L330.61 236.228H328.468L325.612 246H327.208L327.95 243.396H331.058L331.8 246H333.466ZM330.764 242.094H328.244L329.448 237.81H329.56L330.764 242.094ZM338.962 246.168C341.258 246.168 342.518 244.964 342.518 243.158C342.518 241.772 341.762 240.764 339.998 240.442L338.962 240.26C337.758 240.064 337.338 239.616 337.338 238.818C337.338 237.866 337.968 237.362 339.116 237.362C340.194 237.362 340.908 237.796 341.44 238.454L342.42 237.474C341.748 236.592 340.656 236.06 339.116 236.06C337.044 236.06 335.756 237.054 335.756 238.888C335.756 240.19 336.414 241.296 338.262 241.604L339.326 241.772C340.502 241.968 340.936 242.402 340.936 243.242C340.936 244.278 340.25 244.866 339.018 244.866C337.968 244.866 337.142 244.446 336.4 243.564L335.392 244.53C336.134 245.51 337.268 246.168 338.962 246.168ZM350.815 246H352.607L349.261 240.344L352.481 236.228H350.675L348.281 239.28L347.091 240.904H347.021V236.228H345.453V246H347.021V242.976L348.197 241.506L350.815 246ZM371.3 246V244.698H368.934V236.228H366.512L364.02 238.93L364.986 239.798L367.254 237.376H367.366V244.698H364.622V246H371.3Z" fill="#171717"/>
<path d="M149.748 150V148.684H145.296V140.228H143.728V150H149.748ZM159.864 150L157.008 140.228H154.866L152.01 150H153.606L154.348 147.396H157.456L158.198 150H159.864ZM157.162 146.094H154.642L155.846 141.81H155.958L157.162 146.094ZM162.407 150H166.159C167.811 150 168.917 148.838 168.917 147.242C168.917 145.898 168.161 145.198 167.027 144.932V144.862C167.979 144.582 168.581 143.924 168.581 142.79C168.581 141.222 167.545 140.228 165.781 140.228H162.407V150ZM163.947 148.796V145.576H165.683C166.719 145.576 167.307 145.982 167.307 146.934V147.438C167.307 148.376 166.719 148.796 165.683 148.796H163.947ZM163.947 144.428V141.432H165.459C166.439 141.432 166.971 141.796 166.971 142.678V143.182C166.971 144.064 166.439 144.428 165.459 144.428H163.947ZM178.081 150V148.684H173.531V145.702H177.913V144.386H173.531V141.544H178.081V140.228H171.963V150H178.081ZM187.806 150V148.684H183.354V140.228H181.786V150H187.806ZM197.068 150V148.81H194.772V141.418H197.068V140.228H190.908V141.418H193.204V148.81H190.908V150H197.068ZM204.679 150H206.695V140.228H205.323V147.746H205.197L202.327 140.228H200.311V150H201.683V142.482H201.809L204.679 150ZM214.837 150H216.265V145.002H212.947V146.178H214.837V147.06C214.837 148.124 214.207 148.88 213.073 148.88C211.645 148.88 211.141 147.634 211.141 145.842V144.288C211.141 142.496 211.715 141.362 213.073 141.362C214.165 141.362 214.557 142.104 214.851 142.958L216.265 142.482C215.859 141.166 214.977 140.06 213.059 140.06C210.637 140.06 209.475 141.866 209.475 145.184C209.475 148.348 210.511 150.168 212.541 150.168C213.829 150.168 214.417 149.44 214.739 148.656H214.837V150ZM235.896 141.544V140.228H228.196V141.544H231.262V150H232.83V141.544H235.896ZM245.495 150L242.639 140.228H240.497L237.641 150H239.237L239.979 147.396H243.087L243.829 150H245.495ZM242.793 146.094H240.273L241.477 141.81H241.589L242.793 146.094ZM250.991 150.168C253.287 150.168 254.547 148.964 254.547 147.158C254.547 145.772 253.791 144.764 252.027 144.442L250.991 144.26C249.787 144.064 249.367 143.616 249.367 142.818C249.367 141.866 249.997 141.362 251.145 141.362C252.223 141.362 252.937 141.796 253.469 142.454L254.449 141.474C253.777 140.592 252.685 140.06 251.145 140.06C249.073 140.06 247.785 141.054 247.785 142.888C247.785 144.19 248.443 145.296 250.291 145.604L251.355 145.772C252.531 145.968 252.965 146.402 252.965 147.242C252.965 148.278 252.279 148.866 251.047 148.866C249.997 148.866 249.171 148.446 248.429 147.564L247.421 148.53C248.163 149.51 249.297 150.168 250.991 150.168ZM262.844 150H264.636L261.29 144.344L264.51 140.228H262.704L260.31 143.28L259.12 144.904H259.05V140.228H257.482V150H259.05V146.976L260.226 145.506L262.844 150Z" fill="#171717"/>
<path d="M361.96 146.052H363.262L365.334 150H367.07L364.816 145.912C366.174 145.688 366.93 144.652 366.93 143.168C366.93 141.348 365.908 140.228 364.06 140.228H360.406V150H361.96V146.052ZM361.96 144.792V141.53H363.836C364.816 141.53 365.292 141.964 365.292 142.86V143.462C365.292 144.358 364.816 144.792 363.836 144.792H361.96ZM376.067 150V148.684H371.517V145.702H375.899V144.386H371.517V141.544H376.067V140.228H369.949V150H376.067ZM381.409 150L382.403 144.344H382.515L383.509 150H385.609L386.309 140.228H384.993L384.629 145.912L384.475 148.418H384.363L383.257 142.594H381.703L380.597 148.418H380.485L380.331 145.912L379.981 140.228H378.609L379.309 150H381.409ZM391.974 150.168C394.452 150.168 395.558 148.306 395.558 145.114C395.558 141.922 394.452 140.06 391.974 140.06C389.496 140.06 388.39 141.922 388.39 145.114C388.39 148.306 389.496 150.168 391.974 150.168ZM391.974 148.866C390.574 148.866 390.056 147.732 390.056 145.94V144.288C390.056 142.496 390.574 141.362 391.974 141.362C393.374 141.362 393.892 142.496 393.892 144.288V145.926C393.892 147.732 393.374 148.866 391.974 148.866ZM400.018 146.052H401.32L403.392 150H405.128L402.874 145.912C404.232 145.688 404.988 144.652 404.988 143.168C404.988 141.348 403.966 140.228 402.118 140.228H398.464V150H400.018V146.052ZM400.018 144.792V141.53H401.894C402.874 141.53 403.35 141.964 403.35 142.86V143.462C403.35 144.358 402.874 144.792 401.894 144.792H400.018ZM413.257 150H415.049L411.703 144.344L414.923 140.228H413.117L410.723 143.28L409.533 144.904H409.463V140.228H407.895V150H409.463V146.976L410.639 145.506L413.257 150ZM433.882 141.544V140.228H426.182V141.544H429.248V150H430.816V141.544H433.882ZM443.48 150L440.624 140.228H438.482L435.626 150H437.222L437.964 147.396H441.072L441.814 150H443.48ZM440.778 146.094H438.258L439.462 141.81H439.574L440.778 146.094ZM448.977 150.168C451.273 150.168 452.533 148.964 452.533 147.158C452.533 145.772 451.777 144.764 450.013 144.442L448.977 144.26C447.773 144.064 447.353 143.616 447.353 142.818C447.353 141.866 447.983 141.362 449.131 141.362C450.209 141.362 450.923 141.796 451.455 142.454L452.435 141.474C451.763 140.592 450.671 140.06 449.131 140.06C447.059 140.06 445.771 141.054 445.771 142.888C445.771 144.19 446.429 145.296 448.277 145.604L449.341 145.772C450.517 145.968 450.951 146.402 450.951 147.242C450.951 148.278 450.265 148.866 449.033 148.866C447.983 148.866 447.157 148.446 446.415 147.564L445.407 148.53C446.149 149.51 447.283 150.168 448.977 150.168ZM460.829 150H462.621L459.275 144.344L462.495 140.228H460.689L458.295 143.28L457.105 144.904H457.035V140.228H455.467V150H457.035V146.976L458.211 145.506L460.829 150Z" fill="#171717"/>
<path d="M623.5 216.5V218.563H624.5V216.5H623.5ZM623.5 230.938V235.062H624.5V230.938H623.5ZM623.5 247.437V251.563H624.5V247.437H623.5ZM623.5 263.938V268.062H624.5V263.938H623.5ZM623.5 280.437V284.563H624.5V280.437H623.5ZM623.5 296.938V301.063H624.5V296.938H623.5ZM623.5 313.438V317.562H624.5V313.438H623.5ZM623.5 329.938V334.063H624.5V329.938H623.5ZM623.5 346.438V350.562H624.5V346.438H623.5ZM623.5 362.938V367.063H624.5V362.938H623.5ZM623.5 379.437V383.562H624.5V379.437H623.5ZM623.5 395.938V400.063H624.5V395.938H623.5ZM623.5 412.437V416.562H624.5V412.437H623.5ZM623.5 428.938V433.062H624.5V428.938H623.5ZM623.5 445.437V447.5H624.5V445.437H623.5Z" fill="#171717"/>
<path d="M639.5 48H592.5" stroke="#171717" stroke-linejoin="bevel" stroke-dasharray="4 12"/>
<circle cx="408" cy="168" r="2.5" fill="#171717" stroke="#171717"/>
<path d="M23.5 480H456" stroke="#171717"/>
</g>
<defs>
<clipPath id="clip0_3285_338830">
<rect width="672" height="512" rx="24" fill="white"/>
</clipPath>
</defs>
</svg>
