<svg xmlns="http://www.w3.org/2000/svg" fill="none" viewBox="0 0 117 43">
  <defs/>
  <path fill="#121619" d="M.953 1.254v20.83H21.73V1.254H.953zm14.382 14.419H7.347V7.665h7.988v8.008zM36.118 7.665h-7.993v8.013h7.993V7.665zM42.507 1.254h11.579c4.25 0 6.192 2.839 6.192 5.437 0 1.87-.72 3.074-2.64 4.201 2.422.897 3.743 2.522 3.743 5.022 0 2.992-2.183 6.17-7.28 6.17h-11.6l.006-20.83zm6.324 16.137h4.19a2.004 2.004 0 002.015-1.2 2.02 2.02 0 00.168-.813 1.809 1.809 0 00-1.24-1.658 1.796 1.796 0 00-.724-.082H48.83v3.753zm0-7.927h3.367c1.538 0 2.15-.716 2.15-1.772a1.556 1.556 0 00-1.055-1.53 1.546 1.546 0 00-.653-.073h-3.765l-.044 3.375zM67.972 1.254h6.695l7.638 20.786h-6.89l-1.01-3.112h-6.433l-.851 3.096h-6.788l7.639-20.77zm3.072 6.175l-1.763 6.947h3.776L71.044 7.43zM92.961 7.44h6.384c0-3.533-2.651-6.81-8.943-6.81-6.902 0-9.035 3.83-9.035 6.613 0 4.502 5.5 5.7 5.669 5.755.818.263 4.234 1.176 5.085 1.482.742.263 1.446.86 1.446 1.642 0 1.214-1.446 1.8-2.646 1.8-.775 0-3.372-.258-3.372-3.015h-6.591c0 3.66 2.515 7.762 9.564 7.762 7.786 0 9.412-4.655 9.412-7.11a5.753 5.753 0 00-1.058-3.256 5.73 5.73 0 00-2.717-2.073c-1.583-.64-4.213-1.203-5.527-1.586-.666-.197-2.881-.646-2.881-2.002 0-1.734 2.853-1.51 2.439-1.51 1.287-.011 2.771.717 2.771 2.308zM101.02 1.248h15.933v5.498h-9.565v3.665h8.528v5.251h-8.561v6.416h-6.367l.032-20.83zM9.246 38.566l-.01-.028-1.992-7.505h-1.25l-2.019 7.533h-.082l-.005-.028-1.768-7.505H.97l2.297 8.982h1.195l2.09-7.603h.076l.006.027 2.057 7.576h1.2l2.395-8.982h-1.13l-1.833 7.533h-.076zM17.589 34.644a2.858 2.858 0 00-.906-.908 2.663 2.663 0 00-1.43-.356 2.85 2.85 0 00-2.188.968c-.282.318-.497.69-.633 1.094a3.864 3.864 0 00-.229 1.357c.015.465.09.927.224 1.373.114.401.311.774.578 1.094.266.28.59.5.95.64a3.31 3.31 0 001.348.252 2.941 2.941 0 001.827-.547c.496-.399.825-.969.922-1.598h-.982c-.07.38-.278.721-.584.958a1.912 1.912 0 01-1.14.322 2.265 2.265 0 01-.938-.18 1.855 1.855 0 01-1.032-1.182 2.74 2.74 0 01-.103-.848h4.91a5.263 5.263 0 00-.109-1.214 3.633 3.633 0 00-.474-1.209l-.011-.016zm-4.305 1.553v-.033c.015-.247.069-.49.158-.722.09-.224.22-.428.387-.602a1.84 1.84 0 011.353-.558 1.93 1.93 0 011.348.553c.17.172.305.374.398.596.098.235.155.485.17.739v.033l-3.814-.006zM25.724 39.271a1.85 1.85 0 01-.895-.208 1.754 1.754 0 01-.6-.547c-.16-.236-.277-.499-.344-.776a3.836 3.836 0 01-.109-.897c.001-.326.036-.65.104-.969a2.37 2.37 0 01.338-.826c.167-.24.39-.435.65-.569a2.1 2.1 0 01.992-.218c.394-.015.78.108 1.092.35.28.25.472.587.545.957h1.042a2.526 2.526 0 00-.294-.957 2.185 2.185 0 00-.606-.69 2.392 2.392 0 00-.846-.41 3.926 3.926 0 00-1.036-.131 3.202 3.202 0 00-1.337.268c-.37.17-.697.423-.955.738-.25.327-.435.698-.546 1.094-.129.445-.193.905-.19 1.368-.01.45.048.898.174 1.33.112.4.307.774.573 1.093.26.296.585.526.95.673.416.167.86.248 1.309.24a2.8 2.8 0 001.953-.65c.5-.482.815-1.125.89-1.816h-1.032a1.91 1.91 0 01-.545 1.17c-.352.3-.805.453-1.266.427M31.868 33.73c-.43.293-.774.695-.999 1.165h-.033v-1.362h-.949v6.482h.982v-2.877c.002-.388.051-.773.148-1.149.073-.3.208-.582.398-.826.196-.246.454-.435.747-.547.35-.124.72-.185 1.092-.18v-1.094h-.077a2.31 2.31 0 00-1.315.35M38.748 34.644a2.89 2.89 0 00-.911-.908 2.663 2.663 0 00-1.43-.356 2.972 2.972 0 00-1.216.252c-.368.169-.697.413-.966.716a3.24 3.24 0 00-.628 1.094 3.866 3.866 0 00-.229 1.357c.013.465.086.927.218 1.373.118.4.317.773.584 1.094.26.303.588.543.955.7.426.178.886.264 1.348.252a2.935 2.935 0 001.822-.547c.499-.397.83-.967.928-1.598h-.993c-.067.38-.273.722-.579.958a1.928 1.928 0 01-1.14.322 2.244 2.244 0 01-.939-.18 1.872 1.872 0 01-.66-.487 1.855 1.855 0 01-.37-.695 2.742 2.742 0 01-.104-.908h4.91a5.25 5.25 0 00-.103-1.214 3.641 3.641 0 00-.48-1.209l-.017-.016zm-4.294 1.553v-.033c.011-.247.063-.491.153-.722.089-.224.22-.428.387-.602.164-.174.363-.312.584-.404.24-.105.501-.158.764-.154.259-.004.516.048.753.154.449.187.806.545.993.995.099.235.158.485.174.739v.033l-3.808-.006zM45.858 39.085a2.418 2.418 0 01-.044-.547v-3.391a1.72 1.72 0 00-.213-.908 1.514 1.514 0 00-.545-.547 2.227 2.227 0 00-.775-.252 5.157 5.157 0 00-1.904.05c-.308.067-.6.192-.863.366-.248.172-.452.4-.594.667-.155.302-.241.635-.251.974h1.01a1.096 1.096 0 01.506-.974 2.32 2.32 0 011.157-.268c.172.002.343.015.513.038.168.025.33.079.48.16.148.076.271.194.355.338.102.18.151.385.142.591a.614.614 0 01-.191.487c-.145.12-.314.206-.497.252-.23.06-.466.102-.704.125-.261 0-.545.071-.84.132a10.5 10.5 0 00-.813.191c-.25.068-.486.179-.698.328-.201.144-.367.33-.486.547a1.863 1.863 0 00-.185.892c-.009.286.047.57.163.831.11.215.266.402.459.547.203.146.433.252.676.312.272.063.55.094.83.093.429.004.854-.074 1.255-.23a2.619 2.619 0 001.02-.76l.06-.071v.093a.986.986 0 00.234.744.899.899 0 00.639.224c.256.014.512-.04.742-.153V39.2c-.096.03-.195.047-.295.05-.19 0-.3-.066-.333-.203l-.01.038zm-1.043-1.35a1.26 1.26 0 01-.114.497c-.086.19-.21.36-.366.498a1.93 1.93 0 01-.627.372 2.585 2.585 0 01-.922.147c-.163 0-.326-.016-.486-.049a1.348 1.348 0 01-.415-.17.989.989 0 01-.289-.311.944.944 0 01-.109-.465 1.02 1.02 0 01.18-.624c.126-.165.294-.293.486-.372.213-.087.437-.146.665-.175.23-.038.475-.07.726-.104a5.99 5.99 0 00.688-.115 1.29 1.29 0 00.545-.213l.055-.044-.017 1.127zM56.399 34.644a2.889 2.889 0 00-.911-.908 2.663 2.663 0 00-1.43-.356 2.95 2.95 0 00-1.216.252 2.871 2.871 0 00-.966.716 3.348 3.348 0 00-.633 1.094 3.994 3.994 0 00-.224 1.357c.014.465.087.926.218 1.373.117.401.316.774.584 1.094.26.303.588.543.955.7.427.178.886.264 1.348.252a2.926 2.926 0 001.822-.547c.495-.4.826-.969.928-1.598h-.993c-.071.38-.279.721-.584.958a1.895 1.895 0 01-1.135.322 2.244 2.244 0 01-.922-.246 1.872 1.872 0 01-.66-.487 1.858 1.858 0 01-.371-.694 2.56 2.56 0 01-.12-.843h4.91a4.935 4.935 0 00-.109-1.214 3.633 3.633 0 00-.475-1.209l-.016-.016zm-4.272 1.553v-.033c.009-.248.06-.492.153-.722.089-.224.22-.428.387-.602.159-.18.354-.326.573-.426.242-.106.505-.158.77-.153.258-.004.515.048.752.153a1.845 1.845 0 01.988.995c.1.235.158.485.174.739v.033l-3.797.016zM64.55 39.271a1.813 1.813 0 01-.889-.208 1.77 1.77 0 01-.605-.547 2.507 2.507 0 01-.344-.776 3.78 3.78 0 01-.104-.897c0-.326.032-.65.099-.969.063-.293.177-.572.338-.826.163-.243.382-.444.638-.585.308-.153.65-.228.993-.219.394-.015.78.11 1.091.35.285.248.478.586.546.958h1.048a2.531 2.531 0 00-.3-.958 2.186 2.186 0 00-.6-.689 2.515 2.515 0 00-.852-.41 3.923 3.923 0 00-1.031-.131 3.212 3.212 0 00-1.342.268c-.37.171-.696.424-.955.738a3.21 3.21 0 00-.546 1.094 4.79 4.79 0 00-.185 1.368c-.004.453.06.905.19 1.34.112.38.298.736.546 1.045.26.295.585.525.95.672.416.167.861.248 1.31.241a2.822 2.822 0 001.958-.65 2.99 2.99 0 00.922-1.79H66.4a1.944 1.944 0 01-.545 1.171c-.351.301-.805.454-1.266.427M73.614 34.042a1.745 1.745 0 00-.683-.487 2.846 2.846 0 00-1.09-.175 2.9 2.9 0 00-.595.066 2.432 2.432 0 00-.584.191 1.983 1.983 0 00-.502.34 1.444 1.444 0 00-.382.497h-.05v-3.44h-1.003v8.981h1.004V36.35c-.002-.28.04-.559.125-.826a1.84 1.84 0 01.366-.667c.168-.191.377-.342.61-.443.278-.106.572-.158.868-.153a1.354 1.354 0 01.999.366 1.323 1.323 0 01.365.99v4.376h1.01v-4.25a4.058 4.058 0 00-.11-.963 1.774 1.774 0 00-.365-.738M80.832 34.644a2.889 2.889 0 00-.911-.908 2.663 2.663 0 00-1.43-.356 2.994 2.994 0 00-1.222.252c-.366.169-.693.413-.96.716a3.348 3.348 0 00-.633 1.094 3.994 3.994 0 00-.224 1.357c.014.465.087.926.219 1.373.117.4.316.773.583 1.094.261.303.588.543.955.7.425.178.882.263 1.342.252a2.941 2.941 0 001.828-.547c.495-.4.826-.969.928-1.598h-.993c-.071.38-.279.721-.584.958a1.9 1.9 0 01-1.14.322 2.238 2.238 0 01-.933-.18 1.828 1.828 0 01-1.032-1.182 2.56 2.56 0 01-.103-.826v-.082h4.91a4.935 4.935 0 00-.109-1.214 3.633 3.633 0 00-.474-1.209l-.017-.016zm-4.3 1.553v-.033a2.15 2.15 0 01.17-.722c.087-.223.217-.428.382-.602a1.866 1.866 0 011.353-.547c.259-.004.516.048.753.154.449.187.806.545.993.995.099.235.158.484.174.739v.033l-3.824-.017zM91.22 33.801a1.934 1.934 0 00-.67-.334 3.63 3.63 0 00-.884-.103 2.397 2.397 0 00-1.162.29 2.3 2.3 0 00-.857.809l-.038.06v-.065a1.385 1.385 0 00-.677-.843 2.336 2.336 0 00-1.091-.252 2.418 2.418 0 00-2.122 1.095h-.039v-.925h-.976v6.482h1.004V35.99c.006-.164.04-.327.098-.481.15-.438.458-.804.862-1.029.252-.136.537-.204.824-.197.21-.007.418.032.61.115a.88.88 0 01.388.312c.1.143.169.305.202.476.04.194.06.392.06.59v4.262h1.004V35.99a1.694 1.694 0 01.464-1.236 1.733 1.733 0 011.277-.47c.224-.01.448.032.654.12.16.068.298.18.399.323.102.14.17.303.196.476.032.18.049.363.05.547v4.26h1.009v-4.764a2.127 2.127 0 00-.159-.853 1.428 1.428 0 00-.43-.547M94.576 32.286h-1.003v-1.253h1.003v1.253zm0 1.247h-1.003v6.482h1.003v-6.482zM100.589 39.73c.258-.153.475-.367.633-.623a1.76 1.76 0 00.246-.968 1.523 1.523 0 00-.18-.771 1.682 1.682 0 00-.47-.515 2.583 2.583 0 00-.654-.317 7.251 7.251 0 00-.786-.219l-.758-.17a4.715 4.715 0 01-.688-.201 1.638 1.638 0 01-.513-.312.718.718 0 01-.07-.925.957.957 0 01.337-.262c.146-.067.3-.113.459-.137a2.69 2.69 0 011.026 0c.17.038.333.1.485.186.146.087.27.204.366.344.096.155.153.332.163.515h1.01a2.327 2.327 0 00-.246-.947 1.673 1.673 0 00-.545-.618 2.402 2.402 0 00-.813-.328 5.356 5.356 0 00-1.02-.093 3.892 3.892 0 00-.857.104c-.29.066-.568.177-.824.328-.22.139-.407.326-.546.547-.15.251-.225.54-.218.832-.02.348.09.692.311.962.212.241.477.429.775.547.331.134.675.237 1.026.307.347.061.692.142 1.03.24.285.073.556.191.803.35a.758.758 0 01.333.662.814.814 0 01-.164.547.923.923 0 01-.398.307 1.956 1.956 0 01-.546.142c-.392.07-.792.07-1.184 0a1.581 1.581 0 01-.545-.213 1.163 1.163 0 01-.415-.4 1.316 1.316 0 01-.17-.59H95.98c.01.342.094.677.245.984.143.27.349.5.6.673.26.177.55.301.857.367.666.14 1.353.14 2.019 0a2.72 2.72 0 00.884-.334M104.19 31.57h-1.004v1.963h-1.091v.88h1.091v4.207a2.38 2.38 0 00.088.722.802.802 0 00.262.416c.135.106.294.176.463.203.235.04.472.059.71.054h.785v-.88h-.873a.582.582 0 01-.261-.088.36.36 0 01-.137-.197 1.302 1.302 0 01-.033-.317V34.43h1.343v-.897h-1.343V31.57zM48.973 31.57h-1.01v1.963h-1.09v.88h1.09v4.207c-.005.244.024.487.088.722.046.161.137.305.262.416.135.105.295.174.464.203.234.04.471.058.709.054h.786v-.88h-.873a.642.642 0 01-.262-.088.35.35 0 01-.131-.197 1.255 1.255 0 01-.033-.317V34.43h1.342v-.897h-1.342V31.57zM108.032 34.972h-.039v-1.439h-.954v6.482h1.009v-2.8a4.742 4.742 0 01.125-1.133 2.2 2.2 0 01.415-.842c.196-.246.454-.435.748-.547.35-.125.719-.186 1.091-.18v-1.095a2.384 2.384 0 00-1.386.35 2.989 2.989 0 00-.993 1.166M113.739 41.711c.14-.262.264-.532.371-.81l2.826-7.368h-1.091l-1.833 5.36h-.077l-1.904-5.338h-1.135l2.575 6.482-.442 1.094c-.084.18-.209.337-.365.46a.905.905 0 01-.546.158c-.113 0-.225-.018-.333-.054l-.267-.088v.946c.109.04.223.065.338.077.126.008.252.008.377 0 .211.004.421-.028.622-.093.176-.067.337-.167.475-.295.158-.162.293-.346.398-.547"/>
</svg>
