<svg width="12" height="12" viewBox="0 0 12 12" fill="none" xmlns="http://www.w3.org/2000/svg">
<path fill-rule="evenodd" clip-rule="evenodd" d="M2.25 1.5H9.75C9.94891 1.5 10.1397 1.57902 10.2803 1.71967C10.421 1.86032 10.5 2.05109 10.5 2.25V9.75C10.5 9.94891 10.421 10.1397 10.2803 10.2803C10.1397 10.421 9.94891 10.5 9.75 10.5H2.25C2.05109 10.5 1.86032 10.421 1.71967 10.2803C1.57902 10.1397 1.5 9.94891 1.5 9.75V2.25C1.5 2.05109 1.57902 1.86032 1.71967 1.71967C1.86032 1.57902 2.05109 1.5 2.25 1.5ZM2.25 7.5V9.75H9.75V9L7.875 7.125L7.27875 7.72125C7.13823 7.86094 6.94814 7.93934 6.75 7.93934C6.55186 7.93934 6.36177 7.86094 6.22125 7.72125L4.125 5.625L2.25 7.5ZM8.40375 6.5925L9.75 7.93875V2.25H2.25V6.43875L3.59625 5.0925C3.73677 4.95281 3.92686 4.87441 4.125 4.87441C4.32314 4.87441 4.51323 4.95281 4.65375 5.0925L6.75 7.18875L7.34625 6.5925C7.48677 6.45281 7.67686 6.37441 7.875 6.37441C8.07314 6.37441 8.26323 6.45281 8.40375 6.5925ZM7.75002 5.0604C7.56501 5.18402 7.3475 5.25 7.125 5.25C6.82663 5.25 6.54048 5.13147 6.3295 4.9205C6.11853 4.70952 6 4.42337 6 4.125C6 3.9025 6.06598 3.68499 6.1896 3.49998C6.31321 3.31498 6.48891 3.17078 6.69448 3.08564C6.90005 3.00049 7.12625 2.97821 7.34448 3.02162C7.56271 3.06503 7.76316 3.17217 7.9205 3.32951C8.07783 3.48684 8.18498 3.6873 8.22838 3.90552C8.27179 4.12375 8.24951 4.34995 8.16436 4.55552C8.07922 4.76109 7.93502 4.93679 7.75002 5.0604ZM7.33334 3.8132C7.27167 3.77199 7.19917 3.75 7.125 3.75C7.02554 3.75 6.93016 3.78951 6.85983 3.85984C6.78951 3.93016 6.75 4.02554 6.75 4.125C6.75 4.19917 6.77199 4.27167 6.8132 4.33334C6.8544 4.39501 6.91297 4.44307 6.98149 4.47146C7.05002 4.49984 7.12542 4.50726 7.19816 4.4928C7.2709 4.47833 7.33772 4.44261 7.39017 4.39017C7.44261 4.33772 7.47833 4.2709 7.49279 4.19816C7.50726 4.12542 7.49984 4.05002 7.47146 3.98149C7.44307 3.91297 7.39501 3.85441 7.33334 3.8132Z" fill="#2563EB"/>
</svg>
