<svg width="12" height="12" viewBox="0 0 12 12" fill="none" xmlns="http://www.w3.org/2000/svg">
<path fill-rule="evenodd" clip-rule="evenodd" d="M6.6525 11.25L6 10.875L7.5 8.25H9.75C9.94891 8.25 10.1397 8.17098 10.2803 8.03033C10.421 7.88968 10.5 7.69891 10.5 7.5V3C10.5 2.80109 10.421 2.61032 10.2803 2.46967C10.1397 2.32902 9.94891 2.25 9.75 2.25H2.25C2.05109 2.25 1.86032 2.32902 1.71967 2.46967C1.57902 2.61032 1.5 2.80109 1.5 3V7.5C1.5 7.69891 1.57902 7.88968 1.71967 8.03033C1.86032 8.17098 2.05109 8.25 2.25 8.25H5.625V9H2.25C1.85218 9 1.47064 8.84196 1.18934 8.56066C0.908035 8.27936 0.75 7.89782 0.75 7.5V3C0.75 2.60218 0.908035 2.22064 1.18934 1.93934C1.47064 1.65804 1.85218 1.5 2.25 1.5H9.75C10.1478 1.5 10.5294 1.65804 10.8107 1.93934C11.092 2.22064 11.25 2.60218 11.25 3V7.5C11.25 7.89782 11.092 8.27936 10.8107 8.56066C10.5294 8.84196 10.1478 9 9.75 9H7.935L6.6525 11.25ZM9 3.75H3V4.5H9V3.75ZM3 6H6.75V6.75H3V6Z" fill="#2563EB"/>
</svg>
