<svg width="59" height="62" viewBox="0 0 59 62" fill="none" xmlns="http://www.w3.org/2000/svg">
<g clip-path="url(#clip0)">
<path d="M29.4889 0.641968C28.0477 0.94663 15.3643 2.59168 13.7853 3.37331C13.4214 4.09501 12.6609 6.34668 12.4198 6.70295C11.4004 6.92021 7.26981 7.69851 7.01015 7.84751C6.86478 8.28036 5.91563 10.1283 5.69714 10.3447C4.82236 10.5612 0.744255 11.3101 0.235017 11.6714C-0.055736 13.4028 -1.16581 30.7277 6.1173 42.0543C13.4004 53.3809 26.1385 60.9202 29.4889 61.6419H29.5152C32.8655 60.9202 45.5774 53.3809 52.8605 42.0543C60.1428 30.7269 59.0615 13.4028 58.769 11.6714C58.259 11.3101 54.18 10.5612 53.3069 10.3447C53.0884 10.1283 52.1401 8.28036 51.9939 7.84751C51.7351 7.69851 47.6053 6.91937 46.5843 6.70295C46.3431 6.34668 45.5835 4.09501 45.2188 3.37331C43.6448 2.59417 30.9502 0.952456 29.4889 0.641968ZM29.4889 5.06414C30.7376 5.32885 41.5888 6.76538 42.9341 7.4313C43.2442 8.04812 43.8845 9.96204 44.0896 10.2667C44.961 10.4515 48.5158 11.1018 48.7376 11.2292C48.862 11.5988 49.6532 13.2034 49.8406 13.3882C50.5876 13.573 54.0796 14.1988 54.5149 14.5068C54.7645 15.9868 55.6981 30.7866 49.4729 40.4675C43.2478 50.1493 32.379 56.6038 29.5152 57.2198H29.4889C26.6251 56.6038 15.7563 50.1485 9.53113 40.4675C3.30683 30.7866 4.24044 15.9868 4.48917 14.5068C4.9253 14.198 8.41644 13.573 9.16349 13.3882C9.35088 13.2034 10.1421 11.5988 10.2664 11.2292C10.4883 11.1018 14.0168 10.4515 14.8882 10.2667C15.0941 9.96204 15.759 8.04812 16.0699 7.4313C17.4187 6.76288 28.257 5.32385 29.4889 5.06414Z" fill="#121619"/>
<path d="M31.4844 9.79838C31.0752 9.83833 31.0142 10.122 31.0117 10.2406C30.9277 24.0969 30.9676 38.7966 30.8541 53.0316C30.9466 53.4819 31.6716 52.7898 32.0884 52.5634C37.3942 49.6741 53.9432 33.7976 44.4307 28.1114C51.7146 23.3933 50.4165 18.8906 47.188 16.4316C40.5124 11.3448 32.8961 10.0818 32.0096 9.8504C31.7879 9.79255 31.6208 9.78506 31.4844 9.79838ZM35.9223 15.4952C36.0257 15.4394 40.3047 17.0108 42.645 18.5907C45.3281 20.402 44.4197 22.1428 42.8551 23.195C42.0055 23.7685 36.748 27.5089 35.8698 27.7212C35.8505 26.9995 35.8467 18.8614 35.9223 15.4952ZM39.8351 31.337C40.4213 31.3548 40.9782 31.5405 41.3845 31.9613C41.7475 32.305 43.3477 34.0138 39.9402 38.9067C38.6713 41.1259 36.0106 43.9092 35.7123 44.1873C35.6761 44.1972 35.6612 44.1421 35.6335 44.1612C35.6612 42.5705 35.6182 34.8699 35.7123 32.7156C35.9007 32.6182 38.0765 31.2833 39.8351 31.337V31.337Z" fill="#121619"/>
<path d="M13.3967 14.7876C12.9606 14.9724 9.24552 17.3157 8.87157 17.6853C8.76821 20.9516 9.65224 29.7643 12.9085 36.6425C13.3203 37.5124 13.7673 38.3282 14.2513 39.0665C15.1799 40.6547 15.232 40.5291 16.3127 39.0082C17.0614 38.0052 18.1412 36.5177 18.4118 36.2114C18.7849 37.4441 21.1975 45.1339 24.5907 49.7813C26.0949 51.8432 28.405 53.791 28.3957 52.9885C28.3033 45.1364 28.0764 11.1475 28.3251 9.7624C27.3243 9.73908 24.0412 10.1628 23.3916 10.4966C23.3378 11.7394 23.8428 35.0451 23.5319 37.6955C21.2319 32.145 20.4471 17.498 20.9017 11.4547C19.6572 11.7011 16.6219 12.9072 16.1866 13.3393C15.627 14.4489 16.3908 26.6187 17.1858 30.7033C16.9143 31.127 16.132 32.2774 16.0076 32.4622C14.4329 29.6561 12.9278 20.9808 13.3967 14.7876Z" fill="#121619"/>
</g>
<defs>
<clipPath id="clip0">
<rect width="59" height="61" fill="white" transform="translate(0 0.641602)"/>
</clipPath>
</defs>
</svg>
