<svg width="672" height="512" viewBox="0 0 672 512" fill="none" xmlns="http://www.w3.org/2000/svg">
<rect width="672" height="512" rx="24" fill="#FAFAFA"/>
<path d="M38.6613 49.8887V38.7207H42.5173C44.5333 38.7207 45.7173 39.8567 45.7173 41.6487C45.7173 42.9447 45.0293 43.6967 43.9413 44.0167V44.0967C45.2373 44.4007 46.1013 45.2007 46.1013 46.7367C46.1013 48.5607 44.8373 49.8887 42.9493 49.8887H38.6613ZM40.4213 48.5127H42.4053C43.5893 48.5127 44.2613 48.0327 44.2613 46.9607V46.3847C44.2613 45.2967 43.5893 44.8327 42.4053 44.8327H40.4213V48.5127ZM40.4213 43.5207H42.1493C43.2693 43.5207 43.8773 43.1047 43.8773 42.0967V41.5207C43.8773 40.5127 43.2693 40.0967 42.1493 40.0967H40.4213V43.5207ZM49.311 38.7207H51.103V45.5847C51.103 47.4247 51.199 48.5927 53.007 48.5927C54.815 48.5927 54.911 47.4247 54.911 45.5847V38.7207H56.703V45.2647C56.703 48.4647 56.127 50.0807 53.007 50.0807C49.887 50.0807 49.311 48.4647 49.311 45.2647V38.7207ZM67.6888 49.8887H60.8088V38.7207H62.6008V48.3847H67.6888V49.8887ZM77.3305 49.8887L74.3385 44.7527L72.9945 46.4327V49.8887H71.2025V38.7207H72.9945V44.0647H73.0745L74.4345 42.2087L77.1705 38.7207H79.2345L75.5545 43.4247L79.3785 49.8887H77.3305ZM96.822 50.0807C93.99 50.0807 92.63 48.0007 92.63 44.3047C92.63 40.6087 93.99 38.5287 96.822 38.5287C98.982 38.5287 99.974 39.7767 100.486 41.2967L98.87 41.8407C98.534 40.8167 98.07 40.0167 96.806 40.0167C95.222 40.0167 94.534 41.3127 94.534 43.3607V45.2487C94.534 47.2967 95.222 48.5927 96.806 48.5927C98.07 48.5927 98.534 47.7927 98.87 46.7687L100.486 47.3127C99.974 48.8327 98.982 50.0807 96.822 50.0807ZM111.184 49.8887H104.304V38.7207H106.096V48.3847H111.184V49.8887ZM122.746 49.8887H120.842L119.994 46.9127H116.442L115.594 49.8887H113.77L117.034 38.7207H119.482L122.746 49.8887ZM119.658 45.4247L118.282 40.5287H118.154L116.778 45.4247H119.658ZM129.027 50.0807C127.091 50.0807 125.795 49.3287 124.947 48.2087L126.099 47.1047C126.947 48.1127 127.891 48.5927 129.091 48.5927C130.499 48.5927 131.283 47.9207 131.283 46.7367C131.283 45.7767 130.787 45.2807 129.443 45.0567L128.227 44.8647C126.115 44.5127 125.363 43.2487 125.363 41.7607C125.363 39.6647 126.835 38.5287 129.203 38.5287C130.963 38.5287 132.211 39.1367 132.979 40.1447L131.859 41.2647C131.251 40.5127 130.435 40.0167 129.203 40.0167C127.891 40.0167 127.171 40.5927 127.171 41.6807C127.171 42.5927 127.651 43.1047 129.027 43.3287L130.211 43.5367C132.227 43.9047 133.091 45.0567 133.091 46.6407C133.091 48.7047 131.651 50.0807 129.027 50.0807ZM139.901 50.0807C137.965 50.0807 136.669 49.3287 135.821 48.2087L136.973 47.1047C137.821 48.1127 138.765 48.5927 139.965 48.5927C141.373 48.5927 142.157 47.9207 142.157 46.7367C142.157 45.7767 141.661 45.2807 140.317 45.0567L139.101 44.8647C136.989 44.5127 136.237 43.2487 136.237 41.7607C136.237 39.6647 137.709 38.5287 140.077 38.5287C141.837 38.5287 143.085 39.1367 143.853 40.1447L142.733 41.2647C142.125 40.5127 141.309 40.0167 140.077 40.0167C138.765 40.0167 138.045 40.5927 138.045 41.6807C138.045 42.5927 138.525 43.1047 139.901 43.3287L141.085 43.5367C143.101 43.9047 143.965 45.0567 143.965 46.6407C143.965 48.7047 142.525 50.0807 139.901 50.0807ZM154.391 49.8887H147.351V48.5287H149.975V40.0807H147.351V38.7207H154.391V40.0807H151.767V48.5287H154.391V49.8887ZM160.113 49.8887H158.321V38.7207H165.505V40.2247H160.113V43.4727H165.009V44.9767H160.113V49.8887ZM176.138 49.8887H169.098V48.5287H171.722V40.0807H169.098V38.7207H176.138V40.0807H173.514V48.5287H176.138V49.8887ZM183.812 50.0807C180.98 50.0807 179.62 48.0007 179.62 44.3047C179.62 40.6087 180.98 38.5287 183.812 38.5287C185.972 38.5287 186.964 39.7767 187.476 41.2967L185.86 41.8407C185.524 40.8167 185.06 40.0167 183.796 40.0167C182.212 40.0167 181.524 41.3127 181.524 43.3607V45.2487C181.524 47.2967 182.212 48.5927 183.796 48.5927C185.06 48.5927 185.524 47.7927 185.86 46.7687L187.476 47.3127C186.964 48.8327 185.972 50.0807 183.812 50.0807ZM198.862 49.8887H196.958L196.11 46.9127H192.558L191.71 49.8887H189.886L193.15 38.7207H195.598L198.862 49.8887ZM195.774 45.4247L194.398 40.5287H194.27L192.894 45.4247H195.774ZM209.639 40.2247H206.135V49.8887H204.343V40.2247H200.839V38.7207H209.639V40.2247ZM219.633 49.8887H212.593V48.5287H215.217V40.0807H212.593V38.7207H219.633V40.0807H217.009V48.5287H219.633V49.8887ZM226.987 50.0807C224.155 50.0807 222.891 47.9527 222.891 44.3047C222.891 40.6567 224.155 38.5287 226.987 38.5287C229.819 38.5287 231.083 40.6567 231.083 44.3047C231.083 47.9527 229.819 50.0807 226.987 50.0807ZM226.987 48.5927C228.587 48.5927 229.179 47.2967 229.179 45.2327V43.3607C229.179 41.3127 228.587 40.0167 226.987 40.0167C225.387 40.0167 224.795 41.3127 224.795 43.3607V45.2487C224.795 47.2967 225.387 48.5927 226.987 48.5927ZM239.205 49.8887L235.925 41.2967H235.781V49.8887H234.213V38.7207H236.517L239.797 47.3127H239.941V38.7207H241.509V49.8887H239.205Z" fill="#171717"/>
<path d="M40.5013 367.889H38.7093V356.721H45.8933V358.225H40.5013V361.473H45.3973V362.977H40.5013V367.889ZM53.007 368.081C50.175 368.081 48.911 365.953 48.911 362.305C48.911 358.657 50.175 356.529 53.007 356.529C55.839 356.529 57.103 358.657 57.103 362.305C57.103 365.953 55.839 368.081 53.007 368.081ZM53.007 366.593C54.607 366.593 55.199 365.297 55.199 363.233V361.361C55.199 359.313 54.607 358.017 53.007 358.017C51.407 358.017 50.815 359.313 50.815 361.361V363.249C50.815 365.297 51.407 366.593 53.007 366.593ZM60.1848 356.721H61.9768V363.585C61.9768 365.425 62.0728 366.593 63.8808 366.593C65.6888 366.593 65.7848 365.425 65.7848 363.585V356.721H67.5768V363.265C67.5768 366.465 67.0008 368.081 63.8808 368.081C60.7608 368.081 60.1848 366.465 60.1848 363.265V356.721ZM76.0985 367.889L72.8185 359.297H72.6745V367.889H71.1065V356.721H73.4105L76.6905 365.313H76.8345V356.721H78.4025V367.889H76.0985ZM82.1403 367.889V356.721H85.4683C88.3003 356.721 89.6763 358.673 89.6763 362.305C89.6763 365.937 88.3003 367.889 85.4683 367.889H82.1403ZM83.9163 366.417H85.3563C86.9883 366.417 87.7883 365.265 87.7883 363.233V361.377C87.7883 359.345 86.9883 358.193 85.3563 358.193H83.9163V366.417ZM100.998 367.889H99.094L98.246 364.913H94.694L93.846 367.889H92.022L95.286 356.721H97.734L100.998 367.889ZM97.91 363.425L96.534 358.529H96.406L95.03 363.425H97.91ZM111.776 358.225H108.272V367.889H106.48V358.225H102.976V356.721H111.776V358.225ZM121.77 367.889H114.73V366.529H117.354V358.081H114.73V356.721H121.77V358.081H119.146V366.529H121.77V367.889ZM129.123 368.081C126.291 368.081 125.027 365.953 125.027 362.305C125.027 358.657 126.291 356.529 129.123 356.529C131.955 356.529 133.219 358.657 133.219 362.305C133.219 365.953 131.955 368.081 129.123 368.081ZM129.123 366.593C130.723 366.593 131.315 365.297 131.315 363.233V361.361C131.315 359.313 130.723 358.017 129.123 358.017C127.523 358.017 126.931 359.313 126.931 361.361V363.249C126.931 365.297 127.523 366.593 129.123 366.593ZM141.341 367.889L138.061 359.297H137.917V367.889H136.349V356.721H138.653L141.933 365.313H142.077V356.721H143.645V367.889H141.341ZM164.065 367.889V362.545L164.113 359.185H163.985L161.745 364.929L159.505 359.185H159.377L159.425 362.545V367.889H157.841V356.721H160.033L161.745 361.153H161.857L163.585 356.721H165.649V367.889H164.065ZM172.618 368.081C169.786 368.081 168.522 365.953 168.522 362.305C168.522 358.657 169.786 356.529 172.618 356.529C175.45 356.529 176.714 358.657 176.714 362.305C176.714 365.953 175.45 368.081 172.618 368.081ZM172.618 366.593C174.218 366.593 174.81 365.297 174.81 363.233V361.361C174.81 359.313 174.218 358.017 172.618 358.017C171.018 358.017 170.426 359.313 170.426 361.361V363.249C170.426 365.297 171.018 366.593 172.618 366.593ZM180.004 367.889V356.721H183.332C186.164 356.721 187.54 358.673 187.54 362.305C187.54 365.937 186.164 367.889 183.332 367.889H180.004ZM181.78 366.417H183.22C184.852 366.417 185.652 365.265 185.652 363.233V361.377C185.652 359.345 184.852 358.193 183.22 358.193H181.78V366.417ZM197.934 367.889H190.942V356.721H197.934V358.225H192.734V361.473H197.742V362.977H192.734V366.385H197.934V367.889ZM209.047 367.889H202.167V356.721H203.959V366.385H209.047V367.889ZM216.017 368.081C214.081 368.081 212.785 367.329 211.937 366.209L213.089 365.105C213.937 366.113 214.881 366.593 216.081 366.593C217.489 366.593 218.273 365.921 218.273 364.737C218.273 363.777 217.777 363.281 216.433 363.057L215.217 362.865C213.105 362.513 212.353 361.249 212.353 359.761C212.353 357.665 213.825 356.529 216.193 356.529C217.953 356.529 219.201 357.137 219.969 358.145L218.849 359.265C218.241 358.513 217.425 358.017 216.193 358.017C214.881 358.017 214.161 358.593 214.161 359.681C214.161 360.593 214.641 361.105 216.017 361.329L217.201 361.537C219.217 361.905 220.081 363.057 220.081 364.641C220.081 366.705 218.641 368.081 216.017 368.081Z" fill="#171717"/>
<g clip-path="url(#clip0_3171_26205)">
<rect width="89.1131" height="62.7828" transform="translate(38.1526 380.963) rotate(-0.0480135)" fill="#93C5FD"/>
<path fill-rule="evenodd" clip-rule="evenodd" d="M69.7281 416.665L74.0651 416.661L74.0669 418.83L69.7299 418.833C69.1548 418.834 68.6031 418.606 68.1961 418.2C67.789 417.793 67.5601 417.242 67.5596 416.667L67.5451 399.319C67.5446 398.744 67.7726 398.192 68.179 397.785C68.5853 397.378 69.1367 397.149 69.7118 397.149L87.0597 397.134C87.6348 397.134 88.1865 397.362 88.5935 397.768C89.0005 398.174 89.2295 398.726 89.23 399.301L89.2336 403.638L87.0651 403.64L87.0615 399.303L69.7136 399.317L69.7281 416.665ZM77.3151 413.406L79.4836 413.404L79.4772 405.814L82.7299 405.812L82.7281 403.643L74.0542 403.65L74.056 405.819L77.3087 405.816L77.3151 413.406ZM97.4108 409.876L93.833 406.304C93.5104 405.983 93.0735 405.803 92.6182 405.803C92.163 405.804 91.7264 405.985 91.4043 406.306L76.2376 421.503L76.2427 427.502L82.2413 427.497L97.4128 412.305C97.734 411.982 97.9141 411.545 97.9137 411.09C97.9134 410.635 97.7325 410.198 97.4108 409.876ZM81.3413 425.329L78.4093 425.332L78.4069 422.4L88.6345 412.155L91.569 415.084L81.3413 425.329ZM93.1008 413.55L90.1665 410.62L92.6226 408.16L95.5571 411.09L93.1008 413.55Z" fill="#171717"/>
<rect width="89.1131" height="32.4892" transform="translate(38.1787 443.746)" fill="#F5F5F5"/>
</g>
<rect x="38.6787" y="381.389" width="88.1131" height="94.3466" rx="8.78262" stroke="#171717"/>
<g clip-path="url(#clip1_3171_26205)">
<rect width="89.1131" height="62.7828" transform="translate(139.643 380.963) rotate(-0.0480135)" fill="#4ADE80"/>
<path fill-rule="evenodd" clip-rule="evenodd" d="M185.131 400.63C179.743 400.63 175.063 403.705 171.337 410.281C171.048 410.791 170.399 410.971 169.889 410.681C169.378 410.392 169.199 409.744 169.488 409.233C173.461 402.223 178.745 398.505 185.131 398.505C186.697 398.505 188.013 398.966 188.939 399.892C189.863 400.815 190.269 402.074 190.269 403.417C190.269 404.96 189.575 406.157 188.669 407.113C187.803 408.026 186.675 408.788 185.664 409.47L185.613 409.505C184.542 410.229 183.599 410.871 182.909 411.599C182.245 412.299 181.891 412.999 181.891 413.833C181.891 414.385 182.091 414.972 182.491 415.409C182.871 415.826 183.485 416.167 184.452 416.167C185.646 416.167 186.468 415.768 187.368 415.278C187.435 415.241 187.504 415.203 187.574 415.164C188.41 414.703 189.45 414.129 190.792 414.129C191.784 414.129 192.671 414.414 193.328 414.983C193.992 415.559 194.345 416.365 194.345 417.229C194.345 418.471 193.852 419.217 193.41 419.732C193.3 419.86 193.226 419.942 193.169 420.004C193.108 420.071 193.067 420.116 193.024 420.173C193.033 420.187 193.044 420.204 193.057 420.222C193.161 420.371 193.337 420.565 193.593 420.798C194.104 421.261 194.812 421.769 195.559 422.253C196.298 422.732 197.042 423.166 197.603 423.482C197.883 423.639 198.116 423.766 198.278 423.853C198.359 423.896 198.422 423.93 198.465 423.952L198.512 423.977L198.524 423.983L198.527 423.985C198.526 423.985 198.527 423.985 198.527 423.985C199.047 424.255 199.251 424.896 198.981 425.417C198.711 425.938 198.07 426.141 197.549 425.871L198.038 424.928C197.549 425.871 197.549 425.871 197.549 425.871L197.543 425.868L197.528 425.861L197.474 425.832C197.427 425.807 197.359 425.771 197.272 425.725C197.1 425.632 196.855 425.499 196.562 425.334C195.977 425.006 195.192 424.548 194.403 424.036C193.621 423.53 192.801 422.949 192.165 422.371C191.849 422.084 191.547 421.77 191.317 421.442C191.101 421.135 190.862 420.693 190.862 420.173C190.862 419.648 191.069 419.249 191.274 418.965C191.393 418.8 191.576 418.596 191.698 418.46C191.739 418.414 191.774 418.376 191.797 418.349C192.034 418.072 192.22 417.799 192.22 417.229C192.22 416.962 192.12 416.749 191.936 416.589C191.743 416.421 191.385 416.254 190.792 416.254C190.014 416.254 189.43 416.573 188.498 417.082C188.461 417.102 188.423 417.122 188.385 417.143C187.417 417.671 186.201 418.292 184.452 418.292C182.927 418.292 181.73 417.727 180.922 416.842C180.132 415.977 179.766 414.865 179.766 413.833C179.766 412.289 180.46 411.093 181.367 410.137C182.233 409.224 183.361 408.462 184.372 407.779L184.423 407.744C185.494 407.021 186.437 406.378 187.127 405.65C187.791 404.95 188.144 404.251 188.144 403.417C188.144 402.495 187.872 401.829 187.437 401.394C187.004 400.961 186.283 400.63 185.131 400.63Z" fill="#171717"/>
<rect width="89.1131" height="32.4892" transform="translate(139.669 443.746)" fill="#F5F5F5"/>
</g>
<rect x="140.169" y="381.389" width="88.1131" height="94.3466" rx="8.78262" stroke="#171717"/>
<g clip-path="url(#clip2_3171_26205)">
<rect width="89.1131" height="62.7828" transform="translate(241.133 380.963) rotate(-0.0480135)" fill="#FBBF24"/>
<path d="M297.403 418.843V405.792C298.128 405.606 298.79 405.231 299.324 404.706C299.857 404.182 300.242 403.525 300.44 402.803C300.637 402.081 300.64 401.32 300.449 400.597C300.257 399.873 299.877 399.214 299.348 398.685C298.819 398.155 298.159 397.776 297.436 397.584C296.712 397.392 295.951 397.395 295.229 397.593C294.508 397.79 293.851 398.175 293.326 398.709C292.801 399.242 292.427 399.905 292.241 400.63H279.189C279.003 399.905 278.629 399.242 278.104 398.709C277.579 398.175 276.923 397.79 276.201 397.593C275.479 397.395 274.718 397.392 273.995 397.584C273.271 397.776 272.611 398.155 272.082 398.685C271.553 399.214 271.173 399.873 270.982 400.597C270.79 401.32 270.793 402.081 270.991 402.803C271.188 403.525 271.573 404.182 272.107 404.706C272.64 405.231 273.303 405.606 274.028 405.792V418.843C273.303 419.029 272.64 419.404 272.107 419.928C271.573 420.453 271.188 421.11 270.991 421.832C270.793 422.554 270.79 423.315 270.982 424.038C271.173 424.762 271.553 425.421 272.082 425.95C272.611 426.48 273.271 426.859 273.995 427.051C274.718 427.243 275.479 427.24 276.201 427.042C276.923 426.845 277.579 426.459 278.104 425.926C278.629 425.393 279.003 424.73 279.189 424.005H292.241C292.427 424.73 292.801 425.393 293.326 425.926C293.851 426.459 294.508 426.845 295.229 427.042C295.951 427.24 296.712 427.243 297.436 427.051C298.159 426.859 298.819 426.48 299.348 425.95C299.877 425.421 300.257 424.762 300.449 424.038C300.64 423.315 300.637 422.554 300.44 421.832C300.242 421.11 299.857 420.453 299.324 419.928C298.79 419.404 298.128 419.029 297.403 418.843ZM296.34 399.567C296.76 399.567 297.171 399.692 297.521 399.926C297.87 400.159 298.143 400.491 298.303 400.879C298.464 401.268 298.506 401.695 298.424 402.107C298.342 402.519 298.14 402.898 297.843 403.195C297.546 403.492 297.167 403.695 296.755 403.777C296.343 403.859 295.915 403.817 295.527 403.656C295.139 403.495 294.807 403.223 294.573 402.873C294.34 402.524 294.215 402.113 294.215 401.692C294.216 401.129 294.44 400.589 294.838 400.191C295.237 399.792 295.777 399.568 296.34 399.567ZM272.965 401.692C272.965 401.272 273.09 400.861 273.323 400.512C273.557 400.162 273.889 399.89 274.277 399.729C274.665 399.568 275.093 399.526 275.505 399.608C275.917 399.69 276.296 399.893 276.593 400.19C276.89 400.487 277.092 400.866 277.174 401.278C277.256 401.69 277.214 402.117 277.053 402.506C276.893 402.894 276.62 403.226 276.271 403.459C275.921 403.693 275.51 403.817 275.09 403.817C274.527 403.817 273.987 403.593 273.588 403.194C273.19 402.796 272.966 402.256 272.965 401.692ZM275.09 425.067C274.67 425.067 274.259 424.943 273.91 424.709C273.56 424.476 273.288 424.144 273.127 423.756C272.966 423.367 272.924 422.94 273.006 422.528C273.088 422.116 273.29 421.737 273.588 421.44C273.885 421.143 274.263 420.94 274.676 420.858C275.088 420.776 275.515 420.818 275.903 420.979C276.292 421.14 276.624 421.412 276.857 421.762C277.091 422.111 277.215 422.522 277.215 422.942C277.215 423.506 276.99 424.046 276.592 424.444C276.194 424.843 275.654 425.067 275.09 425.067ZM292.241 421.88H279.189C278.999 421.149 278.617 420.483 278.084 419.949C277.55 419.415 276.883 419.034 276.153 418.843V405.792C276.883 405.601 277.55 405.219 278.083 404.686C278.617 404.152 278.999 403.485 279.189 402.755H292.241C292.431 403.485 292.813 404.152 293.347 404.686C293.881 405.22 294.547 405.601 295.278 405.792V418.843C294.547 419.034 293.881 419.415 293.347 419.949C292.813 420.483 292.431 421.149 292.241 421.88ZM296.34 425.067C295.92 425.067 295.509 424.943 295.16 424.709C294.81 424.476 294.538 424.144 294.377 423.756C294.216 423.367 294.174 422.94 294.256 422.528C294.338 422.116 294.54 421.737 294.838 421.44C295.135 421.143 295.513 420.94 295.926 420.858C296.338 420.776 296.765 420.818 297.153 420.979C297.542 421.14 297.874 421.412 298.107 421.762C298.341 422.111 298.465 422.522 298.465 422.942C298.464 423.506 298.24 424.046 297.842 424.444C297.444 424.843 296.904 425.067 296.34 425.067Z" fill="#171717"/>
<rect width="89.1131" height="32.4892" transform="translate(241.159 443.746)" fill="#F5F5F5"/>
</g>
<rect x="241.659" y="381.389" width="88.1131" height="94.3466" rx="8.78262" stroke="#171717"/>
<g clip-path="url(#clip3_3171_26205)">
<rect width="89.1131" height="62.7828" transform="translate(342.623 380.963) rotate(-0.0480135)" fill="#93C5FD"/>
<path fill-rule="evenodd" clip-rule="evenodd" d="M374.198 416.665L378.535 416.661L378.537 418.83L374.2 418.833C373.625 418.834 373.073 418.606 372.666 418.2C372.259 417.793 372.03 417.242 372.03 416.667L372.015 399.319C372.015 398.744 372.243 398.192 372.649 397.785C373.055 397.378 373.607 397.149 374.182 397.149L391.53 397.134C392.105 397.134 392.656 397.362 393.064 397.768C393.471 398.174 393.699 398.726 393.7 399.301L393.704 403.638L391.535 403.64L391.531 399.303L374.184 399.317L374.198 416.665ZM381.785 413.406L383.954 413.404L383.947 405.814L387.2 405.812L387.198 403.643L378.524 403.65L378.526 405.819L381.779 405.816L381.785 413.406ZM401.881 409.876L398.303 406.304C397.98 405.983 397.543 405.803 397.088 405.803C396.633 405.804 396.196 405.985 395.874 406.306L380.708 421.503L380.713 427.502L386.711 427.497L401.883 412.305C402.204 411.982 402.384 411.545 402.384 411.09C402.383 410.635 402.202 410.198 401.881 409.876ZM385.811 425.329L382.879 425.332L382.877 422.4L393.104 412.155L396.039 415.084L385.811 425.329ZM397.571 413.55L394.636 410.62L397.093 408.16L400.027 411.09L397.571 413.55Z" fill="#171717"/>
<rect width="89.1131" height="32.4892" transform="translate(342.649 443.746)" fill="#F5F5F5"/>
</g>
<rect x="343.149" y="381.389" width="88.1131" height="94.3466" rx="8.78262" stroke="#171717"/>
<g clip-path="url(#clip4_3171_26205)">
<rect width="89.1131" height="62.7828" transform="translate(444.113 380.963) rotate(-0.0480135)" fill="#4ADE80"/>
<path fill-rule="evenodd" clip-rule="evenodd" d="M489.601 400.63C484.213 400.63 479.533 403.705 475.807 410.281C475.518 410.791 474.869 410.971 474.359 410.681C473.848 410.392 473.669 409.744 473.958 409.233C477.931 402.223 483.214 398.505 489.601 398.505C491.167 398.505 492.483 398.966 493.409 399.892C494.333 400.815 494.739 402.074 494.739 403.417C494.739 404.96 494.045 406.157 493.139 407.113C492.273 408.026 491.144 408.788 490.134 409.47L490.083 409.505C489.012 410.229 488.069 410.871 487.379 411.599C486.715 412.299 486.361 412.999 486.361 413.833C486.361 414.385 486.561 414.972 486.961 415.409C487.341 415.826 487.955 416.167 488.922 416.167C490.116 416.167 490.938 415.768 491.838 415.278C491.905 415.241 491.974 415.203 492.044 415.164C492.88 414.703 493.92 414.129 495.262 414.129C496.254 414.129 497.141 414.414 497.797 414.983C498.462 415.559 498.815 416.365 498.815 417.229C498.815 418.471 498.322 419.217 497.88 419.732C497.77 419.86 497.696 419.942 497.639 420.004C497.578 420.071 497.537 420.116 497.494 420.173C497.503 420.187 497.514 420.204 497.527 420.222C497.631 420.371 497.807 420.565 498.063 420.798C498.574 421.261 499.282 421.769 500.029 422.253C500.768 422.732 501.511 423.166 502.073 423.482C502.353 423.639 502.586 423.766 502.748 423.853C502.829 423.896 502.892 423.93 502.935 423.952L502.982 423.977L502.994 423.983L502.996 423.985C502.996 423.985 502.997 423.985 502.996 423.985C503.517 424.255 503.721 424.896 503.451 425.417C503.181 425.938 502.54 426.141 502.019 425.871L502.508 424.928C502.019 425.871 502.019 425.871 502.019 425.871L502.013 425.868L501.998 425.861L501.944 425.832C501.897 425.807 501.829 425.771 501.742 425.725C501.57 425.632 501.325 425.499 501.032 425.334C500.447 425.006 499.662 424.548 498.873 424.036C498.091 423.53 497.271 422.949 496.635 422.371C496.319 422.084 496.017 421.77 495.787 421.442C495.571 421.135 495.332 420.693 495.332 420.173C495.332 419.648 495.539 419.249 495.744 418.965C495.863 418.8 496.046 418.596 496.168 418.46C496.209 418.414 496.244 418.376 496.267 418.349C496.504 418.072 496.69 417.799 496.69 417.229C496.69 416.962 496.59 416.749 496.406 416.589C496.213 416.421 495.855 416.254 495.262 416.254C494.484 416.254 493.9 416.573 492.967 417.082C492.931 417.102 492.893 417.122 492.855 417.143C491.887 417.671 490.671 418.292 488.922 418.292C487.397 418.292 486.2 417.727 485.392 416.842C484.602 415.977 484.236 414.865 484.236 413.833C484.236 412.289 484.93 411.093 485.837 410.137C486.703 409.224 487.831 408.462 488.842 407.779L488.893 407.744C489.964 407.021 490.907 406.378 491.597 405.65C492.261 404.95 492.614 404.251 492.614 403.417C492.614 402.495 492.342 401.829 491.907 401.394C491.474 400.961 490.753 400.63 489.601 400.63Z" fill="#171717"/>
<rect width="89.1131" height="32.4892" transform="translate(444.139 443.746)" fill="#F5F5F5"/>
</g>
<rect x="444.639" y="381.389" width="88.1131" height="94.3466" rx="8.78262" stroke="#171717"/>
<g clip-path="url(#clip5_3171_26205)">
<rect width="89.1131" height="62.7828" transform="translate(545.602 380.963) rotate(-0.0480135)" fill="#FB923C"/>
<path fill-rule="evenodd" clip-rule="evenodd" d="M577.169 405.823L581.506 405.819C582.081 405.818 582.632 405.589 583.038 405.182C583.444 404.775 583.672 404.224 583.672 403.649L583.669 399.312C583.668 398.737 583.439 398.186 583.032 397.779C582.625 397.373 582.073 397.145 581.498 397.145L577.161 397.149C576.587 397.15 576.036 397.379 575.629 397.786C575.223 398.193 574.995 398.744 574.995 399.319L574.998 403.656C575 404.231 575.229 404.782 575.636 405.188C576.042 405.594 576.594 405.822 577.169 405.823ZM577.167 403.654L577.163 399.317L581.5 399.313L581.504 403.65L577.167 403.654ZM603.183 397.127L596.678 397.132C596.103 397.133 595.552 397.363 595.146 397.769C594.74 398.176 594.511 398.728 594.511 399.303L594.517 405.808L592.348 405.81C591.773 405.811 591.222 406.04 590.816 406.447C590.41 406.854 590.182 407.405 590.181 407.98L590.183 410.149C590.184 410.724 590.414 411.275 590.82 411.681C591.227 412.087 591.779 412.315 592.354 412.315L594.522 412.313C595.097 412.312 595.648 412.083 596.054 411.676C596.46 411.269 596.689 410.718 596.689 410.143L596.687 407.975L603.192 407.969C603.767 407.968 604.318 407.739 604.724 407.332C605.131 406.925 605.359 406.374 605.359 405.799L605.354 399.293C605.352 398.719 605.123 398.168 604.716 397.761C604.31 397.355 603.758 397.127 603.183 397.127ZM592.352 410.147L592.35 407.978L594.518 407.977L594.52 410.145L592.352 410.147ZM596.685 405.806L596.68 399.301L603.185 399.295L603.191 405.801L596.685 405.806ZM588.008 401.477L590.176 401.475L590.178 403.643L588.009 403.645L588.008 401.477ZM605.365 412.304L603.196 412.306L603.198 414.475L605.366 414.473L605.365 412.304ZM596.692 414.48L594.524 414.482L594.526 416.65L596.694 416.649L596.692 414.48ZM590.191 418.823L585.854 418.826L585.848 412.321C585.847 411.746 585.618 411.195 585.211 410.789C584.804 410.382 584.253 410.154 583.678 410.154L577.172 410.16C576.597 410.161 576.046 410.39 575.64 410.797C575.234 411.204 575.006 411.755 575.006 412.33L575.011 418.835C575.012 419.41 575.241 419.961 575.648 420.367C576.055 420.774 576.607 421.002 577.181 421.002L583.687 420.996L583.691 425.333C583.692 425.908 583.921 426.459 584.328 426.866C584.735 427.272 585.286 427.5 585.861 427.5L590.198 427.496C590.773 427.495 591.324 427.266 591.73 426.859C592.136 426.452 592.364 425.901 592.364 425.326L592.361 420.989C592.36 420.414 592.131 419.863 591.724 419.457C591.317 419.051 590.765 418.823 590.191 418.823ZM577.18 418.833L577.174 412.328L583.68 412.323L583.685 418.828L577.18 418.833ZM585.859 425.332L585.855 420.995L590.192 420.991L590.196 425.328L585.859 425.332ZM598.872 427.489L603.209 427.486C603.784 427.485 604.335 427.255 604.741 426.849C605.147 426.442 605.375 425.89 605.375 425.315L605.372 420.978C605.371 420.403 605.142 419.852 604.735 419.446C604.328 419.04 603.776 418.812 603.201 418.812L598.864 418.815C598.29 418.816 597.739 419.046 597.332 419.452C596.926 419.859 596.698 420.411 596.698 420.986L596.701 425.323C596.703 425.898 596.932 426.449 597.339 426.855C597.745 427.261 598.297 427.489 598.872 427.489ZM598.87 425.321L598.866 420.984L603.203 420.98L603.207 425.317L598.87 425.321Z" fill="#171717"/>
<rect width="89.1131" height="32.4892" transform="translate(545.628 443.746)" fill="#F5F5F5"/>
</g>
<rect x="546.128" y="381.389" width="88.1131" height="94.3466" rx="8.78262" stroke="#171717"/>
<rect x="37.5" y="65.3887" width="374" height="256" stroke="#171717"/>
<path fill-rule="evenodd" clip-rule="evenodd" d="M371.111 91.0684C372.262 90.2992 373.616 89.8887 375 89.8887C376.857 89.8887 378.637 90.6262 379.95 91.9389C381.263 93.2517 382 95.0322 382 96.8887C382 98.2731 381.589 99.6265 380.82 100.778C380.051 101.929 378.958 102.826 377.679 103.356C376.4 103.886 374.992 104.024 373.634 103.754C372.277 103.484 371.029 102.817 370.05 101.838C369.071 100.859 368.405 99.6122 368.135 98.2543C367.864 96.8964 368.003 95.489 368.533 94.2099C369.063 92.9308 369.96 91.8376 371.111 91.0684ZM371.667 101.877C372.653 102.537 373.813 102.889 375 102.889C376.591 102.889 378.117 102.257 379.243 101.131C380.368 100.006 381 98.48 381 96.8887C381 95.702 380.648 94.5419 379.989 93.5553C379.33 92.5686 378.392 91.7995 377.296 91.3454C376.2 90.8913 374.993 90.7724 373.829 91.004C372.666 91.2355 371.596 91.8069 370.757 92.646C369.918 93.4851 369.347 94.5542 369.115 95.7181C368.884 96.882 369.003 98.0884 369.457 99.1848C369.911 100.281 370.68 101.218 371.667 101.877ZM371.5 97.0952L374 99.5957L378.5 95.0962L377.792 94.3887L374 98.1817L372.207 96.3887L371.5 97.0952Z" fill="black"/>
<rect x="89" y="90.8887" width="268" height="12" fill="#E5E5E5"/>
<path d="M89 96.8887H357M89 96.8887V90.8887M89 96.8887V102.889M357 96.8887V90.8887M357 96.8887V102.889" stroke="#171717"/>
<path d="M61.6 102.033C59.524 102.033 58.6 100.437 58.6 97.7007C58.6 94.9647 59.524 93.3687 61.6 93.3687C63.676 93.3687 64.6 94.9647 64.6 97.7007C64.6 100.437 63.676 102.033 61.6 102.033ZM61.6 101.049C62.896 101.049 63.4 100.017 63.4 98.4087V96.9927C63.4 95.3847 62.896 94.3527 61.6 94.3527C60.304 94.3527 59.8 95.3847 59.8 96.9927V98.4087C59.8 100.017 60.304 101.049 61.6 101.049ZM61.6 98.4087C61.048 98.4087 60.856 98.1567 60.856 97.8327V97.5687C60.856 97.2447 61.048 96.9927 61.6 96.9927C62.152 96.9927 62.344 97.2447 62.344 97.5687V97.8327C62.344 98.1567 62.152 98.4087 61.6 98.4087ZM69.7553 102.033C67.6793 102.033 66.7553 100.437 66.7553 97.7007C66.7553 94.9647 67.6793 93.3687 69.7553 93.3687C71.8313 93.3687 72.7553 94.9647 72.7553 97.7007C72.7553 100.437 71.8313 102.033 69.7553 102.033ZM69.7553 101.049C71.0513 101.049 71.5553 100.017 71.5553 98.4087V96.9927C71.5553 95.3847 71.0513 94.3527 69.7553 94.3527C68.4593 94.3527 67.9553 95.3847 67.9553 96.9927V98.4087C67.9553 100.017 68.4593 101.049 69.7553 101.049ZM69.7553 98.4087C69.2033 98.4087 69.0113 98.1567 69.0113 97.8327V97.5687C69.0113 97.2447 69.2033 96.9927 69.7553 96.9927C70.3073 96.9927 70.4993 97.2447 70.4993 97.5687V97.8327C70.4993 98.1567 70.3073 98.4087 69.7553 98.4087ZM81.0066 101.889H75.3426V100.905H77.7186V94.3647H77.6346L75.6066 96.3807L74.9106 95.6967L77.0826 93.5127H78.8826V100.905H81.0066V101.889Z" fill="#171717"/>
<path fill-rule="evenodd" clip-rule="evenodd" d="M371.111 123.068C372.262 122.299 373.616 121.889 375 121.889C376.857 121.889 378.637 122.626 379.95 123.939C381.263 125.252 382 127.032 382 128.889C382 130.273 381.589 131.627 380.82 132.778C380.051 133.929 378.958 134.826 377.679 135.356C376.4 135.886 374.992 136.024 373.634 135.754C372.277 135.484 371.029 134.817 370.05 133.838C369.071 132.859 368.405 131.612 368.135 130.254C367.864 128.896 368.003 127.489 368.533 126.21C369.063 124.931 369.96 123.838 371.111 123.068ZM371.667 133.877C372.653 134.537 373.813 134.889 375 134.889C376.591 134.889 378.117 134.257 379.243 133.131C380.368 132.006 381 130.48 381 128.889C381 127.702 380.648 126.542 379.989 125.555C379.33 124.569 378.392 123.8 377.296 123.345C376.2 122.891 374.993 122.772 373.829 123.004C372.666 123.235 371.596 123.807 370.757 124.646C369.918 125.485 369.347 126.554 369.115 127.718C368.884 128.882 369.003 130.088 369.457 131.185C369.911 132.281 370.68 133.218 371.667 133.877ZM371.5 129.095L374 131.596L378.5 127.096L377.792 126.389L374 130.182L372.207 128.389L371.5 129.095Z" fill="black"/>
<rect x="89" y="122.889" width="268" height="12" fill="#E5E5E5"/>
<path d="M89 128.889H357M89 128.889V122.889M89 128.889V134.889M357 128.889V122.889M357 128.889V134.889" stroke="#171717"/>
<path d="M61.6 134.033C59.524 134.033 58.6 132.437 58.6 129.701C58.6 126.965 59.524 125.369 61.6 125.369C63.676 125.369 64.6 126.965 64.6 129.701C64.6 132.437 63.676 134.033 61.6 134.033ZM61.6 133.049C62.896 133.049 63.4 132.017 63.4 130.409V128.993C63.4 127.385 62.896 126.353 61.6 126.353C60.304 126.353 59.8 127.385 59.8 128.993V130.409C59.8 132.017 60.304 133.049 61.6 133.049ZM61.6 130.409C61.048 130.409 60.856 130.157 60.856 129.833V129.569C60.856 129.245 61.048 128.993 61.6 128.993C62.152 128.993 62.344 129.245 62.344 129.569V129.833C62.344 130.157 62.152 130.409 61.6 130.409ZM69.7553 134.033C67.6793 134.033 66.7553 132.437 66.7553 129.701C66.7553 126.965 67.6793 125.369 69.7553 125.369C71.8313 125.369 72.7553 126.965 72.7553 129.701C72.7553 132.437 71.8313 134.033 69.7553 134.033ZM69.7553 133.049C71.0513 133.049 71.5553 132.017 71.5553 130.409V128.993C71.5553 127.385 71.0513 126.353 69.7553 126.353C68.4593 126.353 67.9553 127.385 67.9553 128.993V130.409C67.9553 132.017 68.4593 133.049 69.7553 133.049ZM69.7553 130.409C69.2033 130.409 69.0113 130.157 69.0113 129.833V129.569C69.0113 129.245 69.2033 128.993 69.7553 128.993C70.3073 128.993 70.4993 129.245 70.4993 129.569V129.833C70.4993 130.157 70.3073 130.409 69.7553 130.409ZM80.7906 132.893V133.889H75.1266V132.737L77.8866 130.277C78.7266 129.545 79.2666 128.813 79.2666 127.997V127.865C79.2666 126.917 78.7386 126.377 77.7786 126.377C76.7946 126.377 76.3026 126.941 76.0626 127.757L75.0306 127.373C75.3666 126.353 76.1586 125.369 77.8266 125.369C79.5306 125.369 80.4906 126.389 80.4906 127.817C80.4906 129.101 79.6866 130.037 78.5466 131.009L76.3506 132.893H80.7906Z" fill="#171717"/>
<path fill-rule="evenodd" clip-rule="evenodd" d="M371.111 155.068C372.262 154.299 373.616 153.889 375 153.889C376.857 153.889 378.637 154.626 379.95 155.939C381.263 157.252 382 159.032 382 160.889C382 162.273 381.589 163.627 380.82 164.778C380.051 165.929 378.958 166.826 377.679 167.356C376.4 167.886 374.992 168.024 373.634 167.754C372.277 167.484 371.029 166.817 370.05 165.838C369.071 164.859 368.405 163.612 368.135 162.254C367.864 160.896 368.003 159.489 368.533 158.21C369.063 156.931 369.96 155.838 371.111 155.068ZM371.667 165.877C372.653 166.537 373.813 166.889 375 166.889C376.591 166.889 378.117 166.257 379.243 165.131C380.368 164.006 381 162.48 381 160.889C381 159.702 380.648 158.542 379.989 157.555C379.33 156.569 378.392 155.8 377.296 155.345C376.2 154.891 374.993 154.772 373.829 155.004C372.666 155.235 371.596 155.807 370.757 156.646C369.918 157.485 369.347 158.554 369.115 159.718C368.884 160.882 369.003 162.088 369.457 163.185C369.911 164.281 370.68 165.218 371.667 165.877ZM371.5 161.095L374 163.596L378.5 159.096L377.792 158.389L374 162.182L372.207 160.389L371.5 161.095Z" fill="black"/>
<rect x="89" y="154.889" width="268" height="12" fill="#E5E5E5"/>
<path d="M89 160.889H357M89 160.889V154.889M89 160.889V166.889M357 160.889V154.889M357 160.889V166.889" stroke="#171717"/>
<path d="M61.6 167.033C59.524 167.033 58.6 165.437 58.6 162.701C58.6 159.965 59.524 158.369 61.6 158.369C63.676 158.369 64.6 159.965 64.6 162.701C64.6 165.437 63.676 167.033 61.6 167.033ZM61.6 166.049C62.896 166.049 63.4 165.017 63.4 163.409V161.993C63.4 160.385 62.896 159.353 61.6 159.353C60.304 159.353 59.8 160.385 59.8 161.993V163.409C59.8 165.017 60.304 166.049 61.6 166.049ZM61.6 163.409C61.048 163.409 60.856 163.157 60.856 162.833V162.569C60.856 162.245 61.048 161.993 61.6 161.993C62.152 161.993 62.344 162.245 62.344 162.569V162.833C62.344 163.157 62.152 163.409 61.6 163.409ZM69.7553 167.033C67.6793 167.033 66.7553 165.437 66.7553 162.701C66.7553 159.965 67.6793 158.369 69.7553 158.369C71.8313 158.369 72.7553 159.965 72.7553 162.701C72.7553 165.437 71.8313 167.033 69.7553 167.033ZM69.7553 166.049C71.0513 166.049 71.5553 165.017 71.5553 163.409V161.993C71.5553 160.385 71.0513 159.353 69.7553 159.353C68.4593 159.353 67.9553 160.385 67.9553 161.993V163.409C67.9553 165.017 68.4593 166.049 69.7553 166.049ZM69.7553 163.409C69.2033 163.409 69.0113 163.157 69.0113 162.833V162.569C69.0113 162.245 69.2033 161.993 69.7553 161.993C70.3073 161.993 70.4993 162.245 70.4993 162.569V162.833C70.4993 163.157 70.3073 163.409 69.7553 163.409ZM76.6626 162.017H77.5626C78.6786 162.017 79.2306 161.465 79.2306 160.721V160.637C79.2306 159.797 78.6426 159.353 77.7666 159.353C76.9146 159.353 76.3626 159.773 76.0026 160.409L75.1746 159.749C75.6546 159.041 76.4106 158.369 77.7906 158.369C79.3026 158.369 80.4426 159.149 80.4426 160.505C80.4426 161.585 79.7226 162.233 78.8106 162.449V162.497C79.7586 162.677 80.6106 163.349 80.6106 164.585C80.6106 166.037 79.4346 167.033 77.6466 167.033C76.1346 167.033 75.3546 166.313 74.8266 165.569L75.7026 164.909C76.1226 165.569 76.6266 166.049 77.6586 166.049C78.7626 166.049 79.3986 165.497 79.3986 164.561V164.465C79.3986 163.541 78.7866 163.001 77.6106 163.001H76.6626V162.017Z" fill="#171717"/>
<path d="M370.288 198.889H369.052L372.256 191.497H368.764V193.045H367.744V190.513H373.42V191.533L370.288 198.889ZM380.723 198.889H379.607V197.257H375.539V196.237L379.115 190.513H380.723V196.321H381.923V197.257H380.723V198.889ZM379.547 191.497L376.547 196.321H379.607V191.497H379.547ZM385.327 194.653C384.259 194.653 383.527 193.909 383.527 192.517C383.527 191.113 384.259 190.369 385.327 190.369C386.407 190.369 387.139 191.113 387.139 192.517C387.139 193.909 386.407 194.653 385.327 194.653ZM385.327 193.933C385.891 193.933 386.239 193.525 386.239 192.805V192.217C386.239 191.497 385.891 191.089 385.327 191.089C384.775 191.089 384.427 191.497 384.427 192.217V192.805C384.427 193.525 384.775 193.933 385.327 193.933ZM387.475 194.113L389.371 190.513H390.331L388.435 194.113H387.475ZM383.491 198.889L385.387 195.289H386.347L384.451 198.889H383.491ZM388.495 199.033C387.427 199.033 386.683 198.289 386.683 196.885C386.683 195.493 387.427 194.749 388.495 194.749C389.563 194.749 390.295 195.493 390.295 196.885C390.295 198.289 389.563 199.033 388.495 199.033ZM388.495 198.313C389.047 198.313 389.395 197.905 389.395 197.185V196.597C389.395 195.877 389.047 195.469 388.495 195.469C387.943 195.469 387.595 195.877 387.595 196.597V197.185C387.595 197.905 387.943 198.313 388.495 198.313Z" fill="#171717"/>
<rect x="89" y="187.889" width="182" height="12" fill="#7DD3FC"/>
<path d="M89 193.889H357M89 193.889V187.889M89 193.889V199.889M357 193.889V187.889M357 193.889V199.889" stroke="#171717"/>
<path d="M61.6 199.033C59.524 199.033 58.6 197.437 58.6 194.701C58.6 191.965 59.524 190.369 61.6 190.369C63.676 190.369 64.6 191.965 64.6 194.701C64.6 197.437 63.676 199.033 61.6 199.033ZM61.6 198.049C62.896 198.049 63.4 197.017 63.4 195.409V193.993C63.4 192.385 62.896 191.353 61.6 191.353C60.304 191.353 59.8 192.385 59.8 193.993V195.409C59.8 197.017 60.304 198.049 61.6 198.049ZM61.6 195.409C61.048 195.409 60.856 195.157 60.856 194.833V194.569C60.856 194.245 61.048 193.993 61.6 193.993C62.152 193.993 62.344 194.245 62.344 194.569V194.833C62.344 195.157 62.152 195.409 61.6 195.409ZM69.7553 199.033C67.6793 199.033 66.7553 197.437 66.7553 194.701C66.7553 191.965 67.6793 190.369 69.7553 190.369C71.8313 190.369 72.7553 191.965 72.7553 194.701C72.7553 197.437 71.8313 199.033 69.7553 199.033ZM69.7553 198.049C71.0513 198.049 71.5553 197.017 71.5553 195.409V193.993C71.5553 192.385 71.0513 191.353 69.7553 191.353C68.4593 191.353 67.9553 192.385 67.9553 193.993V195.409C67.9553 197.017 68.4593 198.049 69.7553 198.049ZM69.7553 195.409C69.2033 195.409 69.0113 195.157 69.0113 194.833V194.569C69.0113 194.245 69.2033 193.993 69.7553 193.993C70.3073 193.993 70.4993 194.245 70.4993 194.569V194.833C70.4993 195.157 70.3073 195.409 69.7553 195.409ZM79.8786 198.889H78.7626V197.257H74.6946V196.237L78.2706 190.513H79.8786V196.321H81.0786V197.257H79.8786V198.889ZM78.7026 191.497L75.7026 196.321H78.7626V191.497H78.7026Z" fill="#171717"/>
<path d="M369.352 226.017H370.252C371.368 226.017 371.92 225.465 371.92 224.721V224.637C371.92 223.797 371.332 223.353 370.456 223.353C369.604 223.353 369.052 223.773 368.692 224.409L367.864 223.749C368.344 223.041 369.1 222.369 370.48 222.369C371.992 222.369 373.132 223.149 373.132 224.505C373.132 225.585 372.412 226.233 371.5 226.449V226.497C372.448 226.677 373.3 227.349 373.3 228.585C373.3 230.037 372.124 231.033 370.336 231.033C368.824 231.033 368.044 230.313 367.516 229.569L368.392 228.909C368.812 229.569 369.316 230.049 370.348 230.049C371.452 230.049 372.088 229.497 372.088 228.561V228.465C372.088 227.541 371.476 227.001 370.3 227.001H369.352V226.017ZM378.755 231.033C376.799 231.033 375.767 229.989 375.767 228.609C375.767 227.481 376.463 226.809 377.471 226.545V226.449C376.595 226.149 376.019 225.453 376.019 224.493C376.019 223.221 377.027 222.369 378.755 222.369C380.483 222.369 381.491 223.221 381.491 224.493C381.491 225.453 380.915 226.149 380.039 226.449V226.545C381.047 226.809 381.743 227.481 381.743 228.609C381.743 229.989 380.711 231.033 378.755 231.033ZM378.755 230.085C379.859 230.085 380.531 229.545 380.531 228.657V228.393C380.531 227.493 379.883 226.965 378.755 226.965C377.627 226.965 376.979 227.493 376.979 228.393V228.657C376.979 229.545 377.651 230.085 378.755 230.085ZM378.755 226.053C379.775 226.053 380.339 225.585 380.339 224.769V224.601C380.339 223.797 379.763 223.317 378.755 223.317C377.747 223.317 377.171 223.797 377.171 224.601V224.769C377.171 225.585 377.735 226.053 378.755 226.053ZM385.327 226.653C384.259 226.653 383.527 225.909 383.527 224.517C383.527 223.113 384.259 222.369 385.327 222.369C386.407 222.369 387.139 223.113 387.139 224.517C387.139 225.909 386.407 226.653 385.327 226.653ZM385.327 225.933C385.891 225.933 386.239 225.525 386.239 224.805V224.217C386.239 223.497 385.891 223.089 385.327 223.089C384.775 223.089 384.427 223.497 384.427 224.217V224.805C384.427 225.525 384.775 225.933 385.327 225.933ZM387.475 226.113L389.371 222.513H390.331L388.435 226.113H387.475ZM383.491 230.889L385.387 227.289H386.347L384.451 230.889H383.491ZM388.495 231.033C387.427 231.033 386.683 230.289 386.683 228.885C386.683 227.493 387.427 226.749 388.495 226.749C389.563 226.749 390.295 227.493 390.295 228.885C390.295 230.289 389.563 231.033 388.495 231.033ZM388.495 230.313C389.047 230.313 389.395 229.905 389.395 229.185V228.597C389.395 227.877 389.047 227.469 388.495 227.469C387.943 227.469 387.595 227.877 387.595 228.597V229.185C387.595 229.905 387.943 230.313 388.495 230.313Z" fill="#171717"/>
<rect x="89" y="219.889" width="160" height="12" fill="#7DD3FC"/>
<path d="M89 225.889H357M89 225.889V219.889M89 225.889V231.889M357 225.889V219.889M357 225.889V231.889" stroke="#171717"/>
<path d="M61.6 231.033C59.524 231.033 58.6 229.437 58.6 226.701C58.6 223.965 59.524 222.369 61.6 222.369C63.676 222.369 64.6 223.965 64.6 226.701C64.6 229.437 63.676 231.033 61.6 231.033ZM61.6 230.049C62.896 230.049 63.4 229.017 63.4 227.409V225.993C63.4 224.385 62.896 223.353 61.6 223.353C60.304 223.353 59.8 224.385 59.8 225.993V227.409C59.8 229.017 60.304 230.049 61.6 230.049ZM61.6 227.409C61.048 227.409 60.856 227.157 60.856 226.833V226.569C60.856 226.245 61.048 225.993 61.6 225.993C62.152 225.993 62.344 226.245 62.344 226.569V226.833C62.344 227.157 62.152 227.409 61.6 227.409ZM69.7553 231.033C67.6793 231.033 66.7553 229.437 66.7553 226.701C66.7553 223.965 67.6793 222.369 69.7553 222.369C71.8313 222.369 72.7553 223.965 72.7553 226.701C72.7553 229.437 71.8313 231.033 69.7553 231.033ZM69.7553 230.049C71.0513 230.049 71.5553 229.017 71.5553 227.409V225.993C71.5553 224.385 71.0513 223.353 69.7553 223.353C68.4593 223.353 67.9553 224.385 67.9553 225.993V227.409C67.9553 229.017 68.4593 230.049 69.7553 230.049ZM69.7553 227.409C69.2033 227.409 69.0113 227.157 69.0113 226.833V226.569C69.0113 226.245 69.2033 225.993 69.7553 225.993C70.3073 225.993 70.4993 226.245 70.4993 226.569V226.833C70.4993 227.157 70.3073 227.409 69.7553 227.409ZM80.3826 222.513V223.521H76.6026L76.3746 226.617H76.4706C76.8666 226.017 77.3346 225.633 78.2466 225.633C79.6986 225.633 80.7906 226.593 80.7906 228.225C80.7906 229.869 79.6986 231.033 77.8506 231.033C76.3866 231.033 75.6306 230.313 75.1146 229.569L75.9786 228.909C76.4106 229.569 76.8666 230.049 77.8746 230.049C78.9786 230.049 79.5786 229.401 79.5786 228.357V228.261C79.5786 227.217 78.9546 226.593 77.8626 226.593C77.0946 226.593 76.6986 226.917 76.3626 227.277L75.3906 227.145L75.6906 222.513H80.3826Z" fill="#171717"/>
<path d="M373.48 262.893V263.889H367.816V262.737L370.576 260.277C371.416 259.545 371.956 258.813 371.956 257.997V257.865C371.956 256.917 371.428 256.377 370.468 256.377C369.484 256.377 368.992 256.941 368.752 257.757L367.72 257.373C368.056 256.353 368.848 255.369 370.516 255.369C372.22 255.369 373.18 256.389 373.18 257.817C373.18 259.101 372.376 260.037 371.236 261.009L369.04 262.893H373.48ZM377.507 259.017H378.407C379.523 259.017 380.075 258.465 380.075 257.721V257.637C380.075 256.797 379.487 256.353 378.611 256.353C377.759 256.353 377.207 256.773 376.847 257.409L376.019 256.749C376.499 256.041 377.255 255.369 378.635 255.369C380.147 255.369 381.287 256.149 381.287 257.505C381.287 258.585 380.567 259.233 379.655 259.449V259.497C380.603 259.677 381.455 260.349 381.455 261.585C381.455 263.037 380.279 264.033 378.491 264.033C376.979 264.033 376.199 263.313 375.671 262.569L376.547 261.909C376.967 262.569 377.471 263.049 378.503 263.049C379.607 263.049 380.243 262.497 380.243 261.561V261.465C380.243 260.541 379.631 260.001 378.455 260.001H377.507V259.017ZM385.327 259.653C384.259 259.653 383.527 258.909 383.527 257.517C383.527 256.113 384.259 255.369 385.327 255.369C386.407 255.369 387.139 256.113 387.139 257.517C387.139 258.909 386.407 259.653 385.327 259.653ZM385.327 258.933C385.891 258.933 386.239 258.525 386.239 257.805V257.217C386.239 256.497 385.891 256.089 385.327 256.089C384.775 256.089 384.427 256.497 384.427 257.217V257.805C384.427 258.525 384.775 258.933 385.327 258.933ZM387.475 259.113L389.371 255.513H390.331L388.435 259.113H387.475ZM383.491 263.889L385.387 260.289H386.347L384.451 263.889H383.491ZM388.495 264.033C387.427 264.033 386.683 263.289 386.683 261.885C386.683 260.493 387.427 259.749 388.495 259.749C389.563 259.749 390.295 260.493 390.295 261.885C390.295 263.289 389.563 264.033 388.495 264.033ZM388.495 263.313C389.047 263.313 389.395 262.905 389.395 262.185V261.597C389.395 260.877 389.047 260.469 388.495 260.469C387.943 260.469 387.595 260.877 387.595 261.597V262.185C387.595 262.905 387.943 263.313 388.495 263.313Z" fill="#171717"/>
<rect x="89" y="252.889" width="65" height="12" fill="#FBBF24"/>
<path d="M89 258.889H357M89 258.889V252.889M89 258.889V264.889M357 258.889V252.889M357 258.889V264.889" stroke="#171717"/>
<path d="M61.6 263.033C59.524 263.033 58.6 261.437 58.6 258.701C58.6 255.965 59.524 254.369 61.6 254.369C63.676 254.369 64.6 255.965 64.6 258.701C64.6 261.437 63.676 263.033 61.6 263.033ZM61.6 262.049C62.896 262.049 63.4 261.017 63.4 259.409V257.993C63.4 256.385 62.896 255.353 61.6 255.353C60.304 255.353 59.8 256.385 59.8 257.993V259.409C59.8 261.017 60.304 262.049 61.6 262.049ZM61.6 259.409C61.048 259.409 60.856 259.157 60.856 258.833V258.569C60.856 258.245 61.048 257.993 61.6 257.993C62.152 257.993 62.344 258.245 62.344 258.569V258.833C62.344 259.157 62.152 259.409 61.6 259.409ZM69.7553 263.033C67.6793 263.033 66.7553 261.437 66.7553 258.701C66.7553 255.965 67.6793 254.369 69.7553 254.369C71.8313 254.369 72.7553 255.965 72.7553 258.701C72.7553 261.437 71.8313 263.033 69.7553 263.033ZM69.7553 262.049C71.0513 262.049 71.5553 261.017 71.5553 259.409V257.993C71.5553 256.385 71.0513 255.353 69.7553 255.353C68.4593 255.353 67.9553 256.385 67.9553 257.993V259.409C67.9553 261.017 68.4593 262.049 69.7553 262.049ZM69.7553 259.409C69.2033 259.409 69.0113 259.157 69.0113 258.833V258.569C69.0113 258.245 69.2033 257.993 69.7553 257.993C70.3073 257.993 70.4993 258.245 70.4993 258.569V258.833C70.4993 259.157 70.3073 259.409 69.7553 259.409ZM77.9346 263.033C76.1226 263.033 75.0186 261.797 75.0186 259.793C75.0186 257.333 76.6746 255.413 78.0546 254.513H79.5786C77.7066 255.845 76.6626 256.949 76.2186 258.833L76.2786 258.857C76.6746 258.185 77.2626 257.645 78.3186 257.645C79.7706 257.645 80.8146 258.641 80.8146 260.237C80.8146 261.881 79.6746 263.033 77.9346 263.033ZM77.9226 262.073C79.0026 262.073 79.6386 261.449 79.6386 260.381V260.273C79.6386 259.193 79.0026 258.581 77.9226 258.581C76.8426 258.581 76.2066 259.193 76.2066 260.273V260.381C76.2066 261.449 76.8306 262.073 77.9226 262.073Z" fill="#171717"/>
<path d="M373.696 295.889H368.032V294.905H370.408V288.365H370.324L368.296 290.381L367.6 289.697L369.772 287.513H371.572V294.905H373.696V295.889ZM378.755 296.033C376.679 296.033 375.755 294.437 375.755 291.701C375.755 288.965 376.679 287.369 378.755 287.369C380.831 287.369 381.755 288.965 381.755 291.701C381.755 294.437 380.831 296.033 378.755 296.033ZM378.755 295.049C380.051 295.049 380.555 294.017 380.555 292.409V290.993C380.555 289.385 380.051 288.353 378.755 288.353C377.459 288.353 376.955 289.385 376.955 290.993V292.409C376.955 294.017 377.459 295.049 378.755 295.049ZM378.755 292.409C378.203 292.409 378.011 292.157 378.011 291.833V291.569C378.011 291.245 378.203 290.993 378.755 290.993C379.307 290.993 379.499 291.245 379.499 291.569V291.833C379.499 292.157 379.307 292.409 378.755 292.409ZM385.327 291.653C384.259 291.653 383.527 290.909 383.527 289.517C383.527 288.113 384.259 287.369 385.327 287.369C386.407 287.369 387.139 288.113 387.139 289.517C387.139 290.909 386.407 291.653 385.327 291.653ZM385.327 290.933C385.891 290.933 386.239 290.525 386.239 289.805V289.217C386.239 288.497 385.891 288.089 385.327 288.089C384.775 288.089 384.427 288.497 384.427 289.217V289.805C384.427 290.525 384.775 290.933 385.327 290.933ZM387.475 291.113L389.371 287.513H390.331L388.435 291.113H387.475ZM383.491 295.889L385.387 292.289H386.347L384.451 295.889H383.491ZM388.495 296.033C387.427 296.033 386.683 295.289 386.683 293.885C386.683 292.493 387.427 291.749 388.495 291.749C389.563 291.749 390.295 292.493 390.295 293.885C390.295 295.289 389.563 296.033 388.495 296.033ZM388.495 295.313C389.047 295.313 389.395 294.905 389.395 294.185V293.597C389.395 292.877 389.047 292.469 388.495 292.469C387.943 292.469 387.595 292.877 387.595 293.597V294.185C387.595 294.905 387.943 295.313 388.495 295.313Z" fill="#171717"/>
<rect x="89" y="284.889" width="22" height="12" fill="#F97316"/>
<path d="M89 290.889H357M89 290.889V284.889M89 290.889V296.889M357 290.889V284.889M357 290.889V296.889" stroke="#171717"/>
<path d="M61.6 296.033C59.524 296.033 58.6 294.437 58.6 291.701C58.6 288.965 59.524 287.369 61.6 287.369C63.676 287.369 64.6 288.965 64.6 291.701C64.6 294.437 63.676 296.033 61.6 296.033ZM61.6 295.049C62.896 295.049 63.4 294.017 63.4 292.409V290.993C63.4 289.385 62.896 288.353 61.6 288.353C60.304 288.353 59.8 289.385 59.8 290.993V292.409C59.8 294.017 60.304 295.049 61.6 295.049ZM61.6 292.409C61.048 292.409 60.856 292.157 60.856 291.833V291.569C60.856 291.245 61.048 290.993 61.6 290.993C62.152 290.993 62.344 291.245 62.344 291.569V291.833C62.344 292.157 62.152 292.409 61.6 292.409ZM69.7553 296.033C67.6793 296.033 66.7553 294.437 66.7553 291.701C66.7553 288.965 67.6793 287.369 69.7553 287.369C71.8313 287.369 72.7553 288.965 72.7553 291.701C72.7553 294.437 71.8313 296.033 69.7553 296.033ZM69.7553 295.049C71.0513 295.049 71.5553 294.017 71.5553 292.409V290.993C71.5553 289.385 71.0513 288.353 69.7553 288.353C68.4593 288.353 67.9553 289.385 67.9553 290.993V292.409C67.9553 294.017 68.4593 295.049 69.7553 295.049ZM69.7553 292.409C69.2033 292.409 69.0113 292.157 69.0113 291.833V291.569C69.0113 291.245 69.2033 290.993 69.7553 290.993C70.3073 290.993 70.4993 291.245 70.4993 291.569V291.833C70.4993 292.157 70.3073 292.409 69.7553 292.409ZM77.5986 295.889H76.3626L79.5666 288.497H76.0746V290.045H75.0546V287.513H80.7306V288.533L77.5986 295.889Z" fill="#171717"/>
<rect x="432" y="64.8887" width="199" height="251.282" fill="#F5F5F5"/>
<rect x="432" y="64.8887" width="199" height="251.282" stroke="#171717"/>
<path d="M455.751 95.293H454.546L453.904 93.3643H451.24L450.618 95.293H449.444L451.873 88.1703H453.322L455.751 95.293ZM453.618 92.3745L452.597 89.2316H452.546L451.516 92.3745H453.618ZM461.711 95.293L459.384 91.3541L458.599 89.8438H458.568V95.293H457.466V88.1703H458.752L461.078 92.1092L461.864 93.6195H461.895V88.1703H462.997V95.293H461.711ZM469.608 95.293L467.281 91.3541L466.495 89.8438H466.465V95.293H465.363V88.1703H466.649L468.975 92.1092L469.761 93.6195H469.791V88.1703H470.894V95.293H469.608ZM476.015 95.4154C474.158 95.4154 472.943 94.1297 472.943 91.7316C472.943 89.3336 474.158 88.0479 476.015 88.0479C477.872 88.0479 479.086 89.3336 479.086 91.7316C479.086 94.1297 477.872 95.4154 476.015 95.4154ZM476.015 94.3848C477.117 94.3848 477.852 93.5888 477.852 92.2929V91.1704C477.852 89.8745 477.117 89.0785 476.015 89.0785C474.913 89.0785 474.178 89.8745 474.178 91.1704V92.2929C474.178 93.5888 474.913 94.3848 476.015 94.3848ZM482.397 95.293V89.1908H480.275V88.1703H485.673V89.1908H483.55V95.293H482.397ZM492.395 95.293H491.19L490.548 93.3643H487.884L487.262 95.293H486.088L488.517 88.1703H489.966L492.395 95.293ZM490.262 92.3745L489.241 89.2316H489.19L488.16 92.3745H490.262ZM494.932 95.293V89.1908H492.81V88.1703H498.208V89.1908H496.085V95.293H494.932ZM502.68 95.293H499.578V94.3542H500.548V89.1091H499.578V88.1703H502.68V89.1091H501.701V94.3542H502.68V95.293ZM507.497 95.4154C505.64 95.4154 504.425 94.1297 504.425 91.7316C504.425 89.3336 505.64 88.0479 507.497 88.0479C509.354 88.0479 510.568 89.3336 510.568 91.7316C510.568 94.1297 509.354 95.4154 507.497 95.4154ZM507.497 94.3848C508.599 94.3848 509.334 93.5888 509.334 92.2929V91.1704C509.334 89.8745 508.599 89.0785 507.497 89.0785C506.395 89.0785 505.66 89.8745 505.66 91.1704V92.2929C505.66 93.5888 506.395 94.3848 507.497 94.3848ZM516.864 95.293L514.537 91.3541L513.751 89.8438H513.721V95.293H512.619V88.1703H513.904L516.231 92.1092L517.017 93.6195H517.047V88.1703H518.149V95.293H516.864ZM522.648 95.4154C521.454 95.4154 520.638 94.946 520.046 94.2113L520.842 93.4664C521.342 94.0786 521.934 94.395 522.709 94.395C523.617 94.395 524.087 93.946 524.087 93.2623C524.087 92.7113 523.801 92.3949 522.975 92.2317L522.342 92.1194C520.964 91.8643 520.26 91.2214 520.26 90.0887C520.26 88.8234 521.24 88.0479 522.75 88.0479C523.822 88.0479 524.607 88.4356 525.158 89.1397L524.352 89.854C523.985 89.3744 523.475 89.0683 522.689 89.0683C521.873 89.0683 521.403 89.4051 521.403 90.0275C521.403 90.6194 521.77 90.8745 522.536 91.0275L523.168 91.1602C524.587 91.4357 525.23 92.0684 525.23 93.2011C525.23 94.5276 524.281 95.4154 522.648 95.4154Z" fill="#171717"/>
<rect x="556.182" y="82.0752" width="57.5981" height="18.4351" rx="2.21756" fill="#4ADE80"/>
<path fill-rule="evenodd" clip-rule="evenodd" d="M566.56 88.1383C565.105 88.1395 563.843 88.9705 562.839 90.7461C562.761 90.8839 562.586 90.9325 562.448 90.8545C562.31 90.7766 562.262 90.6016 562.34 90.4638C563.41 88.5708 564.836 87.5662 566.559 87.5648C566.982 87.5644 567.337 87.6885 567.587 87.9382C567.837 88.1873 567.947 88.5268 567.947 88.8893C567.947 89.3059 567.76 89.629 567.516 89.8872C567.282 90.1337 566.978 90.3397 566.705 90.5241L566.692 90.5335C566.403 90.7291 566.148 90.9027 565.962 91.0993C565.783 91.2883 565.688 91.4772 565.688 91.7024C565.688 91.8515 565.743 92.0096 565.85 92.1276C565.953 92.24 566.119 92.3319 566.38 92.3317C566.702 92.3314 566.924 92.2236 567.167 92.091C567.185 92.0811 567.203 92.0708 567.222 92.0603C567.448 91.9356 567.728 91.7806 568.09 91.7803C568.358 91.78 568.598 91.8568 568.775 92.0102C568.955 92.1654 569.05 92.3829 569.05 92.6162C569.05 92.9514 568.917 93.1528 568.798 93.2919C568.769 93.3266 568.749 93.3486 568.733 93.3655C568.717 93.3834 568.706 93.3956 568.694 93.4109C568.697 93.4149 568.7 93.4193 568.703 93.4243C568.731 93.4644 568.779 93.5168 568.848 93.5795C568.986 93.7044 569.177 93.8414 569.379 93.9719C569.578 94.101 569.779 94.2179 569.931 94.3029C570.006 94.3453 570.069 94.3794 570.113 94.4029C570.135 94.4146 570.152 94.4237 570.163 94.4297L570.176 94.4365L570.18 94.4381L570.18 94.4385C570.18 94.4385 570.18 94.4385 570.18 94.4385C570.321 94.5113 570.376 94.6843 570.303 94.825C570.23 94.9656 570.057 95.0207 569.917 94.9479L570.049 94.6932C569.917 94.9479 569.917 94.9479 569.917 94.9479L569.915 94.947L569.911 94.945L569.896 94.9373C569.884 94.9306 569.865 94.9209 569.842 94.9084C569.796 94.8835 569.73 94.8476 569.65 94.8032C569.492 94.7146 569.28 94.5913 569.067 94.4534C568.856 94.3168 568.635 94.1601 568.463 94.0045C568.377 93.927 568.296 93.8424 568.234 93.754C568.176 93.671 568.111 93.5518 568.111 93.4115C568.111 93.2698 568.166 93.1622 568.222 93.0853C568.254 93.0407 568.303 92.9858 568.336 92.949C568.347 92.9366 568.356 92.9263 568.363 92.9191C568.427 92.8442 568.477 92.7704 568.477 92.6167C568.477 92.5445 568.45 92.487 568.4 92.4439C568.348 92.3988 568.251 92.3536 568.091 92.3538C567.881 92.3539 567.723 92.4401 567.472 92.5777C567.462 92.5832 567.452 92.5887 567.442 92.5943C567.18 92.7371 566.853 92.9048 566.38 92.9052C565.969 92.9056 565.646 92.7535 565.427 92.5147C565.214 92.2815 565.115 91.9815 565.115 91.7028C565.114 91.2863 565.301 90.9631 565.546 90.7049C565.779 90.4584 566.084 90.2524 566.356 90.068L566.37 90.0586C566.659 89.863 566.913 89.6894 567.099 89.4928C567.278 89.3038 567.374 89.1149 567.374 88.8898C567.373 88.6411 567.3 88.4614 567.182 88.3441C567.065 88.2274 566.87 88.138 566.56 88.1383Z" fill="#171717"/>
<path d="M575.026 94.293V87.8826H577.864C578.92 87.8826 579.572 88.5346 579.572 89.5357C579.572 90.5 578.984 90.849 578.461 90.8949V90.95C578.984 90.9684 579.802 91.3725 579.802 92.447C579.802 93.4848 579.094 94.293 578.148 94.293H575.026ZM576.064 91.4551V93.4021H577.845C578.378 93.4021 578.709 93.1082 578.709 92.5848V92.2725C578.709 91.749 578.378 91.4551 577.845 91.4551H576.064ZM576.064 88.7734V90.5918H577.671C578.176 90.5918 578.479 90.3163 578.479 89.8296V89.5357C578.479 89.0489 578.176 88.7734 577.671 88.7734H576.064ZM585.249 94.293H584.689C584.166 94.293 583.89 93.9623 583.826 93.494H583.78C583.596 94.0909 583.082 94.4032 582.384 94.4032C581.401 94.4032 580.841 93.843 580.841 92.9797C580.841 92.0337 581.548 91.547 582.88 91.547H583.743V91.1429C583.743 90.5643 583.431 90.2245 582.76 90.2245C582.2 90.2245 581.86 90.5 581.622 90.8765L581.025 90.3347C581.337 89.802 581.897 89.4071 582.825 89.4071C584.055 89.4071 584.744 90.0133 584.744 91.0786V93.4756H585.249V94.293ZM582.669 93.6409C583.284 93.6409 583.743 93.347 583.743 92.8786V92.1899H582.898C582.2 92.1899 581.86 92.4194 581.86 92.8327V92.998C581.86 93.4205 582.173 93.6409 582.669 93.6409ZM588.076 94.293H587.433C586.754 94.293 586.414 93.9164 586.414 93.3011V87.4969H587.415V93.4756H588.076V94.293ZM590.825 94.293H590.182C589.503 94.293 589.163 93.9164 589.163 93.3011V87.4969H590.164V93.4756H590.825V94.293ZM593.839 94.4032C592.507 94.4032 591.644 93.4297 591.644 91.9051C591.644 90.3806 592.507 89.4071 593.839 89.4071C595.17 89.4071 596.034 90.3806 596.034 91.9051C596.034 93.4297 595.17 94.4032 593.839 94.4032ZM593.839 93.5766C594.518 93.5766 594.978 93.1542 594.978 92.3092V91.5011C594.978 90.6561 594.518 90.2337 593.839 90.2337C593.159 90.2337 592.7 90.6561 592.7 91.5011V92.3092C592.7 93.1542 593.159 93.5766 593.839 93.5766ZM599.206 94.4032C597.875 94.4032 597.011 93.4297 597.011 91.9051C597.011 90.3806 597.875 89.4071 599.206 89.4071C600.538 89.4071 601.401 90.3806 601.401 91.9051C601.401 93.4297 600.538 94.4032 599.206 94.4032ZM599.206 93.5766C599.886 93.5766 600.345 93.1542 600.345 92.3092V91.5011C600.345 90.6561 599.886 90.2337 599.206 90.2337C598.527 90.2337 598.068 90.6561 598.068 91.5011V92.3092C598.068 93.1542 598.527 93.5766 599.206 93.5766ZM603.701 94.293H602.7V89.5173H603.701V90.3071H603.747C603.949 89.7928 604.354 89.4071 605.088 89.4071C606.062 89.4071 606.64 90.0867 606.64 91.2623V94.293H605.639V91.3908C605.639 90.647 605.355 90.2704 604.739 90.2704C604.216 90.2704 603.701 90.5367 603.701 91.097V94.293Z" fill="#171717"/>
<g clip-path="url(#clip6_3171_26205)">
<g clip-path="url(#clip7_3171_26205)">
<rect x="449.72" y="107.042" width="163.56" height="185.23" rx="11.498" stroke="#171717"/>
<g clip-path="url(#clip8_3171_26205)">
<path d="M546.734 142.238H546.728L546.734 142.244V142.238Z" fill="#4ADE80"/>
<path d="M546.727 142.237C544.435 141.485 541.722 140.775 538.673 140.305C538.673 140.305 538.673 140.305 538.668 140.305C536.995 140.046 535.216 139.859 533.356 139.778H533.312C532.09 139.725 530.829 139.716 529.539 139.764H529.482C527.991 139.821 526.461 139.946 524.893 140.161C524.893 140.161 524.889 140.161 524.884 140.161C519.739 140.861 514.202 142.482 508.487 145.522C508.3 145.622 508.118 145.723 507.94 145.833C503.64 148.604 500.293 151.639 497.714 155.115C488.691 167.255 486.879 179.289 492.148 191.903C496.046 201.228 501.271 209.541 505.39 215.74C506.133 216.858 506.919 217.965 507.682 219.039C508.693 220.458 509.724 221.92 510.659 223.407L524.337 248.438V257.188C524.337 258.578 525.464 259.71 526.859 259.71H536.141C537.531 259.71 538.663 258.583 538.663 257.188V248.438L552.183 223.407L552.159 223.388C552.159 223.388 552.174 223.364 552.183 223.349C553.291 221.556 554.537 219.787 555.745 218.075C556.661 216.781 557.606 215.438 558.493 214.082C562.544 207.897 567.65 199.626 571.203 190.479C573.6 184.304 574.19 178.411 573.005 172.452C570.766 161.171 564.615 152.181 554.724 145.733C554.724 145.733 551.747 143.882 546.732 142.233" fill="#4ADE80"/>
</g>
<path d="M529.669 139.639C527.473 140.958 525.527 143.244 524.069 146.044C521.634 150.718 520.531 156.03 520.694 162.287C520.848 168.126 521.231 174.196 521.874 180.84C522.669 189.081 523.705 197.433 524.702 205.506L524.721 205.674C525.095 208.685 525.532 211.734 525.953 214.682C526.308 217.161 526.673 219.726 526.999 222.248C527.037 222.55 527.109 222.928 527.291 223.278H535.911C535.911 223.278 537.33 213.934 537.685 211.317C538.519 205.08 539.382 198.627 540.067 192.26C540.95 184 541.726 175.03 542.431 164.837C542.862 158.643 542.115 153.235 540.154 148.302C538.557 144.29 536.429 141.375 533.543 139.649" stroke="#171717" stroke-miterlimit="10"/>
<path d="M525.076 140.033C518.009 142.406 513.148 147.138 510.626 153.878C508.598 159.301 508.325 165.025 508.229 169.968C508.081 177.801 509.015 185.975 511.096 194.95C513.325 204.562 516.609 213.935 520.867 222.799C520.953 222.977 521.039 223.13 521.135 223.274" stroke="#171717" stroke-miterlimit="10"/>
<path d="M542.042 223.283C542.234 223.034 542.383 222.766 542.498 222.521C548.74 209.117 552.57 196.148 554.205 182.883C555.356 173.549 555.245 165.806 553.855 158.519C552.182 149.741 546.836 143.307 538.864 140.186" stroke="#171717" stroke-miterlimit="10"/>
<path d="M515.517 223.202C515.536 223.231 515.555 223.255 515.574 223.284" stroke="#171717" stroke-width="0.999833" stroke-miterlimit="10"/>
<path d="M517.817 141.634L514.624 143.767L514.332 143.959C514.126 144.093 513.92 144.232 513.718 144.371C509.576 147.229 505.952 151.28 503.406 155.825C499.298 163.452 497.289 170.552 497.26 177.533C497.241 183.367 498.919 189.048 500.736 194.317C504.087 204.04 509.025 212.808 513.862 220.838C514.284 221.543 514.706 222.253 515.118 222.962L515.305 223.288H510.856C509.921 221.802 508.891 220.34 507.879 218.921C507.117 217.852 506.331 216.739 505.587 215.622C501.469 209.423 496.244 201.11 492.346 191.786C487.072 179.163 488.885 167.129 497.898 154.99C500.477 151.515 503.823 148.48 508.124 145.709C508.301 145.594 508.488 145.493 508.67 145.397C533.408 132.237 554.915 145.618 554.915 145.618C564.805 152.061 570.956 161.05 573.195 172.336C574.379 178.29 573.789 184.187 571.392 190.362C567.84 199.509 562.734 207.784 558.683 213.964C557.796 215.32 556.847 216.658 555.936 217.957C554.728 219.669 553.481 221.433 552.374 223.231C552.364 223.25 552.355 223.269 552.34 223.283H547.771L547.949 222.967C548.951 221.193 550.025 219.429 551.06 217.722C552.254 215.761 553.486 213.729 554.608 211.696C559.464 202.903 562.844 194.37 564.93 185.616C566.555 178.813 566.032 171.698 563.338 163.879C560.965 156.994 557.676 151.61 553.285 147.425C553.285 147.425 549.056 143.36 546.913 142.123" stroke="#171717" stroke-miterlimit="10"/>
<path d="M514.14 223.283H549.919" stroke="#171717" stroke-miterlimit="10"/>
<path d="M510.856 223.283L524.534 248.314" stroke="#171717" stroke-miterlimit="10"/>
<path d="M552.379 223.283L538.701 248.314" stroke="#171717" stroke-miterlimit="10"/>
<path d="M531.654 223.202V248.314" stroke="#171717" stroke-miterlimit="10"/>
<path d="M524.534 248.313H538.859V257.062C538.859 258.453 537.728 259.584 536.337 259.584H527.056C525.666 259.584 524.534 258.453 524.534 257.062V248.313Z" stroke="#171717" stroke-miterlimit="10"/>
</g>
</g>
<path d="M436.184 48.8887H434.376V37.7207H439.176C441.224 37.7207 442.424 39.0487 442.424 41.0807C442.424 43.1127 441.224 44.4407 439.176 44.4407H436.184V48.8887ZM436.184 39.3047V42.8567H439.064C439.976 42.8567 440.52 42.3607 440.52 41.4647V40.6967C440.52 39.8007 439.976 39.3047 439.064 39.3047H436.184ZM447.175 44.3767V48.8887H445.367V37.7207H450.183C452.183 37.7207 453.415 39.0167 453.415 41.0807C453.415 42.6647 452.663 43.7687 451.239 44.1847L453.655 48.8887H451.639L449.399 44.3767H447.175ZM447.175 42.8567H450.055C450.967 42.8567 451.511 42.3607 451.511 41.4647V40.6967C451.511 39.8007 450.967 39.3047 450.055 39.3047H447.175V42.8567ZM463.964 48.8887H456.812V37.7207H463.964V39.3207H458.62V42.4247H463.468V44.0247H458.62V47.2887H463.964V48.8887ZM471.304 44.9047H466.872V43.1287H471.304V44.9047ZM480.99 48.8887H474.638V37.7207H476.446V47.2887H480.99V48.8887ZM492.946 48.8887H491.058L490.05 45.8647H485.874L484.898 48.8887H483.058L486.866 37.7207H489.138L492.946 48.8887ZM489.602 44.3127L488.002 39.3847H487.922L486.306 44.3127H489.602ZM495.636 48.8887V37.7207H500.58C502.42 37.7207 503.556 38.8567 503.556 40.6007C503.556 42.2807 502.532 42.8887 501.62 42.9687V43.0647C502.532 43.0967 503.956 43.8007 503.956 45.6727C503.956 47.4807 502.724 48.8887 501.076 48.8887H495.636ZM497.444 43.9447V47.3367H500.548C501.476 47.3367 502.052 46.8247 502.052 45.9127V45.3687C502.052 44.4567 501.476 43.9447 500.548 43.9447H497.444ZM497.444 39.2727V42.4407H500.244C501.124 42.4407 501.652 41.9607 501.652 41.1127V40.6007C501.652 39.7527 501.124 39.2727 500.244 39.2727H497.444ZM514.295 48.8887H507.143V37.7207H514.295V39.3207H508.951V42.4247H513.799V44.0247H508.951V47.2887H514.295V48.8887ZM523.939 48.8887H517.587V37.7207H519.395V47.2887H523.939V48.8887ZM531.134 48.8887H526.27V47.4167H527.79V39.1927H526.27V37.7207H531.134V39.1927H529.598V47.4167H531.134V48.8887ZM541.023 48.8887L537.375 42.7127L536.143 40.3447H536.095V48.8887H534.367V37.7207H536.383L540.031 43.8967L541.263 46.2647H541.311V37.7207H543.039V48.8887H541.023ZM553.932 48.8887V47.1927H553.868C553.644 48.2647 552.556 49.0807 550.86 49.0807C548.204 49.0807 546.252 47.0487 546.252 43.3047C546.252 39.5767 548.204 37.5287 551.132 37.5287C553.132 37.5287 554.524 38.4727 555.292 40.0407L553.82 40.9047C553.388 39.8647 552.492 39.1447 551.132 39.1447C549.372 39.1447 548.188 40.3447 548.188 42.3927V44.2167C548.188 46.2647 549.372 47.4647 551.132 47.4647C552.54 47.4647 553.772 46.7447 553.772 45.3527V44.4887H551.468V42.9367H555.516V48.8887H553.932Z" fill="#171717"/>
<path d="M488 380.889V349.689H534V315.889" stroke="#171717"/>
<path d="M387 380.889V353.249H324V321.889" stroke="#171717"/>
<defs>
<clipPath id="clip0_3171_26205">
<rect x="38.1787" y="380.889" width="89.1131" height="95.3466" rx="9.28262" fill="white"/>
</clipPath>
<clipPath id="clip1_3171_26205">
<rect x="139.669" y="380.889" width="89.1131" height="95.3466" rx="9.28262" fill="white"/>
</clipPath>
<clipPath id="clip2_3171_26205">
<rect x="241.159" y="380.889" width="89.1131" height="95.3466" rx="9.28262" fill="white"/>
</clipPath>
<clipPath id="clip3_3171_26205">
<rect x="342.649" y="380.889" width="89.1131" height="95.3466" rx="9.28262" fill="white"/>
</clipPath>
<clipPath id="clip4_3171_26205">
<rect x="444.139" y="380.889" width="89.1131" height="95.3466" rx="9.28262" fill="white"/>
</clipPath>
<clipPath id="clip5_3171_26205">
<rect x="545.628" y="380.889" width="89.1131" height="95.3466" rx="9.28262" fill="white"/>
</clipPath>
<clipPath id="clip6_3171_26205">
<rect width="164.56" height="220.088" fill="white" transform="translate(449.22 106.542)"/>
</clipPath>
<clipPath id="clip7_3171_26205">
<rect width="164.56" height="186.23" fill="white" transform="translate(449.22 106.542)"/>
</clipPath>
<clipPath id="clip8_3171_26205">
<rect width="84.3863" height="119.98" fill="white" transform="translate(489.213 139.73)"/>
</clipPath>
</defs>
</svg>
