<svg width="36" height="29" viewBox="0 0 36 29" fill="none" xmlns="http://www.w3.org/2000/svg">
<path fill-rule="evenodd" clip-rule="evenodd" d="M3.165 13.5H12C12.7956 13.5 13.5587 13.8161 14.1213 14.3787C14.6839 14.9413 15 15.7044 15 16.5V25.5C15 26.2956 14.6839 27.0587 14.1213 27.6213C13.5587 28.1839 12.7956 28.5 12 28.5H3C2.20435 28.5 1.44129 28.1839 0.87868 27.6213C0.31607 27.0587 0 26.2956 0 25.5V15.525C0.00091063 12.8091 0.672234 10.1353 1.9544 7.74108C3.23656 5.34684 5.08992 3.30611 7.35 1.8L10.035 0L11.685 2.49L9 4.29C7.44049 5.33508 6.11608 6.69392 5.11138 8.27975C4.10668 9.86557 3.44378 11.6435 3.165 13.5ZM24.165 13.5H33C33.7957 13.5 34.5587 13.8161 35.1213 14.3787C35.6839 14.9413 36 15.7044 36 16.5V25.5C36 26.2956 35.6839 27.0587 35.1213 27.6213C34.5587 28.1839 33.7957 28.5 33 28.5H24C23.2044 28.5 22.4413 28.1839 21.8787 27.6213C21.3161 27.0587 21 26.2956 21 25.5V15.525C21.0009 12.8091 21.6722 10.1353 22.9544 7.74108C24.2366 5.34684 26.0899 3.30611 28.35 1.8L31.05 0L32.685 2.49L30 4.29C28.4405 5.33508 27.1161 6.69392 26.1114 8.27975C25.1067 9.86557 24.4438 11.6435 24.165 13.5Z" fill="#10B981"/>
</svg>
