<svg width="125" height="31" viewBox="0 0 125 31" fill="none" xmlns="http://www.w3.org/2000/svg">
<g clip-path="url(#clip0_24_3449)">
<g clip-path="url(#clip1_24_3449)">
<mask id="mask0_24_3449" style="mask-type:luminance" maskUnits="userSpaceOnUse" x="0" y="0" width="125" height="31">
<path d="M124.571 0.842041H0V30.3647H124.571V0.842041Z" fill="white"/>
</mask>
<g mask="url(#mask0_24_3449)">
<path d="M0.183095 12.8049C0.344775 10.6703 2.14636 8.99484 4.31749 8.97187C6.7658 8.9489 8.63668 11.0376 8.56742 13.4475C8.52119 14.7558 8.52119 15.9952 8.56742 17.3035C8.68285 19.8281 6.71962 22.0544 4.15583 22.0775C2.05398 22.1004 0.206191 20.6085 0.0676087 18.5428C-0.0709746 16.4772 0.0214142 14.7558 0.183095 12.8049Z" fill="#171717"/>
<path d="M11.8482 4.95596C12.0793 2.79849 13.927 1.16889 16.1443 1.14594C18.6619 1.12299 20.6714 3.18867 20.579 5.64453C20.3249 12.576 20.3479 18.0156 20.6482 25.2226C20.7406 27.6784 18.7774 29.7441 16.306 29.767C14.0887 29.79 12.1947 28.1604 11.9868 25.98C11.2246 18.2222 11.063 12.599 11.8482 4.95596Z" fill="#171717"/>
<path d="M23.5804 12.2308C23.8807 10.2569 25.636 8.83392 27.6454 8.81096C30.2554 8.78799 32.1956 11.0832 32.1264 13.6539C32.0801 14.8243 32.1032 15.949 32.1956 17.1196C32.3572 19.6442 30.4172 21.8706 27.8533 21.9165C25.7746 21.9395 23.9499 20.4705 23.6266 18.4278C23.2801 16.2933 23.2109 14.8014 23.5804 12.2308Z" fill="#171717"/>
<path d="M35.1967 14.183C35.497 12.255 37.3909 10.9926 39.3542 10.9697H40.1858C42.4493 10.9467 44.1585 12.7829 44.1122 15.0322C44.0661 17.3504 42.3338 19.5996 39.9779 19.6226H39.3542C37.414 19.6456 35.6125 18.4061 35.243 16.5241C35.1043 15.6978 35.0813 15.0093 35.1967 14.183Z" fill="#171717"/>
<path d="M66.2053 26.7059C66.2053 20.9015 66.2053 15.0972 66.2053 9.29278C67.3834 9.29278 68.5123 9.29278 69.6903 9.29278C69.6903 9.73174 69.6903 10.1219 69.6903 10.561C69.7886 10.5122 69.8376 10.4634 69.8867 10.4634C71.9973 8.26849 75.433 8.70744 77.2987 10.3171C78.6237 11.4876 79.3603 12.951 79.5072 14.707C79.7038 16.8531 79.1637 18.7554 77.5932 20.3162C75.5807 22.316 72.3901 22.5112 70.2793 20.9015C70.1321 20.7553 69.9358 20.6089 69.7394 20.4625C69.7394 22.6087 69.7394 24.6574 69.7394 26.7547C68.5614 26.7059 67.3834 26.7059 66.2053 26.7059ZM75.9731 15.4874C75.9731 13.7315 74.7951 12.4145 73.126 12.2681C71.4084 12.1217 70.0339 13.1949 69.7394 14.9509C69.4449 16.6093 70.4266 18.2189 71.9973 18.6578C74.1082 19.1455 75.9731 17.6823 75.9731 15.4874Z" fill="#171717"/>
<path d="M63.896 6.94873C63.3069 7.87548 62.6688 8.75345 62.0799 9.68018C61.1964 8.89977 60.1655 8.412 59.0366 8.26568C58.4475 8.21693 57.8586 8.26568 57.2695 8.36325C56.7787 8.46082 56.3859 8.85103 56.3369 9.38754C56.2387 9.97288 56.5332 10.3631 56.975 10.6557C57.4659 10.9483 58.0058 11.1922 58.5457 11.3874C59.3801 11.7289 60.2637 12.0702 61.0981 12.4116C61.3436 12.5093 61.54 12.6068 61.7853 12.7532C65.1723 14.5091 64.7795 18.5575 62.6688 20.3622C61.589 21.289 60.3619 21.7279 58.9874 21.8743C56.386 22.1181 54.0299 21.5328 52.0666 19.6794C51.2811 18.9477 51.3302 18.9477 51.9192 18.1185C52.4101 17.4844 52.8519 16.8992 53.3918 16.2162C53.539 16.3625 53.6864 16.5089 53.7845 16.6553C54.9625 17.7771 56.3369 18.4599 58.0058 18.4112C58.4966 18.4112 58.9875 18.2648 59.3802 18.0697C60.3128 17.5819 60.3619 16.5089 59.5273 15.8748C59.1838 15.631 58.7911 15.4358 58.3985 15.2895C57.4659 14.8993 56.5332 14.6066 55.6497 14.2164C55.208 14.0213 54.7662 13.7775 54.3244 13.4848C51.6248 11.68 51.7229 7.87548 54.0299 6.07076C55.4043 4.9489 57.0241 4.60748 58.7421 4.70503C60.6072 4.80257 62.2271 5.43667 63.6506 6.65607C63.6996 6.70486 63.7978 6.75363 63.8469 6.80241C63.8469 6.85118 63.8469 6.85118 63.896 6.94873Z" fill="#171717"/>
<path d="M108.663 21.6305C107.534 21.6305 106.453 21.6305 105.373 21.6305C105.373 21.2403 105.373 20.8501 105.373 20.4598C105.275 20.5086 105.227 20.5574 105.178 20.5574C102.92 22.7036 99.042 22.3133 96.981 19.8745C94.6246 17.0943 94.9681 12.4606 97.7163 10.2169C99.6315 8.65596 102.969 8.217 105.178 10.3631C105.227 10.4119 105.275 10.4119 105.373 10.5094C105.373 10.0705 105.373 9.68032 105.373 9.2413C106.503 9.2413 107.583 9.2413 108.712 9.2413C108.663 13.436 108.663 17.4845 108.663 21.6305ZM98.9439 15.4359C98.9439 17.2894 100.318 18.7527 102.134 18.7527C103.951 18.7527 105.325 17.2894 105.325 15.4359C105.325 13.5824 103.901 12.1678 102.085 12.1678C100.318 12.1678 98.9439 13.5824 98.9439 15.4359Z" fill="#171717"/>
<path d="M123.877 21.6308C123.533 21.6308 123.288 21.6308 122.993 21.6308C121.963 21.6308 120.883 21.6308 119.852 21.6308C119.705 21.6308 119.508 21.5332 119.41 21.3869C118.232 19.8748 117.054 18.3628 115.926 16.8507C115.828 16.7532 115.778 16.6555 115.68 16.558L114.944 17.3385C114.944 17.3385 114.944 20.1187 114.944 21.2406C114.944 21.3869 114.944 21.4844 114.944 21.6308C113.766 21.6308 112.588 21.6308 111.409 21.6308C111.409 15.9239 111.409 10.2171 111.409 4.51025C112.588 4.51025 113.716 4.51025 114.944 4.51025C114.944 7.38805 114.944 10.2659 114.944 13.2413C115.09 13.0949 115.189 12.9973 115.288 12.8997C116.466 11.7779 117.692 10.6073 118.87 9.53423C119.018 9.38792 119.214 9.29035 119.41 9.29035C120.735 9.29035 122.061 9.29035 123.386 9.3391C121.619 10.9974 119.852 12.6072 118.036 14.3143C120 16.7532 121.913 19.1432 123.877 21.6308Z" fill="#171717"/>
<path d="M84.713 16.6559C85.0564 17.7289 85.6455 18.4118 86.6269 18.7532C87.5104 19.0459 88.3939 19.0459 89.3264 18.8508C90.2597 18.6557 91.1432 18.3142 91.9776 17.7777C92.4191 18.5581 92.8605 19.2898 93.3026 20.0701C93.3516 20.119 93.2047 20.314 93.106 20.3629C92.0756 21.0457 90.9466 21.4847 89.7685 21.7286C88.296 22.0213 86.8724 21.9724 85.4489 21.5335C82.9949 20.7531 81.6693 18.9971 81.2768 16.5583C81.0313 15.095 81.2278 13.6317 81.9148 12.3148C83.1915 9.97348 85.253 8.94917 87.8049 8.998C88.5905 8.998 89.4251 9.14432 90.161 9.3882C92.3701 10.1686 93.5972 11.827 93.8917 14.1195C93.9896 14.8511 93.8917 15.5828 93.8917 16.2657C93.8917 16.5583 93.7937 16.6559 93.4992 16.6559C90.7499 16.6559 88.0015 16.6559 85.2033 16.6559C85.0564 16.6559 84.9088 16.6559 84.713 16.6559ZM90.4555 14.1195C90.3576 12.8513 89.0816 11.827 87.658 11.827C86.1855 11.827 84.8109 12.9001 84.713 14.1195C86.6269 14.1195 88.5416 14.1195 90.4555 14.1195Z" fill="#171717"/>
</g>
</g>
</g>
<defs>
<clipPath id="clip0_24_3449">
<rect width="125" height="30.9524" fill="white" transform="translate(0 0.0476074)"/>
</clipPath>
<clipPath id="clip1_24_3449">
<rect width="125" height="30.9524" fill="white" transform="translate(0 0.0476074)"/>
</clipPath>
</defs>
</svg>
