<svg width="32" height="32" viewBox="0 0 32 32" fill="none" xmlns="http://www.w3.org/2000/svg">
<path d="M30 28.59L22.45 21C24.2549 18.8222 25.1516 16.0328 24.9537 13.2112C24.7558 10.3896 23.4787 7.75267 21.3875 5.84809C19.2963 3.9435 16.5517 2.91768 13.724 2.98368C10.8962 3.04968 8.20255 4.20244 6.20248 6.20251C4.20241 8.20258 3.04965 10.8962 2.98365 13.724C2.91765 16.5518 3.94347 19.2963 5.84806 21.3875C7.75264 23.4787 10.3896 24.7559 13.2112 24.9537C16.0328 25.1516 18.8222 24.2549 21 22.45L28.59 30L30 28.59ZM4.99997 14C4.99997 12.22 5.52781 10.4799 6.51674 8.99987C7.50567 7.51982 8.91128 6.36627 10.5558 5.68508C12.2004 5.00389 14.01 4.82566 15.7558 5.17293C17.5016 5.5202 19.1053 6.37736 20.3639 7.63604C21.6226 8.89471 22.4798 10.4984 22.827 12.2442C23.1743 13.99 22.9961 15.7996 22.3149 17.4441C21.6337 19.0887 20.4801 20.4943 19.0001 21.4832C17.5201 22.4722 15.78 23 14 23C11.613 23 9.32383 22.0518 7.63601 20.364C5.94818 18.6761 4.99997 16.3869 4.99997 14V14Z" fill="#FB923C"/>
</svg>
