<svg width="56" height="56" viewBox="0 0 56 56" fill="none" xmlns="http://www.w3.org/2000/svg">
<path fill-rule="evenodd" clip-rule="evenodd" d="M29.75 3.5C29.75 2.87339 29.415 2.29459 28.8716 1.9825C28.3282 1.67041 27.6595 1.67265 27.1182 1.98839L6.11823 14.2384C5.58059 14.552 5.25 15.1276 5.25 15.75V40.25C5.25 40.8766 5.58503 41.4554 6.12839 41.7675C6.67176 42.0796 7.34052 42.0773 7.88177 41.7616L15.75 37.1718V46.375C15.75 47.0016 16.085 47.5804 16.6284 47.8925C17.1718 48.2046 17.8405 48.2023 18.3818 47.8866L26.25 43.2968V52.5C26.25 53.1266 26.585 53.7054 27.1284 54.0175C27.6718 54.3296 28.3405 54.3273 28.8818 54.0116L49.8818 41.7616C50.4194 41.448 50.75 40.8724 50.75 40.25C50.75 39.6276 50.4194 39.052 49.8818 38.7384L40.25 33.1199V9.625C40.25 8.99839 39.915 8.41959 39.3716 8.1075C38.8282 7.79541 38.1595 7.79765 37.6182 8.11339L29.75 12.7032V3.5ZM31.0659 31.8136C30.4826 31.4734 29.75 31.8941 29.75 32.5694V47.929C29.75 48.6043 30.4826 49.0251 31.0659 48.6848L44.2312 41.005C44.81 40.6674 44.81 39.8311 44.2312 39.4934L31.0659 31.8136Z" fill="#0EA5E9"/>
</svg>
