<svg width="507" height="108" viewBox="0 0 507 108" fill="none" xmlns="http://www.w3.org/2000/svg">
<g clip-path="url(#clip0_504_2)">
<path d="M211.198 21.5998V86.3998H199.948V35.5498H199.798L179.698 86.3998H172.198L151.648 35.5498H151.498V86.3998H141.148V21.5998H157.348L175.948 69.5998H176.248L195.898 21.5998H211.198ZM220.498 26.5498C220.498 24.7498 221.098 23.2498 222.448 22.0498C223.798 20.8498 225.298 20.2498 227.098 20.2498C229.048 20.2498 230.698 20.8498 231.898 22.0498C233.098 23.2498 233.848 24.7498 233.848 26.5498C233.848 28.3498 233.248 29.8498 231.898 31.0498C230.548 32.2498 229.048 32.8498 227.098 32.8498C225.148 32.8498 223.648 32.2498 222.448 31.0498C221.248 29.6998 220.498 28.1998 220.498 26.5498ZM232.648 39.8998V86.3998H221.698V39.8998H232.648ZM265.798 78.4498C267.448 78.4498 269.248 78.1498 271.198 77.2498C273.148 76.4998 274.948 75.4498 276.598 74.2498V84.4498C274.798 85.4998 272.848 86.2498 270.598 86.6998C268.348 87.1498 265.948 87.4498 263.248 87.4498C256.348 87.4498 250.798 85.3498 246.598 80.9998C242.248 76.6498 240.148 71.0998 240.148 64.4998C240.148 56.9998 242.398 50.8498 246.748 46.0498C251.098 41.2498 257.248 38.8498 265.348 38.8498C267.448 38.8498 269.548 39.1498 271.498 39.5998C273.598 40.0498 275.248 40.7998 276.448 41.3998V51.8998C274.798 50.6998 272.998 49.6498 271.348 49.0498C269.548 48.4498 267.748 47.9998 265.948 47.9998C261.598 47.9998 258.148 49.3498 255.448 52.1998C252.748 55.0498 251.548 58.7998 251.548 63.5998C251.548 68.2498 252.898 71.9998 255.448 74.5498C257.998 77.0998 261.448 78.4498 265.798 78.4498ZM307.648 39.1498C308.548 39.1498 309.298 39.1498 310.048 39.2998C310.798 39.4498 311.398 39.5998 311.848 39.7498V50.8498C311.248 50.3998 310.498 49.9498 309.298 49.6498C308.098 49.3498 306.898 49.0498 305.248 49.0498C302.548 49.0498 300.298 50.2498 298.498 52.4998C296.698 54.7498 295.648 58.1998 295.648 62.9998V86.3998H284.698V39.8998H295.648V47.2498H295.798C296.848 44.6998 298.348 42.7498 300.298 41.2498C302.398 39.8998 304.798 39.1498 307.648 39.1498ZM312.448 63.8998C312.448 56.2498 314.698 50.0998 318.898 45.5998C323.248 41.0998 329.248 38.8498 336.898 38.8498C344.098 38.8498 349.798 40.9498 353.848 45.2998C357.898 49.6498 359.998 55.4998 359.998 62.8498C359.998 70.3498 357.748 76.3498 353.548 80.8498C349.198 85.3498 343.348 87.5998 335.848 87.5998C328.648 87.5998 322.948 85.4998 318.748 81.2998C314.548 76.9498 312.448 71.0998 312.448 63.8998ZM323.848 63.4498C323.848 68.2498 324.898 71.9998 327.148 74.5498C329.398 77.0998 332.548 78.4498 336.598 78.4498C340.498 78.4498 343.648 77.2498 345.748 74.5498C347.848 71.9998 348.898 68.2498 348.898 63.1498C348.898 58.1998 347.848 54.4498 345.748 51.7498C343.648 49.1998 340.498 47.8498 336.748 47.8498C332.698 47.8498 329.698 49.1998 327.448 51.8998C324.898 54.7498 323.848 58.4998 323.848 63.4498ZM376.348 52.1998C376.348 53.6998 376.798 55.0498 377.848 55.9498C378.898 56.8498 380.998 57.8998 384.448 59.2498C388.798 61.0498 391.948 62.9998 393.598 65.0998C395.398 67.3498 396.298 69.8998 396.298 73.0498C396.298 77.3998 394.648 80.8498 391.198 83.5498C387.898 86.2498 383.248 87.4498 377.548 87.4498C375.598 87.4498 373.498 87.1498 371.098 86.6998C368.698 86.2498 366.748 85.6498 365.098 84.8998V74.0998C367.048 75.4498 369.298 76.6498 371.548 77.3998C373.798 78.1498 375.898 78.5998 377.848 78.5998C380.248 78.5998 382.198 78.2998 383.248 77.5498C384.448 76.7998 385.048 75.7498 385.048 74.0998C385.048 72.5998 384.448 71.3998 383.248 70.1998C382.048 69.1498 379.648 67.9498 376.348 66.5998C372.298 64.9498 369.448 62.9998 367.798 60.8998C366.148 58.7998 365.248 56.0998 365.248 52.7998C365.248 48.5998 366.898 45.1498 370.198 42.4498C373.498 39.7498 377.848 38.3998 383.098 38.3998C384.748 38.3998 386.548 38.5498 388.498 38.9998C390.448 39.4498 392.248 39.8998 393.598 40.3498V50.9998C392.098 50.0998 390.448 49.1998 388.498 48.4498C386.548 47.6998 384.598 47.3998 382.798 47.3998C380.698 47.3998 379.048 47.8498 377.998 48.5998C376.948 49.6498 376.348 50.6998 376.348 52.1998ZM400.948 63.8998C400.948 56.2498 403.198 50.0998 407.398 45.5998C411.748 41.0998 417.748 38.8498 425.398 38.8498C432.598 38.8498 438.298 40.9498 442.348 45.2998C446.398 49.6498 448.498 55.4998 448.498 62.8498C448.498 70.3498 446.248 76.3498 442.048 80.8498C437.698 85.3498 431.848 87.5998 424.348 87.5998C417.148 87.5998 411.448 85.4998 407.248 81.2998C403.198 76.9498 400.948 71.0998 400.948 63.8998ZM412.348 63.4498C412.348 68.2498 413.398 71.9998 415.648 74.5498C417.898 77.0998 421.048 78.4498 425.098 78.4498C428.998 78.4498 432.148 77.2498 434.248 74.5498C436.348 71.9998 437.398 68.2498 437.398 63.1498C437.398 58.1998 436.348 54.4498 434.248 51.7498C432.148 49.1998 428.998 47.8498 425.248 47.8498C421.198 47.8498 418.198 49.1998 415.948 51.8998C413.548 54.7498 412.348 58.4998 412.348 63.4498ZM484.948 48.8998H468.598V86.3998H457.498V48.8998H449.698V39.8998H457.498V33.4498C457.498 28.6498 459.148 24.5998 462.298 21.4498C465.448 18.2998 469.498 16.7998 474.448 16.7998C475.798 16.7998 476.998 16.9498 478.048 16.9498C479.098 16.9498 479.998 17.2498 480.748 17.5498V26.9998C480.448 26.8498 479.698 26.5498 478.798 26.2498C477.898 25.9498 476.848 25.7998 475.648 25.7998C473.398 25.7998 471.598 26.5498 470.398 27.8998C469.198 29.2498 468.598 31.4998 468.598 34.1998V39.7498H484.948V29.2498L495.898 25.9498V39.7498H506.998V48.7498H495.898V70.4998C495.898 73.3498 496.498 75.2998 497.398 76.4998C498.448 77.6998 500.098 78.2998 502.348 78.2998C502.948 78.2998 503.698 78.1498 504.598 77.8498C505.498 77.5498 506.248 77.2498 506.848 76.7998V85.7998C506.098 86.2498 505.048 86.5498 503.398 86.8498C501.748 87.1498 500.248 87.2998 498.598 87.2998C493.948 87.2998 490.498 86.0998 488.248 83.6998C485.998 81.2998 484.798 77.5498 484.798 72.5998L484.948 48.8998Z" fill="white"/>
<path d="M51.8996 0H0.599609V51.3H51.8996V0Z" fill="white"/>
<path d="M108.601 0H57.3008V51.3H108.601V0Z" fill="white"/>
<path d="M51.8996 56.7H0.599609V108H51.8996V56.7Z" fill="white"/>
<path d="M108.601 56.7002H57.3008V108H108.601V56.7002Z" fill="white"/>
</g>
<defs>
<clipPath id="clip0_504_2">
<rect width="506.4" height="108" fill="white" transform="translate(0.599609)"/>
</clipPath>
</defs>
</svg>
